<?xml version="1.0" encoding="UTF-8" standalone="no"?>
<!DOCTYPE svg PUBLIC "-//W3C//DTD SVG 1.1//EN"
 "http://www.w3.org/Graphics/SVG/1.1/DTD/svg11.dtd">
<!-- Generated by graphviz version 11.0.0 (20240428.1522)
 -->
<!-- Title: src/NukiBle.h Pages: 1 -->
<svg width="828pt" height="248pt"
 viewBox="0.00 0.00 827.88 248.25" xmlns="http://www.w3.org/2000/svg" xmlns:xlink="http://www.w3.org/1999/xlink">
<g id="graph0" class="graph" transform="scale(1 1) rotate(0) translate(4 244.25)">
<title>src/NukiBle.h</title>
<!-- Node1 -->
<g id="Node000001" class="node">
<title>Node1</title>
<g id="a_Node000001"><a xlink:title=" ">
<polygon fill="#999999" stroke="#666666" points="372.38,-240.25 297.88,-240.25 297.88,-221 372.38,-221 372.38,-240.25"/>
<text text-anchor="middle" x="335.12" y="-226.75" font-family="Helvetica,sans-Serif" font-size="10.00">src/NukiBle.h</text>
</a>
</g>
</g>
<!-- Node2 -->
<g id="Node000002" class="node">
<title>Node2</title>
<g id="a_Node000002"><a xlink:title=" ">
<polygon fill="#e0e0e0" stroke="#999999" points="90.25,-185 0,-185 0,-165.75 90.25,-165.75 90.25,-185"/>
<text text-anchor="middle" x="45.12" y="-171.5" font-family="Helvetica,sans-Serif" font-size="10.00">NimBLEDevice.h</text>
</a>
</g>
</g>
<!-- Node1&#45;&gt;Node2 -->
<g id="edge1_Node000001_Node000002" class="edge">
<title>Node1&#45;&gt;Node2</title>
<g id="a_edge1_Node000001_Node000002"><a xlink:title=" ">
<path fill="none" stroke="#63b8ff" d="M297.51,-222.72C247.65,-213.56 159.26,-197.33 101.43,-186.71"/>
<polygon fill="#63b8ff" stroke="#63b8ff" points="102.25,-183.31 91.78,-184.94 100.99,-190.19 102.25,-183.31"/>
</a>
</g>
</g>
<!-- Node3 -->
<g id="Node000003" class="node">
<title>Node3</title>
<g id="a_Node000003"><a xlink:href="_nuki_constants_8h.html" target="_top" xlink:title=" ">
<polygon fill="white" stroke="#666666" points="200.12,-74.5 112.12,-74.5 112.12,-55.25 200.12,-55.25 200.12,-74.5"/>
<text text-anchor="middle" x="156.12" y="-61" font-family="Helvetica,sans-Serif" font-size="10.00">NukiConstants.h</text>
</a>
</g>
</g>
<!-- Node1&#45;&gt;Node3 -->
<g id="edge2_Node000001_Node000003" class="edge">
<title>Node1&#45;&gt;Node3</title>
<g id="a_edge2_Node000001_Node000003"><a xlink:title=" ">
<path fill="none" stroke="#63b8ff" d="M297.39,-225.37C250.96,-219.27 176.19,-206.37 159.12,-185 136.6,-156.8 143.38,-111.71 149.99,-85.85"/>
<polygon fill="#63b8ff" stroke="#63b8ff" points="153.33,-86.89 152.68,-76.32 146.6,-84.99 153.33,-86.89"/>
</a>
</g>
</g>
<!-- Node5 -->
<g id="Node000005" class="node">
<title>Node5</title>
<g id="a_Node000005"><a xlink:href="_nuki_data_types_8h.html" target="_top" xlink:title=" ">
<polygon fill="white" stroke="#666666" points="274.25,-129.75 184,-129.75 184,-110.5 274.25,-110.5 274.25,-129.75"/>
<text text-anchor="middle" x="229.12" y="-116.25" font-family="Helvetica,sans-Serif" font-size="10.00">NukiDataTypes.h</text>
</a>
</g>
</g>
<!-- Node1&#45;&gt;Node5 -->
<g id="edge4_Node000001_Node000005" class="edge">
<title>Node1&#45;&gt;Node5</title>
<g id="a_edge4_Node000001_Node000005"><a xlink:title=" ">
<path fill="none" stroke="#63b8ff" d="M325.22,-220.58C315.59,-211.69 300.61,-197.66 288.12,-185 272.94,-169.61 256.28,-151.44 244.54,-138.43"/>
<polygon fill="#63b8ff" stroke="#63b8ff" points="247.26,-136.21 237.97,-131.1 242.04,-140.88 247.26,-136.21"/>
</a>
</g>
</g>
<!-- Node6 -->
<g id="Node000006" class="node">
<title>Node6</title>
<g id="a_Node000006"><a xlink:title=" ">
<polygon fill="#e0e0e0" stroke="#999999" points="302.38,-74.5 245.88,-74.5 245.88,-55.25 302.38,-55.25 302.38,-74.5"/>
<text text-anchor="middle" x="274.12" y="-61" font-family="Helvetica,sans-Serif" font-size="10.00">Arduino.h</text>
</a>
</g>
</g>
<!-- Node1&#45;&gt;Node6 -->
<g id="edge7_Node000001_Node000006" class="edge">
<title>Node1&#45;&gt;Node6</title>
<g id="a_edge7_Node000001_Node000006"><a xlink:title=" ">
<path fill="none" stroke="#63b8ff" d="M331.85,-220.82C322.33,-195.28 294.55,-120.7 281.31,-85.15"/>
<polygon fill="#63b8ff" stroke="#63b8ff" points="284.72,-84.29 277.95,-76.14 278.16,-86.73 284.72,-84.29"/>
</a>
</g>
</g>
<!-- Node7 -->
<g id="Node000007" class="node">
<title>Node7</title>
<g id="a_Node000007"><a xlink:title=" ">
<polygon fill="#e0e0e0" stroke="#999999" points="406.12,-185 330.12,-185 330.12,-165.75 406.12,-165.75 406.12,-185"/>
<text text-anchor="middle" x="368.12" y="-171.5" font-family="Helvetica,sans-Serif" font-size="10.00">Preferences.h</text>
</a>
</g>
</g>
<!-- Node1&#45;&gt;Node7 -->
<g id="edge8_Node000001_Node000007" class="edge">
<title>Node1&#45;&gt;Node7</title>
<g id="a_edge8_Node000001_Node000007"><a xlink:title=" ">
<path fill="none" stroke="#63b8ff" d="M340.57,-220.83C344.9,-213.86 351.09,-203.87 356.51,-195.12"/>
<polygon fill="#63b8ff" stroke="#63b8ff" points="359.47,-196.99 361.76,-186.65 353.52,-193.3 359.47,-196.99"/>
</a>
</g>
</g>
<!-- Node8 -->
<g id="Node000008" class="node">
<title>Node8</title>
<g id="a_Node000008"><a xlink:title=" ">
<polygon fill="#e0e0e0" stroke="#999999" points="508.25,-185 424,-185 424,-165.75 508.25,-165.75 508.25,-185"/>
<text text-anchor="middle" x="466.12" y="-171.5" font-family="Helvetica,sans-Serif" font-size="10.00">esp_task_wdt.h</text>
</a>
</g>
</g>
<!-- Node1&#45;&gt;Node8 -->
<g id="edge9_Node000001_Node000008" class="edge">
<title>Node1&#45;&gt;Node8</title>
<g id="a_edge9_Node000001_Node000008"><a xlink:title=" ">
<path fill="none" stroke="#63b8ff" d="M357.35,-220.59C378.14,-212.14 409.47,-199.4 433.18,-189.77"/>
<polygon fill="#63b8ff" stroke="#63b8ff" points="434.45,-193.03 442.39,-186.02 431.81,-186.55 434.45,-193.03"/>
</a>
</g>
</g>
<!-- Node9 -->
<g id="Node000009" class="node">
<title>Node9</title>
<g id="a_Node000009"><a xlink:title=" ">
<polygon fill="#e0e0e0" stroke="#999999" points="607.75,-185 526.5,-185 526.5,-165.75 607.75,-165.75 607.75,-185"/>
<text text-anchor="middle" x="567.12" y="-171.5" font-family="Helvetica,sans-Serif" font-size="10.00">BleInterfaces.h</text>
</a>
</g>
</g>
<!-- Node1&#45;&gt;Node9 -->
<g id="edge10_Node000001_Node000009" class="edge">
<title>Node1&#45;&gt;Node9</title>
<g id="a_edge10_Node000001_Node000009"><a xlink:title=" ">
<path fill="none" stroke="#63b8ff" d="M372.66,-221.01C411.74,-212.04 473.2,-197.93 516.55,-187.98"/>
<polygon fill="#63b8ff" stroke="#63b8ff" points="517.27,-191.41 526.23,-185.76 515.7,-184.59 517.27,-191.41"/>
</a>
</g>
</g>
<!-- Node10 -->
<g id="Node000010" class="node">
<title>Node10</title>
<g id="a_Node000010"><a xlink:title=" ">
<polygon fill="#e0e0e0" stroke="#999999" points="670.75,-185 625.5,-185 625.5,-165.75 670.75,-165.75 670.75,-185"/>
<text text-anchor="middle" x="648.12" y="-171.5" font-family="Helvetica,sans-Serif" font-size="10.00">atomic</text>
</a>
</g>
</g>
<!-- Node1&#45;&gt;Node10 -->
<g id="edge11_Node000001_Node000010" class="edge">
<title>Node1&#45;&gt;Node10</title>
<g id="a_edge11_Node000001_Node000010"><a xlink:title=" ">
<path fill="none" stroke="#63b8ff" d="M372.78,-225.06C424.98,-218.43 522.43,-204.96 614.04,-185.48"/>
<polygon fill="#63b8ff" stroke="#63b8ff" points="614.66,-188.93 623.7,-183.39 613.18,-182.08 614.66,-188.93"/>
</a>
</g>
</g>
<!-- Node11 -->
<g id="Node000011" class="node">
<title>Node11</title>
<g id="a_Node000011"><a xlink:title=" ">
<polygon fill="#e0e0e0" stroke="#999999" points="819.88,-185 688.38,-185 688.38,-165.75 819.88,-165.75 819.88,-185"/>
<text text-anchor="middle" x="754.12" y="-171.5" font-family="Helvetica,sans-Serif" font-size="10.00">sodium/crypto_secretbox.h</text>
</a>
</g>
</g>
<!-- Node1&#45;&gt;Node11 -->
<g id="edge12_Node000001_Node000011" class="edge">
<title>Node1&#45;&gt;Node11</title>
<g id="a_edge12_Node000001_Node000011"><a xlink:title=" ">
<path fill="none" stroke="#63b8ff" d="M372.68,-224.85C440.87,-216.19 586.33,-197.7 676.61,-186.23"/>
<polygon fill="#63b8ff" stroke="#63b8ff" points="676.9,-189.72 686.38,-184.98 676.02,-182.77 676.9,-189.72"/>
</a>
</g>
</g>
<!-- Node12 -->
<g id="Node000012" class="node">
<title>Node12</title>
<g id="a_Node000012"><a xlink:href="_nuki_ble_8hpp.html" target="_top" xlink:title=" ">
<polygon fill="white" stroke="#666666" points="236.38,-185 167.88,-185 167.88,-165.75 236.38,-165.75 236.38,-185"/>
<text text-anchor="middle" x="202.12" y="-171.5" font-family="Helvetica,sans-Serif" font-size="10.00">NukiBle.hpp</text>
</a>
</g>
</g>
<!-- Node1&#45;&gt;Node12 -->
<g id="edge13_Node000001_Node000012" class="edge">
<title>Node1&#45;&gt;Node12</title>
<g id="a_edge13_Node000001_Node000012"><a xlink:title=" ">
<path fill="none" stroke="#63b8ff" d="M312.56,-220.59C291.35,-212.1 259.35,-199.29 235.25,-189.64"/>
<polygon fill="#63b8ff" stroke="#63b8ff" points="236.79,-186.48 226.2,-186.02 234.19,-192.98 236.79,-186.48"/>
</a>
</g>
</g>
<!-- Node4 -->
<g id="Node000004" class="node">
<title>Node4</title>
<g id="a_Node000004"><a xlink:title=" ">
<polygon fill="#e0e0e0" stroke="#999999" points="198.62,-19.25 113.62,-19.25 113.62,0 198.62,0 198.62,-19.25"/>
<text text-anchor="middle" x="156.12" y="-5.75" font-family="Helvetica,sans-Serif" font-size="10.00">NimBLEUUID.h</text>
</a>
</g>
</g>
<!-- Node3&#45;&gt;Node4 -->
<g id="edge3_Node000003_Node000004" class="edge">
<title>Node3&#45;&gt;Node4</title>
<g id="a_edge3_Node000003_Node000004"><a xlink:title=" ">
<path fill="none" stroke="#63b8ff" d="M156.12,-55.08C156.12,-48.57 156.12,-39.42 156.12,-31.12"/>
<polygon fill="#63b8ff" stroke="#63b8ff" points="159.63,-31.12 156.13,-21.12 152.63,-31.12 159.63,-31.12"/>
</a>
</g>
</g>
<!-- Node5&#45;&gt;Node3 -->
<g id="edge6_Node000005_Node000003" class="edge">
<title>Node5&#45;&gt;Node3</title>
<g id="a_edge6_Node000005_Node000003"><a xlink:title=" ">
<path fill="none" stroke="#63b8ff" d="M216.74,-110.09C205.98,-102.24 190.15,-90.7 177.37,-81.37"/>
<polygon fill="#63b8ff" stroke="#63b8ff" points="179.69,-78.73 169.55,-75.67 175.56,-84.39 179.69,-78.73"/>
</a>
</g>
</g>
<!-- Node5&#45;&gt;Node6 -->
<g id="edge5_Node000005_Node000006" class="edge">
<title>Node5&#45;&gt;Node6</title>
<g id="a_edge5_Node000005_Node000006"><a xlink:title=" ">
<path fill="none" stroke="#63b8ff" d="M236.56,-110.33C242.71,-103.05 251.64,-92.48 259.25,-83.48"/>
<polygon fill="#63b8ff" stroke="#63b8ff" points="261.77,-85.91 265.56,-76.02 256.43,-81.39 261.77,-85.91"/>
</a>
</g>
</g>
<!-- Node12&#45;&gt;Node3 -->
<g id="edge14_Node000012_Node000003" class="edge">
<title>Node12&#45;&gt;Node3</title>
<g id="a_edge14_Node000012_Node000003"><a xlink:title=" ">
<path fill="none" stroke="#63b8ff" d="M195.83,-165.51C189.84,-156.77 180.91,-142.83 175.12,-129.75 168.81,-115.48 163.87,-98.51 160.62,-85.65"/>
<polygon fill="#63b8ff" stroke="#63b8ff" points="164.11,-85.19 158.37,-76.28 157.3,-86.82 164.11,-85.19"/>
</a>
</g>
</g>
<!-- Node12&#45;&gt;Node5 -->
<g id="edge15_Node000012_Node000005" class="edge">
<title>Node12&#45;&gt;Node5</title>
<g id="a_edge15_Node000012_Node000005"><a xlink:title=" ">
<path fill="none" stroke="#63b8ff" d="M206.58,-165.58C210.08,-158.69 215.07,-148.84 219.47,-140.16"/>
<polygon fill="#63b8ff" stroke="#63b8ff" points="222.48,-141.96 223.89,-131.46 216.24,-138.8 222.48,-141.96"/>
</a>
</g>
</g>
</g>
</svg>
