<?xml version="1.0" encoding="UTF-8" standalone="no"?>
<!DOCTYPE svg PUBLIC "-//W3C//DTD SVG 1.1//EN"
 "http://www.w3.org/Graphics/SVG/1.1/DTD/svg11.dtd">
<!-- Generated by graphviz version 7.0.2 (20221119.0110)
 -->
<!-- Title: src/NukiLock.cpp Pages: 1 -->
<!--zoomable 357 -->
<svg id="main" version="1.1" xmlns="http://www.w3.org/2000/svg" xmlns:xlink="http://www.w3.org/1999/xlink" xml:space="preserve" onload="init(evt)">
<style type="text/css"><![CDATA[
.edge:hover path { stroke: red; }
.edge:hover polygon { stroke: red; fill: red; }
]]></style>
<script type="text/javascript"><![CDATA[
var edges = document.getElementsByTagName('g');
if (edges && edges.length) {
  for (var i=0;i<edges.length;i++) {
    if (edges[i].id.substr(0,4)=='edge') {
      edges[i].setAttribute('class','edge');
    }
  }
}
]]></script>
        <defs>
                <circle id="rim" cx="0" cy="0" r="7"/>
                <circle id="rim2" cx="0" cy="0" r="3.5"/>
                <g id="zoomPlus">
                        <use xlink:href="#rim" fill="#404040">
                                <set attributeName="fill" to="#808080" begin="zoomplus.mouseover" end="zoomplus.mouseout"/>
                        </use>
                        <path d="M-4,0h8M0,-4v8" fill="none" stroke="white" stroke-width="1.5" pointer-events="none"/>
                </g>
                <g id="zoomMin">
                        <use xlink:href="#rim" fill="#404040">
                                <set attributeName="fill" to="#808080" begin="zoomminus.mouseover" end="zoomminus.mouseout"/>
                        </use>
                        <path d="M-4,0h8" fill="none" stroke="white" stroke-width="1.5" pointer-events="none"/>
                </g>
                <g id="dirArrow">
                        <path fill="none" stroke="white" stroke-width="1.5" d="M0,-3.0v7 M-2.5,-0.5L0,-3.0L2.5,-0.5"/>
                </g>
               <g id="resetDef">
                       <use xlink:href="#rim2" fill="#404040">
                               <set attributeName="fill" to="#808080" begin="reset.mouseover" end="reset.mouseout"/>
                       </use>
               </g>
        </defs>

<script type="text/javascript">
var viewWidth = 1020;
var viewHeight = 357;
var sectionId = 'dynsection-0';
</script>
<script xlink:href="svgpan.js"/>
<svg id="graph" class="graph">
<g id="viewport">
<title>src/NukiLock.cpp</title>
<!-- Node1 -->
<g id="node1" class="node">
<title>Node1</title>
<g id="a_node1"><a xlink:title=" ">
<polygon fill="#999999" stroke="#666666" points="914.5,-349 821.5,-349 821.5,-330 914.5,-330 914.5,-349"/>
<text text-anchor="middle" x="868" y="-337" font-family="Helvetica,sans-Serif" font-size="10.00">src/NukiLock.cpp</text>
</a>
</g>
</g>
<!-- Node2 -->
<g id="node2" class="node">
<title>Node2</title>
<g id="a_node2"><a xlink:href="_nuki_lock_utils_8h.html" target="_top" xlink:title=" ">
<polygon fill="white" stroke="#666666" points="911,-184 825,-184 825,-165 911,-165 911,-184"/>
<text text-anchor="middle" x="868" y="-172" font-family="Helvetica,sans-Serif" font-size="10.00">NukiLockUtils.h</text>
</a>
</g>
</g>
<!-- Node1&#45;&gt;Node2 -->
<g id="edge1" class="edge">
<title>Node1&#45;&gt;Node2</title>
<path fill="none" stroke="#63b8ff" d="M868,-329.74C868,-304.53 868,-231.36 868,-195.62"/>
<polygon fill="#63b8ff" stroke="#63b8ff" points="871.5,-195.82 868,-185.82 864.5,-195.82 871.5,-195.82"/>
</g>
<!-- Node9 -->
<g id="node9" class="node">
<title>Node9</title>
<g id="a_node9"><a xlink:href="_nuki_lock_8h.html" target="_top" xlink:title=" ">
<polygon fill="white" stroke="#666666" points="644,-294 578,-294 578,-275 644,-275 644,-294"/>
<text text-anchor="middle" x="611" y="-282" font-family="Helvetica,sans-Serif" font-size="10.00">NukiLock.h</text>
</a>
</g>
</g>
<!-- Node1&#45;&gt;Node9 -->
<g id="edge11" class="edge">
<title>Node1&#45;&gt;Node9</title>
<path fill="none" stroke="#63b8ff" d="M824.4,-329.51C777.3,-319.8 702.66,-304.4 655.29,-294.63"/>
<polygon fill="#63b8ff" stroke="#63b8ff" points="656.15,-291.24 645.64,-292.64 654.73,-298.09 656.15,-291.24"/>
</g>
<!-- Node17 -->
<g id="node17" class="node">
<title>Node17</title>
<g id="a_node17"><a xlink:href="_nuki_utils_8h.html" target="_top" xlink:title=" ">
<polygon fill="white" stroke="#666666" points="994.5,-184 929.5,-184 929.5,-165 994.5,-165 994.5,-184"/>
<text text-anchor="middle" x="962" y="-172" font-family="Helvetica,sans-Serif" font-size="10.00">NukiUtils.h</text>
</a>
</g>
</g>
<!-- Node1&#45;&gt;Node17 -->
<g id="edge26" class="edge">
<title>Node1&#45;&gt;Node17</title>
<path fill="none" stroke="#63b8ff" d="M873.05,-329.74C887.78,-304.2 930.9,-229.43 951.2,-194.23"/>
<polygon fill="#63b8ff" stroke="#63b8ff" points="954.2,-196.03 956.17,-185.62 948.14,-192.53 954.2,-196.03"/>
</g>
<!-- Node3 -->
<g id="node3" class="node">
<title>Node3</title>
<g id="a_node3"><a xlink:title=" ">
<polygon fill="#e0e0e0" stroke="#999999" points="933.5,-74 876.5,-74 876.5,-55 933.5,-55 933.5,-74"/>
<text text-anchor="middle" x="905" y="-62" font-family="Helvetica,sans-Serif" font-size="10.00">Arduino.h</text>
</a>
</g>
</g>
<!-- Node2&#45;&gt;Node3 -->
<g id="edge2" class="edge">
<title>Node2&#45;&gt;Node3</title>
<path fill="none" stroke="#63b8ff" d="M863.29,-164.92C857.08,-152.36 847.83,-128.47 856,-110 861.16,-98.34 871.06,-88.42 880.62,-80.93"/>
<polygon fill="#63b8ff" stroke="#63b8ff" points="882.57,-83.84 888.64,-75.16 878.48,-78.16 882.57,-83.84"/>
</g>
<!-- Node4 -->
<g id="node4" class="node">
<title>Node4</title>
<g id="a_node4"><a xlink:href="_nuki_data_types_8h.html" target="_top" xlink:title=" ">
<polygon fill="white" stroke="#666666" points="557.5,-129 466.5,-129 466.5,-110 557.5,-110 557.5,-129"/>
<text text-anchor="middle" x="512" y="-117" font-family="Helvetica,sans-Serif" font-size="10.00">NukiDataTypes.h</text>
</a>
</g>
</g>
<!-- Node2&#45;&gt;Node4 -->
<g id="edge3" class="edge">
<title>Node2&#45;&gt;Node4</title>
<path fill="none" stroke="#63b8ff" d="M824.6,-166.35C821.69,-165.89 818.8,-165.43 816,-165 730.08,-151.69 630.34,-137.29 569.2,-128.58"/>
<polygon fill="#63b8ff" stroke="#63b8ff" points="569.76,-125.13 559.37,-127.19 568.78,-132.06 569.76,-125.13"/>
</g>
<!-- Node7 -->
<g id="node7" class="node">
<title>Node7</title>
<g id="a_node7"><a xlink:href="_nuki_lock_constants_8h.html" target="_top" xlink:title=" ">
<polygon fill="white" stroke="#666666" points="110,-129 0,-129 0,-110 110,-110 110,-129"/>
<text text-anchor="middle" x="55" y="-117" font-family="Helvetica,sans-Serif" font-size="10.00">NukiLockConstants.h</text>
</a>
</g>
</g>
<!-- Node2&#45;&gt;Node7 -->
<g id="edge7" class="edge">
<title>Node2&#45;&gt;Node7</title>
<path fill="none" stroke="#63b8ff" d="M824.63,-166.07C821.72,-165.67 818.82,-165.31 816,-165 560.05,-136.67 253.54,-125.7 121.2,-122.06"/>
<polygon fill="#63b8ff" stroke="#63b8ff" points="121.68,-118.58 111.59,-121.81 121.49,-125.57 121.68,-118.58"/>
</g>
<!-- Node8 -->
<g id="node8" class="node">
<title>Node8</title>
<g id="a_node8"><a xlink:title=" ">
<polygon fill="#e0e0e0" stroke="#999999" points="906.5,-129 865.5,-129 865.5,-110 906.5,-110 906.5,-129"/>
<text text-anchor="middle" x="886" y="-117" font-family="Helvetica,sans-Serif" font-size="10.00">bitset</text>
</a>
</g>
</g>
<!-- Node2&#45;&gt;Node8 -->
<g id="edge10" class="edge">
<title>Node2&#45;&gt;Node8</title>
<path fill="none" stroke="#63b8ff" d="M870.97,-164.75C873.23,-158.11 876.41,-148.73 879.27,-140.31"/>
<polygon fill="#63b8ff" stroke="#63b8ff" points="882.57,-141.47 882.48,-130.88 875.95,-139.22 882.57,-141.47"/>
</g>
<!-- Node4&#45;&gt;Node3 -->
<g id="edge4" class="edge">
<title>Node4&#45;&gt;Node3</title>
<path fill="none" stroke="#63b8ff" d="M557.85,-112.32C635.5,-101.84 791.58,-80.8 865.04,-70.89"/>
<polygon fill="#63b8ff" stroke="#63b8ff" points="865.15,-74.41 874.6,-69.6 864.22,-67.47 865.15,-74.41"/>
</g>
<!-- Node5 -->
<g id="node5" class="node">
<title>Node5</title>
<g id="a_node5"><a xlink:href="_nuki_constants_8h.html" target="_top" xlink:title=" ">
<polygon fill="white" stroke="#666666" points="201.5,-74 112.5,-74 112.5,-55 201.5,-55 201.5,-74"/>
<text text-anchor="middle" x="157" y="-62" font-family="Helvetica,sans-Serif" font-size="10.00">NukiConstants.h</text>
</a>
</g>
</g>
<!-- Node4&#45;&gt;Node5 -->
<g id="edge5" class="edge">
<title>Node4&#45;&gt;Node5</title>
<path fill="none" stroke="#63b8ff" d="M466.32,-111.68C401.57,-102.01 283.21,-84.34 213.18,-73.89"/>
<polygon fill="#63b8ff" stroke="#63b8ff" points="213.85,-70.45 203.45,-72.43 212.82,-77.37 213.85,-70.45"/>
</g>
<!-- Node6 -->
<g id="node6" class="node">
<title>Node6</title>
<g id="a_node6"><a xlink:title=" ">
<polygon fill="#e0e0e0" stroke="#999999" points="158,-19 72,-19 72,0 158,0 158,-19"/>
<text text-anchor="middle" x="115" y="-7" font-family="Helvetica,sans-Serif" font-size="10.00">NimBLEUUID.h</text>
</a>
</g>
</g>
<!-- Node5&#45;&gt;Node6 -->
<g id="edge6" class="edge">
<title>Node5&#45;&gt;Node6</title>
<path fill="none" stroke="#63b8ff" d="M150.06,-54.75C144.38,-47.58 136.16,-37.2 129.11,-28.3"/>
<polygon fill="#63b8ff" stroke="#63b8ff" points="131.98,-26.29 123.03,-20.63 126.49,-30.64 131.98,-26.29"/>
</g>
<!-- Node7&#45;&gt;Node5 -->
<g id="edge9" class="edge">
<title>Node7&#45;&gt;Node5</title>
<path fill="none" stroke="#63b8ff" d="M72.3,-109.51C88.08,-101.31 111.64,-89.07 129.91,-79.58"/>
<polygon fill="#63b8ff" stroke="#63b8ff" points="131.35,-82.77 138.61,-75.06 128.12,-76.56 131.35,-82.77"/>
</g>
<!-- Node7&#45;&gt;Node6 -->
<g id="edge8" class="edge">
<title>Node7&#45;&gt;Node6</title>
<path fill="none" stroke="#63b8ff" d="M59.91,-109.66C69.62,-92.18 91.48,-52.84 104.55,-29.3"/>
<polygon fill="#63b8ff" stroke="#63b8ff" points="107.49,-31.22 109.29,-20.78 101.37,-27.83 107.49,-31.22"/>
</g>
<!-- Node9&#45;&gt;Node2 -->
<g id="edge25" class="edge">
<title>Node9&#45;&gt;Node2</title>
<path fill="none" stroke="#63b8ff" d="M632.03,-274.66C677.02,-255.75 782.84,-211.29 836.14,-188.89"/>
<polygon fill="#63b8ff" stroke="#63b8ff" points="837.42,-192.15 845.28,-185.05 834.71,-185.69 837.42,-192.15"/>
</g>
<!-- Node9&#45;&gt;Node7 -->
<g id="edge24" class="edge">
<title>Node9&#45;&gt;Node7</title>
<path fill="none" stroke="#63b8ff" d="M577.76,-283.22C495.13,-281.21 275.82,-267.75 119,-184 98.13,-172.86 79.6,-152.74 67.92,-138.13"/>
<polygon fill="#63b8ff" stroke="#63b8ff" points="70.76,-136.08 61.9,-130.27 65.2,-140.34 70.76,-136.08"/>
</g>
<!-- Node10 -->
<g id="node10" class="node">
<title>Node10</title>
<g id="a_node10"><a xlink:href="_nuki_ble_8h.html" target="_top" xlink:title=" ">
<polygon fill="white" stroke="#666666" points="493.5,-239 434.5,-239 434.5,-220 493.5,-220 493.5,-239"/>
<text text-anchor="middle" x="464" y="-227" font-family="Helvetica,sans-Serif" font-size="10.00">NukiBle.h</text>
</a>
</g>
</g>
<!-- Node9&#45;&gt;Node10 -->
<g id="edge12" class="edge">
<title>Node9&#45;&gt;Node10</title>
<path fill="none" stroke="#63b8ff" d="M586.06,-274.51C562.16,-265.89 525.86,-252.8 499.05,-243.14"/>
<polygon fill="#63b8ff" stroke="#63b8ff" points="500.59,-239.97 489.99,-239.87 498.21,-246.56 500.59,-239.97"/>
</g>
<!-- Node10&#45;&gt;Node3 -->
<g id="edge16" class="edge">
<title>Node10&#45;&gt;Node3</title>
<path fill="none" stroke="#63b8ff" d="M493.81,-228.34C601.85,-227.45 968.34,-221.64 1003,-184 1036.2,-147.94 971.38,-102.66 932.05,-79.92"/>
<polygon fill="#63b8ff" stroke="#63b8ff" points="933.96,-76.98 923.53,-75.13 930.53,-83.08 933.96,-76.98"/>
</g>
<!-- Node10&#45;&gt;Node4 -->
<g id="edge15" class="edge">
<title>Node10&#45;&gt;Node4</title>
<path fill="none" stroke="#63b8ff" d="M434.13,-228.94C366.13,-228.97 209.31,-222.96 258,-165 282.63,-135.67 387.8,-125.67 454.85,-122.26"/>
<polygon fill="#63b8ff" stroke="#63b8ff" points="454.74,-125.77 464.57,-121.8 454.42,-118.78 454.74,-125.77"/>
</g>
<!-- Node10&#45;&gt;Node5 -->
<g id="edge14" class="edge">
<title>Node10&#45;&gt;Node5</title>
<path fill="none" stroke="#63b8ff" d="M434.12,-229.25C360.07,-230.41 171.2,-228.81 132,-184 107.29,-155.75 129.19,-109.29 144.72,-83.74"/>
<polygon fill="#63b8ff" stroke="#63b8ff" points="147.57,-85.77 150.01,-75.46 141.68,-82 147.57,-85.77"/>
</g>
<!-- Node11 -->
<g id="node11" class="node">
<title>Node11</title>
<g id="a_node11"><a xlink:title=" ">
<polygon fill="#e0e0e0" stroke="#999999" points="358.5,-184 267.5,-184 267.5,-165 358.5,-165 358.5,-184"/>
<text text-anchor="middle" x="313" y="-172" font-family="Helvetica,sans-Serif" font-size="10.00">NimBLEDevice.h</text>
</a>
</g>
</g>
<!-- Node10&#45;&gt;Node11 -->
<g id="edge13" class="edge">
<title>Node10&#45;&gt;Node11</title>
<path fill="none" stroke="#63b8ff" d="M438.38,-219.51C413.91,-210.92 376.76,-197.88 349.25,-188.22"/>
<polygon fill="#63b8ff" stroke="#63b8ff" points="350.51,-184.96 339.92,-184.95 348.19,-191.56 350.51,-184.96"/>
</g>
<!-- Node12 -->
<g id="node12" class="node">
<title>Node12</title>
<g id="a_node12"><a xlink:title=" ">
<polygon fill="#e0e0e0" stroke="#999999" points="453.5,-184 376.5,-184 376.5,-165 453.5,-165 453.5,-184"/>
<text text-anchor="middle" x="415" y="-172" font-family="Helvetica,sans-Serif" font-size="10.00">Preferences.h</text>
</a>
</g>
</g>
<!-- Node10&#45;&gt;Node12 -->
<g id="edge17" class="edge">
<title>Node10&#45;&gt;Node12</title>
<path fill="none" stroke="#63b8ff" d="M455.91,-219.75C449.14,-212.43 439.28,-201.76 430.94,-192.74"/>
<polygon fill="#63b8ff" stroke="#63b8ff" points="433.65,-190.52 424.29,-185.55 428.51,-195.27 433.65,-190.52"/>
</g>
<!-- Node13 -->
<g id="node13" class="node">
<title>Node13</title>
<g id="a_node13"><a xlink:title=" ">
<polygon fill="#e0e0e0" stroke="#999999" points="556.5,-184 471.5,-184 471.5,-165 556.5,-165 556.5,-184"/>
<text text-anchor="middle" x="514" y="-172" font-family="Helvetica,sans-Serif" font-size="10.00">esp_task_wdt.h</text>
</a>
</g>
</g>
<!-- Node10&#45;&gt;Node13 -->
<g id="edge18" class="edge">
<title>Node10&#45;&gt;Node13</title>
<path fill="none" stroke="#63b8ff" d="M472.26,-219.75C479.16,-212.43 489.22,-201.76 497.74,-192.74"/>
<polygon fill="#63b8ff" stroke="#63b8ff" points="500.21,-195.22 504.53,-185.54 495.12,-190.42 500.21,-195.22"/>
</g>
<!-- Node14 -->
<g id="node14" class="node">
<title>Node14</title>
<g id="a_node14"><a xlink:title=" ">
<polygon fill="#e0e0e0" stroke="#999999" points="657,-184 575,-184 575,-165 657,-165 657,-184"/>
<text text-anchor="middle" x="616" y="-172" font-family="Helvetica,sans-Serif" font-size="10.00">BleInterfaces.h</text>
</a>
</g>
</g>
<!-- Node10&#45;&gt;Node14 -->
<g id="edge19" class="edge">
<title>Node10&#45;&gt;Node14</title>
<path fill="none" stroke="#63b8ff" d="M489.78,-219.51C514.43,-210.92 551.81,-197.88 579.51,-188.22"/>
<polygon fill="#63b8ff" stroke="#63b8ff" points="580.62,-191.54 588.91,-184.94 578.32,-184.93 580.62,-191.54"/>
</g>
<!-- Node15 -->
<g id="node15" class="node">
<title>Node15</title>
<g id="a_node15"><a xlink:title=" ">
<polygon fill="#e0e0e0" stroke="#999999" points="807,-184 675,-184 675,-165 807,-165 807,-184"/>
<text text-anchor="middle" x="741" y="-172" font-family="Helvetica,sans-Serif" font-size="10.00">sodium/crypto_secretbox.h</text>
</a>
</g>
</g>
<!-- Node10&#45;&gt;Node15 -->
<g id="edge20" class="edge">
<title>Node10&#45;&gt;Node15</title>
<path fill="none" stroke="#63b8ff" d="M493.91,-222.78C539.02,-214.15 625.34,-197.63 683.05,-186.59"/>
<polygon fill="#63b8ff" stroke="#63b8ff" points="683.54,-190.06 692.71,-184.74 682.23,-183.18 683.54,-190.06"/>
</g>
<!-- Node16 -->
<g id="node16" class="node">
<title>Node16</title>
<g id="a_node16"><a xlink:href="_nuki_ble_8hpp.html" target="_top" xlink:title=" ">
<polygon fill="white" stroke="#666666" points="210.5,-184 141.5,-184 141.5,-165 210.5,-165 210.5,-184"/>
<text text-anchor="middle" x="176" y="-172" font-family="Helvetica,sans-Serif" font-size="10.00">NukiBle.hpp</text>
</a>
</g>
</g>
<!-- Node10&#45;&gt;Node16 -->
<g id="edge21" class="edge">
<title>Node10&#45;&gt;Node16</title>
<path fill="none" stroke="#63b8ff" d="M434.26,-223.03C383.9,-213.76 281.5,-194.92 221.88,-183.94"/>
<polygon fill="#63b8ff" stroke="#63b8ff" points="222.87,-180.57 212.41,-182.2 221.61,-187.45 222.87,-180.57"/>
</g>
<!-- Node16&#45;&gt;Node4 -->
<g id="edge23" class="edge">
<title>Node16&#45;&gt;Node4</title>
<path fill="none" stroke="#63b8ff" d="M210.79,-167.39C215.56,-166.57 220.4,-165.76 225,-165 304.76,-151.9 397.18,-137.76 455.12,-129.01"/>
<polygon fill="#63b8ff" stroke="#63b8ff" points="455.37,-132.51 464.73,-127.56 454.32,-125.59 455.37,-132.51"/>
</g>
<!-- Node16&#45;&gt;Node5 -->
<g id="edge22" class="edge">
<title>Node16&#45;&gt;Node5</title>
<path fill="none" stroke="#63b8ff" d="M174.45,-164.66C171.43,-147.5 164.7,-109.26 160.54,-85.6"/>
<polygon fill="#63b8ff" stroke="#63b8ff" points="164.02,-85.19 158.84,-75.95 157.12,-86.41 164.02,-85.19"/>
</g>
<!-- Node17&#45;&gt;Node3 -->
<g id="edge27" class="edge">
<title>Node17&#45;&gt;Node3</title>
<path fill="none" stroke="#63b8ff" d="M961.77,-164.76C961.1,-152 958.55,-127.86 949,-110 943.28,-99.3 934.19,-89.48 925.74,-81.79"/>
<polygon fill="#63b8ff" stroke="#63b8ff" points="928.06,-79.17 918.18,-75.34 923.52,-84.49 928.06,-79.17"/>
</g>
<!-- Node17&#45;&gt;Node4 -->
<g id="edge28" class="edge">
<title>Node17&#45;&gt;Node4</title>
<path fill="none" stroke="#63b8ff" d="M929.04,-166.53C925.99,-165.98 922.94,-165.46 920,-165 795.35,-145.63 647.97,-131.77 568.92,-125.06"/>
<polygon fill="#63b8ff" stroke="#63b8ff" points="569.53,-121.6 559.27,-124.25 568.94,-128.57 569.53,-121.6"/>
</g>
<!-- Node17&#45;&gt;Node5 -->
<g id="edge29" class="edge">
<title>Node17&#45;&gt;Node5</title>
<path fill="none" stroke="#63b8ff" d="M958.41,-164.58C952.08,-150.16 937.44,-122.14 915,-110 853.83,-76.89 378.3,-68.13 213.22,-66.07"/>
<polygon fill="#63b8ff" stroke="#63b8ff" points="213.44,-62.57 203.4,-65.95 213.35,-69.57 213.44,-62.57"/>
</g>
<!-- Node17&#45;&gt;Node8 -->
<g id="edge30" class="edge">
<title>Node17&#45;&gt;Node8</title>
<path fill="none" stroke="#63b8ff" d="M949.11,-164.51C937.9,-156.7 921.43,-145.21 908.12,-135.93"/>
<polygon fill="#63b8ff" stroke="#63b8ff" points="910.15,-133.07 899.94,-130.22 906.14,-138.81 910.15,-133.07"/>
</g>
</g>
</svg>
        <g id="navigator" transform="translate(0 0)" fill="#404254">
                <rect fill="#f2f5e9" fill-opacity="0.5" stroke="#606060" stroke-width=".5" x="0" y="0" width="60" height="60"/>
                <use id="zoomplus" xlink:href="#zoomPlus" x="17" y="9" onmousedown="handleZoom(evt,'in')"/>
                <use id="zoomminus" xlink:href="#zoomMin" x="42" y="9" onmousedown="handleZoom(evt,'out')"/>
                <use id="reset" xlink:href="#resetDef" x="30" y="36" onmousedown="handleReset()"/>
                <g id="arrowUp" xlink:href="#dirArrow" transform="translate(30 24)" onmousedown="handlePan(0,-1)">
                  <use xlink:href="#rim" fill="#404040">
                        <set attributeName="fill" to="#808080" begin="arrowUp.mouseover" end="arrowUp.mouseout"/>
                  </use>
                  <path fill="none" stroke="white" stroke-width="1.5" d="M0,-3.0v7 M-2.5,-0.5L0,-3.0L2.5,-0.5"/>
                </g>
                <g id="arrowRight" xlink:href="#dirArrow" transform="rotate(90) translate(36 -43)" onmousedown="handlePan(1,0)">
                  <use xlink:href="#rim" fill="#404040">
                        <set attributeName="fill" to="#808080" begin="arrowRight.mouseover" end="arrowRight.mouseout"/>
                  </use>
                  <path fill="none" stroke="white" stroke-width="1.5" d="M0,-3.0v7 M-2.5,-0.5L0,-3.0L2.5,-0.5"/>
                </g>
                <g id="arrowDown" xlink:href="#dirArrow" transform="rotate(180) translate(-30 -48)" onmousedown="handlePan(0,1)">
                  <use xlink:href="#rim" fill="#404040">
                        <set attributeName="fill" to="#808080" begin="arrowDown.mouseover" end="arrowDown.mouseout"/>
                  </use>
                  <path fill="none" stroke="white" stroke-width="1.5" d="M0,-3.0v7 M-2.5,-0.5L0,-3.0L2.5,-0.5"/>
                </g>
                <g id="arrowLeft" xlink:href="#dirArrow" transform="rotate(270) translate(-36 17)" onmousedown="handlePan(-1,0)">
                  <use xlink:href="#rim" fill="#404040">
                        <set attributeName="fill" to="#808080" begin="arrowLeft.mouseover" end="arrowLeft.mouseout"/>
                  </use>
                  <path fill="none" stroke="white" stroke-width="1.5" d="M0,-3.0v7 M-2.5,-0.5L0,-3.0L2.5,-0.5"/>
                </g>
        </g>
        <svg viewBox="0 0 15 15" width="100%" height="30px" preserveAspectRatio="xMaxYMin meet">
         <g id="arrow_out" transform="scale(0.3 0.3)">
          <a xlink:href="_nuki_lock_8cpp__incl_org.svg" target="_base">
           <rect id="button" ry="5" rx="5" y="6" x="6" height="38" width="38"
                fill="#f2f5e9" fill-opacity="0.5" stroke="#606060" stroke-width="1.0"/>
           <path id="arrow"
             d="M 11.500037,31.436501 C 11.940474,20.09759 22.043105,11.32322 32.158766,21.979434 L 37.068811,17.246167 C 37.068811,17.246167 37.088388,32 37.088388,32 L 22.160133,31.978069 C 22.160133,31.978069 26.997745,27.140456 26.997745,27.140456 C 18.528582,18.264221 13.291696,25.230495 11.500037,31.436501 z"
             style="fill:#404040;"/>
          </a>
         </g>
        </svg>
</svg>
