<?xml version="1.0" encoding="UTF-8" standalone="no"?>
<!DOCTYPE svg PUBLIC "-//W3C//DTD SVG 1.1//EN"
 "http://www.w3.org/Graphics/SVG/1.1/DTD/svg11.dtd">
<!-- Generated by graphviz version 5.0.1 (20220820.1526)
 -->
<!-- Title: src/NukiBle.h Pages: 1 -->
<!--zoomable 257 -->
<svg id="main" version="1.1" xmlns="http://www.w3.org/2000/svg" xmlns:xlink="http://www.w3.org/1999/xlink" xml:space="preserve" onload="init(evt)">
<style type="text/css"><![CDATA[
.edge:hover path { stroke: red; }
.edge:hover polygon { stroke: red; fill: red; }
]]></style>
<script type="text/javascript"><![CDATA[
var edges = document.getElementsByTagName('g');
if (edges && edges.length) {
  for (var i=0;i<edges.length;i++) {
    if (edges[i].id.substr(0,4)=='edge') {
      edges[i].setAttribute('class','edge');
    }
  }
}
]]></script>
        <defs>
                <circle id="rim" cx="0" cy="0" r="7"/>
                <circle id="rim2" cx="0" cy="0" r="3.5"/>
                <g id="zoomPlus">
                        <use xlink:href="#rim" fill="#404040">
                                <set attributeName="fill" to="#808080" begin="zoomplus.mouseover" end="zoomplus.mouseout"/>
                        </use>
                        <path d="M-4,0h8M0,-4v8" fill="none" stroke="white" stroke-width="1.5" pointer-events="none"/>
                </g>
                <g id="zoomMin">
                        <use xlink:href="#rim" fill="#404040">
                                <set attributeName="fill" to="#808080" begin="zoomminus.mouseover" end="zoomminus.mouseout"/>
                        </use>
                        <path d="M-4,0h8" fill="none" stroke="white" stroke-width="1.5" pointer-events="none"/>
                </g>
                <g id="dirArrow">
                        <path fill="none" stroke="white" stroke-width="1.5" d="M0,-3.0v7 M-2.5,-0.5L0,-3.0L2.5,-0.5"/>
                </g>
               <g id="resetDef">
                       <use xlink:href="#rim2" fill="#404040">
                               <set attributeName="fill" to="#808080" begin="reset.mouseover" end="reset.mouseout"/>
                       </use>
               </g>
        </defs>

<script type="text/javascript">
var viewWidth = 823;
var viewHeight = 257;
var sectionId = 'dynsection-0';
</script>
<script xlink:href="svgpan.js"/>
<svg id="graph" class="graph">
<g id="viewport">
<title>src/NukiBle.h</title>
<!-- Node1 -->
<g id="node1" class="node">
<title>Node1</title>
<g id="a_node1"><a xlink:title=" ">
<polygon fill="#999999" stroke="#666666" points="390,-249 303,-249 303,-228 390,-228 390,-249"/>
<text text-anchor="middle" x="346.5" y="-235.4" font-family="Helvetica,sans-Serif" font-size="12.00">src/NukiBle.h</text>
</a>
</g>
</g>
<!-- Node2 -->
<g id="node2" class="node">
<title>Node2</title>
<g id="a_node2"><a xlink:title=" ">
<polygon fill="#e0e0e0" stroke="#999999" points="107,-192 0,-192 0,-171 107,-171 107,-192"/>
<text text-anchor="middle" x="53.5" y="-178.4" font-family="Helvetica,sans-Serif" font-size="12.00">NimBLEDevice.h</text>
</a>
</g>
</g>
<!-- Node1&#45;&gt;Node2 -->
<g id="edge1" class="edge">
<title>Node1&#45;&gt;Node2</title>
<path fill="none" stroke="#63b8ff" d="M302.95,-229.33C252.87,-219.92 170.34,-204.43 114.03,-193.86"/>
<polygon fill="#63b8ff" stroke="#63b8ff" points="114.66,-190.42 104.18,-192.01 113.37,-197.3 114.66,-190.42"/>
</g>
<!-- Node3 -->
<g id="node3" class="node">
<title>Node3</title>
<g id="a_node3"><a xlink:href="_nuki_constants_8h.html" target="_top" xlink:title=" ">
<polygon fill="white" stroke="#666666" points="353.5,-78 249.5,-78 249.5,-57 353.5,-57 353.5,-78"/>
<text text-anchor="middle" x="301.5" y="-64.4" font-family="Helvetica,sans-Serif" font-size="12.00">NukiConstants.h</text>
</a>
</g>
</g>
<!-- Node1&#45;&gt;Node3 -->
<g id="edge2" class="edge">
<title>Node1&#45;&gt;Node3</title>
<path fill="none" stroke="#63b8ff" d="M390.31,-238.21C515.7,-239.47 863.63,-237.14 809.5,-171 753.8,-102.94 486.9,-79.05 363.87,-71.56"/>
<polygon fill="#63b8ff" stroke="#63b8ff" points="364.03,-68.07 353.84,-70.97 363.62,-75.06 364.03,-68.07"/>
</g>
<!-- Node5 -->
<g id="node5" class="node">
<title>Node5</title>
<g id="a_node5"><a xlink:href="_nuki_data_types_8h.html" target="_top" xlink:title=" ">
<polygon fill="white" stroke="#666666" points="273,-135 164,-135 164,-114 273,-114 273,-135"/>
<text text-anchor="middle" x="218.5" y="-121.4" font-family="Helvetica,sans-Serif" font-size="12.00">NukiDataTypes.h</text>
</a>
</g>
</g>
<!-- Node1&#45;&gt;Node5 -->
<g id="edge4" class="edge">
<title>Node1&#45;&gt;Node5</title>
<path fill="none" stroke="#63b8ff" d="M302.75,-237.83C266.75,-235.49 217.7,-225.72 192.5,-192 181.56,-177.36 191.84,-157.53 202.53,-143.34"/>
<polygon fill="#63b8ff" stroke="#63b8ff" points="205.45,-145.3 209.05,-135.34 200.02,-140.88 205.45,-145.3"/>
</g>
<!-- Node6 -->
<g id="node6" class="node">
<title>Node6</title>
<g id="a_node6"><a xlink:title=" ">
<polygon fill="#e0e0e0" stroke="#999999" points="200.5,-78 132.5,-78 132.5,-57 200.5,-57 200.5,-78"/>
<text text-anchor="middle" x="166.5" y="-64.4" font-family="Helvetica,sans-Serif" font-size="12.00">Arduino.h</text>
</a>
</g>
</g>
<!-- Node1&#45;&gt;Node6 -->
<g id="edge7" class="edge">
<title>Node1&#45;&gt;Node6</title>
<path fill="none" stroke="#63b8ff" d="M302.99,-234.64C267.67,-230.29 218.34,-219.37 184.5,-192 155.62,-168.64 149.72,-150.83 154.5,-114 155.63,-105.31 157.92,-95.92 160.19,-87.93"/>
<polygon fill="#63b8ff" stroke="#63b8ff" points="163.62,-88.7 163.19,-78.12 156.92,-86.66 163.62,-88.7"/>
</g>
<!-- Node7 -->
<g id="node7" class="node">
<title>Node7</title>
<g id="a_node7"><a xlink:title=" ">
<polygon fill="#e0e0e0" stroke="#999999" points="391.5,-192 301.5,-192 301.5,-171 391.5,-171 391.5,-192"/>
<text text-anchor="middle" x="346.5" y="-178.4" font-family="Helvetica,sans-Serif" font-size="12.00">Preferences.h</text>
</a>
</g>
</g>
<!-- Node1&#45;&gt;Node7 -->
<g id="edge8" class="edge">
<title>Node1&#45;&gt;Node7</title>
<path fill="none" stroke="#63b8ff" d="M346.5,-227.92C346.5,-220.91 346.5,-211.14 346.5,-202.47"/>
<polygon fill="#63b8ff" stroke="#63b8ff" points="350,-202.34 346.5,-192.34 343,-202.34 350,-202.34"/>
</g>
<!-- Node8 -->
<g id="node8" class="node">
<title>Node8</title>
<g id="a_node8"><a xlink:title=" ">
<polygon fill="#e0e0e0" stroke="#999999" points="509.5,-192 409.5,-192 409.5,-171 509.5,-171 509.5,-192"/>
<text text-anchor="middle" x="459.5" y="-178.4" font-family="Helvetica,sans-Serif" font-size="12.00">esp_task_wdt.h</text>
</a>
</g>
</g>
<!-- Node1&#45;&gt;Node8 -->
<g id="edge9" class="edge">
<title>Node1&#45;&gt;Node8</title>
<path fill="none" stroke="#63b8ff" d="M366.18,-227.92C383.98,-219.26 410.41,-206.4 430.6,-196.57"/>
<polygon fill="#63b8ff" stroke="#63b8ff" points="432.2,-199.68 439.66,-192.16 429.14,-193.38 432.2,-199.68"/>
</g>
<!-- Node9 -->
<g id="node9" class="node">
<title>Node9</title>
<g id="a_node9"><a xlink:title=" ">
<polygon fill="#e0e0e0" stroke="#999999" points="623,-192 528,-192 528,-171 623,-171 623,-192"/>
<text text-anchor="middle" x="575.5" y="-178.4" font-family="Helvetica,sans-Serif" font-size="12.00">BleInterfaces.h</text>
</a>
</g>
</g>
<!-- Node1&#45;&gt;Node9 -->
<g id="edge10" class="edge">
<title>Node1&#45;&gt;Node9</title>
<path fill="none" stroke="#63b8ff" d="M386.13,-227.98C424.8,-218.69 483.76,-204.53 525.61,-194.48"/>
<polygon fill="#63b8ff" stroke="#63b8ff" points="526.68,-197.82 535.59,-192.09 525.05,-191.02 526.68,-197.82"/>
</g>
<!-- Node10 -->
<g id="node10" class="node">
<title>Node10</title>
<g id="a_node10"><a xlink:title=" ">
<polygon fill="#e0e0e0" stroke="#999999" points="800,-192 641,-192 641,-171 800,-171 800,-192"/>
<text text-anchor="middle" x="720.5" y="-178.4" font-family="Helvetica,sans-Serif" font-size="12.00">sodium/crypto_secretbox.h</text>
</a>
</g>
</g>
<!-- Node1&#45;&gt;Node10 -->
<g id="edge11" class="edge">
<title>Node1&#45;&gt;Node10</title>
<path fill="none" stroke="#63b8ff" d="M390.13,-231.08C452.83,-221.86 569.27,-204.74 645.82,-193.48"/>
<polygon fill="#63b8ff" stroke="#63b8ff" points="646.5,-196.92 655.88,-192 645.48,-190 646.5,-196.92"/>
</g>
<!-- Node11 -->
<g id="node11" class="node">
<title>Node11</title>
<g id="a_node11"><a xlink:href="_nuki_ble_8hpp.html" target="_top" xlink:title=" ">
<polygon fill="white" stroke="#666666" points="283.5,-192 201.5,-192 201.5,-171 283.5,-171 283.5,-192"/>
<text text-anchor="middle" x="242.5" y="-178.4" font-family="Helvetica,sans-Serif" font-size="12.00">NukiBle.hpp</text>
</a>
</g>
</g>
<!-- Node1&#45;&gt;Node11 -->
<g id="edge12" class="edge">
<title>Node1&#45;&gt;Node11</title>
<path fill="none" stroke="#63b8ff" d="M328.38,-227.92C312.15,-219.34 288.12,-206.63 269.61,-196.84"/>
<polygon fill="#63b8ff" stroke="#63b8ff" points="271.23,-193.74 260.76,-192.16 267.96,-199.92 271.23,-193.74"/>
</g>
<!-- Node4 -->
<g id="node4" class="node">
<title>Node4</title>
<g id="a_node4"><a xlink:title=" ">
<polygon fill="#e0e0e0" stroke="#999999" points="351.5,-21 251.5,-21 251.5,0 351.5,0 351.5,-21"/>
<text text-anchor="middle" x="301.5" y="-7.4" font-family="Helvetica,sans-Serif" font-size="12.00">NimBLEUUID.h</text>
</a>
</g>
</g>
<!-- Node3&#45;&gt;Node4 -->
<g id="edge3" class="edge">
<title>Node3&#45;&gt;Node4</title>
<path fill="none" stroke="#63b8ff" d="M301.5,-56.92C301.5,-49.91 301.5,-40.14 301.5,-31.47"/>
<polygon fill="#63b8ff" stroke="#63b8ff" points="305,-31.34 301.5,-21.34 298,-31.34 305,-31.34"/>
</g>
<!-- Node5&#45;&gt;Node3 -->
<g id="edge6" class="edge">
<title>Node5&#45;&gt;Node3</title>
<path fill="none" stroke="#63b8ff" d="M232.96,-113.92C245.5,-105.61 263.87,-93.44 278.44,-83.78"/>
<polygon fill="#63b8ff" stroke="#63b8ff" points="280.53,-86.6 286.93,-78.16 276.66,-80.76 280.53,-86.6"/>
</g>
<!-- Node5&#45;&gt;Node6 -->
<g id="edge5" class="edge">
<title>Node5&#45;&gt;Node6</title>
<path fill="none" stroke="#63b8ff" d="M209.44,-113.92C202.08,-106.13 191.5,-94.94 182.68,-85.62"/>
<polygon fill="#63b8ff" stroke="#63b8ff" points="185.22,-83.2 175.8,-78.34 180.13,-88.01 185.22,-83.2"/>
</g>
<!-- Node11&#45;&gt;Node3 -->
<g id="edge13" class="edge">
<title>Node11&#45;&gt;Node3</title>
<path fill="none" stroke="#63b8ff" d="M253.51,-170.68C262.51,-162.09 274.94,-148.85 282.5,-135 290.5,-120.34 295.42,-101.99 298.24,-88.28"/>
<polygon fill="#63b8ff" stroke="#63b8ff" points="301.75,-88.5 300.14,-78.03 294.87,-87.23 301.75,-88.5"/>
</g>
<!-- Node11&#45;&gt;Node5 -->
<g id="edge14" class="edge">
<title>Node11&#45;&gt;Node5</title>
<path fill="none" stroke="#63b8ff" d="M238.32,-170.92C235.16,-163.67 230.71,-153.49 226.83,-144.6"/>
<polygon fill="#63b8ff" stroke="#63b8ff" points="230,-143.11 222.79,-135.34 223.59,-145.91 230,-143.11"/>
</g>
</g>
</svg>
        <g id="navigator" transform="translate(0 0)" fill="#404254">
                <rect fill="#f2f5e9" fill-opacity="0.5" stroke="#606060" stroke-width=".5" x="0" y="0" width="60" height="60"/>
                <use id="zoomplus" xlink:href="#zoomPlus" x="17" y="9" onmousedown="handleZoom(evt,'in')"/>
                <use id="zoomminus" xlink:href="#zoomMin" x="42" y="9" onmousedown="handleZoom(evt,'out')"/>
                <use id="reset" xlink:href="#resetDef" x="30" y="36" onmousedown="handleReset()"/>
                <g id="arrowUp" xlink:href="#dirArrow" transform="translate(30 24)" onmousedown="handlePan(0,-1)">
                  <use xlink:href="#rim" fill="#404040">
                        <set attributeName="fill" to="#808080" begin="arrowUp.mouseover" end="arrowUp.mouseout"/>
                  </use>
                  <path fill="none" stroke="white" stroke-width="1.5" d="M0,-3.0v7 M-2.5,-0.5L0,-3.0L2.5,-0.5"/>
                </g>
                <g id="arrowRight" xlink:href="#dirArrow" transform="rotate(90) translate(36 -43)" onmousedown="handlePan(1,0)">
                  <use xlink:href="#rim" fill="#404040">
                        <set attributeName="fill" to="#808080" begin="arrowRight.mouseover" end="arrowRight.mouseout"/>
                  </use>
                  <path fill="none" stroke="white" stroke-width="1.5" d="M0,-3.0v7 M-2.5,-0.5L0,-3.0L2.5,-0.5"/>
                </g>
                <g id="arrowDown" xlink:href="#dirArrow" transform="rotate(180) translate(-30 -48)" onmousedown="handlePan(0,1)">
                  <use xlink:href="#rim" fill="#404040">
                        <set attributeName="fill" to="#808080" begin="arrowDown.mouseover" end="arrowDown.mouseout"/>
                  </use>
                  <path fill="none" stroke="white" stroke-width="1.5" d="M0,-3.0v7 M-2.5,-0.5L0,-3.0L2.5,-0.5"/>
                </g>
                <g id="arrowLeft" xlink:href="#dirArrow" transform="rotate(270) translate(-36 17)" onmousedown="handlePan(-1,0)">
                  <use xlink:href="#rim" fill="#404040">
                        <set attributeName="fill" to="#808080" begin="arrowLeft.mouseover" end="arrowLeft.mouseout"/>
                  </use>
                  <path fill="none" stroke="white" stroke-width="1.5" d="M0,-3.0v7 M-2.5,-0.5L0,-3.0L2.5,-0.5"/>
                </g>
        </g>
        <svg viewBox="0 0 15 15" width="100%" height="30px" preserveAspectRatio="xMaxYMin meet">
         <g id="arrow_out" transform="scale(0.3 0.3)">
          <a xlink:href="_nuki_ble_8h__incl_org.svg" target="_base">
           <rect id="button" ry="5" rx="5" y="6" x="6" height="38" width="38"
                fill="#f2f5e9" fill-opacity="0.5" stroke="#606060" stroke-width="1.0"/>
           <path id="arrow"
             d="M 11.500037,31.436501 C 11.940474,20.09759 22.043105,11.32322 32.158766,21.979434 L 37.068811,17.246167 C 37.068811,17.246167 37.088388,32 37.088388,32 L 22.160133,31.978069 C 22.160133,31.978069 26.997745,27.140456 26.997745,27.140456 C 18.528582,18.264221 13.291696,25.230495 11.500037,31.436501 z"
             style="fill:#404040;"/>
          </a>
         </g>
        </svg>
</svg>
