<?xml version="1.0" encoding="UTF-8" standalone="no"?>
<!DOCTYPE svg PUBLIC "-//W3C//DTD SVG 1.1//EN"
 "http://www.w3.org/Graphics/SVG/1.1/DTD/svg11.dtd">
<!-- Generated by graphviz version 12.2.1 (20241206.2353)
 -->
<!-- Title: src/NukiConstants.h Pages: 1 -->
<svg width="731pt" height="304pt"
 viewBox="0.00 0.00 731.25 303.50" xmlns="http://www.w3.org/2000/svg" xmlns:xlink="http://www.w3.org/1999/xlink">
<g id="graph0" class="graph" transform="scale(1 1) rotate(0) translate(4 299.5)">
<title>src/NukiConstants.h</title>
<!-- Node1 -->
<g id="Node000001" class="node">
<title>Node1</title>
<g id="a_Node000001"><a xlink:title=" ">
<polygon fill="#999999" stroke="#666666" points="373.62,-295.5 269.12,-295.5 269.12,-276.25 373.62,-276.25 373.62,-295.5"/>
<text text-anchor="middle" x="321.38" y="-282" font-family="Helvetica,sans-Serif" font-size="10.00">src/NukiConstants.h</text>
</a>
</g>
</g>
<!-- Node2 -->
<g id="Node000002" class="node">
<title>Node2</title>
<g id="a_Node000002"><a xlink:href="_nuki_ble_8h.html" target="_top" xlink:title=" ">
<polygon fill="white" stroke="#666666" points="335.62,-129.75 261.12,-129.75 261.12,-110.5 335.62,-110.5 335.62,-129.75"/>
<text text-anchor="middle" x="298.38" y="-116.25" font-family="Helvetica,sans-Serif" font-size="10.00">src/NukiBle.h</text>
</a>
</g>
</g>
<!-- Node1&#45;&gt;Node2 -->
<g id="edge1_Node000001_Node000002" class="edge">
<title>Node1&#45;&gt;Node2</title>
<g id="a_edge1_Node000001_Node000002"><a xlink:title=" ">
<path fill="none" stroke="#63b8ff" d="M298.03,-269.28C274.35,-251.92 239.16,-221.45 224.38,-185 221.16,-177.07 220.17,-173.2 224.38,-165.75 234.19,-148.38 253.78,-137.01 270.34,-130.1"/>
<polygon fill="#63b8ff" stroke="#63b8ff" points="295.96,-272.11 306.14,-275.03 300,-266.39 295.96,-272.11"/>
</a>
</g>
</g>
<!-- Node8 -->
<g id="Node000008" class="node">
<title>Node8</title>
<g id="a_Node000008"><a xlink:href="_nuki_ble_8hpp.html" target="_top" xlink:title=" ">
<polygon fill="white" stroke="#666666" points="317.88,-185 232.88,-185 232.88,-165.75 317.88,-165.75 317.88,-185"/>
<text text-anchor="middle" x="275.38" y="-171.5" font-family="Helvetica,sans-Serif" font-size="10.00">src/NukiBle.hpp</text>
</a>
</g>
</g>
<!-- Node1&#45;&gt;Node8 -->
<g id="edge7_Node000001_Node000008" class="edge">
<title>Node1&#45;&gt;Node8</title>
<g id="a_edge7_Node000001_Node000008"><a xlink:title=" ">
<path fill="none" stroke="#63b8ff" d="M313.16,-265.51C303.14,-241.87 286.61,-202.88 279.19,-185.38"/>
<polygon fill="#63b8ff" stroke="#63b8ff" points="309.89,-266.76 317.02,-274.6 316.34,-264.03 309.89,-266.76"/>
</a>
</g>
</g>
<!-- Node9 -->
<g id="Node000009" class="node">
<title>Node9</title>
<g id="a_Node000009"><a xlink:href="_nuki_data_types_8h.html" target="_top" xlink:title=" ">
<polygon fill="white" stroke="#666666" points="426.75,-240.25 320,-240.25 320,-221 426.75,-221 426.75,-240.25"/>
<text text-anchor="middle" x="373.38" y="-226.75" font-family="Helvetica,sans-Serif" font-size="10.00">src/NukiDataTypes.h</text>
</a>
</g>
</g>
<!-- Node1&#45;&gt;Node9 -->
<g id="edge9_Node000001_Node000009" class="edge">
<title>Node1&#45;&gt;Node9</title>
<g id="a_edge9_Node000001_Node000009"><a xlink:title=" ">
<path fill="none" stroke="#63b8ff" d="M337.78,-268.07C346.67,-258.98 357.29,-248.1 364.6,-240.61"/>
<polygon fill="#63b8ff" stroke="#63b8ff" points="335.5,-265.4 331.02,-275 340.51,-270.29 335.5,-265.4"/>
</a>
</g>
</g>
<!-- Node14 -->
<g id="Node000014" class="node">
<title>Node14</title>
<g id="a_Node000014"><a xlink:href="_nuki_utils_8h.html" target="_top" xlink:title=" ">
<polygon fill="white" stroke="#666666" points="434.62,-129.75 354.12,-129.75 354.12,-110.5 434.62,-110.5 434.62,-129.75"/>
<text text-anchor="middle" x="394.38" y="-116.25" font-family="Helvetica,sans-Serif" font-size="10.00">src/NukiUtils.h</text>
</a>
</g>
</g>
<!-- Node1&#45;&gt;Node14 -->
<g id="edge31_Node000001_Node000014" class="edge">
<title>Node1&#45;&gt;Node14</title>
<g id="a_edge31_Node000001_Node000014"><a xlink:title=" ">
<path fill="none" stroke="#63b8ff" d="M384.7,-274.5C404.23,-268 423.65,-257.43 435.38,-240.25 460.16,-203.94 420.75,-151.21 402.67,-130.23"/>
<polygon fill="#63b8ff" stroke="#63b8ff" points="383.94,-271.07 375.35,-277.27 385.93,-277.78 383.94,-271.07"/>
</a>
</g>
</g>
<!-- Node16 -->
<g id="Node000016" class="node">
<title>Node16</title>
<g id="a_Node000016"><a xlink:href="_nuki_lock_constants_8h.html" target="_top" xlink:title=" ">
<polygon fill="white" stroke="#666666" points="176.5,-185 50.25,-185 50.25,-165.75 176.5,-165.75 176.5,-185"/>
<text text-anchor="middle" x="113.38" y="-171.5" font-family="Helvetica,sans-Serif" font-size="10.00">src/NukiLockConstants.h</text>
</a>
</g>
</g>
<!-- Node1&#45;&gt;Node16 -->
<g id="edge25_Node000001_Node000016" class="edge">
<title>Node1&#45;&gt;Node16</title>
<g id="a_edge25_Node000001_Node000016"><a xlink:title=" ">
<path fill="none" stroke="#63b8ff" d="M272.27,-272.76C246.88,-265.37 215.94,-254.56 190.38,-240.25 162.79,-224.81 135.51,-199.04 122.04,-185.43"/>
<polygon fill="#63b8ff" stroke="#63b8ff" points="271.11,-276.07 281.68,-275.4 273,-269.33 271.11,-276.07"/>
</a>
</g>
</g>
<!-- Node17 -->
<g id="Node000017" class="node">
<title>Node17</title>
<g id="a_Node000017"><a xlink:href="_nuki_opener_constants_8h.html" target="_top" xlink:title=" ">
<polygon fill="white" stroke="#666666" points="624.38,-240.25 488.38,-240.25 488.38,-221 624.38,-221 624.38,-240.25"/>
<text text-anchor="middle" x="556.38" y="-226.75" font-family="Helvetica,sans-Serif" font-size="10.00">src/NukiOpenerConstants.h</text>
</a>
</g>
</g>
<!-- Node1&#45;&gt;Node17 -->
<g id="edge28_Node000001_Node000017" class="edge">
<title>Node1&#45;&gt;Node17</title>
<g id="a_edge28_Node000001_Node000017"><a xlink:title=" ">
<path fill="none" stroke="#63b8ff" d="M372.63,-273.26C415.83,-263.47 476.76,-249.67 516.41,-240.68"/>
<polygon fill="#63b8ff" stroke="#63b8ff" points="371.96,-269.82 362.98,-275.45 373.51,-276.65 371.96,-269.82"/>
</a>
</g>
</g>
<!-- Node3 -->
<g id="Node000003" class="node">
<title>Node3</title>
<g id="a_Node000003"><a xlink:href="_nuki_ble_8cpp.html" target="_top" xlink:title=" ">
<polygon fill="white" stroke="#666666" points="353.88,-74.5 268.88,-74.5 268.88,-55.25 353.88,-55.25 353.88,-74.5"/>
<text text-anchor="middle" x="311.38" y="-61" font-family="Helvetica,sans-Serif" font-size="10.00">src/NukiBle.cpp</text>
</a>
</g>
</g>
<!-- Node2&#45;&gt;Node3 -->
<g id="edge2_Node000002_Node000003" class="edge">
<title>Node2&#45;&gt;Node3</title>
<g id="a_edge2_Node000002_Node000003"><a xlink:title=" ">
<path fill="none" stroke="#63b8ff" d="M303.25,-99.17C305.29,-90.8 307.56,-81.5 309.18,-74.86"/>
<polygon fill="#63b8ff" stroke="#63b8ff" points="299.85,-98.32 300.88,-108.86 306.65,-99.98 299.85,-98.32"/>
</a>
</g>
</g>
<!-- Node4 -->
<g id="Node000004" class="node">
<title>Node4</title>
<g id="a_Node000004"><a xlink:href="_nuki_lock_8h.html" target="_top" xlink:title=" ">
<polygon fill="white" stroke="#666666" points="212.38,-74.5 130.38,-74.5 130.38,-55.25 212.38,-55.25 212.38,-74.5"/>
<text text-anchor="middle" x="171.38" y="-61" font-family="Helvetica,sans-Serif" font-size="10.00">src/NukiLock.h</text>
</a>
</g>
</g>
<!-- Node2&#45;&gt;Node4 -->
<g id="edge3_Node000002_Node000004" class="edge">
<title>Node2&#45;&gt;Node4</title>
<g id="a_edge3_Node000002_Node000004"><a xlink:title=" ">
<path fill="none" stroke="#63b8ff" d="M266.24,-105.65C243.33,-96.04 213.13,-83.38 193.02,-74.95"/>
<polygon fill="#63b8ff" stroke="#63b8ff" points="264.86,-108.87 275.44,-109.51 267.57,-102.41 264.86,-108.87"/>
</a>
</g>
</g>
<!-- Node6 -->
<g id="Node000006" class="node">
<title>Node6</title>
<g id="a_Node000006"><a xlink:href="_nuki_opener_8h.html" target="_top" xlink:title=" ">
<polygon fill="white" stroke="#666666" points="723.25,-74.5 631.5,-74.5 631.5,-55.25 723.25,-55.25 723.25,-74.5"/>
<text text-anchor="middle" x="677.38" y="-61" font-family="Helvetica,sans-Serif" font-size="10.00">src/NukiOpener.h</text>
</a>
</g>
</g>
<!-- Node2&#45;&gt;Node6 -->
<g id="edge5_Node000002_Node000006" class="edge">
<title>Node2&#45;&gt;Node6</title>
<g id="a_edge5_Node000002_Node000006"><a xlink:title=" ">
<path fill="none" stroke="#63b8ff" d="M347.14,-110.29C454.93,-93.35 568.96,-78.94 631.08,-71.39"/>
<polygon fill="#63b8ff" stroke="#63b8ff" points="346.88,-106.79 337.55,-111.81 347.98,-113.7 346.88,-106.79"/>
</a>
</g>
</g>
<!-- Node5 -->
<g id="Node000005" class="node">
<title>Node5</title>
<g id="a_Node000005"><a xlink:href="_nuki_lock_8cpp.html" target="_top" xlink:title=" ">
<polygon fill="white" stroke="#666666" points="286.62,-19.25 194.12,-19.25 194.12,0 286.62,0 286.62,-19.25"/>
<text text-anchor="middle" x="240.38" y="-5.75" font-family="Helvetica,sans-Serif" font-size="10.00">src/NukiLock.cpp</text>
</a>
</g>
</g>
<!-- Node4&#45;&gt;Node5 -->
<g id="edge4_Node000004_Node000005" class="edge">
<title>Node4&#45;&gt;Node5</title>
<g id="a_edge4_Node000004_Node000005"><a xlink:title=" ">
<path fill="none" stroke="#63b8ff" d="M192.02,-47.94C204.07,-38.64 218.82,-27.26 228.84,-19.52"/>
<polygon fill="#63b8ff" stroke="#63b8ff" points="190.06,-45.04 184.28,-53.92 194.33,-50.58 190.06,-45.04"/>
</a>
</g>
</g>
<!-- Node7 -->
<g id="Node000007" class="node">
<title>Node7</title>
<g id="a_Node000007"><a xlink:href="_nuki_opener_8cpp.html" target="_top" xlink:title=" ">
<polygon fill="white" stroke="#666666" points="654.5,-19.25 552.25,-19.25 552.25,0 654.5,0 654.5,-19.25"/>
<text text-anchor="middle" x="603.38" y="-5.75" font-family="Helvetica,sans-Serif" font-size="10.00">src/NukiOpener.cpp</text>
</a>
</g>
</g>
<!-- Node6&#45;&gt;Node7 -->
<g id="edge6_Node000006_Node000007" class="edge">
<title>Node6&#45;&gt;Node7</title>
<g id="a_edge6_Node000006_Node000007"><a xlink:title=" ">
<path fill="none" stroke="#63b8ff" d="M655.62,-48.22C642.62,-38.87 626.59,-27.33 615.74,-19.52"/>
<polygon fill="#63b8ff" stroke="#63b8ff" points="653.43,-50.96 663.59,-53.96 657.52,-45.28 653.43,-50.96"/>
</a>
</g>
</g>
<!-- Node8&#45;&gt;Node2 -->
<g id="edge8_Node000008_Node000002" class="edge">
<title>Node8&#45;&gt;Node2</title>
<g id="a_edge8_Node000008_Node000002"><a xlink:title=" ">
<path fill="none" stroke="#63b8ff" d="M283.62,-155.29C287.33,-146.71 291.53,-136.98 294.49,-130.11"/>
<polygon fill="#63b8ff" stroke="#63b8ff" points="280.53,-153.62 279.77,-164.19 286.95,-156.4 280.53,-153.62"/>
</a>
</g>
</g>
<!-- Node9&#45;&gt;Node2 -->
<g id="edge10_Node000009_Node000002" class="edge">
<title>Node9&#45;&gt;Node2</title>
<g id="a_edge10_Node000009_Node000002"><a xlink:title=" ">
<path fill="none" stroke="#63b8ff" d="M373,-209.32C371.9,-196 368.76,-178.71 360.38,-165.75 350.08,-149.82 331.94,-137.77 317.93,-130.22"/>
<polygon fill="#63b8ff" stroke="#63b8ff" points="369.49,-209.27 373.47,-219.09 376.49,-208.93 369.49,-209.27"/>
</a>
</g>
</g>
<!-- Node9&#45;&gt;Node8 -->
<g id="edge11_Node000009_Node000008" class="edge">
<title>Node9&#45;&gt;Node8</title>
<g id="a_edge11_Node000009_Node000008"><a xlink:title=" ">
<path fill="none" stroke="#63b8ff" d="M347.12,-215.36C329.63,-205.86 307.17,-193.65 292.08,-185.45"/>
<polygon fill="#63b8ff" stroke="#63b8ff" points="344.96,-218.17 355.42,-219.87 348.31,-212.02 344.96,-218.17"/>
</a>
</g>
</g>
<!-- Node10 -->
<g id="Node000010" class="node">
<title>Node10</title>
<g id="a_Node000010"><a xlink:href="_nuki_lock_utils_8h.html" target="_top" xlink:title=" ">
<polygon fill="white" stroke="#666666" points="243.5,-129.75 141.25,-129.75 141.25,-110.5 243.5,-110.5 243.5,-129.75"/>
<text text-anchor="middle" x="192.38" y="-116.25" font-family="Helvetica,sans-Serif" font-size="10.00">src/NukiLockUtils.h</text>
</a>
</g>
</g>
<!-- Node9&#45;&gt;Node10 -->
<g id="edge12_Node000009_Node000010" class="edge">
<title>Node9&#45;&gt;Node10</title>
<g id="a_edge12_Node000009_Node000010"><a xlink:title=" ">
<path fill="none" stroke="#63b8ff" d="M363.97,-210.68C356.02,-196.46 343.37,-177.49 327.38,-165.75 302.79,-147.72 270.51,-136.7 243.68,-130.12"/>
<polygon fill="#63b8ff" stroke="#63b8ff" points="360.86,-212.28 368.61,-219.5 367.05,-209.02 360.86,-212.28"/>
</a>
</g>
</g>
<!-- Node12 -->
<g id="Node000012" class="node">
<title>Node12</title>
<g id="a_Node000012"><a xlink:href="_nuki_opener_utils_8h.html" target="_top" xlink:title=" ">
<polygon fill="white" stroke="#666666" points="606.38,-185 494.38,-185 494.38,-165.75 606.38,-165.75 606.38,-185"/>
<text text-anchor="middle" x="550.38" y="-171.5" font-family="Helvetica,sans-Serif" font-size="10.00">src/NukiOpenerUtils.h</text>
</a>
</g>
</g>
<!-- Node9&#45;&gt;Node12 -->
<g id="edge17_Node000009_Node000012" class="edge">
<title>Node9&#45;&gt;Node12</title>
<g id="a_edge17_Node000009_Node000012"><a xlink:title=" ">
<path fill="none" stroke="#63b8ff" d="M414.29,-217.32C446.63,-207.59 491.04,-194.23 520.2,-185.45"/>
<polygon fill="#63b8ff" stroke="#63b8ff" points="413.42,-213.92 404.85,-220.16 415.43,-220.63 413.42,-213.92"/>
</a>
</g>
</g>
<!-- Node9&#45;&gt;Node14 -->
<g id="edge20_Node000009_Node000014" class="edge">
<title>Node9&#45;&gt;Node14</title>
<g id="a_edge20_Node000009_Node000014"><a xlink:title=" ">
<path fill="none" stroke="#63b8ff" d="M386.45,-211.27C391.19,-203.54 395.97,-194.22 398.38,-185 403.37,-165.86 399.49,-142.46 396.65,-129.97"/>
<polygon fill="#63b8ff" stroke="#63b8ff" points="383.68,-209.12 381.07,-219.39 389.51,-212.99 383.68,-209.12"/>
</a>
</g>
</g>
<!-- Node10&#45;&gt;Node3 -->
<g id="edge13_Node000010_Node000003" class="edge">
<title>Node10&#45;&gt;Node3</title>
<g id="a_edge13_Node000010_Node000003"><a xlink:title=" ">
<path fill="none" stroke="#63b8ff" d="M222.78,-105.52C244.21,-95.93 272.34,-83.34 291.09,-74.95"/>
<polygon fill="#63b8ff" stroke="#63b8ff" points="221.64,-102.19 213.94,-109.47 224.5,-108.58 221.64,-102.19"/>
</a>
</g>
</g>
<!-- Node10&#45;&gt;Node4 -->
<g id="edge15_Node000010_Node000004" class="edge">
<title>Node10&#45;&gt;Node4</title>
<g id="a_edge15_Node000010_Node000004"><a xlink:title=" ">
<path fill="none" stroke="#63b8ff" d="M184.73,-99.75C181.38,-91.24 177.6,-81.65 174.92,-74.86"/>
<polygon fill="#63b8ff" stroke="#63b8ff" points="181.43,-100.91 188.35,-108.92 187.94,-98.34 181.43,-100.91"/>
</a>
</g>
</g>
<!-- Node10&#45;&gt;Node5 -->
<g id="edge14_Node000010_Node000005" class="edge">
<title>Node10&#45;&gt;Node5</title>
<g id="a_edge14_Node000010_Node000005"><a xlink:title=" ">
<path fill="none" stroke="#63b8ff" d="M205.98,-100.81C211.32,-93 217.17,-83.6 221.38,-74.5 230.01,-55.8 235.82,-32.23 238.56,-19.59"/>
<polygon fill="#63b8ff" stroke="#63b8ff" points="203.26,-98.6 200.3,-108.77 208.96,-102.66 203.26,-98.6"/>
</a>
</g>
</g>
<!-- Node11 -->
<g id="Node000011" class="node">
<title>Node11</title>
<g id="a_Node000011"><a xlink:href="_nuki_lock_utils_8cpp.html" target="_top" xlink:title=" ">
<polygon fill="white" stroke="#666666" points="112.75,-74.5 0,-74.5 0,-55.25 112.75,-55.25 112.75,-74.5"/>
<text text-anchor="middle" x="56.38" y="-61" font-family="Helvetica,sans-Serif" font-size="10.00">src/NukiLockUtils.cpp</text>
</a>
</g>
</g>
<!-- Node10&#45;&gt;Node11 -->
<g id="edge16_Node000010_Node000011" class="edge">
<title>Node10&#45;&gt;Node11</title>
<g id="a_edge16_Node000010_Node000011"><a xlink:title=" ">
<path fill="none" stroke="#63b8ff" d="M158.63,-105.91C134.01,-96.27 101.28,-83.46 79.56,-74.95"/>
<polygon fill="#63b8ff" stroke="#63b8ff" points="157.31,-109.15 167.9,-109.54 159.86,-102.63 157.31,-109.15"/>
</a>
</g>
</g>
<!-- Node12&#45;&gt;Node7 -->
<g id="edge18_Node000012_Node000007" class="edge">
<title>Node12&#45;&gt;Node7</title>
<g id="a_edge18_Node000012_Node000007"><a xlink:title=" ">
<path fill="none" stroke="#63b8ff" d="M566.91,-156.89C573.35,-149.13 580.18,-139.55 584.38,-129.75 600.86,-91.25 603.19,-40.2 603.41,-19.7"/>
<polygon fill="#63b8ff" stroke="#63b8ff" points="564.45,-154.39 560.46,-164.2 569.7,-159.02 564.45,-154.39"/>
</a>
</g>
</g>
<!-- Node13 -->
<g id="Node000013" class="node">
<title>Node13</title>
<g id="a_Node000013"><a xlink:href="_nuki_opener_utils_8cpp.html" target="_top" xlink:title=" ">
<polygon fill="white" stroke="#666666" points="575.62,-129.75 453.12,-129.75 453.12,-110.5 575.62,-110.5 575.62,-129.75"/>
<text text-anchor="middle" x="514.38" y="-116.25" font-family="Helvetica,sans-Serif" font-size="10.00">src/NukiOpenerUtils.cpp</text>
</a>
</g>
</g>
<!-- Node12&#45;&gt;Node13 -->
<g id="edge19_Node000012_Node000013" class="edge">
<title>Node12&#45;&gt;Node13</title>
<g id="a_edge19_Node000012_Node000013"><a xlink:title=" ">
<path fill="none" stroke="#63b8ff" d="M538.06,-156.15C532.11,-147.36 525.25,-137.21 520.45,-130.11"/>
<polygon fill="#63b8ff" stroke="#63b8ff" points="535.08,-158 543.58,-164.33 540.88,-154.08 535.08,-158"/>
</a>
</g>
</g>
<!-- Node14&#45;&gt;Node3 -->
<g id="edge21_Node000014_Node000003" class="edge">
<title>Node14&#45;&gt;Node3</title>
<g id="a_edge21_Node000014_Node000003"><a xlink:title=" ">
<path fill="none" stroke="#63b8ff" d="M370.88,-104.05C356.26,-94.67 337.95,-82.92 325.52,-74.95"/>
<polygon fill="#63b8ff" stroke="#63b8ff" points="368.71,-106.82 379.02,-109.27 372.49,-100.93 368.71,-106.82"/>
</a>
</g>
</g>
<!-- Node14&#45;&gt;Node5 -->
<g id="edge22_Node000014_Node000005" class="edge">
<title>Node14&#45;&gt;Node5</title>
<g id="a_edge22_Node000014_Node000005"><a xlink:title=" ">
<path fill="none" stroke="#63b8ff" d="M389.17,-99.47C384.53,-85.42 376.41,-66.99 363.38,-55.25 342.11,-36.09 311.98,-24.98 286.87,-18.64"/>
<polygon fill="#63b8ff" stroke="#63b8ff" points="385.79,-100.36 391.97,-108.96 392.5,-98.38 385.79,-100.36"/>
</a>
</g>
</g>
<!-- Node14&#45;&gt;Node7 -->
<g id="edge23_Node000014_Node000007" class="edge">
<title>Node14&#45;&gt;Node7</title>
<g id="a_edge23_Node000014_Node000007"><a xlink:title=" ">
<path fill="none" stroke="#63b8ff" d="M434.86,-106.4C457.89,-98.5 486.92,-87.41 511.38,-74.5 542.5,-58.07 575.6,-32.94 592.33,-19.63"/>
<polygon fill="#63b8ff" stroke="#63b8ff" points="433.88,-103.04 425.52,-109.54 436.11,-109.67 433.88,-103.04"/>
</a>
</g>
</g>
<!-- Node15 -->
<g id="Node000015" class="node">
<title>Node15</title>
<g id="a_Node000015"><a xlink:href="_nuki_utils_8cpp.html" target="_top" xlink:title=" ">
<polygon fill="white" stroke="#666666" points="501.88,-74.5 410.88,-74.5 410.88,-55.25 501.88,-55.25 501.88,-74.5"/>
<text text-anchor="middle" x="456.38" y="-61" font-family="Helvetica,sans-Serif" font-size="10.00">src/NukiUtils.cpp</text>
</a>
</g>
</g>
<!-- Node14&#45;&gt;Node15 -->
<g id="edge24_Node000014_Node000015" class="edge">
<title>Node14&#45;&gt;Node15</title>
<g id="a_edge24_Node000014_Node000015"><a xlink:title=" ">
<path fill="none" stroke="#63b8ff" d="M413.57,-102.64C424.28,-93.44 437.19,-82.35 446.01,-74.77"/>
<polygon fill="#63b8ff" stroke="#63b8ff" points="411.35,-99.94 406.04,-109.11 415.91,-105.25 411.35,-99.94"/>
</a>
</g>
</g>
<!-- Node16&#45;&gt;Node4 -->
<g id="edge26_Node000016_Node000004" class="edge">
<title>Node16&#45;&gt;Node4</title>
<g id="a_edge26_Node000016_Node000004"><a xlink:title=" ">
<path fill="none" stroke="#63b8ff" d="M116.95,-154.63C119.86,-141.55 124.76,-124.32 132.38,-110.5 140.02,-96.62 152.58,-83.29 161.38,-74.87"/>
<polygon fill="#63b8ff" stroke="#63b8ff" points="113.58,-153.67 115.04,-164.17 120.44,-155.05 113.58,-153.67"/>
</a>
</g>
</g>
<!-- Node16&#45;&gt;Node10 -->
<g id="edge27_Node000016_Node000010" class="edge">
<title>Node16&#45;&gt;Node10</title>
<g id="a_edge27_Node000016_Node000010"><a xlink:title=" ">
<path fill="none" stroke="#63b8ff" d="M136.14,-159.03C149.98,-149.7 167.2,-138.1 178.91,-130.2"/>
<polygon fill="#63b8ff" stroke="#63b8ff" points="134.37,-156 128.03,-164.5 138.28,-161.81 134.37,-156"/>
</a>
</g>
</g>
<!-- Node17&#45;&gt;Node6 -->
<g id="edge29_Node000017_Node000006" class="edge">
<title>Node17&#45;&gt;Node6</title>
<g id="a_edge29_Node000017_Node000006"><a xlink:title=" ">
<path fill="none" stroke="#63b8ff" d="M581.38,-214.4C592.74,-206.61 605.76,-196.38 615.38,-185 645.77,-149.03 666.8,-95.65 674.32,-74.74"/>
<polygon fill="#63b8ff" stroke="#63b8ff" points="579.66,-211.34 573.22,-219.75 583.5,-217.19 579.66,-211.34"/>
</a>
</g>
</g>
<!-- Node17&#45;&gt;Node12 -->
<g id="edge30_Node000017_Node000012" class="edge">
<title>Node17&#45;&gt;Node12</title>
<g id="a_edge30_Node000017_Node000012"><a xlink:title=" ">
<path fill="none" stroke="#63b8ff" d="M554.13,-209.67C553.18,-201.3 552.14,-192 551.39,-185.36"/>
<polygon fill="#63b8ff" stroke="#63b8ff" points="550.62,-209.78 555.21,-219.33 557.57,-209 550.62,-209.78"/>
</a>
</g>
</g>
</g>
</svg>
