<?xml version="1.0" encoding="UTF-8" standalone="no"?>
<!DOCTYPE svg PUBLIC "-//W3C//DTD SVG 1.1//EN"
 "http://www.w3.org/Graphics/SVG/1.1/DTD/svg11.dtd">
<!-- Generated by graphviz version 5.0.1 (20220820.1526)
 -->
<!-- Title: src/NukiUtils.cpp Pages: 1 -->
<svg width="425pt" height="257pt"
 viewBox="0.00 0.00 425.00 257.00" xmlns="http://www.w3.org/2000/svg" xmlns:xlink="http://www.w3.org/1999/xlink">
<g id="graph0" class="graph" transform="scale(1 1) rotate(0) translate(4 253)">
<title>src/NukiUtils.cpp</title>
<!-- Node1 -->
<g id="node1" class="node">
<title>Node1</title>
<g id="a_node1"><a xlink:title=" ">
<polygon fill="#999999" stroke="#666666" points="315,-249 209,-249 209,-228 315,-228 315,-249"/>
<text text-anchor="middle" x="262" y="-235.4" font-family="Helvetica,sans-Serif" font-size="12.00">src/NukiUtils.cpp</text>
</a>
</g>
</g>
<!-- Node2 -->
<g id="node2" class="node">
<title>Node2</title>
<g id="a_node2"><a xlink:href="_nuki_utils_8h.html" target="_top" xlink:title=" ">
<polygon fill="white" stroke="#666666" points="164,-192 90,-192 90,-171 164,-171 164,-192"/>
<text text-anchor="middle" x="127" y="-178.4" font-family="Helvetica,sans-Serif" font-size="12.00">NukiUtils.h</text>
</a>
</g>
</g>
<!-- Node1&#45;&gt;Node2 -->
<g id="edge1" class="edge">
<title>Node1&#45;&gt;Node2</title>
<path fill="none" stroke="#63b8ff" d="M238.48,-227.92C216.84,-219.1 184.51,-205.93 160.23,-196.04"/>
<polygon fill="#63b8ff" stroke="#63b8ff" points="161.28,-192.69 150.7,-192.16 158.64,-199.17 161.28,-192.69"/>
</g>
<!-- Node8 -->
<g id="node8" class="node">
<title>Node8</title>
<g id="a_node8"><a xlink:title=" ">
<polygon fill="#e0e0e0" stroke="#999999" points="341.5,-192 182.5,-192 182.5,-171 341.5,-171 341.5,-192"/>
<text text-anchor="middle" x="262" y="-178.4" font-family="Helvetica,sans-Serif" font-size="12.00">sodium/crypto_secretbox.h</text>
</a>
</g>
</g>
<!-- Node1&#45;&gt;Node8 -->
<g id="edge9" class="edge">
<title>Node1&#45;&gt;Node8</title>
<path fill="none" stroke="#63b8ff" d="M262,-227.92C262,-220.91 262,-211.14 262,-202.47"/>
<polygon fill="#63b8ff" stroke="#63b8ff" points="265.5,-202.34 262,-192.34 258.5,-202.34 265.5,-202.34"/>
</g>
<!-- Node9 -->
<g id="node9" class="node">
<title>Node9</title>
<g id="a_node9"><a xlink:title=" ">
<polygon fill="#e0e0e0" stroke="#999999" points="417,-192 359,-192 359,-171 417,-171 417,-192"/>
<text text-anchor="middle" x="388" y="-178.4" font-family="Helvetica,sans-Serif" font-size="12.00">Crc16.h</text>
</a>
</g>
</g>
<!-- Node1&#45;&gt;Node9 -->
<g id="edge10" class="edge">
<title>Node1&#45;&gt;Node9</title>
<path fill="none" stroke="#63b8ff" d="M283.95,-227.92C304.06,-219.14 334.06,-206.05 356.69,-196.17"/>
<polygon fill="#63b8ff" stroke="#63b8ff" points="358.12,-199.36 365.88,-192.16 355.32,-192.95 358.12,-199.36"/>
</g>
<!-- Node3 -->
<g id="node3" class="node">
<title>Node3</title>
<g id="a_node3"><a xlink:title=" ">
<polygon fill="#e0e0e0" stroke="#999999" points="68,-78 0,-78 0,-57 68,-57 68,-78"/>
<text text-anchor="middle" x="34" y="-64.4" font-family="Helvetica,sans-Serif" font-size="12.00">Arduino.h</text>
</a>
</g>
</g>
<!-- Node2&#45;&gt;Node3 -->
<g id="edge2" class="edge">
<title>Node2&#45;&gt;Node3</title>
<path fill="none" stroke="#63b8ff" d="M89.97,-174.96C66.17,-169.27 36.99,-157.84 22,-135 12.78,-120.95 17.63,-101.81 23.7,-87.67"/>
<polygon fill="#63b8ff" stroke="#63b8ff" points="26.97,-88.93 28.15,-78.4 20.66,-85.9 26.97,-88.93"/>
</g>
<!-- Node4 -->
<g id="node4" class="node">
<title>Node4</title>
<g id="a_node4"><a xlink:href="_nuki_data_types_8h.html" target="_top" xlink:title=" ">
<polygon fill="white" stroke="#666666" points="140.5,-135 31.5,-135 31.5,-114 140.5,-114 140.5,-135"/>
<text text-anchor="middle" x="86" y="-121.4" font-family="Helvetica,sans-Serif" font-size="12.00">NukiDataTypes.h</text>
</a>
</g>
</g>
<!-- Node2&#45;&gt;Node4 -->
<g id="edge3" class="edge">
<title>Node2&#45;&gt;Node4</title>
<path fill="none" stroke="#63b8ff" d="M119.86,-170.92C114.23,-163.36 106.21,-152.61 99.39,-143.46"/>
<polygon fill="#63b8ff" stroke="#63b8ff" points="102.12,-141.27 93.34,-135.34 96.51,-145.45 102.12,-141.27"/>
</g>
<!-- Node5 -->
<g id="node5" class="node">
<title>Node5</title>
<g id="a_node5"><a xlink:href="_nuki_constants_8h.html" target="_top" xlink:title=" ">
<polygon fill="white" stroke="#666666" points="205,-78 101,-78 101,-57 205,-57 205,-78"/>
<text text-anchor="middle" x="153" y="-64.4" font-family="Helvetica,sans-Serif" font-size="12.00">NukiConstants.h</text>
</a>
</g>
</g>
<!-- Node2&#45;&gt;Node5 -->
<g id="edge7" class="edge">
<title>Node2&#45;&gt;Node5</title>
<path fill="none" stroke="#63b8ff" d="M133.07,-170.81C138.32,-161.88 145.59,-148.07 149,-135 153.02,-119.61 153.87,-101.57 153.8,-88.16"/>
<polygon fill="#63b8ff" stroke="#63b8ff" points="157.3,-88.07 153.58,-78.15 150.3,-88.23 157.3,-88.07"/>
</g>
<!-- Node7 -->
<g id="node7" class="node">
<title>Node7</title>
<g id="a_node7"><a xlink:title=" ">
<polygon fill="#e0e0e0" stroke="#999999" points="242.5,-135 197.5,-135 197.5,-114 242.5,-114 242.5,-135"/>
<text text-anchor="middle" x="220" y="-121.4" font-family="Helvetica,sans-Serif" font-size="12.00">bitset</text>
</a>
</g>
</g>
<!-- Node2&#45;&gt;Node7 -->
<g id="edge8" class="edge">
<title>Node2&#45;&gt;Node7</title>
<path fill="none" stroke="#63b8ff" d="M143.2,-170.92C157.38,-162.53 178.22,-150.21 194.62,-140.51"/>
<polygon fill="#63b8ff" stroke="#63b8ff" points="196.85,-143.26 203.67,-135.16 193.29,-137.23 196.85,-143.26"/>
</g>
<!-- Node4&#45;&gt;Node3 -->
<g id="edge4" class="edge">
<title>Node4&#45;&gt;Node3</title>
<path fill="none" stroke="#63b8ff" d="M76.94,-113.92C69.58,-106.13 59,-94.94 50.18,-85.62"/>
<polygon fill="#63b8ff" stroke="#63b8ff" points="52.72,-83.2 43.3,-78.34 47.63,-88.01 52.72,-83.2"/>
</g>
<!-- Node4&#45;&gt;Node5 -->
<g id="edge5" class="edge">
<title>Node4&#45;&gt;Node5</title>
<path fill="none" stroke="#63b8ff" d="M97.67,-113.92C107.45,-105.9 121.61,-94.27 133.16,-84.78"/>
<polygon fill="#63b8ff" stroke="#63b8ff" points="135.5,-87.39 141.01,-78.34 131.06,-81.98 135.5,-87.39"/>
</g>
<!-- Node6 -->
<g id="node6" class="node">
<title>Node6</title>
<g id="a_node6"><a xlink:title=" ">
<polygon fill="#e0e0e0" stroke="#999999" points="203,-21 103,-21 103,0 203,0 203,-21"/>
<text text-anchor="middle" x="153" y="-7.4" font-family="Helvetica,sans-Serif" font-size="12.00">NimBLEUUID.h</text>
</a>
</g>
</g>
<!-- Node5&#45;&gt;Node6 -->
<g id="edge6" class="edge">
<title>Node5&#45;&gt;Node6</title>
<path fill="none" stroke="#63b8ff" d="M153,-56.92C153,-49.91 153,-40.14 153,-31.47"/>
<polygon fill="#63b8ff" stroke="#63b8ff" points="156.5,-31.34 153,-21.34 149.5,-31.34 156.5,-31.34"/>
</g>
</g>
</svg>
