<?xml version="1.0" encoding="UTF-8" standalone="no"?>
<!DOCTYPE svg PUBLIC "-//W3C//DTD SVG 1.1//EN"
 "http://www.w3.org/Graphics/SVG/1.1/DTD/svg11.dtd">
<!-- Generated by graphviz version 7.0.5 (20221223.1930)
 -->
<!-- Title: src/NukiLockUtils.h Pages: 1 -->
<svg width="365pt" height="137pt"
 viewBox="0.00 0.00 364.50 137.00" xmlns="http://www.w3.org/2000/svg" xmlns:xlink="http://www.w3.org/1999/xlink">
<g id="graph0" class="graph" transform="scale(1 1) rotate(0) translate(4 133)">
<title>src/NukiLockUtils.h</title>
<!-- Node1 -->
<g id="node1" class="node">
<title>Node1</title>
<g id="a_node1"><a xlink:title=" ">
<polygon fill="#999999" stroke="#666666" points="200.5,-129 97.5,-129 97.5,-110 200.5,-110 200.5,-129"/>
<text text-anchor="middle" x="149" y="-117" font-family="Helvetica,sans-Serif" font-size="10.00">src/NukiLockUtils.h</text>
</a>
</g>
</g>
<!-- Node2 -->
<g id="node2" class="node">
<title>Node2</title>
<g id="a_node2"><a xlink:href="_nuki_ble_8cpp.html" target="_top" xlink:title=" ">
<polygon fill="white" stroke="#666666" points="86,-74 0,-74 0,-55 86,-55 86,-74"/>
<text text-anchor="middle" x="43" y="-62" font-family="Helvetica,sans-Serif" font-size="10.00">src/NukiBle.cpp</text>
</a>
</g>
</g>
<!-- Node1&#45;&gt;Node2 -->
<g id="edge1" class="edge">
<title>Node1&#45;&gt;Node2</title>
<path fill="none" stroke="#63b8ff" d="M120.8,-104.4C101.72,-94.86 77.1,-82.55 60.72,-74.36"/>
<polygon fill="#63b8ff" stroke="#63b8ff" points="119.16,-107.49 129.66,-108.83 122.29,-101.23 119.16,-107.49"/>
</g>
<!-- Node3 -->
<g id="node3" class="node">
<title>Node3</title>
<g id="a_node3"><a xlink:href="_nuki_lock_8cpp.html" target="_top" xlink:title=" ">
<polygon fill="white" stroke="#666666" points="195.5,-19 102.5,-19 102.5,0 195.5,0 195.5,-19"/>
<text text-anchor="middle" x="149" y="-7" font-family="Helvetica,sans-Serif" font-size="10.00">src/NukiLock.cpp</text>
</a>
</g>
</g>
<!-- Node1&#45;&gt;Node3 -->
<g id="edge2" class="edge">
<title>Node1&#45;&gt;Node3</title>
<path fill="none" stroke="#63b8ff" d="M140.84,-98.85C138.09,-91.23 135.37,-82.34 134,-74 130.77,-54.33 139.07,-31.69 144.58,-19.46"/>
<polygon fill="#63b8ff" stroke="#63b8ff" points="137.56,-100.06 144.45,-108.11 144.08,-97.52 137.56,-100.06"/>
</g>
<!-- Node4 -->
<g id="node4" class="node">
<title>Node4</title>
<g id="a_node4"><a xlink:href="_nuki_lock_8h.html" target="_top" xlink:title=" ">
<polygon fill="white" stroke="#666666" points="225.5,-74 142.5,-74 142.5,-55 225.5,-55 225.5,-74"/>
<text text-anchor="middle" x="184" y="-62" font-family="Helvetica,sans-Serif" font-size="10.00">src/NukiLock.h</text>
</a>
</g>
</g>
<!-- Node1&#45;&gt;Node4 -->
<g id="edge3" class="edge">
<title>Node1&#45;&gt;Node4</title>
<path fill="none" stroke="#63b8ff" d="M160.98,-100.36C166.75,-91.62 173.43,-81.51 178.09,-74.44"/>
<polygon fill="#63b8ff" stroke="#63b8ff" points="158.2,-98.21 155.61,-108.49 164.04,-102.07 158.2,-98.21"/>
</g>
<!-- Node5 -->
<g id="node5" class="node">
<title>Node5</title>
<g id="a_node5"><a xlink:href="_nuki_lock_utils_8cpp.html" target="_top" xlink:title=" ">
<polygon fill="white" stroke="#666666" points="356.5,-74 243.5,-74 243.5,-55 356.5,-55 356.5,-74"/>
<text text-anchor="middle" x="300" y="-62" font-family="Helvetica,sans-Serif" font-size="10.00">src/NukiLockUtils.cpp</text>
</a>
</g>
</g>
<!-- Node1&#45;&gt;Node5 -->
<g id="edge5" class="edge">
<title>Node1&#45;&gt;Node5</title>
<path fill="none" stroke="#63b8ff" d="M185.4,-105.73C212.94,-96.06 250.08,-83.02 274.51,-74.45"/>
<polygon fill="#63b8ff" stroke="#63b8ff" points="184.32,-102.39 176.04,-109.01 186.64,-109 184.32,-102.39"/>
</g>
<!-- Node4&#45;&gt;Node3 -->
<g id="edge4" class="edge">
<title>Node4&#45;&gt;Node3</title>
<path fill="none" stroke="#63b8ff" d="M172.02,-45.36C166.25,-36.62 159.57,-26.51 154.91,-19.44"/>
<polygon fill="#63b8ff" stroke="#63b8ff" points="168.96,-47.07 177.39,-53.49 174.8,-43.21 168.96,-47.07"/>
</g>
</g>
</svg>
