<?xml version="1.0" encoding="UTF-8" standalone="no"?>
<!DOCTYPE svg PUBLIC "-//W3C//DTD SVG 1.1//EN"
 "http://www.w3.org/Graphics/SVG/1.1/DTD/svg11.dtd">
<!-- Generated by graphviz version 12.2.1 (20241206.2353)
 -->
<!-- Title: src/NukiUtils.h Pages: 1 -->
<svg width="238pt" height="193pt"
 viewBox="0.00 0.00 237.75 193.00" xmlns="http://www.w3.org/2000/svg" xmlns:xlink="http://www.w3.org/1999/xlink">
<g id="graph0" class="graph" transform="scale(1 1) rotate(0) translate(4 189)">
<title>src/NukiUtils.h</title>
<!-- Node1 -->
<g id="Node000001" class="node">
<title>Node1</title>
<g id="a_Node000001"><a xlink:title=" ">
<polygon fill="#999999" stroke="#666666" points="163.5,-185 83,-185 83,-165.75 163.5,-165.75 163.5,-185"/>
<text text-anchor="middle" x="123.25" y="-171.5" font-family="Helvetica,sans-Serif" font-size="10.00">src/NukiUtils.h</text>
</a>
</g>
</g>
<!-- Node2 -->
<g id="Node000002" class="node">
<title>Node2</title>
<g id="a_Node000002"><a xlink:title=" ">
<polygon fill="#e0e0e0" stroke="#999999" points="56.5,-74.5 0,-74.5 0,-55.25 56.5,-55.25 56.5,-74.5"/>
<text text-anchor="middle" x="28.25" y="-61" font-family="Helvetica,sans-Serif" font-size="10.00">Arduino.h</text>
</a>
</g>
</g>
<!-- Node1&#45;&gt;Node2 -->
<g id="edge1_Node000001_Node000002" class="edge">
<title>Node1&#45;&gt;Node2</title>
<g id="a_edge1_Node000001_Node000002"><a xlink:title=" ">
<path fill="none" stroke="#63b8ff" d="M85.8,-165.31C66.85,-158.7 45.36,-147.67 33.25,-129.75 24.66,-117.04 23.87,-99.48 24.98,-85.99"/>
<polygon fill="#63b8ff" stroke="#63b8ff" points="28.45,-86.46 26.23,-76.1 21.5,-85.58 28.45,-86.46"/>
</a>
</g>
</g>
<!-- Node3 -->
<g id="Node000003" class="node">
<title>Node3</title>
<g id="a_Node000003"><a xlink:href="_nuki_data_types_8h.html" target="_top" xlink:title=" ">
<polygon fill="white" stroke="#666666" points="132.38,-129.75 42.12,-129.75 42.12,-110.5 132.38,-110.5 132.38,-129.75"/>
<text text-anchor="middle" x="87.25" y="-116.25" font-family="Helvetica,sans-Serif" font-size="10.00">NukiDataTypes.h</text>
</a>
</g>
</g>
<!-- Node1&#45;&gt;Node3 -->
<g id="edge2_Node000001_Node000003" class="edge">
<title>Node1&#45;&gt;Node3</title>
<g id="a_edge2_Node000001_Node000003"><a xlink:title=" ">
<path fill="none" stroke="#63b8ff" d="M117.31,-165.58C112.54,-158.53 105.69,-148.4 99.73,-139.58"/>
<polygon fill="#63b8ff" stroke="#63b8ff" points="102.67,-137.69 94.17,-131.36 96.87,-141.61 102.67,-137.69"/>
</a>
</g>
</g>
<!-- Node4 -->
<g id="Node000004" class="node">
<title>Node4</title>
<g id="a_Node000004"><a xlink:href="_nuki_constants_8h.html" target="_top" xlink:title=" ">
<polygon fill="white" stroke="#666666" points="190.25,-74.5 102.25,-74.5 102.25,-55.25 190.25,-55.25 190.25,-74.5"/>
<text text-anchor="middle" x="146.25" y="-61" font-family="Helvetica,sans-Serif" font-size="10.00">NukiConstants.h</text>
</a>
</g>
</g>
<!-- Node1&#45;&gt;Node4 -->
<g id="edge7_Node000001_Node000004" class="edge">
<title>Node1&#45;&gt;Node4</title>
<g id="a_edge7_Node000001_Node000004"><a xlink:title=" ">
<path fill="none" stroke="#63b8ff" d="M127.82,-165.41C132.08,-156.59 138.23,-142.6 141.25,-129.75 144.65,-115.29 145.86,-98.54 146.24,-85.82"/>
<polygon fill="#63b8ff" stroke="#63b8ff" points="149.74,-86.24 146.38,-76.2 142.74,-86.15 149.74,-86.24"/>
</a>
</g>
</g>
<!-- Node7 -->
<g id="Node000007" class="node">
<title>Node7</title>
<g id="a_Node000007"><a xlink:title=" ">
<polygon fill="#e0e0e0" stroke="#999999" points="228.25,-129.75 188.25,-129.75 188.25,-110.5 228.25,-110.5 228.25,-129.75"/>
<text text-anchor="middle" x="208.25" y="-116.25" font-family="Helvetica,sans-Serif" font-size="10.00">bitset</text>
</a>
</g>
</g>
<!-- Node1&#45;&gt;Node7 -->
<g id="edge8_Node000001_Node000007" class="edge">
<title>Node1&#45;&gt;Node7</title>
<g id="a_edge8_Node000001_Node000007"><a xlink:title=" ">
<path fill="none" stroke="#63b8ff" d="M137.67,-165.34C150.37,-157.39 169.12,-145.64 184.11,-136.25"/>
<polygon fill="#63b8ff" stroke="#63b8ff" points="185.86,-139.28 192.48,-131.01 182.15,-133.35 185.86,-139.28"/>
</a>
</g>
</g>
<!-- Node3&#45;&gt;Node2 -->
<g id="edge3_Node000003_Node000002" class="edge">
<title>Node3&#45;&gt;Node2</title>
<g id="a_edge3_Node000003_Node000002"><a xlink:title=" ">
<path fill="none" stroke="#63b8ff" d="M77.24,-110.09C68.88,-102.55 56.75,-91.6 46.65,-82.48"/>
<polygon fill="#63b8ff" stroke="#63b8ff" points="49,-79.89 39.23,-75.79 44.31,-85.09 49,-79.89"/>
</a>
</g>
</g>
<!-- Node3&#45;&gt;Node4 -->
<g id="edge4_Node000003_Node000004" class="edge">
<title>Node3&#45;&gt;Node4</title>
<g id="a_edge4_Node000003_Node000004"><a xlink:title=" ">
<path fill="none" stroke="#63b8ff" d="M97.26,-110.09C105.62,-102.55 117.75,-91.6 127.85,-82.48"/>
<polygon fill="#63b8ff" stroke="#63b8ff" points="130.19,-85.09 135.27,-75.79 125.5,-79.89 130.19,-85.09"/>
</a>
</g>
</g>
<!-- Node5 -->
<g id="Node000005" class="node">
<title>Node5</title>
<g id="a_Node000005"><a xlink:title=" ">
<polygon fill="#e0e0e0" stroke="#999999" points="126.88,-19.25 81.62,-19.25 81.62,0 126.88,0 126.88,-19.25"/>
<text text-anchor="middle" x="104.25" y="-5.75" font-family="Helvetica,sans-Serif" font-size="10.00">cstdint</text>
</a>
</g>
</g>
<!-- Node4&#45;&gt;Node5 -->
<g id="edge5_Node000004_Node000005" class="edge">
<title>Node4&#45;&gt;Node5</title>
<g id="a_edge5_Node000004_Node000005"><a xlink:title=" ">
<path fill="none" stroke="#63b8ff" d="M139.31,-55.08C133.63,-47.88 125.41,-37.46 118.36,-28.51"/>
<polygon fill="#63b8ff" stroke="#63b8ff" points="121.21,-26.48 112.27,-20.8 115.72,-30.82 121.21,-26.48"/>
</a>
</g>
</g>
<!-- Node6 -->
<g id="Node000006" class="node">
<title>Node6</title>
<g id="a_Node000006"><a xlink:title=" ">
<polygon fill="#e0e0e0" stroke="#999999" points="229.75,-19.25 144.75,-19.25 144.75,0 229.75,0 229.75,-19.25"/>
<text text-anchor="middle" x="187.25" y="-5.75" font-family="Helvetica,sans-Serif" font-size="10.00">NimBLEUUID.h</text>
</a>
</g>
</g>
<!-- Node4&#45;&gt;Node6 -->
<g id="edge6_Node000004_Node000006" class="edge">
<title>Node4&#45;&gt;Node6</title>
<g id="a_edge6_Node000004_Node000006"><a xlink:title=" ">
<path fill="none" stroke="#63b8ff" d="M153.02,-55.08C158.57,-47.88 166.59,-37.46 173.48,-28.51"/>
<polygon fill="#63b8ff" stroke="#63b8ff" points="176.08,-30.87 179.41,-20.81 170.54,-26.6 176.08,-30.87"/>
</a>
</g>
</g>
</g>
</svg>
