<?xml version="1.0" encoding="UTF-8" standalone="no"?>
<!DOCTYPE svg PUBLIC "-//W3C//DTD SVG 1.1//EN"
 "http://www.w3.org/Graphics/SVG/1.1/DTD/svg11.dtd">
<!-- Generated by graphviz version 12.0.0 (20240704.0754)
 -->
<!-- Title: src/NukiBle.h Pages: 1 -->
<svg width="842pt" height="248pt"
 viewBox="0.00 0.00 841.74 248.25" xmlns="http://www.w3.org/2000/svg" xmlns:xlink="http://www.w3.org/1999/xlink">
<g id="graph0" class="graph" transform="scale(1 1) rotate(0) translate(4 244.25)">
<title>src/NukiBle.h</title>
<!-- Node1 -->
<g id="Node000001" class="node">
<title>Node1</title>
<g id="a_Node000001"><a xlink:title=" ">
<polygon fill="#999999" stroke="#666666" points="443.38,-240.25 368.88,-240.25 368.88,-221 443.38,-221 443.38,-240.25"/>
<text text-anchor="middle" x="406.12" y="-226.75" font-family="Helvetica,sans-Serif" font-size="10.00">src/NukiBle.h</text>
</a>
</g>
</g>
<!-- Node2 -->
<g id="Node000002" class="node">
<title>Node2</title>
<g id="a_Node000002"><a xlink:title=" ">
<polygon fill="#e0e0e0" stroke="#999999" points="90.25,-185 0,-185 0,-165.75 90.25,-165.75 90.25,-185"/>
<text text-anchor="middle" x="45.12" y="-171.5" font-family="Helvetica,sans-Serif" font-size="10.00">NimBLEDevice.h</text>
</a>
</g>
</g>
<!-- Node1&#45;&gt;Node2 -->
<g id="edge1_Node000001_Node000002" class="edge">
<title>Node1&#45;&gt;Node2</title>
<g id="a_edge1_Node000001_Node000002"><a xlink:title=" ">
<path fill="none" stroke="#63b8ff" d="M368.51,-224.08C304.96,-214.7 175.98,-195.68 101.55,-184.7"/>
<polygon fill="#63b8ff" stroke="#63b8ff" points="102.43,-181.29 92.03,-183.29 101.41,-188.22 102.43,-181.29"/>
</a>
</g>
</g>
<!-- Node3 -->
<g id="Node000003" class="node">
<title>Node3</title>
<g id="a_Node000003"><a xlink:href="_nuki_constants_8h.html" target="_top" xlink:title=" ">
<polygon fill="white" stroke="#666666" points="308.12,-74.5 220.12,-74.5 220.12,-55.25 308.12,-55.25 308.12,-74.5"/>
<text text-anchor="middle" x="264.12" y="-61" font-family="Helvetica,sans-Serif" font-size="10.00">NukiConstants.h</text>
</a>
</g>
</g>
<!-- Node1&#45;&gt;Node3 -->
<g id="edge2_Node000001_Node000003" class="edge">
<title>Node1&#45;&gt;Node3</title>
<g id="a_edge2_Node000001_Node000003"><a xlink:title=" ">
<path fill="none" stroke="#63b8ff" d="M443.71,-229.95C556.07,-230.24 878.59,-225.94 828.12,-165.75 763.47,-88.64 448.53,-71.03 319.46,-67.04"/>
<polygon fill="#63b8ff" stroke="#63b8ff" points="319.9,-63.55 309.8,-66.75 319.7,-70.54 319.9,-63.55"/>
</a>
</g>
</g>
<!-- Node6 -->
<g id="Node000006" class="node">
<title>Node6</title>
<g id="a_Node000006"><a xlink:href="_nuki_data_types_8h.html" target="_top" xlink:title=" ">
<polygon fill="white" stroke="#666666" points="236.25,-129.75 146,-129.75 146,-110.5 236.25,-110.5 236.25,-129.75"/>
<text text-anchor="middle" x="191.12" y="-116.25" font-family="Helvetica,sans-Serif" font-size="10.00">NukiDataTypes.h</text>
</a>
</g>
</g>
<!-- Node1&#45;&gt;Node6 -->
<g id="edge5_Node000001_Node000006" class="edge">
<title>Node1&#45;&gt;Node6</title>
<g id="a_edge5_Node000001_Node000006"><a xlink:title=" ">
<path fill="none" stroke="#63b8ff" d="M368.7,-227.98C309.7,-224.52 199.24,-214.22 175.12,-185 164.57,-172.21 171.11,-153.41 178.76,-139.52"/>
<polygon fill="#63b8ff" stroke="#63b8ff" points="181.55,-141.68 183.78,-131.32 175.57,-138.02 181.55,-141.68"/>
</a>
</g>
</g>
<!-- Node7 -->
<g id="Node000007" class="node">
<title>Node7</title>
<g id="a_Node000007"><a xlink:title=" ">
<polygon fill="#e0e0e0" stroke="#999999" points="174.38,-74.5 117.88,-74.5 117.88,-55.25 174.38,-55.25 174.38,-74.5"/>
<text text-anchor="middle" x="146.12" y="-61" font-family="Helvetica,sans-Serif" font-size="10.00">Arduino.h</text>
</a>
</g>
</g>
<!-- Node1&#45;&gt;Node7 -->
<g id="edge8_Node000001_Node000007" class="edge">
<title>Node1&#45;&gt;Node7</title>
<g id="a_edge8_Node000001_Node000007"><a xlink:title=" ">
<path fill="none" stroke="#63b8ff" d="M368.55,-226.72C309.07,-221.45 196.72,-208.65 165.12,-185 136.8,-163.81 133.61,-145.7 137.12,-110.5 137.94,-102.34 139.57,-93.47 141.23,-85.79"/>
<polygon fill="#63b8ff" stroke="#63b8ff" points="144.61,-86.69 143.46,-76.16 137.79,-85.11 144.61,-86.69"/>
</a>
</g>
</g>
<!-- Node8 -->
<g id="Node000008" class="node">
<title>Node8</title>
<g id="a_Node000008"><a xlink:title=" ">
<polygon fill="#e0e0e0" stroke="#999999" points="346.12,-185 270.12,-185 270.12,-165.75 346.12,-165.75 346.12,-185"/>
<text text-anchor="middle" x="308.12" y="-171.5" font-family="Helvetica,sans-Serif" font-size="10.00">Preferences.h</text>
</a>
</g>
</g>
<!-- Node1&#45;&gt;Node8 -->
<g id="edge9_Node000001_Node000008" class="edge">
<title>Node1&#45;&gt;Node8</title>
<g id="a_edge9_Node000001_Node000008"><a xlink:title=" ">
<path fill="none" stroke="#63b8ff" d="M389.5,-220.59C374.44,-212.41 351.98,-200.21 334.47,-190.69"/>
<polygon fill="#63b8ff" stroke="#63b8ff" points="336.62,-187.87 326.16,-186.18 333.28,-194.02 336.62,-187.87"/>
</a>
</g>
</g>
<!-- Node9 -->
<g id="Node000009" class="node">
<title>Node9</title>
<g id="a_Node000009"><a xlink:title=" ">
<polygon fill="#e0e0e0" stroke="#999999" points="448.25,-185 364,-185 364,-165.75 448.25,-165.75 448.25,-185"/>
<text text-anchor="middle" x="406.12" y="-171.5" font-family="Helvetica,sans-Serif" font-size="10.00">esp_task_wdt.h</text>
</a>
</g>
</g>
<!-- Node1&#45;&gt;Node9 -->
<g id="edge10_Node000001_Node000009" class="edge">
<title>Node1&#45;&gt;Node9</title>
<g id="a_edge10_Node000001_Node000009"><a xlink:title=" ">
<path fill="none" stroke="#63b8ff" d="M406.12,-220.83C406.12,-214.32 406.12,-205.17 406.12,-196.87"/>
<polygon fill="#63b8ff" stroke="#63b8ff" points="409.63,-196.87 406.13,-186.87 402.63,-196.87 409.63,-196.87"/>
</a>
</g>
</g>
<!-- Node10 -->
<g id="Node000010" class="node">
<title>Node10</title>
<g id="a_Node000010"><a xlink:title=" ">
<polygon fill="#e0e0e0" stroke="#999999" points="547.75,-185 466.5,-185 466.5,-165.75 547.75,-165.75 547.75,-185"/>
<text text-anchor="middle" x="507.12" y="-171.5" font-family="Helvetica,sans-Serif" font-size="10.00">BleInterfaces.h</text>
</a>
</g>
</g>
<!-- Node1&#45;&gt;Node10 -->
<g id="edge11_Node000001_Node000010" class="edge">
<title>Node1&#45;&gt;Node10</title>
<g id="a_edge11_Node000001_Node000010"><a xlink:title=" ">
<path fill="none" stroke="#63b8ff" d="M423.26,-220.59C438.78,-212.41 461.93,-200.21 479.97,-190.69"/>
<polygon fill="#63b8ff" stroke="#63b8ff" points="481.36,-193.92 488.57,-186.16 478.09,-187.73 481.36,-193.92"/>
</a>
</g>
</g>
<!-- Node11 -->
<g id="Node000011" class="node">
<title>Node11</title>
<g id="a_Node000011"><a xlink:title=" ">
<polygon fill="#e0e0e0" stroke="#999999" points="610.75,-185 565.5,-185 565.5,-165.75 610.75,-165.75 610.75,-185"/>
<text text-anchor="middle" x="588.12" y="-171.5" font-family="Helvetica,sans-Serif" font-size="10.00">atomic</text>
</a>
</g>
</g>
<!-- Node1&#45;&gt;Node11 -->
<g id="edge12_Node000001_Node000011" class="edge">
<title>Node1&#45;&gt;Node11</title>
<g id="a_edge12_Node000001_Node000011"><a xlink:title=" ">
<path fill="none" stroke="#63b8ff" d="M437,-220.59C469.62,-211.05 520.9,-196.05 554.51,-186.21"/>
<polygon fill="#63b8ff" stroke="#63b8ff" points="555.12,-189.68 563.73,-183.51 553.15,-182.96 555.12,-189.68"/>
</a>
</g>
</g>
<!-- Node12 -->
<g id="Node000012" class="node">
<title>Node12</title>
<g id="a_Node000012"><a xlink:title=" ">
<polygon fill="#e0e0e0" stroke="#999999" points="669.12,-185 629.12,-185 629.12,-165.75 669.12,-165.75 669.12,-185"/>
<text text-anchor="middle" x="649.12" y="-171.5" font-family="Helvetica,sans-Serif" font-size="10.00">string</text>
</a>
</g>
</g>
<!-- Node1&#45;&gt;Node12 -->
<g id="edge13_Node000001_Node000012" class="edge">
<title>Node1&#45;&gt;Node12</title>
<g id="a_edge13_Node000001_Node000012"><a xlink:title=" ">
<path fill="none" stroke="#63b8ff" d="M443.84,-222.75C484.5,-215.12 551.34,-201.95 617.81,-185.42"/>
<polygon fill="#63b8ff" stroke="#63b8ff" points="618.59,-188.83 627.44,-182.99 616.88,-182.04 618.59,-188.83"/>
</a>
</g>
</g>
<!-- Node13 -->
<g id="Node000013" class="node">
<title>Node13</title>
<g id="a_Node000013"><a xlink:title=" ">
<polygon fill="#e0e0e0" stroke="#999999" points="818.88,-185 687.38,-185 687.38,-165.75 818.88,-165.75 818.88,-185"/>
<text text-anchor="middle" x="753.12" y="-171.5" font-family="Helvetica,sans-Serif" font-size="10.00">sodium/crypto_secretbox.h</text>
</a>
</g>
</g>
<!-- Node1&#45;&gt;Node13 -->
<g id="edge14_Node000001_Node000013" class="edge">
<title>Node1&#45;&gt;Node13</title>
<g id="a_edge14_Node000001_Node000013"><a xlink:title=" ">
<path fill="none" stroke="#63b8ff" d="M443.59,-223.88C500.65,-215.12 610.31,-198.29 682.6,-187.2"/>
<polygon fill="#63b8ff" stroke="#63b8ff" points="683.01,-190.68 692.37,-185.7 681.95,-183.76 683.01,-190.68"/>
</a>
</g>
</g>
<!-- Node14 -->
<g id="Node000014" class="node">
<title>Node14</title>
<g id="a_Node000014"><a xlink:href="_nuki_ble_8hpp.html" target="_top" xlink:title=" ">
<polygon fill="white" stroke="#666666" points="252.38,-185 183.88,-185 183.88,-165.75 252.38,-165.75 252.38,-185"/>
<text text-anchor="middle" x="218.12" y="-171.5" font-family="Helvetica,sans-Serif" font-size="10.00">NukiBle.hpp</text>
</a>
</g>
</g>
<!-- Node1&#45;&gt;Node14 -->
<g id="edge15_Node000001_Node000014" class="edge">
<title>Node1&#45;&gt;Node14</title>
<g id="a_edge15_Node000001_Node000014"><a xlink:title=" ">
<path fill="none" stroke="#63b8ff" d="M374.23,-220.59C343.04,-211.76 295.33,-198.24 260.86,-188.48"/>
<polygon fill="#63b8ff" stroke="#63b8ff" points="262.2,-185.22 251.63,-185.86 260.3,-191.96 262.2,-185.22"/>
</a>
</g>
</g>
<!-- Node4 -->
<g id="Node000004" class="node">
<title>Node4</title>
<g id="a_Node000004"><a xlink:title=" ">
<polygon fill="#e0e0e0" stroke="#999999" points="244.75,-19.25 199.5,-19.25 199.5,0 244.75,0 244.75,-19.25"/>
<text text-anchor="middle" x="222.12" y="-5.75" font-family="Helvetica,sans-Serif" font-size="10.00">cstdint</text>
</a>
</g>
</g>
<!-- Node3&#45;&gt;Node4 -->
<g id="edge3_Node000003_Node000004" class="edge">
<title>Node3&#45;&gt;Node4</title>
<g id="a_edge3_Node000003_Node000004"><a xlink:title=" ">
<path fill="none" stroke="#63b8ff" d="M257.19,-55.08C251.51,-47.88 243.29,-37.46 236.23,-28.51"/>
<polygon fill="#63b8ff" stroke="#63b8ff" points="239.09,-26.48 230.15,-20.8 233.59,-30.82 239.09,-26.48"/>
</a>
</g>
</g>
<!-- Node5 -->
<g id="Node000005" class="node">
<title>Node5</title>
<g id="a_Node000005"><a xlink:title=" ">
<polygon fill="#e0e0e0" stroke="#999999" points="347.62,-19.25 262.62,-19.25 262.62,0 347.62,0 347.62,-19.25"/>
<text text-anchor="middle" x="305.12" y="-5.75" font-family="Helvetica,sans-Serif" font-size="10.00">NimBLEUUID.h</text>
</a>
</g>
</g>
<!-- Node3&#45;&gt;Node5 -->
<g id="edge4_Node000003_Node000005" class="edge">
<title>Node3&#45;&gt;Node5</title>
<g id="a_edge4_Node000003_Node000005"><a xlink:title=" ">
<path fill="none" stroke="#63b8ff" d="M270.9,-55.08C276.44,-47.88 284.47,-37.46 291.35,-28.51"/>
<polygon fill="#63b8ff" stroke="#63b8ff" points="293.96,-30.87 297.28,-20.81 288.41,-26.6 293.96,-30.87"/>
</a>
</g>
</g>
<!-- Node6&#45;&gt;Node3 -->
<g id="edge7_Node000006_Node000003" class="edge">
<title>Node6&#45;&gt;Node3</title>
<g id="a_edge7_Node000006_Node000003"><a xlink:title=" ">
<path fill="none" stroke="#63b8ff" d="M203.51,-110.09C214.27,-102.24 230.1,-90.7 242.88,-81.37"/>
<polygon fill="#63b8ff" stroke="#63b8ff" points="244.69,-84.39 250.7,-75.67 240.56,-78.73 244.69,-84.39"/>
</a>
</g>
</g>
<!-- Node6&#45;&gt;Node7 -->
<g id="edge6_Node000006_Node000007" class="edge">
<title>Node6&#45;&gt;Node7</title>
<g id="a_edge6_Node000006_Node000007"><a xlink:title=" ">
<path fill="none" stroke="#63b8ff" d="M183.69,-110.33C177.54,-103.05 168.61,-92.48 161,-83.48"/>
<polygon fill="#63b8ff" stroke="#63b8ff" points="163.82,-81.39 154.69,-76.02 158.48,-85.91 163.82,-81.39"/>
</a>
</g>
</g>
<!-- Node14&#45;&gt;Node3 -->
<g id="edge16_Node000014_Node000003" class="edge">
<title>Node14&#45;&gt;Node3</title>
<g id="a_edge16_Node000014_Node000003"><a xlink:title=" ">
<path fill="none" stroke="#63b8ff" d="M224.42,-165.51C230.41,-156.77 239.34,-142.83 245.12,-129.75 251.44,-115.48 256.38,-98.51 259.63,-85.65"/>
<polygon fill="#63b8ff" stroke="#63b8ff" points="262.95,-86.82 261.88,-76.28 256.14,-85.19 262.95,-86.82"/>
</a>
</g>
</g>
<!-- Node14&#45;&gt;Node6 -->
<g id="edge17_Node000014_Node000006" class="edge">
<title>Node14&#45;&gt;Node6</title>
<g id="a_edge17_Node000014_Node000006"><a xlink:title=" ">
<path fill="none" stroke="#63b8ff" d="M213.67,-165.58C210.17,-158.69 205.18,-148.84 200.78,-140.16"/>
<polygon fill="#63b8ff" stroke="#63b8ff" points="204.01,-138.8 196.36,-131.46 197.77,-141.96 204.01,-138.8"/>
</a>
</g>
</g>
</g>
</svg>
