<?xml version="1.0" encoding="UTF-8" standalone="no"?>
<!DOCTYPE svg PUBLIC "-//W3C//DTD SVG 1.1//EN"
 "http://www.w3.org/Graphics/SVG/1.1/DTD/svg11.dtd">
<!-- Generated by graphviz version 8.0.1 (20230327.1645)
 -->
<!-- Title: src/NukiConstants.h Pages: 1 -->
<svg width="735pt" height="302pt"
 viewBox="0.00 0.00 734.50 302.00" xmlns="http://www.w3.org/2000/svg" xmlns:xlink="http://www.w3.org/1999/xlink">
<g id="graph0" class="graph" transform="scale(1 1) rotate(0) translate(4 298)">
<title>src/NukiConstants.h</title>
<!-- Node1 -->
<g id="node1" class="node">
<title>Node1</title>
<g id="a_node1"><a xlink:title=" ">
<polygon fill="#999999" stroke="#666666" points="375,-294 270,-294 270,-275 375,-275 375,-294"/>
<text text-anchor="middle" x="322.5" y="-282" font-family="Helvetica,sans-Serif" font-size="10.00">src/NukiConstants.h</text>
</a>
</g>
</g>
<!-- Node2 -->
<g id="node2" class="node">
<title>Node2</title>
<g id="a_node2"><a xlink:href="_nuki_ble_8h.html" target="_top" xlink:title=" ">
<polygon fill="white" stroke="#666666" points="338,-129 263,-129 263,-110 338,-110 338,-129"/>
<text text-anchor="middle" x="300.5" y="-117" font-family="Helvetica,sans-Serif" font-size="10.00">src/NukiBle.h</text>
</a>
</g>
</g>
<!-- Node1&#45;&gt;Node2 -->
<g id="edge1" class="edge">
<title>Node1&#45;&gt;Node2</title>
<path fill="none" stroke="#63b8ff" d="M299.56,-268.5C275.65,-251.36 239.6,-220.84 224.5,-184 213.94,-158.23 247.18,-139.64 273.01,-129.47"/>
<polygon fill="#63b8ff" stroke="#63b8ff" points="297.15,-271.79 307.36,-274.61 301.14,-266.04 297.15,-271.79"/>
</g>
<!-- Node8 -->
<g id="node8" class="node">
<title>Node8</title>
<g id="a_node8"><a xlink:href="_nuki_ble_8hpp.html" target="_top" xlink:title=" ">
<polygon fill="white" stroke="#666666" points="319.5,-184 233.5,-184 233.5,-165 319.5,-165 319.5,-184"/>
<text text-anchor="middle" x="276.5" y="-172" font-family="Helvetica,sans-Serif" font-size="10.00">src/NukiBle.hpp</text>
</a>
</g>
</g>
<!-- Node1&#45;&gt;Node8 -->
<g id="edge7" class="edge">
<title>Node1&#45;&gt;Node8</title>
<path fill="none" stroke="#63b8ff" d="M314.56,-264.86C304.57,-241.4 287.81,-202.04 280.32,-184.46"/>
<polygon fill="#63b8ff" stroke="#63b8ff" points="311.6,-265.83 318.74,-273.66 318.04,-263.09 311.6,-265.83"/>
</g>
<!-- Node9 -->
<g id="node9" class="node">
<title>Node9</title>
<g id="a_node9"><a xlink:href="_nuki_data_types_8h.html" target="_top" xlink:title=" ">
<polygon fill="white" stroke="#666666" points="427,-239 320,-239 320,-220 427,-220 427,-239"/>
<text text-anchor="middle" x="373.5" y="-227" font-family="Helvetica,sans-Serif" font-size="10.00">src/NukiDataTypes.h</text>
</a>
</g>
</g>
<!-- Node1&#45;&gt;Node9 -->
<g id="edge9" class="edge">
<title>Node1&#45;&gt;Node9</title>
<path fill="none" stroke="#63b8ff" d="M338.32,-267.06C347.09,-257.95 357.65,-246.97 364.9,-239.44"/>
<polygon fill="#63b8ff" stroke="#63b8ff" points="336.33,-264.12 331.92,-273.75 341.38,-268.97 336.33,-264.12"/>
</g>
<!-- Node14 -->
<g id="node14" class="node">
<title>Node14</title>
<g id="a_node14"><a xlink:href="_nuki_utils_8h.html" target="_top" xlink:title=" ">
<polygon fill="white" stroke="#666666" points="437,-129 356,-129 356,-110 437,-110 437,-129"/>
<text text-anchor="middle" x="396.5" y="-117" font-family="Helvetica,sans-Serif" font-size="10.00">src/NukiUtils.h</text>
</a>
</g>
</g>
<!-- Node1&#45;&gt;Node14 -->
<g id="edge31" class="edge">
<title>Node1&#45;&gt;Node14</title>
<path fill="none" stroke="#63b8ff" d="M385.81,-273.2C405.33,-266.72 424.77,-256.18 436.5,-239 461.24,-202.78 422.03,-149.94 404.39,-129.26"/>
<polygon fill="#63b8ff" stroke="#63b8ff" points="384.91,-270.11 376.31,-276.31 386.9,-276.82 384.91,-270.11"/>
</g>
<!-- Node16 -->
<g id="node16" class="node">
<title>Node16</title>
<g id="a_node16"><a xlink:href="_nuki_lock_constants_8h.html" target="_top" xlink:title=" ">
<polygon fill="white" stroke="#666666" points="177,-184 50,-184 50,-165 177,-165 177,-184"/>
<text text-anchor="middle" x="113.5" y="-172" font-family="Helvetica,sans-Serif" font-size="10.00">src/NukiLockConstants.h</text>
</a>
</g>
</g>
<!-- Node1&#45;&gt;Node16 -->
<g id="edge25" class="edge">
<title>Node1&#45;&gt;Node16</title>
<path fill="none" stroke="#63b8ff" d="M274.33,-271.6C248.79,-264.2 217.43,-253.35 191.5,-239 163.69,-223.61 136,-198.01 122.31,-184.49"/>
<polygon fill="#63b8ff" stroke="#63b8ff" points="273.31,-275.23 283.88,-274.55 275.2,-268.49 273.31,-275.23"/>
</g>
<!-- Node17 -->
<g id="node17" class="node">
<title>Node17</title>
<g id="a_node17"><a xlink:href="_nuki_opener_constants_8h.html" target="_top" xlink:title=" ">
<polygon fill="white" stroke="#666666" points="627,-239 490,-239 490,-220 627,-220 627,-239"/>
<text text-anchor="middle" x="558.5" y="-227" font-family="Helvetica,sans-Serif" font-size="10.00">src/NukiOpenerConstants.h</text>
</a>
</g>
</g>
<!-- Node1&#45;&gt;Node17 -->
<g id="edge28" class="edge">
<title>Node1&#45;&gt;Node17</title>
<path fill="none" stroke="#63b8ff" d="M373.18,-272.12C416.71,-262.34 478.61,-248.44 518.66,-239.45"/>
<polygon fill="#63b8ff" stroke="#63b8ff" points="372.52,-268.9 363.53,-274.51 374.06,-275.73 372.52,-268.9"/>
</g>
<!-- Node3 -->
<g id="node3" class="node">
<title>Node3</title>
<g id="a_node3"><a xlink:href="_nuki_ble_8cpp.html" target="_top" xlink:title=" ">
<polygon fill="white" stroke="#666666" points="356.5,-74 270.5,-74 270.5,-55 356.5,-55 356.5,-74"/>
<text text-anchor="middle" x="313.5" y="-62" font-family="Helvetica,sans-Serif" font-size="10.00">src/NukiBle.cpp</text>
</a>
</g>
</g>
<!-- Node2&#45;&gt;Node3 -->
<g id="edge2" class="edge">
<title>Node2&#45;&gt;Node3</title>
<path fill="none" stroke="#63b8ff" d="M305.23,-99.22C307.31,-90.74 309.65,-81.21 311.31,-74.44"/>
<polygon fill="#63b8ff" stroke="#63b8ff" points="301.63,-98.2 302.65,-108.75 308.43,-99.87 301.63,-98.2"/>
</g>
<!-- Node4 -->
<g id="node4" class="node">
<title>Node4</title>
<g id="a_node4"><a xlink:href="_nuki_lock_8h.html" target="_top" xlink:title=" ">
<polygon fill="white" stroke="#666666" points="214,-74 131,-74 131,-55 214,-55 214,-74"/>
<text text-anchor="middle" x="172.5" y="-62" font-family="Helvetica,sans-Serif" font-size="10.00">src/NukiLock.h</text>
</a>
</g>
</g>
<!-- Node2&#45;&gt;Node4 -->
<g id="edge3" class="edge">
<title>Node2&#45;&gt;Node4</title>
<path fill="none" stroke="#63b8ff" d="M268.68,-105.32C245.35,-95.67 214.32,-82.82 193.89,-74.36"/>
<polygon fill="#63b8ff" stroke="#63b8ff" points="267.21,-108.92 277.79,-109.51 269.89,-102.45 267.21,-108.92"/>
</g>
<!-- Node6 -->
<g id="node6" class="node">
<title>Node6</title>
<g id="a_node6"><a xlink:href="_nuki_opener_8h.html" target="_top" xlink:title=" ">
<polygon fill="white" stroke="#666666" points="726.5,-74 634.5,-74 634.5,-55 726.5,-55 726.5,-74"/>
<text text-anchor="middle" x="680.5" y="-62" font-family="Helvetica,sans-Serif" font-size="10.00">src/NukiOpener.h</text>
</a>
</g>
</g>
<!-- Node2&#45;&gt;Node6 -->
<g id="edge5" class="edge">
<title>Node2&#45;&gt;Node6</title>
<path fill="none" stroke="#63b8ff" d="M348.87,-109.69C456.63,-92.76 571.7,-78.41 634.2,-70.92"/>
<polygon fill="#63b8ff" stroke="#63b8ff" points="348.46,-106.37 339.13,-111.39 349.55,-113.28 348.46,-106.37"/>
</g>
<!-- Node5 -->
<g id="node5" class="node">
<title>Node5</title>
<g id="a_node5"><a xlink:href="_nuki_lock_8cpp.html" target="_top" xlink:title=" ">
<polygon fill="white" stroke="#666666" points="289,-19 196,-19 196,0 289,0 289,-19"/>
<text text-anchor="middle" x="242.5" y="-7" font-family="Helvetica,sans-Serif" font-size="10.00">src/NukiLock.cpp</text>
</a>
</g>
</g>
<!-- Node4&#45;&gt;Node5 -->
<g id="edge4" class="edge">
<title>Node4&#45;&gt;Node5</title>
<path fill="none" stroke="#63b8ff" d="M193.08,-47.92C205.37,-38.61 220.54,-27.13 230.8,-19.36"/>
<polygon fill="#63b8ff" stroke="#63b8ff" points="191.23,-45.68 185.37,-54.51 195.46,-51.26 191.23,-45.68"/>
</g>
<!-- Node7 -->
<g id="node7" class="node">
<title>Node7</title>
<g id="a_node7"><a xlink:href="_nuki_opener_8cpp.html" target="_top" xlink:title=" ">
<polygon fill="white" stroke="#666666" points="658,-19 555,-19 555,0 658,0 658,-19"/>
<text text-anchor="middle" x="606.5" y="-7" font-family="Helvetica,sans-Serif" font-size="10.00">src/NukiOpener.cpp</text>
</a>
</g>
</g>
<!-- Node6&#45;&gt;Node7 -->
<g id="edge6" class="edge">
<title>Node6&#45;&gt;Node7</title>
<path fill="none" stroke="#63b8ff" d="M659.12,-48.19C646.06,-38.84 629.82,-27.21 618.87,-19.36"/>
<polygon fill="#63b8ff" stroke="#63b8ff" points="656.78,-51.53 666.95,-54.51 660.85,-45.84 656.78,-51.53"/>
</g>
<!-- Node8&#45;&gt;Node2 -->
<g id="edge8" class="edge">
<title>Node8&#45;&gt;Node2</title>
<path fill="none" stroke="#63b8ff" d="M284.97,-154.79C288.87,-146.18 293.32,-136.36 296.45,-129.44"/>
<polygon fill="#63b8ff" stroke="#63b8ff" points="281.4,-153.19 280.46,-163.75 287.78,-156.08 281.4,-153.19"/>
</g>
<!-- Node9&#45;&gt;Node2 -->
<g id="edge10" class="edge">
<title>Node9&#45;&gt;Node2</title>
<path fill="none" stroke="#63b8ff" d="M373.47,-208.75C372.61,-195.47 369.76,-178.07 361.5,-165 351.41,-149.04 333.37,-136.96 319.52,-129.44"/>
<polygon fill="#63b8ff" stroke="#63b8ff" points="370,-208.66 373.81,-218.55 376.99,-208.44 370,-208.66"/>
</g>
<!-- Node9&#45;&gt;Node8 -->
<g id="edge11" class="edge">
<title>Node9&#45;&gt;Node8</title>
<path fill="none" stroke="#63b8ff" d="M347.45,-214.27C330.02,-204.74 307.63,-192.51 292.71,-184.36"/>
<polygon fill="#63b8ff" stroke="#63b8ff" points="345.59,-217.79 356.05,-219.51 348.95,-211.64 345.59,-217.79"/>
</g>
<!-- Node10 -->
<g id="node10" class="node">
<title>Node10</title>
<g id="a_node10"><a xlink:href="_nuki_lock_utils_8h.html" target="_top" xlink:title=" ">
<polygon fill="white" stroke="#666666" points="245,-129 142,-129 142,-110 245,-110 245,-129"/>
<text text-anchor="middle" x="193.5" y="-117" font-family="Helvetica,sans-Serif" font-size="10.00">src/NukiLockUtils.h</text>
</a>
</g>
</g>
<!-- Node9&#45;&gt;Node10 -->
<g id="edge12" class="edge">
<title>Node9&#45;&gt;Node10</title>
<path fill="none" stroke="#63b8ff" d="M364.6,-210.08C356.88,-195.89 344.43,-176.77 328.5,-165 304.09,-146.96 271.97,-135.98 245.19,-129.45"/>
<polygon fill="#63b8ff" stroke="#63b8ff" points="361.89,-211.46 369.57,-218.76 368.12,-208.27 361.89,-211.46"/>
</g>
<!-- Node12 -->
<g id="node12" class="node">
<title>Node12</title>
<g id="a_node12"><a xlink:href="_nuki_opener_utils_8h.html" target="_top" xlink:title=" ">
<polygon fill="white" stroke="#666666" points="609,-184 496,-184 496,-165 609,-165 609,-184"/>
<text text-anchor="middle" x="552.5" y="-172" font-family="Helvetica,sans-Serif" font-size="10.00">src/NukiOpenerUtils.h</text>
</a>
</g>
</g>
<!-- Node9&#45;&gt;Node12 -->
<g id="edge17" class="edge">
<title>Node9&#45;&gt;Node12</title>
<path fill="none" stroke="#63b8ff" d="M414.06,-216.49C446.94,-206.76 492.55,-193.25 522.29,-184.45"/>
<polygon fill="#63b8ff" stroke="#63b8ff" points="413.46,-213.31 404.86,-219.51 415.45,-220.03 413.46,-213.31"/>
</g>
<!-- Node9&#45;&gt;Node14 -->
<g id="edge20" class="edge">
<title>Node9&#45;&gt;Node14</title>
<path fill="none" stroke="#63b8ff" d="M386.76,-210.79C391.8,-203 396.94,-193.47 399.5,-184 404.63,-165.04 401.18,-141.75 398.6,-129.31"/>
<polygon fill="#63b8ff" stroke="#63b8ff" points="383.47,-208.39 380.63,-218.6 389.21,-212.39 383.47,-208.39"/>
</g>
<!-- Node10&#45;&gt;Node3 -->
<g id="edge13" class="edge">
<title>Node10&#45;&gt;Node3</title>
<path fill="none" stroke="#63b8ff" d="M223.63,-105.19C245.46,-95.55 274.38,-82.78 293.44,-74.36"/>
<polygon fill="#63b8ff" stroke="#63b8ff" points="222.59,-102.27 214.86,-109.51 225.42,-108.67 222.59,-102.27"/>
</g>
<!-- Node10&#45;&gt;Node4 -->
<g id="edge15" class="edge">
<title>Node10&#45;&gt;Node4</title>
<path fill="none" stroke="#63b8ff" d="M186.09,-99.79C182.67,-91.18 178.78,-81.36 176.04,-74.44"/>
<polygon fill="#63b8ff" stroke="#63b8ff" points="183.09,-100.74 190.03,-108.75 189.6,-98.16 183.09,-100.74"/>
</g>
<!-- Node10&#45;&gt;Node5 -->
<g id="edge14" class="edge">
<title>Node10&#45;&gt;Node5</title>
<path fill="none" stroke="#63b8ff" d="M206.65,-100.77C212.08,-92.87 218.12,-83.26 222.5,-74 231.29,-55.4 237.52,-31.96 240.51,-19.41"/>
<polygon fill="#63b8ff" stroke="#63b8ff" points="203.22,-98.55 200.26,-108.72 208.92,-102.62 203.22,-98.55"/>
</g>
<!-- Node11 -->
<g id="node11" class="node">
<title>Node11</title>
<g id="a_node11"><a xlink:href="_nuki_lock_utils_8cpp.html" target="_top" xlink:title=" ">
<polygon fill="white" stroke="#666666" points="113,-74 0,-74 0,-55 113,-55 113,-74"/>
<text text-anchor="middle" x="56.5" y="-62" font-family="Helvetica,sans-Serif" font-size="10.00">src/NukiLockUtils.cpp</text>
</a>
</g>
</g>
<!-- Node10&#45;&gt;Node11 -->
<g id="edge16" class="edge">
<title>Node10&#45;&gt;Node11</title>
<path fill="none" stroke="#63b8ff" d="M160.11,-105.58C135.07,-95.9 101.46,-82.89 79.4,-74.36"/>
<polygon fill="#63b8ff" stroke="#63b8ff" points="158.67,-109.17 169.26,-109.51 161.2,-102.64 158.67,-109.17"/>
</g>
<!-- Node12&#45;&gt;Node7 -->
<g id="edge18" class="edge">
<title>Node12&#45;&gt;Node7</title>
<path fill="none" stroke="#63b8ff" d="M569.09,-156.65C575.85,-148.84 583.09,-139.07 587.5,-129 604.3,-90.64 606.43,-39.46 606.57,-19.25"/>
<polygon fill="#63b8ff" stroke="#63b8ff" points="567.03,-153.81 562.85,-163.54 572.19,-158.54 567.03,-153.81"/>
</g>
<!-- Node13 -->
<g id="node13" class="node">
<title>Node13</title>
<g id="a_node13"><a xlink:href="_nuki_opener_utils_8cpp.html" target="_top" xlink:title=" ">
<polygon fill="white" stroke="#666666" points="578,-129 455,-129 455,-110 578,-110 578,-129"/>
<text text-anchor="middle" x="516.5" y="-117" font-family="Helvetica,sans-Serif" font-size="10.00">src/NukiOpenerUtils.cpp</text>
</a>
</g>
</g>
<!-- Node12&#45;&gt;Node13 -->
<g id="edge19" class="edge">
<title>Node12&#45;&gt;Node13</title>
<path fill="none" stroke="#63b8ff" d="M540.57,-155.93C534.54,-147.06 527.48,-136.67 522.57,-129.44"/>
<polygon fill="#63b8ff" stroke="#63b8ff" points="538.04,-157.44 546.56,-163.75 543.83,-153.51 538.04,-157.44"/>
</g>
<!-- Node14&#45;&gt;Node3 -->
<g id="edge21" class="edge">
<title>Node14&#45;&gt;Node3</title>
<path fill="none" stroke="#63b8ff" d="M373.37,-103.73C358.58,-94.29 339.9,-82.36 327.37,-74.36"/>
<polygon fill="#63b8ff" stroke="#63b8ff" points="371.11,-107.08 381.42,-109.51 374.88,-101.18 371.11,-107.08"/>
</g>
<!-- Node14&#45;&gt;Node5 -->
<g id="edge22" class="edge">
<title>Node14&#45;&gt;Node5</title>
<path fill="none" stroke="#63b8ff" d="M391.41,-99.38C386.78,-85.36 378.62,-66.79 365.5,-55 344.3,-35.95 314.32,-24.89 289.27,-18.55"/>
<polygon fill="#63b8ff" stroke="#63b8ff" points="388.31,-100.24 394.51,-108.84 395.03,-98.25 388.31,-100.24"/>
</g>
<!-- Node14&#45;&gt;Node7 -->
<g id="edge23" class="edge">
<title>Node14&#45;&gt;Node7</title>
<path fill="none" stroke="#63b8ff" d="M435.85,-106.13C459.04,-98.21 488.61,-87 513.5,-74 544.87,-57.62 578.37,-32.66 595.31,-19.44"/>
<polygon fill="#63b8ff" stroke="#63b8ff" points="435.06,-103.04 426.69,-109.53 437.28,-109.68 435.06,-103.04"/>
</g>
<!-- Node15 -->
<g id="node15" class="node">
<title>Node15</title>
<g id="a_node15"><a xlink:href="_nuki_utils_8cpp.html" target="_top" xlink:title=" ">
<polygon fill="white" stroke="#666666" points="504.5,-74 412.5,-74 412.5,-55 504.5,-55 504.5,-74"/>
<text text-anchor="middle" x="458.5" y="-62" font-family="Helvetica,sans-Serif" font-size="10.00">src/NukiUtils.cpp</text>
</a>
</g>
</g>
<!-- Node14&#45;&gt;Node15 -->
<g id="edge24" class="edge">
<title>Node14&#45;&gt;Node15</title>
<path fill="none" stroke="#63b8ff" d="M415.37,-102.37C426.14,-93.16 439.22,-81.98 448.14,-74.36"/>
<polygon fill="#63b8ff" stroke="#63b8ff" points="413.34,-100.35 408.02,-109.51 417.89,-105.67 413.34,-100.35"/>
</g>
<!-- Node16&#45;&gt;Node4 -->
<g id="edge26" class="edge">
<title>Node16&#45;&gt;Node4</title>
<path fill="none" stroke="#63b8ff" d="M116.95,-154.24C119.83,-141.17 124.74,-123.83 132.5,-110 140.33,-96.05 153.21,-82.78 162.24,-74.42"/>
<polygon fill="#63b8ff" stroke="#63b8ff" points="113.36,-153.32 114.85,-163.81 120.23,-154.68 113.36,-153.32"/>
</g>
<!-- Node16&#45;&gt;Node10 -->
<g id="edge27" class="edge">
<title>Node16&#45;&gt;Node10</title>
<path fill="none" stroke="#63b8ff" d="M136.2,-158.46C150.39,-149.06 168.17,-137.28 180.13,-129.36"/>
<polygon fill="#63b8ff" stroke="#63b8ff" points="134.47,-156.07 128.07,-164.51 138.34,-161.9 134.47,-156.07"/>
</g>
<!-- Node17&#45;&gt;Node6 -->
<g id="edge29" class="edge">
<title>Node17&#45;&gt;Node6</title>
<path fill="none" stroke="#63b8ff" d="M583.58,-213.63C595.22,-205.85 608.62,-195.55 618.5,-184 648.98,-148.35 669.96,-95.18 677.46,-74.33"/>
<polygon fill="#63b8ff" stroke="#63b8ff" points="581.88,-211.2 575.34,-219.54 585.65,-217.1 581.88,-211.2"/>
</g>
<!-- Node17&#45;&gt;Node12 -->
<g id="edge30" class="edge">
<title>Node17&#45;&gt;Node12</title>
<path fill="none" stroke="#63b8ff" d="M556.28,-208.93C555.33,-200.53 554.27,-191.13 553.51,-184.44"/>
<polygon fill="#63b8ff" stroke="#63b8ff" points="552.91,-209.21 557.51,-218.75 559.86,-208.42 552.91,-209.21"/>
</g>
</g>
</svg>
