<?xml version="1.0" encoding="UTF-8" standalone="no"?>
<!DOCTYPE svg PUBLIC "-//W3C//DTD SVG 1.1//EN"
 "http://www.w3.org/Graphics/SVG/1.1/DTD/svg11.dtd">
<!-- Generated by graphviz version 8.0.1 (20230327.1645)
 -->
<!-- Title: src/NukiLockConstants.h Pages: 1 -->
<svg width="365pt" height="192pt"
 viewBox="0.00 0.00 365.00 192.00" xmlns="http://www.w3.org/2000/svg" xmlns:xlink="http://www.w3.org/1999/xlink">
<g id="graph0" class="graph" transform="scale(1 1) rotate(0) translate(4 188)">
<title>src/NukiLockConstants.h</title>
<!-- Node1 -->
<g id="node1" class="node">
<title>Node1</title>
<g id="a_node1"><a xlink:title=" ">
<polygon fill="#999999" stroke="#666666" points="145,-184 18,-184 18,-165 145,-165 145,-184"/>
<text text-anchor="middle" x="81.5" y="-172" font-family="Helvetica,sans-Serif" font-size="10.00">src/NukiLockConstants.h</text>
</a>
</g>
</g>
<!-- Node2 -->
<g id="node2" class="node">
<title>Node2</title>
<g id="a_node2"><a xlink:href="_nuki_lock_8h.html" target="_top" xlink:title=" ">
<polygon fill="white" stroke="#666666" points="83,-74 0,-74 0,-55 83,-55 83,-74"/>
<text text-anchor="middle" x="41.5" y="-62" font-family="Helvetica,sans-Serif" font-size="10.00">src/NukiLock.h</text>
</a>
</g>
</g>
<!-- Node1&#45;&gt;Node2 -->
<g id="edge1" class="edge">
<title>Node1&#45;&gt;Node2</title>
<path fill="none" stroke="#63b8ff" d="M72.08,-155.15C68.21,-147.23 63.86,-137.78 60.5,-129 53.17,-109.87 46.85,-86.64 43.68,-74.27"/>
<polygon fill="#63b8ff" stroke="#63b8ff" points="69.31,-156.43 76.92,-163.8 75.57,-153.3 69.31,-156.43"/>
</g>
<!-- Node4 -->
<g id="node4" class="node">
<title>Node4</title>
<g id="a_node4"><a xlink:href="_nuki_lock_utils_8h.html" target="_top" xlink:title=" ">
<polygon fill="white" stroke="#666666" points="173,-129 70,-129 70,-110 173,-110 173,-129"/>
<text text-anchor="middle" x="121.5" y="-117" font-family="Helvetica,sans-Serif" font-size="10.00">src/NukiLockUtils.h</text>
</a>
</g>
</g>
<!-- Node1&#45;&gt;Node4 -->
<g id="edge3" class="edge">
<title>Node1&#45;&gt;Node4</title>
<path fill="none" stroke="#63b8ff" d="M94.55,-156.22C101.29,-147.28 109.24,-136.74 114.75,-129.44"/>
<polygon fill="#63b8ff" stroke="#63b8ff" points="91.34,-153.66 88.11,-163.75 96.92,-157.87 91.34,-153.66"/>
</g>
<!-- Node3 -->
<g id="node3" class="node">
<title>Node3</title>
<g id="a_node3"><a xlink:href="_nuki_lock_8cpp.html" target="_top" xlink:title=" ">
<polygon fill="white" stroke="#666666" points="123,-19 30,-19 30,0 123,0 123,-19"/>
<text text-anchor="middle" x="76.5" y="-7" font-family="Helvetica,sans-Serif" font-size="10.00">src/NukiLock.cpp</text>
</a>
</g>
</g>
<!-- Node2&#45;&gt;Node3 -->
<g id="edge2" class="edge">
<title>Node2&#45;&gt;Node3</title>
<path fill="none" stroke="#63b8ff" d="M53.29,-45.65C59.11,-36.84 65.87,-26.59 70.59,-19.44"/>
<polygon fill="#63b8ff" stroke="#63b8ff" points="49.87,-43.47 47.28,-53.75 55.71,-47.33 49.87,-43.47"/>
</g>
<!-- Node4&#45;&gt;Node2 -->
<g id="edge6" class="edge">
<title>Node4&#45;&gt;Node2</title>
<path fill="none" stroke="#63b8ff" d="M98.8,-103.46C84.61,-94.06 66.83,-82.28 54.87,-74.36"/>
<polygon fill="#63b8ff" stroke="#63b8ff" points="96.66,-106.9 106.93,-109.51 100.53,-101.07 96.66,-106.9"/>
</g>
<!-- Node4&#45;&gt;Node3 -->
<g id="edge5" class="edge">
<title>Node4&#45;&gt;Node3</title>
<path fill="none" stroke="#63b8ff" d="M113.6,-99.54C103.81,-76.04 87.53,-36.97 80.23,-19.46"/>
<polygon fill="#63b8ff" stroke="#63b8ff" points="110.74,-100.78 117.82,-108.66 117.2,-98.08 110.74,-100.78"/>
</g>
<!-- Node5 -->
<g id="node5" class="node">
<title>Node5</title>
<g id="a_node5"><a xlink:href="_nuki_ble_8cpp.html" target="_top" xlink:title=" ">
<polygon fill="white" stroke="#666666" points="225.5,-74 139.5,-74 139.5,-55 225.5,-55 225.5,-74"/>
<text text-anchor="middle" x="182.5" y="-62" font-family="Helvetica,sans-Serif" font-size="10.00">src/NukiBle.cpp</text>
</a>
</g>
</g>
<!-- Node4&#45;&gt;Node5 -->
<g id="edge4" class="edge">
<title>Node4&#45;&gt;Node5</title>
<path fill="none" stroke="#63b8ff" d="M140.07,-102.37C150.66,-93.16 163.54,-81.98 172.31,-74.36"/>
<polygon fill="#63b8ff" stroke="#63b8ff" points="138.1,-100.31 132.85,-109.51 142.69,-105.59 138.1,-100.31"/>
</g>
<!-- Node6 -->
<g id="node6" class="node">
<title>Node6</title>
<g id="a_node6"><a xlink:href="_nuki_lock_utils_8cpp.html" target="_top" xlink:title=" ">
<polygon fill="white" stroke="#666666" points="357,-74 244,-74 244,-55 357,-55 357,-74"/>
<text text-anchor="middle" x="300.5" y="-62" font-family="Helvetica,sans-Serif" font-size="10.00">src/NukiLockUtils.cpp</text>
</a>
</g>
</g>
<!-- Node4&#45;&gt;Node6 -->
<g id="edge7" class="edge">
<title>Node4&#45;&gt;Node6</title>
<path fill="none" stroke="#63b8ff" d="M162.06,-106.49C194.94,-96.76 240.55,-83.25 270.29,-74.45"/>
<polygon fill="#63b8ff" stroke="#63b8ff" points="161.46,-103.31 152.86,-109.51 163.45,-110.03 161.46,-103.31"/>
</g>
</g>
</svg>
