<?xml version="1.0" encoding="UTF-8" standalone="no"?>
<!DOCTYPE svg PUBLIC "-//W3C//DTD SVG 1.1//EN"
 "http://www.w3.org/Graphics/SVG/1.1/DTD/svg11.dtd">
<!-- Generated by graphviz version 8.0.1 (20230327.1645)
 -->
<!-- Title: src/NukiUtils.cpp Pages: 1 -->
<svg width="371pt" height="247pt"
 viewBox="0.00 0.00 370.50 247.00" xmlns="http://www.w3.org/2000/svg" xmlns:xlink="http://www.w3.org/1999/xlink">
<g id="graph0" class="graph" transform="scale(1 1) rotate(0) translate(4 243)">
<title>src/NukiUtils.cpp</title>
<!-- Node1 -->
<g id="node1" class="node">
<title>Node1</title>
<g id="a_node1"><a xlink:title=" ">
<polygon fill="#999999" stroke="#666666" points="274.5,-239 182.5,-239 182.5,-220 274.5,-220 274.5,-239"/>
<text text-anchor="middle" x="228.5" y="-227" font-family="Helvetica,sans-Serif" font-size="10.00">src/NukiUtils.cpp</text>
</a>
</g>
</g>
<!-- Node2 -->
<g id="node2" class="node">
<title>Node2</title>
<g id="a_node2"><a xlink:href="_nuki_utils_8h.html" target="_top" xlink:title=" ">
<polygon fill="white" stroke="#666666" points="144,-184 79,-184 79,-165 144,-165 144,-184"/>
<text text-anchor="middle" x="111.5" y="-172" font-family="Helvetica,sans-Serif" font-size="10.00">NukiUtils.h</text>
</a>
</g>
</g>
<!-- Node1&#45;&gt;Node2 -->
<g id="edge1" class="edge">
<title>Node1&#45;&gt;Node2</title>
<path fill="none" stroke="#63b8ff" d="M208.65,-219.51C190.05,-211.08 162.01,-198.38 140.83,-188.79"/>
<polygon fill="#63b8ff" stroke="#63b8ff" points="142.61,-185.3 132.05,-184.36 139.72,-191.67 142.61,-185.3"/>
</g>
<!-- Node8 -->
<g id="node8" class="node">
<title>Node8</title>
<g id="a_node8"><a xlink:title=" ">
<polygon fill="#e0e0e0" stroke="#999999" points="294.5,-184 162.5,-184 162.5,-165 294.5,-165 294.5,-184"/>
<text text-anchor="middle" x="228.5" y="-172" font-family="Helvetica,sans-Serif" font-size="10.00">sodium/crypto_secretbox.h</text>
</a>
</g>
</g>
<!-- Node1&#45;&gt;Node8 -->
<g id="edge9" class="edge">
<title>Node1&#45;&gt;Node8</title>
<path fill="none" stroke="#63b8ff" d="M228.5,-219.75C228.5,-213.11 228.5,-203.73 228.5,-195.31"/>
<polygon fill="#63b8ff" stroke="#63b8ff" points="232,-195.44 228.5,-185.44 225,-195.44 232,-195.44"/>
</g>
<!-- Node9 -->
<g id="node9" class="node">
<title>Node9</title>
<g id="a_node9"><a xlink:title=" ">
<polygon fill="#e0e0e0" stroke="#999999" points="362.5,-184 312.5,-184 312.5,-165 362.5,-165 362.5,-184"/>
<text text-anchor="middle" x="337.5" y="-172" font-family="Helvetica,sans-Serif" font-size="10.00">Crc16.h</text>
</a>
</g>
</g>
<!-- Node1&#45;&gt;Node9 -->
<g id="edge10" class="edge">
<title>Node1&#45;&gt;Node9</title>
<path fill="none" stroke="#63b8ff" d="M246.99,-219.51C264.16,-211.16 289.97,-198.61 309.64,-189.05"/>
<polygon fill="#63b8ff" stroke="#63b8ff" points="310.82,-191.88 318.28,-184.36 307.76,-185.58 310.82,-191.88"/>
</g>
<!-- Node3 -->
<g id="node3" class="node">
<title>Node3</title>
<g id="a_node3"><a xlink:title=" ">
<polygon fill="#e0e0e0" stroke="#999999" points="57,-74 0,-74 0,-55 57,-55 57,-74"/>
<text text-anchor="middle" x="28.5" y="-62" font-family="Helvetica,sans-Serif" font-size="10.00">Arduino.h</text>
</a>
</g>
</g>
<!-- Node2&#45;&gt;Node3 -->
<g id="edge2" class="edge">
<title>Node2&#45;&gt;Node3</title>
<path fill="none" stroke="#63b8ff" d="M78.72,-166.94C57.85,-160.89 32.41,-149.59 19.5,-129 11.18,-115.73 14.72,-97.88 19.59,-84.48"/>
<polygon fill="#63b8ff" stroke="#63b8ff" points="23.15,-86.05 23.78,-75.48 16.69,-83.35 23.15,-86.05"/>
</g>
<!-- Node4 -->
<g id="node4" class="node">
<title>Node4</title>
<g id="a_node4"><a xlink:href="_nuki_data_types_8h.html" target="_top" xlink:title=" ">
<polygon fill="white" stroke="#666666" points="120,-129 29,-129 29,-110 120,-110 120,-129"/>
<text text-anchor="middle" x="74.5" y="-117" font-family="Helvetica,sans-Serif" font-size="10.00">NukiDataTypes.h</text>
</a>
</g>
</g>
<!-- Node2&#45;&gt;Node4 -->
<g id="edge3" class="edge">
<title>Node2&#45;&gt;Node4</title>
<path fill="none" stroke="#63b8ff" d="M105.39,-164.75C100.39,-157.58 93.14,-147.2 86.93,-138.3"/>
<polygon fill="#63b8ff" stroke="#63b8ff" points="89.34,-136.64 80.74,-130.44 83.6,-140.65 89.34,-136.64"/>
</g>
<!-- Node5 -->
<g id="node5" class="node">
<title>Node5</title>
<g id="a_node5"><a xlink:href="_nuki_constants_8h.html" target="_top" xlink:title=" ">
<polygon fill="white" stroke="#666666" points="178,-74 89,-74 89,-55 178,-55 178,-74"/>
<text text-anchor="middle" x="133.5" y="-62" font-family="Helvetica,sans-Serif" font-size="10.00">NukiConstants.h</text>
</a>
</g>
</g>
<!-- Node2&#45;&gt;Node5 -->
<g id="edge7" class="edge">
<title>Node2&#45;&gt;Node5</title>
<path fill="none" stroke="#63b8ff" d="M115.8,-164.53C119.82,-155.71 125.63,-141.75 128.5,-129 131.78,-114.45 132.99,-97.6 133.4,-84.92"/>
<polygon fill="#63b8ff" stroke="#63b8ff" points="136.92,-85.31 133.6,-75.24 129.92,-85.18 136.92,-85.31"/>
</g>
<!-- Node7 -->
<g id="node7" class="node">
<title>Node7</title>
<g id="a_node7"><a xlink:title=" ">
<polygon fill="#e0e0e0" stroke="#999999" points="218,-129 177,-129 177,-110 218,-110 218,-129"/>
<text text-anchor="middle" x="197.5" y="-117" font-family="Helvetica,sans-Serif" font-size="10.00">bitset</text>
</a>
</g>
</g>
<!-- Node2&#45;&gt;Node7 -->
<g id="edge8" class="edge">
<title>Node2&#45;&gt;Node7</title>
<path fill="none" stroke="#63b8ff" d="M126.09,-164.51C139.14,-156.47 158.51,-144.53 173.79,-135.11"/>
<polygon fill="#63b8ff" stroke="#63b8ff" points="175.45,-137.58 182.13,-129.36 171.78,-131.62 175.45,-137.58"/>
</g>
<!-- Node4&#45;&gt;Node3 -->
<g id="edge4" class="edge">
<title>Node4&#45;&gt;Node3</title>
<path fill="none" stroke="#63b8ff" d="M66.9,-109.75C60.55,-102.43 51.29,-91.76 43.46,-82.74"/>
<polygon fill="#63b8ff" stroke="#63b8ff" points="45.46,-80.7 36.26,-75.44 40.17,-85.29 45.46,-80.7"/>
</g>
<!-- Node4&#45;&gt;Node5 -->
<g id="edge5" class="edge">
<title>Node4&#45;&gt;Node5</title>
<path fill="none" stroke="#63b8ff" d="M84.51,-109.51C93.04,-101.85 105.5,-90.66 115.72,-81.47"/>
<polygon fill="#63b8ff" stroke="#63b8ff" points="117.54,-84.64 122.64,-75.36 112.86,-79.44 117.54,-84.64"/>
</g>
<!-- Node6 -->
<g id="node6" class="node">
<title>Node6</title>
<g id="a_node6"><a xlink:title=" ">
<polygon fill="#e0e0e0" stroke="#999999" points="176.5,-19 90.5,-19 90.5,0 176.5,0 176.5,-19"/>
<text text-anchor="middle" x="133.5" y="-7" font-family="Helvetica,sans-Serif" font-size="10.00">NimBLEUUID.h</text>
</a>
</g>
</g>
<!-- Node5&#45;&gt;Node6 -->
<g id="edge6" class="edge">
<title>Node5&#45;&gt;Node6</title>
<path fill="none" stroke="#63b8ff" d="M133.5,-54.75C133.5,-48.11 133.5,-38.73 133.5,-30.31"/>
<polygon fill="#63b8ff" stroke="#63b8ff" points="137,-30.44 133.5,-20.44 130,-30.44 137,-30.44"/>
</g>
</g>
</svg>
