<?xml version="1.0" encoding="UTF-8" standalone="no"?>
<!DOCTYPE svg PUBLIC "-//W3C//DTD SVG 1.1//EN"
 "http://www.w3.org/Graphics/SVG/1.1/DTD/svg11.dtd">
<!-- Generated by graphviz version 12.2.1 (20241206.2353)
 -->
<!-- Title: src/NukiLock.h Pages: 1 -->
<!--zoomable 304 -->

<svg id="main" version="1.1" xmlns="http://www.w3.org/2000/svg" xmlns:xlink="http://www.w3.org/1999/xlink" xml:space="preserve" onload="init(evt)">

<style type="text/css"><![CDATA[
.node, .edge {opacity: 0.7;}
.node.selected, .edge.selected {opacity: 1;}
.edge:hover path { stroke: red; }
.edge:hover polygon { stroke: red; fill: red; }
]]></style>

<defs>
  <circle id="rim" cx="0" cy="0" r="7"/>
  <circle id="rim2" cx="0" cy="0" r="3.5"/>
  <g id="zoomPlus">
    <use xlink:href="#rim" fill="#404040"><set attributeName="fill" to="#808080" begin="zoomplus.mouseover" end="zoomplus.mouseout"/></use>
    <path d="M-4,0h8M0,-4v8" fill="none" stroke="white" stroke-width="1.5" pointer-events="none"/>
  </g>
  <g id="zoomMin">
    <use xlink:href="#rim" fill="#404040"><set attributeName="fill" to="#808080" begin="zoomminus.mouseover" end="zoomminus.mouseout"/></use>
    <path d="M-4,0h8" fill="none" stroke="white" stroke-width="1.5" pointer-events="none"/>
  </g>
  <g id="arrowUp" transform="translate(30 24)">
    <use xlink:href="#rim"/>
    <path pointer-events="none" fill="none" stroke="white" stroke-width="1.5" d="M0,-3.0v7 M-2.5,-0.5L0,-3.0L2.5,-0.5"/>
  </g>
  <g id="arrowRight" transform="rotate(90) translate(36 -43)">
    <use xlink:href="#rim"/>
    <path pointer-events="none" fill="none" stroke="white" stroke-width="1.5" d="M0,-3.0v7 M-2.5,-0.5L0,-3.0L2.5,-0.5"/>
  </g>
  <g id="arrowDown" transform="rotate(180) translate(-30 -48)">
    <use xlink:href="#rim"/>
    <path pointer-events="none" fill="none" stroke="white" stroke-width="1.5" d="M0,-3.0v7 M-2.5,-0.5L0,-3.0L2.5,-0.5"/>
  </g>
  <g id="arrowLeft" transform="rotate(270) translate(-36 17)">
    <use xlink:href="#rim"/>
    <path pointer-events="none" fill="none" stroke="white" stroke-width="1.5" d="M0,-3.0v7 M-2.5,-0.5L0,-3.0L2.5,-0.5"/>
  </g>
  <g id="resetDef">
    <use xlink:href="#rim2" fill="#404040"><set attributeName="fill" to="#808080" begin="reset.mouseover" end="reset.mouseout"/></use>
  </g>
</defs>
<script type="application/ecmascript">
var viewWidth = 1041;
var viewHeight = 304;
var sectionId = 'dynsection-0';
</script>
<script type="application/ecmascript" xlink:href="svg.min.js"/>
<svg id="graph" class="graph">
<g id="viewport">
<title>src/NukiLock.h</title>
<!-- Node1 -->
<g id="Node000001" class="node">
<title>Node1</title>
<g id="a_Node000001"><a xlink:title=" ">
<polygon fill="#999999" stroke="#666666" points="167.52,-295.5 85.52,-295.5 85.52,-276.25 167.52,-276.25 167.52,-295.5"/>
<text text-anchor="middle" x="126.52" y="-282" font-family="Helvetica,sans-Serif" font-size="10.00">src/NukiLock.h</text>
</a>
</g>
</g>
<!-- Node2 -->
<g id="Node000002" class="node">
<title>Node2</title>
<g id="a_Node000002"><a xlink:href="_nuki_ble_8h.html" target="_top" xlink:title=" ">
<polygon fill="white" stroke="#666666" points="600.52,-240.25 542.52,-240.25 542.52,-221 600.52,-221 600.52,-240.25"/>
<text text-anchor="middle" x="571.52" y="-226.75" font-family="Helvetica,sans-Serif" font-size="10.00">NukiBle.h</text>
</a>
</g>
</g>
<!-- Node1&#45;&gt;Node2 -->
<g id="edge1_Node000001_Node000002" class="edge">
<title>Node1&#45;&gt;Node2</title>
<g id="a_edge1_Node000001_Node000002"><a xlink:title=" ">
<path fill="none" stroke="#63b8ff" d="M167.98,-279.91C253.01,-269.74 446.18,-246.62 530.67,-236.51"/>
<polygon fill="#63b8ff" stroke="#63b8ff" points="531.07,-239.99 540.58,-235.33 530.24,-233.04 531.07,-239.99"/>
</a>
</g>
</g>
<!-- Node17 -->
<g id="Node000017" class="node">
<title>Node17</title>
<g id="a_Node000017"><a xlink:href="_nuki_lock_constants_8h.html" target="_top" xlink:title=" ">
<polygon fill="white" stroke="#666666" points="181.39,-129.75 71.64,-129.75 71.64,-110.5 181.39,-110.5 181.39,-129.75"/>
<text text-anchor="middle" x="126.52" y="-116.25" font-family="Helvetica,sans-Serif" font-size="10.00">NukiLockConstants.h</text>
</a>
</g>
</g>
<!-- Node1&#45;&gt;Node17 -->
<g id="edge20_Node000001_Node000017" class="edge">
<title>Node1&#45;&gt;Node17</title>
<g id="a_edge20_Node000001_Node000017"><a xlink:title=" ">
<path fill="none" stroke="#63b8ff" d="M126.52,-276.07C126.52,-250.75 126.52,-177.25 126.52,-141.34"/>
<polygon fill="#63b8ff" stroke="#63b8ff" points="130.02,-141.49 126.52,-131.49 123.02,-141.49 130.02,-141.49"/>
</a>
</g>
</g>
<!-- Node18 -->
<g id="Node000018" class="node">
<title>Node18</title>
<g id="a_Node000018"><a xlink:href="_nuki_lock_utils_8h.html" target="_top" xlink:title=" ">
<polygon fill="white" stroke="#666666" points="98.39,-185 12.64,-185 12.64,-165.75 98.39,-165.75 98.39,-185"/>
<text text-anchor="middle" x="55.52" y="-171.5" font-family="Helvetica,sans-Serif" font-size="10.00">NukiLockUtils.h</text>
</a>
</g>
</g>
<!-- Node1&#45;&gt;Node18 -->
<g id="edge23_Node000001_Node000018" class="edge">
<title>Node1&#45;&gt;Node18</title>
<g id="a_edge23_Node000001_Node000018"><a xlink:title=" ">
<path fill="none" stroke="#63b8ff" d="M120.71,-276C109.16,-258.35 83.12,-218.55 67.67,-194.95"/>
<polygon fill="#63b8ff" stroke="#63b8ff" points="70.64,-193.09 62.24,-186.64 64.79,-196.93 70.64,-193.09"/>
</a>
</g>
</g>
<!-- Node3 -->
<g id="Node000003" class="node">
<title>Node3</title>
<g id="a_Node000003"><a xlink:title=" ">
<polygon fill="#e0e0e0" stroke="#999999" points="895.64,-185 805.39,-185 805.39,-165.75 895.64,-165.75 895.64,-185"/>
<text text-anchor="middle" x="850.52" y="-171.5" font-family="Helvetica,sans-Serif" font-size="10.00">NimBLEDevice.h</text>
</a>
</g>
</g>
<!-- Node2&#45;&gt;Node3 -->
<g id="edge2_Node000002_Node000003" class="edge">
<title>Node2&#45;&gt;Node3</title>
<g id="a_edge2_Node000002_Node000003"><a xlink:title=" ">
<path fill="none" stroke="#63b8ff" d="M600.85,-224.03C646.49,-215.32 735.34,-198.36 793.8,-187.2"/>
<polygon fill="#63b8ff" stroke="#63b8ff" points="794.41,-190.65 803.58,-185.33 793.1,-183.77 794.41,-190.65"/>
</a>
</g>
</g>
<!-- Node4 -->
<g id="Node000004" class="node">
<title>Node4</title>
<g id="a_Node000004"><a xlink:href="_nuki_constants_8h.html" target="_top" xlink:title=" ">
<polygon fill="white" stroke="#666666" points="496.52,-74.5 408.52,-74.5 408.52,-55.25 496.52,-55.25 496.52,-74.5"/>
<text text-anchor="middle" x="452.52" y="-61" font-family="Helvetica,sans-Serif" font-size="10.00">NukiConstants.h</text>
</a>
</g>
</g>
<!-- Node2&#45;&gt;Node4 -->
<g id="edge3_Node000002_Node000004" class="edge">
<title>Node2&#45;&gt;Node4</title>
<g id="a_edge3_Node000002_Node000004"><a xlink:title=" ">
<path fill="none" stroke="#63b8ff" d="M600.72,-229C696.96,-226.64 999.73,-216.74 1028.52,-185 1034.27,-178.66 1033.98,-172.33 1028.52,-165.75 962.76,-86.53 639.48,-70.15 508.14,-66.76"/>
<polygon fill="#63b8ff" stroke="#63b8ff" points="508.38,-63.26 498.3,-66.52 508.21,-70.26 508.38,-63.26"/>
</a>
</g>
</g>
<!-- Node7 -->
<g id="Node000007" class="node">
<title>Node7</title>
<g id="a_Node000007"><a xlink:href="_nuki_data_types_8h.html" target="_top" xlink:title=" ">
<polygon fill="white" stroke="#666666" points="497.64,-129.75 407.39,-129.75 407.39,-110.5 497.64,-110.5 497.64,-129.75"/>
<text text-anchor="middle" x="452.52" y="-116.25" font-family="Helvetica,sans-Serif" font-size="10.00">NukiDataTypes.h</text>
</a>
</g>
</g>
<!-- Node2&#45;&gt;Node7 -->
<g id="edge6_Node000002_Node000007" class="edge">
<title>Node2&#45;&gt;Node7</title>
<g id="a_edge6_Node000002_Node000007"><a xlink:title=" ">
<path fill="none" stroke="#63b8ff" d="M600.94,-230.37C674.83,-231.55 865.1,-230.05 904.52,-185 910.15,-178.56 910.26,-172.09 904.52,-165.75 891.41,-151.28 627.79,-132.47 509.32,-124.71"/>
<polygon fill="#63b8ff" stroke="#63b8ff" points="509.7,-121.23 499.49,-124.07 509.25,-128.22 509.7,-121.23"/>
</a>
</g>
</g>
<!-- Node8 -->
<g id="Node000008" class="node">
<title>Node8</title>
<g id="a_Node000008"><a xlink:title=" ">
<polygon fill="#e0e0e0" stroke="#999999" points="237.77,-74.5 181.27,-74.5 181.27,-55.25 237.77,-55.25 237.77,-74.5"/>
<text text-anchor="middle" x="209.52" y="-61" font-family="Helvetica,sans-Serif" font-size="10.00">Arduino.h</text>
</a>
</g>
</g>
<!-- Node2&#45;&gt;Node8 -->
<g id="edge9_Node000002_Node000008" class="edge">
<title>Node2&#45;&gt;Node8</title>
<g id="a_edge9_Node000002_Node000008"><a xlink:title=" ">
<path fill="none" stroke="#63b8ff" d="M542.28,-228.46C456.06,-224.73 207.35,-211.73 183.52,-185 176.93,-177.61 193.86,-117.39 203.45,-85.51"/>
<polygon fill="#63b8ff" stroke="#63b8ff" points="206.69,-86.88 206.26,-76.3 200,-84.84 206.69,-86.88"/>
</a>
</g>
</g>
<!-- Node9 -->
<g id="Node000009" class="node">
<title>Node9</title>
<g id="a_Node000009"><a xlink:title=" ">
<polygon fill="#e0e0e0" stroke="#999999" points="268.52,-185 192.52,-185 192.52,-165.75 268.52,-165.75 268.52,-185"/>
<text text-anchor="middle" x="230.52" y="-171.5" font-family="Helvetica,sans-Serif" font-size="10.00">Preferences.h</text>
</a>
</g>
</g>
<!-- Node2&#45;&gt;Node9 -->
<g id="edge10_Node000002_Node000009" class="edge">
<title>Node2&#45;&gt;Node9</title>
<g id="a_edge10_Node000002_Node000009"><a xlink:title=" ">
<path fill="none" stroke="#63b8ff" d="M542.26,-225.49C491.21,-218.21 382.28,-202.38 280.11,-185.39"/>
<polygon fill="#63b8ff" stroke="#63b8ff" points="280.91,-181.98 270.47,-183.78 279.76,-188.88 280.91,-181.98"/>
</a>
</g>
</g>
<!-- Node10 -->
<g id="Node000010" class="node">
<title>Node10</title>
<g id="a_Node000010"><a xlink:title=" ">
<polygon fill="#e0e0e0" stroke="#999999" points="370.64,-185 286.39,-185 286.39,-165.75 370.64,-165.75 370.64,-185"/>
<text text-anchor="middle" x="328.52" y="-171.5" font-family="Helvetica,sans-Serif" font-size="10.00">esp_task_wdt.h</text>
</a>
</g>
</g>
<!-- Node2&#45;&gt;Node10 -->
<g id="edge11_Node000002_Node000010" class="edge">
<title>Node2&#45;&gt;Node10</title>
<g id="a_edge11_Node000002_Node000010"><a xlink:title=" ">
<path fill="none" stroke="#63b8ff" d="M542.21,-223.2C502.39,-214.48 430.53,-198.73 381.22,-187.92"/>
<polygon fill="#63b8ff" stroke="#63b8ff" points="382.13,-184.54 371.61,-185.82 380.63,-191.38 382.13,-184.54"/>
</a>
</g>
</g>
<!-- Node11 -->
<g id="Node000011" class="node">
<title>Node11</title>
<g id="a_Node000011"><a xlink:title=" ">
<polygon fill="#e0e0e0" stroke="#999999" points="470.14,-185 388.89,-185 388.89,-165.75 470.14,-165.75 470.14,-185"/>
<text text-anchor="middle" x="429.52" y="-171.5" font-family="Helvetica,sans-Serif" font-size="10.00">BleInterfaces.h</text>
</a>
</g>
</g>
<!-- Node2&#45;&gt;Node11 -->
<g id="edge12_Node000002_Node000011" class="edge">
<title>Node2&#45;&gt;Node11</title>
<g id="a_edge12_Node000002_Node000011"><a xlink:title=" ">
<path fill="none" stroke="#63b8ff" d="M547.43,-220.59C524.58,-212.02 490,-199.06 464.19,-189.38"/>
<polygon fill="#63b8ff" stroke="#63b8ff" points="465.74,-186.22 455.14,-185.98 463.28,-192.77 465.74,-186.22"/>
</a>
</g>
</g>
<!-- Node12 -->
<g id="Node000012" class="node">
<title>Node12</title>
<g id="a_Node000012"><a xlink:title=" ">
<polygon fill="#e0e0e0" stroke="#999999" points="533.14,-185 487.89,-185 487.89,-165.75 533.14,-165.75 533.14,-185"/>
<text text-anchor="middle" x="510.52" y="-171.5" font-family="Helvetica,sans-Serif" font-size="10.00">atomic</text>
</a>
</g>
</g>
<!-- Node2&#45;&gt;Node12 -->
<g id="edge13_Node000002_Node000012" class="edge">
<title>Node2&#45;&gt;Node12</title>
<g id="a_edge13_Node000002_Node000012"><a xlink:title=" ">
<path fill="none" stroke="#63b8ff" d="M561.17,-220.59C552.44,-212.97 539.73,-201.87 529.22,-192.7"/>
<polygon fill="#63b8ff" stroke="#63b8ff" points="531.69,-190.21 521.85,-186.27 527.09,-195.48 531.69,-190.21"/>
</a>
</g>
</g>
<!-- Node13 -->
<g id="Node000013" class="node">
<title>Node13</title>
<g id="a_Node000013"><a xlink:title=" ">
<polygon fill="#e0e0e0" stroke="#999999" points="591.52,-185 551.52,-185 551.52,-165.75 591.52,-165.75 591.52,-185"/>
<text text-anchor="middle" x="571.52" y="-171.5" font-family="Helvetica,sans-Serif" font-size="10.00">string</text>
</a>
</g>
</g>
<!-- Node2&#45;&gt;Node13 -->
<g id="edge14_Node000002_Node000013" class="edge">
<title>Node2&#45;&gt;Node13</title>
<g id="a_edge14_Node000002_Node000013"><a xlink:title=" ">
<path fill="none" stroke="#63b8ff" d="M571.52,-220.83C571.52,-214.32 571.52,-205.17 571.52,-196.87"/>
<polygon fill="#63b8ff" stroke="#63b8ff" points="575.02,-196.87 571.52,-186.87 568.02,-196.87 575.02,-196.87"/>
</a>
</g>
</g>
<!-- Node14 -->
<g id="Node000014" class="node">
<title>Node14</title>
<g id="a_Node000014"><a xlink:title=" ">
<polygon fill="#e0e0e0" stroke="#999999" points="637.92,-185 609.12,-185 609.12,-165.75 637.92,-165.75 637.92,-185"/>
<text text-anchor="middle" x="623.52" y="-171.5" font-family="Helvetica,sans-Serif" font-size="10.00">list</text>
</a>
</g>
</g>
<!-- Node2&#45;&gt;Node14 -->
<g id="edge15_Node000002_Node000014" class="edge">
<title>Node2&#45;&gt;Node14</title>
<g id="a_edge15_Node000002_Node000014"><a xlink:title=" ">
<path fill="none" stroke="#63b8ff" d="M580.11,-220.83C587.36,-213.4 597.97,-202.54 606.88,-193.41"/>
<polygon fill="#63b8ff" stroke="#63b8ff" points="609.21,-196.04 613.69,-186.44 604.2,-191.15 609.21,-196.04"/>
</a>
</g>
</g>
<!-- Node15 -->
<g id="Node000015" class="node">
<title>Node15</title>
<g id="a_Node000015"><a xlink:title=" ">
<polygon fill="#e0e0e0" stroke="#999999" points="787.27,-185 655.77,-185 655.77,-165.75 787.27,-165.75 787.27,-185"/>
<text text-anchor="middle" x="721.52" y="-171.5" font-family="Helvetica,sans-Serif" font-size="10.00">sodium/crypto_secretbox.h</text>
</a>
</g>
</g>
<!-- Node2&#45;&gt;Node15 -->
<g id="edge16_Node000002_Node000015" class="edge">
<title>Node2&#45;&gt;Node15</title>
<g id="a_edge16_Node000002_Node000015"><a xlink:title=" ">
<path fill="none" stroke="#63b8ff" d="M596.97,-220.59C621.21,-211.99 657.95,-198.94 685.26,-189.25"/>
<polygon fill="#63b8ff" stroke="#63b8ff" points="686.27,-192.6 694.52,-185.96 683.93,-186.01 686.27,-192.6"/>
</a>
</g>
</g>
<!-- Node16 -->
<g id="Node000016" class="node">
<title>Node16</title>
<g id="a_Node000016"><a xlink:href="_nuki_ble_8hpp.html" target="_top" xlink:title=" ">
<polygon fill="white" stroke="#666666" points="1019.77,-185 951.27,-185 951.27,-165.75 1019.77,-165.75 1019.77,-185"/>
<text text-anchor="middle" x="985.52" y="-171.5" font-family="Helvetica,sans-Serif" font-size="10.00">NukiBle.hpp</text>
</a>
</g>
</g>
<!-- Node2&#45;&gt;Node16 -->
<g id="edge17_Node000002_Node000016" class="edge">
<title>Node2&#45;&gt;Node16</title>
<g id="a_edge17_Node000002_Node000016"><a xlink:title=" ">
<path fill="none" stroke="#63b8ff" d="M601.01,-226.6C663.31,-220.09 812.82,-203.79 937.52,-185 938.34,-184.88 939.16,-184.75 939.99,-184.62"/>
<polygon fill="#63b8ff" stroke="#63b8ff" points="940.15,-188.14 949.46,-183.07 939.02,-181.23 940.15,-188.14"/>
</a>
</g>
</g>
<!-- Node5 -->
<g id="Node000005" class="node">
<title>Node5</title>
<g id="a_Node000005"><a xlink:title=" ">
<polygon fill="#e0e0e0" stroke="#999999" points="475.14,-19.25 429.89,-19.25 429.89,0 475.14,0 475.14,-19.25"/>
<text text-anchor="middle" x="452.52" y="-5.75" font-family="Helvetica,sans-Serif" font-size="10.00">cstdint</text>
</a>
</g>
</g>
<!-- Node4&#45;&gt;Node5 -->
<g id="edge4_Node000004_Node000005" class="edge">
<title>Node4&#45;&gt;Node5</title>
<g id="a_edge4_Node000004_Node000005"><a xlink:title=" ">
<path fill="none" stroke="#63b8ff" d="M452.52,-55.08C452.52,-48.57 452.52,-39.42 452.52,-31.12"/>
<polygon fill="#63b8ff" stroke="#63b8ff" points="456.02,-31.12 452.52,-21.12 449.02,-31.12 456.02,-31.12"/>
</a>
</g>
</g>
<!-- Node6 -->
<g id="Node000006" class="node">
<title>Node6</title>
<g id="a_Node000006"><a xlink:title=" ">
<polygon fill="#e0e0e0" stroke="#999999" points="381.02,-19.25 296.02,-19.25 296.02,0 381.02,0 381.02,-19.25"/>
<text text-anchor="middle" x="338.52" y="-5.75" font-family="Helvetica,sans-Serif" font-size="10.00">NimBLEUUID.h</text>
</a>
</g>
</g>
<!-- Node4&#45;&gt;Node6 -->
<g id="edge5_Node000004_Node000006" class="edge">
<title>Node4&#45;&gt;Node6</title>
<g id="a_edge5_Node000004_Node000006"><a xlink:title=" ">
<path fill="none" stroke="#63b8ff" d="M433.18,-54.84C415.41,-46.54 388.8,-34.11 368.32,-24.54"/>
<polygon fill="#63b8ff" stroke="#63b8ff" points="369.87,-21.4 359.32,-20.34 366.9,-27.75 369.87,-21.4"/>
</a>
</g>
</g>
<!-- Node7&#45;&gt;Node4 -->
<g id="edge8_Node000007_Node000004" class="edge">
<title>Node7&#45;&gt;Node4</title>
<g id="a_edge8_Node000007_Node000004"><a xlink:title=" ">
<path fill="none" stroke="#63b8ff" d="M452.52,-110.33C452.52,-103.82 452.52,-94.67 452.52,-86.37"/>
<polygon fill="#63b8ff" stroke="#63b8ff" points="456.02,-86.37 452.52,-76.37 449.02,-86.37 456.02,-86.37"/>
</a>
</g>
</g>
<!-- Node7&#45;&gt;Node8 -->
<g id="edge7_Node000007_Node000008" class="edge">
<title>Node7&#45;&gt;Node8</title>
<g id="a_edge7_Node000007_Node000008"><a xlink:title=" ">
<path fill="none" stroke="#63b8ff" d="M411.02,-110.03C365.63,-100.08 293.43,-84.26 248.89,-74.5"/>
<polygon fill="#63b8ff" stroke="#63b8ff" points="249.92,-71.15 239.41,-72.42 248.43,-77.98 249.92,-71.15"/>
</a>
</g>
</g>
<!-- Node16&#45;&gt;Node4 -->
<g id="edge18_Node000016_Node000004" class="edge">
<title>Node16&#45;&gt;Node4</title>
<g id="a_edge18_Node000016_Node000004"><a xlink:title=" ">
<path fill="none" stroke="#63b8ff" d="M950.96,-167.34C860.84,-148.99 618.04,-99.57 508.04,-77.18"/>
<polygon fill="#63b8ff" stroke="#63b8ff" points="508.85,-73.77 498.35,-75.21 507.46,-80.63 508.85,-73.77"/>
</a>
</g>
</g>
<!-- Node16&#45;&gt;Node7 -->
<g id="edge19_Node000016_Node000007" class="edge">
<title>Node16&#45;&gt;Node7</title>
<g id="a_edge19_Node000016_Node000007"><a xlink:title=" ">
<path fill="none" stroke="#63b8ff" d="M950.97,-167.8C946.45,-167.05 941.88,-166.34 937.52,-165.75 783.4,-144.85 600.37,-130.95 509.54,-124.77"/>
<polygon fill="#63b8ff" stroke="#63b8ff" points="509.86,-121.29 499.65,-124.11 509.39,-128.27 509.86,-121.29"/>
</a>
</g>
</g>
<!-- Node17&#45;&gt;Node4 -->
<g id="edge22_Node000017_Node000004" class="edge">
<title>Node17&#45;&gt;Node4</title>
<g id="a_edge22_Node000017_Node000004"><a xlink:title=" ">
<path fill="none" stroke="#63b8ff" d="M181.82,-110.09C241.81,-100.29 337.02,-84.74 397.07,-74.93"/>
<polygon fill="#63b8ff" stroke="#63b8ff" points="397.42,-78.42 406.72,-73.36 396.29,-71.51 397.42,-78.42"/>
</a>
</g>
</g>
<!-- Node17&#45;&gt;Node6 -->
<g id="edge21_Node000017_Node000006" class="edge">
<title>Node17&#45;&gt;Node6</title>
<g id="a_edge21_Node000017_Node000006"><a xlink:title=" ">
<path fill="none" stroke="#63b8ff" d="M130.48,-110.2C137.12,-96.29 151.83,-69.54 172.52,-55.25 205.61,-32.39 249.86,-21.23 284.36,-15.79"/>
<polygon fill="#63b8ff" stroke="#63b8ff" points="284.76,-19.27 294.15,-14.37 283.75,-12.34 284.76,-19.27"/>
</a>
</g>
</g>
<!-- Node18&#45;&gt;Node7 -->
<g id="edge25_Node000018_Node000007" class="edge">
<title>Node18&#45;&gt;Node7</title>
<g id="a_edge25_Node000018_Node000007"><a xlink:title=" ">
<path fill="none" stroke="#63b8ff" d="M98.76,-168.57C170.88,-158.9 315.68,-139.48 395.86,-128.73"/>
<polygon fill="#63b8ff" stroke="#63b8ff" points="396.26,-132.2 405.7,-127.4 395.33,-125.27 396.26,-132.2"/>
</a>
</g>
</g>
<!-- Node18&#45;&gt;Node8 -->
<g id="edge24_Node000018_Node000008" class="edge">
<title>Node18&#45;&gt;Node8</title>
<g id="a_edge24_Node000018_Node000008"><a xlink:title=" ">
<path fill="none" stroke="#63b8ff" d="M39.1,-165.26C18.83,-152.85 -11.15,-129.95 4.52,-110.5 24.85,-85.27 115.97,-73.55 169.64,-68.75"/>
<polygon fill="#63b8ff" stroke="#63b8ff" points="169.63,-72.27 179.3,-67.93 169.04,-65.29 169.63,-72.27"/>
</a>
</g>
</g>
<!-- Node18&#45;&gt;Node17 -->
<g id="edge26_Node000018_Node000017" class="edge">
<title>Node18&#45;&gt;Node17</title>
<g id="a_edge26_Node000018_Node000017"><a xlink:title=" ">
<path fill="none" stroke="#63b8ff" d="M67.56,-165.34C77.93,-157.57 93.12,-146.17 105.49,-136.9"/>
<polygon fill="#63b8ff" stroke="#63b8ff" points="107.54,-139.73 113.44,-130.93 103.34,-134.13 107.54,-139.73"/>
</a>
</g>
</g>
<!-- Node19 -->
<g id="Node000019" class="node">
<title>Node19</title>
<g id="a_Node000019"><a xlink:title=" ">
<polygon fill="#e0e0e0" stroke="#999999" points="53.52,-129.75 13.52,-129.75 13.52,-110.5 53.52,-110.5 53.52,-129.75"/>
<text text-anchor="middle" x="33.52" y="-116.25" font-family="Helvetica,sans-Serif" font-size="10.00">bitset</text>
</a>
</g>
</g>
<!-- Node18&#45;&gt;Node19 -->
<g id="edge27_Node000018_Node000019" class="edge">
<title>Node18&#45;&gt;Node19</title>
<g id="a_edge27_Node000018_Node000019"><a xlink:title=" ">
<path fill="none" stroke="#63b8ff" d="M51.89,-165.58C49.1,-158.84 45.15,-149.27 41.62,-140.74"/>
<polygon fill="#63b8ff" stroke="#63b8ff" points="44.86,-139.41 37.81,-131.51 38.39,-142.09 44.86,-139.41"/>
</a>
</g>
</g>
</g>
</svg>

<g id="navigator" transform="translate(0 0)" fill="#404254">
  <rect fill="#f2f5e9" fill-opacity="0.5" stroke="#606060" stroke-width=".5" x="0" y="0" width="60" height="60"/>
  <use id="zoomplus" xlink:href="#zoomPlus" x="17" y="9" onmousedown="handleZoom(evt,'in')"/>
  <use id="zoomminus" xlink:href="#zoomMin" x="42" y="9" onmousedown="handleZoom(evt,'out')"/>
  <use id="reset" xlink:href="#resetDef" x="30" y="36" onmousedown="handleReset()"/>
   <use id="arrowup" xlink:href="#arrowUp" x="0" y="0" onmousedown="handlePan(0,-1)"/>
  <use id="arrowright" xlink:href="#arrowRight" x="0" y="0" onmousedown="handlePan(1,0)"/>
  <use id="arrowdown" xlink:href="#arrowDown" x="0" y="0" onmousedown="handlePan(0,1)"/>
  <use id="arrowleft" xlink:href="#arrowLeft" x="0" y="0" onmousedown="handlePan(-1,0)"/>
</g>
<svg viewBox="0 0 15 15" width="100%" height="30px" preserveAspectRatio="xMaxYMin meet">
 <g id="arrow_out" transform="scale(0.3 0.3)">
  <a xlink:href="_nuki_lock_8h__incl_org.svg" target="_base">
   <rect id="button" ry="5" rx="5" y="6" x="6" height="38" width="38"
        fill="#f2f5e9" fill-opacity="0.5" stroke="#606060" stroke-width="1.0"/>
   <path id="arrow"
     d="M 11.500037,31.436501 C 11.940474,20.09759 22.043105,11.32322 32.158766,21.979434 L 37.068811,17.246167 C 37.068811,17.246167 37.088388,32 37.088388,32 L 22.160133,31.978069 C 22.160133,31.978069 26.997745,27.140456 26.997745,27.140456 C 18.528582,18.264221 13.291696,25.230495 11.500037,31.436501 z"
     style="fill:#404040;"/>
  </a>
 </g>
</svg>

<style type='text/css'>
<![CDATA[
[data-mouse-over-selected='false'] { opacity: 0.7; }
[data-mouse-over-selected='true']  { opacity: 1.0; }
]]>
</style>
<script type="application/ecmascript"><![CDATA[
document.addEventListener('DOMContentLoaded', (event) => {
  highlightEdges();
  highlightAdjacentNodes();
});
]]></script>
</svg>
