<?xml version="1.0" encoding="UTF-8" standalone="no"?>
<!DOCTYPE svg PUBLIC "-//W3C//DTD SVG 1.1//EN"
 "http://www.w3.org/Graphics/SVG/1.1/DTD/svg11.dtd">
<!-- Generated by graphviz version 5.0.1 (20220820.1526)
 -->
<!-- Title: src/NukiLock.cpp Pages: 1 -->
<svg width="1071pt" height="371pt"
 viewBox="0.00 0.00 1070.84 371.00" xmlns="http://www.w3.org/2000/svg" xmlns:xlink="http://www.w3.org/1999/xlink">
<g id="graph0" class="graph" transform="scale(1 1) rotate(0) translate(4 367)">
<title>src/NukiLock.cpp</title>
<!-- Node1 -->
<g id="node1" class="node">
<title>Node1</title>
<g id="a_node1"><a xlink:title=" ">
<polygon fill="#999999" stroke="#666666" points="974.84,-363 866.84,-363 866.84,-342 974.84,-342 974.84,-363"/>
<text text-anchor="middle" x="920.84" y="-349.4" font-family="Helvetica,sans-Serif" font-size="12.00">src/NukiLock.cpp</text>
</a>
</g>
</g>
<!-- Node2 -->
<g id="node2" class="node">
<title>Node2</title>
<g id="a_node2"><a xlink:href="_nuki_lock_8h.html" target="_top" xlink:title=" ">
<polygon fill="white" stroke="#666666" points="579.34,-306 502.34,-306 502.34,-285 579.34,-285 579.34,-306"/>
<text text-anchor="middle" x="540.84" y="-292.4" font-family="Helvetica,sans-Serif" font-size="12.00">NukiLock.h</text>
</a>
</g>
</g>
<!-- Node1&#45;&gt;Node2 -->
<g id="edge1" class="edge">
<title>Node1&#45;&gt;Node2</title>
<path fill="none" stroke="#63b8ff" d="M866.8,-343.68C792.68,-332.95 660.6,-313.83 589.45,-303.54"/>
<polygon fill="#63b8ff" stroke="#63b8ff" points="589.81,-300.05 579.41,-302.08 588.8,-306.98 589.81,-300.05"/>
</g>
<!-- Node15 -->
<g id="node15" class="node">
<title>Node15</title>
<g id="a_node15"><a xlink:href="_nuki_utils_8h.html" target="_top" xlink:title=" ">
<polygon fill="white" stroke="#666666" points="1062.84,-192 988.84,-192 988.84,-171 1062.84,-171 1062.84,-192"/>
<text text-anchor="middle" x="1025.84" y="-178.4" font-family="Helvetica,sans-Serif" font-size="12.00">NukiUtils.h</text>
</a>
</g>
</g>
<!-- Node1&#45;&gt;Node15 -->
<g id="edge20" class="edge">
<title>Node1&#45;&gt;Node15</title>
<path fill="none" stroke="#63b8ff" d="M926.79,-341.93C943.67,-314.75 992.13,-236.76 1014.4,-200.92"/>
<polygon fill="#63b8ff" stroke="#63b8ff" points="1017.39,-202.73 1019.7,-192.39 1011.45,-199.03 1017.39,-202.73"/>
</g>
<!-- Node17 -->
<g id="node17" class="node">
<title>Node17</title>
<g id="a_node17"><a xlink:href="_nuki_lock_utils_8h.html" target="_top" xlink:title=" ">
<polygon fill="white" stroke="#666666" points="970.84,-192 870.84,-192 870.84,-171 970.84,-171 970.84,-192"/>
<text text-anchor="middle" x="920.84" y="-178.4" font-family="Helvetica,sans-Serif" font-size="12.00">NukiLockUtils.h</text>
</a>
</g>
</g>
<!-- Node1&#45;&gt;Node17 -->
<g id="edge25" class="edge">
<title>Node1&#45;&gt;Node17</title>
<path fill="none" stroke="#63b8ff" d="M920.84,-341.93C920.84,-315.21 920.84,-239.4 920.84,-202.79"/>
<polygon fill="#63b8ff" stroke="#63b8ff" points="924.34,-202.39 920.84,-192.39 917.34,-202.39 924.34,-202.39"/>
</g>
<!-- Node3 -->
<g id="node3" class="node">
<title>Node3</title>
<g id="a_node3"><a xlink:href="_nuki_ble_8h.html" target="_top" xlink:title=" ">
<polygon fill="white" stroke="#666666" points="574.84,-249 506.84,-249 506.84,-228 574.84,-228 574.84,-249"/>
<text text-anchor="middle" x="540.84" y="-235.4" font-family="Helvetica,sans-Serif" font-size="12.00">NukiBle.h</text>
</a>
</g>
</g>
<!-- Node2&#45;&gt;Node3 -->
<g id="edge2" class="edge">
<title>Node2&#45;&gt;Node3</title>
<path fill="none" stroke="#63b8ff" d="M540.84,-284.92C540.84,-277.91 540.84,-268.14 540.84,-259.47"/>
<polygon fill="#63b8ff" stroke="#63b8ff" points="544.34,-259.34 540.84,-249.34 537.34,-259.34 544.34,-259.34"/>
</g>
<!-- Node14 -->
<g id="node14" class="node">
<title>Node14</title>
<g id="a_node14"><a xlink:href="_nuki_lock_constants_8h.html" target="_top" xlink:title=" ">
<polygon fill="white" stroke="#666666" points="512.84,-135 382.84,-135 382.84,-114 512.84,-114 512.84,-135"/>
<text text-anchor="middle" x="447.84" y="-121.4" font-family="Helvetica,sans-Serif" font-size="12.00">NukiLockConstants.h</text>
</a>
</g>
</g>
<!-- Node2&#45;&gt;Node14 -->
<g id="edge17" class="edge">
<title>Node2&#45;&gt;Node14</title>
<path fill="none" stroke="#63b8ff" d="M502.16,-293.21C390.11,-288.57 69.26,-268.72 5.84,-192 -41.94,-134.2 234.4,-125.77 372.66,-125.11"/>
<polygon fill="#63b8ff" stroke="#63b8ff" points="372.79,-128.61 382.77,-125.07 372.76,-121.61 372.79,-128.61"/>
</g>
<!-- Node4 -->
<g id="node4" class="node">
<title>Node4</title>
<g id="a_node4"><a xlink:title=" ">
<polygon fill="#e0e0e0" stroke="#999999" points="676.34,-192 569.34,-192 569.34,-171 676.34,-171 676.34,-192"/>
<text text-anchor="middle" x="622.84" y="-178.4" font-family="Helvetica,sans-Serif" font-size="12.00">NimBLEDevice.h</text>
</a>
</g>
</g>
<!-- Node3&#45;&gt;Node4 -->
<g id="edge3" class="edge">
<title>Node3&#45;&gt;Node4</title>
<path fill="none" stroke="#63b8ff" d="M555.12,-227.92C567.51,-219.61 585.66,-207.44 600.06,-197.78"/>
<polygon fill="#63b8ff" stroke="#63b8ff" points="602.09,-200.63 608.45,-192.16 598.19,-194.82 602.09,-200.63"/>
</g>
<!-- Node5 -->
<g id="node5" class="node">
<title>Node5</title>
<g id="a_node5"><a xlink:href="_nuki_constants_8h.html" target="_top" xlink:title=" ">
<polygon fill="white" stroke="#666666" points="635.84,-78 531.84,-78 531.84,-57 635.84,-57 635.84,-78"/>
<text text-anchor="middle" x="583.84" y="-64.4" font-family="Helvetica,sans-Serif" font-size="12.00">NukiConstants.h</text>
</a>
</g>
</g>
<!-- Node3&#45;&gt;Node5 -->
<g id="edge4" class="edge">
<title>Node3&#45;&gt;Node5</title>
<path fill="none" stroke="#63b8ff" d="M543.28,-227.93C550.1,-201.1 569.53,-124.74 578.8,-88.31"/>
<polygon fill="#63b8ff" stroke="#63b8ff" points="582.25,-88.94 581.32,-78.39 575.47,-87.21 582.25,-88.94"/>
</g>
<!-- Node7 -->
<g id="node7" class="node">
<title>Node7</title>
<g id="a_node7"><a xlink:href="_nuki_data_types_8h.html" target="_top" xlink:title=" ">
<polygon fill="white" stroke="#666666" points="814.34,-135 705.34,-135 705.34,-114 814.34,-114 814.34,-135"/>
<text text-anchor="middle" x="759.84" y="-121.4" font-family="Helvetica,sans-Serif" font-size="12.00">NukiDataTypes.h</text>
</a>
</g>
</g>
<!-- Node3&#45;&gt;Node7 -->
<g id="edge6" class="edge">
<title>Node3&#45;&gt;Node7</title>
<path fill="none" stroke="#63b8ff" d="M575.1,-236.33C636.05,-233.46 759.43,-223.77 785.84,-192 797.76,-177.66 786.69,-157.2 775.53,-142.77"/>
<polygon fill="#63b8ff" stroke="#63b8ff" points="778.21,-140.52 769.13,-135.07 772.83,-144.99 778.21,-140.52"/>
</g>
<!-- Node8 -->
<g id="node8" class="node">
<title>Node8</title>
<g id="a_node8"><a xlink:title=" ">
<polygon fill="#e0e0e0" stroke="#999999" points="896.84,-78 828.84,-78 828.84,-57 896.84,-57 896.84,-78"/>
<text text-anchor="middle" x="862.84" y="-64.4" font-family="Helvetica,sans-Serif" font-size="12.00">Arduino.h</text>
</a>
</g>
</g>
<!-- Node3&#45;&gt;Node8 -->
<g id="edge9" class="edge">
<title>Node3&#45;&gt;Node8</title>
<path fill="none" stroke="#63b8ff" d="M575.14,-235.39C637.76,-230.92 767.43,-218.65 802.84,-192 836.99,-166.3 852.73,-116.02 859.11,-88.19"/>
<polygon fill="#63b8ff" stroke="#63b8ff" points="862.6,-88.6 861.23,-78.1 855.75,-87.16 862.6,-88.6"/>
</g>
<!-- Node9 -->
<g id="node9" class="node">
<title>Node9</title>
<g id="a_node9"><a xlink:title=" ">
<polygon fill="#e0e0e0" stroke="#999999" points="104.84,-192 14.84,-192 14.84,-171 104.84,-171 104.84,-192"/>
<text text-anchor="middle" x="59.84" y="-178.4" font-family="Helvetica,sans-Serif" font-size="12.00">Preferences.h</text>
</a>
</g>
</g>
<!-- Node3&#45;&gt;Node9 -->
<g id="edge10" class="edge">
<title>Node3&#45;&gt;Node9</title>
<path fill="none" stroke="#63b8ff" d="M506.7,-234.66C435.73,-228.57 266.91,-213.22 114.87,-192.06"/>
<polygon fill="#63b8ff" stroke="#63b8ff" points="115.27,-188.58 104.89,-190.66 114.3,-195.52 115.27,-188.58"/>
</g>
<!-- Node10 -->
<g id="node10" class="node">
<title>Node10</title>
<g id="a_node10"><a xlink:title=" ">
<polygon fill="#e0e0e0" stroke="#999999" points="222.84,-192 122.84,-192 122.84,-171 222.84,-171 222.84,-192"/>
<text text-anchor="middle" x="172.84" y="-178.4" font-family="Helvetica,sans-Serif" font-size="12.00">esp_task_wdt.h</text>
</a>
</g>
</g>
<!-- Node3&#45;&gt;Node10 -->
<g id="edge11" class="edge">
<title>Node3&#45;&gt;Node10</title>
<path fill="none" stroke="#63b8ff" d="M506.52,-232.6C451.25,-224.68 338.83,-208.42 233.24,-192.2"/>
<polygon fill="#63b8ff" stroke="#63b8ff" points="233.46,-188.69 223.05,-190.63 232.4,-195.61 233.46,-188.69"/>
</g>
<!-- Node11 -->
<g id="node11" class="node">
<title>Node11</title>
<g id="a_node11"><a xlink:title=" ">
<polygon fill="#e0e0e0" stroke="#999999" points="336.34,-192 241.34,-192 241.34,-171 336.34,-171 336.34,-192"/>
<text text-anchor="middle" x="288.84" y="-178.4" font-family="Helvetica,sans-Serif" font-size="12.00">BleInterfaces.h</text>
</a>
</g>
</g>
<!-- Node3&#45;&gt;Node11 -->
<g id="edge12" class="edge">
<title>Node3&#45;&gt;Node11</title>
<path fill="none" stroke="#63b8ff" d="M506.59,-230.03C464.42,-220.82 392.28,-205.08 342.67,-194.25"/>
<polygon fill="#63b8ff" stroke="#63b8ff" points="343.27,-190.8 332.76,-192.08 341.78,-197.64 343.27,-190.8"/>
</g>
<!-- Node12 -->
<g id="node12" class="node">
<title>Node12</title>
<g id="a_node12"><a xlink:title=" ">
<polygon fill="#e0e0e0" stroke="#999999" points="513.34,-192 354.34,-192 354.34,-171 513.34,-171 513.34,-192"/>
<text text-anchor="middle" x="433.84" y="-178.4" font-family="Helvetica,sans-Serif" font-size="12.00">sodium/crypto_secretbox.h</text>
</a>
</g>
</g>
<!-- Node3&#45;&gt;Node12 -->
<g id="edge13" class="edge">
<title>Node3&#45;&gt;Node12</title>
<path fill="none" stroke="#63b8ff" d="M522.2,-227.92C505.5,-219.34 480.78,-206.63 461.73,-196.84"/>
<polygon fill="#63b8ff" stroke="#63b8ff" points="463.12,-193.61 452.62,-192.16 459.92,-199.84 463.12,-193.61"/>
</g>
<!-- Node13 -->
<g id="node13" class="node">
<title>Node13</title>
<g id="a_node13"><a xlink:href="_nuki_ble_8hpp.html" target="_top" xlink:title=" ">
<polygon fill="white" stroke="#666666" points="776.84,-192 694.84,-192 694.84,-171 776.84,-171 776.84,-192"/>
<text text-anchor="middle" x="735.84" y="-178.4" font-family="Helvetica,sans-Serif" font-size="12.00">NukiBle.hpp</text>
</a>
</g>
</g>
<!-- Node3&#45;&gt;Node13 -->
<g id="edge14" class="edge">
<title>Node3&#45;&gt;Node13</title>
<path fill="none" stroke="#63b8ff" d="M574.81,-227.92C607.28,-218.76 656.42,-204.9 691.87,-194.9"/>
<polygon fill="#63b8ff" stroke="#63b8ff" points="693.26,-198.15 701.94,-192.06 691.36,-191.41 693.26,-198.15"/>
</g>
<!-- Node6 -->
<g id="node6" class="node">
<title>Node6</title>
<g id="a_node6"><a xlink:title=" ">
<polygon fill="#e0e0e0" stroke="#999999" points="587.84,-21 487.84,-21 487.84,0 587.84,0 587.84,-21"/>
<text text-anchor="middle" x="537.84" y="-7.4" font-family="Helvetica,sans-Serif" font-size="12.00">NimBLEUUID.h</text>
</a>
</g>
</g>
<!-- Node5&#45;&gt;Node6 -->
<g id="edge5" class="edge">
<title>Node5&#45;&gt;Node6</title>
<path fill="none" stroke="#63b8ff" d="M575.83,-56.92C569.44,-49.29 560.33,-38.39 552.63,-29.18"/>
<polygon fill="#63b8ff" stroke="#63b8ff" points="555.17,-26.77 546.07,-21.34 549.8,-31.26 555.17,-26.77"/>
</g>
<!-- Node7&#45;&gt;Node5 -->
<g id="edge8" class="edge">
<title>Node7&#45;&gt;Node5</title>
<path fill="none" stroke="#63b8ff" d="M729.18,-113.92C700.12,-104.84 656.29,-91.14 624.36,-81.16"/>
<polygon fill="#63b8ff" stroke="#63b8ff" points="625.03,-77.7 614.44,-78.06 622.94,-84.39 625.03,-77.7"/>
</g>
<!-- Node7&#45;&gt;Node8 -->
<g id="edge7" class="edge">
<title>Node7&#45;&gt;Node8</title>
<path fill="none" stroke="#63b8ff" d="M777.78,-113.92C793.78,-105.38 817.44,-92.74 835.74,-82.97"/>
<polygon fill="#63b8ff" stroke="#63b8ff" points="837.59,-85.95 844.76,-78.16 834.29,-79.78 837.59,-85.95"/>
</g>
<!-- Node13&#45;&gt;Node5 -->
<g id="edge15" class="edge">
<title>Node13&#45;&gt;Node5</title>
<path fill="none" stroke="#63b8ff" d="M722.88,-170.95C696.63,-151.61 636.97,-107.65 605,-84.09"/>
<polygon fill="#63b8ff" stroke="#63b8ff" points="606.89,-81.14 596.77,-78.02 602.74,-86.77 606.89,-81.14"/>
</g>
<!-- Node13&#45;&gt;Node7 -->
<g id="edge16" class="edge">
<title>Node13&#45;&gt;Node7</title>
<path fill="none" stroke="#63b8ff" d="M740.02,-170.92C743.18,-163.67 747.63,-153.49 751.51,-144.6"/>
<polygon fill="#63b8ff" stroke="#63b8ff" points="754.75,-145.91 755.55,-135.34 748.34,-143.11 754.75,-145.91"/>
</g>
<!-- Node14&#45;&gt;Node5 -->
<g id="edge19" class="edge">
<title>Node14&#45;&gt;Node5</title>
<path fill="none" stroke="#63b8ff" d="M471.53,-113.92C493.43,-105.06 526.2,-91.81 550.69,-81.91"/>
<polygon fill="#63b8ff" stroke="#63b8ff" points="552.01,-85.15 559.97,-78.16 549.38,-78.66 552.01,-85.15"/>
</g>
<!-- Node14&#45;&gt;Node6 -->
<g id="edge18" class="edge">
<title>Node14&#45;&gt;Node6</title>
<path fill="none" stroke="#63b8ff" d="M455.51,-113.95C470.66,-95.11 504.58,-52.88 523.82,-28.94"/>
<polygon fill="#63b8ff" stroke="#63b8ff" points="526.65,-31.01 530.19,-21.02 521.19,-26.63 526.65,-31.01"/>
</g>
<!-- Node15&#45;&gt;Node5 -->
<g id="edge23" class="edge">
<title>Node15&#45;&gt;Node5</title>
<path fill="none" stroke="#63b8ff" d="M1020.3,-170.8C1011.13,-155.75 991.25,-127.15 965.84,-114 911.6,-85.92 739.89,-74.74 646.24,-70.64"/>
<polygon fill="#63b8ff" stroke="#63b8ff" points="646.18,-67.14 636.04,-70.21 645.89,-74.13 646.18,-67.14"/>
</g>
<!-- Node15&#45;&gt;Node7 -->
<g id="edge22" class="edge">
<title>Node15&#45;&gt;Node7</title>
<path fill="none" stroke="#63b8ff" d="M988.57,-172.79C943.8,-163.54 868.24,-147.91 816.3,-137.17"/>
<polygon fill="#63b8ff" stroke="#63b8ff" points="816.74,-133.69 806.24,-135.09 815.32,-140.55 816.74,-133.69"/>
</g>
<!-- Node15&#45;&gt;Node8 -->
<g id="edge21" class="edge">
<title>Node15&#45;&gt;Node8</title>
<path fill="none" stroke="#63b8ff" d="M1024.84,-170.94C1022.84,-156.6 1017.04,-129.54 1000.84,-114 975.52,-89.7 936.98,-78.38 907.05,-73.1"/>
<polygon fill="#63b8ff" stroke="#63b8ff" points="907.29,-69.59 896.86,-71.47 906.18,-76.5 907.29,-69.59"/>
</g>
<!-- Node16 -->
<g id="node16" class="node">
<title>Node16</title>
<g id="a_node16"><a xlink:title=" ">
<polygon fill="#e0e0e0" stroke="#999999" points="957.34,-135 912.34,-135 912.34,-114 957.34,-114 957.34,-135"/>
<text text-anchor="middle" x="934.84" y="-121.4" font-family="Helvetica,sans-Serif" font-size="12.00">bitset</text>
</a>
</g>
</g>
<!-- Node15&#45;&gt;Node16 -->
<g id="edge24" class="edge">
<title>Node15&#45;&gt;Node16</title>
<path fill="none" stroke="#63b8ff" d="M1009.99,-170.92C996.11,-162.53 975.72,-150.21 959.68,-140.51"/>
<polygon fill="#63b8ff" stroke="#63b8ff" points="961.18,-137.33 950.82,-135.16 957.56,-143.32 961.18,-137.33"/>
</g>
<!-- Node17&#45;&gt;Node7 -->
<g id="edge27" class="edge">
<title>Node17&#45;&gt;Node7</title>
<path fill="none" stroke="#63b8ff" d="M892.8,-170.92C866.44,-161.92 826.81,-148.38 797.66,-138.42"/>
<polygon fill="#63b8ff" stroke="#63b8ff" points="798.43,-134.98 787.83,-135.06 796.16,-141.61 798.43,-134.98"/>
</g>
<!-- Node17&#45;&gt;Node8 -->
<g id="edge26" class="edge">
<title>Node17&#45;&gt;Node8</title>
<path fill="none" stroke="#63b8ff" d="M915.9,-170.95C906.31,-152.44 885.04,-111.36 872.53,-87.22"/>
<polygon fill="#63b8ff" stroke="#63b8ff" points="875.48,-85.3 867.77,-78.02 869.26,-88.51 875.48,-85.3"/>
</g>
<!-- Node17&#45;&gt;Node14 -->
<g id="edge28" class="edge">
<title>Node17&#45;&gt;Node14</title>
<path fill="none" stroke="#63b8ff" d="M870.67,-174.67C787.43,-164.99 620.32,-145.56 522.96,-134.23"/>
<polygon fill="#63b8ff" stroke="#63b8ff" points="523.23,-130.74 512.89,-133.06 522.42,-137.7 523.23,-130.74"/>
</g>
<!-- Node17&#45;&gt;Node16 -->
<g id="edge29" class="edge">
<title>Node17&#45;&gt;Node16</title>
<path fill="none" stroke="#63b8ff" d="M923.28,-170.92C925.08,-163.83 927.6,-153.93 929.83,-145.18"/>
<polygon fill="#63b8ff" stroke="#63b8ff" points="933.26,-145.9 932.34,-135.34 926.48,-144.17 933.26,-145.9"/>
</g>
</g>
</svg>
