<?xml version="1.0" encoding="UTF-8" standalone="no"?>
<!DOCTYPE svg PUBLIC "-//W3C//DTD SVG 1.1//EN"
 "http://www.w3.org/Graphics/SVG/1.1/DTD/svg11.dtd">
<!-- Generated by graphviz version 12.2.1 (20241206.2353)
 -->
<!-- Title: src/NukiDataTypes.h Pages: 1 -->
<svg width="680pt" height="248pt"
 viewBox="0.00 0.00 679.75 248.25" xmlns="http://www.w3.org/2000/svg" xmlns:xlink="http://www.w3.org/1999/xlink">
<g id="graph0" class="graph" transform="scale(1 1) rotate(0) translate(4 244.25)">
<title>src/NukiDataTypes.h</title>
<!-- Node1 -->
<g id="Node000001" class="node">
<title>Node1</title>
<g id="a_Node000001"><a xlink:title=" ">
<polygon fill="#999999" stroke="#666666" points="450.75,-240.25 344,-240.25 344,-221 450.75,-221 450.75,-240.25"/>
<text text-anchor="middle" x="397.38" y="-226.75" font-family="Helvetica,sans-Serif" font-size="10.00">src/NukiDataTypes.h</text>
</a>
</g>
</g>
<!-- Node2 -->
<g id="Node000002" class="node">
<title>Node2</title>
<g id="a_Node000002"><a xlink:href="_nuki_ble_8h.html" target="_top" xlink:title=" ">
<polygon fill="white" stroke="#666666" points="363.62,-129.75 289.12,-129.75 289.12,-110.5 363.62,-110.5 363.62,-129.75"/>
<text text-anchor="middle" x="326.38" y="-116.25" font-family="Helvetica,sans-Serif" font-size="10.00">src/NukiBle.h</text>
</a>
</g>
</g>
<!-- Node1&#45;&gt;Node2 -->
<g id="edge1_Node000001_Node000002" class="edge">
<title>Node1&#45;&gt;Node2</title>
<g id="a_edge1_Node000001_Node000002"><a xlink:title=" ">
<path fill="none" stroke="#63b8ff" d="M394.43,-209.5C391.79,-196.26 386.96,-178.99 378.38,-165.75 368.67,-150.78 352.48,-138.03 340.74,-130.04"/>
<polygon fill="#63b8ff" stroke="#63b8ff" points="390.96,-209.94 396.09,-219.21 397.86,-208.76 390.96,-209.94"/>
</a>
</g>
</g>
<!-- Node8 -->
<g id="Node000008" class="node">
<title>Node8</title>
<g id="a_Node000008"><a xlink:href="_nuki_ble_8hpp.html" target="_top" xlink:title=" ">
<polygon fill="white" stroke="#666666" points="368.88,-185 283.88,-185 283.88,-165.75 368.88,-165.75 368.88,-185"/>
<text text-anchor="middle" x="326.38" y="-171.5" font-family="Helvetica,sans-Serif" font-size="10.00">src/NukiBle.hpp</text>
</a>
</g>
</g>
<!-- Node1&#45;&gt;Node8 -->
<g id="edge7_Node000001_Node000008" class="edge">
<title>Node1&#45;&gt;Node8</title>
<g id="a_edge7_Node000001_Node000008"><a xlink:title=" ">
<path fill="none" stroke="#63b8ff" d="M376.13,-213.69C363.73,-204.39 348.55,-193.01 338.24,-185.27"/>
<polygon fill="#63b8ff" stroke="#63b8ff" points="374.02,-216.48 384.12,-219.68 378.22,-210.88 374.02,-216.48"/>
</a>
</g>
</g>
<!-- Node9 -->
<g id="Node000009" class="node">
<title>Node9</title>
<g id="a_Node000009"><a xlink:href="_nuki_lock_utils_8h.html" target="_top" xlink:title=" ">
<polygon fill="white" stroke="#666666" points="260.5,-129.75 158.25,-129.75 158.25,-110.5 260.5,-110.5 260.5,-129.75"/>
<text text-anchor="middle" x="209.38" y="-116.25" font-family="Helvetica,sans-Serif" font-size="10.00">src/NukiLockUtils.h</text>
</a>
</g>
</g>
<!-- Node1&#45;&gt;Node9 -->
<g id="edge9_Node000001_Node000009" class="edge">
<title>Node1&#45;&gt;Node9</title>
<g id="a_edge9_Node000001_Node000009"><a xlink:title=" ">
<path fill="none" stroke="#63b8ff" d="M349.82,-217.31C326.34,-210 298.22,-199.32 275.38,-185 250.78,-169.59 227.8,-143.81 216.57,-130.19"/>
<polygon fill="#63b8ff" stroke="#63b8ff" points="348.56,-220.59 359.14,-220.1 350.56,-213.88 348.56,-220.59"/>
</a>
</g>
</g>
<!-- Node11 -->
<g id="Node000011" class="node">
<title>Node11</title>
<g id="a_Node000011"><a xlink:href="_nuki_opener_utils_8h.html" target="_top" xlink:title=" ">
<polygon fill="white" stroke="#666666" points="644.38,-185 532.38,-185 532.38,-165.75 644.38,-165.75 644.38,-185"/>
<text text-anchor="middle" x="588.38" y="-171.5" font-family="Helvetica,sans-Serif" font-size="10.00">src/NukiOpenerUtils.h</text>
</a>
</g>
</g>
<!-- Node1&#45;&gt;Node11 -->
<g id="edge14_Node000001_Node000011" class="edge">
<title>Node1&#45;&gt;Node11</title>
<g id="a_edge14_Node000001_Node000011"><a xlink:title=" ">
<path fill="none" stroke="#63b8ff" d="M440.62,-217.57C475.59,-207.82 524.07,-194.3 555.82,-185.45"/>
<polygon fill="#63b8ff" stroke="#63b8ff" points="439.93,-214.13 431.23,-220.19 441.81,-220.87 439.93,-214.13"/>
</a>
</g>
</g>
<!-- Node13 -->
<g id="Node000013" class="node">
<title>Node13</title>
<g id="a_Node000013"><a xlink:href="_nuki_utils_8h.html" target="_top" xlink:title=" ">
<polygon fill="white" stroke="#666666" points="508.62,-129.75 428.12,-129.75 428.12,-110.5 508.62,-110.5 508.62,-129.75"/>
<text text-anchor="middle" x="468.38" y="-116.25" font-family="Helvetica,sans-Serif" font-size="10.00">src/NukiUtils.h</text>
</a>
</g>
</g>
<!-- Node1&#45;&gt;Node13 -->
<g id="edge17_Node000001_Node000013" class="edge">
<title>Node1&#45;&gt;Node13</title>
<g id="a_edge17_Node000001_Node000013"><a xlink:title=" ">
<path fill="none" stroke="#63b8ff" d="M409.42,-211.22C424.82,-187.69 450.87,-147.87 462.48,-130.13"/>
<polygon fill="#63b8ff" stroke="#63b8ff" points="406.56,-209.2 404.01,-219.48 412.42,-213.03 406.56,-209.2"/>
</a>
</g>
</g>
<!-- Node3 -->
<g id="Node000003" class="node">
<title>Node3</title>
<g id="a_Node000003"><a xlink:href="_nuki_ble_8cpp.html" target="_top" xlink:title=" ">
<polygon fill="white" stroke="#666666" points="462.88,-74.5 377.88,-74.5 377.88,-55.25 462.88,-55.25 462.88,-74.5"/>
<text text-anchor="middle" x="420.38" y="-61" font-family="Helvetica,sans-Serif" font-size="10.00">src/NukiBle.cpp</text>
</a>
</g>
</g>
<!-- Node2&#45;&gt;Node3 -->
<g id="edge2_Node000002_Node000003" class="edge">
<title>Node2&#45;&gt;Node3</title>
<g id="a_edge2_Node000002_Node000003"><a xlink:title=" ">
<path fill="none" stroke="#63b8ff" d="M352.03,-104.59C368.74,-95.13 390.01,-83.08 404.35,-74.95"/>
<polygon fill="#63b8ff" stroke="#63b8ff" points="350.61,-101.37 343.64,-109.35 354.06,-107.46 350.61,-101.37"/>
</a>
</g>
</g>
<!-- Node4 -->
<g id="Node000004" class="node">
<title>Node4</title>
<g id="a_Node000004"><a xlink:href="_nuki_lock_8h.html" target="_top" xlink:title=" ">
<polygon fill="white" stroke="#666666" points="250.38,-74.5 168.38,-74.5 168.38,-55.25 250.38,-55.25 250.38,-74.5"/>
<text text-anchor="middle" x="209.38" y="-61" font-family="Helvetica,sans-Serif" font-size="10.00">src/NukiLock.h</text>
</a>
</g>
</g>
<!-- Node2&#45;&gt;Node4 -->
<g id="edge3_Node000002_Node000004" class="edge">
<title>Node2&#45;&gt;Node4</title>
<g id="a_edge3_Node000002_Node000004"><a xlink:title=" ">
<path fill="none" stroke="#63b8ff" d="M296.19,-105.39C275.15,-95.81 247.67,-83.31 229.32,-74.95"/>
<polygon fill="#63b8ff" stroke="#63b8ff" points="294.6,-108.51 305.15,-109.46 297.5,-102.14 294.6,-108.51"/>
</a>
</g>
</g>
<!-- Node6 -->
<g id="Node000006" class="node">
<title>Node6</title>
<g id="a_Node000006"><a xlink:href="_nuki_opener_8h.html" target="_top" xlink:title=" ">
<polygon fill="white" stroke="#666666" points="360.25,-74.5 268.5,-74.5 268.5,-55.25 360.25,-55.25 360.25,-74.5"/>
<text text-anchor="middle" x="314.38" y="-61" font-family="Helvetica,sans-Serif" font-size="10.00">src/NukiOpener.h</text>
</a>
</g>
</g>
<!-- Node2&#45;&gt;Node6 -->
<g id="edge5_Node000002_Node000006" class="edge">
<title>Node2&#45;&gt;Node6</title>
<g id="a_edge5_Node000002_Node000006"><a xlink:title=" ">
<path fill="none" stroke="#63b8ff" d="M321.88,-99.17C319.99,-90.8 317.9,-81.5 316.4,-74.86"/>
<polygon fill="#63b8ff" stroke="#63b8ff" points="318.45,-99.87 324.06,-108.86 325.28,-98.33 318.45,-99.87"/>
</a>
</g>
</g>
<!-- Node5 -->
<g id="Node000005" class="node">
<title>Node5</title>
<g id="a_Node000005"><a xlink:href="_nuki_lock_8cpp.html" target="_top" xlink:title=" ">
<polygon fill="white" stroke="#666666" points="255.62,-19.25 163.12,-19.25 163.12,0 255.62,0 255.62,-19.25"/>
<text text-anchor="middle" x="209.38" y="-5.75" font-family="Helvetica,sans-Serif" font-size="10.00">src/NukiLock.cpp</text>
</a>
</g>
</g>
<!-- Node4&#45;&gt;Node5 -->
<g id="edge4_Node000004_Node000005" class="edge">
<title>Node4&#45;&gt;Node5</title>
<g id="a_edge4_Node000004_Node000005"><a xlink:title=" ">
<path fill="none" stroke="#63b8ff" d="M209.38,-43.63C209.38,-35.34 209.38,-26.17 209.38,-19.61"/>
<polygon fill="#63b8ff" stroke="#63b8ff" points="205.88,-43.57 209.38,-53.57 212.88,-43.57 205.88,-43.57"/>
</a>
</g>
</g>
<!-- Node7 -->
<g id="Node000007" class="node">
<title>Node7</title>
<g id="a_Node000007"><a xlink:href="_nuki_opener_8cpp.html" target="_top" xlink:title=" ">
<polygon fill="white" stroke="#666666" points="580.5,-19.25 478.25,-19.25 478.25,0 580.5,0 580.5,-19.25"/>
<text text-anchor="middle" x="529.38" y="-5.75" font-family="Helvetica,sans-Serif" font-size="10.00">src/NukiOpener.cpp</text>
</a>
</g>
</g>
<!-- Node6&#45;&gt;Node7 -->
<g id="edge6_Node000006_Node000007" class="edge">
<title>Node6&#45;&gt;Node7</title>
<g id="a_edge6_Node000006_Node000007"><a xlink:title=" ">
<path fill="none" stroke="#63b8ff" d="M361.78,-52.13C401.23,-42.36 456.6,-28.65 492.72,-19.7"/>
<polygon fill="#63b8ff" stroke="#63b8ff" points="361.18,-48.68 352.32,-54.48 362.86,-55.47 361.18,-48.68"/>
</a>
</g>
</g>
<!-- Node8&#45;&gt;Node2 -->
<g id="edge8_Node000008_Node000002" class="edge">
<title>Node8&#45;&gt;Node2</title>
<g id="a_edge8_Node000008_Node000002"><a xlink:title=" ">
<path fill="none" stroke="#63b8ff" d="M326.38,-154.13C326.38,-145.84 326.38,-136.67 326.38,-130.11"/>
<polygon fill="#63b8ff" stroke="#63b8ff" points="322.88,-154.07 326.38,-164.07 329.88,-154.07 322.88,-154.07"/>
</a>
</g>
</g>
<!-- Node9&#45;&gt;Node3 -->
<g id="edge10_Node000009_Node000003" class="edge">
<title>Node9&#45;&gt;Node3</title>
<g id="a_edge10_Node000009_Node000003"><a xlink:title=" ">
<path fill="none" stroke="#63b8ff" d="M256.14,-107.32C294.85,-97.55 349.03,-83.88 384.41,-74.95"/>
<polygon fill="#63b8ff" stroke="#63b8ff" points="255.48,-103.88 246.64,-109.72 257.19,-110.67 255.48,-103.88"/>
</a>
</g>
</g>
<!-- Node9&#45;&gt;Node4 -->
<g id="edge12_Node000009_Node000004" class="edge">
<title>Node9&#45;&gt;Node4</title>
<g id="a_edge12_Node000009_Node000004"><a xlink:title=" ">
<path fill="none" stroke="#63b8ff" d="M209.38,-98.88C209.38,-90.59 209.38,-81.42 209.38,-74.86"/>
<polygon fill="#63b8ff" stroke="#63b8ff" points="205.88,-98.82 209.38,-108.82 212.88,-98.82 205.88,-98.82"/>
</a>
</g>
</g>
<!-- Node9&#45;&gt;Node5 -->
<g id="edge11_Node000009_Node000005" class="edge">
<title>Node9&#45;&gt;Node5</title>
<g id="a_edge11_Node000009_Node000005"><a xlink:title=" ">
<path fill="none" stroke="#63b8ff" d="M184.11,-103.43C174.48,-95.97 164.58,-86.13 159.38,-74.5 149.47,-52.39 175.45,-31.16 193.56,-19.6"/>
<polygon fill="#63b8ff" stroke="#63b8ff" points="182.05,-106.26 192.23,-109.2 186.1,-100.55 182.05,-106.26"/>
</a>
</g>
</g>
<!-- Node10 -->
<g id="Node000010" class="node">
<title>Node10</title>
<g id="a_Node000010"><a xlink:href="_nuki_lock_utils_8cpp.html" target="_top" xlink:title=" ">
<polygon fill="white" stroke="#666666" points="112.75,-74.5 0,-74.5 0,-55.25 112.75,-55.25 112.75,-74.5"/>
<text text-anchor="middle" x="56.38" y="-61" font-family="Helvetica,sans-Serif" font-size="10.00">src/NukiLockUtils.cpp</text>
</a>
</g>
</g>
<!-- Node9&#45;&gt;Node10 -->
<g id="edge13_Node000009_Node000010" class="edge">
<title>Node9&#45;&gt;Node10</title>
<g id="a_edge13_Node000009_Node000010"><a xlink:title=" ">
<path fill="none" stroke="#63b8ff" d="M172.9,-106.43C145.05,-96.74 107.34,-83.61 82.46,-74.95"/>
<polygon fill="#63b8ff" stroke="#63b8ff" points="171.4,-109.61 181.99,-109.59 173.7,-103 171.4,-109.61"/>
</a>
</g>
</g>
<!-- Node11&#45;&gt;Node7 -->
<g id="edge15_Node000011_Node000007" class="edge">
<title>Node11&#45;&gt;Node7</title>
<g id="a_edge15_Node000011_Node000007"><a xlink:title=" ">
<path fill="none" stroke="#63b8ff" d="M624.55,-160.27C637.63,-153.2 650.99,-143.21 658.38,-129.75 674.3,-100.72 677.58,-82.22 658.38,-55.25 640.78,-30.54 608.53,-19.39 580.68,-14.41"/>
<polygon fill="#63b8ff" stroke="#63b8ff" points="623.03,-157.11 615.6,-164.66 626.12,-163.4 623.03,-157.11"/>
</a>
</g>
</g>
<!-- Node12 -->
<g id="Node000012" class="node">
<title>Node12</title>
<g id="a_Node000012"><a xlink:href="_nuki_opener_utils_8cpp.html" target="_top" xlink:title=" ">
<polygon fill="white" stroke="#666666" points="649.62,-129.75 527.12,-129.75 527.12,-110.5 649.62,-110.5 649.62,-129.75"/>
<text text-anchor="middle" x="588.38" y="-116.25" font-family="Helvetica,sans-Serif" font-size="10.00">src/NukiOpenerUtils.cpp</text>
</a>
</g>
</g>
<!-- Node11&#45;&gt;Node12 -->
<g id="edge16_Node000011_Node000012" class="edge">
<title>Node11&#45;&gt;Node12</title>
<g id="a_edge16_Node000011_Node000012"><a xlink:title=" ">
<path fill="none" stroke="#63b8ff" d="M588.38,-154.13C588.38,-145.84 588.38,-136.67 588.38,-130.11"/>
<polygon fill="#63b8ff" stroke="#63b8ff" points="584.88,-154.07 588.38,-164.07 591.88,-154.07 584.88,-154.07"/>
</a>
</g>
</g>
<!-- Node13&#45;&gt;Node3 -->
<g id="edge18_Node000013_Node000003" class="edge">
<title>Node13&#45;&gt;Node3</title>
<g id="a_edge18_Node000013_Node000003"><a xlink:title=" ">
<path fill="none" stroke="#63b8ff" d="M452.98,-102.04C444.83,-93 435.16,-82.27 428.47,-74.86"/>
<polygon fill="#63b8ff" stroke="#63b8ff" points="450.14,-104.12 459.44,-109.21 455.34,-99.44 450.14,-104.12"/>
</a>
</g>
</g>
<!-- Node13&#45;&gt;Node5 -->
<g id="edge19_Node000013_Node000005" class="edge">
<title>Node13&#45;&gt;Node5</title>
<g id="a_edge19_Node000013_Node000005"><a xlink:title=" ">
<path fill="none" stroke="#63b8ff" d="M476.21,-99.21C480.25,-85.32 482.47,-67.2 472.38,-55.25 445.22,-23.1 324.06,-14.11 256.06,-11.6"/>
<polygon fill="#63b8ff" stroke="#63b8ff" points="472.91,-98.05 472.95,-108.64 479.53,-100.33 472.91,-98.05"/>
</a>
</g>
</g>
<!-- Node13&#45;&gt;Node7 -->
<g id="edge20_Node000013_Node000007" class="edge">
<title>Node13&#45;&gt;Node7</title>
<g id="a_edge20_Node000013_Node000007"><a xlink:title=" ">
<path fill="none" stroke="#63b8ff" d="M484.93,-101.93C491.91,-94.03 499.71,-84.26 505.38,-74.5 515.96,-56.26 523.43,-32.51 527,-19.72"/>
<polygon fill="#63b8ff" stroke="#63b8ff" points="482.51,-99.39 478.32,-109.12 487.67,-104.13 482.51,-99.39"/>
</a>
</g>
</g>
<!-- Node14 -->
<g id="Node000014" class="node">
<title>Node14</title>
<g id="a_Node000014"><a xlink:href="_nuki_utils_8cpp.html" target="_top" xlink:title=" ">
<polygon fill="white" stroke="#666666" points="648.88,-74.5 557.88,-74.5 557.88,-55.25 648.88,-55.25 648.88,-74.5"/>
<text text-anchor="middle" x="603.38" y="-61" font-family="Helvetica,sans-Serif" font-size="10.00">src/NukiUtils.cpp</text>
</a>
</g>
</g>
<!-- Node13&#45;&gt;Node14 -->
<g id="edge21_Node000013_Node000014" class="edge">
<title>Node13&#45;&gt;Node14</title>
<g id="a_edge21_Node000013_Node000014"><a xlink:title=" ">
<path fill="none" stroke="#63b8ff" d="M501.87,-105.91C526.31,-96.27 558.8,-83.46 580.36,-74.95"/>
<polygon fill="#63b8ff" stroke="#63b8ff" points="500.7,-102.61 492.68,-109.54 503.27,-109.12 500.7,-102.61"/>
</a>
</g>
</g>
</g>
</svg>
