<?xml version="1.0" encoding="UTF-8" standalone="no"?>
<!DOCTYPE svg PUBLIC "-//W3C//DTD SVG 1.1//EN"
 "http://www.w3.org/Graphics/SVG/1.1/DTD/svg11.dtd">
<!-- Generated by graphviz version 7.0.3 (20221126.0506)
 -->
<!-- Title: src/NukiBle.cpp Pages: 1 -->
<svg width="1346pt" height="313pt"
 viewBox="0.00 0.00 1346.47 313.00" xmlns="http://www.w3.org/2000/svg" xmlns:xlink="http://www.w3.org/1999/xlink">
<g id="graph0" class="graph" transform="scale(1 1) rotate(0) translate(4 309)">
<title>src/NukiBle.cpp</title>
<!-- Node1 -->
<g id="node1" class="node">
<title>Node1</title>
<g id="a_node1"><a xlink:title=" ">
<polygon fill="#999999" stroke="#666666" points="785.47,-305 699.47,-305 699.47,-286 785.47,-286 785.47,-305"/>
<text text-anchor="middle" x="742.47" y="-293" font-family="Helvetica,sans-Serif" font-size="10.00">src/NukiBle.cpp</text>
</a>
</g>
</g>
<!-- Node2 -->
<g id="node2" class="node">
<title>Node2</title>
<g id="a_node2"><a xlink:href="_nuki_ble_8h.html" target="_top" xlink:title=" ">
<polygon fill="white" stroke="#666666" points="606.97,-244.5 547.97,-244.5 547.97,-225.5 606.97,-225.5 606.97,-244.5"/>
<text text-anchor="middle" x="577.47" y="-232.5" font-family="Helvetica,sans-Serif" font-size="10.00">NukiBle.h</text>
</a>
</g>
</g>
<!-- Node1&#45;&gt;Node2 -->
<g id="edge1" class="edge">
<title>Node1&#45;&gt;Node2</title>
<path fill="none" stroke="#63b8ff" d="M717.41,-285.62C689.67,-275.78 644.72,-259.84 613.28,-248.69"/>
<polygon fill="#63b8ff" stroke="#63b8ff" points="614.79,-245.52 604.19,-245.47 612.45,-252.11 614.79,-245.52"/>
</g>
<!-- Node11 -->
<g id="node11" class="node">
<title>Node11</title>
<g id="a_node11"><a xlink:title=" ">
<polygon fill="#e0e0e0" stroke="#999999" points="1055.47,-184 923.47,-184 923.47,-165 1055.47,-165 1055.47,-184"/>
<text text-anchor="middle" x="989.47" y="-172" font-family="Helvetica,sans-Serif" font-size="10.00">sodium/crypto_secretbox.h</text>
</a>
</g>
</g>
<!-- Node1&#45;&gt;Node11 -->
<g id="edge32" class="edge">
<title>Node1&#45;&gt;Node11</title>
<path fill="none" stroke="#63b8ff" d="M705.28,-285.63C686.58,-279.09 665.59,-268.08 654.47,-250 647.49,-238.64 645.68,-230.03 654.47,-220 658.71,-215.16 814.24,-196.08 911.87,-184.54"/>
<polygon fill="#63b8ff" stroke="#63b8ff" points="912.15,-188.03 921.67,-183.38 911.33,-181.07 912.15,-188.03"/>
</g>
<!-- Node13 -->
<g id="node13" class="node">
<title>Node13</title>
<g id="a_node13"><a xlink:href="_nuki_lock_utils_8h.html" target="_top" xlink:title=" ">
<polygon fill="white" stroke="#666666" points="204.47,-184 118.47,-184 118.47,-165 204.47,-165 204.47,-184"/>
<text text-anchor="middle" x="161.47" y="-172" font-family="Helvetica,sans-Serif" font-size="10.00">NukiLockUtils.h</text>
</a>
</g>
</g>
<!-- Node1&#45;&gt;Node13 -->
<g id="edge16" class="edge">
<title>Node1&#45;&gt;Node13</title>
<path fill="none" stroke="#63b8ff" d="M699.15,-290.58C636.68,-284.46 517.88,-271.12 418.47,-250 338.79,-233.07 247.7,-204.38 198.2,-187.99"/>
<polygon fill="#63b8ff" stroke="#63b8ff" points="199.45,-184.71 188.85,-184.87 197.23,-191.35 199.45,-184.71"/>
</g>
<!-- Node16 -->
<g id="node16" class="node">
<title>Node16</title>
<g id="a_node16"><a xlink:href="_nuki_utils_8h.html" target="_top" xlink:title=" ">
<polygon fill="white" stroke="#666666" points="287.97,-184 222.97,-184 222.97,-165 287.97,-165 287.97,-184"/>
<text text-anchor="middle" x="255.47" y="-172" font-family="Helvetica,sans-Serif" font-size="10.00">NukiUtils.h</text>
</a>
</g>
</g>
<!-- Node1&#45;&gt;Node16 -->
<g id="edge23" class="edge">
<title>Node1&#45;&gt;Node16</title>
<path fill="none" stroke="#63b8ff" d="M699.19,-285.55C658.01,-276.9 594.37,-263.21 539.47,-250 453.7,-229.36 354.09,-202.57 298.56,-187.39"/>
<polygon fill="#63b8ff" stroke="#63b8ff" points="299.76,-184.09 289.19,-184.82 297.91,-190.84 299.76,-184.09"/>
</g>
<!-- Node17 -->
<g id="node17" class="node">
<title>Node17</title>
<g id="a_node17"><a xlink:title=" ">
<polygon fill="#e0e0e0" stroke="#999999" points="711.47,-244.5 663.47,-244.5 663.47,-225.5 711.47,-225.5 711.47,-244.5"/>
<text text-anchor="middle" x="687.47" y="-232.5" font-family="Helvetica,sans-Serif" font-size="10.00">string.h</text>
</a>
</g>
</g>
<!-- Node1&#45;&gt;Node17 -->
<g id="edge28" class="edge">
<title>Node1&#45;&gt;Node17</title>
<path fill="none" stroke="#63b8ff" d="M734.35,-285.87C726.23,-277.23 713.51,-263.7 703.37,-252.92"/>
<polygon fill="#63b8ff" stroke="#63b8ff" points="706.06,-250.66 696.66,-245.77 700.96,-255.45 706.06,-250.66"/>
</g>
<!-- Node18 -->
<g id="node18" class="node">
<title>Node18</title>
<g id="a_node18"><a xlink:title=" ">
<polygon fill="#e0e0e0" stroke="#999999" points="864.97,-244.5 729.97,-244.5 729.97,-225.5 864.97,-225.5 864.97,-244.5"/>
<text text-anchor="middle" x="797.47" y="-232.5" font-family="Helvetica,sans-Serif" font-size="10.00">sodium/crypto_scalarmult.h</text>
</a>
</g>
</g>
<!-- Node1&#45;&gt;Node18 -->
<g id="edge29" class="edge">
<title>Node1&#45;&gt;Node18</title>
<path fill="none" stroke="#63b8ff" d="M750.59,-285.87C758.71,-277.23 771.43,-263.7 781.57,-252.92"/>
<polygon fill="#63b8ff" stroke="#63b8ff" points="783.98,-255.45 788.28,-245.77 778.88,-250.66 783.98,-255.45"/>
</g>
<!-- Node19 -->
<g id="node19" class="node">
<title>Node19</title>
<g id="a_node19"><a xlink:title=" ">
<polygon fill="#e0e0e0" stroke="#999999" points="983.97,-250 882.97,-250 882.97,-220 983.97,-220 983.97,-250"/>
<text text-anchor="start" x="890.97" y="-238" font-family="Helvetica,sans-Serif" font-size="10.00">sodium/crypto_core</text>
<text text-anchor="middle" x="933.47" y="-227" font-family="Helvetica,sans-Serif" font-size="10.00">_hsalsa20.h</text>
</a>
</g>
</g>
<!-- Node1&#45;&gt;Node19 -->
<g id="edge30" class="edge">
<title>Node1&#45;&gt;Node19</title>
<path fill="none" stroke="#63b8ff" d="M771.48,-285.62C798.98,-277.19 841.07,-264.3 875.46,-253.77"/>
<polygon fill="#63b8ff" stroke="#63b8ff" points="876.34,-257.16 884.88,-250.88 874.29,-250.46 876.34,-257.16"/>
</g>
<!-- Node20 -->
<g id="node20" class="node">
<title>Node20</title>
<g id="a_node20"><a xlink:title=" ">
<polygon fill="#e0e0e0" stroke="#999999" points="1102.97,-250 1001.97,-250 1001.97,-220 1102.97,-220 1102.97,-250"/>
<text text-anchor="start" x="1009.97" y="-238" font-family="Helvetica,sans-Serif" font-size="10.00">sodium/crypto_auth</text>
<text text-anchor="middle" x="1052.47" y="-227" font-family="Helvetica,sans-Serif" font-size="10.00">_hmacsha256.h</text>
</a>
</g>
</g>
<!-- Node1&#45;&gt;Node20 -->
<g id="edge31" class="edge">
<title>Node1&#45;&gt;Node20</title>
<path fill="none" stroke="#63b8ff" d="M785.7,-287.61C833.58,-279.81 913.31,-266.32 990.75,-250.5"/>
<polygon fill="#63b8ff" stroke="#63b8ff" points="991.09,-254 1000.18,-248.56 989.68,-247.15 991.09,-254"/>
</g>
<!-- Node21 -->
<g id="node21" class="node">
<title>Node21</title>
<g id="a_node21"><a xlink:title=" ">
<polygon fill="#e0e0e0" stroke="#999999" points="1225.97,-244.5 1120.97,-244.5 1120.97,-225.5 1225.97,-225.5 1225.97,-244.5"/>
<text text-anchor="middle" x="1173.47" y="-232.5" font-family="Helvetica,sans-Serif" font-size="10.00">sodium/crypto_box.h</text>
</a>
</g>
</g>
<!-- Node1&#45;&gt;Node21 -->
<g id="edge33" class="edge">
<title>Node1&#45;&gt;Node21</title>
<path fill="none" stroke="#63b8ff" d="M785.7,-290.8C854.98,-284.53 995.03,-270.48 1112.47,-250 1116.86,-249.23 1121.41,-248.35 1125.95,-247.42"/>
<polygon fill="#63b8ff" stroke="#63b8ff" points="1126.63,-250.85 1135.67,-245.32 1125.16,-244.01 1126.63,-250.85"/>
</g>
<!-- Node22 -->
<g id="node22" class="node">
<title>Node22</title>
<g id="a_node22"><a xlink:title=" ">
<polygon fill="#e0e0e0" stroke="#999999" points="1338.47,-244.5 1244.47,-244.5 1244.47,-225.5 1338.47,-225.5 1338.47,-244.5"/>
<text text-anchor="middle" x="1291.47" y="-232.5" font-family="Helvetica,sans-Serif" font-size="10.00">NimBLEBeacon.h</text>
</a>
</g>
</g>
<!-- Node1&#45;&gt;Node22 -->
<g id="edge34" class="edge">
<title>Node1&#45;&gt;Node22</title>
<path fill="none" stroke="#63b8ff" d="M785.95,-292.84C872.21,-289.05 1070.87,-277.83 1235.47,-250 1239.62,-249.3 1243.91,-248.45 1248.19,-247.52"/>
<polygon fill="#63b8ff" stroke="#63b8ff" points="1248.95,-250.94 1257.9,-245.27 1247.37,-244.12 1248.95,-250.94"/>
</g>
<!-- Node3 -->
<g id="node3" class="node">
<title>Node3</title>
<g id="a_node3"><a xlink:title=" ">
<polygon fill="#e0e0e0" stroke="#999999" points="778.97,-184 687.97,-184 687.97,-165 778.97,-165 778.97,-184"/>
<text text-anchor="middle" x="733.47" y="-172" font-family="Helvetica,sans-Serif" font-size="10.00">NimBLEDevice.h</text>
</a>
</g>
</g>
<!-- Node2&#45;&gt;Node3 -->
<g id="edge2" class="edge">
<title>Node2&#45;&gt;Node3</title>
<path fill="none" stroke="#63b8ff" d="M601.16,-225.12C627.16,-215.37 669.14,-199.62 698.83,-188.49"/>
<polygon fill="#63b8ff" stroke="#63b8ff" points="700,-191.79 708.14,-185 697.54,-185.23 700,-191.79"/>
</g>
<!-- Node4 -->
<g id="node4" class="node">
<title>Node4</title>
<g id="a_node4"><a xlink:href="_nuki_constants_8h.html" target="_top" xlink:title=" ">
<polygon fill="white" stroke="#666666" points="364.97,-74 275.97,-74 275.97,-55 364.97,-55 364.97,-74"/>
<text text-anchor="middle" x="320.47" y="-62" font-family="Helvetica,sans-Serif" font-size="10.00">NukiConstants.h</text>
</a>
</g>
</g>
<!-- Node2&#45;&gt;Node4 -->
<g id="edge3" class="edge">
<title>Node2&#45;&gt;Node4</title>
<path fill="none" stroke="#63b8ff" d="M607.22,-227.45C664.69,-214.73 785.62,-187.6 788.47,-184 793.71,-177.38 793.78,-171.56 788.47,-165 737.16,-101.64 489.36,-76.94 376.58,-68.87"/>
<polygon fill="#63b8ff" stroke="#63b8ff" points="376.85,-65.38 366.64,-68.18 376.37,-72.37 376.85,-65.38"/>
</g>
<!-- Node6 -->
<g id="node6" class="node">
<title>Node6</title>
<g id="a_node6"><a xlink:href="_nuki_data_types_8h.html" target="_top" xlink:title=" ">
<polygon fill="white" stroke="#666666" points="371.97,-129 280.97,-129 280.97,-110 371.97,-110 371.97,-129"/>
<text text-anchor="middle" x="326.47" y="-117" font-family="Helvetica,sans-Serif" font-size="10.00">NukiDataTypes.h</text>
</a>
</g>
</g>
<!-- Node2&#45;&gt;Node6 -->
<g id="edge5" class="edge">
<title>Node2&#45;&gt;Node6</title>
<path fill="none" stroke="#63b8ff" d="M547.8,-229.28C488.84,-219.66 361.33,-197.55 346.47,-184 334.32,-172.92 329.49,-154.53 327.61,-140.39"/>
<polygon fill="#63b8ff" stroke="#63b8ff" points="331.13,-140.49 326.74,-130.85 324.16,-141.13 331.13,-140.49"/>
</g>
<!-- Node7 -->
<g id="node7" class="node">
<title>Node7</title>
<g id="a_node7"><a xlink:title=" ">
<polygon fill="#e0e0e0" stroke="#999999" points="247.97,-74 190.97,-74 190.97,-55 247.97,-55 247.97,-74"/>
<text text-anchor="middle" x="219.47" y="-62" font-family="Helvetica,sans-Serif" font-size="10.00">Arduino.h</text>
</a>
</g>
</g>
<!-- Node2&#45;&gt;Node7 -->
<g id="edge8" class="edge">
<title>Node2&#45;&gt;Node7</title>
<path fill="none" stroke="#63b8ff" d="M547.67,-228.55C494.97,-218.62 389.87,-197.36 379.47,-184 359.26,-158.05 400.39,-136.17 380.47,-110 373.02,-100.21 304.68,-83.84 259.46,-73.92"/>
<polygon fill="#63b8ff" stroke="#63b8ff" points="260.23,-70.5 249.71,-71.8 258.75,-77.35 260.23,-70.5"/>
</g>
<!-- Node8 -->
<g id="node8" class="node">
<title>Node8</title>
<g id="a_node8"><a xlink:title=" ">
<polygon fill="#e0e0e0" stroke="#999999" points="465.97,-184 388.97,-184 388.97,-165 465.97,-165 465.97,-184"/>
<text text-anchor="middle" x="427.47" y="-172" font-family="Helvetica,sans-Serif" font-size="10.00">Preferences.h</text>
</a>
</g>
</g>
<!-- Node2&#45;&gt;Node8 -->
<g id="edge9" class="edge">
<title>Node2&#45;&gt;Node8</title>
<path fill="none" stroke="#63b8ff" d="M554.69,-225.12C529.8,-215.41 489.68,-199.76 461.15,-188.64"/>
<polygon fill="#63b8ff" stroke="#63b8ff" points="462.46,-185.39 451.88,-185.02 459.92,-191.91 462.46,-185.39"/>
</g>
<!-- Node9 -->
<g id="node9" class="node">
<title>Node9</title>
<g id="a_node9"><a xlink:title=" ">
<polygon fill="#e0e0e0" stroke="#999999" points="568.97,-184 483.97,-184 483.97,-165 568.97,-165 568.97,-184"/>
<text text-anchor="middle" x="526.47" y="-172" font-family="Helvetica,sans-Serif" font-size="10.00">esp_task_wdt.h</text>
</a>
</g>
</g>
<!-- Node2&#45;&gt;Node9 -->
<g id="edge10" class="edge">
<title>Node2&#45;&gt;Node9</title>
<path fill="none" stroke="#63b8ff" d="M569.94,-225.37C562.49,-216.81 550.86,-203.47 541.5,-192.74"/>
<polygon fill="#63b8ff" stroke="#63b8ff" points="544.23,-190.55 535.02,-185.31 538.95,-195.15 544.23,-190.55"/>
</g>
<!-- Node10 -->
<g id="node10" class="node">
<title>Node10</title>
<g id="a_node10"><a xlink:title=" ">
<polygon fill="#e0e0e0" stroke="#999999" points="669.47,-184 587.47,-184 587.47,-165 669.47,-165 669.47,-184"/>
<text text-anchor="middle" x="628.47" y="-172" font-family="Helvetica,sans-Serif" font-size="10.00">BleInterfaces.h</text>
</a>
</g>
</g>
<!-- Node2&#45;&gt;Node10 -->
<g id="edge11" class="edge">
<title>Node2&#45;&gt;Node10</title>
<path fill="none" stroke="#63b8ff" d="M585,-225.37C592.45,-216.81 604.08,-203.47 613.44,-192.74"/>
<polygon fill="#63b8ff" stroke="#63b8ff" points="615.99,-195.15 619.92,-185.31 610.71,-190.55 615.99,-195.15"/>
</g>
<!-- Node2&#45;&gt;Node11 -->
<g id="edge12" class="edge">
<title>Node2&#45;&gt;Node11</title>
<path fill="none" stroke="#63b8ff" d="M602.84,-225.03C608.89,-223.15 615.36,-221.33 621.47,-220 635.47,-216.96 808.05,-196.61 911.83,-184.51"/>
<polygon fill="#63b8ff" stroke="#63b8ff" points="912.16,-188 921.69,-183.36 911.35,-181.04 912.16,-188"/>
</g>
<!-- Node12 -->
<g id="node12" class="node">
<title>Node12</title>
<g id="a_node12"><a xlink:href="_nuki_ble_8hpp.html" target="_top" xlink:title=" ">
<polygon fill="white" stroke="#666666" points="904.97,-184 835.97,-184 835.97,-165 904.97,-165 904.97,-184"/>
<text text-anchor="middle" x="870.47" y="-172" font-family="Helvetica,sans-Serif" font-size="10.00">NukiBle.hpp</text>
</a>
</g>
</g>
<!-- Node2&#45;&gt;Node12 -->
<g id="edge13" class="edge">
<title>Node2&#45;&gt;Node12</title>
<path fill="none" stroke="#63b8ff" d="M603.37,-225.14C609.28,-223.29 615.56,-221.46 621.47,-220 631.26,-217.58 755.31,-195.7 824.53,-183.55"/>
<polygon fill="#63b8ff" stroke="#63b8ff" points="824.81,-187.05 834.06,-181.88 823.6,-180.16 824.81,-187.05"/>
</g>
<!-- Node5 -->
<g id="node5" class="node">
<title>Node5</title>
<g id="a_node5"><a xlink:title=" ">
<polygon fill="#e0e0e0" stroke="#999999" points="236.47,-19 150.47,-19 150.47,0 236.47,0 236.47,-19"/>
<text text-anchor="middle" x="193.47" y="-7" font-family="Helvetica,sans-Serif" font-size="10.00">NimBLEUUID.h</text>
</a>
</g>
</g>
<!-- Node4&#45;&gt;Node5 -->
<g id="edge4" class="edge">
<title>Node4&#45;&gt;Node5</title>
<path fill="none" stroke="#63b8ff" d="M298.93,-54.51C278.73,-46.08 248.3,-33.38 225.31,-23.79"/>
<polygon fill="#63b8ff" stroke="#63b8ff" points="226.67,-20.56 216.09,-19.94 223.97,-27.02 226.67,-20.56"/>
</g>
<!-- Node6&#45;&gt;Node4 -->
<g id="edge7" class="edge">
<title>Node6&#45;&gt;Node4</title>
<path fill="none" stroke="#63b8ff" d="M325.48,-109.75C324.74,-103.19 323.69,-93.95 322.75,-85.6"/>
<polygon fill="#63b8ff" stroke="#63b8ff" points="326.26,-85.49 321.65,-75.95 319.3,-86.28 326.26,-85.49"/>
</g>
<!-- Node6&#45;&gt;Node7 -->
<g id="edge6" class="edge">
<title>Node6&#45;&gt;Node7</title>
<path fill="none" stroke="#63b8ff" d="M308.32,-109.51C291.69,-101.27 266.83,-88.96 247.62,-79.45"/>
<polygon fill="#63b8ff" stroke="#63b8ff" points="249.22,-76.33 238.71,-75.03 246.12,-82.6 249.22,-76.33"/>
</g>
<!-- Node12&#45;&gt;Node4 -->
<g id="edge14" class="edge">
<title>Node12&#45;&gt;Node4</title>
<path fill="none" stroke="#63b8ff" d="M866.58,-164.64C859.76,-150.33 844.19,-122.44 821.47,-110 746.13,-68.74 490.68,-64.61 376.46,-64.92"/>
<polygon fill="#63b8ff" stroke="#63b8ff" points="376.71,-61.42 366.72,-64.96 376.73,-68.42 376.71,-61.42"/>
</g>
<!-- Node12&#45;&gt;Node6 -->
<g id="edge15" class="edge">
<title>Node12&#45;&gt;Node6</title>
<path fill="none" stroke="#63b8ff" d="M835.76,-169.85C821.16,-168.32 803.99,-166.55 788.47,-165 642.67,-150.42 470.91,-134.1 383.62,-125.87"/>
<polygon fill="#63b8ff" stroke="#63b8ff" points="384.17,-122.41 373.89,-124.95 383.52,-129.38 384.17,-122.41"/>
</g>
<!-- Node13&#45;&gt;Node6 -->
<g id="edge18" class="edge">
<title>Node13&#45;&gt;Node6</title>
<path fill="none" stroke="#63b8ff" d="M189.46,-164.51C216.56,-155.8 257.88,-142.53 288.05,-132.84"/>
<polygon fill="#63b8ff" stroke="#63b8ff" points="288.73,-136.3 297.18,-129.91 286.59,-129.64 288.73,-136.3"/>
</g>
<!-- Node13&#45;&gt;Node7 -->
<g id="edge17" class="edge">
<title>Node13&#45;&gt;Node7</title>
<path fill="none" stroke="#63b8ff" d="M118.26,-170.54C62.15,-165.05 -24.98,-149.96 7.47,-110 28.71,-83.83 124.15,-72.49 179.46,-68.05"/>
<polygon fill="#63b8ff" stroke="#63b8ff" points="179.4,-71.56 189.1,-67.31 178.87,-64.58 179.4,-71.56"/>
</g>
<!-- Node14 -->
<g id="node14" class="node">
<title>Node14</title>
<g id="a_node14"><a xlink:href="_nuki_lock_constants_8h.html" target="_top" xlink:title=" ">
<polygon fill="white" stroke="#666666" points="126.47,-129 16.47,-129 16.47,-110 126.47,-110 126.47,-129"/>
<text text-anchor="middle" x="71.47" y="-117" font-family="Helvetica,sans-Serif" font-size="10.00">NukiLockConstants.h</text>
</a>
</g>
</g>
<!-- Node13&#45;&gt;Node14 -->
<g id="edge19" class="edge">
<title>Node13&#45;&gt;Node14</title>
<path fill="none" stroke="#63b8ff" d="M146.2,-164.51C132.54,-156.47 112.27,-144.53 96.29,-135.11"/>
<polygon fill="#63b8ff" stroke="#63b8ff" points="98.21,-132.18 87.82,-130.13 94.66,-138.22 98.21,-132.18"/>
</g>
<!-- Node15 -->
<g id="node15" class="node">
<title>Node15</title>
<g id="a_node15"><a xlink:title=" ">
<polygon fill="#e0e0e0" stroke="#999999" points="185.97,-129 144.97,-129 144.97,-110 185.97,-110 185.97,-129"/>
<text text-anchor="middle" x="165.47" y="-117" font-family="Helvetica,sans-Serif" font-size="10.00">bitset</text>
</a>
</g>
</g>
<!-- Node13&#45;&gt;Node15 -->
<g id="edge22" class="edge">
<title>Node13&#45;&gt;Node15</title>
<path fill="none" stroke="#63b8ff" d="M162.13,-164.75C162.62,-158.27 163.31,-149.16 163.93,-140.9"/>
<polygon fill="#63b8ff" stroke="#63b8ff" points="167.42,-141.19 164.68,-130.95 160.44,-140.66 167.42,-141.19"/>
</g>
<!-- Node14&#45;&gt;Node4 -->
<g id="edge21" class="edge">
<title>Node14&#45;&gt;Node4</title>
<path fill="none" stroke="#63b8ff" d="M113.71,-109.51C156.05,-100.5 221.36,-86.6 267.22,-76.83"/>
<polygon fill="#63b8ff" stroke="#63b8ff" points="267.91,-80.27 276.96,-74.76 266.45,-73.42 267.91,-80.27"/>
</g>
<!-- Node14&#45;&gt;Node5 -->
<g id="edge20" class="edge">
<title>Node14&#45;&gt;Node5</title>
<path fill="none" stroke="#63b8ff" d="M81.45,-109.66C101.92,-91.55 148.89,-49.96 175.04,-26.81"/>
<polygon fill="#63b8ff" stroke="#63b8ff" points="177.05,-29.71 182.21,-20.46 172.41,-24.47 177.05,-29.71"/>
</g>
<!-- Node16&#45;&gt;Node4 -->
<g id="edge26" class="edge">
<title>Node16&#45;&gt;Node4</title>
<path fill="none" stroke="#63b8ff" d="M256.08,-164.67C257.31,-151.81 260.95,-127.55 271.47,-110 278.12,-98.91 288.39,-88.98 297.81,-81.32"/>
<polygon fill="#63b8ff" stroke="#63b8ff" points="299.76,-84.24 305.58,-75.39 295.51,-78.67 299.76,-84.24"/>
</g>
<!-- Node16&#45;&gt;Node6 -->
<g id="edge25" class="edge">
<title>Node16&#45;&gt;Node6</title>
<path fill="none" stroke="#63b8ff" d="M267.51,-164.51C277.88,-156.77 293.07,-145.43 305.44,-136.2"/>
<polygon fill="#63b8ff" stroke="#63b8ff" points="307.47,-139.05 313.39,-130.26 303.28,-133.44 307.47,-139.05"/>
</g>
<!-- Node16&#45;&gt;Node7 -->
<g id="edge24" class="edge">
<title>Node16&#45;&gt;Node7</title>
<path fill="none" stroke="#63b8ff" d="M251.89,-164.71C248.31,-155.78 242.73,-141.53 238.47,-129 233.52,-114.46 228.57,-97.81 224.96,-85.21"/>
<polygon fill="#63b8ff" stroke="#63b8ff" points="228.35,-84.32 222.26,-75.65 221.61,-86.22 228.35,-84.32"/>
</g>
<!-- Node16&#45;&gt;Node15 -->
<g id="edge27" class="edge">
<title>Node16&#45;&gt;Node15</title>
<path fill="none" stroke="#63b8ff" d="M240.2,-164.51C226.54,-156.47 206.27,-144.53 190.29,-135.11"/>
<polygon fill="#63b8ff" stroke="#63b8ff" points="192.21,-132.18 181.82,-130.13 188.66,-138.22 192.21,-132.18"/>
</g>
</g>
</svg>
