<?xml version="1.0" encoding="UTF-8" standalone="no"?>
<!DOCTYPE svg PUBLIC "-//W3C//DTD SVG 1.1//EN"
 "http://www.w3.org/Graphics/SVG/1.1/DTD/svg11.dtd">
<!-- Generated by graphviz version 6.0.1 (20220911.1526)
 -->
<!-- Title: src/NukiOpener.h Pages: 1 -->
<svg width="911pt" height="302pt"
 viewBox="0.00 0.00 910.50 302.00" xmlns="http://www.w3.org/2000/svg" xmlns:xlink="http://www.w3.org/1999/xlink">
<g id="graph0" class="graph" transform="scale(1 1) rotate(0) translate(4 298)">
<title>src/NukiOpener.h</title>
<!-- Node1 -->
<g id="node1" class="node">
<title>Node1</title>
<g id="a_node1"><a xlink:title=" ">
<polygon fill="#999999" stroke="#666666" points="243,-294 151,-294 151,-275 243,-275 243,-294"/>
<text text-anchor="middle" x="197" y="-282" font-family="Helvetica,sans-Serif" font-size="10.00">src/NukiOpener.h</text>
</a>
</g>
</g>
<!-- Node2 -->
<g id="node2" class="node">
<title>Node2</title>
<g id="a_node2"><a xlink:href="_nuki_ble_8h.html" target="_top" xlink:title=" ">
<polygon fill="white" stroke="#666666" points="396.5,-239 337.5,-239 337.5,-220 396.5,-220 396.5,-239"/>
<text text-anchor="middle" x="367" y="-227" font-family="Helvetica,sans-Serif" font-size="10.00">NukiBle.h</text>
</a>
</g>
</g>
<!-- Node1&#45;&gt;Node2 -->
<g id="edge1" class="edge">
<title>Node1&#45;&gt;Node2</title>
<path fill="none" stroke="#63b8ff" d="M224.31,-274.98C252.85,-266.09 297.83,-252.07 329.64,-242.15"/>
<polygon fill="#63b8ff" stroke="#63b8ff" points="330.97,-245.4 339.47,-239.08 328.88,-238.72 330.97,-245.4"/>
</g>
<!-- Node13 -->
<g id="node13" class="node">
<title>Node13</title>
<g id="a_node13"><a xlink:href="_nuki_opener_constants_8h.html" target="_top" xlink:title=" ">
<polygon fill="white" stroke="#666666" points="120,-129 0,-129 0,-110 120,-110 120,-129"/>
<text text-anchor="middle" x="60" y="-117" font-family="Helvetica,sans-Serif" font-size="10.00">NukiOpenerConstants.h</text>
</a>
</g>
</g>
<!-- Node1&#45;&gt;Node13 -->
<g id="edge16" class="edge">
<title>Node1&#45;&gt;Node13</title>
<path fill="none" stroke="#63b8ff" d="M189.63,-274.74C167.71,-248.65 102.59,-171.17 73.87,-137"/>
<polygon fill="#63b8ff" stroke="#63b8ff" points="76.52,-134.71 67.4,-129.31 71.16,-139.21 76.52,-134.71"/>
</g>
<!-- Node3 -->
<g id="node3" class="node">
<title>Node3</title>
<g id="a_node3"><a xlink:title=" ">
<polygon fill="#e0e0e0" stroke="#999999" points="902.5,-184 811.5,-184 811.5,-165 902.5,-165 902.5,-184"/>
<text text-anchor="middle" x="857" y="-172" font-family="Helvetica,sans-Serif" font-size="10.00">NimBLEDevice.h</text>
</a>
</g>
</g>
<!-- Node2&#45;&gt;Node3 -->
<g id="edge2" class="edge">
<title>Node2&#45;&gt;Node3</title>
<path fill="none" stroke="#63b8ff" d="M396.6,-226C465.55,-220.07 642.44,-204.19 801.44,-184"/>
<polygon fill="#63b8ff" stroke="#63b8ff" points="801.93,-187.47 811.41,-182.73 801.04,-180.53 801.93,-187.47"/>
</g>
<!-- Node4 -->
<g id="node4" class="node">
<title>Node4</title>
<g id="a_node4"><a xlink:href="_nuki_constants_8h.html" target="_top" xlink:title=" ">
<polygon fill="white" stroke="#666666" points="192.5,-74 103.5,-74 103.5,-55 192.5,-55 192.5,-74"/>
<text text-anchor="middle" x="148" y="-62" font-family="Helvetica,sans-Serif" font-size="10.00">NukiConstants.h</text>
</a>
</g>
</g>
<!-- Node2&#45;&gt;Node4 -->
<g id="edge3" class="edge">
<title>Node2&#45;&gt;Node4</title>
<path fill="none" stroke="#63b8ff" d="M337.37,-229.16C298.67,-228.41 231.01,-221.32 190,-184 161.17,-157.77 152.12,-110.47 149.29,-84.26"/>
<polygon fill="#63b8ff" stroke="#63b8ff" points="152.76,-83.8 148.4,-74.15 145.79,-84.42 152.76,-83.8"/>
</g>
<!-- Node6 -->
<g id="node6" class="node">
<title>Node6</title>
<g id="a_node6"><a xlink:href="_nuki_data_types_8h.html" target="_top" xlink:title=" ">
<polygon fill="white" stroke="#666666" points="305.5,-129 214.5,-129 214.5,-110 305.5,-110 305.5,-129"/>
<text text-anchor="middle" x="260" y="-117" font-family="Helvetica,sans-Serif" font-size="10.00">NukiDataTypes.h</text>
</a>
</g>
</g>
<!-- Node2&#45;&gt;Node6 -->
<g id="edge5" class="edge">
<title>Node2&#45;&gt;Node6</title>
<path fill="none" stroke="#63b8ff" d="M357.49,-219.79C347.89,-210.92 332.71,-196.72 320,-184 304.35,-168.33 287.03,-149.88 275.04,-136.92"/>
<polygon fill="#63b8ff" stroke="#63b8ff" points="277.35,-134.26 268,-129.27 272.2,-139 277.35,-134.26"/>
</g>
<!-- Node7 -->
<g id="node7" class="node">
<title>Node7</title>
<g id="a_node7"><a xlink:title=" ">
<polygon fill="#e0e0e0" stroke="#999999" points="325.5,-74 268.5,-74 268.5,-55 325.5,-55 325.5,-74"/>
<text text-anchor="middle" x="297" y="-62" font-family="Helvetica,sans-Serif" font-size="10.00">Arduino.h</text>
</a>
</g>
</g>
<!-- Node2&#45;&gt;Node7 -->
<g id="edge8" class="edge">
<title>Node2&#45;&gt;Node7</title>
<path fill="none" stroke="#63b8ff" d="M363.24,-219.74C352.22,-194.09 319.88,-118.78 304.85,-83.78"/>
<polygon fill="#63b8ff" stroke="#63b8ff" points="307.94,-82.11 300.78,-74.31 301.51,-84.88 307.94,-82.11"/>
</g>
<!-- Node8 -->
<g id="node8" class="node">
<title>Node8</title>
<g id="a_node8"><a xlink:title=" ">
<polygon fill="#e0e0e0" stroke="#999999" points="439.5,-184 362.5,-184 362.5,-165 439.5,-165 439.5,-184"/>
<text text-anchor="middle" x="401" y="-172" font-family="Helvetica,sans-Serif" font-size="10.00">Preferences.h</text>
</a>
</g>
</g>
<!-- Node2&#45;&gt;Node8 -->
<g id="edge9" class="edge">
<title>Node2&#45;&gt;Node8</title>
<path fill="none" stroke="#63b8ff" d="M372.61,-219.75C377.32,-212.42 384.17,-201.73 389.97,-192.7"/>
<polygon fill="#63b8ff" stroke="#63b8ff" points="393.04,-194.4 395.49,-184.09 387.14,-190.62 393.04,-194.4"/>
</g>
<!-- Node9 -->
<g id="node9" class="node">
<title>Node9</title>
<g id="a_node9"><a xlink:title=" ">
<polygon fill="#e0e0e0" stroke="#999999" points="542.5,-184 457.5,-184 457.5,-165 542.5,-165 542.5,-184"/>
<text text-anchor="middle" x="500" y="-172" font-family="Helvetica,sans-Serif" font-size="10.00">esp_task_wdt.h</text>
</a>
</g>
</g>
<!-- Node2&#45;&gt;Node9 -->
<g id="edge10" class="edge">
<title>Node2&#45;&gt;Node9</title>
<path fill="none" stroke="#63b8ff" d="M388.37,-219.98C410.15,-211.3 444.16,-197.75 468.92,-187.88"/>
<polygon fill="#63b8ff" stroke="#63b8ff" points="470.25,-191.12 478.24,-184.17 467.66,-184.62 470.25,-191.12"/>
</g>
<!-- Node10 -->
<g id="node10" class="node">
<title>Node10</title>
<g id="a_node10"><a xlink:title=" ">
<polygon fill="#e0e0e0" stroke="#999999" points="643,-184 561,-184 561,-165 643,-165 643,-184"/>
<text text-anchor="middle" x="602" y="-172" font-family="Helvetica,sans-Serif" font-size="10.00">BleInterfaces.h</text>
</a>
</g>
</g>
<!-- Node2&#45;&gt;Node10 -->
<g id="edge11" class="edge">
<title>Node2&#45;&gt;Node10</title>
<path fill="none" stroke="#63b8ff" d="M396.76,-221.79C436.34,-212.86 506.79,-196.97 553.95,-186.34"/>
<polygon fill="#63b8ff" stroke="#63b8ff" points="554.95,-189.7 563.93,-184.09 553.41,-182.87 554.95,-189.7"/>
</g>
<!-- Node11 -->
<g id="node11" class="node">
<title>Node11</title>
<g id="a_node11"><a xlink:title=" ">
<polygon fill="#e0e0e0" stroke="#999999" points="793,-184 661,-184 661,-165 793,-165 793,-184"/>
<text text-anchor="middle" x="727" y="-172" font-family="Helvetica,sans-Serif" font-size="10.00">sodium/crypto_secretbox.h</text>
</a>
</g>
</g>
<!-- Node2&#45;&gt;Node11 -->
<g id="edge12" class="edge">
<title>Node2&#45;&gt;Node11</title>
<path fill="none" stroke="#63b8ff" d="M396.77,-224.12C453.84,-215.72 579.97,-197.15 658.78,-185.54"/>
<polygon fill="#63b8ff" stroke="#63b8ff" points="659.72,-188.94 669.1,-184.02 658.7,-182.02 659.72,-188.94"/>
</g>
<!-- Node12 -->
<g id="node12" class="node">
<title>Node12</title>
<g id="a_node12"><a xlink:href="_nuki_ble_8hpp.html" target="_top" xlink:title=" ">
<polygon fill="white" stroke="#666666" points="267.5,-184 198.5,-184 198.5,-165 267.5,-165 267.5,-184"/>
<text text-anchor="middle" x="233" y="-172" font-family="Helvetica,sans-Serif" font-size="10.00">NukiBle.hpp</text>
</a>
</g>
</g>
<!-- Node2&#45;&gt;Node12 -->
<g id="edge13" class="edge">
<title>Node2&#45;&gt;Node12</title>
<path fill="none" stroke="#63b8ff" d="M345.47,-219.98C323.53,-211.3 289.26,-197.75 264.31,-187.88"/>
<polygon fill="#63b8ff" stroke="#63b8ff" points="265.51,-184.59 254.92,-184.17 262.93,-191.1 265.51,-184.59"/>
</g>
<!-- Node5 -->
<g id="node5" class="node">
<title>Node5</title>
<g id="a_node5"><a xlink:title=" ">
<polygon fill="#e0e0e0" stroke="#999999" points="147,-19 61,-19 61,0 147,0 147,-19"/>
<text text-anchor="middle" x="104" y="-7" font-family="Helvetica,sans-Serif" font-size="10.00">NimBLEUUID.h</text>
</a>
</g>
</g>
<!-- Node4&#45;&gt;Node5 -->
<g id="edge4" class="edge">
<title>Node4&#45;&gt;Node5</title>
<path fill="none" stroke="#63b8ff" d="M140.73,-54.75C134.46,-47.18 125.21,-36.05 117.57,-26.84"/>
<polygon fill="#63b8ff" stroke="#63b8ff" points="120.21,-24.55 111.13,-19.09 114.83,-29.02 120.21,-24.55"/>
</g>
<!-- Node6&#45;&gt;Node4 -->
<g id="edge7" class="edge">
<title>Node6&#45;&gt;Node4</title>
<path fill="none" stroke="#63b8ff" d="M242.01,-109.98C224.07,-101.5 196.28,-88.35 175.57,-78.54"/>
<polygon fill="#63b8ff" stroke="#63b8ff" points="176.86,-75.28 166.32,-74.17 173.86,-81.61 176.86,-75.28"/>
</g>
<!-- Node6&#45;&gt;Node7 -->
<g id="edge6" class="edge">
<title>Node6&#45;&gt;Node7</title>
<path fill="none" stroke="#63b8ff" d="M266.11,-109.75C271.28,-102.34 278.85,-91.5 285.19,-82.41"/>
<polygon fill="#63b8ff" stroke="#63b8ff" points="288.15,-84.29 291,-74.09 282.41,-80.29 288.15,-84.29"/>
</g>
<!-- Node12&#45;&gt;Node4 -->
<g id="edge14" class="edge">
<title>Node12&#45;&gt;Node4</title>
<path fill="none" stroke="#63b8ff" d="M226.04,-164.66C211.84,-146.61 179.31,-105.28 161.05,-82.08"/>
<polygon fill="#63b8ff" stroke="#63b8ff" points="163.75,-79.85 154.81,-74.16 158.25,-84.18 163.75,-79.85"/>
</g>
<!-- Node12&#45;&gt;Node6 -->
<g id="edge15" class="edge">
<title>Node12&#45;&gt;Node6</title>
<path fill="none" stroke="#63b8ff" d="M237.46,-164.75C241.12,-157.57 246.41,-147.18 250.95,-138.27"/>
<polygon fill="#63b8ff" stroke="#63b8ff" points="254.2,-139.59 255.62,-129.09 247.97,-136.41 254.2,-139.59"/>
</g>
<!-- Node13&#45;&gt;Node4 -->
<g id="edge18" class="edge">
<title>Node13&#45;&gt;Node4</title>
<path fill="none" stroke="#63b8ff" d="M74.14,-109.98C87.79,-101.77 108.69,-89.18 124.78,-79.49"/>
<polygon fill="#63b8ff" stroke="#63b8ff" points="126.84,-82.33 133.6,-74.17 123.23,-76.33 126.84,-82.33"/>
</g>
<!-- Node13&#45;&gt;Node5 -->
<g id="edge17" class="edge">
<title>Node13&#45;&gt;Node5</title>
<path fill="none" stroke="#63b8ff" d="M63.6,-109.66C70.79,-92.01 87.06,-52.09 96.61,-28.64"/>
<polygon fill="#63b8ff" stroke="#63b8ff" points="99.94,-29.74 100.47,-19.16 93.46,-27.1 99.94,-29.74"/>
</g>
</g>
</svg>
