<?xml version="1.0" encoding="UTF-8" standalone="no"?>
<!DOCTYPE svg PUBLIC "-//W3C//DTD SVG 1.1//EN"
 "http://www.w3.org/Graphics/SVG/1.1/DTD/svg11.dtd">
<!-- Generated by graphviz version 9.0.0 (20230911.1827)
 -->
<!-- Title: src/NukiDataTypes.h Pages: 1 -->
<svg width="170pt" height="138pt"
 viewBox="0.00 0.00 170.25 137.75" xmlns="http://www.w3.org/2000/svg" xmlns:xlink="http://www.w3.org/1999/xlink">

<svg id="main" version="1.1" xmlns="http://www.w3.org/2000/svg" xmlns:xlink="http://www.w3.org/1999/xlink" xml:space="preserve" onload="init(evt)">
<style type="text/css"><![CDATA[
.node, .edge {opacity: 0.7;}
.node.selected, .edge.selected {opacity: 1;}
.edge:hover path { stroke: red; }
.edge:hover polygon { stroke: red; fill: red; }
]]></style>
<script type="application/ecmascript" xlink:href="svg.min.js"/>
<svg id="graph" class="graph">
<g id="graph0" class="graph" transform="scale(1 1) rotate(0) translate(4 133.75)">
<title>src/NukiDataTypes.h</title>
<!-- Node1 -->
<g id="Node000001" class="node">
<title>Node1</title>
<g id="a_Node000001"><a xlink:title=" ">
<polygon fill="#999999" stroke="#666666" points="126.62,-129.75 19.88,-129.75 19.88,-110.5 126.62,-110.5 126.62,-129.75"/>
<text text-anchor="middle" x="73.25" y="-116.25" font-family="Helvetica,sans-Serif" font-size="10.00">src/NukiDataTypes.h</text>
</a>
</g>
</g>
<!-- Node2 -->
<g id="Node000002" class="node">
<title>Node2</title>
<g id="a_Node000002"><a xlink:title=" ">
<polygon fill="#e0e0e0" stroke="#999999" points="56.5,-74.5 0,-74.5 0,-55.25 56.5,-55.25 56.5,-74.5"/>
<text text-anchor="middle" x="28.25" y="-61" font-family="Helvetica,sans-Serif" font-size="10.00">Arduino.h</text>
</a>
</g>
</g>
<!-- Node1&#45;&gt;Node2 -->
<g id="edge1_Node000001_Node000002" class="edge">
<title>Node1&#45;&gt;Node2</title>
<g id="a_edge1_Node000001_Node000002"><a xlink:title=" ">
<path fill="none" stroke="#63b8ff" d="M65.82,-110.33C59.67,-103.05 50.74,-92.48 43.12,-83.48"/>
<polygon fill="#63b8ff" stroke="#63b8ff" points="45.95,-81.39 36.82,-76.02 40.6,-85.91 45.95,-81.39"/>
</a>
</g>
</g>
<!-- Node3 -->
<g id="Node000003" class="node">
<title>Node3</title>
<g id="a_Node000003"><a xlink:href="_nuki_constants_8h.html" target="_top" xlink:title=" ">
<polygon fill="white" stroke="#666666" points="162.25,-74.5 74.25,-74.5 74.25,-55.25 162.25,-55.25 162.25,-74.5"/>
<text text-anchor="middle" x="118.25" y="-61" font-family="Helvetica,sans-Serif" font-size="10.00">NukiConstants.h</text>
</a>
</g>
</g>
<!-- Node1&#45;&gt;Node3 -->
<g id="edge2_Node000001_Node000003" class="edge">
<title>Node1&#45;&gt;Node3</title>
<g id="a_edge2_Node000001_Node000003"><a xlink:title=" ">
<path fill="none" stroke="#63b8ff" d="M80.68,-110.33C86.83,-103.05 95.76,-92.48 103.38,-83.48"/>
<polygon fill="#63b8ff" stroke="#63b8ff" points="105.9,-85.91 109.68,-76.02 100.55,-81.39 105.9,-85.91"/>
</a>
</g>
</g>
<!-- Node4 -->
<g id="Node000004" class="node">
<title>Node4</title>
<g id="a_Node000004"><a xlink:title=" ">
<polygon fill="#e0e0e0" stroke="#999999" points="160.75,-19.25 75.75,-19.25 75.75,0 160.75,0 160.75,-19.25"/>
<text text-anchor="middle" x="118.25" y="-5.75" font-family="Helvetica,sans-Serif" font-size="10.00">NimBLEUUID.h</text>
</a>
</g>
</g>
<!-- Node3&#45;&gt;Node4 -->
<g id="edge3_Node000003_Node000004" class="edge">
<title>Node3&#45;&gt;Node4</title>
<g id="a_edge3_Node000003_Node000004"><a xlink:title=" ">
<path fill="none" stroke="#63b8ff" d="M118.25,-55.08C118.25,-48.57 118.25,-39.42 118.25,-31.12"/>
<polygon fill="#63b8ff" stroke="#63b8ff" points="121.75,-31.12 118.25,-21.12 114.75,-31.12 121.75,-31.12"/>
</a>
</g>
</g>
</g>
</svg>
</svg>

<style type='text/css'>
<![CDATA[
[data-mouse-over-selected='false'] { opacity: 0.7; }
[data-mouse-over-selected='true']  { opacity: 1.0; }
]]>
</style>
<script type="application/ecmascript"><![CDATA[
document.addEventListener('DOMContentLoaded', (event) => {
  highlightEdges();
  highlightAdjacentNodes();
});
]]></script>
</svg>
