<?xml version="1.0" encoding="UTF-8" standalone="no"?>
<!DOCTYPE svg PUBLIC "-//W3C//DTD SVG 1.1//EN"
 "http://www.w3.org/Graphics/SVG/1.1/DTD/svg11.dtd">
<!-- Generated by graphviz version 12.2.1 (20241206.2353)
 -->
<!-- Title: src/NukiBle.hpp Pages: 1 -->
<svg width="190pt" height="193pt"
 viewBox="0.00 0.00 189.88 193.00" xmlns="http://www.w3.org/2000/svg" xmlns:xlink="http://www.w3.org/1999/xlink">
<g id="graph0" class="graph" transform="scale(1 1) rotate(0) translate(4 189)">
<title>src/NukiBle.hpp</title>
<!-- Node1 -->
<g id="Node000001" class="node">
<title>Node1</title>
<g id="a_Node000001"><a xlink:title=" ">
<polygon fill="#999999" stroke="#666666" points="142.12,-185 57.12,-185 57.12,-165.75 142.12,-165.75 142.12,-185"/>
<text text-anchor="middle" x="99.62" y="-171.5" font-family="Helvetica,sans-Serif" font-size="10.00">src/NukiBle.hpp</text>
</a>
</g>
</g>
<!-- Node2 -->
<g id="Node000002" class="node">
<title>Node2</title>
<g id="a_Node000002"><a xlink:href="_nuki_constants_8h.html" target="_top" xlink:title=" ">
<polygon fill="white" stroke="#666666" points="107.62,-74.5 19.62,-74.5 19.62,-55.25 107.62,-55.25 107.62,-74.5"/>
<text text-anchor="middle" x="63.62" y="-61" font-family="Helvetica,sans-Serif" font-size="10.00">NukiConstants.h</text>
</a>
</g>
</g>
<!-- Node1&#45;&gt;Node2 -->
<g id="edge1_Node000001_Node000002" class="edge">
<title>Node1&#45;&gt;Node2</title>
<g id="a_edge1_Node000001_Node000002"><a xlink:title=" ">
<path fill="none" stroke="#63b8ff" d="M96.04,-165.56C92.46,-156.6 86.88,-142.31 82.62,-129.75 77.62,-114.97 72.61,-98.03 69,-85.31"/>
<polygon fill="#63b8ff" stroke="#63b8ff" points="72.48,-84.76 66.41,-76.08 65.74,-86.65 72.48,-84.76"/>
</a>
</g>
</g>
<!-- Node5 -->
<g id="Node000005" class="node">
<title>Node5</title>
<g id="a_Node000005"><a xlink:href="_nuki_data_types_8h.html" target="_top" xlink:title=" ">
<polygon fill="white" stroke="#666666" points="181.75,-129.75 91.5,-129.75 91.5,-110.5 181.75,-110.5 181.75,-129.75"/>
<text text-anchor="middle" x="136.62" y="-116.25" font-family="Helvetica,sans-Serif" font-size="10.00">NukiDataTypes.h</text>
</a>
</g>
</g>
<!-- Node1&#45;&gt;Node5 -->
<g id="edge4_Node000001_Node000005" class="edge">
<title>Node1&#45;&gt;Node5</title>
<g id="a_edge4_Node000001_Node000005"><a xlink:title=" ">
<path fill="none" stroke="#63b8ff" d="M105.73,-165.58C110.69,-158.46 117.83,-148.18 124,-139.3"/>
<polygon fill="#63b8ff" stroke="#63b8ff" points="126.69,-141.56 129.52,-131.35 120.94,-137.57 126.69,-141.56"/>
</a>
</g>
</g>
<!-- Node3 -->
<g id="Node000003" class="node">
<title>Node3</title>
<g id="a_Node000003"><a xlink:title=" ">
<polygon fill="#e0e0e0" stroke="#999999" points="45.25,-19.25 0,-19.25 0,0 45.25,0 45.25,-19.25"/>
<text text-anchor="middle" x="22.62" y="-5.75" font-family="Helvetica,sans-Serif" font-size="10.00">cstdint</text>
</a>
</g>
</g>
<!-- Node2&#45;&gt;Node3 -->
<g id="edge2_Node000002_Node000003" class="edge">
<title>Node2&#45;&gt;Node3</title>
<g id="a_edge2_Node000002_Node000003"><a xlink:title=" ">
<path fill="none" stroke="#63b8ff" d="M56.85,-55.08C51.31,-47.88 43.28,-37.46 36.4,-28.51"/>
<polygon fill="#63b8ff" stroke="#63b8ff" points="39.34,-26.6 30.47,-20.81 33.79,-30.87 39.34,-26.6"/>
</a>
</g>
</g>
<!-- Node4 -->
<g id="Node000004" class="node">
<title>Node4</title>
<g id="a_Node000004"><a xlink:title=" ">
<polygon fill="#e0e0e0" stroke="#999999" points="148.12,-19.25 63.12,-19.25 63.12,0 148.12,0 148.12,-19.25"/>
<text text-anchor="middle" x="105.62" y="-5.75" font-family="Helvetica,sans-Serif" font-size="10.00">NimBLEUUID.h</text>
</a>
</g>
</g>
<!-- Node2&#45;&gt;Node4 -->
<g id="edge3_Node000002_Node000004" class="edge">
<title>Node2&#45;&gt;Node4</title>
<g id="a_edge3_Node000002_Node000004"><a xlink:title=" ">
<path fill="none" stroke="#63b8ff" d="M70.56,-55.08C76.24,-47.88 84.46,-37.46 91.52,-28.51"/>
<polygon fill="#63b8ff" stroke="#63b8ff" points="94.16,-30.82 97.6,-20.8 88.66,-26.48 94.16,-30.82"/>
</a>
</g>
</g>
<!-- Node5&#45;&gt;Node2 -->
<g id="edge6_Node000005_Node000002" class="edge">
<title>Node5&#45;&gt;Node2</title>
<g id="a_edge6_Node000005_Node000002"><a xlink:title=" ">
<path fill="none" stroke="#63b8ff" d="M124.24,-110.09C113.48,-102.24 97.65,-90.7 84.87,-81.37"/>
<polygon fill="#63b8ff" stroke="#63b8ff" points="87.19,-78.73 77.05,-75.67 83.06,-84.39 87.19,-78.73"/>
</a>
</g>
</g>
<!-- Node6 -->
<g id="Node000006" class="node">
<title>Node6</title>
<g id="a_Node000006"><a xlink:title=" ">
<polygon fill="#e0e0e0" stroke="#999999" points="181.88,-74.5 125.38,-74.5 125.38,-55.25 181.88,-55.25 181.88,-74.5"/>
<text text-anchor="middle" x="153.62" y="-61" font-family="Helvetica,sans-Serif" font-size="10.00">Arduino.h</text>
</a>
</g>
</g>
<!-- Node5&#45;&gt;Node6 -->
<g id="edge5_Node000005_Node000006" class="edge">
<title>Node5&#45;&gt;Node6</title>
<g id="a_edge5_Node000005_Node000006"><a xlink:title=" ">
<path fill="none" stroke="#63b8ff" d="M139.43,-110.33C141.56,-103.67 144.57,-94.24 147.27,-85.78"/>
<polygon fill="#63b8ff" stroke="#63b8ff" points="150.59,-86.89 150.3,-76.3 143.92,-84.76 150.59,-86.89"/>
</a>
</g>
</g>
</g>
</svg>
