<?xml version="1.0" encoding="UTF-8" standalone="no"?>
<!DOCTYPE svg PUBLIC "-//W3C//DTD SVG 1.1//EN"
 "http://www.w3.org/Graphics/SVG/1.1/DTD/svg11.dtd">
<!-- Generated by graphviz version 12.2.1 (20241206.2353)
 -->
<!-- Title: src/NukiBle.h Pages: 1 -->
<svg width="316pt" height="138pt"
 viewBox="0.00 0.00 315.62 137.75" xmlns="http://www.w3.org/2000/svg" xmlns:xlink="http://www.w3.org/1999/xlink">
<g id="graph0" class="graph" transform="scale(1 1) rotate(0) translate(4 133.75)">
<title>src/NukiBle.h</title>
<!-- Node1 -->
<g id="Node000001" class="node">
<title>Node1</title>
<g id="a_Node000001"><a xlink:title=" ">
<polygon fill="#999999" stroke="#666666" points="181.75,-129.75 107.25,-129.75 107.25,-110.5 181.75,-110.5 181.75,-129.75"/>
<text text-anchor="middle" x="144.5" y="-116.25" font-family="Helvetica,sans-Serif" font-size="10.00">src/NukiBle.h</text>
</a>
</g>
</g>
<!-- Node2 -->
<g id="Node000002" class="node">
<title>Node2</title>
<g id="a_Node000002"><a xlink:href="_nuki_ble_8cpp.html" target="_top" xlink:title=" ">
<polygon fill="white" stroke="#666666" points="85,-74.5 0,-74.5 0,-55.25 85,-55.25 85,-74.5"/>
<text text-anchor="middle" x="42.5" y="-61" font-family="Helvetica,sans-Serif" font-size="10.00">src/NukiBle.cpp</text>
</a>
</g>
</g>
<!-- Node1&#45;&gt;Node2 -->
<g id="edge1_Node000001_Node000002" class="edge">
<title>Node1&#45;&gt;Node2</title>
<g id="a_edge1_Node000001_Node000002"><a xlink:title=" ">
<path fill="none" stroke="#63b8ff" d="M117.17,-104.86C98.97,-95.36 75.59,-83.15 59.89,-74.95"/>
<polygon fill="#63b8ff" stroke="#63b8ff" points="115.37,-107.87 125.86,-109.39 118.61,-101.66 115.37,-107.87"/>
</a>
</g>
</g>
<!-- Node3 -->
<g id="Node000003" class="node">
<title>Node3</title>
<g id="a_Node000003"><a xlink:href="_nuki_lock_8h.html" target="_top" xlink:title=" ">
<polygon fill="white" stroke="#666666" points="185.5,-74.5 103.5,-74.5 103.5,-55.25 185.5,-55.25 185.5,-74.5"/>
<text text-anchor="middle" x="144.5" y="-61" font-family="Helvetica,sans-Serif" font-size="10.00">src/NukiLock.h</text>
</a>
</g>
</g>
<!-- Node1&#45;&gt;Node3 -->
<g id="edge2_Node000001_Node000003" class="edge">
<title>Node1&#45;&gt;Node3</title>
<g id="a_edge2_Node000001_Node000003"><a xlink:title=" ">
<path fill="none" stroke="#63b8ff" d="M144.5,-98.88C144.5,-90.59 144.5,-81.42 144.5,-74.86"/>
<polygon fill="#63b8ff" stroke="#63b8ff" points="141,-98.82 144.5,-108.82 148,-98.82 141,-98.82"/>
</a>
</g>
</g>
<!-- Node5 -->
<g id="Node000005" class="node">
<title>Node5</title>
<g id="a_Node000005"><a xlink:href="_nuki_opener_8h.html" target="_top" xlink:title=" ">
<polygon fill="white" stroke="#666666" points="300.38,-74.5 208.62,-74.5 208.62,-55.25 300.38,-55.25 300.38,-74.5"/>
<text text-anchor="middle" x="254.5" y="-61" font-family="Helvetica,sans-Serif" font-size="10.00">src/NukiOpener.h</text>
</a>
</g>
</g>
<!-- Node1&#45;&gt;Node5 -->
<g id="edge4_Node000001_Node000005" class="edge">
<title>Node1&#45;&gt;Node5</title>
<g id="a_edge4_Node000001_Node000005"><a xlink:title=" ">
<path fill="none" stroke="#63b8ff" d="M173.42,-105.12C193.13,-95.58 218.65,-83.23 235.75,-74.95"/>
<polygon fill="#63b8ff" stroke="#63b8ff" points="172,-101.92 164.52,-109.43 175.05,-108.23 172,-101.92"/>
</a>
</g>
</g>
<!-- Node4 -->
<g id="Node000004" class="node">
<title>Node4</title>
<g id="a_Node000004"><a xlink:href="_nuki_lock_8cpp.html" target="_top" xlink:title=" ">
<polygon fill="white" stroke="#666666" points="187.75,-19.25 95.25,-19.25 95.25,0 187.75,0 187.75,-19.25"/>
<text text-anchor="middle" x="141.5" y="-5.75" font-family="Helvetica,sans-Serif" font-size="10.00">src/NukiLock.cpp</text>
</a>
</g>
</g>
<!-- Node3&#45;&gt;Node4 -->
<g id="edge3_Node000003_Node000004" class="edge">
<title>Node3&#45;&gt;Node4</title>
<g id="a_edge3_Node000003_Node000004"><a xlink:title=" ">
<path fill="none" stroke="#63b8ff" d="M143.36,-43.63C142.89,-35.34 142.38,-26.17 142.01,-19.61"/>
<polygon fill="#63b8ff" stroke="#63b8ff" points="139.86,-43.78 143.92,-53.57 146.85,-43.39 139.86,-43.78"/>
</a>
</g>
</g>
<!-- Node6 -->
<g id="Node000006" class="node">
<title>Node6</title>
<g id="a_Node000006"><a xlink:href="_nuki_opener_8cpp.html" target="_top" xlink:title=" ">
<polygon fill="white" stroke="#666666" points="307.62,-19.25 205.38,-19.25 205.38,0 307.62,0 307.62,-19.25"/>
<text text-anchor="middle" x="256.5" y="-5.75" font-family="Helvetica,sans-Serif" font-size="10.00">src/NukiOpener.cpp</text>
</a>
</g>
</g>
<!-- Node5&#45;&gt;Node6 -->
<g id="edge5_Node000005_Node000006" class="edge">
<title>Node5&#45;&gt;Node6</title>
<g id="a_edge5_Node000005_Node000006"><a xlink:title=" ">
<path fill="none" stroke="#63b8ff" d="M255.26,-43.63C255.57,-35.34 255.92,-26.17 256.16,-19.61"/>
<polygon fill="#63b8ff" stroke="#63b8ff" points="251.76,-43.45 254.89,-53.57 258.76,-43.71 251.76,-43.45"/>
</a>
</g>
</g>
</g>
</svg>
