<?xml version="1.0" encoding="UTF-8" standalone="no"?>
<!DOCTYPE svg PUBLIC "-//W3C//DTD SVG 1.1//EN"
 "http://www.w3.org/Graphics/SVG/1.1/DTD/svg11.dtd">
<!-- Generated by graphviz version 8.0.5 (20230430.1635)
 -->
<!-- Title: src/NukiUtils.h Pages: 1 -->
<svg width="433pt" height="83pt"
 viewBox="0.00 0.00 433.00 82.50" xmlns="http://www.w3.org/2000/svg" xmlns:xlink="http://www.w3.org/1999/xlink">
<g id="graph0" class="graph" transform="scale(1 1) rotate(0) translate(4 78.5)">
<title>src/NukiUtils.h</title>
<!-- Node1 -->
<g id="node1" class="node">
<title>Node1</title>
<g id="a_node1"><a xlink:title=" ">
<polygon fill="#999999" stroke="#666666" points="246.75,-74.5 166.25,-74.5 166.25,-55.25 246.75,-55.25 246.75,-74.5"/>
<text text-anchor="middle" x="206.5" y="-61" font-family="Helvetica,sans-Serif" font-size="10.00">src/NukiUtils.h</text>
</a>
</g>
</g>
<!-- Node2 -->
<g id="node2" class="node">
<title>Node2</title>
<g id="a_node2"><a xlink:href="_nuki_ble_8cpp.html" target="_top" xlink:title=" ">
<polygon fill="white" stroke="#666666" points="85,-19.25 0,-19.25 0,0 85,0 85,-19.25"/>
<text text-anchor="middle" x="42.5" y="-5.75" font-family="Helvetica,sans-Serif" font-size="10.00">src/NukiBle.cpp</text>
</a>
</g>
</g>
<!-- Node1&#45;&gt;Node2 -->
<g id="edge1" class="edge">
<title>Node1&#45;&gt;Node2</title>
<path fill="none" stroke="#63b8ff" d="M168.59,-51.57C138.62,-41.84 97.48,-28.48 70.46,-19.7"/>
<polygon fill="#63b8ff" stroke="#63b8ff" points="167.09,-55.08 177.68,-54.84 169.25,-48.42 167.09,-55.08"/>
</g>
<!-- Node3 -->
<g id="node3" class="node">
<title>Node3</title>
<g id="a_node3"><a xlink:href="_nuki_lock_8cpp.html" target="_top" xlink:title=" ">
<polygon fill="white" stroke="#666666" points="195.75,-19.25 103.25,-19.25 103.25,0 195.75,0 195.75,-19.25"/>
<text text-anchor="middle" x="149.5" y="-5.75" font-family="Helvetica,sans-Serif" font-size="10.00">src/NukiLock.cpp</text>
</a>
</g>
</g>
<!-- Node1&#45;&gt;Node3 -->
<g id="edge2" class="edge">
<title>Node1&#45;&gt;Node3</title>
<path fill="none" stroke="#63b8ff" d="M188.85,-47.39C179.01,-38.19 167.14,-27.1 159.03,-19.52"/>
<polygon fill="#63b8ff" stroke="#63b8ff" points="186.13,-49.57 195.83,-53.84 190.91,-44.46 186.13,-49.57"/>
</g>
<!-- Node4 -->
<g id="node4" class="node">
<title>Node4</title>
<g id="a_node4"><a xlink:href="_nuki_opener_8cpp.html" target="_top" xlink:title=" ">
<polygon fill="white" stroke="#666666" points="315.62,-19.25 213.38,-19.25 213.38,0 315.62,0 315.62,-19.25"/>
<text text-anchor="middle" x="264.5" y="-5.75" font-family="Helvetica,sans-Serif" font-size="10.00">src/NukiOpener.cpp</text>
</a>
</g>
</g>
<!-- Node1&#45;&gt;Node4 -->
<g id="edge3" class="edge">
<title>Node1&#45;&gt;Node4</title>
<path fill="none" stroke="#63b8ff" d="M224.16,-47.66C234.23,-38.42 246.47,-27.18 254.81,-19.52"/>
<polygon fill="#63b8ff" stroke="#63b8ff" points="222.34,-44.5 217.34,-53.84 227.07,-49.66 222.34,-44.5"/>
</g>
<!-- Node5 -->
<g id="node5" class="node">
<title>Node5</title>
<g id="a_node5"><a xlink:href="_nuki_utils_8cpp.html" target="_top" xlink:title=" ">
<polygon fill="white" stroke="#666666" points="425,-19.25 334,-19.25 334,0 425,0 425,-19.25"/>
<text text-anchor="middle" x="379.5" y="-5.75" font-family="Helvetica,sans-Serif" font-size="10.00">src/NukiUtils.cpp</text>
</a>
</g>
</g>
<!-- Node1&#45;&gt;Node5 -->
<g id="edge4" class="edge">
<title>Node1&#45;&gt;Node5</title>
<path fill="none" stroke="#63b8ff" d="M246.08,-51.69C277.72,-41.95 321.38,-28.52 350.01,-19.7"/>
<polygon fill="#63b8ff" stroke="#63b8ff" points="245.37,-48.55 236.85,-54.84 247.43,-55.25 245.37,-48.55"/>
</g>
</g>
</svg>
