<?xml version="1.0" encoding="UTF-8" standalone="no"?>
<!DOCTYPE svg PUBLIC "-//W3C//DTD SVG 1.1//EN"
 "http://www.w3.org/Graphics/SVG/1.1/DTD/svg11.dtd">
<!-- Generated by graphviz version 11.0.0 (20240428.1522)
 -->
<!-- Title: src/NukiLock.cpp Pages: 1 -->
<svg width="1134pt" height="359pt"
 viewBox="0.00 0.00 1133.88 358.75" xmlns="http://www.w3.org/2000/svg" xmlns:xlink="http://www.w3.org/1999/xlink">
<g id="graph0" class="graph" transform="scale(1 1) rotate(0) translate(4 354.75)">
<title>src/NukiLock.cpp</title>
<!-- Node1 -->
<g id="Node000001" class="node">
<title>Node1</title>
<g id="a_Node000001"><a xlink:title=" ">
<polygon fill="#999999" stroke="#666666" points="1047.12,-350.75 954.62,-350.75 954.62,-331.5 1047.12,-331.5 1047.12,-350.75"/>
<text text-anchor="middle" x="1000.88" y="-337.25" font-family="Helvetica,sans-Serif" font-size="10.00">src/NukiLock.cpp</text>
</a>
</g>
</g>
<!-- Node2 -->
<g id="Node000002" class="node">
<title>Node2</title>
<g id="a_Node000002"><a xlink:href="_nuki_lock_utils_8h.html" target="_top" xlink:title=" ">
<polygon fill="white" stroke="#666666" points="1043.75,-185 958,-185 958,-165.75 1043.75,-165.75 1043.75,-185"/>
<text text-anchor="middle" x="1000.88" y="-171.5" font-family="Helvetica,sans-Serif" font-size="10.00">NukiLockUtils.h</text>
</a>
</g>
</g>
<!-- Node1&#45;&gt;Node2 -->
<g id="edge1_Node000001_Node000002" class="edge">
<title>Node1&#45;&gt;Node2</title>
<g id="a_edge1_Node000001_Node000002"><a xlink:title=" ">
<path fill="none" stroke="#63b8ff" d="M1000.88,-331.32C1000.88,-306 1000.88,-232.5 1000.88,-196.59"/>
<polygon fill="#63b8ff" stroke="#63b8ff" points="1004.38,-196.74 1000.88,-186.74 997.38,-196.74 1004.38,-196.74"/>
</a>
</g>
</g>
<!-- Node10 -->
<g id="Node000010" class="node">
<title>Node10</title>
<g id="a_Node000010"><a xlink:href="_nuki_lock_8h.html" target="_top" xlink:title=" ">
<polygon fill="white" stroke="#666666" points="757.62,-295.5 692.12,-295.5 692.12,-276.25 757.62,-276.25 757.62,-295.5"/>
<text text-anchor="middle" x="724.88" y="-282" font-family="Helvetica,sans-Serif" font-size="10.00">NukiLock.h</text>
</a>
</g>
</g>
<!-- Node1&#45;&gt;Node10 -->
<g id="edge12_Node000001_Node000010" class="edge">
<title>Node1&#45;&gt;Node10</title>
<g id="a_edge12_Node000001_Node000010"><a xlink:title=" ">
<path fill="none" stroke="#63b8ff" d="M954.37,-331.15C902.77,-321.2 820.12,-305.25 769.36,-295.46"/>
<polygon fill="#63b8ff" stroke="#63b8ff" points="770.07,-292.03 759.59,-293.57 768.75,-298.9 770.07,-292.03"/>
</a>
</g>
</g>
<!-- Node20 -->
<g id="Node000020" class="node">
<title>Node20</title>
<g id="a_Node000020"><a xlink:href="_nuki_utils_8h.html" target="_top" xlink:title=" ">
<polygon fill="white" stroke="#666666" points="1125.88,-185 1061.88,-185 1061.88,-165.75 1125.88,-165.75 1125.88,-185"/>
<text text-anchor="middle" x="1093.88" y="-171.5" font-family="Helvetica,sans-Serif" font-size="10.00">NukiUtils.h</text>
</a>
</g>
</g>
<!-- Node1&#45;&gt;Node20 -->
<g id="edge29_Node000001_Node000020" class="edge">
<title>Node1&#45;&gt;Node20</title>
<g id="a_edge29_Node000001_Node000020"><a xlink:title=" ">
<path fill="none" stroke="#63b8ff" d="M1005.88,-331.32C1020.45,-305.67 1063.1,-230.55 1083.19,-195.19"/>
<polygon fill="#63b8ff" stroke="#63b8ff" points="1086.21,-196.96 1088.1,-186.54 1080.12,-193.51 1086.21,-196.96"/>
</a>
</g>
</g>
<!-- Node3 -->
<g id="Node000003" class="node">
<title>Node3</title>
<g id="a_Node000003"><a xlink:title=" ">
<polygon fill="#e0e0e0" stroke="#999999" points="977.12,-74.5 920.62,-74.5 920.62,-55.25 977.12,-55.25 977.12,-74.5"/>
<text text-anchor="middle" x="948.88" y="-61" font-family="Helvetica,sans-Serif" font-size="10.00">Arduino.h</text>
</a>
</g>
</g>
<!-- Node2&#45;&gt;Node3 -->
<g id="edge2_Node000002_Node000003" class="edge">
<title>Node2&#45;&gt;Node3</title>
<g id="a_edge2_Node000002_Node000003"><a xlink:title=" ">
<path fill="none" stroke="#63b8ff" d="M996.62,-165.5C988.24,-148.01 969.43,-108.77 958.08,-85.09"/>
<polygon fill="#63b8ff" stroke="#63b8ff" points="961.32,-83.75 953.84,-76.24 955.01,-86.77 961.32,-83.75"/>
</a>
</g>
</g>
<!-- Node4 -->
<g id="Node000004" class="node">
<title>Node4</title>
<g id="a_Node000004"><a xlink:href="_nuki_data_types_8h.html" target="_top" xlink:title=" ">
<polygon fill="white" stroke="#666666" points="824,-129.75 733.75,-129.75 733.75,-110.5 824,-110.5 824,-129.75"/>
<text text-anchor="middle" x="778.88" y="-116.25" font-family="Helvetica,sans-Serif" font-size="10.00">NukiDataTypes.h</text>
</a>
</g>
</g>
<!-- Node2&#45;&gt;Node4 -->
<g id="edge3_Node000002_Node000004" class="edge">
<title>Node2&#45;&gt;Node4</title>
<g id="a_edge3_Node000002_Node000004"><a xlink:title=" ">
<path fill="none" stroke="#63b8ff" d="M962.96,-165.28C925.61,-156.32 868.37,-142.59 827.65,-132.82"/>
<polygon fill="#63b8ff" stroke="#63b8ff" points="828.64,-129.46 818.1,-130.53 827.01,-136.27 828.64,-129.46"/>
</a>
</g>
</g>
<!-- Node8 -->
<g id="Node000008" class="node">
<title>Node8</title>
<g id="a_Node000008"><a xlink:href="_nuki_lock_constants_8h.html" target="_top" xlink:title=" ">
<polygon fill="white" stroke="#666666" points="109.75,-129.75 0,-129.75 0,-110.5 109.75,-110.5 109.75,-129.75"/>
<text text-anchor="middle" x="54.88" y="-116.25" font-family="Helvetica,sans-Serif" font-size="10.00">NukiLockConstants.h</text>
</a>
</g>
</g>
<!-- Node2&#45;&gt;Node8 -->
<g id="edge8_Node000002_Node000008" class="edge">
<title>Node2&#45;&gt;Node8</title>
<g id="a_edge8_Node000002_Node000008"><a xlink:title=" ">
<path fill="none" stroke="#63b8ff" d="M957.88,-169.87C943,-168.41 926.22,-166.88 910.88,-165.75 616.83,-144.01 265.18,-129.19 121.24,-123.6"/>
<polygon fill="#63b8ff" stroke="#63b8ff" points="121.65,-120.11 111.52,-123.23 121.38,-127.11 121.65,-120.11"/>
</a>
</g>
</g>
<!-- Node9 -->
<g id="Node000009" class="node">
<title>Node9</title>
<g id="a_Node000009"><a xlink:title=" ">
<polygon fill="#e0e0e0" stroke="#999999" points="1035.88,-129.75 995.88,-129.75 995.88,-110.5 1035.88,-110.5 1035.88,-129.75"/>
<text text-anchor="middle" x="1015.88" y="-116.25" font-family="Helvetica,sans-Serif" font-size="10.00">bitset</text>
</a>
</g>
</g>
<!-- Node2&#45;&gt;Node9 -->
<g id="edge11_Node000002_Node000009" class="edge">
<title>Node2&#45;&gt;Node9</title>
<g id="a_edge11_Node000002_Node000009"><a xlink:title=" ">
<path fill="none" stroke="#63b8ff" d="M1003.35,-165.58C1005.23,-158.92 1007.88,-149.49 1010.27,-141.03"/>
<polygon fill="#63b8ff" stroke="#63b8ff" points="1013.59,-142.14 1012.93,-131.57 1006.85,-140.24 1013.59,-142.14"/>
</a>
</g>
</g>
<!-- Node4&#45;&gt;Node3 -->
<g id="edge4_Node000004_Node000003" class="edge">
<title>Node4&#45;&gt;Node3</title>
<g id="a_edge4_Node000004_Node000003"><a xlink:title=" ">
<path fill="none" stroke="#63b8ff" d="M807.71,-110.09C835.64,-101.34 878.2,-88.01 909.29,-78.27"/>
<polygon fill="#63b8ff" stroke="#63b8ff" points="910.24,-81.65 918.74,-75.32 908.15,-74.97 910.24,-81.65"/>
</a>
</g>
</g>
<!-- Node5 -->
<g id="Node000005" class="node">
<title>Node5</title>
<g id="a_Node000005"><a xlink:href="_nuki_constants_8h.html" target="_top" xlink:title=" ">
<polygon fill="white" stroke="#666666" points="313.88,-74.5 225.88,-74.5 225.88,-55.25 313.88,-55.25 313.88,-74.5"/>
<text text-anchor="middle" x="269.88" y="-61" font-family="Helvetica,sans-Serif" font-size="10.00">NukiConstants.h</text>
</a>
</g>
</g>
<!-- Node4&#45;&gt;Node5 -->
<g id="edge5_Node000004_Node000005" class="edge">
<title>Node4&#45;&gt;Node5</title>
<g id="a_edge5_Node000004_Node000005"><a xlink:title=" ">
<path fill="none" stroke="#63b8ff" d="M733.26,-114.35C639.74,-104.57 426.61,-82.27 325.32,-71.68"/>
<polygon fill="#63b8ff" stroke="#63b8ff" points="325.93,-68.22 315.62,-70.66 325.21,-75.18 325.93,-68.22"/>
</a>
</g>
</g>
<!-- Node6 -->
<g id="Node000006" class="node">
<title>Node6</title>
<g id="a_Node000006"><a xlink:title=" ">
<polygon fill="#e0e0e0" stroke="#999999" points="292.5,-19.25 247.25,-19.25 247.25,0 292.5,0 292.5,-19.25"/>
<text text-anchor="middle" x="269.88" y="-5.75" font-family="Helvetica,sans-Serif" font-size="10.00">cstdint</text>
</a>
</g>
</g>
<!-- Node5&#45;&gt;Node6 -->
<g id="edge6_Node000005_Node000006" class="edge">
<title>Node5&#45;&gt;Node6</title>
<g id="a_edge6_Node000005_Node000006"><a xlink:title=" ">
<path fill="none" stroke="#63b8ff" d="M269.88,-55.08C269.88,-48.57 269.88,-39.42 269.88,-31.12"/>
<polygon fill="#63b8ff" stroke="#63b8ff" points="273.38,-31.12 269.88,-21.12 266.38,-31.12 273.38,-31.12"/>
</a>
</g>
</g>
<!-- Node7 -->
<g id="Node000007" class="node">
<title>Node7</title>
<g id="a_Node000007"><a xlink:title=" ">
<polygon fill="#e0e0e0" stroke="#999999" points="229.38,-19.25 144.38,-19.25 144.38,0 229.38,0 229.38,-19.25"/>
<text text-anchor="middle" x="186.88" y="-5.75" font-family="Helvetica,sans-Serif" font-size="10.00">NimBLEUUID.h</text>
</a>
</g>
</g>
<!-- Node5&#45;&gt;Node7 -->
<g id="edge7_Node000005_Node000007" class="edge">
<title>Node5&#45;&gt;Node7</title>
<g id="a_edge7_Node000005_Node000007"><a xlink:title=" ">
<path fill="none" stroke="#63b8ff" d="M255.8,-54.84C243.39,-46.89 225.08,-35.14 210.45,-25.75"/>
<polygon fill="#63b8ff" stroke="#63b8ff" points="212.6,-22.97 202.3,-20.52 208.82,-28.87 212.6,-22.97"/>
</a>
</g>
</g>
<!-- Node8&#45;&gt;Node5 -->
<g id="edge10_Node000008_Node000005" class="edge">
<title>Node8&#45;&gt;Node5</title>
<g id="a_edge10_Node000008_Node000005"><a xlink:title=" ">
<path fill="none" stroke="#63b8ff" d="M91.35,-110.09C127.41,-101.16 182.77,-87.45 222.28,-77.66"/>
<polygon fill="#63b8ff" stroke="#63b8ff" points="222.89,-81.12 231.76,-75.32 221.21,-74.32 222.89,-81.12"/>
</a>
</g>
</g>
<!-- Node8&#45;&gt;Node7 -->
<g id="edge9_Node000008_Node000007" class="edge">
<title>Node8&#45;&gt;Node7</title>
<g id="a_edge9_Node000008_Node000007"><a xlink:title=" ">
<path fill="none" stroke="#63b8ff" d="M65.68,-110.25C87.92,-91.97 139.09,-49.9 167.31,-26.71"/>
<polygon fill="#63b8ff" stroke="#63b8ff" points="169.25,-29.64 174.75,-20.59 164.81,-24.23 169.25,-29.64"/>
</a>
</g>
</g>
<!-- Node10&#45;&gt;Node2 -->
<g id="edge28_Node000010_Node000002" class="edge">
<title>Node10&#45;&gt;Node2</title>
<g id="a_edge28_Node000010_Node000002"><a xlink:title=" ">
<path fill="none" stroke="#63b8ff" d="M747.93,-275.81C796.64,-256.66 910.19,-212.03 967.1,-189.65"/>
<polygon fill="#63b8ff" stroke="#63b8ff" points="968.25,-192.96 976.28,-186.04 965.69,-186.44 968.25,-192.96"/>
</a>
</g>
</g>
<!-- Node10&#45;&gt;Node8 -->
<g id="edge27_Node000010_Node000008" class="edge">
<title>Node10&#45;&gt;Node8</title>
<g id="a_edge27_Node000010_Node000008"><a xlink:title=" ">
<path fill="none" stroke="#63b8ff" d="M691.96,-283.02C577.69,-276.05 199.63,-248.58 98.88,-185 82.16,-174.45 70.15,-155.01 62.94,-140.33"/>
<polygon fill="#63b8ff" stroke="#63b8ff" points="66.13,-138.89 58.82,-131.22 59.76,-141.77 66.13,-138.89"/>
</a>
</g>
</g>
<!-- Node11 -->
<g id="Node000011" class="node">
<title>Node11</title>
<g id="a_Node000011"><a xlink:href="_nuki_ble_8h.html" target="_top" xlink:title=" ">
<polygon fill="white" stroke="#666666" points="597.88,-240.25 539.88,-240.25 539.88,-221 597.88,-221 597.88,-240.25"/>
<text text-anchor="middle" x="568.88" y="-226.75" font-family="Helvetica,sans-Serif" font-size="10.00">NukiBle.h</text>
</a>
</g>
</g>
<!-- Node10&#45;&gt;Node11 -->
<g id="edge13_Node000010_Node000011" class="edge">
<title>Node10&#45;&gt;Node11</title>
<g id="a_edge13_Node000010_Node000011"><a xlink:title=" ">
<path fill="none" stroke="#63b8ff" d="M698.41,-275.84C673.09,-267.2 634.64,-254.07 606.21,-244.37"/>
<polygon fill="#63b8ff" stroke="#63b8ff" points="607.5,-241.11 596.9,-241.19 605.23,-247.73 607.5,-241.11"/>
</a>
</g>
</g>
<!-- Node11&#45;&gt;Node3 -->
<g id="edge17_Node000011_Node000003" class="edge">
<title>Node11&#45;&gt;Node3</title>
<g id="a_edge17_Node000011_Node000003"><a xlink:title=" ">
<path fill="none" stroke="#63b8ff" d="M598.31,-229.7C672.33,-229.3 863.71,-224.39 910.88,-185 940.23,-160.48 947.18,-113.29 948.66,-86.25"/>
<polygon fill="#63b8ff" stroke="#63b8ff" points="952.15,-86.4 948.97,-76.29 945.16,-86.18 952.15,-86.4"/>
</a>
</g>
</g>
<!-- Node11&#45;&gt;Node4 -->
<g id="edge16_Node000011_Node000004" class="edge">
<title>Node11&#45;&gt;Node4</title>
<g id="a_edge16_Node000011_Node000004"><a xlink:title=" ">
<path fill="none" stroke="#63b8ff" d="M591.53,-220.64C612.44,-212.13 644.21,-198.66 670.88,-185 700.7,-169.73 733.68,-149.75 755.25,-136.23"/>
<polygon fill="#63b8ff" stroke="#63b8ff" points="756.99,-139.27 763.58,-130.97 753.26,-133.35 756.99,-139.27"/>
</a>
</g>
</g>
<!-- Node11&#45;&gt;Node5 -->
<g id="edge15_Node000011_Node000005" class="edge">
<title>Node11&#45;&gt;Node5</title>
<g id="a_edge15_Node000011_Node000005"><a xlink:title=" ">
<path fill="none" stroke="#63b8ff" d="M539.68,-229C443.44,-226.64 140.66,-216.74 111.88,-185 69.83,-138.65 167.62,-97.95 227.53,-78.32"/>
<polygon fill="#63b8ff" stroke="#63b8ff" points="228.33,-81.74 236.79,-75.37 226.2,-75.07 228.33,-81.74"/>
</a>
</g>
</g>
<!-- Node12 -->
<g id="Node000012" class="node">
<title>Node12</title>
<g id="a_Node000012"><a xlink:title=" ">
<polygon fill="#e0e0e0" stroke="#999999" points="808,-185 717.75,-185 717.75,-165.75 808,-165.75 808,-185"/>
<text text-anchor="middle" x="762.88" y="-171.5" font-family="Helvetica,sans-Serif" font-size="10.00">NimBLEDevice.h</text>
</a>
</g>
</g>
<!-- Node11&#45;&gt;Node12 -->
<g id="edge14_Node000011_Node000012" class="edge">
<title>Node11&#45;&gt;Node12</title>
<g id="a_edge14_Node000011_Node000012"><a xlink:title=" ">
<path fill="none" stroke="#63b8ff" d="M598.34,-221.54C630.42,-212.73 682.08,-198.55 718.95,-188.43"/>
<polygon fill="#63b8ff" stroke="#63b8ff" points="719.7,-191.85 728.42,-185.83 717.85,-185.1 719.7,-191.85"/>
</a>
</g>
</g>
<!-- Node13 -->
<g id="Node000013" class="node">
<title>Node13</title>
<g id="a_Node000013"><a xlink:title=" ">
<polygon fill="#e0e0e0" stroke="#999999" points="901.88,-185 825.88,-185 825.88,-165.75 901.88,-165.75 901.88,-185"/>
<text text-anchor="middle" x="863.88" y="-171.5" font-family="Helvetica,sans-Serif" font-size="10.00">Preferences.h</text>
</a>
</g>
</g>
<!-- Node11&#45;&gt;Node13 -->
<g id="edge18_Node000011_Node000013" class="edge">
<title>Node11&#45;&gt;Node13</title>
<g id="a_edge18_Node000011_Node000013"><a xlink:title=" ">
<path fill="none" stroke="#63b8ff" d="M598.28,-224.37C642.72,-216.41 729.97,-200.77 814.1,-185.5"/>
<polygon fill="#63b8ff" stroke="#63b8ff" points="814.7,-188.95 823.91,-183.72 813.45,-182.06 814.7,-188.95"/>
</a>
</g>
</g>
<!-- Node14 -->
<g id="Node000014" class="node">
<title>Node14</title>
<g id="a_Node000014"><a xlink:title=" ">
<polygon fill="#e0e0e0" stroke="#999999" points="205,-185 120.75,-185 120.75,-165.75 205,-165.75 205,-185"/>
<text text-anchor="middle" x="162.88" y="-171.5" font-family="Helvetica,sans-Serif" font-size="10.00">esp_task_wdt.h</text>
</a>
</g>
</g>
<!-- Node11&#45;&gt;Node14 -->
<g id="edge19_Node000011_Node000014" class="edge">
<title>Node11&#45;&gt;Node14</title>
<g id="a_edge19_Node000011_Node000014"><a xlink:title=" ">
<path fill="none" stroke="#63b8ff" d="M539.83,-226.4C480.88,-219.76 342.75,-203.73 216.44,-185.33"/>
<polygon fill="#63b8ff" stroke="#63b8ff" points="217.33,-181.92 206.93,-183.93 216.31,-188.85 217.33,-181.92"/>
</a>
</g>
</g>
<!-- Node15 -->
<g id="Node000015" class="node">
<title>Node15</title>
<g id="a_Node000015"><a xlink:title=" ">
<polygon fill="#e0e0e0" stroke="#999999" points="304.5,-185 223.25,-185 223.25,-165.75 304.5,-165.75 304.5,-185"/>
<text text-anchor="middle" x="263.88" y="-171.5" font-family="Helvetica,sans-Serif" font-size="10.00">BleInterfaces.h</text>
</a>
</g>
</g>
<!-- Node11&#45;&gt;Node15 -->
<g id="edge20_Node000011_Node000015" class="edge">
<title>Node11&#45;&gt;Node15</title>
<g id="a_edge20_Node000011_Node000015"><a xlink:title=" ">
<path fill="none" stroke="#63b8ff" d="M539.69,-224.55C494.12,-216.63 402.97,-200.77 315.92,-185.53"/>
<polygon fill="#63b8ff" stroke="#63b8ff" points="316.73,-182.12 306.27,-183.84 315.52,-189.01 316.73,-182.12"/>
</a>
</g>
</g>
<!-- Node16 -->
<g id="Node000016" class="node">
<title>Node16</title>
<g id="a_Node000016"><a xlink:title=" ">
<polygon fill="#e0e0e0" stroke="#999999" points="367.5,-185 322.25,-185 322.25,-165.75 367.5,-165.75 367.5,-185"/>
<text text-anchor="middle" x="344.88" y="-171.5" font-family="Helvetica,sans-Serif" font-size="10.00">atomic</text>
</a>
</g>
</g>
<!-- Node11&#45;&gt;Node16 -->
<g id="edge21_Node000011_Node000016" class="edge">
<title>Node11&#45;&gt;Node16</title>
<g id="a_edge21_Node000011_Node000016"><a xlink:title=" ">
<path fill="none" stroke="#63b8ff" d="M539.52,-223.14C503.86,-215.18 441.59,-201.06 378.82,-185.42"/>
<polygon fill="#63b8ff" stroke="#63b8ff" points="379.94,-182.09 369.39,-183.06 378.24,-188.88 379.94,-182.09"/>
</a>
</g>
</g>
<!-- Node17 -->
<g id="Node000017" class="node">
<title>Node17</title>
<g id="a_Node000017"><a xlink:title=" ">
<polygon fill="#e0e0e0" stroke="#999999" points="425.88,-185 385.88,-185 385.88,-165.75 425.88,-165.75 425.88,-185"/>
<text text-anchor="middle" x="405.88" y="-171.5" font-family="Helvetica,sans-Serif" font-size="10.00">string</text>
</a>
</g>
</g>
<!-- Node11&#45;&gt;Node17 -->
<g id="edge22_Node000011_Node000017" class="edge">
<title>Node11&#45;&gt;Node17</title>
<g id="a_edge22_Node000011_Node000017"><a xlink:title=" ">
<path fill="none" stroke="#63b8ff" d="M541.22,-220.59C512.23,-211.12 466.78,-196.27 436.66,-186.43"/>
<polygon fill="#63b8ff" stroke="#63b8ff" points="437.96,-183.18 427.37,-183.4 435.79,-189.83 437.96,-183.18"/>
</a>
</g>
</g>
<!-- Node18 -->
<g id="Node000018" class="node">
<title>Node18</title>
<g id="a_Node000018"><a xlink:title=" ">
<polygon fill="#e0e0e0" stroke="#999999" points="575.62,-185 444.12,-185 444.12,-165.75 575.62,-165.75 575.62,-185"/>
<text text-anchor="middle" x="509.88" y="-171.5" font-family="Helvetica,sans-Serif" font-size="10.00">sodium/crypto_secretbox.h</text>
</a>
</g>
</g>
<!-- Node11&#45;&gt;Node18 -->
<g id="edge23_Node000011_Node000018" class="edge">
<title>Node11&#45;&gt;Node18</title>
<g id="a_edge23_Node000011_Node000018"><a xlink:title=" ">
<path fill="none" stroke="#63b8ff" d="M558.87,-220.59C550.51,-213.05 538.38,-202.1 528.27,-192.98"/>
<polygon fill="#63b8ff" stroke="#63b8ff" points="530.63,-190.39 520.86,-186.29 525.94,-195.59 530.63,-190.39"/>
</a>
</g>
</g>
<!-- Node19 -->
<g id="Node000019" class="node">
<title>Node19</title>
<g id="a_Node000019"><a xlink:href="_nuki_ble_8hpp.html" target="_top" xlink:title=" ">
<polygon fill="white" stroke="#666666" points="662.12,-185 593.62,-185 593.62,-165.75 662.12,-165.75 662.12,-185"/>
<text text-anchor="middle" x="627.88" y="-171.5" font-family="Helvetica,sans-Serif" font-size="10.00">NukiBle.hpp</text>
</a>
</g>
</g>
<!-- Node11&#45;&gt;Node19 -->
<g id="edge24_Node000011_Node000019" class="edge">
<title>Node11&#45;&gt;Node19</title>
<g id="a_edge24_Node000011_Node000019"><a xlink:title=" ">
<path fill="none" stroke="#63b8ff" d="M578.88,-220.59C587.24,-213.05 599.37,-202.1 609.48,-192.98"/>
<polygon fill="#63b8ff" stroke="#63b8ff" points="611.81,-195.59 616.89,-186.29 607.12,-190.39 611.81,-195.59"/>
</a>
</g>
</g>
<!-- Node19&#45;&gt;Node4 -->
<g id="edge26_Node000019_Node000004" class="edge">
<title>Node19&#45;&gt;Node4</title>
<g id="a_edge26_Node000019_Node000004"><a xlink:title=" ">
<path fill="none" stroke="#63b8ff" d="M653.49,-165.34C677.89,-156.74 714.89,-143.69 742.37,-134"/>
<polygon fill="#63b8ff" stroke="#63b8ff" points="743.44,-137.33 751.71,-130.71 741.11,-130.73 743.44,-137.33"/>
</a>
</g>
</g>
<!-- Node19&#45;&gt;Node5 -->
<g id="edge25_Node000019_Node000005" class="edge">
<title>Node19&#45;&gt;Node5</title>
<g id="a_edge25_Node000019_Node000005"><a xlink:title=" ">
<path fill="none" stroke="#63b8ff" d="M597.97,-165.31C534,-145.92 383.81,-100.41 310.95,-78.32"/>
<polygon fill="#63b8ff" stroke="#63b8ff" points="311.98,-74.98 301.4,-75.43 309.95,-81.68 311.98,-74.98"/>
</a>
</g>
</g>
<!-- Node20&#45;&gt;Node3 -->
<g id="edge30_Node000020_Node000003" class="edge">
<title>Node20&#45;&gt;Node3</title>
<g id="a_edge30_Node000020_Node000003"><a xlink:title=" ">
<path fill="none" stroke="#63b8ff" d="M1094.16,-165.29C1094.09,-151.65 1091.93,-125.84 1077.88,-110.5 1055.01,-85.54 1017.51,-74.54 988.82,-69.69"/>
<polygon fill="#63b8ff" stroke="#63b8ff" points="989.42,-66.25 979.02,-68.24 988.4,-73.17 989.42,-66.25"/>
</a>
</g>
</g>
<!-- Node20&#45;&gt;Node4 -->
<g id="edge31_Node000020_Node000004" class="edge">
<title>Node20&#45;&gt;Node4</title>
<g id="a_edge31_Node000020_Node000004"><a xlink:title=" ">
<path fill="none" stroke="#63b8ff" d="M1061.67,-167.46C1058.7,-166.86 1055.74,-166.28 1052.88,-165.75 977.9,-151.77 890.92,-138.02 835.43,-129.56"/>
<polygon fill="#63b8ff" stroke="#63b8ff" points="835.98,-126.1 825.57,-128.06 834.93,-133.03 835.98,-126.1"/>
</a>
</g>
</g>
<!-- Node20&#45;&gt;Node5 -->
<g id="edge32_Node000020_Node000005" class="edge">
<title>Node20&#45;&gt;Node5</title>
<g id="a_edge32_Node000020_Node000005"><a xlink:title=" ">
<path fill="none" stroke="#63b8ff" d="M1090.04,-165.39C1083.31,-150.87 1067.85,-122.67 1044.88,-110.5 981.81,-77.11 492.65,-68.42 325.58,-66.42"/>
<polygon fill="#63b8ff" stroke="#63b8ff" points="325.68,-62.92 315.64,-66.3 325.6,-69.92 325.68,-62.92"/>
</a>
</g>
</g>
<!-- Node20&#45;&gt;Node9 -->
<g id="edge33_Node000020_Node000009" class="edge">
<title>Node20&#45;&gt;Node9</title>
<g id="a_edge33_Node000020_Node000009"><a xlink:title=" ">
<path fill="none" stroke="#63b8ff" d="M1080.64,-165.34C1069.1,-157.46 1052.11,-145.86 1038.43,-136.52"/>
<polygon fill="#63b8ff" stroke="#63b8ff" points="1040.65,-133.8 1030.42,-131.06 1036.71,-139.58 1040.65,-133.8"/>
</a>
</g>
</g>
</g>
</svg>
