<?xml version="1.0" encoding="UTF-8" standalone="no"?>
<!DOCTYPE svg PUBLIC "-//W3C//DTD SVG 1.1//EN"
 "http://www.w3.org/Graphics/SVG/1.1/DTD/svg11.dtd">
<!-- Generated by graphviz version 11.0.0 (20240428.1522)
 -->
<!-- Title: src/NukiOpener.cpp Pages: 1 -->
<svg width="1019pt" height="359pt"
 viewBox="0.00 0.00 1018.55 358.75" xmlns="http://www.w3.org/2000/svg" xmlns:xlink="http://www.w3.org/1999/xlink">
<g id="graph0" class="graph" transform="scale(1 1) rotate(0) translate(4 354.75)">
<title>src/NukiOpener.cpp</title>
<!-- Node1 -->
<g id="Node000001" class="node">
<title>Node1</title>
<g id="a_Node000001"><a xlink:title=" ">
<polygon fill="#999999" stroke="#666666" points="931.67,-350.75 829.42,-350.75 829.42,-331.5 931.67,-331.5 931.67,-350.75"/>
<text text-anchor="middle" x="880.55" y="-337.25" font-family="Helvetica,sans-Serif" font-size="10.00">src/NukiOpener.cpp</text>
</a>
</g>
</g>
<!-- Node2 -->
<g id="Node000002" class="node">
<title>Node2</title>
<g id="a_Node000002"><a xlink:href="_nuki_opener_8h.html" target="_top" xlink:title=" ">
<polygon fill="white" stroke="#666666" points="542.17,-295.5 466.92,-295.5 466.92,-276.25 542.17,-276.25 542.17,-295.5"/>
<text text-anchor="middle" x="504.55" y="-282" font-family="Helvetica,sans-Serif" font-size="10.00">NukiOpener.h</text>
</a>
</g>
</g>
<!-- Node1&#45;&gt;Node2 -->
<g id="edge1_Node000001_Node000002" class="edge">
<title>Node1&#45;&gt;Node2</title>
<g id="a_edge1_Node000001_Node000002"><a xlink:title=" ">
<path fill="none" stroke="#63b8ff" d="M829.05,-332.83C756.56,-322.57 625.31,-303.98 553.96,-293.87"/>
<polygon fill="#63b8ff" stroke="#63b8ff" points="554.51,-290.42 544.12,-292.48 553.53,-297.35 554.51,-290.42"/>
</a>
</g>
</g>
<!-- Node16 -->
<g id="Node000016" class="node">
<title>Node16</title>
<g id="a_Node000016"><a xlink:href="_nuki_utils_8h.html" target="_top" xlink:title=" ">
<polygon fill="white" stroke="#666666" points="1010.55,-185 946.55,-185 946.55,-165.75 1010.55,-165.75 1010.55,-185"/>
<text text-anchor="middle" x="978.55" y="-171.5" font-family="Helvetica,sans-Serif" font-size="10.00">NukiUtils.h</text>
</a>
</g>
</g>
<!-- Node1&#45;&gt;Node16 -->
<g id="edge21_Node000001_Node000016" class="edge">
<title>Node1&#45;&gt;Node16</title>
<g id="a_edge21_Node000001_Node000016"><a xlink:title=" ">
<path fill="none" stroke="#63b8ff" d="M885.81,-331.32C901.24,-305.55 946.51,-229.9 967.56,-194.74"/>
<polygon fill="#63b8ff" stroke="#63b8ff" points="970.34,-196.9 972.47,-186.52 964.33,-193.3 970.34,-196.9"/>
</a>
</g>
</g>
<!-- Node18 -->
<g id="Node000018" class="node">
<title>Node18</title>
<g id="a_Node000018"><a xlink:href="_nuki_opener_utils_8h.html" target="_top" xlink:title=" ">
<polygon fill="white" stroke="#666666" points="928.3,-185 832.8,-185 832.8,-165.75 928.3,-165.75 928.3,-185"/>
<text text-anchor="middle" x="880.55" y="-171.5" font-family="Helvetica,sans-Serif" font-size="10.00">NukiOpenerUtils.h</text>
</a>
</g>
</g>
<!-- Node1&#45;&gt;Node18 -->
<g id="edge26_Node000001_Node000018" class="edge">
<title>Node1&#45;&gt;Node18</title>
<g id="a_edge26_Node000001_Node000018"><a xlink:title=" ">
<path fill="none" stroke="#63b8ff" d="M880.55,-331.32C880.55,-306 880.55,-232.5 880.55,-196.59"/>
<polygon fill="#63b8ff" stroke="#63b8ff" points="884.05,-196.74 880.55,-186.74 877.05,-196.74 884.05,-196.74"/>
</a>
</g>
</g>
<!-- Node3 -->
<g id="Node000003" class="node">
<title>Node3</title>
<g id="a_Node000003"><a xlink:href="_nuki_ble_8h.html" target="_top" xlink:title=" ">
<polygon fill="white" stroke="#666666" points="533.55,-240.25 475.55,-240.25 475.55,-221 533.55,-221 533.55,-240.25"/>
<text text-anchor="middle" x="504.55" y="-226.75" font-family="Helvetica,sans-Serif" font-size="10.00">NukiBle.h</text>
</a>
</g>
</g>
<!-- Node2&#45;&gt;Node3 -->
<g id="edge2_Node000002_Node000003" class="edge">
<title>Node2&#45;&gt;Node3</title>
<g id="a_edge2_Node000002_Node000003"><a xlink:title=" ">
<path fill="none" stroke="#63b8ff" d="M504.55,-276.08C504.55,-269.57 504.55,-260.42 504.55,-252.12"/>
<polygon fill="#63b8ff" stroke="#63b8ff" points="508.05,-252.12 504.55,-242.12 501.05,-252.12 508.05,-252.12"/>
</a>
</g>
</g>
<!-- Node15 -->
<g id="Node000015" class="node">
<title>Node15</title>
<g id="a_Node000015"><a xlink:href="_nuki_opener_constants_8h.html" target="_top" xlink:title=" ">
<polygon fill="white" stroke="#666666" points="614.3,-129.75 494.8,-129.75 494.8,-110.5 614.3,-110.5 614.3,-129.75"/>
<text text-anchor="middle" x="554.55" y="-116.25" font-family="Helvetica,sans-Serif" font-size="10.00">NukiOpenerConstants.h</text>
</a>
</g>
</g>
<!-- Node2&#45;&gt;Node15 -->
<g id="edge18_Node000002_Node000015" class="edge">
<title>Node2&#45;&gt;Node15</title>
<g id="a_edge18_Node000002_Node000015"><a xlink:title=" ">
<path fill="none" stroke="#63b8ff" d="M466.74,-282.19C340.15,-272.49 -57.33,-236.13 7.55,-165.75 39.13,-131.49 341.86,-123.53 482.89,-121.68"/>
<polygon fill="#63b8ff" stroke="#63b8ff" points="482.93,-125.18 492.88,-121.56 482.84,-118.18 482.93,-125.18"/>
</a>
</g>
</g>
<!-- Node4 -->
<g id="Node000004" class="node">
<title>Node4</title>
<g id="a_Node000004"><a xlink:title=" ">
<polygon fill="#e0e0e0" stroke="#999999" points="614.67,-185 524.42,-185 524.42,-165.75 614.67,-165.75 614.67,-185"/>
<text text-anchor="middle" x="569.55" y="-171.5" font-family="Helvetica,sans-Serif" font-size="10.00">NimBLEDevice.h</text>
</a>
</g>
</g>
<!-- Node3&#45;&gt;Node4 -->
<g id="edge3_Node000003_Node000004" class="edge">
<title>Node3&#45;&gt;Node4</title>
<g id="a_edge3_Node000003_Node000004"><a xlink:title=" ">
<path fill="none" stroke="#63b8ff" d="M515.57,-220.59C524.97,-212.9 538.69,-201.65 549.95,-192.43"/>
<polygon fill="#63b8ff" stroke="#63b8ff" points="551.99,-195.28 557.51,-186.23 547.56,-189.86 551.99,-195.28"/>
</a>
</g>
</g>
<!-- Node5 -->
<g id="Node000005" class="node">
<title>Node5</title>
<g id="a_Node000005"><a xlink:href="_nuki_constants_8h.html" target="_top" xlink:title=" ">
<polygon fill="white" stroke="#666666" points="705.55,-74.5 617.55,-74.5 617.55,-55.25 705.55,-55.25 705.55,-74.5"/>
<text text-anchor="middle" x="661.55" y="-61" font-family="Helvetica,sans-Serif" font-size="10.00">NukiConstants.h</text>
</a>
</g>
</g>
<!-- Node3&#45;&gt;Node5 -->
<g id="edge4_Node000003_Node000005" class="edge">
<title>Node3&#45;&gt;Node5</title>
<g id="a_edge4_Node000003_Node000005"><a xlink:title=" ">
<path fill="none" stroke="#63b8ff" d="M533.97,-225.93C560.82,-221.06 599.82,-209.94 623.55,-185 649.53,-157.69 657.75,-112.61 660.34,-86.44"/>
<polygon fill="#63b8ff" stroke="#63b8ff" points="663.83,-86.72 661.12,-76.48 656.85,-86.18 663.83,-86.72"/>
</a>
</g>
</g>
<!-- Node7 -->
<g id="Node000007" class="node">
<title>Node7</title>
<g id="a_Node000007"><a xlink:href="_nuki_data_types_8h.html" target="_top" xlink:title=" ">
<polygon fill="white" stroke="#666666" points="798.67,-129.75 708.42,-129.75 708.42,-110.5 798.67,-110.5 798.67,-129.75"/>
<text text-anchor="middle" x="753.55" y="-116.25" font-family="Helvetica,sans-Serif" font-size="10.00">NukiDataTypes.h</text>
</a>
</g>
</g>
<!-- Node3&#45;&gt;Node7 -->
<g id="edge6_Node000003_Node000007" class="edge">
<title>Node3&#45;&gt;Node7</title>
<g id="a_edge6_Node000003_Node000007"><a xlink:title=" ">
<path fill="none" stroke="#63b8ff" d="M533.66,-228.53C591.8,-225.69 719.16,-216 747.55,-185 758.25,-173.31 758.91,-154.88 757.38,-140.81"/>
<polygon fill="#63b8ff" stroke="#63b8ff" points="760.9,-140.69 755.91,-131.35 753.99,-141.77 760.9,-140.69"/>
</a>
</g>
</g>
<!-- Node8 -->
<g id="Node000008" class="node">
<title>Node8</title>
<g id="a_Node000008"><a xlink:title=" ">
<polygon fill="#e0e0e0" stroke="#999999" points="873.8,-74.5 817.3,-74.5 817.3,-55.25 873.8,-55.25 873.8,-74.5"/>
<text text-anchor="middle" x="845.55" y="-61" font-family="Helvetica,sans-Serif" font-size="10.00">Arduino.h</text>
</a>
</g>
</g>
<!-- Node3&#45;&gt;Node8 -->
<g id="edge9_Node000003_Node000008" class="edge">
<title>Node3&#45;&gt;Node8</title>
<g id="a_edge9_Node000003_Node000008"><a xlink:title=" ">
<path fill="none" stroke="#63b8ff" d="M533.71,-227.4C593.54,-222.39 727.81,-208.78 766.55,-185 804.5,-161.7 828.06,-112.54 838.76,-85.21"/>
<polygon fill="#63b8ff" stroke="#63b8ff" points="841.95,-86.68 842.14,-76.09 835.38,-84.25 841.95,-86.68"/>
</a>
</g>
</g>
<!-- Node9 -->
<g id="Node000009" class="node">
<title>Node9</title>
<g id="a_Node000009"><a xlink:title=" ">
<polygon fill="#e0e0e0" stroke="#999999" points="92.55,-185 16.55,-185 16.55,-165.75 92.55,-165.75 92.55,-185"/>
<text text-anchor="middle" x="54.55" y="-171.5" font-family="Helvetica,sans-Serif" font-size="10.00">Preferences.h</text>
</a>
</g>
</g>
<!-- Node3&#45;&gt;Node9 -->
<g id="edge10_Node000003_Node000009" class="edge">
<title>Node3&#45;&gt;Node9</title>
<g id="a_edge10_Node000003_Node000009"><a xlink:title=" ">
<path fill="none" stroke="#63b8ff" d="M475.13,-227.09C410.15,-221.34 249.28,-206.26 104.28,-185.31"/>
<polygon fill="#63b8ff" stroke="#63b8ff" points="104.88,-181.86 94.48,-183.88 103.87,-188.79 104.88,-181.86"/>
</a>
</g>
</g>
<!-- Node10 -->
<g id="Node000010" class="node">
<title>Node10</title>
<g id="a_Node000010"><a xlink:title=" ">
<polygon fill="#e0e0e0" stroke="#999999" points="194.67,-185 110.42,-185 110.42,-165.75 194.67,-165.75 194.67,-185"/>
<text text-anchor="middle" x="152.55" y="-171.5" font-family="Helvetica,sans-Serif" font-size="10.00">esp_task_wdt.h</text>
</a>
</g>
</g>
<!-- Node3&#45;&gt;Node10 -->
<g id="edge11_Node000003_Node000010" class="edge">
<title>Node3&#45;&gt;Node10</title>
<g id="a_edge11_Node000003_Node000010"><a xlink:title=" ">
<path fill="none" stroke="#63b8ff" d="M475.46,-225.51C423.54,-218.13 311.23,-201.97 206.23,-185.4"/>
<polygon fill="#63b8ff" stroke="#63b8ff" points="207.03,-181.98 196.61,-183.88 205.94,-188.9 207.03,-181.98"/>
</a>
</g>
</g>
<!-- Node11 -->
<g id="Node000011" class="node">
<title>Node11</title>
<g id="a_Node000011"><a xlink:title=" ">
<polygon fill="#e0e0e0" stroke="#999999" points="294.17,-185 212.92,-185 212.92,-165.75 294.17,-165.75 294.17,-185"/>
<text text-anchor="middle" x="253.55" y="-171.5" font-family="Helvetica,sans-Serif" font-size="10.00">BleInterfaces.h</text>
</a>
</g>
</g>
<!-- Node3&#45;&gt;Node11 -->
<g id="edge12_Node000003_Node000011" class="edge">
<title>Node3&#45;&gt;Node11</title>
<g id="a_edge12_Node000003_Node000011"><a xlink:title=" ">
<path fill="none" stroke="#63b8ff" d="M475.26,-223.41C433.66,-214.59 356.82,-198.28 305.44,-187.38"/>
<polygon fill="#63b8ff" stroke="#63b8ff" points="306.23,-183.97 295.72,-185.32 304.78,-190.82 306.23,-183.97"/>
</a>
</g>
</g>
<!-- Node12 -->
<g id="Node000012" class="node">
<title>Node12</title>
<g id="a_Node000012"><a xlink:title=" ">
<polygon fill="#e0e0e0" stroke="#999999" points="357.17,-185 311.92,-185 311.92,-165.75 357.17,-165.75 357.17,-185"/>
<text text-anchor="middle" x="334.55" y="-171.5" font-family="Helvetica,sans-Serif" font-size="10.00">atomic</text>
</a>
</g>
</g>
<!-- Node3&#45;&gt;Node12 -->
<g id="edge13_Node000003_Node000012" class="edge">
<title>Node3&#45;&gt;Node12</title>
<g id="a_edge13_Node000003_Node000012"><a xlink:title=" ">
<path fill="none" stroke="#63b8ff" d="M475.71,-220.59C446.01,-211.29 399.76,-196.8 368.36,-186.97"/>
<polygon fill="#63b8ff" stroke="#63b8ff" points="369.55,-183.67 358.96,-184.02 367.46,-190.35 369.55,-183.67"/>
</a>
</g>
</g>
<!-- Node13 -->
<g id="Node000013" class="node">
<title>Node13</title>
<g id="a_Node000013"><a xlink:title=" ">
<polygon fill="#e0e0e0" stroke="#999999" points="506.3,-185 374.8,-185 374.8,-165.75 506.3,-165.75 506.3,-185"/>
<text text-anchor="middle" x="440.55" y="-171.5" font-family="Helvetica,sans-Serif" font-size="10.00">sodium/crypto_secretbox.h</text>
</a>
</g>
</g>
<!-- Node3&#45;&gt;Node13 -->
<g id="edge14_Node000003_Node000013" class="edge">
<title>Node3&#45;&gt;Node13</title>
<g id="a_edge14_Node000003_Node000013"><a xlink:title=" ">
<path fill="none" stroke="#63b8ff" d="M493.69,-220.59C484.44,-212.9 470.92,-201.65 459.84,-192.43"/>
<polygon fill="#63b8ff" stroke="#63b8ff" points="462.33,-189.95 452.41,-186.24 457.85,-195.33 462.33,-189.95"/>
</a>
</g>
</g>
<!-- Node14 -->
<g id="Node000014" class="node">
<title>Node14</title>
<g id="a_Node000014"><a xlink:href="_nuki_ble_8hpp.html" target="_top" xlink:title=" ">
<polygon fill="white" stroke="#666666" points="738.8,-185 670.3,-185 670.3,-165.75 738.8,-165.75 738.8,-185"/>
<text text-anchor="middle" x="704.55" y="-171.5" font-family="Helvetica,sans-Serif" font-size="10.00">NukiBle.hpp</text>
</a>
</g>
</g>
<!-- Node3&#45;&gt;Node14 -->
<g id="edge15_Node000003_Node000014" class="edge">
<title>Node3&#45;&gt;Node14</title>
<g id="a_edge15_Node000003_Node000014"><a xlink:title=" ">
<path fill="none" stroke="#63b8ff" d="M533.63,-221.88C566.66,-213.09 620.96,-198.63 659.49,-188.37"/>
<polygon fill="#63b8ff" stroke="#63b8ff" points="660.18,-191.81 668.94,-185.86 658.37,-185.05 660.18,-191.81"/>
</a>
</g>
</g>
<!-- Node6 -->
<g id="Node000006" class="node">
<title>Node6</title>
<g id="a_Node000006"><a xlink:title=" ">
<polygon fill="#e0e0e0" stroke="#999999" points="660.05,-19.25 575.05,-19.25 575.05,0 660.05,0 660.05,-19.25"/>
<text text-anchor="middle" x="617.55" y="-5.75" font-family="Helvetica,sans-Serif" font-size="10.00">NimBLEUUID.h</text>
</a>
</g>
</g>
<!-- Node5&#45;&gt;Node6 -->
<g id="edge5_Node000005_Node000006" class="edge">
<title>Node5&#45;&gt;Node6</title>
<g id="a_edge5_Node000005_Node000006"><a xlink:title=" ">
<path fill="none" stroke="#63b8ff" d="M654.28,-55.08C648.27,-47.8 639.53,-37.23 632.09,-28.23"/>
<polygon fill="#63b8ff" stroke="#63b8ff" points="635,-26.26 625.93,-20.78 629.61,-30.71 635,-26.26"/>
</a>
</g>
</g>
<!-- Node7&#45;&gt;Node5 -->
<g id="edge8_Node000007_Node000005" class="edge">
<title>Node7&#45;&gt;Node5</title>
<g id="a_edge8_Node000007_Node000005"><a xlink:title=" ">
<path fill="none" stroke="#63b8ff" d="M737.94,-110.09C723.93,-101.98 703.11,-89.93 686.74,-80.46"/>
<polygon fill="#63b8ff" stroke="#63b8ff" points="688.95,-77.69 678.54,-75.71 685.44,-83.75 688.95,-77.69"/>
</a>
</g>
</g>
<!-- Node7&#45;&gt;Node8 -->
<g id="edge7_Node000007_Node000008" class="edge">
<title>Node7&#45;&gt;Node8</title>
<g id="a_edge7_Node000007_Node000008"><a xlink:title=" ">
<path fill="none" stroke="#63b8ff" d="M769.15,-110.09C783.16,-101.98 803.98,-89.93 820.35,-80.46"/>
<polygon fill="#63b8ff" stroke="#63b8ff" points="821.65,-83.75 828.55,-75.71 818.14,-77.69 821.65,-83.75"/>
</a>
</g>
</g>
<!-- Node14&#45;&gt;Node5 -->
<g id="edge16_Node000014_Node000005" class="edge">
<title>Node14&#45;&gt;Node5</title>
<g id="a_edge16_Node000014_Node000005"><a xlink:title=" ">
<path fill="none" stroke="#63b8ff" d="M701.03,-165.5C694.13,-148.09 678.69,-109.12 669.29,-85.41"/>
<polygon fill="#63b8ff" stroke="#63b8ff" points="672.61,-84.29 665.67,-76.28 666.1,-86.87 672.61,-84.29"/>
</a>
</g>
</g>
<!-- Node14&#45;&gt;Node7 -->
<g id="edge17_Node000014_Node000007" class="edge">
<title>Node14&#45;&gt;Node7</title>
<g id="a_edge17_Node000014_Node000007"><a xlink:title=" ">
<path fill="none" stroke="#63b8ff" d="M712.64,-165.58C719.41,-158.23 729.27,-147.51 737.61,-138.44"/>
<polygon fill="#63b8ff" stroke="#63b8ff" points="740.06,-140.95 744.25,-131.22 734.91,-136.21 740.06,-140.95"/>
</a>
</g>
</g>
<!-- Node15&#45;&gt;Node5 -->
<g id="edge20_Node000015_Node000005" class="edge">
<title>Node15&#45;&gt;Node5</title>
<g id="a_edge20_Node000015_Node000005"><a xlink:title=" ">
<path fill="none" stroke="#63b8ff" d="M572.7,-110.09C589.22,-101.87 613.89,-89.59 633.04,-80.06"/>
<polygon fill="#63b8ff" stroke="#63b8ff" points="634.56,-83.22 641.95,-75.63 631.44,-76.95 634.56,-83.22"/>
</a>
</g>
</g>
<!-- Node15&#45;&gt;Node6 -->
<g id="edge19_Node000015_Node000006" class="edge">
<title>Node15&#45;&gt;Node6</title>
<g id="a_edge19_Node000015_Node000006"><a xlink:title=" ">
<path fill="none" stroke="#63b8ff" d="M559.7,-110.25C569.9,-92.68 592.85,-53.16 606.58,-29.52"/>
<polygon fill="#63b8ff" stroke="#63b8ff" points="609.56,-31.34 611.56,-20.94 603.51,-27.83 609.56,-31.34"/>
</a>
</g>
</g>
<!-- Node16&#45;&gt;Node5 -->
<g id="edge24_Node000016_Node000005" class="edge">
<title>Node16&#45;&gt;Node5</title>
<g id="a_edge24_Node000016_Node000005"><a xlink:title=" ">
<path fill="none" stroke="#63b8ff" d="M976.17,-165.69C971.82,-151.6 961.19,-124 941.55,-110.5 906.04,-86.11 788.23,-74.21 717.23,-69.13"/>
<polygon fill="#63b8ff" stroke="#63b8ff" points="717.56,-65.64 707.34,-68.44 717.08,-72.62 717.56,-65.64"/>
</a>
</g>
</g>
<!-- Node16&#45;&gt;Node7 -->
<g id="edge23_Node000016_Node000007" class="edge">
<title>Node16&#45;&gt;Node7</title>
<g id="a_edge23_Node000016_Node000007"><a xlink:title=" ">
<path fill="none" stroke="#63b8ff" d="M946.31,-166.75C908.75,-157.86 846.29,-143.07 802.68,-132.75"/>
<polygon fill="#63b8ff" stroke="#63b8ff" points="803.76,-129.41 793.22,-130.51 802.14,-136.22 803.76,-129.41"/>
</a>
</g>
</g>
<!-- Node16&#45;&gt;Node8 -->
<g id="edge22_Node000016_Node000008" class="edge">
<title>Node16&#45;&gt;Node8</title>
<g id="a_edge22_Node000016_Node000008"><a xlink:title=" ">
<path fill="none" stroke="#63b8ff" d="M980.8,-165.48C983.64,-152.09 986.79,-126.6 974.55,-110.5 953.71,-83.11 915,-72.43 885.4,-68.32"/>
<polygon fill="#63b8ff" stroke="#63b8ff" points="886,-64.87 875.66,-67.19 885.19,-71.82 886,-64.87"/>
</a>
</g>
</g>
<!-- Node17 -->
<g id="Node000017" class="node">
<title>Node17</title>
<g id="a_Node000017"><a xlink:title=" ">
<polygon fill="#e0e0e0" stroke="#999999" points="932.55,-129.75 892.55,-129.75 892.55,-110.5 932.55,-110.5 932.55,-129.75"/>
<text text-anchor="middle" x="912.55" y="-116.25" font-family="Helvetica,sans-Serif" font-size="10.00">bitset</text>
</a>
</g>
</g>
<!-- Node16&#45;&gt;Node17 -->
<g id="edge25_Node000016_Node000017" class="edge">
<title>Node16&#45;&gt;Node17</title>
<g id="a_edge25_Node000016_Node000017"><a xlink:title=" ">
<path fill="none" stroke="#63b8ff" d="M967.35,-165.34C957.81,-157.65 943.87,-146.4 932.44,-137.18"/>
<polygon fill="#63b8ff" stroke="#63b8ff" points="934.73,-134.53 924.75,-130.98 930.34,-139.98 934.73,-134.53"/>
</a>
</g>
</g>
<!-- Node18&#45;&gt;Node7 -->
<g id="edge28_Node000018_Node000007" class="edge">
<title>Node18&#45;&gt;Node7</title>
<g id="a_edge28_Node000018_Node000007"><a xlink:title=" ">
<path fill="none" stroke="#63b8ff" d="M859,-165.34C838.93,-156.93 808.74,-144.27 785.8,-134.65"/>
<polygon fill="#63b8ff" stroke="#63b8ff" points="787.17,-131.43 776.59,-130.79 784.46,-137.88 787.17,-131.43"/>
</a>
</g>
</g>
<!-- Node18&#45;&gt;Node8 -->
<g id="edge27_Node000018_Node000008" class="edge">
<title>Node18&#45;&gt;Node8</title>
<g id="a_edge27_Node000018_Node000008"><a xlink:title=" ">
<path fill="none" stroke="#63b8ff" d="M877.68,-165.5C872.09,-148.17 859.61,-109.48 851.95,-85.74"/>
<polygon fill="#63b8ff" stroke="#63b8ff" points="855.32,-84.76 848.91,-76.32 848.65,-86.91 855.32,-84.76"/>
</a>
</g>
</g>
<!-- Node18&#45;&gt;Node15 -->
<g id="edge29_Node000018_Node000015" class="edge">
<title>Node18&#45;&gt;Node15</title>
<g id="a_edge29_Node000018_Node000015"><a xlink:title=" ">
<path fill="none" stroke="#63b8ff" d="M832.44,-166.52C776.55,-157.39 684,-142.27 621.2,-132.01"/>
<polygon fill="#63b8ff" stroke="#63b8ff" points="622.15,-128.62 611.72,-130.46 621.02,-135.53 622.15,-128.62"/>
</a>
</g>
</g>
<!-- Node18&#45;&gt;Node17 -->
<g id="edge30_Node000018_Node000017" class="edge">
<title>Node18&#45;&gt;Node17</title>
<g id="a_edge30_Node000018_Node000017"><a xlink:title=" ">
<path fill="none" stroke="#63b8ff" d="M885.83,-165.58C890.02,-158.61 896.02,-148.62 901.28,-139.87"/>
<polygon fill="#63b8ff" stroke="#63b8ff" points="904.22,-141.78 906.37,-131.41 898.22,-138.18 904.22,-141.78"/>
</a>
</g>
</g>
</g>
</svg>
