<?xml version="1.0" encoding="UTF-8" standalone="no"?>
<!DOCTYPE svg PUBLIC "-//W3C//DTD SVG 1.1//EN"
 "http://www.w3.org/Graphics/SVG/1.1/DTD/svg11.dtd">
<!-- Generated by graphviz version 8.0.1 (20230327.1645)
 -->
<!-- Title: src/NukiOpener.h Pages: 1 -->
<svg width="911pt" height="302pt"
 viewBox="0.00 0.00 910.50 302.00" xmlns="http://www.w3.org/2000/svg" xmlns:xlink="http://www.w3.org/1999/xlink">
<g id="graph0" class="graph" transform="scale(1 1) rotate(0) translate(4 298)">
<title>src/NukiOpener.h</title>
<!-- Node1 -->
<g id="node1" class="node">
<title>Node1</title>
<g id="a_node1"><a xlink:title=" ">
<polygon fill="#999999" stroke="#666666" points="243,-294 151,-294 151,-275 243,-275 243,-294"/>
<text text-anchor="middle" x="197" y="-282" font-family="Helvetica,sans-Serif" font-size="10.00">src/NukiOpener.h</text>
</a>
</g>
</g>
<!-- Node2 -->
<g id="node2" class="node">
<title>Node2</title>
<g id="a_node2"><a xlink:href="_nuki_ble_8h.html" target="_top" xlink:title=" ">
<polygon fill="white" stroke="#666666" points="396.5,-239 337.5,-239 337.5,-220 396.5,-220 396.5,-239"/>
<text text-anchor="middle" x="367" y="-227" font-family="Helvetica,sans-Serif" font-size="10.00">NukiBle.h</text>
</a>
</g>
</g>
<!-- Node1&#45;&gt;Node2 -->
<g id="edge1" class="edge">
<title>Node1&#45;&gt;Node2</title>
<path fill="none" stroke="#63b8ff" d="M225.84,-274.51C253.89,-265.76 296.7,-252.42 327.83,-242.71"/>
<polygon fill="#63b8ff" stroke="#63b8ff" points="328.8,-245.76 337.3,-239.45 326.72,-239.08 328.8,-245.76"/>
</g>
<!-- Node13 -->
<g id="node13" class="node">
<title>Node13</title>
<g id="a_node13"><a xlink:href="_nuki_opener_constants_8h.html" target="_top" xlink:title=" ">
<polygon fill="white" stroke="#666666" points="120,-129 0,-129 0,-110 120,-110 120,-129"/>
<text text-anchor="middle" x="60" y="-117" font-family="Helvetica,sans-Serif" font-size="10.00">NukiOpenerConstants.h</text>
</a>
</g>
</g>
<!-- Node1&#45;&gt;Node13 -->
<g id="edge16" class="edge">
<title>Node1&#45;&gt;Node13</title>
<path fill="none" stroke="#63b8ff" d="M189.63,-274.74C167.8,-248.76 103.14,-171.83 74.24,-137.44"/>
<polygon fill="#63b8ff" stroke="#63b8ff" points="76.52,-135.71 67.4,-130.31 71.16,-140.21 76.52,-135.71"/>
</g>
<!-- Node3 -->
<g id="node3" class="node">
<title>Node3</title>
<g id="a_node3"><a xlink:title=" ">
<polygon fill="#e0e0e0" stroke="#999999" points="902.5,-184 811.5,-184 811.5,-165 902.5,-165 902.5,-184"/>
<text text-anchor="middle" x="857" y="-172" font-family="Helvetica,sans-Serif" font-size="10.00">NimBLEDevice.h</text>
</a>
</g>
</g>
<!-- Node2&#45;&gt;Node3 -->
<g id="edge2" class="edge">
<title>Node2&#45;&gt;Node3</title>
<path fill="none" stroke="#63b8ff" d="M396.86,-225.98C465.86,-220.04 641.94,-204.23 800.23,-184.16"/>
<polygon fill="#63b8ff" stroke="#63b8ff" points="800.63,-187.51 810.11,-182.77 799.75,-180.57 800.63,-187.51"/>
</g>
<!-- Node4 -->
<g id="node4" class="node">
<title>Node4</title>
<g id="a_node4"><a xlink:href="_nuki_constants_8h.html" target="_top" xlink:title=" ">
<polygon fill="white" stroke="#666666" points="192.5,-74 103.5,-74 103.5,-55 192.5,-55 192.5,-74"/>
<text text-anchor="middle" x="148" y="-62" font-family="Helvetica,sans-Serif" font-size="10.00">NukiConstants.h</text>
</a>
</g>
</g>
<!-- Node2&#45;&gt;Node4 -->
<g id="edge3" class="edge">
<title>Node2&#45;&gt;Node4</title>
<path fill="none" stroke="#63b8ff" d="M337.04,-229.16C298.28,-228.37 230.9,-221.21 190,-184 161.57,-158.13 152.38,-111.77 149.41,-85.36"/>
<polygon fill="#63b8ff" stroke="#63b8ff" points="152.81,-85.11 148.42,-75.47 145.84,-85.75 152.81,-85.11"/>
</g>
<!-- Node6 -->
<g id="node6" class="node">
<title>Node6</title>
<g id="a_node6"><a xlink:href="_nuki_data_types_8h.html" target="_top" xlink:title=" ">
<polygon fill="white" stroke="#666666" points="305.5,-129 214.5,-129 214.5,-110 305.5,-110 305.5,-129"/>
<text text-anchor="middle" x="260" y="-117" font-family="Helvetica,sans-Serif" font-size="10.00">NukiDataTypes.h</text>
</a>
</g>
</g>
<!-- Node2&#45;&gt;Node6 -->
<g id="edge5" class="edge">
<title>Node2&#45;&gt;Node6</title>
<path fill="none" stroke="#63b8ff" d="M357.49,-219.79C347.89,-210.92 332.71,-196.72 320,-184 304.5,-168.48 287.36,-150.23 275.39,-137.29"/>
<polygon fill="#63b8ff" stroke="#63b8ff" points="278.35,-135.26 269,-130.27 273.2,-140 278.35,-135.26"/>
</g>
<!-- Node7 -->
<g id="node7" class="node">
<title>Node7</title>
<g id="a_node7"><a xlink:title=" ">
<polygon fill="#e0e0e0" stroke="#999999" points="325.5,-74 268.5,-74 268.5,-55 325.5,-55 325.5,-74"/>
<text text-anchor="middle" x="297" y="-62" font-family="Helvetica,sans-Serif" font-size="10.00">Arduino.h</text>
</a>
</g>
</g>
<!-- Node2&#45;&gt;Node7 -->
<g id="edge8" class="edge">
<title>Node2&#45;&gt;Node7</title>
<path fill="none" stroke="#63b8ff" d="M363.24,-219.74C352.27,-194.2 320.16,-119.43 305.04,-84.23"/>
<polygon fill="#63b8ff" stroke="#63b8ff" points="307.94,-83.11 300.78,-75.31 301.51,-85.88 307.94,-83.11"/>
</g>
<!-- Node8 -->
<g id="node8" class="node">
<title>Node8</title>
<g id="a_node8"><a xlink:title=" ">
<polygon fill="#e0e0e0" stroke="#999999" points="439.5,-184 362.5,-184 362.5,-165 439.5,-165 439.5,-184"/>
<text text-anchor="middle" x="401" y="-172" font-family="Helvetica,sans-Serif" font-size="10.00">Preferences.h</text>
</a>
</g>
</g>
<!-- Node2&#45;&gt;Node8 -->
<g id="edge9" class="edge">
<title>Node2&#45;&gt;Node8</title>
<path fill="none" stroke="#63b8ff" d="M372.61,-219.75C377.16,-212.66 383.73,-202.42 389.4,-193.59"/>
<polygon fill="#63b8ff" stroke="#63b8ff" points="392.81,-195.75 395.26,-185.44 386.92,-191.97 392.81,-195.75"/>
</g>
<!-- Node9 -->
<g id="node9" class="node">
<title>Node9</title>
<g id="a_node9"><a xlink:title=" ">
<polygon fill="#e0e0e0" stroke="#999999" points="542.5,-184 457.5,-184 457.5,-165 542.5,-165 542.5,-184"/>
<text text-anchor="middle" x="500" y="-172" font-family="Helvetica,sans-Serif" font-size="10.00">esp_task_wdt.h</text>
</a>
</g>
</g>
<!-- Node2&#45;&gt;Node9 -->
<g id="edge10" class="edge">
<title>Node2&#45;&gt;Node9</title>
<path fill="none" stroke="#63b8ff" d="M389.56,-219.51C411,-210.97 443.45,-198.03 467.64,-188.4"/>
<polygon fill="#63b8ff" stroke="#63b8ff" points="468.78,-191.31 476.77,-184.36 466.19,-184.81 468.78,-191.31"/>
</g>
<!-- Node10 -->
<g id="node10" class="node">
<title>Node10</title>
<g id="a_node10"><a xlink:title=" ">
<polygon fill="#e0e0e0" stroke="#999999" points="643,-184 561,-184 561,-165 643,-165 643,-184"/>
<text text-anchor="middle" x="602" y="-172" font-family="Helvetica,sans-Serif" font-size="10.00">BleInterfaces.h</text>
</a>
</g>
</g>
<!-- Node2&#45;&gt;Node10 -->
<g id="edge11" class="edge">
<title>Node2&#45;&gt;Node10</title>
<path fill="none" stroke="#63b8ff" d="M396.76,-221.79C435.72,-213 504.57,-197.47 551.7,-186.84"/>
<polygon fill="#63b8ff" stroke="#63b8ff" points="552.31,-190.07 561.29,-184.46 550.77,-183.24 552.31,-190.07"/>
</g>
<!-- Node11 -->
<g id="node11" class="node">
<title>Node11</title>
<g id="a_node11"><a xlink:title=" ">
<polygon fill="#e0e0e0" stroke="#999999" points="793,-184 661,-184 661,-165 793,-165 793,-184"/>
<text text-anchor="middle" x="727" y="-172" font-family="Helvetica,sans-Serif" font-size="10.00">sodium/crypto_secretbox.h</text>
</a>
</g>
</g>
<!-- Node2&#45;&gt;Node11 -->
<g id="edge12" class="edge">
<title>Node2&#45;&gt;Node11</title>
<path fill="none" stroke="#63b8ff" d="M396.77,-224.12C453,-215.84 576.27,-197.69 655.27,-186.06"/>
<polygon fill="#63b8ff" stroke="#63b8ff" points="655.73,-189.38 665.11,-184.46 654.71,-182.46 655.73,-189.38"/>
</g>
<!-- Node12 -->
<g id="node12" class="node">
<title>Node12</title>
<g id="a_node12"><a xlink:href="_nuki_ble_8hpp.html" target="_top" xlink:title=" ">
<polygon fill="white" stroke="#666666" points="267.5,-184 198.5,-184 198.5,-165 267.5,-165 267.5,-184"/>
<text text-anchor="middle" x="233" y="-172" font-family="Helvetica,sans-Serif" font-size="10.00">NukiBle.hpp</text>
</a>
</g>
</g>
<!-- Node2&#45;&gt;Node12 -->
<g id="edge13" class="edge">
<title>Node2&#45;&gt;Node12</title>
<path fill="none" stroke="#63b8ff" d="M344.27,-219.51C322.67,-210.97 289.97,-198.03 265.6,-188.4"/>
<polygon fill="#63b8ff" stroke="#63b8ff" points="266.98,-184.78 256.4,-184.36 264.41,-191.29 266.98,-184.78"/>
</g>
<!-- Node5 -->
<g id="node5" class="node">
<title>Node5</title>
<g id="a_node5"><a xlink:title=" ">
<polygon fill="#e0e0e0" stroke="#999999" points="147,-19 61,-19 61,0 147,0 147,-19"/>
<text text-anchor="middle" x="104" y="-7" font-family="Helvetica,sans-Serif" font-size="10.00">NimBLEUUID.h</text>
</a>
</g>
</g>
<!-- Node4&#45;&gt;Node5 -->
<g id="edge4" class="edge">
<title>Node4&#45;&gt;Node5</title>
<path fill="none" stroke="#63b8ff" d="M140.73,-54.75C134.66,-47.43 125.8,-36.76 118.31,-27.74"/>
<polygon fill="#63b8ff" stroke="#63b8ff" points="120.5,-25.9 111.42,-20.44 115.12,-30.37 120.5,-25.9"/>
</g>
<!-- Node6&#45;&gt;Node4 -->
<g id="edge7" class="edge">
<title>Node6&#45;&gt;Node4</title>
<path fill="none" stroke="#63b8ff" d="M241,-109.51C223.36,-101.16 196.84,-88.61 176.63,-79.05"/>
<polygon fill="#63b8ff" stroke="#63b8ff" points="178.25,-75.47 167.72,-74.36 175.26,-81.8 178.25,-75.47"/>
</g>
<!-- Node6&#45;&gt;Node7 -->
<g id="edge6" class="edge">
<title>Node6&#45;&gt;Node7</title>
<path fill="none" stroke="#63b8ff" d="M266.11,-109.75C271.11,-102.58 278.36,-92.2 284.57,-83.3"/>
<polygon fill="#63b8ff" stroke="#63b8ff" points="287.9,-85.65 290.76,-75.44 282.16,-81.64 287.9,-85.65"/>
</g>
<!-- Node12&#45;&gt;Node4 -->
<g id="edge14" class="edge">
<title>Node12&#45;&gt;Node4</title>
<path fill="none" stroke="#63b8ff" d="M226.04,-164.66C212.04,-146.86 180.2,-106.41 161.81,-83.04"/>
<polygon fill="#63b8ff" stroke="#63b8ff" points="163.99,-81.15 155.05,-75.46 158.49,-85.48 163.99,-81.15"/>
</g>
<!-- Node12&#45;&gt;Node6 -->
<g id="edge15" class="edge">
<title>Node12&#45;&gt;Node6</title>
<path fill="none" stroke="#63b8ff" d="M237.46,-164.75C240.99,-157.81 246.06,-147.86 250.49,-139.16"/>
<polygon fill="#63b8ff" stroke="#63b8ff" points="254.02,-140.94 255.44,-130.44 247.79,-137.76 254.02,-140.94"/>
</g>
<!-- Node13&#45;&gt;Node4 -->
<g id="edge18" class="edge">
<title>Node13&#45;&gt;Node4</title>
<path fill="none" stroke="#63b8ff" d="M74.93,-109.51C88.41,-101.39 108.48,-89.3 124.18,-79.85"/>
<polygon fill="#63b8ff" stroke="#63b8ff" points="125.53,-82.52 132.29,-74.36 121.92,-76.52 125.53,-82.52"/>
</g>
<!-- Node13&#45;&gt;Node5 -->
<g id="edge17" class="edge">
<title>Node13&#45;&gt;Node5</title>
<path fill="none" stroke="#63b8ff" d="M63.6,-109.66C70.69,-92.26 86.61,-53.19 96.21,-29.62"/>
<polygon fill="#63b8ff" stroke="#63b8ff" points="99.82,-31.04 100.35,-20.46 93.34,-28.4 99.82,-31.04"/>
</g>
</g>
</svg>
