<?xml version="1.0" encoding="UTF-8" standalone="no"?>
<!DOCTYPE svg PUBLIC "-//W3C//DTD SVG 1.1//EN"
 "http://www.w3.org/Graphics/SVG/1.1/DTD/svg11.dtd">
<!-- Generated by graphviz version 9.0.0 (20230911.1827)
 -->
<!-- Title: src/NukiLock.cpp Pages: 1 -->
<svg width="1013pt" height="359pt"
 viewBox="0.00 0.00 1013.38 358.75" xmlns="http://www.w3.org/2000/svg" xmlns:xlink="http://www.w3.org/1999/xlink">
<g id="graph0" class="graph" transform="scale(1 1) rotate(0) translate(4 354.75)">
<title>src/NukiLock.cpp</title>
<!-- Node1 -->
<g id="Node000001" class="node">
<title>Node1</title>
<g id="a_Node000001"><a xlink:title=" ">
<polygon fill="#999999" stroke="#666666" points="908.12,-350.75 815.62,-350.75 815.62,-331.5 908.12,-331.5 908.12,-350.75"/>
<text text-anchor="middle" x="861.88" y="-337.25" font-family="Helvetica,sans-Serif" font-size="10.00">src/NukiLock.cpp</text>
</a>
</g>
</g>
<!-- Node2 -->
<g id="Node000002" class="node">
<title>Node2</title>
<g id="a_Node000002"><a xlink:href="_nuki_lock_utils_8h.html" target="_top" xlink:title=" ">
<polygon fill="white" stroke="#666666" points="904.75,-185 819,-185 819,-165.75 904.75,-165.75 904.75,-185"/>
<text text-anchor="middle" x="861.88" y="-171.5" font-family="Helvetica,sans-Serif" font-size="10.00">NukiLockUtils.h</text>
</a>
</g>
</g>
<!-- Node1&#45;&gt;Node2 -->
<g id="edge1_Node000001_Node000002" class="edge">
<title>Node1&#45;&gt;Node2</title>
<g id="a_edge1_Node000001_Node000002"><a xlink:title=" ">
<path fill="none" stroke="#63b8ff" d="M861.88,-331.32C861.88,-306 861.88,-232.5 861.88,-196.59"/>
<polygon fill="#63b8ff" stroke="#63b8ff" points="865.38,-196.74 861.88,-186.74 858.38,-196.74 865.38,-196.74"/>
</a>
</g>
</g>
<!-- Node9 -->
<g id="Node000009" class="node">
<title>Node9</title>
<g id="a_Node000009"><a xlink:href="_nuki_lock_8h.html" target="_top" xlink:title=" ">
<polygon fill="white" stroke="#666666" points="639.62,-295.5 574.12,-295.5 574.12,-276.25 639.62,-276.25 639.62,-295.5"/>
<text text-anchor="middle" x="606.88" y="-282" font-family="Helvetica,sans-Serif" font-size="10.00">NukiLock.h</text>
</a>
</g>
</g>
<!-- Node1&#45;&gt;Node9 -->
<g id="edge11_Node000001_Node000009" class="edge">
<title>Node1&#45;&gt;Node9</title>
<g id="a_edge11_Node000001_Node000009"><a xlink:title=" ">
<path fill="none" stroke="#63b8ff" d="M818.33,-331.03C771.68,-321.29 698.03,-305.91 651.11,-296.11"/>
<polygon fill="#63b8ff" stroke="#63b8ff" points="652.07,-292.74 641.57,-294.12 650.64,-299.59 652.07,-292.74"/>
</a>
</g>
</g>
<!-- Node17 -->
<g id="Node000017" class="node">
<title>Node17</title>
<g id="a_Node000017"><a xlink:href="_nuki_utils_8h.html" target="_top" xlink:title=" ">
<polygon fill="white" stroke="#666666" points="986.88,-185 922.88,-185 922.88,-165.75 986.88,-165.75 986.88,-185"/>
<text text-anchor="middle" x="954.88" y="-171.5" font-family="Helvetica,sans-Serif" font-size="10.00">NukiUtils.h</text>
</a>
</g>
</g>
<!-- Node1&#45;&gt;Node17 -->
<g id="edge26_Node000001_Node000017" class="edge">
<title>Node1&#45;&gt;Node17</title>
<g id="a_edge26_Node000001_Node000017"><a xlink:title=" ">
<path fill="none" stroke="#63b8ff" d="M866.88,-331.32C881.45,-305.67 924.1,-230.55 944.19,-195.19"/>
<polygon fill="#63b8ff" stroke="#63b8ff" points="947.21,-196.96 949.1,-186.54 941.12,-193.51 947.21,-196.96"/>
</a>
</g>
</g>
<!-- Node3 -->
<g id="Node000003" class="node">
<title>Node3</title>
<g id="a_Node000003"><a xlink:title=" ">
<polygon fill="#e0e0e0" stroke="#999999" points="927.12,-74.5 870.62,-74.5 870.62,-55.25 927.12,-55.25 927.12,-74.5"/>
<text text-anchor="middle" x="898.88" y="-61" font-family="Helvetica,sans-Serif" font-size="10.00">Arduino.h</text>
</a>
</g>
</g>
<!-- Node2&#45;&gt;Node3 -->
<g id="edge2_Node000002_Node000003" class="edge">
<title>Node2&#45;&gt;Node3</title>
<g id="a_edge2_Node000002_Node000003"><a xlink:title=" ">
<path fill="none" stroke="#63b8ff" d="M857.21,-165.31C851.32,-152.57 842.87,-128.86 850.88,-110.5 855.92,-98.92 865.61,-88.99 874.98,-81.46"/>
<polygon fill="#63b8ff" stroke="#63b8ff" points="876.87,-84.42 882.83,-75.66 872.71,-78.79 876.87,-84.42"/>
</a>
</g>
</g>
<!-- Node4 -->
<g id="Node000004" class="node">
<title>Node4</title>
<g id="a_Node000004"><a xlink:href="_nuki_data_types_8h.html" target="_top" xlink:title=" ">
<polygon fill="white" stroke="#666666" points="555,-129.75 464.75,-129.75 464.75,-110.5 555,-110.5 555,-129.75"/>
<text text-anchor="middle" x="509.88" y="-116.25" font-family="Helvetica,sans-Serif" font-size="10.00">NukiDataTypes.h</text>
</a>
</g>
</g>
<!-- Node2&#45;&gt;Node4 -->
<g id="edge3_Node000002_Node000004" class="edge">
<title>Node2&#45;&gt;Node4</title>
<g id="a_edge3_Node000002_Node000004"><a xlink:title=" ">
<path fill="none" stroke="#63b8ff" d="M818.75,-167.17C815.75,-166.68 812.77,-166.21 809.88,-165.75 725.21,-152.43 626.94,-138.01 566.58,-129.27"/>
<polygon fill="#63b8ff" stroke="#63b8ff" points="567.29,-125.84 556.9,-127.87 566.29,-132.77 567.29,-125.84"/>
</a>
</g>
</g>
<!-- Node7 -->
<g id="Node000007" class="node">
<title>Node7</title>
<g id="a_Node000007"><a xlink:href="_nuki_lock_constants_8h.html" target="_top" xlink:title=" ">
<polygon fill="white" stroke="#666666" points="109.75,-129.75 0,-129.75 0,-110.5 109.75,-110.5 109.75,-129.75"/>
<text text-anchor="middle" x="54.88" y="-116.25" font-family="Helvetica,sans-Serif" font-size="10.00">NukiLockConstants.h</text>
</a>
</g>
</g>
<!-- Node2&#45;&gt;Node7 -->
<g id="edge7_Node000002_Node000007" class="edge">
<title>Node2&#45;&gt;Node7</title>
<g id="a_edge7_Node000002_Node000007"><a xlink:title=" ">
<path fill="none" stroke="#63b8ff" d="M818.51,-166.83C815.59,-166.43 812.69,-166.07 809.88,-165.75 556.55,-137.33 253.24,-126.35 121.45,-122.71"/>
<polygon fill="#63b8ff" stroke="#63b8ff" points="121.59,-119.21 111.5,-122.44 121.4,-126.21 121.59,-119.21"/>
</a>
</g>
</g>
<!-- Node8 -->
<g id="Node000008" class="node">
<title>Node8</title>
<g id="a_Node000008"><a xlink:title=" ">
<polygon fill="#e0e0e0" stroke="#999999" points="899.88,-129.75 859.88,-129.75 859.88,-110.5 899.88,-110.5 899.88,-129.75"/>
<text text-anchor="middle" x="879.88" y="-116.25" font-family="Helvetica,sans-Serif" font-size="10.00">bitset</text>
</a>
</g>
</g>
<!-- Node2&#45;&gt;Node8 -->
<g id="edge10_Node000002_Node000008" class="edge">
<title>Node2&#45;&gt;Node8</title>
<g id="a_edge10_Node000002_Node000008"><a xlink:title=" ">
<path fill="none" stroke="#63b8ff" d="M864.85,-165.58C867.13,-158.84 870.36,-149.27 873.24,-140.74"/>
<polygon fill="#63b8ff" stroke="#63b8ff" points="876.47,-142.14 876.35,-131.54 869.84,-139.9 876.47,-142.14"/>
</a>
</g>
</g>
<!-- Node4&#45;&gt;Node3 -->
<g id="edge4_Node000004_Node000003" class="edge">
<title>Node4&#45;&gt;Node3</title>
<g id="a_edge4_Node000004_Node000003"><a xlink:title=" ">
<path fill="none" stroke="#63b8ff" d="M555.26,-112.91C631.96,-102.41 785.97,-81.33 858.87,-71.35"/>
<polygon fill="#63b8ff" stroke="#63b8ff" points="859.33,-74.82 868.77,-70 858.38,-67.89 859.33,-74.82"/>
</a>
</g>
</g>
<!-- Node5 -->
<g id="Node000005" class="node">
<title>Node5</title>
<g id="a_Node000005"><a xlink:href="_nuki_constants_8h.html" target="_top" xlink:title=" ">
<polygon fill="white" stroke="#666666" points="200.88,-74.5 112.88,-74.5 112.88,-55.25 200.88,-55.25 200.88,-74.5"/>
<text text-anchor="middle" x="156.88" y="-61" font-family="Helvetica,sans-Serif" font-size="10.00">NukiConstants.h</text>
</a>
</g>
</g>
<!-- Node4&#45;&gt;Node5 -->
<g id="edge5_Node000004_Node000005" class="edge">
<title>Node4&#45;&gt;Node5</title>
<g id="a_edge5_Node000004_Node000005"><a xlink:title=" ">
<path fill="none" stroke="#63b8ff" d="M464.45,-112.27C399.98,-102.55 282.05,-84.76 212.45,-74.26"/>
<polygon fill="#63b8ff" stroke="#63b8ff" points="213.2,-70.83 202.79,-72.8 212.16,-77.75 213.2,-70.83"/>
</a>
</g>
</g>
<!-- Node6 -->
<g id="Node000006" class="node">
<title>Node6</title>
<g id="a_Node000006"><a xlink:title=" ">
<polygon fill="#e0e0e0" stroke="#999999" points="158.38,-19.25 73.38,-19.25 73.38,0 158.38,0 158.38,-19.25"/>
<text text-anchor="middle" x="115.88" y="-5.75" font-family="Helvetica,sans-Serif" font-size="10.00">NimBLEUUID.h</text>
</a>
</g>
</g>
<!-- Node5&#45;&gt;Node6 -->
<g id="edge6_Node000005_Node000006" class="edge">
<title>Node5&#45;&gt;Node6</title>
<g id="a_edge6_Node000005_Node000006"><a xlink:title=" ">
<path fill="none" stroke="#63b8ff" d="M150.1,-55.08C144.56,-47.88 136.53,-37.46 129.65,-28.51"/>
<polygon fill="#63b8ff" stroke="#63b8ff" points="132.59,-26.6 123.72,-20.81 127.04,-30.87 132.59,-26.6"/>
</a>
</g>
</g>
<!-- Node7&#45;&gt;Node5 -->
<g id="edge9_Node000007_Node000005" class="edge">
<title>Node7&#45;&gt;Node5</title>
<g id="a_edge9_Node000007_Node000005"><a xlink:title=" ">
<path fill="none" stroke="#63b8ff" d="M72.18,-110.09C87.86,-101.91 111.23,-89.71 129.45,-80.19"/>
<polygon fill="#63b8ff" stroke="#63b8ff" points="130.9,-83.38 138.15,-75.65 127.66,-77.18 130.9,-83.38"/>
</a>
</g>
</g>
<!-- Node7&#45;&gt;Node6 -->
<g id="edge8_Node000007_Node000006" class="edge">
<title>Node7&#45;&gt;Node6</title>
<g id="a_edge8_Node000007_Node000006"><a xlink:title=" ">
<path fill="none" stroke="#63b8ff" d="M59.87,-110.25C69.74,-92.68 91.96,-53.16 105.25,-29.52"/>
<polygon fill="#63b8ff" stroke="#63b8ff" points="108.22,-31.38 110.07,-20.95 102.12,-27.95 108.22,-31.38"/>
</a>
</g>
</g>
<!-- Node9&#45;&gt;Node2 -->
<g id="edge25_Node000009_Node000002" class="edge">
<title>Node9&#45;&gt;Node2</title>
<g id="a_edge25_Node000009_Node000002"><a xlink:title=" ">
<path fill="none" stroke="#63b8ff" d="M628.18,-275.81C672.99,-256.74 777.21,-212.4 830.01,-189.93"/>
<polygon fill="#63b8ff" stroke="#63b8ff" points="831.23,-193.22 839.06,-186.08 828.49,-186.78 831.23,-193.22"/>
</a>
</g>
</g>
<!-- Node9&#45;&gt;Node7 -->
<g id="edge24_Node000009_Node000007" class="edge">
<title>Node9&#45;&gt;Node7</title>
<g id="a_edge24_Node000009_Node000007"><a xlink:title=" ">
<path fill="none" stroke="#63b8ff" d="M573.69,-284.42C491.72,-282.02 275.08,-267.68 119.88,-185 98.8,-173.77 79.98,-153.58 68.08,-138.9"/>
<polygon fill="#63b8ff" stroke="#63b8ff" points="71.14,-137.13 62.24,-131.39 65.62,-141.43 71.14,-137.13"/>
</a>
</g>
</g>
<!-- Node10 -->
<g id="Node000010" class="node">
<title>Node10</title>
<g id="a_Node000010"><a xlink:href="_nuki_ble_8h.html" target="_top" xlink:title=" ">
<polygon fill="white" stroke="#666666" points="489.88,-240.25 431.88,-240.25 431.88,-221 489.88,-221 489.88,-240.25"/>
<text text-anchor="middle" x="460.88" y="-226.75" font-family="Helvetica,sans-Serif" font-size="10.00">NukiBle.h</text>
</a>
</g>
</g>
<!-- Node9&#45;&gt;Node10 -->
<g id="edge12_Node000009_Node000010" class="edge">
<title>Node9&#45;&gt;Node10</title>
<g id="a_edge12_Node000009_Node000010"><a xlink:title=" ">
<path fill="none" stroke="#63b8ff" d="M582.11,-275.84C558.62,-267.27 523.06,-254.31 496.52,-244.63"/>
<polygon fill="#63b8ff" stroke="#63b8ff" points="497.78,-241.36 487.19,-241.22 495.38,-247.94 497.78,-241.36"/>
</a>
</g>
</g>
<!-- Node10&#45;&gt;Node3 -->
<g id="edge16_Node000010_Node000003" class="edge">
<title>Node10&#45;&gt;Node3</title>
<g id="a_edge16_Node000010_Node000003"><a xlink:title=" ">
<path fill="none" stroke="#63b8ff" d="M490.1,-229.44C596.87,-228.47 961.44,-222.42 995.88,-185 1028.95,-149.06 965.06,-103.58 926.01,-80.6"/>
<polygon fill="#63b8ff" stroke="#63b8ff" points="927.96,-77.68 917.54,-75.75 924.48,-83.75 927.96,-77.68"/>
</a>
</g>
</g>
<!-- Node10&#45;&gt;Node4 -->
<g id="edge15_Node000010_Node000004" class="edge">
<title>Node10&#45;&gt;Node4</title>
<g id="a_edge15_Node000010_Node000004"><a xlink:title=" ">
<path fill="none" stroke="#63b8ff" d="M431.54,-229.97C364.33,-229.78 208.57,-223.32 256.88,-165.75 281.43,-136.48 386.45,-126.4 453.22,-122.93"/>
<polygon fill="#63b8ff" stroke="#63b8ff" points="453.07,-126.45 462.89,-122.47 452.74,-119.45 453.07,-126.45"/>
</a>
</g>
</g>
<!-- Node10&#45;&gt;Node5 -->
<g id="edge14_Node000010_Node000005" class="edge">
<title>Node10&#45;&gt;Node5</title>
<g id="a_edge14_Node000010_Node000005"><a xlink:title=" ">
<path fill="none" stroke="#63b8ff" d="M431.62,-230.3C358.64,-231.3 171.62,-229.37 132.88,-185 108.23,-156.77 129.34,-110.37 144.57,-84.6"/>
<polygon fill="#63b8ff" stroke="#63b8ff" points="147.48,-86.55 149.79,-76.22 141.54,-82.85 147.48,-86.55"/>
</a>
</g>
</g>
<!-- Node11 -->
<g id="Node000011" class="node">
<title>Node11</title>
<g id="a_Node000011"><a xlink:title=" ">
<polygon fill="#e0e0e0" stroke="#999999" points="356,-185 265.75,-185 265.75,-165.75 356,-165.75 356,-185"/>
<text text-anchor="middle" x="310.88" y="-171.5" font-family="Helvetica,sans-Serif" font-size="10.00">NimBLEDevice.h</text>
</a>
</g>
</g>
<!-- Node10&#45;&gt;Node11 -->
<g id="edge13_Node000010_Node000011" class="edge">
<title>Node10&#45;&gt;Node11</title>
<g id="a_edge13_Node000010_Node000011"><a xlink:title=" ">
<path fill="none" stroke="#63b8ff" d="M435.43,-220.59C411.19,-211.99 374.44,-198.94 347.14,-189.25"/>
<polygon fill="#63b8ff" stroke="#63b8ff" points="348.47,-186.01 337.87,-185.96 346.12,-192.6 348.47,-186.01"/>
</a>
</g>
</g>
<!-- Node12 -->
<g id="Node000012" class="node">
<title>Node12</title>
<g id="a_Node000012"><a xlink:title=" ">
<polygon fill="#e0e0e0" stroke="#999999" points="449.88,-185 373.88,-185 373.88,-165.75 449.88,-165.75 449.88,-185"/>
<text text-anchor="middle" x="411.88" y="-171.5" font-family="Helvetica,sans-Serif" font-size="10.00">Preferences.h</text>
</a>
</g>
</g>
<!-- Node10&#45;&gt;Node12 -->
<g id="edge17_Node000010_Node000012" class="edge">
<title>Node10&#45;&gt;Node12</title>
<g id="a_edge17_Node000010_Node000012"><a xlink:title=" ">
<path fill="none" stroke="#63b8ff" d="M452.78,-220.83C446.02,-213.48 436.15,-202.76 427.81,-193.69"/>
<polygon fill="#63b8ff" stroke="#63b8ff" points="430.51,-191.46 421.17,-186.47 425.36,-196.2 430.51,-191.46"/>
</a>
</g>
</g>
<!-- Node13 -->
<g id="Node000013" class="node">
<title>Node13</title>
<g id="a_Node000013"><a xlink:title=" ">
<polygon fill="#e0e0e0" stroke="#999999" points="552,-185 467.75,-185 467.75,-165.75 552,-165.75 552,-185"/>
<text text-anchor="middle" x="509.88" y="-171.5" font-family="Helvetica,sans-Serif" font-size="10.00">esp_task_wdt.h</text>
</a>
</g>
</g>
<!-- Node10&#45;&gt;Node13 -->
<g id="edge18_Node000010_Node000013" class="edge">
<title>Node10&#45;&gt;Node13</title>
<g id="a_edge18_Node000010_Node000013"><a xlink:title=" ">
<path fill="none" stroke="#63b8ff" d="M468.97,-220.83C475.73,-213.48 485.6,-202.76 493.94,-193.69"/>
<polygon fill="#63b8ff" stroke="#63b8ff" points="496.39,-196.2 500.58,-186.47 491.24,-191.46 496.39,-196.2"/>
</a>
</g>
</g>
<!-- Node14 -->
<g id="Node000014" class="node">
<title>Node14</title>
<g id="a_Node000014"><a xlink:title=" ">
<polygon fill="#e0e0e0" stroke="#999999" points="651.5,-185 570.25,-185 570.25,-165.75 651.5,-165.75 651.5,-185"/>
<text text-anchor="middle" x="610.88" y="-171.5" font-family="Helvetica,sans-Serif" font-size="10.00">BleInterfaces.h</text>
</a>
</g>
</g>
<!-- Node10&#45;&gt;Node14 -->
<g id="edge19_Node000010_Node000014" class="edge">
<title>Node10&#45;&gt;Node14</title>
<g id="a_edge19_Node000010_Node000014"><a xlink:title=" ">
<path fill="none" stroke="#63b8ff" d="M486.32,-220.59C510.56,-211.99 547.31,-198.94 574.61,-189.25"/>
<polygon fill="#63b8ff" stroke="#63b8ff" points="575.63,-192.6 583.88,-185.96 573.28,-186.01 575.63,-192.6"/>
</a>
</g>
</g>
<!-- Node15 -->
<g id="Node000015" class="node">
<title>Node15</title>
<g id="a_Node000015"><a xlink:title=" ">
<polygon fill="#e0e0e0" stroke="#999999" points="800.62,-185 669.12,-185 669.12,-165.75 800.62,-165.75 800.62,-185"/>
<text text-anchor="middle" x="734.88" y="-171.5" font-family="Helvetica,sans-Serif" font-size="10.00">sodium/crypto_secretbox.h</text>
</a>
</g>
</g>
<!-- Node10&#45;&gt;Node15 -->
<g id="edge20_Node000010_Node000015" class="edge">
<title>Node10&#45;&gt;Node15</title>
<g id="a_edge20_Node000010_Node000015"><a xlink:title=" ">
<path fill="none" stroke="#63b8ff" d="M490.2,-223.93C534.59,-215.3 619.73,-198.75 676.93,-187.64"/>
<polygon fill="#63b8ff" stroke="#63b8ff" points="677.34,-191.12 686.49,-185.78 676.01,-184.25 677.34,-191.12"/>
</a>
</g>
</g>
<!-- Node16 -->
<g id="Node000016" class="node">
<title>Node16</title>
<g id="a_Node000016"><a xlink:href="_nuki_ble_8hpp.html" target="_top" xlink:title=" ">
<polygon fill="white" stroke="#666666" points="210.12,-185 141.62,-185 141.62,-165.75 210.12,-165.75 210.12,-185"/>
<text text-anchor="middle" x="175.88" y="-171.5" font-family="Helvetica,sans-Serif" font-size="10.00">NukiBle.hpp</text>
</a>
</g>
</g>
<!-- Node10&#45;&gt;Node16 -->
<g id="edge21_Node000010_Node000016" class="edge">
<title>Node10&#45;&gt;Node16</title>
<g id="a_edge21_Node000010_Node000016"><a xlink:title=" ">
<path fill="none" stroke="#63b8ff" d="M431.45,-224.13C381.72,-214.83 280.7,-195.96 221.65,-184.93"/>
<polygon fill="#63b8ff" stroke="#63b8ff" points="222.39,-181.51 211.92,-183.11 221.1,-188.39 222.39,-181.51"/>
</a>
</g>
</g>
<!-- Node16&#45;&gt;Node4 -->
<g id="edge23_Node000016_Node000004" class="edge">
<title>Node16&#45;&gt;Node4</title>
<g id="a_edge23_Node000016_Node000004"><a xlink:title=" ">
<path fill="none" stroke="#63b8ff" d="M210.47,-168.06C214.97,-167.27 219.53,-166.48 223.88,-165.75 303.33,-152.42 395.43,-138.28 453.17,-129.58"/>
<polygon fill="#63b8ff" stroke="#63b8ff" points="453.39,-133.09 462.76,-128.14 452.35,-126.16 453.39,-133.09"/>
</a>
</g>
</g>
<!-- Node16&#45;&gt;Node5 -->
<g id="edge22_Node000016_Node000005" class="edge">
<title>Node16&#45;&gt;Node5</title>
<g id="a_edge22_Node000016_Node000005"><a xlink:title=" ">
<path fill="none" stroke="#63b8ff" d="M174.32,-165.5C171.3,-148.25 164.57,-109.83 160.41,-86.06"/>
<polygon fill="#63b8ff" stroke="#63b8ff" points="163.88,-85.61 158.71,-76.37 156.99,-86.82 163.88,-85.61"/>
</a>
</g>
</g>
<!-- Node17&#45;&gt;Node3 -->
<g id="edge27_Node000017_Node000003" class="edge">
<title>Node17&#45;&gt;Node3</title>
<g id="a_edge27_Node000017_Node000003"><a xlink:title=" ">
<path fill="none" stroke="#63b8ff" d="M954.62,-165.6C953.93,-152.79 951.35,-128.53 941.88,-110.5 936.29,-99.87 927.4,-90.02 919.15,-82.3"/>
<polygon fill="#63b8ff" stroke="#63b8ff" points="921.59,-79.79 911.77,-75.82 916.97,-85.05 921.59,-79.79"/>
</a>
</g>
</g>
<!-- Node17&#45;&gt;Node4 -->
<g id="edge28_Node000017_Node000004" class="edge">
<title>Node17&#45;&gt;Node4</title>
<g id="a_edge28_Node000017_Node000004"><a xlink:title=" ">
<path fill="none" stroke="#63b8ff" d="M922.7,-167.3C919.72,-166.74 916.75,-166.21 913.88,-165.75 790.51,-146.01 644.56,-132.23 566.26,-125.61"/>
<polygon fill="#63b8ff" stroke="#63b8ff" points="566.97,-122.16 556.71,-124.81 566.39,-129.13 566.97,-122.16"/>
</a>
</g>
</g>
<!-- Node17&#45;&gt;Node5 -->
<g id="edge29_Node000017_Node000005" class="edge">
<title>Node17&#45;&gt;Node5</title>
<g id="a_edge29_Node000017_Node000005"><a xlink:title=" ">
<path fill="none" stroke="#63b8ff" d="M951.43,-165.41C945.34,-150.92 931.15,-122.75 908.88,-110.5 848.38,-77.22 375.95,-68.48 212.39,-66.44"/>
<polygon fill="#63b8ff" stroke="#63b8ff" points="212.71,-62.94 202.67,-66.32 212.63,-69.94 212.71,-62.94"/>
</a>
</g>
</g>
<!-- Node17&#45;&gt;Node8 -->
<g id="edge30_Node000017_Node000008" class="edge">
<title>Node17&#45;&gt;Node8</title>
<g id="a_edge30_Node000017_Node000008"><a xlink:title=" ">
<path fill="none" stroke="#63b8ff" d="M942.15,-165.34C931.16,-157.54 915.03,-146.09 901.94,-136.79"/>
<polygon fill="#63b8ff" stroke="#63b8ff" points="904.07,-134.01 893.89,-131.08 900.02,-139.72 904.07,-134.01"/>
</a>
</g>
</g>
</g>
</svg>
