<?xml version="1.0" encoding="UTF-8" standalone="no"?>
<!DOCTYPE svg PUBLIC "-//W3C//DTD SVG 1.1//EN"
 "http://www.w3.org/Graphics/SVG/1.1/DTD/svg11.dtd">
<!-- Generated by graphviz version 8.0.5 (20230430.1635)
 -->
<!-- Title: src/NukiDataTypes.h Pages: 1 -->
<!--zoomable 248 -->
<svg id="main" version="1.1" xmlns="http://www.w3.org/2000/svg" xmlns:xlink="http://www.w3.org/1999/xlink" xml:space="preserve" onload="init(evt)">
<style type="text/css"><![CDATA[
.edge:hover path { stroke: red; }
.edge:hover polygon { stroke: red; fill: red; }
]]></style>
<script type="text/javascript"><![CDATA[
var edges = document.getElementsByTagName('g');
if (edges && edges.length) {
  for (var i=0;i<edges.length;i++) {
    if (edges[i].id.substr(0,4)=='edge') {
      edges[i].setAttribute('class','edge');
    }
  }
}
]]></script>
        <defs>
                <circle id="rim" cx="0" cy="0" r="7"/>
                <circle id="rim2" cx="0" cy="0" r="3.5"/>
                <g id="zoomPlus">
                        <use xlink:href="#rim" fill="#404040">
                                <set attributeName="fill" to="#808080" begin="zoomplus.mouseover" end="zoomplus.mouseout"/>
                        </use>
                        <path d="M-4,0h8M0,-4v8" fill="none" stroke="white" stroke-width="1.5" pointer-events="none"/>
                </g>
                <g id="zoomMin">
                        <use xlink:href="#rim" fill="#404040">
                                <set attributeName="fill" to="#808080" begin="zoomminus.mouseover" end="zoomminus.mouseout"/>
                        </use>
                        <path d="M-4,0h8" fill="none" stroke="white" stroke-width="1.5" pointer-events="none"/>
                </g>
                <g id="dirArrow">
                        <path fill="none" stroke="white" stroke-width="1.5" d="M0,-3.0v7 M-2.5,-0.5L0,-3.0L2.5,-0.5"/>
                </g>
               <g id="resetDef">
                       <use xlink:href="#rim2" fill="#404040">
                               <set attributeName="fill" to="#808080" begin="reset.mouseover" end="reset.mouseout"/>
                       </use>
               </g>
        </defs>

<script type="text/javascript">
var viewWidth = 680;
var viewHeight = 248;
var sectionId = 'dynsection-1';
</script>
<script xlink:href="svgpan.js"/>
<svg id="graph" class="graph">
<g id="viewport">
<title>src/NukiDataTypes.h</title>
<!-- Node1 -->
<g id="node1" class="node">
<title>Node1</title>
<g id="a_node1"><a xlink:title=" ">
<polygon fill="#999999" stroke="#666666" points="450.75,-240.25 344,-240.25 344,-221 450.75,-221 450.75,-240.25"/>
<text text-anchor="middle" x="397.38" y="-226.75" font-family="Helvetica,sans-Serif" font-size="10.00">src/NukiDataTypes.h</text>
</a>
</g>
</g>
<!-- Node2 -->
<g id="node2" class="node">
<title>Node2</title>
<g id="a_node2"><a xlink:href="_nuki_ble_8h.html" target="_top" xlink:title=" ">
<polygon fill="white" stroke="#666666" points="363.62,-129.75 289.12,-129.75 289.12,-110.5 363.62,-110.5 363.62,-129.75"/>
<text text-anchor="middle" x="326.38" y="-116.25" font-family="Helvetica,sans-Serif" font-size="10.00">src/NukiBle.h</text>
</a>
</g>
</g>
<!-- Node1&#45;&gt;Node2 -->
<g id="edge1" class="edge">
<title>Node1&#45;&gt;Node2</title>
<path fill="none" stroke="#63b8ff" d="M394.51,-209.91C391.89,-196.61 387.05,-179.13 378.38,-165.75 368.67,-150.78 352.48,-138.03 340.74,-130.04"/>
<polygon fill="#63b8ff" stroke="#63b8ff" points="391.22,-210.42 396.34,-219.7 398.12,-209.25 391.22,-210.42"/>
</g>
<!-- Node8 -->
<g id="node8" class="node">
<title>Node8</title>
<g id="a_node8"><a xlink:href="_nuki_ble_8hpp.html" target="_top" xlink:title=" ">
<polygon fill="white" stroke="#666666" points="368.88,-185 283.88,-185 283.88,-165.75 368.88,-165.75 368.88,-185"/>
<text text-anchor="middle" x="326.38" y="-171.5" font-family="Helvetica,sans-Serif" font-size="10.00">src/NukiBle.hpp</text>
</a>
</g>
</g>
<!-- Node1&#45;&gt;Node8 -->
<g id="edge7" class="edge">
<title>Node1&#45;&gt;Node8</title>
<path fill="none" stroke="#63b8ff" d="M376.86,-214.24C364.33,-204.84 348.75,-193.16 338.24,-185.27"/>
<polygon fill="#63b8ff" stroke="#63b8ff" points="374.23,-217.39 384.33,-220.59 378.43,-211.79 374.23,-217.39"/>
</g>
<!-- Node9 -->
<g id="node9" class="node">
<title>Node9</title>
<g id="a_node9"><a xlink:href="_nuki_lock_utils_8h.html" target="_top" xlink:title=" ">
<polygon fill="white" stroke="#666666" points="260.5,-129.75 158.25,-129.75 158.25,-110.5 260.5,-110.5 260.5,-129.75"/>
<text text-anchor="middle" x="209.38" y="-116.25" font-family="Helvetica,sans-Serif" font-size="10.00">src/NukiLockUtils.h</text>
</a>
</g>
</g>
<!-- Node1&#45;&gt;Node9 -->
<g id="edge9" class="edge">
<title>Node1&#45;&gt;Node9</title>
<path fill="none" stroke="#63b8ff" d="M350.14,-217.41C326.6,-210.09 298.33,-199.39 275.38,-185 250.78,-169.59 227.8,-143.81 216.57,-130.19"/>
<polygon fill="#63b8ff" stroke="#63b8ff" points="349.01,-221.02 359.59,-220.54 351.01,-214.32 349.01,-221.02"/>
</g>
<!-- Node11 -->
<g id="node11" class="node">
<title>Node11</title>
<g id="a_node11"><a xlink:href="_nuki_opener_utils_8h.html" target="_top" xlink:title=" ">
<polygon fill="white" stroke="#666666" points="644.38,-185 532.38,-185 532.38,-165.75 644.38,-165.75 644.38,-185"/>
<text text-anchor="middle" x="588.38" y="-171.5" font-family="Helvetica,sans-Serif" font-size="10.00">src/NukiOpenerUtils.h</text>
</a>
</g>
</g>
<!-- Node1&#45;&gt;Node11 -->
<g id="edge14" class="edge">
<title>Node1&#45;&gt;Node11</title>
<path fill="none" stroke="#63b8ff" d="M440.16,-217.7C475.17,-207.94 523.93,-194.34 555.82,-185.45"/>
<polygon fill="#63b8ff" stroke="#63b8ff" points="439.47,-214.53 430.78,-220.59 441.35,-221.28 439.47,-214.53"/>
</g>
<!-- Node13 -->
<g id="node13" class="node">
<title>Node13</title>
<g id="a_node13"><a xlink:href="_nuki_utils_8h.html" target="_top" xlink:title=" ">
<polygon fill="white" stroke="#666666" points="508.62,-129.75 428.12,-129.75 428.12,-110.5 508.62,-110.5 508.62,-129.75"/>
<text text-anchor="middle" x="468.38" y="-116.25" font-family="Helvetica,sans-Serif" font-size="10.00">src/NukiUtils.h</text>
</a>
</g>
</g>
<!-- Node1&#45;&gt;Node13 -->
<g id="edge17" class="edge">
<title>Node1&#45;&gt;Node13</title>
<path fill="none" stroke="#63b8ff" d="M409.01,-211.85C424.35,-188.41 450.77,-148.03 462.48,-130.13"/>
<polygon fill="#63b8ff" stroke="#63b8ff" points="405.73,-209.46 403.19,-219.75 411.59,-213.29 405.73,-209.46"/>
</g>
<!-- Node3 -->
<g id="node3" class="node">
<title>Node3</title>
<g id="a_node3"><a xlink:href="_nuki_ble_8cpp.html" target="_top" xlink:title=" ">
<polygon fill="white" stroke="#666666" points="462.88,-74.5 377.88,-74.5 377.88,-55.25 462.88,-55.25 462.88,-74.5"/>
<text text-anchor="middle" x="420.38" y="-61" font-family="Helvetica,sans-Serif" font-size="10.00">src/NukiBle.cpp</text>
</a>
</g>
</g>
<!-- Node2&#45;&gt;Node3 -->
<g id="edge2" class="edge">
<title>Node2&#45;&gt;Node3</title>
<path fill="none" stroke="#63b8ff" d="M351.56,-104.86C368.33,-95.36 389.88,-83.15 404.35,-74.95"/>
<polygon fill="#63b8ff" stroke="#63b8ff" points="350.3,-102.12 343.32,-110.09 353.75,-108.21 350.3,-102.12"/>
</g>
<!-- Node4 -->
<g id="node4" class="node">
<title>Node4</title>
<g id="a_node4"><a xlink:href="_nuki_lock_8h.html" target="_top" xlink:title=" ">
<polygon fill="white" stroke="#666666" points="250.38,-74.5 168.38,-74.5 168.38,-55.25 250.38,-55.25 250.38,-74.5"/>
<text text-anchor="middle" x="209.38" y="-61" font-family="Helvetica,sans-Serif" font-size="10.00">src/NukiLock.h</text>
</a>
</g>
</g>
<!-- Node2&#45;&gt;Node4 -->
<g id="edge3" class="edge">
<title>Node2&#45;&gt;Node4</title>
<path fill="none" stroke="#63b8ff" d="M296.77,-105.65C275.66,-96.04 247.84,-83.38 229.32,-74.95"/>
<polygon fill="#63b8ff" stroke="#63b8ff" points="294.98,-109.13 305.53,-110.09 297.88,-102.76 294.98,-109.13"/>
</g>
<!-- Node6 -->
<g id="node6" class="node">
<title>Node6</title>
<g id="a_node6"><a xlink:href="_nuki_opener_8h.html" target="_top" xlink:title=" ">
<polygon fill="white" stroke="#666666" points="360.25,-74.5 268.5,-74.5 268.5,-55.25 360.25,-55.25 360.25,-74.5"/>
<text text-anchor="middle" x="314.38" y="-61" font-family="Helvetica,sans-Serif" font-size="10.00">src/NukiOpener.h</text>
</a>
</g>
</g>
<!-- Node2&#45;&gt;Node6 -->
<g id="edge5" class="edge">
<title>Node2&#45;&gt;Node6</title>
<path fill="none" stroke="#63b8ff" d="M322.01,-99.75C320.09,-91.24 317.93,-81.65 316.4,-74.86"/>
<polygon fill="#63b8ff" stroke="#63b8ff" points="318.78,-100.35 324.39,-109.33 325.61,-98.81 318.78,-100.35"/>
</g>
<!-- Node5 -->
<g id="node5" class="node">
<title>Node5</title>
<g id="a_node5"><a xlink:href="_nuki_lock_8cpp.html" target="_top" xlink:title=" ">
<polygon fill="white" stroke="#666666" points="255.62,-19.25 163.12,-19.25 163.12,0 255.62,0 255.62,-19.25"/>
<text text-anchor="middle" x="209.38" y="-5.75" font-family="Helvetica,sans-Serif" font-size="10.00">src/NukiLock.cpp</text>
</a>
</g>
</g>
<!-- Node4&#45;&gt;Node5 -->
<g id="edge4" class="edge">
<title>Node4&#45;&gt;Node5</title>
<path fill="none" stroke="#63b8ff" d="M209.38,-44.21C209.38,-35.77 209.38,-26.33 209.38,-19.61"/>
<polygon fill="#63b8ff" stroke="#63b8ff" points="205.88,-44.08 209.38,-54.08 212.88,-44.08 205.88,-44.08"/>
</g>
<!-- Node7 -->
<g id="node7" class="node">
<title>Node7</title>
<g id="a_node7"><a xlink:href="_nuki_opener_8cpp.html" target="_top" xlink:title=" ">
<polygon fill="white" stroke="#666666" points="580.5,-19.25 478.25,-19.25 478.25,0 580.5,0 580.5,-19.25"/>
<text text-anchor="middle" x="529.38" y="-5.75" font-family="Helvetica,sans-Serif" font-size="10.00">src/NukiOpener.cpp</text>
</a>
</g>
</g>
<!-- Node6&#45;&gt;Node7 -->
<g id="edge6" class="edge">
<title>Node6&#45;&gt;Node7</title>
<path fill="none" stroke="#63b8ff" d="M361.27,-52.26C400.76,-42.48 456.44,-28.69 492.72,-19.7"/>
<polygon fill="#63b8ff" stroke="#63b8ff" points="360.71,-49.04 351.85,-54.84 362.39,-55.84 360.71,-49.04"/>
</g>
<!-- Node8&#45;&gt;Node2 -->
<g id="edge8" class="edge">
<title>Node8&#45;&gt;Node2</title>
<path fill="none" stroke="#63b8ff" d="M326.38,-154.71C326.38,-146.27 326.38,-136.83 326.38,-130.11"/>
<polygon fill="#63b8ff" stroke="#63b8ff" points="322.88,-154.58 326.38,-164.58 329.88,-154.58 322.88,-154.58"/>
</g>
<!-- Node9&#45;&gt;Node3 -->
<g id="edge10" class="edge">
<title>Node9&#45;&gt;Node3</title>
<path fill="none" stroke="#63b8ff" d="M255.65,-107.45C294.38,-97.67 348.88,-83.92 384.41,-74.95"/>
<polygon fill="#63b8ff" stroke="#63b8ff" points="255.01,-104.25 246.17,-110.09 256.72,-111.04 255.01,-104.25"/>
</g>
<!-- Node9&#45;&gt;Node4 -->
<g id="edge12" class="edge">
<title>Node9&#45;&gt;Node4</title>
<path fill="none" stroke="#63b8ff" d="M209.38,-99.46C209.38,-91.02 209.38,-81.58 209.38,-74.86"/>
<polygon fill="#63b8ff" stroke="#63b8ff" points="205.88,-99.33 209.38,-109.33 212.88,-99.33 205.88,-99.33"/>
</g>
<!-- Node9&#45;&gt;Node5 -->
<g id="edge11" class="edge">
<title>Node9&#45;&gt;Node5</title>
<path fill="none" stroke="#63b8ff" d="M184.71,-103.9C174.9,-96.38 164.69,-86.37 159.38,-74.5 149.47,-52.39 175.45,-31.16 193.56,-19.6"/>
<polygon fill="#63b8ff" stroke="#63b8ff" points="182.27,-107.16 192.46,-110.08 186.31,-101.45 182.27,-107.16"/>
</g>
<!-- Node10 -->
<g id="node10" class="node">
<title>Node10</title>
<g id="a_node10"><a xlink:href="_nuki_lock_utils_8cpp.html" target="_top" xlink:title=" ">
<polygon fill="white" stroke="#666666" points="112.75,-74.5 0,-74.5 0,-55.25 112.75,-55.25 112.75,-74.5"/>
<text text-anchor="middle" x="56.38" y="-61" font-family="Helvetica,sans-Serif" font-size="10.00">src/NukiLockUtils.cpp</text>
</a>
</g>
</g>
<!-- Node9&#45;&gt;Node10 -->
<g id="edge13" class="edge">
<title>Node9&#45;&gt;Node10</title>
<path fill="none" stroke="#63b8ff" d="M173.27,-106.56C145.38,-96.85 107.45,-83.65 82.46,-74.95"/>
<polygon fill="#63b8ff" stroke="#63b8ff" points="171.83,-110.11 182.42,-110.09 174.13,-103.5 171.83,-110.11"/>
</g>
<!-- Node11&#45;&gt;Node7 -->
<g id="edge15" class="edge">
<title>Node11&#45;&gt;Node7</title>
<path fill="none" stroke="#63b8ff" d="M623.77,-160.68C637.1,-153.59 650.85,-143.48 658.38,-129.75 674.3,-100.72 677.58,-82.22 658.38,-55.25 640.78,-30.54 608.53,-19.39 580.68,-14.41"/>
<polygon fill="#63b8ff" stroke="#63b8ff" points="622.7,-157.8 615.24,-165.32 625.76,-164.1 622.7,-157.8"/>
</g>
<!-- Node12 -->
<g id="node12" class="node">
<title>Node12</title>
<g id="a_node12"><a xlink:href="_nuki_opener_utils_8cpp.html" target="_top" xlink:title=" ">
<polygon fill="white" stroke="#666666" points="649.62,-129.75 527.12,-129.75 527.12,-110.5 649.62,-110.5 649.62,-129.75"/>
<text text-anchor="middle" x="588.38" y="-116.25" font-family="Helvetica,sans-Serif" font-size="10.00">src/NukiOpenerUtils.cpp</text>
</a>
</g>
</g>
<!-- Node11&#45;&gt;Node12 -->
<g id="edge16" class="edge">
<title>Node11&#45;&gt;Node12</title>
<path fill="none" stroke="#63b8ff" d="M588.38,-154.71C588.38,-146.27 588.38,-136.83 588.38,-130.11"/>
<polygon fill="#63b8ff" stroke="#63b8ff" points="584.88,-154.58 588.38,-164.58 591.88,-154.58 584.88,-154.58"/>
</g>
<!-- Node13&#45;&gt;Node3 -->
<g id="edge18" class="edge">
<title>Node13&#45;&gt;Node3</title>
<path fill="none" stroke="#63b8ff" d="M453.23,-102.32C445.03,-93.23 435.23,-82.35 428.47,-74.86"/>
<polygon fill="#63b8ff" stroke="#63b8ff" points="450.15,-104.25 459.45,-109.33 455.35,-99.56 450.15,-104.25"/>
</g>
<!-- Node13&#45;&gt;Node5 -->
<g id="edge19" class="edge">
<title>Node13&#45;&gt;Node5</title>
<path fill="none" stroke="#63b8ff" d="M475.96,-100.05C480.16,-86.05 482.67,-67.44 472.38,-55.25 445.22,-23.1 324.06,-14.11 256.06,-11.6"/>
<polygon fill="#63b8ff" stroke="#63b8ff" points="472.46,-98.48 472.46,-109.07 479.06,-100.79 472.46,-98.48"/>
</g>
<!-- Node13&#45;&gt;Node7 -->
<g id="edge20" class="edge">
<title>Node13&#45;&gt;Node7</title>
<path fill="none" stroke="#63b8ff" d="M484.7,-102.19C491.74,-94.24 499.65,-84.37 505.38,-74.5 515.96,-56.26 523.43,-32.51 527,-19.72"/>
<polygon fill="#63b8ff" stroke="#63b8ff" points="482.5,-99.51 478.29,-109.23 487.64,-104.25 482.5,-99.51"/>
</g>
<!-- Node14 -->
<g id="node14" class="node">
<title>Node14</title>
<g id="a_node14"><a xlink:href="_nuki_utils_8cpp.html" target="_top" xlink:title=" ">
<polygon fill="white" stroke="#666666" points="648.88,-74.5 557.88,-74.5 557.88,-55.25 648.88,-55.25 648.88,-74.5"/>
<text text-anchor="middle" x="603.38" y="-61" font-family="Helvetica,sans-Serif" font-size="10.00">src/NukiUtils.cpp</text>
</a>
</g>
</g>
<!-- Node13&#45;&gt;Node14 -->
<g id="edge21" class="edge">
<title>Node13&#45;&gt;Node14</title>
<path fill="none" stroke="#63b8ff" d="M501.21,-106.17C525.72,-96.5 558.6,-83.54 580.36,-74.95"/>
<polygon fill="#63b8ff" stroke="#63b8ff" points="500.29,-103.17 492.28,-110.09 502.86,-109.68 500.29,-103.17"/>
</g>
</g>
</svg>
        <g id="navigator" transform="translate(0 0)" fill="#404254">
                <rect fill="#f2f5e9" fill-opacity="0.5" stroke="#606060" stroke-width=".5" x="0" y="0" width="60" height="60"/>
                <use id="zoomplus" xlink:href="#zoomPlus" x="17" y="9" onmousedown="handleZoom(evt,'in')"/>
                <use id="zoomminus" xlink:href="#zoomMin" x="42" y="9" onmousedown="handleZoom(evt,'out')"/>
                <use id="reset" xlink:href="#resetDef" x="30" y="36" onmousedown="handleReset()"/>
                <g id="arrowUp" xlink:href="#dirArrow" transform="translate(30 24)" onmousedown="handlePan(0,-1)">
                  <use xlink:href="#rim" fill="#404040">
                        <set attributeName="fill" to="#808080" begin="arrowUp.mouseover" end="arrowUp.mouseout"/>
                  </use>
                  <path fill="none" stroke="white" stroke-width="1.5" d="M0,-3.0v7 M-2.5,-0.5L0,-3.0L2.5,-0.5"/>
                </g>
                <g id="arrowRight" xlink:href="#dirArrow" transform="rotate(90) translate(36 -43)" onmousedown="handlePan(1,0)">
                  <use xlink:href="#rim" fill="#404040">
                        <set attributeName="fill" to="#808080" begin="arrowRight.mouseover" end="arrowRight.mouseout"/>
                  </use>
                  <path fill="none" stroke="white" stroke-width="1.5" d="M0,-3.0v7 M-2.5,-0.5L0,-3.0L2.5,-0.5"/>
                </g>
                <g id="arrowDown" xlink:href="#dirArrow" transform="rotate(180) translate(-30 -48)" onmousedown="handlePan(0,1)">
                  <use xlink:href="#rim" fill="#404040">
                        <set attributeName="fill" to="#808080" begin="arrowDown.mouseover" end="arrowDown.mouseout"/>
                  </use>
                  <path fill="none" stroke="white" stroke-width="1.5" d="M0,-3.0v7 M-2.5,-0.5L0,-3.0L2.5,-0.5"/>
                </g>
                <g id="arrowLeft" xlink:href="#dirArrow" transform="rotate(270) translate(-36 17)" onmousedown="handlePan(-1,0)">
                  <use xlink:href="#rim" fill="#404040">
                        <set attributeName="fill" to="#808080" begin="arrowLeft.mouseover" end="arrowLeft.mouseout"/>
                  </use>
                  <path fill="none" stroke="white" stroke-width="1.5" d="M0,-3.0v7 M-2.5,-0.5L0,-3.0L2.5,-0.5"/>
                </g>
        </g>
        <svg viewBox="0 0 15 15" width="100%" height="30px" preserveAspectRatio="xMaxYMin meet">
         <g id="arrow_out" transform="scale(0.3 0.3)">
          <a xlink:href="_nuki_data_types_8h__dep__incl_org.svg" target="_base">
           <rect id="button" ry="5" rx="5" y="6" x="6" height="38" width="38"
                fill="#f2f5e9" fill-opacity="0.5" stroke="#606060" stroke-width="1.0"/>
           <path id="arrow"
             d="M 11.500037,31.436501 C 11.940474,20.09759 22.043105,11.32322 32.158766,21.979434 L 37.068811,17.246167 C 37.068811,17.246167 37.088388,32 37.088388,32 L 22.160133,31.978069 C 22.160133,31.978069 26.997745,27.140456 26.997745,27.140456 C 18.528582,18.264221 13.291696,25.230495 11.500037,31.436501 z"
             style="fill:#404040;"/>
          </a>
         </g>
        </svg>
</svg>
