<?xml version="1.0" encoding="UTF-8" standalone="no"?>
<!DOCTYPE svg PUBLIC "-//W3C//DTD SVG 1.1//EN"
 "http://www.w3.org/Graphics/SVG/1.1/DTD/svg11.dtd">
<!-- Generated by graphviz version 8.0.5 (20230430.1635)
 -->
<!-- Title: src/NukiOpenerConstants.h Pages: 1 -->
<svg width="156pt" height="138pt"
 viewBox="0.00 0.00 156.00 137.75" xmlns="http://www.w3.org/2000/svg" xmlns:xlink="http://www.w3.org/1999/xlink">
<g id="graph0" class="graph" transform="scale(1 1) rotate(0) translate(4 133.75)">
<title>src/NukiOpenerConstants.h</title>
<!-- Node1 -->
<g id="node1" class="node">
<title>Node1</title>
<g id="a_node1"><a xlink:title=" ">
<polygon fill="#999999" stroke="#666666" points="136,-129.75 0,-129.75 0,-110.5 136,-110.5 136,-129.75"/>
<text text-anchor="middle" x="68" y="-116.25" font-family="Helvetica,sans-Serif" font-size="10.00">src/NukiOpenerConstants.h</text>
</a>
</g>
</g>
<!-- Node2 -->
<g id="node2" class="node">
<title>Node2</title>
<g id="a_node2"><a xlink:title=" ">
<polygon fill="#e0e0e0" stroke="#999999" points="110.5,-19.25 25.5,-19.25 25.5,0 110.5,0 110.5,-19.25"/>
<text text-anchor="middle" x="68" y="-5.75" font-family="Helvetica,sans-Serif" font-size="10.00">NimBLEUUID.h</text>
</a>
</g>
</g>
<!-- Node1&#45;&gt;Node2 -->
<g id="edge1" class="edge">
<title>Node1&#45;&gt;Node2</title>
<path fill="none" stroke="#63b8ff" d="M63.48,-110.18C59.29,-101.36 53.37,-87.38 51,-74.5 48.17,-59.14 53.16,-42.05 58.45,-29.42"/>
<polygon fill="#63b8ff" stroke="#63b8ff" points="61.96,-31.17 62.99,-20.62 55.61,-28.22 61.96,-31.17"/>
</g>
<!-- Node3 -->
<g id="node3" class="node">
<title>Node3</title>
<g id="a_node3"><a xlink:href="_nuki_constants_8h.html" target="_top" xlink:title=" ">
<polygon fill="white" stroke="#666666" points="148,-74.5 60,-74.5 60,-55.25 148,-55.25 148,-74.5"/>
<text text-anchor="middle" x="104" y="-61" font-family="Helvetica,sans-Serif" font-size="10.00">NukiConstants.h</text>
</a>
</g>
</g>
<!-- Node1&#45;&gt;Node3 -->
<g id="edge2" class="edge">
<title>Node1&#45;&gt;Node3</title>
<path fill="none" stroke="#63b8ff" d="M73.94,-110.33C78.81,-103.13 85.86,-92.71 91.91,-83.76"/>
<polygon fill="#63b8ff" stroke="#63b8ff" points="95.22,-86.1 97.93,-75.86 89.43,-82.18 95.22,-86.1"/>
</g>
<!-- Node3&#45;&gt;Node2 -->
<g id="edge3" class="edge">
<title>Node3&#45;&gt;Node2</title>
<path fill="none" stroke="#63b8ff" d="M98.06,-55.08C93.19,-47.88 86.14,-37.46 80.09,-28.51"/>
<polygon fill="#63b8ff" stroke="#63b8ff" points="82.57,-26.93 74.07,-20.61 76.78,-30.85 82.57,-26.93"/>
</g>
</g>
</svg>
