<?xml version="1.0" encoding="UTF-8" standalone="no"?>
<!DOCTYPE svg PUBLIC "-//W3C//DTD SVG 1.1//EN"
 "http://www.w3.org/Graphics/SVG/1.1/DTD/svg11.dtd">
<!-- Generated by graphviz version 12.2.1 (20241206.2353)
 -->
<!-- Title: src/NukiConstants.h Pages: 1 -->
<svg width="156pt" height="83pt"
 viewBox="0.00 0.00 156.12 82.50" xmlns="http://www.w3.org/2000/svg" xmlns:xlink="http://www.w3.org/1999/xlink">
<g id="graph0" class="graph" transform="scale(1 1) rotate(0) translate(4 78.5)">
<title>src/NukiConstants.h</title>
<!-- Node1 -->
<g id="Node000001" class="node">
<title>Node1</title>
<g id="a_Node000001"><a xlink:title=" ">
<polygon fill="#999999" stroke="#666666" points="115.88,-74.5 11.38,-74.5 11.38,-55.25 115.88,-55.25 115.88,-74.5"/>
<text text-anchor="middle" x="63.62" y="-61" font-family="Helvetica,sans-Serif" font-size="10.00">src/NukiConstants.h</text>
</a>
</g>
</g>
<!-- Node2 -->
<g id="Node000002" class="node">
<title>Node2</title>
<g id="a_Node000002"><a xlink:title=" ">
<polygon fill="#e0e0e0" stroke="#999999" points="45.25,-19.25 0,-19.25 0,0 45.25,0 45.25,-19.25"/>
<text text-anchor="middle" x="22.62" y="-5.75" font-family="Helvetica,sans-Serif" font-size="10.00">cstdint</text>
</a>
</g>
</g>
<!-- Node1&#45;&gt;Node2 -->
<g id="edge1_Node000001_Node000002" class="edge">
<title>Node1&#45;&gt;Node2</title>
<g id="a_edge1_Node000001_Node000002"><a xlink:title=" ">
<path fill="none" stroke="#63b8ff" d="M56.85,-55.08C51.31,-47.88 43.28,-37.46 36.4,-28.51"/>
<polygon fill="#63b8ff" stroke="#63b8ff" points="39.34,-26.6 30.47,-20.81 33.79,-30.87 39.34,-26.6"/>
</a>
</g>
</g>
<!-- Node3 -->
<g id="Node000003" class="node">
<title>Node3</title>
<g id="a_Node000003"><a xlink:title=" ">
<polygon fill="#e0e0e0" stroke="#999999" points="148.12,-19.25 63.12,-19.25 63.12,0 148.12,0 148.12,-19.25"/>
<text text-anchor="middle" x="105.62" y="-5.75" font-family="Helvetica,sans-Serif" font-size="10.00">NimBLEUUID.h</text>
</a>
</g>
</g>
<!-- Node1&#45;&gt;Node3 -->
<g id="edge2_Node000001_Node000003" class="edge">
<title>Node1&#45;&gt;Node3</title>
<g id="a_edge2_Node000001_Node000003"><a xlink:title=" ">
<path fill="none" stroke="#63b8ff" d="M70.56,-55.08C76.24,-47.88 84.46,-37.46 91.52,-28.51"/>
<polygon fill="#63b8ff" stroke="#63b8ff" points="94.16,-30.82 97.6,-20.8 88.66,-26.48 94.16,-30.82"/>
</a>
</g>
</g>
</g>
</svg>
