<?xml version="1.0" encoding="UTF-8" standalone="no"?>
<!DOCTYPE svg PUBLIC "-//W3C//DTD SVG 1.1//EN"
 "http://www.w3.org/Graphics/SVG/1.1/DTD/svg11.dtd">
<!-- Generated by graphviz version 8.0.1 (20230327.1645)
 -->
<!-- Title: src/NukiBle.hpp Pages: 1 -->
<svg width="319pt" height="192pt"
 viewBox="0.00 0.00 318.50 192.00" xmlns="http://www.w3.org/2000/svg" xmlns:xlink="http://www.w3.org/1999/xlink">
<g id="graph0" class="graph" transform="scale(1 1) rotate(0) translate(4 188)">
<title>src/NukiBle.hpp</title>
<!-- Node1 -->
<g id="node1" class="node">
<title>Node1</title>
<g id="a_node1"><a xlink:title=" ">
<polygon fill="#999999" stroke="#666666" points="189,-184 103,-184 103,-165 189,-165 189,-184"/>
<text text-anchor="middle" x="146" y="-172" font-family="Helvetica,sans-Serif" font-size="10.00">src/NukiBle.hpp</text>
</a>
</g>
</g>
<!-- Node2 -->
<g id="node2" class="node">
<title>Node2</title>
<g id="a_node2"><a xlink:href="_nuki_ble_8h.html" target="_top" xlink:title=" ">
<polygon fill="white" stroke="#666666" points="183.5,-129 108.5,-129 108.5,-110 183.5,-110 183.5,-129"/>
<text text-anchor="middle" x="146" y="-117" font-family="Helvetica,sans-Serif" font-size="10.00">src/NukiBle.h</text>
</a>
</g>
</g>
<!-- Node1&#45;&gt;Node2 -->
<g id="edge1" class="edge">
<title>Node1&#45;&gt;Node2</title>
<path fill="none" stroke="#63b8ff" d="M146,-153.93C146,-145.53 146,-136.13 146,-129.44"/>
<polygon fill="#63b8ff" stroke="#63b8ff" points="142.5,-153.75 146,-163.75 149.5,-153.75 142.5,-153.75"/>
</g>
<!-- Node3 -->
<g id="node3" class="node">
<title>Node3</title>
<g id="a_node3"><a xlink:href="_nuki_ble_8cpp.html" target="_top" xlink:title=" ">
<polygon fill="white" stroke="#666666" points="86,-74 0,-74 0,-55 86,-55 86,-74"/>
<text text-anchor="middle" x="43" y="-62" font-family="Helvetica,sans-Serif" font-size="10.00">src/NukiBle.cpp</text>
</a>
</g>
</g>
<!-- Node2&#45;&gt;Node3 -->
<g id="edge2" class="edge">
<title>Node2&#45;&gt;Node3</title>
<path fill="none" stroke="#63b8ff" d="M118.86,-104.53C100.28,-94.97 76.21,-82.59 60.21,-74.36"/>
<polygon fill="#63b8ff" stroke="#63b8ff" points="117.03,-108.05 127.53,-109.51 120.24,-101.82 117.03,-108.05"/>
</g>
<!-- Node4 -->
<g id="node4" class="node">
<title>Node4</title>
<g id="a_node4"><a xlink:href="_nuki_lock_8h.html" target="_top" xlink:title=" ">
<polygon fill="white" stroke="#666666" points="187.5,-74 104.5,-74 104.5,-55 187.5,-55 187.5,-74"/>
<text text-anchor="middle" x="146" y="-62" font-family="Helvetica,sans-Serif" font-size="10.00">src/NukiLock.h</text>
</a>
</g>
</g>
<!-- Node2&#45;&gt;Node4 -->
<g id="edge3" class="edge">
<title>Node2&#45;&gt;Node4</title>
<path fill="none" stroke="#63b8ff" d="M146,-98.93C146,-90.53 146,-81.13 146,-74.44"/>
<polygon fill="#63b8ff" stroke="#63b8ff" points="142.5,-98.75 146,-108.75 149.5,-98.75 142.5,-98.75"/>
</g>
<!-- Node6 -->
<g id="node6" class="node">
<title>Node6</title>
<g id="a_node6"><a xlink:href="_nuki_opener_8h.html" target="_top" xlink:title=" ">
<polygon fill="white" stroke="#666666" points="303,-74 211,-74 211,-55 303,-55 303,-74"/>
<text text-anchor="middle" x="257" y="-62" font-family="Helvetica,sans-Serif" font-size="10.00">src/NukiOpener.h</text>
</a>
</g>
</g>
<!-- Node2&#45;&gt;Node6 -->
<g id="edge5" class="edge">
<title>Node2&#45;&gt;Node6</title>
<path fill="none" stroke="#63b8ff" d="M174.7,-104.8C194.79,-95.2 221.06,-82.66 238.45,-74.36"/>
<polygon fill="#63b8ff" stroke="#63b8ff" points="173.35,-102.04 165.83,-109.51 176.36,-108.36 173.35,-102.04"/>
</g>
<!-- Node5 -->
<g id="node5" class="node">
<title>Node5</title>
<g id="a_node5"><a xlink:href="_nuki_lock_8cpp.html" target="_top" xlink:title=" ">
<polygon fill="white" stroke="#666666" points="189.5,-19 96.5,-19 96.5,0 189.5,0 189.5,-19"/>
<text text-anchor="middle" x="143" y="-7" font-family="Helvetica,sans-Serif" font-size="10.00">src/NukiLock.cpp</text>
</a>
</g>
</g>
<!-- Node4&#45;&gt;Node5 -->
<g id="edge4" class="edge">
<title>Node4&#45;&gt;Node5</title>
<path fill="none" stroke="#63b8ff" d="M144.89,-43.93C144.42,-35.53 143.88,-26.13 143.51,-19.44"/>
<polygon fill="#63b8ff" stroke="#63b8ff" points="141.44,-43.96 145.5,-53.75 148.43,-43.57 141.44,-43.96"/>
</g>
<!-- Node7 -->
<g id="node7" class="node">
<title>Node7</title>
<g id="a_node7"><a xlink:href="_nuki_opener_8cpp.html" target="_top" xlink:title=" ">
<polygon fill="white" stroke="#666666" points="310.5,-19 207.5,-19 207.5,0 310.5,0 310.5,-19"/>
<text text-anchor="middle" x="259" y="-7" font-family="Helvetica,sans-Serif" font-size="10.00">src/NukiOpener.cpp</text>
</a>
</g>
</g>
<!-- Node6&#45;&gt;Node7 -->
<g id="edge6" class="edge">
<title>Node6&#45;&gt;Node7</title>
<path fill="none" stroke="#63b8ff" d="M257.74,-43.93C258.06,-35.53 258.41,-26.13 258.66,-19.44"/>
<polygon fill="#63b8ff" stroke="#63b8ff" points="254.21,-43.62 257.33,-53.75 261.2,-43.89 254.21,-43.62"/>
</g>
</g>
</svg>
