<?xml version="1.0" encoding="UTF-8" standalone="no"?>
<!DOCTYPE svg PUBLIC "-//W3C//DTD SVG 1.1//EN"
 "http://www.w3.org/Graphics/SVG/1.1/DTD/svg11.dtd">
<!-- Generated by graphviz version 11.0.0 (20240428.1522)
 -->
<!-- Title: src/NukiLock.h Pages: 1 -->
<!--zoomable 304 -->

<svg id="main" version="1.1" xmlns="http://www.w3.org/2000/svg" xmlns:xlink="http://www.w3.org/1999/xlink" xml:space="preserve" onload="init(evt)">
<style type="text/css"><![CDATA[
.node, .edge {opacity: 0.7;}
.node.selected, .edge.selected {opacity: 1;}
.edge:hover path { stroke: red; }
.edge:hover polygon { stroke: red; fill: red; }
]]></style>

<defs>
  <circle id="rim" cx="0" cy="0" r="7"/>
  <circle id="rim2" cx="0" cy="0" r="3.5"/>
  <g id="zoomPlus">
    <use xlink:href="#rim" fill="#404040"><set attributeName="fill" to="#808080" begin="zoomplus.mouseover" end="zoomplus.mouseout"/></use>
    <path d="M-4,0h8M0,-4v8" fill="none" stroke="white" stroke-width="1.5" pointer-events="none"/>
  </g>
  <g id="zoomMin">
    <use xlink:href="#rim" fill="#404040"><set attributeName="fill" to="#808080" begin="zoomminus.mouseover" end="zoomminus.mouseout"/></use>
    <path d="M-4,0h8" fill="none" stroke="white" stroke-width="1.5" pointer-events="none"/>
  </g>
  <g id="arrowUp" transform="translate(30 24)">
    <use xlink:href="#rim"/>
    <path pointer-events="none" fill="none" stroke="white" stroke-width="1.5" d="M0,-3.0v7 M-2.5,-0.5L0,-3.0L2.5,-0.5"/>
  </g>
  <g id="arrowRight" transform="rotate(90) translate(36 -43)">
    <use xlink:href="#rim"/>
    <path pointer-events="none" fill="none" stroke="white" stroke-width="1.5" d="M0,-3.0v7 M-2.5,-0.5L0,-3.0L2.5,-0.5"/>
  </g>
  <g id="arrowDown" transform="rotate(180) translate(-30 -48)">
    <use xlink:href="#rim"/>
    <path pointer-events="none" fill="none" stroke="white" stroke-width="1.5" d="M0,-3.0v7 M-2.5,-0.5L0,-3.0L2.5,-0.5"/>
  </g>
  <g id="arrowLeft" transform="rotate(270) translate(-36 17)">
    <use xlink:href="#rim"/>
    <path pointer-events="none" fill="none" stroke="white" stroke-width="1.5" d="M0,-3.0v7 M-2.5,-0.5L0,-3.0L2.5,-0.5"/>
  </g>
  <g id="resetDef">
    <use xlink:href="#rim2" fill="#404040"><set attributeName="fill" to="#808080" begin="reset.mouseover" end="reset.mouseout"/></use>
  </g>
</defs>
<script type="application/ecmascript">
var viewWidth = 994;
var viewHeight = 304;
var sectionId = 'dynsection-0';
</script>
<script type="application/ecmascript" xlink:href="svg.min.js"/>
<svg id="graph" class="graph">
<g id="viewport">
<title>src/NukiLock.h</title>
<!-- Node1 -->
<g id="Node000001" class="node">
<title>Node1</title>
<g id="a_Node000001"><a xlink:title=" ">
<polygon fill="#999999" stroke="#666666" points="889.21,-295.5 807.21,-295.5 807.21,-276.25 889.21,-276.25 889.21,-295.5"/>
<text text-anchor="middle" x="848.21" y="-282" font-family="Helvetica,sans-Serif" font-size="10.00">src/NukiLock.h</text>
</a>
</g>
</g>
<!-- Node2 -->
<g id="Node000002" class="node">
<title>Node2</title>
<g id="a_Node000002"><a xlink:href="_nuki_ble_8h.html" target="_top" xlink:title=" ">
<polygon fill="white" stroke="#666666" points="417.21,-240.25 359.21,-240.25 359.21,-221 417.21,-221 417.21,-240.25"/>
<text text-anchor="middle" x="388.21" y="-226.75" font-family="Helvetica,sans-Serif" font-size="10.00">NukiBle.h</text>
</a>
</g>
</g>
<!-- Node1&#45;&gt;Node2 -->
<g id="edge1_Node000001_Node000002" class="edge">
<title>Node1&#45;&gt;Node2</title>
<g id="a_edge1_Node000001_Node000002"><a xlink:title=" ">
<path fill="none" stroke="#63b8ff" d="M806.98,-280.1C719.38,-269.96 515.63,-246.38 428.69,-236.31"/>
<polygon fill="#63b8ff" stroke="#63b8ff" points="429.3,-232.86 418.97,-235.19 428.5,-239.81 429.3,-232.86"/>
</a>
</g>
</g>
<!-- Node14 -->
<g id="Node000014" class="node">
<title>Node14</title>
<g id="a_Node000014"><a xlink:href="_nuki_lock_constants_8h.html" target="_top" xlink:title=" ">
<polygon fill="white" stroke="#666666" points="986.08,-129.75 876.33,-129.75 876.33,-110.5 986.08,-110.5 986.08,-129.75"/>
<text text-anchor="middle" x="931.21" y="-116.25" font-family="Helvetica,sans-Serif" font-size="10.00">NukiLockConstants.h</text>
</a>
</g>
</g>
<!-- Node1&#45;&gt;Node14 -->
<g id="edge17_Node000001_Node000014" class="edge">
<title>Node1&#45;&gt;Node14</title>
<g id="a_edge17_Node000001_Node000014"><a xlink:title=" ">
<path fill="none" stroke="#63b8ff" d="M853.03,-275.83C862.31,-258.36 883.26,-218.71 900.21,-185 907.76,-169.99 916.05,-152.86 922.16,-140.12"/>
<polygon fill="#63b8ff" stroke="#63b8ff" points="925.27,-141.74 926.42,-131.21 918.95,-138.72 925.27,-141.74"/>
</a>
</g>
</g>
<!-- Node15 -->
<g id="Node000015" class="node">
<title>Node15</title>
<g id="a_Node000015"><a xlink:href="_nuki_lock_utils_8h.html" target="_top" xlink:title=" ">
<polygon fill="white" stroke="#666666" points="891.08,-185 805.33,-185 805.33,-165.75 891.08,-165.75 891.08,-185"/>
<text text-anchor="middle" x="848.21" y="-171.5" font-family="Helvetica,sans-Serif" font-size="10.00">NukiLockUtils.h</text>
</a>
</g>
</g>
<!-- Node1&#45;&gt;Node15 -->
<g id="edge20_Node000001_Node000015" class="edge">
<title>Node1&#45;&gt;Node15</title>
<g id="a_edge20_Node000001_Node000015"><a xlink:title=" ">
<path fill="none" stroke="#63b8ff" d="M848.21,-276C848.21,-258.75 848.21,-220.33 848.21,-196.56"/>
<polygon fill="#63b8ff" stroke="#63b8ff" points="851.71,-196.89 848.21,-186.89 844.71,-196.89 851.71,-196.89"/>
</a>
</g>
</g>
<!-- Node3 -->
<g id="Node000003" class="node">
<title>Node3</title>
<g id="a_Node000003"><a xlink:title=" ">
<polygon fill="#e0e0e0" stroke="#999999" points="749.33,-185 659.08,-185 659.08,-165.75 749.33,-165.75 749.33,-185"/>
<text text-anchor="middle" x="704.21" y="-171.5" font-family="Helvetica,sans-Serif" font-size="10.00">NimBLEDevice.h</text>
</a>
</g>
</g>
<!-- Node2&#45;&gt;Node3 -->
<g id="edge2_Node000002_Node000003" class="edge">
<title>Node2&#45;&gt;Node3</title>
<g id="a_edge2_Node000002_Node000003"><a xlink:title=" ">
<path fill="none" stroke="#63b8ff" d="M417.65,-224.66C470.01,-215.84 580.13,-197.28 647.58,-185.92"/>
<polygon fill="#63b8ff" stroke="#63b8ff" points="648.07,-189.38 657.35,-184.27 646.91,-182.48 648.07,-189.38"/>
</a>
</g>
</g>
<!-- Node4 -->
<g id="Node000004" class="node">
<title>Node4</title>
<g id="a_Node000004"><a xlink:href="_nuki_constants_8h.html" target="_top" xlink:title=" ">
<polygon fill="white" stroke="#666666" points="442.21,-74.5 354.21,-74.5 354.21,-55.25 442.21,-55.25 442.21,-74.5"/>
<text text-anchor="middle" x="398.21" y="-61" font-family="Helvetica,sans-Serif" font-size="10.00">NukiConstants.h</text>
</a>
</g>
</g>
<!-- Node2&#45;&gt;Node4 -->
<g id="edge3_Node000002_Node000004" class="edge">
<title>Node2&#45;&gt;Node4</title>
<g id="a_edge3_Node000002_Node000004"><a xlink:title=" ">
<path fill="none" stroke="#63b8ff" d="M358.85,-228.28C275.28,-224.16 40.74,-210.42 18.21,-185 -74.53,-80.4 216.26,-66.72 342.6,-65.59"/>
<polygon fill="#63b8ff" stroke="#63b8ff" points="342.45,-69.09 352.42,-65.53 342.4,-62.09 342.45,-69.09"/>
</a>
</g>
</g>
<!-- Node6 -->
<g id="Node000006" class="node">
<title>Node6</title>
<g id="a_Node000006"><a xlink:href="_nuki_data_types_8h.html" target="_top" xlink:title=" ">
<polygon fill="white" stroke="#666666" points="443.33,-129.75 353.08,-129.75 353.08,-110.5 443.33,-110.5 443.33,-129.75"/>
<text text-anchor="middle" x="398.21" y="-116.25" font-family="Helvetica,sans-Serif" font-size="10.00">NukiDataTypes.h</text>
</a>
</g>
</g>
<!-- Node2&#45;&gt;Node6 -->
<g id="edge5_Node000002_Node000006" class="edge">
<title>Node2&#45;&gt;Node6</title>
<g id="a_edge5_Node000002_Node000006"><a xlink:title=" ">
<path fill="none" stroke="#63b8ff" d="M358.95,-228.82C299.85,-226.51 169.54,-217.74 142.21,-185 136.73,-178.43 136.7,-172.3 142.21,-165.75 167.15,-136.09 273.92,-126.14 341.45,-122.8"/>
<polygon fill="#63b8ff" stroke="#63b8ff" points="341.41,-126.31 351.24,-122.36 341.09,-119.32 341.41,-126.31"/>
</a>
</g>
</g>
<!-- Node7 -->
<g id="Node000007" class="node">
<title>Node7</title>
<g id="a_Node000007"><a xlink:title=" ">
<polygon fill="#e0e0e0" stroke="#999999" points="780.46,-74.5 723.96,-74.5 723.96,-55.25 780.46,-55.25 780.46,-74.5"/>
<text text-anchor="middle" x="752.21" y="-61" font-family="Helvetica,sans-Serif" font-size="10.00">Arduino.h</text>
</a>
</g>
</g>
<!-- Node2&#45;&gt;Node7 -->
<g id="edge8_Node000002_Node000007" class="edge">
<title>Node2&#45;&gt;Node7</title>
<g id="a_edge8_Node000002_Node000007"><a xlink:title=" ">
<path fill="none" stroke="#63b8ff" d="M417.57,-228.28C501.13,-224.16 735.67,-210.42 758.21,-185 770.77,-170.83 762.32,-116.12 756.47,-86.01"/>
<polygon fill="#63b8ff" stroke="#63b8ff" points="759.92,-85.39 754.49,-76.29 753.06,-86.79 759.92,-85.39"/>
</a>
</g>
</g>
<!-- Node8 -->
<g id="Node000008" class="node">
<title>Node8</title>
<g id="a_Node000008"><a xlink:title=" ">
<polygon fill="#e0e0e0" stroke="#999999" points="227.21,-185 151.21,-185 151.21,-165.75 227.21,-165.75 227.21,-185"/>
<text text-anchor="middle" x="189.21" y="-171.5" font-family="Helvetica,sans-Serif" font-size="10.00">Preferences.h</text>
</a>
</g>
</g>
<!-- Node2&#45;&gt;Node8 -->
<g id="edge9_Node000002_Node000008" class="edge">
<title>Node2&#45;&gt;Node8</title>
<g id="a_edge9_Node000002_Node000008"><a xlink:title=" ">
<path fill="none" stroke="#63b8ff" d="M358.85,-221.77C325.88,-212.95 272.02,-198.53 233.84,-188.32"/>
<polygon fill="#63b8ff" stroke="#63b8ff" points="235.05,-185.02 224.49,-185.82 233.24,-191.78 235.05,-185.02"/>
</a>
</g>
</g>
<!-- Node9 -->
<g id="Node000009" class="node">
<title>Node9</title>
<g id="a_Node000009"><a xlink:title=" ">
<polygon fill="#e0e0e0" stroke="#999999" points="329.33,-185 245.08,-185 245.08,-165.75 329.33,-165.75 329.33,-185"/>
<text text-anchor="middle" x="287.21" y="-171.5" font-family="Helvetica,sans-Serif" font-size="10.00">esp_task_wdt.h</text>
</a>
</g>
</g>
<!-- Node2&#45;&gt;Node9 -->
<g id="edge10_Node000002_Node000009" class="edge">
<title>Node2&#45;&gt;Node9</title>
<g id="a_edge10_Node000002_Node000009"><a xlink:title=" ">
<path fill="none" stroke="#63b8ff" d="M371.08,-220.59C355.55,-212.41 332.41,-200.21 314.36,-190.69"/>
<polygon fill="#63b8ff" stroke="#63b8ff" points="316.24,-187.73 305.76,-186.16 312.98,-193.92 316.24,-187.73"/>
</a>
</g>
</g>
<!-- Node10 -->
<g id="Node000010" class="node">
<title>Node10</title>
<g id="a_Node000010"><a xlink:title=" ">
<polygon fill="#e0e0e0" stroke="#999999" points="428.83,-185 347.58,-185 347.58,-165.75 428.83,-165.75 428.83,-185"/>
<text text-anchor="middle" x="388.21" y="-171.5" font-family="Helvetica,sans-Serif" font-size="10.00">BleInterfaces.h</text>
</a>
</g>
</g>
<!-- Node2&#45;&gt;Node10 -->
<g id="edge11_Node000002_Node000010" class="edge">
<title>Node2&#45;&gt;Node10</title>
<g id="a_edge11_Node000002_Node000010"><a xlink:title=" ">
<path fill="none" stroke="#63b8ff" d="M388.21,-220.83C388.21,-214.32 388.21,-205.17 388.21,-196.87"/>
<polygon fill="#63b8ff" stroke="#63b8ff" points="391.71,-196.87 388.21,-186.87 384.71,-196.87 391.71,-196.87"/>
</a>
</g>
</g>
<!-- Node11 -->
<g id="Node000011" class="node">
<title>Node11</title>
<g id="a_Node000011"><a xlink:title=" ">
<polygon fill="#e0e0e0" stroke="#999999" points="491.83,-185 446.58,-185 446.58,-165.75 491.83,-165.75 491.83,-185"/>
<text text-anchor="middle" x="469.21" y="-171.5" font-family="Helvetica,sans-Serif" font-size="10.00">atomic</text>
</a>
</g>
</g>
<!-- Node2&#45;&gt;Node11 -->
<g id="edge12_Node000002_Node000011" class="edge">
<title>Node2&#45;&gt;Node11</title>
<g id="a_edge12_Node000002_Node000011"><a xlink:title=" ">
<path fill="none" stroke="#63b8ff" d="M401.95,-220.59C413.93,-212.71 431.58,-201.11 445.79,-191.77"/>
<polygon fill="#63b8ff" stroke="#63b8ff" points="447.7,-194.7 454.14,-186.28 443.86,-188.85 447.7,-194.7"/>
</a>
</g>
</g>
<!-- Node12 -->
<g id="Node000012" class="node">
<title>Node12</title>
<g id="a_Node000012"><a xlink:title=" ">
<polygon fill="#e0e0e0" stroke="#999999" points="640.96,-185 509.46,-185 509.46,-165.75 640.96,-165.75 640.96,-185"/>
<text text-anchor="middle" x="575.21" y="-171.5" font-family="Helvetica,sans-Serif" font-size="10.00">sodium/crypto_secretbox.h</text>
</a>
</g>
</g>
<!-- Node2&#45;&gt;Node12 -->
<g id="edge13_Node000002_Node000012" class="edge">
<title>Node2&#45;&gt;Node12</title>
<g id="a_edge13_Node000002_Node000012"><a xlink:title=" ">
<path fill="none" stroke="#63b8ff" d="M417.43,-221.3C448.29,-212.52 497.27,-198.57 532.48,-188.54"/>
<polygon fill="#63b8ff" stroke="#63b8ff" points="533.27,-191.96 541.92,-185.85 531.35,-185.23 533.27,-191.96"/>
</a>
</g>
</g>
<!-- Node13 -->
<g id="Node000013" class="node">
<title>Node13</title>
<g id="a_Node000013"><a xlink:href="_nuki_ble_8hpp.html" target="_top" xlink:title=" ">
<polygon fill="white" stroke="#666666" points="95.46,-185 26.96,-185 26.96,-165.75 95.46,-165.75 95.46,-185"/>
<text text-anchor="middle" x="61.21" y="-171.5" font-family="Helvetica,sans-Serif" font-size="10.00">NukiBle.hpp</text>
</a>
</g>
</g>
<!-- Node2&#45;&gt;Node13 -->
<g id="edge14_Node000002_Node000013" class="edge">
<title>Node2&#45;&gt;Node13</title>
<g id="a_edge14_Node000002_Node000013"><a xlink:title=" ">
<path fill="none" stroke="#63b8ff" d="M358.85,-225.12C307.98,-217.27 200.13,-200.44 109.21,-185 108.39,-184.86 107.57,-184.72 106.75,-184.58"/>
<polygon fill="#63b8ff" stroke="#63b8ff" points="107.75,-181.2 97.29,-182.93 106.54,-188.1 107.75,-181.2"/>
</a>
</g>
</g>
<!-- Node5 -->
<g id="Node000005" class="node">
<title>Node5</title>
<g id="a_Node000005"><a xlink:title=" ">
<polygon fill="#e0e0e0" stroke="#999999" points="513.71,-19.25 428.71,-19.25 428.71,0 513.71,0 513.71,-19.25"/>
<text text-anchor="middle" x="471.21" y="-5.75" font-family="Helvetica,sans-Serif" font-size="10.00">NimBLEUUID.h</text>
</a>
</g>
</g>
<!-- Node4&#45;&gt;Node5 -->
<g id="edge4_Node000004_Node000005" class="edge">
<title>Node4&#45;&gt;Node5</title>
<g id="a_edge4_Node000004_Node000005"><a xlink:title=" ">
<path fill="none" stroke="#63b8ff" d="M410.59,-54.84C421.35,-46.99 437.18,-35.45 449.96,-26.12"/>
<polygon fill="#63b8ff" stroke="#63b8ff" points="451.77,-29.14 457.78,-20.42 447.64,-23.48 451.77,-29.14"/>
</a>
</g>
</g>
<!-- Node6&#45;&gt;Node4 -->
<g id="edge7_Node000006_Node000004" class="edge">
<title>Node6&#45;&gt;Node4</title>
<g id="a_edge7_Node000006_Node000004"><a xlink:title=" ">
<path fill="none" stroke="#63b8ff" d="M398.21,-110.33C398.21,-103.82 398.21,-94.67 398.21,-86.37"/>
<polygon fill="#63b8ff" stroke="#63b8ff" points="401.71,-86.37 398.21,-76.37 394.71,-86.37 401.71,-86.37"/>
</a>
</g>
</g>
<!-- Node6&#45;&gt;Node7 -->
<g id="edge6_Node000006_Node000007" class="edge">
<title>Node6&#45;&gt;Node7</title>
<g id="a_edge6_Node000006_Node000007"><a xlink:title=" ">
<path fill="none" stroke="#63b8ff" d="M443.76,-112.27C513.7,-101.75 646.36,-81.8 712.56,-71.84"/>
<polygon fill="#63b8ff" stroke="#63b8ff" points="712.87,-75.33 722.24,-70.38 711.83,-68.41 712.87,-75.33"/>
</a>
</g>
</g>
<!-- Node13&#45;&gt;Node4 -->
<g id="edge15_Node000013_Node000004" class="edge">
<title>Node13&#45;&gt;Node4</title>
<g id="a_edge15_Node000013_Node000004"><a xlink:title=" ">
<path fill="none" stroke="#63b8ff" d="M89.36,-165.31C149.45,-145.96 290.37,-100.59 359.12,-78.46"/>
<polygon fill="#63b8ff" stroke="#63b8ff" points="360.01,-81.85 368.46,-75.45 357.87,-75.19 360.01,-81.85"/>
</a>
</g>
</g>
<!-- Node13&#45;&gt;Node6 -->
<g id="edge16_Node000013_Node000006" class="edge">
<title>Node13&#45;&gt;Node6</title>
<g id="a_edge16_Node000013_Node000006"><a xlink:title=" ">
<path fill="none" stroke="#63b8ff" d="M95.8,-168.05C100.31,-167.26 104.87,-166.48 109.21,-165.75 189.72,-152.3 283.1,-138.14 341.42,-129.47"/>
<polygon fill="#63b8ff" stroke="#63b8ff" points="341.73,-132.97 351.11,-128.04 340.7,-126.04 341.73,-132.97"/>
</a>
</g>
</g>
<!-- Node14&#45;&gt;Node4 -->
<g id="edge19_Node000014_Node000004" class="edge">
<title>Node14&#45;&gt;Node4</title>
<g id="a_edge19_Node000014_Node000004"><a xlink:title=" ">
<path fill="none" stroke="#63b8ff" d="M875.93,-113.6C773.74,-103.39 556.41,-81.68 453.91,-71.44"/>
<polygon fill="#63b8ff" stroke="#63b8ff" points="454.39,-67.97 444.09,-70.46 453.69,-74.94 454.39,-67.97"/>
</a>
</g>
</g>
<!-- Node14&#45;&gt;Node5 -->
<g id="edge18_Node000014_Node000005" class="edge">
<title>Node14&#45;&gt;Node5</title>
<g id="a_edge18_Node000014_Node000005"><a xlink:title=" ">
<path fill="none" stroke="#63b8ff" d="M915.17,-110.08C889.45,-96.01 837,-69.05 789.21,-55.25 698.95,-29.19 589.73,-18.1 525.62,-13.57"/>
<polygon fill="#63b8ff" stroke="#63b8ff" points="525.91,-10.08 515.7,-12.9 525.44,-17.06 525.91,-10.08"/>
</a>
</g>
</g>
<!-- Node15&#45;&gt;Node6 -->
<g id="edge22_Node000015_Node000006" class="edge">
<title>Node15&#45;&gt;Node6</title>
<g id="a_edge22_Node000015_Node000006"><a xlink:title=" ">
<path fill="none" stroke="#63b8ff" d="M805.06,-169.27C723.31,-159.6 545.91,-138.6 454.76,-127.82"/>
<polygon fill="#63b8ff" stroke="#63b8ff" points="455.4,-124.37 445.06,-126.67 454.58,-131.32 455.4,-124.37"/>
</a>
</g>
</g>
<!-- Node15&#45;&gt;Node7 -->
<g id="edge21_Node000015_Node000007" class="edge">
<title>Node15&#45;&gt;Node7</title>
<g id="a_edge21_Node000015_Node000007"><a xlink:title=" ">
<path fill="none" stroke="#63b8ff" d="M847.63,-165.59C846.35,-152.35 842.24,-127.04 829.21,-110.5 818.59,-97.02 802.69,-86.84 788.1,-79.63"/>
<polygon fill="#63b8ff" stroke="#63b8ff" points="789.72,-76.52 779.17,-75.53 786.8,-82.89 789.72,-76.52"/>
</a>
</g>
</g>
<!-- Node15&#45;&gt;Node14 -->
<g id="edge23_Node000015_Node000014" class="edge">
<title>Node15&#45;&gt;Node14</title>
<g id="a_edge23_Node000015_Node000014"><a xlink:title=" ">
<path fill="none" stroke="#63b8ff" d="M862.29,-165.34C874.69,-157.39 893,-145.64 907.64,-136.25"/>
<polygon fill="#63b8ff" stroke="#63b8ff" points="909.26,-139.37 915.79,-131.02 905.48,-133.47 909.26,-139.37"/>
</a>
</g>
</g>
<!-- Node16 -->
<g id="Node000016" class="node">
<title>Node16</title>
<g id="a_Node000016"><a xlink:title=" ">
<polygon fill="#e0e0e0" stroke="#999999" points="820.21,-129.75 780.21,-129.75 780.21,-110.5 820.21,-110.5 820.21,-129.75"/>
<text text-anchor="middle" x="800.21" y="-116.25" font-family="Helvetica,sans-Serif" font-size="10.00">bitset</text>
</a>
</g>
</g>
<!-- Node15&#45;&gt;Node16 -->
<g id="edge24_Node000015_Node000016" class="edge">
<title>Node15&#45;&gt;Node16</title>
<g id="a_edge24_Node000015_Node000016"><a xlink:title=" ">
<path fill="none" stroke="#63b8ff" d="M840.28,-165.58C833.65,-158.23 823.99,-147.51 815.82,-138.44"/>
<polygon fill="#63b8ff" stroke="#63b8ff" points="818.62,-136.32 809.32,-131.23 813.42,-141 818.62,-136.32"/>
</a>
</g>
</g>
</g>
</svg>

<g id="navigator" transform="translate(0 0)" fill="#404254">
  <rect fill="#f2f5e9" fill-opacity="0.5" stroke="#606060" stroke-width=".5" x="0" y="0" width="60" height="60"/>
  <use id="zoomplus" xlink:href="#zoomPlus" x="17" y="9" onmousedown="handleZoom(evt,'in')"/>
  <use id="zoomminus" xlink:href="#zoomMin" x="42" y="9" onmousedown="handleZoom(evt,'out')"/>
  <use id="reset" xlink:href="#resetDef" x="30" y="36" onmousedown="handleReset()"/>
   <use id="arrowup" xlink:href="#arrowUp" x="0" y="0" onmousedown="handlePan(0,-1)"/>
  <use id="arrowright" xlink:href="#arrowRight" x="0" y="0" onmousedown="handlePan(1,0)"/>
  <use id="arrowdown" xlink:href="#arrowDown" x="0" y="0" onmousedown="handlePan(0,1)"/>
  <use id="arrowleft" xlink:href="#arrowLeft" x="0" y="0" onmousedown="handlePan(-1,0)"/>
</g>
<svg viewBox="0 0 15 15" width="100%" height="30px" preserveAspectRatio="xMaxYMin meet">
 <g id="arrow_out" transform="scale(0.3 0.3)">
  <a xlink:href="_nuki_lock_8h__incl_org.svg" target="_base">
   <rect id="button" ry="5" rx="5" y="6" x="6" height="38" width="38"
        fill="#f2f5e9" fill-opacity="0.5" stroke="#606060" stroke-width="1.0"/>
   <path id="arrow"
     d="M 11.500037,31.436501 C 11.940474,20.09759 22.043105,11.32322 32.158766,21.979434 L 37.068811,17.246167 C 37.068811,17.246167 37.088388,32 37.088388,32 L 22.160133,31.978069 C 22.160133,31.978069 26.997745,27.140456 26.997745,27.140456 C 18.528582,18.264221 13.291696,25.230495 11.500037,31.436501 z"
     style="fill:#404040;"/>
  </a>
 </g>
</svg>

<style type='text/css'>
<![CDATA[
[data-mouse-over-selected='false'] { opacity: 0.7; }
[data-mouse-over-selected='true']  { opacity: 1.0; }
]]>
</style>
<script type="application/ecmascript"><![CDATA[
document.addEventListener('DOMContentLoaded', (event) => {
  highlightEdges();
  highlightAdjacentNodes();
});
]]></script>
</svg>
