<?xml version="1.0" encoding="UTF-8" standalone="no"?>
<!DOCTYPE svg PUBLIC "-//W3C//DTD SVG 1.1//EN"
 "http://www.w3.org/Graphics/SVG/1.1/DTD/svg11.dtd">
<!-- Generated by graphviz version 5.0.1 (20220820.1526)
 -->
<!-- Title: src/NukiBle.cpp Pages: 1 -->
<svg width="1524pt" height="327pt"
 viewBox="0.00 0.00 1524.21 327.00" xmlns="http://www.w3.org/2000/svg" xmlns:xlink="http://www.w3.org/1999/xlink">
<g id="graph0" class="graph" transform="scale(1 1) rotate(0) translate(4 323)">
<title>src/NukiBle.cpp</title>
<!-- Node1 -->
<g id="node1" class="node">
<title>Node1</title>
<g id="a_node1"><a xlink:title=" ">
<polygon fill="#999999" stroke="#666666" points="868.21,-319 768.21,-319 768.21,-298 868.21,-298 868.21,-319"/>
<text text-anchor="middle" x="818.21" y="-305.4" font-family="Helvetica,sans-Serif" font-size="12.00">src/NukiBle.cpp</text>
</a>
</g>
</g>
<!-- Node2 -->
<g id="node2" class="node">
<title>Node2</title>
<g id="a_node2"><a xlink:href="_nuki_ble_8h.html" target="_top" xlink:title=" ">
<polygon fill="white" stroke="#666666" points="671.21,-255.5 603.21,-255.5 603.21,-234.5 671.21,-234.5 671.21,-255.5"/>
<text text-anchor="middle" x="637.21" y="-241.9" font-family="Helvetica,sans-Serif" font-size="12.00">NukiBle.h</text>
</a>
</g>
</g>
<!-- Node1&#45;&gt;Node2 -->
<g id="edge1" class="edge">
<title>Node1&#45;&gt;Node2</title>
<path fill="none" stroke="#63b8ff" d="M789.93,-297.89C758.98,-287.37 709.22,-270.47 674.95,-258.82"/>
<polygon fill="#63b8ff" stroke="#63b8ff" points="675.89,-255.45 665.29,-255.54 673.64,-262.07 675.89,-255.45"/>
</g>
<!-- Node11 -->
<g id="node11" class="node">
<title>Node11</title>
<g id="a_node11"><a xlink:title=" ">
<polygon fill="#e0e0e0" stroke="#999999" points="1183.71,-192 1024.71,-192 1024.71,-171 1183.71,-171 1183.71,-192"/>
<text text-anchor="middle" x="1104.21" y="-178.4" font-family="Helvetica,sans-Serif" font-size="12.00">sodium/crypto_secretbox.h</text>
</a>
</g>
</g>
<!-- Node1&#45;&gt;Node11 -->
<g id="edge32" class="edge">
<title>Node1&#45;&gt;Node11</title>
<path fill="none" stroke="#63b8ff" d="M771.16,-298C751.28,-291.4 730.03,-280.36 718.21,-262 710.03,-249.29 708.17,-239.29 718.21,-228 720.67,-225.23 901.08,-204.89 1014.35,-192.36"/>
<polygon fill="#63b8ff" stroke="#63b8ff" points="1014.86,-195.82 1024.42,-191.24 1014.1,-188.86 1014.86,-195.82"/>
</g>
<!-- Node13 -->
<g id="node13" class="node">
<title>Node13</title>
<g id="a_node13"><a xlink:href="_nuki_lock_utils_8h.html" target="_top" xlink:title=" ">
<polygon fill="white" stroke="#666666" points="226.21,-192 126.21,-192 126.21,-171 226.21,-171 226.21,-192"/>
<text text-anchor="middle" x="176.21" y="-178.4" font-family="Helvetica,sans-Serif" font-size="12.00">NukiLockUtils.h</text>
</a>
</g>
</g>
<!-- Node1&#45;&gt;Node13 -->
<g id="edge16" class="edge">
<title>Node1&#45;&gt;Node13</title>
<path fill="none" stroke="#63b8ff" d="M767.92,-303.72C697.16,-297.84 564.42,-284.75 453.21,-262 366.18,-244.2 266.62,-212.85 213.78,-195.3"/>
<polygon fill="#63b8ff" stroke="#63b8ff" points="214.76,-191.94 204.16,-192.09 212.54,-198.58 214.76,-191.94"/>
</g>
<!-- Node16 -->
<g id="node16" class="node">
<title>Node16</title>
<g id="a_node16"><a xlink:href="_nuki_utils_8h.html" target="_top" xlink:title=" ">
<polygon fill="white" stroke="#666666" points="318.21,-192 244.21,-192 244.21,-171 318.21,-171 318.21,-192"/>
<text text-anchor="middle" x="281.21" y="-178.4" font-family="Helvetica,sans-Serif" font-size="12.00">NukiUtils.h</text>
</a>
</g>
</g>
<!-- Node1&#45;&gt;Node16 -->
<g id="edge23" class="edge">
<title>Node1&#45;&gt;Node16</title>
<path fill="none" stroke="#63b8ff" d="M767.8,-297.98C722.3,-289.22 653.6,-275.56 594.21,-262 498.62,-240.17 387.57,-211.06 326.78,-194.81"/>
<polygon fill="#63b8ff" stroke="#63b8ff" points="327.32,-191.33 316.75,-192.12 325.5,-198.09 327.32,-191.33"/>
</g>
<!-- Node17 -->
<g id="node17" class="node">
<title>Node17</title>
<g id="a_node17"><a xlink:title=" ">
<polygon fill="#e0e0e0" stroke="#999999" points="783.21,-255.5 727.21,-255.5 727.21,-234.5 783.21,-234.5 783.21,-255.5"/>
<text text-anchor="middle" x="755.21" y="-241.9" font-family="Helvetica,sans-Serif" font-size="12.00">string.h</text>
</a>
</g>
</g>
<!-- Node1&#45;&gt;Node17 -->
<g id="edge28" class="edge">
<title>Node1&#45;&gt;Node17</title>
<path fill="none" stroke="#63b8ff" d="M808.37,-297.89C798.81,-288.56 784.09,-274.19 772.56,-262.94"/>
<polygon fill="#63b8ff" stroke="#63b8ff" points="774.8,-260.23 765.19,-255.74 769.91,-265.23 774.8,-260.23"/>
</g>
<!-- Node18 -->
<g id="node18" class="node">
<title>Node18</title>
<g id="a_node18"><a xlink:title=" ">
<polygon fill="#e0e0e0" stroke="#999999" points="962.71,-255.5 801.71,-255.5 801.71,-234.5 962.71,-234.5 962.71,-255.5"/>
<text text-anchor="middle" x="882.21" y="-241.9" font-family="Helvetica,sans-Serif" font-size="12.00">sodium/crypto_scalarmult.h</text>
</a>
</g>
</g>
<!-- Node1&#45;&gt;Node18 -->
<g id="edge29" class="edge">
<title>Node1&#45;&gt;Node18</title>
<path fill="none" stroke="#63b8ff" d="M828.21,-297.89C837.92,-288.56 852.88,-274.19 864.59,-262.94"/>
<polygon fill="#63b8ff" stroke="#63b8ff" points="867.29,-265.2 872.07,-255.74 862.44,-260.15 867.29,-265.2"/>
</g>
<!-- Node19 -->
<g id="node19" class="node">
<title>Node19</title>
<g id="a_node19"><a xlink:title=" ">
<polygon fill="#e0e0e0" stroke="#999999" points="1101.71,-262 980.71,-262 980.71,-228 1101.71,-228 1101.71,-262"/>
<text text-anchor="start" x="988.71" y="-248.4" font-family="Helvetica,sans-Serif" font-size="12.00">sodium/crypto_core</text>
<text text-anchor="middle" x="1041.21" y="-235.4" font-family="Helvetica,sans-Serif" font-size="12.00">_hsalsa20.h</text>
</a>
</g>
</g>
<!-- Node1&#45;&gt;Node19 -->
<g id="edge30" class="edge">
<title>Node1&#45;&gt;Node19</title>
<path fill="none" stroke="#63b8ff" d="M853.06,-297.89C885.01,-289.08 933.26,-275.77 972.89,-264.84"/>
<polygon fill="#63b8ff" stroke="#63b8ff" points="974.06,-268.15 982.77,-262.12 972.2,-261.4 974.06,-268.15"/>
</g>
<!-- Node20 -->
<g id="node20" class="node">
<title>Node20</title>
<g id="a_node20"><a xlink:title=" ">
<polygon fill="#e0e0e0" stroke="#999999" points="1240.71,-262 1119.71,-262 1119.71,-228 1240.71,-228 1240.71,-262"/>
<text text-anchor="start" x="1127.71" y="-248.4" font-family="Helvetica,sans-Serif" font-size="12.00">sodium/crypto_auth</text>
<text text-anchor="middle" x="1180.21" y="-235.4" font-family="Helvetica,sans-Serif" font-size="12.00">_hmacsha256.h</text>
</a>
</g>
</g>
<!-- Node1&#45;&gt;Node20 -->
<g id="edge31" class="edge">
<title>Node1&#45;&gt;Node20</title>
<path fill="none" stroke="#63b8ff" d="M868.44,-300.85C924.89,-293.12 1019.48,-279.4 1109.83,-262.2"/>
<polygon fill="#63b8ff" stroke="#63b8ff" points="1110.52,-265.63 1119.68,-260.3 1109.2,-258.75 1110.52,-265.63"/>
</g>
<!-- Node21 -->
<g id="node21" class="node">
<title>Node21</title>
<g id="a_node21"><a xlink:title=" ">
<polygon fill="#e0e0e0" stroke="#999999" points="1385.71,-255.5 1258.71,-255.5 1258.71,-234.5 1385.71,-234.5 1385.71,-255.5"/>
<text text-anchor="middle" x="1322.21" y="-241.9" font-family="Helvetica,sans-Serif" font-size="12.00">sodium/crypto_box.h</text>
</a>
</g>
</g>
<!-- Node1&#45;&gt;Node21 -->
<g id="edge33" class="edge">
<title>Node1&#45;&gt;Node21</title>
<path fill="none" stroke="#63b8ff" d="M868.35,-304.08C949.12,-298.15 1112.89,-284.42 1250.21,-262 1257.68,-260.78 1265.54,-259.27 1273.21,-257.67"/>
<polygon fill="#63b8ff" stroke="#63b8ff" points="1274.09,-261.06 1283.13,-255.53 1272.62,-254.22 1274.09,-261.06"/>
</g>
<!-- Node22 -->
<g id="node22" class="node">
<title>Node22</title>
<g id="a_node22"><a xlink:title=" ">
<polygon fill="#e0e0e0" stroke="#999999" points="1516.21,-255.5 1404.21,-255.5 1404.21,-234.5 1516.21,-234.5 1516.21,-255.5"/>
<text text-anchor="middle" x="1460.21" y="-241.9" font-family="Helvetica,sans-Serif" font-size="12.00">NimBLEBeacon.h</text>
</a>
</g>
</g>
<!-- Node1&#45;&gt;Node22 -->
<g id="edge34" class="edge">
<title>Node1&#45;&gt;Node22</title>
<path fill="none" stroke="#63b8ff" d="M868.32,-306.29C968.84,-303.25 1202.02,-293.18 1395.21,-262 1402,-260.91 1409.11,-259.46 1416.05,-257.89"/>
<polygon fill="#63b8ff" stroke="#63b8ff" points="1417.1,-261.24 1426.02,-255.52 1415.48,-254.43 1417.1,-261.24"/>
</g>
<!-- Node3 -->
<g id="node3" class="node">
<title>Node3</title>
<g id="a_node3"><a xlink:title=" ">
<polygon fill="#e0e0e0" stroke="#999999" points="867.71,-192 760.71,-192 760.71,-171 867.71,-171 867.71,-192"/>
<text text-anchor="middle" x="814.21" y="-178.4" font-family="Helvetica,sans-Serif" font-size="12.00">NimBLEDevice.h</text>
</a>
</g>
</g>
<!-- Node2&#45;&gt;Node3 -->
<g id="edge2" class="edge">
<title>Node2&#45;&gt;Node3</title>
<path fill="none" stroke="#63b8ff" d="M664.87,-234.39C695.13,-223.87 743.8,-206.97 777.3,-195.32"/>
<polygon fill="#63b8ff" stroke="#63b8ff" points="778.45,-198.63 786.75,-192.04 776.16,-192.02 778.45,-198.63"/>
</g>
<!-- Node4 -->
<g id="node4" class="node">
<title>Node4</title>
<g id="a_node4"><a xlink:href="_nuki_constants_8h.html" target="_top" xlink:title=" ">
<polygon fill="white" stroke="#666666" points="407.21,-78 303.21,-78 303.21,-57 407.21,-57 407.21,-78"/>
<text text-anchor="middle" x="355.21" y="-64.4" font-family="Helvetica,sans-Serif" font-size="12.00">NukiConstants.h</text>
</a>
</g>
</g>
<!-- Node2&#45;&gt;Node4 -->
<g id="edge3" class="edge">
<title>Node2&#45;&gt;Node4</title>
<path fill="none" stroke="#63b8ff" d="M671.37,-236.08C682.76,-233.47 695.52,-230.57 707.21,-228 785.04,-210.87 927.84,-232.54 877.21,-171 819.64,-101.02 543.61,-78.1 417.87,-71.21"/>
<polygon fill="#63b8ff" stroke="#63b8ff" points="417.8,-67.7 407.63,-70.67 417.43,-74.69 417.8,-67.7"/>
</g>
<!-- Node6 -->
<g id="node6" class="node">
<title>Node6</title>
<g id="a_node6"><a xlink:href="_nuki_data_types_8h.html" target="_top" xlink:title=" ">
<polygon fill="white" stroke="#666666" points="414.71,-135 305.71,-135 305.71,-114 414.71,-114 414.71,-135"/>
<text text-anchor="middle" x="360.21" y="-121.4" font-family="Helvetica,sans-Serif" font-size="12.00">NukiDataTypes.h</text>
</a>
</g>
</g>
<!-- Node2&#45;&gt;Node6 -->
<g id="edge5" class="edge">
<title>Node2&#45;&gt;Node6</title>
<path fill="none" stroke="#63b8ff" d="M603.03,-239.12C536.71,-229.37 395.58,-207.11 379.21,-192 366.42,-180.18 362.02,-160.41 360.62,-145.49"/>
<polygon fill="#63b8ff" stroke="#63b8ff" points="364.1,-145.03 360.03,-135.24 357.11,-145.42 364.1,-145.03"/>
</g>
<!-- Node7 -->
<g id="node7" class="node">
<title>Node7</title>
<g id="a_node7"><a xlink:title=" ">
<polygon fill="#e0e0e0" stroke="#999999" points="277.21,-78 209.21,-78 209.21,-57 277.21,-57 277.21,-78"/>
<text text-anchor="middle" x="243.21" y="-64.4" font-family="Helvetica,sans-Serif" font-size="12.00">Arduino.h</text>
</a>
</g>
</g>
<!-- Node2&#45;&gt;Node7 -->
<g id="edge8" class="edge">
<title>Node2&#45;&gt;Node7</title>
<path fill="none" stroke="#63b8ff" d="M602.9,-238.46C542.89,-228.44 424.1,-206.94 412.21,-192 390.42,-164.6 444.72,-141.62 423.21,-114 414.78,-103.17 337.94,-86.62 287.42,-76.75"/>
<polygon fill="#63b8ff" stroke="#63b8ff" points="287.86,-73.27 277.38,-74.81 286.53,-80.14 287.86,-73.27"/>
</g>
<!-- Node8 -->
<g id="node8" class="node">
<title>Node8</title>
<g id="a_node8"><a xlink:title=" ">
<polygon fill="#e0e0e0" stroke="#999999" points="511.21,-192 421.21,-192 421.21,-171 511.21,-171 511.21,-192"/>
<text text-anchor="middle" x="466.21" y="-178.4" font-family="Helvetica,sans-Serif" font-size="12.00">Preferences.h</text>
</a>
</g>
</g>
<!-- Node2&#45;&gt;Node8 -->
<g id="edge9" class="edge">
<title>Node2&#45;&gt;Node8</title>
<path fill="none" stroke="#63b8ff" d="M610.49,-234.39C581.38,-223.92 534.64,-207.11 502.29,-195.47"/>
<polygon fill="#63b8ff" stroke="#63b8ff" points="503.34,-192.13 492.74,-192.04 500.97,-198.72 503.34,-192.13"/>
</g>
<!-- Node9 -->
<g id="node9" class="node">
<title>Node9</title>
<g id="a_node9"><a xlink:title=" ">
<polygon fill="#e0e0e0" stroke="#999999" points="629.21,-192 529.21,-192 529.21,-171 629.21,-171 629.21,-192"/>
<text text-anchor="middle" x="579.21" y="-178.4" font-family="Helvetica,sans-Serif" font-size="12.00">esp_task_wdt.h</text>
</a>
</g>
</g>
<!-- Node2&#45;&gt;Node9 -->
<g id="edge10" class="edge">
<title>Node2&#45;&gt;Node9</title>
<path fill="none" stroke="#63b8ff" d="M628.15,-234.39C619.43,-225.15 606.06,-210.97 595.49,-199.76"/>
<polygon fill="#63b8ff" stroke="#63b8ff" points="597.81,-197.12 588.4,-192.24 592.72,-201.92 597.81,-197.12"/>
</g>
<!-- Node10 -->
<g id="node10" class="node">
<title>Node10</title>
<g id="a_node10"><a xlink:title=" ">
<polygon fill="#e0e0e0" stroke="#999999" points="742.71,-192 647.71,-192 647.71,-171 742.71,-171 742.71,-192"/>
<text text-anchor="middle" x="695.21" y="-178.4" font-family="Helvetica,sans-Serif" font-size="12.00">BleInterfaces.h</text>
</a>
</g>
</g>
<!-- Node2&#45;&gt;Node10 -->
<g id="edge11" class="edge">
<title>Node2&#45;&gt;Node10</title>
<path fill="none" stroke="#63b8ff" d="M646.27,-234.39C654.99,-225.15 668.37,-210.97 678.93,-199.76"/>
<polygon fill="#63b8ff" stroke="#63b8ff" points="681.71,-201.92 686.02,-192.24 676.61,-197.12 681.71,-201.92"/>
</g>
<!-- Node2&#45;&gt;Node11 -->
<g id="edge12" class="edge">
<title>Node2&#45;&gt;Node11</title>
<path fill="none" stroke="#63b8ff" d="M662.59,-234.42C669.81,-232 677.75,-229.63 685.21,-228 689.21,-227.13 892.4,-205.24 1014.32,-192.14"/>
<polygon fill="#63b8ff" stroke="#63b8ff" points="1014.83,-195.61 1024.4,-191.06 1014.08,-188.65 1014.83,-195.61"/>
</g>
<!-- Node12 -->
<g id="node12" class="node">
<title>Node12</title>
<g id="a_node12"><a xlink:href="_nuki_ble_8hpp.html" target="_top" xlink:title=" ">
<polygon fill="white" stroke="#666666" points="1006.21,-192 924.21,-192 924.21,-171 1006.21,-171 1006.21,-192"/>
<text text-anchor="middle" x="965.21" y="-178.4" font-family="Helvetica,sans-Serif" font-size="12.00">NukiBle.hpp</text>
</a>
</g>
</g>
<!-- Node2&#45;&gt;Node12 -->
<g id="edge13" class="edge">
<title>Node2&#45;&gt;Node12</title>
<path fill="none" stroke="#63b8ff" d="M663.14,-234.5C670.23,-232.14 677.96,-229.78 685.21,-228 783.58,-203.91 810.31,-208.62 910.21,-192 911.48,-191.79 912.76,-191.58 914.05,-191.36"/>
<polygon fill="#63b8ff" stroke="#63b8ff" points="914.8,-194.78 924.08,-189.66 913.63,-187.88 914.8,-194.78"/>
</g>
<!-- Node5 -->
<g id="node5" class="node">
<title>Node5</title>
<g id="a_node5"><a xlink:title=" ">
<polygon fill="#e0e0e0" stroke="#999999" points="267.21,-21 167.21,-21 167.21,0 267.21,0 267.21,-21"/>
<text text-anchor="middle" x="217.21" y="-7.4" font-family="Helvetica,sans-Serif" font-size="12.00">NimBLEUUID.h</text>
</a>
</g>
</g>
<!-- Node4&#45;&gt;Node5 -->
<g id="edge4" class="edge">
<title>Node4&#45;&gt;Node5</title>
<path fill="none" stroke="#63b8ff" d="M331.17,-56.92C308.95,-48.06 275.7,-34.81 250.85,-24.91"/>
<polygon fill="#63b8ff" stroke="#63b8ff" points="252.02,-21.61 241.44,-21.16 249.43,-28.11 252.02,-21.61"/>
</g>
<!-- Node6&#45;&gt;Node4 -->
<g id="edge7" class="edge">
<title>Node6&#45;&gt;Node4</title>
<path fill="none" stroke="#63b8ff" d="M359.34,-113.92C358.7,-106.91 357.82,-97.14 357.03,-88.47"/>
<polygon fill="#63b8ff" stroke="#63b8ff" points="360.5,-87.98 356.11,-78.34 353.53,-88.62 360.5,-87.98"/>
</g>
<!-- Node6&#45;&gt;Node7 -->
<g id="edge6" class="edge">
<title>Node6&#45;&gt;Node7</title>
<path fill="none" stroke="#63b8ff" d="M339.83,-113.92C321.32,-105.22 293.8,-92.28 272.85,-82.43"/>
<polygon fill="#63b8ff" stroke="#63b8ff" points="274.29,-79.24 263.75,-78.16 271.31,-85.58 274.29,-79.24"/>
</g>
<!-- Node12&#45;&gt;Node4 -->
<g id="edge14" class="edge">
<title>Node12&#45;&gt;Node4</title>
<path fill="none" stroke="#63b8ff" d="M960.41,-170.7C952.37,-155.53 934.65,-126.75 910.21,-114 826,-70.08 544.14,-66.77 417.62,-67.61"/>
<polygon fill="#63b8ff" stroke="#63b8ff" points="417.29,-64.11 407.32,-67.69 417.35,-71.11 417.29,-64.11"/>
</g>
<!-- Node12&#45;&gt;Node6 -->
<g id="edge15" class="edge">
<title>Node12&#45;&gt;Node6</title>
<path fill="none" stroke="#63b8ff" d="M924.04,-175.89C909.28,-174.28 892.51,-172.5 877.21,-171 714.6,-155.07 522.96,-138.88 425,-130.79"/>
<polygon fill="#63b8ff" stroke="#63b8ff" points="425.21,-127.29 414.96,-129.96 424.64,-134.27 425.21,-127.29"/>
</g>
<!-- Node13&#45;&gt;Node6 -->
<g id="edge18" class="edge">
<title>Node13&#45;&gt;Node6</title>
<path fill="none" stroke="#63b8ff" d="M208.26,-170.92C238.77,-161.8 284.87,-148.02 318.29,-138.03"/>
<polygon fill="#63b8ff" stroke="#63b8ff" points="319.64,-141.28 328.22,-135.06 317.64,-134.57 319.64,-141.28"/>
</g>
<!-- Node13&#45;&gt;Node7 -->
<g id="edge17" class="edge">
<title>Node13&#45;&gt;Node7</title>
<path fill="none" stroke="#63b8ff" d="M126.17,-177.48C64.87,-171.92 -26.77,-156.41 8.21,-114 31.9,-85.29 137.5,-74.48 198.78,-70.58"/>
<polygon fill="#63b8ff" stroke="#63b8ff" points="199.18,-74.06 208.95,-69.97 198.76,-67.07 199.18,-74.06"/>
</g>
<!-- Node14 -->
<g id="node14" class="node">
<title>Node14</title>
<g id="a_node14"><a xlink:href="_nuki_lock_constants_8h.html" target="_top" xlink:title=" ">
<polygon fill="white" stroke="#666666" points="147.21,-135 17.21,-135 17.21,-114 147.21,-114 147.21,-135"/>
<text text-anchor="middle" x="82.21" y="-121.4" font-family="Helvetica,sans-Serif" font-size="12.00">NukiLockConstants.h</text>
</a>
</g>
</g>
<!-- Node13&#45;&gt;Node14 -->
<g id="edge19" class="edge">
<title>Node13&#45;&gt;Node14</title>
<path fill="none" stroke="#63b8ff" d="M159.84,-170.92C145.37,-162.45 124.04,-149.98 107.4,-140.24"/>
<polygon fill="#63b8ff" stroke="#63b8ff" points="109.11,-137.18 98.71,-135.16 105.58,-143.23 109.11,-137.18"/>
</g>
<!-- Node15 -->
<g id="node15" class="node">
<title>Node15</title>
<g id="a_node15"><a xlink:title=" ">
<polygon fill="#e0e0e0" stroke="#999999" points="210.71,-135 165.71,-135 165.71,-114 210.71,-114 210.71,-135"/>
<text text-anchor="middle" x="188.21" y="-121.4" font-family="Helvetica,sans-Serif" font-size="12.00">bitset</text>
</a>
</g>
</g>
<!-- Node13&#45;&gt;Node15 -->
<g id="edge22" class="edge">
<title>Node13&#45;&gt;Node15</title>
<path fill="none" stroke="#63b8ff" d="M178.3,-170.92C179.85,-163.83 182.01,-153.93 183.92,-145.18"/>
<polygon fill="#63b8ff" stroke="#63b8ff" points="187.35,-145.86 186.06,-135.34 180.51,-144.36 187.35,-145.86"/>
</g>
<!-- Node14&#45;&gt;Node4 -->
<g id="edge21" class="edge">
<title>Node14&#45;&gt;Node4</title>
<path fill="none" stroke="#63b8ff" d="M129.45,-113.98C176.14,-104.58 247.63,-90.17 297.62,-80.1"/>
<polygon fill="#63b8ff" stroke="#63b8ff" points="298.52,-83.49 307.63,-78.09 297.14,-76.63 298.52,-83.49"/>
</g>
<!-- Node14&#45;&gt;Node5 -->
<g id="edge20" class="edge">
<title>Node14&#45;&gt;Node5</title>
<path fill="none" stroke="#63b8ff" d="M93.72,-113.95C116.84,-94.77 169.12,-51.4 197.69,-27.7"/>
<polygon fill="#63b8ff" stroke="#63b8ff" points="200.27,-30.1 205.73,-21.02 195.8,-24.72 200.27,-30.1"/>
</g>
<!-- Node16&#45;&gt;Node4 -->
<g id="edge26" class="edge">
<title>Node16&#45;&gt;Node4</title>
<path fill="none" stroke="#63b8ff" d="M281.39,-170.69C282.06,-156.97 284.88,-131.76 296.21,-114 304.14,-101.57 316.7,-91.19 328.2,-83.5"/>
<polygon fill="#63b8ff" stroke="#63b8ff" points="330.09,-86.45 336.69,-78.15 326.36,-80.52 330.09,-86.45"/>
</g>
<!-- Node16&#45;&gt;Node6 -->
<g id="edge25" class="edge">
<title>Node16&#45;&gt;Node6</title>
<path fill="none" stroke="#63b8ff" d="M294.97,-170.92C306.79,-162.69 324.06,-150.67 337.87,-141.06"/>
<polygon fill="#63b8ff" stroke="#63b8ff" points="340.14,-143.74 346.34,-135.16 336.14,-138 340.14,-143.74"/>
</g>
<!-- Node16&#45;&gt;Node7 -->
<g id="edge24" class="edge">
<title>Node16&#45;&gt;Node7</title>
<path fill="none" stroke="#63b8ff" d="M277.11,-170.83C273.29,-161.68 267.56,-147.52 263.21,-135 257.77,-119.34 252.4,-101.32 248.6,-87.99"/>
<polygon fill="#63b8ff" stroke="#63b8ff" points="251.89,-86.73 245.81,-78.05 245.15,-88.63 251.89,-86.73"/>
</g>
<!-- Node16&#45;&gt;Node15 -->
<g id="edge27" class="edge">
<title>Node16&#45;&gt;Node15</title>
<path fill="none" stroke="#63b8ff" d="M265.01,-170.92C250.83,-162.53 229.99,-150.21 213.59,-140.51"/>
<polygon fill="#63b8ff" stroke="#63b8ff" points="214.93,-137.23 204.54,-135.16 211.36,-143.26 214.93,-137.23"/>
</g>
</g>
</svg>
