<?xml version="1.0" encoding="UTF-8" standalone="no"?>
<!DOCTYPE svg PUBLIC "-//W3C//DTD SVG 1.1//EN"
 "http://www.w3.org/Graphics/SVG/1.1/DTD/svg11.dtd">
<!-- Generated by graphviz version 7.0.6 (20230106.0513)
 -->
<!-- Title: src/NukiLockConstants.h Pages: 1 -->
<svg width="365pt" height="192pt"
 viewBox="0.00 0.00 365.00 192.00" xmlns="http://www.w3.org/2000/svg" xmlns:xlink="http://www.w3.org/1999/xlink">
<g id="graph0" class="graph" transform="scale(1 1) rotate(0) translate(4 188)">
<title>src/NukiLockConstants.h</title>
<!-- Node1 -->
<g id="node1" class="node">
<title>Node1</title>
<g id="a_node1"><a xlink:title=" ">
<polygon fill="#999999" stroke="#666666" points="145,-184 18,-184 18,-165 145,-165 145,-184"/>
<text text-anchor="middle" x="81.5" y="-172" font-family="Helvetica,sans-Serif" font-size="10.00">src/NukiLockConstants.h</text>
</a>
</g>
</g>
<!-- Node2 -->
<g id="node2" class="node">
<title>Node2</title>
<g id="a_node2"><a xlink:href="_nuki_lock_8h.html" target="_top" xlink:title=" ">
<polygon fill="white" stroke="#666666" points="83,-74 0,-74 0,-55 83,-55 83,-74"/>
<text text-anchor="middle" x="41.5" y="-62" font-family="Helvetica,sans-Serif" font-size="10.00">src/NukiLock.h</text>
</a>
</g>
</g>
<!-- Node1&#45;&gt;Node2 -->
<g id="edge1" class="edge">
<title>Node1&#45;&gt;Node2</title>
<path fill="none" stroke="#63b8ff" d="M71.82,-154.61C68.01,-146.8 63.79,-137.58 60.5,-129 53.17,-109.87 46.85,-86.64 43.68,-74.27"/>
<polygon fill="#63b8ff" stroke="#63b8ff" points="68.64,-156.07 76.24,-163.45 74.9,-152.94 68.64,-156.07"/>
</g>
<!-- Node4 -->
<g id="node4" class="node">
<title>Node4</title>
<g id="a_node4"><a xlink:href="_nuki_lock_utils_8h.html" target="_top" xlink:title=" ">
<polygon fill="white" stroke="#666666" points="173,-129 70,-129 70,-110 173,-110 173,-129"/>
<text text-anchor="middle" x="121.5" y="-117" font-family="Helvetica,sans-Serif" font-size="10.00">src/NukiLockUtils.h</text>
</a>
</g>
</g>
<!-- Node1&#45;&gt;Node4 -->
<g id="edge3" class="edge">
<title>Node1&#45;&gt;Node4</title>
<path fill="none" stroke="#63b8ff" d="M94.97,-155.65C101.62,-146.84 109.36,-136.59 114.75,-129.44"/>
<polygon fill="#63b8ff" stroke="#63b8ff" points="92.25,-153.45 89.02,-163.54 97.83,-157.67 92.25,-153.45"/>
</g>
<!-- Node3 -->
<g id="node3" class="node">
<title>Node3</title>
<g id="a_node3"><a xlink:href="_nuki_lock_8cpp.html" target="_top" xlink:title=" ">
<polygon fill="white" stroke="#666666" points="123,-19 30,-19 30,0 123,0 123,-19"/>
<text text-anchor="middle" x="76.5" y="-7" font-family="Helvetica,sans-Serif" font-size="10.00">src/NukiLock.cpp</text>
</a>
</g>
</g>
<!-- Node2&#45;&gt;Node3 -->
<g id="edge2" class="edge">
<title>Node2&#45;&gt;Node3</title>
<path fill="none" stroke="#63b8ff" d="M53.48,-45.36C59.25,-36.62 65.93,-26.51 70.59,-19.44"/>
<polygon fill="#63b8ff" stroke="#63b8ff" points="50.7,-43.21 48.11,-53.49 56.54,-47.07 50.7,-43.21"/>
</g>
<!-- Node4&#45;&gt;Node2 -->
<g id="edge6" class="edge">
<title>Node4&#45;&gt;Node2</title>
<path fill="none" stroke="#63b8ff" d="M98.39,-103.19C84.27,-93.84 66.72,-82.21 54.87,-74.36"/>
<polygon fill="#63b8ff" stroke="#63b8ff" points="96.4,-106.07 106.67,-108.67 100.26,-100.23 96.4,-106.07"/>
</g>
<!-- Node4&#45;&gt;Node3 -->
<g id="edge5" class="edge">
<title>Node4&#45;&gt;Node3</title>
<path fill="none" stroke="#63b8ff" d="M113.47,-99.22C103.66,-75.69 87.49,-36.89 80.23,-19.46"/>
<polygon fill="#63b8ff" stroke="#63b8ff" points="110.16,-100.38 117.24,-108.26 116.62,-97.69 110.16,-100.38"/>
</g>
<!-- Node5 -->
<g id="node5" class="node">
<title>Node5</title>
<g id="a_node5"><a xlink:href="_nuki_ble_8cpp.html" target="_top" xlink:title=" ">
<polygon fill="white" stroke="#666666" points="225.5,-74 139.5,-74 139.5,-55 225.5,-55 225.5,-74"/>
<text text-anchor="middle" x="182.5" y="-62" font-family="Helvetica,sans-Serif" font-size="10.00">src/NukiBle.cpp</text>
</a>
</g>
</g>
<!-- Node4&#45;&gt;Node5 -->
<g id="edge4" class="edge">
<title>Node4&#45;&gt;Node5</title>
<path fill="none" stroke="#63b8ff" d="M140.39,-102.09C150.92,-92.94 163.62,-81.9 172.31,-74.36"/>
<polygon fill="#63b8ff" stroke="#63b8ff" points="138.24,-99.32 132.99,-108.52 142.83,-104.6 138.24,-99.32"/>
</g>
<!-- Node6 -->
<g id="node6" class="node">
<title>Node6</title>
<g id="a_node6"><a xlink:href="_nuki_lock_utils_8cpp.html" target="_top" xlink:title=" ">
<polygon fill="white" stroke="#666666" points="357,-74 244,-74 244,-55 357,-55 357,-74"/>
<text text-anchor="middle" x="300.5" y="-62" font-family="Helvetica,sans-Serif" font-size="10.00">src/NukiLockUtils.cpp</text>
</a>
</g>
</g>
<!-- Node4&#45;&gt;Node6 -->
<g id="edge7" class="edge">
<title>Node4&#45;&gt;Node6</title>
<path fill="none" stroke="#63b8ff" d="M162.48,-106.36C195.33,-96.64 240.68,-83.21 270.29,-74.45"/>
<polygon fill="#63b8ff" stroke="#63b8ff" points="161.91,-102.88 153.32,-109.08 163.9,-109.6 161.91,-102.88"/>
</g>
</g>
</svg>
