<?xml version="1.0" encoding="UTF-8" standalone="no"?>
<!DOCTYPE svg PUBLIC "-//W3C//DTD SVG 1.1//EN"
 "http://www.w3.org/Graphics/SVG/1.1/DTD/svg11.dtd">
<!-- Generated by graphviz version 8.0.1 (20230327.1645)
 -->
<!-- Title: src/NukiOpenerUtils.h Pages: 1 -->
<svg width="337pt" height="192pt"
 viewBox="0.00 0.00 337.00 192.00" xmlns="http://www.w3.org/2000/svg" xmlns:xlink="http://www.w3.org/1999/xlink">
<g id="graph0" class="graph" transform="scale(1 1) rotate(0) translate(4 188)">
<title>src/NukiOpenerUtils.h</title>
<!-- Node1 -->
<g id="node1" class="node">
<title>Node1</title>
<g id="a_node1"><a xlink:title=" ">
<polygon fill="#999999" stroke="#666666" points="204,-184 91,-184 91,-165 204,-165 204,-184"/>
<text text-anchor="middle" x="147.5" y="-172" font-family="Helvetica,sans-Serif" font-size="10.00">src/NukiOpenerUtils.h</text>
</a>
</g>
</g>
<!-- Node2 -->
<g id="node2" class="node">
<title>Node2</title>
<g id="a_node2"><a xlink:title=" ">
<polygon fill="#e0e0e0" stroke="#999999" points="57,-74 0,-74 0,-55 57,-55 57,-74"/>
<text text-anchor="middle" x="28.5" y="-62" font-family="Helvetica,sans-Serif" font-size="10.00">Arduino.h</text>
</a>
</g>
</g>
<!-- Node1&#45;&gt;Node2 -->
<g id="edge1" class="edge">
<title>Node1&#45;&gt;Node2</title>
<path fill="none" stroke="#63b8ff" d="M90.59,-165.66C68.15,-159.52 44.44,-148.55 30.5,-129 21.49,-116.36 21.78,-98.42 23.87,-84.83"/>
<polygon fill="#63b8ff" stroke="#63b8ff" points="27.46,-85.74 25.98,-75.25 20.59,-84.37 27.46,-85.74"/>
</g>
<!-- Node3 -->
<g id="node3" class="node">
<title>Node3</title>
<g id="a_node3"><a xlink:href="_nuki_data_types_8h.html" target="_top" xlink:title=" ">
<polygon fill="white" stroke="#666666" points="131,-129 40,-129 40,-110 131,-110 131,-129"/>
<text text-anchor="middle" x="85.5" y="-117" font-family="Helvetica,sans-Serif" font-size="10.00">NukiDataTypes.h</text>
</a>
</g>
</g>
<!-- Node1&#45;&gt;Node3 -->
<g id="edge2" class="edge">
<title>Node1&#45;&gt;Node3</title>
<path fill="none" stroke="#63b8ff" d="M136.98,-164.51C128.02,-156.85 114.93,-145.66 104.19,-136.47"/>
<polygon fill="#63b8ff" stroke="#63b8ff" points="106.74,-133.2 96.86,-129.36 102.19,-138.52 106.74,-133.2"/>
</g>
<!-- Node6 -->
<g id="node6" class="node">
<title>Node6</title>
<g id="a_node6"><a xlink:href="_nuki_opener_constants_8h.html" target="_top" xlink:title=" ">
<polygon fill="white" stroke="#666666" points="269.5,-129 149.5,-129 149.5,-110 269.5,-110 269.5,-129"/>
<text text-anchor="middle" x="209.5" y="-117" font-family="Helvetica,sans-Serif" font-size="10.00">NukiOpenerConstants.h</text>
</a>
</g>
</g>
<!-- Node1&#45;&gt;Node6 -->
<g id="edge6" class="edge">
<title>Node1&#45;&gt;Node6</title>
<path fill="none" stroke="#63b8ff" d="M158.02,-164.51C166.98,-156.85 180.07,-145.66 190.81,-136.47"/>
<polygon fill="#63b8ff" stroke="#63b8ff" points="192.81,-138.52 198.14,-129.36 188.26,-133.2 192.81,-138.52"/>
</g>
<!-- Node7 -->
<g id="node7" class="node">
<title>Node7</title>
<g id="a_node7"><a xlink:title=" ">
<polygon fill="#e0e0e0" stroke="#999999" points="329,-129 288,-129 288,-110 329,-110 329,-129"/>
<text text-anchor="middle" x="308.5" y="-117" font-family="Helvetica,sans-Serif" font-size="10.00">bitset</text>
</a>
</g>
</g>
<!-- Node1&#45;&gt;Node7 -->
<g id="edge9" class="edge">
<title>Node1&#45;&gt;Node7</title>
<path fill="none" stroke="#63b8ff" d="M174.81,-164.51C203.26,-155.15 247.74,-140.5 277.49,-130.71"/>
<polygon fill="#63b8ff" stroke="#63b8ff" points="278.32,-133.79 286.73,-127.34 276.13,-127.14 278.32,-133.79"/>
</g>
<!-- Node3&#45;&gt;Node2 -->
<g id="edge3" class="edge">
<title>Node3&#45;&gt;Node2</title>
<path fill="none" stroke="#63b8ff" d="M75.83,-109.51C67.67,-101.93 55.79,-90.88 45.98,-81.75"/>
<polygon fill="#63b8ff" stroke="#63b8ff" points="48.73,-79.6 39.03,-75.36 43.97,-84.73 48.73,-79.6"/>
</g>
<!-- Node4 -->
<g id="node4" class="node">
<title>Node4</title>
<g id="a_node4"><a xlink:href="_nuki_constants_8h.html" target="_top" xlink:title=" ">
<polygon fill="white" stroke="#666666" points="181,-74 92,-74 92,-55 181,-55 181,-74"/>
<text text-anchor="middle" x="136.5" y="-62" font-family="Helvetica,sans-Serif" font-size="10.00">NukiConstants.h</text>
</a>
</g>
</g>
<!-- Node3&#45;&gt;Node4 -->
<g id="edge4" class="edge">
<title>Node3&#45;&gt;Node4</title>
<path fill="none" stroke="#63b8ff" d="M93.92,-109.75C101.11,-102.27 111.66,-91.32 120.45,-82.17"/>
<polygon fill="#63b8ff" stroke="#63b8ff" points="122.48,-85.07 126.9,-75.44 117.44,-80.22 122.48,-85.07"/>
</g>
<!-- Node5 -->
<g id="node5" class="node">
<title>Node5</title>
<g id="a_node5"><a xlink:title=" ">
<polygon fill="#e0e0e0" stroke="#999999" points="215.5,-19 129.5,-19 129.5,0 215.5,0 215.5,-19"/>
<text text-anchor="middle" x="172.5" y="-7" font-family="Helvetica,sans-Serif" font-size="10.00">NimBLEUUID.h</text>
</a>
</g>
</g>
<!-- Node4&#45;&gt;Node5 -->
<g id="edge5" class="edge">
<title>Node4&#45;&gt;Node5</title>
<path fill="none" stroke="#63b8ff" d="M142.44,-54.75C147.31,-47.58 154.36,-37.2 160.41,-28.3"/>
<polygon fill="#63b8ff" stroke="#63b8ff" points="163.7,-30.68 166.43,-20.44 157.91,-26.75 163.7,-30.68"/>
</g>
<!-- Node6&#45;&gt;Node4 -->
<g id="edge8" class="edge">
<title>Node6&#45;&gt;Node4</title>
<path fill="none" stroke="#63b8ff" d="M197.12,-109.51C186.25,-101.62 170.22,-89.98 157.37,-80.65"/>
<polygon fill="#63b8ff" stroke="#63b8ff" points="159.85,-77.4 149.7,-74.36 155.74,-83.07 159.85,-77.4"/>
</g>
<!-- Node6&#45;&gt;Node5 -->
<g id="edge7" class="edge">
<title>Node6&#45;&gt;Node5</title>
<path fill="none" stroke="#63b8ff" d="M207.17,-109.79C203.82,-97.48 197.28,-74.33 190.5,-55 187.5,-46.45 183.8,-37.13 180.54,-29.24"/>
<polygon fill="#63b8ff" stroke="#63b8ff" points="183.44,-28.13 176.33,-20.27 176.99,-30.85 183.44,-28.13"/>
</g>
</g>
</svg>
