<?xml version="1.0" encoding="UTF-8" standalone="no"?>
<!DOCTYPE svg PUBLIC "-//W3C//DTD SVG 1.1//EN"
 "http://www.w3.org/Graphics/SVG/1.1/DTD/svg11.dtd">
<!-- Generated by graphviz version 11.0.0 (20240428.1522)
 -->
<!-- Title: src/NukiLock.cpp Pages: 1 -->
<svg width="991pt" height="359pt"
 viewBox="0.00 0.00 991.33 358.75" xmlns="http://www.w3.org/2000/svg" xmlns:xlink="http://www.w3.org/1999/xlink">
<g id="graph0" class="graph" transform="scale(1 1) rotate(0) translate(4 354.75)">
<title>src/NukiLock.cpp</title>
<!-- Node1 -->
<g id="Node000001" class="node">
<title>Node1</title>
<g id="a_Node000001"><a xlink:title=" ">
<polygon fill="#999999" stroke="#666666" points="167.06,-350.75 74.56,-350.75 74.56,-331.5 167.06,-331.5 167.06,-350.75"/>
<text text-anchor="middle" x="120.81" y="-337.25" font-family="Helvetica,sans-Serif" font-size="10.00">src/NukiLock.cpp</text>
</a>
</g>
</g>
<!-- Node2 -->
<g id="Node000002" class="node">
<title>Node2</title>
<g id="a_Node000002"><a xlink:href="_nuki_lock_utils_8h.html" target="_top" xlink:title=" ">
<polygon fill="white" stroke="#666666" points="102.69,-185 16.94,-185 16.94,-165.75 102.69,-165.75 102.69,-185"/>
<text text-anchor="middle" x="59.81" y="-171.5" font-family="Helvetica,sans-Serif" font-size="10.00">NukiLockUtils.h</text>
</a>
</g>
</g>
<!-- Node1&#45;&gt;Node2 -->
<g id="edge1_Node000001_Node000002" class="edge">
<title>Node1&#45;&gt;Node2</title>
<g id="a_edge1_Node000001_Node000002"><a xlink:title=" ">
<path fill="none" stroke="#63b8ff" d="M118.53,-331.35C115.23,-318.95 108.75,-295.64 101.81,-276.25 91.64,-247.81 77.7,-215.75 68.73,-195.8"/>
<polygon fill="#63b8ff" stroke="#63b8ff" points="71.92,-194.37 64.6,-186.71 65.55,-197.26 71.92,-194.37"/>
</a>
</g>
</g>
<!-- Node9 -->
<g id="Node000009" class="node">
<title>Node9</title>
<g id="a_Node000009"><a xlink:href="_nuki_lock_8h.html" target="_top" xlink:title=" ">
<polygon fill="white" stroke="#666666" points="92.56,-295.5 27.06,-295.5 27.06,-276.25 92.56,-276.25 92.56,-295.5"/>
<text text-anchor="middle" x="59.81" y="-282" font-family="Helvetica,sans-Serif" font-size="10.00">NukiLock.h</text>
</a>
</g>
</g>
<!-- Node1&#45;&gt;Node9 -->
<g id="edge11_Node000001_Node000009" class="edge">
<title>Node1&#45;&gt;Node9</title>
<g id="a_edge11_Node000001_Node000009"><a xlink:title=" ">
<path fill="none" stroke="#63b8ff" d="M110.46,-331.09C101.74,-323.47 89.02,-312.37 78.52,-303.2"/>
<polygon fill="#63b8ff" stroke="#63b8ff" points="80.98,-300.71 71.15,-296.77 76.38,-305.98 80.98,-300.71"/>
</a>
</g>
</g>
<!-- Node18 -->
<g id="Node000018" class="node">
<title>Node18</title>
<g id="a_Node000018"><a xlink:href="_nuki_utils_8h.html" target="_top" xlink:title=" ">
<polygon fill="white" stroke="#666666" points="876.81,-185 812.81,-185 812.81,-165.75 876.81,-165.75 876.81,-185"/>
<text text-anchor="middle" x="844.81" y="-171.5" font-family="Helvetica,sans-Serif" font-size="10.00">NukiUtils.h</text>
</a>
</g>
</g>
<!-- Node1&#45;&gt;Node18 -->
<g id="edge27_Node000001_Node000018" class="edge">
<title>Node1&#45;&gt;Node18</title>
<g id="a_edge27_Node000001_Node000018"><a xlink:title=" ">
<path fill="none" stroke="#63b8ff" d="M161.03,-331.03C286.78,-302.59 671.86,-215.49 801.61,-186.15"/>
<polygon fill="#63b8ff" stroke="#63b8ff" points="802.19,-189.6 811.17,-183.98 800.65,-182.78 802.19,-189.6"/>
</a>
</g>
</g>
<!-- Node3 -->
<g id="Node000003" class="node">
<title>Node3</title>
<g id="a_Node000003"><a xlink:title=" ">
<polygon fill="#e0e0e0" stroke="#999999" points="579.06,-74.5 522.56,-74.5 522.56,-55.25 579.06,-55.25 579.06,-74.5"/>
<text text-anchor="middle" x="550.81" y="-61" font-family="Helvetica,sans-Serif" font-size="10.00">Arduino.h</text>
</a>
</g>
</g>
<!-- Node2&#45;&gt;Node3 -->
<g id="edge2_Node000002_Node000003" class="edge">
<title>Node2&#45;&gt;Node3</title>
<g id="a_edge2_Node000002_Node000003"><a xlink:title=" ">
<path fill="none" stroke="#63b8ff" d="M100.83,-165.31C193.77,-144.77 419.44,-94.9 511.11,-74.65"/>
<polygon fill="#63b8ff" stroke="#63b8ff" points="511.63,-78.12 520.64,-72.54 510.12,-71.28 511.63,-78.12"/>
</a>
</g>
</g>
<!-- Node4 -->
<g id="Node000004" class="node">
<title>Node4</title>
<g id="a_Node000004"><a xlink:href="_nuki_data_types_8h.html" target="_top" xlink:title=" ">
<polygon fill="white" stroke="#666666" points="796.94,-129.75 706.69,-129.75 706.69,-110.5 796.94,-110.5 796.94,-129.75"/>
<text text-anchor="middle" x="751.81" y="-116.25" font-family="Helvetica,sans-Serif" font-size="10.00">NukiDataTypes.h</text>
</a>
</g>
</g>
<!-- Node2&#45;&gt;Node4 -->
<g id="edge3_Node000002_Node000004" class="edge">
<title>Node2&#45;&gt;Node4</title>
<g id="a_edge3_Node000002_Node000004"><a xlink:title=" ">
<path fill="none" stroke="#63b8ff" d="M103.18,-166.87C106.1,-166.46 108.99,-166.08 111.81,-165.75 224,-152.56 560.2,-132.26 694.99,-124.39"/>
<polygon fill="#63b8ff" stroke="#63b8ff" points="694.96,-127.9 704.74,-123.83 694.56,-120.91 694.96,-127.9"/>
</a>
</g>
</g>
<!-- Node7 -->
<g id="Node000007" class="node">
<title>Node7</title>
<g id="a_Node000007"><a xlink:href="_nuki_lock_constants_8h.html" target="_top" xlink:title=" ">
<polygon fill="white" stroke="#666666" points="180.69,-129.75 70.94,-129.75 70.94,-110.5 180.69,-110.5 180.69,-129.75"/>
<text text-anchor="middle" x="125.81" y="-116.25" font-family="Helvetica,sans-Serif" font-size="10.00">NukiLockConstants.h</text>
</a>
</g>
</g>
<!-- Node2&#45;&gt;Node7 -->
<g id="edge7_Node000002_Node000007" class="edge">
<title>Node2&#45;&gt;Node7</title>
<g id="a_edge7_Node000002_Node000007"><a xlink:title=" ">
<path fill="none" stroke="#63b8ff" d="M71.01,-165.34C80.55,-157.65 94.49,-146.4 105.92,-137.18"/>
<polygon fill="#63b8ff" stroke="#63b8ff" points="108.02,-139.98 113.6,-130.98 103.62,-134.53 108.02,-139.98"/>
</a>
</g>
</g>
<!-- Node8 -->
<g id="Node000008" class="node">
<title>Node8</title>
<g id="a_Node000008"><a xlink:title=" ">
<polygon fill="#e0e0e0" stroke="#999999" points="590.81,-129.75 550.81,-129.75 550.81,-110.5 590.81,-110.5 590.81,-129.75"/>
<text text-anchor="middle" x="570.81" y="-116.25" font-family="Helvetica,sans-Serif" font-size="10.00">bitset</text>
</a>
</g>
</g>
<!-- Node2&#45;&gt;Node8 -->
<g id="edge10_Node000002_Node000008" class="edge">
<title>Node2&#45;&gt;Node8</title>
<g id="a_edge10_Node000002_Node000008"><a xlink:title=" ">
<path fill="none" stroke="#63b8ff" d="M102.91,-167C105.92,-166.55 108.91,-166.13 111.81,-165.75 271.98,-144.71 464.8,-129.11 539.31,-123.45"/>
<polygon fill="#63b8ff" stroke="#63b8ff" points="539.41,-126.95 549.11,-122.71 538.88,-119.97 539.41,-126.95"/>
</a>
</g>
</g>
<!-- Node4&#45;&gt;Node3 -->
<g id="edge4_Node000004_Node000003" class="edge">
<title>Node4&#45;&gt;Node3</title>
<g id="a_edge4_Node000004_Node000003"><a xlink:title=" ">
<path fill="none" stroke="#63b8ff" d="M717.72,-110.09C682.49,-100.76 627.58,-86.21 590.44,-76.37"/>
<polygon fill="#63b8ff" stroke="#63b8ff" points="591.56,-73.05 581,-73.87 589.77,-79.82 591.56,-73.05"/>
</a>
</g>
</g>
<!-- Node5 -->
<g id="Node000005" class="node">
<title>Node5</title>
<g id="a_Node000005"><a xlink:href="_nuki_constants_8h.html" target="_top" xlink:title=" ">
<polygon fill="white" stroke="#666666" points="836.81,-74.5 748.81,-74.5 748.81,-55.25 836.81,-55.25 836.81,-74.5"/>
<text text-anchor="middle" x="792.81" y="-61" font-family="Helvetica,sans-Serif" font-size="10.00">NukiConstants.h</text>
</a>
</g>
</g>
<!-- Node4&#45;&gt;Node5 -->
<g id="edge5_Node000004_Node000005" class="edge">
<title>Node4&#45;&gt;Node5</title>
<g id="a_edge5_Node000004_Node000005"><a xlink:title=" ">
<path fill="none" stroke="#63b8ff" d="M758.58,-110.33C764.13,-103.13 772.15,-92.71 779.04,-83.76"/>
<polygon fill="#63b8ff" stroke="#63b8ff" points="781.64,-86.12 784.97,-76.06 776.1,-81.85 781.64,-86.12"/>
</a>
</g>
</g>
<!-- Node6 -->
<g id="Node000006" class="node">
<title>Node6</title>
<g id="a_Node000006"><a xlink:title=" ">
<polygon fill="#e0e0e0" stroke="#999999" points="617.31,-19.25 532.31,-19.25 532.31,0 617.31,0 617.31,-19.25"/>
<text text-anchor="middle" x="574.81" y="-5.75" font-family="Helvetica,sans-Serif" font-size="10.00">NimBLEUUID.h</text>
</a>
</g>
</g>
<!-- Node5&#45;&gt;Node6 -->
<g id="edge6_Node000005_Node000006" class="edge">
<title>Node5&#45;&gt;Node6</title>
<g id="a_edge6_Node000005_Node000006"><a xlink:title=" ">
<path fill="none" stroke="#63b8ff" d="M755.83,-54.84C719.27,-45.91 663.13,-32.2 623.07,-22.41"/>
<polygon fill="#63b8ff" stroke="#63b8ff" points="623.99,-19.03 613.44,-20.06 622.33,-25.83 623.99,-19.03"/>
</a>
</g>
</g>
<!-- Node7&#45;&gt;Node5 -->
<g id="edge9_Node000007_Node000005" class="edge">
<title>Node7&#45;&gt;Node5</title>
<g id="a_edge9_Node000007_Node000005"><a xlink:title=" ">
<path fill="none" stroke="#63b8ff" d="M180.96,-114.72C306.27,-104.72 611.25,-80.37 737.1,-70.32"/>
<polygon fill="#63b8ff" stroke="#63b8ff" points="737.15,-73.83 746.84,-69.55 736.59,-66.85 737.15,-73.83"/>
</a>
</g>
</g>
<!-- Node7&#45;&gt;Node6 -->
<g id="edge8_Node000007_Node000006" class="edge">
<title>Node7&#45;&gt;Node6</title>
<g id="a_edge8_Node000007_Node000006"><a xlink:title=" ">
<path fill="none" stroke="#63b8ff" d="M163.32,-110.06C244.37,-90.48 435.8,-44.22 526.08,-22.4"/>
<polygon fill="#63b8ff" stroke="#63b8ff" points="526.72,-25.85 535.62,-20.1 525.08,-19.04 526.72,-25.85"/>
</a>
</g>
</g>
<!-- Node9&#45;&gt;Node2 -->
<g id="edge26_Node000009_Node000002" class="edge">
<title>Node9&#45;&gt;Node2</title>
<g id="a_edge26_Node000009_Node000002"><a xlink:title=" ">
<path fill="none" stroke="#63b8ff" d="M59.81,-276C59.81,-258.75 59.81,-220.33 59.81,-196.56"/>
<polygon fill="#63b8ff" stroke="#63b8ff" points="63.31,-196.89 59.81,-186.89 56.31,-196.89 63.31,-196.89"/>
</a>
</g>
</g>
<!-- Node9&#45;&gt;Node7 -->
<g id="edge25_Node000009_Node000007" class="edge">
<title>Node9&#45;&gt;Node7</title>
<g id="a_edge25_Node000009_Node000007"><a xlink:title=" ">
<path fill="none" stroke="#63b8ff" d="M50.07,-275.91C28.79,-255.22 -17.97,-203.07 7.81,-165.75 19.84,-148.34 39.6,-137.72 59.53,-131.24"/>
<polygon fill="#63b8ff" stroke="#63b8ff" points="60.49,-134.6 69.12,-128.46 58.55,-127.88 60.49,-134.6"/>
</a>
</g>
</g>
<!-- Node10 -->
<g id="Node000010" class="node">
<title>Node10</title>
<g id="a_Node000010"><a xlink:href="_nuki_ble_8h.html" target="_top" xlink:title=" ">
<polygon fill="white" stroke="#666666" points="509.81,-240.25 451.81,-240.25 451.81,-221 509.81,-221 509.81,-240.25"/>
<text text-anchor="middle" x="480.81" y="-226.75" font-family="Helvetica,sans-Serif" font-size="10.00">NukiBle.h</text>
</a>
</g>
</g>
<!-- Node9&#45;&gt;Node10 -->
<g id="edge12_Node000009_Node000010" class="edge">
<title>Node9&#45;&gt;Node10</title>
<g id="a_edge12_Node000009_Node000010"><a xlink:title=" ">
<path fill="none" stroke="#63b8ff" d="M92.85,-280.7C169.04,-271.06 356.92,-247.29 440.08,-236.78"/>
<polygon fill="#63b8ff" stroke="#63b8ff" points="440.35,-240.27 449.83,-235.54 439.47,-233.33 440.35,-240.27"/>
</a>
</g>
</g>
<!-- Node10&#45;&gt;Node3 -->
<g id="edge16_Node000010_Node000003" class="edge">
<title>Node10&#45;&gt;Node3</title>
<g id="a_edge16_Node000010_Node000003"><a xlink:title=" ">
<path fill="none" stroke="#63b8ff" d="M479.75,-220.68C478.59,-208.07 477.62,-184.51 483.81,-165.75 494.45,-133.52 518.59,-101.96 534.8,-83.2"/>
<polygon fill="#63b8ff" stroke="#63b8ff" points="537.19,-85.78 541.22,-75.99 531.96,-81.13 537.19,-85.78"/>
</a>
</g>
</g>
<!-- Node10&#45;&gt;Node4 -->
<g id="edge15_Node000010_Node000004" class="edge">
<title>Node10&#45;&gt;Node4</title>
<g id="a_edge15_Node000010_Node000004"><a xlink:title=" ">
<path fill="none" stroke="#63b8ff" d="M480.71,-220.67C481.06,-206.72 483.93,-179.92 499.81,-165.75 527.96,-140.64 629.64,-129.21 694.92,-124.35"/>
<polygon fill="#63b8ff" stroke="#63b8ff" points="695.02,-127.86 704.75,-123.66 694.53,-120.87 695.02,-127.86"/>
</a>
</g>
</g>
<!-- Node10&#45;&gt;Node5 -->
<g id="edge14_Node000010_Node000005" class="edge">
<title>Node10&#45;&gt;Node5</title>
<g id="a_edge14_Node000010_Node000005"><a xlink:title=" ">
<path fill="none" stroke="#63b8ff" d="M510.04,-229.21C611,-227.47 940.57,-219.21 971.81,-185 1017.24,-135.26 909.68,-96.45 842.24,-77.88"/>
<polygon fill="#63b8ff" stroke="#63b8ff" points="843.42,-74.57 832.85,-75.36 841.6,-81.33 843.42,-74.57"/>
</a>
</g>
</g>
<!-- Node11 -->
<g id="Node000011" class="node">
<title>Node11</title>
<g id="a_Node000011"><a xlink:title=" ">
<polygon fill="#e0e0e0" stroke="#999999" points="598.94,-185 508.69,-185 508.69,-165.75 598.94,-165.75 598.94,-185"/>
<text text-anchor="middle" x="553.81" y="-171.5" font-family="Helvetica,sans-Serif" font-size="10.00">NimBLEDevice.h</text>
</a>
</g>
</g>
<!-- Node10&#45;&gt;Node11 -->
<g id="edge13_Node000010_Node000011" class="edge">
<title>Node10&#45;&gt;Node11</title>
<g id="a_edge13_Node000010_Node000011"><a xlink:title=" ">
<path fill="none" stroke="#63b8ff" d="M493.2,-220.59C503.96,-212.74 519.78,-201.2 532.56,-191.87"/>
<polygon fill="#63b8ff" stroke="#63b8ff" points="534.37,-194.89 540.39,-186.17 530.25,-189.23 534.37,-194.89"/>
</a>
</g>
</g>
<!-- Node12 -->
<g id="Node000012" class="node">
<title>Node12</title>
<g id="a_Node000012"><a xlink:title=" ">
<polygon fill="#e0e0e0" stroke="#999999" points="692.81,-185 616.81,-185 616.81,-165.75 692.81,-165.75 692.81,-185"/>
<text text-anchor="middle" x="654.81" y="-171.5" font-family="Helvetica,sans-Serif" font-size="10.00">Preferences.h</text>
</a>
</g>
</g>
<!-- Node10&#45;&gt;Node12 -->
<g id="edge17_Node000010_Node000012" class="edge">
<title>Node10&#45;&gt;Node12</title>
<g id="a_edge17_Node000010_Node000012"><a xlink:title=" ">
<path fill="none" stroke="#63b8ff" d="M509.94,-220.71C538.49,-211.97 582.28,-198.57 614.24,-188.79"/>
<polygon fill="#63b8ff" stroke="#63b8ff" points="615.03,-192.21 623.56,-185.94 612.98,-185.52 615.03,-192.21"/>
</a>
</g>
</g>
<!-- Node13 -->
<g id="Node000013" class="node">
<title>Node13</title>
<g id="a_Node000013"><a xlink:title=" ">
<polygon fill="#e0e0e0" stroke="#999999" points="794.94,-185 710.69,-185 710.69,-165.75 794.94,-165.75 794.94,-185"/>
<text text-anchor="middle" x="752.81" y="-171.5" font-family="Helvetica,sans-Serif" font-size="10.00">esp_task_wdt.h</text>
</a>
</g>
</g>
<!-- Node10&#45;&gt;Node13 -->
<g id="edge18_Node000010_Node000013" class="edge">
<title>Node10&#45;&gt;Node13</title>
<g id="a_edge18_Node000010_Node000013"><a xlink:title=" ">
<path fill="none" stroke="#63b8ff" d="M510.18,-223.88C555.29,-215.04 642.34,-198 698.98,-186.91"/>
<polygon fill="#63b8ff" stroke="#63b8ff" points="699.6,-190.36 708.74,-185 698.26,-183.49 699.6,-190.36"/>
</a>
</g>
</g>
<!-- Node14 -->
<g id="Node000014" class="node">
<title>Node14</title>
<g id="a_Node000014"><a xlink:title=" ">
<polygon fill="#e0e0e0" stroke="#999999" points="202.44,-185 121.19,-185 121.19,-165.75 202.44,-165.75 202.44,-185"/>
<text text-anchor="middle" x="161.81" y="-171.5" font-family="Helvetica,sans-Serif" font-size="10.00">BleInterfaces.h</text>
</a>
</g>
</g>
<!-- Node10&#45;&gt;Node14 -->
<g id="edge19_Node000010_Node000014" class="edge">
<title>Node10&#45;&gt;Node14</title>
<g id="a_edge19_Node000010_Node000014"><a xlink:title=" ">
<path fill="none" stroke="#63b8ff" d="M451.63,-224.9C404.03,-217.18 306.41,-201.25 213.96,-185.52"/>
<polygon fill="#63b8ff" stroke="#63b8ff" points="214.65,-182.09 204.21,-183.86 213.48,-188.99 214.65,-182.09"/>
</a>
</g>
</g>
<!-- Node15 -->
<g id="Node000015" class="node">
<title>Node15</title>
<g id="a_Node000015"><a xlink:title=" ">
<polygon fill="#e0e0e0" stroke="#999999" points="265.44,-185 220.19,-185 220.19,-165.75 265.44,-165.75 265.44,-185"/>
<text text-anchor="middle" x="242.81" y="-171.5" font-family="Helvetica,sans-Serif" font-size="10.00">atomic</text>
</a>
</g>
</g>
<!-- Node10&#45;&gt;Node15 -->
<g id="edge20_Node000010_Node000015" class="edge">
<title>Node10&#45;&gt;Node15</title>
<g id="a_edge20_Node000010_Node000015"><a xlink:title=" ">
<path fill="none" stroke="#63b8ff" d="M451.55,-223.88C413.38,-216.27 344.29,-202.08 276.64,-185.6"/>
<polygon fill="#63b8ff" stroke="#63b8ff" points="277.81,-182.28 267.27,-183.29 276.14,-189.08 277.81,-182.28"/>
</a>
</g>
</g>
<!-- Node16 -->
<g id="Node000016" class="node">
<title>Node16</title>
<g id="a_Node000016"><a xlink:title=" ">
<polygon fill="#e0e0e0" stroke="#999999" points="414.56,-185 283.06,-185 283.06,-165.75 414.56,-165.75 414.56,-185"/>
<text text-anchor="middle" x="348.81" y="-171.5" font-family="Helvetica,sans-Serif" font-size="10.00">sodium/crypto_secretbox.h</text>
</a>
</g>
</g>
<!-- Node10&#45;&gt;Node16 -->
<g id="edge21_Node000010_Node000016" class="edge">
<title>Node10&#45;&gt;Node16</title>
<g id="a_edge21_Node000010_Node000016"><a xlink:title=" ">
<path fill="none" stroke="#63b8ff" d="M458.42,-220.59C437.37,-212.1 405.61,-199.29 381.69,-189.64"/>
<polygon fill="#63b8ff" stroke="#63b8ff" points="383.3,-186.51 372.72,-186.02 380.68,-193.01 383.3,-186.51"/>
</a>
</g>
</g>
<!-- Node17 -->
<g id="Node000017" class="node">
<title>Node17</title>
<g id="a_Node000017"><a xlink:href="_nuki_ble_8hpp.html" target="_top" xlink:title=" ">
<polygon fill="white" stroke="#666666" points="963.06,-185 894.56,-185 894.56,-165.75 963.06,-165.75 963.06,-185"/>
<text text-anchor="middle" x="928.81" y="-171.5" font-family="Helvetica,sans-Serif" font-size="10.00">NukiBle.hpp</text>
</a>
</g>
</g>
<!-- Node10&#45;&gt;Node17 -->
<g id="edge22_Node000010_Node000017" class="edge">
<title>Node10&#45;&gt;Node17</title>
<g id="a_edge22_Node000010_Node000017"><a xlink:title=" ">
<path fill="none" stroke="#63b8ff" d="M509.9,-227.31C574.92,-221.94 737.14,-207.49 882.78,-185.35"/>
<polygon fill="#63b8ff" stroke="#63b8ff" points="883.28,-188.82 892.63,-183.84 882.21,-181.9 883.28,-188.82"/>
</a>
</g>
</g>
<!-- Node17&#45;&gt;Node4 -->
<g id="edge24_Node000017_Node000004" class="edge">
<title>Node17&#45;&gt;Node4</title>
<g id="a_edge24_Node000017_Node000004"><a xlink:title=" ">
<path fill="none" stroke="#63b8ff" d="M898.79,-165.34C869.67,-156.58 825.27,-143.23 792.89,-133.48"/>
<polygon fill="#63b8ff" stroke="#63b8ff" points="794.02,-130.17 783.43,-130.64 792,-136.87 794.02,-130.17"/>
</a>
</g>
</g>
<!-- Node17&#45;&gt;Node5 -->
<g id="edge23_Node000017_Node000005" class="edge">
<title>Node17&#45;&gt;Node5</title>
<g id="a_edge23_Node000017_Node000005"><a xlink:title=" ">
<path fill="none" stroke="#63b8ff" d="M917.68,-165.5C894.77,-147.22 842.05,-105.15 812.97,-81.96"/>
<polygon fill="#63b8ff" stroke="#63b8ff" points="815.28,-79.32 805.28,-75.82 810.91,-84.79 815.28,-79.32"/>
</a>
</g>
</g>
<!-- Node18&#45;&gt;Node3 -->
<g id="edge28_Node000018_Node000003" class="edge">
<title>Node18&#45;&gt;Node3</title>
<g id="a_edge28_Node000018_Node000003"><a xlink:title=" ">
<path fill="none" stroke="#63b8ff" d="M812.34,-165.68C782.32,-157.37 736.61,-144.02 697.81,-129.75 656.13,-114.42 609.28,-93.38 579.91,-79.7"/>
<polygon fill="#63b8ff" stroke="#63b8ff" points="581.47,-76.57 570.93,-75.49 578.5,-82.91 581.47,-76.57"/>
</a>
</g>
</g>
<!-- Node18&#45;&gt;Node4 -->
<g id="edge29_Node000018_Node000004" class="edge">
<title>Node18&#45;&gt;Node4</title>
<g id="a_edge29_Node000018_Node000004"><a xlink:title=" ">
<path fill="none" stroke="#63b8ff" d="M829.04,-165.34C814.87,-157.23 793.83,-145.18 777.28,-135.71"/>
<polygon fill="#63b8ff" stroke="#63b8ff" points="779.4,-132.89 768.98,-130.95 775.92,-138.96 779.4,-132.89"/>
</a>
</g>
</g>
<!-- Node18&#45;&gt;Node5 -->
<g id="edge30_Node000018_Node000005" class="edge">
<title>Node18&#45;&gt;Node5</title>
<g id="a_edge30_Node000018_Node000005"><a xlink:title=" ">
<path fill="none" stroke="#63b8ff" d="M840.56,-165.5C832.18,-148.01 813.37,-108.77 802.02,-85.09"/>
<polygon fill="#63b8ff" stroke="#63b8ff" points="805.26,-83.75 797.78,-76.24 798.95,-86.77 805.26,-83.75"/>
</a>
</g>
</g>
<!-- Node18&#45;&gt;Node8 -->
<g id="edge31_Node000018_Node000008" class="edge">
<title>Node18&#45;&gt;Node8</title>
<g id="a_edge31_Node000018_Node000008"><a xlink:title=" ">
<path fill="none" stroke="#63b8ff" d="M812.59,-167.54C809.63,-166.93 806.66,-166.32 803.81,-165.75 731.87,-151.29 647.21,-135.35 602.38,-126.98"/>
<polygon fill="#63b8ff" stroke="#63b8ff" points="603.05,-123.55 592.58,-125.16 601.77,-130.43 603.05,-123.55"/>
</a>
</g>
</g>
</g>
</svg>
