<?xml version="1.0" encoding="UTF-8" standalone="no"?>
<!DOCTYPE svg PUBLIC "-//W3C//DTD SVG 1.1//EN"
 "http://www.w3.org/Graphics/SVG/1.1/DTD/svg11.dtd">
<!-- Generated by graphviz version 8.0.5 (20230430.1635)
 -->
<!-- Title: src/NukiLock.h Pages: 1 -->
<svg width="917pt" height="304pt"
 viewBox="0.00 0.00 916.95 303.50" xmlns="http://www.w3.org/2000/svg" xmlns:xlink="http://www.w3.org/1999/xlink">
<g id="graph0" class="graph" transform="scale(1 1) rotate(0) translate(4 299.5)">
<title>src/NukiLock.h</title>
<!-- Node1 -->
<g id="node1" class="node">
<title>Node1</title>
<g id="a_node1"><a xlink:title=" ">
<polygon fill="#999999" stroke="#666666" points="812.07,-295.5 730.07,-295.5 730.07,-276.25 812.07,-276.25 812.07,-295.5"/>
<text text-anchor="middle" x="771.07" y="-282" font-family="Helvetica,sans-Serif" font-size="10.00">src/NukiLock.h</text>
</a>
</g>
</g>
<!-- Node2 -->
<g id="node2" class="node">
<title>Node2</title>
<g id="a_node2"><a xlink:href="_nuki_ble_8h.html" target="_top" xlink:title=" ">
<polygon fill="white" stroke="#666666" points="353.07,-240.25 295.07,-240.25 295.07,-221 353.07,-221 353.07,-240.25"/>
<text text-anchor="middle" x="324.07" y="-226.75" font-family="Helvetica,sans-Serif" font-size="10.00">NukiBle.h</text>
</a>
</g>
</g>
<!-- Node1&#45;&gt;Node2 -->
<g id="edge1" class="edge">
<title>Node1&#45;&gt;Node2</title>
<path fill="none" stroke="#63b8ff" d="M729.82,-279.96C644.29,-269.77 448.58,-246.46 364.11,-236.39"/>
<polygon fill="#63b8ff" stroke="#63b8ff" points="364.77,-232.83 354.42,-235.12 363.94,-239.78 364.77,-232.83"/>
</g>
<!-- Node13 -->
<g id="node13" class="node">
<title>Node13</title>
<g id="a_node13"><a xlink:href="_nuki_lock_constants_8h.html" target="_top" xlink:title=" ">
<polygon fill="white" stroke="#666666" points="908.95,-129.75 799.2,-129.75 799.2,-110.5 908.95,-110.5 908.95,-129.75"/>
<text text-anchor="middle" x="854.07" y="-116.25" font-family="Helvetica,sans-Serif" font-size="10.00">NukiLockConstants.h</text>
</a>
</g>
</g>
<!-- Node1&#45;&gt;Node13 -->
<g id="edge16" class="edge">
<title>Node1&#45;&gt;Node13</title>
<path fill="none" stroke="#63b8ff" d="M775.89,-275.83C785.17,-258.36 806.12,-218.71 823.07,-185 830.7,-169.84 839.08,-152.51 845.21,-139.73"/>
<polygon fill="#63b8ff" stroke="#63b8ff" points="848.78,-141.37 849.94,-130.84 842.47,-138.36 848.78,-141.37"/>
</g>
<!-- Node14 -->
<g id="node14" class="node">
<title>Node14</title>
<g id="a_node14"><a xlink:href="_nuki_lock_utils_8h.html" target="_top" xlink:title=" ">
<polygon fill="white" stroke="#666666" points="813.95,-185 728.2,-185 728.2,-165.75 813.95,-165.75 813.95,-185"/>
<text text-anchor="middle" x="771.07" y="-171.5" font-family="Helvetica,sans-Serif" font-size="10.00">NukiLockUtils.h</text>
</a>
</g>
</g>
<!-- Node1&#45;&gt;Node14 -->
<g id="edge19" class="edge">
<title>Node1&#45;&gt;Node14</title>
<path fill="none" stroke="#63b8ff" d="M771.07,-276C771.07,-258.67 771.07,-219.98 771.07,-196.24"/>
<polygon fill="#63b8ff" stroke="#63b8ff" points="774.57,-196.38 771.07,-186.38 767.57,-196.38 774.57,-196.38"/>
</g>
<!-- Node3 -->
<g id="node3" class="node">
<title>Node3</title>
<g id="a_node3"><a xlink:title=" ">
<polygon fill="#e0e0e0" stroke="#999999" points="672.2,-185 581.95,-185 581.95,-165.75 672.2,-165.75 672.2,-185"/>
<text text-anchor="middle" x="627.07" y="-171.5" font-family="Helvetica,sans-Serif" font-size="10.00">NimBLEDevice.h</text>
</a>
</g>
</g>
<!-- Node2&#45;&gt;Node3 -->
<g id="edge2" class="edge">
<title>Node2&#45;&gt;Node3</title>
<path fill="none" stroke="#63b8ff" d="M353.4,-224.47C403.52,-215.66 506.47,-197.57 570.83,-186.26"/>
<polygon fill="#63b8ff" stroke="#63b8ff" points="571.35,-189.55 580.59,-184.37 570.14,-182.65 571.35,-189.55"/>
</g>
<!-- Node4 -->
<g id="node4" class="node">
<title>Node4</title>
<g id="a_node4"><a xlink:href="_nuki_constants_8h.html" target="_top" xlink:title=" ">
<polygon fill="white" stroke="#666666" points="397.07,-74.5 309.07,-74.5 309.07,-55.25 397.07,-55.25 397.07,-74.5"/>
<text text-anchor="middle" x="353.07" y="-61" font-family="Helvetica,sans-Serif" font-size="10.00">NukiConstants.h</text>
</a>
</g>
</g>
<!-- Node2&#45;&gt;Node4 -->
<g id="edge3" class="edge">
<title>Node2&#45;&gt;Node4</title>
<path fill="none" stroke="#63b8ff" d="M294.74,-230.19C222.98,-230.88 41.68,-228.21 4.07,-185 -1.55,-178.55 -0.98,-172.65 4.07,-165.75 38.81,-118.27 208.53,-86.92 297.85,-73.43"/>
<polygon fill="#63b8ff" stroke="#63b8ff" points="298.21,-76.76 307.59,-71.83 297.18,-69.84 298.21,-76.76"/>
</g>
<!-- Node6 -->
<g id="node6" class="node">
<title>Node6</title>
<g id="a_node6"><a xlink:href="_nuki_data_types_8h.html" target="_top" xlink:title=" ">
<polygon fill="white" stroke="#666666" points="398.2,-129.75 307.95,-129.75 307.95,-110.5 398.2,-110.5 398.2,-129.75"/>
<text text-anchor="middle" x="353.07" y="-116.25" font-family="Helvetica,sans-Serif" font-size="10.00">NukiDataTypes.h</text>
</a>
</g>
</g>
<!-- Node2&#45;&gt;Node6 -->
<g id="edge5" class="edge">
<title>Node2&#45;&gt;Node6</title>
<path fill="none" stroke="#63b8ff" d="M294.98,-229.75C230.02,-229.05 82.31,-221.48 128.07,-165.75 149.04,-140.22 237.34,-129.04 296.89,-124.33"/>
<polygon fill="#63b8ff" stroke="#63b8ff" points="296.94,-127.76 306.65,-123.52 296.42,-120.78 296.94,-127.76"/>
</g>
<!-- Node7 -->
<g id="node7" class="node">
<title>Node7</title>
<g id="a_node7"><a xlink:title=" ">
<polygon fill="#e0e0e0" stroke="#999999" points="703.32,-74.5 646.82,-74.5 646.82,-55.25 703.32,-55.25 703.32,-74.5"/>
<text text-anchor="middle" x="675.07" y="-61" font-family="Helvetica,sans-Serif" font-size="10.00">Arduino.h</text>
</a>
</g>
</g>
<!-- Node2&#45;&gt;Node7 -->
<g id="edge8" class="edge">
<title>Node2&#45;&gt;Node7</title>
<path fill="none" stroke="#63b8ff" d="M353.57,-228.14C435.19,-223.73 659.47,-209.47 681.07,-185 693.71,-170.68 685.02,-115.12 679.17,-85.21"/>
<polygon fill="#63b8ff" stroke="#63b8ff" points="682.48,-84.91 677.05,-75.81 675.62,-86.3 682.48,-84.91"/>
</g>
<!-- Node8 -->
<g id="node8" class="node">
<title>Node8</title>
<g id="a_node8"><a xlink:title=" ">
<polygon fill="#e0e0e0" stroke="#999999" points="213.07,-185 137.07,-185 137.07,-165.75 213.07,-165.75 213.07,-185"/>
<text text-anchor="middle" x="175.07" y="-171.5" font-family="Helvetica,sans-Serif" font-size="10.00">Preferences.h</text>
</a>
</g>
</g>
<!-- Node2&#45;&gt;Node8 -->
<g id="edge9" class="edge">
<title>Node2&#45;&gt;Node8</title>
<path fill="none" stroke="#63b8ff" d="M298.8,-220.59C274.61,-211.95 237.89,-198.82 210.73,-189.12"/>
<polygon fill="#63b8ff" stroke="#63b8ff" points="212.07,-185.52 201.47,-185.45 209.71,-192.11 212.07,-185.52"/>
</g>
<!-- Node9 -->
<g id="node9" class="node">
<title>Node9</title>
<g id="a_node9"><a xlink:title=" ">
<polygon fill="#e0e0e0" stroke="#999999" points="315.2,-185 230.95,-185 230.95,-165.75 315.2,-165.75 315.2,-185"/>
<text text-anchor="middle" x="273.07" y="-171.5" font-family="Helvetica,sans-Serif" font-size="10.00">esp_task_wdt.h</text>
</a>
</g>
</g>
<!-- Node2&#45;&gt;Node9 -->
<g id="edge10" class="edge">
<title>Node2&#45;&gt;Node9</title>
<path fill="none" stroke="#63b8ff" d="M315.65,-220.83C308.46,-213.32 297.91,-202.31 289.12,-193.13"/>
<polygon fill="#63b8ff" stroke="#63b8ff" points="292.12,-191.16 282.68,-186.36 287.06,-196 292.12,-191.16"/>
</g>
<!-- Node10 -->
<g id="node10" class="node">
<title>Node10</title>
<g id="a_node10"><a xlink:title=" ">
<polygon fill="#e0e0e0" stroke="#999999" points="414.7,-185 333.45,-185 333.45,-165.75 414.7,-165.75 414.7,-185"/>
<text text-anchor="middle" x="374.07" y="-171.5" font-family="Helvetica,sans-Serif" font-size="10.00">BleInterfaces.h</text>
</a>
</g>
</g>
<!-- Node2&#45;&gt;Node10 -->
<g id="edge11" class="edge">
<title>Node2&#45;&gt;Node10</title>
<path fill="none" stroke="#63b8ff" d="M332.33,-220.83C339.38,-213.32 349.72,-202.31 358.34,-193.13"/>
<polygon fill="#63b8ff" stroke="#63b8ff" points="360.34,-196.05 364.64,-186.36 355.24,-191.25 360.34,-196.05"/>
</g>
<!-- Node11 -->
<g id="node11" class="node">
<title>Node11</title>
<g id="a_node11"><a xlink:title=" ">
<polygon fill="#e0e0e0" stroke="#999999" points="563.82,-185 432.32,-185 432.32,-165.75 563.82,-165.75 563.82,-185"/>
<text text-anchor="middle" x="498.07" y="-171.5" font-family="Helvetica,sans-Serif" font-size="10.00">sodium/crypto_secretbox.h</text>
</a>
</g>
</g>
<!-- Node2&#45;&gt;Node11 -->
<g id="edge12" class="edge">
<title>Node2&#45;&gt;Node11</title>
<path fill="none" stroke="#63b8ff" d="M353.19,-220.71C381.88,-211.93 425.92,-198.45 457.92,-188.66"/>
<polygon fill="#63b8ff" stroke="#63b8ff" points="458.73,-191.77 467.27,-185.5 456.68,-185.08 458.73,-191.77"/>
</g>
<!-- Node12 -->
<g id="node12" class="node">
<title>Node12</title>
<g id="a_node12"><a xlink:href="_nuki_ble_8hpp.html" target="_top" xlink:title=" ">
<polygon fill="white" stroke="#666666" points="81.32,-185 12.82,-185 12.82,-165.75 81.32,-165.75 81.32,-185"/>
<text text-anchor="middle" x="47.07" y="-171.5" font-family="Helvetica,sans-Serif" font-size="10.00">NukiBle.hpp</text>
</a>
</g>
</g>
<!-- Node2&#45;&gt;Node12 -->
<g id="edge13" class="edge">
<title>Node2&#45;&gt;Node12</title>
<path fill="none" stroke="#63b8ff" d="M294.69,-223.98C246.29,-214.67 149.48,-196.06 92.3,-185.07"/>
<polygon fill="#63b8ff" stroke="#63b8ff" points="93.24,-181.49 82.76,-183.04 91.92,-188.37 93.24,-181.49"/>
</g>
<!-- Node5 -->
<g id="node5" class="node">
<title>Node5</title>
<g id="a_node5"><a xlink:title=" ">
<polygon fill="#e0e0e0" stroke="#999999" points="468.57,-19.25 383.57,-19.25 383.57,0 468.57,0 468.57,-19.25"/>
<text text-anchor="middle" x="426.07" y="-5.75" font-family="Helvetica,sans-Serif" font-size="10.00">NimBLEUUID.h</text>
</a>
</g>
</g>
<!-- Node4&#45;&gt;Node5 -->
<g id="edge4" class="edge">
<title>Node4&#45;&gt;Node5</title>
<path fill="none" stroke="#63b8ff" d="M365.45,-54.84C376.32,-46.91 392.35,-35.22 405.2,-25.85"/>
<polygon fill="#63b8ff" stroke="#63b8ff" points="406.85,-28.25 412.87,-19.52 402.73,-22.59 406.85,-28.25"/>
</g>
<!-- Node6&#45;&gt;Node4 -->
<g id="edge7" class="edge">
<title>Node6&#45;&gt;Node4</title>
<path fill="none" stroke="#63b8ff" d="M353.07,-110.33C353.07,-103.67 353.07,-94.24 353.07,-85.78"/>
<polygon fill="#63b8ff" stroke="#63b8ff" points="356.57,-85.86 353.07,-75.86 349.57,-85.86 356.57,-85.86"/>
</g>
<!-- Node6&#45;&gt;Node7 -->
<g id="edge6" class="edge">
<title>Node6&#45;&gt;Node7</title>
<path fill="none" stroke="#63b8ff" d="M398.52,-111.61C462.01,-101.11 576.15,-82.23 636.01,-72.33"/>
<polygon fill="#63b8ff" stroke="#63b8ff" points="636.24,-75.68 645.53,-70.59 635.1,-68.77 636.24,-75.68"/>
</g>
<!-- Node12&#45;&gt;Node4 -->
<g id="edge14" class="edge">
<title>Node12&#45;&gt;Node4</title>
<path fill="none" stroke="#63b8ff" d="M72.63,-165.31C127.08,-146 254.63,-100.78 317.19,-78.6"/>
<polygon fill="#63b8ff" stroke="#63b8ff" points="318.11,-81.63 326.37,-74.99 315.77,-75.03 318.11,-81.63"/>
</g>
<!-- Node12&#45;&gt;Node6 -->
<g id="edge15" class="edge">
<title>Node12&#45;&gt;Node6</title>
<path fill="none" stroke="#63b8ff" d="M81.67,-168.13C86.18,-167.32 90.74,-166.51 95.07,-165.75 164.66,-153.48 244.86,-139.66 297.13,-130.69"/>
<polygon fill="#63b8ff" stroke="#63b8ff" points="297.58,-133.99 306.85,-128.86 296.4,-127.1 297.58,-133.99"/>
</g>
<!-- Node13&#45;&gt;Node4 -->
<g id="edge18" class="edge">
<title>Node13&#45;&gt;Node4</title>
<path fill="none" stroke="#63b8ff" d="M799.02,-113.27C702.59,-103.02 504.22,-81.94 407.92,-71.7"/>
<polygon fill="#63b8ff" stroke="#63b8ff" points="408.57,-68.15 398.26,-70.57 407.83,-75.11 408.57,-68.15"/>
</g>
<!-- Node13&#45;&gt;Node5 -->
<g id="edge17" class="edge">
<title>Node13&#45;&gt;Node5</title>
<path fill="none" stroke="#63b8ff" d="M838.01,-110.17C812.25,-96.21 759.75,-69.41 712.07,-55.25 633.1,-31.79 537.99,-20.08 479.79,-14.69"/>
<polygon fill="#63b8ff" stroke="#63b8ff" points="480.29,-11.13 470.02,-13.72 479.66,-18.1 480.29,-11.13"/>
</g>
<!-- Node14&#45;&gt;Node6 -->
<g id="edge21" class="edge">
<title>Node14&#45;&gt;Node6</title>
<path fill="none" stroke="#63b8ff" d="M727.91,-168.88C651.78,-159.18 493.69,-139.04 409.2,-128.27"/>
<polygon fill="#63b8ff" stroke="#63b8ff" points="409.88,-124.71 399.52,-126.92 409,-131.65 409.88,-124.71"/>
</g>
<!-- Node14&#45;&gt;Node7 -->
<g id="edge20" class="edge">
<title>Node14&#45;&gt;Node7</title>
<path fill="none" stroke="#63b8ff" d="M770.49,-165.59C769.21,-152.35 765.1,-127.04 752.07,-110.5 741.35,-96.89 725.25,-86.64 710.54,-79.42"/>
<polygon fill="#63b8ff" stroke="#63b8ff" points="712.21,-75.88 701.66,-74.9 709.3,-82.25 712.21,-75.88"/>
</g>
<!-- Node14&#45;&gt;Node13 -->
<g id="edge22" class="edge">
<title>Node14&#45;&gt;Node13</title>
<path fill="none" stroke="#63b8ff" d="M785.15,-165.34C797.67,-157.31 816.22,-145.41 830.92,-135.98"/>
<polygon fill="#63b8ff" stroke="#63b8ff" points="832.4,-138.55 838.92,-130.2 828.62,-132.66 832.4,-138.55"/>
</g>
<!-- Node15 -->
<g id="node15" class="node">
<title>Node15</title>
<g id="a_node15"><a xlink:title=" ">
<polygon fill="#e0e0e0" stroke="#999999" points="743.07,-129.75 703.07,-129.75 703.07,-110.5 743.07,-110.5 743.07,-129.75"/>
<text text-anchor="middle" x="723.07" y="-116.25" font-family="Helvetica,sans-Serif" font-size="10.00">bitset</text>
</a>
</g>
</g>
<!-- Node14&#45;&gt;Node15 -->
<g id="edge23" class="edge">
<title>Node14&#45;&gt;Node15</title>
<path fill="none" stroke="#63b8ff" d="M763.14,-165.58C756.45,-158.15 746.65,-147.29 738.43,-138.16"/>
<polygon fill="#63b8ff" stroke="#63b8ff" points="741.46,-136.19 732.17,-131.11 736.27,-140.88 741.46,-136.19"/>
</g>
</g>
</svg>
