<?xml version="1.0" encoding="UTF-8" standalone="no"?>
<!DOCTYPE svg PUBLIC "-//W3C//DTD SVG 1.1//EN"
 "http://www.w3.org/Graphics/SVG/1.1/DTD/svg11.dtd">
<!-- Generated by graphviz version 5.0.1 (20220820.1526)
 -->
<!-- Title: src/NukiLockConstants.h Pages: 1 -->
<svg width="385pt" height="143pt"
 viewBox="0.00 0.00 384.50 143.00" xmlns="http://www.w3.org/2000/svg" xmlns:xlink="http://www.w3.org/1999/xlink">
<g id="graph0" class="graph" transform="scale(1 1) rotate(0) translate(4 139)">
<title>src/NukiLockConstants.h</title>
<!-- Node1 -->
<g id="node1" class="node">
<title>Node1</title>
<g id="a_node1"><a xlink:title=" ">
<polygon fill="#999999" stroke="#666666" points="189.5,-135 40.5,-135 40.5,-114 189.5,-114 189.5,-135"/>
<text text-anchor="middle" x="115" y="-121.4" font-family="Helvetica,sans-Serif" font-size="12.00">src/NukiLockConstants.h</text>
</a>
</g>
</g>
<!-- Node2 -->
<g id="node2" class="node">
<title>Node2</title>
<g id="a_node2"><a xlink:href="_nuki_lock_8h.html" target="_top" xlink:title=" ">
<polygon fill="white" stroke="#666666" points="100.5,-78 5.5,-78 5.5,-57 100.5,-57 100.5,-78"/>
<text text-anchor="middle" x="53" y="-64.4" font-family="Helvetica,sans-Serif" font-size="12.00">src/NukiLock.h</text>
</a>
</g>
</g>
<!-- Node1&#45;&gt;Node2 -->
<g id="edge1" class="edge">
<title>Node1&#45;&gt;Node2</title>
<path fill="none" stroke="#63b8ff" d="M96.68,-107.25C86.1,-97.86 73.14,-86.36 64.09,-78.34"/>
<polygon fill="#63b8ff" stroke="#63b8ff" points="94.4,-109.9 104.2,-113.92 99.04,-104.67 94.4,-109.9"/>
</g>
<!-- Node4 -->
<g id="node4" class="node">
<title>Node4</title>
<g id="a_node4"><a xlink:href="_nuki_lock_utils_8h.html" target="_top" xlink:title=" ">
<polygon fill="white" stroke="#666666" points="237.5,-78 118.5,-78 118.5,-57 237.5,-57 237.5,-78"/>
<text text-anchor="middle" x="178" y="-64.4" font-family="Helvetica,sans-Serif" font-size="12.00">src/NukiLockUtils.h</text>
</a>
</g>
</g>
<!-- Node1&#45;&gt;Node4 -->
<g id="edge3" class="edge">
<title>Node1&#45;&gt;Node4</title>
<path fill="none" stroke="#63b8ff" d="M133.62,-107.25C144.37,-97.86 157.54,-86.36 166.73,-78.34"/>
<polygon fill="#63b8ff" stroke="#63b8ff" points="131.21,-104.71 125.97,-113.92 135.81,-109.98 131.21,-104.71"/>
</g>
<!-- Node3 -->
<g id="node3" class="node">
<title>Node3</title>
<g id="a_node3"><a xlink:href="_nuki_lock_8cpp.html" target="_top" xlink:title=" ">
<polygon fill="white" stroke="#666666" points="108,-21 0,-21 0,0 108,0 108,-21"/>
<text text-anchor="middle" x="54" y="-7.4" font-family="Helvetica,sans-Serif" font-size="12.00">src/NukiLock.cpp</text>
</a>
</g>
</g>
<!-- Node2&#45;&gt;Node3 -->
<g id="edge2" class="edge">
<title>Node2&#45;&gt;Node3</title>
<path fill="none" stroke="#63b8ff" d="M53.36,-46.86C53.51,-38.2 53.69,-28.42 53.82,-21.34"/>
<polygon fill="#63b8ff" stroke="#63b8ff" points="49.86,-46.86 53.17,-56.92 56.86,-46.99 49.86,-46.86"/>
</g>
<!-- Node4&#45;&gt;Node3 -->
<g id="edge5" class="edge">
<title>Node4&#45;&gt;Node3</title>
<path fill="none" stroke="#63b8ff" d="M147.07,-52.78C124.88,-42.94 95.53,-29.92 75.77,-21.16"/>
<polygon fill="#63b8ff" stroke="#63b8ff" points="145.84,-56.06 156.4,-56.92 148.68,-49.67 145.84,-56.06"/>
</g>
<!-- Node5 -->
<g id="node5" class="node">
<title>Node5</title>
<g id="a_node5"><a xlink:href="_nuki_ble_8cpp.html" target="_top" xlink:title=" ">
<polygon fill="white" stroke="#666666" points="227,-21 127,-21 127,0 227,0 227,-21"/>
<text text-anchor="middle" x="177" y="-7.4" font-family="Helvetica,sans-Serif" font-size="12.00">src/NukiBle.cpp</text>
</a>
</g>
</g>
<!-- Node4&#45;&gt;Node5 -->
<g id="edge4" class="edge">
<title>Node4&#45;&gt;Node5</title>
<path fill="none" stroke="#63b8ff" d="M177.64,-46.86C177.49,-38.2 177.31,-28.42 177.18,-21.34"/>
<polygon fill="#63b8ff" stroke="#63b8ff" points="174.14,-46.99 177.83,-56.92 181.14,-46.86 174.14,-46.99"/>
</g>
<!-- Node6 -->
<g id="node6" class="node">
<title>Node6</title>
<g id="a_node6"><a xlink:href="_nuki_lock_utils_8cpp.html" target="_top" xlink:title=" ">
<polygon fill="white" stroke="#666666" points="376.5,-21 245.5,-21 245.5,0 376.5,0 376.5,-21"/>
<text text-anchor="middle" x="311" y="-7.4" font-family="Helvetica,sans-Serif" font-size="12.00">src/NukiLockUtils.cpp</text>
</a>
</g>
</g>
<!-- Node4&#45;&gt;Node6 -->
<g id="edge6" class="edge">
<title>Node4&#45;&gt;Node6</title>
<path fill="none" stroke="#63b8ff" d="M210.53,-53.05C234.41,-43.17 266.27,-30 287.65,-21.16"/>
<polygon fill="#63b8ff" stroke="#63b8ff" points="209.07,-49.86 201.17,-56.92 211.75,-56.33 209.07,-49.86"/>
</g>
</g>
</svg>
