<?xml version="1.0" encoding="UTF-8" standalone="no"?>
<!DOCTYPE svg PUBLIC "-//W3C//DTD SVG 1.1//EN"
 "http://www.w3.org/Graphics/SVG/1.1/DTD/svg11.dtd">
<!-- Generated by graphviz version 8.0.5 (20230430.1635)
 -->
<!-- Title: src/NukiOpener.h Pages: 1 -->
<svg width="903pt" height="304pt"
 viewBox="0.00 0.00 902.88 303.50" xmlns="http://www.w3.org/2000/svg" xmlns:xlink="http://www.w3.org/1999/xlink">
<g id="graph0" class="graph" transform="scale(1 1) rotate(0) translate(4 299.5)">
<title>src/NukiOpener.h</title>
<!-- Node1 -->
<g id="node1" class="node">
<title>Node1</title>
<g id="a_node1"><a xlink:title=" ">
<polygon fill="#999999" stroke="#666666" points="241.62,-295.5 149.88,-295.5 149.88,-276.25 241.62,-276.25 241.62,-295.5"/>
<text text-anchor="middle" x="195.75" y="-282" font-family="Helvetica,sans-Serif" font-size="10.00">src/NukiOpener.h</text>
</a>
</g>
</g>
<!-- Node2 -->
<g id="node2" class="node">
<title>Node2</title>
<g id="a_node2"><a xlink:href="_nuki_ble_8h.html" target="_top" xlink:title=" ">
<polygon fill="white" stroke="#666666" points="393.75,-240.25 335.75,-240.25 335.75,-221 393.75,-221 393.75,-240.25"/>
<text text-anchor="middle" x="364.75" y="-226.75" font-family="Helvetica,sans-Serif" font-size="10.00">NukiBle.h</text>
</a>
</g>
</g>
<!-- Node1&#45;&gt;Node2 -->
<g id="edge1" class="edge">
<title>Node1&#45;&gt;Node2</title>
<path fill="none" stroke="#63b8ff" d="M224.42,-275.84C252.22,-267.08 294.61,-253.73 325.53,-243.98"/>
<polygon fill="#63b8ff" stroke="#63b8ff" points="326.45,-247.05 334.94,-240.7 324.35,-240.37 326.45,-247.05"/>
</g>
<!-- Node13 -->
<g id="node13" class="node">
<title>Node13</title>
<g id="a_node13"><a xlink:href="_nuki_opener_constants_8h.html" target="_top" xlink:title=" ">
<polygon fill="white" stroke="#666666" points="119.5,-129.75 0,-129.75 0,-110.5 119.5,-110.5 119.5,-129.75"/>
<text text-anchor="middle" x="59.75" y="-116.25" font-family="Helvetica,sans-Serif" font-size="10.00">NukiOpenerConstants.h</text>
</a>
</g>
</g>
<!-- Node1&#45;&gt;Node13 -->
<g id="edge16" class="edge">
<title>Node1&#45;&gt;Node13</title>
<path fill="none" stroke="#63b8ff" d="M188.44,-276.07C166.76,-249.97 102.57,-172.69 73.88,-138.14"/>
<polygon fill="#63b8ff" stroke="#63b8ff" points="76.18,-136.43 67.1,-130.97 70.79,-140.9 76.18,-136.43"/>
</g>
<!-- Node3 -->
<g id="node3" class="node">
<title>Node3</title>
<g id="a_node3"><a xlink:title=" ">
<polygon fill="#e0e0e0" stroke="#999999" points="894.88,-185 804.62,-185 804.62,-165.75 894.88,-165.75 894.88,-185"/>
<text text-anchor="middle" x="849.75" y="-171.5" font-family="Helvetica,sans-Serif" font-size="10.00">NimBLEDevice.h</text>
</a>
</g>
</g>
<!-- Node2&#45;&gt;Node3 -->
<g id="edge2" class="edge">
<title>Node2&#45;&gt;Node3</title>
<path fill="none" stroke="#63b8ff" d="M394.08,-227.15C462.27,-221.28 637,-205.54 793.64,-185.21"/>
<polygon fill="#63b8ff" stroke="#63b8ff" points="793.94,-188.57 803.4,-183.8 793.03,-181.63 793.94,-188.57"/>
</g>
<!-- Node4 -->
<g id="node4" class="node">
<title>Node4</title>
<g id="a_node4"><a xlink:href="_nuki_constants_8h.html" target="_top" xlink:title=" ">
<polygon fill="white" stroke="#666666" points="191.75,-74.5 103.75,-74.5 103.75,-55.25 191.75,-55.25 191.75,-74.5"/>
<text text-anchor="middle" x="147.75" y="-61" font-family="Helvetica,sans-Serif" font-size="10.00">NukiConstants.h</text>
</a>
</g>
</g>
<!-- Node2&#45;&gt;Node4 -->
<g id="edge3" class="edge">
<title>Node2&#45;&gt;Node4</title>
<path fill="none" stroke="#63b8ff" d="M335.56,-230.27C297.07,-229.53 229.46,-222.46 188.75,-185 160.4,-158.92 151.66,-112.35 148.96,-85.82"/>
<polygon fill="#63b8ff" stroke="#63b8ff" points="152.37,-85.57 148.07,-75.88 145.39,-86.13 152.37,-85.57"/>
</g>
<!-- Node6 -->
<g id="node6" class="node">
<title>Node6</title>
<g id="a_node6"><a xlink:href="_nuki_data_types_8h.html" target="_top" xlink:title=" ">
<polygon fill="white" stroke="#666666" points="303.88,-129.75 213.62,-129.75 213.62,-110.5 303.88,-110.5 303.88,-129.75"/>
<text text-anchor="middle" x="258.75" y="-116.25" font-family="Helvetica,sans-Serif" font-size="10.00">NukiDataTypes.h</text>
</a>
</g>
</g>
<!-- Node2&#45;&gt;Node6 -->
<g id="edge5" class="edge">
<title>Node2&#45;&gt;Node6</title>
<path fill="none" stroke="#63b8ff" d="M354.85,-220.58C345.21,-211.69 330.23,-197.66 317.75,-185 302.42,-169.46 285.58,-151.09 273.83,-138.05"/>
<polygon fill="#63b8ff" stroke="#63b8ff" points="276.87,-136.08 267.59,-130.97 271.66,-140.76 276.87,-136.08"/>
</g>
<!-- Node7 -->
<g id="node7" class="node">
<title>Node7</title>
<g id="a_node7"><a xlink:title=" ">
<polygon fill="#e0e0e0" stroke="#999999" points="323,-74.5 266.5,-74.5 266.5,-55.25 323,-55.25 323,-74.5"/>
<text text-anchor="middle" x="294.75" y="-61" font-family="Helvetica,sans-Serif" font-size="10.00">Arduino.h</text>
</a>
</g>
</g>
<!-- Node2&#45;&gt;Node7 -->
<g id="edge8" class="edge">
<title>Node2&#45;&gt;Node7</title>
<path fill="none" stroke="#63b8ff" d="M360.99,-220.82C350.02,-195.17 317.91,-120.05 302.79,-84.69"/>
<polygon fill="#63b8ff" stroke="#63b8ff" points="305.68,-83.54 298.53,-75.72 299.24,-86.29 305.68,-83.54"/>
</g>
<!-- Node8 -->
<g id="node8" class="node">
<title>Node8</title>
<g id="a_node8"><a xlink:title=" ">
<polygon fill="#e0e0e0" stroke="#999999" points="435.75,-185 359.75,-185 359.75,-165.75 435.75,-165.75 435.75,-185"/>
<text text-anchor="middle" x="397.75" y="-171.5" font-family="Helvetica,sans-Serif" font-size="10.00">Preferences.h</text>
</a>
</g>
</g>
<!-- Node2&#45;&gt;Node8 -->
<g id="edge9" class="edge">
<title>Node2&#45;&gt;Node8</title>
<path fill="none" stroke="#63b8ff" d="M370.2,-220.83C374.62,-213.71 380.99,-203.43 386.49,-194.55"/>
<polygon fill="#63b8ff" stroke="#63b8ff" points="389.89,-196.7 392.18,-186.36 383.94,-193.02 389.89,-196.7"/>
</g>
<!-- Node9 -->
<g id="node9" class="node">
<title>Node9</title>
<g id="a_node9"><a xlink:title=" ">
<polygon fill="#e0e0e0" stroke="#999999" points="537.88,-185 453.62,-185 453.62,-165.75 537.88,-165.75 537.88,-185"/>
<text text-anchor="middle" x="495.75" y="-171.5" font-family="Helvetica,sans-Serif" font-size="10.00">esp_task_wdt.h</text>
</a>
</g>
</g>
<!-- Node2&#45;&gt;Node9 -->
<g id="edge10" class="edge">
<title>Node2&#45;&gt;Node9</title>
<path fill="none" stroke="#63b8ff" d="M386.97,-220.59C407.96,-212.06 439.67,-199.17 463.44,-189.51"/>
<polygon fill="#63b8ff" stroke="#63b8ff" points="464.47,-192.46 472.42,-185.45 461.84,-185.98 464.47,-192.46"/>
</g>
<!-- Node10 -->
<g id="node10" class="node">
<title>Node10</title>
<g id="a_node10"><a xlink:title=" ">
<polygon fill="#e0e0e0" stroke="#999999" points="637.38,-185 556.12,-185 556.12,-165.75 637.38,-165.75 637.38,-185"/>
<text text-anchor="middle" x="596.75" y="-171.5" font-family="Helvetica,sans-Serif" font-size="10.00">BleInterfaces.h</text>
</a>
</g>
</g>
<!-- Node2&#45;&gt;Node10 -->
<g id="edge11" class="edge">
<title>Node2&#45;&gt;Node10</title>
<path fill="none" stroke="#63b8ff" d="M394.13,-222.88C432.48,-214.08 500.17,-198.54 546.68,-187.87"/>
<polygon fill="#63b8ff" stroke="#63b8ff" points="547.18,-191.11 556.14,-185.47 545.61,-184.29 547.18,-191.11"/>
</g>
<!-- Node11 -->
<g id="node11" class="node">
<title>Node11</title>
<g id="a_node11"><a xlink:title=" ">
<polygon fill="#e0e0e0" stroke="#999999" points="786.5,-185 655,-185 655,-165.75 786.5,-165.75 786.5,-185"/>
<text text-anchor="middle" x="720.75" y="-171.5" font-family="Helvetica,sans-Serif" font-size="10.00">sodium/crypto_secretbox.h</text>
</a>
</g>
</g>
<!-- Node2&#45;&gt;Node11 -->
<g id="edge12" class="edge">
<title>Node2&#45;&gt;Node11</title>
<path fill="none" stroke="#63b8ff" d="M394.19,-225.22C449.63,-216.93 571,-198.77 649.15,-187.09"/>
<polygon fill="#63b8ff" stroke="#63b8ff" points="649.5,-190.42 658.88,-185.48 648.47,-183.5 649.5,-190.42"/>
</g>
<!-- Node12 -->
<g id="node12" class="node">
<title>Node12</title>
<g id="a_node12"><a xlink:href="_nuki_ble_8hpp.html" target="_top" xlink:title=" ">
<polygon fill="white" stroke="#666666" points="266,-185 197.5,-185 197.5,-165.75 266,-165.75 266,-185"/>
<text text-anchor="middle" x="231.75" y="-171.5" font-family="Helvetica,sans-Serif" font-size="10.00">NukiBle.hpp</text>
</a>
</g>
</g>
<!-- Node2&#45;&gt;Node12 -->
<g id="edge13" class="edge">
<title>Node2&#45;&gt;Node12</title>
<path fill="none" stroke="#63b8ff" d="M342.19,-220.59C320.88,-212.06 288.69,-199.17 264.55,-189.51"/>
<polygon fill="#63b8ff" stroke="#63b8ff" points="266.01,-185.92 255.42,-185.45 263.4,-192.42 266.01,-185.92"/>
</g>
<!-- Node5 -->
<g id="node5" class="node">
<title>Node5</title>
<g id="a_node5"><a xlink:title=" ">
<polygon fill="#e0e0e0" stroke="#999999" points="146.25,-19.25 61.25,-19.25 61.25,0 146.25,0 146.25,-19.25"/>
<text text-anchor="middle" x="103.75" y="-5.75" font-family="Helvetica,sans-Serif" font-size="10.00">NimBLEUUID.h</text>
</a>
</g>
</g>
<!-- Node4&#45;&gt;Node5 -->
<g id="edge4" class="edge">
<title>Node4&#45;&gt;Node5</title>
<path fill="none" stroke="#63b8ff" d="M140.48,-55.08C134.41,-47.73 125.55,-37.01 118.06,-27.94"/>
<polygon fill="#63b8ff" stroke="#63b8ff" points="120.24,-26.09 111.17,-20.61 114.85,-30.55 120.24,-26.09"/>
</g>
<!-- Node6&#45;&gt;Node4 -->
<g id="edge7" class="edge">
<title>Node6&#45;&gt;Node4</title>
<path fill="none" stroke="#63b8ff" d="M239.92,-110.09C222.54,-101.75 196.47,-89.25 176.49,-79.66"/>
<polygon fill="#63b8ff" stroke="#63b8ff" points="178.2,-76.12 167.67,-74.95 175.17,-82.43 178.2,-76.12"/>
</g>
<!-- Node6&#45;&gt;Node7 -->
<g id="edge6" class="edge">
<title>Node6&#45;&gt;Node7</title>
<path fill="none" stroke="#63b8ff" d="M264.69,-110.33C269.56,-103.13 276.61,-92.71 282.66,-83.76"/>
<polygon fill="#63b8ff" stroke="#63b8ff" points="285.97,-86.1 288.68,-75.86 280.18,-82.18 285.97,-86.1"/>
</g>
<!-- Node12&#45;&gt;Node4 -->
<g id="edge14" class="edge">
<title>Node12&#45;&gt;Node4</title>
<path fill="none" stroke="#63b8ff" d="M224.88,-165.5C211.03,-147.61 179.57,-106.97 161.39,-83.5"/>
<polygon fill="#63b8ff" stroke="#63b8ff" points="163.61,-81.64 154.72,-75.88 158.07,-85.93 163.61,-81.64"/>
</g>
<!-- Node12&#45;&gt;Node6 -->
<g id="edge15" class="edge">
<title>Node12&#45;&gt;Node6</title>
<path fill="none" stroke="#63b8ff" d="M236.21,-165.58C239.74,-158.61 244.81,-148.62 249.24,-139.87"/>
<polygon fill="#63b8ff" stroke="#63b8ff" points="252.79,-141.61 254.19,-131.11 246.55,-138.45 252.79,-141.61"/>
</g>
<!-- Node13&#45;&gt;Node4 -->
<g id="edge18" class="edge">
<title>Node13&#45;&gt;Node4</title>
<path fill="none" stroke="#63b8ff" d="M74.68,-110.09C88.08,-101.98 107.99,-89.93 123.65,-80.46"/>
<polygon fill="#63b8ff" stroke="#63b8ff" points="125.01,-83.12 131.75,-74.95 121.38,-77.14 125.01,-83.12"/>
</g>
<!-- Node13&#45;&gt;Node5 -->
<g id="edge17" class="edge">
<title>Node13&#45;&gt;Node5</title>
<path fill="none" stroke="#63b8ff" d="M63.35,-110.25C70.47,-92.68 86.5,-53.16 96.09,-29.52"/>
<polygon fill="#63b8ff" stroke="#63b8ff" points="99.58,-31.21 100.1,-20.63 93.1,-28.58 99.58,-31.21"/>
</g>
</g>
</svg>
