<?xml version="1.0" encoding="UTF-8" standalone="no"?>
<!DOCTYPE svg PUBLIC "-//W3C//DTD SVG 1.1//EN"
 "http://www.w3.org/Graphics/SVG/1.1/DTD/svg11.dtd">
<!-- Generated by graphviz version 5.0.1 (20220820.1526)
 -->
<!-- Title: src/NukiOpenerUtils.cpp Pages: 1 -->
<svg width="384pt" height="257pt"
 viewBox="0.00 0.00 383.50 257.00" xmlns="http://www.w3.org/2000/svg" xmlns:xlink="http://www.w3.org/1999/xlink">
<g id="graph0" class="graph" transform="scale(1 1) rotate(0) translate(4 253)">
<title>src/NukiOpenerUtils.cpp</title>
<!-- Node1 -->
<g id="node1" class="node">
<title>Node1</title>
<g id="a_node1"><a xlink:title=" ">
<polygon fill="#999999" stroke="#666666" points="240,-249 94,-249 94,-228 240,-228 240,-249"/>
<text text-anchor="middle" x="167" y="-235.4" font-family="Helvetica,sans-Serif" font-size="12.00">src/NukiOpenerUtils.cpp</text>
</a>
</g>
</g>
<!-- Node2 -->
<g id="node2" class="node">
<title>Node2</title>
<g id="a_node2"><a xlink:href="_nuki_opener_utils_8h.html" target="_top" xlink:title=" ">
<polygon fill="white" stroke="#666666" points="224.5,-192 109.5,-192 109.5,-171 224.5,-171 224.5,-192"/>
<text text-anchor="middle" x="167" y="-178.4" font-family="Helvetica,sans-Serif" font-size="12.00">NukiOpenerUtils.h</text>
</a>
</g>
</g>
<!-- Node1&#45;&gt;Node2 -->
<g id="edge1" class="edge">
<title>Node1&#45;&gt;Node2</title>
<path fill="none" stroke="#63b8ff" d="M167,-227.92C167,-220.91 167,-211.14 167,-202.47"/>
<polygon fill="#63b8ff" stroke="#63b8ff" points="170.5,-202.34 167,-192.34 163.5,-202.34 170.5,-202.34"/>
</g>
<!-- Node3 -->
<g id="node3" class="node">
<title>Node3</title>
<g id="a_node3"><a xlink:title=" ">
<polygon fill="#e0e0e0" stroke="#999999" points="68,-78 0,-78 0,-57 68,-57 68,-78"/>
<text text-anchor="middle" x="34" y="-64.4" font-family="Helvetica,sans-Serif" font-size="12.00">Arduino.h</text>
</a>
</g>
</g>
<!-- Node2&#45;&gt;Node3 -->
<g id="edge2" class="edge">
<title>Node2&#45;&gt;Node3</title>
<path fill="none" stroke="#63b8ff" d="M109.16,-176.48C80.73,-171.23 48.82,-159.75 31,-135 21.31,-121.55 23.42,-102.29 27.15,-87.96"/>
<polygon fill="#63b8ff" stroke="#63b8ff" points="30.58,-88.73 30.15,-78.14 23.88,-86.68 30.58,-88.73"/>
</g>
<!-- Node4 -->
<g id="node4" class="node">
<title>Node4</title>
<g id="a_node4"><a xlink:href="_nuki_data_types_8h.html" target="_top" xlink:title=" ">
<polygon fill="white" stroke="#666666" points="149.5,-135 40.5,-135 40.5,-114 149.5,-114 149.5,-135"/>
<text text-anchor="middle" x="95" y="-121.4" font-family="Helvetica,sans-Serif" font-size="12.00">NukiDataTypes.h</text>
</a>
</g>
</g>
<!-- Node2&#45;&gt;Node4 -->
<g id="edge3" class="edge">
<title>Node2&#45;&gt;Node4</title>
<path fill="none" stroke="#63b8ff" d="M154.46,-170.92C143.85,-162.82 128.43,-151.04 115.96,-141.51"/>
<polygon fill="#63b8ff" stroke="#63b8ff" points="117.95,-138.63 107.88,-135.34 113.7,-144.19 117.95,-138.63"/>
</g>
<!-- Node7 -->
<g id="node7" class="node">
<title>Node7</title>
<g id="a_node7"><a xlink:href="_nuki_opener_constants_8h.html" target="_top" xlink:title=" ">
<polygon fill="white" stroke="#666666" points="312.5,-135 167.5,-135 167.5,-114 312.5,-114 312.5,-135"/>
<text text-anchor="middle" x="240" y="-121.4" font-family="Helvetica,sans-Serif" font-size="12.00">NukiOpenerConstants.h</text>
</a>
</g>
</g>
<!-- Node2&#45;&gt;Node7 -->
<g id="edge7" class="edge">
<title>Node2&#45;&gt;Node7</title>
<path fill="none" stroke="#63b8ff" d="M179.72,-170.92C190.47,-162.82 206.1,-151.04 218.75,-141.51"/>
<polygon fill="#63b8ff" stroke="#63b8ff" points="221.06,-144.15 226.94,-135.34 216.85,-138.56 221.06,-144.15"/>
</g>
<!-- Node8 -->
<g id="node8" class="node">
<title>Node8</title>
<g id="a_node8"><a xlink:title=" ">
<polygon fill="#e0e0e0" stroke="#999999" points="375.5,-135 330.5,-135 330.5,-114 375.5,-114 375.5,-135"/>
<text text-anchor="middle" x="353" y="-121.4" font-family="Helvetica,sans-Serif" font-size="12.00">bitset</text>
</a>
</g>
</g>
<!-- Node2&#45;&gt;Node8 -->
<g id="edge10" class="edge">
<title>Node2&#45;&gt;Node8</title>
<path fill="none" stroke="#63b8ff" d="M199.99,-170.94C229.37,-162.4 273.77,-149.42 320.61,-135.4"/>
<polygon fill="#63b8ff" stroke="#63b8ff" points="321.75,-138.71 330.32,-132.48 319.74,-132 321.75,-138.71"/>
</g>
<!-- Node4&#45;&gt;Node3 -->
<g id="edge4" class="edge">
<title>Node4&#45;&gt;Node3</title>
<path fill="none" stroke="#63b8ff" d="M84.37,-113.92C75.56,-105.97 62.83,-94.49 52.37,-85.06"/>
<polygon fill="#63b8ff" stroke="#63b8ff" points="54.69,-82.44 44.91,-78.34 50,-87.64 54.69,-82.44"/>
</g>
<!-- Node5 -->
<g id="node5" class="node">
<title>Node5</title>
<g id="a_node5"><a xlink:href="_nuki_constants_8h.html" target="_top" xlink:title=" ">
<polygon fill="white" stroke="#666666" points="212,-78 108,-78 108,-57 212,-57 212,-78"/>
<text text-anchor="middle" x="160" y="-64.4" font-family="Helvetica,sans-Serif" font-size="12.00">NukiConstants.h</text>
</a>
</g>
</g>
<!-- Node4&#45;&gt;Node5 -->
<g id="edge5" class="edge">
<title>Node4&#45;&gt;Node5</title>
<path fill="none" stroke="#63b8ff" d="M106.32,-113.92C115.71,-105.97 129.28,-94.49 140.43,-85.06"/>
<polygon fill="#63b8ff" stroke="#63b8ff" points="143,-87.47 148.37,-78.34 138.48,-82.13 143,-87.47"/>
</g>
<!-- Node6 -->
<g id="node6" class="node">
<title>Node6</title>
<g id="a_node6"><a xlink:title=" ">
<polygon fill="#e0e0e0" stroke="#999999" points="250,-21 150,-21 150,0 250,0 250,-21"/>
<text text-anchor="middle" x="200" y="-7.4" font-family="Helvetica,sans-Serif" font-size="12.00">NimBLEUUID.h</text>
</a>
</g>
</g>
<!-- Node5&#45;&gt;Node6 -->
<g id="edge6" class="edge">
<title>Node5&#45;&gt;Node6</title>
<path fill="none" stroke="#63b8ff" d="M166.97,-56.92C172.46,-49.36 180.28,-38.61 186.94,-29.46"/>
<polygon fill="#63b8ff" stroke="#63b8ff" points="189.79,-31.49 192.84,-21.34 184.13,-27.37 189.79,-31.49"/>
</g>
<!-- Node7&#45;&gt;Node5 -->
<g id="edge9" class="edge">
<title>Node7&#45;&gt;Node5</title>
<path fill="none" stroke="#63b8ff" d="M226.07,-113.92C214.09,-105.69 196.6,-93.67 182.63,-84.06"/>
<polygon fill="#63b8ff" stroke="#63b8ff" points="184.27,-80.94 174.04,-78.16 180.3,-86.7 184.27,-80.94"/>
</g>
<!-- Node7&#45;&gt;Node6 -->
<g id="edge8" class="edge">
<title>Node7&#45;&gt;Node6</title>
<path fill="none" stroke="#63b8ff" d="M237.75,-113.88C234.58,-100.81 228.35,-76.81 221,-57 217.64,-47.95 213.25,-38.21 209.36,-30.06"/>
<polygon fill="#63b8ff" stroke="#63b8ff" points="212.5,-28.52 204.95,-21.08 206.21,-31.6 212.5,-28.52"/>
</g>
</g>
</svg>
