<?xml version="1.0" encoding="UTF-8" standalone="no"?>
<!DOCTYPE svg PUBLIC "-//W3C//DTD SVG 1.1//EN"
 "http://www.w3.org/Graphics/SVG/1.1/DTD/svg11.dtd">
<!-- Generated by graphviz version 6.0.1 (20220911.1526)
 -->
<!-- Title: src/NukiConstants.h Pages: 1 -->
<svg width="640pt" height="302pt"
 viewBox="0.00 0.00 639.66 302.00" xmlns="http://www.w3.org/2000/svg" xmlns:xlink="http://www.w3.org/1999/xlink">
<g id="graph0" class="graph" transform="scale(1 1) rotate(0) translate(4 298)">
<title>src/NukiConstants.h</title>
<!-- Node1 -->
<g id="node1" class="node">
<title>Node1</title>
<g id="a_node1"><a xlink:title=" ">
<polygon fill="#999999" stroke="#666666" points="355.16,-294 250.16,-294 250.16,-275 355.16,-275 355.16,-294"/>
<text text-anchor="middle" x="302.66" y="-282" font-family="Helvetica,sans-Serif" font-size="10.00">src/NukiConstants.h</text>
</a>
</g>
</g>
<!-- Node2 -->
<g id="node2" class="node">
<title>Node2</title>
<g id="a_node2"><a xlink:href="_nuki_ble_8h.html" target="_top" xlink:title=" ">
<polygon fill="white" stroke="#666666" points="326.16,-129 251.16,-129 251.16,-110 326.16,-110 326.16,-129"/>
<text text-anchor="middle" x="288.66" y="-117" font-family="Helvetica,sans-Serif" font-size="10.00">src/NukiBle.h</text>
</a>
</g>
</g>
<!-- Node1&#45;&gt;Node2 -->
<g id="edge1" class="edge">
<title>Node1&#45;&gt;Node2</title>
<path fill="none" stroke="#63b8ff" d="M280.42,-269.01C256.52,-251.96 219.91,-221.2 204.66,-184 193.54,-156.85 229.38,-138.78 257.67,-129.08"/>
<polygon fill="#63b8ff" stroke="#63b8ff" points="278.67,-272.05 288.89,-274.86 282.65,-266.29 278.67,-272.05"/>
</g>
<!-- Node8 -->
<g id="node8" class="node">
<title>Node8</title>
<g id="a_node8"><a xlink:href="_nuki_ble_8hpp.html" target="_top" xlink:title=" ">
<polygon fill="white" stroke="#666666" points="299.66,-184 213.66,-184 213.66,-165 299.66,-165 299.66,-184"/>
<text text-anchor="middle" x="256.66" y="-172" font-family="Helvetica,sans-Serif" font-size="10.00">src/NukiBle.hpp</text>
</a>
</g>
</g>
<!-- Node1&#45;&gt;Node8 -->
<g id="edge7" class="edge">
<title>Node1&#45;&gt;Node8</title>
<path fill="none" stroke="#63b8ff" d="M294.97,-265.44C284.95,-241.92 267.84,-201.73 260.35,-184.16"/>
<polygon fill="#63b8ff" stroke="#63b8ff" points="291.76,-266.83 298.9,-274.66 298.2,-264.09 291.76,-266.83"/>
</g>
<!-- Node9 -->
<g id="node9" class="node">
<title>Node9</title>
<g id="a_node9"><a xlink:href="_nuki_data_types_8h.html" target="_top" xlink:title=" ">
<polygon fill="white" stroke="#666666" points="407.16,-239 300.16,-239 300.16,-220 407.16,-220 407.16,-239"/>
<text text-anchor="middle" x="353.66" y="-227" font-family="Helvetica,sans-Serif" font-size="10.00">src/NukiDataTypes.h</text>
</a>
</g>
</g>
<!-- Node1&#45;&gt;Node9 -->
<g id="edge9" class="edge">
<title>Node1&#45;&gt;Node9</title>
<path fill="none" stroke="#63b8ff" d="M318.04,-267.52C327.03,-258.18 338.02,-246.75 345.4,-239.09"/>
<polygon fill="#63b8ff" stroke="#63b8ff" points="315.5,-265.12 311.08,-274.75 320.54,-269.97 315.5,-265.12"/>
</g>
<!-- Node14 -->
<g id="node14" class="node">
<title>Node14</title>
<g id="a_node14"><a xlink:href="_nuki_utils_8h.html" target="_top" xlink:title=" ">
<polygon fill="white" stroke="#666666" points="444.16,-129 363.16,-129 363.16,-110 444.16,-110 444.16,-129"/>
<text text-anchor="middle" x="403.66" y="-117" font-family="Helvetica,sans-Serif" font-size="10.00">src/NukiUtils.h</text>
</a>
</g>
</g>
<!-- Node1&#45;&gt;Node14 -->
<g id="edge29" class="edge">
<title>Node1&#45;&gt;Node14</title>
<path fill="none" stroke="#63b8ff" d="M365.15,-273.16C384.6,-266.68 403.99,-256.15 415.66,-239 439.29,-204.3 417.9,-150.12 408.03,-129.17"/>
<polygon fill="#63b8ff" stroke="#63b8ff" points="363.89,-269.89 355.32,-276.11 365.9,-276.59 363.89,-269.89"/>
</g>
<!-- Node16 -->
<g id="node16" class="node">
<title>Node16</title>
<g id="a_node16"><a xlink:href="_nuki_lock_constants_8h.html" target="_top" xlink:title=" ">
<polygon fill="white" stroke="#666666" points="157.16,-184 30.16,-184 30.16,-165 157.16,-165 157.16,-184"/>
<text text-anchor="middle" x="93.66" y="-172" font-family="Helvetica,sans-Serif" font-size="10.00">src/NukiLockConstants.h</text>
</a>
</g>
</g>
<!-- Node1&#45;&gt;Node16 -->
<g id="edge23" class="edge">
<title>Node1&#45;&gt;Node16</title>
<path fill="none" stroke="#63b8ff" d="M256.53,-272.18C230.64,-264.78 198.29,-253.73 171.66,-239 143.55,-223.44 115.55,-197.45 102.03,-184.05"/>
<polygon fill="#63b8ff" stroke="#63b8ff" points="255.9,-275.64 266.48,-274.94 257.77,-268.9 255.9,-275.64"/>
</g>
<!-- Node17 -->
<g id="node17" class="node">
<title>Node17</title>
<g id="a_node17"><a xlink:href="_nuki_opener_constants_8h.html" target="_top" xlink:title=" ">
<polygon fill="white" stroke="#666666" points="607.16,-239 470.16,-239 470.16,-220 607.16,-220 607.16,-239"/>
<text text-anchor="middle" x="538.66" y="-227" font-family="Helvetica,sans-Serif" font-size="10.00">src/NukiOpenerConstants.h</text>
</a>
</g>
</g>
<!-- Node1&#45;&gt;Node17 -->
<g id="edge26" class="edge">
<title>Node1&#45;&gt;Node17</title>
<path fill="none" stroke="#63b8ff" d="M350.52,-272.75C394.74,-262.82 459.59,-248.26 500.45,-239.08"/>
<polygon fill="#63b8ff" stroke="#63b8ff" points="349.57,-269.38 340.58,-274.98 351.1,-276.21 349.57,-269.38"/>
</g>
<!-- Node3 -->
<g id="node3" class="node">
<title>Node3</title>
<g id="a_node3"><a xlink:href="_nuki_ble_8cpp.html" target="_top" xlink:title=" ">
<polygon fill="white" stroke="#666666" points="335.66,-74 249.66,-74 249.66,-55 335.66,-55 335.66,-74"/>
<text text-anchor="middle" x="292.66" y="-62" font-family="Helvetica,sans-Serif" font-size="10.00">src/NukiBle.cpp</text>
</a>
</g>
</g>
<!-- Node2&#45;&gt;Node3 -->
<g id="edge2" class="edge">
<title>Node2&#45;&gt;Node3</title>
<path fill="none" stroke="#63b8ff" d="M290.08,-99.66C290.74,-90.93 291.49,-80.99 292.01,-74.09"/>
<polygon fill="#63b8ff" stroke="#63b8ff" points="286.59,-99.51 289.32,-109.75 293.57,-100.04 286.59,-99.51"/>
</g>
<!-- Node4 -->
<g id="node4" class="node">
<title>Node4</title>
<g id="a_node4"><a xlink:href="_nuki_lock_8h.html" target="_top" xlink:title=" ">
<polygon fill="white" stroke="#666666" points="231.16,-74 148.16,-74 148.16,-55 231.16,-55 231.16,-74"/>
<text text-anchor="middle" x="189.66" y="-62" font-family="Helvetica,sans-Serif" font-size="10.00">src/NukiLock.h</text>
</a>
</g>
</g>
<!-- Node2&#45;&gt;Node4 -->
<g id="edge3" class="edge">
<title>Node2&#45;&gt;Node4</title>
<path fill="none" stroke="#63b8ff" d="M263.88,-105.23C245.73,-95.51 221.6,-82.6 205.86,-74.17"/>
<polygon fill="#63b8ff" stroke="#63b8ff" points="262.29,-108.35 272.76,-109.98 265.59,-102.18 262.29,-108.35"/>
</g>
<!-- Node6 -->
<g id="node6" class="node">
<title>Node6</title>
<g id="a_node6"><a xlink:href="_nuki_opener_8h.html" target="_top" xlink:title=" ">
<polygon fill="white" stroke="#666666" points="631.66,-74 539.66,-74 539.66,-55 631.66,-55 631.66,-74"/>
<text text-anchor="middle" x="585.66" y="-62" font-family="Helvetica,sans-Serif" font-size="10.00">src/NukiOpener.h</text>
</a>
</g>
</g>
<!-- Node2&#45;&gt;Node6 -->
<g id="edge5" class="edge">
<title>Node2&#45;&gt;Node6</title>
<path fill="none" stroke="#63b8ff" d="M336.28,-110C392.21,-100.02 484.34,-83.58 539.59,-73.72"/>
<polygon fill="#63b8ff" stroke="#63b8ff" points="335.51,-106.59 326.28,-111.79 336.74,-113.48 335.51,-106.59"/>
</g>
<!-- Node5 -->
<g id="node5" class="node">
<title>Node5</title>
<g id="a_node5"><a xlink:href="_nuki_lock_8cpp.html" target="_top" xlink:title=" ">
<polygon fill="white" stroke="#666666" points="236.16,-19 143.16,-19 143.16,0 236.16,0 236.16,-19"/>
<text text-anchor="middle" x="189.66" y="-7" font-family="Helvetica,sans-Serif" font-size="10.00">src/NukiLock.cpp</text>
</a>
</g>
</g>
<!-- Node4&#45;&gt;Node5 -->
<g id="edge4" class="edge">
<title>Node4&#45;&gt;Node5</title>
<path fill="none" stroke="#63b8ff" d="M189.66,-44.66C189.66,-35.93 189.66,-25.99 189.66,-19.09"/>
<polygon fill="#63b8ff" stroke="#63b8ff" points="186.16,-44.75 189.66,-54.75 193.16,-44.75 186.16,-44.75"/>
</g>
<!-- Node7 -->
<g id="node7" class="node">
<title>Node7</title>
<g id="a_node7"><a xlink:href="_nuki_opener_8cpp.html" target="_top" xlink:title=" ">
<polygon fill="white" stroke="#666666" points="600.16,-19 497.16,-19 497.16,0 600.16,0 600.16,-19"/>
<text text-anchor="middle" x="548.66" y="-7" font-family="Helvetica,sans-Serif" font-size="10.00">src/NukiOpener.cpp</text>
</a>
</g>
</g>
<!-- Node6&#45;&gt;Node7 -->
<g id="edge6" class="edge">
<title>Node6&#45;&gt;Node7</title>
<path fill="none" stroke="#63b8ff" d="M573.72,-46.39C567.35,-37.27 559.8,-26.45 554.66,-19.09"/>
<polygon fill="#63b8ff" stroke="#63b8ff" points="570.96,-48.55 579.55,-54.75 576.7,-44.55 570.96,-48.55"/>
</g>
<!-- Node8&#45;&gt;Node2 -->
<g id="edge8" class="edge">
<title>Node8&#45;&gt;Node2</title>
<path fill="none" stroke="#63b8ff" d="M267.17,-156.1C272.64,-147.04 279.08,-136.37 283.48,-129.09"/>
<polygon fill="#63b8ff" stroke="#63b8ff" points="264.12,-154.38 261.95,-164.75 270.11,-158 264.12,-154.38"/>
</g>
<!-- Node9&#45;&gt;Node2 -->
<g id="edge10" class="edge">
<title>Node9&#45;&gt;Node2</title>
<path fill="none" stroke="#63b8ff" d="M353.38,-209.33C352.41,-196.08 349.55,-178.48 341.66,-165 332.56,-149.45 315.93,-136.84 303.72,-129.07"/>
<polygon fill="#63b8ff" stroke="#63b8ff" points="349.89,-209.8 353.82,-219.64 356.89,-209.5 349.89,-209.8"/>
</g>
<!-- Node9&#45;&gt;Node8 -->
<g id="edge11" class="edge">
<title>Node9&#45;&gt;Node8</title>
<path fill="none" stroke="#63b8ff" d="M328.89,-214.97C311.16,-205.28 287.81,-192.52 272.53,-184.17"/>
<polygon fill="#63b8ff" stroke="#63b8ff" points="327.62,-218.26 338.08,-219.98 330.98,-212.12 327.62,-218.26"/>
</g>
<!-- Node10 -->
<g id="node10" class="node">
<title>Node10</title>
<g id="a_node10"><a xlink:href="_nuki_lock_utils_8h.html" target="_top" xlink:title=" ">
<polygon fill="white" stroke="#666666" points="225.16,-129 122.16,-129 122.16,-110 225.16,-110 225.16,-129"/>
<text text-anchor="middle" x="173.66" y="-117" font-family="Helvetica,sans-Serif" font-size="10.00">src/NukiLockUtils.h</text>
</a>
</g>
</g>
<!-- Node9&#45;&gt;Node10 -->
<g id="edge12" class="edge">
<title>Node9&#45;&gt;Node10</title>
<path fill="none" stroke="#63b8ff" d="M344.99,-210.49C337.28,-196.27 324.75,-176.89 308.66,-165 283.75,-146.6 250.82,-135.54 223.72,-129.05"/>
<polygon fill="#63b8ff" stroke="#63b8ff" points="342.06,-212.45 349.73,-219.76 348.29,-209.27 342.06,-212.45"/>
</g>
<!-- Node12 -->
<g id="node12" class="node">
<title>Node12</title>
<g id="a_node12"><a xlink:href="_nuki_opener_utils_8h.html" target="_top" xlink:title=" ">
<polygon fill="white" stroke="#666666" points="583.16,-184 470.16,-184 470.16,-165 583.16,-165 583.16,-184"/>
<text text-anchor="middle" x="526.66" y="-172" font-family="Helvetica,sans-Serif" font-size="10.00">src/NukiOpenerUtils.h</text>
</a>
</g>
</g>
<!-- Node9&#45;&gt;Node12 -->
<g id="edge16" class="edge">
<title>Node9&#45;&gt;Node12</title>
<path fill="none" stroke="#63b8ff" d="M391.44,-216.93C423.75,-207.03 469.52,-193.01 498.65,-184.08"/>
<polygon fill="#63b8ff" stroke="#63b8ff" points="389.99,-213.71 381.46,-219.98 392.05,-220.4 389.99,-213.71"/>
</g>
<!-- Node9&#45;&gt;Node14 -->
<g id="edge18" class="edge">
<title>Node9&#45;&gt;Node14</title>
<path fill="none" stroke="#63b8ff" d="M364.61,-211.32C369.54,-203.21 375.23,-193.29 379.66,-184 388.69,-165.07 396.77,-141.76 400.85,-129.32"/>
<polygon fill="#63b8ff" stroke="#63b8ff" points="361.6,-209.53 359.29,-219.87 367.54,-213.23 361.6,-209.53"/>
</g>
<!-- Node10&#45;&gt;Node3 -->
<g id="edge13" class="edge">
<title>Node10&#45;&gt;Node3</title>
<path fill="none" stroke="#63b8ff" d="M201.96,-105.9C223.94,-96.11 253.84,-82.79 273.2,-74.17"/>
<polygon fill="#63b8ff" stroke="#63b8ff" points="200.49,-102.72 192.78,-109.98 203.34,-109.11 200.49,-102.72"/>
</g>
<!-- Node10&#45;&gt;Node5 -->
<g id="edge14" class="edge">
<title>Node10&#45;&gt;Node5</title>
<path fill="none" stroke="#63b8ff" d="M111.89,-115.14C52.68,-109.54 -23.45,-94.64 7.66,-55 24.18,-33.95 94.62,-21.58 142.86,-15.43"/>
<polygon fill="#63b8ff" stroke="#63b8ff" points="111.71,-118.64 121.97,-116.02 112.32,-111.67 111.71,-118.64"/>
</g>
<!-- Node11 -->
<g id="node11" class="node">
<title>Node11</title>
<g id="a_node11"><a xlink:href="_nuki_lock_utils_8cpp.html" target="_top" xlink:title=" ">
<polygon fill="white" stroke="#666666" points="130.16,-74 17.16,-74 17.16,-55 130.16,-55 130.16,-74"/>
<text text-anchor="middle" x="73.66" y="-62" font-family="Helvetica,sans-Serif" font-size="10.00">src/NukiLockUtils.cpp</text>
</a>
</g>
</g>
<!-- Node10&#45;&gt;Node11 -->
<g id="edge15" class="edge">
<title>Node10&#45;&gt;Node11</title>
<path fill="none" stroke="#63b8ff" d="M148.63,-105.23C130.29,-95.51 105.92,-82.6 90.02,-74.17"/>
<polygon fill="#63b8ff" stroke="#63b8ff" points="147.12,-108.39 157.6,-109.98 150.4,-102.21 147.12,-108.39"/>
</g>
<!-- Node13 -->
<g id="node13" class="node">
<title>Node13</title>
<g id="a_node13"><a xlink:href="_nuki_opener_utils_8cpp.html" target="_top" xlink:title=" ">
<polygon fill="white" stroke="#666666" points="585.16,-129 462.16,-129 462.16,-110 585.16,-110 585.16,-129"/>
<text text-anchor="middle" x="523.66" y="-117" font-family="Helvetica,sans-Serif" font-size="10.00">src/NukiOpenerUtils.cpp</text>
</a>
</g>
</g>
<!-- Node12&#45;&gt;Node13 -->
<g id="edge17" class="edge">
<title>Node12&#45;&gt;Node13</title>
<path fill="none" stroke="#63b8ff" d="M525.6,-154.66C525.1,-145.93 524.54,-135.99 524.15,-129.09"/>
<polygon fill="#63b8ff" stroke="#63b8ff" points="522.11,-154.96 526.17,-164.75 529.1,-154.57 522.11,-154.96"/>
</g>
<!-- Node14&#45;&gt;Node3 -->
<g id="edge19" class="edge">
<title>Node14&#45;&gt;Node3</title>
<path fill="none" stroke="#63b8ff" d="M376.72,-105.63C356.27,-95.87 328.72,-82.71 310.82,-74.17"/>
<polygon fill="#63b8ff" stroke="#63b8ff" points="375.3,-108.83 385.83,-109.98 378.31,-102.52 375.3,-108.83"/>
</g>
<!-- Node14&#45;&gt;Node5 -->
<g id="edge20" class="edge">
<title>Node14&#45;&gt;Node5</title>
<path fill="none" stroke="#63b8ff" d="M427.74,-104.52C447.07,-91.54 468.84,-71.76 454.66,-55 427.24,-22.59 304.87,-13.77 236.42,-11.38"/>
<polygon fill="#63b8ff" stroke="#63b8ff" points="425.73,-101.65 419.17,-109.97 429.48,-107.56 425.73,-101.65"/>
</g>
<!-- Node14&#45;&gt;Node7 -->
<g id="edge21" class="edge">
<title>Node14&#45;&gt;Node7</title>
<path fill="none" stroke="#63b8ff" d="M433.38,-105.62C450.11,-97.68 470.92,-86.63 487.66,-74 509.87,-57.24 531.33,-32.22 541.89,-19.15"/>
<polygon fill="#63b8ff" stroke="#63b8ff" points="431.69,-102.55 424.07,-109.91 434.62,-108.9 431.69,-102.55"/>
</g>
<!-- Node15 -->
<g id="node15" class="node">
<title>Node15</title>
<g id="a_node15"><a xlink:href="_nuki_utils_8cpp.html" target="_top" xlink:title=" ">
<polygon fill="white" stroke="#666666" points="445.66,-74 353.66,-74 353.66,-55 445.66,-55 445.66,-74"/>
<text text-anchor="middle" x="399.66" y="-62" font-family="Helvetica,sans-Serif" font-size="10.00">src/NukiUtils.cpp</text>
</a>
</g>
</g>
<!-- Node14&#45;&gt;Node15 -->
<g id="edge22" class="edge">
<title>Node14&#45;&gt;Node15</title>
<path fill="none" stroke="#63b8ff" d="M402.24,-99.66C401.58,-90.93 400.83,-80.99 400.31,-74.09"/>
<polygon fill="#63b8ff" stroke="#63b8ff" points="398.76,-100.04 403,-109.75 405.74,-99.51 398.76,-100.04"/>
</g>
<!-- Node16&#45;&gt;Node4 -->
<g id="edge24" class="edge">
<title>Node16&#45;&gt;Node4</title>
<path fill="none" stroke="#63b8ff" d="M95.57,-154.62C97.78,-141 102.52,-122.84 112.66,-110 126.16,-92.92 148.15,-81.15 165.18,-74.03"/>
<polygon fill="#63b8ff" stroke="#63b8ff" points="92.07,-154.4 94.25,-164.77 99.02,-155.3 92.07,-154.4"/>
</g>
<!-- Node16&#45;&gt;Node10 -->
<g id="edge25" class="edge">
<title>Node16&#45;&gt;Node10</title>
<path fill="none" stroke="#63b8ff" d="M114.91,-159.42C129.43,-149.81 148.2,-137.37 160.58,-129.17"/>
<polygon fill="#63b8ff" stroke="#63b8ff" points="112.92,-156.54 106.52,-164.98 116.79,-162.38 112.92,-156.54"/>
</g>
<!-- Node17&#45;&gt;Node6 -->
<g id="edge27" class="edge">
<title>Node17&#45;&gt;Node6</title>
<path fill="none" stroke="#63b8ff" d="M563.85,-214.46C574.75,-206.95 586.42,-196.63 592.66,-184 611.11,-146.68 596.08,-94.47 588.93,-74.11"/>
<polygon fill="#63b8ff" stroke="#63b8ff" points="561.93,-211.54 555.39,-219.87 565.7,-217.43 561.93,-211.54"/>
</g>
<!-- Node17&#45;&gt;Node12 -->
<g id="edge28" class="edge">
<title>Node17&#45;&gt;Node12</title>
<path fill="none" stroke="#63b8ff" d="M534.46,-209.95C532.47,-201.15 530.19,-191.06 528.61,-184.09"/>
<polygon fill="#63b8ff" stroke="#63b8ff" points="531.06,-210.77 536.68,-219.75 537.89,-209.22 531.06,-210.77"/>
</g>
</g>
</svg>
