<?xml version="1.0" encoding="UTF-8" standalone="no"?>
<!DOCTYPE svg PUBLIC "-//W3C//DTD SVG 1.1//EN"
 "http://www.w3.org/Graphics/SVG/1.1/DTD/svg11.dtd">
<!-- Generated by graphviz version 5.0.1 (20220820.1526)
 -->
<!-- Title: src/NukiLock.h Pages: 1 -->
<svg width="1022pt" height="314pt"
 viewBox="0.00 0.00 1021.50 314.00" xmlns="http://www.w3.org/2000/svg" xmlns:xlink="http://www.w3.org/1999/xlink">
<g id="graph0" class="graph" transform="scale(1 1) rotate(0) translate(4 310)">
<title>src/NukiLock.h</title>
<!-- Node1 -->
<g id="node1" class="node">
<title>Node1</title>
<g id="a_node1"><a xlink:title=" ">
<polygon fill="#999999" stroke="#666666" points="261.5,-306 166.5,-306 166.5,-285 261.5,-285 261.5,-306"/>
<text text-anchor="middle" x="214" y="-292.4" font-family="Helvetica,sans-Serif" font-size="12.00">src/NukiLock.h</text>
</a>
</g>
</g>
<!-- Node2 -->
<g id="node2" class="node">
<title>Node2</title>
<g id="a_node2"><a xlink:href="_nuki_ble_8h.html" target="_top" xlink:title=" ">
<polygon fill="white" stroke="#666666" points="432,-249 364,-249 364,-228 432,-228 432,-249"/>
<text text-anchor="middle" x="398" y="-235.4" font-family="Helvetica,sans-Serif" font-size="12.00">NukiBle.h</text>
</a>
</g>
</g>
<!-- Node1&#45;&gt;Node2 -->
<g id="edge1" class="edge">
<title>Node1&#45;&gt;Node2</title>
<path fill="none" stroke="#63b8ff" d="M246.05,-284.92C276.56,-275.8 322.66,-262.02 356.08,-252.03"/>
<polygon fill="#63b8ff" stroke="#63b8ff" points="357.43,-255.28 366.01,-249.06 355.43,-248.57 357.43,-255.28"/>
</g>
<!-- Node13 -->
<g id="node13" class="node">
<title>Node13</title>
<g id="a_node13"><a xlink:href="_nuki_lock_constants_8h.html" target="_top" xlink:title=" ">
<polygon fill="white" stroke="#666666" points="130,-135 0,-135 0,-114 130,-114 130,-135"/>
<text text-anchor="middle" x="65" y="-121.4" font-family="Helvetica,sans-Serif" font-size="12.00">NukiLockConstants.h</text>
</a>
</g>
</g>
<!-- Node1&#45;&gt;Node13 -->
<g id="edge16" class="edge">
<title>Node1&#45;&gt;Node13</title>
<path fill="none" stroke="#63b8ff" d="M205.56,-284.93C181.4,-257.52 111.67,-178.43 80.44,-143.01"/>
<polygon fill="#63b8ff" stroke="#63b8ff" points="82.96,-140.57 73.72,-135.39 77.7,-145.2 82.96,-140.57"/>
</g>
<!-- Node3 -->
<g id="node3" class="node">
<title>Node3</title>
<g id="a_node3"><a xlink:title=" ">
<polygon fill="#e0e0e0" stroke="#999999" points="1013.5,-192 906.5,-192 906.5,-171 1013.5,-171 1013.5,-192"/>
<text text-anchor="middle" x="960" y="-178.4" font-family="Helvetica,sans-Serif" font-size="12.00">NimBLEDevice.h</text>
</a>
</g>
</g>
<!-- Node2&#45;&gt;Node3 -->
<g id="edge2" class="edge">
<title>Node2&#45;&gt;Node3</title>
<path fill="none" stroke="#63b8ff" d="M432.03,-235.13C511.49,-229.43 715.67,-213.9 896.31,-192.15"/>
<polygon fill="#63b8ff" stroke="#63b8ff" points="896.75,-195.62 906.26,-190.94 895.91,-188.67 896.75,-195.62"/>
</g>
<!-- Node4 -->
<g id="node4" class="node">
<title>Node4</title>
<g id="a_node4"><a xlink:href="_nuki_constants_8h.html" target="_top" xlink:title=" ">
<polygon fill="white" stroke="#666666" points="210,-78 106,-78 106,-57 210,-57 210,-78"/>
<text text-anchor="middle" x="158" y="-64.4" font-family="Helvetica,sans-Serif" font-size="12.00">NukiConstants.h</text>
</a>
</g>
</g>
<!-- Node2&#45;&gt;Node4 -->
<g id="edge3" class="edge">
<title>Node2&#45;&gt;Node4</title>
<path fill="none" stroke="#63b8ff" d="M363.64,-233.3C314.73,-226.69 228.37,-212.47 205,-192 174.21,-165.03 163.51,-115.67 159.85,-88.22"/>
<polygon fill="#63b8ff" stroke="#63b8ff" points="163.32,-87.78 158.7,-78.24 156.37,-88.58 163.32,-87.78"/>
</g>
<!-- Node6 -->
<g id="node6" class="node">
<title>Node6</title>
<g id="a_node6"><a xlink:href="_nuki_data_types_8h.html" target="_top" xlink:title=" ">
<polygon fill="white" stroke="#666666" points="333.5,-135 224.5,-135 224.5,-114 333.5,-114 333.5,-135"/>
<text text-anchor="middle" x="279" y="-121.4" font-family="Helvetica,sans-Serif" font-size="12.00">NukiDataTypes.h</text>
</a>
</g>
</g>
<!-- Node2&#45;&gt;Node6 -->
<g id="edge5" class="edge">
<title>Node2&#45;&gt;Node6</title>
<path fill="none" stroke="#63b8ff" d="M387.19,-227.82C377.01,-218.67 361.36,-204.52 348,-192 330.13,-175.27 310.01,-155.8 296.13,-142.27"/>
<polygon fill="#63b8ff" stroke="#63b8ff" points="298.34,-139.54 288.74,-135.06 293.45,-144.55 298.34,-139.54"/>
</g>
<!-- Node7 -->
<g id="node7" class="node">
<title>Node7</title>
<g id="a_node7"><a xlink:title=" ">
<polygon fill="#e0e0e0" stroke="#999999" points="354,-78 286,-78 286,-57 354,-57 354,-78"/>
<text text-anchor="middle" x="320" y="-64.4" font-family="Helvetica,sans-Serif" font-size="12.00">Arduino.h</text>
</a>
</g>
</g>
<!-- Node2&#45;&gt;Node7 -->
<g id="edge8" class="edge">
<title>Node2&#45;&gt;Node7</title>
<path fill="none" stroke="#63b8ff" d="M393.88,-227.82C384.94,-206.9 362.94,-155.98 343,-114 338.79,-105.13 333.91,-95.41 329.73,-87.24"/>
<polygon fill="#63b8ff" stroke="#63b8ff" points="332.76,-85.48 325.07,-78.2 326.54,-88.69 332.76,-85.48"/>
</g>
<!-- Node8 -->
<g id="node8" class="node">
<title>Node8</title>
<g id="a_node8"><a xlink:title=" ">
<polygon fill="#e0e0e0" stroke="#999999" points="480,-192 390,-192 390,-171 480,-171 480,-192"/>
<text text-anchor="middle" x="435" y="-178.4" font-family="Helvetica,sans-Serif" font-size="12.00">Preferences.h</text>
</a>
</g>
</g>
<!-- Node2&#45;&gt;Node8 -->
<g id="edge9" class="edge">
<title>Node2&#45;&gt;Node8</title>
<path fill="none" stroke="#63b8ff" d="M404.44,-227.92C409.48,-220.44 416.61,-209.83 422.73,-200.74"/>
<polygon fill="#63b8ff" stroke="#63b8ff" points="425.7,-202.59 428.38,-192.34 419.89,-198.68 425.7,-202.59"/>
</g>
<!-- Node9 -->
<g id="node9" class="node">
<title>Node9</title>
<g id="a_node9"><a xlink:title=" ">
<polygon fill="#e0e0e0" stroke="#999999" points="598,-192 498,-192 498,-171 598,-171 598,-192"/>
<text text-anchor="middle" x="548" y="-178.4" font-family="Helvetica,sans-Serif" font-size="12.00">esp_task_wdt.h</text>
</a>
</g>
</g>
<!-- Node2&#45;&gt;Node9 -->
<g id="edge10" class="edge">
<title>Node2&#45;&gt;Node9</title>
<path fill="none" stroke="#63b8ff" d="M424.13,-227.92C448.57,-218.96 485.29,-205.49 512.4,-195.55"/>
<polygon fill="#63b8ff" stroke="#63b8ff" points="513.74,-198.79 521.92,-192.06 511.33,-192.22 513.74,-198.79"/>
</g>
<!-- Node10 -->
<g id="node10" class="node">
<title>Node10</title>
<g id="a_node10"><a xlink:title=" ">
<polygon fill="#e0e0e0" stroke="#999999" points="711.5,-192 616.5,-192 616.5,-171 711.5,-171 711.5,-192"/>
<text text-anchor="middle" x="664" y="-178.4" font-family="Helvetica,sans-Serif" font-size="12.00">BleInterfaces.h</text>
</a>
</g>
</g>
<!-- Node2&#45;&gt;Node10 -->
<g id="edge11" class="edge">
<title>Node2&#45;&gt;Node10</title>
<path fill="none" stroke="#63b8ff" d="M432.23,-230.42C476.65,-221.24 554.76,-205.09 607.9,-194.1"/>
<polygon fill="#63b8ff" stroke="#63b8ff" points="608.77,-197.49 617.85,-192.04 607.35,-190.64 608.77,-197.49"/>
</g>
<!-- Node11 -->
<g id="node11" class="node">
<title>Node11</title>
<g id="a_node11"><a xlink:title=" ">
<polygon fill="#e0e0e0" stroke="#999999" points="888.5,-192 729.5,-192 729.5,-171 888.5,-171 888.5,-192"/>
<text text-anchor="middle" x="809" y="-178.4" font-family="Helvetica,sans-Serif" font-size="12.00">sodium/crypto_secretbox.h</text>
</a>
</g>
</g>
<!-- Node2&#45;&gt;Node11 -->
<g id="edge12" class="edge">
<title>Node2&#45;&gt;Node11</title>
<path fill="none" stroke="#63b8ff" d="M432.33,-232.91C496.8,-224.28 637.53,-205.45 727.54,-193.4"/>
<polygon fill="#63b8ff" stroke="#63b8ff" points="728.27,-196.83 737.72,-192.04 727.34,-189.9 728.27,-196.83"/>
</g>
<!-- Node12 -->
<g id="node12" class="node">
<title>Node12</title>
<g id="a_node12"><a xlink:href="_nuki_ble_8hpp.html" target="_top" xlink:title=" ">
<polygon fill="white" stroke="#666666" points="296,-192 214,-192 214,-171 296,-171 296,-192"/>
<text text-anchor="middle" x="255" y="-178.4" font-family="Helvetica,sans-Serif" font-size="12.00">NukiBle.hpp</text>
</a>
</g>
</g>
<!-- Node2&#45;&gt;Node12 -->
<g id="edge13" class="edge">
<title>Node2&#45;&gt;Node12</title>
<path fill="none" stroke="#63b8ff" d="M373.09,-227.92C349.96,-219.02 315.3,-205.69 289.51,-195.77"/>
<polygon fill="#63b8ff" stroke="#63b8ff" points="290.69,-192.48 280.1,-192.16 288.18,-199.01 290.69,-192.48"/>
</g>
<!-- Node5 -->
<g id="node5" class="node">
<title>Node5</title>
<g id="a_node5"><a xlink:title=" ">
<polygon fill="#e0e0e0" stroke="#999999" points="162,-21 62,-21 62,0 162,0 162,-21"/>
<text text-anchor="middle" x="112" y="-7.4" font-family="Helvetica,sans-Serif" font-size="12.00">NimBLEUUID.h</text>
</a>
</g>
</g>
<!-- Node4&#45;&gt;Node5 -->
<g id="edge4" class="edge">
<title>Node4&#45;&gt;Node5</title>
<path fill="none" stroke="#63b8ff" d="M149.99,-56.92C143.6,-49.29 134.49,-38.39 126.79,-29.18"/>
<polygon fill="#63b8ff" stroke="#63b8ff" points="129.33,-26.77 120.23,-21.34 123.96,-31.26 129.33,-26.77"/>
</g>
<!-- Node6&#45;&gt;Node4 -->
<g id="edge7" class="edge">
<title>Node6&#45;&gt;Node4</title>
<path fill="none" stroke="#63b8ff" d="M257.92,-113.92C238.7,-105.18 210.06,-92.16 188.36,-82.3"/>
<polygon fill="#63b8ff" stroke="#63b8ff" points="189.79,-79.11 179.24,-78.16 186.9,-85.48 189.79,-79.11"/>
</g>
<!-- Node6&#45;&gt;Node7 -->
<g id="edge6" class="edge">
<title>Node6&#45;&gt;Node7</title>
<path fill="none" stroke="#63b8ff" d="M286.14,-113.92C291.77,-106.36 299.79,-95.61 306.61,-86.46"/>
<polygon fill="#63b8ff" stroke="#63b8ff" points="309.49,-88.45 312.66,-78.34 303.88,-84.27 309.49,-88.45"/>
</g>
<!-- Node12&#45;&gt;Node4 -->
<g id="edge14" class="edge">
<title>Node12&#45;&gt;Node4</title>
<path fill="none" stroke="#63b8ff" d="M246.73,-170.95C230.34,-152.02 193.52,-109.51 172.83,-85.63"/>
<polygon fill="#63b8ff" stroke="#63b8ff" points="175.44,-83.29 166.25,-78.02 170.15,-87.88 175.44,-83.29"/>
</g>
<!-- Node12&#45;&gt;Node6 -->
<g id="edge15" class="edge">
<title>Node12&#45;&gt;Node6</title>
<path fill="none" stroke="#63b8ff" d="M259.18,-170.92C262.34,-163.67 266.79,-153.49 270.67,-144.6"/>
<polygon fill="#63b8ff" stroke="#63b8ff" points="273.91,-145.91 274.71,-135.34 267.5,-143.11 273.91,-145.91"/>
</g>
<!-- Node13&#45;&gt;Node4 -->
<g id="edge18" class="edge">
<title>Node13&#45;&gt;Node4</title>
<path fill="none" stroke="#63b8ff" d="M81.2,-113.92C95.38,-105.53 116.22,-93.21 132.62,-83.51"/>
<polygon fill="#63b8ff" stroke="#63b8ff" points="134.85,-86.26 141.67,-78.16 131.29,-80.23 134.85,-86.26"/>
</g>
<!-- Node13&#45;&gt;Node5 -->
<g id="edge17" class="edge">
<title>Node13&#45;&gt;Node5</title>
<path fill="none" stroke="#63b8ff" d="M69.01,-113.95C76.74,-95.52 93.86,-54.73 104.01,-30.54"/>
<polygon fill="#63b8ff" stroke="#63b8ff" points="107.36,-31.6 108,-21.02 100.91,-28.89 107.36,-31.6"/>
</g>
</g>
</svg>
