<?xml version="1.0" encoding="UTF-8" standalone="no"?>
<!DOCTYPE svg PUBLIC "-//W3C//DTD SVG 1.1//EN"
 "http://www.w3.org/Graphics/SVG/1.1/DTD/svg11.dtd">
<!-- Generated by graphviz version 9.0.0 (20230911.1827)
 -->
<!-- Title: src/NukiBle.cpp Pages: 1 -->
<svg width="1337pt" height="315pt"
 viewBox="0.00 0.00 1337.05 314.75" xmlns="http://www.w3.org/2000/svg" xmlns:xlink="http://www.w3.org/1999/xlink">
<g id="graph0" class="graph" transform="scale(1 1) rotate(0) translate(4 310.75)">
<title>src/NukiBle.cpp</title>
<!-- Node1 -->
<g id="Node000001" class="node">
<title>Node1</title>
<g id="a_Node000001"><a xlink:title=" ">
<polygon fill="#999999" stroke="#666666" points="776.92,-306.75 691.92,-306.75 691.92,-287.5 776.92,-287.5 776.92,-306.75"/>
<text text-anchor="middle" x="734.42" y="-293.25" font-family="Helvetica,sans-Serif" font-size="10.00">src/NukiBle.cpp</text>
</a>
</g>
</g>
<!-- Node2 -->
<g id="Node000002" class="node">
<title>Node2</title>
<g id="a_Node000002"><a xlink:href="_nuki_ble_8h.html" target="_top" xlink:title=" ">
<polygon fill="white" stroke="#666666" points="600.42,-245.88 542.42,-245.88 542.42,-226.62 600.42,-226.62 600.42,-245.88"/>
<text text-anchor="middle" x="571.42" y="-232.38" font-family="Helvetica,sans-Serif" font-size="10.00">NukiBle.h</text>
</a>
</g>
</g>
<!-- Node1&#45;&gt;Node2 -->
<g id="edge1_Node000001_Node000002" class="edge">
<title>Node1&#45;&gt;Node2</title>
<g id="a_edge1_Node000001_Node000002"><a xlink:title=" ">
<path fill="none" stroke="#63b8ff" d="M709.31,-287.05C682.03,-277.2 638.22,-261.38 607.31,-250.21"/>
<polygon fill="#63b8ff" stroke="#63b8ff" points="608.58,-246.95 597.99,-246.84 606.2,-253.53 608.58,-246.95"/>
</a>
</g>
</g>
<!-- Node11 -->
<g id="Node000011" class="node">
<title>Node11</title>
<g id="a_Node000011"><a xlink:title=" ">
<polygon fill="#e0e0e0" stroke="#999999" points="1045.17,-185 913.67,-185 913.67,-165.75 1045.17,-165.75 1045.17,-185"/>
<text text-anchor="middle" x="979.42" y="-171.5" font-family="Helvetica,sans-Serif" font-size="10.00">sodium/crypto_secretbox.h</text>
</a>
</g>
</g>
<!-- Node1&#45;&gt;Node11 -->
<g id="edge32_Node000001_Node000011" class="edge">
<title>Node1&#45;&gt;Node11</title>
<g id="a_edge32_Node000001_Node000011"><a xlink:title=" ">
<path fill="none" stroke="#63b8ff" d="M697.64,-287.09C679.15,-280.49 658.4,-269.46 647.42,-251.5 640.36,-239.93 638.5,-231.2 647.42,-221 651.61,-216.21 805.34,-197.1 902.12,-185.5"/>
<polygon fill="#63b8ff" stroke="#63b8ff" points="902.32,-189 911.83,-184.34 901.48,-182.05 902.32,-189"/>
</a>
</g>
</g>
<!-- Node13 -->
<g id="Node000013" class="node">
<title>Node13</title>
<g id="a_Node000013"><a xlink:href="_nuki_lock_utils_8h.html" target="_top" xlink:title=" ">
<polygon fill="white" stroke="#666666" points="203.3,-185 117.55,-185 117.55,-165.75 203.3,-165.75 203.3,-185"/>
<text text-anchor="middle" x="160.42" y="-171.5" font-family="Helvetica,sans-Serif" font-size="10.00">NukiLockUtils.h</text>
</a>
</g>
</g>
<!-- Node1&#45;&gt;Node13 -->
<g id="edge16_Node000001_Node000013" class="edge">
<title>Node1&#45;&gt;Node13</title>
<g id="a_edge16_Node000001_Node000013"><a xlink:title=" ">
<path fill="none" stroke="#63b8ff" d="M691.62,-292.2C629.91,-286.09 512.56,-272.73 414.42,-251.5 335.82,-234.49 246.08,-205.67 197.1,-189.1"/>
<polygon fill="#63b8ff" stroke="#63b8ff" points="198.45,-185.86 187.85,-185.95 196.19,-192.49 198.45,-185.86"/>
</a>
</g>
</g>
<!-- Node16 -->
<g id="Node000016" class="node">
<title>Node16</title>
<g id="a_Node000016"><a xlink:href="_nuki_utils_8h.html" target="_top" xlink:title=" ">
<polygon fill="white" stroke="#666666" points="285.42,-185 221.42,-185 221.42,-165.75 285.42,-165.75 285.42,-185"/>
<text text-anchor="middle" x="253.42" y="-171.5" font-family="Helvetica,sans-Serif" font-size="10.00">NukiUtils.h</text>
</a>
</g>
</g>
<!-- Node1&#45;&gt;Node16 -->
<g id="edge23_Node000001_Node000016" class="edge">
<title>Node1&#45;&gt;Node16</title>
<g id="a_edge23_Node000001_Node000016"><a xlink:title=" ">
<path fill="none" stroke="#63b8ff" d="M691.56,-287.18C650.78,-278.53 587.76,-264.81 533.42,-251.5 448.99,-230.81 351.04,-203.84 296.24,-188.49"/>
<polygon fill="#63b8ff" stroke="#63b8ff" points="297.25,-185.14 286.68,-185.8 295.36,-191.87 297.25,-185.14"/>
</a>
</g>
</g>
<!-- Node17 -->
<g id="Node000017" class="node">
<title>Node17</title>
<g id="a_Node000017"><a xlink:title=" ">
<polygon fill="#e0e0e0" stroke="#999999" points="704.17,-245.88 656.67,-245.88 656.67,-226.62 704.17,-226.62 704.17,-245.88"/>
<text text-anchor="middle" x="680.42" y="-232.38" font-family="Helvetica,sans-Serif" font-size="10.00">string.h</text>
</a>
</g>
</g>
<!-- Node1&#45;&gt;Node17 -->
<g id="edge28_Node000001_Node000017" class="edge">
<title>Node1&#45;&gt;Node17</title>
<g id="a_edge28_Node000001_Node000017"><a xlink:title=" ">
<path fill="none" stroke="#63b8ff" d="M726.22,-287.18C718.29,-278.54 706.07,-265.21 696.25,-254.5"/>
<polygon fill="#63b8ff" stroke="#63b8ff" points="699.07,-252.4 689.73,-247.39 693.91,-257.13 699.07,-252.4"/>
</a>
</g>
</g>
<!-- Node18 -->
<g id="Node000018" class="node">
<title>Node18</title>
<g id="a_Node000018"><a xlink:title=" ">
<polygon fill="#e0e0e0" stroke="#999999" points="856.67,-245.88 722.17,-245.88 722.17,-226.62 856.67,-226.62 856.67,-245.88"/>
<text text-anchor="middle" x="789.42" y="-232.38" font-family="Helvetica,sans-Serif" font-size="10.00">sodium/crypto_scalarmult.h</text>
</a>
</g>
</g>
<!-- Node1&#45;&gt;Node18 -->
<g id="edge29_Node000001_Node000018" class="edge">
<title>Node1&#45;&gt;Node18</title>
<g id="a_edge29_Node000001_Node000018"><a xlink:title=" ">
<path fill="none" stroke="#63b8ff" d="M742.78,-287.18C750.85,-278.54 763.3,-265.21 773.31,-254.5"/>
<polygon fill="#63b8ff" stroke="#63b8ff" points="775.69,-257.08 779.96,-247.38 770.58,-252.3 775.69,-257.08"/>
</a>
</g>
</g>
<!-- Node19 -->
<g id="Node000019" class="node">
<title>Node19</title>
<g id="a_Node000019"><a xlink:title=" ">
<polygon fill="#e0e0e0" stroke="#999999" points="975.8,-251.5 875.05,-251.5 875.05,-221 975.8,-221 975.8,-251.5"/>
<text text-anchor="start" x="883.05" y="-238" font-family="Helvetica,sans-Serif" font-size="10.00">sodium/crypto_core</text>
<text text-anchor="middle" x="925.42" y="-226.75" font-family="Helvetica,sans-Serif" font-size="10.00">_hsalsa20.h</text>
</a>
</g>
</g>
<!-- Node1&#45;&gt;Node19 -->
<g id="edge30_Node000001_Node000019" class="edge">
<title>Node1&#45;&gt;Node19</title>
<g id="a_edge30_Node000001_Node000019"><a xlink:title=" ">
<path fill="none" stroke="#63b8ff" d="M763.85,-287.05C791.23,-278.61 832.83,-265.79 866.96,-255.27"/>
<polygon fill="#63b8ff" stroke="#63b8ff" points="867.78,-258.68 876.31,-252.39 865.72,-251.99 867.78,-258.68"/>
</a>
</g>
</g>
<!-- Node20 -->
<g id="Node000020" class="node">
<title>Node20</title>
<g id="a_Node000020"><a xlink:title=" ">
<polygon fill="#e0e0e0" stroke="#999999" points="1094.8,-251.5 994.05,-251.5 994.05,-221 1094.8,-221 1094.8,-251.5"/>
<text text-anchor="start" x="1002.05" y="-238" font-family="Helvetica,sans-Serif" font-size="10.00">sodium/crypto_auth</text>
<text text-anchor="middle" x="1044.42" y="-226.75" font-family="Helvetica,sans-Serif" font-size="10.00">_hmacsha256.h</text>
</a>
</g>
</g>
<!-- Node1&#45;&gt;Node20 -->
<g id="edge31_Node000001_Node000020" class="edge">
<title>Node1&#45;&gt;Node20</title>
<g id="a_edge31_Node000001_Node000020"><a xlink:title=" ">
<path fill="none" stroke="#63b8ff" d="M777.03,-289.27C824.66,-281.45 904.34,-267.86 982.69,-251.79"/>
<polygon fill="#63b8ff" stroke="#63b8ff" points="983.17,-255.26 992.25,-249.81 981.75,-248.41 983.17,-255.26"/>
</a>
</g>
</g>
<!-- Node21 -->
<g id="Node000021" class="node">
<title>Node21</title>
<g id="a_Node000021"><a xlink:title=" ">
<polygon fill="#e0e0e0" stroke="#999999" points="1217.67,-245.88 1113.17,-245.88 1113.17,-226.62 1217.67,-226.62 1217.67,-245.88"/>
<text text-anchor="middle" x="1165.42" y="-232.38" font-family="Helvetica,sans-Serif" font-size="10.00">sodium/crypto_box.h</text>
</a>
</g>
</g>
<!-- Node1&#45;&gt;Node21 -->
<g id="edge33_Node000001_Node000021" class="edge">
<title>Node1&#45;&gt;Node21</title>
<g id="a_edge33_Node000001_Node000021"><a xlink:title=" ">
<path fill="none" stroke="#63b8ff" d="M777.25,-292.43C846.25,-286.14 986.15,-272.01 1103.42,-251.5 1108.08,-250.69 1112.9,-249.75 1117.72,-248.75"/>
<polygon fill="#63b8ff" stroke="#63b8ff" points="1118.33,-252.2 1127.36,-246.65 1116.84,-245.36 1118.33,-252.2"/>
</a>
</g>
</g>
<!-- Node22 -->
<g id="Node000022" class="node">
<title>Node22</title>
<g id="a_Node000022"><a xlink:title=" ">
<polygon fill="#e0e0e0" stroke="#999999" points="1329.05,-245.88 1235.8,-245.88 1235.8,-226.62 1329.05,-226.62 1329.05,-245.88"/>
<text text-anchor="middle" x="1282.42" y="-232.38" font-family="Helvetica,sans-Serif" font-size="10.00">NimBLEBeacon.h</text>
</a>
</g>
</g>
<!-- Node1&#45;&gt;Node22 -->
<g id="edge34_Node000001_Node000022" class="edge">
<title>Node1&#45;&gt;Node22</title>
<g id="a_edge34_Node000001_Node000022"><a xlink:title=" ">
<path fill="none" stroke="#63b8ff" d="M777.17,-294.53C862.91,-290.83 1061.8,-279.73 1226.42,-251.5 1230.57,-250.79 1234.87,-249.93 1239.15,-248.98"/>
<polygon fill="#63b8ff" stroke="#63b8ff" points="1239.93,-252.4 1248.86,-246.69 1238.33,-245.58 1239.93,-252.4"/>
</a>
</g>
</g>
<!-- Node3 -->
<g id="Node000003" class="node">
<title>Node3</title>
<g id="a_Node000003"><a xlink:title=" ">
<polygon fill="#e0e0e0" stroke="#999999" points="771.55,-185 681.3,-185 681.3,-165.75 771.55,-165.75 771.55,-185"/>
<text text-anchor="middle" x="726.42" y="-171.5" font-family="Helvetica,sans-Serif" font-size="10.00">NimBLEDevice.h</text>
</a>
</g>
</g>
<!-- Node2&#45;&gt;Node3 -->
<g id="edge2_Node000002_Node000003" class="edge">
<title>Node2&#45;&gt;Node3</title>
<g id="a_edge2_Node000002_Node000003"><a xlink:title=" ">
<path fill="none" stroke="#63b8ff" d="M595.3,-226.18C621.13,-216.37 662.54,-200.64 691.91,-189.48"/>
<polygon fill="#63b8ff" stroke="#63b8ff" points="693,-192.82 701.1,-185.99 690.51,-186.27 693,-192.82"/>
</a>
</g>
</g>
<!-- Node4 -->
<g id="Node000004" class="node">
<title>Node4</title>
<g id="a_Node000004"><a xlink:href="_nuki_constants_8h.html" target="_top" xlink:title=" ">
<polygon fill="white" stroke="#666666" points="361.42,-74.5 273.42,-74.5 273.42,-55.25 361.42,-55.25 361.42,-74.5"/>
<text text-anchor="middle" x="317.42" y="-61" font-family="Helvetica,sans-Serif" font-size="10.00">NukiConstants.h</text>
</a>
</g>
</g>
<!-- Node2&#45;&gt;Node4 -->
<g id="edge3_Node000002_Node000004" class="edge">
<title>Node2&#45;&gt;Node4</title>
<g id="a_edge3_Node000002_Node000004"><a xlink:title=" ">
<path fill="none" stroke="#63b8ff" d="M600.89,-228.66C657.82,-215.86 777.61,-188.57 780.42,-185 785.72,-178.28 785.8,-172.41 780.42,-165.75 729.73,-102.95 484.54,-77.73 372.94,-69.39"/>
<polygon fill="#63b8ff" stroke="#63b8ff" points="373.35,-65.91 363.12,-68.68 372.84,-72.89 373.35,-65.91"/>
</a>
</g>
</g>
<!-- Node6 -->
<g id="Node000006" class="node">
<title>Node6</title>
<g id="a_Node000006"><a xlink:href="_nuki_data_types_8h.html" target="_top" xlink:title=" ">
<polygon fill="white" stroke="#666666" points="368.55,-129.75 278.3,-129.75 278.3,-110.5 368.55,-110.5 368.55,-129.75"/>
<text text-anchor="middle" x="323.42" y="-116.25" font-family="Helvetica,sans-Serif" font-size="10.00">NukiDataTypes.h</text>
</a>
</g>
</g>
<!-- Node2&#45;&gt;Node6 -->
<g id="edge5_Node000002_Node000006" class="edge">
<title>Node2&#45;&gt;Node6</title>
<g id="a_edge5_Node000002_Node000006"><a xlink:title=" ">
<path fill="none" stroke="#63b8ff" d="M542.13,-230.48C483.94,-220.75 358.06,-198.42 343.42,-185 331.24,-173.82 326.42,-155.33 324.54,-141.12"/>
<polygon fill="#63b8ff" stroke="#63b8ff" points="328.06,-141.16 323.68,-131.52 321.09,-141.79 328.06,-141.16"/>
</a>
</g>
</g>
<!-- Node7 -->
<g id="Node000007" class="node">
<title>Node7</title>
<g id="a_Node000007"><a xlink:title=" ">
<polygon fill="#e0e0e0" stroke="#999999" points="245.67,-74.5 189.17,-74.5 189.17,-55.25 245.67,-55.25 245.67,-74.5"/>
<text text-anchor="middle" x="217.42" y="-61" font-family="Helvetica,sans-Serif" font-size="10.00">Arduino.h</text>
</a>
</g>
</g>
<!-- Node2&#45;&gt;Node7 -->
<g id="edge8_Node000002_Node000007" class="edge">
<title>Node2&#45;&gt;Node7</title>
<g id="a_edge8_Node000002_Node000007"><a xlink:title=" ">
<path fill="none" stroke="#63b8ff" d="M542.07,-229.73C490.17,-219.67 386.65,-198.19 376.42,-185 356.14,-158.83 397.45,-136.87 377.42,-110.5 370.03,-100.75 302.11,-84.32 257.17,-74.34"/>
<polygon fill="#63b8ff" stroke="#63b8ff" points="258.01,-70.94 247.49,-72.22 256.51,-77.78 258.01,-70.94"/>
</a>
</g>
</g>
<!-- Node8 -->
<g id="Node000008" class="node">
<title>Node8</title>
<g id="a_Node000008"><a xlink:title=" ">
<polygon fill="#e0e0e0" stroke="#999999" points="461.42,-185 385.42,-185 385.42,-165.75 461.42,-165.75 461.42,-185"/>
<text text-anchor="middle" x="423.42" y="-171.5" font-family="Helvetica,sans-Serif" font-size="10.00">Preferences.h</text>
</a>
</g>
</g>
<!-- Node2&#45;&gt;Node8 -->
<g id="edge9_Node000002_Node000008" class="edge">
<title>Node2&#45;&gt;Node8</title>
<g id="a_edge9_Node000002_Node000008"><a xlink:title=" ">
<path fill="none" stroke="#63b8ff" d="M548.62,-226.18C524,-216.38 484.54,-200.69 456.51,-189.54"/>
<polygon fill="#63b8ff" stroke="#63b8ff" points="458,-186.36 447.42,-185.92 455.41,-192.87 458,-186.36"/>
</a>
</g>
</g>
<!-- Node9 -->
<g id="Node000009" class="node">
<title>Node9</title>
<g id="a_Node000009"><a xlink:title=" ">
<polygon fill="#e0e0e0" stroke="#999999" points="563.55,-185 479.3,-185 479.3,-165.75 563.55,-165.75 563.55,-185"/>
<text text-anchor="middle" x="521.42" y="-171.5" font-family="Helvetica,sans-Serif" font-size="10.00">esp_task_wdt.h</text>
</a>
</g>
</g>
<!-- Node2&#45;&gt;Node9 -->
<g id="edge10_Node000002_Node000009" class="edge">
<title>Node2&#45;&gt;Node9</title>
<g id="a_edge10_Node000002_Node000009"><a xlink:title=" ">
<path fill="none" stroke="#63b8ff" d="M563.83,-226.31C556.56,-217.75 545.4,-204.6 536.35,-193.95"/>
<polygon fill="#63b8ff" stroke="#63b8ff" points="539.21,-191.91 530.07,-186.55 533.88,-196.44 539.21,-191.91"/>
</a>
</g>
</g>
<!-- Node10 -->
<g id="Node000010" class="node">
<title>Node10</title>
<g id="a_Node000010"><a xlink:title=" ">
<polygon fill="#e0e0e0" stroke="#999999" points="663.05,-185 581.8,-185 581.8,-165.75 663.05,-165.75 663.05,-185"/>
<text text-anchor="middle" x="622.42" y="-171.5" font-family="Helvetica,sans-Serif" font-size="10.00">BleInterfaces.h</text>
</a>
</g>
</g>
<!-- Node2&#45;&gt;Node10 -->
<g id="edge11_Node000002_Node000010" class="edge">
<title>Node2&#45;&gt;Node10</title>
<g id="a_edge11_Node000002_Node000010"><a xlink:title=" ">
<path fill="none" stroke="#63b8ff" d="M579.17,-226.31C586.58,-217.75 597.97,-204.6 607.2,-193.95"/>
<polygon fill="#63b8ff" stroke="#63b8ff" points="609.71,-196.4 613.62,-186.55 604.42,-191.81 609.71,-196.4"/>
</a>
</g>
</g>
<!-- Node2&#45;&gt;Node11 -->
<g id="edge12_Node000002_Node000011" class="edge">
<title>Node2&#45;&gt;Node11</title>
<g id="a_edge12_Node000002_Node000011"><a xlink:title=" ">
<path fill="none" stroke="#63b8ff" d="M595.75,-226.26C601.78,-224.29 608.29,-222.38 614.42,-221 628.27,-217.89 799.01,-197.57 901.99,-185.45"/>
<polygon fill="#63b8ff" stroke="#63b8ff" points="902.25,-188.94 911.77,-184.3 901.43,-181.99 902.25,-188.94"/>
</a>
</g>
</g>
<!-- Node12 -->
<g id="Node000012" class="node">
<title>Node12</title>
<g id="a_Node000012"><a xlink:href="_nuki_ble_8hpp.html" target="_top" xlink:title=" ">
<polygon fill="white" stroke="#666666" points="895.67,-185 827.17,-185 827.17,-165.75 895.67,-165.75 895.67,-185"/>
<text text-anchor="middle" x="861.42" y="-171.5" font-family="Helvetica,sans-Serif" font-size="10.00">NukiBle.hpp</text>
</a>
</g>
</g>
<!-- Node2&#45;&gt;Node12 -->
<g id="edge13_Node000002_Node000012" class="edge">
<title>Node2&#45;&gt;Node12</title>
<g id="a_edge13_Node000002_Node000012"><a xlink:title=" ">
<path fill="none" stroke="#63b8ff" d="M596.72,-226.21C602.49,-224.33 608.63,-222.48 614.42,-221 616.87,-220.38 744.71,-197.36 815.48,-184.63"/>
<polygon fill="#63b8ff" stroke="#63b8ff" points="816.02,-188.09 825.24,-182.88 814.78,-181.2 816.02,-188.09"/>
</a>
</g>
</g>
<!-- Node5 -->
<g id="Node000005" class="node">
<title>Node5</title>
<g id="a_Node000005"><a xlink:title=" ">
<polygon fill="#e0e0e0" stroke="#999999" points="234.92,-19.25 149.92,-19.25 149.92,0 234.92,0 234.92,-19.25"/>
<text text-anchor="middle" x="192.42" y="-5.75" font-family="Helvetica,sans-Serif" font-size="10.00">NimBLEUUID.h</text>
</a>
</g>
</g>
<!-- Node4&#45;&gt;Node5 -->
<g id="edge4_Node000004_Node000005" class="edge">
<title>Node4&#45;&gt;Node5</title>
<g id="a_edge4_Node000004_Node000005"><a xlink:title=" ">
<path fill="none" stroke="#63b8ff" d="M296.22,-54.84C276.47,-46.43 246.75,-33.77 224.17,-24.15"/>
<polygon fill="#63b8ff" stroke="#63b8ff" points="225.7,-20.99 215.13,-20.3 222.95,-27.43 225.7,-20.99"/>
</a>
</g>
</g>
<!-- Node6&#45;&gt;Node4 -->
<g id="edge7_Node000006_Node000004" class="edge">
<title>Node6&#45;&gt;Node4</title>
<g id="a_edge7_Node000006_Node000004"><a xlink:title=" ">
<path fill="none" stroke="#63b8ff" d="M322.43,-110.33C321.69,-103.74 320.65,-94.46 319.7,-86.07"/>
<polygon fill="#63b8ff" stroke="#63b8ff" points="323.2,-85.91 318.61,-76.36 316.25,-86.69 323.2,-85.91"/>
</a>
</g>
</g>
<!-- Node6&#45;&gt;Node7 -->
<g id="edge6_Node000006_Node000007" class="edge">
<title>Node6&#45;&gt;Node7</title>
<g id="a_edge6_Node000006_Node000007"><a xlink:title=" ">
<path fill="none" stroke="#63b8ff" d="M305.44,-110.09C289.07,-101.87 264.64,-89.59 245.66,-80.06"/>
<polygon fill="#63b8ff" stroke="#63b8ff" points="247.35,-76.99 236.85,-75.63 244.21,-83.25 247.35,-76.99"/>
</a>
</g>
</g>
<!-- Node12&#45;&gt;Node4 -->
<g id="edge14_Node000012_Node000004" class="edge">
<title>Node12&#45;&gt;Node4</title>
<g id="a_edge14_Node000012_Node000004"><a xlink:title=" ">
<path fill="none" stroke="#63b8ff" d="M857.68,-165.47C851.09,-151.08 835.97,-123.05 813.42,-110.5 739.19,-69.17 486.58,-65 373.25,-65.29"/>
<polygon fill="#63b8ff" stroke="#63b8ff" points="373.25,-61.79 363.27,-65.33 373.28,-68.79 373.25,-61.79"/>
</a>
</g>
</g>
<!-- Node12&#45;&gt;Node6 -->
<g id="edge15_Node000012_Node000006" class="edge">
<title>Node12&#45;&gt;Node6</title>
<g id="a_edge15_Node000012_Node000006"><a xlink:title=" ">
<path fill="none" stroke="#63b8ff" d="M826.75,-170.61C812.41,-169.08 795.62,-167.3 780.42,-165.75 636.37,-151.05 466.65,-134.74 380.22,-126.51"/>
<polygon fill="#63b8ff" stroke="#63b8ff" points="380.64,-123.03 370.35,-125.57 379.97,-130 380.64,-123.03"/>
</a>
</g>
</g>
<!-- Node13&#45;&gt;Node6 -->
<g id="edge18_Node000013_Node000006" class="edge">
<title>Node13&#45;&gt;Node6</title>
<g id="a_edge18_Node000013_Node000006"><a xlink:title=" ">
<path fill="none" stroke="#63b8ff" d="M188.08,-165.34C214.65,-156.66 255.06,-143.46 284.81,-133.74"/>
<polygon fill="#63b8ff" stroke="#63b8ff" points="285.78,-137.1 294.2,-130.67 283.61,-130.45 285.78,-137.1"/>
</a>
</g>
</g>
<!-- Node13&#45;&gt;Node7 -->
<g id="edge17_Node000013_Node000007" class="edge">
<title>Node13&#45;&gt;Node7</title>
<g id="a_edge17_Node000013_Node000007"><a xlink:title=" ">
<path fill="none" stroke="#63b8ff" d="M117.49,-171.29C61.74,-165.64 -24.82,-150.32 7.42,-110.5 28.4,-84.59 122.59,-73.1 177.44,-68.53"/>
<polygon fill="#63b8ff" stroke="#63b8ff" points="177.63,-72.03 187.33,-67.75 177.08,-65.05 177.63,-72.03"/>
</a>
</g>
</g>
<!-- Node14 -->
<g id="Node000014" class="node">
<title>Node14</title>
<g id="a_Node000014"><a xlink:href="_nuki_lock_constants_8h.html" target="_top" xlink:title=" ">
<polygon fill="white" stroke="#666666" points="126.3,-129.75 16.55,-129.75 16.55,-110.5 126.3,-110.5 126.3,-129.75"/>
<text text-anchor="middle" x="71.42" y="-116.25" font-family="Helvetica,sans-Serif" font-size="10.00">NukiLockConstants.h</text>
</a>
</g>
</g>
<!-- Node13&#45;&gt;Node14 -->
<g id="edge19_Node000013_Node000014" class="edge">
<title>Node13&#45;&gt;Node14</title>
<g id="a_edge19_Node000013_Node000014"><a xlink:title=" ">
<path fill="none" stroke="#63b8ff" d="M145.33,-165.34C131.9,-157.31 112.01,-145.41 96.25,-135.98"/>
<polygon fill="#63b8ff" stroke="#63b8ff" points="98.27,-133.11 87.9,-130.98 94.68,-139.12 98.27,-133.11"/>
</a>
</g>
</g>
<!-- Node15 -->
<g id="Node000015" class="node">
<title>Node15</title>
<g id="a_Node000015"><a xlink:title=" ">
<polygon fill="#e0e0e0" stroke="#999999" points="184.42,-129.75 144.42,-129.75 144.42,-110.5 184.42,-110.5 184.42,-129.75"/>
<text text-anchor="middle" x="164.42" y="-116.25" font-family="Helvetica,sans-Serif" font-size="10.00">bitset</text>
</a>
</g>
</g>
<!-- Node13&#45;&gt;Node15 -->
<g id="edge22_Node000013_Node000015" class="edge">
<title>Node13&#45;&gt;Node15</title>
<g id="a_edge22_Node000013_Node000015"><a xlink:title=" ">
<path fill="none" stroke="#63b8ff" d="M161.09,-165.58C161.58,-158.99 162.28,-149.71 162.91,-141.32"/>
<polygon fill="#63b8ff" stroke="#63b8ff" points="166.38,-141.85 163.64,-131.62 159.4,-141.33 166.38,-141.85"/>
</a>
</g>
</g>
<!-- Node14&#45;&gt;Node4 -->
<g id="edge21_Node000014_Node000004" class="edge">
<title>Node14&#45;&gt;Node4</title>
<g id="a_edge21_Node000014_Node000004"><a xlink:title=" ">
<path fill="none" stroke="#63b8ff" d="M113.43,-110.03C155.18,-100.99 219.34,-87.11 264.53,-77.32"/>
<polygon fill="#63b8ff" stroke="#63b8ff" points="265.08,-80.79 274.11,-75.25 263.6,-73.95 265.08,-80.79"/>
</a>
</g>
</g>
<!-- Node14&#45;&gt;Node5 -->
<g id="edge20_Node000014_Node000005" class="edge">
<title>Node14&#45;&gt;Node5</title>
<g id="a_edge20_Node000014_Node000005"><a xlink:title=" ">
<path fill="none" stroke="#63b8ff" d="M81.33,-110.25C101.62,-92.05 148.21,-50.27 174.15,-27.01"/>
<polygon fill="#63b8ff" stroke="#63b8ff" points="176.15,-29.92 181.26,-20.64 171.48,-24.71 176.15,-29.92"/>
</a>
</g>
</g>
<!-- Node16&#45;&gt;Node4 -->
<g id="edge26_Node000016_Node000004" class="edge">
<title>Node16&#45;&gt;Node4</title>
<g id="a_edge26_Node000016_Node000004"><a xlink:title=" ">
<path fill="none" stroke="#63b8ff" d="M254.05,-165.51C255.3,-152.6 258.96,-128.22 269.42,-110.5 275.94,-99.48 285.99,-89.53 295.22,-81.83"/>
<polygon fill="#63b8ff" stroke="#63b8ff" points="297.12,-84.79 302.83,-75.87 292.8,-79.29 297.12,-84.79"/>
</a>
</g>
</g>
<!-- Node16&#45;&gt;Node6 -->
<g id="edge25_Node000016_Node000006" class="edge">
<title>Node16&#45;&gt;Node6</title>
<g id="a_edge25_Node000016_Node000006"><a xlink:title=" ">
<path fill="none" stroke="#63b8ff" d="M265.3,-165.34C275.52,-157.57 290.5,-146.17 302.69,-136.9"/>
<polygon fill="#63b8ff" stroke="#63b8ff" points="304.68,-139.78 310.52,-130.94 300.44,-134.21 304.68,-139.78"/>
</a>
</g>
</g>
<!-- Node16&#45;&gt;Node7 -->
<g id="edge24_Node000016_Node000007" class="edge">
<title>Node16&#45;&gt;Node7</title>
<g id="a_edge24_Node000016_Node000007"><a xlink:title=" ">
<path fill="none" stroke="#63b8ff" d="M249.84,-165.56C246.26,-156.6 240.68,-142.31 236.42,-129.75 231.42,-114.97 226.41,-98.03 222.8,-85.31"/>
<polygon fill="#63b8ff" stroke="#63b8ff" points="226.28,-84.76 220.21,-76.08 219.54,-86.65 226.28,-84.76"/>
</a>
</g>
</g>
<!-- Node16&#45;&gt;Node15 -->
<g id="edge27_Node000016_Node000015" class="edge">
<title>Node16&#45;&gt;Node15</title>
<g id="a_edge27_Node000016_Node000015"><a xlink:title=" ">
<path fill="none" stroke="#63b8ff" d="M238.33,-165.34C224.9,-157.31 205.01,-145.41 189.25,-135.98"/>
<polygon fill="#63b8ff" stroke="#63b8ff" points="191.27,-133.11 180.9,-130.98 187.68,-139.12 191.27,-133.11"/>
</a>
</g>
</g>
</g>
</svg>
