<?xml version="1.0" encoding="UTF-8" standalone="no"?>
<!DOCTYPE svg PUBLIC "-//W3C//DTD SVG 1.1//EN"
 "http://www.w3.org/Graphics/SVG/1.1/DTD/svg11.dtd">
<!-- Generated by graphviz version 5.0.1 (20220820.1526)
 -->
<!-- Title: src/NukiLockUtils.h Pages: 1 -->
<svg width="373pt" height="200pt"
 viewBox="0.00 0.00 372.50 200.00" xmlns="http://www.w3.org/2000/svg" xmlns:xlink="http://www.w3.org/1999/xlink">
<g id="graph0" class="graph" transform="scale(1 1) rotate(0) translate(4 196)">
<title>src/NukiLockUtils.h</title>
<!-- Node1 -->
<g id="node1" class="node">
<title>Node1</title>
<g id="a_node1"><a xlink:title=" ">
<polygon fill="#999999" stroke="#666666" points="226.5,-192 107.5,-192 107.5,-171 226.5,-171 226.5,-192"/>
<text text-anchor="middle" x="167" y="-178.4" font-family="Helvetica,sans-Serif" font-size="12.00">src/NukiLockUtils.h</text>
</a>
</g>
</g>
<!-- Node2 -->
<g id="node2" class="node">
<title>Node2</title>
<g id="a_node2"><a xlink:title=" ">
<polygon fill="#e0e0e0" stroke="#999999" points="68,-78 0,-78 0,-57 68,-57 68,-78"/>
<text text-anchor="middle" x="34" y="-64.4" font-family="Helvetica,sans-Serif" font-size="12.00">Arduino.h</text>
</a>
</g>
</g>
<!-- Node1&#45;&gt;Node2 -->
<g id="edge1" class="edge">
<title>Node1&#45;&gt;Node2</title>
<path fill="none" stroke="#63b8ff" d="M107.32,-175.51C80.31,-169.92 50.75,-158.43 34,-135 24.37,-121.53 25.53,-102.28 28.41,-87.95"/>
<polygon fill="#63b8ff" stroke="#63b8ff" points="31.84,-88.68 30.8,-78.13 25.04,-87.02 31.84,-88.68"/>
</g>
<!-- Node3 -->
<g id="node3" class="node">
<title>Node3</title>
<g id="a_node3"><a xlink:href="_nuki_data_types_8h.html" target="_top" xlink:title=" ">
<polygon fill="white" stroke="#666666" points="152.5,-135 43.5,-135 43.5,-114 152.5,-114 152.5,-135"/>
<text text-anchor="middle" x="98" y="-121.4" font-family="Helvetica,sans-Serif" font-size="12.00">NukiDataTypes.h</text>
</a>
</g>
</g>
<!-- Node1&#45;&gt;Node3 -->
<g id="edge2" class="edge">
<title>Node1&#45;&gt;Node3</title>
<path fill="none" stroke="#63b8ff" d="M154.98,-170.92C144.91,-162.9 130.32,-151.27 118.43,-141.78"/>
<polygon fill="#63b8ff" stroke="#63b8ff" points="120.35,-138.84 110.35,-135.34 115.98,-144.31 120.35,-138.84"/>
</g>
<!-- Node6 -->
<g id="node6" class="node">
<title>Node6</title>
<g id="a_node6"><a xlink:href="_nuki_lock_constants_8h.html" target="_top" xlink:title=" ">
<polygon fill="white" stroke="#666666" points="301,-135 171,-135 171,-114 301,-114 301,-135"/>
<text text-anchor="middle" x="236" y="-121.4" font-family="Helvetica,sans-Serif" font-size="12.00">NukiLockConstants.h</text>
</a>
</g>
</g>
<!-- Node1&#45;&gt;Node6 -->
<g id="edge6" class="edge">
<title>Node1&#45;&gt;Node6</title>
<path fill="none" stroke="#63b8ff" d="M179.02,-170.92C189.09,-162.9 203.68,-151.27 215.57,-141.78"/>
<polygon fill="#63b8ff" stroke="#63b8ff" points="218.02,-144.31 223.65,-135.34 213.65,-138.84 218.02,-144.31"/>
</g>
<!-- Node7 -->
<g id="node7" class="node">
<title>Node7</title>
<g id="a_node7"><a xlink:title=" ">
<polygon fill="#e0e0e0" stroke="#999999" points="364.5,-135 319.5,-135 319.5,-114 364.5,-114 364.5,-135"/>
<text text-anchor="middle" x="342" y="-121.4" font-family="Helvetica,sans-Serif" font-size="12.00">bitset</text>
</a>
</g>
</g>
<!-- Node1&#45;&gt;Node7 -->
<g id="edge9" class="edge">
<title>Node1&#45;&gt;Node7</title>
<path fill="none" stroke="#63b8ff" d="M197.48,-170.92C228.85,-161.06 277.54,-145.76 309.59,-135.68"/>
<polygon fill="#63b8ff" stroke="#63b8ff" points="310.88,-138.95 319.37,-132.61 308.78,-132.27 310.88,-138.95"/>
</g>
<!-- Node3&#45;&gt;Node2 -->
<g id="edge3" class="edge">
<title>Node3&#45;&gt;Node2</title>
<path fill="none" stroke="#63b8ff" d="M86.85,-113.92C77.61,-105.97 64.24,-94.49 53.27,-85.06"/>
<polygon fill="#63b8ff" stroke="#63b8ff" points="55.32,-82.2 45.45,-78.34 50.75,-87.51 55.32,-82.2"/>
</g>
<!-- Node4 -->
<g id="node4" class="node">
<title>Node4</title>
<g id="a_node4"><a xlink:href="_nuki_constants_8h.html" target="_top" xlink:title=" ">
<polygon fill="white" stroke="#666666" points="208,-78 104,-78 104,-57 208,-57 208,-78"/>
<text text-anchor="middle" x="156" y="-64.4" font-family="Helvetica,sans-Serif" font-size="12.00">NukiConstants.h</text>
</a>
</g>
</g>
<!-- Node3&#45;&gt;Node4 -->
<g id="edge4" class="edge">
<title>Node3&#45;&gt;Node4</title>
<path fill="none" stroke="#63b8ff" d="M108.1,-113.92C116.4,-106.05 128.35,-94.72 138.24,-85.34"/>
<polygon fill="#63b8ff" stroke="#63b8ff" points="140.77,-87.76 145.62,-78.34 135.96,-82.68 140.77,-87.76"/>
</g>
<!-- Node5 -->
<g id="node5" class="node">
<title>Node5</title>
<g id="a_node5"><a xlink:title=" ">
<polygon fill="#e0e0e0" stroke="#999999" points="246,-21 146,-21 146,0 246,0 246,-21"/>
<text text-anchor="middle" x="196" y="-7.4" font-family="Helvetica,sans-Serif" font-size="12.00">NimBLEUUID.h</text>
</a>
</g>
</g>
<!-- Node4&#45;&gt;Node5 -->
<g id="edge5" class="edge">
<title>Node4&#45;&gt;Node5</title>
<path fill="none" stroke="#63b8ff" d="M162.97,-56.92C168.46,-49.36 176.28,-38.61 182.94,-29.46"/>
<polygon fill="#63b8ff" stroke="#63b8ff" points="185.79,-31.49 188.84,-21.34 180.13,-27.37 185.79,-31.49"/>
</g>
<!-- Node6&#45;&gt;Node4 -->
<g id="edge8" class="edge">
<title>Node6&#45;&gt;Node4</title>
<path fill="none" stroke="#63b8ff" d="M222.07,-113.92C210.09,-105.69 192.6,-93.67 178.63,-84.06"/>
<polygon fill="#63b8ff" stroke="#63b8ff" points="180.27,-80.94 170.04,-78.16 176.3,-86.7 180.27,-80.94"/>
</g>
<!-- Node6&#45;&gt;Node5 -->
<g id="edge7" class="edge">
<title>Node6&#45;&gt;Node5</title>
<path fill="none" stroke="#63b8ff" d="M233.75,-113.88C230.58,-100.81 224.35,-76.81 217,-57 213.64,-47.95 209.25,-38.21 205.36,-30.06"/>
<polygon fill="#63b8ff" stroke="#63b8ff" points="208.5,-28.52 200.95,-21.08 202.21,-31.6 208.5,-28.52"/>
</g>
</g>
</svg>
