<?xml version="1.0" encoding="UTF-8" standalone="no"?>
<!DOCTYPE svg PUBLIC "-//W3C//DTD SVG 1.1//EN"
 "http://www.w3.org/Graphics/SVG/1.1/DTD/svg11.dtd">
<!-- Generated by graphviz version 8.0.1 (20230327.1645)
 -->
<!-- Title: src/NukiLock.cpp Pages: 1 -->
<svg width="1020pt" height="357pt"
 viewBox="0.00 0.00 1020.46 357.00" xmlns="http://www.w3.org/2000/svg" xmlns:xlink="http://www.w3.org/1999/xlink">
<g id="graph0" class="graph" transform="scale(1 1) rotate(0) translate(4 353)">
<title>src/NukiLock.cpp</title>
<!-- Node1 -->
<g id="node1" class="node">
<title>Node1</title>
<g id="a_node1"><a xlink:title=" ">
<polygon fill="#999999" stroke="#666666" points="914.5,-349 821.5,-349 821.5,-330 914.5,-330 914.5,-349"/>
<text text-anchor="middle" x="868" y="-337" font-family="Helvetica,sans-Serif" font-size="10.00">src/NukiLock.cpp</text>
</a>
</g>
</g>
<!-- Node2 -->
<g id="node2" class="node">
<title>Node2</title>
<g id="a_node2"><a xlink:href="_nuki_lock_utils_8h.html" target="_top" xlink:title=" ">
<polygon fill="white" stroke="#666666" points="911,-184 825,-184 825,-165 911,-165 911,-184"/>
<text text-anchor="middle" x="868" y="-172" font-family="Helvetica,sans-Serif" font-size="10.00">NukiLockUtils.h</text>
</a>
</g>
</g>
<!-- Node1&#45;&gt;Node2 -->
<g id="edge1" class="edge">
<title>Node1&#45;&gt;Node2</title>
<path fill="none" stroke="#63b8ff" d="M868,-329.74C868,-304.42 868,-230.72 868,-195.16"/>
<polygon fill="#63b8ff" stroke="#63b8ff" points="871.5,-195.31 868,-185.31 864.5,-195.31 871.5,-195.31"/>
</g>
<!-- Node9 -->
<g id="node9" class="node">
<title>Node9</title>
<g id="a_node9"><a xlink:href="_nuki_lock_8h.html" target="_top" xlink:title=" ">
<polygon fill="white" stroke="#666666" points="644,-294 578,-294 578,-275 644,-275 644,-294"/>
<text text-anchor="middle" x="611" y="-282" font-family="Helvetica,sans-Serif" font-size="10.00">NukiLock.h</text>
</a>
</g>
</g>
<!-- Node1&#45;&gt;Node9 -->
<g id="edge11" class="edge">
<title>Node1&#45;&gt;Node9</title>
<path fill="none" stroke="#63b8ff" d="M824.4,-329.51C777.11,-319.76 702.03,-304.27 654.69,-294.51"/>
<polygon fill="#63b8ff" stroke="#63b8ff" points="655.66,-290.93 645.16,-292.34 654.25,-297.79 655.66,-290.93"/>
</g>
<!-- Node17 -->
<g id="node17" class="node">
<title>Node17</title>
<g id="a_node17"><a xlink:href="_nuki_utils_8h.html" target="_top" xlink:title=" ">
<polygon fill="white" stroke="#666666" points="994.5,-184 929.5,-184 929.5,-165 994.5,-165 994.5,-184"/>
<text text-anchor="middle" x="962" y="-172" font-family="Helvetica,sans-Serif" font-size="10.00">NukiUtils.h</text>
</a>
</g>
</g>
<!-- Node1&#45;&gt;Node17 -->
<g id="edge26" class="edge">
<title>Node1&#45;&gt;Node17</title>
<path fill="none" stroke="#63b8ff" d="M873.05,-329.74C887.85,-304.09 931.27,-228.78 951.46,-193.78"/>
<polygon fill="#63b8ff" stroke="#63b8ff" points="954.96,-195.72 956.92,-185.31 948.89,-192.22 954.96,-195.72"/>
</g>
<!-- Node3 -->
<g id="node3" class="node">
<title>Node3</title>
<g id="a_node3"><a xlink:title=" ">
<polygon fill="#e0e0e0" stroke="#999999" points="933.5,-74 876.5,-74 876.5,-55 933.5,-55 933.5,-74"/>
<text text-anchor="middle" x="905" y="-62" font-family="Helvetica,sans-Serif" font-size="10.00">Arduino.h</text>
</a>
</g>
</g>
<!-- Node2&#45;&gt;Node3 -->
<g id="edge2" class="edge">
<title>Node2&#45;&gt;Node3</title>
<path fill="none" stroke="#63b8ff" d="M863.29,-164.92C857.08,-152.36 847.83,-128.47 856,-110 861.27,-98.09 871.48,-88.01 881.21,-80.47"/>
<polygon fill="#63b8ff" stroke="#63b8ff" points="882.77,-82.94 888.87,-74.27 878.7,-77.24 882.77,-82.94"/>
</g>
<!-- Node4 -->
<g id="node4" class="node">
<title>Node4</title>
<g id="a_node4"><a xlink:href="_nuki_data_types_8h.html" target="_top" xlink:title=" ">
<polygon fill="white" stroke="#666666" points="557.5,-129 466.5,-129 466.5,-110 557.5,-110 557.5,-129"/>
<text text-anchor="middle" x="512" y="-117" font-family="Helvetica,sans-Serif" font-size="10.00">NukiDataTypes.h</text>
</a>
</g>
</g>
<!-- Node2&#45;&gt;Node4 -->
<g id="edge3" class="edge">
<title>Node2&#45;&gt;Node4</title>
<path fill="none" stroke="#63b8ff" d="M824.6,-166.35C821.69,-165.89 818.8,-165.43 816,-165 729.73,-151.64 629.51,-137.17 568.44,-128.47"/>
<polygon fill="#63b8ff" stroke="#63b8ff" points="569.27,-124.91 558.87,-126.97 568.28,-131.85 569.27,-124.91"/>
</g>
<!-- Node7 -->
<g id="node7" class="node">
<title>Node7</title>
<g id="a_node7"><a xlink:href="_nuki_lock_constants_8h.html" target="_top" xlink:title=" ">
<polygon fill="white" stroke="#666666" points="110,-129 0,-129 0,-110 110,-110 110,-129"/>
<text text-anchor="middle" x="55" y="-117" font-family="Helvetica,sans-Serif" font-size="10.00">NukiLockConstants.h</text>
</a>
</g>
</g>
<!-- Node2&#45;&gt;Node7 -->
<g id="edge7" class="edge">
<title>Node2&#45;&gt;Node7</title>
<path fill="none" stroke="#63b8ff" d="M824.63,-166.07C821.72,-165.67 818.82,-165.31 816,-165 559.79,-136.65 252.93,-125.68 120.8,-122.05"/>
<polygon fill="#63b8ff" stroke="#63b8ff" points="121.17,-118.53 111.08,-121.76 120.98,-125.53 121.17,-118.53"/>
</g>
<!-- Node8 -->
<g id="node8" class="node">
<title>Node8</title>
<g id="a_node8"><a xlink:title=" ">
<polygon fill="#e0e0e0" stroke="#999999" points="906.5,-129 865.5,-129 865.5,-110 906.5,-110 906.5,-129"/>
<text text-anchor="middle" x="886" y="-117" font-family="Helvetica,sans-Serif" font-size="10.00">bitset</text>
</a>
</g>
</g>
<!-- Node2&#45;&gt;Node8 -->
<g id="edge10" class="edge">
<title>Node2&#45;&gt;Node8</title>
<path fill="none" stroke="#63b8ff" d="M870.97,-164.75C873.28,-157.96 876.56,-148.3 879.47,-139.73"/>
<polygon fill="#63b8ff" stroke="#63b8ff" points="883.06,-141.04 882.96,-130.44 876.43,-138.79 883.06,-141.04"/>
</g>
<!-- Node4&#45;&gt;Node3 -->
<g id="edge4" class="edge">
<title>Node4&#45;&gt;Node3</title>
<path fill="none" stroke="#63b8ff" d="M557.85,-112.32C635.66,-101.82 792.22,-80.71 865.49,-70.83"/>
<polygon fill="#63b8ff" stroke="#63b8ff" points="865.65,-74.2 875.1,-69.4 864.72,-67.27 865.65,-74.2"/>
</g>
<!-- Node5 -->
<g id="node5" class="node">
<title>Node5</title>
<g id="a_node5"><a xlink:href="_nuki_constants_8h.html" target="_top" xlink:title=" ">
<polygon fill="white" stroke="#666666" points="201.5,-74 112.5,-74 112.5,-55 201.5,-55 201.5,-74"/>
<text text-anchor="middle" x="157" y="-62" font-family="Helvetica,sans-Serif" font-size="10.00">NukiConstants.h</text>
</a>
</g>
</g>
<!-- Node4&#45;&gt;Node5 -->
<g id="edge5" class="edge">
<title>Node4&#45;&gt;Node5</title>
<path fill="none" stroke="#63b8ff" d="M466.32,-111.68C401.44,-101.99 282.72,-84.27 212.75,-73.82"/>
<polygon fill="#63b8ff" stroke="#63b8ff" points="213.36,-70.23 202.95,-72.21 212.32,-77.15 213.36,-70.23"/>
</g>
<!-- Node6 -->
<g id="node6" class="node">
<title>Node6</title>
<g id="a_node6"><a xlink:title=" ">
<polygon fill="#e0e0e0" stroke="#999999" points="158,-19 72,-19 72,0 158,0 158,-19"/>
<text text-anchor="middle" x="115" y="-7" font-family="Helvetica,sans-Serif" font-size="10.00">NimBLEUUID.h</text>
</a>
</g>
</g>
<!-- Node5&#45;&gt;Node6 -->
<g id="edge6" class="edge">
<title>Node5&#45;&gt;Node6</title>
<path fill="none" stroke="#63b8ff" d="M150.06,-54.75C144.32,-47.5 135.99,-36.98 128.88,-28.02"/>
<polygon fill="#63b8ff" stroke="#63b8ff" points="131.04,-26.11 122.09,-20.44 125.55,-30.45 131.04,-26.11"/>
</g>
<!-- Node7&#45;&gt;Node5 -->
<g id="edge9" class="edge">
<title>Node7&#45;&gt;Node5</title>
<path fill="none" stroke="#63b8ff" d="M72.3,-109.51C88.22,-101.24 112.08,-88.84 130.42,-79.31"/>
<polygon fill="#63b8ff" stroke="#63b8ff" points="131.69,-82.07 138.95,-74.36 128.47,-75.86 131.69,-82.07"/>
</g>
<!-- Node7&#45;&gt;Node6 -->
<g id="edge8" class="edge">
<title>Node7&#45;&gt;Node6</title>
<path fill="none" stroke="#63b8ff" d="M59.91,-109.66C69.67,-92.1 91.68,-52.48 104.73,-28.98"/>
<polygon fill="#63b8ff" stroke="#63b8ff" points="108.23,-30.9 110.02,-20.46 102.11,-27.5 108.23,-30.9"/>
</g>
<!-- Node9&#45;&gt;Node2 -->
<g id="edge25" class="edge">
<title>Node9&#45;&gt;Node2</title>
<path fill="none" stroke="#63b8ff" d="M632.03,-274.66C677.21,-255.68 783.73,-210.91 836.81,-188.61"/>
<polygon fill="#63b8ff" stroke="#63b8ff" points="837.81,-191.56 845.68,-184.46 835.1,-185.11 837.81,-191.56"/>
</g>
<!-- Node9&#45;&gt;Node7 -->
<g id="edge24" class="edge">
<title>Node9&#45;&gt;Node7</title>
<path fill="none" stroke="#63b8ff" d="M577.76,-283.22C495.13,-281.21 275.82,-267.75 119,-184 97.93,-172.75 79.24,-152.35 67.58,-137.71"/>
<polygon fill="#63b8ff" stroke="#63b8ff" points="69.83,-135.89 60.98,-130.07 64.27,-140.14 69.83,-135.89"/>
</g>
<!-- Node10 -->
<g id="node10" class="node">
<title>Node10</title>
<g id="a_node10"><a xlink:href="_nuki_ble_8h.html" target="_top" xlink:title=" ">
<polygon fill="white" stroke="#666666" points="493.5,-239 434.5,-239 434.5,-220 493.5,-220 493.5,-239"/>
<text text-anchor="middle" x="464" y="-227" font-family="Helvetica,sans-Serif" font-size="10.00">NukiBle.h</text>
</a>
</g>
</g>
<!-- Node9&#45;&gt;Node10 -->
<g id="edge12" class="edge">
<title>Node9&#45;&gt;Node10</title>
<path fill="none" stroke="#63b8ff" d="M586.06,-274.51C562.06,-265.85 525.53,-252.69 498.69,-243.01"/>
<polygon fill="#63b8ff" stroke="#63b8ff" points="500.16,-239.46 489.57,-239.36 497.79,-246.04 500.16,-239.46"/>
</g>
<!-- Node10&#45;&gt;Node3 -->
<g id="edge16" class="edge">
<title>Node10&#45;&gt;Node3</title>
<path fill="none" stroke="#63b8ff" d="M493.81,-228.34C601.85,-227.45 968.34,-221.64 1003,-184 1036.34,-147.79 970.82,-102.27 931.55,-79.63"/>
<polygon fill="#63b8ff" stroke="#63b8ff" points="933.64,-76.23 923.21,-74.39 930.22,-82.34 933.64,-76.23"/>
</g>
<!-- Node10&#45;&gt;Node4 -->
<g id="edge15" class="edge">
<title>Node10&#45;&gt;Node4</title>
<path fill="none" stroke="#63b8ff" d="M434.13,-228.94C366.13,-228.97 209.31,-222.96 258,-165 282.69,-135.61 388.24,-125.63 455.27,-122.24"/>
<polygon fill="#63b8ff" stroke="#63b8ff" points="455.26,-125.7 465.08,-121.73 454.93,-118.7 455.26,-125.7"/>
</g>
<!-- Node10&#45;&gt;Node5 -->
<g id="edge14" class="edge">
<title>Node10&#45;&gt;Node5</title>
<path fill="none" stroke="#63b8ff" d="M434.12,-229.25C360.07,-230.41 171.2,-228.81 132,-184 107.18,-155.63 129.39,-108.87 144.93,-83.4"/>
<polygon fill="#63b8ff" stroke="#63b8ff" points="148.38,-85.49 150.83,-75.19 142.49,-81.72 148.38,-85.49"/>
</g>
<!-- Node11 -->
<g id="node11" class="node">
<title>Node11</title>
<g id="a_node11"><a xlink:title=" ">
<polygon fill="#e0e0e0" stroke="#999999" points="358.5,-184 267.5,-184 267.5,-165 358.5,-165 358.5,-184"/>
<text text-anchor="middle" x="313" y="-172" font-family="Helvetica,sans-Serif" font-size="10.00">NimBLEDevice.h</text>
</a>
</g>
</g>
<!-- Node10&#45;&gt;Node11 -->
<g id="edge13" class="edge">
<title>Node10&#45;&gt;Node11</title>
<path fill="none" stroke="#63b8ff" d="M438.38,-219.51C413.69,-210.84 376.1,-197.65 348.52,-187.97"/>
<polygon fill="#63b8ff" stroke="#63b8ff" points="350.08,-184.46 339.49,-184.45 347.76,-191.06 350.08,-184.46"/>
</g>
<!-- Node12 -->
<g id="node12" class="node">
<title>Node12</title>
<g id="a_node12"><a xlink:title=" ">
<polygon fill="#e0e0e0" stroke="#999999" points="453.5,-184 376.5,-184 376.5,-165 453.5,-165 453.5,-184"/>
<text text-anchor="middle" x="415" y="-172" font-family="Helvetica,sans-Serif" font-size="10.00">Preferences.h</text>
</a>
</g>
</g>
<!-- Node10&#45;&gt;Node12 -->
<g id="edge17" class="edge">
<title>Node10&#45;&gt;Node12</title>
<path fill="none" stroke="#63b8ff" d="M455.91,-219.75C449.07,-212.35 439.07,-201.54 430.68,-192.45"/>
<polygon fill="#63b8ff" stroke="#63b8ff" points="433.63,-190.41 424.27,-185.44 428.49,-195.16 433.63,-190.41"/>
</g>
<!-- Node13 -->
<g id="node13" class="node">
<title>Node13</title>
<g id="a_node13"><a xlink:title=" ">
<polygon fill="#e0e0e0" stroke="#999999" points="556.5,-184 471.5,-184 471.5,-165 556.5,-165 556.5,-184"/>
<text text-anchor="middle" x="514" y="-172" font-family="Helvetica,sans-Serif" font-size="10.00">esp_task_wdt.h</text>
</a>
</g>
</g>
<!-- Node10&#45;&gt;Node13 -->
<g id="edge18" class="edge">
<title>Node10&#45;&gt;Node13</title>
<path fill="none" stroke="#63b8ff" d="M472.26,-219.75C479.31,-212.27 489.65,-201.32 498.27,-192.17"/>
<polygon fill="#63b8ff" stroke="#63b8ff" points="500.25,-195.12 504.56,-185.44 495.16,-190.31 500.25,-195.12"/>
</g>
<!-- Node14 -->
<g id="node14" class="node">
<title>Node14</title>
<g id="a_node14"><a xlink:title=" ">
<polygon fill="#e0e0e0" stroke="#999999" points="657,-184 575,-184 575,-165 657,-165 657,-184"/>
<text text-anchor="middle" x="616" y="-172" font-family="Helvetica,sans-Serif" font-size="10.00">BleInterfaces.h</text>
</a>
</g>
</g>
<!-- Node10&#45;&gt;Node14 -->
<g id="edge19" class="edge">
<title>Node10&#45;&gt;Node14</title>
<path fill="none" stroke="#63b8ff" d="M489.78,-219.51C514.64,-210.84 552.48,-197.65 580.24,-187.97"/>
<polygon fill="#63b8ff" stroke="#63b8ff" points="581.05,-191.04 589.34,-184.45 578.75,-184.43 581.05,-191.04"/>
</g>
<!-- Node15 -->
<g id="node15" class="node">
<title>Node15</title>
<g id="a_node15"><a xlink:title=" ">
<polygon fill="#e0e0e0" stroke="#999999" points="807,-184 675,-184 675,-165 807,-165 807,-184"/>
<text text-anchor="middle" x="741" y="-172" font-family="Helvetica,sans-Serif" font-size="10.00">sodium/crypto_secretbox.h</text>
</a>
</g>
</g>
<!-- Node10&#45;&gt;Node15 -->
<g id="edge20" class="edge">
<title>Node10&#45;&gt;Node15</title>
<path fill="none" stroke="#63b8ff" d="M493.91,-222.78C539.12,-214.13 625.7,-197.56 683.41,-186.52"/>
<polygon fill="#63b8ff" stroke="#63b8ff" points="684.03,-189.77 693.19,-184.46 682.71,-182.9 684.03,-189.77"/>
</g>
<!-- Node16 -->
<g id="node16" class="node">
<title>Node16</title>
<g id="a_node16"><a xlink:href="_nuki_ble_8hpp.html" target="_top" xlink:title=" ">
<polygon fill="white" stroke="#666666" points="210.5,-184 141.5,-184 141.5,-165 210.5,-165 210.5,-184"/>
<text text-anchor="middle" x="176" y="-172" font-family="Helvetica,sans-Serif" font-size="10.00">NukiBle.hpp</text>
</a>
</g>
</g>
<!-- Node10&#45;&gt;Node16 -->
<g id="edge21" class="edge">
<title>Node10&#45;&gt;Node16</title>
<path fill="none" stroke="#63b8ff" d="M434.26,-223.03C383.8,-213.74 281.08,-194.84 221.51,-183.88"/>
<polygon fill="#63b8ff" stroke="#63b8ff" points="222.38,-180.29 211.92,-181.93 221.12,-187.18 222.38,-180.29"/>
</g>
<!-- Node16&#45;&gt;Node4 -->
<g id="edge23" class="edge">
<title>Node16&#45;&gt;Node4</title>
<path fill="none" stroke="#63b8ff" d="M210.79,-167.39C215.56,-166.57 220.4,-165.76 225,-165 304.93,-151.87 397.56,-137.7 455.48,-128.96"/>
<polygon fill="#63b8ff" stroke="#63b8ff" points="455.86,-132.29 465.23,-127.34 454.82,-125.37 455.86,-132.29"/>
</g>
<!-- Node16&#45;&gt;Node5 -->
<g id="edge22" class="edge">
<title>Node16&#45;&gt;Node5</title>
<path fill="none" stroke="#63b8ff" d="M174.45,-164.66C171.41,-147.42 164.64,-108.9 160.48,-85.27"/>
<polygon fill="#63b8ff" stroke="#63b8ff" points="163.76,-84.7 158.58,-75.46 156.86,-85.92 163.76,-84.7"/>
</g>
<!-- Node17&#45;&gt;Node3 -->
<g id="edge27" class="edge">
<title>Node17&#45;&gt;Node3</title>
<path fill="none" stroke="#63b8ff" d="M961.77,-164.76C961.1,-152 958.55,-127.86 949,-110 943.16,-99.08 933.8,-89.06 925.21,-81.3"/>
<polygon fill="#63b8ff" stroke="#63b8ff" points="927.92,-78.16 918.03,-74.35 923.38,-83.5 927.92,-78.16"/>
</g>
<!-- Node17&#45;&gt;Node4 -->
<g id="edge28" class="edge">
<title>Node17&#45;&gt;Node4</title>
<path fill="none" stroke="#63b8ff" d="M929.04,-166.53C925.99,-165.98 922.94,-165.46 920,-165 795.09,-145.59 647.37,-131.71 568.44,-125.02"/>
<polygon fill="#63b8ff" stroke="#63b8ff" points="569.02,-121.47 558.76,-124.12 568.44,-128.45 569.02,-121.47"/>
</g>
<!-- Node17&#45;&gt;Node5 -->
<g id="edge29" class="edge">
<title>Node17&#45;&gt;Node5</title>
<path fill="none" stroke="#63b8ff" d="M958.41,-164.58C952.08,-150.16 937.44,-122.14 915,-110 853.77,-76.86 377.34,-68.11 212.73,-66.07"/>
<polygon fill="#63b8ff" stroke="#63b8ff" points="212.92,-62.56 202.88,-65.93 212.84,-69.55 212.92,-62.56"/>
</g>
<!-- Node17&#45;&gt;Node8 -->
<g id="edge30" class="edge">
<title>Node17&#45;&gt;Node8</title>
<path fill="none" stroke="#63b8ff" d="M949.11,-164.51C937.68,-156.54 920.78,-144.75 907.34,-135.38"/>
<polygon fill="#63b8ff" stroke="#63b8ff" points="909.91,-132.21 899.7,-129.36 905.9,-137.95 909.91,-132.21"/>
</g>
</g>
</svg>
