<?xml version="1.0" encoding="UTF-8" standalone="no"?>
<!DOCTYPE svg PUBLIC "-//W3C//DTD SVG 1.1//EN"
 "http://www.w3.org/Graphics/SVG/1.1/DTD/svg11.dtd">
<!-- Generated by graphviz version 8.0.5 (20230430.1635)
 -->
<!-- Title: src/NukiDataTypes.h Pages: 1 -->
<svg width="170pt" height="138pt"
 viewBox="0.00 0.00 170.25 137.75" xmlns="http://www.w3.org/2000/svg" xmlns:xlink="http://www.w3.org/1999/xlink">
<g id="graph0" class="graph" transform="scale(1 1) rotate(0) translate(4 133.75)">
<title>src/NukiDataTypes.h</title>
<!-- Node1 -->
<g id="node1" class="node">
<title>Node1</title>
<g id="a_node1"><a xlink:title=" ">
<polygon fill="#999999" stroke="#666666" points="126.62,-129.75 19.88,-129.75 19.88,-110.5 126.62,-110.5 126.62,-129.75"/>
<text text-anchor="middle" x="73.25" y="-116.25" font-family="Helvetica,sans-Serif" font-size="10.00">src/NukiDataTypes.h</text>
</a>
</g>
</g>
<!-- Node2 -->
<g id="node2" class="node">
<title>Node2</title>
<g id="a_node2"><a xlink:title=" ">
<polygon fill="#e0e0e0" stroke="#999999" points="56.5,-74.5 0,-74.5 0,-55.25 56.5,-55.25 56.5,-74.5"/>
<text text-anchor="middle" x="28.25" y="-61" font-family="Helvetica,sans-Serif" font-size="10.00">Arduino.h</text>
</a>
</g>
</g>
<!-- Node1&#45;&gt;Node2 -->
<g id="edge1" class="edge">
<title>Node1&#45;&gt;Node2</title>
<path fill="none" stroke="#63b8ff" d="M65.82,-110.33C59.6,-102.98 50.55,-92.26 42.88,-83.19"/>
<polygon fill="#63b8ff" stroke="#63b8ff" points="44.97,-81.24 35.84,-75.86 39.62,-85.76 44.97,-81.24"/>
</g>
<!-- Node3 -->
<g id="node3" class="node">
<title>Node3</title>
<g id="a_node3"><a xlink:href="_nuki_constants_8h.html" target="_top" xlink:title=" ">
<polygon fill="white" stroke="#666666" points="162.25,-74.5 74.25,-74.5 74.25,-55.25 162.25,-55.25 162.25,-74.5"/>
<text text-anchor="middle" x="118.25" y="-61" font-family="Helvetica,sans-Serif" font-size="10.00">NukiConstants.h</text>
</a>
</g>
</g>
<!-- Node1&#45;&gt;Node3 -->
<g id="edge2" class="edge">
<title>Node1&#45;&gt;Node3</title>
<path fill="none" stroke="#63b8ff" d="M80.68,-110.33C86.9,-102.98 95.95,-92.26 103.62,-83.19"/>
<polygon fill="#63b8ff" stroke="#63b8ff" points="106.88,-85.76 110.66,-75.86 101.53,-81.24 106.88,-85.76"/>
</g>
<!-- Node4 -->
<g id="node4" class="node">
<title>Node4</title>
<g id="a_node4"><a xlink:title=" ">
<polygon fill="#e0e0e0" stroke="#999999" points="160.75,-19.25 75.75,-19.25 75.75,0 160.75,0 160.75,-19.25"/>
<text text-anchor="middle" x="118.25" y="-5.75" font-family="Helvetica,sans-Serif" font-size="10.00">NimBLEUUID.h</text>
</a>
</g>
</g>
<!-- Node3&#45;&gt;Node4 -->
<g id="edge3" class="edge">
<title>Node3&#45;&gt;Node4</title>
<path fill="none" stroke="#63b8ff" d="M118.25,-55.08C118.25,-48.42 118.25,-38.99 118.25,-30.53"/>
<polygon fill="#63b8ff" stroke="#63b8ff" points="121.75,-30.61 118.25,-20.61 114.75,-30.61 121.75,-30.61"/>
</g>
</g>
</svg>
