<?xml version="1.0" encoding="UTF-8" standalone="no"?>
<!DOCTYPE svg PUBLIC "-//W3C//DTD SVG 1.1//EN"
 "http://www.w3.org/Graphics/SVG/1.1/DTD/svg11.dtd">
<!-- Generated by graphviz version 8.0.5 (20230430.1635)
 -->
<!-- Title: src/NukiBle.h Pages: 1 -->
<svg width="316pt" height="138pt"
 viewBox="0.00 0.00 315.62 137.75" xmlns="http://www.w3.org/2000/svg" xmlns:xlink="http://www.w3.org/1999/xlink">
<g id="graph0" class="graph" transform="scale(1 1) rotate(0) translate(4 133.75)">
<title>src/NukiBle.h</title>
<!-- Node1 -->
<g id="node1" class="node">
<title>Node1</title>
<g id="a_node1"><a xlink:title=" ">
<polygon fill="#999999" stroke="#666666" points="181.75,-129.75 107.25,-129.75 107.25,-110.5 181.75,-110.5 181.75,-129.75"/>
<text text-anchor="middle" x="144.5" y="-116.25" font-family="Helvetica,sans-Serif" font-size="10.00">src/NukiBle.h</text>
</a>
</g>
</g>
<!-- Node2 -->
<g id="node2" class="node">
<title>Node2</title>
<g id="a_node2"><a xlink:href="_nuki_ble_8cpp.html" target="_top" xlink:title=" ">
<polygon fill="white" stroke="#666666" points="85,-74.5 0,-74.5 0,-55.25 85,-55.25 85,-74.5"/>
<text text-anchor="middle" x="42.5" y="-61" font-family="Helvetica,sans-Serif" font-size="10.00">src/NukiBle.cpp</text>
</a>
</g>
</g>
<!-- Node1&#45;&gt;Node2 -->
<g id="edge1" class="edge">
<title>Node1&#45;&gt;Node2</title>
<path fill="none" stroke="#63b8ff" d="M117.68,-105.12C99.41,-95.58 75.74,-83.23 59.89,-74.95"/>
<polygon fill="#63b8ff" stroke="#63b8ff" points="115.71,-108.57 126.2,-110.09 118.95,-102.36 115.71,-108.57"/>
</g>
<!-- Node3 -->
<g id="node3" class="node">
<title>Node3</title>
<g id="a_node3"><a xlink:href="_nuki_lock_8h.html" target="_top" xlink:title=" ">
<polygon fill="white" stroke="#666666" points="185.5,-74.5 103.5,-74.5 103.5,-55.25 185.5,-55.25 185.5,-74.5"/>
<text text-anchor="middle" x="144.5" y="-61" font-family="Helvetica,sans-Serif" font-size="10.00">src/NukiLock.h</text>
</a>
</g>
</g>
<!-- Node1&#45;&gt;Node3 -->
<g id="edge2" class="edge">
<title>Node1&#45;&gt;Node3</title>
<path fill="none" stroke="#63b8ff" d="M144.5,-99.46C144.5,-91.02 144.5,-81.58 144.5,-74.86"/>
<polygon fill="#63b8ff" stroke="#63b8ff" points="141,-99.33 144.5,-109.33 148,-99.33 141,-99.33"/>
</g>
<!-- Node5 -->
<g id="node5" class="node">
<title>Node5</title>
<g id="a_node5"><a xlink:href="_nuki_opener_8h.html" target="_top" xlink:title=" ">
<polygon fill="white" stroke="#666666" points="300.38,-74.5 208.62,-74.5 208.62,-55.25 300.38,-55.25 300.38,-74.5"/>
<text text-anchor="middle" x="254.5" y="-61" font-family="Helvetica,sans-Serif" font-size="10.00">src/NukiOpener.h</text>
</a>
</g>
</g>
<!-- Node1&#45;&gt;Node5 -->
<g id="edge4" class="edge">
<title>Node1&#45;&gt;Node5</title>
<path fill="none" stroke="#63b8ff" d="M172.87,-105.39C192.66,-95.81 218.49,-83.31 235.75,-74.95"/>
<polygon fill="#63b8ff" stroke="#63b8ff" points="171.64,-102.58 164.16,-110.09 174.69,-108.88 171.64,-102.58"/>
</g>
<!-- Node4 -->
<g id="node4" class="node">
<title>Node4</title>
<g id="a_node4"><a xlink:href="_nuki_lock_8cpp.html" target="_top" xlink:title=" ">
<polygon fill="white" stroke="#666666" points="187.75,-19.25 95.25,-19.25 95.25,0 187.75,0 187.75,-19.25"/>
<text text-anchor="middle" x="141.5" y="-5.75" font-family="Helvetica,sans-Serif" font-size="10.00">src/NukiLock.cpp</text>
</a>
</g>
</g>
<!-- Node3&#45;&gt;Node4 -->
<g id="edge3" class="edge">
<title>Node3&#45;&gt;Node4</title>
<path fill="none" stroke="#63b8ff" d="M143.39,-44.21C142.92,-35.77 142.38,-26.33 142.01,-19.61"/>
<polygon fill="#63b8ff" stroke="#63b8ff" points="139.95,-44.29 144,-54.08 146.94,-43.9 139.95,-44.29"/>
</g>
<!-- Node6 -->
<g id="node6" class="node">
<title>Node6</title>
<g id="a_node6"><a xlink:href="_nuki_opener_8cpp.html" target="_top" xlink:title=" ">
<polygon fill="white" stroke="#666666" points="307.62,-19.25 205.38,-19.25 205.38,0 307.62,0 307.62,-19.25"/>
<text text-anchor="middle" x="256.5" y="-5.75" font-family="Helvetica,sans-Serif" font-size="10.00">src/NukiOpener.cpp</text>
</a>
</g>
</g>
<!-- Node5&#45;&gt;Node6 -->
<g id="edge5" class="edge">
<title>Node5&#45;&gt;Node6</title>
<path fill="none" stroke="#63b8ff" d="M255.24,-44.21C255.56,-35.77 255.91,-26.33 256.16,-19.61"/>
<polygon fill="#63b8ff" stroke="#63b8ff" points="251.71,-43.96 254.83,-54.08 258.7,-44.22 251.71,-43.96"/>
</g>
</g>
</svg>
