<?xml version="1.0" encoding="UTF-8" standalone="no"?>
<!DOCTYPE svg PUBLIC "-//W3C//DTD SVG 1.1//EN"
 "http://www.w3.org/Graphics/SVG/1.1/DTD/svg11.dtd">
<!-- Generated by graphviz version 6.0.1 (20220911.1526)
 -->
<!-- Title: src/NukiLock.cpp Pages: 1 -->
<!--zoomable 357 -->
<svg id="main" version="1.1" xmlns="http://www.w3.org/2000/svg" xmlns:xlink="http://www.w3.org/1999/xlink" xml:space="preserve" onload="init(evt)">
<style type="text/css"><![CDATA[
.edge:hover path { stroke: red; }
.edge:hover polygon { stroke: red; fill: red; }
]]></style>
<script type="text/javascript"><![CDATA[
var edges = document.getElementsByTagName('g');
if (edges && edges.length) {
  for (var i=0;i<edges.length;i++) {
    if (edges[i].id.substr(0,4)=='edge') {
      edges[i].setAttribute('class','edge');
    }
  }
}
]]></script>
        <defs>
                <circle id="rim" cx="0" cy="0" r="7"/>
                <circle id="rim2" cx="0" cy="0" r="3.5"/>
                <g id="zoomPlus">
                        <use xlink:href="#rim" fill="#404040">
                                <set attributeName="fill" to="#808080" begin="zoomplus.mouseover" end="zoomplus.mouseout"/>
                        </use>
                        <path d="M-4,0h8M0,-4v8" fill="none" stroke="white" stroke-width="1.5" pointer-events="none"/>
                </g>
                <g id="zoomMin">
                        <use xlink:href="#rim" fill="#404040">
                                <set attributeName="fill" to="#808080" begin="zoomminus.mouseover" end="zoomminus.mouseout"/>
                        </use>
                        <path d="M-4,0h8" fill="none" stroke="white" stroke-width="1.5" pointer-events="none"/>
                </g>
                <g id="dirArrow">
                        <path fill="none" stroke="white" stroke-width="1.5" d="M0,-3.0v7 M-2.5,-0.5L0,-3.0L2.5,-0.5"/>
                </g>
               <g id="resetDef">
                       <use xlink:href="#rim2" fill="#404040">
                               <set attributeName="fill" to="#808080" begin="reset.mouseover" end="reset.mouseout"/>
                       </use>
               </g>
        </defs>

<script type="text/javascript">
var viewWidth = 951;
var viewHeight = 357;
var sectionId = 'dynsection-0';
</script>
<script xlink:href="svgpan.js"/>
<svg id="graph" class="graph">
<g id="viewport">
<title>src/NukiLock.cpp</title>
<!-- Node1 -->
<g id="node1" class="node">
<title>Node1</title>
<g id="a_node1"><a xlink:title=" ">
<polygon fill="#999999" stroke="#666666" points="863.49,-349 770.49,-349 770.49,-330 863.49,-330 863.49,-349"/>
<text text-anchor="middle" x="816.99" y="-337" font-family="Helvetica,sans-Serif" font-size="10.00">src/NukiLock.cpp</text>
</a>
</g>
</g>
<!-- Node2 -->
<g id="node2" class="node">
<title>Node2</title>
<g id="a_node2"><a xlink:href="_nuki_lock_8h.html" target="_top" xlink:title=" ">
<polygon fill="white" stroke="#666666" points="505.99,-294 439.99,-294 439.99,-275 505.99,-275 505.99,-294"/>
<text text-anchor="middle" x="472.99" y="-282" font-family="Helvetica,sans-Serif" font-size="10.00">NukiLock.h</text>
</a>
</g>
</g>
<!-- Node1&#45;&gt;Node2 -->
<g id="edge1" class="edge">
<title>Node1&#45;&gt;Node2</title>
<path fill="none" stroke="#63b8ff" d="M770.24,-331.3C703.28,-320.98 581.01,-302.14 516.12,-292.14"/>
<polygon fill="#63b8ff" stroke="#63b8ff" points="516.63,-288.68 506.21,-290.62 515.56,-295.6 516.63,-288.68"/>
</g>
<!-- Node15 -->
<g id="node15" class="node">
<title>Node15</title>
<g id="a_node15"><a xlink:href="_nuki_utils_8h.html" target="_top" xlink:title=" ">
<polygon fill="white" stroke="#666666" points="943.49,-184 878.49,-184 878.49,-165 943.49,-165 943.49,-184"/>
<text text-anchor="middle" x="910.99" y="-172" font-family="Helvetica,sans-Serif" font-size="10.00">NukiUtils.h</text>
</a>
</g>
</g>
<!-- Node1&#45;&gt;Node15 -->
<g id="edge20" class="edge">
<title>Node1&#45;&gt;Node15</title>
<path fill="none" stroke="#63b8ff" d="M822.05,-329.74C836.9,-303.98 880.64,-228.13 900.71,-193.33"/>
<polygon fill="#63b8ff" stroke="#63b8ff" points="903.95,-194.72 905.92,-184.31 897.89,-191.22 903.95,-194.72"/>
</g>
<!-- Node17 -->
<g id="node17" class="node">
<title>Node17</title>
<g id="a_node17"><a xlink:href="_nuki_lock_utils_8h.html" target="_top" xlink:title=" ">
<polygon fill="white" stroke="#666666" points="859.99,-184 773.99,-184 773.99,-165 859.99,-165 859.99,-184"/>
<text text-anchor="middle" x="816.99" y="-172" font-family="Helvetica,sans-Serif" font-size="10.00">NukiLockUtils.h</text>
</a>
</g>
</g>
<!-- Node1&#45;&gt;Node17 -->
<g id="edge25" class="edge">
<title>Node1&#45;&gt;Node17</title>
<path fill="none" stroke="#63b8ff" d="M816.99,-329.74C816.99,-304.31 816.99,-230.08 816.99,-194.69"/>
<polygon fill="#63b8ff" stroke="#63b8ff" points="820.49,-194.31 816.99,-184.31 813.49,-194.31 820.49,-194.31"/>
</g>
<!-- Node3 -->
<g id="node3" class="node">
<title>Node3</title>
<g id="a_node3"><a xlink:href="_nuki_ble_8h.html" target="_top" xlink:title=" ">
<polygon fill="white" stroke="#666666" points="502.49,-239 443.49,-239 443.49,-220 502.49,-220 502.49,-239"/>
<text text-anchor="middle" x="472.99" y="-227" font-family="Helvetica,sans-Serif" font-size="10.00">NukiBle.h</text>
</a>
</g>
</g>
<!-- Node2&#45;&gt;Node3 -->
<g id="edge2" class="edge">
<title>Node2&#45;&gt;Node3</title>
<path fill="none" stroke="#63b8ff" d="M472.99,-274.75C472.99,-267.8 472.99,-257.85 472.99,-249.13"/>
<polygon fill="#63b8ff" stroke="#63b8ff" points="476.49,-249.09 472.99,-239.09 469.49,-249.09 476.49,-249.09"/>
</g>
<!-- Node14 -->
<g id="node14" class="node">
<title>Node14</title>
<g id="a_node14"><a xlink:href="_nuki_lock_constants_8h.html" target="_top" xlink:title=" ">
<polygon fill="white" stroke="#666666" points="444.99,-129 334.99,-129 334.99,-110 444.99,-110 444.99,-129"/>
<text text-anchor="middle" x="389.99" y="-117" font-family="Helvetica,sans-Serif" font-size="10.00">NukiLockConstants.h</text>
</a>
</g>
</g>
<!-- Node2&#45;&gt;Node14 -->
<g id="edge17" class="edge">
<title>Node2&#45;&gt;Node14</title>
<path fill="none" stroke="#63b8ff" d="M439.81,-281.67C342.31,-275.54 60.14,-252.11 4.99,-184 -36.22,-133.1 204.48,-122.86 324.73,-120.9"/>
<polygon fill="#63b8ff" stroke="#63b8ff" points="324.98,-124.4 334.93,-120.75 324.87,-117.4 324.98,-124.4"/>
</g>
<!-- Node4 -->
<g id="node4" class="node">
<title>Node4</title>
<g id="a_node4"><a xlink:title=" ">
<polygon fill="#e0e0e0" stroke="#999999" points="592.49,-184 501.49,-184 501.49,-165 592.49,-165 592.49,-184"/>
<text text-anchor="middle" x="546.99" y="-172" font-family="Helvetica,sans-Serif" font-size="10.00">NimBLEDevice.h</text>
</a>
</g>
</g>
<!-- Node3&#45;&gt;Node4 -->
<g id="edge3" class="edge">
<title>Node3&#45;&gt;Node4</title>
<path fill="none" stroke="#63b8ff" d="M484.88,-219.98C496.14,-211.92 513.28,-199.65 526.7,-190.03"/>
<polygon fill="#63b8ff" stroke="#63b8ff" points="528.8,-192.84 534.89,-184.17 524.72,-187.15 528.8,-192.84"/>
</g>
<!-- Node5 -->
<g id="node5" class="node">
<title>Node5</title>
<g id="a_node5"><a xlink:href="_nuki_constants_8h.html" target="_top" xlink:title=" ">
<polygon fill="white" stroke="#666666" points="558.49,-74 469.49,-74 469.49,-55 558.49,-55 558.49,-74"/>
<text text-anchor="middle" x="513.99" y="-62" font-family="Helvetica,sans-Serif" font-size="10.00">NukiConstants.h</text>
</a>
</g>
</g>
<!-- Node3&#45;&gt;Node5 -->
<g id="edge4" class="edge">
<title>Node3&#45;&gt;Node5</title>
<path fill="none" stroke="#63b8ff" d="M475.2,-219.74C481.62,-194.2 500.43,-119.43 509.28,-84.23"/>
<polygon fill="#63b8ff" stroke="#63b8ff" points="512.73,-84.86 511.78,-74.31 505.95,-83.15 512.73,-84.86"/>
</g>
<!-- Node7 -->
<g id="node7" class="node">
<title>Node7</title>
<g id="a_node7"><a xlink:href="_nuki_data_types_8h.html" target="_top" xlink:title=" ">
<polygon fill="white" stroke="#666666" points="717.49,-129 626.49,-129 626.49,-110 717.49,-110 717.49,-129"/>
<text text-anchor="middle" x="671.99" y="-117" font-family="Helvetica,sans-Serif" font-size="10.00">NukiDataTypes.h</text>
</a>
</g>
</g>
<!-- Node3&#45;&gt;Node7 -->
<g id="edge6" class="edge">
<title>Node3&#45;&gt;Node7</title>
<path fill="none" stroke="#63b8ff" d="M502.67,-226.84C556.07,-223.16 664.95,-212.3 687.99,-184 698.61,-170.96 691.62,-151.8 683.83,-137.94"/>
<polygon fill="#63b8ff" stroke="#63b8ff" points="686.74,-136 678.51,-129.33 680.79,-139.67 686.74,-136"/>
</g>
<!-- Node8 -->
<g id="node8" class="node">
<title>Node8</title>
<g id="a_node8"><a xlink:title=" ">
<polygon fill="#e0e0e0" stroke="#999999" points="793.49,-74 736.49,-74 736.49,-55 793.49,-55 793.49,-74"/>
<text text-anchor="middle" x="764.99" y="-62" font-family="Helvetica,sans-Serif" font-size="10.00">Arduino.h</text>
</a>
</g>
</g>
<!-- Node3&#45;&gt;Node8 -->
<g id="edge9" class="edge">
<title>Node3&#45;&gt;Node8</title>
<path fill="none" stroke="#63b8ff" d="M502.92,-226.03C558.17,-220.95 673.47,-207.76 704.99,-184 738.19,-158.98 754.38,-110.45 761.06,-83.92"/>
<polygon fill="#63b8ff" stroke="#63b8ff" points="764.51,-84.56 763.36,-74.02 757.69,-82.97 764.51,-84.56"/>
</g>
<!-- Node9 -->
<g id="node9" class="node">
<title>Node9</title>
<g id="a_node9"><a xlink:title=" ">
<polygon fill="#e0e0e0" stroke="#999999" points="91.49,-184 14.49,-184 14.49,-165 91.49,-165 91.49,-184"/>
<text text-anchor="middle" x="52.99" y="-172" font-family="Helvetica,sans-Serif" font-size="10.00">Preferences.h</text>
</a>
</g>
</g>
<!-- Node3&#45;&gt;Node9 -->
<g id="edge10" class="edge">
<title>Node3&#45;&gt;Node9</title>
<path fill="none" stroke="#63b8ff" d="M443.42,-225.58C381.76,-219.37 234.78,-203.88 101.66,-184.18"/>
<polygon fill="#63b8ff" stroke="#63b8ff" points="102.1,-180.7 91.69,-182.69 101.07,-187.63 102.1,-180.7"/>
</g>
<!-- Node10 -->
<g id="node10" class="node">
<title>Node10</title>
<g id="a_node10"><a xlink:title=" ">
<polygon fill="#e0e0e0" stroke="#999999" points="194.49,-184 109.49,-184 109.49,-165 194.49,-165 194.49,-184"/>
<text text-anchor="middle" x="151.99" y="-172" font-family="Helvetica,sans-Serif" font-size="10.00">esp_task_wdt.h</text>
</a>
</g>
</g>
<!-- Node3&#45;&gt;Node10 -->
<g id="edge11" class="edge">
<title>Node3&#45;&gt;Node10</title>
<path fill="none" stroke="#63b8ff" d="M443.37,-223.61C389.04,-214.64 272.81,-195.45 204.71,-184.2"/>
<polygon fill="#63b8ff" stroke="#63b8ff" points="205.06,-180.71 194.62,-182.54 203.92,-187.62 205.06,-180.71"/>
</g>
<!-- Node11 -->
<g id="node11" class="node">
<title>Node11</title>
<g id="a_node11"><a xlink:title=" ">
<polygon fill="#e0e0e0" stroke="#999999" points="294.99,-184 212.99,-184 212.99,-165 294.99,-165 294.99,-184"/>
<text text-anchor="middle" x="253.99" y="-172" font-family="Helvetica,sans-Serif" font-size="10.00">BleInterfaces.h</text>
</a>
</g>
</g>
<!-- Node3&#45;&gt;Node11 -->
<g id="edge12" class="edge">
<title>Node3&#45;&gt;Node11</title>
<path fill="none" stroke="#63b8ff" d="M443.46,-221.35C406.38,-212.38 342.42,-196.9 299.18,-186.44"/>
<polygon fill="#63b8ff" stroke="#63b8ff" points="299.75,-182.97 289.21,-184.02 298.1,-189.78 299.75,-182.97"/>
</g>
<!-- Node12 -->
<g id="node12" class="node">
<title>Node12</title>
<g id="a_node12"><a xlink:title=" ">
<polygon fill="#e0e0e0" stroke="#999999" points="444.99,-184 312.99,-184 312.99,-165 444.99,-165 444.99,-184"/>
<text text-anchor="middle" x="378.99" y="-172" font-family="Helvetica,sans-Serif" font-size="10.00">sodium/crypto_secretbox.h</text>
</a>
</g>
</g>
<!-- Node3&#45;&gt;Node12 -->
<g id="edge13" class="edge">
<title>Node3&#45;&gt;Node12</title>
<path fill="none" stroke="#63b8ff" d="M457.89,-219.98C443.18,-211.69 420.57,-198.94 403.32,-189.22"/>
<polygon fill="#63b8ff" stroke="#63b8ff" points="404.8,-186.03 394.37,-184.17 401.36,-192.13 404.8,-186.03"/>
</g>
<!-- Node13 -->
<g id="node13" class="node">
<title>Node13</title>
<g id="a_node13"><a xlink:href="_nuki_ble_8hpp.html" target="_top" xlink:title=" ">
<polygon fill="white" stroke="#666666" points="679.49,-184 610.49,-184 610.49,-165 679.49,-165 679.49,-184"/>
<text text-anchor="middle" x="644.99" y="-172" font-family="Helvetica,sans-Serif" font-size="10.00">NukiBle.hpp</text>
</a>
</g>
</g>
<!-- Node3&#45;&gt;Node13 -->
<g id="edge14" class="edge">
<title>Node3&#45;&gt;Node13</title>
<path fill="none" stroke="#63b8ff" d="M500.63,-219.98C529.51,-211.09 575.01,-197.07 607.2,-187.15"/>
<polygon fill="#63b8ff" stroke="#63b8ff" points="608.62,-190.37 617.14,-184.08 606.56,-183.68 608.62,-190.37"/>
</g>
<!-- Node6 -->
<g id="node6" class="node">
<title>Node6</title>
<g id="a_node6"><a xlink:title=" ">
<polygon fill="#e0e0e0" stroke="#999999" points="514.99,-19 428.99,-19 428.99,0 514.99,0 514.99,-19"/>
<text text-anchor="middle" x="471.99" y="-7" font-family="Helvetica,sans-Serif" font-size="10.00">NimBLEUUID.h</text>
</a>
</g>
</g>
<!-- Node5&#45;&gt;Node6 -->
<g id="edge5" class="edge">
<title>Node5&#45;&gt;Node6</title>
<path fill="none" stroke="#63b8ff" d="M507.06,-54.75C501.13,-47.26 492.42,-36.28 485.17,-27.13"/>
<polygon fill="#63b8ff" stroke="#63b8ff" points="487.75,-24.75 478.8,-19.09 482.27,-29.1 487.75,-24.75"/>
</g>
<!-- Node7&#45;&gt;Node5 -->
<g id="edge8" class="edge">
<title>Node7&#45;&gt;Node5</title>
<path fill="none" stroke="#63b8ff" d="M646.61,-109.98C620.2,-101.13 578.65,-87.19 549.1,-77.28"/>
<polygon fill="#63b8ff" stroke="#63b8ff" points="550.17,-73.94 539.58,-74.08 547.95,-80.58 550.17,-73.94"/>
</g>
<!-- Node7&#45;&gt;Node8 -->
<g id="edge7" class="edge">
<title>Node7&#45;&gt;Node8</title>
<path fill="none" stroke="#63b8ff" d="M686.94,-109.98C701.49,-101.69 723.86,-88.94 740.93,-79.22"/>
<polygon fill="#63b8ff" stroke="#63b8ff" points="742.83,-82.16 749.78,-74.17 739.36,-76.08 742.83,-82.16"/>
</g>
<!-- Node13&#45;&gt;Node5 -->
<g id="edge15" class="edge">
<title>Node13&#45;&gt;Node5</title>
<path fill="none" stroke="#63b8ff" d="M634.27,-164.66C611.9,-146.22 560.02,-103.45 532.27,-80.57"/>
<polygon fill="#63b8ff" stroke="#63b8ff" points="534.44,-77.82 524.5,-74.16 529.99,-83.22 534.44,-77.82"/>
</g>
<!-- Node13&#45;&gt;Node7 -->
<g id="edge16" class="edge">
<title>Node13&#45;&gt;Node7</title>
<path fill="none" stroke="#63b8ff" d="M649.45,-164.75C653.11,-157.57 658.4,-147.18 662.94,-138.27"/>
<polygon fill="#63b8ff" stroke="#63b8ff" points="666.2,-139.59 667.62,-129.09 659.96,-136.41 666.2,-139.59"/>
</g>
<!-- Node14&#45;&gt;Node5 -->
<g id="edge19" class="edge">
<title>Node14&#45;&gt;Node5</title>
<path fill="none" stroke="#63b8ff" d="M409.92,-109.98C430.04,-101.38 461.37,-87.99 484.4,-78.15"/>
<polygon fill="#63b8ff" stroke="#63b8ff" points="485.89,-81.32 493.71,-74.17 483.14,-74.88 485.89,-81.32"/>
</g>
<!-- Node14&#45;&gt;Node6 -->
<g id="edge18" class="edge">
<title>Node14&#45;&gt;Node6</title>
<path fill="none" stroke="#63b8ff" d="M396.7,-109.66C410.35,-91.69 441.52,-50.64 459.18,-27.38"/>
<polygon fill="#63b8ff" stroke="#63b8ff" points="462.16,-29.24 465.42,-19.16 456.59,-25.01 462.16,-29.24"/>
</g>
<!-- Node15&#45;&gt;Node5 -->
<g id="edge23" class="edge">
<title>Node15&#45;&gt;Node5</title>
<path fill="none" stroke="#63b8ff" d="M907.05,-164.74C900.15,-150.56 884.47,-122.88 861.99,-110 813.18,-82.03 653.59,-71.25 568.53,-67.42"/>
<polygon fill="#63b8ff" stroke="#63b8ff" points="568.68,-63.93 558.54,-66.99 568.38,-70.92 568.68,-63.93"/>
</g>
<!-- Node15&#45;&gt;Node7 -->
<g id="edge22" class="edge">
<title>Node15&#45;&gt;Node7</title>
<path fill="none" stroke="#63b8ff" d="M878.26,-166.24C837.53,-157.21 767.61,-141.7 720.61,-131.28"/>
<polygon fill="#63b8ff" stroke="#63b8ff" points="721.17,-127.82 710.65,-129.07 719.66,-134.65 721.17,-127.82"/>
</g>
<!-- Node15&#45;&gt;Node8 -->
<g id="edge21" class="edge">
<title>Node15&#45;&gt;Node8</title>
<path fill="none" stroke="#63b8ff" d="M911.43,-164.92C911.63,-151.48 910.01,-125.42 895.99,-110 872.37,-84 832.98,-73.19 803.55,-68.69"/>
<polygon fill="#63b8ff" stroke="#63b8ff" points="803.98,-65.21 793.6,-67.35 803.04,-72.15 803.98,-65.21"/>
</g>
<!-- Node16 -->
<g id="node16" class="node">
<title>Node16</title>
<g id="a_node16"><a xlink:title=" ">
<polygon fill="#e0e0e0" stroke="#999999" points="853.49,-129 812.49,-129 812.49,-110 853.49,-110 853.49,-129"/>
<text text-anchor="middle" x="832.99" y="-117" font-family="Helvetica,sans-Serif" font-size="10.00">bitset</text>
</a>
</g>
</g>
<!-- Node15&#45;&gt;Node16 -->
<g id="edge24" class="edge">
<title>Node15&#45;&gt;Node16</title>
<path fill="none" stroke="#63b8ff" d="M898.46,-164.98C886.59,-156.92 868.53,-144.65 854.38,-135.03"/>
<polygon fill="#63b8ff" stroke="#63b8ff" points="855.99,-131.9 845.75,-129.17 852.06,-137.69 855.99,-131.9"/>
</g>
<!-- Node17&#45;&gt;Node7 -->
<g id="edge27" class="edge">
<title>Node17&#45;&gt;Node7</title>
<path fill="none" stroke="#63b8ff" d="M793.7,-164.98C769.74,-156.23 732.21,-142.51 705.16,-132.62"/>
<polygon fill="#63b8ff" stroke="#63b8ff" points="706.31,-129.32 695.72,-129.17 703.91,-135.89 706.31,-129.32"/>
</g>
<!-- Node17&#45;&gt;Node8 -->
<g id="edge26" class="edge">
<title>Node17&#45;&gt;Node8</title>
<path fill="none" stroke="#63b8ff" d="M812.74,-164.66C804.2,-146.93 784.84,-106.73 773.57,-83.32"/>
<polygon fill="#63b8ff" stroke="#63b8ff" points="776.66,-81.65 769.16,-74.16 770.35,-84.69 776.66,-81.65"/>
</g>
<!-- Node17&#45;&gt;Node14 -->
<g id="edge28" class="edge">
<title>Node17&#45;&gt;Node14</title>
<path fill="none" stroke="#63b8ff" d="M773.7,-168.13C698.55,-158.8 543.54,-139.56 455.27,-128.6"/>
<polygon fill="#63b8ff" stroke="#63b8ff" points="455.47,-125.1 445.11,-127.34 454.6,-132.05 455.47,-125.1"/>
</g>
<!-- Node17&#45;&gt;Node16 -->
<g id="edge29" class="edge">
<title>Node17&#45;&gt;Node16</title>
<path fill="none" stroke="#63b8ff" d="M819.64,-164.75C821.76,-157.72 824.81,-147.62 827.46,-138.84"/>
<polygon fill="#63b8ff" stroke="#63b8ff" points="830.86,-139.67 830.4,-129.09 824.16,-137.65 830.86,-139.67"/>
</g>
</g>
</svg>
        <g id="navigator" transform="translate(0 0)" fill="#404254">
                <rect fill="#f2f5e9" fill-opacity="0.5" stroke="#606060" stroke-width=".5" x="0" y="0" width="60" height="60"/>
                <use id="zoomplus" xlink:href="#zoomPlus" x="17" y="9" onmousedown="handleZoom(evt,'in')"/>
                <use id="zoomminus" xlink:href="#zoomMin" x="42" y="9" onmousedown="handleZoom(evt,'out')"/>
                <use id="reset" xlink:href="#resetDef" x="30" y="36" onmousedown="handleReset()"/>
                <g id="arrowUp" xlink:href="#dirArrow" transform="translate(30 24)" onmousedown="handlePan(0,-1)">
                  <use xlink:href="#rim" fill="#404040">
                        <set attributeName="fill" to="#808080" begin="arrowUp.mouseover" end="arrowUp.mouseout"/>
                  </use>
                  <path fill="none" stroke="white" stroke-width="1.5" d="M0,-3.0v7 M-2.5,-0.5L0,-3.0L2.5,-0.5"/>
                </g>
                <g id="arrowRight" xlink:href="#dirArrow" transform="rotate(90) translate(36 -43)" onmousedown="handlePan(1,0)">
                  <use xlink:href="#rim" fill="#404040">
                        <set attributeName="fill" to="#808080" begin="arrowRight.mouseover" end="arrowRight.mouseout"/>
                  </use>
                  <path fill="none" stroke="white" stroke-width="1.5" d="M0,-3.0v7 M-2.5,-0.5L0,-3.0L2.5,-0.5"/>
                </g>
                <g id="arrowDown" xlink:href="#dirArrow" transform="rotate(180) translate(-30 -48)" onmousedown="handlePan(0,1)">
                  <use xlink:href="#rim" fill="#404040">
                        <set attributeName="fill" to="#808080" begin="arrowDown.mouseover" end="arrowDown.mouseout"/>
                  </use>
                  <path fill="none" stroke="white" stroke-width="1.5" d="M0,-3.0v7 M-2.5,-0.5L0,-3.0L2.5,-0.5"/>
                </g>
                <g id="arrowLeft" xlink:href="#dirArrow" transform="rotate(270) translate(-36 17)" onmousedown="handlePan(-1,0)">
                  <use xlink:href="#rim" fill="#404040">
                        <set attributeName="fill" to="#808080" begin="arrowLeft.mouseover" end="arrowLeft.mouseout"/>
                  </use>
                  <path fill="none" stroke="white" stroke-width="1.5" d="M0,-3.0v7 M-2.5,-0.5L0,-3.0L2.5,-0.5"/>
                </g>
        </g>
        <svg viewBox="0 0 15 15" width="100%" height="30px" preserveAspectRatio="xMaxYMin meet">
         <g id="arrow_out" transform="scale(0.3 0.3)">
          <a xlink:href="_nuki_lock_8cpp__incl_org.svg" target="_base">
           <rect id="button" ry="5" rx="5" y="6" x="6" height="38" width="38"
                fill="#f2f5e9" fill-opacity="0.5" stroke="#606060" stroke-width="1.0"/>
           <path id="arrow"
             d="M 11.500037,31.436501 C 11.940474,20.09759 22.043105,11.32322 32.158766,21.979434 L 37.068811,17.246167 C 37.068811,17.246167 37.088388,32 37.088388,32 L 22.160133,31.978069 C 22.160133,31.978069 26.997745,27.140456 26.997745,27.140456 C 18.528582,18.264221 13.291696,25.230495 11.500037,31.436501 z"
             style="fill:#404040;"/>
          </a>
         </g>
        </svg>
</svg>
