<?xml version="1.0" encoding="UTF-8" standalone="no"?>
<!DOCTYPE svg PUBLIC "-//W3C//DTD SVG 1.1//EN"
 "http://www.w3.org/Graphics/SVG/1.1/DTD/svg11.dtd">
<!-- Generated by graphviz version 12.2.1 (20241206.2353)
 -->
<!-- Title: src/NukiOpenerUtils.cpp Pages: 1 -->
<svg width="338pt" height="248pt"
 viewBox="0.00 0.00 338.25 248.25" xmlns="http://www.w3.org/2000/svg" xmlns:xlink="http://www.w3.org/1999/xlink">
<g id="graph0" class="graph" transform="scale(1 1) rotate(0) translate(4 244.25)">
<title>src/NukiOpenerUtils.cpp</title>
<!-- Node1 -->
<g id="Node000001" class="node">
<title>Node1</title>
<g id="a_Node000001"><a xlink:title=" ">
<polygon fill="#999999" stroke="#666666" points="211.5,-240.25 89,-240.25 89,-221 211.5,-221 211.5,-240.25"/>
<text text-anchor="middle" x="150.25" y="-226.75" font-family="Helvetica,sans-Serif" font-size="10.00">src/NukiOpenerUtils.cpp</text>
</a>
</g>
</g>
<!-- Node2 -->
<g id="Node000002" class="node">
<title>Node2</title>
<g id="a_Node000002"><a xlink:href="_nuki_opener_utils_8h.html" target="_top" xlink:title=" ">
<polygon fill="white" stroke="#666666" points="198,-185 102.5,-185 102.5,-165.75 198,-165.75 198,-185"/>
<text text-anchor="middle" x="150.25" y="-171.5" font-family="Helvetica,sans-Serif" font-size="10.00">NukiOpenerUtils.h</text>
</a>
</g>
</g>
<!-- Node1&#45;&gt;Node2 -->
<g id="edge1_Node000001_Node000002" class="edge">
<title>Node1&#45;&gt;Node2</title>
<g id="a_edge1_Node000001_Node000002"><a xlink:title=" ">
<path fill="none" stroke="#63b8ff" d="M150.25,-220.83C150.25,-214.32 150.25,-205.17 150.25,-196.87"/>
<polygon fill="#63b8ff" stroke="#63b8ff" points="153.75,-196.87 150.25,-186.87 146.75,-196.87 153.75,-196.87"/>
</a>
</g>
</g>
<!-- Node3 -->
<g id="Node000003" class="node">
<title>Node3</title>
<g id="a_Node000003"><a xlink:title=" ">
<polygon fill="#e0e0e0" stroke="#999999" points="56.5,-74.5 0,-74.5 0,-55.25 56.5,-55.25 56.5,-74.5"/>
<text text-anchor="middle" x="28.25" y="-61" font-family="Helvetica,sans-Serif" font-size="10.00">Arduino.h</text>
</a>
</g>
</g>
<!-- Node2&#45;&gt;Node3 -->
<g id="edge2_Node000002_Node000003" class="edge">
<title>Node2&#45;&gt;Node3</title>
<g id="a_edge2_Node000002_Node000003"><a xlink:title=" ">
<path fill="none" stroke="#63b8ff" d="M102.08,-167.6C78.25,-161.67 51.23,-150.56 35.25,-129.75 25.78,-117.42 24.55,-99.59 25.39,-85.9"/>
<polygon fill="#63b8ff" stroke="#63b8ff" points="28.83,-86.58 26.41,-76.27 21.87,-85.85 28.83,-86.58"/>
</a>
</g>
</g>
<!-- Node4 -->
<g id="Node000004" class="node">
<title>Node4</title>
<g id="a_Node000004"><a xlink:href="_nuki_data_types_8h.html" target="_top" xlink:title=" ">
<polygon fill="white" stroke="#666666" points="134.38,-129.75 44.12,-129.75 44.12,-110.5 134.38,-110.5 134.38,-129.75"/>
<text text-anchor="middle" x="89.25" y="-116.25" font-family="Helvetica,sans-Serif" font-size="10.00">NukiDataTypes.h</text>
</a>
</g>
</g>
<!-- Node2&#45;&gt;Node4 -->
<g id="edge3_Node000002_Node000004" class="edge">
<title>Node2&#45;&gt;Node4</title>
<g id="a_edge3_Node000002_Node000004"><a xlink:title=" ">
<path fill="none" stroke="#63b8ff" d="M139.9,-165.34C131.17,-157.72 118.46,-146.62 107.95,-137.45"/>
<polygon fill="#63b8ff" stroke="#63b8ff" points="110.42,-134.96 100.59,-131.02 105.82,-140.23 110.42,-134.96"/>
</a>
</g>
</g>
<!-- Node8 -->
<g id="Node000008" class="node">
<title>Node8</title>
<g id="a_Node000008"><a xlink:href="_nuki_opener_constants_8h.html" target="_top" xlink:title=" ">
<polygon fill="white" stroke="#666666" points="272,-129.75 152.5,-129.75 152.5,-110.5 272,-110.5 272,-129.75"/>
<text text-anchor="middle" x="212.25" y="-116.25" font-family="Helvetica,sans-Serif" font-size="10.00">NukiOpenerConstants.h</text>
</a>
</g>
</g>
<!-- Node2&#45;&gt;Node8 -->
<g id="edge8_Node000002_Node000008" class="edge">
<title>Node2&#45;&gt;Node8</title>
<g id="a_edge8_Node000002_Node000008"><a xlink:title=" ">
<path fill="none" stroke="#63b8ff" d="M160.77,-165.34C169.64,-157.72 182.56,-146.62 193.24,-137.45"/>
<polygon fill="#63b8ff" stroke="#63b8ff" points="195.43,-140.18 200.74,-131.01 190.87,-134.87 195.43,-140.18"/>
</a>
</g>
</g>
<!-- Node9 -->
<g id="Node000009" class="node">
<title>Node9</title>
<g id="a_Node000009"><a xlink:title=" ">
<polygon fill="#e0e0e0" stroke="#999999" points="330.25,-129.75 290.25,-129.75 290.25,-110.5 330.25,-110.5 330.25,-129.75"/>
<text text-anchor="middle" x="310.25" y="-116.25" font-family="Helvetica,sans-Serif" font-size="10.00">bitset</text>
</a>
</g>
</g>
<!-- Node2&#45;&gt;Node9 -->
<g id="edge11_Node000002_Node000009" class="edge">
<title>Node2&#45;&gt;Node9</title>
<g id="a_edge11_Node000002_Node000009"><a xlink:title=" ">
<path fill="none" stroke="#63b8ff" d="M177.39,-165.34C205.69,-155.92 249.97,-141.19 279.54,-131.35"/>
<polygon fill="#63b8ff" stroke="#63b8ff" points="280.27,-134.79 288.65,-128.31 278.05,-128.15 280.27,-134.79"/>
</a>
</g>
</g>
<!-- Node4&#45;&gt;Node3 -->
<g id="edge4_Node000004_Node000003" class="edge">
<title>Node4&#45;&gt;Node3</title>
<g id="a_edge4_Node000004_Node000003"><a xlink:title=" ">
<path fill="none" stroke="#63b8ff" d="M78.9,-110.09C70.17,-102.47 57.46,-91.37 46.95,-82.2"/>
<polygon fill="#63b8ff" stroke="#63b8ff" points="49.42,-79.71 39.59,-75.77 44.82,-84.98 49.42,-79.71"/>
</a>
</g>
</g>
<!-- Node5 -->
<g id="Node000005" class="node">
<title>Node5</title>
<g id="a_Node000005"><a xlink:href="_nuki_constants_8h.html" target="_top" xlink:title=" ">
<polygon fill="white" stroke="#666666" points="179.25,-74.5 91.25,-74.5 91.25,-55.25 179.25,-55.25 179.25,-74.5"/>
<text text-anchor="middle" x="135.25" y="-61" font-family="Helvetica,sans-Serif" font-size="10.00">NukiConstants.h</text>
</a>
</g>
</g>
<!-- Node4&#45;&gt;Node5 -->
<g id="edge5_Node000004_Node000005" class="edge">
<title>Node4&#45;&gt;Node5</title>
<g id="a_edge5_Node000004_Node000005"><a xlink:title=" ">
<path fill="none" stroke="#63b8ff" d="M96.85,-110.33C103.13,-103.05 112.26,-92.48 120.05,-83.48"/>
<polygon fill="#63b8ff" stroke="#63b8ff" points="122.61,-85.86 126.5,-76 117.31,-81.28 122.61,-85.86"/>
</a>
</g>
</g>
<!-- Node6 -->
<g id="Node000006" class="node">
<title>Node6</title>
<g id="a_Node000006"><a xlink:title=" ">
<polygon fill="#e0e0e0" stroke="#999999" points="151.88,-19.25 106.62,-19.25 106.62,0 151.88,0 151.88,-19.25"/>
<text text-anchor="middle" x="129.25" y="-5.75" font-family="Helvetica,sans-Serif" font-size="10.00">cstdint</text>
</a>
</g>
</g>
<!-- Node5&#45;&gt;Node6 -->
<g id="edge6_Node000005_Node000006" class="edge">
<title>Node5&#45;&gt;Node6</title>
<g id="a_edge6_Node000005_Node000006"><a xlink:title=" ">
<path fill="none" stroke="#63b8ff" d="M134.26,-55.08C133.52,-48.49 132.47,-39.21 131.53,-30.82"/>
<polygon fill="#63b8ff" stroke="#63b8ff" points="135.03,-30.66 130.43,-21.11 128.07,-31.44 135.03,-30.66"/>
</a>
</g>
</g>
<!-- Node7 -->
<g id="Node000007" class="node">
<title>Node7</title>
<g id="a_Node000007"><a xlink:title=" ">
<polygon fill="#e0e0e0" stroke="#999999" points="254.75,-19.25 169.75,-19.25 169.75,0 254.75,0 254.75,-19.25"/>
<text text-anchor="middle" x="212.25" y="-5.75" font-family="Helvetica,sans-Serif" font-size="10.00">NimBLEUUID.h</text>
</a>
</g>
</g>
<!-- Node5&#45;&gt;Node7 -->
<g id="edge7_Node000005_Node000007" class="edge">
<title>Node5&#45;&gt;Node7</title>
<g id="a_edge7_Node000005_Node000007"><a xlink:title=" ">
<path fill="none" stroke="#63b8ff" d="M148.31,-54.84C159.71,-46.96 176.48,-35.36 189.99,-26.02"/>
<polygon fill="#63b8ff" stroke="#63b8ff" points="191.65,-29.13 197.88,-20.56 187.66,-23.37 191.65,-29.13"/>
</a>
</g>
</g>
<!-- Node8&#45;&gt;Node5 -->
<g id="edge10_Node000008_Node000005" class="edge">
<title>Node8&#45;&gt;Node5</title>
<g id="a_edge10_Node000008_Node000005"><a xlink:title=" ">
<path fill="none" stroke="#63b8ff" d="M199.19,-110.09C187.79,-102.21 171.02,-90.61 157.51,-81.27"/>
<polygon fill="#63b8ff" stroke="#63b8ff" points="159.84,-78.62 149.62,-75.81 155.85,-84.38 159.84,-78.62"/>
</a>
</g>
</g>
<!-- Node8&#45;&gt;Node7 -->
<g id="edge9_Node000008_Node000007" class="edge">
<title>Node8&#45;&gt;Node7</title>
<g id="a_edge9_Node000008_Node000007"><a xlink:title=" ">
<path fill="none" stroke="#63b8ff" d="M212.25,-110.25C212.25,-93 212.25,-54.58 212.25,-30.81"/>
<polygon fill="#63b8ff" stroke="#63b8ff" points="215.75,-31.14 212.25,-21.14 208.75,-31.14 215.75,-31.14"/>
</a>
</g>
</g>
</g>
</svg>
