<?xml version="1.0" encoding="UTF-8" standalone="no"?>
<!DOCTYPE svg PUBLIC "-//W3C//DTD SVG 1.1//EN"
 "http://www.w3.org/Graphics/SVG/1.1/DTD/svg11.dtd">
<!-- Generated by graphviz version 7.1.0 (20230121.1956)
 -->
<!-- Title: src/NukiBle.h Pages: 1 -->
<svg width="726pt" height="247pt"
 viewBox="0.00 0.00 725.57 247.00" xmlns="http://www.w3.org/2000/svg" xmlns:xlink="http://www.w3.org/1999/xlink">
<g id="graph0" class="graph" transform="scale(1 1) rotate(0) translate(4 243)">
<title>src/NukiBle.h</title>
<!-- Node1 -->
<g id="node1" class="node">
<title>Node1</title>
<g id="a_node1"><a xlink:title=" ">
<polygon fill="#999999" stroke="#666666" points="349,-239 274,-239 274,-220 349,-220 349,-239"/>
<text text-anchor="middle" x="311.5" y="-227" font-family="Helvetica,sans-Serif" font-size="10.00">src/NukiBle.h</text>
</a>
</g>
</g>
<!-- Node2 -->
<g id="node2" class="node">
<title>Node2</title>
<g id="a_node2"><a xlink:title=" ">
<polygon fill="#e0e0e0" stroke="#999999" points="91,-184 0,-184 0,-165 91,-165 91,-184"/>
<text text-anchor="middle" x="45.5" y="-172" font-family="Helvetica,sans-Serif" font-size="10.00">NimBLEDevice.h</text>
</a>
</g>
</g>
<!-- Node1&#45;&gt;Node2 -->
<g id="edge1" class="edge">
<title>Node1&#45;&gt;Node2</title>
<path fill="none" stroke="#63b8ff" d="M273.67,-220.96C228.64,-211.99 153.04,-196.93 101.29,-186.62"/>
<polygon fill="#63b8ff" stroke="#63b8ff" points="102.28,-183.24 91.79,-184.72 100.91,-190.11 102.28,-183.24"/>
</g>
<!-- Node3 -->
<g id="node3" class="node">
<title>Node3</title>
<g id="a_node3"><a xlink:href="_nuki_constants_8h.html" target="_top" xlink:title=" ">
<polygon fill="white" stroke="#666666" points="312,-74 223,-74 223,-55 312,-55 312,-74"/>
<text text-anchor="middle" x="267.5" y="-62" font-family="Helvetica,sans-Serif" font-size="10.00">NukiConstants.h</text>
</a>
</g>
</g>
<!-- Node1&#45;&gt;Node3 -->
<g id="edge2" class="edge">
<title>Node1&#45;&gt;Node3</title>
<path fill="none" stroke="#63b8ff" d="M349.39,-228.68C457.86,-228.51 758.88,-222.9 712.5,-165 664.33,-104.87 432.12,-78.65 323.61,-69.54"/>
<polygon fill="#63b8ff" stroke="#63b8ff" points="324.02,-66.06 313.76,-68.74 323.45,-73.04 324.02,-66.06"/>
</g>
<!-- Node5 -->
<g id="node5" class="node">
<title>Node5</title>
<g id="a_node5"><a xlink:href="_nuki_data_types_8h.html" target="_top" xlink:title=" ">
<polygon fill="white" stroke="#666666" points="239,-129 148,-129 148,-110 239,-110 239,-129"/>
<text text-anchor="middle" x="193.5" y="-117" font-family="Helvetica,sans-Serif" font-size="10.00">NukiDataTypes.h</text>
</a>
</g>
</g>
<!-- Node1&#45;&gt;Node5 -->
<g id="edge4" class="edge">
<title>Node1&#45;&gt;Node5</title>
<path fill="none" stroke="#63b8ff" d="M273.65,-227.48C241.95,-224.38 198.48,-214.39 176.5,-184 166.89,-170.72 173.42,-152.36 180.99,-138.79"/>
<polygon fill="#63b8ff" stroke="#63b8ff" points="183.89,-140.76 186.21,-130.42 177.95,-137.06 183.89,-140.76"/>
</g>
<!-- Node6 -->
<g id="node6" class="node">
<title>Node6</title>
<g id="a_node6"><a xlink:title=" ">
<polygon fill="#e0e0e0" stroke="#999999" points="177,-74 120,-74 120,-55 177,-55 177,-74"/>
<text text-anchor="middle" x="148.5" y="-62" font-family="Helvetica,sans-Serif" font-size="10.00">Arduino.h</text>
</a>
</g>
</g>
<!-- Node1&#45;&gt;Node6 -->
<g id="edge7" class="edge">
<title>Node1&#45;&gt;Node6</title>
<path fill="none" stroke="#63b8ff" d="M273.77,-224.65C242.58,-219.75 198.66,-208.72 168.5,-184 141.05,-161.5 134.59,-145.27 138.5,-110 139.41,-101.83 141.22,-92.98 143.06,-85.33"/>
<polygon fill="#63b8ff" stroke="#63b8ff" points="146.42,-86.29 145.55,-75.73 139.65,-84.53 146.42,-86.29"/>
</g>
<!-- Node7 -->
<g id="node7" class="node">
<title>Node7</title>
<g id="a_node7"><a xlink:title=" ">
<polygon fill="#e0e0e0" stroke="#999999" points="350,-184 273,-184 273,-165 350,-165 350,-184"/>
<text text-anchor="middle" x="311.5" y="-172" font-family="Helvetica,sans-Serif" font-size="10.00">Preferences.h</text>
</a>
</g>
</g>
<!-- Node1&#45;&gt;Node7 -->
<g id="edge8" class="edge">
<title>Node1&#45;&gt;Node7</title>
<path fill="none" stroke="#63b8ff" d="M311.5,-219.75C311.5,-213.27 311.5,-204.16 311.5,-195.9"/>
<polygon fill="#63b8ff" stroke="#63b8ff" points="315,-195.96 311.5,-185.96 308,-195.96 315,-195.96"/>
</g>
<!-- Node8 -->
<g id="node8" class="node">
<title>Node8</title>
<g id="a_node8"><a xlink:title=" ">
<polygon fill="#e0e0e0" stroke="#999999" points="453,-184 368,-184 368,-165 453,-165 453,-184"/>
<text text-anchor="middle" x="410.5" y="-172" font-family="Helvetica,sans-Serif" font-size="10.00">esp_task_wdt.h</text>
</a>
</g>
</g>
<!-- Node1&#45;&gt;Node8 -->
<g id="edge9" class="edge">
<title>Node1&#45;&gt;Node8</title>
<path fill="none" stroke="#63b8ff" d="M328.29,-219.51C343.6,-211.31 366.47,-199.07 384.2,-189.58"/>
<polygon fill="#63b8ff" stroke="#63b8ff" points="385.46,-192.88 392.62,-185.07 382.15,-186.71 385.46,-192.88"/>
</g>
<!-- Node9 -->
<g id="node9" class="node">
<title>Node9</title>
<g id="a_node9"><a xlink:title=" ">
<polygon fill="#e0e0e0" stroke="#999999" points="553.5,-184 471.5,-184 471.5,-165 553.5,-165 553.5,-184"/>
<text text-anchor="middle" x="512.5" y="-172" font-family="Helvetica,sans-Serif" font-size="10.00">BleInterfaces.h</text>
</a>
</g>
</g>
<!-- Node1&#45;&gt;Node9 -->
<g id="edge10" class="edge">
<title>Node1&#45;&gt;Node9</title>
<path fill="none" stroke="#63b8ff" d="M345.6,-219.51C379.19,-210.65 430.71,-197.07 467.62,-187.33"/>
<polygon fill="#63b8ff" stroke="#63b8ff" points="468.33,-190.77 477.11,-184.83 466.55,-184 468.33,-190.77"/>
</g>
<!-- Node10 -->
<g id="node10" class="node">
<title>Node10</title>
<g id="a_node10"><a xlink:title=" ">
<polygon fill="#e0e0e0" stroke="#999999" points="703.5,-184 571.5,-184 571.5,-165 703.5,-165 703.5,-184"/>
<text text-anchor="middle" x="637.5" y="-172" font-family="Helvetica,sans-Serif" font-size="10.00">sodium/crypto_secretbox.h</text>
</a>
</g>
</g>
<!-- Node1&#45;&gt;Node10 -->
<g id="edge11" class="edge">
<title>Node1&#45;&gt;Node10</title>
<path fill="none" stroke="#63b8ff" d="M349.21,-222.37C403.4,-213.56 504.1,-197.19 570.97,-186.32"/>
<polygon fill="#63b8ff" stroke="#63b8ff" points="571.41,-189.79 580.72,-184.73 570.29,-182.88 571.41,-189.79"/>
</g>
<!-- Node11 -->
<g id="node11" class="node">
<title>Node11</title>
<g id="a_node11"><a xlink:href="_nuki_ble_8hpp.html" target="_top" xlink:title=" ">
<polygon fill="white" stroke="#666666" points="255,-184 186,-184 186,-165 255,-165 255,-184"/>
<text text-anchor="middle" x="220.5" y="-172" font-family="Helvetica,sans-Serif" font-size="10.00">NukiBle.hpp</text>
</a>
</g>
</g>
<!-- Node1&#45;&gt;Node11 -->
<g id="edge12" class="edge">
<title>Node1&#45;&gt;Node11</title>
<path fill="none" stroke="#63b8ff" d="M296.06,-219.51C282.25,-211.47 261.75,-199.53 245.59,-190.11"/>
<polygon fill="#63b8ff" stroke="#63b8ff" points="247.42,-187.13 237.02,-185.12 243.9,-193.18 247.42,-187.13"/>
</g>
<!-- Node4 -->
<g id="node4" class="node">
<title>Node4</title>
<g id="a_node4"><a xlink:title=" ">
<polygon fill="#e0e0e0" stroke="#999999" points="310.5,-19 224.5,-19 224.5,0 310.5,0 310.5,-19"/>
<text text-anchor="middle" x="267.5" y="-7" font-family="Helvetica,sans-Serif" font-size="10.00">NimBLEUUID.h</text>
</a>
</g>
</g>
<!-- Node3&#45;&gt;Node4 -->
<g id="edge3" class="edge">
<title>Node3&#45;&gt;Node4</title>
<path fill="none" stroke="#63b8ff" d="M267.5,-54.75C267.5,-48.27 267.5,-39.16 267.5,-30.9"/>
<polygon fill="#63b8ff" stroke="#63b8ff" points="271,-30.96 267.5,-20.96 264,-30.96 271,-30.96"/>
</g>
<!-- Node5&#45;&gt;Node3 -->
<g id="edge6" class="edge">
<title>Node5&#45;&gt;Node3</title>
<path fill="none" stroke="#63b8ff" d="M206.05,-109.51C216.96,-101.7 233,-90.21 245.96,-80.93"/>
<polygon fill="#63b8ff" stroke="#63b8ff" points="247.81,-83.91 253.9,-75.24 243.73,-78.22 247.81,-83.91"/>
</g>
<!-- Node5&#45;&gt;Node6 -->
<g id="edge5" class="edge">
<title>Node5&#45;&gt;Node6</title>
<path fill="none" stroke="#63b8ff" d="M186.07,-109.75C179.92,-102.5 170.99,-91.98 163.37,-83.02"/>
<polygon fill="#63b8ff" stroke="#63b8ff" points="166.21,-80.95 157.07,-75.6 160.88,-85.48 166.21,-80.95"/>
</g>
<!-- Node11&#45;&gt;Node3 -->
<g id="edge13" class="edge">
<title>Node11&#45;&gt;Node3</title>
<path fill="none" stroke="#63b8ff" d="M226.75,-164.65C232.71,-155.91 241.61,-142.01 247.5,-129 253.93,-114.8 259.14,-97.93 262.63,-85.15"/>
<polygon fill="#63b8ff" stroke="#63b8ff" points="265.92,-86.4 265.04,-75.84 259.14,-84.64 265.92,-86.4"/>
</g>
<!-- Node11&#45;&gt;Node5 -->
<g id="edge14" class="edge">
<title>Node11&#45;&gt;Node5</title>
<path fill="none" stroke="#63b8ff" d="M216.04,-164.75C212.55,-157.88 207.55,-148.08 203.15,-139.45"/>
<polygon fill="#63b8ff" stroke="#63b8ff" points="206.4,-138.11 198.74,-130.79 200.16,-141.29 206.4,-138.11"/>
</g>
</g>
</svg>
