<?xml version="1.0" encoding="UTF-8" standalone="no"?>
<!DOCTYPE svg PUBLIC "-//W3C//DTD SVG 1.1//EN"
 "http://www.w3.org/Graphics/SVG/1.1/DTD/svg11.dtd">
<!-- Generated by graphviz version 8.0.5 (20230430.1635)
 -->
<!-- Title: src/NukiLock.cpp Pages: 1 -->
<svg width="1013pt" height="359pt"
 viewBox="0.00 0.00 1013.37 358.75" xmlns="http://www.w3.org/2000/svg" xmlns:xlink="http://www.w3.org/1999/xlink">
<g id="graph0" class="graph" transform="scale(1 1) rotate(0) translate(4 354.75)">
<title>src/NukiLock.cpp</title>
<!-- Node1 -->
<g id="node1" class="node">
<title>Node1</title>
<g id="a_node1"><a xlink:title=" ">
<polygon fill="#999999" stroke="#666666" points="908.12,-350.75 815.62,-350.75 815.62,-331.5 908.12,-331.5 908.12,-350.75"/>
<text text-anchor="middle" x="861.88" y="-337.25" font-family="Helvetica,sans-Serif" font-size="10.00">src/NukiLock.cpp</text>
</a>
</g>
</g>
<!-- Node2 -->
<g id="node2" class="node">
<title>Node2</title>
<g id="a_node2"><a xlink:href="_nuki_lock_utils_8h.html" target="_top" xlink:title=" ">
<polygon fill="white" stroke="#666666" points="904.75,-185 819,-185 819,-165.75 904.75,-165.75 904.75,-185"/>
<text text-anchor="middle" x="861.88" y="-171.5" font-family="Helvetica,sans-Serif" font-size="10.00">NukiLockUtils.h</text>
</a>
</g>
</g>
<!-- Node1&#45;&gt;Node2 -->
<g id="edge1" class="edge">
<title>Node1&#45;&gt;Node2</title>
<path fill="none" stroke="#63b8ff" d="M861.88,-331.32C861.88,-305.89 861.88,-231.85 861.88,-196.12"/>
<polygon fill="#63b8ff" stroke="#63b8ff" points="865.38,-196.22 861.88,-186.22 858.38,-196.22 865.38,-196.22"/>
</g>
<!-- Node9 -->
<g id="node9" class="node">
<title>Node9</title>
<g id="a_node9"><a xlink:href="_nuki_lock_8h.html" target="_top" xlink:title=" ">
<polygon fill="white" stroke="#666666" points="639.62,-295.5 574.12,-295.5 574.12,-276.25 639.62,-276.25 639.62,-295.5"/>
<text text-anchor="middle" x="606.88" y="-282" font-family="Helvetica,sans-Serif" font-size="10.00">NukiLock.h</text>
</a>
</g>
</g>
<!-- Node1&#45;&gt;Node9 -->
<g id="edge11" class="edge">
<title>Node1&#45;&gt;Node9</title>
<path fill="none" stroke="#63b8ff" d="M818.33,-331.03C771.58,-321.27 697.72,-305.85 650.82,-296.05"/>
<polygon fill="#63b8ff" stroke="#63b8ff" points="651.59,-292.43 641.08,-293.81 650.16,-299.28 651.59,-292.43"/>
</g>
<!-- Node17 -->
<g id="node17" class="node">
<title>Node17</title>
<g id="a_node17"><a xlink:href="_nuki_utils_8h.html" target="_top" xlink:title=" ">
<polygon fill="white" stroke="#666666" points="986.88,-185 922.88,-185 922.88,-165.75 986.88,-165.75 986.88,-185"/>
<text text-anchor="middle" x="954.88" y="-171.5" font-family="Helvetica,sans-Serif" font-size="10.00">NukiUtils.h</text>
</a>
</g>
</g>
<!-- Node1&#45;&gt;Node17 -->
<g id="edge26" class="edge">
<title>Node1&#45;&gt;Node17</title>
<path fill="none" stroke="#63b8ff" d="M866.88,-331.32C881.51,-305.55 924.47,-229.9 944.45,-194.74"/>
<polygon fill="#63b8ff" stroke="#63b8ff" points="947.96,-196.65 949.85,-186.22 941.87,-193.19 947.96,-196.65"/>
</g>
<!-- Node3 -->
<g id="node3" class="node">
<title>Node3</title>
<g id="a_node3"><a xlink:title=" ">
<polygon fill="#e0e0e0" stroke="#999999" points="927.12,-74.5 870.62,-74.5 870.62,-55.25 927.12,-55.25 927.12,-74.5"/>
<text text-anchor="middle" x="898.88" y="-61" font-family="Helvetica,sans-Serif" font-size="10.00">Arduino.h</text>
</a>
</g>
</g>
<!-- Node2&#45;&gt;Node3 -->
<g id="edge2" class="edge">
<title>Node2&#45;&gt;Node3</title>
<path fill="none" stroke="#63b8ff" d="M857.21,-165.31C851.32,-152.57 842.87,-128.86 850.88,-110.5 855.97,-98.8 865.82,-88.79 875.27,-81.23"/>
<polygon fill="#63b8ff" stroke="#63b8ff" points="877.07,-83.51 883.05,-74.76 872.92,-77.87 877.07,-83.51"/>
</g>
<!-- Node4 -->
<g id="node4" class="node">
<title>Node4</title>
<g id="a_node4"><a xlink:href="_nuki_data_types_8h.html" target="_top" xlink:title=" ">
<polygon fill="white" stroke="#666666" points="555,-129.75 464.75,-129.75 464.75,-110.5 555,-110.5 555,-129.75"/>
<text text-anchor="middle" x="509.88" y="-116.25" font-family="Helvetica,sans-Serif" font-size="10.00">NukiDataTypes.h</text>
</a>
</g>
</g>
<!-- Node2&#45;&gt;Node4 -->
<g id="edge3" class="edge">
<title>Node2&#45;&gt;Node4</title>
<path fill="none" stroke="#63b8ff" d="M818.75,-167.17C815.75,-166.68 812.77,-166.21 809.88,-165.75 725.04,-152.41 626.53,-137.95 566.21,-129.22"/>
<polygon fill="#63b8ff" stroke="#63b8ff" points="566.8,-125.62 556.4,-127.66 565.8,-132.55 566.8,-125.62"/>
</g>
<!-- Node7 -->
<g id="node7" class="node">
<title>Node7</title>
<g id="a_node7"><a xlink:href="_nuki_lock_constants_8h.html" target="_top" xlink:title=" ">
<polygon fill="white" stroke="#666666" points="109.75,-129.75 0,-129.75 0,-110.5 109.75,-110.5 109.75,-129.75"/>
<text text-anchor="middle" x="54.88" y="-116.25" font-family="Helvetica,sans-Serif" font-size="10.00">NukiLockConstants.h</text>
</a>
</g>
</g>
<!-- Node2&#45;&gt;Node7 -->
<g id="edge7" class="edge">
<title>Node2&#45;&gt;Node7</title>
<path fill="none" stroke="#63b8ff" d="M818.51,-166.83C815.59,-166.43 812.69,-166.07 809.88,-165.75 556.04,-137.28 252.02,-126.31 120.65,-122.68"/>
<polygon fill="#63b8ff" stroke="#63b8ff" points="121.08,-119.17 110.99,-122.39 120.89,-126.16 121.08,-119.17"/>
</g>
<!-- Node8 -->
<g id="node8" class="node">
<title>Node8</title>
<g id="a_node8"><a xlink:title=" ">
<polygon fill="#e0e0e0" stroke="#999999" points="899.88,-129.75 859.88,-129.75 859.88,-110.5 899.88,-110.5 899.88,-129.75"/>
<text text-anchor="middle" x="879.88" y="-116.25" font-family="Helvetica,sans-Serif" font-size="10.00">bitset</text>
</a>
</g>
</g>
<!-- Node2&#45;&gt;Node8 -->
<g id="edge10" class="edge">
<title>Node2&#45;&gt;Node8</title>
<path fill="none" stroke="#63b8ff" d="M864.85,-165.58C867.15,-158.76 870.43,-149.06 873.34,-140.45"/>
<polygon fill="#63b8ff" stroke="#63b8ff" points="876.95,-141.7 876.84,-131.11 870.32,-139.46 876.95,-141.7"/>
</g>
<!-- Node4&#45;&gt;Node3 -->
<g id="edge4" class="edge">
<title>Node4&#45;&gt;Node3</title>
<path fill="none" stroke="#63b8ff" d="M555.26,-112.91C632.27,-102.37 787.24,-81.16 859.77,-71.23"/>
<polygon fill="#63b8ff" stroke="#63b8ff" points="859.83,-74.62 869.27,-69.79 858.88,-67.68 859.83,-74.62"/>
</g>
<!-- Node5 -->
<g id="node5" class="node">
<title>Node5</title>
<g id="a_node5"><a xlink:href="_nuki_constants_8h.html" target="_top" xlink:title=" ">
<polygon fill="white" stroke="#666666" points="200.88,-74.5 112.88,-74.5 112.88,-55.25 200.88,-55.25 200.88,-74.5"/>
<text text-anchor="middle" x="156.88" y="-61" font-family="Helvetica,sans-Serif" font-size="10.00">NukiConstants.h</text>
</a>
</g>
</g>
<!-- Node4&#45;&gt;Node5 -->
<g id="edge5" class="edge">
<title>Node4&#45;&gt;Node5</title>
<path fill="none" stroke="#63b8ff" d="M464.45,-112.27C399.85,-102.53 281.57,-84.68 212.02,-74.19"/>
<polygon fill="#63b8ff" stroke="#63b8ff" points="212.7,-70.61 202.29,-72.58 211.66,-77.53 212.7,-70.61"/>
</g>
<!-- Node6 -->
<g id="node6" class="node">
<title>Node6</title>
<g id="a_node6"><a xlink:title=" ">
<polygon fill="#e0e0e0" stroke="#999999" points="158.38,-19.25 73.38,-19.25 73.38,0 158.38,0 158.38,-19.25"/>
<text text-anchor="middle" x="115.88" y="-5.75" font-family="Helvetica,sans-Serif" font-size="10.00">NimBLEUUID.h</text>
</a>
</g>
</g>
<!-- Node5&#45;&gt;Node6 -->
<g id="edge6" class="edge">
<title>Node5&#45;&gt;Node6</title>
<path fill="none" stroke="#63b8ff" d="M150.1,-55.08C144.5,-47.8 136.36,-37.23 129.43,-28.23"/>
<polygon fill="#63b8ff" stroke="#63b8ff" points="131.67,-26.4 122.79,-20.61 126.12,-30.67 131.67,-26.4"/>
</g>
<!-- Node7&#45;&gt;Node5 -->
<g id="edge9" class="edge">
<title>Node7&#45;&gt;Node5</title>
<path fill="none" stroke="#63b8ff" d="M72.18,-110.09C88,-101.83 111.67,-89.48 129.96,-79.93"/>
<polygon fill="#63b8ff" stroke="#63b8ff" points="131.24,-82.68 138.49,-74.95 128,-76.48 131.24,-82.68"/>
</g>
<!-- Node7&#45;&gt;Node6 -->
<g id="edge8" class="edge">
<title>Node7&#45;&gt;Node6</title>
<path fill="none" stroke="#63b8ff" d="M59.87,-110.25C69.79,-92.6 92.16,-52.8 105.43,-29.2"/>
<polygon fill="#63b8ff" stroke="#63b8ff" points="108.96,-31.06 110.81,-20.63 102.86,-27.63 108.96,-31.06"/>
</g>
<!-- Node9&#45;&gt;Node2 -->
<g id="edge25" class="edge">
<title>Node9&#45;&gt;Node2</title>
<path fill="none" stroke="#63b8ff" d="M628.18,-275.81C673.08,-256.7 777.65,-212.21 830.34,-189.79"/>
<polygon fill="#63b8ff" stroke="#63b8ff" points="831.62,-192.63 839.45,-185.49 828.88,-186.18 831.62,-192.63"/>
</g>
<!-- Node9&#45;&gt;Node7 -->
<g id="edge24" class="edge">
<title>Node9&#45;&gt;Node7</title>
<path fill="none" stroke="#63b8ff" d="M573.69,-284.42C491.72,-282.02 275.08,-267.68 119.88,-185 98.6,-173.67 79.62,-153.19 67.74,-138.48"/>
<polygon fill="#63b8ff" stroke="#63b8ff" points="70.21,-136.94 61.31,-131.19 64.68,-141.24 70.21,-136.94"/>
</g>
<!-- Node10 -->
<g id="node10" class="node">
<title>Node10</title>
<g id="a_node10"><a xlink:href="_nuki_ble_8h.html" target="_top" xlink:title=" ">
<polygon fill="white" stroke="#666666" points="489.88,-240.25 431.88,-240.25 431.88,-221 489.88,-221 489.88,-240.25"/>
<text text-anchor="middle" x="460.88" y="-226.75" font-family="Helvetica,sans-Serif" font-size="10.00">NukiBle.h</text>
</a>
</g>
</g>
<!-- Node9&#45;&gt;Node10 -->
<g id="edge12" class="edge">
<title>Node9&#45;&gt;Node10</title>
<path fill="none" stroke="#63b8ff" d="M582.11,-275.84C558.41,-267.2 522.43,-254.07 495.82,-244.37"/>
<polygon fill="#63b8ff" stroke="#63b8ff" points="497.36,-240.84 486.76,-240.7 494.96,-247.42 497.36,-240.84"/>
</g>
<!-- Node10&#45;&gt;Node3 -->
<g id="edge16" class="edge">
<title>Node10&#45;&gt;Node3</title>
<path fill="none" stroke="#63b8ff" d="M490.1,-229.44C596.87,-228.47 961.44,-222.42 995.88,-185 1029.09,-148.9 964.52,-103.19 925.52,-80.31"/>
<polygon fill="#63b8ff" stroke="#63b8ff" points="927.65,-76.92 917.23,-75 924.18,-83 927.65,-76.92"/>
</g>
<!-- Node10&#45;&gt;Node4 -->
<g id="edge15" class="edge">
<title>Node10&#45;&gt;Node4</title>
<path fill="none" stroke="#63b8ff" d="M431.54,-229.97C364.33,-229.78 208.57,-223.32 256.88,-165.75 281.49,-136.42 386.88,-126.36 453.64,-122.91"/>
<polygon fill="#63b8ff" stroke="#63b8ff" points="453.58,-126.37 463.41,-122.4 453.25,-119.38 453.58,-126.37"/>
</g>
<!-- Node10&#45;&gt;Node5 -->
<g id="edge14" class="edge">
<title>Node10&#45;&gt;Node5</title>
<path fill="none" stroke="#63b8ff" d="M431.62,-230.3C358.64,-231.3 171.62,-229.37 132.88,-185 108.12,-156.65 129.53,-109.95 144.78,-84.25"/>
<polygon fill="#63b8ff" stroke="#63b8ff" points="148.27,-86.27 150.59,-75.93 142.33,-82.56 148.27,-86.27"/>
</g>
<!-- Node11 -->
<g id="node11" class="node">
<title>Node11</title>
<g id="a_node11"><a xlink:title=" ">
<polygon fill="#e0e0e0" stroke="#999999" points="356,-185 265.75,-185 265.75,-165.75 356,-165.75 356,-185"/>
<text text-anchor="middle" x="310.88" y="-171.5" font-family="Helvetica,sans-Serif" font-size="10.00">NimBLEDevice.h</text>
</a>
</g>
</g>
<!-- Node10&#45;&gt;Node11 -->
<g id="edge13" class="edge">
<title>Node10&#45;&gt;Node11</title>
<path fill="none" stroke="#63b8ff" d="M435.43,-220.59C411.08,-211.95 374.11,-198.82 346.77,-189.12"/>
<polygon fill="#63b8ff" stroke="#63b8ff" points="348.04,-185.5 337.45,-185.45 345.7,-192.1 348.04,-185.5"/>
</g>
<!-- Node12 -->
<g id="node12" class="node">
<title>Node12</title>
<g id="a_node12"><a xlink:title=" ">
<polygon fill="#e0e0e0" stroke="#999999" points="449.88,-185 373.88,-185 373.88,-165.75 449.88,-165.75 449.88,-185"/>
<text text-anchor="middle" x="411.88" y="-171.5" font-family="Helvetica,sans-Serif" font-size="10.00">Preferences.h</text>
</a>
</g>
</g>
<!-- Node10&#45;&gt;Node12 -->
<g id="edge17" class="edge">
<title>Node10&#45;&gt;Node12</title>
<path fill="none" stroke="#63b8ff" d="M452.78,-220.83C445.94,-213.4 435.95,-202.54 427.55,-193.41"/>
<polygon fill="#63b8ff" stroke="#63b8ff" points="430.49,-191.35 421.14,-186.36 425.34,-196.09 430.49,-191.35"/>
</g>
<!-- Node13 -->
<g id="node13" class="node">
<title>Node13</title>
<g id="a_node13"><a xlink:title=" ">
<polygon fill="#e0e0e0" stroke="#999999" points="552,-185 467.75,-185 467.75,-165.75 552,-165.75 552,-185"/>
<text text-anchor="middle" x="509.88" y="-171.5" font-family="Helvetica,sans-Serif" font-size="10.00">esp_task_wdt.h</text>
</a>
</g>
</g>
<!-- Node10&#45;&gt;Node13 -->
<g id="edge18" class="edge">
<title>Node10&#45;&gt;Node13</title>
<path fill="none" stroke="#63b8ff" d="M468.97,-220.83C475.81,-213.4 485.8,-202.54 494.2,-193.41"/>
<polygon fill="#63b8ff" stroke="#63b8ff" points="496.41,-196.09 500.61,-186.36 491.26,-191.35 496.41,-196.09"/>
</g>
<!-- Node14 -->
<g id="node14" class="node">
<title>Node14</title>
<g id="a_node14"><a xlink:title=" ">
<polygon fill="#e0e0e0" stroke="#999999" points="651.5,-185 570.25,-185 570.25,-165.75 651.5,-165.75 651.5,-185"/>
<text text-anchor="middle" x="610.88" y="-171.5" font-family="Helvetica,sans-Serif" font-size="10.00">BleInterfaces.h</text>
</a>
</g>
</g>
<!-- Node10&#45;&gt;Node14 -->
<g id="edge19" class="edge">
<title>Node10&#45;&gt;Node14</title>
<path fill="none" stroke="#63b8ff" d="M486.32,-220.59C510.67,-211.95 547.64,-198.82 574.98,-189.12"/>
<polygon fill="#63b8ff" stroke="#63b8ff" points="576.05,-192.1 584.3,-185.45 573.71,-185.5 576.05,-192.1"/>
</g>
<!-- Node15 -->
<g id="node15" class="node">
<title>Node15</title>
<g id="a_node15"><a xlink:title=" ">
<polygon fill="#e0e0e0" stroke="#999999" points="800.62,-185 669.12,-185 669.12,-165.75 800.62,-165.75 800.62,-185"/>
<text text-anchor="middle" x="734.88" y="-171.5" font-family="Helvetica,sans-Serif" font-size="10.00">sodium/crypto_secretbox.h</text>
</a>
</g>
</g>
<!-- Node10&#45;&gt;Node15 -->
<g id="edge20" class="edge">
<title>Node10&#45;&gt;Node15</title>
<path fill="none" stroke="#63b8ff" d="M490.2,-223.93C534.68,-215.28 620.09,-198.68 677.29,-187.57"/>
<polygon fill="#63b8ff" stroke="#63b8ff" points="677.83,-190.83 686.98,-185.49 676.49,-183.96 677.83,-190.83"/>
</g>
<!-- Node16 -->
<g id="node16" class="node">
<title>Node16</title>
<g id="a_node16"><a xlink:href="_nuki_ble_8hpp.html" target="_top" xlink:title=" ">
<polygon fill="white" stroke="#666666" points="210.12,-185 141.62,-185 141.62,-165.75 210.12,-165.75 210.12,-185"/>
<text text-anchor="middle" x="175.88" y="-171.5" font-family="Helvetica,sans-Serif" font-size="10.00">NukiBle.hpp</text>
</a>
</g>
</g>
<!-- Node10&#45;&gt;Node16 -->
<g id="edge21" class="edge">
<title>Node10&#45;&gt;Node16</title>
<path fill="none" stroke="#63b8ff" d="M431.45,-224.13C381.51,-214.8 279.86,-195.8 220.91,-184.79"/>
<polygon fill="#63b8ff" stroke="#63b8ff" points="221.9,-181.23 211.43,-182.83 220.61,-188.11 221.9,-181.23"/>
</g>
<!-- Node16&#45;&gt;Node4 -->
<g id="edge23" class="edge">
<title>Node16&#45;&gt;Node4</title>
<path fill="none" stroke="#63b8ff" d="M210.47,-168.06C214.97,-167.27 219.53,-166.48 223.88,-165.75 303.49,-152.39 395.81,-138.22 453.53,-129.52"/>
<polygon fill="#63b8ff" stroke="#63b8ff" points="453.88,-132.86 463.25,-127.91 452.84,-125.94 453.88,-132.86"/>
</g>
<!-- Node16&#45;&gt;Node5 -->
<g id="edge22" class="edge">
<title>Node16&#45;&gt;Node5</title>
<path fill="none" stroke="#63b8ff" d="M174.32,-165.5C171.27,-148.09 164.45,-109.12 160.3,-85.41"/>
<polygon fill="#63b8ff" stroke="#63b8ff" points="163.62,-85.12 158.45,-75.88 156.73,-86.33 163.62,-85.12"/>
</g>
<!-- Node17&#45;&gt;Node3 -->
<g id="edge27" class="edge">
<title>Node17&#45;&gt;Node3</title>
<path fill="none" stroke="#63b8ff" d="M954.62,-165.6C953.93,-152.79 951.35,-128.53 941.88,-110.5 936.23,-99.76 927.21,-89.82 918.88,-82.06"/>
<polygon fill="#63b8ff" stroke="#63b8ff" points="921.46,-78.78 911.63,-74.82 916.84,-84.04 921.46,-78.78"/>
</g>
<!-- Node17&#45;&gt;Node4 -->
<g id="edge28" class="edge">
<title>Node17&#45;&gt;Node4</title>
<path fill="none" stroke="#63b8ff" d="M922.7,-167.3C919.72,-166.74 916.75,-166.21 913.88,-165.75 790.26,-145.97 643.96,-132.17 565.78,-125.57"/>
<polygon fill="#63b8ff" stroke="#63b8ff" points="566.46,-122.03 556.21,-124.68 565.88,-129 566.46,-122.03"/>
</g>
<!-- Node17&#45;&gt;Node5 -->
<g id="edge29" class="edge">
<title>Node17&#45;&gt;Node5</title>
<path fill="none" stroke="#63b8ff" d="M951.43,-165.41C945.34,-150.92 931.15,-122.75 908.88,-110.5 848.32,-77.18 375.01,-68.46 211.9,-66.43"/>
<polygon fill="#63b8ff" stroke="#63b8ff" points="212.2,-62.92 202.16,-66.3 212.11,-69.92 212.2,-62.92"/>
</g>
<!-- Node17&#45;&gt;Node8 -->
<g id="edge30" class="edge">
<title>Node17&#45;&gt;Node8</title>
<path fill="none" stroke="#63b8ff" d="M942.15,-165.34C931.05,-157.46 914.72,-145.86 901.56,-136.52"/>
<polygon fill="#63b8ff" stroke="#63b8ff" points="903.84,-133.14 893.66,-130.2 899.79,-138.85 903.84,-133.14"/>
</g>
</g>
</svg>
