<?xml version="1.0" encoding="UTF-8" standalone="no"?>
<!DOCTYPE svg PUBLIC "-//W3C//DTD SVG 1.1//EN"
 "http://www.w3.org/Graphics/SVG/1.1/DTD/svg11.dtd">
<!-- Generated by graphviz version 5.0.1 (20220820.1526)
 -->
<!-- Title: src/NukiDataTypes.h Pages: 1 -->
<svg width="198pt" height="143pt"
 viewBox="0.00 0.00 198.00 143.00" xmlns="http://www.w3.org/2000/svg" xmlns:xlink="http://www.w3.org/1999/xlink">
<g id="graph0" class="graph" transform="scale(1 1) rotate(0) translate(4 139)">
<title>src/NukiDataTypes.h</title>
<!-- Node1 -->
<g id="node1" class="node">
<title>Node1</title>
<g id="a_node1"><a xlink:title=" ">
<polygon fill="#999999" stroke="#666666" points="150,-135 22,-135 22,-114 150,-114 150,-135"/>
<text text-anchor="middle" x="86" y="-121.4" font-family="Helvetica,sans-Serif" font-size="12.00">src/NukiDataTypes.h</text>
</a>
</g>
</g>
<!-- Node2 -->
<g id="node2" class="node">
<title>Node2</title>
<g id="a_node2"><a xlink:title=" ">
<polygon fill="#e0e0e0" stroke="#999999" points="68,-78 0,-78 0,-57 68,-57 68,-78"/>
<text text-anchor="middle" x="34" y="-64.4" font-family="Helvetica,sans-Serif" font-size="12.00">Arduino.h</text>
</a>
</g>
</g>
<!-- Node1&#45;&gt;Node2 -->
<g id="edge1" class="edge">
<title>Node1&#45;&gt;Node2</title>
<path fill="none" stroke="#63b8ff" d="M76.94,-113.92C69.58,-106.13 59,-94.94 50.18,-85.62"/>
<polygon fill="#63b8ff" stroke="#63b8ff" points="52.72,-83.2 43.3,-78.34 47.63,-88.01 52.72,-83.2"/>
</g>
<!-- Node3 -->
<g id="node3" class="node">
<title>Node3</title>
<g id="a_node3"><a xlink:href="_nuki_constants_8h.html" target="_top" xlink:title=" ">
<polygon fill="white" stroke="#666666" points="190,-78 86,-78 86,-57 190,-57 190,-78"/>
<text text-anchor="middle" x="138" y="-64.4" font-family="Helvetica,sans-Serif" font-size="12.00">NukiConstants.h</text>
</a>
</g>
</g>
<!-- Node1&#45;&gt;Node3 -->
<g id="edge2" class="edge">
<title>Node1&#45;&gt;Node3</title>
<path fill="none" stroke="#63b8ff" d="M95.06,-113.92C102.42,-106.13 113,-94.94 121.82,-85.62"/>
<polygon fill="#63b8ff" stroke="#63b8ff" points="124.37,-88.01 128.7,-78.34 119.28,-83.2 124.37,-88.01"/>
</g>
<!-- Node4 -->
<g id="node4" class="node">
<title>Node4</title>
<g id="a_node4"><a xlink:title=" ">
<polygon fill="#e0e0e0" stroke="#999999" points="188,-21 88,-21 88,0 188,0 188,-21"/>
<text text-anchor="middle" x="138" y="-7.4" font-family="Helvetica,sans-Serif" font-size="12.00">NimBLEUUID.h</text>
</a>
</g>
</g>
<!-- Node3&#45;&gt;Node4 -->
<g id="edge3" class="edge">
<title>Node3&#45;&gt;Node4</title>
<path fill="none" stroke="#63b8ff" d="M138,-56.92C138,-49.91 138,-40.14 138,-31.47"/>
<polygon fill="#63b8ff" stroke="#63b8ff" points="141.5,-31.34 138,-21.34 134.5,-31.34 141.5,-31.34"/>
</g>
</g>
</svg>
