<?xml version="1.0" encoding="UTF-8" standalone="no"?>
<!DOCTYPE svg PUBLIC "-//W3C//DTD SVG 1.1//EN"
 "http://www.w3.org/Graphics/SVG/1.1/DTD/svg11.dtd">
<!-- Generated by graphviz version 6.0.1 (20220911.1526)
 -->
<!-- Title: src/NukiLock.h Pages: 1 -->
<!--zoomable 302 -->
<svg id="main" version="1.1" xmlns="http://www.w3.org/2000/svg" xmlns:xlink="http://www.w3.org/1999/xlink" xml:space="preserve" onload="init(evt)">
<style type="text/css"><![CDATA[
.edge:hover path { stroke: red; }
.edge:hover polygon { stroke: red; fill: red; }
]]></style>
<script type="text/javascript"><![CDATA[
var edges = document.getElementsByTagName('g');
if (edges && edges.length) {
  for (var i=0;i<edges.length;i++) {
    if (edges[i].id.substr(0,4)=='edge') {
      edges[i].setAttribute('class','edge');
    }
  }
}
]]></script>
        <defs>
                <circle id="rim" cx="0" cy="0" r="7"/>
                <circle id="rim2" cx="0" cy="0" r="3.5"/>
                <g id="zoomPlus">
                        <use xlink:href="#rim" fill="#404040">
                                <set attributeName="fill" to="#808080" begin="zoomplus.mouseover" end="zoomplus.mouseout"/>
                        </use>
                        <path d="M-4,0h8M0,-4v8" fill="none" stroke="white" stroke-width="1.5" pointer-events="none"/>
                </g>
                <g id="zoomMin">
                        <use xlink:href="#rim" fill="#404040">
                                <set attributeName="fill" to="#808080" begin="zoomminus.mouseover" end="zoomminus.mouseout"/>
                        </use>
                        <path d="M-4,0h8" fill="none" stroke="white" stroke-width="1.5" pointer-events="none"/>
                </g>
                <g id="dirArrow">
                        <path fill="none" stroke="white" stroke-width="1.5" d="M0,-3.0v7 M-2.5,-0.5L0,-3.0L2.5,-0.5"/>
                </g>
               <g id="resetDef">
                       <use xlink:href="#rim2" fill="#404040">
                               <set attributeName="fill" to="#808080" begin="reset.mouseover" end="reset.mouseout"/>
                       </use>
               </g>
        </defs>

<script type="text/javascript">
var viewWidth = 901;
var viewHeight = 302;
var sectionId = 'dynsection-0';
</script>
<script xlink:href="svgpan.js"/>
<svg id="graph" class="graph">
<g id="viewport">
<title>src/NukiLock.h</title>
<!-- Node1 -->
<g id="node1" class="node">
<title>Node1</title>
<g id="a_node1"><a xlink:title=" ">
<polygon fill="#999999" stroke="#666666" points="231.5,-294 148.5,-294 148.5,-275 231.5,-275 231.5,-294"/>
<text text-anchor="middle" x="190" y="-282" font-family="Helvetica,sans-Serif" font-size="10.00">src/NukiLock.h</text>
</a>
</g>
</g>
<!-- Node2 -->
<g id="node2" class="node">
<title>Node2</title>
<g id="a_node2"><a xlink:href="_nuki_ble_8h.html" target="_top" xlink:title=" ">
<polygon fill="white" stroke="#666666" points="386.5,-239 327.5,-239 327.5,-220 386.5,-220 386.5,-239"/>
<text text-anchor="middle" x="357" y="-227" font-family="Helvetica,sans-Serif" font-size="10.00">NukiBle.h</text>
</a>
</g>
</g>
<!-- Node1&#45;&gt;Node2 -->
<g id="edge1" class="edge">
<title>Node1&#45;&gt;Node2</title>
<path fill="none" stroke="#63b8ff" d="M216.83,-274.98C244.87,-266.09 289.05,-252.07 320.3,-242.15"/>
<polygon fill="#63b8ff" stroke="#63b8ff" points="321.49,-245.44 329.96,-239.08 319.37,-238.77 321.49,-245.44"/>
</g>
<!-- Node13 -->
<g id="node13" class="node">
<title>Node13</title>
<g id="a_node13"><a xlink:href="_nuki_lock_constants_8h.html" target="_top" xlink:title=" ">
<polygon fill="white" stroke="#666666" points="110,-129 0,-129 0,-110 110,-110 110,-129"/>
<text text-anchor="middle" x="55" y="-117" font-family="Helvetica,sans-Serif" font-size="10.00">NukiLockConstants.h</text>
</a>
</g>
</g>
<!-- Node1&#45;&gt;Node13 -->
<g id="edge16" class="edge">
<title>Node1&#45;&gt;Node13</title>
<path fill="none" stroke="#63b8ff" d="M182.74,-274.74C161.22,-248.76 97.51,-171.83 69.03,-137.44"/>
<polygon fill="#63b8ff" stroke="#63b8ff" points="71.37,-134.78 62.29,-129.31 65.98,-139.24 71.37,-134.78"/>
</g>
<!-- Node3 -->
<g id="node3" class="node">
<title>Node3</title>
<g id="a_node3"><a xlink:title=" ">
<polygon fill="#e0e0e0" stroke="#999999" points="892.5,-184 801.5,-184 801.5,-165 892.5,-165 892.5,-184"/>
<text text-anchor="middle" x="847" y="-172" font-family="Helvetica,sans-Serif" font-size="10.00">NimBLEDevice.h</text>
</a>
</g>
</g>
<!-- Node2&#45;&gt;Node3 -->
<g id="edge2" class="edge">
<title>Node2&#45;&gt;Node3</title>
<path fill="none" stroke="#63b8ff" d="M386.6,-226C455.55,-220.07 632.44,-204.19 791.44,-184"/>
<polygon fill="#63b8ff" stroke="#63b8ff" points="791.93,-187.47 801.41,-182.73 791.04,-180.53 791.93,-187.47"/>
</g>
<!-- Node4 -->
<g id="node4" class="node">
<title>Node4</title>
<g id="a_node4"><a xlink:href="_nuki_constants_8h.html" target="_top" xlink:title=" ">
<polygon fill="white" stroke="#666666" points="182.5,-74 93.5,-74 93.5,-55 182.5,-55 182.5,-74"/>
<text text-anchor="middle" x="138" y="-62" font-family="Helvetica,sans-Serif" font-size="10.00">NukiConstants.h</text>
</a>
</g>
</g>
<!-- Node2&#45;&gt;Node4 -->
<g id="edge3" class="edge">
<title>Node2&#45;&gt;Node4</title>
<path fill="none" stroke="#63b8ff" d="M327.37,-229.16C288.67,-228.41 221.01,-221.32 180,-184 151.17,-157.77 142.12,-110.47 139.29,-84.26"/>
<polygon fill="#63b8ff" stroke="#63b8ff" points="142.76,-83.8 138.4,-74.15 135.79,-84.42 142.76,-83.8"/>
</g>
<!-- Node6 -->
<g id="node6" class="node">
<title>Node6</title>
<g id="a_node6"><a xlink:href="_nuki_data_types_8h.html" target="_top" xlink:title=" ">
<polygon fill="white" stroke="#666666" points="295.5,-129 204.5,-129 204.5,-110 295.5,-110 295.5,-129"/>
<text text-anchor="middle" x="250" y="-117" font-family="Helvetica,sans-Serif" font-size="10.00">NukiDataTypes.h</text>
</a>
</g>
</g>
<!-- Node2&#45;&gt;Node6 -->
<g id="edge5" class="edge">
<title>Node2&#45;&gt;Node6</title>
<path fill="none" stroke="#63b8ff" d="M347.49,-219.79C337.89,-210.92 322.71,-196.72 310,-184 294.35,-168.33 277.03,-149.88 265.04,-136.92"/>
<polygon fill="#63b8ff" stroke="#63b8ff" points="267.35,-134.26 258,-129.27 262.2,-139 267.35,-134.26"/>
</g>
<!-- Node7 -->
<g id="node7" class="node">
<title>Node7</title>
<g id="a_node7"><a xlink:title=" ">
<polygon fill="#e0e0e0" stroke="#999999" points="315.5,-74 258.5,-74 258.5,-55 315.5,-55 315.5,-74"/>
<text text-anchor="middle" x="287" y="-62" font-family="Helvetica,sans-Serif" font-size="10.00">Arduino.h</text>
</a>
</g>
</g>
<!-- Node2&#45;&gt;Node7 -->
<g id="edge8" class="edge">
<title>Node2&#45;&gt;Node7</title>
<path fill="none" stroke="#63b8ff" d="M353.24,-219.74C342.22,-194.09 309.88,-118.78 294.85,-83.78"/>
<polygon fill="#63b8ff" stroke="#63b8ff" points="297.94,-82.11 290.78,-74.31 291.51,-84.88 297.94,-82.11"/>
</g>
<!-- Node8 -->
<g id="node8" class="node">
<title>Node8</title>
<g id="a_node8"><a xlink:title=" ">
<polygon fill="#e0e0e0" stroke="#999999" points="429.5,-184 352.5,-184 352.5,-165 429.5,-165 429.5,-184"/>
<text text-anchor="middle" x="391" y="-172" font-family="Helvetica,sans-Serif" font-size="10.00">Preferences.h</text>
</a>
</g>
</g>
<!-- Node2&#45;&gt;Node8 -->
<g id="edge9" class="edge">
<title>Node2&#45;&gt;Node8</title>
<path fill="none" stroke="#63b8ff" d="M362.61,-219.75C367.32,-212.42 374.17,-201.73 379.97,-192.7"/>
<polygon fill="#63b8ff" stroke="#63b8ff" points="383.04,-194.4 385.49,-184.09 377.14,-190.62 383.04,-194.4"/>
</g>
<!-- Node9 -->
<g id="node9" class="node">
<title>Node9</title>
<g id="a_node9"><a xlink:title=" ">
<polygon fill="#e0e0e0" stroke="#999999" points="532.5,-184 447.5,-184 447.5,-165 532.5,-165 532.5,-184"/>
<text text-anchor="middle" x="490" y="-172" font-family="Helvetica,sans-Serif" font-size="10.00">esp_task_wdt.h</text>
</a>
</g>
</g>
<!-- Node2&#45;&gt;Node9 -->
<g id="edge10" class="edge">
<title>Node2&#45;&gt;Node9</title>
<path fill="none" stroke="#63b8ff" d="M378.37,-219.98C400.15,-211.3 434.16,-197.75 458.92,-187.88"/>
<polygon fill="#63b8ff" stroke="#63b8ff" points="460.25,-191.12 468.24,-184.17 457.66,-184.62 460.25,-191.12"/>
</g>
<!-- Node10 -->
<g id="node10" class="node">
<title>Node10</title>
<g id="a_node10"><a xlink:title=" ">
<polygon fill="#e0e0e0" stroke="#999999" points="633,-184 551,-184 551,-165 633,-165 633,-184"/>
<text text-anchor="middle" x="592" y="-172" font-family="Helvetica,sans-Serif" font-size="10.00">BleInterfaces.h</text>
</a>
</g>
</g>
<!-- Node2&#45;&gt;Node10 -->
<g id="edge11" class="edge">
<title>Node2&#45;&gt;Node10</title>
<path fill="none" stroke="#63b8ff" d="M386.76,-221.79C426.34,-212.86 496.79,-196.97 543.95,-186.34"/>
<polygon fill="#63b8ff" stroke="#63b8ff" points="544.95,-189.7 553.93,-184.09 543.41,-182.87 544.95,-189.7"/>
</g>
<!-- Node11 -->
<g id="node11" class="node">
<title>Node11</title>
<g id="a_node11"><a xlink:title=" ">
<polygon fill="#e0e0e0" stroke="#999999" points="783,-184 651,-184 651,-165 783,-165 783,-184"/>
<text text-anchor="middle" x="717" y="-172" font-family="Helvetica,sans-Serif" font-size="10.00">sodium/crypto_secretbox.h</text>
</a>
</g>
</g>
<!-- Node2&#45;&gt;Node11 -->
<g id="edge12" class="edge">
<title>Node2&#45;&gt;Node11</title>
<path fill="none" stroke="#63b8ff" d="M386.77,-224.12C443.84,-215.72 569.97,-197.15 648.78,-185.54"/>
<polygon fill="#63b8ff" stroke="#63b8ff" points="649.72,-188.94 659.1,-184.02 648.7,-182.02 649.72,-188.94"/>
</g>
<!-- Node12 -->
<g id="node12" class="node">
<title>Node12</title>
<g id="a_node12"><a xlink:href="_nuki_ble_8hpp.html" target="_top" xlink:title=" ">
<polygon fill="white" stroke="#666666" points="257.5,-184 188.5,-184 188.5,-165 257.5,-165 257.5,-184"/>
<text text-anchor="middle" x="223" y="-172" font-family="Helvetica,sans-Serif" font-size="10.00">NukiBle.hpp</text>
</a>
</g>
</g>
<!-- Node2&#45;&gt;Node12 -->
<g id="edge13" class="edge">
<title>Node2&#45;&gt;Node12</title>
<path fill="none" stroke="#63b8ff" d="M335.47,-219.98C313.53,-211.3 279.26,-197.75 254.31,-187.88"/>
<polygon fill="#63b8ff" stroke="#63b8ff" points="255.51,-184.59 244.92,-184.17 252.93,-191.1 255.51,-184.59"/>
</g>
<!-- Node5 -->
<g id="node5" class="node">
<title>Node5</title>
<g id="a_node5"><a xlink:title=" ">
<polygon fill="#e0e0e0" stroke="#999999" points="139,-19 53,-19 53,0 139,0 139,-19"/>
<text text-anchor="middle" x="96" y="-7" font-family="Helvetica,sans-Serif" font-size="10.00">NimBLEUUID.h</text>
</a>
</g>
</g>
<!-- Node4&#45;&gt;Node5 -->
<g id="edge4" class="edge">
<title>Node4&#45;&gt;Node5</title>
<path fill="none" stroke="#63b8ff" d="M131.06,-54.75C125.13,-47.26 116.43,-36.28 109.18,-27.13"/>
<polygon fill="#63b8ff" stroke="#63b8ff" points="111.76,-24.75 102.81,-19.09 106.27,-29.1 111.76,-24.75"/>
</g>
<!-- Node6&#45;&gt;Node4 -->
<g id="edge7" class="edge">
<title>Node6&#45;&gt;Node4</title>
<path fill="none" stroke="#63b8ff" d="M232.01,-109.98C214.07,-101.5 186.28,-88.35 165.57,-78.54"/>
<polygon fill="#63b8ff" stroke="#63b8ff" points="166.86,-75.28 156.32,-74.17 163.86,-81.61 166.86,-75.28"/>
</g>
<!-- Node6&#45;&gt;Node7 -->
<g id="edge6" class="edge">
<title>Node6&#45;&gt;Node7</title>
<path fill="none" stroke="#63b8ff" d="M256.11,-109.75C261.28,-102.34 268.85,-91.5 275.19,-82.41"/>
<polygon fill="#63b8ff" stroke="#63b8ff" points="278.15,-84.29 281,-74.09 272.41,-80.29 278.15,-84.29"/>
</g>
<!-- Node12&#45;&gt;Node4 -->
<g id="edge14" class="edge">
<title>Node12&#45;&gt;Node4</title>
<path fill="none" stroke="#63b8ff" d="M216.04,-164.66C201.84,-146.61 169.31,-105.28 151.05,-82.08"/>
<polygon fill="#63b8ff" stroke="#63b8ff" points="153.75,-79.85 144.81,-74.16 148.25,-84.18 153.75,-79.85"/>
</g>
<!-- Node12&#45;&gt;Node6 -->
<g id="edge15" class="edge">
<title>Node12&#45;&gt;Node6</title>
<path fill="none" stroke="#63b8ff" d="M227.46,-164.75C231.12,-157.57 236.41,-147.18 240.95,-138.27"/>
<polygon fill="#63b8ff" stroke="#63b8ff" points="244.2,-139.59 245.62,-129.09 237.97,-136.41 244.2,-139.59"/>
</g>
<!-- Node13&#45;&gt;Node4 -->
<g id="edge18" class="edge">
<title>Node13&#45;&gt;Node4</title>
<path fill="none" stroke="#63b8ff" d="M68.34,-109.98C81.09,-101.84 100.55,-89.41 115.67,-79.76"/>
<polygon fill="#63b8ff" stroke="#63b8ff" points="117.88,-82.5 124.42,-74.17 114.11,-76.6 117.88,-82.5"/>
</g>
<!-- Node13&#45;&gt;Node5 -->
<g id="edge17" class="edge">
<title>Node13&#45;&gt;Node5</title>
<path fill="none" stroke="#63b8ff" d="M58.36,-109.66C65.06,-92.01 80.21,-52.09 89.12,-28.64"/>
<polygon fill="#63b8ff" stroke="#63b8ff" points="92.44,-29.75 92.71,-19.16 85.89,-27.27 92.44,-29.75"/>
</g>
</g>
</svg>
        <g id="navigator" transform="translate(0 0)" fill="#404254">
                <rect fill="#f2f5e9" fill-opacity="0.5" stroke="#606060" stroke-width=".5" x="0" y="0" width="60" height="60"/>
                <use id="zoomplus" xlink:href="#zoomPlus" x="17" y="9" onmousedown="handleZoom(evt,'in')"/>
                <use id="zoomminus" xlink:href="#zoomMin" x="42" y="9" onmousedown="handleZoom(evt,'out')"/>
                <use id="reset" xlink:href="#resetDef" x="30" y="36" onmousedown="handleReset()"/>
                <g id="arrowUp" xlink:href="#dirArrow" transform="translate(30 24)" onmousedown="handlePan(0,-1)">
                  <use xlink:href="#rim" fill="#404040">
                        <set attributeName="fill" to="#808080" begin="arrowUp.mouseover" end="arrowUp.mouseout"/>
                  </use>
                  <path fill="none" stroke="white" stroke-width="1.5" d="M0,-3.0v7 M-2.5,-0.5L0,-3.0L2.5,-0.5"/>
                </g>
                <g id="arrowRight" xlink:href="#dirArrow" transform="rotate(90) translate(36 -43)" onmousedown="handlePan(1,0)">
                  <use xlink:href="#rim" fill="#404040">
                        <set attributeName="fill" to="#808080" begin="arrowRight.mouseover" end="arrowRight.mouseout"/>
                  </use>
                  <path fill="none" stroke="white" stroke-width="1.5" d="M0,-3.0v7 M-2.5,-0.5L0,-3.0L2.5,-0.5"/>
                </g>
                <g id="arrowDown" xlink:href="#dirArrow" transform="rotate(180) translate(-30 -48)" onmousedown="handlePan(0,1)">
                  <use xlink:href="#rim" fill="#404040">
                        <set attributeName="fill" to="#808080" begin="arrowDown.mouseover" end="arrowDown.mouseout"/>
                  </use>
                  <path fill="none" stroke="white" stroke-width="1.5" d="M0,-3.0v7 M-2.5,-0.5L0,-3.0L2.5,-0.5"/>
                </g>
                <g id="arrowLeft" xlink:href="#dirArrow" transform="rotate(270) translate(-36 17)" onmousedown="handlePan(-1,0)">
                  <use xlink:href="#rim" fill="#404040">
                        <set attributeName="fill" to="#808080" begin="arrowLeft.mouseover" end="arrowLeft.mouseout"/>
                  </use>
                  <path fill="none" stroke="white" stroke-width="1.5" d="M0,-3.0v7 M-2.5,-0.5L0,-3.0L2.5,-0.5"/>
                </g>
        </g>
        <svg viewBox="0 0 15 15" width="100%" height="30px" preserveAspectRatio="xMaxYMin meet">
         <g id="arrow_out" transform="scale(0.3 0.3)">
          <a xlink:href="_nuki_lock_8h__incl_org.svg" target="_base">
           <rect id="button" ry="5" rx="5" y="6" x="6" height="38" width="38"
                fill="#f2f5e9" fill-opacity="0.5" stroke="#606060" stroke-width="1.0"/>
           <path id="arrow"
             d="M 11.500037,31.436501 C 11.940474,20.09759 22.043105,11.32322 32.158766,21.979434 L 37.068811,17.246167 C 37.068811,17.246167 37.088388,32 37.088388,32 L 22.160133,31.978069 C 22.160133,31.978069 26.997745,27.140456 26.997745,27.140456 C 18.528582,18.264221 13.291696,25.230495 11.500037,31.436501 z"
             style="fill:#404040;"/>
          </a>
         </g>
        </svg>
</svg>
