<?xml version="1.0" encoding="UTF-8" standalone="no"?>
<!DOCTYPE svg PUBLIC "-//W3C//DTD SVG 1.1//EN"
 "http://www.w3.org/Graphics/SVG/1.1/DTD/svg11.dtd">
<!-- Generated by graphviz version 8.0.1 (20230327.1645)
 -->
<!-- Title: src/NukiBle.cpp Pages: 1 -->
<svg width="1346pt" height="313pt"
 viewBox="0.00 0.00 1346.47 313.00" xmlns="http://www.w3.org/2000/svg" xmlns:xlink="http://www.w3.org/1999/xlink">
<g id="graph0" class="graph" transform="scale(1 1) rotate(0) translate(4 309)">
<title>src/NukiBle.cpp</title>
<!-- Node1 -->
<g id="node1" class="node">
<title>Node1</title>
<g id="a_node1"><a xlink:title=" ">
<polygon fill="#999999" stroke="#666666" points="785.47,-305 699.47,-305 699.47,-286 785.47,-286 785.47,-305"/>
<text text-anchor="middle" x="742.47" y="-293" font-family="Helvetica,sans-Serif" font-size="10.00">src/NukiBle.cpp</text>
</a>
</g>
</g>
<!-- Node2 -->
<g id="node2" class="node">
<title>Node2</title>
<g id="a_node2"><a xlink:href="_nuki_ble_8h.html" target="_top" xlink:title=" ">
<polygon fill="white" stroke="#666666" points="606.97,-244.5 547.97,-244.5 547.97,-225.5 606.97,-225.5 606.97,-244.5"/>
<text text-anchor="middle" x="577.47" y="-232.5" font-family="Helvetica,sans-Serif" font-size="10.00">NukiBle.h</text>
</a>
</g>
</g>
<!-- Node1&#45;&gt;Node2 -->
<g id="edge1" class="edge">
<title>Node1&#45;&gt;Node2</title>
<path fill="none" stroke="#63b8ff" d="M717.41,-285.62C689.55,-275.74 644.33,-259.71 612.86,-248.55"/>
<polygon fill="#63b8ff" stroke="#63b8ff" points="614.36,-245.01 603.77,-244.97 612.02,-251.61 614.36,-245.01"/>
</g>
<!-- Node11 -->
<g id="node11" class="node">
<title>Node11</title>
<g id="a_node11"><a xlink:title=" ">
<polygon fill="#e0e0e0" stroke="#999999" points="1055.47,-184 923.47,-184 923.47,-165 1055.47,-165 1055.47,-184"/>
<text text-anchor="middle" x="989.47" y="-172" font-family="Helvetica,sans-Serif" font-size="10.00">sodium/crypto_secretbox.h</text>
</a>
</g>
</g>
<!-- Node1&#45;&gt;Node11 -->
<g id="edge32" class="edge">
<title>Node1&#45;&gt;Node11</title>
<path fill="none" stroke="#63b8ff" d="M705.28,-285.63C686.58,-279.09 665.59,-268.08 654.47,-250 647.49,-238.64 645.68,-230.03 654.47,-220 658.71,-215.15 814.87,-196.01 912.46,-184.46"/>
<polygon fill="#63b8ff" stroke="#63b8ff" points="912.66,-187.85 922.18,-183.2 911.84,-180.9 912.66,-187.85"/>
</g>
<!-- Node13 -->
<g id="node13" class="node">
<title>Node13</title>
<g id="a_node13"><a xlink:href="_nuki_lock_utils_8h.html" target="_top" xlink:title=" ">
<polygon fill="white" stroke="#666666" points="204.47,-184 118.47,-184 118.47,-165 204.47,-165 204.47,-184"/>
<text text-anchor="middle" x="161.47" y="-172" font-family="Helvetica,sans-Serif" font-size="10.00">NukiLockUtils.h</text>
</a>
</g>
</g>
<!-- Node1&#45;&gt;Node13 -->
<g id="edge16" class="edge">
<title>Node1&#45;&gt;Node13</title>
<path fill="none" stroke="#63b8ff" d="M699.15,-290.58C636.68,-284.46 517.88,-271.12 418.47,-250 338.46,-233 246.93,-204.14 197.58,-187.78"/>
<polygon fill="#63b8ff" stroke="#63b8ff" points="199.01,-184.23 188.42,-184.39 196.8,-190.87 199.01,-184.23"/>
</g>
<!-- Node16 -->
<g id="node16" class="node">
<title>Node16</title>
<g id="a_node16"><a xlink:href="_nuki_utils_8h.html" target="_top" xlink:title=" ">
<polygon fill="white" stroke="#666666" points="287.97,-184 222.97,-184 222.97,-165 287.97,-165 287.97,-184"/>
<text text-anchor="middle" x="255.47" y="-172" font-family="Helvetica,sans-Serif" font-size="10.00">NukiUtils.h</text>
</a>
</g>
</g>
<!-- Node1&#45;&gt;Node16 -->
<g id="edge23" class="edge">
<title>Node1&#45;&gt;Node16</title>
<path fill="none" stroke="#63b8ff" d="M699.19,-285.55C658.01,-276.9 594.37,-263.21 539.47,-250 453.52,-229.31 353.67,-202.46 298.21,-187.29"/>
<polygon fill="#63b8ff" stroke="#63b8ff" points="299.3,-183.69 288.73,-184.42 297.45,-190.44 299.3,-183.69"/>
</g>
<!-- Node17 -->
<g id="node17" class="node">
<title>Node17</title>
<g id="a_node17"><a xlink:title=" ">
<polygon fill="#e0e0e0" stroke="#999999" points="711.47,-244.5 663.47,-244.5 663.47,-225.5 711.47,-225.5 711.47,-244.5"/>
<text text-anchor="middle" x="687.47" y="-232.5" font-family="Helvetica,sans-Serif" font-size="10.00">string.h</text>
</a>
</g>
</g>
<!-- Node1&#45;&gt;Node17 -->
<g id="edge28" class="edge">
<title>Node1&#45;&gt;Node17</title>
<path fill="none" stroke="#63b8ff" d="M734.35,-285.87C726.15,-277.14 713.26,-263.43 703.07,-252.59"/>
<polygon fill="#63b8ff" stroke="#63b8ff" points="706.02,-250.56 696.62,-245.67 700.92,-255.35 706.02,-250.56"/>
</g>
<!-- Node18 -->
<g id="node18" class="node">
<title>Node18</title>
<g id="a_node18"><a xlink:title=" ">
<polygon fill="#e0e0e0" stroke="#999999" points="864.97,-244.5 729.97,-244.5 729.97,-225.5 864.97,-225.5 864.97,-244.5"/>
<text text-anchor="middle" x="797.47" y="-232.5" font-family="Helvetica,sans-Serif" font-size="10.00">sodium/crypto_scalarmult.h</text>
</a>
</g>
</g>
<!-- Node1&#45;&gt;Node18 -->
<g id="edge29" class="edge">
<title>Node1&#45;&gt;Node18</title>
<path fill="none" stroke="#63b8ff" d="M750.59,-285.87C758.79,-277.14 771.68,-263.43 781.87,-252.59"/>
<polygon fill="#63b8ff" stroke="#63b8ff" points="784.02,-255.35 788.32,-245.67 778.92,-250.56 784.02,-255.35"/>
</g>
<!-- Node19 -->
<g id="node19" class="node">
<title>Node19</title>
<g id="a_node19"><a xlink:title=" ">
<polygon fill="#e0e0e0" stroke="#999999" points="983.97,-250 882.97,-250 882.97,-220 983.97,-220 983.97,-250"/>
<text text-anchor="start" x="890.97" y="-238" font-family="Helvetica,sans-Serif" font-size="10.00">sodium/crypto_core</text>
<text text-anchor="middle" x="933.47" y="-227" font-family="Helvetica,sans-Serif" font-size="10.00">_hsalsa20.h</text>
</a>
</g>
</g>
<!-- Node1&#45;&gt;Node19 -->
<g id="edge30" class="edge">
<title>Node1&#45;&gt;Node19</title>
<path fill="none" stroke="#63b8ff" d="M771.48,-285.62C799.09,-277.16 841.44,-264.19 875.91,-253.63"/>
<polygon fill="#63b8ff" stroke="#63b8ff" points="876.79,-256.71 885.33,-250.44 874.74,-250.02 876.79,-256.71"/>
</g>
<!-- Node20 -->
<g id="node20" class="node">
<title>Node20</title>
<g id="a_node20"><a xlink:title=" ">
<polygon fill="#e0e0e0" stroke="#999999" points="1102.97,-250 1001.97,-250 1001.97,-220 1102.97,-220 1102.97,-250"/>
<text text-anchor="start" x="1009.97" y="-238" font-family="Helvetica,sans-Serif" font-size="10.00">sodium/crypto_auth</text>
<text text-anchor="middle" x="1052.47" y="-227" font-family="Helvetica,sans-Serif" font-size="10.00">_hmacsha256.h</text>
</a>
</g>
</g>
<!-- Node1&#45;&gt;Node20 -->
<g id="edge31" class="edge">
<title>Node1&#45;&gt;Node20</title>
<path fill="none" stroke="#63b8ff" d="M785.7,-287.61C833.67,-279.8 913.64,-266.26 991.23,-250.4"/>
<polygon fill="#63b8ff" stroke="#63b8ff" points="991.57,-253.7 1000.66,-248.25 990.16,-246.84 991.57,-253.7"/>
</g>
<!-- Node21 -->
<g id="node21" class="node">
<title>Node21</title>
<g id="a_node21"><a xlink:title=" ">
<polygon fill="#e0e0e0" stroke="#999999" points="1225.97,-244.5 1120.97,-244.5 1120.97,-225.5 1225.97,-225.5 1225.97,-244.5"/>
<text text-anchor="middle" x="1173.47" y="-232.5" font-family="Helvetica,sans-Serif" font-size="10.00">sodium/crypto_box.h</text>
</a>
</g>
</g>
<!-- Node1&#45;&gt;Node21 -->
<g id="edge33" class="edge">
<title>Node1&#45;&gt;Node21</title>
<path fill="none" stroke="#63b8ff" d="M785.7,-290.8C854.98,-284.53 995.03,-270.48 1112.47,-250 1117.11,-249.19 1121.93,-248.25 1126.73,-247.26"/>
<polygon fill="#63b8ff" stroke="#63b8ff" points="1127.12,-250.54 1136.15,-245 1125.63,-243.7 1127.12,-250.54"/>
</g>
<!-- Node22 -->
<g id="node22" class="node">
<title>Node22</title>
<g id="a_node22"><a xlink:title=" ">
<polygon fill="#e0e0e0" stroke="#999999" points="1338.47,-244.5 1244.47,-244.5 1244.47,-225.5 1338.47,-225.5 1338.47,-244.5"/>
<text text-anchor="middle" x="1291.47" y="-232.5" font-family="Helvetica,sans-Serif" font-size="10.00">NimBLEBeacon.h</text>
</a>
</g>
</g>
<!-- Node1&#45;&gt;Node22 -->
<g id="edge34" class="edge">
<title>Node1&#45;&gt;Node22</title>
<path fill="none" stroke="#63b8ff" d="M785.95,-292.84C872.21,-289.05 1070.87,-277.83 1235.47,-250 1239.86,-249.26 1244.41,-248.35 1248.94,-247.36"/>
<polygon fill="#63b8ff" stroke="#63b8ff" points="1249.43,-250.61 1258.37,-244.93 1247.84,-243.79 1249.43,-250.61"/>
</g>
<!-- Node3 -->
<g id="node3" class="node">
<title>Node3</title>
<g id="a_node3"><a xlink:title=" ">
<polygon fill="#e0e0e0" stroke="#999999" points="778.97,-184 687.97,-184 687.97,-165 778.97,-165 778.97,-184"/>
<text text-anchor="middle" x="733.47" y="-172" font-family="Helvetica,sans-Serif" font-size="10.00">NimBLEDevice.h</text>
</a>
</g>
</g>
<!-- Node2&#45;&gt;Node3 -->
<g id="edge2" class="edge">
<title>Node2&#45;&gt;Node3</title>
<path fill="none" stroke="#63b8ff" d="M601.16,-225.12C627.39,-215.28 669.88,-199.34 699.62,-188.19"/>
<polygon fill="#63b8ff" stroke="#63b8ff" points="700.42,-191.26 708.55,-184.47 697.96,-184.7 700.42,-191.26"/>
</g>
<!-- Node4 -->
<g id="node4" class="node">
<title>Node4</title>
<g id="a_node4"><a xlink:href="_nuki_constants_8h.html" target="_top" xlink:title=" ">
<polygon fill="white" stroke="#666666" points="364.97,-74 275.97,-74 275.97,-55 364.97,-55 364.97,-74"/>
<text text-anchor="middle" x="320.47" y="-62" font-family="Helvetica,sans-Serif" font-size="10.00">NukiConstants.h</text>
</a>
</g>
</g>
<!-- Node2&#45;&gt;Node4 -->
<g id="edge3" class="edge">
<title>Node2&#45;&gt;Node4</title>
<path fill="none" stroke="#63b8ff" d="M607.22,-227.45C664.69,-214.73 785.62,-187.6 788.47,-184 793.71,-177.38 793.78,-171.56 788.47,-165 737.06,-101.51 488.36,-76.84 375.9,-68.82"/>
<polygon fill="#63b8ff" stroke="#63b8ff" points="376.34,-65.28 366.13,-68.08 375.86,-72.26 376.34,-65.28"/>
</g>
<!-- Node6 -->
<g id="node6" class="node">
<title>Node6</title>
<g id="a_node6"><a xlink:href="_nuki_data_types_8h.html" target="_top" xlink:title=" ">
<polygon fill="white" stroke="#666666" points="371.97,-129 280.97,-129 280.97,-110 371.97,-110 371.97,-129"/>
<text text-anchor="middle" x="326.47" y="-117" font-family="Helvetica,sans-Serif" font-size="10.00">NukiDataTypes.h</text>
</a>
</g>
</g>
<!-- Node2&#45;&gt;Node6 -->
<g id="edge5" class="edge">
<title>Node2&#45;&gt;Node6</title>
<path fill="none" stroke="#63b8ff" d="M547.8,-229.28C488.84,-219.66 361.33,-197.55 346.47,-184 334.19,-172.8 329.4,-154.16 327.55,-139.96"/>
<polygon fill="#63b8ff" stroke="#63b8ff" points="330.98,-139.99 326.6,-130.34 324.01,-140.62 330.98,-139.99"/>
</g>
<!-- Node7 -->
<g id="node7" class="node">
<title>Node7</title>
<g id="a_node7"><a xlink:title=" ">
<polygon fill="#e0e0e0" stroke="#999999" points="247.97,-74 190.97,-74 190.97,-55 247.97,-55 247.97,-74"/>
<text text-anchor="middle" x="219.47" y="-62" font-family="Helvetica,sans-Serif" font-size="10.00">Arduino.h</text>
</a>
</g>
</g>
<!-- Node2&#45;&gt;Node7 -->
<g id="edge8" class="edge">
<title>Node2&#45;&gt;Node7</title>
<path fill="none" stroke="#63b8ff" d="M547.67,-228.55C494.97,-218.62 389.87,-197.36 379.47,-184 359.26,-158.05 400.39,-136.17 380.47,-110 372.99,-100.17 304.1,-83.7 258.89,-73.79"/>
<polygon fill="#63b8ff" stroke="#63b8ff" points="259.75,-70.18 249.24,-71.48 258.27,-77.02 259.75,-70.18"/>
</g>
<!-- Node8 -->
<g id="node8" class="node">
<title>Node8</title>
<g id="a_node8"><a xlink:title=" ">
<polygon fill="#e0e0e0" stroke="#999999" points="465.97,-184 388.97,-184 388.97,-165 465.97,-165 465.97,-184"/>
<text text-anchor="middle" x="427.47" y="-172" font-family="Helvetica,sans-Serif" font-size="10.00">Preferences.h</text>
</a>
</g>
</g>
<!-- Node2&#45;&gt;Node8 -->
<g id="edge9" class="edge">
<title>Node2&#45;&gt;Node8</title>
<path fill="none" stroke="#63b8ff" d="M554.69,-225.12C529.58,-215.32 488.97,-199.48 460.4,-188.34"/>
<polygon fill="#63b8ff" stroke="#63b8ff" points="462.05,-184.84 451.47,-184.47 459.51,-191.36 462.05,-184.84"/>
</g>
<!-- Node9 -->
<g id="node9" class="node">
<title>Node9</title>
<g id="a_node9"><a xlink:title=" ">
<polygon fill="#e0e0e0" stroke="#999999" points="568.97,-184 483.97,-184 483.97,-165 568.97,-165 568.97,-184"/>
<text text-anchor="middle" x="526.47" y="-172" font-family="Helvetica,sans-Serif" font-size="10.00">esp_task_wdt.h</text>
</a>
</g>
</g>
<!-- Node2&#45;&gt;Node9 -->
<g id="edge10" class="edge">
<title>Node2&#45;&gt;Node9</title>
<path fill="none" stroke="#63b8ff" d="M569.94,-225.37C562.41,-216.73 550.62,-203.2 541.22,-192.42"/>
<polygon fill="#63b8ff" stroke="#63b8ff" points="543.24,-190.41 534.03,-185.17 537.96,-195.01 543.24,-190.41"/>
</g>
<!-- Node10 -->
<g id="node10" class="node">
<title>Node10</title>
<g id="a_node10"><a xlink:title=" ">
<polygon fill="#e0e0e0" stroke="#999999" points="669.47,-184 587.47,-184 587.47,-165 669.47,-165 669.47,-184"/>
<text text-anchor="middle" x="628.47" y="-172" font-family="Helvetica,sans-Serif" font-size="10.00">BleInterfaces.h</text>
</a>
</g>
</g>
<!-- Node2&#45;&gt;Node10 -->
<g id="edge11" class="edge">
<title>Node2&#45;&gt;Node10</title>
<path fill="none" stroke="#63b8ff" d="M585,-225.37C592.53,-216.73 604.32,-203.2 613.72,-192.42"/>
<polygon fill="#63b8ff" stroke="#63b8ff" points="616.98,-195.01 620.91,-185.17 611.7,-190.41 616.98,-195.01"/>
</g>
<!-- Node2&#45;&gt;Node11 -->
<g id="edge12" class="edge">
<title>Node2&#45;&gt;Node11</title>
<path fill="none" stroke="#63b8ff" d="M602.84,-225.03C608.89,-223.15 615.36,-221.33 621.47,-220 635.5,-216.95 808.75,-196.53 912.46,-184.44"/>
<polygon fill="#63b8ff" stroke="#63b8ff" points="912.67,-187.82 922.19,-183.19 911.86,-180.87 912.67,-187.82"/>
</g>
<!-- Node12 -->
<g id="node12" class="node">
<title>Node12</title>
<g id="a_node12"><a xlink:href="_nuki_ble_8hpp.html" target="_top" xlink:title=" ">
<polygon fill="white" stroke="#666666" points="904.97,-184 835.97,-184 835.97,-165 904.97,-165 904.97,-184"/>
<text text-anchor="middle" x="870.47" y="-172" font-family="Helvetica,sans-Serif" font-size="10.00">NukiBle.hpp</text>
</a>
</g>
</g>
<!-- Node2&#45;&gt;Node12 -->
<g id="edge13" class="edge">
<title>Node2&#45;&gt;Node12</title>
<path fill="none" stroke="#63b8ff" d="M603.37,-225.14C609.28,-223.29 615.56,-221.46 621.47,-220 631.28,-217.57 755.82,-195.61 824.95,-183.48"/>
<polygon fill="#63b8ff" stroke="#63b8ff" points="825.3,-186.79 834.55,-181.62 824.09,-179.9 825.3,-186.79"/>
</g>
<!-- Node5 -->
<g id="node5" class="node">
<title>Node5</title>
<g id="a_node5"><a xlink:title=" ">
<polygon fill="#e0e0e0" stroke="#999999" points="236.47,-19 150.47,-19 150.47,0 236.47,0 236.47,-19"/>
<text text-anchor="middle" x="193.47" y="-7" font-family="Helvetica,sans-Serif" font-size="10.00">NimBLEUUID.h</text>
</a>
</g>
</g>
<!-- Node4&#45;&gt;Node5 -->
<g id="edge4" class="edge">
<title>Node4&#45;&gt;Node5</title>
<path fill="none" stroke="#63b8ff" d="M298.93,-54.51C278.55,-46.01 247.75,-33.15 224.68,-23.53"/>
<polygon fill="#63b8ff" stroke="#63b8ff" points="226.27,-19.98 215.7,-19.36 223.58,-26.44 226.27,-19.98"/>
</g>
<!-- Node6&#45;&gt;Node4 -->
<g id="edge7" class="edge">
<title>Node6&#45;&gt;Node4</title>
<path fill="none" stroke="#63b8ff" d="M325.48,-109.75C324.73,-103.11 323.67,-93.73 322.71,-85.31"/>
<polygon fill="#63b8ff" stroke="#63b8ff" points="326.08,-84.98 321.48,-75.44 319.13,-85.77 326.08,-84.98"/>
</g>
<!-- Node6&#45;&gt;Node7 -->
<g id="edge6" class="edge">
<title>Node6&#45;&gt;Node7</title>
<path fill="none" stroke="#63b8ff" d="M308.32,-109.51C291.54,-101.2 266.36,-88.73 247.09,-79.18"/>
<polygon fill="#63b8ff" stroke="#63b8ff" points="248.87,-75.66 238.35,-74.36 245.76,-81.93 248.87,-75.66"/>
</g>
<!-- Node12&#45;&gt;Node4 -->
<g id="edge14" class="edge">
<title>Node12&#45;&gt;Node4</title>
<path fill="none" stroke="#63b8ff" d="M866.58,-164.64C859.76,-150.33 844.19,-122.44 821.47,-110 746.05,-68.69 490.17,-64.61 376.12,-64.92"/>
<polygon fill="#63b8ff" stroke="#63b8ff" points="376.19,-61.42 366.21,-64.96 376.22,-68.42 376.19,-61.42"/>
</g>
<!-- Node12&#45;&gt;Node6 -->
<g id="edge15" class="edge">
<title>Node12&#45;&gt;Node6</title>
<path fill="none" stroke="#63b8ff" d="M835.76,-169.85C821.16,-168.32 803.99,-166.55 788.47,-165 642.38,-150.39 470.2,-134.04 383.09,-125.82"/>
<polygon fill="#63b8ff" stroke="#63b8ff" points="383.67,-122.26 373.38,-124.81 383.01,-129.23 383.67,-122.26"/>
</g>
<!-- Node13&#45;&gt;Node6 -->
<g id="edge18" class="edge">
<title>Node13&#45;&gt;Node6</title>
<path fill="none" stroke="#63b8ff" d="M189.46,-164.51C216.68,-155.76 258.24,-142.42 288.45,-132.71"/>
<polygon fill="#63b8ff" stroke="#63b8ff" points="289.17,-135.84 297.62,-129.45 287.03,-129.17 289.17,-135.84"/>
</g>
<!-- Node13&#45;&gt;Node7 -->
<g id="edge17" class="edge">
<title>Node13&#45;&gt;Node7</title>
<path fill="none" stroke="#63b8ff" d="M118.26,-170.54C62.15,-165.05 -24.98,-149.96 7.47,-110 28.76,-83.78 124.55,-72.45 179.81,-68.02"/>
<polygon fill="#63b8ff" stroke="#63b8ff" points="179.9,-71.44 189.61,-67.2 179.38,-64.46 179.9,-71.44"/>
</g>
<!-- Node14 -->
<g id="node14" class="node">
<title>Node14</title>
<g id="a_node14"><a xlink:href="_nuki_lock_constants_8h.html" target="_top" xlink:title=" ">
<polygon fill="white" stroke="#666666" points="126.47,-129 16.47,-129 16.47,-110 126.47,-110 126.47,-129"/>
<text text-anchor="middle" x="71.47" y="-117" font-family="Helvetica,sans-Serif" font-size="10.00">NukiLockConstants.h</text>
</a>
</g>
</g>
<!-- Node13&#45;&gt;Node14 -->
<g id="edge19" class="edge">
<title>Node13&#45;&gt;Node14</title>
<path fill="none" stroke="#63b8ff" d="M146.2,-164.51C132.41,-156.39 111.88,-144.3 95.83,-134.85"/>
<polygon fill="#63b8ff" stroke="#63b8ff" points="97.9,-131.42 87.51,-129.36 94.35,-137.45 97.9,-131.42"/>
</g>
<!-- Node15 -->
<g id="node15" class="node">
<title>Node15</title>
<g id="a_node15"><a xlink:title=" ">
<polygon fill="#e0e0e0" stroke="#999999" points="185.97,-129 144.97,-129 144.97,-110 185.97,-110 185.97,-129"/>
<text text-anchor="middle" x="165.47" y="-117" font-family="Helvetica,sans-Serif" font-size="10.00">bitset</text>
</a>
</g>
</g>
<!-- Node13&#45;&gt;Node15 -->
<g id="edge22" class="edge">
<title>Node13&#45;&gt;Node15</title>
<path fill="none" stroke="#63b8ff" d="M162.13,-164.75C162.63,-158.11 163.34,-148.73 163.97,-140.31"/>
<polygon fill="#63b8ff" stroke="#63b8ff" points="167.53,-140.68 164.79,-130.44 160.55,-140.15 167.53,-140.68"/>
</g>
<!-- Node14&#45;&gt;Node4 -->
<g id="edge21" class="edge">
<title>Node14&#45;&gt;Node4</title>
<path fill="none" stroke="#63b8ff" d="M113.71,-109.51C156.23,-100.46 221.91,-86.48 267.81,-76.71"/>
<polygon fill="#63b8ff" stroke="#63b8ff" points="268.39,-79.95 277.44,-74.45 266.93,-73.1 268.39,-79.95"/>
</g>
<!-- Node14&#45;&gt;Node5 -->
<g id="edge20" class="edge">
<title>Node14&#45;&gt;Node5</title>
<path fill="none" stroke="#63b8ff" d="M81.45,-109.66C102.01,-91.47 149.3,-49.6 175.39,-26.51"/>
<polygon fill="#63b8ff" stroke="#63b8ff" points="177.18,-29.71 182.35,-20.46 172.54,-24.47 177.18,-29.71"/>
</g>
<!-- Node16&#45;&gt;Node4 -->
<g id="edge26" class="edge">
<title>Node16&#45;&gt;Node4</title>
<path fill="none" stroke="#63b8ff" d="M256.08,-164.67C257.31,-151.81 260.95,-127.55 271.47,-110 278.19,-98.8 288.6,-88.77 298.1,-81.08"/>
<polygon fill="#63b8ff" stroke="#63b8ff" points="299.95,-83.31 305.78,-74.47 295.71,-77.74 299.95,-83.31"/>
</g>
<!-- Node16&#45;&gt;Node6 -->
<g id="edge25" class="edge">
<title>Node16&#45;&gt;Node6</title>
<path fill="none" stroke="#63b8ff" d="M267.51,-164.51C277.98,-156.7 293.37,-145.21 305.8,-135.93"/>
<polygon fill="#63b8ff" stroke="#63b8ff" points="307.68,-138.14 313.6,-129.36 303.5,-132.54 307.68,-138.14"/>
</g>
<!-- Node16&#45;&gt;Node7 -->
<g id="edge24" class="edge">
<title>Node16&#45;&gt;Node7</title>
<path fill="none" stroke="#63b8ff" d="M251.89,-164.71C248.31,-155.78 242.73,-141.53 238.47,-129 233.42,-114.15 228.36,-97.12 224.74,-84.43"/>
<polygon fill="#63b8ff" stroke="#63b8ff" points="227.93,-83.87 221.85,-75.19 221.19,-85.77 227.93,-83.87"/>
</g>
<!-- Node16&#45;&gt;Node15 -->
<g id="edge27" class="edge">
<title>Node16&#45;&gt;Node15</title>
<path fill="none" stroke="#63b8ff" d="M240.2,-164.51C226.41,-156.39 205.88,-144.3 189.83,-134.85"/>
<polygon fill="#63b8ff" stroke="#63b8ff" points="191.9,-131.42 181.51,-129.36 188.35,-137.45 191.9,-131.42"/>
</g>
</g>
</svg>
