<?xml version="1.0" encoding="UTF-8" standalone="no"?>
<!DOCTYPE svg PUBLIC "-//W3C//DTD SVG 1.1//EN"
 "http://www.w3.org/Graphics/SVG/1.1/DTD/svg11.dtd">
<!-- Generated by graphviz version 7.0.2 (20221119.0110)
 -->
<!-- Title: src/NukiOpenerUtils.cpp Pages: 1 -->
<svg width="337pt" height="247pt"
 viewBox="0.00 0.00 337.00 247.00" xmlns="http://www.w3.org/2000/svg" xmlns:xlink="http://www.w3.org/1999/xlink">
<g id="graph0" class="graph" transform="scale(1 1) rotate(0) translate(4 243)">
<title>src/NukiOpenerUtils.cpp</title>
<!-- Node1 -->
<g id="node1" class="node">
<title>Node1</title>
<g id="a_node1"><a xlink:title=" ">
<polygon fill="#999999" stroke="#666666" points="209,-239 86,-239 86,-220 209,-220 209,-239"/>
<text text-anchor="middle" x="147.5" y="-227" font-family="Helvetica,sans-Serif" font-size="10.00">src/NukiOpenerUtils.cpp</text>
</a>
</g>
</g>
<!-- Node2 -->
<g id="node2" class="node">
<title>Node2</title>
<g id="a_node2"><a xlink:href="_nuki_opener_utils_8h.html" target="_top" xlink:title=" ">
<polygon fill="white" stroke="#666666" points="195.5,-184 99.5,-184 99.5,-165 195.5,-165 195.5,-184"/>
<text text-anchor="middle" x="147.5" y="-172" font-family="Helvetica,sans-Serif" font-size="10.00">NukiOpenerUtils.h</text>
</a>
</g>
</g>
<!-- Node1&#45;&gt;Node2 -->
<g id="edge1" class="edge">
<title>Node1&#45;&gt;Node2</title>
<path fill="none" stroke="#63b8ff" d="M147.5,-219.75C147.5,-213.27 147.5,-204.16 147.5,-195.9"/>
<polygon fill="#63b8ff" stroke="#63b8ff" points="151,-195.96 147.5,-185.96 144,-195.96 151,-195.96"/>
</g>
<!-- Node3 -->
<g id="node3" class="node">
<title>Node3</title>
<g id="a_node3"><a xlink:title=" ">
<polygon fill="#e0e0e0" stroke="#999999" points="57,-74 0,-74 0,-55 57,-55 57,-74"/>
<text text-anchor="middle" x="28.5" y="-62" font-family="Helvetica,sans-Serif" font-size="10.00">Arduino.h</text>
</a>
</g>
</g>
<!-- Node2&#45;&gt;Node3 -->
<g id="edge2" class="edge">
<title>Node2&#45;&gt;Node3</title>
<path fill="none" stroke="#63b8ff" d="M99.04,-167.78C74.31,-162.16 46.21,-151.03 30.5,-129 21.58,-116.49 21.78,-98.78 23.81,-85.24"/>
<polygon fill="#63b8ff" stroke="#63b8ff" points="27.18,-86.23 25.69,-75.74 20.32,-84.87 27.18,-86.23"/>
</g>
<!-- Node4 -->
<g id="node4" class="node">
<title>Node4</title>
<g id="a_node4"><a xlink:href="_nuki_data_types_8h.html" target="_top" xlink:title=" ">
<polygon fill="white" stroke="#666666" points="131,-129 40,-129 40,-110 131,-110 131,-129"/>
<text text-anchor="middle" x="85.5" y="-117" font-family="Helvetica,sans-Serif" font-size="10.00">NukiDataTypes.h</text>
</a>
</g>
</g>
<!-- Node2&#45;&gt;Node4 -->
<g id="edge3" class="edge">
<title>Node2&#45;&gt;Node4</title>
<path fill="none" stroke="#63b8ff" d="M136.98,-164.51C128.11,-156.93 115.19,-145.88 104.51,-136.75"/>
<polygon fill="#63b8ff" stroke="#63b8ff" points="106.89,-134.18 97.01,-130.34 102.34,-139.5 106.89,-134.18"/>
</g>
<!-- Node7 -->
<g id="node7" class="node">
<title>Node7</title>
<g id="a_node7"><a xlink:href="_nuki_opener_constants_8h.html" target="_top" xlink:title=" ">
<polygon fill="white" stroke="#666666" points="269.5,-129 149.5,-129 149.5,-110 269.5,-110 269.5,-129"/>
<text text-anchor="middle" x="209.5" y="-117" font-family="Helvetica,sans-Serif" font-size="10.00">NukiOpenerConstants.h</text>
</a>
</g>
</g>
<!-- Node2&#45;&gt;Node7 -->
<g id="edge7" class="edge">
<title>Node2&#45;&gt;Node7</title>
<path fill="none" stroke="#63b8ff" d="M158.02,-164.51C166.89,-156.93 179.81,-145.88 190.49,-136.75"/>
<polygon fill="#63b8ff" stroke="#63b8ff" points="192.66,-139.5 197.99,-130.34 188.11,-134.18 192.66,-139.5"/>
</g>
<!-- Node8 -->
<g id="node8" class="node">
<title>Node8</title>
<g id="a_node8"><a xlink:title=" ">
<polygon fill="#e0e0e0" stroke="#999999" points="329,-129 288,-129 288,-110 329,-110 329,-129"/>
<text text-anchor="middle" x="308.5" y="-117" font-family="Helvetica,sans-Serif" font-size="10.00">bitset</text>
</a>
</g>
</g>
<!-- Node2&#45;&gt;Node8 -->
<g id="edge10" class="edge">
<title>Node2&#45;&gt;Node8</title>
<path fill="none" stroke="#63b8ff" d="M174.81,-164.51C203.13,-155.19 247.35,-140.63 277.1,-130.84"/>
<polygon fill="#63b8ff" stroke="#63b8ff" points="277.88,-134.26 286.29,-127.81 275.69,-127.61 277.88,-134.26"/>
</g>
<!-- Node4&#45;&gt;Node3 -->
<g id="edge4" class="edge">
<title>Node4&#45;&gt;Node3</title>
<path fill="none" stroke="#63b8ff" d="M75.83,-109.51C67.76,-102 56.03,-91.1 46.28,-82.03"/>
<polygon fill="#63b8ff" stroke="#63b8ff" points="48.84,-79.63 39.13,-75.39 44.07,-84.76 48.84,-79.63"/>
</g>
<!-- Node5 -->
<g id="node5" class="node">
<title>Node5</title>
<g id="a_node5"><a xlink:href="_nuki_constants_8h.html" target="_top" xlink:title=" ">
<polygon fill="white" stroke="#666666" points="181,-74 92,-74 92,-55 181,-55 181,-74"/>
<text text-anchor="middle" x="136.5" y="-62" font-family="Helvetica,sans-Serif" font-size="10.00">NukiConstants.h</text>
</a>
</g>
</g>
<!-- Node4&#45;&gt;Node5 -->
<g id="edge5" class="edge">
<title>Node4&#45;&gt;Node5</title>
<path fill="none" stroke="#63b8ff" d="M93.92,-109.75C100.97,-102.43 111.23,-91.76 119.91,-82.74"/>
<polygon fill="#63b8ff" stroke="#63b8ff" points="122.43,-85.17 126.85,-75.53 117.39,-80.31 122.43,-85.17"/>
</g>
<!-- Node6 -->
<g id="node6" class="node">
<title>Node6</title>
<g id="a_node6"><a xlink:title=" ">
<polygon fill="#e0e0e0" stroke="#999999" points="215.5,-19 129.5,-19 129.5,0 215.5,0 215.5,-19"/>
<text text-anchor="middle" x="172.5" y="-7" font-family="Helvetica,sans-Serif" font-size="10.00">NimBLEUUID.h</text>
</a>
</g>
</g>
<!-- Node5&#45;&gt;Node6 -->
<g id="edge6" class="edge">
<title>Node5&#45;&gt;Node6</title>
<path fill="none" stroke="#63b8ff" d="M142.44,-54.75C147.21,-47.73 154.06,-37.64 160.02,-28.87"/>
<polygon fill="#63b8ff" stroke="#63b8ff" points="162.85,-30.93 165.58,-20.69 157.06,-27 162.85,-30.93"/>
</g>
<!-- Node7&#45;&gt;Node5 -->
<g id="edge9" class="edge">
<title>Node7&#45;&gt;Node5</title>
<path fill="none" stroke="#63b8ff" d="M197.12,-109.51C186.35,-101.7 170.53,-90.21 157.75,-80.93"/>
<polygon fill="#63b8ff" stroke="#63b8ff" points="160.07,-78.29 149.93,-75.25 155.96,-83.95 160.07,-78.29"/>
</g>
<!-- Node7&#45;&gt;Node6 -->
<g id="edge8" class="edge">
<title>Node7&#45;&gt;Node6</title>
<path fill="none" stroke="#63b8ff" d="M207.17,-109.79C203.82,-97.48 197.28,-74.33 190.5,-55 187.57,-46.65 183.97,-37.56 180.76,-29.79"/>
<polygon fill="#63b8ff" stroke="#63b8ff" points="184.03,-28.52 176.92,-20.67 177.58,-31.24 184.03,-28.52"/>
</g>
</g>
</svg>
