<?xml version="1.0" encoding="UTF-8" standalone="no"?>
<!DOCTYPE svg PUBLIC "-//W3C//DTD SVG 1.1//EN"
 "http://www.w3.org/Graphics/SVG/1.1/DTD/svg11.dtd">
<!-- Generated by graphviz version 5.0.1 (20220820.1526)
 -->
<!-- Title: src/NukiUtils.h Pages: 1 -->
<svg width="500pt" height="86pt"
 viewBox="0.00 0.00 500.00 86.00" xmlns="http://www.w3.org/2000/svg" xmlns:xlink="http://www.w3.org/1999/xlink">
<g id="graph0" class="graph" transform="scale(1 1) rotate(0) translate(4 82)">
<title>src/NukiUtils.h</title>
<!-- Node1 -->
<g id="node1" class="node">
<title>Node1</title>
<g id="a_node1"><a xlink:title=" ">
<polygon fill="#999999" stroke="#666666" points="285.5,-78 192.5,-78 192.5,-57 285.5,-57 285.5,-78"/>
<text text-anchor="middle" x="239" y="-64.4" font-family="Helvetica,sans-Serif" font-size="12.00">src/NukiUtils.h</text>
</a>
</g>
</g>
<!-- Node2 -->
<g id="node2" class="node">
<title>Node2</title>
<g id="a_node2"><a xlink:href="_nuki_ble_8cpp.html" target="_top" xlink:title=" ">
<polygon fill="white" stroke="#666666" points="100,-21 0,-21 0,0 100,0 100,-21"/>
<text text-anchor="middle" x="50" y="-7.4" font-family="Helvetica,sans-Serif" font-size="12.00">src/NukiBle.cpp</text>
</a>
</g>
</g>
<!-- Node1&#45;&gt;Node2 -->
<g id="edge1" class="edge">
<title>Node1&#45;&gt;Node2</title>
<path fill="none" stroke="#63b8ff" d="M196.31,-54.08C161.94,-44.07 114.32,-30.22 82.86,-21.06"/>
<polygon fill="#63b8ff" stroke="#63b8ff" points="195.5,-57.49 206.08,-56.92 197.45,-50.76 195.5,-57.49"/>
</g>
<!-- Node3 -->
<g id="node3" class="node">
<title>Node3</title>
<g id="a_node3"><a xlink:href="_nuki_lock_8cpp.html" target="_top" xlink:title=" ">
<polygon fill="white" stroke="#666666" points="226,-21 118,-21 118,0 226,0 226,-21"/>
<text text-anchor="middle" x="172" y="-7.4" font-family="Helvetica,sans-Serif" font-size="12.00">src/NukiLock.cpp</text>
</a>
</g>
</g>
<!-- Node1&#45;&gt;Node3 -->
<g id="edge2" class="edge">
<title>Node1&#45;&gt;Node3</title>
<path fill="none" stroke="#63b8ff" d="M219.54,-50.52C208.04,-41.09 193.86,-29.44 183.99,-21.34"/>
<polygon fill="#63b8ff" stroke="#63b8ff" points="217.38,-53.28 227.33,-56.92 221.82,-47.87 217.38,-53.28"/>
</g>
<!-- Node4 -->
<g id="node4" class="node">
<title>Node4</title>
<g id="a_node4"><a xlink:href="_nuki_opener_8cpp.html" target="_top" xlink:title=" ">
<polygon fill="white" stroke="#666666" points="367.5,-21 244.5,-21 244.5,0 367.5,0 367.5,-21"/>
<text text-anchor="middle" x="306" y="-7.4" font-family="Helvetica,sans-Serif" font-size="12.00">src/NukiOpener.cpp</text>
</a>
</g>
</g>
<!-- Node1&#45;&gt;Node4 -->
<g id="edge3" class="edge">
<title>Node1&#45;&gt;Node4</title>
<path fill="none" stroke="#63b8ff" d="M258.46,-50.52C269.96,-41.09 284.14,-29.44 294.01,-21.34"/>
<polygon fill="#63b8ff" stroke="#63b8ff" points="256.18,-47.87 250.67,-56.92 260.62,-53.28 256.18,-47.87"/>
</g>
<!-- Node5 -->
<g id="node5" class="node">
<title>Node5</title>
<g id="a_node5"><a xlink:href="_nuki_utils_8cpp.html" target="_top" xlink:title=" ">
<polygon fill="white" stroke="#666666" points="492,-21 386,-21 386,0 492,0 492,-21"/>
<text text-anchor="middle" x="439" y="-7.4" font-family="Helvetica,sans-Serif" font-size="12.00">src/NukiUtils.cpp</text>
</a>
</g>
</g>
<!-- Node1&#45;&gt;Node5 -->
<g id="edge4" class="edge">
<title>Node1&#45;&gt;Node5</title>
<path fill="none" stroke="#63b8ff" d="M283.7,-54.21C320.12,-44.19 370.8,-30.26 404.23,-21.06"/>
<polygon fill="#63b8ff" stroke="#63b8ff" points="282.55,-50.89 273.84,-56.92 284.41,-57.64 282.55,-50.89"/>
</g>
</g>
</svg>
