<?xml version="1.0" encoding="UTF-8" standalone="no"?>
<!DOCTYPE svg PUBLIC "-//W3C//DTD SVG 1.1//EN"
 "http://www.w3.org/Graphics/SVG/1.1/DTD/svg11.dtd">
<!-- Generated by graphviz version 6.0.1 (20220911.1526)
 -->
<!-- Title: src/NukiConstants.h Pages: 1 -->
<!--zoomable 302 -->
<svg id="main" version="1.1" xmlns="http://www.w3.org/2000/svg" xmlns:xlink="http://www.w3.org/1999/xlink" xml:space="preserve" onload="init(evt)">
<style type="text/css"><![CDATA[
.edge:hover path { stroke: red; }
.edge:hover polygon { stroke: red; fill: red; }
]]></style>
<script type="text/javascript"><![CDATA[
var edges = document.getElementsByTagName('g');
if (edges && edges.length) {
  for (var i=0;i<edges.length;i++) {
    if (edges[i].id.substr(0,4)=='edge') {
      edges[i].setAttribute('class','edge');
    }
  }
}
]]></script>
        <defs>
                <circle id="rim" cx="0" cy="0" r="7"/>
                <circle id="rim2" cx="0" cy="0" r="3.5"/>
                <g id="zoomPlus">
                        <use xlink:href="#rim" fill="#404040">
                                <set attributeName="fill" to="#808080" begin="zoomplus.mouseover" end="zoomplus.mouseout"/>
                        </use>
                        <path d="M-4,0h8M0,-4v8" fill="none" stroke="white" stroke-width="1.5" pointer-events="none"/>
                </g>
                <g id="zoomMin">
                        <use xlink:href="#rim" fill="#404040">
                                <set attributeName="fill" to="#808080" begin="zoomminus.mouseover" end="zoomminus.mouseout"/>
                        </use>
                        <path d="M-4,0h8" fill="none" stroke="white" stroke-width="1.5" pointer-events="none"/>
                </g>
                <g id="dirArrow">
                        <path fill="none" stroke="white" stroke-width="1.5" d="M0,-3.0v7 M-2.5,-0.5L0,-3.0L2.5,-0.5"/>
                </g>
               <g id="resetDef">
                       <use xlink:href="#rim2" fill="#404040">
                               <set attributeName="fill" to="#808080" begin="reset.mouseover" end="reset.mouseout"/>
                       </use>
               </g>
        </defs>

<script type="text/javascript">
var viewWidth = 735;
var viewHeight = 302;
var sectionId = 'dynsection-1';
</script>
<script xlink:href="svgpan.js"/>
<svg id="graph" class="graph">
<g id="viewport">
<title>src/NukiConstants.h</title>
<!-- Node1 -->
<g id="node1" class="node">
<title>Node1</title>
<g id="a_node1"><a xlink:title=" ">
<polygon fill="#999999" stroke="#666666" points="375,-294 270,-294 270,-275 375,-275 375,-294"/>
<text text-anchor="middle" x="322.5" y="-282" font-family="Helvetica,sans-Serif" font-size="10.00">src/NukiConstants.h</text>
</a>
</g>
</g>
<!-- Node2 -->
<g id="node2" class="node">
<title>Node2</title>
<g id="a_node2"><a xlink:href="_nuki_ble_8h.html" target="_top" xlink:title=" ">
<polygon fill="white" stroke="#666666" points="338,-129 263,-129 263,-110 338,-110 338,-129"/>
<text text-anchor="middle" x="300.5" y="-117" font-family="Helvetica,sans-Serif" font-size="10.00">src/NukiBle.h</text>
</a>
</g>
</g>
<!-- Node1&#45;&gt;Node2 -->
<g id="edge1" class="edge">
<title>Node1&#45;&gt;Node2</title>
<path fill="none" stroke="#63b8ff" d="M300.26,-269.01C276.36,-251.96 239.74,-221.2 224.5,-184 213.81,-157.91 248.01,-139.19 273.97,-129.1"/>
<polygon fill="#63b8ff" stroke="#63b8ff" points="298.51,-272.05 308.73,-274.86 302.49,-266.29 298.51,-272.05"/>
</g>
<!-- Node8 -->
<g id="node8" class="node">
<title>Node8</title>
<g id="a_node8"><a xlink:href="_nuki_ble_8hpp.html" target="_top" xlink:title=" ">
<polygon fill="white" stroke="#666666" points="319.5,-184 233.5,-184 233.5,-165 319.5,-165 319.5,-184"/>
<text text-anchor="middle" x="276.5" y="-172" font-family="Helvetica,sans-Serif" font-size="10.00">src/NukiBle.hpp</text>
</a>
</g>
</g>
<!-- Node1&#45;&gt;Node8 -->
<g id="edge7" class="edge">
<title>Node1&#45;&gt;Node8</title>
<path fill="none" stroke="#63b8ff" d="M314.81,-265.44C304.79,-241.92 287.67,-201.73 280.19,-184.16"/>
<polygon fill="#63b8ff" stroke="#63b8ff" points="311.6,-266.83 318.74,-274.66 318.04,-264.09 311.6,-266.83"/>
</g>
<!-- Node9 -->
<g id="node9" class="node">
<title>Node9</title>
<g id="a_node9"><a xlink:href="_nuki_data_types_8h.html" target="_top" xlink:title=" ">
<polygon fill="white" stroke="#666666" points="427,-239 320,-239 320,-220 427,-220 427,-239"/>
<text text-anchor="middle" x="373.5" y="-227" font-family="Helvetica,sans-Serif" font-size="10.00">src/NukiDataTypes.h</text>
</a>
</g>
</g>
<!-- Node1&#45;&gt;Node9 -->
<g id="edge9" class="edge">
<title>Node1&#45;&gt;Node9</title>
<path fill="none" stroke="#63b8ff" d="M337.88,-267.52C346.87,-258.18 357.86,-246.75 365.24,-239.09"/>
<polygon fill="#63b8ff" stroke="#63b8ff" points="335.33,-265.12 330.92,-274.75 340.38,-269.97 335.33,-265.12"/>
</g>
<!-- Node14 -->
<g id="node14" class="node">
<title>Node14</title>
<g id="a_node14"><a xlink:href="_nuki_utils_8h.html" target="_top" xlink:title=" ">
<polygon fill="white" stroke="#666666" points="437,-129 356,-129 356,-110 437,-110 437,-129"/>
<text text-anchor="middle" x="396.5" y="-117" font-family="Helvetica,sans-Serif" font-size="10.00">src/NukiUtils.h</text>
</a>
</g>
</g>
<!-- Node1&#45;&gt;Node14 -->
<g id="edge31" class="edge">
<title>Node1&#45;&gt;Node14</title>
<path fill="none" stroke="#63b8ff" d="M384.74,-273.55C404.62,-267.1 424.55,-256.49 436.5,-239 461.24,-202.78 422.03,-149.94 404.39,-129.26"/>
<polygon fill="#63b8ff" stroke="#63b8ff" points="383.64,-270.23 375.02,-276.39 385.6,-276.94 383.64,-270.23"/>
</g>
<!-- Node16 -->
<g id="node16" class="node">
<title>Node16</title>
<g id="a_node16"><a xlink:href="_nuki_lock_constants_8h.html" target="_top" xlink:title=" ">
<polygon fill="white" stroke="#666666" points="177,-184 50,-184 50,-165 177,-165 177,-184"/>
<text text-anchor="middle" x="113.5" y="-172" font-family="Helvetica,sans-Serif" font-size="10.00">src/NukiLockConstants.h</text>
</a>
</g>
</g>
<!-- Node1&#45;&gt;Node16 -->
<g id="edge25" class="edge">
<title>Node1&#45;&gt;Node16</title>
<path fill="none" stroke="#63b8ff" d="M276.37,-272.18C250.48,-264.78 218.12,-253.73 191.5,-239 163.39,-223.44 135.39,-197.45 121.87,-184.05"/>
<polygon fill="#63b8ff" stroke="#63b8ff" points="275.74,-275.64 286.31,-274.94 277.61,-268.9 275.74,-275.64"/>
</g>
<!-- Node17 -->
<g id="node17" class="node">
<title>Node17</title>
<g id="a_node17"><a xlink:href="_nuki_opener_constants_8h.html" target="_top" xlink:title=" ">
<polygon fill="white" stroke="#666666" points="627,-239 490,-239 490,-220 627,-220 627,-239"/>
<text text-anchor="middle" x="558.5" y="-227" font-family="Helvetica,sans-Serif" font-size="10.00">src/NukiOpenerConstants.h</text>
</a>
</g>
</g>
<!-- Node1&#45;&gt;Node17 -->
<g id="edge28" class="edge">
<title>Node1&#45;&gt;Node17</title>
<path fill="none" stroke="#63b8ff" d="M370.35,-272.75C414.58,-262.82 479.43,-248.26 520.29,-239.08"/>
<polygon fill="#63b8ff" stroke="#63b8ff" points="369.41,-269.38 360.42,-274.98 370.94,-276.21 369.41,-269.38"/>
</g>
<!-- Node3 -->
<g id="node3" class="node">
<title>Node3</title>
<g id="a_node3"><a xlink:href="_nuki_ble_8cpp.html" target="_top" xlink:title=" ">
<polygon fill="white" stroke="#666666" points="356.5,-74 270.5,-74 270.5,-55 356.5,-55 356.5,-74"/>
<text text-anchor="middle" x="313.5" y="-62" font-family="Helvetica,sans-Serif" font-size="10.00">src/NukiBle.cpp</text>
</a>
</g>
</g>
<!-- Node2&#45;&gt;Node3 -->
<g id="edge2" class="edge">
<title>Node2&#45;&gt;Node3</title>
<path fill="none" stroke="#63b8ff" d="M305.05,-99.95C307.21,-91.15 309.68,-81.06 311.39,-74.09"/>
<polygon fill="#63b8ff" stroke="#63b8ff" points="301.63,-99.2 302.65,-109.75 308.43,-100.87 301.63,-99.2"/>
</g>
<!-- Node4 -->
<g id="node4" class="node">
<title>Node4</title>
<g id="a_node4"><a xlink:href="_nuki_lock_8h.html" target="_top" xlink:title=" ">
<polygon fill="white" stroke="#666666" points="214,-74 131,-74 131,-55 214,-55 214,-74"/>
<text text-anchor="middle" x="172.5" y="-62" font-family="Helvetica,sans-Serif" font-size="10.00">src/NukiLock.h</text>
</a>
</g>
</g>
<!-- Node2&#45;&gt;Node4 -->
<g id="edge3" class="edge">
<title>Node2&#45;&gt;Node4</title>
<path fill="none" stroke="#63b8ff" d="M270.38,-106.03C246.71,-96.23 214.35,-82.83 193.44,-74.17"/>
<polygon fill="#63b8ff" stroke="#63b8ff" points="269.36,-109.39 279.93,-109.98 272.03,-102.93 269.36,-109.39"/>
</g>
<!-- Node6 -->
<g id="node6" class="node">
<title>Node6</title>
<g id="a_node6"><a xlink:href="_nuki_opener_8h.html" target="_top" xlink:title=" ">
<polygon fill="white" stroke="#666666" points="726.5,-74 634.5,-74 634.5,-55 726.5,-55 726.5,-74"/>
<text text-anchor="middle" x="680.5" y="-62" font-family="Helvetica,sans-Serif" font-size="10.00">src/NukiOpener.h</text>
</a>
</g>
</g>
<!-- Node2&#45;&gt;Node6 -->
<g id="edge5" class="edge">
<title>Node2&#45;&gt;Node6</title>
<path fill="none" stroke="#63b8ff" d="M348.23,-109.79C456.32,-92.8 571.91,-78.38 634.47,-70.89"/>
<polygon fill="#63b8ff" stroke="#63b8ff" points="347.46,-106.37 338.13,-111.39 348.55,-113.28 347.46,-106.37"/>
</g>
<!-- Node5 -->
<g id="node5" class="node">
<title>Node5</title>
<g id="a_node5"><a xlink:href="_nuki_lock_8cpp.html" target="_top" xlink:title=" ">
<polygon fill="white" stroke="#666666" points="289,-19 196,-19 196,0 289,0 289,-19"/>
<text text-anchor="middle" x="242.5" y="-7" font-family="Helvetica,sans-Serif" font-size="10.00">src/NukiLock.cpp</text>
</a>
</g>
</g>
<!-- Node4&#45;&gt;Node5 -->
<g id="edge4" class="edge">
<title>Node4&#45;&gt;Node5</title>
<path fill="none" stroke="#63b8ff" d="M191.81,-48.88C204.41,-39.34 220.43,-27.21 231.05,-19.17"/>
<polygon fill="#63b8ff" stroke="#63b8ff" points="189.61,-46.16 183.75,-54.98 193.83,-51.74 189.61,-46.16"/>
</g>
<!-- Node7 -->
<g id="node7" class="node">
<title>Node7</title>
<g id="a_node7"><a xlink:href="_nuki_opener_8cpp.html" target="_top" xlink:title=" ">
<polygon fill="white" stroke="#666666" points="658,-19 555,-19 555,0 658,0 658,-19"/>
<text text-anchor="middle" x="606.5" y="-7" font-family="Helvetica,sans-Serif" font-size="10.00">src/NukiOpener.cpp</text>
</a>
</g>
</g>
<!-- Node6&#45;&gt;Node7 -->
<g id="edge6" class="edge">
<title>Node6&#45;&gt;Node7</title>
<path fill="none" stroke="#63b8ff" d="M660.47,-49.15C647.09,-39.57 629.94,-27.29 618.61,-19.17"/>
<polygon fill="#63b8ff" stroke="#63b8ff" points="658.44,-52.01 668.61,-54.98 662.52,-46.32 658.44,-52.01"/>
</g>
<!-- Node8&#45;&gt;Node2 -->
<g id="edge8" class="edge">
<title>Node8&#45;&gt;Node2</title>
<path fill="none" stroke="#63b8ff" d="M284.64,-155.53C288.68,-146.6 293.38,-136.22 296.61,-129.09"/>
<polygon fill="#63b8ff" stroke="#63b8ff" points="281.4,-154.19 280.46,-164.75 287.78,-157.08 281.4,-154.19"/>
</g>
<!-- Node9&#45;&gt;Node2 -->
<g id="edge10" class="edge">
<title>Node9&#45;&gt;Node2</title>
<path fill="none" stroke="#63b8ff" d="M373.52,-209.6C372.72,-196.22 369.94,-178.35 361.5,-165 351.27,-148.82 332.87,-136.62 318.94,-129.13"/>
<polygon fill="#63b8ff" stroke="#63b8ff" points="370.04,-210.08 373.81,-219.98 377.03,-209.88 370.04,-210.08"/>
</g>
<!-- Node9&#45;&gt;Node8 -->
<g id="edge11" class="edge">
<title>Node9&#45;&gt;Node8</title>
<path fill="none" stroke="#63b8ff" d="M348.73,-214.97C331,-205.28 307.65,-192.52 292.37,-184.17"/>
<polygon fill="#63b8ff" stroke="#63b8ff" points="347.46,-218.26 357.92,-219.98 350.82,-212.12 347.46,-218.26"/>
</g>
<!-- Node10 -->
<g id="node10" class="node">
<title>Node10</title>
<g id="a_node10"><a xlink:href="_nuki_lock_utils_8h.html" target="_top" xlink:title=" ">
<polygon fill="white" stroke="#666666" points="245,-129 142,-129 142,-110 245,-110 245,-129"/>
<text text-anchor="middle" x="193.5" y="-117" font-family="Helvetica,sans-Serif" font-size="10.00">src/NukiLockUtils.h</text>
</a>
</g>
</g>
<!-- Node9&#45;&gt;Node10 -->
<g id="edge12" class="edge">
<title>Node9&#45;&gt;Node10</title>
<path fill="none" stroke="#63b8ff" d="M364.83,-210.49C357.12,-196.27 344.59,-176.89 328.5,-165 303.59,-146.6 270.66,-135.54 243.56,-129.05"/>
<polygon fill="#63b8ff" stroke="#63b8ff" points="361.9,-212.45 369.57,-219.76 368.13,-209.27 361.9,-212.45"/>
</g>
<!-- Node12 -->
<g id="node12" class="node">
<title>Node12</title>
<g id="a_node12"><a xlink:href="_nuki_opener_utils_8h.html" target="_top" xlink:title=" ">
<polygon fill="white" stroke="#666666" points="609,-184 496,-184 496,-165 609,-165 609,-184"/>
<text text-anchor="middle" x="552.5" y="-172" font-family="Helvetica,sans-Serif" font-size="10.00">src/NukiOpenerUtils.h</text>
</a>
</g>
</g>
<!-- Node9&#45;&gt;Node12 -->
<g id="edge17" class="edge">
<title>Node9&#45;&gt;Node12</title>
<path fill="none" stroke="#63b8ff" d="M412.15,-217.06C445.61,-207.15 493.25,-193.04 523.52,-184.08"/>
<polygon fill="#63b8ff" stroke="#63b8ff" points="410.85,-213.79 402.26,-219.98 412.84,-220.5 410.85,-213.79"/>
</g>
<!-- Node9&#45;&gt;Node14 -->
<g id="edge20" class="edge">
<title>Node9&#45;&gt;Node14</title>
<path fill="none" stroke="#63b8ff" d="M386.22,-211.61C391.43,-203.67 396.84,-193.81 399.5,-184 404.63,-165.04 401.18,-141.75 398.6,-129.31"/>
<polygon fill="#63b8ff" stroke="#63b8ff" points="383.27,-209.73 380.39,-219.93 389,-213.75 383.27,-209.73"/>
</g>
<!-- Node10&#45;&gt;Node3 -->
<g id="edge13" class="edge">
<title>Node10&#45;&gt;Node3</title>
<path fill="none" stroke="#63b8ff" d="M222.03,-105.9C244.2,-96.11 274.35,-82.79 293.87,-74.17"/>
<polygon fill="#63b8ff" stroke="#63b8ff" points="220.51,-102.74 212.78,-109.98 223.34,-109.15 220.51,-102.74"/>
</g>
<!-- Node10&#45;&gt;Node4 -->
<g id="edge15" class="edge">
<title>Node10&#45;&gt;Node4</title>
<path fill="none" stroke="#63b8ff" d="M186.26,-100.24C182.75,-91.37 178.7,-81.14 175.9,-74.09"/>
<polygon fill="#63b8ff" stroke="#63b8ff" points="183.09,-101.74 190.03,-109.75 189.6,-99.16 183.09,-101.74"/>
</g>
<!-- Node10&#45;&gt;Node5 -->
<g id="edge14" class="edge">
<title>Node10&#45;&gt;Node5</title>
<path fill="none" stroke="#63b8ff" d="M206.11,-101.56C211.68,-93.51 217.98,-83.57 222.5,-74 231.29,-55.4 237.52,-31.96 240.51,-19.41"/>
<polygon fill="#63b8ff" stroke="#63b8ff" points="203.24,-99.55 200.26,-109.72 208.93,-103.63 203.24,-99.55"/>
</g>
<!-- Node11 -->
<g id="node11" class="node">
<title>Node11</title>
<g id="a_node11"><a xlink:href="_nuki_lock_utils_8cpp.html" target="_top" xlink:title=" ">
<polygon fill="white" stroke="#666666" points="113,-74 0,-74 0,-55 113,-55 113,-74"/>
<text text-anchor="middle" x="56.5" y="-62" font-family="Helvetica,sans-Serif" font-size="10.00">src/NukiLockUtils.cpp</text>
</a>
</g>
</g>
<!-- Node10&#45;&gt;Node11 -->
<g id="edge16" class="edge">
<title>Node10&#45;&gt;Node11</title>
<path fill="none" stroke="#63b8ff" d="M161.94,-106.29C136.55,-96.47 101.5,-82.91 78.91,-74.17"/>
<polygon fill="#63b8ff" stroke="#63b8ff" points="160.9,-109.64 171.49,-109.98 163.42,-103.11 160.9,-109.64"/>
</g>
<!-- Node12&#45;&gt;Node7 -->
<g id="edge18" class="edge">
<title>Node12&#45;&gt;Node7</title>
<path fill="none" stroke="#63b8ff" d="M568.39,-157.46C575.34,-149.52 582.94,-139.42 587.5,-129 604.3,-90.64 606.43,-39.46 606.57,-19.25"/>
<polygon fill="#63b8ff" stroke="#63b8ff" points="565.76,-155.15 561.53,-164.86 570.9,-159.9 565.76,-155.15"/>
</g>
<!-- Node13 -->
<g id="node13" class="node">
<title>Node13</title>
<g id="a_node13"><a xlink:href="_nuki_opener_utils_8cpp.html" target="_top" xlink:title=" ">
<polygon fill="white" stroke="#666666" points="578,-129 455,-129 455,-110 578,-110 578,-129"/>
<text text-anchor="middle" x="516.5" y="-117" font-family="Helvetica,sans-Serif" font-size="10.00">src/NukiOpenerUtils.cpp</text>
</a>
</g>
</g>
<!-- Node12&#45;&gt;Node13 -->
<g id="edge19" class="edge">
<title>Node12&#45;&gt;Node13</title>
<path fill="none" stroke="#63b8ff" d="M540.88,-156.39C534.68,-147.27 527.33,-136.45 522.33,-129.09"/>
<polygon fill="#63b8ff" stroke="#63b8ff" points="538.04,-158.44 546.56,-164.75 543.83,-154.51 538.04,-158.44"/>
</g>
<!-- Node14&#45;&gt;Node3 -->
<g id="edge21" class="edge">
<title>Node14&#45;&gt;Node3</title>
<path fill="none" stroke="#63b8ff" d="M374.46,-104.42C359.39,-94.81 339.91,-82.37 327.08,-74.17"/>
<polygon fill="#63b8ff" stroke="#63b8ff" points="372.85,-107.55 383.16,-109.98 376.62,-101.65 372.85,-107.55"/>
</g>
<!-- Node14&#45;&gt;Node5 -->
<g id="edge22" class="edge">
<title>Node14&#45;&gt;Node5</title>
<path fill="none" stroke="#63b8ff" d="M391.69,-100.21C387.1,-86.1 378.88,-67.02 365.5,-55 344.3,-35.95 314.32,-24.89 289.27,-18.55"/>
<polygon fill="#63b8ff" stroke="#63b8ff" points="388.34,-101.22 394.51,-109.84 395.05,-99.26 388.34,-101.22"/>
</g>
<!-- Node14&#45;&gt;Node7 -->
<g id="edge23" class="edge">
<title>Node14&#45;&gt;Node7</title>
<path fill="none" stroke="#63b8ff" d="M434.29,-106.66C457.7,-98.72 488.05,-87.29 513.5,-74 545.21,-57.44 579.11,-32.11 595.86,-19.01"/>
<polygon fill="#63b8ff" stroke="#63b8ff" points="433.1,-103.37 424.72,-109.85 435.32,-110.01 433.1,-103.37"/>
</g>
<!-- Node15 -->
<g id="node15" class="node">
<title>Node15</title>
<g id="a_node15"><a xlink:href="_nuki_utils_8cpp.html" target="_top" xlink:title=" ">
<polygon fill="white" stroke="#666666" points="504.5,-74 412.5,-74 412.5,-55 504.5,-55 504.5,-74"/>
<text text-anchor="middle" x="458.5" y="-62" font-family="Helvetica,sans-Serif" font-size="10.00">src/NukiUtils.cpp</text>
</a>
</g>
</g>
<!-- Node14&#45;&gt;Node15 -->
<g id="edge24" class="edge">
<title>Node14&#45;&gt;Node15</title>
<path fill="none" stroke="#63b8ff" d="M414.25,-103.32C425.31,-93.87 439.13,-82.06 448.36,-74.17"/>
<polygon fill="#63b8ff" stroke="#63b8ff" points="411.79,-100.83 406.46,-109.98 416.34,-106.15 411.79,-100.83"/>
</g>
<!-- Node16&#45;&gt;Node4 -->
<g id="edge26" class="edge">
<title>Node16&#45;&gt;Node4</title>
<path fill="none" stroke="#63b8ff" d="M116.86,-154.63C119.73,-141.53 124.66,-123.97 132.5,-110 140.43,-95.87 153.55,-82.44 162.59,-74.1"/>
<polygon fill="#63b8ff" stroke="#63b8ff" points="113.35,-154.32 114.85,-164.81 120.22,-155.68 113.35,-154.32"/>
</g>
<!-- Node16&#45;&gt;Node10 -->
<g id="edge27" class="edge">
<title>Node16&#45;&gt;Node10</title>
<path fill="none" stroke="#63b8ff" d="M134.75,-159.42C149.26,-149.81 168.04,-137.37 180.41,-129.17"/>
<polygon fill="#63b8ff" stroke="#63b8ff" points="132.76,-156.54 126.35,-164.98 136.62,-162.38 132.76,-156.54"/>
</g>
<!-- Node17&#45;&gt;Node6 -->
<g id="edge29" class="edge">
<title>Node17&#45;&gt;Node6</title>
<path fill="none" stroke="#63b8ff" d="M582.41,-214.4C594.31,-206.54 608.29,-195.94 618.5,-184 649.13,-148.17 670.17,-94.65 677.57,-74.03"/>
<polygon fill="#63b8ff" stroke="#63b8ff" points="580.39,-211.54 573.82,-219.85 584.14,-217.45 580.39,-211.54"/>
</g>
<!-- Node17&#45;&gt;Node12 -->
<g id="edge30" class="edge">
<title>Node17&#45;&gt;Node12</title>
<path fill="none" stroke="#63b8ff" d="M556.37,-209.66C555.38,-200.93 554.25,-190.99 553.47,-184.09"/>
<polygon fill="#63b8ff" stroke="#63b8ff" points="552.91,-210.21 557.51,-219.75 559.86,-209.42 552.91,-210.21"/>
</g>
</g>
</svg>
        <g id="navigator" transform="translate(0 0)" fill="#404254">
                <rect fill="#f2f5e9" fill-opacity="0.5" stroke="#606060" stroke-width=".5" x="0" y="0" width="60" height="60"/>
                <use id="zoomplus" xlink:href="#zoomPlus" x="17" y="9" onmousedown="handleZoom(evt,'in')"/>
                <use id="zoomminus" xlink:href="#zoomMin" x="42" y="9" onmousedown="handleZoom(evt,'out')"/>
                <use id="reset" xlink:href="#resetDef" x="30" y="36" onmousedown="handleReset()"/>
                <g id="arrowUp" xlink:href="#dirArrow" transform="translate(30 24)" onmousedown="handlePan(0,-1)">
                  <use xlink:href="#rim" fill="#404040">
                        <set attributeName="fill" to="#808080" begin="arrowUp.mouseover" end="arrowUp.mouseout"/>
                  </use>
                  <path fill="none" stroke="white" stroke-width="1.5" d="M0,-3.0v7 M-2.5,-0.5L0,-3.0L2.5,-0.5"/>
                </g>
                <g id="arrowRight" xlink:href="#dirArrow" transform="rotate(90) translate(36 -43)" onmousedown="handlePan(1,0)">
                  <use xlink:href="#rim" fill="#404040">
                        <set attributeName="fill" to="#808080" begin="arrowRight.mouseover" end="arrowRight.mouseout"/>
                  </use>
                  <path fill="none" stroke="white" stroke-width="1.5" d="M0,-3.0v7 M-2.5,-0.5L0,-3.0L2.5,-0.5"/>
                </g>
                <g id="arrowDown" xlink:href="#dirArrow" transform="rotate(180) translate(-30 -48)" onmousedown="handlePan(0,1)">
                  <use xlink:href="#rim" fill="#404040">
                        <set attributeName="fill" to="#808080" begin="arrowDown.mouseover" end="arrowDown.mouseout"/>
                  </use>
                  <path fill="none" stroke="white" stroke-width="1.5" d="M0,-3.0v7 M-2.5,-0.5L0,-3.0L2.5,-0.5"/>
                </g>
                <g id="arrowLeft" xlink:href="#dirArrow" transform="rotate(270) translate(-36 17)" onmousedown="handlePan(-1,0)">
                  <use xlink:href="#rim" fill="#404040">
                        <set attributeName="fill" to="#808080" begin="arrowLeft.mouseover" end="arrowLeft.mouseout"/>
                  </use>
                  <path fill="none" stroke="white" stroke-width="1.5" d="M0,-3.0v7 M-2.5,-0.5L0,-3.0L2.5,-0.5"/>
                </g>
        </g>
        <svg viewBox="0 0 15 15" width="100%" height="30px" preserveAspectRatio="xMaxYMin meet">
         <g id="arrow_out" transform="scale(0.3 0.3)">
          <a xlink:href="_nuki_constants_8h__dep__incl_org.svg" target="_base">
           <rect id="button" ry="5" rx="5" y="6" x="6" height="38" width="38"
                fill="#f2f5e9" fill-opacity="0.5" stroke="#606060" stroke-width="1.0"/>
           <path id="arrow"
             d="M 11.500037,31.436501 C 11.940474,20.09759 22.043105,11.32322 32.158766,21.979434 L 37.068811,17.246167 C 37.068811,17.246167 37.088388,32 37.088388,32 L 22.160133,31.978069 C 22.160133,31.978069 26.997745,27.140456 26.997745,27.140456 C 18.528582,18.264221 13.291696,25.230495 11.500037,31.436501 z"
             style="fill:#404040;"/>
          </a>
         </g>
        </svg>
</svg>
