<?xml version="1.0" encoding="UTF-8" standalone="no"?>
<!DOCTYPE svg PUBLIC "-//W3C//DTD SVG 1.1//EN"
 "http://www.w3.org/Graphics/SVG/1.1/DTD/svg11.dtd">
<!-- Generated by graphviz version 8.0.5 (20230430.1635)
 -->
<!-- Title: src/NukiOpenerUtils.cpp Pages: 1 -->
<svg width="333pt" height="248pt"
 viewBox="0.00 0.00 333.25 248.25" xmlns="http://www.w3.org/2000/svg" xmlns:xlink="http://www.w3.org/1999/xlink">
<g id="graph0" class="graph" transform="scale(1 1) rotate(0) translate(4 244.25)">
<title>src/NukiOpenerUtils.cpp</title>
<!-- Node1 -->
<g id="node1" class="node">
<title>Node1</title>
<g id="a_node1"><a xlink:title=" ">
<polygon fill="#999999" stroke="#666666" points="206.5,-240.25 84,-240.25 84,-221 206.5,-221 206.5,-240.25"/>
<text text-anchor="middle" x="145.25" y="-226.75" font-family="Helvetica,sans-Serif" font-size="10.00">src/NukiOpenerUtils.cpp</text>
</a>
</g>
</g>
<!-- Node2 -->
<g id="node2" class="node">
<title>Node2</title>
<g id="a_node2"><a xlink:href="_nuki_opener_utils_8h.html" target="_top" xlink:title=" ">
<polygon fill="white" stroke="#666666" points="193,-185 97.5,-185 97.5,-165.75 193,-165.75 193,-185"/>
<text text-anchor="middle" x="145.25" y="-171.5" font-family="Helvetica,sans-Serif" font-size="10.00">NukiOpenerUtils.h</text>
</a>
</g>
</g>
<!-- Node1&#45;&gt;Node2 -->
<g id="edge1" class="edge">
<title>Node1&#45;&gt;Node2</title>
<path fill="none" stroke="#63b8ff" d="M145.25,-220.83C145.25,-214.17 145.25,-204.74 145.25,-196.28"/>
<polygon fill="#63b8ff" stroke="#63b8ff" points="148.75,-196.36 145.25,-186.36 141.75,-196.36 148.75,-196.36"/>
</g>
<!-- Node3 -->
<g id="node3" class="node">
<title>Node3</title>
<g id="a_node3"><a xlink:title=" ">
<polygon fill="#e0e0e0" stroke="#999999" points="56.5,-74.5 0,-74.5 0,-55.25 56.5,-55.25 56.5,-74.5"/>
<text text-anchor="middle" x="28.25" y="-61" font-family="Helvetica,sans-Serif" font-size="10.00">Arduino.h</text>
</a>
</g>
</g>
<!-- Node2&#45;&gt;Node3 -->
<g id="edge2" class="edge">
<title>Node2&#45;&gt;Node3</title>
<path fill="none" stroke="#63b8ff" d="M97.29,-168.31C73.05,-162.57 45.59,-151.42 30.25,-129.75 21.23,-117 21.52,-98.96 23.62,-85.3"/>
<polygon fill="#63b8ff" stroke="#63b8ff" points="27.21,-86.16 25.73,-75.67 20.35,-84.79 27.21,-86.16"/>
</g>
<!-- Node4 -->
<g id="node4" class="node">
<title>Node4</title>
<g id="a_node4"><a xlink:href="_nuki_data_types_8h.html" target="_top" xlink:title=" ">
<polygon fill="white" stroke="#666666" points="129.38,-129.75 39.12,-129.75 39.12,-110.5 129.38,-110.5 129.38,-129.75"/>
<text text-anchor="middle" x="84.25" y="-116.25" font-family="Helvetica,sans-Serif" font-size="10.00">NukiDataTypes.h</text>
</a>
</g>
</g>
<!-- Node2&#45;&gt;Node4 -->
<g id="edge3" class="edge">
<title>Node2&#45;&gt;Node4</title>
<path fill="none" stroke="#63b8ff" d="M134.9,-165.34C126.09,-157.65 113.2,-146.4 102.64,-137.18"/>
<polygon fill="#63b8ff" stroke="#63b8ff" points="105.28,-133.96 95.44,-130.02 100.68,-139.24 105.28,-133.96"/>
</g>
<!-- Node7 -->
<g id="node7" class="node">
<title>Node7</title>
<g id="a_node7"><a xlink:href="_nuki_opener_constants_8h.html" target="_top" xlink:title=" ">
<polygon fill="white" stroke="#666666" points="267,-129.75 147.5,-129.75 147.5,-110.5 267,-110.5 267,-129.75"/>
<text text-anchor="middle" x="207.25" y="-116.25" font-family="Helvetica,sans-Serif" font-size="10.00">NukiOpenerConstants.h</text>
</a>
</g>
</g>
<!-- Node2&#45;&gt;Node7 -->
<g id="edge7" class="edge">
<title>Node2&#45;&gt;Node7</title>
<path fill="none" stroke="#63b8ff" d="M155.77,-165.34C164.73,-157.65 177.82,-146.4 188.56,-137.18"/>
<polygon fill="#63b8ff" stroke="#63b8ff" points="190.58,-139.2 195.89,-130.02 186.02,-133.89 190.58,-139.2"/>
</g>
<!-- Node8 -->
<g id="node8" class="node">
<title>Node8</title>
<g id="a_node8"><a xlink:title=" ">
<polygon fill="#e0e0e0" stroke="#999999" points="325.25,-129.75 285.25,-129.75 285.25,-110.5 325.25,-110.5 325.25,-129.75"/>
<text text-anchor="middle" x="305.25" y="-116.25" font-family="Helvetica,sans-Serif" font-size="10.00">bitset</text>
</a>
</g>
</g>
<!-- Node2&#45;&gt;Node8 -->
<g id="edge10" class="edge">
<title>Node2&#45;&gt;Node8</title>
<path fill="none" stroke="#63b8ff" d="M172.39,-165.34C200.82,-155.88 245.36,-141.06 274.93,-131.22"/>
<polygon fill="#63b8ff" stroke="#63b8ff" points="275.7,-134.32 284.08,-127.84 273.49,-127.67 275.7,-134.32"/>
</g>
<!-- Node4&#45;&gt;Node3 -->
<g id="edge4" class="edge">
<title>Node4&#45;&gt;Node3</title>
<path fill="none" stroke="#63b8ff" d="M74.75,-110.09C66.74,-102.47 55.07,-91.37 45.42,-82.2"/>
<polygon fill="#63b8ff" stroke="#63b8ff" points="48.27,-80.13 38.61,-75.77 43.44,-85.2 48.27,-80.13"/>
</g>
<!-- Node5 -->
<g id="node5" class="node">
<title>Node5</title>
<g id="a_node5"><a xlink:href="_nuki_constants_8h.html" target="_top" xlink:title=" ">
<polygon fill="white" stroke="#666666" points="179.25,-74.5 91.25,-74.5 91.25,-55.25 179.25,-55.25 179.25,-74.5"/>
<text text-anchor="middle" x="135.25" y="-61" font-family="Helvetica,sans-Serif" font-size="10.00">NukiConstants.h</text>
</a>
</g>
</g>
<!-- Node4&#45;&gt;Node5 -->
<g id="edge5" class="edge">
<title>Node4&#45;&gt;Node5</title>
<path fill="none" stroke="#63b8ff" d="M92.67,-110.33C99.86,-102.82 110.41,-91.81 119.2,-82.63"/>
<polygon fill="#63b8ff" stroke="#63b8ff" points="121.26,-85.5 125.65,-75.86 116.2,-80.66 121.26,-85.5"/>
</g>
<!-- Node6 -->
<g id="node6" class="node">
<title>Node6</title>
<g id="a_node6"><a xlink:title=" ">
<polygon fill="#e0e0e0" stroke="#999999" points="213.75,-19.25 128.75,-19.25 128.75,0 213.75,0 213.75,-19.25"/>
<text text-anchor="middle" x="171.25" y="-5.75" font-family="Helvetica,sans-Serif" font-size="10.00">NimBLEUUID.h</text>
</a>
</g>
</g>
<!-- Node5&#45;&gt;Node6 -->
<g id="edge6" class="edge">
<title>Node5&#45;&gt;Node6</title>
<path fill="none" stroke="#63b8ff" d="M141.19,-55.08C146.06,-47.88 153.11,-37.46 159.16,-28.51"/>
<polygon fill="#63b8ff" stroke="#63b8ff" points="162.47,-30.85 165.18,-20.61 156.68,-26.93 162.47,-30.85"/>
</g>
<!-- Node7&#45;&gt;Node5 -->
<g id="edge9" class="edge">
<title>Node7&#45;&gt;Node5</title>
<path fill="none" stroke="#63b8ff" d="M195.04,-110.09C184.32,-102.16 168.51,-90.47 155.84,-81.1"/>
<polygon fill="#63b8ff" stroke="#63b8ff" points="158.4,-77.91 148.28,-74.77 154.24,-83.54 158.4,-77.91"/>
</g>
<!-- Node7&#45;&gt;Node6 -->
<g id="edge8" class="edge">
<title>Node7&#45;&gt;Node6</title>
<path fill="none" stroke="#63b8ff" d="M204.87,-110.38C201.46,-98.02 194.86,-74.76 188.25,-55.25 185.36,-46.71 181.86,-37.37 178.78,-29.46"/>
<polygon fill="#63b8ff" stroke="#63b8ff" points="181.76,-28.46 174.83,-20.44 175.25,-31.03 181.76,-28.46"/>
</g>
</g>
</svg>
