<?xml version="1.0" encoding="UTF-8" standalone="no"?>
<!DOCTYPE svg PUBLIC "-//W3C//DTD SVG 1.1//EN"
 "http://www.w3.org/Graphics/SVG/1.1/DTD/svg11.dtd">
<!-- Generated by graphviz version 7.1.0 (20230121.1956)
 -->
<!-- Title: src/NukiUtils.h Pages: 1 -->
<svg width="226pt" height="192pt"
 viewBox="0.00 0.00 226.00 192.00" xmlns="http://www.w3.org/2000/svg" xmlns:xlink="http://www.w3.org/1999/xlink">
<g id="graph0" class="graph" transform="scale(1 1) rotate(0) translate(4 188)">
<title>src/NukiUtils.h</title>
<!-- Node1 -->
<g id="node1" class="node">
<title>Node1</title>
<g id="a_node1"><a xlink:title=" ">
<polygon fill="#999999" stroke="#666666" points="152,-184 71,-184 71,-165 152,-165 152,-184"/>
<text text-anchor="middle" x="111.5" y="-172" font-family="Helvetica,sans-Serif" font-size="10.00">src/NukiUtils.h</text>
</a>
</g>
</g>
<!-- Node2 -->
<g id="node2" class="node">
<title>Node2</title>
<g id="a_node2"><a xlink:title=" ">
<polygon fill="#e0e0e0" stroke="#999999" points="57,-74 0,-74 0,-55 57,-55 57,-74"/>
<text text-anchor="middle" x="28.5" y="-62" font-family="Helvetica,sans-Serif" font-size="10.00">Arduino.h</text>
</a>
</g>
</g>
<!-- Node1&#45;&gt;Node2 -->
<g id="edge1" class="edge">
<title>Node1&#45;&gt;Node2</title>
<path fill="none" stroke="#63b8ff" d="M71.25,-164.6C52.08,-158.12 30.91,-147.19 19.5,-129 11.26,-115.87 14.65,-98.24 19.45,-84.89"/>
<polygon fill="#63b8ff" stroke="#63b8ff" points="22.59,-86.45 23.19,-75.87 16.12,-83.77 22.59,-86.45"/>
</g>
<!-- Node3 -->
<g id="node3" class="node">
<title>Node3</title>
<g id="a_node3"><a xlink:href="_nuki_data_types_8h.html" target="_top" xlink:title=" ">
<polygon fill="white" stroke="#666666" points="120,-129 29,-129 29,-110 120,-110 120,-129"/>
<text text-anchor="middle" x="74.5" y="-117" font-family="Helvetica,sans-Serif" font-size="10.00">NukiDataTypes.h</text>
</a>
</g>
</g>
<!-- Node1&#45;&gt;Node3 -->
<g id="edge2" class="edge">
<title>Node1&#45;&gt;Node3</title>
<path fill="none" stroke="#63b8ff" d="M105.39,-164.75C100.49,-157.73 93.45,-147.64 87.33,-138.87"/>
<polygon fill="#63b8ff" stroke="#63b8ff" points="90.2,-136.88 81.61,-130.68 84.46,-140.89 90.2,-136.88"/>
</g>
<!-- Node4 -->
<g id="node4" class="node">
<title>Node4</title>
<g id="a_node4"><a xlink:href="_nuki_constants_8h.html" target="_top" xlink:title=" ">
<polygon fill="white" stroke="#666666" points="178,-74 89,-74 89,-55 178,-55 178,-74"/>
<text text-anchor="middle" x="133.5" y="-62" font-family="Helvetica,sans-Serif" font-size="10.00">NukiConstants.h</text>
</a>
</g>
</g>
<!-- Node1&#45;&gt;Node4 -->
<g id="edge6" class="edge">
<title>Node1&#45;&gt;Node4</title>
<path fill="none" stroke="#63b8ff" d="M115.8,-164.53C119.82,-155.71 125.63,-141.75 128.5,-129 131.71,-114.75 132.94,-98.3 133.38,-85.71"/>
<polygon fill="#63b8ff" stroke="#63b8ff" points="136.88,-85.82 133.57,-75.76 129.88,-85.69 136.88,-85.82"/>
</g>
<!-- Node6 -->
<g id="node6" class="node">
<title>Node6</title>
<g id="a_node6"><a xlink:title=" ">
<polygon fill="#e0e0e0" stroke="#999999" points="218,-129 177,-129 177,-110 218,-110 218,-129"/>
<text text-anchor="middle" x="197.5" y="-117" font-family="Helvetica,sans-Serif" font-size="10.00">bitset</text>
</a>
</g>
</g>
<!-- Node1&#45;&gt;Node6 -->
<g id="edge7" class="edge">
<title>Node1&#45;&gt;Node6</title>
<path fill="none" stroke="#63b8ff" d="M126.09,-164.51C139.02,-156.54 158.14,-144.75 173.35,-135.38"/>
<polygon fill="#63b8ff" stroke="#63b8ff" points="175.16,-138.38 181.84,-130.15 171.49,-132.42 175.16,-138.38"/>
</g>
<!-- Node3&#45;&gt;Node2 -->
<g id="edge3" class="edge">
<title>Node3&#45;&gt;Node2</title>
<path fill="none" stroke="#63b8ff" d="M66.9,-109.75C60.62,-102.5 51.49,-91.98 43.7,-83.02"/>
<polygon fill="#63b8ff" stroke="#63b8ff" points="46.45,-80.84 37.25,-75.59 41.16,-85.43 46.45,-80.84"/>
</g>
<!-- Node3&#45;&gt;Node4 -->
<g id="edge4" class="edge">
<title>Node3&#45;&gt;Node4</title>
<path fill="none" stroke="#63b8ff" d="M84.51,-109.51C92.87,-102 105,-91.1 115.1,-82.03"/>
<polygon fill="#63b8ff" stroke="#63b8ff" points="117.41,-84.66 122.51,-75.37 112.74,-79.45 117.41,-84.66"/>
</g>
<!-- Node5 -->
<g id="node5" class="node">
<title>Node5</title>
<g id="a_node5"><a xlink:title=" ">
<polygon fill="#e0e0e0" stroke="#999999" points="176.5,-19 90.5,-19 90.5,0 176.5,0 176.5,-19"/>
<text text-anchor="middle" x="133.5" y="-7" font-family="Helvetica,sans-Serif" font-size="10.00">NimBLEUUID.h</text>
</a>
</g>
</g>
<!-- Node4&#45;&gt;Node5 -->
<g id="edge5" class="edge">
<title>Node4&#45;&gt;Node5</title>
<path fill="none" stroke="#63b8ff" d="M133.5,-54.75C133.5,-48.27 133.5,-39.16 133.5,-30.9"/>
<polygon fill="#63b8ff" stroke="#63b8ff" points="137,-30.96 133.5,-20.96 130,-30.96 137,-30.96"/>
</g>
</g>
</svg>
