<?xml version="1.0" encoding="UTF-8" standalone="no"?>
<!DOCTYPE svg PUBLIC "-//W3C//DTD SVG 1.1//EN"
 "http://www.w3.org/Graphics/SVG/1.1/DTD/svg11.dtd">
<!-- Generated by graphviz version 9.0.0 (20230911.1827)
 -->
<!-- Title: src/NukiOpenerUtils.h Pages: 1 -->
<svg width="333pt" height="193pt"
 viewBox="0.00 0.00 333.25 193.00" xmlns="http://www.w3.org/2000/svg" xmlns:xlink="http://www.w3.org/1999/xlink">
<g id="graph0" class="graph" transform="scale(1 1) rotate(0) translate(4 189)">
<title>src/NukiOpenerUtils.h</title>
<!-- Node1 -->
<g id="Node000001" class="node">
<title>Node1</title>
<g id="a_Node000001"><a xlink:title=" ">
<polygon fill="#999999" stroke="#666666" points="201.25,-185 89.25,-185 89.25,-165.75 201.25,-165.75 201.25,-185"/>
<text text-anchor="middle" x="145.25" y="-171.5" font-family="Helvetica,sans-Serif" font-size="10.00">src/NukiOpenerUtils.h</text>
</a>
</g>
</g>
<!-- Node2 -->
<g id="Node000002" class="node">
<title>Node2</title>
<g id="a_Node000002"><a xlink:title=" ">
<polygon fill="#e0e0e0" stroke="#999999" points="56.5,-74.5 0,-74.5 0,-55.25 56.5,-55.25 56.5,-74.5"/>
<text text-anchor="middle" x="28.25" y="-61" font-family="Helvetica,sans-Serif" font-size="10.00">Arduino.h</text>
</a>
</g>
</g>
<!-- Node1&#45;&gt;Node2 -->
<g id="edge1_Node000001_Node000002" class="edge">
<title>Node1&#45;&gt;Node2</title>
<g id="a_edge1_Node000001_Node000002"><a xlink:title=" ">
<path fill="none" stroke="#63b8ff" d="M88.98,-166.15C67.01,-159.92 43.86,-148.98 30.25,-129.75 21.32,-117.13 21.52,-99.33 23.55,-85.72"/>
<polygon fill="#63b8ff" stroke="#63b8ff" points="26.94,-86.64 25.44,-76.15 20.07,-85.29 26.94,-86.64"/>
</a>
</g>
</g>
<!-- Node3 -->
<g id="Node000003" class="node">
<title>Node3</title>
<g id="a_Node000003"><a xlink:href="_nuki_data_types_8h.html" target="_top" xlink:title=" ">
<polygon fill="white" stroke="#666666" points="129.38,-129.75 39.12,-129.75 39.12,-110.5 129.38,-110.5 129.38,-129.75"/>
<text text-anchor="middle" x="84.25" y="-116.25" font-family="Helvetica,sans-Serif" font-size="10.00">NukiDataTypes.h</text>
</a>
</g>
</g>
<!-- Node1&#45;&gt;Node3 -->
<g id="edge2_Node000001_Node000003" class="edge">
<title>Node1&#45;&gt;Node3</title>
<g id="a_edge2_Node000001_Node000003"><a xlink:title=" ">
<path fill="none" stroke="#63b8ff" d="M134.9,-165.34C126.17,-157.72 113.46,-146.62 102.95,-137.45"/>
<polygon fill="#63b8ff" stroke="#63b8ff" points="105.42,-134.96 95.59,-131.02 100.82,-140.23 105.42,-134.96"/>
</a>
</g>
</g>
<!-- Node6 -->
<g id="Node000006" class="node">
<title>Node6</title>
<g id="a_Node000006"><a xlink:href="_nuki_opener_constants_8h.html" target="_top" xlink:title=" ">
<polygon fill="white" stroke="#666666" points="267,-129.75 147.5,-129.75 147.5,-110.5 267,-110.5 267,-129.75"/>
<text text-anchor="middle" x="207.25" y="-116.25" font-family="Helvetica,sans-Serif" font-size="10.00">NukiOpenerConstants.h</text>
</a>
</g>
</g>
<!-- Node1&#45;&gt;Node6 -->
<g id="edge6_Node000001_Node000006" class="edge">
<title>Node1&#45;&gt;Node6</title>
<g id="a_edge6_Node000001_Node000006"><a xlink:title=" ">
<path fill="none" stroke="#63b8ff" d="M155.77,-165.34C164.64,-157.72 177.56,-146.62 188.24,-137.45"/>
<polygon fill="#63b8ff" stroke="#63b8ff" points="190.43,-140.18 195.74,-131.01 185.87,-134.87 190.43,-140.18"/>
</a>
</g>
</g>
<!-- Node7 -->
<g id="Node000007" class="node">
<title>Node7</title>
<g id="a_Node000007"><a xlink:title=" ">
<polygon fill="#e0e0e0" stroke="#999999" points="325.25,-129.75 285.25,-129.75 285.25,-110.5 325.25,-110.5 325.25,-129.75"/>
<text text-anchor="middle" x="305.25" y="-116.25" font-family="Helvetica,sans-Serif" font-size="10.00">bitset</text>
</a>
</g>
</g>
<!-- Node1&#45;&gt;Node7 -->
<g id="edge9_Node000001_Node000007" class="edge">
<title>Node1&#45;&gt;Node7</title>
<g id="a_edge9_Node000001_Node000007"><a xlink:title=" ">
<path fill="none" stroke="#63b8ff" d="M172.39,-165.34C200.69,-155.92 244.97,-141.19 274.54,-131.35"/>
<polygon fill="#63b8ff" stroke="#63b8ff" points="275.27,-134.79 283.65,-128.31 273.05,-128.15 275.27,-134.79"/>
</a>
</g>
</g>
<!-- Node3&#45;&gt;Node2 -->
<g id="edge3_Node000003_Node000002" class="edge">
<title>Node3&#45;&gt;Node2</title>
<g id="a_edge3_Node000003_Node000002"><a xlink:title=" ">
<path fill="none" stroke="#63b8ff" d="M74.75,-110.09C66.82,-102.55 55.3,-91.6 45.71,-82.48"/>
<polygon fill="#63b8ff" stroke="#63b8ff" points="48.36,-80.17 38.71,-75.82 43.54,-85.24 48.36,-80.17"/>
</a>
</g>
</g>
<!-- Node4 -->
<g id="Node000004" class="node">
<title>Node4</title>
<g id="a_Node000004"><a xlink:href="_nuki_constants_8h.html" target="_top" xlink:title=" ">
<polygon fill="white" stroke="#666666" points="179.25,-74.5 91.25,-74.5 91.25,-55.25 179.25,-55.25 179.25,-74.5"/>
<text text-anchor="middle" x="135.25" y="-61" font-family="Helvetica,sans-Serif" font-size="10.00">NukiConstants.h</text>
</a>
</g>
</g>
<!-- Node3&#45;&gt;Node4 -->
<g id="edge4_Node000003_Node000004" class="edge">
<title>Node3&#45;&gt;Node4</title>
<g id="a_edge4_Node000003_Node000004"><a xlink:title=" ">
<path fill="none" stroke="#63b8ff" d="M92.67,-110.33C99.79,-102.9 110.19,-92.04 118.94,-82.91"/>
<polygon fill="#63b8ff" stroke="#63b8ff" points="121.21,-85.6 125.6,-75.95 116.15,-80.75 121.21,-85.6"/>
</a>
</g>
</g>
<!-- Node5 -->
<g id="Node000005" class="node">
<title>Node5</title>
<g id="a_Node000005"><a xlink:title=" ">
<polygon fill="#e0e0e0" stroke="#999999" points="213.75,-19.25 128.75,-19.25 128.75,0 213.75,0 213.75,-19.25"/>
<text text-anchor="middle" x="171.25" y="-5.75" font-family="Helvetica,sans-Serif" font-size="10.00">NimBLEUUID.h</text>
</a>
</g>
</g>
<!-- Node4&#45;&gt;Node5 -->
<g id="edge5_Node000004_Node000005" class="edge">
<title>Node4&#45;&gt;Node5</title>
<g id="a_edge5_Node000004_Node000005"><a xlink:title=" ">
<path fill="none" stroke="#63b8ff" d="M141.19,-55.08C145.96,-48.03 152.81,-37.9 158.77,-29.08"/>
<polygon fill="#63b8ff" stroke="#63b8ff" points="161.63,-31.11 164.33,-20.86 155.83,-27.19 161.63,-31.11"/>
</a>
</g>
</g>
<!-- Node6&#45;&gt;Node4 -->
<g id="edge8_Node000006_Node000004" class="edge">
<title>Node6&#45;&gt;Node4</title>
<g id="a_edge8_Node000006_Node000004"><a xlink:title=" ">
<path fill="none" stroke="#63b8ff" d="M195.04,-110.09C184.42,-102.24 168.81,-90.7 156.21,-81.37"/>
<polygon fill="#63b8ff" stroke="#63b8ff" points="158.62,-78.81 148.5,-75.67 154.46,-84.44 158.62,-78.81"/>
</a>
</g>
</g>
<!-- Node6&#45;&gt;Node5 -->
<g id="edge7_Node000006_Node000005" class="edge">
<title>Node6&#45;&gt;Node5</title>
<g id="a_edge7_Node000006_Node000005"><a xlink:title=" ">
<path fill="none" stroke="#63b8ff" d="M204.87,-110.38C201.46,-98.02 194.86,-74.76 188.25,-55.25 185.42,-46.91 182.02,-37.8 179,-30.01"/>
<polygon fill="#63b8ff" stroke="#63b8ff" points="182.31,-28.87 175.39,-20.85 175.8,-31.44 182.31,-28.87"/>
</a>
</g>
</g>
</g>
</svg>
