<?xml version="1.0" encoding="UTF-8" standalone="no"?>
<!DOCTYPE svg PUBLIC "-//W3C//DTD SVG 1.1//EN"
 "http://www.w3.org/Graphics/SVG/1.1/DTD/svg11.dtd">
<!-- Generated by graphviz version 6.0.1 (20220911.1526)
 -->
<!-- Title: src/NukiBle.hpp Pages: 1 -->
<svg width="172pt" height="192pt"
 viewBox="0.00 0.00 172.00 192.00" xmlns="http://www.w3.org/2000/svg" xmlns:xlink="http://www.w3.org/1999/xlink">
<g id="graph0" class="graph" transform="scale(1 1) rotate(0) translate(4 188)">
<title>src/NukiBle.hpp</title>
<!-- Node1 -->
<g id="node1" class="node">
<title>Node1</title>
<g id="a_node1"><a xlink:title=" ">
<polygon fill="#999999" stroke="#666666" points="124.5,-184 38.5,-184 38.5,-165 124.5,-165 124.5,-184"/>
<text text-anchor="middle" x="81.5" y="-172" font-family="Helvetica,sans-Serif" font-size="10.00">src/NukiBle.hpp</text>
</a>
</g>
</g>
<!-- Node2 -->
<g id="node2" class="node">
<title>Node2</title>
<g id="a_node2"><a xlink:href="_nuki_constants_8h.html" target="_top" xlink:title=" ">
<polygon fill="white" stroke="#666666" points="89,-74 0,-74 0,-55 89,-55 89,-74"/>
<text text-anchor="middle" x="44.5" y="-62" font-family="Helvetica,sans-Serif" font-size="10.00">NukiConstants.h</text>
</a>
</g>
</g>
<!-- Node1&#45;&gt;Node2 -->
<g id="edge1" class="edge">
<title>Node1&#45;&gt;Node2</title>
<path fill="none" stroke="#63b8ff" d="M77.96,-164.69C74.4,-155.76 68.85,-141.5 64.5,-129 59.27,-113.97 53.88,-96.74 50.02,-84.03"/>
<polygon fill="#63b8ff" stroke="#63b8ff" points="53.29,-82.75 47.05,-74.18 46.58,-84.77 53.29,-82.75"/>
</g>
<!-- Node4 -->
<g id="node4" class="node">
<title>Node4</title>
<g id="a_node4"><a xlink:href="_nuki_data_types_8h.html" target="_top" xlink:title=" ">
<polygon fill="white" stroke="#666666" points="164,-129 73,-129 73,-110 164,-110 164,-129"/>
<text text-anchor="middle" x="118.5" y="-117" font-family="Helvetica,sans-Serif" font-size="10.00">NukiDataTypes.h</text>
</a>
</g>
</g>
<!-- Node1&#45;&gt;Node4 -->
<g id="edge3" class="edge">
<title>Node1&#45;&gt;Node4</title>
<path fill="none" stroke="#63b8ff" d="M87.61,-164.75C92.78,-157.34 100.35,-146.5 106.69,-137.41"/>
<polygon fill="#63b8ff" stroke="#63b8ff" points="109.65,-139.29 112.5,-129.09 103.91,-135.29 109.65,-139.29"/>
</g>
<!-- Node3 -->
<g id="node3" class="node">
<title>Node3</title>
<g id="a_node3"><a xlink:title=" ">
<polygon fill="#e0e0e0" stroke="#999999" points="87.5,-19 1.5,-19 1.5,0 87.5,0 87.5,-19"/>
<text text-anchor="middle" x="44.5" y="-7" font-family="Helvetica,sans-Serif" font-size="10.00">NimBLEUUID.h</text>
</a>
</g>
</g>
<!-- Node2&#45;&gt;Node3 -->
<g id="edge2" class="edge">
<title>Node2&#45;&gt;Node3</title>
<path fill="none" stroke="#63b8ff" d="M44.5,-54.75C44.5,-47.8 44.5,-37.85 44.5,-29.13"/>
<polygon fill="#63b8ff" stroke="#63b8ff" points="48,-29.09 44.5,-19.09 41,-29.09 48,-29.09"/>
</g>
<!-- Node4&#45;&gt;Node2 -->
<g id="edge5" class="edge">
<title>Node4&#45;&gt;Node2</title>
<path fill="none" stroke="#63b8ff" d="M106.61,-109.98C95.35,-101.92 78.21,-89.65 64.79,-80.03"/>
<polygon fill="#63b8ff" stroke="#63b8ff" points="66.77,-77.15 56.61,-74.17 62.7,-82.84 66.77,-77.15"/>
</g>
<!-- Node5 -->
<g id="node5" class="node">
<title>Node5</title>
<g id="a_node5"><a xlink:title=" ">
<polygon fill="#e0e0e0" stroke="#999999" points="164,-74 107,-74 107,-55 164,-55 164,-74"/>
<text text-anchor="middle" x="135.5" y="-62" font-family="Helvetica,sans-Serif" font-size="10.00">Arduino.h</text>
</a>
</g>
</g>
<!-- Node4&#45;&gt;Node5 -->
<g id="edge4" class="edge">
<title>Node4&#45;&gt;Node5</title>
<path fill="none" stroke="#63b8ff" d="M121.31,-109.75C123.56,-102.72 126.8,-92.62 129.62,-83.84"/>
<polygon fill="#63b8ff" stroke="#63b8ff" points="133.02,-84.68 132.75,-74.09 126.36,-82.54 133.02,-84.68"/>
</g>
</g>
</svg>
