<?xml version="1.0" encoding="UTF-8" standalone="no"?>
<!DOCTYPE svg PUBLIC "-//W3C//DTD SVG 1.1//EN"
 "http://www.w3.org/Graphics/SVG/1.1/DTD/svg11.dtd">
<!-- Generated by graphviz version 12.2.1 (20241206.2353)
 -->
<!-- Title: src/NukiOpener.cpp Pages: 1 -->
<!--zoomable 359 -->

<svg id="main" version="1.1" xmlns="http://www.w3.org/2000/svg" xmlns:xlink="http://www.w3.org/1999/xlink" xml:space="preserve" onload="init(evt)">

<style type="text/css"><![CDATA[
.node, .edge {opacity: 0.7;}
.node.selected, .edge.selected {opacity: 1;}
.edge:hover path { stroke: red; }
.edge:hover polygon { stroke: red; fill: red; }
]]></style>

<defs>
  <circle id="rim" cx="0" cy="0" r="7"/>
  <circle id="rim2" cx="0" cy="0" r="3.5"/>
  <g id="zoomPlus">
    <use xlink:href="#rim" fill="#404040"><set attributeName="fill" to="#808080" begin="zoomplus.mouseover" end="zoomplus.mouseout"/></use>
    <path d="M-4,0h8M0,-4v8" fill="none" stroke="white" stroke-width="1.5" pointer-events="none"/>
  </g>
  <g id="zoomMin">
    <use xlink:href="#rim" fill="#404040"><set attributeName="fill" to="#808080" begin="zoomminus.mouseover" end="zoomminus.mouseout"/></use>
    <path d="M-4,0h8" fill="none" stroke="white" stroke-width="1.5" pointer-events="none"/>
  </g>
  <g id="arrowUp" transform="translate(30 24)">
    <use xlink:href="#rim"/>
    <path pointer-events="none" fill="none" stroke="white" stroke-width="1.5" d="M0,-3.0v7 M-2.5,-0.5L0,-3.0L2.5,-0.5"/>
  </g>
  <g id="arrowRight" transform="rotate(90) translate(36 -43)">
    <use xlink:href="#rim"/>
    <path pointer-events="none" fill="none" stroke="white" stroke-width="1.5" d="M0,-3.0v7 M-2.5,-0.5L0,-3.0L2.5,-0.5"/>
  </g>
  <g id="arrowDown" transform="rotate(180) translate(-30 -48)">
    <use xlink:href="#rim"/>
    <path pointer-events="none" fill="none" stroke="white" stroke-width="1.5" d="M0,-3.0v7 M-2.5,-0.5L0,-3.0L2.5,-0.5"/>
  </g>
  <g id="arrowLeft" transform="rotate(270) translate(-36 17)">
    <use xlink:href="#rim"/>
    <path pointer-events="none" fill="none" stroke="white" stroke-width="1.5" d="M0,-3.0v7 M-2.5,-0.5L0,-3.0L2.5,-0.5"/>
  </g>
  <g id="resetDef">
    <use xlink:href="#rim2" fill="#404040"><set attributeName="fill" to="#808080" begin="reset.mouseover" end="reset.mouseout"/></use>
  </g>
</defs>
<script type="application/ecmascript">
var viewWidth = 1158;
var viewHeight = 359;
var sectionId = 'dynsection-0';
</script>
<script type="application/ecmascript" xlink:href="svg.min.js"/>
<svg id="graph" class="graph">
<g id="viewport">
<title>src/NukiOpener.cpp</title>
<!-- Node1 -->
<g id="Node000001" class="node">
<title>Node1</title>
<g id="a_Node000001"><a xlink:title=" ">
<polygon fill="#999999" stroke="#666666" points="189.88,-350.75 87.62,-350.75 87.62,-331.5 189.88,-331.5 189.88,-350.75"/>
<text text-anchor="middle" x="138.75" y="-337.25" font-family="Helvetica,sans-Serif" font-size="10.00">src/NukiOpener.cpp</text>
</a>
</g>
</g>
<!-- Node2 -->
<g id="Node000002" class="node">
<title>Node2</title>
<g id="a_Node000002"><a xlink:href="_nuki_opener_8h.html" target="_top" xlink:title=" ">
<polygon fill="white" stroke="#666666" points="110.38,-295.5 35.12,-295.5 35.12,-276.25 110.38,-276.25 110.38,-295.5"/>
<text text-anchor="middle" x="72.75" y="-282" font-family="Helvetica,sans-Serif" font-size="10.00">NukiOpener.h</text>
</a>
</g>
</g>
<!-- Node1&#45;&gt;Node2 -->
<g id="edge1_Node000001_Node000002" class="edge">
<title>Node1&#45;&gt;Node2</title>
<g id="a_edge1_Node000001_Node000002"><a xlink:title=" ">
<path fill="none" stroke="#63b8ff" d="M127.55,-331.09C118.01,-323.4 104.08,-312.15 92.64,-302.93"/>
<polygon fill="#63b8ff" stroke="#63b8ff" points="94.94,-300.28 84.96,-296.73 90.54,-305.73 94.94,-300.28"/>
</a>
</g>
</g>
<!-- Node19 -->
<g id="Node000019" class="node">
<title>Node19</title>
<g id="a_Node000019"><a xlink:href="_nuki_utils_8h.html" target="_top" xlink:title=" ">
<polygon fill="white" stroke="#666666" points="253.75,-185 189.75,-185 189.75,-165.75 253.75,-165.75 253.75,-185"/>
<text text-anchor="middle" x="221.75" y="-171.5" font-family="Helvetica,sans-Serif" font-size="10.00">NukiUtils.h</text>
</a>
</g>
</g>
<!-- Node1&#45;&gt;Node19 -->
<g id="edge24_Node000001_Node000019" class="edge">
<title>Node1&#45;&gt;Node19</title>
<g id="a_edge24_Node000001_Node000019"><a xlink:title=" ">
<path fill="none" stroke="#63b8ff" d="M143.21,-331.32C156.22,-305.67 194.29,-230.55 212.21,-195.19"/>
<polygon fill="#63b8ff" stroke="#63b8ff" points="215.18,-197.07 216.58,-186.57 208.94,-193.91 215.18,-197.07"/>
</a>
</g>
</g>
<!-- Node21 -->
<g id="Node000021" class="node">
<title>Node21</title>
<g id="a_Node000021"><a xlink:href="_nuki_opener_utils_8h.html" target="_top" xlink:title=" ">
<polygon fill="white" stroke="#666666" points="171.5,-185 76,-185 76,-165.75 171.5,-165.75 171.5,-185"/>
<text text-anchor="middle" x="123.75" y="-171.5" font-family="Helvetica,sans-Serif" font-size="10.00">NukiOpenerUtils.h</text>
</a>
</g>
</g>
<!-- Node1&#45;&gt;Node21 -->
<g id="edge29_Node000001_Node000021" class="edge">
<title>Node1&#45;&gt;Node21</title>
<g id="a_edge29_Node000001_Node000021"><a xlink:title=" ">
<path fill="none" stroke="#63b8ff" d="M137.94,-331.32C135.62,-306 128.89,-232.5 125.6,-196.59"/>
<polygon fill="#63b8ff" stroke="#63b8ff" points="129.1,-196.37 124.7,-186.73 122.13,-197.01 129.1,-196.37"/>
</a>
</g>
</g>
<!-- Node3 -->
<g id="Node000003" class="node">
<title>Node3</title>
<g id="a_Node000003"><a xlink:href="_nuki_ble_8h.html" target="_top" xlink:title=" ">
<polygon fill="white" stroke="#666666" points="694.75,-240.25 636.75,-240.25 636.75,-221 694.75,-221 694.75,-240.25"/>
<text text-anchor="middle" x="665.75" y="-226.75" font-family="Helvetica,sans-Serif" font-size="10.00">NukiBle.h</text>
</a>
</g>
</g>
<!-- Node2&#45;&gt;Node3 -->
<g id="edge2_Node000002_Node000003" class="edge">
<title>Node2&#45;&gt;Node3</title>
<g id="a_edge2_Node000002_Node000003"><a xlink:title=" ">
<path fill="none" stroke="#63b8ff" d="M110.75,-281.46C216.93,-271.93 516.1,-245.06 625.25,-235.26"/>
<polygon fill="#63b8ff" stroke="#63b8ff" points="625.25,-238.78 634.9,-234.4 624.62,-231.8 625.25,-238.78"/>
</a>
</g>
</g>
<!-- Node18 -->
<g id="Node000018" class="node">
<title>Node18</title>
<g id="a_Node000018"><a xlink:href="_nuki_opener_constants_8h.html" target="_top" xlink:title=" ">
<polygon fill="white" stroke="#666666" points="119.5,-129.75 0,-129.75 0,-110.5 119.5,-110.5 119.5,-129.75"/>
<text text-anchor="middle" x="59.75" y="-116.25" font-family="Helvetica,sans-Serif" font-size="10.00">NukiOpenerConstants.h</text>
</a>
</g>
</g>
<!-- Node2&#45;&gt;Node18 -->
<g id="edge21_Node000002_Node000018" class="edge">
<title>Node2&#45;&gt;Node18</title>
<g id="a_edge21_Node000002_Node000018"><a xlink:title=" ">
<path fill="none" stroke="#63b8ff" d="M72.05,-276.07C70.04,-250.75 64.21,-177.25 61.35,-141.34"/>
<polygon fill="#63b8ff" stroke="#63b8ff" points="64.85,-141.17 60.57,-131.48 57.87,-141.73 64.85,-141.17"/>
</a>
</g>
</g>
<!-- Node4 -->
<g id="Node000004" class="node">
<title>Node4</title>
<g id="a_Node000004"><a xlink:title=" ">
<polygon fill="#e0e0e0" stroke="#999999" points="1050.88,-185 960.62,-185 960.62,-165.75 1050.88,-165.75 1050.88,-185"/>
<text text-anchor="middle" x="1005.75" y="-171.5" font-family="Helvetica,sans-Serif" font-size="10.00">NimBLEDevice.h</text>
</a>
</g>
</g>
<!-- Node3&#45;&gt;Node4 -->
<g id="edge3_Node000003_Node000004" class="edge">
<title>Node3&#45;&gt;Node4</title>
<g id="a_edge3_Node000003_Node000004"><a xlink:title=" ">
<path fill="none" stroke="#63b8ff" d="M694.99,-225.1C744.89,-217.37 849.98,-201.05 949.24,-185.39"/>
<polygon fill="#63b8ff" stroke="#63b8ff" points="949.55,-188.89 958.88,-183.87 948.46,-181.97 949.55,-188.89"/>
</a>
</g>
</g>
<!-- Node5 -->
<g id="Node000005" class="node">
<title>Node5</title>
<g id="a_Node000005"><a xlink:href="_nuki_constants_8h.html" target="_top" xlink:title=" ">
<polygon fill="white" stroke="#666666" points="421.75,-74.5 333.75,-74.5 333.75,-55.25 421.75,-55.25 421.75,-74.5"/>
<text text-anchor="middle" x="377.75" y="-61" font-family="Helvetica,sans-Serif" font-size="10.00">NukiConstants.h</text>
</a>
</g>
</g>
<!-- Node3&#45;&gt;Node5 -->
<g id="edge4_Node000003_Node000005" class="edge">
<title>Node3&#45;&gt;Node5</title>
<g id="a_edge4_Node000003_Node000005"><a xlink:title=" ">
<path fill="none" stroke="#63b8ff" d="M695.01,-229.14C794.52,-227.21 1115.31,-218.4 1145.75,-185 1151.51,-178.68 1151.32,-172.24 1145.75,-165.75 1099.3,-111.65 602.44,-78.63 433.56,-68.9"/>
<polygon fill="#63b8ff" stroke="#63b8ff" points="433.91,-65.42 423.72,-68.34 433.51,-72.4 433.91,-65.42"/>
</a>
</g>
</g>
<!-- Node8 -->
<g id="Node000008" class="node">
<title>Node8</title>
<g id="a_Node000008"><a xlink:href="_nuki_data_types_8h.html" target="_top" xlink:title=" ">
<polygon fill="white" stroke="#666666" points="437.88,-129.75 347.62,-129.75 347.62,-110.5 437.88,-110.5 437.88,-129.75"/>
<text text-anchor="middle" x="392.75" y="-116.25" font-family="Helvetica,sans-Serif" font-size="10.00">NukiDataTypes.h</text>
</a>
</g>
</g>
<!-- Node3&#45;&gt;Node8 -->
<g id="edge7_Node000003_Node000008" class="edge">
<title>Node3&#45;&gt;Node8</title>
<g id="a_edge7_Node000003_Node000008"><a xlink:title=" ">
<path fill="none" stroke="#63b8ff" d="M636.32,-230.29C563.37,-231.24 377.32,-229.19 338.75,-185 324.23,-168.36 346.03,-148.94 366.11,-135.92"/>
<polygon fill="#63b8ff" stroke="#63b8ff" points="367.67,-139.08 374.38,-130.88 364.02,-133.1 367.67,-139.08"/>
</a>
</g>
</g>
<!-- Node9 -->
<g id="Node000009" class="node">
<title>Node9</title>
<g id="a_Node000009"><a xlink:title=" ">
<polygon fill="#e0e0e0" stroke="#999999" points="287,-74.5 230.5,-74.5 230.5,-55.25 287,-55.25 287,-74.5"/>
<text text-anchor="middle" x="258.75" y="-61" font-family="Helvetica,sans-Serif" font-size="10.00">Arduino.h</text>
</a>
</g>
</g>
<!-- Node3&#45;&gt;Node9 -->
<g id="edge10_Node000003_Node000009" class="edge">
<title>Node3&#45;&gt;Node9</title>
<g id="a_edge10_Node000003_Node000009"><a xlink:title=" ">
<path fill="none" stroke="#63b8ff" d="M636.26,-228.95C563.92,-226.78 379.93,-218.07 329.75,-185 294.01,-161.45 273.67,-113.16 264.58,-85.85"/>
<polygon fill="#63b8ff" stroke="#63b8ff" points="267.94,-84.89 261.62,-76.39 261.26,-86.97 267.94,-84.89"/>
</a>
</g>
</g>
<!-- Node10 -->
<g id="Node000010" class="node">
<title>Node10</title>
<g id="a_Node000010"><a xlink:title=" ">
<polygon fill="#e0e0e0" stroke="#999999" points="423.75,-185 347.75,-185 347.75,-165.75 423.75,-165.75 423.75,-185"/>
<text text-anchor="middle" x="385.75" y="-171.5" font-family="Helvetica,sans-Serif" font-size="10.00">Preferences.h</text>
</a>
</g>
</g>
<!-- Node3&#45;&gt;Node10 -->
<g id="edge11_Node000003_Node000010" class="edge">
<title>Node3&#45;&gt;Node10</title>
<g id="a_edge11_Node000003_Node000010"><a xlink:title=" ">
<path fill="none" stroke="#63b8ff" d="M636.31,-224.03C588.53,-214.94 493.57,-196.88 435.26,-185.79"/>
<polygon fill="#63b8ff" stroke="#63b8ff" points="436.08,-182.38 425.6,-183.95 434.77,-189.26 436.08,-182.38"/>
</a>
</g>
</g>
<!-- Node11 -->
<g id="Node000011" class="node">
<title>Node11</title>
<g id="a_Node000011"><a xlink:title=" ">
<polygon fill="#e0e0e0" stroke="#999999" points="525.88,-185 441.62,-185 441.62,-165.75 525.88,-165.75 525.88,-185"/>
<text text-anchor="middle" x="483.75" y="-171.5" font-family="Helvetica,sans-Serif" font-size="10.00">esp_task_wdt.h</text>
</a>
</g>
</g>
<!-- Node3&#45;&gt;Node11 -->
<g id="edge12_Node000003_Node000011" class="edge">
<title>Node3&#45;&gt;Node11</title>
<g id="a_edge12_Node000003_Node000011"><a xlink:title=" ">
<path fill="none" stroke="#63b8ff" d="M636.51,-221.07C606.54,-212.3 559.64,-198.58 525.71,-188.65"/>
<polygon fill="#63b8ff" stroke="#63b8ff" points="526.78,-185.32 516.2,-185.87 524.81,-192.04 526.78,-185.32"/>
</a>
</g>
</g>
<!-- Node12 -->
<g id="Node000012" class="node">
<title>Node12</title>
<g id="a_Node000012"><a xlink:title=" ">
<polygon fill="#e0e0e0" stroke="#999999" points="625.38,-185 544.12,-185 544.12,-165.75 625.38,-165.75 625.38,-185"/>
<text text-anchor="middle" x="584.75" y="-171.5" font-family="Helvetica,sans-Serif" font-size="10.00">BleInterfaces.h</text>
</a>
</g>
</g>
<!-- Node3&#45;&gt;Node12 -->
<g id="edge13_Node000003_Node000012" class="edge">
<title>Node3&#45;&gt;Node12</title>
<g id="a_edge13_Node000003_Node000012"><a xlink:title=" ">
<path fill="none" stroke="#63b8ff" d="M652.01,-220.59C640.02,-212.71 622.38,-201.11 608.17,-191.77"/>
<polygon fill="#63b8ff" stroke="#63b8ff" points="610.1,-188.85 599.82,-186.28 606.26,-194.7 610.1,-188.85"/>
</a>
</g>
</g>
<!-- Node13 -->
<g id="Node000013" class="node">
<title>Node13</title>
<g id="a_Node000013"><a xlink:title=" ">
<polygon fill="#e0e0e0" stroke="#999999" points="688.38,-185 643.12,-185 643.12,-165.75 688.38,-165.75 688.38,-185"/>
<text text-anchor="middle" x="665.75" y="-171.5" font-family="Helvetica,sans-Serif" font-size="10.00">atomic</text>
</a>
</g>
</g>
<!-- Node3&#45;&gt;Node13 -->
<g id="edge14_Node000003_Node000013" class="edge">
<title>Node3&#45;&gt;Node13</title>
<g id="a_edge14_Node000003_Node000013"><a xlink:title=" ">
<path fill="none" stroke="#63b8ff" d="M665.75,-220.83C665.75,-214.32 665.75,-205.17 665.75,-196.87"/>
<polygon fill="#63b8ff" stroke="#63b8ff" points="669.25,-196.87 665.75,-186.87 662.25,-196.87 669.25,-196.87"/>
</a>
</g>
</g>
<!-- Node14 -->
<g id="Node000014" class="node">
<title>Node14</title>
<g id="a_Node000014"><a xlink:title=" ">
<polygon fill="#e0e0e0" stroke="#999999" points="746.75,-185 706.75,-185 706.75,-165.75 746.75,-165.75 746.75,-185"/>
<text text-anchor="middle" x="726.75" y="-171.5" font-family="Helvetica,sans-Serif" font-size="10.00">string</text>
</a>
</g>
</g>
<!-- Node3&#45;&gt;Node14 -->
<g id="edge15_Node000003_Node000014" class="edge">
<title>Node3&#45;&gt;Node14</title>
<g id="a_edge15_Node000003_Node000014"><a xlink:title=" ">
<path fill="none" stroke="#63b8ff" d="M676.1,-220.59C684.83,-212.97 697.54,-201.87 708.05,-192.7"/>
<polygon fill="#63b8ff" stroke="#63b8ff" points="710.18,-195.48 715.41,-186.27 705.58,-190.21 710.18,-195.48"/>
</a>
</g>
</g>
<!-- Node15 -->
<g id="Node000015" class="node">
<title>Node15</title>
<g id="a_Node000015"><a xlink:title=" ">
<polygon fill="#e0e0e0" stroke="#999999" points="793.15,-185 764.35,-185 764.35,-165.75 793.15,-165.75 793.15,-185"/>
<text text-anchor="middle" x="778.75" y="-171.5" font-family="Helvetica,sans-Serif" font-size="10.00">list</text>
</a>
</g>
</g>
<!-- Node3&#45;&gt;Node15 -->
<g id="edge16_Node000003_Node000015" class="edge">
<title>Node3&#45;&gt;Node15</title>
<g id="a_edge16_Node000003_Node000015"><a xlink:title=" ">
<path fill="none" stroke="#63b8ff" d="M684.92,-220.59C703.92,-211.64 733.12,-197.88 753.89,-188.09"/>
<polygon fill="#63b8ff" stroke="#63b8ff" points="755.25,-191.32 762.8,-183.89 752.26,-184.99 755.25,-191.32"/>
</a>
</g>
</g>
<!-- Node16 -->
<g id="Node000016" class="node">
<title>Node16</title>
<g id="a_Node000016"><a xlink:title=" ">
<polygon fill="#e0e0e0" stroke="#999999" points="942.5,-185 811,-185 811,-165.75 942.5,-165.75 942.5,-185"/>
<text text-anchor="middle" x="876.75" y="-171.5" font-family="Helvetica,sans-Serif" font-size="10.00">sodium/crypto_secretbox.h</text>
</a>
</g>
</g>
<!-- Node3&#45;&gt;Node16 -->
<g id="edge17_Node000003_Node000016" class="edge">
<title>Node3&#45;&gt;Node16</title>
<g id="a_edge17_Node000003_Node000016"><a xlink:title=" ">
<path fill="none" stroke="#63b8ff" d="M695.09,-222.22C729.87,-213.44 788.29,-198.7 829.47,-188.31"/>
<polygon fill="#63b8ff" stroke="#63b8ff" points="830.29,-191.71 839.13,-185.87 828.58,-184.92 830.29,-191.71"/>
</a>
</g>
</g>
<!-- Node17 -->
<g id="Node000017" class="node">
<title>Node17</title>
<g id="a_Node000017"><a xlink:href="_nuki_ble_8hpp.html" target="_top" xlink:title=" ">
<polygon fill="white" stroke="#666666" points="1137,-185 1068.5,-185 1068.5,-165.75 1137,-165.75 1137,-185"/>
<text text-anchor="middle" x="1102.75" y="-171.5" font-family="Helvetica,sans-Serif" font-size="10.00">NukiBle.hpp</text>
</a>
</g>
</g>
<!-- Node3&#45;&gt;Node17 -->
<g id="edge18_Node000003_Node000017" class="edge">
<title>Node3&#45;&gt;Node17</title>
<g id="a_edge18_Node000003_Node000017"><a xlink:title=" ">
<path fill="none" stroke="#63b8ff" d="M695.03,-227.17C758.92,-221.63 915.83,-207.02 1057.06,-185.31"/>
<polygon fill="#63b8ff" stroke="#63b8ff" points="1057.22,-188.82 1066.57,-183.83 1056.15,-181.91 1057.22,-188.82"/>
</a>
</g>
</g>
<!-- Node6 -->
<g id="Node000006" class="node">
<title>Node6</title>
<g id="a_Node000006"><a xlink:title=" ">
<polygon fill="#e0e0e0" stroke="#999999" points="400.38,-19.25 355.12,-19.25 355.12,0 400.38,0 400.38,-19.25"/>
<text text-anchor="middle" x="377.75" y="-5.75" font-family="Helvetica,sans-Serif" font-size="10.00">cstdint</text>
</a>
</g>
</g>
<!-- Node5&#45;&gt;Node6 -->
<g id="edge5_Node000005_Node000006" class="edge">
<title>Node5&#45;&gt;Node6</title>
<g id="a_edge5_Node000005_Node000006"><a xlink:title=" ">
<path fill="none" stroke="#63b8ff" d="M377.75,-55.08C377.75,-48.57 377.75,-39.42 377.75,-31.12"/>
<polygon fill="#63b8ff" stroke="#63b8ff" points="381.25,-31.12 377.75,-21.12 374.25,-31.12 381.25,-31.12"/>
</a>
</g>
</g>
<!-- Node7 -->
<g id="Node000007" class="node">
<title>Node7</title>
<g id="a_Node000007"><a xlink:title=" ">
<polygon fill="#e0e0e0" stroke="#999999" points="306.25,-19.25 221.25,-19.25 221.25,0 306.25,0 306.25,-19.25"/>
<text text-anchor="middle" x="263.75" y="-5.75" font-family="Helvetica,sans-Serif" font-size="10.00">NimBLEUUID.h</text>
</a>
</g>
</g>
<!-- Node5&#45;&gt;Node7 -->
<g id="edge6_Node000005_Node000007" class="edge">
<title>Node5&#45;&gt;Node7</title>
<g id="a_edge6_Node000005_Node000007"><a xlink:title=" ">
<path fill="none" stroke="#63b8ff" d="M358.41,-54.84C340.64,-46.54 314.03,-34.11 293.55,-24.54"/>
<polygon fill="#63b8ff" stroke="#63b8ff" points="295.1,-21.4 284.55,-20.34 292.13,-27.75 295.1,-21.4"/>
</a>
</g>
</g>
<!-- Node8&#45;&gt;Node5 -->
<g id="edge9_Node000008_Node000005" class="edge">
<title>Node8&#45;&gt;Node5</title>
<g id="a_edge9_Node000008_Node000005"><a xlink:title=" ">
<path fill="none" stroke="#63b8ff" d="M390.27,-110.33C388.4,-103.67 385.74,-94.24 383.36,-85.78"/>
<polygon fill="#63b8ff" stroke="#63b8ff" points="386.77,-84.99 380.69,-76.32 380.03,-86.89 386.77,-84.99"/>
</a>
</g>
</g>
<!-- Node8&#45;&gt;Node9 -->
<g id="edge8_Node000008_Node000009" class="edge">
<title>Node8&#45;&gt;Node9</title>
<g id="a_edge8_Node000008_Node000009"><a xlink:title=" ">
<path fill="none" stroke="#63b8ff" d="M370.02,-110.09C348.65,-101.6 316.41,-88.79 292.12,-79.14"/>
<polygon fill="#63b8ff" stroke="#63b8ff" points="293.59,-75.95 283,-75.51 291,-82.46 293.59,-75.95"/>
</a>
</g>
</g>
<!-- Node17&#45;&gt;Node5 -->
<g id="edge19_Node000017_Node000005" class="edge">
<title>Node17&#45;&gt;Node5</title>
<g id="a_edge19_Node000017_Node000005"><a xlink:title=" ">
<path fill="none" stroke="#63b8ff" d="M1068.05,-167.25C1065.24,-166.73 1062.45,-166.22 1059.75,-165.75 827.83,-125.54 549.67,-88.16 433.25,-73"/>
<polygon fill="#63b8ff" stroke="#63b8ff" points="434.03,-69.57 423.66,-71.75 433.13,-76.51 434.03,-69.57"/>
</a>
</g>
</g>
<!-- Node17&#45;&gt;Node8 -->
<g id="edge20_Node000017_Node000008" class="edge">
<title>Node17&#45;&gt;Node8</title>
<g id="a_edge20_Node000017_Node000008"><a xlink:title=" ">
<path fill="none" stroke="#63b8ff" d="M1068.08,-167.02C1065.27,-166.54 1062.47,-166.11 1059.75,-165.75 835.08,-135.83 565.03,-125.59 449.58,-122.42"/>
<polygon fill="#63b8ff" stroke="#63b8ff" points="449.85,-118.92 439.76,-122.15 449.66,-125.92 449.85,-118.92"/>
</a>
</g>
</g>
<!-- Node18&#45;&gt;Node5 -->
<g id="edge23_Node000018_Node000005" class="edge">
<title>Node18&#45;&gt;Node5</title>
<g id="a_edge23_Node000018_Node000005"><a xlink:title=" ">
<path fill="none" stroke="#63b8ff" d="M114.05,-110.03C172.1,-100.31 263.64,-84.98 322.17,-75.18"/>
<polygon fill="#63b8ff" stroke="#63b8ff" points="322.64,-78.65 331.92,-73.55 321.48,-71.75 322.64,-78.65"/>
</a>
</g>
</g>
<!-- Node18&#45;&gt;Node7 -->
<g id="edge22_Node000018_Node000007" class="edge">
<title>Node18&#45;&gt;Node7</title>
<g id="a_edge22_Node000018_Node000007"><a xlink:title=" ">
<path fill="none" stroke="#63b8ff" d="M76.79,-110.06C112.19,-91.23 193.94,-47.76 236.65,-25.04"/>
<polygon fill="#63b8ff" stroke="#63b8ff" points="238.09,-28.24 245.28,-20.45 234.8,-22.06 238.09,-28.24"/>
</a>
</g>
</g>
<!-- Node19&#45;&gt;Node5 -->
<g id="edge27_Node000019_Node000005" class="edge">
<title>Node19&#45;&gt;Node5</title>
<g id="a_edge27_Node000019_Node000005"><a xlink:title=" ">
<path fill="none" stroke="#63b8ff" d="M234.78,-165.31C261.46,-146.76 322.56,-104.26 355.59,-81.29"/>
<polygon fill="#63b8ff" stroke="#63b8ff" points="357.41,-84.28 363.62,-75.7 353.41,-78.54 357.41,-84.28"/>
</a>
</g>
</g>
<!-- Node19&#45;&gt;Node8 -->
<g id="edge26_Node000019_Node000008" class="edge">
<title>Node19&#45;&gt;Node8</title>
<g id="a_edge26_Node000019_Node000008"><a xlink:title=" ">
<path fill="none" stroke="#63b8ff" d="M250.76,-165.34C278.76,-156.62 321.41,-143.34 352.65,-133.61"/>
<polygon fill="#63b8ff" stroke="#63b8ff" points="353.65,-136.97 362.15,-130.65 351.57,-130.28 353.65,-136.97"/>
</a>
</g>
</g>
<!-- Node19&#45;&gt;Node9 -->
<g id="edge25_Node000019_Node000009" class="edge">
<title>Node19&#45;&gt;Node9</title>
<g id="a_edge25_Node000019_Node000009"><a xlink:title=" ">
<path fill="none" stroke="#63b8ff" d="M224.78,-165.5C230.69,-148.17 243.88,-109.48 251.98,-85.74"/>
<polygon fill="#63b8ff" stroke="#63b8ff" points="255.28,-86.9 255.19,-76.31 248.65,-84.64 255.28,-86.9"/>
</a>
</g>
</g>
<!-- Node20 -->
<g id="Node000020" class="node">
<title>Node20</title>
<g id="a_Node000020"><a xlink:title=" ">
<polygon fill="#e0e0e0" stroke="#999999" points="215.75,-129.75 175.75,-129.75 175.75,-110.5 215.75,-110.5 215.75,-129.75"/>
<text text-anchor="middle" x="195.75" y="-116.25" font-family="Helvetica,sans-Serif" font-size="10.00">bitset</text>
</a>
</g>
</g>
<!-- Node19&#45;&gt;Node20 -->
<g id="edge28_Node000019_Node000020" class="edge">
<title>Node19&#45;&gt;Node20</title>
<g id="a_edge28_Node000019_Node000020"><a xlink:title=" ">
<path fill="none" stroke="#63b8ff" d="M217.46,-165.58C214.13,-158.76 209.39,-149.06 205.19,-140.45"/>
<polygon fill="#63b8ff" stroke="#63b8ff" points="208.33,-138.92 200.8,-131.47 202.04,-141.99 208.33,-138.92"/>
</a>
</g>
</g>
<!-- Node21&#45;&gt;Node8 -->
<g id="edge31_Node000021_Node000008" class="edge">
<title>Node21&#45;&gt;Node8</title>
<g id="a_edge31_Node000021_Node000008"><a xlink:title=" ">
<path fill="none" stroke="#63b8ff" d="M169.69,-165.28C215.77,-156.16 286.81,-142.1 336.3,-132.3"/>
<polygon fill="#63b8ff" stroke="#63b8ff" points="336.84,-135.76 345.97,-130.39 335.48,-128.89 336.84,-135.76"/>
</a>
</g>
</g>
<!-- Node21&#45;&gt;Node9 -->
<g id="edge30_Node000021_Node000009" class="edge">
<title>Node21&#45;&gt;Node9</title>
<g id="a_edge30_Node000021_Node000009"><a xlink:title=" ">
<path fill="none" stroke="#63b8ff" d="M127.85,-165.45C134.4,-152.01 148.38,-126.45 166.75,-110.5 182.4,-96.91 202.92,-86.43 220.6,-79.06"/>
<polygon fill="#63b8ff" stroke="#63b8ff" points="221.76,-82.36 229.77,-75.42 219.18,-75.85 221.76,-82.36"/>
</a>
</g>
</g>
<!-- Node21&#45;&gt;Node18 -->
<g id="edge32_Node000021_Node000018" class="edge">
<title>Node21&#45;&gt;Node18</title>
<g id="a_edge32_Node000021_Node000018"><a xlink:title=" ">
<path fill="none" stroke="#63b8ff" d="M112.89,-165.34C103.64,-157.65 90.13,-146.4 79.04,-137.18"/>
<polygon fill="#63b8ff" stroke="#63b8ff" points="81.54,-134.7 71.61,-130.99 77.06,-140.08 81.54,-134.7"/>
</a>
</g>
</g>
<!-- Node21&#45;&gt;Node20 -->
<g id="edge33_Node000021_Node000020" class="edge">
<title>Node21&#45;&gt;Node20</title>
<g id="a_edge33_Node000021_Node000020"><a xlink:title=" ">
<path fill="none" stroke="#63b8ff" d="M135.96,-165.34C146.58,-157.49 162.19,-145.95 174.79,-136.62"/>
<polygon fill="#63b8ff" stroke="#63b8ff" points="176.54,-139.69 182.5,-130.92 172.38,-134.06 176.54,-139.69"/>
</a>
</g>
</g>
</g>
</svg>

<g id="navigator" transform="translate(0 0)" fill="#404254">
  <rect fill="#f2f5e9" fill-opacity="0.5" stroke="#606060" stroke-width=".5" x="0" y="0" width="60" height="60"/>
  <use id="zoomplus" xlink:href="#zoomPlus" x="17" y="9" onmousedown="handleZoom(evt,'in')"/>
  <use id="zoomminus" xlink:href="#zoomMin" x="42" y="9" onmousedown="handleZoom(evt,'out')"/>
  <use id="reset" xlink:href="#resetDef" x="30" y="36" onmousedown="handleReset()"/>
   <use id="arrowup" xlink:href="#arrowUp" x="0" y="0" onmousedown="handlePan(0,-1)"/>
  <use id="arrowright" xlink:href="#arrowRight" x="0" y="0" onmousedown="handlePan(1,0)"/>
  <use id="arrowdown" xlink:href="#arrowDown" x="0" y="0" onmousedown="handlePan(0,1)"/>
  <use id="arrowleft" xlink:href="#arrowLeft" x="0" y="0" onmousedown="handlePan(-1,0)"/>
</g>
<svg viewBox="0 0 15 15" width="100%" height="30px" preserveAspectRatio="xMaxYMin meet">
 <g id="arrow_out" transform="scale(0.3 0.3)">
  <a xlink:href="_nuki_opener_8cpp__incl_org.svg" target="_base">
   <rect id="button" ry="5" rx="5" y="6" x="6" height="38" width="38"
        fill="#f2f5e9" fill-opacity="0.5" stroke="#606060" stroke-width="1.0"/>
   <path id="arrow"
     d="M 11.500037,31.436501 C 11.940474,20.09759 22.043105,11.32322 32.158766,21.979434 L 37.068811,17.246167 C 37.068811,17.246167 37.088388,32 37.088388,32 L 22.160133,31.978069 C 22.160133,31.978069 26.997745,27.140456 26.997745,27.140456 C 18.528582,18.264221 13.291696,25.230495 11.500037,31.436501 z"
     style="fill:#404040;"/>
  </a>
 </g>
</svg>

<style type='text/css'>
<![CDATA[
[data-mouse-over-selected='false'] { opacity: 0.7; }
[data-mouse-over-selected='true']  { opacity: 1.0; }
]]>
</style>
<script type="application/ecmascript"><![CDATA[
document.addEventListener('DOMContentLoaded', (event) => {
  highlightEdges();
  highlightAdjacentNodes();
});
]]></script>
</svg>
