<?xml version="1.0" encoding="UTF-8" standalone="no"?>
<!DOCTYPE svg PUBLIC "-//W3C//DTD SVG 1.1//EN"
 "http://www.w3.org/Graphics/SVG/1.1/DTD/svg11.dtd">
<!-- Generated by graphviz version 5.0.1 (20220820.1526)
 -->
<!-- Title: src/NukiConstants.h Pages: 1 -->
<!--zoomable 314 -->
<svg id="main" version="1.1" xmlns="http://www.w3.org/2000/svg" xmlns:xlink="http://www.w3.org/1999/xlink" xml:space="preserve" onload="init(evt)">
<style type="text/css"><![CDATA[
.edge:hover path { stroke: red; }
.edge:hover polygon { stroke: red; fill: red; }
]]></style>
<script type="text/javascript"><![CDATA[
var edges = document.getElementsByTagName('g');
if (edges && edges.length) {
  for (var i=0;i<edges.length;i++) {
    if (edges[i].id.substr(0,4)=='edge') {
      edges[i].setAttribute('class','edge');
    }
  }
}
]]></script>
        <defs>
                <circle id="rim" cx="0" cy="0" r="7"/>
                <circle id="rim2" cx="0" cy="0" r="3.5"/>
                <g id="zoomPlus">
                        <use xlink:href="#rim" fill="#404040">
                                <set attributeName="fill" to="#808080" begin="zoomplus.mouseover" end="zoomplus.mouseout"/>
                        </use>
                        <path d="M-4,0h8M0,-4v8" fill="none" stroke="white" stroke-width="1.5" pointer-events="none"/>
                </g>
                <g id="zoomMin">
                        <use xlink:href="#rim" fill="#404040">
                                <set attributeName="fill" to="#808080" begin="zoomminus.mouseover" end="zoomminus.mouseout"/>
                        </use>
                        <path d="M-4,0h8" fill="none" stroke="white" stroke-width="1.5" pointer-events="none"/>
                </g>
                <g id="dirArrow">
                        <path fill="none" stroke="white" stroke-width="1.5" d="M0,-3.0v7 M-2.5,-0.5L0,-3.0L2.5,-0.5"/>
                </g>
               <g id="resetDef">
                       <use xlink:href="#rim2" fill="#404040">
                               <set attributeName="fill" to="#808080" begin="reset.mouseover" end="reset.mouseout"/>
                       </use>
               </g>
        </defs>

<script type="text/javascript">
var viewWidth = 717;
var viewHeight = 314;
var sectionId = 'dynsection-1';
</script>
<script xlink:href="svgpan.js"/>
<svg id="graph" class="graph">
<g id="viewport">
<title>src/NukiConstants.h</title>
<!-- Node1 -->
<g id="node1" class="node">
<title>Node1</title>
<g id="a_node1"><a xlink:title=" ">
<polygon fill="#999999" stroke="#666666" points="409.63,-306 286.63,-306 286.63,-285 409.63,-285 409.63,-306"/>
<text text-anchor="middle" x="348.13" y="-292.4" font-family="Helvetica,sans-Serif" font-size="12.00">src/NukiConstants.h</text>
</a>
</g>
</g>
<!-- Node2 -->
<g id="node2" class="node">
<title>Node2</title>
<g id="a_node2"><a xlink:href="_nuki_ble_8h.html" target="_top" xlink:title=" ">
<polygon fill="white" stroke="#666666" points="373.63,-135 286.63,-135 286.63,-114 373.63,-114 373.63,-135"/>
<text text-anchor="middle" x="330.13" y="-121.4" font-family="Helvetica,sans-Serif" font-size="12.00">src/NukiBle.h</text>
</a>
</g>
</g>
<!-- Node1&#45;&gt;Node2 -->
<g id="edge1" class="edge">
<title>Node1&#45;&gt;Node2</title>
<path fill="none" stroke="#63b8ff" d="M322.65,-279.3C296.34,-261.95 256.83,-230.88 240.13,-192 228.09,-163.98 264.67,-145.31 294.76,-135.07"/>
<polygon fill="#63b8ff" stroke="#63b8ff" points="321.04,-282.42 331.35,-284.85 324.81,-276.52 321.04,-282.42"/>
</g>
<!-- Node8 -->
<g id="node8" class="node">
<title>Node8</title>
<g id="a_node8"><a xlink:href="_nuki_ble_8hpp.html" target="_top" xlink:title=" ">
<polygon fill="white" stroke="#666666" points="350.63,-192 249.63,-192 249.63,-171 350.63,-171 350.63,-192"/>
<text text-anchor="middle" x="300.13" y="-178.4" font-family="Helvetica,sans-Serif" font-size="12.00">src/NukiBle.hpp</text>
</a>
</g>
</g>
<!-- Node1&#45;&gt;Node8 -->
<g id="edge7" class="edge">
<title>Node1&#45;&gt;Node8</title>
<path fill="none" stroke="#63b8ff" d="M338.15,-275.88C333.92,-267.73 329.08,-257.99 325.13,-249 316.4,-229.12 307.86,-205.15 303.37,-192.1"/>
<polygon fill="#63b8ff" stroke="#63b8ff" points="335.13,-277.67 342.89,-284.88 341.32,-274.4 335.13,-277.67"/>
</g>
<!-- Node9 -->
<g id="node9" class="node">
<title>Node9</title>
<g id="a_node9"><a xlink:href="_nuki_data_types_8h.html" target="_top" xlink:title=" ">
<polygon fill="white" stroke="#666666" points="462.13,-249 334.13,-249 334.13,-228 462.13,-228 462.13,-249"/>
<text text-anchor="middle" x="398.13" y="-235.4" font-family="Helvetica,sans-Serif" font-size="12.00">src/NukiDataTypes.h</text>
</a>
</g>
</g>
<!-- Node1&#45;&gt;Node9 -->
<g id="edge9" class="edge">
<title>Node1&#45;&gt;Node9</title>
<path fill="none" stroke="#63b8ff" d="M363.67,-277.41C372.05,-268.19 382.11,-257.13 389.19,-249.34"/>
<polygon fill="#63b8ff" stroke="#63b8ff" points="360.98,-275.17 356.84,-284.92 366.16,-279.87 360.98,-275.17"/>
</g>
<!-- Node14 -->
<g id="node14" class="node">
<title>Node14</title>
<g id="a_node14"><a xlink:href="_nuki_utils_8h.html" target="_top" xlink:title=" ">
<polygon fill="white" stroke="#666666" points="499.63,-135 406.63,-135 406.63,-114 499.63,-114 499.63,-135"/>
<text text-anchor="middle" x="453.13" y="-121.4" font-family="Helvetica,sans-Serif" font-size="12.00">src/NukiUtils.h</text>
</a>
</g>
</g>
<!-- Node1&#45;&gt;Node14 -->
<g id="edge29" class="edge">
<title>Node1&#45;&gt;Node14</title>
<path fill="none" stroke="#63b8ff" d="M419.63,-283.75C439.57,-277.09 459.06,-266.34 471.13,-249 496.02,-213.26 470.73,-157.51 458.71,-135.2"/>
<polygon fill="#63b8ff" stroke="#63b8ff" points="418.41,-280.46 409.84,-286.7 420.42,-287.16 418.41,-280.46"/>
</g>
<!-- Node16 -->
<g id="node16" class="node">
<title>Node16</title>
<g id="a_node16"><a xlink:href="_nuki_lock_constants_8h.html" target="_top" xlink:title=" ">
<polygon fill="white" stroke="#666666" points="193.63,-192 44.63,-192 44.63,-171 193.63,-171 193.63,-192"/>
<text text-anchor="middle" x="119.13" y="-178.4" font-family="Helvetica,sans-Serif" font-size="12.00">src/NukiLockConstants.h</text>
</a>
</g>
</g>
<!-- Node1&#45;&gt;Node16 -->
<g id="edge23" class="edge">
<title>Node1&#45;&gt;Node16</title>
<path fill="none" stroke="#63b8ff" d="M296.47,-282.3C269.04,-274.74 235.28,-263.64 207.13,-249 176.38,-233.01 145.12,-206.39 129.45,-192.16"/>
<polygon fill="#63b8ff" stroke="#63b8ff" points="295.7,-285.72 306.26,-284.93 297.51,-278.96 295.7,-285.72"/>
</g>
<!-- Node17 -->
<g id="node17" class="node">
<title>Node17</title>
<g id="a_node17"><a xlink:href="_nuki_opener_constants_8h.html" target="_top" xlink:title=" ">
<polygon fill="white" stroke="#666666" points="685.13,-249 521.13,-249 521.13,-228 685.13,-228 685.13,-249"/>
<text text-anchor="middle" x="603.13" y="-235.4" font-family="Helvetica,sans-Serif" font-size="12.00">src/NukiOpenerConstants.h</text>
</a>
</g>
</g>
<!-- Node1&#45;&gt;Node17 -->
<g id="edge26" class="edge">
<title>Node1&#45;&gt;Node17</title>
<path fill="none" stroke="#63b8ff" d="M402.17,-282.84C448.74,-272.8 515.15,-258.48 558.69,-249.09"/>
<polygon fill="#63b8ff" stroke="#63b8ff" points="401.3,-279.45 392.26,-284.98 402.77,-286.3 401.3,-279.45"/>
</g>
<!-- Node3 -->
<g id="node3" class="node">
<title>Node3</title>
<g id="a_node3"><a xlink:href="_nuki_ble_8cpp.html" target="_top" xlink:title=" ">
<polygon fill="white" stroke="#666666" points="381.13,-78 281.13,-78 281.13,-57 381.13,-57 381.13,-78"/>
<text text-anchor="middle" x="331.13" y="-64.4" font-family="Helvetica,sans-Serif" font-size="12.00">src/NukiBle.cpp</text>
</a>
</g>
</g>
<!-- Node2&#45;&gt;Node3 -->
<g id="edge2" class="edge">
<title>Node2&#45;&gt;Node3</title>
<path fill="none" stroke="#63b8ff" d="M330.49,-103.86C330.65,-95.2 330.82,-85.42 330.95,-78.34"/>
<polygon fill="#63b8ff" stroke="#63b8ff" points="326.99,-103.86 330.31,-113.92 333.99,-103.99 326.99,-103.86"/>
</g>
<!-- Node4 -->
<g id="node4" class="node">
<title>Node4</title>
<g id="a_node4"><a xlink:href="_nuki_lock_8h.html" target="_top" xlink:title=" ">
<polygon fill="white" stroke="#666666" points="262.63,-78 167.63,-78 167.63,-57 262.63,-57 262.63,-78"/>
<text text-anchor="middle" x="215.13" y="-64.4" font-family="Helvetica,sans-Serif" font-size="12.00">src/NukiLock.h</text>
</a>
</g>
</g>
<!-- Node2&#45;&gt;Node4 -->
<g id="edge3" class="edge">
<title>Node2&#45;&gt;Node4</title>
<path fill="none" stroke="#63b8ff" d="M300.9,-109.52C280.38,-99.71 253.48,-86.84 235.32,-78.16"/>
<polygon fill="#63b8ff" stroke="#63b8ff" points="299.57,-112.76 310.1,-113.92 302.59,-106.45 299.57,-112.76"/>
</g>
<!-- Node6 -->
<g id="node6" class="node">
<title>Node6</title>
<g id="a_node6"><a xlink:href="_nuki_opener_8h.html" target="_top" xlink:title=" ">
<polygon fill="white" stroke="#666666" points="709.13,-78 599.13,-78 599.13,-57 709.13,-57 709.13,-78"/>
<text text-anchor="middle" x="654.13" y="-64.4" font-family="Helvetica,sans-Serif" font-size="12.00">src/NukiOpener.h</text>
</a>
</g>
</g>
<!-- Node2&#45;&gt;Node6 -->
<g id="edge5" class="edge">
<title>Node2&#45;&gt;Node6</title>
<path fill="none" stroke="#63b8ff" d="M383.78,-114.39C443.3,-104.29 538.84,-88.07 598.96,-77.87"/>
<polygon fill="#63b8ff" stroke="#63b8ff" points="383.1,-110.96 373.83,-116.08 384.27,-117.86 383.1,-110.96"/>
</g>
<!-- Node5 -->
<g id="node5" class="node">
<title>Node5</title>
<g id="a_node5"><a xlink:href="_nuki_lock_8cpp.html" target="_top" xlink:title=" ">
<polygon fill="white" stroke="#666666" points="269.13,-21 161.13,-21 161.13,0 269.13,0 269.13,-21"/>
<text text-anchor="middle" x="215.13" y="-7.4" font-family="Helvetica,sans-Serif" font-size="12.00">src/NukiLock.cpp</text>
</a>
</g>
</g>
<!-- Node4&#45;&gt;Node5 -->
<g id="edge4" class="edge">
<title>Node4&#45;&gt;Node5</title>
<path fill="none" stroke="#63b8ff" d="M215.13,-46.86C215.13,-38.2 215.13,-28.42 215.13,-21.34"/>
<polygon fill="#63b8ff" stroke="#63b8ff" points="211.63,-46.92 215.13,-56.92 218.63,-46.92 211.63,-46.92"/>
</g>
<!-- Node7 -->
<g id="node7" class="node">
<title>Node7</title>
<g id="a_node7"><a xlink:href="_nuki_opener_8cpp.html" target="_top" xlink:title=" ">
<polygon fill="white" stroke="#666666" points="673.63,-21 550.63,-21 550.63,0 673.63,0 673.63,-21"/>
<text text-anchor="middle" x="612.13" y="-7.4" font-family="Helvetica,sans-Serif" font-size="12.00">src/NukiOpener.cpp</text>
</a>
</g>
</g>
<!-- Node6&#45;&gt;Node7 -->
<g id="edge6" class="edge">
<title>Node6&#45;&gt;Node7</title>
<path fill="none" stroke="#63b8ff" d="M640.66,-48.85C633.7,-39.74 625.47,-28.97 619.65,-21.34"/>
<polygon fill="#63b8ff" stroke="#63b8ff" points="637.97,-51.1 646.82,-56.92 643.53,-46.85 637.97,-51.1"/>
</g>
<!-- Node8&#45;&gt;Node2 -->
<g id="edge8" class="edge">
<title>Node8&#45;&gt;Node2</title>
<path fill="none" stroke="#63b8ff" d="M310.22,-162C315.09,-153.08 320.73,-142.73 324.76,-135.34"/>
<polygon fill="#63b8ff" stroke="#63b8ff" points="307.07,-160.46 305.36,-170.92 313.22,-163.82 307.07,-160.46"/>
</g>
<!-- Node9&#45;&gt;Node2 -->
<g id="edge10" class="edge">
<title>Node9&#45;&gt;Node2</title>
<path fill="none" stroke="#63b8ff" d="M400.85,-217.76C401.81,-203.83 401.07,-185.19 393.13,-171 383.97,-154.63 366.19,-142.63 351.84,-135.07"/>
<polygon fill="#63b8ff" stroke="#63b8ff" points="397.36,-217.45 399.83,-227.75 404.33,-218.16 397.36,-217.45"/>
</g>
<!-- Node9&#45;&gt;Node8 -->
<g id="edge11" class="edge">
<title>Node9&#45;&gt;Node8</title>
<path fill="none" stroke="#63b8ff" d="M372.02,-222.85C354.7,-213.13 332.46,-200.64 317.34,-192.16"/>
<polygon fill="#63b8ff" stroke="#63b8ff" points="370.63,-226.08 381.06,-227.92 374.05,-219.97 370.63,-226.08"/>
</g>
<!-- Node10 -->
<g id="node10" class="node">
<title>Node10</title>
<g id="a_node10"><a xlink:href="_nuki_lock_utils_8h.html" target="_top" xlink:title=" ">
<polygon fill="white" stroke="#666666" points="266.63,-135 147.63,-135 147.63,-114 266.63,-114 266.63,-135"/>
<text text-anchor="middle" x="207.13" y="-121.4" font-family="Helvetica,sans-Serif" font-size="12.00">src/NukiLockUtils.h</text>
</a>
</g>
</g>
<!-- Node9&#45;&gt;Node10 -->
<g id="edge12" class="edge">
<title>Node9&#45;&gt;Node10</title>
<path fill="none" stroke="#63b8ff" d="M391.47,-218.47C385.29,-203.51 374.7,-183.22 359.13,-171 332.7,-150.25 296.94,-138.94 266.75,-132.79"/>
<polygon fill="#63b8ff" stroke="#63b8ff" points="388.2,-219.72 395.04,-227.81 394.74,-217.22 388.2,-219.72"/>
</g>
<!-- Node12 -->
<g id="node12" class="node">
<title>Node12</title>
<g id="a_node12"><a xlink:href="_nuki_opener_utils_8h.html" target="_top" xlink:title=" ">
<polygon fill="white" stroke="#666666" points="658.13,-192 524.13,-192 524.13,-171 658.13,-171 658.13,-192"/>
<text text-anchor="middle" x="591.13" y="-178.4" font-family="Helvetica,sans-Serif" font-size="12.00">src/NukiOpenerUtils.h</text>
</a>
</g>
</g>
<!-- Node9&#45;&gt;Node12 -->
<g id="edge16" class="edge">
<title>Node9&#45;&gt;Node12</title>
<path fill="none" stroke="#63b8ff" d="M441.72,-225.08C476.83,-215.07 525.45,-201.22 557.58,-192.06"/>
<polygon fill="#63b8ff" stroke="#63b8ff" points="440.41,-221.81 431.75,-227.92 442.33,-228.55 440.41,-221.81"/>
</g>
<!-- Node9&#45;&gt;Node14 -->
<g id="edge18" class="edge">
<title>Node9&#45;&gt;Node14</title>
<path fill="none" stroke="#63b8ff" d="M412.8,-219.98C419.07,-211.85 426.1,-201.82 431.13,-192 440.89,-172.95 447.63,-148.66 450.89,-135.34"/>
<polygon fill="#63b8ff" stroke="#63b8ff" points="409.93,-217.96 406.41,-227.96 415.39,-222.34 409.93,-217.96"/>
</g>
<!-- Node10&#45;&gt;Node3 -->
<g id="edge13" class="edge">
<title>Node10&#45;&gt;Node3</title>
<path fill="none" stroke="#63b8ff" d="M238.06,-109.78C260.25,-99.94 289.6,-86.92 309.36,-78.16"/>
<polygon fill="#63b8ff" stroke="#63b8ff" points="236.45,-106.67 228.73,-113.92 239.29,-113.06 236.45,-106.67"/>
</g>
<!-- Node10&#45;&gt;Node5 -->
<g id="edge14" class="edge">
<title>Node10&#45;&gt;Node5</title>
<path fill="none" stroke="#63b8ff" d="M137.05,-122.03C65.97,-117.97 -28.58,-103.95 9.13,-57 27.85,-33.69 106.47,-21.61 160.98,-15.91"/>
<polygon fill="#63b8ff" stroke="#63b8ff" points="137.18,-125.54 147.35,-122.56 137.54,-118.55 137.18,-125.54"/>
</g>
<!-- Node11 -->
<g id="node11" class="node">
<title>Node11</title>
<g id="a_node11"><a xlink:href="_nuki_lock_utils_8cpp.html" target="_top" xlink:title=" ">
<polygon fill="white" stroke="#666666" points="149.63,-78 18.63,-78 18.63,-57 149.63,-57 149.63,-78"/>
<text text-anchor="middle" x="84.13" y="-64.4" font-family="Helvetica,sans-Serif" font-size="12.00">src/NukiLockUtils.cpp</text>
</a>
</g>
</g>
<!-- Node10&#45;&gt;Node11 -->
<g id="edge15" class="edge">
<title>Node10&#45;&gt;Node11</title>
<path fill="none" stroke="#63b8ff" d="M176.46,-109.78C154.44,-99.94 125.32,-86.92 105.72,-78.16"/>
<polygon fill="#63b8ff" stroke="#63b8ff" points="175.15,-113.03 185.71,-113.92 178.01,-106.64 175.15,-113.03"/>
</g>
<!-- Node13 -->
<g id="node13" class="node">
<title>Node13</title>
<g id="a_node13"><a xlink:href="_nuki_opener_utils_8cpp.html" target="_top" xlink:title=" ">
<polygon fill="white" stroke="#666666" points="664.13,-135 518.13,-135 518.13,-114 664.13,-114 664.13,-135"/>
<text text-anchor="middle" x="591.13" y="-121.4" font-family="Helvetica,sans-Serif" font-size="12.00">src/NukiOpenerUtils.cpp</text>
</a>
</g>
</g>
<!-- Node12&#45;&gt;Node13 -->
<g id="edge17" class="edge">
<title>Node12&#45;&gt;Node13</title>
<path fill="none" stroke="#63b8ff" d="M591.13,-160.86C591.13,-152.2 591.13,-142.42 591.13,-135.34"/>
<polygon fill="#63b8ff" stroke="#63b8ff" points="587.63,-160.92 591.13,-170.92 594.63,-160.92 587.63,-160.92"/>
</g>
<!-- Node14&#45;&gt;Node3 -->
<g id="edge19" class="edge">
<title>Node14&#45;&gt;Node3</title>
<path fill="none" stroke="#63b8ff" d="M422.7,-109.78C400.87,-99.94 371.99,-86.92 352.55,-78.16"/>
<polygon fill="#63b8ff" stroke="#63b8ff" points="421.33,-113 431.88,-113.92 424.2,-106.62 421.33,-113"/>
</g>
<!-- Node14&#45;&gt;Node5 -->
<g id="edge20" class="edge">
<title>Node14&#45;&gt;Node5</title>
<path fill="none" stroke="#63b8ff" d="M481.74,-109.08C504.43,-95.78 529.91,-75.36 514.13,-57 483.2,-21.01 346.89,-13.16 269.43,-11.65"/>
<polygon fill="#63b8ff" stroke="#63b8ff" points="479.98,-106.06 472.95,-113.99 483.39,-112.17 479.98,-106.06"/>
</g>
<!-- Node14&#45;&gt;Node7 -->
<g id="edge21" class="edge">
<title>Node14&#45;&gt;Node7</title>
<path fill="none" stroke="#63b8ff" d="M488.27,-109.95C506.66,-102.02 529.04,-91.02 547.13,-78 570.72,-61.03 593.27,-35.04 604.58,-21.11"/>
<polygon fill="#63b8ff" stroke="#63b8ff" points="486.66,-106.83 478.79,-113.92 489.36,-113.28 486.66,-106.83"/>
</g>
<!-- Node15 -->
<g id="node15" class="node">
<title>Node15</title>
<g id="a_node15"><a xlink:href="_nuki_utils_8cpp.html" target="_top" xlink:title=" ">
<polygon fill="white" stroke="#666666" points="505.13,-78 399.13,-78 399.13,-57 505.13,-57 505.13,-78"/>
<text text-anchor="middle" x="452.13" y="-64.4" font-family="Helvetica,sans-Serif" font-size="12.00">src/NukiUtils.cpp</text>
</a>
</g>
</g>
<!-- Node14&#45;&gt;Node15 -->
<g id="edge22" class="edge">
<title>Node14&#45;&gt;Node15</title>
<path fill="none" stroke="#63b8ff" d="M452.77,-103.86C452.62,-95.2 452.44,-85.42 452.31,-78.34"/>
<polygon fill="#63b8ff" stroke="#63b8ff" points="449.28,-103.99 452.96,-113.92 456.28,-103.86 449.28,-103.99"/>
</g>
<!-- Node16&#45;&gt;Node4 -->
<g id="edge24" class="edge">
<title>Node16&#45;&gt;Node4</title>
<path fill="none" stroke="#63b8ff" d="M120.88,-160.72C123,-146.49 127.71,-127.5 138.13,-114 151.04,-97.29 171.97,-85.49 188.75,-78.1"/>
<polygon fill="#63b8ff" stroke="#63b8ff" points="117.37,-160.58 119.67,-170.92 124.32,-161.4 117.37,-160.58"/>
</g>
<!-- Node16&#45;&gt;Node10 -->
<g id="edge25" class="edge">
<title>Node16&#45;&gt;Node10</title>
<path fill="none" stroke="#63b8ff" d="M143.01,-165.58C158.5,-155.9 178.23,-143.57 191.68,-135.16"/>
<polygon fill="#63b8ff" stroke="#63b8ff" points="141.09,-162.65 134.46,-170.92 144.8,-168.59 141.09,-162.65"/>
</g>
<!-- Node17&#45;&gt;Node6 -->
<g id="edge27" class="edge">
<title>Node17&#45;&gt;Node6</title>
<path fill="none" stroke="#63b8ff" d="M633.84,-222.99C646.25,-215.51 659.44,-205.17 667.13,-192 684.67,-161.98 679.96,-148.09 673.13,-114 670.54,-101.07 664.19,-87.23 659.54,-78.26"/>
<polygon fill="#63b8ff" stroke="#63b8ff" points="632.04,-219.99 625.03,-227.93 635.46,-226.09 632.04,-219.99"/>
</g>
<!-- Node17&#45;&gt;Node12 -->
<g id="edge28" class="edge">
<title>Node17&#45;&gt;Node12</title>
<path fill="none" stroke="#63b8ff" d="M598.91,-218.14C597.01,-209.42 594.84,-199.5 593.28,-192.34"/>
<polygon fill="#63b8ff" stroke="#63b8ff" points="595.49,-218.9 601.04,-227.92 602.33,-217.4 595.49,-218.9"/>
</g>
</g>
</svg>
        <g id="navigator" transform="translate(0 0)" fill="#404254">
                <rect fill="#f2f5e9" fill-opacity="0.5" stroke="#606060" stroke-width=".5" x="0" y="0" width="60" height="60"/>
                <use id="zoomplus" xlink:href="#zoomPlus" x="17" y="9" onmousedown="handleZoom(evt,'in')"/>
                <use id="zoomminus" xlink:href="#zoomMin" x="42" y="9" onmousedown="handleZoom(evt,'out')"/>
                <use id="reset" xlink:href="#resetDef" x="30" y="36" onmousedown="handleReset()"/>
                <g id="arrowUp" xlink:href="#dirArrow" transform="translate(30 24)" onmousedown="handlePan(0,-1)">
                  <use xlink:href="#rim" fill="#404040">
                        <set attributeName="fill" to="#808080" begin="arrowUp.mouseover" end="arrowUp.mouseout"/>
                  </use>
                  <path fill="none" stroke="white" stroke-width="1.5" d="M0,-3.0v7 M-2.5,-0.5L0,-3.0L2.5,-0.5"/>
                </g>
                <g id="arrowRight" xlink:href="#dirArrow" transform="rotate(90) translate(36 -43)" onmousedown="handlePan(1,0)">
                  <use xlink:href="#rim" fill="#404040">
                        <set attributeName="fill" to="#808080" begin="arrowRight.mouseover" end="arrowRight.mouseout"/>
                  </use>
                  <path fill="none" stroke="white" stroke-width="1.5" d="M0,-3.0v7 M-2.5,-0.5L0,-3.0L2.5,-0.5"/>
                </g>
                <g id="arrowDown" xlink:href="#dirArrow" transform="rotate(180) translate(-30 -48)" onmousedown="handlePan(0,1)">
                  <use xlink:href="#rim" fill="#404040">
                        <set attributeName="fill" to="#808080" begin="arrowDown.mouseover" end="arrowDown.mouseout"/>
                  </use>
                  <path fill="none" stroke="white" stroke-width="1.5" d="M0,-3.0v7 M-2.5,-0.5L0,-3.0L2.5,-0.5"/>
                </g>
                <g id="arrowLeft" xlink:href="#dirArrow" transform="rotate(270) translate(-36 17)" onmousedown="handlePan(-1,0)">
                  <use xlink:href="#rim" fill="#404040">
                        <set attributeName="fill" to="#808080" begin="arrowLeft.mouseover" end="arrowLeft.mouseout"/>
                  </use>
                  <path fill="none" stroke="white" stroke-width="1.5" d="M0,-3.0v7 M-2.5,-0.5L0,-3.0L2.5,-0.5"/>
                </g>
        </g>
        <svg viewBox="0 0 15 15" width="100%" height="30px" preserveAspectRatio="xMaxYMin meet">
         <g id="arrow_out" transform="scale(0.3 0.3)">
          <a xlink:href="_nuki_constants_8h__dep__incl_org.svg" target="_base">
           <rect id="button" ry="5" rx="5" y="6" x="6" height="38" width="38"
                fill="#f2f5e9" fill-opacity="0.5" stroke="#606060" stroke-width="1.0"/>
           <path id="arrow"
             d="M 11.500037,31.436501 C 11.940474,20.09759 22.043105,11.32322 32.158766,21.979434 L 37.068811,17.246167 C 37.068811,17.246167 37.088388,32 37.088388,32 L 22.160133,31.978069 C 22.160133,31.978069 26.997745,27.140456 26.997745,27.140456 C 18.528582,18.264221 13.291696,25.230495 11.500037,31.436501 z"
             style="fill:#404040;"/>
          </a>
         </g>
        </svg>
</svg>
