<?xml version="1.0" encoding="UTF-8" standalone="no"?>
<!DOCTYPE svg PUBLIC "-//W3C//DTD SVG 1.1//EN"
 "http://www.w3.org/Graphics/SVG/1.1/DTD/svg11.dtd">
<!-- Generated by graphviz version 12.2.1 (20241206.2353)
 -->
<!-- Title: src/NukiLockUtils.h Pages: 1 -->
<svg width="330pt" height="193pt"
 viewBox="0.00 0.00 330.25 193.00" xmlns="http://www.w3.org/2000/svg" xmlns:xlink="http://www.w3.org/1999/xlink">
<g id="graph0" class="graph" transform="scale(1 1) rotate(0) translate(4 189)">
<title>src/NukiLockUtils.h</title>
<!-- Node1 -->
<g id="Node000001" class="node">
<title>Node1</title>
<g id="a_Node000001"><a xlink:title=" ">
<polygon fill="#999999" stroke="#666666" points="201.38,-185 99.12,-185 99.12,-165.75 201.38,-165.75 201.38,-185"/>
<text text-anchor="middle" x="150.25" y="-171.5" font-family="Helvetica,sans-Serif" font-size="10.00">src/NukiLockUtils.h</text>
</a>
</g>
</g>
<!-- Node2 -->
<g id="Node000002" class="node">
<title>Node2</title>
<g id="a_Node000002"><a xlink:title=" ">
<polygon fill="#e0e0e0" stroke="#999999" points="56.5,-74.5 0,-74.5 0,-55.25 56.5,-55.25 56.5,-74.5"/>
<text text-anchor="middle" x="28.25" y="-61" font-family="Helvetica,sans-Serif" font-size="10.00">Arduino.h</text>
</a>
</g>
</g>
<!-- Node1&#45;&gt;Node2 -->
<g id="edge1_Node000001_Node000002" class="edge">
<title>Node1&#45;&gt;Node2</title>
<g id="a_edge1_Node000001_Node000002"><a xlink:title=" ">
<path fill="none" stroke="#63b8ff" d="M98.83,-166.01C76.59,-159.74 52.26,-148.8 37.25,-129.75 27.59,-117.49 25.78,-99.65 26.14,-85.94"/>
<polygon fill="#63b8ff" stroke="#63b8ff" points="29.61,-86.52 26.8,-76.3 22.62,-86.03 29.61,-86.52"/>
</a>
</g>
</g>
<!-- Node3 -->
<g id="Node000003" class="node">
<title>Node3</title>
<g id="a_Node000003"><a xlink:href="_nuki_data_types_8h.html" target="_top" xlink:title=" ">
<polygon fill="white" stroke="#666666" points="136.38,-129.75 46.12,-129.75 46.12,-110.5 136.38,-110.5 136.38,-129.75"/>
<text text-anchor="middle" x="91.25" y="-116.25" font-family="Helvetica,sans-Serif" font-size="10.00">NukiDataTypes.h</text>
</a>
</g>
</g>
<!-- Node1&#45;&gt;Node3 -->
<g id="edge2_Node000001_Node000003" class="edge">
<title>Node1&#45;&gt;Node3</title>
<g id="a_edge2_Node000001_Node000003"><a xlink:title=" ">
<path fill="none" stroke="#63b8ff" d="M140.24,-165.34C131.88,-157.8 119.75,-146.85 109.65,-137.73"/>
<polygon fill="#63b8ff" stroke="#63b8ff" points="112,-135.14 102.23,-131.04 107.31,-140.34 112,-135.14"/>
</a>
</g>
</g>
<!-- Node7 -->
<g id="Node000007" class="node">
<title>Node7</title>
<g id="a_Node000007"><a xlink:href="_nuki_lock_constants_8h.html" target="_top" xlink:title=" ">
<polygon fill="white" stroke="#666666" points="264.12,-129.75 154.38,-129.75 154.38,-110.5 264.12,-110.5 264.12,-129.75"/>
<text text-anchor="middle" x="209.25" y="-116.25" font-family="Helvetica,sans-Serif" font-size="10.00">NukiLockConstants.h</text>
</a>
</g>
</g>
<!-- Node1&#45;&gt;Node7 -->
<g id="edge7_Node000001_Node000007" class="edge">
<title>Node1&#45;&gt;Node7</title>
<g id="a_edge7_Node000001_Node000007"><a xlink:title=" ">
<path fill="none" stroke="#63b8ff" d="M160.26,-165.34C168.62,-157.8 180.75,-146.85 190.85,-137.73"/>
<polygon fill="#63b8ff" stroke="#63b8ff" points="193.19,-140.34 198.27,-131.04 188.5,-135.14 193.19,-140.34"/>
</a>
</g>
</g>
<!-- Node8 -->
<g id="Node000008" class="node">
<title>Node8</title>
<g id="a_Node000008"><a xlink:title=" ">
<polygon fill="#e0e0e0" stroke="#999999" points="322.25,-129.75 282.25,-129.75 282.25,-110.5 322.25,-110.5 322.25,-129.75"/>
<text text-anchor="middle" x="302.25" y="-116.25" font-family="Helvetica,sans-Serif" font-size="10.00">bitset</text>
</a>
</g>
</g>
<!-- Node1&#45;&gt;Node8 -->
<g id="edge10_Node000001_Node000008" class="edge">
<title>Node1&#45;&gt;Node8</title>
<g id="a_edge10_Node000001_Node000008"><a xlink:title=" ">
<path fill="none" stroke="#63b8ff" d="M176.03,-165.34C202.39,-156.11 243.32,-141.77 271.38,-131.94"/>
<polygon fill="#63b8ff" stroke="#63b8ff" points="272.47,-135.27 280.75,-128.66 270.15,-128.66 272.47,-135.27"/>
</a>
</g>
</g>
<!-- Node3&#45;&gt;Node2 -->
<g id="edge3_Node000003_Node000002" class="edge">
<title>Node3&#45;&gt;Node2</title>
<g id="a_edge3_Node000003_Node000002"><a xlink:title=" ">
<path fill="none" stroke="#63b8ff" d="M80.56,-110.09C71.55,-102.47 58.42,-91.37 47.57,-82.2"/>
<polygon fill="#63b8ff" stroke="#63b8ff" points="49.83,-79.53 39.94,-75.75 45.31,-84.88 49.83,-79.53"/>
</a>
</g>
</g>
<!-- Node4 -->
<g id="Node000004" class="node">
<title>Node4</title>
<g id="a_Node000004"><a xlink:href="_nuki_constants_8h.html" target="_top" xlink:title=" ">
<polygon fill="white" stroke="#666666" points="176.25,-74.5 88.25,-74.5 88.25,-55.25 176.25,-55.25 176.25,-74.5"/>
<text text-anchor="middle" x="132.25" y="-61" font-family="Helvetica,sans-Serif" font-size="10.00">NukiConstants.h</text>
</a>
</g>
</g>
<!-- Node3&#45;&gt;Node4 -->
<g id="edge4_Node000003_Node000004" class="edge">
<title>Node3&#45;&gt;Node4</title>
<g id="a_edge4_Node000003_Node000004"><a xlink:title=" ">
<path fill="none" stroke="#63b8ff" d="M98.02,-110.33C103.57,-103.13 111.59,-92.71 118.48,-83.76"/>
<polygon fill="#63b8ff" stroke="#63b8ff" points="121.08,-86.12 124.41,-76.06 115.54,-81.85 121.08,-86.12"/>
</a>
</g>
</g>
<!-- Node5 -->
<g id="Node000005" class="node">
<title>Node5</title>
<g id="a_Node000005"><a xlink:title=" ">
<polygon fill="#e0e0e0" stroke="#999999" points="148.88,-19.25 103.62,-19.25 103.62,0 148.88,0 148.88,-19.25"/>
<text text-anchor="middle" x="126.25" y="-5.75" font-family="Helvetica,sans-Serif" font-size="10.00">cstdint</text>
</a>
</g>
</g>
<!-- Node4&#45;&gt;Node5 -->
<g id="edge5_Node000004_Node000005" class="edge">
<title>Node4&#45;&gt;Node5</title>
<g id="a_edge5_Node000004_Node000005"><a xlink:title=" ">
<path fill="none" stroke="#63b8ff" d="M131.26,-55.08C130.52,-48.49 129.47,-39.21 128.53,-30.82"/>
<polygon fill="#63b8ff" stroke="#63b8ff" points="132.03,-30.66 127.43,-21.11 125.07,-31.44 132.03,-30.66"/>
</a>
</g>
</g>
<!-- Node6 -->
<g id="Node000006" class="node">
<title>Node6</title>
<g id="a_Node000006"><a xlink:title=" ">
<polygon fill="#e0e0e0" stroke="#999999" points="251.75,-19.25 166.75,-19.25 166.75,0 251.75,0 251.75,-19.25"/>
<text text-anchor="middle" x="209.25" y="-5.75" font-family="Helvetica,sans-Serif" font-size="10.00">NimBLEUUID.h</text>
</a>
</g>
</g>
<!-- Node4&#45;&gt;Node6 -->
<g id="edge6_Node000004_Node000006" class="edge">
<title>Node4&#45;&gt;Node6</title>
<g id="a_edge6_Node000004_Node000006"><a xlink:title=" ">
<path fill="none" stroke="#63b8ff" d="M145.31,-54.84C156.71,-46.96 173.48,-35.36 186.99,-26.02"/>
<polygon fill="#63b8ff" stroke="#63b8ff" points="188.65,-29.13 194.88,-20.56 184.66,-23.37 188.65,-29.13"/>
</a>
</g>
</g>
<!-- Node7&#45;&gt;Node4 -->
<g id="edge9_Node000007_Node000004" class="edge">
<title>Node7&#45;&gt;Node4</title>
<g id="a_edge9_Node000007_Node000004"><a xlink:title=" ">
<path fill="none" stroke="#63b8ff" d="M196.19,-110.09C184.79,-102.21 168.02,-90.61 154.51,-81.27"/>
<polygon fill="#63b8ff" stroke="#63b8ff" points="156.84,-78.62 146.62,-75.81 152.85,-84.38 156.84,-78.62"/>
</a>
</g>
</g>
<!-- Node7&#45;&gt;Node6 -->
<g id="edge8_Node000007_Node000006" class="edge">
<title>Node7&#45;&gt;Node6</title>
<g id="a_edge8_Node000007_Node000006"><a xlink:title=" ">
<path fill="none" stroke="#63b8ff" d="M209.25,-110.25C209.25,-93 209.25,-54.58 209.25,-30.81"/>
<polygon fill="#63b8ff" stroke="#63b8ff" points="212.75,-31.14 209.25,-21.14 205.75,-31.14 212.75,-31.14"/>
</a>
</g>
</g>
</g>
</svg>
