<?xml version="1.0" encoding="UTF-8" standalone="no"?>
<!DOCTYPE svg PUBLIC "-//W3C//DTD SVG 1.1//EN"
 "http://www.w3.org/Graphics/SVG/1.1/DTD/svg11.dtd">
<!-- Generated by graphviz version 8.0.1 (20230327.1645)
 -->
<!-- Title: src/NukiOpener.cpp Pages: 1 -->
<!--zoomable 357 -->
<svg id="main" version="1.1" xmlns="http://www.w3.org/2000/svg" xmlns:xlink="http://www.w3.org/1999/xlink" xml:space="preserve" onload="init(evt)">
<style type="text/css"><![CDATA[
.edge:hover path { stroke: red; }
.edge:hover polygon { stroke: red; fill: red; }
]]></style>
<script type="text/javascript"><![CDATA[
var edges = document.getElementsByTagName('g');
if (edges && edges.length) {
  for (var i=0;i<edges.length;i++) {
    if (edges[i].id.substr(0,4)=='edge') {
      edges[i].setAttribute('class','edge');
    }
  }
}
]]></script>
        <defs>
                <circle id="rim" cx="0" cy="0" r="7"/>
                <circle id="rim2" cx="0" cy="0" r="3.5"/>
                <g id="zoomPlus">
                        <use xlink:href="#rim" fill="#404040">
                                <set attributeName="fill" to="#808080" begin="zoomplus.mouseover" end="zoomplus.mouseout"/>
                        </use>
                        <path d="M-4,0h8M0,-4v8" fill="none" stroke="white" stroke-width="1.5" pointer-events="none"/>
                </g>
                <g id="zoomMin">
                        <use xlink:href="#rim" fill="#404040">
                                <set attributeName="fill" to="#808080" begin="zoomminus.mouseover" end="zoomminus.mouseout"/>
                        </use>
                        <path d="M-4,0h8" fill="none" stroke="white" stroke-width="1.5" pointer-events="none"/>
                </g>
                <g id="dirArrow">
                        <path fill="none" stroke="white" stroke-width="1.5" d="M0,-3.0v7 M-2.5,-0.5L0,-3.0L2.5,-0.5"/>
                </g>
               <g id="resetDef">
                       <use xlink:href="#rim2" fill="#404040">
                               <set attributeName="fill" to="#808080" begin="reset.mouseover" end="reset.mouseout"/>
                       </use>
               </g>
        </defs>

<script type="text/javascript">
var viewWidth = 961;
var viewHeight = 357;
var sectionId = 'dynsection-0';
</script>
<script xlink:href="svgpan.js"/>
<svg id="graph" class="graph">
<g id="viewport">
<title>src/NukiOpener.cpp</title>
<!-- Node1 -->
<g id="node1" class="node">
<title>Node1</title>
<g id="a_node1"><a xlink:title=" ">
<polygon fill="#999999" stroke="#666666" points="873.43,-349 770.43,-349 770.43,-330 873.43,-330 873.43,-349"/>
<text text-anchor="middle" x="821.93" y="-337" font-family="Helvetica,sans-Serif" font-size="10.00">src/NukiOpener.cpp</text>
</a>
</g>
</g>
<!-- Node2 -->
<g id="node2" class="node">
<title>Node2</title>
<g id="a_node2"><a xlink:href="_nuki_opener_8h.html" target="_top" xlink:title=" ">
<polygon fill="white" stroke="#666666" points="510.93,-294 434.93,-294 434.93,-275 510.93,-275 510.93,-294"/>
<text text-anchor="middle" x="472.93" y="-282" font-family="Helvetica,sans-Serif" font-size="10.00">NukiOpener.h</text>
</a>
</g>
</g>
<!-- Node1&#45;&gt;Node2 -->
<g id="edge1" class="edge">
<title>Node1&#45;&gt;Node2</title>
<path fill="none" stroke="#63b8ff" d="M770.06,-330.62C703.2,-320.47 587.76,-302.94 522.19,-292.98"/>
<polygon fill="#63b8ff" stroke="#63b8ff" points="522.75,-289.37 512.33,-291.33 521.69,-296.29 522.75,-289.37"/>
</g>
<!-- Node15 -->
<g id="node15" class="node">
<title>Node15</title>
<g id="a_node15"><a xlink:href="_nuki_utils_8h.html" target="_top" xlink:title=" ">
<polygon fill="white" stroke="#666666" points="953.43,-184 888.43,-184 888.43,-165 953.43,-165 953.43,-184"/>
<text text-anchor="middle" x="920.93" y="-172" font-family="Helvetica,sans-Serif" font-size="10.00">NukiUtils.h</text>
</a>
</g>
</g>
<!-- Node1&#45;&gt;Node15 -->
<g id="edge20" class="edge">
<title>Node1&#45;&gt;Node15</title>
<path fill="none" stroke="#63b8ff" d="M827.26,-329.74C842.9,-303.98 888.97,-228.13 910.11,-193.33"/>
<polygon fill="#63b8ff" stroke="#63b8ff" points="913.38,-195.67 915.58,-185.31 907.4,-192.04 913.38,-195.67"/>
</g>
<!-- Node17 -->
<g id="node17" class="node">
<title>Node17</title>
<g id="a_node17"><a xlink:href="_nuki_opener_utils_8h.html" target="_top" xlink:title=" ">
<polygon fill="white" stroke="#666666" points="869.93,-184 773.93,-184 773.93,-165 869.93,-165 869.93,-184"/>
<text text-anchor="middle" x="821.93" y="-172" font-family="Helvetica,sans-Serif" font-size="10.00">NukiOpenerUtils.h</text>
</a>
</g>
</g>
<!-- Node1&#45;&gt;Node17 -->
<g id="edge25" class="edge">
<title>Node1&#45;&gt;Node17</title>
<path fill="none" stroke="#63b8ff" d="M821.93,-329.74C821.93,-304.42 821.93,-230.72 821.93,-195.16"/>
<polygon fill="#63b8ff" stroke="#63b8ff" points="825.43,-195.31 821.93,-185.31 818.43,-195.31 825.43,-195.31"/>
</g>
<!-- Node3 -->
<g id="node3" class="node">
<title>Node3</title>
<g id="a_node3"><a xlink:href="_nuki_ble_8h.html" target="_top" xlink:title=" ">
<polygon fill="white" stroke="#666666" points="502.43,-239 443.43,-239 443.43,-220 502.43,-220 502.43,-239"/>
<text text-anchor="middle" x="472.93" y="-227" font-family="Helvetica,sans-Serif" font-size="10.00">NukiBle.h</text>
</a>
</g>
</g>
<!-- Node2&#45;&gt;Node3 -->
<g id="edge2" class="edge">
<title>Node2&#45;&gt;Node3</title>
<path fill="none" stroke="#63b8ff" d="M472.93,-274.75C472.93,-268.11 472.93,-258.73 472.93,-250.31"/>
<polygon fill="#63b8ff" stroke="#63b8ff" points="476.43,-250.44 472.93,-240.44 469.43,-250.44 476.43,-250.44"/>
</g>
<!-- Node14 -->
<g id="node14" class="node">
<title>Node14</title>
<g id="a_node14"><a xlink:href="_nuki_opener_constants_8h.html" target="_top" xlink:title=" ">
<polygon fill="white" stroke="#666666" points="444.93,-129 324.93,-129 324.93,-110 444.93,-110 444.93,-129"/>
<text text-anchor="middle" x="384.93" y="-117" font-family="Helvetica,sans-Serif" font-size="10.00">NukiOpenerConstants.h</text>
</a>
</g>
</g>
<!-- Node2&#45;&gt;Node14 -->
<g id="edge17" class="edge">
<title>Node2&#45;&gt;Node14</title>
<path fill="none" stroke="#63b8ff" d="M434.74,-281.35C332.95,-274.75 59.17,-250.98 4.93,-184 -35.02,-134.66 193.21,-123.58 313.87,-121.15"/>
<polygon fill="#63b8ff" stroke="#63b8ff" points="313.92,-124.63 323.85,-120.94 313.79,-117.63 313.92,-124.63"/>
</g>
<!-- Node4 -->
<g id="node4" class="node">
<title>Node4</title>
<g id="a_node4"><a xlink:title=" ">
<polygon fill="#e0e0e0" stroke="#999999" points="592.43,-184 501.43,-184 501.43,-165 592.43,-165 592.43,-184"/>
<text text-anchor="middle" x="546.93" y="-172" font-family="Helvetica,sans-Serif" font-size="10.00">NimBLEDevice.h</text>
</a>
</g>
</g>
<!-- Node3&#45;&gt;Node4 -->
<g id="edge3" class="edge">
<title>Node3&#45;&gt;Node4</title>
<path fill="none" stroke="#63b8ff" d="M485.49,-219.51C496.5,-211.62 512.75,-199.98 525.77,-190.65"/>
<polygon fill="#63b8ff" stroke="#63b8ff" points="527.47,-193.03 533.57,-184.36 523.4,-187.34 527.47,-193.03"/>
</g>
<!-- Node5 -->
<g id="node5" class="node">
<title>Node5</title>
<g id="a_node5"><a xlink:href="_nuki_constants_8h.html" target="_top" xlink:title=" ">
<polygon fill="white" stroke="#666666" points="558.43,-74 469.43,-74 469.43,-55 558.43,-55 558.43,-74"/>
<text text-anchor="middle" x="513.93" y="-62" font-family="Helvetica,sans-Serif" font-size="10.00">NukiConstants.h</text>
</a>
</g>
</g>
<!-- Node3&#45;&gt;Node5 -->
<g id="edge4" class="edge">
<title>Node3&#45;&gt;Node5</title>
<path fill="none" stroke="#63b8ff" d="M475.14,-219.74C481.53,-194.31 500.21,-120.08 509.11,-84.69"/>
<polygon fill="#63b8ff" stroke="#63b8ff" points="512.67,-85.86 511.72,-75.31 505.88,-84.15 512.67,-85.86"/>
</g>
<!-- Node7 -->
<g id="node7" class="node">
<title>Node7</title>
<g id="a_node7"><a xlink:href="_nuki_data_types_8h.html" target="_top" xlink:title=" ">
<polygon fill="white" stroke="#666666" points="717.43,-129 626.43,-129 626.43,-110 717.43,-110 717.43,-129"/>
<text text-anchor="middle" x="671.93" y="-117" font-family="Helvetica,sans-Serif" font-size="10.00">NukiDataTypes.h</text>
</a>
</g>
</g>
<!-- Node3&#45;&gt;Node7 -->
<g id="edge6" class="edge">
<title>Node3&#45;&gt;Node7</title>
<path fill="none" stroke="#63b8ff" d="M502.61,-226.84C556.01,-223.16 664.89,-212.3 687.93,-184 698.45,-171.09 691.69,-152.17 683.99,-138.34"/>
<polygon fill="#63b8ff" stroke="#63b8ff" points="686.67,-137.01 678.45,-130.33 680.71,-140.68 686.67,-137.01"/>
</g>
<!-- Node8 -->
<g id="node8" class="node">
<title>Node8</title>
<g id="a_node8"><a xlink:title=" ">
<polygon fill="#e0e0e0" stroke="#999999" points="793.43,-74 736.43,-74 736.43,-55 793.43,-55 793.43,-74"/>
<text text-anchor="middle" x="764.93" y="-62" font-family="Helvetica,sans-Serif" font-size="10.00">Arduino.h</text>
</a>
</g>
</g>
<!-- Node3&#45;&gt;Node8 -->
<g id="edge9" class="edge">
<title>Node3&#45;&gt;Node8</title>
<path fill="none" stroke="#63b8ff" d="M502.86,-226.03C558.11,-220.95 673.41,-207.76 704.93,-184 737.67,-159.33 753.87,-111.78 760.72,-85.02"/>
<polygon fill="#63b8ff" stroke="#63b8ff" points="764.35,-85.88 763.23,-75.35 757.53,-84.28 764.35,-85.88"/>
</g>
<!-- Node9 -->
<g id="node9" class="node">
<title>Node9</title>
<g id="a_node9"><a xlink:title=" ">
<polygon fill="#e0e0e0" stroke="#999999" points="91.43,-184 14.43,-184 14.43,-165 91.43,-165 91.43,-184"/>
<text text-anchor="middle" x="52.93" y="-172" font-family="Helvetica,sans-Serif" font-size="10.00">Preferences.h</text>
</a>
</g>
</g>
<!-- Node3&#45;&gt;Node9 -->
<g id="edge10" class="edge">
<title>Node3&#45;&gt;Node9</title>
<path fill="none" stroke="#63b8ff" d="M443.36,-225.58C381.82,-219.38 235.31,-203.94 102.63,-184.33"/>
<polygon fill="#63b8ff" stroke="#63b8ff" points="103.29,-180.74 92.89,-182.73 102.26,-187.67 103.29,-180.74"/>
</g>
<!-- Node10 -->
<g id="node10" class="node">
<title>Node10</title>
<g id="a_node10"><a xlink:title=" ">
<polygon fill="#e0e0e0" stroke="#999999" points="194.43,-184 109.43,-184 109.43,-165 194.43,-165 194.43,-184"/>
<text text-anchor="middle" x="151.93" y="-172" font-family="Helvetica,sans-Serif" font-size="10.00">esp_task_wdt.h</text>
</a>
</g>
</g>
<!-- Node3&#45;&gt;Node10 -->
<g id="edge11" class="edge">
<title>Node3&#45;&gt;Node10</title>
<path fill="none" stroke="#63b8ff" d="M443.02,-223.56C388.73,-214.6 273.29,-195.54 205.24,-184.3"/>
<polygon fill="#63b8ff" stroke="#63b8ff" points="206.17,-180.74 195.74,-182.57 205.03,-187.65 206.17,-180.74"/>
</g>
<!-- Node11 -->
<g id="node11" class="node">
<title>Node11</title>
<g id="a_node11"><a xlink:title=" ">
<polygon fill="#e0e0e0" stroke="#999999" points="294.93,-184 212.93,-184 212.93,-165 294.93,-165 294.93,-184"/>
<text text-anchor="middle" x="253.93" y="-172" font-family="Helvetica,sans-Serif" font-size="10.00">BleInterfaces.h</text>
</a>
</g>
</g>
<!-- Node3&#45;&gt;Node11 -->
<g id="edge12" class="edge">
<title>Node3&#45;&gt;Node11</title>
<path fill="none" stroke="#63b8ff" d="M442.94,-221.24C406.44,-212.41 344.36,-197.38 301.36,-186.98"/>
<polygon fill="#63b8ff" stroke="#63b8ff" points="302.41,-183.39 291.86,-184.44 300.76,-190.19 302.41,-183.39"/>
</g>
<!-- Node12 -->
<g id="node12" class="node">
<title>Node12</title>
<g id="a_node12"><a xlink:title=" ">
<polygon fill="#e0e0e0" stroke="#999999" points="444.93,-184 312.93,-184 312.93,-165 444.93,-165 444.93,-184"/>
<text text-anchor="middle" x="378.93" y="-172" font-family="Helvetica,sans-Serif" font-size="10.00">sodium/crypto_secretbox.h</text>
</a>
</g>
</g>
<!-- Node3&#45;&gt;Node12 -->
<g id="edge13" class="edge">
<title>Node3&#45;&gt;Node12</title>
<path fill="none" stroke="#63b8ff" d="M456.99,-219.51C442.45,-211.31 420.74,-199.07 403.9,-189.58"/>
<polygon fill="#63b8ff" stroke="#63b8ff" points="406.07,-186.22 395.64,-184.36 402.64,-192.32 406.07,-186.22"/>
</g>
<!-- Node13 -->
<g id="node13" class="node">
<title>Node13</title>
<g id="a_node13"><a xlink:href="_nuki_ble_8hpp.html" target="_top" xlink:title=" ">
<polygon fill="white" stroke="#666666" points="679.43,-184 610.43,-184 610.43,-165 679.43,-165 679.43,-184"/>
<text text-anchor="middle" x="644.93" y="-172" font-family="Helvetica,sans-Serif" font-size="10.00">NukiBle.hpp</text>
</a>
</g>
</g>
<!-- Node3&#45;&gt;Node13 -->
<g id="edge14" class="edge">
<title>Node3&#45;&gt;Node13</title>
<path fill="none" stroke="#63b8ff" d="M502.11,-219.51C530.61,-210.73 574.19,-197.3 605.71,-187.59"/>
<polygon fill="#63b8ff" stroke="#63b8ff" points="606.37,-190.74 614.9,-184.45 604.31,-184.05 606.37,-190.74"/>
</g>
<!-- Node6 -->
<g id="node6" class="node">
<title>Node6</title>
<g id="a_node6"><a xlink:title=" ">
<polygon fill="#e0e0e0" stroke="#999999" points="512.93,-19 426.93,-19 426.93,0 512.93,0 512.93,-19"/>
<text text-anchor="middle" x="469.93" y="-7" font-family="Helvetica,sans-Serif" font-size="10.00">NimBLEUUID.h</text>
</a>
</g>
</g>
<!-- Node5&#45;&gt;Node6 -->
<g id="edge5" class="edge">
<title>Node5&#45;&gt;Node6</title>
<path fill="none" stroke="#63b8ff" d="M506.67,-54.75C500.59,-47.43 491.74,-36.76 484.24,-27.74"/>
<polygon fill="#63b8ff" stroke="#63b8ff" points="486.44,-25.9 477.36,-20.44 481.05,-30.37 486.44,-25.9"/>
</g>
<!-- Node7&#45;&gt;Node5 -->
<g id="edge8" class="edge">
<title>Node7&#45;&gt;Node5</title>
<path fill="none" stroke="#63b8ff" d="M645.13,-109.51C619.18,-100.8 579.62,-87.53 550.72,-77.84"/>
<polygon fill="#63b8ff" stroke="#63b8ff" points="552.2,-74.31 541.6,-74.45 549.97,-80.94 552.2,-74.31"/>
</g>
<!-- Node7&#45;&gt;Node8 -->
<g id="edge7" class="edge">
<title>Node7&#45;&gt;Node8</title>
<path fill="none" stroke="#63b8ff" d="M687.71,-109.51C702.09,-101.31 723.57,-89.07 740.23,-79.58"/>
<polygon fill="#63b8ff" stroke="#63b8ff" points="741.43,-82.35 748.39,-74.36 737.97,-76.27 741.43,-82.35"/>
</g>
<!-- Node13&#45;&gt;Node5 -->
<g id="edge15" class="edge">
<title>Node13&#45;&gt;Node5</title>
<path fill="none" stroke="#63b8ff" d="M634.21,-164.66C612.05,-146.39 560.92,-104.23 532.99,-81.21"/>
<polygon fill="#63b8ff" stroke="#63b8ff" points="535.74,-78.12 525.8,-74.46 531.29,-83.52 535.74,-78.12"/>
</g>
<!-- Node13&#45;&gt;Node7 -->
<g id="edge16" class="edge">
<title>Node13&#45;&gt;Node7</title>
<path fill="none" stroke="#63b8ff" d="M649.39,-164.75C652.93,-157.81 657.99,-147.86 662.43,-139.16"/>
<polygon fill="#63b8ff" stroke="#63b8ff" points="665.96,-140.94 667.38,-130.44 659.72,-137.76 665.96,-140.94"/>
</g>
<!-- Node14&#45;&gt;Node5 -->
<g id="edge19" class="edge">
<title>Node14&#45;&gt;Node5</title>
<path fill="none" stroke="#63b8ff" d="M406.82,-109.51C427.51,-101.01 458.8,-88.15 482.23,-78.53"/>
<polygon fill="#63b8ff" stroke="#63b8ff" points="483.45,-81.4 491.37,-74.36 480.79,-74.92 483.45,-81.4"/>
</g>
<!-- Node14&#45;&gt;Node6 -->
<g id="edge18" class="edge">
<title>Node14&#45;&gt;Node6</title>
<path fill="none" stroke="#63b8ff" d="M391.89,-109.66C405.9,-91.86 437.74,-51.41 456.13,-28.04"/>
<polygon fill="#63b8ff" stroke="#63b8ff" points="459.45,-30.48 462.88,-20.46 453.95,-26.15 459.45,-30.48"/>
</g>
<!-- Node15&#45;&gt;Node5 -->
<g id="edge23" class="edge">
<title>Node15&#45;&gt;Node5</title>
<path fill="none" stroke="#63b8ff" d="M915.7,-164.72C906.69,-150.52 886.83,-122.79 861.93,-110 812.17,-84.43 654.64,-72.64 569.62,-68.03"/>
<polygon fill="#63b8ff" stroke="#63b8ff" points="570.05,-64.49 559.88,-67.46 569.68,-71.48 570.05,-64.49"/>
</g>
<!-- Node15&#45;&gt;Node7 -->
<g id="edge22" class="edge">
<title>Node15&#45;&gt;Node7</title>
<path fill="none" stroke="#63b8ff" d="M888.12,-166.52C846.42,-157.64 773.9,-142.2 724.46,-131.68"/>
<polygon fill="#63b8ff" stroke="#63b8ff" points="725.48,-128.11 714.97,-129.45 724.02,-134.95 725.48,-128.11"/>
</g>
<!-- Node15&#45;&gt;Node8 -->
<g id="edge21" class="edge">
<title>Node15&#45;&gt;Node8</title>
<path fill="none" stroke="#63b8ff" d="M919.86,-164.83C917.72,-151.27 911.71,-125.04 895.93,-110 871.04,-86.26 833,-75.16 804.32,-69.98"/>
<polygon fill="#63b8ff" stroke="#63b8ff" points="805.26,-66.42 794.83,-68.27 804.14,-73.33 805.26,-66.42"/>
</g>
<!-- Node16 -->
<g id="node16" class="node">
<title>Node16</title>
<g id="a_node16"><a xlink:title=" ">
<polygon fill="#e0e0e0" stroke="#999999" points="853.43,-129 812.43,-129 812.43,-110 853.43,-110 853.43,-129"/>
<text text-anchor="middle" x="832.93" y="-117" font-family="Helvetica,sans-Serif" font-size="10.00">bitset</text>
</a>
</g>
</g>
<!-- Node15&#45;&gt;Node16 -->
<g id="edge24" class="edge">
<title>Node15&#45;&gt;Node16</title>
<path fill="none" stroke="#63b8ff" d="M906.01,-164.51C892.52,-156.39 872.45,-144.3 856.75,-134.85"/>
<polygon fill="#63b8ff" stroke="#63b8ff" points="859.01,-131.52 848.64,-129.36 855.4,-137.52 859.01,-131.52"/>
</g>
<!-- Node17&#45;&gt;Node7 -->
<g id="edge27" class="edge">
<title>Node17&#45;&gt;Node7</title>
<path fill="none" stroke="#63b8ff" d="M796.49,-164.51C772.06,-155.88 734.95,-142.76 707.58,-133.1"/>
<polygon fill="#63b8ff" stroke="#63b8ff" points="708.85,-129.48 698.25,-129.45 706.52,-136.08 708.85,-129.48"/>
</g>
<!-- Node17&#45;&gt;Node8 -->
<g id="edge26" class="edge">
<title>Node17&#45;&gt;Node8</title>
<path fill="none" stroke="#63b8ff" d="M817.27,-164.66C808,-147.1 787.09,-107.48 774.69,-83.98"/>
<polygon fill="#63b8ff" stroke="#63b8ff" points="777.43,-82.67 769.66,-75.46 771.23,-85.94 777.43,-82.67"/>
</g>
<!-- Node17&#45;&gt;Node14 -->
<g id="edge28" class="edge">
<title>Node17&#45;&gt;Node14</title>
<path fill="none" stroke="#63b8ff" d="M773.5,-167.63C696.38,-158.27 545.3,-139.95 455.94,-129.11"/>
<polygon fill="#63b8ff" stroke="#63b8ff" points="456.44,-125.53 446.09,-127.8 455.6,-132.47 456.44,-125.53"/>
</g>
<!-- Node17&#45;&gt;Node16 -->
<g id="edge29" class="edge">
<title>Node17&#45;&gt;Node16</title>
<path fill="none" stroke="#63b8ff" d="M823.75,-164.75C825.14,-158.04 827.12,-148.52 828.88,-140.02"/>
<polygon fill="#63b8ff" stroke="#63b8ff" points="832.47,-140.94 831.08,-130.44 825.62,-139.52 832.47,-140.94"/>
</g>
</g>
</svg>
        <g id="navigator" transform="translate(0 0)" fill="#404254">
                <rect fill="#f2f5e9" fill-opacity="0.5" stroke="#606060" stroke-width=".5" x="0" y="0" width="60" height="60"/>
                <use id="zoomplus" xlink:href="#zoomPlus" x="17" y="9" onmousedown="handleZoom(evt,'in')"/>
                <use id="zoomminus" xlink:href="#zoomMin" x="42" y="9" onmousedown="handleZoom(evt,'out')"/>
                <use id="reset" xlink:href="#resetDef" x="30" y="36" onmousedown="handleReset()"/>
                <g id="arrowUp" xlink:href="#dirArrow" transform="translate(30 24)" onmousedown="handlePan(0,-1)">
                  <use xlink:href="#rim" fill="#404040">
                        <set attributeName="fill" to="#808080" begin="arrowUp.mouseover" end="arrowUp.mouseout"/>
                  </use>
                  <path fill="none" stroke="white" stroke-width="1.5" d="M0,-3.0v7 M-2.5,-0.5L0,-3.0L2.5,-0.5"/>
                </g>
                <g id="arrowRight" xlink:href="#dirArrow" transform="rotate(90) translate(36 -43)" onmousedown="handlePan(1,0)">
                  <use xlink:href="#rim" fill="#404040">
                        <set attributeName="fill" to="#808080" begin="arrowRight.mouseover" end="arrowRight.mouseout"/>
                  </use>
                  <path fill="none" stroke="white" stroke-width="1.5" d="M0,-3.0v7 M-2.5,-0.5L0,-3.0L2.5,-0.5"/>
                </g>
                <g id="arrowDown" xlink:href="#dirArrow" transform="rotate(180) translate(-30 -48)" onmousedown="handlePan(0,1)">
                  <use xlink:href="#rim" fill="#404040">
                        <set attributeName="fill" to="#808080" begin="arrowDown.mouseover" end="arrowDown.mouseout"/>
                  </use>
                  <path fill="none" stroke="white" stroke-width="1.5" d="M0,-3.0v7 M-2.5,-0.5L0,-3.0L2.5,-0.5"/>
                </g>
                <g id="arrowLeft" xlink:href="#dirArrow" transform="rotate(270) translate(-36 17)" onmousedown="handlePan(-1,0)">
                  <use xlink:href="#rim" fill="#404040">
                        <set attributeName="fill" to="#808080" begin="arrowLeft.mouseover" end="arrowLeft.mouseout"/>
                  </use>
                  <path fill="none" stroke="white" stroke-width="1.5" d="M0,-3.0v7 M-2.5,-0.5L0,-3.0L2.5,-0.5"/>
                </g>
        </g>
        <svg viewBox="0 0 15 15" width="100%" height="30px" preserveAspectRatio="xMaxYMin meet">
         <g id="arrow_out" transform="scale(0.3 0.3)">
          <a xlink:href="_nuki_opener_8cpp__incl_org.svg" target="_base">
           <rect id="button" ry="5" rx="5" y="6" x="6" height="38" width="38"
                fill="#f2f5e9" fill-opacity="0.5" stroke="#606060" stroke-width="1.0"/>
           <path id="arrow"
             d="M 11.500037,31.436501 C 11.940474,20.09759 22.043105,11.32322 32.158766,21.979434 L 37.068811,17.246167 C 37.068811,17.246167 37.088388,32 37.088388,32 L 22.160133,31.978069 C 22.160133,31.978069 26.997745,27.140456 26.997745,27.140456 C 18.528582,18.264221 13.291696,25.230495 11.500037,31.436501 z"
             style="fill:#404040;"/>
          </a>
         </g>
        </svg>
</svg>
