<?xml version="1.0" encoding="UTF-8" standalone="no"?>
<!DOCTYPE svg PUBLIC "-//W3C//DTD SVG 1.1//EN"
 "http://www.w3.org/Graphics/SVG/1.1/DTD/svg11.dtd">
<!-- Generated by graphviz version 12.2.1 (20241206.2353)
 -->
<!-- Title: src/NukiOpenerConstants.h Pages: 1 -->
<svg width="250pt" height="138pt"
 viewBox="0.00 0.00 250.38 137.75" xmlns="http://www.w3.org/2000/svg" xmlns:xlink="http://www.w3.org/1999/xlink">

<svg id="main" version="1.1" xmlns="http://www.w3.org/2000/svg" xmlns:xlink="http://www.w3.org/1999/xlink" xml:space="preserve">

<style type="text/css"><![CDATA[
.node, .edge {opacity: 0.7;}
.node.selected, .edge.selected {opacity: 1;}
.edge:hover path { stroke: red; }
.edge:hover polygon { stroke: red; fill: red; }
]]></style>
<script type="application/ecmascript" xlink:href="svg.min.js"/>
<svg id="graph" class="graph">
<g id="graph0" class="graph" transform="scale(1 1) rotate(0) translate(4 133.75)">
<title>src/NukiOpenerConstants.h</title>
<!-- Node1 -->
<g id="Node000001" class="node">
<title>Node1</title>
<g id="a_Node000001"><a xlink:title=" ">
<polygon fill="#999999" stroke="#666666" points="179.12,-129.75 43.12,-129.75 43.12,-110.5 179.12,-110.5 179.12,-129.75"/>
<text text-anchor="middle" x="111.12" y="-116.25" font-family="Helvetica,sans-Serif" font-size="10.00">src/NukiOpenerConstants.h</text>
</a>
</g>
</g>
<!-- Node2 -->
<g id="Node000002" class="node">
<title>Node2</title>
<g id="a_Node000002"><a xlink:href="_nuki_opener_8h.html" target="_top" xlink:title=" ">
<polygon fill="white" stroke="#666666" points="97,-74.5 5.25,-74.5 5.25,-55.25 97,-55.25 97,-74.5"/>
<text text-anchor="middle" x="51.12" y="-61" font-family="Helvetica,sans-Serif" font-size="10.00">src/NukiOpener.h</text>
</a>
</g>
</g>
<!-- Node1&#45;&gt;Node2 -->
<g id="edge1_Node000001_Node000002" class="edge">
<title>Node1&#45;&gt;Node2</title>
<g id="a_edge1_Node000001_Node000002"><a xlink:title=" ">
<path fill="none" stroke="#63b8ff" d="M92.55,-102.64C82.19,-93.44 69.69,-82.35 61.15,-74.77"/>
<polygon fill="#63b8ff" stroke="#63b8ff" points="90.01,-105.07 99.81,-109.09 94.66,-99.83 90.01,-105.07"/>
</a>
</g>
</g>
<!-- Node4 -->
<g id="Node000004" class="node">
<title>Node4</title>
<g id="a_Node000004"><a xlink:href="_nuki_opener_utils_8h.html" target="_top" xlink:title=" ">
<polygon fill="white" stroke="#666666" points="227.12,-74.5 115.12,-74.5 115.12,-55.25 227.12,-55.25 227.12,-74.5"/>
<text text-anchor="middle" x="171.12" y="-61" font-family="Helvetica,sans-Serif" font-size="10.00">src/NukiOpenerUtils.h</text>
</a>
</g>
</g>
<!-- Node1&#45;&gt;Node4 -->
<g id="edge3_Node000001_Node000004" class="edge">
<title>Node1&#45;&gt;Node4</title>
<g id="a_edge3_Node000001_Node000004"><a xlink:title=" ">
<path fill="none" stroke="#63b8ff" d="M129.7,-102.64C140.06,-93.44 152.56,-82.35 161.1,-74.77"/>
<polygon fill="#63b8ff" stroke="#63b8ff" points="127.59,-99.83 122.44,-109.09 132.24,-105.07 127.59,-99.83"/>
</a>
</g>
</g>
<!-- Node3 -->
<g id="Node000003" class="node">
<title>Node3</title>
<g id="a_Node000003"><a xlink:href="_nuki_opener_8cpp.html" target="_top" xlink:title=" ">
<polygon fill="white" stroke="#666666" points="102.25,-19.25 0,-19.25 0,0 102.25,0 102.25,-19.25"/>
<text text-anchor="middle" x="51.12" y="-5.75" font-family="Helvetica,sans-Serif" font-size="10.00">src/NukiOpener.cpp</text>
</a>
</g>
</g>
<!-- Node2&#45;&gt;Node3 -->
<g id="edge2_Node000002_Node000003" class="edge">
<title>Node2&#45;&gt;Node3</title>
<g id="a_edge2_Node000002_Node000003"><a xlink:title=" ">
<path fill="none" stroke="#63b8ff" d="M51.12,-43.63C51.12,-35.34 51.12,-26.17 51.12,-19.61"/>
<polygon fill="#63b8ff" stroke="#63b8ff" points="47.63,-43.57 51.13,-53.57 54.63,-43.57 47.63,-43.57"/>
</a>
</g>
</g>
<!-- Node4&#45;&gt;Node3 -->
<g id="edge4_Node000004_Node000003" class="edge">
<title>Node4&#45;&gt;Node3</title>
<g id="a_edge4_Node000004_Node000003"><a xlink:title=" ">
<path fill="none" stroke="#63b8ff" d="M140.47,-50.27C118.85,-40.68 90.49,-28.09 71.58,-19.7"/>
<polygon fill="#63b8ff" stroke="#63b8ff" points="138.83,-53.37 149.39,-54.23 141.66,-46.97 138.83,-53.37"/>
</a>
</g>
</g>
<!-- Node5 -->
<g id="Node000005" class="node">
<title>Node5</title>
<g id="a_Node000005"><a xlink:href="_nuki_opener_utils_8cpp.html" target="_top" xlink:title=" ">
<polygon fill="white" stroke="#666666" points="242.38,-19.25 119.88,-19.25 119.88,0 242.38,0 242.38,-19.25"/>
<text text-anchor="middle" x="181.12" y="-5.75" font-family="Helvetica,sans-Serif" font-size="10.00">src/NukiOpenerUtils.cpp</text>
</a>
</g>
</g>
<!-- Node4&#45;&gt;Node5 -->
<g id="edge5_Node000004_Node000005" class="edge">
<title>Node4&#45;&gt;Node5</title>
<g id="a_edge5_Node000004_Node000005"><a xlink:title=" ">
<path fill="none" stroke="#63b8ff" d="M174.87,-43.92C176.44,-35.55 178.19,-26.25 179.44,-19.61"/>
<polygon fill="#63b8ff" stroke="#63b8ff" points="171.46,-43.12 173.06,-53.59 178.34,-44.41 171.46,-43.12"/>
</a>
</g>
</g>
</g>
</svg>
</svg>

<style type='text/css'>
<![CDATA[
[data-mouse-over-selected='false'] { opacity: 0.7; }
[data-mouse-over-selected='true']  { opacity: 1.0; }
]]>
</style>
<script type="application/ecmascript"><![CDATA[
document.addEventListener('DOMContentLoaded', (event) => {
  highlightEdges();
  highlightAdjacentNodes();
});
]]></script>
</svg>
