<?xml version="1.0" encoding="UTF-8" standalone="no"?>
<!DOCTYPE svg PUBLIC "-//W3C//DTD SVG 1.1//EN"
 "http://www.w3.org/Graphics/SVG/1.1/DTD/svg11.dtd">
<!-- Generated by graphviz version 12.0.0 (20240704.0754)
 -->
<!-- Title: Nuki::NukiBle::deleteAuthorizationEntry Pages: 1 -->
<svg width="735pt" height="162pt"
 viewBox="0.00 0.00 735.00 161.88" xmlns="http://www.w3.org/2000/svg" xmlns:xlink="http://www.w3.org/1999/xlink">
<g id="graph0" class="graph" transform="scale(1 1) rotate(0) translate(4 157.88)">
<title>Nuki::NukiBle::deleteAuthorizationEntry</title>
<!-- Node1 -->
<g id="Node000001" class="node">
<title>Node1</title>
<g id="a_Node000001"><a xlink:title="Deletes the authorization entry from the lock.">
<polygon fill="#999999" stroke="#666666" points="162.25,-88.88 0,-88.88 0,-58.38 162.25,-58.38 162.25,-88.88"/>
<text text-anchor="start" x="8" y="-75.38" font-family="Helvetica,sans-Serif" font-size="10.00">Nuki::NukiBle::deleteAuthorization</text>
<text text-anchor="middle" x="81.12" y="-64.12" font-family="Helvetica,sans-Serif" font-size="10.00">Entry</text>
</a>
</g>
</g>
<!-- Node2 -->
<g id="Node000002" class="node">
<title>Node2</title>
<g id="a_Node000002"><a xlink:href="class_nuki_1_1_nuki_ble.html#af1f1e299e8d97e053bba80e92ba285d6" target="_top" xlink:title=" ">
<polygon fill="white" stroke="#666666" points="339.5,-83.25 198.25,-83.25 198.25,-64 339.5,-64 339.5,-83.25"/>
<text text-anchor="middle" x="268.88" y="-69.75" font-family="Helvetica,sans-Serif" font-size="10.00">Nuki::NukiBle::executeAction</text>
</a>
</g>
</g>
<!-- Node1&#45;&gt;Node2 -->
<g id="edge1_Node000001_Node000002" class="edge">
<title>Node1&#45;&gt;Node2</title>
<g id="a_edge1_Node000001_Node000002"><a xlink:title=" ">
<path fill="none" stroke="#63b8ff" d="M162.52,-73.62C170.42,-73.62 178.45,-73.62 186.37,-73.62"/>
<polygon fill="#63b8ff" stroke="#63b8ff" points="186.34,-77.13 196.34,-73.63 186.34,-70.13 186.34,-77.13"/>
</a>
</g>
</g>
<!-- Node3 -->
<g id="Node000003" class="node">
<title>Node3</title>
<g id="a_Node000003"><a xlink:href="class_nuki_1_1_nuki_ble.html#ada0f3beebd95d35c122e25dd3f9eb886" target="_top" xlink:title=" ">
<polygon fill="white" stroke="#666666" points="523.5,-153.88 386,-153.88 386,-123.38 523.5,-123.38 523.5,-153.88"/>
<text text-anchor="start" x="394" y="-140.38" font-family="Helvetica,sans-Serif" font-size="10.00">Nuki::NukiBle::cmdChallAcc</text>
<text text-anchor="middle" x="454.75" y="-129.12" font-family="Helvetica,sans-Serif" font-size="10.00">StateMachine</text>
</a>
</g>
</g>
<!-- Node2&#45;&gt;Node3 -->
<g id="edge2_Node000002_Node000003" class="edge">
<title>Node2&#45;&gt;Node3</title>
<g id="a_edge2_Node000002_Node000003"><a xlink:title=" ">
<path fill="none" stroke="#63b8ff" d="M298.2,-83.64C324.93,-93.09 365.72,-107.51 398.82,-119.21"/>
<polygon fill="#63b8ff" stroke="#63b8ff" points="397.25,-122.37 407.85,-122.4 399.59,-115.77 397.25,-122.37"/>
</a>
</g>
</g>
<!-- Node4 -->
<g id="Node000004" class="node">
<title>Node4</title>
<g id="a_Node000004"><a xlink:href="class_nuki_1_1_nuki_ble.html#a6e8fca90c04249660dce6cb993eb4495" target="_top" xlink:title=" ">
<polygon fill="white" stroke="#666666" points="727,-88.88 570,-88.88 570,-58.38 727,-58.38 727,-88.88"/>
<text text-anchor="start" x="578" y="-75.38" font-family="Helvetica,sans-Serif" font-size="10.00">Nuki::NukiBle::extendDisconnect</text>
<text text-anchor="middle" x="648.5" y="-64.12" font-family="Helvetica,sans-Serif" font-size="10.00">Timeout</text>
</a>
</g>
</g>
<!-- Node2&#45;&gt;Node4 -->
<g id="edge8_Node000002_Node000004" class="edge">
<title>Node2&#45;&gt;Node4</title>
<g id="a_edge8_Node000002_Node000004"><a xlink:title=" ">
<path fill="none" stroke="#63b8ff" d="M339.75,-75.89C351.68,-76.2 363.94,-76.46 375.5,-76.62 445.94,-77.63 463.56,-77.56 534,-76.62 541.93,-76.52 550.16,-76.37 558.42,-76.2"/>
<polygon fill="#63b8ff" stroke="#63b8ff" points="558.23,-79.71 568.15,-75.99 558.07,-72.71 558.23,-79.71"/>
</a>
</g>
</g>
<!-- Node5 -->
<g id="Node000005" class="node">
<title>Node5</title>
<g id="a_Node000005"><a xlink:href="class_nuki_1_1_nuki_ble.html#a59169a9f492793762e3c6ba39b611b07" target="_top" xlink:title=" ">
<polygon fill="white" stroke="#666666" points="526.5,-67.88 383,-67.88 383,-37.38 526.5,-37.38 526.5,-67.88"/>
<text text-anchor="start" x="391" y="-54.38" font-family="Helvetica,sans-Serif" font-size="10.00">Nuki::NukiBle::cmdChallState</text>
<text text-anchor="middle" x="454.75" y="-43.12" font-family="Helvetica,sans-Serif" font-size="10.00">Machine</text>
</a>
</g>
</g>
<!-- Node2&#45;&gt;Node5 -->
<g id="edge4_Node000002_Node000005" class="edge">
<title>Node2&#45;&gt;Node5</title>
<g id="a_edge4_Node000002_Node000005"><a xlink:title=" ">
<path fill="none" stroke="#63b8ff" d="M339.91,-65.63C350.2,-64.45 360.87,-63.23 371.38,-62.03"/>
<polygon fill="#63b8ff" stroke="#63b8ff" points="371.64,-65.53 381.18,-60.91 370.85,-58.57 371.64,-65.53"/>
</a>
</g>
</g>
<!-- Node6 -->
<g id="Node000006" class="node">
<title>Node6</title>
<g id="a_Node000006"><a xlink:href="class_nuki_1_1_nuki_ble.html#ad135bb1455665decfddff67772c1d411" target="_top" xlink:title=" ">
<polygon fill="white" stroke="#666666" points="534,-19.25 375.5,-19.25 375.5,0 534,0 534,-19.25"/>
<text text-anchor="middle" x="454.75" y="-5.75" font-family="Helvetica,sans-Serif" font-size="10.00">Nuki::NukiBle::cmdStateMachine</text>
</a>
</g>
</g>
<!-- Node2&#45;&gt;Node6 -->
<g id="edge6_Node000002_Node000006" class="edge">
<title>Node2&#45;&gt;Node6</title>
<g id="a_edge6_Node000002_Node000006"><a xlink:title=" ">
<path fill="none" stroke="#63b8ff" d="M290.53,-63.63C311.54,-53.74 345.23,-38.67 375.5,-28.62 382.03,-26.46 388.94,-24.42 395.85,-22.55"/>
<polygon fill="#63b8ff" stroke="#63b8ff" points="396.38,-26.02 405.17,-20.12 394.61,-19.25 396.38,-26.02"/>
</a>
</g>
</g>
<!-- Node3&#45;&gt;Node4 -->
<g id="edge3_Node000003_Node000004" class="edge">
<title>Node3&#45;&gt;Node4</title>
<g id="a_edge3_Node000003_Node000004"><a xlink:title=" ">
<path fill="none" stroke="#63b8ff" d="M502.17,-122.89C528.68,-113.9 562.15,-102.56 590.29,-93.02"/>
<polygon fill="#63b8ff" stroke="#63b8ff" points="591.4,-96.34 599.74,-89.81 589.15,-89.71 591.4,-96.34"/>
</a>
</g>
</g>
<!-- Node5&#45;&gt;Node4 -->
<g id="edge5_Node000005_Node000004" class="edge">
<title>Node5&#45;&gt;Node4</title>
<g id="a_edge5_Node000005_Node000004"><a xlink:title=" ">
<path fill="none" stroke="#63b8ff" d="M526.88,-60.41C537.13,-61.54 547.79,-62.71 558.34,-63.86"/>
<polygon fill="#63b8ff" stroke="#63b8ff" points="557.9,-67.33 568.22,-64.94 558.66,-60.37 557.9,-67.33"/>
</a>
</g>
</g>
<!-- Node6&#45;&gt;Node4 -->
<g id="edge7_Node000006_Node000004" class="edge">
<title>Node6&#45;&gt;Node4</title>
<g id="a_edge7_Node000006_Node000004"><a xlink:title=" ">
<path fill="none" stroke="#63b8ff" d="M501.97,-19.72C512.57,-22.34 523.74,-25.36 534,-28.62 556.43,-35.76 580.76,-45.17 601.12,-53.54"/>
<polygon fill="#63b8ff" stroke="#63b8ff" points="599.7,-56.74 610.28,-57.35 602.39,-50.28 599.7,-56.74"/>
</a>
</g>
</g>
</g>
</svg>
