<?xml version="1.0" encoding="UTF-8" standalone="no"?>
<!DOCTYPE svg PUBLIC "-//W3C//DTD SVG 1.1//EN"
 "http://www.w3.org/Graphics/SVG/1.1/DTD/svg11.dtd">
<!-- Generated by graphviz version 6.0.1 (20220911.1526)
 -->
<!-- Title: NukiOpener::NukiOpener::handleReturnMessage Pages: 1 -->
<svg width="497pt" height="273pt"
 viewBox="0.00 0.00 497.00 272.50" xmlns="http://www.w3.org/2000/svg" xmlns:xlink="http://www.w3.org/1999/xlink">
<g id="graph0" class="graph" transform="scale(1 1) rotate(0) translate(4 268.5)">
<title>NukiOpener::NukiOpener::handleReturnMessage</title>
<!-- Node1 -->
<g id="node1" class="node">
<title>Node1</title>
<g id="a_node1"><a xlink:title=" ">
<polygon fill="#999999" stroke="#666666" points="125,-147.5 0,-147.5 0,-117.5 125,-117.5 125,-147.5"/>
<text text-anchor="start" x="8" y="-135.5" font-family="Helvetica,sans-Serif" font-size="10.00">NukiOpener::NukiOpener</text>
<text text-anchor="middle" x="62.5" y="-124.5" font-family="Helvetica,sans-Serif" font-size="10.00">::handleReturnMessage</text>
</a>
</g>
</g>
<!-- Node2 -->
<g id="node2" class="node">
<title>Node2</title>
<g id="a_node2"><a xlink:href="class_nuki_1_1_nuki_ble.html#ac2e28f07ed0a738f73c5f77b46cdb1bb" target="_top" xlink:title=" ">
<polygon fill="white" stroke="#666666" points="307.5,-264.5 170.5,-264.5 170.5,-234.5 307.5,-234.5 307.5,-264.5"/>
<text text-anchor="start" x="178.5" y="-252.5" font-family="Helvetica,sans-Serif" font-size="10.00">Nuki::NukiBle::handleReturn</text>
<text text-anchor="middle" x="239" y="-241.5" font-family="Helvetica,sans-Serif" font-size="10.00">Message</text>
</a>
</g>
</g>
<!-- Node1&#45;&gt;Node2 -->
<g id="edge1" class="edge">
<title>Node1&#45;&gt;Node2</title>
<path fill="none" stroke="#63b8ff" d="M75.43,-147.6C92.37,-168.08 125.32,-204.5 161,-225.5 163.99,-227.26 167.12,-228.9 170.33,-230.43"/>
<polygon fill="#63b8ff" stroke="#63b8ff" points="169.01,-233.68 179.58,-234.47 171.81,-227.26 169.01,-233.68"/>
</g>
<!-- Node3 -->
<g id="node3" class="node">
<title>Node3</title>
<g id="a_node3"><a xlink:href="namespace_nuki_opener.html#a5df6b087b417e58c5c7a085a7f97fa63" target="_top" xlink:title=" ">
<polygon fill="white" stroke="#666666" points="317,-216 161,-216 161,-197 317,-197 317,-216"/>
<text text-anchor="middle" x="239" y="-204" font-family="Helvetica,sans-Serif" font-size="10.00">NukiOpener::logAdvancedConfig</text>
</a>
</g>
</g>
<!-- Node1&#45;&gt;Node3 -->
<g id="edge2" class="edge">
<title>Node1&#45;&gt;Node3</title>
<path fill="none" stroke="#63b8ff" d="M85.41,-147.58C104.58,-160.15 133.58,-177.69 161,-188.5 166.4,-190.63 172.12,-192.55 177.9,-194.26"/>
<polygon fill="#63b8ff" stroke="#63b8ff" points="177.07,-197.66 187.64,-196.96 178.94,-190.92 177.07,-197.66"/>
</g>
<!-- Node4 -->
<g id="node4" class="node">
<title>Node4</title>
<g id="a_node4"><a xlink:href="namespace_nuki_opener.html#a92b38c2119f39bf1c525b70cb49d3232" target="_top" xlink:title=" ">
<polygon fill="white" stroke="#666666" points="311.5,-179 166.5,-179 166.5,-160 311.5,-160 311.5,-179"/>
<text text-anchor="middle" x="239" y="-167" font-family="Helvetica,sans-Serif" font-size="10.00">NukiOpener::logBatteryReport</text>
</a>
</g>
</g>
<!-- Node1&#45;&gt;Node4 -->
<g id="edge3" class="edge">
<title>Node1&#45;&gt;Node4</title>
<path fill="none" stroke="#63b8ff" d="M125.02,-145.54C143.9,-149.55 164.54,-153.92 182.95,-157.83"/>
<polygon fill="#63b8ff" stroke="#63b8ff" points="182.42,-161.29 192.93,-159.94 183.87,-154.45 182.42,-161.29"/>
</g>
<!-- Node5 -->
<g id="node5" class="node">
<title>Node5</title>
<g id="a_node5"><a xlink:href="namespace_nuki_opener.html#a01fb60e0e360c42ad366aef691d5a390" target="_top" xlink:title=" ">
<polygon fill="white" stroke="#666666" points="295.5,-142 182.5,-142 182.5,-123 295.5,-123 295.5,-142"/>
<text text-anchor="middle" x="239" y="-130" font-family="Helvetica,sans-Serif" font-size="10.00">NukiOpener::logConfig</text>
</a>
</g>
</g>
<!-- Node1&#45;&gt;Node5 -->
<g id="edge4" class="edge">
<title>Node1&#45;&gt;Node5</title>
<path fill="none" stroke="#63b8ff" d="M125.02,-132.5C140.32,-132.5 156.77,-132.5 172.26,-132.5"/>
<polygon fill="#63b8ff" stroke="#63b8ff" points="172.27,-136 182.27,-132.5 172.27,-129 172.27,-136"/>
</g>
<!-- Node6 -->
<g id="node6" class="node">
<title>Node6</title>
<g id="a_node6"><a xlink:href="namespace_nuki_opener.html#ad694b05ff6125ebf77e067be3002d075" target="_top" xlink:title=" ">
<polygon fill="white" stroke="#666666" points="302.5,-67.5 175.5,-67.5 175.5,-37.5 302.5,-37.5 302.5,-67.5"/>
<text text-anchor="start" x="183.5" y="-55.5" font-family="Helvetica,sans-Serif" font-size="10.00">NukiOpener::logKeyturner</text>
<text text-anchor="middle" x="239" y="-44.5" font-family="Helvetica,sans-Serif" font-size="10.00">State</text>
</a>
</g>
</g>
<!-- Node1&#45;&gt;Node6 -->
<g id="edge5" class="edge">
<title>Node1&#45;&gt;Node6</title>
<path fill="none" stroke="#63b8ff" d="M87.25,-117.33C106.58,-105.42 134.84,-88.99 161,-77.5 166.07,-75.27 171.4,-73.14 176.79,-71.13"/>
<polygon fill="#63b8ff" stroke="#63b8ff" points="178.29,-74.31 186.52,-67.63 175.92,-67.72 178.29,-74.31"/>
</g>
<!-- Node10 -->
<g id="node10" class="node">
<title>Node10</title>
<g id="a_node10"><a xlink:href="namespace_nuki_opener.html#a1c24f78474980cc2d90ee83e371621c4" target="_top" xlink:title=" ">
<polygon fill="white" stroke="#666666" points="301,-105 177,-105 177,-86 301,-86 301,-105"/>
<text text-anchor="middle" x="239" y="-93" font-family="Helvetica,sans-Serif" font-size="10.00">NukiOpener::logLogEntry</text>
</a>
</g>
</g>
<!-- Node1&#45;&gt;Node10 -->
<g id="edge9" class="edge">
<title>Node1&#45;&gt;Node10</title>
<path fill="none" stroke="#63b8ff" d="M125.02,-119.46C143.9,-115.45 164.54,-111.08 182.95,-107.17"/>
<polygon fill="#63b8ff" stroke="#63b8ff" points="183.87,-110.55 192.93,-105.06 182.42,-103.71 183.87,-110.55"/>
</g>
<!-- Node11 -->
<g id="node11" class="node">
<title>Node11</title>
<g id="a_node11"><a xlink:href="namespace_nuki.html#a280e19d4682ca4b35d3fe64001da816a" target="_top" xlink:title=" ">
<polygon fill="white" stroke="#666666" points="282,-19 196,-19 196,0 282,0 282,-19"/>
<text text-anchor="middle" x="239" y="-7" font-family="Helvetica,sans-Serif" font-size="10.00">Nuki::printBuffer</text>
</a>
</g>
</g>
<!-- Node1&#45;&gt;Node11 -->
<g id="edge12" class="edge">
<title>Node1&#45;&gt;Node11</title>
<path fill="none" stroke="#63b8ff" d="M73.49,-117.16C89.25,-94.22 122.13,-51.26 161,-28.5 168.68,-24 177.4,-20.56 186.13,-17.94"/>
<polygon fill="#63b8ff" stroke="#63b8ff" points="187.2,-21.27 195.95,-15.3 185.38,-14.51 187.2,-21.27"/>
</g>
<!-- Node7 -->
<g id="node7" class="node">
<title>Node7</title>
<g id="a_node7"><a xlink:href="namespace_nuki_opener.html#a84631e75b3f180ead51e1a292fcee637" target="_top" xlink:title=" ">
<polygon fill="white" stroke="#666666" points="488,-67.5 354,-67.5 354,-37.5 488,-37.5 488,-67.5"/>
<text text-anchor="start" x="362" y="-55.5" font-family="Helvetica,sans-Serif" font-size="10.00">NukiOpener::logCompletion</text>
<text text-anchor="middle" x="421" y="-44.5" font-family="Helvetica,sans-Serif" font-size="10.00">Status</text>
</a>
</g>
</g>
<!-- Node6&#45;&gt;Node7 -->
<g id="edge6" class="edge">
<title>Node6&#45;&gt;Node7</title>
<path fill="none" stroke="#63b8ff" d="M302.7,-52.5C315.88,-52.5 329.92,-52.5 343.54,-52.5"/>
<polygon fill="#63b8ff" stroke="#63b8ff" points="343.85,-56 353.85,-52.5 343.85,-49 343.85,-56"/>
</g>
<!-- Node8 -->
<g id="node8" class="node">
<title>Node8</title>
<g id="a_node8"><a xlink:href="namespace_nuki_opener.html#ab25308954cb451d83358353032200422" target="_top" xlink:title=" ">
<polygon fill="white" stroke="#666666" points="488.5,-105 353.5,-105 353.5,-86 488.5,-86 488.5,-105"/>
<text text-anchor="middle" x="421" y="-93" font-family="Helvetica,sans-Serif" font-size="10.00">NukiOpener::logLockAction</text>
</a>
</g>
</g>
<!-- Node6&#45;&gt;Node8 -->
<g id="edge7" class="edge">
<title>Node6&#45;&gt;Node8</title>
<path fill="none" stroke="#63b8ff" d="M302.7,-67.48C324.76,-72.75 349.24,-78.6 370.1,-83.58"/>
<polygon fill="#63b8ff" stroke="#63b8ff" points="369.49,-87.03 380.03,-85.95 371.11,-80.22 369.49,-87.03"/>
</g>
<!-- Node9 -->
<g id="node9" class="node">
<title>Node9</title>
<g id="a_node9"><a xlink:href="namespace_nuki_opener.html#a9915ff097023a69e5792e791336bfcd6" target="_top" xlink:title=" ">
<polygon fill="white" stroke="#666666" points="489,-19 353,-19 353,0 489,0 489,-19"/>
<text text-anchor="middle" x="421" y="-7" font-family="Helvetica,sans-Serif" font-size="10.00">NukiOpener::logNukiTrigger</text>
</a>
</g>
</g>
<!-- Node6&#45;&gt;Node9 -->
<g id="edge8" class="edge">
<title>Node6&#45;&gt;Node9</title>
<path fill="none" stroke="#63b8ff" d="M302.7,-37.52C324.76,-32.25 349.24,-26.4 370.1,-21.42"/>
<polygon fill="#63b8ff" stroke="#63b8ff" points="371.11,-24.78 380.03,-19.05 369.49,-17.97 371.11,-24.78"/>
</g>
<!-- Node10&#45;&gt;Node7 -->
<g id="edge10" class="edge">
<title>Node10&#45;&gt;Node7</title>
<path fill="none" stroke="#63b8ff" d="M279.95,-85.96C299.8,-81.22 324.4,-75.34 347.43,-69.84"/>
<polygon fill="#63b8ff" stroke="#63b8ff" points="348.27,-73.23 357.18,-67.51 346.64,-66.43 348.27,-73.23"/>
</g>
<!-- Node10&#45;&gt;Node8 -->
<g id="edge11" class="edge">
<title>Node10&#45;&gt;Node8</title>
<path fill="none" stroke="#63b8ff" d="M301.19,-95.5C314.72,-95.5 329.23,-95.5 343.29,-95.5"/>
<polygon fill="#63b8ff" stroke="#63b8ff" points="343.43,-99 353.43,-95.5 343.43,-92 343.43,-99"/>
</g>
</g>
</svg>
