<?xml version="1.0" encoding="UTF-8" standalone="no"?>
<!DOCTYPE svg PUBLIC "-//W3C//DTD SVG 1.1//EN"
 "http://www.w3.org/Graphics/SVG/1.1/DTD/svg11.dtd">
<!-- Generated by graphviz version 11.0.0 (20240428.1522)
 -->
<!-- Title: Nuki::NukiBle::verifySecurityPin Pages: 1 -->
<svg width="725pt" height="163pt"
 viewBox="0.00 0.00 725.25 162.88" xmlns="http://www.w3.org/2000/svg" xmlns:xlink="http://www.w3.org/1999/xlink">
<g id="graph0" class="graph" transform="scale(1 1) rotate(0) translate(4 158.88)">
<title>Nuki::NukiBle::verifySecurityPin</title>
<!-- Node1 -->
<g id="Node000001" class="node">
<title>Node1</title>
<g id="a_Node000001"><a xlink:title="Send the verify pincode command via BLE to the lock. This command uses the earlier by saveSecurityPin...">
<polygon fill="#999999" stroke="#666666" points="152.5,-78.25 0,-78.25 0,-59 152.5,-59 152.5,-78.25"/>
<text text-anchor="middle" x="76.25" y="-64.75" font-family="Helvetica,sans-Serif" font-size="10.00">Nuki::NukiBle::verifySecurityPin</text>
</a>
</g>
</g>
<!-- Node2 -->
<g id="Node000002" class="node">
<title>Node2</title>
<g id="a_Node000002"><a xlink:href="class_nuki_1_1_nuki_ble.html#af1f1e299e8d97e053bba80e92ba285d6" target="_top" xlink:title=" ">
<polygon fill="white" stroke="#666666" points="329.75,-78.25 188.5,-78.25 188.5,-59 329.75,-59 329.75,-78.25"/>
<text text-anchor="middle" x="259.12" y="-64.75" font-family="Helvetica,sans-Serif" font-size="10.00">Nuki::NukiBle::executeAction</text>
</a>
</g>
</g>
<!-- Node1&#45;&gt;Node2 -->
<g id="edge1_Node000001_Node000002" class="edge">
<title>Node1&#45;&gt;Node2</title>
<g id="a_edge1_Node000001_Node000002"><a xlink:title=" ">
<path fill="none" stroke="#63b8ff" d="M152.91,-68.62C160.87,-68.62 168.99,-68.62 177.01,-68.62"/>
<polygon fill="#63b8ff" stroke="#63b8ff" points="176.74,-72.13 186.74,-68.63 176.74,-65.13 176.74,-72.13"/>
</a>
</g>
</g>
<!-- Node3 -->
<g id="Node000003" class="node">
<title>Node3</title>
<g id="a_Node000003"><a xlink:href="class_nuki_1_1_nuki_ble.html#ada0f3beebd95d35c122e25dd3f9eb886" target="_top" xlink:title=" ">
<polygon fill="white" stroke="#666666" points="513.75,-154.88 376.25,-154.88 376.25,-124.38 513.75,-124.38 513.75,-154.88"/>
<text text-anchor="start" x="384.25" y="-141.38" font-family="Helvetica,sans-Serif" font-size="10.00">Nuki::NukiBle::cmdChallAcc</text>
<text text-anchor="middle" x="445" y="-130.12" font-family="Helvetica,sans-Serif" font-size="10.00">StateMachine</text>
</a>
</g>
</g>
<!-- Node2&#45;&gt;Node3 -->
<g id="edge2_Node000002_Node000003" class="edge">
<title>Node2&#45;&gt;Node3</title>
<g id="a_edge2_Node000002_Node000003"><a xlink:title=" ">
<path fill="none" stroke="#63b8ff" d="M281.31,-78.61C302.45,-88.39 335.99,-103.42 365.75,-114.62 370.96,-116.58 376.39,-118.53 381.87,-120.41"/>
<polygon fill="#63b8ff" stroke="#63b8ff" points="380.36,-123.6 390.96,-123.47 382.6,-116.97 380.36,-123.6"/>
</a>
</g>
</g>
<!-- Node4 -->
<g id="Node000004" class="node">
<title>Node4</title>
<g id="a_Node000004"><a xlink:href="class_nuki_1_1_nuki_ble.html#a59169a9f492793762e3c6ba39b611b07" target="_top" xlink:title=" ">
<polygon fill="white" stroke="#666666" points="516.75,-105.88 373.25,-105.88 373.25,-75.38 516.75,-75.38 516.75,-105.88"/>
<text text-anchor="start" x="381.25" y="-92.38" font-family="Helvetica,sans-Serif" font-size="10.00">Nuki::NukiBle::cmdChallState</text>
<text text-anchor="middle" x="445" y="-81.12" font-family="Helvetica,sans-Serif" font-size="10.00">Machine</text>
</a>
</g>
</g>
<!-- Node2&#45;&gt;Node4 -->
<g id="edge3_Node000002_Node000004" class="edge">
<title>Node2&#45;&gt;Node4</title>
<g id="a_edge3_Node000002_Node000004"><a xlink:title=" ">
<path fill="none" stroke="#63b8ff" d="M330.16,-77.01C340.45,-78.24 351.12,-79.51 361.63,-80.77"/>
<polygon fill="#63b8ff" stroke="#63b8ff" points="361.09,-84.23 371.43,-81.94 361.92,-77.28 361.09,-84.23"/>
</a>
</g>
</g>
<!-- Node5 -->
<g id="Node000005" class="node">
<title>Node5</title>
<g id="a_Node000005"><a xlink:href="class_nuki_1_1_nuki_ble.html#a6e8fca90c04249660dce6cb993eb4495" target="_top" xlink:title=" ">
<polygon fill="white" stroke="#666666" points="717.25,-62.88 560.25,-62.88 560.25,-32.38 717.25,-32.38 717.25,-62.88"/>
<text text-anchor="start" x="568.25" y="-49.38" font-family="Helvetica,sans-Serif" font-size="10.00">Nuki::NukiBle::extendDisconnect</text>
<text text-anchor="middle" x="638.75" y="-38.12" font-family="Helvetica,sans-Serif" font-size="10.00">Timeout</text>
</a>
</g>
</g>
<!-- Node2&#45;&gt;Node5 -->
<g id="edge7_Node000002_Node000005" class="edge">
<title>Node2&#45;&gt;Node5</title>
<g id="a_edge7_Node000002_Node000005"><a xlink:title=" ">
<path fill="none" stroke="#63b8ff" d="M329.83,-64.75C391.47,-61.32 481.75,-56.3 548.63,-52.58"/>
<polygon fill="#63b8ff" stroke="#63b8ff" points="548.69,-56.08 558.48,-52.03 548.3,-49.09 548.69,-56.08"/>
</a>
</g>
</g>
<!-- Node6 -->
<g id="Node000006" class="node">
<title>Node6</title>
<g id="a_Node000006"><a xlink:href="class_nuki_1_1_nuki_ble.html#ad135bb1455665decfddff67772c1d411" target="_top" xlink:title=" ">
<polygon fill="white" stroke="#666666" points="524.25,-19.25 365.75,-19.25 365.75,0 524.25,0 524.25,-19.25"/>
<text text-anchor="middle" x="445" y="-5.75" font-family="Helvetica,sans-Serif" font-size="10.00">Nuki::NukiBle::cmdStateMachine</text>
</a>
</g>
</g>
<!-- Node2&#45;&gt;Node6 -->
<g id="edge5_Node000002_Node000006" class="edge">
<title>Node2&#45;&gt;Node6</title>
<g id="a_edge5_Node000002_Node000006"><a xlink:title=" ">
<path fill="none" stroke="#63b8ff" d="M289.66,-58.64C310.81,-51.54 339.98,-41.84 365.75,-33.62 376.72,-30.13 388.58,-26.44 399.67,-23.03"/>
<polygon fill="#63b8ff" stroke="#63b8ff" points="400.45,-26.45 408.99,-20.18 398.41,-19.76 400.45,-26.45"/>
</a>
</g>
</g>
<!-- Node4&#45;&gt;Node5 -->
<g id="edge4_Node000004_Node000005" class="edge">
<title>Node4&#45;&gt;Node5</title>
<g id="a_edge4_Node000004_Node000005"><a xlink:title=" ">
<path fill="none" stroke="#63b8ff" d="M516.04,-74.92C529.16,-71.98 542.98,-68.88 556.41,-65.86"/>
<polygon fill="#63b8ff" stroke="#63b8ff" points="557.11,-69.3 566.1,-63.69 555.58,-62.47 557.11,-69.3"/>
</a>
</g>
</g>
<!-- Node6&#45;&gt;Node5 -->
<g id="edge6_Node000006_Node000005" class="edge">
<title>Node6&#45;&gt;Node5</title>
<g id="a_edge6_Node000006_Node000005"><a xlink:title=" ">
<path fill="none" stroke="#63b8ff" d="M496.88,-19.71C512.79,-22.86 530.84,-26.44 548.59,-29.96"/>
<polygon fill="#63b8ff" stroke="#63b8ff" points="547.9,-33.39 558.39,-31.9 549.26,-26.52 547.9,-33.39"/>
</a>
</g>
</g>
</g>
</svg>
