<?xml version="1.0" encoding="UTF-8" standalone="no"?>
<!DOCTYPE svg PUBLIC "-//W3C//DTD SVG 1.1//EN"
 "http://www.w3.org/Graphics/SVG/1.1/DTD/svg11.dtd">
<!-- Generated by graphviz version 5.0.1 (20220820.1526)
 -->
<!-- Title: Nuki::NukiBle::retrieveKeypadEntries Pages: 1 -->
<svg width="619pt" height="186pt"
 viewBox="0.00 0.00 619.00 186.00" xmlns="http://www.w3.org/2000/svg" xmlns:xlink="http://www.w3.org/1999/xlink">
<g id="graph0" class="graph" transform="scale(1 1) rotate(0) translate(4 182)">
<title>Nuki::NukiBle::retrieveKeypadEntries</title>
<!-- Node1 -->
<g id="node1" class="node">
<title>Node1</title>
<g id="a_node1"><a xlink:title="Request the lock via BLE to send the existing keypad entries.">
<polygon fill="#999999" stroke="#666666" points="176,-80 0,-80 0,-46 176,-46 176,-80"/>
<text text-anchor="start" x="8" y="-66.4" font-family="Helvetica,sans-Serif" font-size="12.00">Nuki::NukiBle::retrieveKeypad</text>
<text text-anchor="middle" x="88" y="-53.4" font-family="Helvetica,sans-Serif" font-size="12.00">Entries</text>
</a>
</g>
</g>
<!-- Node2 -->
<g id="node2" class="node">
<title>Node2</title>
<g id="a_node2"><a xlink:href="class_nuki_1_1_nuki_ble.html#af1f1e299e8d97e053bba80e92ba285d6" target="_top" xlink:title=" ">
<polygon fill="white" stroke="#666666" points="383,-96.5 212,-96.5 212,-75.5 383,-75.5 383,-96.5"/>
<text text-anchor="middle" x="297.5" y="-82.9" font-family="Helvetica,sans-Serif" font-size="12.00">Nuki::NukiBle::executeAction</text>
</a>
</g>
</g>
<!-- Node1&#45;&gt;Node2 -->
<g id="edge1" class="edge">
<title>Node1&#45;&gt;Node2</title>
<path fill="none" stroke="#63b8ff" d="M176.1,-72.65C184.63,-73.6 193.31,-74.56 201.91,-75.52"/>
<polygon fill="#63b8ff" stroke="#63b8ff" points="201.63,-79.01 211.95,-76.63 202.4,-72.05 201.63,-79.01"/>
</g>
<!-- Node7 -->
<g id="node7" class="node">
<title>Node7</title>
<g id="a_node7"><a xlink:href="class_nuki_1_1_nuki_ble.html#ad94d354153b8b4f779f7a7a32258ff48" target="_top" xlink:title="Returns the keypad entry count. Only available after executing retreiveKeypadEntries.">
<polygon fill="white" stroke="#666666" points="374,-57 221,-57 221,-23 374,-23 374,-57"/>
<text text-anchor="start" x="229" y="-43.4" font-family="Helvetica,sans-Serif" font-size="12.00">Nuki::NukiBle::getKeypad</text>
<text text-anchor="middle" x="297.5" y="-30.4" font-family="Helvetica,sans-Serif" font-size="12.00">EntryCount</text>
</a>
</g>
</g>
<!-- Node1&#45;&gt;Node7 -->
<g id="edge6" class="edge">
<title>Node1&#45;&gt;Node7</title>
<path fill="none" stroke="#63b8ff" d="M176.1,-53.35C187.59,-52.07 199.37,-50.77 210.84,-49.5"/>
<polygon fill="#63b8ff" stroke="#63b8ff" points="211.27,-52.97 220.82,-48.39 210.5,-46.01 211.27,-52.97"/>
</g>
<!-- Node3 -->
<g id="node3" class="node">
<title>Node3</title>
<g id="a_node3"><a xlink:href="class_nuki_1_1_nuki_ble.html#ada0f3beebd95d35c122e25dd3f9eb886" target="_top" xlink:title=" ">
<polygon fill="white" stroke="#666666" points="597,-178 433,-178 433,-144 597,-144 597,-178"/>
<text text-anchor="start" x="441" y="-164.4" font-family="Helvetica,sans-Serif" font-size="12.00">Nuki::NukiBle::cmdChallAcc</text>
<text text-anchor="middle" x="515" y="-151.4" font-family="Helvetica,sans-Serif" font-size="12.00">StateMachine</text>
</a>
</g>
</g>
<!-- Node2&#45;&gt;Node3 -->
<g id="edge2" class="edge">
<title>Node2&#45;&gt;Node3</title>
<path fill="none" stroke="#63b8ff" d="M322.19,-96.61C346.26,-107.16 384.78,-123.4 419,-135 425.06,-137.05 431.37,-139.06 437.74,-140.99"/>
<polygon fill="#63b8ff" stroke="#63b8ff" points="437.18,-144.48 447.77,-143.96 439.17,-137.77 437.18,-144.48"/>
</g>
<!-- Node4 -->
<g id="node4" class="node">
<title>Node4</title>
<g id="a_node4"><a xlink:href="class_nuki_1_1_nuki_ble.html#a59169a9f492793762e3c6ba39b611b07" target="_top" xlink:title=" ">
<polygon fill="white" stroke="#666666" points="601,-126 429,-126 429,-92 601,-92 601,-126"/>
<text text-anchor="start" x="437" y="-112.4" font-family="Helvetica,sans-Serif" font-size="12.00">Nuki::NukiBle::cmdChallState</text>
<text text-anchor="middle" x="515" y="-99.4" font-family="Helvetica,sans-Serif" font-size="12.00">Machine</text>
</a>
</g>
</g>
<!-- Node2&#45;&gt;Node4 -->
<g id="edge3" class="edge">
<title>Node2&#45;&gt;Node4</title>
<path fill="none" stroke="#63b8ff" d="M383.05,-95.02C394.84,-96.28 407.03,-97.58 418.99,-98.86"/>
<polygon fill="#63b8ff" stroke="#63b8ff" points="418.67,-102.35 428.98,-99.93 419.41,-95.38 418.67,-102.35"/>
</g>
<!-- Node5 -->
<g id="node5" class="node">
<title>Node5</title>
<g id="a_node5"><a xlink:href="class_nuki_1_1_nuki_ble.html#ad135bb1455665decfddff67772c1d411" target="_top" xlink:title=" ">
<polygon fill="white" stroke="#666666" points="611,-73.5 419,-73.5 419,-52.5 611,-52.5 611,-73.5"/>
<text text-anchor="middle" x="515" y="-59.9" font-family="Helvetica,sans-Serif" font-size="12.00">Nuki::NukiBle::cmdStateMachine</text>
</a>
</g>
</g>
<!-- Node2&#45;&gt;Node5 -->
<g id="edge4" class="edge">
<title>Node2&#45;&gt;Node5</title>
<path fill="none" stroke="#63b8ff" d="M383.05,-76.98C391.53,-76.07 400.2,-75.15 408.86,-74.22"/>
<polygon fill="#63b8ff" stroke="#63b8ff" points="409.42,-77.68 418.99,-73.14 408.68,-70.72 409.42,-77.68"/>
</g>
<!-- Node6 -->
<g id="node6" class="node">
<title>Node6</title>
<g id="a_node6"><a xlink:href="class_nuki_1_1_nuki_ble.html#aed01f10d1ffa769f0f6fadc0d06d328e" target="_top" xlink:title=" ">
<polygon fill="white" stroke="#666666" points="607.5,-34 422.5,-34 422.5,0 607.5,0 607.5,-34"/>
<text text-anchor="start" x="430.5" y="-20.4" font-family="Helvetica,sans-Serif" font-size="12.00">Nuki::NukiBle::extendDisonnect</text>
<text text-anchor="middle" x="515" y="-7.4" font-family="Helvetica,sans-Serif" font-size="12.00">Timeout</text>
</a>
</g>
</g>
<!-- Node2&#45;&gt;Node6 -->
<g id="edge5" class="edge">
<title>Node2&#45;&gt;Node6</title>
<path fill="none" stroke="#63b8ff" d="M354.29,-75.44C364.03,-72.85 373.94,-69.73 383,-66 400.34,-58.86 401.82,-51.52 419,-44 424.38,-41.64 430.03,-39.43 435.77,-37.37"/>
<polygon fill="#63b8ff" stroke="#63b8ff" points="437.16,-40.6 445.49,-34.05 434.89,-33.97 437.16,-40.6"/>
</g>
</g>
</svg>
