<?xml version="1.0" encoding="UTF-8" standalone="no"?>
<!DOCTYPE svg PUBLIC "-//W3C//DTD SVG 1.1//EN"
 "http://www.w3.org/Graphics/SVG/1.1/DTD/svg11.dtd">
<!-- Generated by graphviz version 11.0.0 (20240428.1522)
 -->
<!-- Title: Nuki::NukiBle::deleteKeypadEntry Pages: 1 -->
<svg width="711pt" height="163pt"
 viewBox="0.00 0.00 711.00 162.88" xmlns="http://www.w3.org/2000/svg" xmlns:xlink="http://www.w3.org/1999/xlink">
<g id="graph0" class="graph" transform="scale(1 1) rotate(0) translate(4 158.88)">
<title>Nuki::NukiBle::deleteKeypadEntry</title>
<!-- Node1 -->
<g id="Node000001" class="node">
<title>Node1</title>
<g id="a_Node000001"><a xlink:title="Delete a Keypad Entry.">
<polygon fill="#999999" stroke="#666666" points="138.25,-83.88 0,-83.88 0,-53.38 138.25,-53.38 138.25,-83.88"/>
<text text-anchor="start" x="8" y="-70.38" font-family="Helvetica,sans-Serif" font-size="10.00">Nuki::NukiBle::deleteKeypad</text>
<text text-anchor="middle" x="69.12" y="-59.12" font-family="Helvetica,sans-Serif" font-size="10.00">Entry</text>
</a>
</g>
</g>
<!-- Node2 -->
<g id="Node000002" class="node">
<title>Node2</title>
<g id="a_Node000002"><a xlink:href="class_nuki_1_1_nuki_ble.html#af1f1e299e8d97e053bba80e92ba285d6" target="_top" xlink:title=" ">
<polygon fill="white" stroke="#666666" points="315.5,-78.25 174.25,-78.25 174.25,-59 315.5,-59 315.5,-78.25"/>
<text text-anchor="middle" x="244.88" y="-64.75" font-family="Helvetica,sans-Serif" font-size="10.00">Nuki::NukiBle::executeAction</text>
</a>
</g>
</g>
<!-- Node1&#45;&gt;Node2 -->
<g id="edge1_Node000001_Node000002" class="edge">
<title>Node1&#45;&gt;Node2</title>
<g id="a_edge1_Node000001_Node000002"><a xlink:title=" ">
<path fill="none" stroke="#63b8ff" d="M138.3,-68.62C146.25,-68.62 154.41,-68.62 162.52,-68.62"/>
<polygon fill="#63b8ff" stroke="#63b8ff" points="162.39,-72.13 172.39,-68.63 162.39,-65.13 162.39,-72.13"/>
</a>
</g>
</g>
<!-- Node3 -->
<g id="Node000003" class="node">
<title>Node3</title>
<g id="a_Node000003"><a xlink:href="class_nuki_1_1_nuki_ble.html#ada0f3beebd95d35c122e25dd3f9eb886" target="_top" xlink:title=" ">
<polygon fill="white" stroke="#666666" points="499.5,-154.88 362,-154.88 362,-124.38 499.5,-124.38 499.5,-154.88"/>
<text text-anchor="start" x="370" y="-141.38" font-family="Helvetica,sans-Serif" font-size="10.00">Nuki::NukiBle::cmdChallAcc</text>
<text text-anchor="middle" x="430.75" y="-130.12" font-family="Helvetica,sans-Serif" font-size="10.00">StateMachine</text>
</a>
</g>
</g>
<!-- Node2&#45;&gt;Node3 -->
<g id="edge2_Node000002_Node000003" class="edge">
<title>Node2&#45;&gt;Node3</title>
<g id="a_edge2_Node000002_Node000003"><a xlink:title=" ">
<path fill="none" stroke="#63b8ff" d="M267.06,-78.61C288.2,-88.39 321.74,-103.42 351.5,-114.62 356.71,-116.58 362.14,-118.53 367.62,-120.41"/>
<polygon fill="#63b8ff" stroke="#63b8ff" points="366.11,-123.6 376.71,-123.47 368.35,-116.97 366.11,-123.6"/>
</a>
</g>
</g>
<!-- Node4 -->
<g id="Node000004" class="node">
<title>Node4</title>
<g id="a_Node000004"><a xlink:href="class_nuki_1_1_nuki_ble.html#a59169a9f492793762e3c6ba39b611b07" target="_top" xlink:title=" ">
<polygon fill="white" stroke="#666666" points="502.5,-105.88 359,-105.88 359,-75.38 502.5,-75.38 502.5,-105.88"/>
<text text-anchor="start" x="367" y="-92.38" font-family="Helvetica,sans-Serif" font-size="10.00">Nuki::NukiBle::cmdChallState</text>
<text text-anchor="middle" x="430.75" y="-81.12" font-family="Helvetica,sans-Serif" font-size="10.00">Machine</text>
</a>
</g>
</g>
<!-- Node2&#45;&gt;Node4 -->
<g id="edge3_Node000002_Node000004" class="edge">
<title>Node2&#45;&gt;Node4</title>
<g id="a_edge3_Node000002_Node000004"><a xlink:title=" ">
<path fill="none" stroke="#63b8ff" d="M315.91,-77.01C326.2,-78.24 336.87,-79.51 347.38,-80.77"/>
<polygon fill="#63b8ff" stroke="#63b8ff" points="346.84,-84.23 357.18,-81.94 347.67,-77.28 346.84,-84.23"/>
</a>
</g>
</g>
<!-- Node5 -->
<g id="Node000005" class="node">
<title>Node5</title>
<g id="a_Node000005"><a xlink:href="class_nuki_1_1_nuki_ble.html#a6e8fca90c04249660dce6cb993eb4495" target="_top" xlink:title=" ">
<polygon fill="white" stroke="#666666" points="703,-62.88 546,-62.88 546,-32.38 703,-32.38 703,-62.88"/>
<text text-anchor="start" x="554" y="-49.38" font-family="Helvetica,sans-Serif" font-size="10.00">Nuki::NukiBle::extendDisconnect</text>
<text text-anchor="middle" x="624.5" y="-38.12" font-family="Helvetica,sans-Serif" font-size="10.00">Timeout</text>
</a>
</g>
</g>
<!-- Node2&#45;&gt;Node5 -->
<g id="edge7_Node000002_Node000005" class="edge">
<title>Node2&#45;&gt;Node5</title>
<g id="a_edge7_Node000002_Node000005"><a xlink:title=" ">
<path fill="none" stroke="#63b8ff" d="M315.58,-64.75C377.22,-61.32 467.5,-56.3 534.38,-52.58"/>
<polygon fill="#63b8ff" stroke="#63b8ff" points="534.44,-56.08 544.23,-52.03 534.05,-49.09 534.44,-56.08"/>
</a>
</g>
</g>
<!-- Node6 -->
<g id="Node000006" class="node">
<title>Node6</title>
<g id="a_Node000006"><a xlink:href="class_nuki_1_1_nuki_ble.html#ad135bb1455665decfddff67772c1d411" target="_top" xlink:title=" ">
<polygon fill="white" stroke="#666666" points="510,-19.25 351.5,-19.25 351.5,0 510,0 510,-19.25"/>
<text text-anchor="middle" x="430.75" y="-5.75" font-family="Helvetica,sans-Serif" font-size="10.00">Nuki::NukiBle::cmdStateMachine</text>
</a>
</g>
</g>
<!-- Node2&#45;&gt;Node6 -->
<g id="edge5_Node000002_Node000006" class="edge">
<title>Node2&#45;&gt;Node6</title>
<g id="a_edge5_Node000002_Node000006"><a xlink:title=" ">
<path fill="none" stroke="#63b8ff" d="M275.41,-58.64C296.56,-51.54 325.73,-41.84 351.5,-33.62 362.47,-30.13 374.33,-26.44 385.42,-23.03"/>
<polygon fill="#63b8ff" stroke="#63b8ff" points="386.2,-26.45 394.74,-20.18 384.16,-19.76 386.2,-26.45"/>
</a>
</g>
</g>
<!-- Node4&#45;&gt;Node5 -->
<g id="edge4_Node000004_Node000005" class="edge">
<title>Node4&#45;&gt;Node5</title>
<g id="a_edge4_Node000004_Node000005"><a xlink:title=" ">
<path fill="none" stroke="#63b8ff" d="M501.79,-74.92C514.91,-71.98 528.73,-68.88 542.16,-65.86"/>
<polygon fill="#63b8ff" stroke="#63b8ff" points="542.86,-69.3 551.85,-63.69 541.33,-62.47 542.86,-69.3"/>
</a>
</g>
</g>
<!-- Node6&#45;&gt;Node5 -->
<g id="edge6_Node000006_Node000005" class="edge">
<title>Node6&#45;&gt;Node5</title>
<g id="a_edge6_Node000006_Node000005"><a xlink:title=" ">
<path fill="none" stroke="#63b8ff" d="M482.63,-19.71C498.54,-22.86 516.59,-26.44 534.34,-29.96"/>
<polygon fill="#63b8ff" stroke="#63b8ff" points="533.65,-33.39 544.14,-31.9 535.01,-26.52 533.65,-33.39"/>
</a>
</g>
</g>
</g>
</svg>
