<?xml version="1.0" encoding="UTF-8" standalone="no"?>
<!DOCTYPE svg PUBLIC "-//W3C//DTD SVG 1.1//EN"
 "http://www.w3.org/Graphics/SVG/1.1/DTD/svg11.dtd">
<!-- Generated by graphviz version 12.2.1 (20241206.2353)
 -->
<!-- Title: Nuki::NukiBle::updateAuthorizationEntry Pages: 1 -->
<svg width="765pt" height="346pt"
 viewBox="0.00 0.00 765.00 345.90" xmlns="http://www.w3.org/2000/svg" xmlns:xlink="http://www.w3.org/1999/xlink">
<g id="graph0" class="graph" transform="scale(1 1) rotate(0) translate(4 341.9)">
<title>Nuki::NukiBle::updateAuthorizationEntry</title>
<!-- Node1 -->
<g id="Node000001" class="node">
<title>Node1</title>
<g id="a_Node000001"><a xlink:title="Sends an updated authorization entry to the lock via BLE.">
<polygon fill="#999999" stroke="#666666" points="165.25,-88.88 0,-88.88 0,-58.38 165.25,-58.38 165.25,-88.88"/>
<text text-anchor="start" x="8" y="-75.38" font-family="Helvetica,sans-Serif" font-size="10.00">Nuki::NukiBle::updateAuthorization</text>
<text text-anchor="middle" x="82.62" y="-64.12" font-family="Helvetica,sans-Serif" font-size="10.00">Entry</text>
</a>
</g>
</g>
<!-- Node2 -->
<g id="Node000002" class="node">
<title>Node2</title>
<g id="a_Node000002"><a xlink:href="class_nuki_1_1_nuki_ble.html#af1f1e299e8d97e053bba80e92ba285d6" target="_top" xlink:title=" ">
<polygon fill="white" stroke="#666666" points="356,-229.25 214.75,-229.25 214.75,-210 356,-210 356,-229.25"/>
<text text-anchor="middle" x="285.38" y="-215.75" font-family="Helvetica,sans-Serif" font-size="10.00">Nuki::NukiBle::executeAction</text>
</a>
</g>
</g>
<!-- Node1&#45;&gt;Node2 -->
<g id="edge1_Node000001_Node000002" class="edge">
<title>Node1&#45;&gt;Node2</title>
<g id="a_edge1_Node000001_Node000002"><a xlink:title=" ">
<path fill="none" stroke="#63b8ff" d="M105.11,-89.25C143.26,-116.99 222.48,-174.61 261.56,-203.03"/>
<polygon fill="#63b8ff" stroke="#63b8ff" points="259.43,-205.81 269.58,-208.86 263.55,-200.15 259.43,-205.81"/>
</a>
</g>
</g>
<!-- Node6 -->
<g id="Node000006" class="node">
<title>Node6</title>
<g id="a_Node000006"><a xlink:href="class_nuki_1_1_nuki_ble.html#af3650133f46aeca48a5f01b95d23ab71" target="_top" xlink:title=" ">
<polygon fill="white" stroke="#666666" points="752.12,-186.25 604.88,-186.25 604.88,-167 752.12,-167 752.12,-186.25"/>
<text text-anchor="middle" x="678.5" y="-172.75" font-family="Helvetica,sans-Serif" font-size="10.00">Nuki::NukiBle::logMessageVar</text>
</a>
</g>
</g>
<!-- Node1&#45;&gt;Node6 -->
<g id="edge17_Node000001_Node000006" class="edge">
<title>Node1&#45;&gt;Node6</title>
<g id="a_edge17_Node000001_Node000006"><a xlink:title=" ">
<path fill="none" stroke="#63b8ff" d="M165.6,-80.39C261.87,-89.37 425.96,-107.91 564,-139.62 590.09,-145.62 618.75,-154.99 640.74,-162.79"/>
<polygon fill="#63b8ff" stroke="#63b8ff" points="639.26,-165.98 649.85,-166.08 641.63,-159.39 639.26,-165.98"/>
</a>
</g>
</g>
<!-- Node9 -->
<g id="Node000009" class="node">
<title>Node9</title>
<g id="a_Node000009"><a xlink:href="namespace_nuki_lock.html#a2ebb97ddf9c98aa499df020dc8c96e27" target="_top" xlink:title=" ">
<polygon fill="white" stroke="#666666" points="369.5,-67.88 201.25,-67.88 201.25,-37.38 369.5,-37.38 369.5,-67.88"/>
<text text-anchor="start" x="209.25" y="-54.38" font-family="Helvetica,sans-Serif" font-size="10.00">NukiLock::logUpdatedAuthorization</text>
<text text-anchor="middle" x="285.38" y="-43.12" font-family="Helvetica,sans-Serif" font-size="10.00">Entry</text>
</a>
</g>
</g>
<!-- Node1&#45;&gt;Node9 -->
<g id="edge18_Node000001_Node000009" class="edge">
<title>Node1&#45;&gt;Node9</title>
<g id="a_edge18_Node000001_Node000009"><a xlink:title=" ">
<path fill="none" stroke="#63b8ff" d="M165.57,-65.05C173.53,-64.22 181.64,-63.37 189.71,-62.53"/>
<polygon fill="#63b8ff" stroke="#63b8ff" points="189.98,-66.02 199.56,-61.5 189.25,-59.06 189.98,-66.02"/>
</a>
</g>
</g>
<!-- Node11 -->
<g id="Node000011" class="node">
<title>Node11</title>
<g id="a_Node000011"><a xlink:href="namespace_nuki.html#a438fdfcef9f81eb0a3e493631b71ca5b" target="_top" xlink:title=" ">
<polygon fill="white" stroke="#666666" points="327.88,-19.25 242.88,-19.25 242.88,0 327.88,0 327.88,-19.25"/>
<text text-anchor="middle" x="285.38" y="-5.75" font-family="Helvetica,sans-Serif" font-size="10.00">Nuki::printBuffer</text>
</a>
</g>
</g>
<!-- Node1&#45;&gt;Node11 -->
<g id="edge20_Node000001_Node000011" class="edge">
<title>Node1&#45;&gt;Node11</title>
<g id="a_edge20_Node000001_Node000011"><a xlink:title=" ">
<path fill="none" stroke="#63b8ff" d="M120.51,-57.98C143.46,-48.63 173.74,-36.99 201.25,-28.62 210.92,-25.69 221.35,-22.96 231.44,-20.55"/>
<polygon fill="#63b8ff" stroke="#63b8ff" points="232.21,-23.96 241.16,-18.3 230.63,-17.14 232.21,-23.96"/>
</a>
</g>
</g>
<!-- Node3 -->
<g id="Node000003" class="node">
<title>Node3</title>
<g id="a_Node000003"><a xlink:href="class_nuki_1_1_nuki_ble.html#ada0f3beebd95d35c122e25dd3f9eb886" target="_top" xlink:title=" ">
<polygon fill="white" stroke="#666666" points="553.5,-191.88 416,-191.88 416,-161.38 553.5,-161.38 553.5,-191.88"/>
<text text-anchor="start" x="424" y="-178.38" font-family="Helvetica,sans-Serif" font-size="10.00">Nuki::NukiBle::cmdChallAcc</text>
<text text-anchor="middle" x="484.75" y="-167.12" font-family="Helvetica,sans-Serif" font-size="10.00">StateMachine</text>
</a>
</g>
</g>
<!-- Node2&#45;&gt;Node3 -->
<g id="edge2_Node000002_Node000003" class="edge">
<title>Node2&#45;&gt;Node3</title>
<g id="a_edge2_Node000002_Node000003"><a xlink:title=" ">
<path fill="none" stroke="#63b8ff" d="M332.65,-209.54C354.09,-204.87 380.18,-199.19 404.61,-193.87"/>
<polygon fill="#63b8ff" stroke="#63b8ff" points="405.19,-197.32 414.22,-191.77 403.7,-190.48 405.19,-197.32"/>
</a>
</g>
</g>
<!-- Node4 -->
<g id="Node000004" class="node">
<title>Node4</title>
<g id="a_Node000004"><a xlink:href="class_nuki_1_1_nuki_ble.html#a6e8fca90c04249660dce6cb993eb4495" target="_top" xlink:title=" ">
<polygon fill="white" stroke="#666666" points="757,-243.88 600,-243.88 600,-213.38 757,-213.38 757,-243.88"/>
<text text-anchor="start" x="608" y="-230.38" font-family="Helvetica,sans-Serif" font-size="10.00">Nuki::NukiBle::extendDisconnect</text>
<text text-anchor="middle" x="678.5" y="-219.12" font-family="Helvetica,sans-Serif" font-size="10.00">Timeout</text>
</a>
</g>
</g>
<!-- Node2&#45;&gt;Node4 -->
<g id="edge14_Node000002_Node000004" class="edge">
<title>Node2&#45;&gt;Node4</title>
<g id="a_edge14_Node000002_Node000004"><a xlink:title=" ">
<path fill="none" stroke="#63b8ff" d="M338.35,-229.74C359.14,-233.31 383.37,-236.87 405.5,-238.62 475.72,-244.19 493.62,-241.72 564,-238.62 571.95,-238.28 580.2,-237.79 588.46,-237.22"/>
<polygon fill="#63b8ff" stroke="#63b8ff" points="588.49,-240.73 598.21,-236.5 587.98,-233.74 588.49,-240.73"/>
</a>
</g>
</g>
<!-- Node5 -->
<g id="Node000005" class="node">
<title>Node5</title>
<g id="a_Node000005"><a xlink:href="class_nuki_1_1_nuki_ble.html#ac7ce691d9c3e586474655d1663eb2e20" target="_top" xlink:title=" ">
<polygon fill="white" stroke="#666666" points="744.62,-300.25 612.38,-300.25 612.38,-281 744.62,-281 744.62,-300.25"/>
<text text-anchor="middle" x="678.5" y="-286.75" font-family="Helvetica,sans-Serif" font-size="10.00">Nuki::NukiBle::logMessage</text>
</a>
</g>
</g>
<!-- Node2&#45;&gt;Node5 -->
<g id="edge15_Node000002_Node000005" class="edge">
<title>Node2&#45;&gt;Node5</title>
<g id="a_edge15_Node000002_Node000005"><a xlink:title=" ">
<path fill="none" stroke="#63b8ff" d="M293.58,-229.7C310.23,-252.01 353.92,-305.14 405.5,-324.62 487.17,-355.48 591.47,-324.65 644.02,-304.7"/>
<polygon fill="#63b8ff" stroke="#63b8ff" points="644.98,-308.09 653.02,-301.19 642.43,-301.57 644.98,-308.09"/>
</a>
</g>
</g>
<!-- Node2&#45;&gt;Node6 -->
<g id="edge16_Node000002_Node000006" class="edge">
<title>Node2&#45;&gt;Node6</title>
<g id="a_edge16_Node000002_Node000006"><a xlink:title=" ">
<path fill="none" stroke="#63b8ff" d="M298.98,-209.59C319.73,-193.78 363.04,-163.75 405.5,-152.62 483.85,-132.1 578.77,-149.66 633.24,-163.61"/>
<polygon fill="#63b8ff" stroke="#63b8ff" points="632.21,-166.96 642.77,-166.13 634,-160.19 632.21,-166.96"/>
</a>
</g>
</g>
<!-- Node7 -->
<g id="Node000007" class="node">
<title>Node7</title>
<g id="a_Node000007"><a xlink:href="class_nuki_1_1_nuki_ble.html#a59169a9f492793762e3c6ba39b611b07" target="_top" xlink:title=" ">
<polygon fill="white" stroke="#666666" points="556.5,-315.88 413,-315.88 413,-285.38 556.5,-285.38 556.5,-315.88"/>
<text text-anchor="start" x="421" y="-302.38" font-family="Helvetica,sans-Serif" font-size="10.00">Nuki::NukiBle::cmdChallState</text>
<text text-anchor="middle" x="484.75" y="-291.12" font-family="Helvetica,sans-Serif" font-size="10.00">Machine</text>
</a>
</g>
</g>
<!-- Node2&#45;&gt;Node7 -->
<g id="edge6_Node000002_Node000007" class="edge">
<title>Node2&#45;&gt;Node7</title>
<g id="a_edge6_Node000002_Node000007"><a xlink:title=" ">
<path fill="none" stroke="#63b8ff" d="M308.17,-229.58C331.94,-240.34 371.18,-257.79 405.5,-271.62 413.25,-274.75 421.49,-277.94 429.59,-281.01"/>
<polygon fill="#63b8ff" stroke="#63b8ff" points="428.11,-284.19 438.71,-284.42 430.57,-277.64 428.11,-284.19"/>
</a>
</g>
</g>
<!-- Node8 -->
<g id="Node000008" class="node">
<title>Node8</title>
<g id="a_Node000008"><a xlink:href="class_nuki_1_1_nuki_ble.html#ad135bb1455665decfddff67772c1d411" target="_top" xlink:title=" ">
<polygon fill="white" stroke="#666666" points="564,-229.25 405.5,-229.25 405.5,-210 564,-210 564,-229.25"/>
<text text-anchor="middle" x="484.75" y="-215.75" font-family="Helvetica,sans-Serif" font-size="10.00">Nuki::NukiBle::cmdStateMachine</text>
</a>
</g>
</g>
<!-- Node2&#45;&gt;Node8 -->
<g id="edge10_Node000002_Node000008" class="edge">
<title>Node2&#45;&gt;Node8</title>
<g id="a_edge10_Node000002_Node000008"><a xlink:title=" ">
<path fill="none" stroke="#63b8ff" d="M356.24,-219.62C368.38,-219.62 381.16,-219.62 393.75,-219.62"/>
<polygon fill="#63b8ff" stroke="#63b8ff" points="393.72,-223.13 403.72,-219.63 393.72,-216.13 393.72,-223.13"/>
</a>
</g>
</g>
<!-- Node3&#45;&gt;Node4 -->
<g id="edge3_Node000003_Node000004" class="edge">
<title>Node3&#45;&gt;Node4</title>
<g id="a_edge3_Node000003_Node000004"><a xlink:title=" ">
<path fill="none" stroke="#63b8ff" d="M543.8,-192.37C564.26,-197.92 587.47,-204.21 608.73,-209.97"/>
<polygon fill="#63b8ff" stroke="#63b8ff" points="607.62,-213.3 618.18,-212.54 609.45,-206.54 607.62,-213.3"/>
</a>
</g>
</g>
<!-- Node3&#45;&gt;Node5 -->
<g id="edge4_Node000003_Node000005" class="edge">
<title>Node3&#45;&gt;Node5</title>
<g id="a_edge4_Node000003_Node000005"><a xlink:title=" ">
<path fill="none" stroke="#63b8ff" d="M549.86,-192.26C554.85,-194.67 559.64,-197.44 564,-200.62 586.69,-217.22 578.69,-234.29 600,-252.62 611.2,-262.27 625.28,-270.12 638.35,-276.13"/>
<polygon fill="#63b8ff" stroke="#63b8ff" points="636.59,-279.18 647.15,-279.95 639.37,-272.76 636.59,-279.18"/>
</a>
</g>
</g>
<!-- Node3&#45;&gt;Node6 -->
<g id="edge5_Node000003_Node000006" class="edge">
<title>Node3&#45;&gt;Node6</title>
<g id="a_edge5_Node000003_Node000006"><a xlink:title=" ">
<path fill="none" stroke="#63b8ff" d="M553.89,-176.62C566.55,-176.62 579.91,-176.62 592.98,-176.62"/>
<polygon fill="#63b8ff" stroke="#63b8ff" points="592.86,-180.13 602.86,-176.63 592.86,-173.13 592.86,-180.13"/>
</a>
</g>
</g>
<!-- Node7&#45;&gt;Node4 -->
<g id="edge7_Node000007_Node000004" class="edge">
<title>Node7&#45;&gt;Node4</title>
<g id="a_edge7_Node000007_Node000004"><a xlink:title=" ">
<path fill="none" stroke="#63b8ff" d="M528.41,-284.88C539.97,-280.6 552.47,-275.95 564,-271.62 584.13,-264.08 606.25,-255.72 625.57,-248.39"/>
<polygon fill="#63b8ff" stroke="#63b8ff" points="626.76,-251.68 634.87,-244.86 624.28,-245.14 626.76,-251.68"/>
</a>
</g>
</g>
<!-- Node7&#45;&gt;Node5 -->
<g id="edge8_Node000007_Node000005" class="edge">
<title>Node7&#45;&gt;Node5</title>
<g id="a_edge8_Node000007_Node000005"><a xlink:title=" ">
<path fill="none" stroke="#63b8ff" d="M556.88,-296.92C571.09,-296.17 586.08,-295.39 600.48,-294.64"/>
<polygon fill="#63b8ff" stroke="#63b8ff" points="600.56,-298.14 610.37,-294.13 600.2,-291.15 600.56,-298.14"/>
</a>
</g>
</g>
<!-- Node7&#45;&gt;Node6 -->
<g id="edge9_Node000007_Node000006" class="edge">
<title>Node7&#45;&gt;Node6</title>
<g id="a_edge9_Node000007_Node000006"><a xlink:title=" ">
<path fill="none" stroke="#63b8ff" d="M506.41,-285.04C522.42,-272.78 545,-255.07 564,-238.62 580.64,-224.22 581.26,-216.16 600,-204.62 609.04,-199.06 619.34,-194.37 629.42,-190.52"/>
<polygon fill="#63b8ff" stroke="#63b8ff" points="630.54,-193.83 638.78,-187.17 628.18,-187.24 630.54,-193.83"/>
</a>
</g>
</g>
<!-- Node8&#45;&gt;Node4 -->
<g id="edge11_Node000008_Node000004" class="edge">
<title>Node8&#45;&gt;Node4</title>
<g id="a_edge11_Node000008_Node000004"><a xlink:title=" ">
<path fill="none" stroke="#63b8ff" d="M564.3,-223.31C572.24,-223.68 580.35,-224.07 588.39,-224.44"/>
<polygon fill="#63b8ff" stroke="#63b8ff" points="588.03,-227.93 598.19,-224.9 588.36,-220.94 588.03,-227.93"/>
</a>
</g>
</g>
<!-- Node8&#45;&gt;Node5 -->
<g id="edge12_Node000008_Node000005" class="edge">
<title>Node8&#45;&gt;Node5</title>
<g id="a_edge12_Node000008_Node000005"><a xlink:title=" ">
<path fill="none" stroke="#63b8ff" d="M512.82,-229.65C545.98,-241.93 602.37,-262.81 639.78,-276.66"/>
<polygon fill="#63b8ff" stroke="#63b8ff" points="638.25,-279.82 648.84,-280.01 640.68,-273.26 638.25,-279.82"/>
</a>
</g>
</g>
<!-- Node8&#45;&gt;Node6 -->
<g id="edge13_Node000008_Node000006" class="edge">
<title>Node8&#45;&gt;Node6</title>
<g id="a_edge13_Node000008_Node000006"><a xlink:title=" ">
<path fill="none" stroke="#63b8ff" d="M530.71,-209.54C557.78,-203.47 592.47,-195.69 621.34,-189.22"/>
<polygon fill="#63b8ff" stroke="#63b8ff" points="622.02,-192.65 631.02,-187.05 620.49,-185.82 622.02,-192.65"/>
</a>
</g>
</g>
<!-- Node10 -->
<g id="Node000010" class="node">
<title>Node10</title>
<g id="a_Node000010"><a xlink:href="namespace_nuki_lock.html#af6ebff0f8c6c0cb27a927a440812c02a" target="_top" xlink:title=" ">
<polygon fill="white" stroke="#666666" points="549.75,-62.25 419.75,-62.25 419.75,-43 549.75,-43 549.75,-62.25"/>
<text text-anchor="middle" x="484.75" y="-48.75" font-family="Helvetica,sans-Serif" font-size="10.00">NukiLock::logMessageVar</text>
</a>
</g>
</g>
<!-- Node9&#45;&gt;Node10 -->
<g id="edge19_Node000009_Node000010" class="edge">
<title>Node9&#45;&gt;Node10</title>
<g id="a_edge19_Node000009_Node000010"><a xlink:title=" ">
<path fill="none" stroke="#63b8ff" d="M369.79,-52.62C382.52,-52.62 395.6,-52.62 408.14,-52.62"/>
<polygon fill="#63b8ff" stroke="#63b8ff" points="407.98,-56.13 417.98,-52.63 407.98,-49.13 407.98,-56.13"/>
</a>
</g>
</g>
</g>
</svg>
