<?xml version="1.0" encoding="UTF-8" standalone="no"?>
<!DOCTYPE svg PUBLIC "-//W3C//DTD SVG 1.1//EN"
 "http://www.w3.org/Graphics/SVG/1.1/DTD/svg11.dtd">
<!-- Generated by graphviz version 12.2.1 (20241206.2353)
 -->
<!-- Title: NukiLock::NukiLock::setName Pages: 1 -->
<svg width="828pt" height="215pt"
 viewBox="0.00 0.00 828.25 214.53" xmlns="http://www.w3.org/2000/svg" xmlns:xlink="http://www.w3.org/1999/xlink">
<g id="graph0" class="graph" transform="scale(1 1) rotate(0) translate(4 210.53)">
<title>NukiLock::NukiLock::setName</title>
<!-- Node1 -->
<g id="Node000001" class="node">
<title>Node1</title>
<g id="a_Node000001"><a xlink:title="Gets the current config from the lock, updates the name parameter and sends the new config to the loc...">
<polygon fill="#999999" stroke="#666666" points="104.5,-144.78 0,-144.78 0,-114.28 104.5,-114.28 104.5,-144.78"/>
<text text-anchor="start" x="8" y="-131.28" font-family="Helvetica,sans-Serif" font-size="10.00">NukiLock::NukiLock</text>
<text text-anchor="middle" x="52.25" y="-120.03" font-family="Helvetica,sans-Serif" font-size="10.00">::setName</text>
</a>
</g>
</g>
<!-- Node2 -->
<g id="Node000002" class="node">
<title>Node2</title>
<g id="a_Node000002"><a xlink:href="namespace_nuki_lock.html#a1c4b22e22d81b2258bb6f2ce1e1f7d6f" target="_top" xlink:title=" ">
<polygon fill="white" stroke="#666666" points="255.5,-161.16 140.5,-161.16 140.5,-141.91 255.5,-141.91 255.5,-161.16"/>
<text text-anchor="middle" x="198" y="-147.66" font-family="Helvetica,sans-Serif" font-size="10.00">NukiLock::logMessage</text>
</a>
</g>
</g>
<!-- Node1&#45;&gt;Node2 -->
<g id="edge1_Node000001_Node000002" class="edge">
<title>Node1&#45;&gt;Node2</title>
<g id="a_edge1_Node000001_Node000002"><a xlink:title=" ">
<path fill="none" stroke="#63b8ff" d="M104.74,-137.41C112.52,-138.6 120.64,-139.85 128.7,-141.08"/>
<polygon fill="#63b8ff" stroke="#63b8ff" points="128.11,-144.53 138.52,-142.58 129.17,-137.61 128.11,-144.53"/>
</a>
</g>
</g>
<!-- Node3 -->
<g id="Node000003" class="node">
<title>Node3</title>
<g id="a_Node000003"><a xlink:href="class_nuki_lock_1_1_nuki_lock.html#ada503f36c737418195f48743658ed372" target="_top" xlink:title="Requests config from Lock via BLE.">
<polygon fill="white" stroke="#666666" points="250.25,-123.78 145.75,-123.78 145.75,-93.28 250.25,-93.28 250.25,-123.78"/>
<text text-anchor="start" x="153.75" y="-110.28" font-family="Helvetica,sans-Serif" font-size="10.00">NukiLock::NukiLock</text>
<text text-anchor="middle" x="198" y="-99.03" font-family="Helvetica,sans-Serif" font-size="10.00">::requestConfig</text>
</a>
</g>
</g>
<!-- Node1&#45;&gt;Node3 -->
<g id="edge2_Node000001_Node000003" class="edge">
<title>Node1&#45;&gt;Node3</title>
<g id="a_edge2_Node000001_Node000003"><a xlink:title=" ">
<path fill="none" stroke="#63b8ff" d="M104.74,-122.01C114.24,-120.62 124.25,-119.16 134.04,-117.73"/>
<polygon fill="#63b8ff" stroke="#63b8ff" points="134.5,-121.2 143.89,-116.29 133.49,-114.27 134.5,-121.2"/>
</a>
</g>
</g>
<!-- Node4 -->
<g id="Node000004" class="node">
<title>Node4</title>
<g id="a_Node000004"><a xlink:href="class_nuki_1_1_nuki_ble.html#af1f1e299e8d97e053bba80e92ba285d6" target="_top" xlink:title=" ">
<polygon fill="white" stroke="#666666" points="432.75,-118.16 291.5,-118.16 291.5,-98.91 432.75,-98.91 432.75,-118.16"/>
<text text-anchor="middle" x="362.12" y="-104.66" font-family="Helvetica,sans-Serif" font-size="10.00">Nuki::NukiBle::executeAction</text>
</a>
</g>
</g>
<!-- Node3&#45;&gt;Node4 -->
<g id="edge3_Node000003_Node000004" class="edge">
<title>Node3&#45;&gt;Node4</title>
<g id="a_edge3_Node000003_Node000004"><a xlink:title=" ">
<path fill="none" stroke="#63b8ff" d="M250.74,-108.53C260.1,-108.53 270.06,-108.53 280.03,-108.53"/>
<polygon fill="#63b8ff" stroke="#63b8ff" points="279.73,-112.03 289.73,-108.53 279.73,-105.03 279.73,-112.03"/>
</a>
</g>
</g>
<!-- Node5 -->
<g id="Node000005" class="node">
<title>Node5</title>
<g id="a_Node000005"><a xlink:href="class_nuki_1_1_nuki_ble.html#ada0f3beebd95d35c122e25dd3f9eb886" target="_top" xlink:title=" ">
<polygon fill="white" stroke="#666666" points="616.75,-145.78 479.25,-145.78 479.25,-115.28 616.75,-115.28 616.75,-145.78"/>
<text text-anchor="start" x="487.25" y="-132.28" font-family="Helvetica,sans-Serif" font-size="10.00">Nuki::NukiBle::cmdChallAcc</text>
<text text-anchor="middle" x="548" y="-121.03" font-family="Helvetica,sans-Serif" font-size="10.00">StateMachine</text>
</a>
</g>
</g>
<!-- Node4&#45;&gt;Node5 -->
<g id="edge4_Node000004_Node000005" class="edge">
<title>Node4&#45;&gt;Node5</title>
<g id="a_edge4_Node000004_Node000005"><a xlink:title=" ">
<path fill="none" stroke="#63b8ff" d="M433.16,-116.91C444.43,-118.26 456.16,-119.66 467.63,-121.04"/>
<polygon fill="#63b8ff" stroke="#63b8ff" points="467.13,-124.5 477.47,-122.21 467.96,-117.55 467.13,-124.5"/>
</a>
</g>
</g>
<!-- Node6 -->
<g id="Node000006" class="node">
<title>Node6</title>
<g id="a_Node000006"><a xlink:href="class_nuki_1_1_nuki_ble.html#a6e8fca90c04249660dce6cb993eb4495" target="_top" xlink:title=" ">
<polygon fill="white" stroke="#666666" points="820.25,-186.78 663.25,-186.78 663.25,-156.28 820.25,-156.28 820.25,-186.78"/>
<text text-anchor="start" x="671.25" y="-173.28" font-family="Helvetica,sans-Serif" font-size="10.00">Nuki::NukiBle::extendDisconnect</text>
<text text-anchor="middle" x="741.75" y="-162.03" font-family="Helvetica,sans-Serif" font-size="10.00">Timeout</text>
</a>
</g>
</g>
<!-- Node4&#45;&gt;Node6 -->
<g id="edge17_Node000004_Node000006" class="edge">
<title>Node4&#45;&gt;Node6</title>
<g id="a_edge17_Node000004_Node000006"><a xlink:title=" ">
<path fill="none" stroke="#63b8ff" d="M371.41,-118.58C387.7,-137.45 426.06,-177.63 468.75,-192.53 538.13,-216.76 623.32,-203.9 679.68,-190.02"/>
<polygon fill="#63b8ff" stroke="#63b8ff" points="680.26,-193.48 689.08,-187.61 678.53,-186.7 680.26,-193.48"/>
</a>
</g>
</g>
<!-- Node7 -->
<g id="Node000007" class="node">
<title>Node7</title>
<g id="a_Node000007"><a xlink:href="class_nuki_1_1_nuki_ble.html#ac7ce691d9c3e586474655d1663eb2e20" target="_top" xlink:title=" ">
<polygon fill="white" stroke="#666666" points="807.88,-137.16 675.62,-137.16 675.62,-117.91 807.88,-117.91 807.88,-137.16"/>
<text text-anchor="middle" x="741.75" y="-123.66" font-family="Helvetica,sans-Serif" font-size="10.00">Nuki::NukiBle::logMessage</text>
</a>
</g>
</g>
<!-- Node4&#45;&gt;Node7 -->
<g id="edge18_Node000004_Node000007" class="edge">
<title>Node4&#45;&gt;Node7</title>
<g id="a_edge18_Node000004_Node000007"><a xlink:title=" ">
<path fill="none" stroke="#63b8ff" d="M433.01,-107.02C444.93,-106.82 457.2,-106.64 468.75,-106.53 539.19,-105.87 557.1,-100.1 627.25,-106.53 646.34,-108.28 667.01,-111.66 685.41,-115.2"/>
<polygon fill="#63b8ff" stroke="#63b8ff" points="684.57,-118.6 695.06,-117.12 685.93,-111.73 684.57,-118.6"/>
</a>
</g>
</g>
<!-- Node8 -->
<g id="Node000008" class="node">
<title>Node8</title>
<g id="a_Node000008"><a xlink:href="class_nuki_1_1_nuki_ble.html#af3650133f46aeca48a5f01b95d23ab71" target="_top" xlink:title=" ">
<polygon fill="white" stroke="#666666" points="815.38,-97.16 668.12,-97.16 668.12,-77.91 815.38,-77.91 815.38,-97.16"/>
<text text-anchor="middle" x="741.75" y="-83.66" font-family="Helvetica,sans-Serif" font-size="10.00">Nuki::NukiBle::logMessageVar</text>
</a>
</g>
</g>
<!-- Node4&#45;&gt;Node8 -->
<g id="edge19_Node000004_Node000008" class="edge">
<title>Node4&#45;&gt;Node8</title>
<g id="a_edge19_Node000004_Node000008"><a xlink:title=" ">
<path fill="none" stroke="#63b8ff" d="M370.8,-98.62C386.61,-79.14 424.99,-36.37 468.75,-20.53 534.99,3.44 563.42,9.27 627.25,-20.53 649.83,-31.08 642.5,-49.73 663.25,-63.53 669.1,-67.42 675.61,-70.71 682.3,-73.48"/>
<polygon fill="#63b8ff" stroke="#63b8ff" points="680.89,-76.69 691.49,-76.89 683.33,-70.13 680.89,-76.69"/>
</a>
</g>
</g>
<!-- Node9 -->
<g id="Node000009" class="node">
<title>Node9</title>
<g id="a_Node000009"><a xlink:href="class_nuki_1_1_nuki_ble.html#a59169a9f492793762e3c6ba39b611b07" target="_top" xlink:title=" ">
<polygon fill="white" stroke="#666666" points="619.75,-59.78 476.25,-59.78 476.25,-29.28 619.75,-29.28 619.75,-59.78"/>
<text text-anchor="start" x="484.25" y="-46.28" font-family="Helvetica,sans-Serif" font-size="10.00">Nuki::NukiBle::cmdChallState</text>
<text text-anchor="middle" x="548" y="-35.03" font-family="Helvetica,sans-Serif" font-size="10.00">Machine</text>
</a>
</g>
</g>
<!-- Node4&#45;&gt;Node9 -->
<g id="edge8_Node000004_Node000009" class="edge">
<title>Node4&#45;&gt;Node9</title>
<g id="a_edge8_Node000004_Node000009"><a xlink:title=" ">
<path fill="none" stroke="#63b8ff" d="M391.86,-98.53C418.35,-89.31 458.43,-75.36 491.21,-63.95"/>
<polygon fill="#63b8ff" stroke="#63b8ff" points="492.3,-67.28 500.59,-60.69 489.99,-60.67 492.3,-67.28"/>
</a>
</g>
</g>
<!-- Node11 -->
<g id="Node000011" class="node">
<title>Node11</title>
<g id="a_Node000011"><a xlink:href="class_nuki_1_1_nuki_ble.html#ad135bb1455665decfddff67772c1d411" target="_top" xlink:title=" ">
<polygon fill="white" stroke="#666666" points="627.25,-183.16 468.75,-183.16 468.75,-163.91 627.25,-163.91 627.25,-183.16"/>
<text text-anchor="middle" x="548" y="-169.66" font-family="Helvetica,sans-Serif" font-size="10.00">Nuki::NukiBle::cmdStateMachine</text>
</a>
</g>
</g>
<!-- Node4&#45;&gt;Node11 -->
<g id="edge13_Node000004_Node000011" class="edge">
<title>Node4&#45;&gt;Node11</title>
<g id="a_edge13_Node000004_Node000011"><a xlink:title=" ">
<path fill="none" stroke="#63b8ff" d="M383.36,-118.59C404.32,-128.72 438.23,-144.27 468.75,-154.53 475.27,-156.73 482.18,-158.78 489.08,-160.66"/>
<polygon fill="#63b8ff" stroke="#63b8ff" points="487.84,-163.96 498.4,-163.1 489.61,-157.19 487.84,-163.96"/>
</a>
</g>
</g>
<!-- Node5&#45;&gt;Node6 -->
<g id="edge5_Node000005_Node000006" class="edge">
<title>Node5&#45;&gt;Node6</title>
<g id="a_edge5_Node000005_Node000006"><a xlink:title=" ">
<path fill="none" stroke="#63b8ff" d="M617.14,-145.1C629.84,-147.82 643.25,-150.69 656.37,-153.49"/>
<polygon fill="#63b8ff" stroke="#63b8ff" points="655.31,-156.84 665.82,-155.51 656.77,-150 655.31,-156.84"/>
</a>
</g>
</g>
<!-- Node5&#45;&gt;Node7 -->
<g id="edge6_Node000005_Node000007" class="edge">
<title>Node5&#45;&gt;Node7</title>
<g id="a_edge6_Node000005_Node000007"><a xlink:title=" ">
<path fill="none" stroke="#63b8ff" d="M617.14,-129.47C632.39,-129.23 648.66,-128.97 664.22,-128.73"/>
<polygon fill="#63b8ff" stroke="#63b8ff" points="663.94,-132.24 673.88,-128.58 663.83,-125.24 663.94,-132.24"/>
</a>
</g>
</g>
<!-- Node5&#45;&gt;Node8 -->
<g id="edge7_Node000005_Node000008" class="edge">
<title>Node5&#45;&gt;Node8</title>
<g id="a_edge7_Node000005_Node000008"><a xlink:title=" ">
<path fill="none" stroke="#63b8ff" d="M617.14,-115.25C639.23,-110.3 663.45,-104.87 684.57,-100.13"/>
<polygon fill="#63b8ff" stroke="#63b8ff" points="685.15,-103.59 694.14,-97.99 683.61,-96.76 685.15,-103.59"/>
</a>
</g>
</g>
<!-- Node9&#45;&gt;Node6 -->
<g id="edge9_Node000009_Node000006" class="edge">
<title>Node9&#45;&gt;Node6</title>
<g id="a_edge9_Node000009_Node000006"><a xlink:title=" ">
<path fill="none" stroke="#63b8ff" d="M570.72,-60.19C586.88,-72.21 609.18,-89.57 627.25,-106.53 644.68,-122.91 643.18,-133.53 663.25,-146.53 665.64,-148.08 668.13,-149.54 670.69,-150.91"/>
<polygon fill="#63b8ff" stroke="#63b8ff" points="668.98,-153.97 679.51,-155.15 672.01,-147.66 668.98,-153.97"/>
</a>
</g>
</g>
<!-- Node9&#45;&gt;Node7 -->
<g id="edge11_Node000009_Node000007" class="edge">
<title>Node9&#45;&gt;Node7</title>
<g id="a_edge11_Node000009_Node000007"><a xlink:title=" ">
<path fill="none" stroke="#63b8ff" d="M600.02,-60.17C609.38,-63.94 618.84,-68.4 627.25,-73.53 645.77,-84.85 644.24,-96.06 663.25,-106.53 668.24,-109.28 673.6,-111.68 679.1,-113.78"/>
<polygon fill="#63b8ff" stroke="#63b8ff" points="677.75,-117.02 688.34,-116.97 680.03,-110.4 677.75,-117.02"/>
</a>
</g>
</g>
<!-- Node9&#45;&gt;Node8 -->
<g id="edge12_Node000009_Node000008" class="edge">
<title>Node9&#45;&gt;Node8</title>
<g id="a_edge12_Node000009_Node000008"><a xlink:title=" ">
<path fill="none" stroke="#63b8ff" d="M619.04,-60.24C640.61,-65.08 664.07,-70.34 684.59,-74.94"/>
<polygon fill="#63b8ff" stroke="#63b8ff" points="683.65,-78.32 694.17,-77.09 685.18,-71.49 683.65,-78.32"/>
</a>
</g>
</g>
<!-- Node10 -->
<g id="Node000010" class="node">
<title>Node10</title>
<g id="a_Node000010"><a xlink:href="class_nuki_1_1_nuki_ble.html#a25207bb564a4b54b8dd8c872177b53a7" target="_top" xlink:title="Returns if BLE is pairing/paired/connected with a Smart Lock Ultra.">
<polygon fill="white" stroke="#666666" points="806.75,-54.16 676.75,-54.16 676.75,-34.91 806.75,-34.91 806.75,-54.16"/>
<text text-anchor="middle" x="741.75" y="-40.66" font-family="Helvetica,sans-Serif" font-size="10.00">Nuki::NukiBle::isLockUltra</text>
</a>
</g>
</g>
<!-- Node9&#45;&gt;Node10 -->
<g id="edge10_Node000009_Node000010" class="edge">
<title>Node9&#45;&gt;Node10</title>
<g id="a_edge10_Node000009_Node000010"><a xlink:title=" ">
<path fill="none" stroke="#63b8ff" d="M620.13,-44.53C634.82,-44.53 650.35,-44.53 665.19,-44.53"/>
<polygon fill="#63b8ff" stroke="#63b8ff" points="664.87,-48.03 674.87,-44.53 664.87,-41.03 664.87,-48.03"/>
</a>
</g>
</g>
<!-- Node11&#45;&gt;Node6 -->
<g id="edge14_Node000011_Node000006" class="edge">
<title>Node11&#45;&gt;Node6</title>
<g id="a_edge14_Node000011_Node000006"><a xlink:title=" ">
<path fill="none" stroke="#63b8ff" d="M627.55,-172.71C635.49,-172.63 643.6,-172.55 651.64,-172.46"/>
<polygon fill="#63b8ff" stroke="#63b8ff" points="651.47,-175.96 661.43,-172.36 651.4,-168.97 651.47,-175.96"/>
</a>
</g>
</g>
<!-- Node11&#45;&gt;Node7 -->
<g id="edge15_Node000011_Node000007" class="edge">
<title>Node11&#45;&gt;Node7</title>
<g id="a_edge15_Node000011_Node000007"><a xlink:title=" ">
<path fill="none" stroke="#63b8ff" d="M591.08,-163.44C619.55,-156.61 657.39,-147.53 687.89,-140.21"/>
<polygon fill="#63b8ff" stroke="#63b8ff" points="688.39,-143.69 697.3,-137.96 686.76,-136.89 688.39,-143.69"/>
</a>
</g>
</g>
<!-- Node11&#45;&gt;Node8 -->
<g id="edge16_Node000011_Node000008" class="edge">
<title>Node11&#45;&gt;Node8</title>
<g id="a_edge16_Node000011_Node000008"><a xlink:title=" ">
<path fill="none" stroke="#63b8ff" d="M608.86,-163.49C615.33,-161.11 621.61,-158.17 627.25,-154.53 649.07,-140.47 641.62,-122.88 663.25,-108.53 667,-106.05 671.03,-103.85 675.22,-101.92"/>
<polygon fill="#63b8ff" stroke="#63b8ff" points="676.51,-105.17 684.47,-98.19 673.89,-98.68 676.51,-105.17"/>
</a>
</g>
</g>
</g>
</svg>
