<?xml version="1.0" encoding="UTF-8" standalone="no"?>
<!DOCTYPE svg PUBLIC "-//W3C//DTD SVG 1.1//EN"
 "http://www.w3.org/Graphics/SVG/1.1/DTD/svg11.dtd">
<!-- Generated by graphviz version 7.0.5 (20221223.1930)
 -->
<!-- Title: Nuki::NukiBle::retrieveAuthorizationEntries Pages: 1 -->
<svg width="550pt" height="172pt"
 viewBox="0.00 0.00 550.00 172.00" xmlns="http://www.w3.org/2000/svg" xmlns:xlink="http://www.w3.org/1999/xlink">
<g id="graph0" class="graph" transform="scale(1 1) rotate(0) translate(4 168)">
<title>Nuki::NukiBle::retrieveAuthorizationEntries</title>
<!-- Node1 -->
<g id="node1" class="node">
<title>Node1</title>
<g id="a_node1"><a xlink:title="Request the lock via BLE to send the existing authorizationentries.">
<polygon fill="#999999" stroke="#666666" points="169,-94 0,-94 0,-64 169,-64 169,-94"/>
<text text-anchor="start" x="8" y="-82" font-family="Helvetica,sans-Serif" font-size="10.00">Nuki::NukiBle::retrieveAuthorization</text>
<text text-anchor="middle" x="84.5" y="-71" font-family="Helvetica,sans-Serif" font-size="10.00">Entries</text>
</a>
</g>
</g>
<!-- Node2 -->
<g id="node2" class="node">
<title>Node2</title>
<g id="a_node2"><a xlink:href="class_nuki_1_1_nuki_ble.html#af1f1e299e8d97e053bba80e92ba285d6" target="_top" xlink:title=" ">
<polygon fill="white" stroke="#666666" points="347,-88.5 205,-88.5 205,-69.5 347,-69.5 347,-88.5"/>
<text text-anchor="middle" x="276" y="-76.5" font-family="Helvetica,sans-Serif" font-size="10.00">Nuki::NukiBle::executeAction</text>
</a>
</g>
</g>
<!-- Node1&#45;&gt;Node2 -->
<g id="edge1" class="edge">
<title>Node1&#45;&gt;Node2</title>
<path fill="none" stroke="#63b8ff" d="M169.45,-79C177.36,-79 185.38,-79 193.27,-79"/>
<polygon fill="#63b8ff" stroke="#63b8ff" points="193.21,-82.5 203.21,-79 193.21,-75.5 193.21,-82.5"/>
</g>
<!-- Node3 -->
<g id="node3" class="node">
<title>Node3</title>
<g id="a_node3"><a xlink:href="class_nuki_1_1_nuki_ble.html#ada0f3beebd95d35c122e25dd3f9eb886" target="_top" xlink:title=" ">
<polygon fill="white" stroke="#666666" points="531.5,-164 393.5,-164 393.5,-134 531.5,-134 531.5,-164"/>
<text text-anchor="start" x="401.5" y="-152" font-family="Helvetica,sans-Serif" font-size="10.00">Nuki::NukiBle::cmdChallAcc</text>
<text text-anchor="middle" x="462.5" y="-141" font-family="Helvetica,sans-Serif" font-size="10.00">StateMachine</text>
</a>
</g>
</g>
<!-- Node2&#45;&gt;Node3 -->
<g id="edge2" class="edge">
<title>Node2&#45;&gt;Node3</title>
<path fill="none" stroke="#63b8ff" d="M297.83,-88.87C319.01,-98.71 352.88,-113.9 383,-125 387.64,-126.71 392.46,-128.4 397.33,-130.03"/>
<polygon fill="#63b8ff" stroke="#63b8ff" points="395.99,-133.28 406.59,-133.07 398.17,-126.63 395.99,-133.28"/>
</g>
<!-- Node4 -->
<g id="node4" class="node">
<title>Node4</title>
<g id="a_node4"><a xlink:href="class_nuki_1_1_nuki_ble.html#a59169a9f492793762e3c6ba39b611b07" target="_top" xlink:title=" ">
<polygon fill="white" stroke="#666666" points="534.5,-116 390.5,-116 390.5,-86 534.5,-86 534.5,-116"/>
<text text-anchor="start" x="398.5" y="-104" font-family="Helvetica,sans-Serif" font-size="10.00">Nuki::NukiBle::cmdChallState</text>
<text text-anchor="middle" x="462.5" y="-93" font-family="Helvetica,sans-Serif" font-size="10.00">Machine</text>
</a>
</g>
</g>
<!-- Node2&#45;&gt;Node4 -->
<g id="edge3" class="edge">
<title>Node2&#45;&gt;Node4</title>
<path fill="none" stroke="#63b8ff" d="M347.28,-87.38C357.6,-88.61 368.31,-89.89 378.85,-91.14"/>
<polygon fill="#63b8ff" stroke="#63b8ff" points="378.35,-94.61 388.69,-92.32 379.18,-87.66 378.35,-94.61"/>
</g>
<!-- Node5 -->
<g id="node5" class="node">
<title>Node5</title>
<g id="a_node5"><a xlink:href="class_nuki_1_1_nuki_ble.html#ad135bb1455665decfddff67772c1d411" target="_top" xlink:title=" ">
<polygon fill="white" stroke="#666666" points="542,-67.5 383,-67.5 383,-48.5 542,-48.5 542,-67.5"/>
<text text-anchor="middle" x="462.5" y="-55.5" font-family="Helvetica,sans-Serif" font-size="10.00">Nuki::NukiBle::cmdStateMachine</text>
</a>
</g>
</g>
<!-- Node2&#45;&gt;Node5 -->
<g id="edge4" class="edge">
<title>Node2&#45;&gt;Node5</title>
<path fill="none" stroke="#63b8ff" d="M347.28,-71C355.17,-70.1 363.29,-69.18 371.38,-68.26"/>
<polygon fill="#63b8ff" stroke="#63b8ff" points="371.75,-71.74 381.29,-67.13 370.95,-64.78 371.75,-71.74"/>
</g>
<!-- Node6 -->
<g id="node6" class="node">
<title>Node6</title>
<g id="a_node6"><a xlink:href="class_nuki_1_1_nuki_ble.html#aed01f10d1ffa769f0f6fadc0d06d328e" target="_top" xlink:title=" ">
<polygon fill="white" stroke="#666666" points="538.5,-30 386.5,-30 386.5,0 538.5,0 538.5,-30"/>
<text text-anchor="start" x="394.5" y="-18" font-family="Helvetica,sans-Serif" font-size="10.00">Nuki::NukiBle::extendDisonnect</text>
<text text-anchor="middle" x="462.5" y="-7" font-family="Helvetica,sans-Serif" font-size="10.00">Timeout</text>
</a>
</g>
</g>
<!-- Node2&#45;&gt;Node6 -->
<g id="edge5" class="edge">
<title>Node2&#45;&gt;Node6</title>
<path fill="none" stroke="#63b8ff" d="M303.02,-69.06C324.41,-60.98 355.55,-49.42 383,-40 388.83,-38 394.93,-35.96 401.04,-33.96"/>
<polygon fill="#63b8ff" stroke="#63b8ff" points="402.11,-37.29 410.54,-30.87 399.95,-30.63 402.11,-37.29"/>
</g>
</g>
</svg>
