<?xml version="1.0" encoding="UTF-8" standalone="no"?>
<!DOCTYPE svg PUBLIC "-//W3C//DTD SVG 1.1//EN"
 "http://www.w3.org/Graphics/SVG/1.1/DTD/svg11.dtd">
<!-- Generated by graphviz version 5.0.1 (20220820.1526)
 -->
<!-- Title: NukiLock::NukiLock::updateTimeControlEntry Pages: 1 -->
<svg width="348pt" height="82pt"
 viewBox="0.00 0.00 348.00 81.50" xmlns="http://www.w3.org/2000/svg" xmlns:xlink="http://www.w3.org/1999/xlink">
<g id="graph0" class="graph" transform="scale(1 1) rotate(0) translate(4 77.5)">
<title>NukiLock::NukiLock::updateTimeControlEntry</title>
<!-- Node1 -->
<g id="node1" class="node">
<title>Node1</title>
<g id="a_node1"><a xlink:title="Sends an updated time(d) control entry via BLE to the lock. (see addTimeControlEntry())">
<polygon fill="#999999" stroke="#666666" points="151,-50.5 0,-50.5 0,-16.5 151,-16.5 151,-50.5"/>
<text text-anchor="start" x="8" y="-36.9" font-family="Helvetica,sans-Serif" font-size="12.00">NukiLock::NukiLock</text>
<text text-anchor="middle" x="75.5" y="-23.9" font-family="Helvetica,sans-Serif" font-size="12.00">::updateTimeControlEntry</text>
</a>
</g>
</g>
<!-- Node2 -->
<g id="node2" class="node">
<title>Node2</title>
<g id="a_node2"><a xlink:href="namespace_nuki_lock.html#a2d3b067c17f394b8fad515ca3f35f03c" target="_top" xlink:title=" ">
<polygon fill="white" stroke="#666666" points="340,-73.5 187,-73.5 187,-39.5 340,-39.5 340,-73.5"/>
<text text-anchor="start" x="195" y="-59.9" font-family="Helvetica,sans-Serif" font-size="12.00">NukiLock::logTimeControl</text>
<text text-anchor="middle" x="263.5" y="-46.9" font-family="Helvetica,sans-Serif" font-size="12.00">Entry</text>
</a>
</g>
</g>
<!-- Node1&#45;&gt;Node2 -->
<g id="edge1" class="edge">
<title>Node1&#45;&gt;Node2</title>
<path fill="none" stroke="#63b8ff" d="M151.08,-42.72C159.58,-43.77 168.29,-44.85 176.92,-45.92"/>
<polygon fill="#63b8ff" stroke="#63b8ff" points="176.64,-49.41 186.99,-47.16 177.5,-42.46 176.64,-49.41"/>
</g>
<!-- Node3 -->
<g id="node3" class="node">
<title>Node3</title>
<g id="a_node3"><a xlink:href="namespace_nuki.html#a280e19d4682ca4b35d3fe64001da816a" target="_top" xlink:title=" ">
<polygon fill="white" stroke="#666666" points="314.5,-21 212.5,-21 212.5,0 314.5,0 314.5,-21"/>
<text text-anchor="middle" x="263.5" y="-7.4" font-family="Helvetica,sans-Serif" font-size="12.00">Nuki::printBuffer</text>
</a>
</g>
</g>
<!-- Node1&#45;&gt;Node3 -->
<g id="edge2" class="edge">
<title>Node1&#45;&gt;Node3</title>
<path fill="none" stroke="#63b8ff" d="M151.08,-24.28C168.16,-22.17 186.09,-19.95 202.46,-17.92"/>
<polygon fill="#63b8ff" stroke="#63b8ff" points="202.94,-21.39 212.43,-16.69 202.08,-14.44 202.94,-21.39"/>
</g>
</g>
</svg>
