<?xml version="1.0" encoding="UTF-8" standalone="no"?>
<!DOCTYPE svg PUBLIC "-//W3C//DTD SVG 1.1//EN"
 "http://www.w3.org/Graphics/SVG/1.1/DTD/svg11.dtd">
<!-- Generated by graphviz version 12.2.1 (20241206.2353)
 -->
<!-- Title: Nuki::NukiBle::retrieveKeypadEntries Pages: 1 -->
<!--zoomable 347 -->

<svg id="main" version="1.1" xmlns="http://www.w3.org/2000/svg" xmlns:xlink="http://www.w3.org/1999/xlink" xml:space="preserve" onload="init(evt)">

<style type="text/css"><![CDATA[
.node, .edge {opacity: 0.7;}
.node.selected, .edge.selected {opacity: 1;}
.edge:hover path { stroke: red; }
.edge:hover polygon { stroke: red; fill: red; }
]]></style>

<defs>
  <circle id="rim" cx="0" cy="0" r="7"/>
  <circle id="rim2" cx="0" cy="0" r="3.5"/>
  <g id="zoomPlus">
    <use xlink:href="#rim" fill="#404040"><set attributeName="fill" to="#808080" begin="zoomplus.mouseover" end="zoomplus.mouseout"/></use>
    <path d="M-4,0h8M0,-4v8" fill="none" stroke="white" stroke-width="1.5" pointer-events="none"/>
  </g>
  <g id="zoomMin">
    <use xlink:href="#rim" fill="#404040"><set attributeName="fill" to="#808080" begin="zoomminus.mouseover" end="zoomminus.mouseout"/></use>
    <path d="M-4,0h8" fill="none" stroke="white" stroke-width="1.5" pointer-events="none"/>
  </g>
  <g id="arrowUp" transform="translate(30 24)">
    <use xlink:href="#rim"/>
    <path pointer-events="none" fill="none" stroke="white" stroke-width="1.5" d="M0,-3.0v7 M-2.5,-0.5L0,-3.0L2.5,-0.5"/>
  </g>
  <g id="arrowRight" transform="rotate(90) translate(36 -43)">
    <use xlink:href="#rim"/>
    <path pointer-events="none" fill="none" stroke="white" stroke-width="1.5" d="M0,-3.0v7 M-2.5,-0.5L0,-3.0L2.5,-0.5"/>
  </g>
  <g id="arrowDown" transform="rotate(180) translate(-30 -48)">
    <use xlink:href="#rim"/>
    <path pointer-events="none" fill="none" stroke="white" stroke-width="1.5" d="M0,-3.0v7 M-2.5,-0.5L0,-3.0L2.5,-0.5"/>
  </g>
  <g id="arrowLeft" transform="rotate(270) translate(-36 17)">
    <use xlink:href="#rim"/>
    <path pointer-events="none" fill="none" stroke="white" stroke-width="1.5" d="M0,-3.0v7 M-2.5,-0.5L0,-3.0L2.5,-0.5"/>
  </g>
  <g id="resetDef">
    <use xlink:href="#rim2" fill="#404040"><set attributeName="fill" to="#808080" begin="reset.mouseover" end="reset.mouseout"/></use>
  </g>
</defs>
<script type="application/ecmascript">
var viewWidth = 717;
var viewHeight = 347;
var sectionId = 'dynsection-27';
</script>
<script type="application/ecmascript" xlink:href="svg.min.js"/>
<svg id="graph" class="graph">
<g id="viewport">
<title>Nuki::NukiBle::retrieveKeypadEntries</title>
<!-- Node1 -->
<g id="Node000001" class="node">
<title>Node1</title>
<g id="a_Node000001"><a xlink:title="Request the lock via BLE to send the existing keypad entries.">
<polygon fill="#999999" stroke="#666666" points="144.25,-92.5 0,-92.5 0,-62 144.25,-62 144.25,-92.5"/>
<text text-anchor="start" x="8" y="-79" font-family="Helvetica,sans-Serif" font-size="10.00">Nuki::NukiBle::retrieveKeypad</text>
<text text-anchor="middle" x="72.12" y="-67.75" font-family="Helvetica,sans-Serif" font-size="10.00">Entries</text>
</a>
</g>
</g>
<!-- Node2 -->
<g id="Node000002" class="node">
<title>Node2</title>
<g id="a_Node000002"><a xlink:href="class_nuki_1_1_nuki_ble.html#af1f1e299e8d97e053bba80e92ba285d6" target="_top" xlink:title=" ">
<polygon fill="white" stroke="#666666" points="321.5,-229.88 180.25,-229.88 180.25,-210.62 321.5,-210.62 321.5,-229.88"/>
<text text-anchor="middle" x="250.88" y="-216.38" font-family="Helvetica,sans-Serif" font-size="10.00">Nuki::NukiBle::executeAction</text>
</a>
</g>
</g>
<!-- Node1&#45;&gt;Node2 -->
<g id="edge1_Node000001_Node000002" class="edge">
<title>Node1&#45;&gt;Node2</title>
<g id="a_edge1_Node000001_Node000002"><a xlink:title=" ">
<path fill="none" stroke="#63b8ff" d="M92.38,-92.83C125.74,-119.82 194.06,-175.1 228.72,-203.13"/>
<polygon fill="#63b8ff" stroke="#63b8ff" points="226.39,-205.75 236.36,-209.32 230.79,-200.31 226.39,-205.75"/>
</a>
</g>
</g>
<!-- Node5 -->
<g id="Node000005" class="node">
<title>Node5</title>
<g id="a_Node000005"><a xlink:href="class_nuki_1_1_nuki_ble.html#ac7ce691d9c3e586474655d1663eb2e20" target="_top" xlink:title=" ">
<polygon fill="white" stroke="#666666" points="696.62,-229.88 564.38,-229.88 564.38,-210.62 696.62,-210.62 696.62,-229.88"/>
<text text-anchor="middle" x="630.5" y="-216.38" font-family="Helvetica,sans-Serif" font-size="10.00">Nuki::NukiBle::logMessage</text>
</a>
</g>
</g>
<!-- Node1&#45;&gt;Node5 -->
<g id="edge18_Node000001_Node000005" class="edge">
<title>Node1&#45;&gt;Node5</title>
<g id="a_edge18_Node000001_Node000005"><a xlink:title=" ">
<path fill="none" stroke="#63b8ff" d="M144.51,-74.82C236.49,-74.82 398.5,-85.68 516,-153.25 537.61,-165.67 531.25,-182.44 552,-196.25 557.85,-200.14 564.36,-203.43 571.05,-206.2"/>
<polygon fill="#63b8ff" stroke="#63b8ff" points="569.64,-209.41 580.24,-209.61 572.08,-202.84 569.64,-209.41"/>
</a>
</g>
</g>
<!-- Node6 -->
<g id="Node000006" class="node">
<title>Node6</title>
<g id="a_Node000006"><a xlink:href="class_nuki_1_1_nuki_ble.html#af3650133f46aeca48a5f01b95d23ab71" target="_top" xlink:title=" ">
<polygon fill="white" stroke="#666666" points="704.12,-186.88 556.88,-186.88 556.88,-167.62 704.12,-167.62 704.12,-186.88"/>
<text text-anchor="middle" x="630.5" y="-173.38" font-family="Helvetica,sans-Serif" font-size="10.00">Nuki::NukiBle::logMessageVar</text>
</a>
</g>
</g>
<!-- Node1&#45;&gt;Node6 -->
<g id="edge19_Node000001_Node000006" class="edge">
<title>Node1&#45;&gt;Node6</title>
<g id="a_edge19_Node000001_Node000006"><a xlink:title=" ">
<path fill="none" stroke="#63b8ff" d="M144.42,-63.76C234.21,-49.94 391.77,-36.32 516,-82.25 557.73,-97.68 594.93,-135.69 614.64,-158.69"/>
<polygon fill="#63b8ff" stroke="#63b8ff" points="611.7,-160.62 620.79,-166.07 617.08,-156.15 611.7,-160.62"/>
</a>
</g>
</g>
<!-- Node9 -->
<g id="Node000009" class="node">
<title>Node9</title>
<g id="a_Node000009"><a xlink:href="class_nuki_1_1_nuki_ble.html#ad94d354153b8b4f779f7a7a32258ff48" target="_top" xlink:title="Returns the keypad entry count. Only available after executing retreiveKeypadEntries.">
<polygon fill="white" stroke="#666666" points="313.62,-30.5 188.12,-30.5 188.12,0 313.62,0 313.62,-30.5"/>
<text text-anchor="start" x="196.12" y="-17" font-family="Helvetica,sans-Serif" font-size="10.00">Nuki::NukiBle::getKeypad</text>
<text text-anchor="middle" x="250.88" y="-5.75" font-family="Helvetica,sans-Serif" font-size="10.00">EntryCount</text>
</a>
</g>
</g>
<!-- Node1&#45;&gt;Node9 -->
<g id="edge17_Node000001_Node000009" class="edge">
<title>Node1&#45;&gt;Node9</title>
<g id="a_edge17_Node000001_Node000009"><a xlink:title=" ">
<path fill="none" stroke="#63b8ff" d="M117.73,-61.6C140.98,-53.45 169.64,-43.4 194.32,-34.74"/>
<polygon fill="#63b8ff" stroke="#63b8ff" points="195.27,-38.11 203.55,-31.5 192.96,-31.51 195.27,-38.11"/>
</a>
</g>
</g>
<!-- Node3 -->
<g id="Node000003" class="node">
<title>Node3</title>
<g id="a_Node000003"><a xlink:href="class_nuki_1_1_nuki_ble.html#ada0f3beebd95d35c122e25dd3f9eb886" target="_top" xlink:title=" ">
<polygon fill="white" stroke="#666666" points="505.5,-192.5 368,-192.5 368,-162 505.5,-162 505.5,-192.5"/>
<text text-anchor="start" x="376" y="-179" font-family="Helvetica,sans-Serif" font-size="10.00">Nuki::NukiBle::cmdChallAcc</text>
<text text-anchor="middle" x="436.75" y="-167.75" font-family="Helvetica,sans-Serif" font-size="10.00">StateMachine</text>
</a>
</g>
</g>
<!-- Node2&#45;&gt;Node3 -->
<g id="edge2_Node000002_Node000003" class="edge">
<title>Node2&#45;&gt;Node3</title>
<g id="a_edge2_Node000002_Node000003"><a xlink:title=" ">
<path fill="none" stroke="#63b8ff" d="M294.99,-210.17C313.61,-205.81 335.99,-200.58 357.38,-195.58"/>
<polygon fill="#63b8ff" stroke="#63b8ff" points="358.03,-199.02 366.97,-193.33 356.43,-192.2 358.03,-199.02"/>
</a>
</g>
</g>
<!-- Node4 -->
<g id="Node000004" class="node">
<title>Node4</title>
<g id="a_Node000004"><a xlink:href="class_nuki_1_1_nuki_ble.html#a6e8fca90c04249660dce6cb993eb4495" target="_top" xlink:title=" ">
<polygon fill="white" stroke="#666666" points="709,-297.5 552,-297.5 552,-267 709,-267 709,-297.5"/>
<text text-anchor="start" x="560" y="-284" font-family="Helvetica,sans-Serif" font-size="10.00">Nuki::NukiBle::extendDisconnect</text>
<text text-anchor="middle" x="630.5" y="-272.75" font-family="Helvetica,sans-Serif" font-size="10.00">Timeout</text>
</a>
</g>
</g>
<!-- Node2&#45;&gt;Node4 -->
<g id="edge14_Node000002_Node000004" class="edge">
<title>Node2&#45;&gt;Node4</title>
<g id="a_edge14_Node000002_Node000004"><a xlink:title=" ">
<path fill="none" stroke="#63b8ff" d="M257.96,-230.29C272.12,-252.54 309.69,-305.53 357.5,-325.25 434.36,-356.95 532.32,-325.74 587.24,-302.46"/>
<polygon fill="#63b8ff" stroke="#63b8ff" points="588.47,-305.74 596.24,-298.54 585.68,-299.32 588.47,-305.74"/>
</a>
</g>
</g>
<!-- Node2&#45;&gt;Node5 -->
<g id="edge15_Node000002_Node000005" class="edge">
<title>Node2&#45;&gt;Node5</title>
<g id="a_edge15_Node000002_Node000005"><a xlink:title=" ">
<path fill="none" stroke="#63b8ff" d="M297.91,-230.37C316.34,-233.94 337.83,-237.49 357.5,-239.25 427.67,-245.51 445.8,-245.09 516,-239.25 533.31,-237.81 551.96,-235.16 569.04,-232.28"/>
<polygon fill="#63b8ff" stroke="#63b8ff" points="569.26,-235.79 578.51,-230.63 568.06,-228.9 569.26,-235.79"/>
</a>
</g>
</g>
<!-- Node2&#45;&gt;Node6 -->
<g id="edge16_Node000002_Node000006" class="edge">
<title>Node2&#45;&gt;Node6</title>
<g id="a_edge16_Node000002_Node000006"><a xlink:title=" ">
<path fill="none" stroke="#63b8ff" d="M262.84,-210.23C280.94,-194.45 318.92,-164.45 357.5,-153.25 436.34,-130.35 532.99,-149.42 587.27,-164.15"/>
<polygon fill="#63b8ff" stroke="#63b8ff" points="586.16,-167.47 596.73,-166.8 588.05,-160.73 586.16,-167.47"/>
</a>
</g>
</g>
<!-- Node7 -->
<g id="Node000007" class="node">
<title>Node7</title>
<g id="a_Node000007"><a xlink:href="class_nuki_1_1_nuki_ble.html#a59169a9f492793762e3c6ba39b611b07" target="_top" xlink:title=" ">
<polygon fill="white" stroke="#666666" points="508.5,-316.5 365,-316.5 365,-286 508.5,-286 508.5,-316.5"/>
<text text-anchor="start" x="373" y="-303" font-family="Helvetica,sans-Serif" font-size="10.00">Nuki::NukiBle::cmdChallState</text>
<text text-anchor="middle" x="436.75" y="-291.75" font-family="Helvetica,sans-Serif" font-size="10.00">Machine</text>
</a>
</g>
</g>
<!-- Node2&#45;&gt;Node7 -->
<g id="edge6_Node000002_Node000007" class="edge">
<title>Node2&#45;&gt;Node7</title>
<g id="a_edge6_Node000002_Node000007"><a xlink:title=" ">
<path fill="none" stroke="#63b8ff" d="M270.68,-230.24C291.6,-241.17 326.52,-258.92 357.5,-272.25 364.91,-275.44 372.8,-278.61 380.61,-281.63"/>
<polygon fill="#63b8ff" stroke="#63b8ff" points="379.15,-284.81 389.74,-285.09 381.63,-278.27 379.15,-284.81"/>
</a>
</g>
</g>
<!-- Node8 -->
<g id="Node000008" class="node">
<title>Node8</title>
<g id="a_Node000008"><a xlink:href="class_nuki_1_1_nuki_ble.html#ad135bb1455665decfddff67772c1d411" target="_top" xlink:title=" ">
<polygon fill="white" stroke="#666666" points="516,-229.88 357.5,-229.88 357.5,-210.62 516,-210.62 516,-229.88"/>
<text text-anchor="middle" x="436.75" y="-216.38" font-family="Helvetica,sans-Serif" font-size="10.00">Nuki::NukiBle::cmdStateMachine</text>
</a>
</g>
</g>
<!-- Node2&#45;&gt;Node8 -->
<g id="edge10_Node000002_Node000008" class="edge">
<title>Node2&#45;&gt;Node8</title>
<g id="a_edge10_Node000002_Node000008"><a xlink:title=" ">
<path fill="none" stroke="#63b8ff" d="M321.91,-220.25C329.78,-220.25 337.87,-220.25 345.94,-220.25"/>
<polygon fill="#63b8ff" stroke="#63b8ff" points="345.79,-223.75 355.79,-220.25 345.79,-216.75 345.79,-223.75"/>
</a>
</g>
</g>
<!-- Node3&#45;&gt;Node4 -->
<g id="edge3_Node000003_Node000004" class="edge">
<title>Node3&#45;&gt;Node4</title>
<g id="a_edge3_Node000003_Node000004"><a xlink:title=" ">
<path fill="none" stroke="#63b8ff" d="M499.74,-192.93C505.41,-195.35 510.93,-198.11 516,-201.25 535.77,-213.51 533.61,-225 552,-239.25 562.44,-247.34 574.59,-254.85 586.14,-261.24"/>
<polygon fill="#63b8ff" stroke="#63b8ff" points="584.27,-264.21 594.73,-265.85 587.57,-258.04 584.27,-264.21"/>
</a>
</g>
</g>
<!-- Node3&#45;&gt;Node5 -->
<g id="edge4_Node000003_Node000005" class="edge">
<title>Node3&#45;&gt;Node5</title>
<g id="a_edge4_Node000003_Node000005"><a xlink:title=" ">
<path fill="none" stroke="#63b8ff" d="M505.89,-192.53C527.98,-197.48 552.2,-202.92 573.32,-207.65"/>
<polygon fill="#63b8ff" stroke="#63b8ff" points="572.36,-211.02 582.89,-209.8 573.9,-204.19 572.36,-211.02"/>
</a>
</g>
</g>
<!-- Node3&#45;&gt;Node6 -->
<g id="edge5_Node000003_Node000006" class="edge">
<title>Node3&#45;&gt;Node6</title>
<g id="a_edge5_Node000003_Node000006"><a xlink:title=" ">
<path fill="none" stroke="#63b8ff" d="M505.89,-177.25C518.55,-177.25 531.91,-177.25 544.98,-177.25"/>
<polygon fill="#63b8ff" stroke="#63b8ff" points="544.86,-180.75 554.86,-177.25 544.86,-173.75 544.86,-180.75"/>
</a>
</g>
</g>
<!-- Node7&#45;&gt;Node4 -->
<g id="edge7_Node000007_Node000004" class="edge">
<title>Node7&#45;&gt;Node4</title>
<g id="a_edge7_Node000007_Node000004"><a xlink:title=" ">
<path fill="none" stroke="#63b8ff" d="M508.88,-294.2C519.13,-293.19 529.79,-292.13 540.34,-291.08"/>
<polygon fill="#63b8ff" stroke="#63b8ff" points="540.61,-294.58 550.22,-290.11 539.92,-287.61 540.61,-294.58"/>
</a>
</g>
</g>
<!-- Node7&#45;&gt;Node5 -->
<g id="edge8_Node000007_Node000005" class="edge">
<title>Node7&#45;&gt;Node5</title>
<g id="a_edge8_Node000007_Node000005"><a xlink:title=" ">
<path fill="none" stroke="#63b8ff" d="M481.84,-285.56C493.05,-281.4 505.02,-276.79 516,-272.25 544.23,-260.57 575.78,-245.99 598.43,-235.24"/>
<polygon fill="#63b8ff" stroke="#63b8ff" points="599.9,-238.42 607.42,-230.96 596.89,-232.1 599.9,-238.42"/>
</a>
</g>
</g>
<!-- Node7&#45;&gt;Node6 -->
<g id="edge9_Node000007_Node000006" class="edge">
<title>Node7&#45;&gt;Node6</title>
<g id="a_edge9_Node000007_Node000006"><a xlink:title=" ">
<path fill="none" stroke="#63b8ff" d="M459.01,-285.71C475.13,-273.61 497.59,-256.1 516,-239.25 533.16,-223.54 532.24,-213.54 552,-201.25 558.43,-197.25 565.57,-193.87 572.85,-191.03"/>
<polygon fill="#63b8ff" stroke="#63b8ff" points="573.86,-194.39 582.12,-187.75 571.52,-187.79 573.86,-194.39"/>
</a>
</g>
</g>
<!-- Node8&#45;&gt;Node4 -->
<g id="edge11_Node000008_Node000004" class="edge">
<title>Node8&#45;&gt;Node4</title>
<g id="a_edge11_Node000008_Node000004"><a xlink:title=" ">
<path fill="none" stroke="#63b8ff" d="M468.98,-230.35C496.37,-239.2 536.93,-252.32 570.43,-263.15"/>
<polygon fill="#63b8ff" stroke="#63b8ff" points="568.99,-266.36 579.59,-266.11 571.15,-259.7 568.99,-266.36"/>
</a>
</g>
</g>
<!-- Node8&#45;&gt;Node5 -->
<g id="edge12_Node000008_Node000005" class="edge">
<title>Node8&#45;&gt;Node5</title>
<g id="a_edge12_Node000008_Node000005"><a xlink:title=" ">
<path fill="none" stroke="#63b8ff" d="M516.3,-220.25C528.29,-220.25 540.65,-220.25 552.61,-220.25"/>
<polygon fill="#63b8ff" stroke="#63b8ff" points="552.41,-223.75 562.41,-220.25 552.41,-216.75 552.41,-223.75"/>
</a>
</g>
</g>
<!-- Node8&#45;&gt;Node6 -->
<g id="edge13_Node000008_Node000006" class="edge">
<title>Node8&#45;&gt;Node6</title>
<g id="a_edge13_Node000008_Node000006"><a xlink:title=" ">
<path fill="none" stroke="#63b8ff" d="M482.71,-210.17C509.78,-204.1 544.47,-196.32 573.34,-189.84"/>
<polygon fill="#63b8ff" stroke="#63b8ff" points="574.02,-193.28 583.02,-187.67 572.49,-186.45 574.02,-193.28"/>
</a>
</g>
</g>
</g>
</svg>

<g id="navigator" transform="translate(0 0)" fill="#404254">
  <rect fill="#f2f5e9" fill-opacity="0.5" stroke="#606060" stroke-width=".5" x="0" y="0" width="60" height="60"/>
  <use id="zoomplus" xlink:href="#zoomPlus" x="17" y="9" onmousedown="handleZoom(evt,'in')"/>
  <use id="zoomminus" xlink:href="#zoomMin" x="42" y="9" onmousedown="handleZoom(evt,'out')"/>
  <use id="reset" xlink:href="#resetDef" x="30" y="36" onmousedown="handleReset()"/>
   <use id="arrowup" xlink:href="#arrowUp" x="0" y="0" onmousedown="handlePan(0,-1)"/>
  <use id="arrowright" xlink:href="#arrowRight" x="0" y="0" onmousedown="handlePan(1,0)"/>
  <use id="arrowdown" xlink:href="#arrowDown" x="0" y="0" onmousedown="handlePan(0,1)"/>
  <use id="arrowleft" xlink:href="#arrowLeft" x="0" y="0" onmousedown="handlePan(-1,0)"/>
</g>
<svg viewBox="0 0 15 15" width="100%" height="30px" preserveAspectRatio="xMaxYMin meet">
 <g id="arrow_out" transform="scale(0.3 0.3)">
  <a xlink:href="class_nuki_1_1_nuki_ble_a6f669d52198915978c51ee441aec3c6d_cgraph_org.svg" target="_base">
   <rect id="button" ry="5" rx="5" y="6" x="6" height="38" width="38"
        fill="#f2f5e9" fill-opacity="0.5" stroke="#606060" stroke-width="1.0"/>
   <path id="arrow"
     d="M 11.500037,31.436501 C 11.940474,20.09759 22.043105,11.32322 32.158766,21.979434 L 37.068811,17.246167 C 37.068811,17.246167 37.088388,32 37.088388,32 L 22.160133,31.978069 C 22.160133,31.978069 26.997745,27.140456 26.997745,27.140456 C 18.528582,18.264221 13.291696,25.230495 11.500037,31.436501 z"
     style="fill:#404040;"/>
  </a>
 </g>
</svg>

<style type='text/css'>
<![CDATA[
[data-mouse-over-selected='false'] { opacity: 0.7; }
[data-mouse-over-selected='true']  { opacity: 1.0; }
]]>
</style>
<script type="application/ecmascript"><![CDATA[
document.addEventListener('DOMContentLoaded', (event) => {
  highlightEdges();
  highlightAdjacentNodes();
});
]]></script>
</svg>
