<?xml version="1.0" encoding="UTF-8" standalone="no"?>
<!DOCTYPE svg PUBLIC "-//W3C//DTD SVG 1.1//EN"
 "http://www.w3.org/Graphics/SVG/1.1/DTD/svg11.dtd">
<!-- Generated by graphviz version 12.2.1 (20241206.2353)
 -->
<!-- Title: NukiOpener::NukiOpener::setElectricStrikeDuration Pages: 1 -->
<svg width="861pt" height="263pt"
 viewBox="0.00 0.00 860.50 263.03" xmlns="http://www.w3.org/2000/svg" xmlns:xlink="http://www.w3.org/1999/xlink">
<g id="graph0" class="graph" transform="scale(1 1) rotate(0) translate(4 259.03)">
<title>NukiOpener::NukiOpener::setElectricStrikeDuration</title>
<!-- Node1 -->
<g id="Node000001" class="node">
<title>Node1</title>
<g id="a_Node000001"><a xlink:title="Gets the current config from the opener, updates the electric strike duration parameter and sends the...">
<polygon fill="#999999" stroke="#666666" points="127.75,-148.88 0,-148.88 0,-118.38 127.75,-118.38 127.75,-148.88"/>
<text text-anchor="start" x="8" y="-135.38" font-family="Helvetica,sans-Serif" font-size="10.00">NukiOpener::NukiOpener</text>
<text text-anchor="middle" x="63.88" y="-124.12" font-family="Helvetica,sans-Serif" font-size="10.00">::setElectricStrikeDuration</text>
</a>
</g>
</g>
<!-- Node2 -->
<g id="Node000002" class="node">
<title>Node2</title>
<g id="a_Node000002"><a xlink:href="class_nuki_opener_1_1_nuki_opener.html#adf50e8b8e35409d8aa43de69c43535b5" target="_top" xlink:title="Requests advanced config from Opener via BLE.">
<polygon fill="white" stroke="#666666" points="287.75,-148.88 163.75,-148.88 163.75,-118.38 287.75,-118.38 287.75,-148.88"/>
<text text-anchor="start" x="171.75" y="-135.38" font-family="Helvetica,sans-Serif" font-size="10.00">NukiOpener::NukiOpener</text>
<text text-anchor="middle" x="225.75" y="-124.12" font-family="Helvetica,sans-Serif" font-size="10.00">::requestAdvancedConfig</text>
</a>
</g>
</g>
<!-- Node1&#45;&gt;Node2 -->
<g id="edge1_Node000001_Node000002" class="edge">
<title>Node1&#45;&gt;Node2</title>
<g id="a_edge1_Node000001_Node000002"><a xlink:title=" ">
<path fill="none" stroke="#63b8ff" d="M128.06,-133.62C135.95,-133.62 144.07,-133.62 152.09,-133.62"/>
<polygon fill="#63b8ff" stroke="#63b8ff" points="151.81,-137.13 161.81,-133.63 151.81,-130.13 151.81,-137.13"/>
</a>
</g>
</g>
<!-- Node3 -->
<g id="Node000003" class="node">
<title>Node3</title>
<g id="a_Node000003"><a xlink:href="class_nuki_1_1_nuki_ble.html#af1f1e299e8d97e053bba80e92ba285d6" target="_top" xlink:title=" ">
<polygon fill="white" stroke="#666666" points="465,-143.25 323.75,-143.25 323.75,-124 465,-124 465,-143.25"/>
<text text-anchor="middle" x="394.38" y="-129.75" font-family="Helvetica,sans-Serif" font-size="10.00">Nuki::NukiBle::executeAction</text>
</a>
</g>
</g>
<!-- Node2&#45;&gt;Node3 -->
<g id="edge2_Node000002_Node000003" class="edge">
<title>Node2&#45;&gt;Node3</title>
<g id="a_edge2_Node000002_Node000003"><a xlink:title=" ">
<path fill="none" stroke="#63b8ff" d="M287.85,-133.62C295.68,-133.62 303.79,-133.62 311.87,-133.62"/>
<polygon fill="#63b8ff" stroke="#63b8ff" points="311.75,-137.13 321.75,-133.63 311.75,-130.13 311.75,-137.13"/>
</a>
</g>
</g>
<!-- Node4 -->
<g id="Node000004" class="node">
<title>Node4</title>
<g id="a_Node000004"><a xlink:href="class_nuki_1_1_nuki_ble.html#ada0f3beebd95d35c122e25dd3f9eb886" target="_top" xlink:title=" ">
<polygon fill="white" stroke="#666666" points="649,-191.88 511.5,-191.88 511.5,-161.38 649,-161.38 649,-191.88"/>
<text text-anchor="start" x="519.5" y="-178.38" font-family="Helvetica,sans-Serif" font-size="10.00">Nuki::NukiBle::cmdChallAcc</text>
<text text-anchor="middle" x="580.25" y="-167.12" font-family="Helvetica,sans-Serif" font-size="10.00">StateMachine</text>
</a>
</g>
</g>
<!-- Node3&#45;&gt;Node4 -->
<g id="edge3_Node000003_Node000004" class="edge">
<title>Node3&#45;&gt;Node4</title>
<g id="a_edge3_Node000003_Node000004"><a xlink:title=" ">
<path fill="none" stroke="#63b8ff" d="M438.49,-143.71C457.11,-148.06 479.49,-153.3 500.88,-158.3"/>
<polygon fill="#63b8ff" stroke="#63b8ff" points="499.93,-161.67 510.47,-160.54 501.53,-154.85 499.93,-161.67"/>
</a>
</g>
</g>
<!-- Node5 -->
<g id="Node000005" class="node">
<title>Node5</title>
<g id="a_Node000005"><a xlink:href="class_nuki_1_1_nuki_ble.html#a6e8fca90c04249660dce6cb993eb4495" target="_top" xlink:title=" ">
<polygon fill="white" stroke="#666666" points="852.5,-189.88 695.5,-189.88 695.5,-159.38 852.5,-159.38 852.5,-189.88"/>
<text text-anchor="start" x="703.5" y="-176.38" font-family="Helvetica,sans-Serif" font-size="10.00">Nuki::NukiBle::extendDisconnect</text>
<text text-anchor="middle" x="774" y="-165.12" font-family="Helvetica,sans-Serif" font-size="10.00">Timeout</text>
</a>
</g>
</g>
<!-- Node3&#45;&gt;Node5 -->
<g id="edge16_Node000003_Node000005" class="edge">
<title>Node3&#45;&gt;Node5</title>
<g id="a_edge16_Node000003_Node000005"><a xlink:title=" ">
<path fill="none" stroke="#63b8ff" d="M465.4,-136.38C518.77,-139.03 593.98,-143.95 659.5,-152.62 668.65,-153.84 678.18,-155.32 687.65,-156.95"/>
<polygon fill="#63b8ff" stroke="#63b8ff" points="686.78,-160.35 697.23,-158.64 688,-153.45 686.78,-160.35"/>
</a>
</g>
</g>
<!-- Node6 -->
<g id="Node000006" class="node">
<title>Node6</title>
<g id="a_Node000006"><a xlink:href="class_nuki_1_1_nuki_ble.html#ac7ce691d9c3e586474655d1663eb2e20" target="_top" xlink:title=" ">
<polygon fill="white" stroke="#666666" points="840.12,-228.25 707.88,-228.25 707.88,-209 840.12,-209 840.12,-228.25"/>
<text text-anchor="middle" x="774" y="-214.75" font-family="Helvetica,sans-Serif" font-size="10.00">Nuki::NukiBle::logMessage</text>
</a>
</g>
</g>
<!-- Node3&#45;&gt;Node6 -->
<g id="edge18_Node000003_Node000006" class="edge">
<title>Node3&#45;&gt;Node6</title>
<g id="a_edge18_Node000003_Node000006"><a xlink:title=" ">
<path fill="none" stroke="#63b8ff" d="M401.46,-143.67C415.62,-165.91 453.19,-218.91 501,-238.62 578.85,-270.74 679.81,-248.58 734.2,-232.06"/>
<polygon fill="#63b8ff" stroke="#63b8ff" points="735.14,-235.43 743.63,-229.09 733.04,-228.75 735.14,-235.43"/>
</a>
</g>
</g>
<!-- Node7 -->
<g id="Node000007" class="node">
<title>Node7</title>
<g id="a_Node000007"><a xlink:href="class_nuki_1_1_nuki_ble.html#af3650133f46aeca48a5f01b95d23ab71" target="_top" xlink:title=" ">
<polygon fill="white" stroke="#666666" points="847.62,-140.25 700.38,-140.25 700.38,-121 847.62,-121 847.62,-140.25"/>
<text text-anchor="middle" x="774" y="-126.75" font-family="Helvetica,sans-Serif" font-size="10.00">Nuki::NukiBle::logMessageVar</text>
</a>
</g>
</g>
<!-- Node3&#45;&gt;Node7 -->
<g id="edge19_Node000003_Node000007" class="edge">
<title>Node3&#45;&gt;Node7</title>
<g id="a_edge19_Node000003_Node000007"><a xlink:title=" ">
<path fill="none" stroke="#63b8ff" d="M406.34,-123.61C424.44,-107.83 462.42,-77.83 501,-66.62 568.65,-46.98 595.67,-36.82 659.5,-66.62 682.08,-77.17 674.51,-96.19 695.5,-109.62 699.53,-112.2 703.87,-114.47 708.37,-116.46"/>
<polygon fill="#63b8ff" stroke="#63b8ff" points="707.07,-119.71 717.66,-120.06 709.61,-113.18 707.07,-119.71"/>
</a>
</g>
</g>
<!-- Node8 -->
<g id="Node000008" class="node">
<title>Node8</title>
<g id="a_Node000008"><a xlink:href="class_nuki_1_1_nuki_ble.html#a59169a9f492793762e3c6ba39b611b07" target="_top" xlink:title=" ">
<polygon fill="white" stroke="#666666" points="652,-105.88 508.5,-105.88 508.5,-75.38 652,-75.38 652,-105.88"/>
<text text-anchor="start" x="516.5" y="-92.38" font-family="Helvetica,sans-Serif" font-size="10.00">Nuki::NukiBle::cmdChallState</text>
<text text-anchor="middle" x="580.25" y="-81.12" font-family="Helvetica,sans-Serif" font-size="10.00">Machine</text>
</a>
</g>
</g>
<!-- Node3&#45;&gt;Node8 -->
<g id="edge7_Node000003_Node000008" class="edge">
<title>Node3&#45;&gt;Node8</title>
<g id="a_edge7_Node000003_Node000008"><a xlink:title=" ">
<path fill="none" stroke="#63b8ff" d="M438.49,-123.54C457.11,-119.19 479.49,-113.95 500.88,-108.95"/>
<polygon fill="#63b8ff" stroke="#63b8ff" points="501.53,-112.4 510.47,-106.71 499.93,-105.58 501.53,-112.4"/>
</a>
</g>
</g>
<!-- Node10 -->
<g id="Node000010" class="node">
<title>Node10</title>
<g id="a_Node000010"><a xlink:href="class_nuki_1_1_nuki_ble.html#ad135bb1455665decfddff67772c1d411" target="_top" xlink:title=" ">
<polygon fill="white" stroke="#666666" points="659.5,-229.25 501,-229.25 501,-210 659.5,-210 659.5,-229.25"/>
<text text-anchor="middle" x="580.25" y="-215.75" font-family="Helvetica,sans-Serif" font-size="10.00">Nuki::NukiBle::cmdStateMachine</text>
</a>
</g>
</g>
<!-- Node3&#45;&gt;Node10 -->
<g id="edge12_Node000003_Node000010" class="edge">
<title>Node3&#45;&gt;Node10</title>
<g id="a_edge12_Node000003_Node000010"><a xlink:title=" ">
<path fill="none" stroke="#63b8ff" d="M407.95,-143.55C427,-158.13 464.82,-185.26 501,-200.62 505.97,-202.73 511.21,-204.64 516.54,-206.35"/>
<polygon fill="#63b8ff" stroke="#63b8ff" points="515.51,-209.7 526.09,-209.18 517.49,-202.99 515.51,-209.7"/>
</a>
</g>
</g>
<!-- Node11 -->
<g id="Node000011" class="node">
<title>Node11</title>
<g id="a_Node000011"><a xlink:href="class_nuki_1_1_nuki_ble.html#a050f54fbfcea03dc5238e8c66a7e89ca" target="_top" xlink:title="Returns pairing state (if credentials are stored or not)">
<polygon fill="white" stroke="#666666" points="658.38,-19.25 502.12,-19.25 502.12,0 658.38,0 658.38,-19.25"/>
<text text-anchor="middle" x="580.25" y="-5.75" font-family="Helvetica,sans-Serif" font-size="10.00">Nuki::NukiBle::isPairedWithLock</text>
</a>
</g>
</g>
<!-- Node3&#45;&gt;Node11 -->
<g id="edge17_Node000003_Node000011" class="edge">
<title>Node3&#45;&gt;Node11</title>
<g id="a_edge17_Node000003_Node000011"><a xlink:title=" ">
<path fill="none" stroke="#63b8ff" d="M403.26,-123.52C419.44,-103.47 458.46,-58.43 501,-33.62 507.84,-29.64 515.41,-26.25 523.07,-23.38"/>
<polygon fill="#63b8ff" stroke="#63b8ff" points="524.13,-26.72 532.46,-20.17 521.87,-20.1 524.13,-26.72"/>
</a>
</g>
</g>
<!-- Node4&#45;&gt;Node5 -->
<g id="edge4_Node000004_Node000005" class="edge">
<title>Node4&#45;&gt;Node5</title>
<g id="a_edge4_Node000004_Node000005"><a xlink:title=" ">
<path fill="none" stroke="#63b8ff" d="M649.39,-175.91C660.54,-175.8 672.22,-175.68 683.78,-175.56"/>
<polygon fill="#63b8ff" stroke="#63b8ff" points="683.8,-179.06 693.76,-175.45 683.72,-172.06 683.8,-179.06"/>
</a>
</g>
</g>
<!-- Node4&#45;&gt;Node6 -->
<g id="edge5_Node000004_Node000006" class="edge">
<title>Node4&#45;&gt;Node6</title>
<g id="a_edge5_Node000004_Node000006"><a xlink:title=" ">
<path fill="none" stroke="#63b8ff" d="M649.39,-191.55C671.2,-196.33 695.1,-201.56 716.03,-206.15"/>
<polygon fill="#63b8ff" stroke="#63b8ff" points="715,-209.5 725.51,-208.22 716.49,-202.67 715,-209.5"/>
</a>
</g>
</g>
<!-- Node4&#45;&gt;Node7 -->
<g id="edge6_Node000004_Node000007" class="edge">
<title>Node4&#45;&gt;Node7</title>
<g id="a_edge6_Node000004_Node000007"><a xlink:title=" ">
<path fill="none" stroke="#63b8ff" d="M646.7,-160.92C670.56,-155.2 697.21,-148.81 719.86,-143.37"/>
<polygon fill="#63b8ff" stroke="#63b8ff" points="720.59,-146.8 729.5,-141.06 718.96,-139.99 720.59,-146.8"/>
</a>
</g>
</g>
<!-- Node8&#45;&gt;Node5 -->
<g id="edge8_Node000008_Node000005" class="edge">
<title>Node8&#45;&gt;Node5</title>
<g id="a_edge8_Node000008_Node000005"><a xlink:title=" ">
<path fill="none" stroke="#63b8ff" d="M631.25,-106.26C640.9,-110.07 650.72,-114.54 659.5,-119.62 677.52,-130.06 677.26,-139.58 695.5,-149.62 698.66,-151.36 701.96,-153 705.33,-154.55"/>
<polygon fill="#63b8ff" stroke="#63b8ff" points="703.68,-157.65 714.26,-158.31 706.4,-151.2 703.68,-157.65"/>
</a>
</g>
</g>
<!-- Node8&#45;&gt;Node6 -->
<g id="edge10_Node000008_Node000006" class="edge">
<title>Node8&#45;&gt;Node6</title>
<g id="a_edge10_Node000008_Node000006"><a xlink:title=" ">
<path fill="none" stroke="#63b8ff" d="M603.66,-106.17C619.97,-118 642.15,-135.17 659.5,-152.62 677.8,-171.04 673.78,-184.41 695.5,-198.62 698.74,-200.74 702.19,-202.64 705.76,-204.33"/>
<polygon fill="#63b8ff" stroke="#63b8ff" points="704.14,-207.45 714.72,-208.02 706.8,-200.98 704.14,-207.45"/>
</a>
</g>
</g>
<!-- Node8&#45;&gt;Node7 -->
<g id="edge11_Node000008_Node000007" class="edge">
<title>Node8&#45;&gt;Node7</title>
<g id="a_edge11_Node000008_Node000007"><a xlink:title=" ">
<path fill="none" stroke="#63b8ff" d="M652.38,-105.46C672.51,-109.66 694.21,-114.19 713.58,-118.23"/>
<polygon fill="#63b8ff" stroke="#63b8ff" points="712.7,-121.62 723.2,-120.24 714.13,-114.77 712.7,-121.62"/>
</a>
</g>
</g>
<!-- Node9 -->
<g id="Node000009" class="node">
<title>Node9</title>
<g id="a_Node000009"><a xlink:href="class_nuki_1_1_nuki_ble.html#a25207bb564a4b54b8dd8c872177b53a7" target="_top" xlink:title="Returns if BLE is pairing/paired/connected with a Smart Lock Ultra.">
<polygon fill="white" stroke="#666666" points="839,-100.25 709,-100.25 709,-81 839,-81 839,-100.25"/>
<text text-anchor="middle" x="774" y="-86.75" font-family="Helvetica,sans-Serif" font-size="10.00">Nuki::NukiBle::isLockUltra</text>
</a>
</g>
</g>
<!-- Node8&#45;&gt;Node9 -->
<g id="edge9_Node000008_Node000009" class="edge">
<title>Node8&#45;&gt;Node9</title>
<g id="a_edge9_Node000008_Node000009"><a xlink:title=" ">
<path fill="none" stroke="#63b8ff" d="M652.38,-90.62C667.07,-90.62 682.6,-90.62 697.44,-90.62"/>
<polygon fill="#63b8ff" stroke="#63b8ff" points="697.12,-94.13 707.12,-90.63 697.12,-87.13 697.12,-94.13"/>
</a>
</g>
</g>
<!-- Node10&#45;&gt;Node5 -->
<g id="edge13_Node000010_Node000005" class="edge">
<title>Node10&#45;&gt;Node5</title>
<g id="a_edge13_Node000010_Node000005"><a xlink:title=" ">
<path fill="none" stroke="#63b8ff" d="M624.28,-209.53C645.16,-204.63 670.89,-198.59 695.05,-192.92"/>
<polygon fill="#63b8ff" stroke="#63b8ff" points="695.61,-196.38 704.54,-190.69 694.01,-189.57 695.61,-196.38"/>
</a>
</g>
</g>
<!-- Node10&#45;&gt;Node6 -->
<g id="edge14_Node000010_Node000006" class="edge">
<title>Node10&#45;&gt;Node6</title>
<g id="a_edge14_Node000010_Node000006"><a xlink:title=" ">
<path fill="none" stroke="#63b8ff" d="M659.8,-219.22C671.79,-219.15 684.15,-219.09 696.11,-219.03"/>
<polygon fill="#63b8ff" stroke="#63b8ff" points="695.93,-222.53 705.91,-218.97 695.89,-215.53 695.93,-222.53"/>
</a>
</g>
</g>
<!-- Node10&#45;&gt;Node7 -->
<g id="edge15_Node000010_Node000007" class="edge">
<title>Node10&#45;&gt;Node7</title>
<g id="a_edge15_Node000010_Node000007"><a xlink:title=" ">
<path fill="none" stroke="#63b8ff" d="M641.66,-209.65C647.96,-207.26 654.05,-204.29 659.5,-200.62 682.22,-185.33 672.89,-166.08 695.5,-150.62 698.39,-148.65 701.46,-146.87 704.65,-145.27"/>
<polygon fill="#63b8ff" stroke="#63b8ff" points="705.98,-148.5 713.77,-141.32 703.2,-142.08 705.98,-148.5"/>
</a>
</g>
</g>
</g>
</svg>
