<?xml version="1.0" encoding="UTF-8" standalone="no"?>
<!DOCTYPE svg PUBLIC "-//W3C//DTD SVG 1.1//EN"
 "http://www.w3.org/Graphics/SVG/1.1/DTD/svg11.dtd">
<!-- Generated by graphviz version 12.2.1 (20241206.2353)
 -->
<!-- Title: NukiOpener::NukiOpener::setName Pages: 1 -->
<svg width="858pt" height="263pt"
 viewBox="0.00 0.00 857.50 263.03" xmlns="http://www.w3.org/2000/svg" xmlns:xlink="http://www.w3.org/1999/xlink">
<g id="graph0" class="graph" transform="scale(1 1) rotate(0) translate(4 259.03)">
<title>NukiOpener::NukiOpener::setName</title>
<!-- Node1 -->
<g id="Node000001" class="node">
<title>Node1</title>
<g id="a_Node000001"><a xlink:title="Gets the current config from the opener, updates the name parameter and sends the new config to the o...">
<polygon fill="#999999" stroke="#666666" points="124,-169.88 0,-169.88 0,-139.38 124,-139.38 124,-169.88"/>
<text text-anchor="start" x="8" y="-156.38" font-family="Helvetica,sans-Serif" font-size="10.00">NukiOpener::NukiOpener</text>
<text text-anchor="middle" x="62" y="-145.12" font-family="Helvetica,sans-Serif" font-size="10.00">::setName</text>
</a>
</g>
</g>
<!-- Node2 -->
<g id="Node000002" class="node">
<title>Node2</title>
<g id="a_Node000002"><a xlink:href="namespace_nuki_opener.html#abe42ec4ff1fe8d7a2324598ccb90732d" target="_top" xlink:title=" ">
<polygon fill="white" stroke="#666666" points="284.75,-186.25 160,-186.25 160,-167 284.75,-167 284.75,-186.25"/>
<text text-anchor="middle" x="222.38" y="-172.75" font-family="Helvetica,sans-Serif" font-size="10.00">NukiOpener::logMessage</text>
</a>
</g>
</g>
<!-- Node1&#45;&gt;Node2 -->
<g id="edge1_Node000001_Node000002" class="edge">
<title>Node1&#45;&gt;Node2</title>
<g id="a_edge1_Node000001_Node000002"><a xlink:title=" ">
<path fill="none" stroke="#63b8ff" d="M124.23,-163.13C132.1,-164.22 140.22,-165.35 148.25,-166.47"/>
<polygon fill="#63b8ff" stroke="#63b8ff" points="147.64,-169.92 158.02,-167.82 148.6,-162.98 147.64,-169.92"/>
</a>
</g>
</g>
<!-- Node3 -->
<g id="Node000003" class="node">
<title>Node3</title>
<g id="a_Node000003"><a xlink:href="class_nuki_opener_1_1_nuki_opener.html#ae0e0e3fef5bdadbbfe58d2eaa74f74dc" target="_top" xlink:title="Requests config from Opener via BLE.">
<polygon fill="white" stroke="#666666" points="284.38,-148.88 160.38,-148.88 160.38,-118.38 284.38,-118.38 284.38,-148.88"/>
<text text-anchor="start" x="168.38" y="-135.38" font-family="Helvetica,sans-Serif" font-size="10.00">NukiOpener::NukiOpener</text>
<text text-anchor="middle" x="222.38" y="-124.12" font-family="Helvetica,sans-Serif" font-size="10.00">::requestConfig</text>
</a>
</g>
</g>
<!-- Node1&#45;&gt;Node3 -->
<g id="edge2_Node000001_Node000003" class="edge">
<title>Node1&#45;&gt;Node3</title>
<g id="a_edge2_Node000001_Node000003"><a xlink:title=" ">
<path fill="none" stroke="#63b8ff" d="M124.23,-146.51C132.31,-145.43 140.65,-144.33 148.9,-143.24"/>
<polygon fill="#63b8ff" stroke="#63b8ff" points="149.09,-146.74 158.54,-141.96 148.17,-139.8 149.09,-146.74"/>
</a>
</g>
</g>
<!-- Node4 -->
<g id="Node000004" class="node">
<title>Node4</title>
<g id="a_Node000004"><a xlink:href="class_nuki_1_1_nuki_ble.html#af1f1e299e8d97e053bba80e92ba285d6" target="_top" xlink:title=" ">
<polygon fill="white" stroke="#666666" points="462,-143.25 320.75,-143.25 320.75,-124 462,-124 462,-143.25"/>
<text text-anchor="middle" x="391.38" y="-129.75" font-family="Helvetica,sans-Serif" font-size="10.00">Nuki::NukiBle::executeAction</text>
</a>
</g>
</g>
<!-- Node3&#45;&gt;Node4 -->
<g id="edge3_Node000003_Node000004" class="edge">
<title>Node3&#45;&gt;Node4</title>
<g id="a_edge3_Node000003_Node000004"><a xlink:title=" ">
<path fill="none" stroke="#63b8ff" d="M284.61,-133.62C292.52,-133.62 300.72,-133.62 308.89,-133.62"/>
<polygon fill="#63b8ff" stroke="#63b8ff" points="308.88,-137.13 318.88,-133.63 308.88,-130.13 308.88,-137.13"/>
</a>
</g>
</g>
<!-- Node5 -->
<g id="Node000005" class="node">
<title>Node5</title>
<g id="a_Node000005"><a xlink:href="class_nuki_1_1_nuki_ble.html#ada0f3beebd95d35c122e25dd3f9eb886" target="_top" xlink:title=" ">
<polygon fill="white" stroke="#666666" points="646,-191.88 508.5,-191.88 508.5,-161.38 646,-161.38 646,-191.88"/>
<text text-anchor="start" x="516.5" y="-178.38" font-family="Helvetica,sans-Serif" font-size="10.00">Nuki::NukiBle::cmdChallAcc</text>
<text text-anchor="middle" x="577.25" y="-167.12" font-family="Helvetica,sans-Serif" font-size="10.00">StateMachine</text>
</a>
</g>
</g>
<!-- Node4&#45;&gt;Node5 -->
<g id="edge4_Node000004_Node000005" class="edge">
<title>Node4&#45;&gt;Node5</title>
<g id="a_edge4_Node000004_Node000005"><a xlink:title=" ">
<path fill="none" stroke="#63b8ff" d="M435.49,-143.71C454.11,-148.06 476.49,-153.3 497.88,-158.3"/>
<polygon fill="#63b8ff" stroke="#63b8ff" points="496.93,-161.67 507.47,-160.54 498.53,-154.85 496.93,-161.67"/>
</a>
</g>
</g>
<!-- Node6 -->
<g id="Node000006" class="node">
<title>Node6</title>
<g id="a_Node000006"><a xlink:href="class_nuki_1_1_nuki_ble.html#a6e8fca90c04249660dce6cb993eb4495" target="_top" xlink:title=" ">
<polygon fill="white" stroke="#666666" points="849.5,-189.88 692.5,-189.88 692.5,-159.38 849.5,-159.38 849.5,-189.88"/>
<text text-anchor="start" x="700.5" y="-176.38" font-family="Helvetica,sans-Serif" font-size="10.00">Nuki::NukiBle::extendDisconnect</text>
<text text-anchor="middle" x="771" y="-165.12" font-family="Helvetica,sans-Serif" font-size="10.00">Timeout</text>
</a>
</g>
</g>
<!-- Node4&#45;&gt;Node6 -->
<g id="edge17_Node000004_Node000006" class="edge">
<title>Node4&#45;&gt;Node6</title>
<g id="a_edge17_Node000004_Node000006"><a xlink:title=" ">
<path fill="none" stroke="#63b8ff" d="M462.4,-136.38C515.77,-139.03 590.98,-143.95 656.5,-152.62 665.65,-153.84 675.18,-155.32 684.65,-156.95"/>
<polygon fill="#63b8ff" stroke="#63b8ff" points="683.78,-160.35 694.23,-158.64 685,-153.45 683.78,-160.35"/>
</a>
</g>
</g>
<!-- Node7 -->
<g id="Node000007" class="node">
<title>Node7</title>
<g id="a_Node000007"><a xlink:href="class_nuki_1_1_nuki_ble.html#ac7ce691d9c3e586474655d1663eb2e20" target="_top" xlink:title=" ">
<polygon fill="white" stroke="#666666" points="837.12,-228.25 704.88,-228.25 704.88,-209 837.12,-209 837.12,-228.25"/>
<text text-anchor="middle" x="771" y="-214.75" font-family="Helvetica,sans-Serif" font-size="10.00">Nuki::NukiBle::logMessage</text>
</a>
</g>
</g>
<!-- Node4&#45;&gt;Node7 -->
<g id="edge19_Node000004_Node000007" class="edge">
<title>Node4&#45;&gt;Node7</title>
<g id="a_edge19_Node000004_Node000007"><a xlink:title=" ">
<path fill="none" stroke="#63b8ff" d="M398.46,-143.67C412.62,-165.91 450.19,-218.91 498,-238.62 575.85,-270.74 676.81,-248.58 731.2,-232.06"/>
<polygon fill="#63b8ff" stroke="#63b8ff" points="732.14,-235.43 740.63,-229.09 730.04,-228.75 732.14,-235.43"/>
</a>
</g>
</g>
<!-- Node8 -->
<g id="Node000008" class="node">
<title>Node8</title>
<g id="a_Node000008"><a xlink:href="class_nuki_1_1_nuki_ble.html#af3650133f46aeca48a5f01b95d23ab71" target="_top" xlink:title=" ">
<polygon fill="white" stroke="#666666" points="844.62,-140.25 697.38,-140.25 697.38,-121 844.62,-121 844.62,-140.25"/>
<text text-anchor="middle" x="771" y="-126.75" font-family="Helvetica,sans-Serif" font-size="10.00">Nuki::NukiBle::logMessageVar</text>
</a>
</g>
</g>
<!-- Node4&#45;&gt;Node8 -->
<g id="edge20_Node000004_Node000008" class="edge">
<title>Node4&#45;&gt;Node8</title>
<g id="a_edge20_Node000004_Node000008"><a xlink:title=" ">
<path fill="none" stroke="#63b8ff" d="M403.34,-123.61C421.44,-107.83 459.42,-77.83 498,-66.62 565.65,-46.98 592.67,-36.82 656.5,-66.62 679.08,-77.17 671.51,-96.19 692.5,-109.62 696.53,-112.2 700.87,-114.47 705.37,-116.46"/>
<polygon fill="#63b8ff" stroke="#63b8ff" points="704.07,-119.71 714.66,-120.06 706.61,-113.18 704.07,-119.71"/>
</a>
</g>
</g>
<!-- Node9 -->
<g id="Node000009" class="node">
<title>Node9</title>
<g id="a_Node000009"><a xlink:href="class_nuki_1_1_nuki_ble.html#a59169a9f492793762e3c6ba39b611b07" target="_top" xlink:title=" ">
<polygon fill="white" stroke="#666666" points="649,-105.88 505.5,-105.88 505.5,-75.38 649,-75.38 649,-105.88"/>
<text text-anchor="start" x="513.5" y="-92.38" font-family="Helvetica,sans-Serif" font-size="10.00">Nuki::NukiBle::cmdChallState</text>
<text text-anchor="middle" x="577.25" y="-81.12" font-family="Helvetica,sans-Serif" font-size="10.00">Machine</text>
</a>
</g>
</g>
<!-- Node4&#45;&gt;Node9 -->
<g id="edge8_Node000004_Node000009" class="edge">
<title>Node4&#45;&gt;Node9</title>
<g id="a_edge8_Node000004_Node000009"><a xlink:title=" ">
<path fill="none" stroke="#63b8ff" d="M435.49,-123.54C454.11,-119.19 476.49,-113.95 497.88,-108.95"/>
<polygon fill="#63b8ff" stroke="#63b8ff" points="498.53,-112.4 507.47,-106.71 496.93,-105.58 498.53,-112.4"/>
</a>
</g>
</g>
<!-- Node11 -->
<g id="Node000011" class="node">
<title>Node11</title>
<g id="a_Node000011"><a xlink:href="class_nuki_1_1_nuki_ble.html#ad135bb1455665decfddff67772c1d411" target="_top" xlink:title=" ">
<polygon fill="white" stroke="#666666" points="656.5,-229.25 498,-229.25 498,-210 656.5,-210 656.5,-229.25"/>
<text text-anchor="middle" x="577.25" y="-215.75" font-family="Helvetica,sans-Serif" font-size="10.00">Nuki::NukiBle::cmdStateMachine</text>
</a>
</g>
</g>
<!-- Node4&#45;&gt;Node11 -->
<g id="edge13_Node000004_Node000011" class="edge">
<title>Node4&#45;&gt;Node11</title>
<g id="a_edge13_Node000004_Node000011"><a xlink:title=" ">
<path fill="none" stroke="#63b8ff" d="M404.95,-143.55C424,-158.13 461.82,-185.26 498,-200.62 502.97,-202.73 508.21,-204.64 513.54,-206.35"/>
<polygon fill="#63b8ff" stroke="#63b8ff" points="512.51,-209.7 523.09,-209.18 514.49,-202.99 512.51,-209.7"/>
</a>
</g>
</g>
<!-- Node12 -->
<g id="Node000012" class="node">
<title>Node12</title>
<g id="a_Node000012"><a xlink:href="class_nuki_1_1_nuki_ble.html#a050f54fbfcea03dc5238e8c66a7e89ca" target="_top" xlink:title="Returns pairing state (if credentials are stored or not)">
<polygon fill="white" stroke="#666666" points="655.38,-19.25 499.12,-19.25 499.12,0 655.38,0 655.38,-19.25"/>
<text text-anchor="middle" x="577.25" y="-5.75" font-family="Helvetica,sans-Serif" font-size="10.00">Nuki::NukiBle::isPairedWithLock</text>
</a>
</g>
</g>
<!-- Node4&#45;&gt;Node12 -->
<g id="edge18_Node000004_Node000012" class="edge">
<title>Node4&#45;&gt;Node12</title>
<g id="a_edge18_Node000004_Node000012"><a xlink:title=" ">
<path fill="none" stroke="#63b8ff" d="M400.26,-123.52C416.44,-103.47 455.46,-58.43 498,-33.62 504.84,-29.64 512.41,-26.25 520.07,-23.38"/>
<polygon fill="#63b8ff" stroke="#63b8ff" points="521.13,-26.72 529.46,-20.17 518.87,-20.1 521.13,-26.72"/>
</a>
</g>
</g>
<!-- Node5&#45;&gt;Node6 -->
<g id="edge5_Node000005_Node000006" class="edge">
<title>Node5&#45;&gt;Node6</title>
<g id="a_edge5_Node000005_Node000006"><a xlink:title=" ">
<path fill="none" stroke="#63b8ff" d="M646.39,-175.91C657.54,-175.8 669.22,-175.68 680.78,-175.56"/>
<polygon fill="#63b8ff" stroke="#63b8ff" points="680.8,-179.06 690.76,-175.45 680.72,-172.06 680.8,-179.06"/>
</a>
</g>
</g>
<!-- Node5&#45;&gt;Node7 -->
<g id="edge6_Node000005_Node000007" class="edge">
<title>Node5&#45;&gt;Node7</title>
<g id="a_edge6_Node000005_Node000007"><a xlink:title=" ">
<path fill="none" stroke="#63b8ff" d="M646.39,-191.55C668.2,-196.33 692.1,-201.56 713.03,-206.15"/>
<polygon fill="#63b8ff" stroke="#63b8ff" points="712,-209.5 722.51,-208.22 713.49,-202.67 712,-209.5"/>
</a>
</g>
</g>
<!-- Node5&#45;&gt;Node8 -->
<g id="edge7_Node000005_Node000008" class="edge">
<title>Node5&#45;&gt;Node8</title>
<g id="a_edge7_Node000005_Node000008"><a xlink:title=" ">
<path fill="none" stroke="#63b8ff" d="M643.7,-160.92C667.56,-155.2 694.21,-148.81 716.86,-143.37"/>
<polygon fill="#63b8ff" stroke="#63b8ff" points="717.59,-146.8 726.5,-141.06 715.96,-139.99 717.59,-146.8"/>
</a>
</g>
</g>
<!-- Node9&#45;&gt;Node6 -->
<g id="edge9_Node000009_Node000006" class="edge">
<title>Node9&#45;&gt;Node6</title>
<g id="a_edge9_Node000009_Node000006"><a xlink:title=" ">
<path fill="none" stroke="#63b8ff" d="M628.25,-106.26C637.9,-110.07 647.72,-114.54 656.5,-119.62 674.52,-130.06 674.26,-139.58 692.5,-149.62 695.66,-151.36 698.96,-153 702.33,-154.55"/>
<polygon fill="#63b8ff" stroke="#63b8ff" points="700.68,-157.65 711.26,-158.31 703.4,-151.2 700.68,-157.65"/>
</a>
</g>
</g>
<!-- Node9&#45;&gt;Node7 -->
<g id="edge11_Node000009_Node000007" class="edge">
<title>Node9&#45;&gt;Node7</title>
<g id="a_edge11_Node000009_Node000007"><a xlink:title=" ">
<path fill="none" stroke="#63b8ff" d="M600.66,-106.17C616.97,-118 639.15,-135.17 656.5,-152.62 674.8,-171.04 670.78,-184.41 692.5,-198.62 695.74,-200.74 699.19,-202.64 702.76,-204.33"/>
<polygon fill="#63b8ff" stroke="#63b8ff" points="701.14,-207.45 711.72,-208.02 703.8,-200.98 701.14,-207.45"/>
</a>
</g>
</g>
<!-- Node9&#45;&gt;Node8 -->
<g id="edge12_Node000009_Node000008" class="edge">
<title>Node9&#45;&gt;Node8</title>
<g id="a_edge12_Node000009_Node000008"><a xlink:title=" ">
<path fill="none" stroke="#63b8ff" d="M649.38,-105.46C669.51,-109.66 691.21,-114.19 710.58,-118.23"/>
<polygon fill="#63b8ff" stroke="#63b8ff" points="709.7,-121.62 720.2,-120.24 711.13,-114.77 709.7,-121.62"/>
</a>
</g>
</g>
<!-- Node10 -->
<g id="Node000010" class="node">
<title>Node10</title>
<g id="a_Node000010"><a xlink:href="class_nuki_1_1_nuki_ble.html#a25207bb564a4b54b8dd8c872177b53a7" target="_top" xlink:title="Returns if BLE is pairing/paired/connected with a Smart Lock Ultra.">
<polygon fill="white" stroke="#666666" points="836,-100.25 706,-100.25 706,-81 836,-81 836,-100.25"/>
<text text-anchor="middle" x="771" y="-86.75" font-family="Helvetica,sans-Serif" font-size="10.00">Nuki::NukiBle::isLockUltra</text>
</a>
</g>
</g>
<!-- Node9&#45;&gt;Node10 -->
<g id="edge10_Node000009_Node000010" class="edge">
<title>Node9&#45;&gt;Node10</title>
<g id="a_edge10_Node000009_Node000010"><a xlink:title=" ">
<path fill="none" stroke="#63b8ff" d="M649.38,-90.62C664.07,-90.62 679.6,-90.62 694.44,-90.62"/>
<polygon fill="#63b8ff" stroke="#63b8ff" points="694.12,-94.13 704.12,-90.63 694.12,-87.13 694.12,-94.13"/>
</a>
</g>
</g>
<!-- Node11&#45;&gt;Node6 -->
<g id="edge14_Node000011_Node000006" class="edge">
<title>Node11&#45;&gt;Node6</title>
<g id="a_edge14_Node000011_Node000006"><a xlink:title=" ">
<path fill="none" stroke="#63b8ff" d="M621.28,-209.53C642.16,-204.63 667.89,-198.59 692.05,-192.92"/>
<polygon fill="#63b8ff" stroke="#63b8ff" points="692.61,-196.38 701.54,-190.69 691.01,-189.57 692.61,-196.38"/>
</a>
</g>
</g>
<!-- Node11&#45;&gt;Node7 -->
<g id="edge15_Node000011_Node000007" class="edge">
<title>Node11&#45;&gt;Node7</title>
<g id="a_edge15_Node000011_Node000007"><a xlink:title=" ">
<path fill="none" stroke="#63b8ff" d="M656.8,-219.22C668.79,-219.15 681.15,-219.09 693.11,-219.03"/>
<polygon fill="#63b8ff" stroke="#63b8ff" points="692.93,-222.53 702.91,-218.97 692.89,-215.53 692.93,-222.53"/>
</a>
</g>
</g>
<!-- Node11&#45;&gt;Node8 -->
<g id="edge16_Node000011_Node000008" class="edge">
<title>Node11&#45;&gt;Node8</title>
<g id="a_edge16_Node000011_Node000008"><a xlink:title=" ">
<path fill="none" stroke="#63b8ff" d="M638.66,-209.65C644.96,-207.26 651.05,-204.29 656.5,-200.62 679.22,-185.33 669.89,-166.08 692.5,-150.62 695.39,-148.65 698.46,-146.87 701.65,-145.27"/>
<polygon fill="#63b8ff" stroke="#63b8ff" points="702.98,-148.5 710.77,-141.32 700.2,-142.08 702.98,-148.5"/>
</a>
</g>
</g>
</g>
</svg>
