<?xml version="1.0" encoding="UTF-8" standalone="no"?>
<!DOCTYPE svg PUBLIC "-//W3C//DTD SVG 1.1//EN"
 "http://www.w3.org/Graphics/SVG/1.1/DTD/svg11.dtd">
<!-- Generated by graphviz version 12.2.1 (20241206.2353)
 -->
<!-- Title: NukiOpener::NukiOpener::setElectricStrikeDuration Pages: 1 -->
<svg width="861pt" height="215pt"
 viewBox="0.00 0.00 860.50 214.53" xmlns="http://www.w3.org/2000/svg" xmlns:xlink="http://www.w3.org/1999/xlink">
<g id="graph0" class="graph" transform="scale(1 1) rotate(0) translate(4 210.53)">
<title>NukiOpener::NukiOpener::setElectricStrikeDuration</title>
<!-- Node1 -->
<g id="Node000001" class="node">
<title>Node1</title>
<g id="a_Node000001"><a xlink:title="Gets the current config from the opener, updates the electric strike duration parameter and sends the...">
<polygon fill="#999999" stroke="#666666" points="127.75,-123.78 0,-123.78 0,-93.28 127.75,-93.28 127.75,-123.78"/>
<text text-anchor="start" x="8" y="-110.28" font-family="Helvetica,sans-Serif" font-size="10.00">NukiOpener::NukiOpener</text>
<text text-anchor="middle" x="63.88" y="-99.03" font-family="Helvetica,sans-Serif" font-size="10.00">::setElectricStrikeDuration</text>
</a>
</g>
</g>
<!-- Node2 -->
<g id="Node000002" class="node">
<title>Node2</title>
<g id="a_Node000002"><a xlink:href="class_nuki_opener_1_1_nuki_opener.html#adf50e8b8e35409d8aa43de69c43535b5" target="_top" xlink:title="Requests advanced config from Opener via BLE.">
<polygon fill="white" stroke="#666666" points="287.75,-123.78 163.75,-123.78 163.75,-93.28 287.75,-93.28 287.75,-123.78"/>
<text text-anchor="start" x="171.75" y="-110.28" font-family="Helvetica,sans-Serif" font-size="10.00">NukiOpener::NukiOpener</text>
<text text-anchor="middle" x="225.75" y="-99.03" font-family="Helvetica,sans-Serif" font-size="10.00">::requestAdvancedConfig</text>
</a>
</g>
</g>
<!-- Node1&#45;&gt;Node2 -->
<g id="edge1_Node000001_Node000002" class="edge">
<title>Node1&#45;&gt;Node2</title>
<g id="a_edge1_Node000001_Node000002"><a xlink:title=" ">
<path fill="none" stroke="#63b8ff" d="M128.06,-108.53C135.95,-108.53 144.07,-108.53 152.09,-108.53"/>
<polygon fill="#63b8ff" stroke="#63b8ff" points="151.81,-112.03 161.81,-108.53 151.81,-105.03 151.81,-112.03"/>
</a>
</g>
</g>
<!-- Node3 -->
<g id="Node000003" class="node">
<title>Node3</title>
<g id="a_Node000003"><a xlink:href="class_nuki_1_1_nuki_ble.html#af1f1e299e8d97e053bba80e92ba285d6" target="_top" xlink:title=" ">
<polygon fill="white" stroke="#666666" points="465,-118.16 323.75,-118.16 323.75,-98.91 465,-98.91 465,-118.16"/>
<text text-anchor="middle" x="394.38" y="-104.66" font-family="Helvetica,sans-Serif" font-size="10.00">Nuki::NukiBle::executeAction</text>
</a>
</g>
</g>
<!-- Node2&#45;&gt;Node3 -->
<g id="edge2_Node000002_Node000003" class="edge">
<title>Node2&#45;&gt;Node3</title>
<g id="a_edge2_Node000002_Node000003"><a xlink:title=" ">
<path fill="none" stroke="#63b8ff" d="M287.85,-108.53C295.68,-108.53 303.79,-108.53 311.87,-108.53"/>
<polygon fill="#63b8ff" stroke="#63b8ff" points="311.75,-112.03 321.75,-108.53 311.75,-105.03 311.75,-112.03"/>
</a>
</g>
</g>
<!-- Node4 -->
<g id="Node000004" class="node">
<title>Node4</title>
<g id="a_Node000004"><a xlink:href="class_nuki_1_1_nuki_ble.html#ada0f3beebd95d35c122e25dd3f9eb886" target="_top" xlink:title=" ">
<polygon fill="white" stroke="#666666" points="649,-145.78 511.5,-145.78 511.5,-115.28 649,-115.28 649,-145.78"/>
<text text-anchor="start" x="519.5" y="-132.28" font-family="Helvetica,sans-Serif" font-size="10.00">Nuki::NukiBle::cmdChallAcc</text>
<text text-anchor="middle" x="580.25" y="-121.03" font-family="Helvetica,sans-Serif" font-size="10.00">StateMachine</text>
</a>
</g>
</g>
<!-- Node3&#45;&gt;Node4 -->
<g id="edge3_Node000003_Node000004" class="edge">
<title>Node3&#45;&gt;Node4</title>
<g id="a_edge3_Node000003_Node000004"><a xlink:title=" ">
<path fill="none" stroke="#63b8ff" d="M465.41,-116.91C476.68,-118.26 488.41,-119.66 499.88,-121.04"/>
<polygon fill="#63b8ff" stroke="#63b8ff" points="499.38,-124.5 509.72,-122.21 500.21,-117.55 499.38,-124.5"/>
</a>
</g>
</g>
<!-- Node5 -->
<g id="Node000005" class="node">
<title>Node5</title>
<g id="a_Node000005"><a xlink:href="class_nuki_1_1_nuki_ble.html#a6e8fca90c04249660dce6cb993eb4495" target="_top" xlink:title=" ">
<polygon fill="white" stroke="#666666" points="852.5,-186.78 695.5,-186.78 695.5,-156.28 852.5,-156.28 852.5,-186.78"/>
<text text-anchor="start" x="703.5" y="-173.28" font-family="Helvetica,sans-Serif" font-size="10.00">Nuki::NukiBle::extendDisconnect</text>
<text text-anchor="middle" x="774" y="-162.03" font-family="Helvetica,sans-Serif" font-size="10.00">Timeout</text>
</a>
</g>
</g>
<!-- Node3&#45;&gt;Node5 -->
<g id="edge16_Node000003_Node000005" class="edge">
<title>Node3&#45;&gt;Node5</title>
<g id="a_edge16_Node000003_Node000005"><a xlink:title=" ">
<path fill="none" stroke="#63b8ff" d="M403.66,-118.58C419.95,-137.45 458.31,-177.63 501,-192.53 570.38,-216.76 655.57,-203.9 711.93,-190.02"/>
<polygon fill="#63b8ff" stroke="#63b8ff" points="712.51,-193.48 721.33,-187.61 710.78,-186.7 712.51,-193.48"/>
</a>
</g>
</g>
<!-- Node6 -->
<g id="Node000006" class="node">
<title>Node6</title>
<g id="a_Node000006"><a xlink:href="class_nuki_1_1_nuki_ble.html#ac7ce691d9c3e586474655d1663eb2e20" target="_top" xlink:title=" ">
<polygon fill="white" stroke="#666666" points="840.12,-137.16 707.88,-137.16 707.88,-117.91 840.12,-117.91 840.12,-137.16"/>
<text text-anchor="middle" x="774" y="-123.66" font-family="Helvetica,sans-Serif" font-size="10.00">Nuki::NukiBle::logMessage</text>
</a>
</g>
</g>
<!-- Node3&#45;&gt;Node6 -->
<g id="edge17_Node000003_Node000006" class="edge">
<title>Node3&#45;&gt;Node6</title>
<g id="a_edge17_Node000003_Node000006"><a xlink:title=" ">
<path fill="none" stroke="#63b8ff" d="M465.26,-107.02C477.18,-106.82 489.45,-106.64 501,-106.53 571.44,-105.87 589.35,-100.1 659.5,-106.53 678.59,-108.28 699.26,-111.66 717.66,-115.2"/>
<polygon fill="#63b8ff" stroke="#63b8ff" points="716.82,-118.6 727.31,-117.12 718.18,-111.73 716.82,-118.6"/>
</a>
</g>
</g>
<!-- Node7 -->
<g id="Node000007" class="node">
<title>Node7</title>
<g id="a_Node000007"><a xlink:href="class_nuki_1_1_nuki_ble.html#af3650133f46aeca48a5f01b95d23ab71" target="_top" xlink:title=" ">
<polygon fill="white" stroke="#666666" points="847.62,-97.16 700.38,-97.16 700.38,-77.91 847.62,-77.91 847.62,-97.16"/>
<text text-anchor="middle" x="774" y="-83.66" font-family="Helvetica,sans-Serif" font-size="10.00">Nuki::NukiBle::logMessageVar</text>
</a>
</g>
</g>
<!-- Node3&#45;&gt;Node7 -->
<g id="edge18_Node000003_Node000007" class="edge">
<title>Node3&#45;&gt;Node7</title>
<g id="a_edge18_Node000003_Node000007"><a xlink:title=" ">
<path fill="none" stroke="#63b8ff" d="M403.05,-98.62C418.86,-79.14 457.24,-36.37 501,-20.53 567.24,3.44 595.67,9.27 659.5,-20.53 682.08,-31.08 674.75,-49.73 695.5,-63.53 701.35,-67.42 707.86,-70.71 714.55,-73.48"/>
<polygon fill="#63b8ff" stroke="#63b8ff" points="713.14,-76.69 723.74,-76.89 715.58,-70.13 713.14,-76.69"/>
</a>
</g>
</g>
<!-- Node8 -->
<g id="Node000008" class="node">
<title>Node8</title>
<g id="a_Node000008"><a xlink:href="class_nuki_1_1_nuki_ble.html#a59169a9f492793762e3c6ba39b611b07" target="_top" xlink:title=" ">
<polygon fill="white" stroke="#666666" points="652,-59.78 508.5,-59.78 508.5,-29.28 652,-29.28 652,-59.78"/>
<text text-anchor="start" x="516.5" y="-46.28" font-family="Helvetica,sans-Serif" font-size="10.00">Nuki::NukiBle::cmdChallState</text>
<text text-anchor="middle" x="580.25" y="-35.03" font-family="Helvetica,sans-Serif" font-size="10.00">Machine</text>
</a>
</g>
</g>
<!-- Node3&#45;&gt;Node8 -->
<g id="edge7_Node000003_Node000008" class="edge">
<title>Node3&#45;&gt;Node8</title>
<g id="a_edge7_Node000003_Node000008"><a xlink:title=" ">
<path fill="none" stroke="#63b8ff" d="M424.11,-98.53C450.6,-89.31 490.68,-75.36 523.46,-63.95"/>
<polygon fill="#63b8ff" stroke="#63b8ff" points="524.55,-67.28 532.84,-60.69 522.24,-60.67 524.55,-67.28"/>
</a>
</g>
</g>
<!-- Node10 -->
<g id="Node000010" class="node">
<title>Node10</title>
<g id="a_Node000010"><a xlink:href="class_nuki_1_1_nuki_ble.html#ad135bb1455665decfddff67772c1d411" target="_top" xlink:title=" ">
<polygon fill="white" stroke="#666666" points="659.5,-183.16 501,-183.16 501,-163.91 659.5,-163.91 659.5,-183.16"/>
<text text-anchor="middle" x="580.25" y="-169.66" font-family="Helvetica,sans-Serif" font-size="10.00">Nuki::NukiBle::cmdStateMachine</text>
</a>
</g>
</g>
<!-- Node3&#45;&gt;Node10 -->
<g id="edge12_Node000003_Node000010" class="edge">
<title>Node3&#45;&gt;Node10</title>
<g id="a_edge12_Node000003_Node000010"><a xlink:title=" ">
<path fill="none" stroke="#63b8ff" d="M415.61,-118.59C436.57,-128.72 470.48,-144.27 501,-154.53 507.52,-156.73 514.43,-158.78 521.33,-160.66"/>
<polygon fill="#63b8ff" stroke="#63b8ff" points="520.09,-163.96 530.65,-163.1 521.86,-157.19 520.09,-163.96"/>
</a>
</g>
</g>
<!-- Node4&#45;&gt;Node5 -->
<g id="edge4_Node000004_Node000005" class="edge">
<title>Node4&#45;&gt;Node5</title>
<g id="a_edge4_Node000004_Node000005"><a xlink:title=" ">
<path fill="none" stroke="#63b8ff" d="M649.39,-145.1C662.09,-147.82 675.5,-150.69 688.62,-153.49"/>
<polygon fill="#63b8ff" stroke="#63b8ff" points="687.56,-156.84 698.07,-155.51 689.02,-150 687.56,-156.84"/>
</a>
</g>
</g>
<!-- Node4&#45;&gt;Node6 -->
<g id="edge5_Node000004_Node000006" class="edge">
<title>Node4&#45;&gt;Node6</title>
<g id="a_edge5_Node000004_Node000006"><a xlink:title=" ">
<path fill="none" stroke="#63b8ff" d="M649.39,-129.47C664.64,-129.23 680.91,-128.97 696.47,-128.73"/>
<polygon fill="#63b8ff" stroke="#63b8ff" points="696.19,-132.24 706.13,-128.58 696.08,-125.24 696.19,-132.24"/>
</a>
</g>
</g>
<!-- Node4&#45;&gt;Node7 -->
<g id="edge6_Node000004_Node000007" class="edge">
<title>Node4&#45;&gt;Node7</title>
<g id="a_edge6_Node000004_Node000007"><a xlink:title=" ">
<path fill="none" stroke="#63b8ff" d="M649.39,-115.25C671.48,-110.3 695.7,-104.87 716.82,-100.13"/>
<polygon fill="#63b8ff" stroke="#63b8ff" points="717.4,-103.59 726.39,-97.99 715.86,-96.76 717.4,-103.59"/>
</a>
</g>
</g>
<!-- Node8&#45;&gt;Node5 -->
<g id="edge8_Node000008_Node000005" class="edge">
<title>Node8&#45;&gt;Node5</title>
<g id="a_edge8_Node000008_Node000005"><a xlink:title=" ">
<path fill="none" stroke="#63b8ff" d="M602.97,-60.19C619.13,-72.21 641.43,-89.57 659.5,-106.53 676.93,-122.91 675.43,-133.53 695.5,-146.53 697.89,-148.08 700.38,-149.54 702.94,-150.91"/>
<polygon fill="#63b8ff" stroke="#63b8ff" points="701.23,-153.97 711.76,-155.15 704.26,-147.66 701.23,-153.97"/>
</a>
</g>
</g>
<!-- Node8&#45;&gt;Node6 -->
<g id="edge10_Node000008_Node000006" class="edge">
<title>Node8&#45;&gt;Node6</title>
<g id="a_edge10_Node000008_Node000006"><a xlink:title=" ">
<path fill="none" stroke="#63b8ff" d="M632.27,-60.17C641.63,-63.94 651.09,-68.4 659.5,-73.53 678.02,-84.85 676.49,-96.06 695.5,-106.53 700.49,-109.28 705.85,-111.68 711.35,-113.78"/>
<polygon fill="#63b8ff" stroke="#63b8ff" points="710,-117.02 720.59,-116.97 712.28,-110.4 710,-117.02"/>
</a>
</g>
</g>
<!-- Node8&#45;&gt;Node7 -->
<g id="edge11_Node000008_Node000007" class="edge">
<title>Node8&#45;&gt;Node7</title>
<g id="a_edge11_Node000008_Node000007"><a xlink:title=" ">
<path fill="none" stroke="#63b8ff" d="M651.29,-60.24C672.86,-65.08 696.32,-70.34 716.84,-74.94"/>
<polygon fill="#63b8ff" stroke="#63b8ff" points="715.9,-78.32 726.42,-77.09 717.43,-71.49 715.9,-78.32"/>
</a>
</g>
</g>
<!-- Node9 -->
<g id="Node000009" class="node">
<title>Node9</title>
<g id="a_Node000009"><a xlink:href="class_nuki_1_1_nuki_ble.html#a25207bb564a4b54b8dd8c872177b53a7" target="_top" xlink:title="Returns if BLE is pairing/paired/connected with a Smart Lock Ultra.">
<polygon fill="white" stroke="#666666" points="839,-54.16 709,-54.16 709,-34.91 839,-34.91 839,-54.16"/>
<text text-anchor="middle" x="774" y="-40.66" font-family="Helvetica,sans-Serif" font-size="10.00">Nuki::NukiBle::isLockUltra</text>
</a>
</g>
</g>
<!-- Node8&#45;&gt;Node9 -->
<g id="edge9_Node000008_Node000009" class="edge">
<title>Node8&#45;&gt;Node9</title>
<g id="a_edge9_Node000008_Node000009"><a xlink:title=" ">
<path fill="none" stroke="#63b8ff" d="M652.38,-44.53C667.07,-44.53 682.6,-44.53 697.44,-44.53"/>
<polygon fill="#63b8ff" stroke="#63b8ff" points="697.12,-48.03 707.12,-44.53 697.12,-41.03 697.12,-48.03"/>
</a>
</g>
</g>
<!-- Node10&#45;&gt;Node5 -->
<g id="edge13_Node000010_Node000005" class="edge">
<title>Node10&#45;&gt;Node5</title>
<g id="a_edge13_Node000010_Node000005"><a xlink:title=" ">
<path fill="none" stroke="#63b8ff" d="M659.8,-172.71C667.74,-172.63 675.85,-172.55 683.89,-172.46"/>
<polygon fill="#63b8ff" stroke="#63b8ff" points="683.72,-175.96 693.68,-172.36 683.65,-168.97 683.72,-175.96"/>
</a>
</g>
</g>
<!-- Node10&#45;&gt;Node6 -->
<g id="edge14_Node000010_Node000006" class="edge">
<title>Node10&#45;&gt;Node6</title>
<g id="a_edge14_Node000010_Node000006"><a xlink:title=" ">
<path fill="none" stroke="#63b8ff" d="M623.33,-163.44C651.8,-156.61 689.64,-147.53 720.14,-140.21"/>
<polygon fill="#63b8ff" stroke="#63b8ff" points="720.64,-143.69 729.55,-137.96 719.01,-136.89 720.64,-143.69"/>
</a>
</g>
</g>
<!-- Node10&#45;&gt;Node7 -->
<g id="edge15_Node000010_Node000007" class="edge">
<title>Node10&#45;&gt;Node7</title>
<g id="a_edge15_Node000010_Node000007"><a xlink:title=" ">
<path fill="none" stroke="#63b8ff" d="M641.11,-163.49C647.58,-161.11 653.86,-158.17 659.5,-154.53 681.32,-140.47 673.87,-122.88 695.5,-108.53 699.25,-106.05 703.28,-103.85 707.47,-101.92"/>
<polygon fill="#63b8ff" stroke="#63b8ff" points="708.76,-105.17 716.72,-98.19 706.14,-98.68 708.76,-105.17"/>
</a>
</g>
</g>
</g>
</svg>
