<?xml version="1.0" encoding="UTF-8" standalone="no"?>
<!DOCTYPE svg PUBLIC "-//W3C//DTD SVG 1.1//EN"
 "http://www.w3.org/Graphics/SVG/1.1/DTD/svg11.dtd">
<!-- Generated by graphviz version 12.2.1 (20241206.2353)
 -->
<!-- Title: NukiLock::NukiLock::retrieveInternalLogEntries Pages: 1 -->
<svg width="704pt" height="263pt"
 viewBox="0.00 0.00 704.25 263.03" xmlns="http://www.w3.org/2000/svg" xmlns:xlink="http://www.w3.org/1999/xlink">
<g id="graph0" class="graph" transform="scale(1 1) rotate(0) translate(4 259.03)">
<title>NukiLock::NukiLock::retrieveInternalLogEntries</title>
<!-- Node1 -->
<g id="Node000001" class="node">
<title>Node1</title>
<g id="a_Node000001"><a xlink:title="Request the lock via BLE to send the internal log entries.">
<polygon fill="#999999" stroke="#666666" points="131.5,-148.88 0,-148.88 0,-118.38 131.5,-118.38 131.5,-148.88"/>
<text text-anchor="start" x="8" y="-135.38" font-family="Helvetica,sans-Serif" font-size="10.00">NukiLock::NukiLock</text>
<text text-anchor="middle" x="65.75" y="-124.12" font-family="Helvetica,sans-Serif" font-size="10.00">::retrieveInternalLogEntries</text>
</a>
</g>
</g>
<!-- Node2 -->
<g id="Node000002" class="node">
<title>Node2</title>
<g id="a_Node000002"><a xlink:href="class_nuki_1_1_nuki_ble.html#af1f1e299e8d97e053bba80e92ba285d6" target="_top" xlink:title=" ">
<polygon fill="white" stroke="#666666" points="308.75,-143.25 167.5,-143.25 167.5,-124 308.75,-124 308.75,-143.25"/>
<text text-anchor="middle" x="238.12" y="-129.75" font-family="Helvetica,sans-Serif" font-size="10.00">Nuki::NukiBle::executeAction</text>
</a>
</g>
</g>
<!-- Node1&#45;&gt;Node2 -->
<g id="edge1_Node000001_Node000002" class="edge">
<title>Node1&#45;&gt;Node2</title>
<g id="a_edge1_Node000001_Node000002"><a xlink:title=" ">
<path fill="none" stroke="#63b8ff" d="M131.65,-133.62C139.51,-133.62 147.62,-133.62 155.68,-133.62"/>
<polygon fill="#63b8ff" stroke="#63b8ff" points="155.5,-137.13 165.5,-133.63 155.5,-130.13 155.5,-137.13"/>
</a>
</g>
</g>
<!-- Node3 -->
<g id="Node000003" class="node">
<title>Node3</title>
<g id="a_Node000003"><a xlink:href="class_nuki_1_1_nuki_ble.html#ada0f3beebd95d35c122e25dd3f9eb886" target="_top" xlink:title=" ">
<polygon fill="white" stroke="#666666" points="492.75,-191.88 355.25,-191.88 355.25,-161.38 492.75,-161.38 492.75,-191.88"/>
<text text-anchor="start" x="363.25" y="-178.38" font-family="Helvetica,sans-Serif" font-size="10.00">Nuki::NukiBle::cmdChallAcc</text>
<text text-anchor="middle" x="424" y="-167.12" font-family="Helvetica,sans-Serif" font-size="10.00">StateMachine</text>
</a>
</g>
</g>
<!-- Node2&#45;&gt;Node3 -->
<g id="edge2_Node000002_Node000003" class="edge">
<title>Node2&#45;&gt;Node3</title>
<g id="a_edge2_Node000002_Node000003"><a xlink:title=" ">
<path fill="none" stroke="#63b8ff" d="M282.24,-143.71C300.86,-148.06 323.24,-153.3 344.63,-158.3"/>
<polygon fill="#63b8ff" stroke="#63b8ff" points="343.68,-161.67 354.22,-160.54 345.28,-154.85 343.68,-161.67"/>
</a>
</g>
</g>
<!-- Node4 -->
<g id="Node000004" class="node">
<title>Node4</title>
<g id="a_Node000004"><a xlink:href="class_nuki_1_1_nuki_ble.html#a6e8fca90c04249660dce6cb993eb4495" target="_top" xlink:title=" ">
<polygon fill="white" stroke="#666666" points="696.25,-189.88 539.25,-189.88 539.25,-159.38 696.25,-159.38 696.25,-189.88"/>
<text text-anchor="start" x="547.25" y="-176.38" font-family="Helvetica,sans-Serif" font-size="10.00">Nuki::NukiBle::extendDisconnect</text>
<text text-anchor="middle" x="617.75" y="-165.12" font-family="Helvetica,sans-Serif" font-size="10.00">Timeout</text>
</a>
</g>
</g>
<!-- Node2&#45;&gt;Node4 -->
<g id="edge15_Node000002_Node000004" class="edge">
<title>Node2&#45;&gt;Node4</title>
<g id="a_edge15_Node000002_Node000004"><a xlink:title=" ">
<path fill="none" stroke="#63b8ff" d="M309.15,-136.38C362.52,-139.03 437.73,-143.95 503.25,-152.62 512.4,-153.84 521.93,-155.32 531.4,-156.95"/>
<polygon fill="#63b8ff" stroke="#63b8ff" points="530.53,-160.35 540.98,-158.64 531.75,-153.45 530.53,-160.35"/>
</a>
</g>
</g>
<!-- Node5 -->
<g id="Node000005" class="node">
<title>Node5</title>
<g id="a_Node000005"><a xlink:href="class_nuki_1_1_nuki_ble.html#ac7ce691d9c3e586474655d1663eb2e20" target="_top" xlink:title=" ">
<polygon fill="white" stroke="#666666" points="683.88,-228.25 551.62,-228.25 551.62,-209 683.88,-209 683.88,-228.25"/>
<text text-anchor="middle" x="617.75" y="-214.75" font-family="Helvetica,sans-Serif" font-size="10.00">Nuki::NukiBle::logMessage</text>
</a>
</g>
</g>
<!-- Node2&#45;&gt;Node5 -->
<g id="edge17_Node000002_Node000005" class="edge">
<title>Node2&#45;&gt;Node5</title>
<g id="a_edge17_Node000002_Node000005"><a xlink:title=" ">
<path fill="none" stroke="#63b8ff" d="M245.21,-143.67C259.37,-165.91 296.94,-218.91 344.75,-238.62 422.6,-270.74 523.56,-248.58 577.95,-232.06"/>
<polygon fill="#63b8ff" stroke="#63b8ff" points="578.89,-235.43 587.38,-229.09 576.79,-228.75 578.89,-235.43"/>
</a>
</g>
</g>
<!-- Node6 -->
<g id="Node000006" class="node">
<title>Node6</title>
<g id="a_Node000006"><a xlink:href="class_nuki_1_1_nuki_ble.html#af3650133f46aeca48a5f01b95d23ab71" target="_top" xlink:title=" ">
<polygon fill="white" stroke="#666666" points="691.38,-140.25 544.12,-140.25 544.12,-121 691.38,-121 691.38,-140.25"/>
<text text-anchor="middle" x="617.75" y="-126.75" font-family="Helvetica,sans-Serif" font-size="10.00">Nuki::NukiBle::logMessageVar</text>
</a>
</g>
</g>
<!-- Node2&#45;&gt;Node6 -->
<g id="edge18_Node000002_Node000006" class="edge">
<title>Node2&#45;&gt;Node6</title>
<g id="a_edge18_Node000002_Node000006"><a xlink:title=" ">
<path fill="none" stroke="#63b8ff" d="M250.09,-123.61C268.19,-107.83 306.17,-77.83 344.75,-66.62 412.4,-46.98 439.42,-36.82 503.25,-66.62 525.83,-77.17 518.26,-96.19 539.25,-109.62 543.28,-112.2 547.62,-114.47 552.12,-116.46"/>
<polygon fill="#63b8ff" stroke="#63b8ff" points="550.82,-119.71 561.41,-120.06 553.36,-113.18 550.82,-119.71"/>
</a>
</g>
</g>
<!-- Node7 -->
<g id="Node000007" class="node">
<title>Node7</title>
<g id="a_Node000007"><a xlink:href="class_nuki_1_1_nuki_ble.html#a59169a9f492793762e3c6ba39b611b07" target="_top" xlink:title=" ">
<polygon fill="white" stroke="#666666" points="495.75,-105.88 352.25,-105.88 352.25,-75.38 495.75,-75.38 495.75,-105.88"/>
<text text-anchor="start" x="360.25" y="-92.38" font-family="Helvetica,sans-Serif" font-size="10.00">Nuki::NukiBle::cmdChallState</text>
<text text-anchor="middle" x="424" y="-81.12" font-family="Helvetica,sans-Serif" font-size="10.00">Machine</text>
</a>
</g>
</g>
<!-- Node2&#45;&gt;Node7 -->
<g id="edge6_Node000002_Node000007" class="edge">
<title>Node2&#45;&gt;Node7</title>
<g id="a_edge6_Node000002_Node000007"><a xlink:title=" ">
<path fill="none" stroke="#63b8ff" d="M282.24,-123.54C300.86,-119.19 323.24,-113.95 344.63,-108.95"/>
<polygon fill="#63b8ff" stroke="#63b8ff" points="345.28,-112.4 354.22,-106.71 343.68,-105.58 345.28,-112.4"/>
</a>
</g>
</g>
<!-- Node9 -->
<g id="Node000009" class="node">
<title>Node9</title>
<g id="a_Node000009"><a xlink:href="class_nuki_1_1_nuki_ble.html#ad135bb1455665decfddff67772c1d411" target="_top" xlink:title=" ">
<polygon fill="white" stroke="#666666" points="503.25,-229.25 344.75,-229.25 344.75,-210 503.25,-210 503.25,-229.25"/>
<text text-anchor="middle" x="424" y="-215.75" font-family="Helvetica,sans-Serif" font-size="10.00">Nuki::NukiBle::cmdStateMachine</text>
</a>
</g>
</g>
<!-- Node2&#45;&gt;Node9 -->
<g id="edge11_Node000002_Node000009" class="edge">
<title>Node2&#45;&gt;Node9</title>
<g id="a_edge11_Node000002_Node000009"><a xlink:title=" ">
<path fill="none" stroke="#63b8ff" d="M251.7,-143.55C270.75,-158.13 308.57,-185.26 344.75,-200.62 349.72,-202.73 354.96,-204.64 360.29,-206.35"/>
<polygon fill="#63b8ff" stroke="#63b8ff" points="359.26,-209.7 369.84,-209.18 361.24,-202.99 359.26,-209.7"/>
</a>
</g>
</g>
<!-- Node10 -->
<g id="Node000010" class="node">
<title>Node10</title>
<g id="a_Node000010"><a xlink:href="class_nuki_1_1_nuki_ble.html#a050f54fbfcea03dc5238e8c66a7e89ca" target="_top" xlink:title="Returns pairing state (if credentials are stored or not)">
<polygon fill="white" stroke="#666666" points="502.12,-19.25 345.88,-19.25 345.88,0 502.12,0 502.12,-19.25"/>
<text text-anchor="middle" x="424" y="-5.75" font-family="Helvetica,sans-Serif" font-size="10.00">Nuki::NukiBle::isPairedWithLock</text>
</a>
</g>
</g>
<!-- Node2&#45;&gt;Node10 -->
<g id="edge16_Node000002_Node000010" class="edge">
<title>Node2&#45;&gt;Node10</title>
<g id="a_edge16_Node000002_Node000010"><a xlink:title=" ">
<path fill="none" stroke="#63b8ff" d="M247.01,-123.52C263.19,-103.47 302.21,-58.43 344.75,-33.62 351.59,-29.64 359.16,-26.25 366.82,-23.38"/>
<polygon fill="#63b8ff" stroke="#63b8ff" points="367.88,-26.72 376.21,-20.17 365.62,-20.1 367.88,-26.72"/>
</a>
</g>
</g>
<!-- Node3&#45;&gt;Node4 -->
<g id="edge3_Node000003_Node000004" class="edge">
<title>Node3&#45;&gt;Node4</title>
<g id="a_edge3_Node000003_Node000004"><a xlink:title=" ">
<path fill="none" stroke="#63b8ff" d="M493.14,-175.91C504.29,-175.8 515.97,-175.68 527.53,-175.56"/>
<polygon fill="#63b8ff" stroke="#63b8ff" points="527.55,-179.06 537.51,-175.45 527.47,-172.06 527.55,-179.06"/>
</a>
</g>
</g>
<!-- Node3&#45;&gt;Node5 -->
<g id="edge4_Node000003_Node000005" class="edge">
<title>Node3&#45;&gt;Node5</title>
<g id="a_edge4_Node000003_Node000005"><a xlink:title=" ">
<path fill="none" stroke="#63b8ff" d="M493.14,-191.55C514.95,-196.33 538.85,-201.56 559.78,-206.15"/>
<polygon fill="#63b8ff" stroke="#63b8ff" points="558.75,-209.5 569.26,-208.22 560.24,-202.67 558.75,-209.5"/>
</a>
</g>
</g>
<!-- Node3&#45;&gt;Node6 -->
<g id="edge5_Node000003_Node000006" class="edge">
<title>Node3&#45;&gt;Node6</title>
<g id="a_edge5_Node000003_Node000006"><a xlink:title=" ">
<path fill="none" stroke="#63b8ff" d="M490.45,-160.92C514.31,-155.2 540.96,-148.81 563.61,-143.37"/>
<polygon fill="#63b8ff" stroke="#63b8ff" points="564.34,-146.8 573.25,-141.06 562.71,-139.99 564.34,-146.8"/>
</a>
</g>
</g>
<!-- Node7&#45;&gt;Node4 -->
<g id="edge7_Node000007_Node000004" class="edge">
<title>Node7&#45;&gt;Node4</title>
<g id="a_edge7_Node000007_Node000004"><a xlink:title=" ">
<path fill="none" stroke="#63b8ff" d="M475,-106.26C484.65,-110.07 494.47,-114.54 503.25,-119.62 521.27,-130.06 521.01,-139.58 539.25,-149.62 542.41,-151.36 545.71,-153 549.08,-154.55"/>
<polygon fill="#63b8ff" stroke="#63b8ff" points="547.43,-157.65 558.01,-158.31 550.15,-151.2 547.43,-157.65"/>
</a>
</g>
</g>
<!-- Node7&#45;&gt;Node5 -->
<g id="edge9_Node000007_Node000005" class="edge">
<title>Node7&#45;&gt;Node5</title>
<g id="a_edge9_Node000007_Node000005"><a xlink:title=" ">
<path fill="none" stroke="#63b8ff" d="M447.41,-106.17C463.72,-118 485.9,-135.17 503.25,-152.62 521.55,-171.04 517.53,-184.41 539.25,-198.62 542.49,-200.74 545.94,-202.64 549.51,-204.33"/>
<polygon fill="#63b8ff" stroke="#63b8ff" points="547.89,-207.45 558.47,-208.02 550.55,-200.98 547.89,-207.45"/>
</a>
</g>
</g>
<!-- Node7&#45;&gt;Node6 -->
<g id="edge10_Node000007_Node000006" class="edge">
<title>Node7&#45;&gt;Node6</title>
<g id="a_edge10_Node000007_Node000006"><a xlink:title=" ">
<path fill="none" stroke="#63b8ff" d="M496.13,-105.46C516.26,-109.66 537.96,-114.19 557.33,-118.23"/>
<polygon fill="#63b8ff" stroke="#63b8ff" points="556.45,-121.62 566.95,-120.24 557.88,-114.77 556.45,-121.62"/>
</a>
</g>
</g>
<!-- Node8 -->
<g id="Node000008" class="node">
<title>Node8</title>
<g id="a_Node000008"><a xlink:href="class_nuki_1_1_nuki_ble.html#a25207bb564a4b54b8dd8c872177b53a7" target="_top" xlink:title="Returns if BLE is pairing/paired/connected with a Smart Lock Ultra.">
<polygon fill="white" stroke="#666666" points="682.75,-100.25 552.75,-100.25 552.75,-81 682.75,-81 682.75,-100.25"/>
<text text-anchor="middle" x="617.75" y="-86.75" font-family="Helvetica,sans-Serif" font-size="10.00">Nuki::NukiBle::isLockUltra</text>
</a>
</g>
</g>
<!-- Node7&#45;&gt;Node8 -->
<g id="edge8_Node000007_Node000008" class="edge">
<title>Node7&#45;&gt;Node8</title>
<g id="a_edge8_Node000007_Node000008"><a xlink:title=" ">
<path fill="none" stroke="#63b8ff" d="M496.13,-90.62C510.82,-90.62 526.35,-90.62 541.19,-90.62"/>
<polygon fill="#63b8ff" stroke="#63b8ff" points="540.87,-94.13 550.87,-90.63 540.87,-87.13 540.87,-94.13"/>
</a>
</g>
</g>
<!-- Node9&#45;&gt;Node4 -->
<g id="edge12_Node000009_Node000004" class="edge">
<title>Node9&#45;&gt;Node4</title>
<g id="a_edge12_Node000009_Node000004"><a xlink:title=" ">
<path fill="none" stroke="#63b8ff" d="M468.03,-209.53C488.91,-204.63 514.64,-198.59 538.8,-192.92"/>
<polygon fill="#63b8ff" stroke="#63b8ff" points="539.36,-196.38 548.29,-190.69 537.76,-189.57 539.36,-196.38"/>
</a>
</g>
</g>
<!-- Node9&#45;&gt;Node5 -->
<g id="edge13_Node000009_Node000005" class="edge">
<title>Node9&#45;&gt;Node5</title>
<g id="a_edge13_Node000009_Node000005"><a xlink:title=" ">
<path fill="none" stroke="#63b8ff" d="M503.55,-219.22C515.54,-219.15 527.9,-219.09 539.86,-219.03"/>
<polygon fill="#63b8ff" stroke="#63b8ff" points="539.68,-222.53 549.66,-218.97 539.64,-215.53 539.68,-222.53"/>
</a>
</g>
</g>
<!-- Node9&#45;&gt;Node6 -->
<g id="edge14_Node000009_Node000006" class="edge">
<title>Node9&#45;&gt;Node6</title>
<g id="a_edge14_Node000009_Node000006"><a xlink:title=" ">
<path fill="none" stroke="#63b8ff" d="M485.41,-209.65C491.71,-207.26 497.8,-204.29 503.25,-200.62 525.97,-185.33 516.64,-166.08 539.25,-150.62 542.14,-148.65 545.21,-146.87 548.4,-145.27"/>
<polygon fill="#63b8ff" stroke="#63b8ff" points="549.73,-148.5 557.52,-141.32 546.95,-142.08 549.73,-148.5"/>
</a>
</g>
</g>
</g>
</svg>
