<?xml version="1.0" encoding="UTF-8" standalone="no"?>
<!DOCTYPE svg PUBLIC "-//W3C//DTD SVG 1.1//EN"
 "http://www.w3.org/Graphics/SVG/1.1/DTD/svg11.dtd">
<!-- Generated by graphviz version 12.2.1 (20241206.2353)
 -->
<!-- Title: Nuki::NukiBle::deleteAuthorizationEntry Pages: 1 -->
<svg width="735pt" height="263pt"
 viewBox="0.00 0.00 735.00 263.03" xmlns="http://www.w3.org/2000/svg" xmlns:xlink="http://www.w3.org/1999/xlink">
<g id="graph0" class="graph" transform="scale(1 1) rotate(0) translate(4 259.03)">
<title>Nuki::NukiBle::deleteAuthorizationEntry</title>
<!-- Node1 -->
<g id="Node000001" class="node">
<title>Node1</title>
<g id="a_Node000001"><a xlink:title="Deletes the authorization entry from the lock.">
<polygon fill="#999999" stroke="#666666" points="162.25,-148.88 0,-148.88 0,-118.38 162.25,-118.38 162.25,-148.88"/>
<text text-anchor="start" x="8" y="-135.38" font-family="Helvetica,sans-Serif" font-size="10.00">Nuki::NukiBle::deleteAuthorization</text>
<text text-anchor="middle" x="81.12" y="-124.12" font-family="Helvetica,sans-Serif" font-size="10.00">Entry</text>
</a>
</g>
</g>
<!-- Node2 -->
<g id="Node000002" class="node">
<title>Node2</title>
<g id="a_Node000002"><a xlink:href="class_nuki_1_1_nuki_ble.html#af1f1e299e8d97e053bba80e92ba285d6" target="_top" xlink:title=" ">
<polygon fill="white" stroke="#666666" points="339.5,-143.25 198.25,-143.25 198.25,-124 339.5,-124 339.5,-143.25"/>
<text text-anchor="middle" x="268.88" y="-129.75" font-family="Helvetica,sans-Serif" font-size="10.00">Nuki::NukiBle::executeAction</text>
</a>
</g>
</g>
<!-- Node1&#45;&gt;Node2 -->
<g id="edge1_Node000001_Node000002" class="edge">
<title>Node1&#45;&gt;Node2</title>
<g id="a_edge1_Node000001_Node000002"><a xlink:title=" ">
<path fill="none" stroke="#63b8ff" d="M162.52,-133.62C170.42,-133.62 178.45,-133.62 186.37,-133.62"/>
<polygon fill="#63b8ff" stroke="#63b8ff" points="186.34,-137.13 196.34,-133.63 186.34,-130.13 186.34,-137.13"/>
</a>
</g>
</g>
<!-- Node3 -->
<g id="Node000003" class="node">
<title>Node3</title>
<g id="a_Node000003"><a xlink:href="class_nuki_1_1_nuki_ble.html#ada0f3beebd95d35c122e25dd3f9eb886" target="_top" xlink:title=" ">
<polygon fill="white" stroke="#666666" points="523.5,-191.88 386,-191.88 386,-161.38 523.5,-161.38 523.5,-191.88"/>
<text text-anchor="start" x="394" y="-178.38" font-family="Helvetica,sans-Serif" font-size="10.00">Nuki::NukiBle::cmdChallAcc</text>
<text text-anchor="middle" x="454.75" y="-167.12" font-family="Helvetica,sans-Serif" font-size="10.00">StateMachine</text>
</a>
</g>
</g>
<!-- Node2&#45;&gt;Node3 -->
<g id="edge2_Node000002_Node000003" class="edge">
<title>Node2&#45;&gt;Node3</title>
<g id="a_edge2_Node000002_Node000003"><a xlink:title=" ">
<path fill="none" stroke="#63b8ff" d="M312.99,-143.71C331.61,-148.06 353.99,-153.3 375.38,-158.3"/>
<polygon fill="#63b8ff" stroke="#63b8ff" points="374.43,-161.67 384.97,-160.54 376.03,-154.85 374.43,-161.67"/>
</a>
</g>
</g>
<!-- Node4 -->
<g id="Node000004" class="node">
<title>Node4</title>
<g id="a_Node000004"><a xlink:href="class_nuki_1_1_nuki_ble.html#a6e8fca90c04249660dce6cb993eb4495" target="_top" xlink:title=" ">
<polygon fill="white" stroke="#666666" points="727,-189.88 570,-189.88 570,-159.38 727,-159.38 727,-189.88"/>
<text text-anchor="start" x="578" y="-176.38" font-family="Helvetica,sans-Serif" font-size="10.00">Nuki::NukiBle::extendDisconnect</text>
<text text-anchor="middle" x="648.5" y="-165.12" font-family="Helvetica,sans-Serif" font-size="10.00">Timeout</text>
</a>
</g>
</g>
<!-- Node2&#45;&gt;Node4 -->
<g id="edge15_Node000002_Node000004" class="edge">
<title>Node2&#45;&gt;Node4</title>
<g id="a_edge15_Node000002_Node000004"><a xlink:title=" ">
<path fill="none" stroke="#63b8ff" d="M339.9,-136.38C393.27,-139.03 468.48,-143.95 534,-152.62 543.15,-153.84 552.68,-155.32 562.15,-156.95"/>
<polygon fill="#63b8ff" stroke="#63b8ff" points="561.28,-160.35 571.73,-158.64 562.5,-153.45 561.28,-160.35"/>
</a>
</g>
</g>
<!-- Node5 -->
<g id="Node000005" class="node">
<title>Node5</title>
<g id="a_Node000005"><a xlink:href="class_nuki_1_1_nuki_ble.html#ac7ce691d9c3e586474655d1663eb2e20" target="_top" xlink:title=" ">
<polygon fill="white" stroke="#666666" points="714.62,-228.25 582.38,-228.25 582.38,-209 714.62,-209 714.62,-228.25"/>
<text text-anchor="middle" x="648.5" y="-214.75" font-family="Helvetica,sans-Serif" font-size="10.00">Nuki::NukiBle::logMessage</text>
</a>
</g>
</g>
<!-- Node2&#45;&gt;Node5 -->
<g id="edge17_Node000002_Node000005" class="edge">
<title>Node2&#45;&gt;Node5</title>
<g id="a_edge17_Node000002_Node000005"><a xlink:title=" ">
<path fill="none" stroke="#63b8ff" d="M275.96,-143.67C290.12,-165.91 327.69,-218.91 375.5,-238.62 453.35,-270.74 554.31,-248.58 608.7,-232.06"/>
<polygon fill="#63b8ff" stroke="#63b8ff" points="609.64,-235.43 618.13,-229.09 607.54,-228.75 609.64,-235.43"/>
</a>
</g>
</g>
<!-- Node6 -->
<g id="Node000006" class="node">
<title>Node6</title>
<g id="a_Node000006"><a xlink:href="class_nuki_1_1_nuki_ble.html#af3650133f46aeca48a5f01b95d23ab71" target="_top" xlink:title=" ">
<polygon fill="white" stroke="#666666" points="722.12,-140.25 574.88,-140.25 574.88,-121 722.12,-121 722.12,-140.25"/>
<text text-anchor="middle" x="648.5" y="-126.75" font-family="Helvetica,sans-Serif" font-size="10.00">Nuki::NukiBle::logMessageVar</text>
</a>
</g>
</g>
<!-- Node2&#45;&gt;Node6 -->
<g id="edge18_Node000002_Node000006" class="edge">
<title>Node2&#45;&gt;Node6</title>
<g id="a_edge18_Node000002_Node000006"><a xlink:title=" ">
<path fill="none" stroke="#63b8ff" d="M280.84,-123.61C298.94,-107.83 336.92,-77.83 375.5,-66.62 443.15,-46.98 470.17,-36.82 534,-66.62 556.58,-77.17 549.01,-96.19 570,-109.62 574.03,-112.2 578.37,-114.47 582.87,-116.46"/>
<polygon fill="#63b8ff" stroke="#63b8ff" points="581.57,-119.71 592.16,-120.06 584.11,-113.18 581.57,-119.71"/>
</a>
</g>
</g>
<!-- Node7 -->
<g id="Node000007" class="node">
<title>Node7</title>
<g id="a_Node000007"><a xlink:href="class_nuki_1_1_nuki_ble.html#a59169a9f492793762e3c6ba39b611b07" target="_top" xlink:title=" ">
<polygon fill="white" stroke="#666666" points="526.5,-105.88 383,-105.88 383,-75.38 526.5,-75.38 526.5,-105.88"/>
<text text-anchor="start" x="391" y="-92.38" font-family="Helvetica,sans-Serif" font-size="10.00">Nuki::NukiBle::cmdChallState</text>
<text text-anchor="middle" x="454.75" y="-81.12" font-family="Helvetica,sans-Serif" font-size="10.00">Machine</text>
</a>
</g>
</g>
<!-- Node2&#45;&gt;Node7 -->
<g id="edge6_Node000002_Node000007" class="edge">
<title>Node2&#45;&gt;Node7</title>
<g id="a_edge6_Node000002_Node000007"><a xlink:title=" ">
<path fill="none" stroke="#63b8ff" d="M312.99,-123.54C331.61,-119.19 353.99,-113.95 375.38,-108.95"/>
<polygon fill="#63b8ff" stroke="#63b8ff" points="376.03,-112.4 384.97,-106.71 374.43,-105.58 376.03,-112.4"/>
</a>
</g>
</g>
<!-- Node9 -->
<g id="Node000009" class="node">
<title>Node9</title>
<g id="a_Node000009"><a xlink:href="class_nuki_1_1_nuki_ble.html#ad135bb1455665decfddff67772c1d411" target="_top" xlink:title=" ">
<polygon fill="white" stroke="#666666" points="534,-229.25 375.5,-229.25 375.5,-210 534,-210 534,-229.25"/>
<text text-anchor="middle" x="454.75" y="-215.75" font-family="Helvetica,sans-Serif" font-size="10.00">Nuki::NukiBle::cmdStateMachine</text>
</a>
</g>
</g>
<!-- Node2&#45;&gt;Node9 -->
<g id="edge11_Node000002_Node000009" class="edge">
<title>Node2&#45;&gt;Node9</title>
<g id="a_edge11_Node000002_Node000009"><a xlink:title=" ">
<path fill="none" stroke="#63b8ff" d="M282.45,-143.55C301.5,-158.13 339.32,-185.26 375.5,-200.62 380.47,-202.73 385.71,-204.64 391.04,-206.35"/>
<polygon fill="#63b8ff" stroke="#63b8ff" points="390.01,-209.7 400.59,-209.18 391.99,-202.99 390.01,-209.7"/>
</a>
</g>
</g>
<!-- Node10 -->
<g id="Node000010" class="node">
<title>Node10</title>
<g id="a_Node000010"><a xlink:href="class_nuki_1_1_nuki_ble.html#a050f54fbfcea03dc5238e8c66a7e89ca" target="_top" xlink:title="Returns pairing state (if credentials are stored or not)">
<polygon fill="white" stroke="#666666" points="532.88,-19.25 376.62,-19.25 376.62,0 532.88,0 532.88,-19.25"/>
<text text-anchor="middle" x="454.75" y="-5.75" font-family="Helvetica,sans-Serif" font-size="10.00">Nuki::NukiBle::isPairedWithLock</text>
</a>
</g>
</g>
<!-- Node2&#45;&gt;Node10 -->
<g id="edge16_Node000002_Node000010" class="edge">
<title>Node2&#45;&gt;Node10</title>
<g id="a_edge16_Node000002_Node000010"><a xlink:title=" ">
<path fill="none" stroke="#63b8ff" d="M277.76,-123.52C293.94,-103.47 332.96,-58.43 375.5,-33.62 382.34,-29.64 389.91,-26.25 397.57,-23.38"/>
<polygon fill="#63b8ff" stroke="#63b8ff" points="398.63,-26.72 406.96,-20.17 396.37,-20.1 398.63,-26.72"/>
</a>
</g>
</g>
<!-- Node3&#45;&gt;Node4 -->
<g id="edge3_Node000003_Node000004" class="edge">
<title>Node3&#45;&gt;Node4</title>
<g id="a_edge3_Node000003_Node000004"><a xlink:title=" ">
<path fill="none" stroke="#63b8ff" d="M523.89,-175.91C535.04,-175.8 546.72,-175.68 558.28,-175.56"/>
<polygon fill="#63b8ff" stroke="#63b8ff" points="558.3,-179.06 568.26,-175.45 558.22,-172.06 558.3,-179.06"/>
</a>
</g>
</g>
<!-- Node3&#45;&gt;Node5 -->
<g id="edge4_Node000003_Node000005" class="edge">
<title>Node3&#45;&gt;Node5</title>
<g id="a_edge4_Node000003_Node000005"><a xlink:title=" ">
<path fill="none" stroke="#63b8ff" d="M523.89,-191.55C545.7,-196.33 569.6,-201.56 590.53,-206.15"/>
<polygon fill="#63b8ff" stroke="#63b8ff" points="589.5,-209.5 600.01,-208.22 590.99,-202.67 589.5,-209.5"/>
</a>
</g>
</g>
<!-- Node3&#45;&gt;Node6 -->
<g id="edge5_Node000003_Node000006" class="edge">
<title>Node3&#45;&gt;Node6</title>
<g id="a_edge5_Node000003_Node000006"><a xlink:title=" ">
<path fill="none" stroke="#63b8ff" d="M521.2,-160.92C545.06,-155.2 571.71,-148.81 594.36,-143.37"/>
<polygon fill="#63b8ff" stroke="#63b8ff" points="595.09,-146.8 604,-141.06 593.46,-139.99 595.09,-146.8"/>
</a>
</g>
</g>
<!-- Node7&#45;&gt;Node4 -->
<g id="edge7_Node000007_Node000004" class="edge">
<title>Node7&#45;&gt;Node4</title>
<g id="a_edge7_Node000007_Node000004"><a xlink:title=" ">
<path fill="none" stroke="#63b8ff" d="M505.75,-106.26C515.4,-110.07 525.22,-114.54 534,-119.62 552.02,-130.06 551.76,-139.58 570,-149.62 573.16,-151.36 576.46,-153 579.83,-154.55"/>
<polygon fill="#63b8ff" stroke="#63b8ff" points="578.18,-157.65 588.76,-158.31 580.9,-151.2 578.18,-157.65"/>
</a>
</g>
</g>
<!-- Node7&#45;&gt;Node5 -->
<g id="edge9_Node000007_Node000005" class="edge">
<title>Node7&#45;&gt;Node5</title>
<g id="a_edge9_Node000007_Node000005"><a xlink:title=" ">
<path fill="none" stroke="#63b8ff" d="M478.16,-106.17C494.47,-118 516.65,-135.17 534,-152.62 552.3,-171.04 548.28,-184.41 570,-198.62 573.24,-200.74 576.69,-202.64 580.26,-204.33"/>
<polygon fill="#63b8ff" stroke="#63b8ff" points="578.64,-207.45 589.22,-208.02 581.3,-200.98 578.64,-207.45"/>
</a>
</g>
</g>
<!-- Node7&#45;&gt;Node6 -->
<g id="edge10_Node000007_Node000006" class="edge">
<title>Node7&#45;&gt;Node6</title>
<g id="a_edge10_Node000007_Node000006"><a xlink:title=" ">
<path fill="none" stroke="#63b8ff" d="M526.88,-105.46C547.01,-109.66 568.71,-114.19 588.08,-118.23"/>
<polygon fill="#63b8ff" stroke="#63b8ff" points="587.2,-121.62 597.7,-120.24 588.63,-114.77 587.2,-121.62"/>
</a>
</g>
</g>
<!-- Node8 -->
<g id="Node000008" class="node">
<title>Node8</title>
<g id="a_Node000008"><a xlink:href="class_nuki_1_1_nuki_ble.html#a25207bb564a4b54b8dd8c872177b53a7" target="_top" xlink:title="Returns if BLE is pairing/paired/connected with a Smart Lock Ultra.">
<polygon fill="white" stroke="#666666" points="713.5,-100.25 583.5,-100.25 583.5,-81 713.5,-81 713.5,-100.25"/>
<text text-anchor="middle" x="648.5" y="-86.75" font-family="Helvetica,sans-Serif" font-size="10.00">Nuki::NukiBle::isLockUltra</text>
</a>
</g>
</g>
<!-- Node7&#45;&gt;Node8 -->
<g id="edge8_Node000007_Node000008" class="edge">
<title>Node7&#45;&gt;Node8</title>
<g id="a_edge8_Node000007_Node000008"><a xlink:title=" ">
<path fill="none" stroke="#63b8ff" d="M526.88,-90.62C541.57,-90.62 557.1,-90.62 571.94,-90.62"/>
<polygon fill="#63b8ff" stroke="#63b8ff" points="571.62,-94.13 581.62,-90.63 571.62,-87.13 571.62,-94.13"/>
</a>
</g>
</g>
<!-- Node9&#45;&gt;Node4 -->
<g id="edge12_Node000009_Node000004" class="edge">
<title>Node9&#45;&gt;Node4</title>
<g id="a_edge12_Node000009_Node000004"><a xlink:title=" ">
<path fill="none" stroke="#63b8ff" d="M498.78,-209.53C519.66,-204.63 545.39,-198.59 569.55,-192.92"/>
<polygon fill="#63b8ff" stroke="#63b8ff" points="570.11,-196.38 579.04,-190.69 568.51,-189.57 570.11,-196.38"/>
</a>
</g>
</g>
<!-- Node9&#45;&gt;Node5 -->
<g id="edge13_Node000009_Node000005" class="edge">
<title>Node9&#45;&gt;Node5</title>
<g id="a_edge13_Node000009_Node000005"><a xlink:title=" ">
<path fill="none" stroke="#63b8ff" d="M534.3,-219.22C546.29,-219.15 558.65,-219.09 570.61,-219.03"/>
<polygon fill="#63b8ff" stroke="#63b8ff" points="570.43,-222.53 580.41,-218.97 570.39,-215.53 570.43,-222.53"/>
</a>
</g>
</g>
<!-- Node9&#45;&gt;Node6 -->
<g id="edge14_Node000009_Node000006" class="edge">
<title>Node9&#45;&gt;Node6</title>
<g id="a_edge14_Node000009_Node000006"><a xlink:title=" ">
<path fill="none" stroke="#63b8ff" d="M516.16,-209.65C522.46,-207.26 528.55,-204.29 534,-200.62 556.72,-185.33 547.39,-166.08 570,-150.62 572.89,-148.65 575.96,-146.87 579.15,-145.27"/>
<polygon fill="#63b8ff" stroke="#63b8ff" points="580.48,-148.5 588.27,-141.32 577.7,-142.08 580.48,-148.5"/>
</a>
</g>
</g>
</g>
</svg>
