<?xml version="1.0" encoding="UTF-8" standalone="no"?>
<!DOCTYPE svg PUBLIC "-//W3C//DTD SVG 1.1//EN"
 "http://www.w3.org/Graphics/SVG/1.1/DTD/svg11.dtd">
<!-- Generated by graphviz version 11.0.0 (20240428.1522)
 -->
<!-- Title: Nuki::NukiBle::setSecurityPin Pages: 1 -->
<svg width="716pt" height="163pt"
 viewBox="0.00 0.00 715.50 162.88" xmlns="http://www.w3.org/2000/svg" xmlns:xlink="http://www.w3.org/1999/xlink">
<g id="graph0" class="graph" transform="scale(1 1) rotate(0) translate(4 158.88)">
<title>Nuki::NukiBle::setSecurityPin</title>
<!-- Node1 -->
<g id="Node000001" class="node">
<title>Node1</title>
<g id="a_Node000001"><a xlink:title="Send the new pincode command to the lock via BLE (this command uses the earlier by saveSecurityPincod...">
<polygon fill="#999999" stroke="#666666" points="142.75,-78.25 0,-78.25 0,-59 142.75,-59 142.75,-78.25"/>
<text text-anchor="middle" x="71.38" y="-64.75" font-family="Helvetica,sans-Serif" font-size="10.00">Nuki::NukiBle::setSecurityPin</text>
</a>
</g>
</g>
<!-- Node2 -->
<g id="Node000002" class="node">
<title>Node2</title>
<g id="a_Node000002"><a xlink:href="class_nuki_1_1_nuki_ble.html#af1f1e299e8d97e053bba80e92ba285d6" target="_top" xlink:title=" ">
<polygon fill="white" stroke="#666666" points="320,-78.25 178.75,-78.25 178.75,-59 320,-59 320,-78.25"/>
<text text-anchor="middle" x="249.38" y="-64.75" font-family="Helvetica,sans-Serif" font-size="10.00">Nuki::NukiBle::executeAction</text>
</a>
</g>
</g>
<!-- Node1&#45;&gt;Node2 -->
<g id="edge1_Node000001_Node000002" class="edge">
<title>Node1&#45;&gt;Node2</title>
<g id="a_edge1_Node000001_Node000002"><a xlink:title=" ">
<path fill="none" stroke="#63b8ff" d="M143.2,-68.62C150.97,-68.62 158.92,-68.62 166.8,-68.62"/>
<polygon fill="#63b8ff" stroke="#63b8ff" points="166.75,-72.13 176.75,-68.63 166.75,-65.13 166.75,-72.13"/>
</a>
</g>
</g>
<!-- Node3 -->
<g id="Node000003" class="node">
<title>Node3</title>
<g id="a_Node000003"><a xlink:href="class_nuki_1_1_nuki_ble.html#ada0f3beebd95d35c122e25dd3f9eb886" target="_top" xlink:title=" ">
<polygon fill="white" stroke="#666666" points="504,-154.88 366.5,-154.88 366.5,-124.38 504,-124.38 504,-154.88"/>
<text text-anchor="start" x="374.5" y="-141.38" font-family="Helvetica,sans-Serif" font-size="10.00">Nuki::NukiBle::cmdChallAcc</text>
<text text-anchor="middle" x="435.25" y="-130.12" font-family="Helvetica,sans-Serif" font-size="10.00">StateMachine</text>
</a>
</g>
</g>
<!-- Node2&#45;&gt;Node3 -->
<g id="edge2_Node000002_Node000003" class="edge">
<title>Node2&#45;&gt;Node3</title>
<g id="a_edge2_Node000002_Node000003"><a xlink:title=" ">
<path fill="none" stroke="#63b8ff" d="M271.56,-78.61C292.7,-88.39 326.24,-103.42 356,-114.62 361.21,-116.58 366.64,-118.53 372.12,-120.41"/>
<polygon fill="#63b8ff" stroke="#63b8ff" points="370.61,-123.6 381.21,-123.47 372.85,-116.97 370.61,-123.6"/>
</a>
</g>
</g>
<!-- Node4 -->
<g id="Node000004" class="node">
<title>Node4</title>
<g id="a_Node000004"><a xlink:href="class_nuki_1_1_nuki_ble.html#a59169a9f492793762e3c6ba39b611b07" target="_top" xlink:title=" ">
<polygon fill="white" stroke="#666666" points="507,-105.88 363.5,-105.88 363.5,-75.38 507,-75.38 507,-105.88"/>
<text text-anchor="start" x="371.5" y="-92.38" font-family="Helvetica,sans-Serif" font-size="10.00">Nuki::NukiBle::cmdChallState</text>
<text text-anchor="middle" x="435.25" y="-81.12" font-family="Helvetica,sans-Serif" font-size="10.00">Machine</text>
</a>
</g>
</g>
<!-- Node2&#45;&gt;Node4 -->
<g id="edge3_Node000002_Node000004" class="edge">
<title>Node2&#45;&gt;Node4</title>
<g id="a_edge3_Node000002_Node000004"><a xlink:title=" ">
<path fill="none" stroke="#63b8ff" d="M320.41,-77.01C330.7,-78.24 341.37,-79.51 351.88,-80.77"/>
<polygon fill="#63b8ff" stroke="#63b8ff" points="351.34,-84.23 361.68,-81.94 352.17,-77.28 351.34,-84.23"/>
</a>
</g>
</g>
<!-- Node5 -->
<g id="Node000005" class="node">
<title>Node5</title>
<g id="a_Node000005"><a xlink:href="class_nuki_1_1_nuki_ble.html#a6e8fca90c04249660dce6cb993eb4495" target="_top" xlink:title=" ">
<polygon fill="white" stroke="#666666" points="707.5,-62.88 550.5,-62.88 550.5,-32.38 707.5,-32.38 707.5,-62.88"/>
<text text-anchor="start" x="558.5" y="-49.38" font-family="Helvetica,sans-Serif" font-size="10.00">Nuki::NukiBle::extendDisconnect</text>
<text text-anchor="middle" x="629" y="-38.12" font-family="Helvetica,sans-Serif" font-size="10.00">Timeout</text>
</a>
</g>
</g>
<!-- Node2&#45;&gt;Node5 -->
<g id="edge7_Node000002_Node000005" class="edge">
<title>Node2&#45;&gt;Node5</title>
<g id="a_edge7_Node000002_Node000005"><a xlink:title=" ">
<path fill="none" stroke="#63b8ff" d="M320.08,-64.75C381.72,-61.32 472,-56.3 538.88,-52.58"/>
<polygon fill="#63b8ff" stroke="#63b8ff" points="538.94,-56.08 548.73,-52.03 538.55,-49.09 538.94,-56.08"/>
</a>
</g>
</g>
<!-- Node6 -->
<g id="Node000006" class="node">
<title>Node6</title>
<g id="a_Node000006"><a xlink:href="class_nuki_1_1_nuki_ble.html#ad135bb1455665decfddff67772c1d411" target="_top" xlink:title=" ">
<polygon fill="white" stroke="#666666" points="514.5,-19.25 356,-19.25 356,0 514.5,0 514.5,-19.25"/>
<text text-anchor="middle" x="435.25" y="-5.75" font-family="Helvetica,sans-Serif" font-size="10.00">Nuki::NukiBle::cmdStateMachine</text>
</a>
</g>
</g>
<!-- Node2&#45;&gt;Node6 -->
<g id="edge5_Node000002_Node000006" class="edge">
<title>Node2&#45;&gt;Node6</title>
<g id="a_edge5_Node000002_Node000006"><a xlink:title=" ">
<path fill="none" stroke="#63b8ff" d="M279.91,-58.64C301.06,-51.54 330.23,-41.84 356,-33.62 366.97,-30.13 378.83,-26.44 389.92,-23.03"/>
<polygon fill="#63b8ff" stroke="#63b8ff" points="390.7,-26.45 399.24,-20.18 388.66,-19.76 390.7,-26.45"/>
</a>
</g>
</g>
<!-- Node4&#45;&gt;Node5 -->
<g id="edge4_Node000004_Node000005" class="edge">
<title>Node4&#45;&gt;Node5</title>
<g id="a_edge4_Node000004_Node000005"><a xlink:title=" ">
<path fill="none" stroke="#63b8ff" d="M506.29,-74.92C519.41,-71.98 533.23,-68.88 546.66,-65.86"/>
<polygon fill="#63b8ff" stroke="#63b8ff" points="547.36,-69.3 556.35,-63.69 545.83,-62.47 547.36,-69.3"/>
</a>
</g>
</g>
<!-- Node6&#45;&gt;Node5 -->
<g id="edge6_Node000006_Node000005" class="edge">
<title>Node6&#45;&gt;Node5</title>
<g id="a_edge6_Node000006_Node000005"><a xlink:title=" ">
<path fill="none" stroke="#63b8ff" d="M487.13,-19.71C503.04,-22.86 521.09,-26.44 538.84,-29.96"/>
<polygon fill="#63b8ff" stroke="#63b8ff" points="538.15,-33.39 548.64,-31.9 539.51,-26.52 538.15,-33.39"/>
</a>
</g>
</g>
</g>
</svg>
