<?xml version="1.0" encoding="UTF-8" standalone="no"?>
<!DOCTYPE svg PUBLIC "-//W3C//DTD SVG 1.1//EN"
 "http://www.w3.org/Graphics/SVG/1.1/DTD/svg11.dtd">
<!-- Generated by graphviz version 12.2.1 (20241206.2353)
 -->
<!-- Title: Nuki::NukiBle::updateTime Pages: 1 -->
<!--zoomable 215 -->

<svg id="main" version="1.1" xmlns="http://www.w3.org/2000/svg" xmlns:xlink="http://www.w3.org/1999/xlink" xml:space="preserve" onload="init(evt)">

<style type="text/css"><![CDATA[
.node, .edge {opacity: 0.7;}
.node.selected, .edge.selected {opacity: 1;}
.edge:hover path { stroke: red; }
.edge:hover polygon { stroke: red; fill: red; }
]]></style>

<defs>
  <circle id="rim" cx="0" cy="0" r="7"/>
  <circle id="rim2" cx="0" cy="0" r="3.5"/>
  <g id="zoomPlus">
    <use xlink:href="#rim" fill="#404040"><set attributeName="fill" to="#808080" begin="zoomplus.mouseover" end="zoomplus.mouseout"/></use>
    <path d="M-4,0h8M0,-4v8" fill="none" stroke="white" stroke-width="1.5" pointer-events="none"/>
  </g>
  <g id="zoomMin">
    <use xlink:href="#rim" fill="#404040"><set attributeName="fill" to="#808080" begin="zoomminus.mouseover" end="zoomminus.mouseout"/></use>
    <path d="M-4,0h8" fill="none" stroke="white" stroke-width="1.5" pointer-events="none"/>
  </g>
  <g id="arrowUp" transform="translate(30 24)">
    <use xlink:href="#rim"/>
    <path pointer-events="none" fill="none" stroke="white" stroke-width="1.5" d="M0,-3.0v7 M-2.5,-0.5L0,-3.0L2.5,-0.5"/>
  </g>
  <g id="arrowRight" transform="rotate(90) translate(36 -43)">
    <use xlink:href="#rim"/>
    <path pointer-events="none" fill="none" stroke="white" stroke-width="1.5" d="M0,-3.0v7 M-2.5,-0.5L0,-3.0L2.5,-0.5"/>
  </g>
  <g id="arrowDown" transform="rotate(180) translate(-30 -48)">
    <use xlink:href="#rim"/>
    <path pointer-events="none" fill="none" stroke="white" stroke-width="1.5" d="M0,-3.0v7 M-2.5,-0.5L0,-3.0L2.5,-0.5"/>
  </g>
  <g id="arrowLeft" transform="rotate(270) translate(-36 17)">
    <use xlink:href="#rim"/>
    <path pointer-events="none" fill="none" stroke="white" stroke-width="1.5" d="M0,-3.0v7 M-2.5,-0.5L0,-3.0L2.5,-0.5"/>
  </g>
  <g id="resetDef">
    <use xlink:href="#rim2" fill="#404040"><set attributeName="fill" to="#808080" begin="reset.mouseover" end="reset.mouseout"/></use>
  </g>
</defs>
<script type="application/ecmascript">
var viewWidth = 704;
var viewHeight = 215;
var sectionId = 'dynsection-36';
</script>
<script type="application/ecmascript" xlink:href="svg.min.js"/>
<svg id="graph" class="graph">
<g id="viewport">
<title>Nuki::NukiBle::updateTime</title>
<!-- Node1 -->
<g id="Node000001" class="node">
<title>Node1</title>
<g id="a_Node000001"><a xlink:title="Sends the time to be set to the lock via BLE.">
<polygon fill="#999999" stroke="#666666" points="130.75,-118.16 0,-118.16 0,-98.91 130.75,-98.91 130.75,-118.16"/>
<text text-anchor="middle" x="65.38" y="-104.66" font-family="Helvetica,sans-Serif" font-size="10.00">Nuki::NukiBle::updateTime</text>
</a>
</g>
</g>
<!-- Node2 -->
<g id="Node000002" class="node">
<title>Node2</title>
<g id="a_Node000002"><a xlink:href="class_nuki_1_1_nuki_ble.html#af1f1e299e8d97e053bba80e92ba285d6" target="_top" xlink:title=" ">
<polygon fill="white" stroke="#666666" points="308,-118.16 166.75,-118.16 166.75,-98.91 308,-98.91 308,-118.16"/>
<text text-anchor="middle" x="237.38" y="-104.66" font-family="Helvetica,sans-Serif" font-size="10.00">Nuki::NukiBle::executeAction</text>
</a>
</g>
</g>
<!-- Node1&#45;&gt;Node2 -->
<g id="edge1_Node000001_Node000002" class="edge">
<title>Node1&#45;&gt;Node2</title>
<g id="a_edge1_Node000001_Node000002"><a xlink:title=" ">
<path fill="none" stroke="#63b8ff" d="M131.13,-108.53C138.97,-108.53 147.06,-108.53 155.11,-108.53"/>
<polygon fill="#63b8ff" stroke="#63b8ff" points="154.91,-112.03 164.91,-108.53 154.91,-105.03 154.91,-112.03"/>
</a>
</g>
</g>
<!-- Node3 -->
<g id="Node000003" class="node">
<title>Node3</title>
<g id="a_Node000003"><a xlink:href="class_nuki_1_1_nuki_ble.html#ada0f3beebd95d35c122e25dd3f9eb886" target="_top" xlink:title=" ">
<polygon fill="white" stroke="#666666" points="492,-145.78 354.5,-145.78 354.5,-115.28 492,-115.28 492,-145.78"/>
<text text-anchor="start" x="362.5" y="-132.28" font-family="Helvetica,sans-Serif" font-size="10.00">Nuki::NukiBle::cmdChallAcc</text>
<text text-anchor="middle" x="423.25" y="-121.03" font-family="Helvetica,sans-Serif" font-size="10.00">StateMachine</text>
</a>
</g>
</g>
<!-- Node2&#45;&gt;Node3 -->
<g id="edge2_Node000002_Node000003" class="edge">
<title>Node2&#45;&gt;Node3</title>
<g id="a_edge2_Node000002_Node000003"><a xlink:title=" ">
<path fill="none" stroke="#63b8ff" d="M308.41,-116.91C319.68,-118.26 331.41,-119.66 342.88,-121.04"/>
<polygon fill="#63b8ff" stroke="#63b8ff" points="342.38,-124.5 352.72,-122.21 343.21,-117.55 342.38,-124.5"/>
</a>
</g>
</g>
<!-- Node4 -->
<g id="Node000004" class="node">
<title>Node4</title>
<g id="a_Node000004"><a xlink:href="class_nuki_1_1_nuki_ble.html#a6e8fca90c04249660dce6cb993eb4495" target="_top" xlink:title=" ">
<polygon fill="white" stroke="#666666" points="695.5,-186.78 538.5,-186.78 538.5,-156.28 695.5,-156.28 695.5,-186.78"/>
<text text-anchor="start" x="546.5" y="-173.28" font-family="Helvetica,sans-Serif" font-size="10.00">Nuki::NukiBle::extendDisconnect</text>
<text text-anchor="middle" x="617" y="-162.03" font-family="Helvetica,sans-Serif" font-size="10.00">Timeout</text>
</a>
</g>
</g>
<!-- Node2&#45;&gt;Node4 -->
<g id="edge15_Node000002_Node000004" class="edge">
<title>Node2&#45;&gt;Node4</title>
<g id="a_edge15_Node000002_Node000004"><a xlink:title=" ">
<path fill="none" stroke="#63b8ff" d="M246.66,-118.58C262.95,-137.45 301.31,-177.63 344,-192.53 413.38,-216.76 498.57,-203.9 554.93,-190.02"/>
<polygon fill="#63b8ff" stroke="#63b8ff" points="555.51,-193.48 564.33,-187.61 553.78,-186.7 555.51,-193.48"/>
</a>
</g>
</g>
<!-- Node5 -->
<g id="Node000005" class="node">
<title>Node5</title>
<g id="a_Node000005"><a xlink:href="class_nuki_1_1_nuki_ble.html#ac7ce691d9c3e586474655d1663eb2e20" target="_top" xlink:title=" ">
<polygon fill="white" stroke="#666666" points="683.12,-137.16 550.88,-137.16 550.88,-117.91 683.12,-117.91 683.12,-137.16"/>
<text text-anchor="middle" x="617" y="-123.66" font-family="Helvetica,sans-Serif" font-size="10.00">Nuki::NukiBle::logMessage</text>
</a>
</g>
</g>
<!-- Node2&#45;&gt;Node5 -->
<g id="edge16_Node000002_Node000005" class="edge">
<title>Node2&#45;&gt;Node5</title>
<g id="a_edge16_Node000002_Node000005"><a xlink:title=" ">
<path fill="none" stroke="#63b8ff" d="M308.26,-107.02C320.18,-106.82 332.45,-106.64 344,-106.53 414.44,-105.87 432.35,-100.1 502.5,-106.53 521.59,-108.28 542.26,-111.66 560.66,-115.2"/>
<polygon fill="#63b8ff" stroke="#63b8ff" points="559.82,-118.6 570.31,-117.12 561.18,-111.73 559.82,-118.6"/>
</a>
</g>
</g>
<!-- Node6 -->
<g id="Node000006" class="node">
<title>Node6</title>
<g id="a_Node000006"><a xlink:href="class_nuki_1_1_nuki_ble.html#af3650133f46aeca48a5f01b95d23ab71" target="_top" xlink:title=" ">
<polygon fill="white" stroke="#666666" points="690.62,-97.16 543.38,-97.16 543.38,-77.91 690.62,-77.91 690.62,-97.16"/>
<text text-anchor="middle" x="617" y="-83.66" font-family="Helvetica,sans-Serif" font-size="10.00">Nuki::NukiBle::logMessageVar</text>
</a>
</g>
</g>
<!-- Node2&#45;&gt;Node6 -->
<g id="edge17_Node000002_Node000006" class="edge">
<title>Node2&#45;&gt;Node6</title>
<g id="a_edge17_Node000002_Node000006"><a xlink:title=" ">
<path fill="none" stroke="#63b8ff" d="M246.05,-98.62C261.86,-79.14 300.24,-36.37 344,-20.53 410.24,3.44 438.67,9.27 502.5,-20.53 525.08,-31.08 517.75,-49.73 538.5,-63.53 544.35,-67.42 550.86,-70.71 557.55,-73.48"/>
<polygon fill="#63b8ff" stroke="#63b8ff" points="556.14,-76.69 566.74,-76.89 558.58,-70.13 556.14,-76.69"/>
</a>
</g>
</g>
<!-- Node7 -->
<g id="Node000007" class="node">
<title>Node7</title>
<g id="a_Node000007"><a xlink:href="class_nuki_1_1_nuki_ble.html#a59169a9f492793762e3c6ba39b611b07" target="_top" xlink:title=" ">
<polygon fill="white" stroke="#666666" points="495,-59.78 351.5,-59.78 351.5,-29.28 495,-29.28 495,-59.78"/>
<text text-anchor="start" x="359.5" y="-46.28" font-family="Helvetica,sans-Serif" font-size="10.00">Nuki::NukiBle::cmdChallState</text>
<text text-anchor="middle" x="423.25" y="-35.03" font-family="Helvetica,sans-Serif" font-size="10.00">Machine</text>
</a>
</g>
</g>
<!-- Node2&#45;&gt;Node7 -->
<g id="edge6_Node000002_Node000007" class="edge">
<title>Node2&#45;&gt;Node7</title>
<g id="a_edge6_Node000002_Node000007"><a xlink:title=" ">
<path fill="none" stroke="#63b8ff" d="M267.11,-98.53C293.6,-89.31 333.68,-75.36 366.46,-63.95"/>
<polygon fill="#63b8ff" stroke="#63b8ff" points="367.55,-67.28 375.84,-60.69 365.24,-60.67 367.55,-67.28"/>
</a>
</g>
</g>
<!-- Node9 -->
<g id="Node000009" class="node">
<title>Node9</title>
<g id="a_Node000009"><a xlink:href="class_nuki_1_1_nuki_ble.html#ad135bb1455665decfddff67772c1d411" target="_top" xlink:title=" ">
<polygon fill="white" stroke="#666666" points="502.5,-183.16 344,-183.16 344,-163.91 502.5,-163.91 502.5,-183.16"/>
<text text-anchor="middle" x="423.25" y="-169.66" font-family="Helvetica,sans-Serif" font-size="10.00">Nuki::NukiBle::cmdStateMachine</text>
</a>
</g>
</g>
<!-- Node2&#45;&gt;Node9 -->
<g id="edge11_Node000002_Node000009" class="edge">
<title>Node2&#45;&gt;Node9</title>
<g id="a_edge11_Node000002_Node000009"><a xlink:title=" ">
<path fill="none" stroke="#63b8ff" d="M258.61,-118.59C279.57,-128.72 313.48,-144.27 344,-154.53 350.52,-156.73 357.43,-158.78 364.33,-160.66"/>
<polygon fill="#63b8ff" stroke="#63b8ff" points="363.09,-163.96 373.65,-163.1 364.86,-157.19 363.09,-163.96"/>
</a>
</g>
</g>
<!-- Node3&#45;&gt;Node4 -->
<g id="edge3_Node000003_Node000004" class="edge">
<title>Node3&#45;&gt;Node4</title>
<g id="a_edge3_Node000003_Node000004"><a xlink:title=" ">
<path fill="none" stroke="#63b8ff" d="M492.39,-145.1C505.09,-147.82 518.5,-150.69 531.62,-153.49"/>
<polygon fill="#63b8ff" stroke="#63b8ff" points="530.56,-156.84 541.07,-155.51 532.02,-150 530.56,-156.84"/>
</a>
</g>
</g>
<!-- Node3&#45;&gt;Node5 -->
<g id="edge4_Node000003_Node000005" class="edge">
<title>Node3&#45;&gt;Node5</title>
<g id="a_edge4_Node000003_Node000005"><a xlink:title=" ">
<path fill="none" stroke="#63b8ff" d="M492.39,-129.47C507.64,-129.23 523.91,-128.97 539.47,-128.73"/>
<polygon fill="#63b8ff" stroke="#63b8ff" points="539.19,-132.24 549.13,-128.58 539.08,-125.24 539.19,-132.24"/>
</a>
</g>
</g>
<!-- Node3&#45;&gt;Node6 -->
<g id="edge5_Node000003_Node000006" class="edge">
<title>Node3&#45;&gt;Node6</title>
<g id="a_edge5_Node000003_Node000006"><a xlink:title=" ">
<path fill="none" stroke="#63b8ff" d="M492.39,-115.25C514.48,-110.3 538.7,-104.87 559.82,-100.13"/>
<polygon fill="#63b8ff" stroke="#63b8ff" points="560.4,-103.59 569.39,-97.99 558.86,-96.76 560.4,-103.59"/>
</a>
</g>
</g>
<!-- Node7&#45;&gt;Node4 -->
<g id="edge7_Node000007_Node000004" class="edge">
<title>Node7&#45;&gt;Node4</title>
<g id="a_edge7_Node000007_Node000004"><a xlink:title=" ">
<path fill="none" stroke="#63b8ff" d="M445.97,-60.19C462.13,-72.21 484.43,-89.57 502.5,-106.53 519.93,-122.91 518.43,-133.53 538.5,-146.53 540.89,-148.08 543.38,-149.54 545.94,-150.91"/>
<polygon fill="#63b8ff" stroke="#63b8ff" points="544.23,-153.97 554.76,-155.15 547.26,-147.66 544.23,-153.97"/>
</a>
</g>
</g>
<!-- Node7&#45;&gt;Node5 -->
<g id="edge9_Node000007_Node000005" class="edge">
<title>Node7&#45;&gt;Node5</title>
<g id="a_edge9_Node000007_Node000005"><a xlink:title=" ">
<path fill="none" stroke="#63b8ff" d="M475.27,-60.17C484.63,-63.94 494.09,-68.4 502.5,-73.53 521.02,-84.85 519.49,-96.06 538.5,-106.53 543.49,-109.28 548.85,-111.68 554.35,-113.78"/>
<polygon fill="#63b8ff" stroke="#63b8ff" points="553,-117.02 563.59,-116.97 555.28,-110.4 553,-117.02"/>
</a>
</g>
</g>
<!-- Node7&#45;&gt;Node6 -->
<g id="edge10_Node000007_Node000006" class="edge">
<title>Node7&#45;&gt;Node6</title>
<g id="a_edge10_Node000007_Node000006"><a xlink:title=" ">
<path fill="none" stroke="#63b8ff" d="M494.29,-60.24C515.86,-65.08 539.32,-70.34 559.84,-74.94"/>
<polygon fill="#63b8ff" stroke="#63b8ff" points="558.9,-78.32 569.42,-77.09 560.43,-71.49 558.9,-78.32"/>
</a>
</g>
</g>
<!-- Node8 -->
<g id="Node000008" class="node">
<title>Node8</title>
<g id="a_Node000008"><a xlink:href="class_nuki_1_1_nuki_ble.html#a25207bb564a4b54b8dd8c872177b53a7" target="_top" xlink:title="Returns if BLE is pairing/paired/connected with a Smart Lock Ultra.">
<polygon fill="white" stroke="#666666" points="682,-54.16 552,-54.16 552,-34.91 682,-34.91 682,-54.16"/>
<text text-anchor="middle" x="617" y="-40.66" font-family="Helvetica,sans-Serif" font-size="10.00">Nuki::NukiBle::isLockUltra</text>
</a>
</g>
</g>
<!-- Node7&#45;&gt;Node8 -->
<g id="edge8_Node000007_Node000008" class="edge">
<title>Node7&#45;&gt;Node8</title>
<g id="a_edge8_Node000007_Node000008"><a xlink:title=" ">
<path fill="none" stroke="#63b8ff" d="M495.38,-44.53C510.07,-44.53 525.6,-44.53 540.44,-44.53"/>
<polygon fill="#63b8ff" stroke="#63b8ff" points="540.12,-48.03 550.12,-44.53 540.12,-41.03 540.12,-48.03"/>
</a>
</g>
</g>
<!-- Node9&#45;&gt;Node4 -->
<g id="edge12_Node000009_Node000004" class="edge">
<title>Node9&#45;&gt;Node4</title>
<g id="a_edge12_Node000009_Node000004"><a xlink:title=" ">
<path fill="none" stroke="#63b8ff" d="M502.8,-172.71C510.74,-172.63 518.85,-172.55 526.89,-172.46"/>
<polygon fill="#63b8ff" stroke="#63b8ff" points="526.72,-175.96 536.68,-172.36 526.65,-168.97 526.72,-175.96"/>
</a>
</g>
</g>
<!-- Node9&#45;&gt;Node5 -->
<g id="edge13_Node000009_Node000005" class="edge">
<title>Node9&#45;&gt;Node5</title>
<g id="a_edge13_Node000009_Node000005"><a xlink:title=" ">
<path fill="none" stroke="#63b8ff" d="M466.33,-163.44C494.8,-156.61 532.64,-147.53 563.14,-140.21"/>
<polygon fill="#63b8ff" stroke="#63b8ff" points="563.64,-143.69 572.55,-137.96 562.01,-136.89 563.64,-143.69"/>
</a>
</g>
</g>
<!-- Node9&#45;&gt;Node6 -->
<g id="edge14_Node000009_Node000006" class="edge">
<title>Node9&#45;&gt;Node6</title>
<g id="a_edge14_Node000009_Node000006"><a xlink:title=" ">
<path fill="none" stroke="#63b8ff" d="M484.11,-163.49C490.58,-161.11 496.86,-158.17 502.5,-154.53 524.32,-140.47 516.87,-122.88 538.5,-108.53 542.25,-106.05 546.28,-103.85 550.47,-101.92"/>
<polygon fill="#63b8ff" stroke="#63b8ff" points="551.76,-105.17 559.72,-98.19 549.14,-98.68 551.76,-105.17"/>
</a>
</g>
</g>
</g>
</svg>

<g id="navigator" transform="translate(0 0)" fill="#404254">
  <rect fill="#f2f5e9" fill-opacity="0.5" stroke="#606060" stroke-width=".5" x="0" y="0" width="60" height="60"/>
  <use id="zoomplus" xlink:href="#zoomPlus" x="17" y="9" onmousedown="handleZoom(evt,'in')"/>
  <use id="zoomminus" xlink:href="#zoomMin" x="42" y="9" onmousedown="handleZoom(evt,'out')"/>
  <use id="reset" xlink:href="#resetDef" x="30" y="36" onmousedown="handleReset()"/>
   <use id="arrowup" xlink:href="#arrowUp" x="0" y="0" onmousedown="handlePan(0,-1)"/>
  <use id="arrowright" xlink:href="#arrowRight" x="0" y="0" onmousedown="handlePan(1,0)"/>
  <use id="arrowdown" xlink:href="#arrowDown" x="0" y="0" onmousedown="handlePan(0,1)"/>
  <use id="arrowleft" xlink:href="#arrowLeft" x="0" y="0" onmousedown="handlePan(-1,0)"/>
</g>
<svg viewBox="0 0 15 15" width="100%" height="30px" preserveAspectRatio="xMaxYMin meet">
 <g id="arrow_out" transform="scale(0.3 0.3)">
  <a xlink:href="class_nuki_1_1_nuki_ble_aac2e6b5ca939d23e8f590519b78df9f1_cgraph_org.svg" target="_base">
   <rect id="button" ry="5" rx="5" y="6" x="6" height="38" width="38"
        fill="#f2f5e9" fill-opacity="0.5" stroke="#606060" stroke-width="1.0"/>
   <path id="arrow"
     d="M 11.500037,31.436501 C 11.940474,20.09759 22.043105,11.32322 32.158766,21.979434 L 37.068811,17.246167 C 37.068811,17.246167 37.088388,32 37.088388,32 L 22.160133,31.978069 C 22.160133,31.978069 26.997745,27.140456 26.997745,27.140456 C 18.528582,18.264221 13.291696,25.230495 11.500037,31.436501 z"
     style="fill:#404040;"/>
  </a>
 </g>
</svg>

<style type='text/css'>
<![CDATA[
[data-mouse-over-selected='false'] { opacity: 0.7; }
[data-mouse-over-selected='true']  { opacity: 1.0; }
]]>
</style>
<script type="application/ecmascript"><![CDATA[
document.addEventListener('DOMContentLoaded', (event) => {
  highlightEdges();
  highlightAdjacentNodes();
});
]]></script>
</svg>
