<?xml version="1.0" encoding="UTF-8" standalone="no"?>
<!DOCTYPE svg PUBLIC "-//W3C//DTD SVG 1.1//EN"
 "http://www.w3.org/Graphics/SVG/1.1/DTD/svg11.dtd">
<!-- Generated by graphviz version 12.0.0 (20240704.0754)
 -->
<!-- Title: Nuki::NukiBle::requestCalibration Pages: 1 -->
<svg width="731pt" height="162pt"
 viewBox="0.00 0.00 730.50 161.88" xmlns="http://www.w3.org/2000/svg" xmlns:xlink="http://www.w3.org/1999/xlink">
<g id="graph0" class="graph" transform="scale(1 1) rotate(0) translate(4 157.88)">
<title>Nuki::NukiBle::requestCalibration</title>
<!-- Node1 -->
<g id="Node000001" class="node">
<title>Node1</title>
<g id="a_Node000001"><a xlink:title="Sends an calibration (mechanical) request to the lock via BLE.">
<polygon fill="#999999" stroke="#666666" points="157.75,-83.25 0,-83.25 0,-64 157.75,-64 157.75,-83.25"/>
<text text-anchor="middle" x="78.88" y="-69.75" font-family="Helvetica,sans-Serif" font-size="10.00">Nuki::NukiBle::requestCalibration</text>
</a>
</g>
</g>
<!-- Node2 -->
<g id="Node000002" class="node">
<title>Node2</title>
<g id="a_Node000002"><a xlink:href="class_nuki_1_1_nuki_ble.html#af1f1e299e8d97e053bba80e92ba285d6" target="_top" xlink:title=" ">
<polygon fill="white" stroke="#666666" points="335,-83.25 193.75,-83.25 193.75,-64 335,-64 335,-83.25"/>
<text text-anchor="middle" x="264.38" y="-69.75" font-family="Helvetica,sans-Serif" font-size="10.00">Nuki::NukiBle::executeAction</text>
</a>
</g>
</g>
<!-- Node1&#45;&gt;Node2 -->
<g id="edge1_Node000001_Node000002" class="edge">
<title>Node1&#45;&gt;Node2</title>
<g id="a_edge1_Node000001_Node000002"><a xlink:title=" ">
<path fill="none" stroke="#63b8ff" d="M158.23,-73.62C166.08,-73.62 174.07,-73.62 181.95,-73.62"/>
<polygon fill="#63b8ff" stroke="#63b8ff" points="181.89,-77.13 191.89,-73.63 181.89,-70.13 181.89,-77.13"/>
</a>
</g>
</g>
<!-- Node3 -->
<g id="Node000003" class="node">
<title>Node3</title>
<g id="a_Node000003"><a xlink:href="class_nuki_1_1_nuki_ble.html#ada0f3beebd95d35c122e25dd3f9eb886" target="_top" xlink:title=" ">
<polygon fill="white" stroke="#666666" points="519,-153.88 381.5,-153.88 381.5,-123.38 519,-123.38 519,-153.88"/>
<text text-anchor="start" x="389.5" y="-140.38" font-family="Helvetica,sans-Serif" font-size="10.00">Nuki::NukiBle::cmdChallAcc</text>
<text text-anchor="middle" x="450.25" y="-129.12" font-family="Helvetica,sans-Serif" font-size="10.00">StateMachine</text>
</a>
</g>
</g>
<!-- Node2&#45;&gt;Node3 -->
<g id="edge2_Node000002_Node000003" class="edge">
<title>Node2&#45;&gt;Node3</title>
<g id="a_edge2_Node000002_Node000003"><a xlink:title=" ">
<path fill="none" stroke="#63b8ff" d="M293.7,-83.64C320.43,-93.09 361.22,-107.51 394.32,-119.21"/>
<polygon fill="#63b8ff" stroke="#63b8ff" points="392.75,-122.37 403.35,-122.4 395.09,-115.77 392.75,-122.37"/>
</a>
</g>
</g>
<!-- Node4 -->
<g id="Node000004" class="node">
<title>Node4</title>
<g id="a_Node000004"><a xlink:href="class_nuki_1_1_nuki_ble.html#a6e8fca90c04249660dce6cb993eb4495" target="_top" xlink:title=" ">
<polygon fill="white" stroke="#666666" points="722.5,-88.88 565.5,-88.88 565.5,-58.38 722.5,-58.38 722.5,-88.88"/>
<text text-anchor="start" x="573.5" y="-75.38" font-family="Helvetica,sans-Serif" font-size="10.00">Nuki::NukiBle::extendDisconnect</text>
<text text-anchor="middle" x="644" y="-64.12" font-family="Helvetica,sans-Serif" font-size="10.00">Timeout</text>
</a>
</g>
</g>
<!-- Node2&#45;&gt;Node4 -->
<g id="edge8_Node000002_Node000004" class="edge">
<title>Node2&#45;&gt;Node4</title>
<g id="a_edge8_Node000002_Node000004"><a xlink:title=" ">
<path fill="none" stroke="#63b8ff" d="M335.25,-75.89C347.18,-76.2 359.44,-76.46 371,-76.62 441.44,-77.63 459.06,-77.56 529.5,-76.62 537.43,-76.52 545.66,-76.37 553.92,-76.2"/>
<polygon fill="#63b8ff" stroke="#63b8ff" points="553.73,-79.71 563.65,-75.99 553.57,-72.71 553.73,-79.71"/>
</a>
</g>
</g>
<!-- Node5 -->
<g id="Node000005" class="node">
<title>Node5</title>
<g id="a_Node000005"><a xlink:href="class_nuki_1_1_nuki_ble.html#a59169a9f492793762e3c6ba39b611b07" target="_top" xlink:title=" ">
<polygon fill="white" stroke="#666666" points="522,-67.88 378.5,-67.88 378.5,-37.38 522,-37.38 522,-67.88"/>
<text text-anchor="start" x="386.5" y="-54.38" font-family="Helvetica,sans-Serif" font-size="10.00">Nuki::NukiBle::cmdChallState</text>
<text text-anchor="middle" x="450.25" y="-43.12" font-family="Helvetica,sans-Serif" font-size="10.00">Machine</text>
</a>
</g>
</g>
<!-- Node2&#45;&gt;Node5 -->
<g id="edge4_Node000002_Node000005" class="edge">
<title>Node2&#45;&gt;Node5</title>
<g id="a_edge4_Node000002_Node000005"><a xlink:title=" ">
<path fill="none" stroke="#63b8ff" d="M335.41,-65.63C345.7,-64.45 356.37,-63.23 366.88,-62.03"/>
<polygon fill="#63b8ff" stroke="#63b8ff" points="367.14,-65.53 376.68,-60.91 366.35,-58.57 367.14,-65.53"/>
</a>
</g>
</g>
<!-- Node6 -->
<g id="Node000006" class="node">
<title>Node6</title>
<g id="a_Node000006"><a xlink:href="class_nuki_1_1_nuki_ble.html#ad135bb1455665decfddff67772c1d411" target="_top" xlink:title=" ">
<polygon fill="white" stroke="#666666" points="529.5,-19.25 371,-19.25 371,0 529.5,0 529.5,-19.25"/>
<text text-anchor="middle" x="450.25" y="-5.75" font-family="Helvetica,sans-Serif" font-size="10.00">Nuki::NukiBle::cmdStateMachine</text>
</a>
</g>
</g>
<!-- Node2&#45;&gt;Node6 -->
<g id="edge6_Node000002_Node000006" class="edge">
<title>Node2&#45;&gt;Node6</title>
<g id="a_edge6_Node000002_Node000006"><a xlink:title=" ">
<path fill="none" stroke="#63b8ff" d="M286.03,-63.63C307.04,-53.74 340.73,-38.67 371,-28.62 377.53,-26.46 384.44,-24.42 391.35,-22.55"/>
<polygon fill="#63b8ff" stroke="#63b8ff" points="391.88,-26.02 400.67,-20.12 390.11,-19.25 391.88,-26.02"/>
</a>
</g>
</g>
<!-- Node3&#45;&gt;Node4 -->
<g id="edge3_Node000003_Node000004" class="edge">
<title>Node3&#45;&gt;Node4</title>
<g id="a_edge3_Node000003_Node000004"><a xlink:title=" ">
<path fill="none" stroke="#63b8ff" d="M497.67,-122.89C524.18,-113.9 557.65,-102.56 585.79,-93.02"/>
<polygon fill="#63b8ff" stroke="#63b8ff" points="586.9,-96.34 595.24,-89.81 584.65,-89.71 586.9,-96.34"/>
</a>
</g>
</g>
<!-- Node5&#45;&gt;Node4 -->
<g id="edge5_Node000005_Node000004" class="edge">
<title>Node5&#45;&gt;Node4</title>
<g id="a_edge5_Node000005_Node000004"><a xlink:title=" ">
<path fill="none" stroke="#63b8ff" d="M522.38,-60.41C532.63,-61.54 543.29,-62.71 553.84,-63.86"/>
<polygon fill="#63b8ff" stroke="#63b8ff" points="553.4,-67.33 563.72,-64.94 554.16,-60.37 553.4,-67.33"/>
</a>
</g>
</g>
<!-- Node6&#45;&gt;Node4 -->
<g id="edge7_Node000006_Node000004" class="edge">
<title>Node6&#45;&gt;Node4</title>
<g id="a_edge7_Node000006_Node000004"><a xlink:title=" ">
<path fill="none" stroke="#63b8ff" d="M497.47,-19.72C508.07,-22.34 519.24,-25.36 529.5,-28.62 551.93,-35.76 576.26,-45.17 596.62,-53.54"/>
<polygon fill="#63b8ff" stroke="#63b8ff" points="595.2,-56.74 605.78,-57.35 597.89,-50.28 595.2,-56.74"/>
</a>
</g>
</g>
</g>
</svg>
