<?xml version="1.0" encoding="UTF-8" standalone="no"?>
<!DOCTYPE svg PUBLIC "-//W3C//DTD SVG 1.1//EN"
 "http://www.w3.org/Graphics/SVG/1.1/DTD/svg11.dtd">
<!-- Generated by graphviz version 12.2.1 (20241206.2353)
 -->
<!-- Title: NukiOpener::NukiOpener::addTimeControlEntry Pages: 1 -->
<svg width="502pt" height="91pt"
 viewBox="0.00 0.00 501.50 91.25" xmlns="http://www.w3.org/2000/svg" xmlns:xlink="http://www.w3.org/1999/xlink">
<g id="graph0" class="graph" transform="scale(1 1) rotate(0) translate(4 87.25)">
<title>NukiOpener::NukiOpener::addTimeControlEntry</title>
<!-- Node1 -->
<g id="Node000001" class="node">
<title>Node1</title>
<g id="a_Node000001"><a xlink:title="Sends a new time(d) control entry via BLE to the lock. This entry is independant of keypad or authori...">
<polygon fill="#999999" stroke="#666666" points="124,-67.88 0,-67.88 0,-37.38 124,-37.38 124,-67.88"/>
<text text-anchor="start" x="8" y="-54.38" font-family="Helvetica,sans-Serif" font-size="10.00">NukiOpener::NukiOpener</text>
<text text-anchor="middle" x="62" y="-43.12" font-family="Helvetica,sans-Serif" font-size="10.00">::addTimeControlEntry</text>
</a>
</g>
</g>
<!-- Node2 -->
<g id="Node000002" class="node">
<title>Node2</title>
<g id="a_Node000002"><a xlink:href="namespace_nuki_opener.html#ac87f753e40affc2a7be0d69862685555" target="_top" xlink:title=" ">
<polygon fill="white" stroke="#666666" points="493.5,-83.25 353.75,-83.25 353.75,-64 493.5,-64 493.5,-83.25"/>
<text text-anchor="middle" x="423.62" y="-69.75" font-family="Helvetica,sans-Serif" font-size="10.00">NukiOpener::logMessageVar</text>
</a>
</g>
</g>
<!-- Node1&#45;&gt;Node2 -->
<g id="edge1_Node000001_Node000002" class="edge">
<title>Node1&#45;&gt;Node2</title>
<g id="a_edge1_Node000001_Node000002"><a xlink:title=" ">
<path fill="none" stroke="#63b8ff" d="M116.69,-68.37C130.67,-71.79 145.79,-74.89 160,-76.62 220.83,-84.04 290.17,-82.84 342.32,-80.03"/>
<polygon fill="#63b8ff" stroke="#63b8ff" points="342.21,-83.54 352,-79.48 341.81,-76.55 342.21,-83.54"/>
</a>
</g>
</g>
<!-- Node3 -->
<g id="Node000003" class="node">
<title>Node3</title>
<g id="a_Node000003"><a xlink:href="namespace_nuki_opener.html#a2dddaad56246fc87dd8f3f2939ebef93" target="_top" xlink:title=" ">
<polygon fill="white" stroke="#666666" points="317.75,-67.88 160,-67.88 160,-37.38 317.75,-37.38 317.75,-67.88"/>
<text text-anchor="start" x="168" y="-54.38" font-family="Helvetica,sans-Serif" font-size="10.00">NukiOpener::logNewTimeControl</text>
<text text-anchor="middle" x="238.88" y="-43.12" font-family="Helvetica,sans-Serif" font-size="10.00">Entry</text>
</a>
</g>
</g>
<!-- Node1&#45;&gt;Node3 -->
<g id="edge2_Node000001_Node000003" class="edge">
<title>Node1&#45;&gt;Node3</title>
<g id="a_edge2_Node000001_Node000003"><a xlink:title=" ">
<path fill="none" stroke="#63b8ff" d="M124.16,-52.62C131.93,-52.62 140,-52.62 148.1,-52.62"/>
<polygon fill="#63b8ff" stroke="#63b8ff" points="148.02,-56.13 158.02,-52.63 148.02,-49.13 148.02,-56.13"/>
</a>
</g>
</g>
<!-- Node4 -->
<g id="Node000004" class="node">
<title>Node4</title>
<g id="a_Node000004"><a xlink:href="namespace_nuki.html#a438fdfcef9f81eb0a3e493631b71ca5b" target="_top" xlink:title=" ">
<polygon fill="white" stroke="#666666" points="281.38,-19.25 196.38,-19.25 196.38,0 281.38,0 281.38,-19.25"/>
<text text-anchor="middle" x="238.88" y="-5.75" font-family="Helvetica,sans-Serif" font-size="10.00">Nuki::printBuffer</text>
</a>
</g>
</g>
<!-- Node1&#45;&gt;Node4 -->
<g id="edge4_Node000001_Node000004" class="edge">
<title>Node1&#45;&gt;Node4</title>
<g id="a_edge4_Node000001_Node000004"><a xlink:title=" ">
<path fill="none" stroke="#63b8ff" d="M124.31,-37.42C136.15,-34.5 148.46,-31.46 160,-28.62 168.27,-26.59 177.03,-24.45 185.59,-22.36"/>
<polygon fill="#63b8ff" stroke="#63b8ff" points="186.29,-25.79 195.17,-20.02 184.63,-18.99 186.29,-25.79"/>
</a>
</g>
</g>
<!-- Node3&#45;&gt;Node2 -->
<g id="edge3_Node000003_Node000002" class="edge">
<title>Node3&#45;&gt;Node2</title>
<g id="a_edge3_Node000003_Node000002"><a xlink:title=" ">
<path fill="none" stroke="#63b8ff" d="M318.17,-61.62C326.14,-62.54 334.24,-63.47 342.23,-64.39"/>
<polygon fill="#63b8ff" stroke="#63b8ff" points="341.59,-67.84 351.92,-65.5 342.39,-60.88 341.59,-67.84"/>
</a>
</g>
</g>
</g>
</svg>
