<?xml version="1.0" encoding="UTF-8" standalone="no"?>
<!DOCTYPE svg PUBLIC "-//W3C//DTD SVG 1.1//EN"
 "http://www.w3.org/Graphics/SVG/1.1/DTD/svg11.dtd">
<!-- Generated by graphviz version 12.0.0 (20240704.0754)
 -->
<!-- Title: NukiOpener::NukiOpener::handleReturnMessage Pages: 1 -->
<svg width="495pt" height="273pt"
 viewBox="0.00 0.00 494.75 272.88" xmlns="http://www.w3.org/2000/svg" xmlns:xlink="http://www.w3.org/1999/xlink">
<g id="graph0" class="graph" transform="scale(1 1) rotate(0) translate(4 268.88)">
<title>NukiOpener::NukiOpener::handleReturnMessage</title>
<!-- Node1 -->
<g id="Node000001" class="node">
<title>Node1</title>
<g id="a_Node000001"><a xlink:title=" ">
<polygon fill="#999999" stroke="#666666" points="124,-147.88 0,-147.88 0,-117.38 124,-117.38 124,-147.88"/>
<text text-anchor="start" x="8" y="-134.38" font-family="Helvetica,sans-Serif" font-size="10.00">NukiOpener::NukiOpener</text>
<text text-anchor="middle" x="62" y="-123.12" font-family="Helvetica,sans-Serif" font-size="10.00">::handleReturnMessage</text>
</a>
</g>
</g>
<!-- Node2 -->
<g id="Node000002" class="node">
<title>Node2</title>
<g id="a_Node000002"><a xlink:href="class_nuki_1_1_nuki_ble.html#ac2e28f07ed0a738f73c5f77b46cdb1bb" target="_top" xlink:title=" ">
<polygon fill="white" stroke="#666666" points="306.12,-264.88 169.38,-264.88 169.38,-234.38 306.12,-234.38 306.12,-264.88"/>
<text text-anchor="start" x="177.38" y="-251.38" font-family="Helvetica,sans-Serif" font-size="10.00">Nuki::NukiBle::handleReturn</text>
<text text-anchor="middle" x="237.75" y="-240.12" font-family="Helvetica,sans-Serif" font-size="10.00">Message</text>
</a>
</g>
</g>
<!-- Node1&#45;&gt;Node2 -->
<g id="edge1_Node000001_Node000002" class="edge">
<title>Node1&#45;&gt;Node2</title>
<g id="a_edge1_Node000001_Node000002"><a xlink:title=" ">
<path fill="none" stroke="#63b8ff" d="M75.14,-148.08C92.06,-168.61 124.65,-204.74 160,-225.62 162.15,-226.89 164.37,-228.1 166.65,-229.26"/>
<polygon fill="#63b8ff" stroke="#63b8ff" points="164.98,-232.34 175.53,-233.31 167.88,-225.97 164.98,-232.34"/>
</a>
</g>
</g>
<!-- Node3 -->
<g id="Node000003" class="node">
<title>Node3</title>
<g id="a_Node000003"><a xlink:href="namespace_nuki_opener.html#a5df6b087b417e58c5c7a085a7f97fa63" target="_top" xlink:title=" ">
<polygon fill="white" stroke="#666666" points="315.5,-216.25 160,-216.25 160,-197 315.5,-197 315.5,-216.25"/>
<text text-anchor="middle" x="237.75" y="-202.75" font-family="Helvetica,sans-Serif" font-size="10.00">NukiOpener::logAdvancedConfig</text>
</a>
</g>
</g>
<!-- Node1&#45;&gt;Node3 -->
<g id="edge2_Node000001_Node000003" class="edge">
<title>Node1&#45;&gt;Node3</title>
<g id="a_edge2_Node000001_Node000003"><a xlink:title=" ">
<path fill="none" stroke="#63b8ff" d="M85.55,-148.21C104.62,-160.74 133.06,-177.96 160,-188.62 164.37,-190.35 168.94,-191.94 173.59,-193.4"/>
<polygon fill="#63b8ff" stroke="#63b8ff" points="172.48,-196.72 183.05,-196.13 174.42,-189.99 172.48,-196.72"/>
</a>
</g>
</g>
<!-- Node4 -->
<g id="Node000004" class="node">
<title>Node4</title>
<g id="a_Node000004"><a xlink:href="namespace_nuki_opener.html#a92b38c2119f39bf1c525b70cb49d3232" target="_top" xlink:title=" ">
<polygon fill="white" stroke="#666666" points="309.88,-179.25 165.62,-179.25 165.62,-160 309.88,-160 309.88,-179.25"/>
<text text-anchor="middle" x="237.75" y="-165.75" font-family="Helvetica,sans-Serif" font-size="10.00">NukiOpener::logBatteryReport</text>
</a>
</g>
</g>
<!-- Node1&#45;&gt;Node4 -->
<g id="edge3_Node000001_Node000004" class="edge">
<title>Node1&#45;&gt;Node4</title>
<g id="a_edge3_Node000001_Node000004"><a xlink:title=" ">
<path fill="none" stroke="#63b8ff" d="M124.26,-145.67C141.81,-149.41 160.89,-153.47 178.27,-157.17"/>
<polygon fill="#63b8ff" stroke="#63b8ff" points="177.43,-160.57 187.94,-159.23 178.88,-153.72 177.43,-160.57"/>
</a>
</g>
</g>
<!-- Node5 -->
<g id="Node000005" class="node">
<title>Node5</title>
<g id="a_Node000005"><a xlink:href="namespace_nuki_opener.html#a01fb60e0e360c42ad366aef691d5a390" target="_top" xlink:title=" ">
<polygon fill="white" stroke="#666666" points="293.75,-142.25 181.75,-142.25 181.75,-123 293.75,-123 293.75,-142.25"/>
<text text-anchor="middle" x="237.75" y="-128.75" font-family="Helvetica,sans-Serif" font-size="10.00">NukiOpener::logConfig</text>
</a>
</g>
</g>
<!-- Node1&#45;&gt;Node5 -->
<g id="edge4_Node000001_Node000005" class="edge">
<title>Node1&#45;&gt;Node5</title>
<g id="a_edge4_Node000001_Node000005"><a xlink:title=" ">
<path fill="none" stroke="#63b8ff" d="M124.26,-132.62C139.05,-132.62 154.93,-132.62 169.96,-132.62"/>
<polygon fill="#63b8ff" stroke="#63b8ff" points="169.75,-136.13 179.75,-132.63 169.75,-129.13 169.75,-136.13"/>
</a>
</g>
</g>
<!-- Node6 -->
<g id="Node000006" class="node">
<title>Node6</title>
<g id="a_Node000006"><a xlink:href="namespace_nuki_opener.html#ad694b05ff6125ebf77e067be3002d075" target="_top" xlink:title=" ">
<polygon fill="white" stroke="#666666" points="300.88,-67.88 174.62,-67.88 174.62,-37.38 300.88,-37.38 300.88,-67.88"/>
<text text-anchor="start" x="182.62" y="-54.38" font-family="Helvetica,sans-Serif" font-size="10.00">NukiOpener::logKeyturner</text>
<text text-anchor="middle" x="237.75" y="-43.12" font-family="Helvetica,sans-Serif" font-size="10.00">State</text>
</a>
</g>
</g>
<!-- Node1&#45;&gt;Node6 -->
<g id="edge5_Node000001_Node000006" class="edge">
<title>Node1&#45;&gt;Node6</title>
<g id="a_edge5_Node000001_Node000006"><a xlink:title=" ">
<path fill="none" stroke="#63b8ff" d="M86.54,-117.06C105.72,-104.87 133.82,-88.11 160,-76.62 163.49,-75.09 167.12,-73.61 170.8,-72.19"/>
<polygon fill="#63b8ff" stroke="#63b8ff" points="171.68,-75.6 179.87,-68.88 169.27,-69.03 171.68,-75.6"/>
</a>
</g>
</g>
<!-- Node10 -->
<g id="Node000010" class="node">
<title>Node10</title>
<g id="a_Node000010"><a xlink:href="namespace_nuki_opener.html#a1c24f78474980cc2d90ee83e371621c4" target="_top" xlink:title=" ">
<polygon fill="white" stroke="#666666" points="299.38,-105.25 176.12,-105.25 176.12,-86 299.38,-86 299.38,-105.25"/>
<text text-anchor="middle" x="237.75" y="-91.75" font-family="Helvetica,sans-Serif" font-size="10.00">NukiOpener::logLogEntry</text>
</a>
</g>
</g>
<!-- Node1&#45;&gt;Node10 -->
<g id="edge9_Node000001_Node000010" class="edge">
<title>Node1&#45;&gt;Node10</title>
<g id="a_edge9_Node000001_Node000010"><a xlink:title=" ">
<path fill="none" stroke="#63b8ff" d="M124.26,-119.58C141.81,-115.84 160.89,-111.78 178.27,-108.08"/>
<polygon fill="#63b8ff" stroke="#63b8ff" points="178.88,-111.53 187.94,-106.02 177.43,-104.68 178.88,-111.53"/>
</a>
</g>
</g>
<!-- Node11 -->
<g id="Node000011" class="node">
<title>Node11</title>
<g id="a_Node000011"><a xlink:href="namespace_nuki.html#a280e19d4682ca4b35d3fe64001da816a" target="_top" xlink:title=" ">
<polygon fill="white" stroke="#666666" points="280.25,-19.25 195.25,-19.25 195.25,0 280.25,0 280.25,-19.25"/>
<text text-anchor="middle" x="237.75" y="-5.75" font-family="Helvetica,sans-Serif" font-size="10.00">Nuki::printBuffer</text>
</a>
</g>
</g>
<!-- Node1&#45;&gt;Node11 -->
<g id="edge12_Node000001_Node000011" class="edge">
<title>Node1&#45;&gt;Node11</title>
<g id="a_edge12_Node000001_Node000011"><a xlink:title=" ">
<path fill="none" stroke="#63b8ff" d="M73.18,-116.91C88.94,-93.88 121.47,-51.27 160,-28.62 167.32,-24.32 175.59,-20.99 183.92,-18.41"/>
<polygon fill="#63b8ff" stroke="#63b8ff" points="184.64,-21.84 193.36,-15.83 182.8,-15.08 184.64,-21.84"/>
</a>
</g>
</g>
<!-- Node7 -->
<g id="Node000007" class="node">
<title>Node7</title>
<g id="a_Node000007"><a xlink:href="namespace_nuki_opener.html#a84631e75b3f180ead51e1a292fcee637" target="_top" xlink:title=" ">
<polygon fill="white" stroke="#666666" points="486,-67.88 352.25,-67.88 352.25,-37.38 486,-37.38 486,-67.88"/>
<text text-anchor="start" x="360.25" y="-54.38" font-family="Helvetica,sans-Serif" font-size="10.00">NukiOpener::logCompletion</text>
<text text-anchor="middle" x="419.12" y="-43.12" font-family="Helvetica,sans-Serif" font-size="10.00">Status</text>
</a>
</g>
</g>
<!-- Node6&#45;&gt;Node7 -->
<g id="edge6_Node000006_Node000007" class="edge">
<title>Node6&#45;&gt;Node7</title>
<g id="a_edge6_Node000006_Node000007"><a xlink:title=" ">
<path fill="none" stroke="#63b8ff" d="M301.23,-52.62C313.9,-52.62 327.37,-52.62 340.49,-52.62"/>
<polygon fill="#63b8ff" stroke="#63b8ff" points="340.39,-56.13 350.39,-52.63 340.39,-49.13 340.39,-56.13"/>
</a>
</g>
</g>
<!-- Node8 -->
<g id="Node000008" class="node">
<title>Node8</title>
<g id="a_Node000008"><a xlink:href="namespace_nuki_opener.html#ab25308954cb451d83358353032200422" target="_top" xlink:title=" ">
<polygon fill="white" stroke="#666666" points="486.38,-105.25 351.88,-105.25 351.88,-86 486.38,-86 486.38,-105.25"/>
<text text-anchor="middle" x="419.12" y="-91.75" font-family="Helvetica,sans-Serif" font-size="10.00">NukiOpener::logLockAction</text>
</a>
</g>
</g>
<!-- Node6&#45;&gt;Node8 -->
<g id="edge7_Node000006_Node000008" class="edge">
<title>Node6&#45;&gt;Node8</title>
<g id="a_edge7_Node000006_Node000008"><a xlink:title=" ">
<path fill="none" stroke="#63b8ff" d="M301.23,-67.6C322.04,-72.59 345,-78.1 365.02,-82.9"/>
<polygon fill="#63b8ff" stroke="#63b8ff" points="364.11,-86.28 374.65,-85.2 365.74,-79.47 364.11,-86.28"/>
</a>
</g>
</g>
<!-- Node9 -->
<g id="Node000009" class="node">
<title>Node9</title>
<g id="a_Node000009"><a xlink:href="namespace_nuki_opener.html#a9915ff097023a69e5792e791336bfcd6" target="_top" xlink:title=" ">
<polygon fill="white" stroke="#666666" points="486.75,-19.25 351.5,-19.25 351.5,0 486.75,0 486.75,-19.25"/>
<text text-anchor="middle" x="419.12" y="-5.75" font-family="Helvetica,sans-Serif" font-size="10.00">NukiOpener::logNukiTrigger</text>
</a>
</g>
</g>
<!-- Node6&#45;&gt;Node9 -->
<g id="edge8_Node000006_Node000009" class="edge">
<title>Node6&#45;&gt;Node9</title>
<g id="a_edge8_Node000006_Node000009"><a xlink:title=" ">
<path fill="none" stroke="#63b8ff" d="M301.23,-37.65C322.04,-32.66 345,-27.15 365.02,-22.35"/>
<polygon fill="#63b8ff" stroke="#63b8ff" points="365.74,-25.78 374.65,-20.05 364.11,-18.97 365.74,-25.78"/>
</a>
</g>
</g>
<!-- Node10&#45;&gt;Node7 -->
<g id="edge10_Node000010_Node000007" class="edge">
<title>Node10&#45;&gt;Node7</title>
<g id="a_edge10_Node000010_Node000007"><a xlink:title=" ">
<path fill="none" stroke="#63b8ff" d="M280.81,-85.54C298.89,-81.21 320.61,-76 341.38,-71.02"/>
<polygon fill="#63b8ff" stroke="#63b8ff" points="342.08,-74.45 350.99,-68.72 340.45,-67.65 342.08,-74.45"/>
</a>
</g>
</g>
<!-- Node10&#45;&gt;Node8 -->
<g id="edge11_Node000010_Node000008" class="edge">
<title>Node10&#45;&gt;Node8</title>
<g id="a_edge11_Node000010_Node000008"><a xlink:title=" ">
<path fill="none" stroke="#63b8ff" d="M299.73,-95.62C312.74,-95.62 326.66,-95.62 340.21,-95.62"/>
<polygon fill="#63b8ff" stroke="#63b8ff" points="339.96,-99.13 349.96,-95.63 339.96,-92.13 339.96,-99.13"/>
</a>
</g>
</g>
</g>
</svg>
