<?xml version="1.0" encoding="UTF-8" standalone="no"?>
<!DOCTYPE svg PUBLIC "-//W3C//DTD SVG 1.1//EN"
 "http://www.w3.org/Graphics/SVG/1.1/DTD/svg11.dtd">
<!-- Generated by graphviz version 12.2.1 (20241206.2353)
 -->
<!-- Title: NukiOpener::NukiOpener::retrieveTimeControlEntries Pages: 1 -->
<!--zoomable 205 -->

<svg id="main" version="1.1" xmlns="http://www.w3.org/2000/svg" xmlns:xlink="http://www.w3.org/1999/xlink" xml:space="preserve" onload="init(evt)">

<style type="text/css"><![CDATA[
.node, .edge {opacity: 0.7;}
.node.selected, .edge.selected {opacity: 1;}
.edge:hover path { stroke: red; }
.edge:hover polygon { stroke: red; fill: red; }
]]></style>

<defs>
  <circle id="rim" cx="0" cy="0" r="7"/>
  <circle id="rim2" cx="0" cy="0" r="3.5"/>
  <g id="zoomPlus">
    <use xlink:href="#rim" fill="#404040"><set attributeName="fill" to="#808080" begin="zoomplus.mouseover" end="zoomplus.mouseout"/></use>
    <path d="M-4,0h8M0,-4v8" fill="none" stroke="white" stroke-width="1.5" pointer-events="none"/>
  </g>
  <g id="zoomMin">
    <use xlink:href="#rim" fill="#404040"><set attributeName="fill" to="#808080" begin="zoomminus.mouseover" end="zoomminus.mouseout"/></use>
    <path d="M-4,0h8" fill="none" stroke="white" stroke-width="1.5" pointer-events="none"/>
  </g>
  <g id="arrowUp" transform="translate(30 24)">
    <use xlink:href="#rim"/>
    <path pointer-events="none" fill="none" stroke="white" stroke-width="1.5" d="M0,-3.0v7 M-2.5,-0.5L0,-3.0L2.5,-0.5"/>
  </g>
  <g id="arrowRight" transform="rotate(90) translate(36 -43)">
    <use xlink:href="#rim"/>
    <path pointer-events="none" fill="none" stroke="white" stroke-width="1.5" d="M0,-3.0v7 M-2.5,-0.5L0,-3.0L2.5,-0.5"/>
  </g>
  <g id="arrowDown" transform="rotate(180) translate(-30 -48)">
    <use xlink:href="#rim"/>
    <path pointer-events="none" fill="none" stroke="white" stroke-width="1.5" d="M0,-3.0v7 M-2.5,-0.5L0,-3.0L2.5,-0.5"/>
  </g>
  <g id="arrowLeft" transform="rotate(270) translate(-36 17)">
    <use xlink:href="#rim"/>
    <path pointer-events="none" fill="none" stroke="white" stroke-width="1.5" d="M0,-3.0v7 M-2.5,-0.5L0,-3.0L2.5,-0.5"/>
  </g>
  <g id="resetDef">
    <use xlink:href="#rim2" fill="#404040"><set attributeName="fill" to="#808080" begin="reset.mouseover" end="reset.mouseout"/></use>
  </g>
</defs>
<script type="application/ecmascript">
var viewWidth = 708;
var viewHeight = 205;
var sectionId = 'dynsection-24';
</script>
<script type="application/ecmascript" xlink:href="svg.min.js"/>
<svg id="graph" class="graph">
<g id="viewport">
<title>NukiOpener::NukiOpener::retrieveTimeControlEntries</title>
<!-- Node1 -->
<g id="Node000001" class="node">
<title>Node1</title>
<g id="a_Node000001"><a xlink:title="Request the opener via BLE to send the existing time control entries.">
<polygon fill="#999999" stroke="#666666" points="135.25,-102.35 0,-102.35 0,-71.85 135.25,-71.85 135.25,-102.35"/>
<text text-anchor="start" x="8" y="-88.85" font-family="Helvetica,sans-Serif" font-size="10.00">NukiOpener::NukiOpener</text>
<text text-anchor="middle" x="67.62" y="-77.6" font-family="Helvetica,sans-Serif" font-size="10.00">::retrieveTimeControlEntries</text>
</a>
</g>
</g>
<!-- Node2 -->
<g id="Node000002" class="node">
<title>Node2</title>
<g id="a_Node000002"><a xlink:href="class_nuki_1_1_nuki_ble.html#af1f1e299e8d97e053bba80e92ba285d6" target="_top" xlink:title=" ">
<polygon fill="white" stroke="#666666" points="312.5,-96.73 171.25,-96.73 171.25,-77.48 312.5,-77.48 312.5,-96.73"/>
<text text-anchor="middle" x="241.88" y="-83.23" font-family="Helvetica,sans-Serif" font-size="10.00">Nuki::NukiBle::executeAction</text>
</a>
</g>
</g>
<!-- Node1&#45;&gt;Node2 -->
<g id="edge1_Node000001_Node000002" class="edge">
<title>Node1&#45;&gt;Node2</title>
<g id="a_edge1_Node000001_Node000002"><a xlink:title=" ">
<path fill="none" stroke="#63b8ff" d="M135.71,-87.1C143.55,-87.1 151.6,-87.1 159.6,-87.1"/>
<polygon fill="#63b8ff" stroke="#63b8ff" points="159.33,-90.6 169.33,-87.1 159.33,-83.6 159.33,-90.6"/>
</a>
</g>
</g>
<!-- Node3 -->
<g id="Node000003" class="node">
<title>Node3</title>
<g id="a_Node000003"><a xlink:href="class_nuki_1_1_nuki_ble.html#ada0f3beebd95d35c122e25dd3f9eb886" target="_top" xlink:title=" ">
<polygon fill="white" stroke="#666666" points="496.5,-173.35 359,-173.35 359,-142.85 496.5,-142.85 496.5,-173.35"/>
<text text-anchor="start" x="367" y="-159.85" font-family="Helvetica,sans-Serif" font-size="10.00">Nuki::NukiBle::cmdChallAcc</text>
<text text-anchor="middle" x="427.75" y="-148.6" font-family="Helvetica,sans-Serif" font-size="10.00">StateMachine</text>
</a>
</g>
</g>
<!-- Node2&#45;&gt;Node3 -->
<g id="edge2_Node000002_Node000003" class="edge">
<title>Node2&#45;&gt;Node3</title>
<g id="a_edge2_Node000002_Node000003"><a xlink:title=" ">
<path fill="none" stroke="#63b8ff" d="M264.06,-97.09C285.2,-106.87 318.74,-121.9 348.5,-133.1 353.71,-135.06 359.14,-137 364.62,-138.89"/>
<polygon fill="#63b8ff" stroke="#63b8ff" points="363.11,-142.08 373.71,-141.95 365.35,-135.44 363.11,-142.08"/>
</a>
</g>
</g>
<!-- Node4 -->
<g id="Node000004" class="node">
<title>Node4</title>
<g id="a_Node000004"><a xlink:href="class_nuki_1_1_nuki_ble.html#a6e8fca90c04249660dce6cb993eb4495" target="_top" xlink:title=" ">
<polygon fill="white" stroke="#666666" points="700,-169.35 543,-169.35 543,-138.85 700,-138.85 700,-169.35"/>
<text text-anchor="start" x="551" y="-155.85" font-family="Helvetica,sans-Serif" font-size="10.00">Nuki::NukiBle::extendDisconnect</text>
<text text-anchor="middle" x="621.5" y="-144.6" font-family="Helvetica,sans-Serif" font-size="10.00">Timeout</text>
</a>
</g>
</g>
<!-- Node2&#45;&gt;Node4 -->
<g id="edge14_Node000002_Node000004" class="edge">
<title>Node2&#45;&gt;Node4</title>
<g id="a_edge14_Node000002_Node000004"><a xlink:title=" ">
<path fill="none" stroke="#63b8ff" d="M249.89,-97.14C265.04,-117.83 303.14,-164.7 348.5,-182.1 421.01,-209.91 511.92,-190.75 568.11,-173.28"/>
<polygon fill="#63b8ff" stroke="#63b8ff" points="568.97,-176.68 577.43,-170.29 566.83,-170.02 568.97,-176.68"/>
</a>
</g>
</g>
<!-- Node5 -->
<g id="Node000005" class="node">
<title>Node5</title>
<g id="a_Node000005"><a xlink:href="class_nuki_1_1_nuki_ble.html#ac7ce691d9c3e586474655d1663eb2e20" target="_top" xlink:title=" ">
<polygon fill="white" stroke="#666666" points="687.62,-78.73 555.38,-78.73 555.38,-59.48 687.62,-59.48 687.62,-78.73"/>
<text text-anchor="middle" x="621.5" y="-65.23" font-family="Helvetica,sans-Serif" font-size="10.00">Nuki::NukiBle::logMessage</text>
</a>
</g>
</g>
<!-- Node2&#45;&gt;Node5 -->
<g id="edge15_Node000002_Node000005" class="edge">
<title>Node2&#45;&gt;Node5</title>
<g id="a_edge15_Node000002_Node000005"><a xlink:title=" ">
<path fill="none" stroke="#63b8ff" d="M252.81,-77.03C270.28,-60.1 308.49,-26.58 348.5,-14.1 415.75,6.88 438.34,1.66 507,-14.1 539.61,-21.59 573.73,-39.73 595.94,-53.14"/>
<polygon fill="#63b8ff" stroke="#63b8ff" points="593.91,-56 604.25,-58.3 597.6,-50.06 593.91,-56"/>
</a>
</g>
</g>
<!-- Node6 -->
<g id="Node000006" class="node">
<title>Node6</title>
<g id="a_Node000006"><a xlink:href="class_nuki_1_1_nuki_ble.html#af3650133f46aeca48a5f01b95d23ab71" target="_top" xlink:title=" ">
<polygon fill="white" stroke="#666666" points="695.12,-116.73 547.88,-116.73 547.88,-97.48 695.12,-97.48 695.12,-116.73"/>
<text text-anchor="middle" x="621.5" y="-103.23" font-family="Helvetica,sans-Serif" font-size="10.00">Nuki::NukiBle::logMessageVar</text>
</a>
</g>
</g>
<!-- Node2&#45;&gt;Node6 -->
<g id="edge16_Node000002_Node000006" class="edge">
<title>Node2&#45;&gt;Node6</title>
<g id="a_edge16_Node000002_Node000006"><a xlink:title=" ">
<path fill="none" stroke="#63b8ff" d="M262.45,-77.03C307.68,-55.24 422.08,-8.66 507,-47.1 529.09,-57.1 522.27,-75.52 543,-88.1 545.93,-89.88 549.01,-91.49 552.19,-92.95"/>
<polygon fill="#63b8ff" stroke="#63b8ff" points="550.63,-96.09 561.22,-96.55 553.23,-89.59 550.63,-96.09"/>
</a>
</g>
</g>
<!-- Node7 -->
<g id="Node000007" class="node">
<title>Node7</title>
<g id="a_Node000007"><a xlink:href="class_nuki_1_1_nuki_ble.html#a59169a9f492793762e3c6ba39b611b07" target="_top" xlink:title=" ">
<polygon fill="white" stroke="#666666" points="499.5,-124.35 356,-124.35 356,-93.85 499.5,-93.85 499.5,-124.35"/>
<text text-anchor="start" x="364" y="-110.85" font-family="Helvetica,sans-Serif" font-size="10.00">Nuki::NukiBle::cmdChallState</text>
<text text-anchor="middle" x="427.75" y="-99.6" font-family="Helvetica,sans-Serif" font-size="10.00">Machine</text>
</a>
</g>
</g>
<!-- Node2&#45;&gt;Node7 -->
<g id="edge6_Node000002_Node000007" class="edge">
<title>Node2&#45;&gt;Node7</title>
<g id="a_edge6_Node000002_Node000007"><a xlink:title=" ">
<path fill="none" stroke="#63b8ff" d="M312.91,-95.48C323.2,-96.71 333.87,-97.99 344.38,-99.25"/>
<polygon fill="#63b8ff" stroke="#63b8ff" points="343.84,-102.71 354.18,-100.42 344.67,-95.76 343.84,-102.71"/>
</a>
</g>
</g>
<!-- Node8 -->
<g id="Node000008" class="node">
<title>Node8</title>
<g id="a_Node000008"><a xlink:href="class_nuki_1_1_nuki_ble.html#ad135bb1455665decfddff67772c1d411" target="_top" xlink:title=" ">
<polygon fill="white" stroke="#666666" points="507,-75.73 348.5,-75.73 348.5,-56.48 507,-56.48 507,-75.73"/>
<text text-anchor="middle" x="427.75" y="-62.23" font-family="Helvetica,sans-Serif" font-size="10.00">Nuki::NukiBle::cmdStateMachine</text>
</a>
</g>
</g>
<!-- Node2&#45;&gt;Node8 -->
<g id="edge10_Node000002_Node000008" class="edge">
<title>Node2&#45;&gt;Node8</title>
<g id="a_edge10_Node000002_Node000008"><a xlink:title=" ">
<path fill="none" stroke="#63b8ff" d="M312.91,-79.1C320.78,-78.21 328.87,-77.28 336.94,-76.36"/>
<polygon fill="#63b8ff" stroke="#63b8ff" points="337.26,-79.85 346.8,-75.23 336.47,-72.89 337.26,-79.85"/>
</a>
</g>
</g>
<!-- Node3&#45;&gt;Node4 -->
<g id="edge3_Node000003_Node000004" class="edge">
<title>Node3&#45;&gt;Node4</title>
<g id="a_edge3_Node000003_Node000004"><a xlink:title=" ">
<path fill="none" stroke="#63b8ff" d="M496.89,-156.68C508.04,-156.45 519.72,-156.2 531.28,-155.96"/>
<polygon fill="#63b8ff" stroke="#63b8ff" points="531.33,-159.46 541.26,-155.76 531.19,-152.46 531.33,-159.46"/>
</a>
</g>
</g>
<!-- Node3&#45;&gt;Node5 -->
<g id="edge4_Node000003_Node000005" class="edge">
<title>Node3&#45;&gt;Node5</title>
<g id="a_edge4_Node000003_Node000005"><a xlink:title=" ">
<path fill="none" stroke="#63b8ff" d="M490.22,-142.38C496.13,-139.73 501.83,-136.66 507,-133.1 528.1,-118.58 521.41,-101.89 543,-88.1 545.59,-86.45 548.32,-84.94 551.13,-83.56"/>
<polygon fill="#63b8ff" stroke="#63b8ff" points="552.41,-86.82 560.26,-79.7 549.69,-80.37 552.41,-86.82"/>
</a>
</g>
</g>
<!-- Node3&#45;&gt;Node6 -->
<g id="edge5_Node000003_Node000006" class="edge">
<title>Node3&#45;&gt;Node6</title>
<g id="a_edge5_Node000003_Node000006"><a xlink:title=" ">
<path fill="none" stroke="#63b8ff" d="M487.85,-142.38C514.69,-135.25 546.06,-126.9 571.55,-120.12"/>
<polygon fill="#63b8ff" stroke="#63b8ff" points="572.22,-123.56 580.99,-117.61 570.43,-116.8 572.22,-123.56"/>
</a>
</g>
</g>
<!-- Node7&#45;&gt;Node4 -->
<g id="edge7_Node000007_Node000004" class="edge">
<title>Node7&#45;&gt;Node4</title>
<g id="a_edge7_Node000007_Node000004"><a xlink:title=" ">
<path fill="none" stroke="#63b8ff" d="M495.81,-124.84C510.85,-128.37 526.93,-132.14 542.37,-135.77"/>
<polygon fill="#63b8ff" stroke="#63b8ff" points="541.46,-139.15 552,-138.03 543.06,-132.33 541.46,-139.15"/>
</a>
</g>
</g>
<!-- Node7&#45;&gt;Node5 -->
<g id="edge8_Node000007_Node000005" class="edge">
<title>Node7&#45;&gt;Node5</title>
<g id="a_edge8_Node000007_Node000005"><a xlink:title=" ">
<path fill="none" stroke="#63b8ff" d="M499.88,-94.26C520.01,-90.06 541.71,-85.54 561.08,-81.5"/>
<polygon fill="#63b8ff" stroke="#63b8ff" points="561.63,-84.96 570.7,-79.49 560.2,-78.11 561.63,-84.96"/>
</a>
</g>
</g>
<!-- Node7&#45;&gt;Node6 -->
<g id="edge9_Node000007_Node000006" class="edge">
<title>Node7&#45;&gt;Node6</title>
<g id="a_edge9_Node000007_Node000006"><a xlink:title=" ">
<path fill="none" stroke="#63b8ff" d="M499.88,-108.36C511.67,-108.24 524,-108.11 536.08,-107.98"/>
<polygon fill="#63b8ff" stroke="#63b8ff" points="536.09,-111.48 546.05,-107.88 536.01,-104.48 536.09,-111.48"/>
</a>
</g>
</g>
<!-- Node8&#45;&gt;Node4 -->
<g id="edge11_Node000008_Node000004" class="edge">
<title>Node8&#45;&gt;Node4</title>
<g id="a_edge11_Node000008_Node000004"><a xlink:title=" ">
<path fill="none" stroke="#63b8ff" d="M487.59,-76.18C494.39,-78.55 501.02,-81.48 507,-85.1 527.75,-97.66 522.96,-112.44 543,-126.1 547.1,-128.9 551.51,-131.45 556.08,-133.77"/>
<polygon fill="#63b8ff" stroke="#63b8ff" points="554.33,-136.82 564.87,-137.86 557.28,-130.47 554.33,-136.82"/>
</a>
</g>
</g>
<!-- Node8&#45;&gt;Node5 -->
<g id="edge12_Node000008_Node000005" class="edge">
<title>Node8&#45;&gt;Node5</title>
<g id="a_edge12_Node000008_Node000005"><a xlink:title=" ">
<path fill="none" stroke="#63b8ff" d="M507.3,-67.33C519.29,-67.52 531.65,-67.71 543.61,-67.9"/>
<polygon fill="#63b8ff" stroke="#63b8ff" points="543.35,-71.4 553.41,-68.05 543.46,-64.4 543.35,-71.4"/>
</a>
</g>
</g>
<!-- Node8&#45;&gt;Node6 -->
<g id="edge13_Node000008_Node000006" class="edge">
<title>Node8&#45;&gt;Node6</title>
<g id="a_edge13_Node000008_Node000006"><a xlink:title=" ">
<path fill="none" stroke="#63b8ff" d="M475.66,-76.13C501.77,-81.72 534.52,-88.72 562.26,-94.65"/>
<polygon fill="#63b8ff" stroke="#63b8ff" points="561.42,-98.05 571.93,-96.72 562.89,-91.2 561.42,-98.05"/>
</a>
</g>
</g>
</g>
</svg>

<g id="navigator" transform="translate(0 0)" fill="#404254">
  <rect fill="#f2f5e9" fill-opacity="0.5" stroke="#606060" stroke-width=".5" x="0" y="0" width="60" height="60"/>
  <use id="zoomplus" xlink:href="#zoomPlus" x="17" y="9" onmousedown="handleZoom(evt,'in')"/>
  <use id="zoomminus" xlink:href="#zoomMin" x="42" y="9" onmousedown="handleZoom(evt,'out')"/>
  <use id="reset" xlink:href="#resetDef" x="30" y="36" onmousedown="handleReset()"/>
   <use id="arrowup" xlink:href="#arrowUp" x="0" y="0" onmousedown="handlePan(0,-1)"/>
  <use id="arrowright" xlink:href="#arrowRight" x="0" y="0" onmousedown="handlePan(1,0)"/>
  <use id="arrowdown" xlink:href="#arrowDown" x="0" y="0" onmousedown="handlePan(0,1)"/>
  <use id="arrowleft" xlink:href="#arrowLeft" x="0" y="0" onmousedown="handlePan(-1,0)"/>
</g>
<svg viewBox="0 0 15 15" width="100%" height="30px" preserveAspectRatio="xMaxYMin meet">
 <g id="arrow_out" transform="scale(0.3 0.3)">
  <a xlink:href="class_nuki_opener_1_1_nuki_opener_a298e1bfe615f74c61af6e9c4d540e188_cgraph_org.svg" target="_base">
   <rect id="button" ry="5" rx="5" y="6" x="6" height="38" width="38"
        fill="#f2f5e9" fill-opacity="0.5" stroke="#606060" stroke-width="1.0"/>
   <path id="arrow"
     d="M 11.500037,31.436501 C 11.940474,20.09759 22.043105,11.32322 32.158766,21.979434 L 37.068811,17.246167 C 37.068811,17.246167 37.088388,32 37.088388,32 L 22.160133,31.978069 C 22.160133,31.978069 26.997745,27.140456 26.997745,27.140456 C 18.528582,18.264221 13.291696,25.230495 11.500037,31.436501 z"
     style="fill:#404040;"/>
  </a>
 </g>
</svg>

<style type='text/css'>
<![CDATA[
[data-mouse-over-selected='false'] { opacity: 0.7; }
[data-mouse-over-selected='true']  { opacity: 1.0; }
]]>
</style>
<script type="application/ecmascript"><![CDATA[
document.addEventListener('DOMContentLoaded', (event) => {
  highlightEdges();
  highlightAdjacentNodes();
});
]]></script>
</svg>
