<?xml version="1.0" encoding="UTF-8" standalone="no"?>
<!DOCTYPE svg PUBLIC "-//W3C//DTD SVG 1.1//EN"
 "http://www.w3.org/Graphics/SVG/1.1/DTD/svg11.dtd">
<!-- Generated by graphviz version 12.2.1 (20241206.2353)
 -->
<!-- Title: NukiLock::NukiLock::setNightModeEndTime Pages: 1 -->
<svg width="852pt" height="205pt"
 viewBox="0.00 0.00 851.50 204.75" xmlns="http://www.w3.org/2000/svg" xmlns:xlink="http://www.w3.org/1999/xlink">
<g id="graph0" class="graph" transform="scale(1 1) rotate(0) translate(4 200.75)">
<title>NukiLock::NukiLock::setNightModeEndTime</title>
<!-- Node1 -->
<g id="Node000001" class="node">
<title>Node1</title>
<g id="a_Node000001"><a xlink:title="Gets the current config from the lock, updates the night mode end time parameter and sends the new co...">
<polygon fill="#999999" stroke="#666666" points="119.5,-102.35 0,-102.35 0,-71.85 119.5,-71.85 119.5,-102.35"/>
<text text-anchor="start" x="8" y="-88.85" font-family="Helvetica,sans-Serif" font-size="10.00">NukiLock::NukiLock</text>
<text text-anchor="middle" x="59.75" y="-77.6" font-family="Helvetica,sans-Serif" font-size="10.00">::setNightModeEndTime</text>
</a>
</g>
</g>
<!-- Node2 -->
<g id="Node000002" class="node">
<title>Node2</title>
<g id="a_Node000002"><a xlink:href="class_nuki_lock_1_1_nuki_lock.html#aa882f9b3256313bbd45b4269f8c74521" target="_top" xlink:title="Requests advanced config from Lock via BLE.">
<polygon fill="white" stroke="#666666" points="278.75,-102.35 155.5,-102.35 155.5,-71.85 278.75,-71.85 278.75,-102.35"/>
<text text-anchor="start" x="163.5" y="-88.85" font-family="Helvetica,sans-Serif" font-size="10.00">NukiLock::NukiLock</text>
<text text-anchor="middle" x="217.12" y="-77.6" font-family="Helvetica,sans-Serif" font-size="10.00">::requestAdvancedConfig</text>
</a>
</g>
</g>
<!-- Node1&#45;&gt;Node2 -->
<g id="edge1_Node000001_Node000002" class="edge">
<title>Node1&#45;&gt;Node2</title>
<g id="a_edge1_Node000001_Node000002"><a xlink:title=" ">
<path fill="none" stroke="#63b8ff" d="M119.93,-87.1C127.65,-87.1 135.63,-87.1 143.54,-87.1"/>
<polygon fill="#63b8ff" stroke="#63b8ff" points="143.53,-90.6 153.53,-87.1 143.53,-83.6 143.53,-90.6"/>
</a>
</g>
</g>
<!-- Node3 -->
<g id="Node000003" class="node">
<title>Node3</title>
<g id="a_Node000003"><a xlink:href="class_nuki_1_1_nuki_ble.html#af1f1e299e8d97e053bba80e92ba285d6" target="_top" xlink:title=" ">
<polygon fill="white" stroke="#666666" points="456,-96.73 314.75,-96.73 314.75,-77.48 456,-77.48 456,-96.73"/>
<text text-anchor="middle" x="385.38" y="-83.23" font-family="Helvetica,sans-Serif" font-size="10.00">Nuki::NukiBle::executeAction</text>
</a>
</g>
</g>
<!-- Node2&#45;&gt;Node3 -->
<g id="edge2_Node000002_Node000003" class="edge">
<title>Node2&#45;&gt;Node3</title>
<g id="a_edge2_Node000002_Node000003"><a xlink:title=" ">
<path fill="none" stroke="#63b8ff" d="M279.09,-87.1C286.9,-87.1 294.99,-87.1 303.06,-87.1"/>
<polygon fill="#63b8ff" stroke="#63b8ff" points="302.91,-90.6 312.91,-87.1 302.91,-83.6 302.91,-90.6"/>
</a>
</g>
</g>
<!-- Node4 -->
<g id="Node000004" class="node">
<title>Node4</title>
<g id="a_Node000004"><a xlink:href="class_nuki_1_1_nuki_ble.html#ada0f3beebd95d35c122e25dd3f9eb886" target="_top" xlink:title=" ">
<polygon fill="white" stroke="#666666" points="640,-173.35 502.5,-173.35 502.5,-142.85 640,-142.85 640,-173.35"/>
<text text-anchor="start" x="510.5" y="-159.85" font-family="Helvetica,sans-Serif" font-size="10.00">Nuki::NukiBle::cmdChallAcc</text>
<text text-anchor="middle" x="571.25" y="-148.6" font-family="Helvetica,sans-Serif" font-size="10.00">StateMachine</text>
</a>
</g>
</g>
<!-- Node3&#45;&gt;Node4 -->
<g id="edge3_Node000003_Node000004" class="edge">
<title>Node3&#45;&gt;Node4</title>
<g id="a_edge3_Node000003_Node000004"><a xlink:title=" ">
<path fill="none" stroke="#63b8ff" d="M407.56,-97.09C428.7,-106.87 462.24,-121.9 492,-133.1 497.21,-135.06 502.64,-137 508.12,-138.89"/>
<polygon fill="#63b8ff" stroke="#63b8ff" points="506.61,-142.08 517.21,-141.95 508.85,-135.44 506.61,-142.08"/>
</a>
</g>
</g>
<!-- Node5 -->
<g id="Node000005" class="node">
<title>Node5</title>
<g id="a_Node000005"><a xlink:href="class_nuki_1_1_nuki_ble.html#a6e8fca90c04249660dce6cb993eb4495" target="_top" xlink:title=" ">
<polygon fill="white" stroke="#666666" points="843.5,-169.35 686.5,-169.35 686.5,-138.85 843.5,-138.85 843.5,-169.35"/>
<text text-anchor="start" x="694.5" y="-155.85" font-family="Helvetica,sans-Serif" font-size="10.00">Nuki::NukiBle::extendDisconnect</text>
<text text-anchor="middle" x="765" y="-144.6" font-family="Helvetica,sans-Serif" font-size="10.00">Timeout</text>
</a>
</g>
</g>
<!-- Node3&#45;&gt;Node5 -->
<g id="edge15_Node000003_Node000005" class="edge">
<title>Node3&#45;&gt;Node5</title>
<g id="a_edge15_Node000003_Node000005"><a xlink:title=" ">
<path fill="none" stroke="#63b8ff" d="M393.39,-97.14C408.54,-117.83 446.64,-164.7 492,-182.1 564.51,-209.91 655.42,-190.75 711.61,-173.28"/>
<polygon fill="#63b8ff" stroke="#63b8ff" points="712.47,-176.68 720.93,-170.29 710.33,-170.02 712.47,-176.68"/>
</a>
</g>
</g>
<!-- Node6 -->
<g id="Node000006" class="node">
<title>Node6</title>
<g id="a_Node000006"><a xlink:href="class_nuki_1_1_nuki_ble.html#ac7ce691d9c3e586474655d1663eb2e20" target="_top" xlink:title=" ">
<polygon fill="white" stroke="#666666" points="831.12,-78.73 698.88,-78.73 698.88,-59.48 831.12,-59.48 831.12,-78.73"/>
<text text-anchor="middle" x="765" y="-65.23" font-family="Helvetica,sans-Serif" font-size="10.00">Nuki::NukiBle::logMessage</text>
</a>
</g>
</g>
<!-- Node3&#45;&gt;Node6 -->
<g id="edge16_Node000003_Node000006" class="edge">
<title>Node3&#45;&gt;Node6</title>
<g id="a_edge16_Node000003_Node000006"><a xlink:title=" ">
<path fill="none" stroke="#63b8ff" d="M396.31,-77.03C413.78,-60.1 451.99,-26.58 492,-14.1 559.25,6.88 581.84,1.66 650.5,-14.1 683.11,-21.59 717.23,-39.73 739.44,-53.14"/>
<polygon fill="#63b8ff" stroke="#63b8ff" points="737.41,-56 747.75,-58.3 741.1,-50.06 737.41,-56"/>
</a>
</g>
</g>
<!-- Node7 -->
<g id="Node000007" class="node">
<title>Node7</title>
<g id="a_Node000007"><a xlink:href="class_nuki_1_1_nuki_ble.html#af3650133f46aeca48a5f01b95d23ab71" target="_top" xlink:title=" ">
<polygon fill="white" stroke="#666666" points="838.62,-116.73 691.38,-116.73 691.38,-97.48 838.62,-97.48 838.62,-116.73"/>
<text text-anchor="middle" x="765" y="-103.23" font-family="Helvetica,sans-Serif" font-size="10.00">Nuki::NukiBle::logMessageVar</text>
</a>
</g>
</g>
<!-- Node3&#45;&gt;Node7 -->
<g id="edge17_Node000003_Node000007" class="edge">
<title>Node3&#45;&gt;Node7</title>
<g id="a_edge17_Node000003_Node000007"><a xlink:title=" ">
<path fill="none" stroke="#63b8ff" d="M405.95,-77.03C451.18,-55.24 565.58,-8.66 650.5,-47.1 672.59,-57.1 665.77,-75.52 686.5,-88.1 689.43,-89.88 692.51,-91.49 695.69,-92.95"/>
<polygon fill="#63b8ff" stroke="#63b8ff" points="694.13,-96.09 704.72,-96.55 696.73,-89.59 694.13,-96.09"/>
</a>
</g>
</g>
<!-- Node8 -->
<g id="Node000008" class="node">
<title>Node8</title>
<g id="a_Node000008"><a xlink:href="class_nuki_1_1_nuki_ble.html#a59169a9f492793762e3c6ba39b611b07" target="_top" xlink:title=" ">
<polygon fill="white" stroke="#666666" points="643,-124.35 499.5,-124.35 499.5,-93.85 643,-93.85 643,-124.35"/>
<text text-anchor="start" x="507.5" y="-110.85" font-family="Helvetica,sans-Serif" font-size="10.00">Nuki::NukiBle::cmdChallState</text>
<text text-anchor="middle" x="571.25" y="-99.6" font-family="Helvetica,sans-Serif" font-size="10.00">Machine</text>
</a>
</g>
</g>
<!-- Node3&#45;&gt;Node8 -->
<g id="edge7_Node000003_Node000008" class="edge">
<title>Node3&#45;&gt;Node8</title>
<g id="a_edge7_Node000003_Node000008"><a xlink:title=" ">
<path fill="none" stroke="#63b8ff" d="M456.41,-95.48C466.7,-96.71 477.37,-97.99 487.88,-99.25"/>
<polygon fill="#63b8ff" stroke="#63b8ff" points="487.34,-102.71 497.68,-100.42 488.17,-95.76 487.34,-102.71"/>
</a>
</g>
</g>
<!-- Node9 -->
<g id="Node000009" class="node">
<title>Node9</title>
<g id="a_Node000009"><a xlink:href="class_nuki_1_1_nuki_ble.html#ad135bb1455665decfddff67772c1d411" target="_top" xlink:title=" ">
<polygon fill="white" stroke="#666666" points="650.5,-75.73 492,-75.73 492,-56.48 650.5,-56.48 650.5,-75.73"/>
<text text-anchor="middle" x="571.25" y="-62.23" font-family="Helvetica,sans-Serif" font-size="10.00">Nuki::NukiBle::cmdStateMachine</text>
</a>
</g>
</g>
<!-- Node3&#45;&gt;Node9 -->
<g id="edge11_Node000003_Node000009" class="edge">
<title>Node3&#45;&gt;Node9</title>
<g id="a_edge11_Node000003_Node000009"><a xlink:title=" ">
<path fill="none" stroke="#63b8ff" d="M456.41,-79.1C464.28,-78.21 472.37,-77.28 480.44,-76.36"/>
<polygon fill="#63b8ff" stroke="#63b8ff" points="480.76,-79.85 490.3,-75.23 479.97,-72.89 480.76,-79.85"/>
</a>
</g>
</g>
<!-- Node4&#45;&gt;Node5 -->
<g id="edge4_Node000004_Node000005" class="edge">
<title>Node4&#45;&gt;Node5</title>
<g id="a_edge4_Node000004_Node000005"><a xlink:title=" ">
<path fill="none" stroke="#63b8ff" d="M640.39,-156.68C651.54,-156.45 663.22,-156.2 674.78,-155.96"/>
<polygon fill="#63b8ff" stroke="#63b8ff" points="674.83,-159.46 684.76,-155.76 674.69,-152.46 674.83,-159.46"/>
</a>
</g>
</g>
<!-- Node4&#45;&gt;Node6 -->
<g id="edge5_Node000004_Node000006" class="edge">
<title>Node4&#45;&gt;Node6</title>
<g id="a_edge5_Node000004_Node000006"><a xlink:title=" ">
<path fill="none" stroke="#63b8ff" d="M633.72,-142.38C639.63,-139.73 645.33,-136.66 650.5,-133.1 671.6,-118.58 664.91,-101.89 686.5,-88.1 689.09,-86.45 691.82,-84.94 694.63,-83.56"/>
<polygon fill="#63b8ff" stroke="#63b8ff" points="695.91,-86.82 703.76,-79.7 693.19,-80.37 695.91,-86.82"/>
</a>
</g>
</g>
<!-- Node4&#45;&gt;Node7 -->
<g id="edge6_Node000004_Node000007" class="edge">
<title>Node4&#45;&gt;Node7</title>
<g id="a_edge6_Node000004_Node000007"><a xlink:title=" ">
<path fill="none" stroke="#63b8ff" d="M631.35,-142.38C658.19,-135.25 689.56,-126.9 715.05,-120.12"/>
<polygon fill="#63b8ff" stroke="#63b8ff" points="715.72,-123.56 724.49,-117.61 713.93,-116.8 715.72,-123.56"/>
</a>
</g>
</g>
<!-- Node8&#45;&gt;Node5 -->
<g id="edge8_Node000008_Node000005" class="edge">
<title>Node8&#45;&gt;Node5</title>
<g id="a_edge8_Node000008_Node000005"><a xlink:title=" ">
<path fill="none" stroke="#63b8ff" d="M639.31,-124.84C654.35,-128.37 670.43,-132.14 685.87,-135.77"/>
<polygon fill="#63b8ff" stroke="#63b8ff" points="684.96,-139.15 695.5,-138.03 686.56,-132.33 684.96,-139.15"/>
</a>
</g>
</g>
<!-- Node8&#45;&gt;Node6 -->
<g id="edge9_Node000008_Node000006" class="edge">
<title>Node8&#45;&gt;Node6</title>
<g id="a_edge9_Node000008_Node000006"><a xlink:title=" ">
<path fill="none" stroke="#63b8ff" d="M643.38,-94.26C663.51,-90.06 685.21,-85.54 704.58,-81.5"/>
<polygon fill="#63b8ff" stroke="#63b8ff" points="705.13,-84.96 714.2,-79.49 703.7,-78.11 705.13,-84.96"/>
</a>
</g>
</g>
<!-- Node8&#45;&gt;Node7 -->
<g id="edge10_Node000008_Node000007" class="edge">
<title>Node8&#45;&gt;Node7</title>
<g id="a_edge10_Node000008_Node000007"><a xlink:title=" ">
<path fill="none" stroke="#63b8ff" d="M643.38,-108.36C655.17,-108.24 667.5,-108.11 679.58,-107.98"/>
<polygon fill="#63b8ff" stroke="#63b8ff" points="679.59,-111.48 689.55,-107.88 679.51,-104.48 679.59,-111.48"/>
</a>
</g>
</g>
<!-- Node9&#45;&gt;Node5 -->
<g id="edge12_Node000009_Node000005" class="edge">
<title>Node9&#45;&gt;Node5</title>
<g id="a_edge12_Node000009_Node000005"><a xlink:title=" ">
<path fill="none" stroke="#63b8ff" d="M631.09,-76.18C637.89,-78.55 644.52,-81.48 650.5,-85.1 671.25,-97.66 666.46,-112.44 686.5,-126.1 690.6,-128.9 695.01,-131.45 699.58,-133.77"/>
<polygon fill="#63b8ff" stroke="#63b8ff" points="697.83,-136.82 708.37,-137.86 700.78,-130.47 697.83,-136.82"/>
</a>
</g>
</g>
<!-- Node9&#45;&gt;Node6 -->
<g id="edge13_Node000009_Node000006" class="edge">
<title>Node9&#45;&gt;Node6</title>
<g id="a_edge13_Node000009_Node000006"><a xlink:title=" ">
<path fill="none" stroke="#63b8ff" d="M650.8,-67.33C662.79,-67.52 675.15,-67.71 687.11,-67.9"/>
<polygon fill="#63b8ff" stroke="#63b8ff" points="686.85,-71.4 696.91,-68.05 686.96,-64.4 686.85,-71.4"/>
</a>
</g>
</g>
<!-- Node9&#45;&gt;Node7 -->
<g id="edge14_Node000009_Node000007" class="edge">
<title>Node9&#45;&gt;Node7</title>
<g id="a_edge14_Node000009_Node000007"><a xlink:title=" ">
<path fill="none" stroke="#63b8ff" d="M619.16,-76.13C645.27,-81.72 678.02,-88.72 705.76,-94.65"/>
<polygon fill="#63b8ff" stroke="#63b8ff" points="704.92,-98.05 715.43,-96.72 706.39,-91.2 704.92,-98.05"/>
</a>
</g>
</g>
</g>
</svg>
