<?xml version="1.0" encoding="UTF-8" standalone="no"?>
<!DOCTYPE svg PUBLIC "-//W3C//DTD SVG 1.1//EN"
 "http://www.w3.org/Graphics/SVG/1.1/DTD/svg11.dtd">
<!-- Generated by graphviz version 11.0.0 (20240428.1522)
 -->
<!-- Title: Nuki::NukiBle::updateAuthorizationEntry Pages: 1 -->
<svg width="572pt" height="189pt"
 viewBox="0.00 0.00 572.00 188.88" xmlns="http://www.w3.org/2000/svg" xmlns:xlink="http://www.w3.org/1999/xlink">
<g id="graph0" class="graph" transform="scale(1 1) rotate(0) translate(4 184.88)">
<title>Nuki::NukiBle::updateAuthorizationEntry</title>
<!-- Node1 -->
<g id="Node000001" class="node">
<title>Node1</title>
<g id="a_Node000001"><a xlink:title="Sends an updated authorization entry to the lock via BLE.">
<polygon fill="#999999" stroke="#666666" points="165.25,-67.88 0,-67.88 0,-37.38 165.25,-37.38 165.25,-67.88"/>
<text text-anchor="start" x="8" y="-54.38" font-family="Helvetica,sans-Serif" font-size="10.00">Nuki::NukiBle::updateAuthorization</text>
<text text-anchor="middle" x="82.62" y="-43.12" font-family="Helvetica,sans-Serif" font-size="10.00">Entry</text>
</a>
</g>
</g>
<!-- Node2 -->
<g id="Node000002" class="node">
<title>Node2</title>
<g id="a_Node000002"><a xlink:href="class_nuki_1_1_nuki_ble.html#af1f1e299e8d97e053bba80e92ba285d6" target="_top" xlink:title=" ">
<polygon fill="white" stroke="#666666" points="356,-105.25 214.75,-105.25 214.75,-86 356,-86 356,-105.25"/>
<text text-anchor="middle" x="285.38" y="-91.75" font-family="Helvetica,sans-Serif" font-size="10.00">Nuki::NukiBle::executeAction</text>
</a>
</g>
</g>
<!-- Node1&#45;&gt;Node2 -->
<g id="edge1_Node000001_Node000002" class="edge">
<title>Node1&#45;&gt;Node2</title>
<g id="a_edge1_Node000001_Node000002"><a xlink:title=" ">
<path fill="none" stroke="#63b8ff" d="M156.95,-68.33C179.75,-73.21 204.56,-78.53 226.17,-83.16"/>
<polygon fill="#63b8ff" stroke="#63b8ff" points="225.17,-86.52 235.68,-85.19 226.63,-79.68 225.17,-86.52"/>
</a>
</g>
</g>
<!-- Node7 -->
<g id="Node000007" class="node">
<title>Node7</title>
<g id="a_Node000007"><a xlink:href="namespace_nuki_lock.html#a8f94609bc7203fda62e2833369d36f98" target="_top" xlink:title=" ">
<polygon fill="white" stroke="#666666" points="369.5,-67.88 201.25,-67.88 201.25,-37.38 369.5,-37.38 369.5,-67.88"/>
<text text-anchor="start" x="209.25" y="-54.38" font-family="Helvetica,sans-Serif" font-size="10.00">NukiLock::logUpdatedAuthorization</text>
<text text-anchor="middle" x="285.38" y="-43.12" font-family="Helvetica,sans-Serif" font-size="10.00">Entry</text>
</a>
</g>
</g>
<!-- Node1&#45;&gt;Node7 -->
<g id="edge6_Node000001_Node000007" class="edge">
<title>Node1&#45;&gt;Node7</title>
<g id="a_edge6_Node000001_Node000007"><a xlink:title=" ">
<path fill="none" stroke="#63b8ff" d="M165.57,-52.62C173.53,-52.62 181.64,-52.62 189.71,-52.62"/>
<polygon fill="#63b8ff" stroke="#63b8ff" points="189.55,-56.13 199.55,-52.63 189.55,-49.13 189.55,-56.13"/>
</a>
</g>
</g>
<!-- Node8 -->
<g id="Node000008" class="node">
<title>Node8</title>
<g id="a_Node000008"><a xlink:href="namespace_nuki.html#a280e19d4682ca4b35d3fe64001da816a" target="_top" xlink:title=" ">
<polygon fill="white" stroke="#666666" points="327.88,-19.25 242.88,-19.25 242.88,0 327.88,0 327.88,-19.25"/>
<text text-anchor="middle" x="285.38" y="-5.75" font-family="Helvetica,sans-Serif" font-size="10.00">Nuki::printBuffer</text>
</a>
</g>
</g>
<!-- Node1&#45;&gt;Node8 -->
<g id="edge7_Node000001_Node000008" class="edge">
<title>Node1&#45;&gt;Node8</title>
<g id="a_edge7_Node000001_Node000008"><a xlink:title=" ">
<path fill="none" stroke="#63b8ff" d="M156.95,-36.92C181.58,-31.64 208.55,-25.87 231.31,-20.99"/>
<polygon fill="#63b8ff" stroke="#63b8ff" points="231.93,-24.44 240.98,-18.92 230.47,-17.59 231.93,-24.44"/>
</a>
</g>
</g>
<!-- Node3 -->
<g id="Node000003" class="node">
<title>Node3</title>
<g id="a_Node000003"><a xlink:href="class_nuki_1_1_nuki_ble.html#ada0f3beebd95d35c122e25dd3f9eb886" target="_top" xlink:title=" ">
<polygon fill="white" stroke="#666666" points="553.5,-180.88 416,-180.88 416,-150.38 553.5,-150.38 553.5,-180.88"/>
<text text-anchor="start" x="424" y="-167.38" font-family="Helvetica,sans-Serif" font-size="10.00">Nuki::NukiBle::cmdChallAcc</text>
<text text-anchor="middle" x="484.75" y="-156.12" font-family="Helvetica,sans-Serif" font-size="10.00">StateMachine</text>
</a>
</g>
</g>
<!-- Node2&#45;&gt;Node3 -->
<g id="edge2_Node000002_Node000003" class="edge">
<title>Node2&#45;&gt;Node3</title>
<g id="a_edge2_Node000002_Node000003"><a xlink:title=" ">
<path fill="none" stroke="#63b8ff" d="M311.8,-105.67C335.82,-115.05 372.93,-129.28 405.5,-140.62 411.14,-142.59 417.03,-144.58 422.93,-146.54"/>
<polygon fill="#63b8ff" stroke="#63b8ff" points="421.5,-149.75 432.09,-149.53 423.68,-143.1 421.5,-149.75"/>
</a>
</g>
</g>
<!-- Node4 -->
<g id="Node000004" class="node">
<title>Node4</title>
<g id="a_Node000004"><a xlink:href="class_nuki_1_1_nuki_ble.html#a59169a9f492793762e3c6ba39b611b07" target="_top" xlink:title=" ">
<polygon fill="white" stroke="#666666" points="556.5,-131.88 413,-131.88 413,-101.38 556.5,-101.38 556.5,-131.88"/>
<text text-anchor="start" x="421" y="-118.38" font-family="Helvetica,sans-Serif" font-size="10.00">Nuki::NukiBle::cmdChallState</text>
<text text-anchor="middle" x="484.75" y="-107.12" font-family="Helvetica,sans-Serif" font-size="10.00">Machine</text>
</a>
</g>
</g>
<!-- Node2&#45;&gt;Node4 -->
<g id="edge3_Node000002_Node000004" class="edge">
<title>Node2&#45;&gt;Node4</title>
<g id="a_edge3_Node000002_Node000004"><a xlink:title=" ">
<path fill="none" stroke="#63b8ff" d="M356.24,-103.06C370.82,-104.61 386.32,-106.26 401.31,-107.85"/>
<polygon fill="#63b8ff" stroke="#63b8ff" points="400.83,-111.32 411.14,-108.9 401.57,-104.36 400.83,-111.32"/>
</a>
</g>
</g>
<!-- Node5 -->
<g id="Node000005" class="node">
<title>Node5</title>
<g id="a_Node000005"><a xlink:href="class_nuki_1_1_nuki_ble.html#ad135bb1455665decfddff67772c1d411" target="_top" xlink:title=" ">
<polygon fill="white" stroke="#666666" points="564,-83.25 405.5,-83.25 405.5,-64 564,-64 564,-83.25"/>
<text text-anchor="middle" x="484.75" y="-69.75" font-family="Helvetica,sans-Serif" font-size="10.00">Nuki::NukiBle::cmdStateMachine</text>
</a>
</g>
</g>
<!-- Node2&#45;&gt;Node5 -->
<g id="edge4_Node000002_Node000005" class="edge">
<title>Node2&#45;&gt;Node5</title>
<g id="a_edge4_Node000002_Node000005"><a xlink:title=" ">
<path fill="none" stroke="#63b8ff" d="M356.24,-87.84C368.51,-86.47 381.42,-85.03 394.14,-83.61"/>
<polygon fill="#63b8ff" stroke="#63b8ff" points="394.18,-87.13 403.73,-82.54 393.4,-80.17 394.18,-87.13"/>
</a>
</g>
</g>
<!-- Node6 -->
<g id="Node000006" class="node">
<title>Node6</title>
<g id="a_Node000006"><a xlink:href="class_nuki_1_1_nuki_ble.html#aed01f10d1ffa769f0f6fadc0d06d328e" target="_top" xlink:title=" ">
<polygon fill="white" stroke="#666666" points="560.62,-45.88 408.88,-45.88 408.88,-15.37 560.62,-15.37 560.62,-45.88"/>
<text text-anchor="start" x="416.88" y="-32.38" font-family="Helvetica,sans-Serif" font-size="10.00">Nuki::NukiBle::extendDisonnect</text>
<text text-anchor="middle" x="484.75" y="-21.12" font-family="Helvetica,sans-Serif" font-size="10.00">Timeout</text>
</a>
</g>
</g>
<!-- Node2&#45;&gt;Node6 -->
<g id="edge5_Node000002_Node000006" class="edge">
<title>Node2&#45;&gt;Node6</title>
<g id="a_edge5_Node000002_Node000006"><a xlink:title=" ">
<path fill="none" stroke="#63b8ff" d="M342.15,-85.51C351.44,-83.08 360.86,-80.14 369.5,-76.62 386.87,-69.55 388.4,-62.32 405.5,-54.62 408.87,-53.11 412.36,-51.65 415.92,-50.26"/>
<polygon fill="#63b8ff" stroke="#63b8ff" points="417.12,-53.55 425.29,-46.8 414.7,-46.98 417.12,-53.55"/>
</a>
</g>
</g>
</g>
</svg>
