<?xml version="1.0" encoding="UTF-8" standalone="no"?>
<!DOCTYPE svg PUBLIC "-//W3C//DTD SVG 1.1//EN"
 "http://www.w3.org/Graphics/SVG/1.1/DTD/svg11.dtd">
<!-- Generated by graphviz version 12.2.1 (20241206.2353)
 -->
<!-- Title: NukiLock::NukiLock::requestConfig Pages: 1 -->
<!--zoomable 725 -->

<svg id="main" version="1.1" xmlns="http://www.w3.org/2000/svg" xmlns:xlink="http://www.w3.org/1999/xlink" xml:space="preserve" onload="init(evt)">

<style type="text/css"><![CDATA[
.node, .edge {opacity: 0.7;}
.node.selected, .edge.selected {opacity: 1;}
.edge:hover path { stroke: red; }
.edge:hover polygon { stroke: red; fill: red; }
]]></style>

<defs>
  <circle id="rim" cx="0" cy="0" r="7"/>
  <circle id="rim2" cx="0" cy="0" r="3.5"/>
  <g id="zoomPlus">
    <use xlink:href="#rim" fill="#404040"><set attributeName="fill" to="#808080" begin="zoomplus.mouseover" end="zoomplus.mouseout"/></use>
    <path d="M-4,0h8M0,-4v8" fill="none" stroke="white" stroke-width="1.5" pointer-events="none"/>
  </g>
  <g id="zoomMin">
    <use xlink:href="#rim" fill="#404040"><set attributeName="fill" to="#808080" begin="zoomminus.mouseover" end="zoomminus.mouseout"/></use>
    <path d="M-4,0h8" fill="none" stroke="white" stroke-width="1.5" pointer-events="none"/>
  </g>
  <g id="arrowUp" transform="translate(30 24)">
    <use xlink:href="#rim"/>
    <path pointer-events="none" fill="none" stroke="white" stroke-width="1.5" d="M0,-3.0v7 M-2.5,-0.5L0,-3.0L2.5,-0.5"/>
  </g>
  <g id="arrowRight" transform="rotate(90) translate(36 -43)">
    <use xlink:href="#rim"/>
    <path pointer-events="none" fill="none" stroke="white" stroke-width="1.5" d="M0,-3.0v7 M-2.5,-0.5L0,-3.0L2.5,-0.5"/>
  </g>
  <g id="arrowDown" transform="rotate(180) translate(-30 -48)">
    <use xlink:href="#rim"/>
    <path pointer-events="none" fill="none" stroke="white" stroke-width="1.5" d="M0,-3.0v7 M-2.5,-0.5L0,-3.0L2.5,-0.5"/>
  </g>
  <g id="arrowLeft" transform="rotate(270) translate(-36 17)">
    <use xlink:href="#rim"/>
    <path pointer-events="none" fill="none" stroke="white" stroke-width="1.5" d="M0,-3.0v7 M-2.5,-0.5L0,-3.0L2.5,-0.5"/>
  </g>
  <g id="resetDef">
    <use xlink:href="#rim2" fill="#404040"><set attributeName="fill" to="#808080" begin="reset.mouseover" end="reset.mouseout"/></use>
  </g>
</defs>
<script type="application/ecmascript">
var viewWidth = 255;
var viewHeight = 725;
var sectionId = 'dynsection-33';
</script>
<script type="application/ecmascript" xlink:href="svg.min.js"/>
<svg id="graph" class="graph">
<g id="viewport">
<title>NukiLock::NukiLock::requestConfig</title>
<!-- Node1 -->
<g id="Node000001" class="node">
<title>Node1</title>
<g id="a_Node000001"><a xlink:title="Requests config from Lock via BLE.">
<polygon fill="#999999" stroke="#666666" points="247.25,-373.5 142.75,-373.5 142.75,-343 247.25,-343 247.25,-373.5"/>
<text text-anchor="start" x="150.75" y="-360" font-family="Helvetica,sans-Serif" font-size="10.00">NukiLock::NukiLock</text>
<text text-anchor="middle" x="195" y="-348.75" font-family="Helvetica,sans-Serif" font-size="10.00">::requestConfig</text>
</a>
</g>
</g>
<!-- Node2 -->
<g id="Node000002" class="node">
<title>Node2</title>
<g id="a_Node000002"><a xlink:href="class_nuki_lock_1_1_nuki_lock.html#aad63ea6dc121cc0745fc6355bf2c8f26" target="_top" xlink:title="Gets the current config from the lock, updates the auto unlatch parameter and sends the new config to...">
<polygon fill="white" stroke="#666666" points="105.62,-716.5 1.12,-716.5 1.12,-686 105.62,-686 105.62,-716.5"/>
<text text-anchor="start" x="9.12" y="-703" font-family="Helvetica,sans-Serif" font-size="10.00">NukiLock::NukiLock</text>
<text text-anchor="middle" x="53.38" y="-691.75" font-family="Helvetica,sans-Serif" font-size="10.00">::enableAutoUnlatch</text>
</a>
</g>
</g>
<!-- Node1&#45;&gt;Node2 -->
<g id="edge1_Node000001_Node000002" class="edge">
<title>Node1&#45;&gt;Node2</title>
<g id="a_edge1_Node000001_Node000002"><a xlink:title=" ">
<path fill="none" stroke="#63b8ff" d="M193.83,-385.24C192.06,-444.72 179.97,-588.73 106.75,-676.25 103.78,-679.8 100.18,-682.89 96.28,-685.56"/>
<polygon fill="#63b8ff" stroke="#63b8ff" points="197.33,-385.47 194.04,-375.39 190.33,-385.32 197.33,-385.47"/>
</a>
</g>
</g>
<!-- Node3 -->
<g id="Node000003" class="node">
<title>Node3</title>
<g id="a_Node000003"><a xlink:href="class_nuki_lock_1_1_nuki_lock.html#ad441de3551e792c9070ae2b60f2d5d4a" target="_top" xlink:title="Gets the current config from the lock, updates the enable button parameter and sends the new config t...">
<polygon fill="white" stroke="#666666" points="105.62,-667.5 1.12,-667.5 1.12,-637 105.62,-637 105.62,-667.5"/>
<text text-anchor="start" x="9.12" y="-654" font-family="Helvetica,sans-Serif" font-size="10.00">NukiLock::NukiLock</text>
<text text-anchor="middle" x="53.38" y="-642.75" font-family="Helvetica,sans-Serif" font-size="10.00">::enableButton</text>
</a>
</g>
</g>
<!-- Node1&#45;&gt;Node3 -->
<g id="edge2_Node000001_Node000003" class="edge">
<title>Node1&#45;&gt;Node3</title>
<g id="a_edge2_Node000001_Node000003"><a xlink:title=" ">
<path fill="none" stroke="#63b8ff" d="M192.17,-385.38C187.25,-438.13 169.51,-555.63 106.75,-627.25 103.63,-630.81 99.89,-633.91 95.86,-636.59"/>
<polygon fill="#63b8ff" stroke="#63b8ff" points="195.65,-385.76 192.99,-375.5 188.67,-385.18 195.65,-385.76"/>
</a>
</g>
</g>
<!-- Node4 -->
<g id="Node000004" class="node">
<title>Node4</title>
<g id="a_Node000004"><a xlink:href="class_nuki_lock_1_1_nuki_lock.html#a5d9ce84f318744382929ce0f43e77898" target="_top" xlink:title="Gets the current config from the lock, updates the dst parameter and sends the new config to the lock...">
<polygon fill="white" stroke="#666666" points="105.62,-618.5 1.12,-618.5 1.12,-588 105.62,-588 105.62,-618.5"/>
<text text-anchor="start" x="9.12" y="-605" font-family="Helvetica,sans-Serif" font-size="10.00">NukiLock::NukiLock</text>
<text text-anchor="middle" x="53.38" y="-593.75" font-family="Helvetica,sans-Serif" font-size="10.00">::enableDst</text>
</a>
</g>
</g>
<!-- Node1&#45;&gt;Node4 -->
<g id="edge3_Node000001_Node000004" class="edge">
<title>Node1&#45;&gt;Node4</title>
<g id="a_edge3_Node000001_Node000004"><a xlink:title=" ">
<path fill="none" stroke="#63b8ff" d="M189.88,-385.11C181.66,-430.28 159.3,-522.01 106.75,-578.25 103.45,-581.78 99.54,-584.87 95.38,-587.56"/>
<polygon fill="#63b8ff" stroke="#63b8ff" points="193.3,-385.86 191.54,-375.42 186.4,-384.68 193.3,-385.86"/>
</a>
</g>
</g>
<!-- Node5 -->
<g id="Node000005" class="node">
<title>Node5</title>
<g id="a_Node000005"><a xlink:href="class_nuki_lock_1_1_nuki_lock.html#abf870b85851138c4efefec54d59a3d34" target="_top" xlink:title="Gets the current config from the lock, updates the whether or not the flashing LED should be enabled ...">
<polygon fill="white" stroke="#666666" points="105.62,-569.5 1.12,-569.5 1.12,-539 105.62,-539 105.62,-569.5"/>
<text text-anchor="start" x="9.12" y="-556" font-family="Helvetica,sans-Serif" font-size="10.00">NukiLock::NukiLock</text>
<text text-anchor="middle" x="53.38" y="-544.75" font-family="Helvetica,sans-Serif" font-size="10.00">::enableLedFlash</text>
</a>
</g>
</g>
<!-- Node1&#45;&gt;Node5 -->
<g id="edge4_Node000001_Node000005" class="edge">
<title>Node1&#45;&gt;Node5</title>
<g id="a_edge4_Node000001_Node000005"><a xlink:title=" ">
<path fill="none" stroke="#63b8ff" d="M186.6,-384.26C175.02,-420.86 149.41,-487.71 106.75,-529.25 103.14,-532.76 98.94,-535.86 94.53,-538.57"/>
<polygon fill="#63b8ff" stroke="#63b8ff" points="189.87,-385.55 189.43,-374.96 183.17,-383.51 189.87,-385.55"/>
</a>
</g>
</g>
<!-- Node6 -->
<g id="Node000006" class="node">
<title>Node6</title>
<g id="a_Node000006"><a xlink:href="class_nuki_lock_1_1_nuki_lock.html#a13d418882481294ba2d822dc189c9a5d" target="_top" xlink:title="Sets the lock ability to pair with other devices (can be used to prevent unauthorized pairing) Gets t...">
<polygon fill="white" stroke="#666666" points="105.62,-520.5 1.12,-520.5 1.12,-490 105.62,-490 105.62,-520.5"/>
<text text-anchor="start" x="9.12" y="-507" font-family="Helvetica,sans-Serif" font-size="10.00">NukiLock::NukiLock</text>
<text text-anchor="middle" x="53.38" y="-495.75" font-family="Helvetica,sans-Serif" font-size="10.00">::enablePairing</text>
</a>
</g>
</g>
<!-- Node1&#45;&gt;Node6 -->
<g id="edge5_Node000001_Node000006" class="edge">
<title>Node1&#45;&gt;Node6</title>
<g id="a_edge5_Node000001_Node000006"><a xlink:title=" ">
<path fill="none" stroke="#63b8ff" d="M181.03,-383.46C166.15,-410.36 139.52,-452.78 106.75,-480.25 102.58,-483.75 97.84,-486.88 92.95,-489.65"/>
<polygon fill="#63b8ff" stroke="#63b8ff" points="183.94,-385.44 185.6,-374.98 177.78,-382.12 183.94,-385.44"/>
</a>
</g>
</g>
<!-- Node7 -->
<g id="Node000007" class="node">
<title>Node7</title>
<g id="a_Node000007"><a xlink:href="class_nuki_lock_1_1_nuki_lock.html#a90996f283ac2ddcb3737e1512cab44f7" target="_top" xlink:title="Gets the current config from the lock, updates the LED brightness parameter and sends the new config ...">
<polygon fill="white" stroke="#666666" points="105.62,-471.5 1.12,-471.5 1.12,-441 105.62,-441 105.62,-471.5"/>
<text text-anchor="start" x="9.12" y="-458" font-family="Helvetica,sans-Serif" font-size="10.00">NukiLock::NukiLock</text>
<text text-anchor="middle" x="53.38" y="-446.75" font-family="Helvetica,sans-Serif" font-size="10.00">::enableSingleLock</text>
</a>
</g>
</g>
<!-- Node1&#45;&gt;Node7 -->
<g id="edge6_Node000001_Node000007" class="edge">
<title>Node1&#45;&gt;Node7</title>
<g id="a_edge6_Node000001_Node000007"><a xlink:title=" ">
<path fill="none" stroke="#63b8ff" d="M169.76,-381.39C152.94,-396.72 129.53,-416.61 106.75,-431.25 101.58,-434.57 95.9,-437.73 90.24,-440.61"/>
<polygon fill="#63b8ff" stroke="#63b8ff" points="171.85,-384.23 176.81,-374.87 167.09,-379.09 171.85,-384.23"/>
</a>
</g>
</g>
<!-- Node8 -->
<g id="Node000008" class="node">
<title>Node8</title>
<g id="a_Node000008"><a xlink:href="class_nuki_lock_1_1_nuki_lock.html#a916263e3dedbcf5bdbf690c84c39b19f" target="_top" xlink:title="Gets the lock current config wrt pairing with other devices.">
<polygon fill="white" stroke="#666666" points="105.62,-422.5 1.12,-422.5 1.12,-392 105.62,-392 105.62,-422.5"/>
<text text-anchor="start" x="9.12" y="-409" font-family="Helvetica,sans-Serif" font-size="10.00">NukiLock::NukiLock</text>
<text text-anchor="middle" x="53.38" y="-397.75" font-family="Helvetica,sans-Serif" font-size="10.00">::pairingEnabled</text>
</a>
</g>
</g>
<!-- Node1&#45;&gt;Node8 -->
<g id="edge7_Node000001_Node000008" class="edge">
<title>Node1&#45;&gt;Node8</title>
<g id="a_edge7_Node000001_Node000008"><a xlink:title=" ">
<path fill="none" stroke="#63b8ff" d="M138.6,-377.69C125.45,-382.31 111.59,-387.17 98.99,-391.59"/>
<polygon fill="#63b8ff" stroke="#63b8ff" points="139.73,-381 148.01,-374.39 137.41,-374.4 139.73,-381"/>
</a>
</g>
</g>
<!-- Node9 -->
<g id="Node000009" class="node">
<title>Node9</title>
<g id="a_Node000009"><a xlink:href="class_nuki_lock_1_1_nuki_lock.html#a77f3101f055d596878064283b2b877b5" target="_top" xlink:title="Gets the current config from the lock, updates the advertising frequency parameter and sends the new ...">
<polygon fill="white" stroke="#666666" points="106.75,-373.5 0,-373.5 0,-343 106.75,-343 106.75,-373.5"/>
<text text-anchor="start" x="8" y="-360" font-family="Helvetica,sans-Serif" font-size="10.00">NukiLock::NukiLock</text>
<text text-anchor="middle" x="53.38" y="-348.75" font-family="Helvetica,sans-Serif" font-size="10.00">::setAdvertisingMode</text>
</a>
</g>
</g>
<!-- Node1&#45;&gt;Node9 -->
<g id="edge8_Node000001_Node000009" class="edge">
<title>Node1&#45;&gt;Node9</title>
<g id="a_edge8_Node000001_Node000009"><a xlink:title=" ">
<path fill="none" stroke="#63b8ff" d="M130.91,-358.25C122.97,-358.25 114.91,-358.25 107.16,-358.25"/>
<polygon fill="#63b8ff" stroke="#63b8ff" points="130.89,-361.75 140.89,-358.25 130.89,-354.75 130.89,-361.75"/>
</a>
</g>
</g>
<!-- Node10 -->
<g id="Node000010" class="node">
<title>Node10</title>
<g id="a_Node000010"><a xlink:href="class_nuki_lock_1_1_nuki_lock.html#a095b0ebfce74133dfb4c77fba5e92da3" target="_top" xlink:title="Gets the current config from the lock, updates the given fob action parameter and sends the new confi...">
<polygon fill="white" stroke="#666666" points="105.62,-324.5 1.12,-324.5 1.12,-294 105.62,-294 105.62,-324.5"/>
<text text-anchor="start" x="9.12" y="-311" font-family="Helvetica,sans-Serif" font-size="10.00">NukiLock::NukiLock</text>
<text text-anchor="middle" x="53.38" y="-299.75" font-family="Helvetica,sans-Serif" font-size="10.00">::setFobAction</text>
</a>
</g>
</g>
<!-- Node1&#45;&gt;Node10 -->
<g id="edge9_Node000001_Node000010" class="edge">
<title>Node1&#45;&gt;Node10</title>
<g id="a_edge9_Node000001_Node000010"><a xlink:title=" ">
<path fill="none" stroke="#63b8ff" d="M138.6,-338.81C125.45,-334.19 111.59,-329.33 98.99,-324.91"/>
<polygon fill="#63b8ff" stroke="#63b8ff" points="137.41,-342.1 148.01,-342.11 139.73,-335.5 137.41,-342.1"/>
</a>
</g>
</g>
<!-- Node11 -->
<g id="Node000011" class="node">
<title>Node11</title>
<g id="a_Node000011"><a xlink:href="class_nuki_lock_1_1_nuki_lock.html#a74af452143f4b51466421f3daf6b05dd" target="_top" xlink:title="Gets the current config from the lock, updates the latitude parameter and sends the new config to the...">
<polygon fill="white" stroke="#666666" points="105.62,-275.5 1.12,-275.5 1.12,-245 105.62,-245 105.62,-275.5"/>
<text text-anchor="start" x="9.12" y="-262" font-family="Helvetica,sans-Serif" font-size="10.00">NukiLock::NukiLock</text>
<text text-anchor="middle" x="53.38" y="-250.75" font-family="Helvetica,sans-Serif" font-size="10.00">::setLatitude</text>
</a>
</g>
</g>
<!-- Node1&#45;&gt;Node11 -->
<g id="edge10_Node000001_Node000011" class="edge">
<title>Node1&#45;&gt;Node11</title>
<g id="a_edge10_Node000001_Node000011"><a xlink:title=" ">
<path fill="none" stroke="#63b8ff" d="M169.76,-335.11C152.94,-319.78 129.53,-299.89 106.75,-285.25 101.58,-281.93 95.9,-278.77 90.24,-275.89"/>
<polygon fill="#63b8ff" stroke="#63b8ff" points="167.09,-337.41 176.81,-341.63 171.85,-332.27 167.09,-337.41"/>
</a>
</g>
</g>
<!-- Node12 -->
<g id="Node000012" class="node">
<title>Node12</title>
<g id="a_Node000012"><a xlink:href="class_nuki_lock_1_1_nuki_lock.html#a256465793a3f5d36dc1824b76fe6645b" target="_top" xlink:title="Gets the current config from the lock, updates the LED brightness parameter and sends the new config ...">
<polygon fill="white" stroke="#666666" points="105.62,-226.5 1.12,-226.5 1.12,-196 105.62,-196 105.62,-226.5"/>
<text text-anchor="start" x="9.12" y="-213" font-family="Helvetica,sans-Serif" font-size="10.00">NukiLock::NukiLock</text>
<text text-anchor="middle" x="53.38" y="-201.75" font-family="Helvetica,sans-Serif" font-size="10.00">::setLedBrightness</text>
</a>
</g>
</g>
<!-- Node1&#45;&gt;Node12 -->
<g id="edge11_Node000001_Node000012" class="edge">
<title>Node1&#45;&gt;Node12</title>
<g id="a_edge11_Node000001_Node000012"><a xlink:title=" ">
<path fill="none" stroke="#63b8ff" d="M181.03,-333.04C166.15,-306.14 139.52,-263.72 106.75,-236.25 102.58,-232.75 97.84,-229.62 92.95,-226.85"/>
<polygon fill="#63b8ff" stroke="#63b8ff" points="177.78,-334.38 185.6,-341.52 183.94,-331.06 177.78,-334.38"/>
</a>
</g>
</g>
<!-- Node13 -->
<g id="Node000013" class="node">
<title>Node13</title>
<g id="a_Node000013"><a xlink:href="class_nuki_lock_1_1_nuki_lock.html#a13420f720e09979ab066f8257950759d" target="_top" xlink:title="Gets the current config from the lock, updates the longitude parameter and sends the new config to th...">
<polygon fill="white" stroke="#666666" points="105.62,-177.5 1.12,-177.5 1.12,-147 105.62,-147 105.62,-177.5"/>
<text text-anchor="start" x="9.12" y="-164" font-family="Helvetica,sans-Serif" font-size="10.00">NukiLock::NukiLock</text>
<text text-anchor="middle" x="53.38" y="-152.75" font-family="Helvetica,sans-Serif" font-size="10.00">::setLongitude</text>
</a>
</g>
</g>
<!-- Node1&#45;&gt;Node13 -->
<g id="edge12_Node000001_Node000013" class="edge">
<title>Node1&#45;&gt;Node13</title>
<g id="a_edge12_Node000001_Node000013"><a xlink:title=" ">
<path fill="none" stroke="#63b8ff" d="M186.6,-332.24C175.02,-295.64 149.41,-228.79 106.75,-187.25 103.14,-183.74 98.94,-180.64 94.53,-177.93"/>
<polygon fill="#63b8ff" stroke="#63b8ff" points="183.17,-332.99 189.43,-341.54 189.87,-330.95 183.17,-332.99"/>
</a>
</g>
</g>
<!-- Node14 -->
<g id="Node000014" class="node">
<title>Node14</title>
<g id="a_Node000014"><a xlink:href="class_nuki_lock_1_1_nuki_lock.html#a200d970dd36406e1877937ae485730ac" target="_top" xlink:title="Gets the current config from the lock, updates the name parameter and sends the new config to the loc...">
<polygon fill="white" stroke="#666666" points="105.62,-128.5 1.12,-128.5 1.12,-98 105.62,-98 105.62,-128.5"/>
<text text-anchor="start" x="9.12" y="-115" font-family="Helvetica,sans-Serif" font-size="10.00">NukiLock::NukiLock</text>
<text text-anchor="middle" x="53.38" y="-103.75" font-family="Helvetica,sans-Serif" font-size="10.00">::setName</text>
</a>
</g>
</g>
<!-- Node1&#45;&gt;Node14 -->
<g id="edge13_Node000001_Node000014" class="edge">
<title>Node1&#45;&gt;Node14</title>
<g id="a_edge13_Node000001_Node000014"><a xlink:title=" ">
<path fill="none" stroke="#63b8ff" d="M189.88,-331.39C181.66,-286.22 159.3,-194.49 106.75,-138.25 103.45,-134.72 99.54,-131.63 95.38,-128.94"/>
<polygon fill="#63b8ff" stroke="#63b8ff" points="186.4,-331.82 191.54,-341.08 193.3,-330.64 186.4,-331.82"/>
</a>
</g>
</g>
<!-- Node15 -->
<g id="Node000015" class="node">
<title>Node15</title>
<g id="a_Node000015"><a xlink:href="class_nuki_lock_1_1_nuki_lock.html#ade0af0c3d500433974976551a283b489" target="_top" xlink:title="Gets the current config from the lock, updates the timezone id parameter and sends the new config to ...">
<polygon fill="white" stroke="#666666" points="105.62,-79.5 1.12,-79.5 1.12,-49 105.62,-49 105.62,-79.5"/>
<text text-anchor="start" x="9.12" y="-66" font-family="Helvetica,sans-Serif" font-size="10.00">NukiLock::NukiLock</text>
<text text-anchor="middle" x="53.38" y="-54.75" font-family="Helvetica,sans-Serif" font-size="10.00">::setTimeZoneId</text>
</a>
</g>
</g>
<!-- Node1&#45;&gt;Node15 -->
<g id="edge14_Node000001_Node000015" class="edge">
<title>Node1&#45;&gt;Node15</title>
<g id="a_edge14_Node000001_Node000015"><a xlink:title=" ">
<path fill="none" stroke="#63b8ff" d="M192.17,-331.12C187.25,-278.37 169.51,-160.87 106.75,-89.25 103.63,-85.69 99.89,-82.59 95.86,-79.91"/>
<polygon fill="#63b8ff" stroke="#63b8ff" points="188.67,-331.32 192.99,-341 195.65,-330.74 188.67,-331.32"/>
</a>
</g>
</g>
<!-- Node16 -->
<g id="Node000016" class="node">
<title>Node16</title>
<g id="a_Node000016"><a xlink:href="class_nuki_lock_1_1_nuki_lock.html#abe3f354193c9428160e2c3c5e3bc2bb9" target="_top" xlink:title="Gets the current config from the lock, updates the timezone offset parameter and sends the new config...">
<polygon fill="white" stroke="#666666" points="105.62,-30.5 1.12,-30.5 1.12,0 105.62,0 105.62,-30.5"/>
<text text-anchor="start" x="9.12" y="-17" font-family="Helvetica,sans-Serif" font-size="10.00">NukiLock::NukiLock</text>
<text text-anchor="middle" x="53.38" y="-5.75" font-family="Helvetica,sans-Serif" font-size="10.00">::setTimeZoneOffset</text>
</a>
</g>
</g>
<!-- Node1&#45;&gt;Node16 -->
<g id="edge15_Node000001_Node000016" class="edge">
<title>Node1&#45;&gt;Node16</title>
<g id="a_edge15_Node000001_Node000016"><a xlink:title=" ">
<path fill="none" stroke="#63b8ff" d="M193.83,-331.26C192.06,-271.78 179.97,-127.77 106.75,-40.25 103.78,-36.7 100.18,-33.61 96.28,-30.94"/>
<polygon fill="#63b8ff" stroke="#63b8ff" points="190.33,-331.18 194.04,-341.11 197.33,-331.03 190.33,-331.18"/>
</a>
</g>
</g>
</g>
</svg>

<g id="navigator" transform="translate(0 0)" fill="#404254">
  <rect fill="#f2f5e9" fill-opacity="0.5" stroke="#606060" stroke-width=".5" x="0" y="0" width="60" height="60"/>
  <use id="zoomplus" xlink:href="#zoomPlus" x="17" y="9" onmousedown="handleZoom(evt,'in')"/>
  <use id="zoomminus" xlink:href="#zoomMin" x="42" y="9" onmousedown="handleZoom(evt,'out')"/>
  <use id="reset" xlink:href="#resetDef" x="30" y="36" onmousedown="handleReset()"/>
   <use id="arrowup" xlink:href="#arrowUp" x="0" y="0" onmousedown="handlePan(0,-1)"/>
  <use id="arrowright" xlink:href="#arrowRight" x="0" y="0" onmousedown="handlePan(1,0)"/>
  <use id="arrowdown" xlink:href="#arrowDown" x="0" y="0" onmousedown="handlePan(0,1)"/>
  <use id="arrowleft" xlink:href="#arrowLeft" x="0" y="0" onmousedown="handlePan(-1,0)"/>
</g>
<svg viewBox="0 0 15 15" width="100%" height="30px" preserveAspectRatio="xMaxYMin meet">
 <g id="arrow_out" transform="scale(0.3 0.3)">
  <a xlink:href="class_nuki_lock_1_1_nuki_lock_ada503f36c737418195f48743658ed372_icgraph_org.svg" target="_base">
   <rect id="button" ry="5" rx="5" y="6" x="6" height="38" width="38"
        fill="#f2f5e9" fill-opacity="0.5" stroke="#606060" stroke-width="1.0"/>
   <path id="arrow"
     d="M 11.500037,31.436501 C 11.940474,20.09759 22.043105,11.32322 32.158766,21.979434 L 37.068811,17.246167 C 37.068811,17.246167 37.088388,32 37.088388,32 L 22.160133,31.978069 C 22.160133,31.978069 26.997745,27.140456 26.997745,27.140456 C 18.528582,18.264221 13.291696,25.230495 11.500037,31.436501 z"
     style="fill:#404040;"/>
  </a>
 </g>
</svg>

<style type='text/css'>
<![CDATA[
[data-mouse-over-selected='false'] { opacity: 0.7; }
[data-mouse-over-selected='true']  { opacity: 1.0; }
]]>
</style>
<script type="application/ecmascript"><![CDATA[
document.addEventListener('DOMContentLoaded', (event) => {
  highlightEdges();
  highlightAdjacentNodes();
});
]]></script>
</svg>
