<?xml version="1.0" encoding="UTF-8" standalone="no"?>
<!DOCTYPE svg PUBLIC "-//W3C//DTD SVG 1.1//EN"
 "http://www.w3.org/Graphics/SVG/1.1/DTD/svg11.dtd">
<!-- Generated by graphviz version 11.0.0 (20240428.1522)
 -->
<!-- Title: Nuki::NukiBle::retrieveKeypadEntries Pages: 1 -->
<svg width="524pt" height="174pt"
 viewBox="0.00 0.00 524.00 173.50" xmlns="http://www.w3.org/2000/svg" xmlns:xlink="http://www.w3.org/1999/xlink">
<g id="graph0" class="graph" transform="scale(1 1) rotate(0) translate(4 169.5)">
<title>Nuki::NukiBle::retrieveKeypadEntries</title>
<!-- Node1 -->
<g id="Node000001" class="node">
<title>Node1</title>
<g id="a_Node000001"><a xlink:title="Request the lock via BLE to send the existing keypad entries.">
<polygon fill="#999999" stroke="#666666" points="144.25,-72.5 0,-72.5 0,-42 144.25,-42 144.25,-72.5"/>
<text text-anchor="start" x="8" y="-59" font-family="Helvetica,sans-Serif" font-size="10.00">Nuki::NukiBle::retrieveKeypad</text>
<text text-anchor="middle" x="72.12" y="-47.75" font-family="Helvetica,sans-Serif" font-size="10.00">Entries</text>
</a>
</g>
</g>
<!-- Node2 -->
<g id="Node000002" class="node">
<title>Node2</title>
<g id="a_Node000002"><a xlink:href="class_nuki_1_1_nuki_ble.html#af1f1e299e8d97e053bba80e92ba285d6" target="_top" xlink:title=" ">
<polygon fill="white" stroke="#666666" points="321.5,-88.88 180.25,-88.88 180.25,-69.62 321.5,-69.62 321.5,-88.88"/>
<text text-anchor="middle" x="250.88" y="-75.38" font-family="Helvetica,sans-Serif" font-size="10.00">Nuki::NukiBle::executeAction</text>
</a>
</g>
</g>
<!-- Node1&#45;&gt;Node2 -->
<g id="edge1_Node000001_Node000002" class="edge">
<title>Node1&#45;&gt;Node2</title>
<g id="a_edge1_Node000001_Node000002"><a xlink:title=" ">
<path fill="none" stroke="#63b8ff" d="M144.51,-66.13C152.45,-67.12 160.59,-68.14 168.64,-69.14"/>
<polygon fill="#63b8ff" stroke="#63b8ff" points="168.09,-72.6 178.45,-70.36 168.96,-65.65 168.09,-72.6"/>
</a>
</g>
</g>
<!-- Node7 -->
<g id="Node000007" class="node">
<title>Node7</title>
<g id="a_Node000007"><a xlink:href="class_nuki_1_1_nuki_ble.html#ad94d354153b8b4f779f7a7a32258ff48" target="_top" xlink:title="Returns the keypad entry count. Only available after executing retreiveKeypadEntries.">
<polygon fill="white" stroke="#666666" points="313.62,-51.5 188.12,-51.5 188.12,-21 313.62,-21 313.62,-51.5"/>
<text text-anchor="start" x="196.12" y="-38" font-family="Helvetica,sans-Serif" font-size="10.00">Nuki::NukiBle::getKeypad</text>
<text text-anchor="middle" x="250.88" y="-26.75" font-family="Helvetica,sans-Serif" font-size="10.00">EntryCount</text>
</a>
</g>
</g>
<!-- Node1&#45;&gt;Node7 -->
<g id="edge6_Node000001_Node000007" class="edge">
<title>Node1&#45;&gt;Node7</title>
<g id="a_edge6_Node000001_Node000007"><a xlink:title=" ">
<path fill="none" stroke="#63b8ff" d="M144.51,-48.77C155.06,-47.52 165.95,-46.22 176.54,-44.96"/>
<polygon fill="#63b8ff" stroke="#63b8ff" points="176.87,-48.45 186.39,-43.79 176.05,-41.5 176.87,-48.45"/>
</a>
</g>
</g>
<!-- Node3 -->
<g id="Node000003" class="node">
<title>Node3</title>
<g id="a_Node000003"><a xlink:href="class_nuki_1_1_nuki_ble.html#ada0f3beebd95d35c122e25dd3f9eb886" target="_top" xlink:title=" ">
<polygon fill="white" stroke="#666666" points="505.5,-165.5 368,-165.5 368,-135 505.5,-135 505.5,-165.5"/>
<text text-anchor="start" x="376" y="-152" font-family="Helvetica,sans-Serif" font-size="10.00">Nuki::NukiBle::cmdChallAcc</text>
<text text-anchor="middle" x="436.75" y="-140.75" font-family="Helvetica,sans-Serif" font-size="10.00">StateMachine</text>
</a>
</g>
</g>
<!-- Node2&#45;&gt;Node3 -->
<g id="edge2_Node000002_Node000003" class="edge">
<title>Node2&#45;&gt;Node3</title>
<g id="a_edge2_Node000002_Node000003"><a xlink:title=" ">
<path fill="none" stroke="#63b8ff" d="M273.06,-89.23C294.2,-99.02 327.74,-114.05 357.5,-125.25 362.71,-127.21 368.14,-129.15 373.62,-131.04"/>
<polygon fill="#63b8ff" stroke="#63b8ff" points="372.11,-134.22 382.71,-134.1 374.35,-127.59 372.11,-134.22"/>
</a>
</g>
</g>
<!-- Node4 -->
<g id="Node000004" class="node">
<title>Node4</title>
<g id="a_Node000004"><a xlink:href="class_nuki_1_1_nuki_ble.html#a59169a9f492793762e3c6ba39b611b07" target="_top" xlink:title=" ">
<polygon fill="white" stroke="#666666" points="508.5,-116.5 365,-116.5 365,-86 508.5,-86 508.5,-116.5"/>
<text text-anchor="start" x="373" y="-103" font-family="Helvetica,sans-Serif" font-size="10.00">Nuki::NukiBle::cmdChallState</text>
<text text-anchor="middle" x="436.75" y="-91.75" font-family="Helvetica,sans-Serif" font-size="10.00">Machine</text>
</a>
</g>
</g>
<!-- Node2&#45;&gt;Node4 -->
<g id="edge3_Node000002_Node000004" class="edge">
<title>Node2&#45;&gt;Node4</title>
<g id="a_edge3_Node000002_Node000004"><a xlink:title=" ">
<path fill="none" stroke="#63b8ff" d="M321.91,-87.63C332.2,-88.86 342.87,-90.14 353.38,-91.39"/>
<polygon fill="#63b8ff" stroke="#63b8ff" points="352.84,-94.85 363.18,-92.57 353.67,-87.9 352.84,-94.85"/>
</a>
</g>
</g>
<!-- Node5 -->
<g id="Node000005" class="node">
<title>Node5</title>
<g id="a_Node000005"><a xlink:href="class_nuki_1_1_nuki_ble.html#ad135bb1455665decfddff67772c1d411" target="_top" xlink:title=" ">
<polygon fill="white" stroke="#666666" points="516,-67.88 357.5,-67.88 357.5,-48.62 516,-48.62 516,-67.88"/>
<text text-anchor="middle" x="436.75" y="-54.38" font-family="Helvetica,sans-Serif" font-size="10.00">Nuki::NukiBle::cmdStateMachine</text>
</a>
</g>
</g>
<!-- Node2&#45;&gt;Node5 -->
<g id="edge4_Node000002_Node000005" class="edge">
<title>Node2&#45;&gt;Node5</title>
<g id="a_edge4_Node000002_Node000005"><a xlink:title=" ">
<path fill="none" stroke="#63b8ff" d="M321.91,-71.25C329.78,-70.35 337.87,-69.43 345.94,-68.51"/>
<polygon fill="#63b8ff" stroke="#63b8ff" points="346.26,-71.99 355.8,-67.38 345.47,-65.04 346.26,-71.99"/>
</a>
</g>
</g>
<!-- Node6 -->
<g id="Node000006" class="node">
<title>Node6</title>
<g id="a_Node000006"><a xlink:href="class_nuki_1_1_nuki_ble.html#a6e8fca90c04249660dce6cb993eb4495" target="_top" xlink:title=" ">
<polygon fill="white" stroke="#666666" points="515.25,-30.5 358.25,-30.5 358.25,0 515.25,0 515.25,-30.5"/>
<text text-anchor="start" x="366.25" y="-17" font-family="Helvetica,sans-Serif" font-size="10.00">Nuki::NukiBle::extendDisconnect</text>
<text text-anchor="middle" x="436.75" y="-5.75" font-family="Helvetica,sans-Serif" font-size="10.00">Timeout</text>
</a>
</g>
</g>
<!-- Node2&#45;&gt;Node6 -->
<g id="edge5_Node000002_Node000006" class="edge">
<title>Node2&#45;&gt;Node6</title>
<g id="a_edge5_Node000002_Node000006"><a xlink:title=" ">
<path fill="none" stroke="#63b8ff" d="M295.55,-69.22C304.29,-66.69 313.3,-63.69 321.5,-60.25 338.58,-53.08 340.53,-46.68 357.5,-39.25 361.06,-37.69 364.75,-36.19 368.5,-34.76"/>
<polygon fill="#63b8ff" stroke="#63b8ff" points="369.55,-38.1 377.76,-31.41 367.17,-31.52 369.55,-38.1"/>
</a>
</g>
</g>
</g>
</svg>
