<?xml version="1.0" encoding="UTF-8" standalone="no"?>
<!DOCTYPE svg PUBLIC "-//W3C//DTD SVG 1.1//EN"
 "http://www.w3.org/Graphics/SVG/1.1/DTD/svg11.dtd">
<!-- Generated by graphviz version 12.2.1 (20241206.2353)
 -->
<!-- Title: NukiOpener::NukiOpener::enableRandomElectricStrikeDelay Pages: 1 -->
<!--zoomable 263 -->

<svg id="main" version="1.1" xmlns="http://www.w3.org/2000/svg" xmlns:xlink="http://www.w3.org/1999/xlink" xml:space="preserve" onload="init(evt)">

<style type="text/css"><![CDATA[
.node, .edge {opacity: 0.7;}
.node.selected, .edge.selected {opacity: 1;}
.edge:hover path { stroke: red; }
.edge:hover polygon { stroke: red; fill: red; }
]]></style>

<defs>
  <circle id="rim" cx="0" cy="0" r="7"/>
  <circle id="rim2" cx="0" cy="0" r="3.5"/>
  <g id="zoomPlus">
    <use xlink:href="#rim" fill="#404040"><set attributeName="fill" to="#808080" begin="zoomplus.mouseover" end="zoomplus.mouseout"/></use>
    <path d="M-4,0h8M0,-4v8" fill="none" stroke="white" stroke-width="1.5" pointer-events="none"/>
  </g>
  <g id="zoomMin">
    <use xlink:href="#rim" fill="#404040"><set attributeName="fill" to="#808080" begin="zoomminus.mouseover" end="zoomminus.mouseout"/></use>
    <path d="M-4,0h8" fill="none" stroke="white" stroke-width="1.5" pointer-events="none"/>
  </g>
  <g id="arrowUp" transform="translate(30 24)">
    <use xlink:href="#rim"/>
    <path pointer-events="none" fill="none" stroke="white" stroke-width="1.5" d="M0,-3.0v7 M-2.5,-0.5L0,-3.0L2.5,-0.5"/>
  </g>
  <g id="arrowRight" transform="rotate(90) translate(36 -43)">
    <use xlink:href="#rim"/>
    <path pointer-events="none" fill="none" stroke="white" stroke-width="1.5" d="M0,-3.0v7 M-2.5,-0.5L0,-3.0L2.5,-0.5"/>
  </g>
  <g id="arrowDown" transform="rotate(180) translate(-30 -48)">
    <use xlink:href="#rim"/>
    <path pointer-events="none" fill="none" stroke="white" stroke-width="1.5" d="M0,-3.0v7 M-2.5,-0.5L0,-3.0L2.5,-0.5"/>
  </g>
  <g id="arrowLeft" transform="rotate(270) translate(-36 17)">
    <use xlink:href="#rim"/>
    <path pointer-events="none" fill="none" stroke="white" stroke-width="1.5" d="M0,-3.0v7 M-2.5,-0.5L0,-3.0L2.5,-0.5"/>
  </g>
  <g id="resetDef">
    <use xlink:href="#rim2" fill="#404040"><set attributeName="fill" to="#808080" begin="reset.mouseover" end="reset.mouseout"/></use>
  </g>
</defs>
<script type="application/ecmascript">
var viewWidth = 900;
var viewHeight = 263;
var sectionId = 'dynsection-10';
</script>
<script type="application/ecmascript" xlink:href="svg.min.js"/>
<svg id="graph" class="graph">
<g id="viewport">
<title>NukiOpener::NukiOpener::enableRandomElectricStrikeDelay</title>
<!-- Node1 -->
<g id="Node000001" class="node">
<title>Node1</title>
<g id="a_Node000001"><a xlink:title="Gets the current config from the opener, updates the random electric strike delay parameter and sends...">
<polygon fill="#999999" stroke="#666666" points="166.75,-148.88 0,-148.88 0,-118.38 166.75,-118.38 166.75,-148.88"/>
<text text-anchor="start" x="8" y="-135.38" font-family="Helvetica,sans-Serif" font-size="10.00">NukiOpener::NukiOpener</text>
<text text-anchor="middle" x="83.38" y="-124.12" font-family="Helvetica,sans-Serif" font-size="10.00">::enableRandomElectricStrikeDelay</text>
</a>
</g>
</g>
<!-- Node2 -->
<g id="Node000002" class="node">
<title>Node2</title>
<g id="a_Node000002"><a xlink:href="class_nuki_opener_1_1_nuki_opener.html#adf50e8b8e35409d8aa43de69c43535b5" target="_top" xlink:title="Requests advanced config from Opener via BLE.">
<polygon fill="white" stroke="#666666" points="326.75,-148.88 202.75,-148.88 202.75,-118.38 326.75,-118.38 326.75,-148.88"/>
<text text-anchor="start" x="210.75" y="-135.38" font-family="Helvetica,sans-Serif" font-size="10.00">NukiOpener::NukiOpener</text>
<text text-anchor="middle" x="264.75" y="-124.12" font-family="Helvetica,sans-Serif" font-size="10.00">::requestAdvancedConfig</text>
</a>
</g>
</g>
<!-- Node1&#45;&gt;Node2 -->
<g id="edge1_Node000001_Node000002" class="edge">
<title>Node1&#45;&gt;Node2</title>
<g id="a_edge1_Node000001_Node000002"><a xlink:title=" ">
<path fill="none" stroke="#63b8ff" d="M167.24,-133.62C175.19,-133.62 183.22,-133.62 191.07,-133.62"/>
<polygon fill="#63b8ff" stroke="#63b8ff" points="190.89,-137.13 200.89,-133.63 190.89,-130.13 190.89,-137.13"/>
</a>
</g>
</g>
<!-- Node3 -->
<g id="Node000003" class="node">
<title>Node3</title>
<g id="a_Node000003"><a xlink:href="class_nuki_1_1_nuki_ble.html#af1f1e299e8d97e053bba80e92ba285d6" target="_top" xlink:title=" ">
<polygon fill="white" stroke="#666666" points="504,-143.25 362.75,-143.25 362.75,-124 504,-124 504,-143.25"/>
<text text-anchor="middle" x="433.38" y="-129.75" font-family="Helvetica,sans-Serif" font-size="10.00">Nuki::NukiBle::executeAction</text>
</a>
</g>
</g>
<!-- Node2&#45;&gt;Node3 -->
<g id="edge2_Node000002_Node000003" class="edge">
<title>Node2&#45;&gt;Node3</title>
<g id="a_edge2_Node000002_Node000003"><a xlink:title=" ">
<path fill="none" stroke="#63b8ff" d="M326.85,-133.62C334.68,-133.62 342.79,-133.62 350.87,-133.62"/>
<polygon fill="#63b8ff" stroke="#63b8ff" points="350.75,-137.13 360.75,-133.63 350.75,-130.13 350.75,-137.13"/>
</a>
</g>
</g>
<!-- Node4 -->
<g id="Node000004" class="node">
<title>Node4</title>
<g id="a_Node000004"><a xlink:href="class_nuki_1_1_nuki_ble.html#ada0f3beebd95d35c122e25dd3f9eb886" target="_top" xlink:title=" ">
<polygon fill="white" stroke="#666666" points="688,-191.88 550.5,-191.88 550.5,-161.38 688,-161.38 688,-191.88"/>
<text text-anchor="start" x="558.5" y="-178.38" font-family="Helvetica,sans-Serif" font-size="10.00">Nuki::NukiBle::cmdChallAcc</text>
<text text-anchor="middle" x="619.25" y="-167.12" font-family="Helvetica,sans-Serif" font-size="10.00">StateMachine</text>
</a>
</g>
</g>
<!-- Node3&#45;&gt;Node4 -->
<g id="edge3_Node000003_Node000004" class="edge">
<title>Node3&#45;&gt;Node4</title>
<g id="a_edge3_Node000003_Node000004"><a xlink:title=" ">
<path fill="none" stroke="#63b8ff" d="M477.49,-143.71C496.11,-148.06 518.49,-153.3 539.88,-158.3"/>
<polygon fill="#63b8ff" stroke="#63b8ff" points="538.93,-161.67 549.47,-160.54 540.53,-154.85 538.93,-161.67"/>
</a>
</g>
</g>
<!-- Node5 -->
<g id="Node000005" class="node">
<title>Node5</title>
<g id="a_Node000005"><a xlink:href="class_nuki_1_1_nuki_ble.html#a6e8fca90c04249660dce6cb993eb4495" target="_top" xlink:title=" ">
<polygon fill="white" stroke="#666666" points="891.5,-189.88 734.5,-189.88 734.5,-159.38 891.5,-159.38 891.5,-189.88"/>
<text text-anchor="start" x="742.5" y="-176.38" font-family="Helvetica,sans-Serif" font-size="10.00">Nuki::NukiBle::extendDisconnect</text>
<text text-anchor="middle" x="813" y="-165.12" font-family="Helvetica,sans-Serif" font-size="10.00">Timeout</text>
</a>
</g>
</g>
<!-- Node3&#45;&gt;Node5 -->
<g id="edge16_Node000003_Node000005" class="edge">
<title>Node3&#45;&gt;Node5</title>
<g id="a_edge16_Node000003_Node000005"><a xlink:title=" ">
<path fill="none" stroke="#63b8ff" d="M504.4,-136.38C557.77,-139.03 632.98,-143.95 698.5,-152.62 707.65,-153.84 717.18,-155.32 726.65,-156.95"/>
<polygon fill="#63b8ff" stroke="#63b8ff" points="725.78,-160.35 736.23,-158.64 727,-153.45 725.78,-160.35"/>
</a>
</g>
</g>
<!-- Node6 -->
<g id="Node000006" class="node">
<title>Node6</title>
<g id="a_Node000006"><a xlink:href="class_nuki_1_1_nuki_ble.html#ac7ce691d9c3e586474655d1663eb2e20" target="_top" xlink:title=" ">
<polygon fill="white" stroke="#666666" points="879.12,-228.25 746.88,-228.25 746.88,-209 879.12,-209 879.12,-228.25"/>
<text text-anchor="middle" x="813" y="-214.75" font-family="Helvetica,sans-Serif" font-size="10.00">Nuki::NukiBle::logMessage</text>
</a>
</g>
</g>
<!-- Node3&#45;&gt;Node6 -->
<g id="edge18_Node000003_Node000006" class="edge">
<title>Node3&#45;&gt;Node6</title>
<g id="a_edge18_Node000003_Node000006"><a xlink:title=" ">
<path fill="none" stroke="#63b8ff" d="M440.46,-143.67C454.62,-165.91 492.19,-218.91 540,-238.62 617.85,-270.74 718.81,-248.58 773.2,-232.06"/>
<polygon fill="#63b8ff" stroke="#63b8ff" points="774.14,-235.43 782.63,-229.09 772.04,-228.75 774.14,-235.43"/>
</a>
</g>
</g>
<!-- Node7 -->
<g id="Node000007" class="node">
<title>Node7</title>
<g id="a_Node000007"><a xlink:href="class_nuki_1_1_nuki_ble.html#af3650133f46aeca48a5f01b95d23ab71" target="_top" xlink:title=" ">
<polygon fill="white" stroke="#666666" points="886.62,-140.25 739.38,-140.25 739.38,-121 886.62,-121 886.62,-140.25"/>
<text text-anchor="middle" x="813" y="-126.75" font-family="Helvetica,sans-Serif" font-size="10.00">Nuki::NukiBle::logMessageVar</text>
</a>
</g>
</g>
<!-- Node3&#45;&gt;Node7 -->
<g id="edge19_Node000003_Node000007" class="edge">
<title>Node3&#45;&gt;Node7</title>
<g id="a_edge19_Node000003_Node000007"><a xlink:title=" ">
<path fill="none" stroke="#63b8ff" d="M445.34,-123.61C463.44,-107.83 501.42,-77.83 540,-66.62 607.65,-46.98 634.67,-36.82 698.5,-66.62 721.08,-77.17 713.51,-96.19 734.5,-109.62 738.53,-112.2 742.87,-114.47 747.37,-116.46"/>
<polygon fill="#63b8ff" stroke="#63b8ff" points="746.07,-119.71 756.66,-120.06 748.61,-113.18 746.07,-119.71"/>
</a>
</g>
</g>
<!-- Node8 -->
<g id="Node000008" class="node">
<title>Node8</title>
<g id="a_Node000008"><a xlink:href="class_nuki_1_1_nuki_ble.html#a59169a9f492793762e3c6ba39b611b07" target="_top" xlink:title=" ">
<polygon fill="white" stroke="#666666" points="691,-105.88 547.5,-105.88 547.5,-75.38 691,-75.38 691,-105.88"/>
<text text-anchor="start" x="555.5" y="-92.38" font-family="Helvetica,sans-Serif" font-size="10.00">Nuki::NukiBle::cmdChallState</text>
<text text-anchor="middle" x="619.25" y="-81.12" font-family="Helvetica,sans-Serif" font-size="10.00">Machine</text>
</a>
</g>
</g>
<!-- Node3&#45;&gt;Node8 -->
<g id="edge7_Node000003_Node000008" class="edge">
<title>Node3&#45;&gt;Node8</title>
<g id="a_edge7_Node000003_Node000008"><a xlink:title=" ">
<path fill="none" stroke="#63b8ff" d="M477.49,-123.54C496.11,-119.19 518.49,-113.95 539.88,-108.95"/>
<polygon fill="#63b8ff" stroke="#63b8ff" points="540.53,-112.4 549.47,-106.71 538.93,-105.58 540.53,-112.4"/>
</a>
</g>
</g>
<!-- Node10 -->
<g id="Node000010" class="node">
<title>Node10</title>
<g id="a_Node000010"><a xlink:href="class_nuki_1_1_nuki_ble.html#ad135bb1455665decfddff67772c1d411" target="_top" xlink:title=" ">
<polygon fill="white" stroke="#666666" points="698.5,-229.25 540,-229.25 540,-210 698.5,-210 698.5,-229.25"/>
<text text-anchor="middle" x="619.25" y="-215.75" font-family="Helvetica,sans-Serif" font-size="10.00">Nuki::NukiBle::cmdStateMachine</text>
</a>
</g>
</g>
<!-- Node3&#45;&gt;Node10 -->
<g id="edge12_Node000003_Node000010" class="edge">
<title>Node3&#45;&gt;Node10</title>
<g id="a_edge12_Node000003_Node000010"><a xlink:title=" ">
<path fill="none" stroke="#63b8ff" d="M446.95,-143.55C466,-158.13 503.82,-185.26 540,-200.62 544.97,-202.73 550.21,-204.64 555.54,-206.35"/>
<polygon fill="#63b8ff" stroke="#63b8ff" points="554.51,-209.7 565.09,-209.18 556.49,-202.99 554.51,-209.7"/>
</a>
</g>
</g>
<!-- Node11 -->
<g id="Node000011" class="node">
<title>Node11</title>
<g id="a_Node000011"><a xlink:href="class_nuki_1_1_nuki_ble.html#a050f54fbfcea03dc5238e8c66a7e89ca" target="_top" xlink:title="Returns pairing state (if credentials are stored or not)">
<polygon fill="white" stroke="#666666" points="697.38,-19.25 541.12,-19.25 541.12,0 697.38,0 697.38,-19.25"/>
<text text-anchor="middle" x="619.25" y="-5.75" font-family="Helvetica,sans-Serif" font-size="10.00">Nuki::NukiBle::isPairedWithLock</text>
</a>
</g>
</g>
<!-- Node3&#45;&gt;Node11 -->
<g id="edge17_Node000003_Node000011" class="edge">
<title>Node3&#45;&gt;Node11</title>
<g id="a_edge17_Node000003_Node000011"><a xlink:title=" ">
<path fill="none" stroke="#63b8ff" d="M442.26,-123.52C458.44,-103.47 497.46,-58.43 540,-33.62 546.84,-29.64 554.41,-26.25 562.07,-23.38"/>
<polygon fill="#63b8ff" stroke="#63b8ff" points="563.13,-26.72 571.46,-20.17 560.87,-20.1 563.13,-26.72"/>
</a>
</g>
</g>
<!-- Node4&#45;&gt;Node5 -->
<g id="edge4_Node000004_Node000005" class="edge">
<title>Node4&#45;&gt;Node5</title>
<g id="a_edge4_Node000004_Node000005"><a xlink:title=" ">
<path fill="none" stroke="#63b8ff" d="M688.39,-175.91C699.54,-175.8 711.22,-175.68 722.78,-175.56"/>
<polygon fill="#63b8ff" stroke="#63b8ff" points="722.8,-179.06 732.76,-175.45 722.72,-172.06 722.8,-179.06"/>
</a>
</g>
</g>
<!-- Node4&#45;&gt;Node6 -->
<g id="edge5_Node000004_Node000006" class="edge">
<title>Node4&#45;&gt;Node6</title>
<g id="a_edge5_Node000004_Node000006"><a xlink:title=" ">
<path fill="none" stroke="#63b8ff" d="M688.39,-191.55C710.2,-196.33 734.1,-201.56 755.03,-206.15"/>
<polygon fill="#63b8ff" stroke="#63b8ff" points="754,-209.5 764.51,-208.22 755.49,-202.67 754,-209.5"/>
</a>
</g>
</g>
<!-- Node4&#45;&gt;Node7 -->
<g id="edge6_Node000004_Node000007" class="edge">
<title>Node4&#45;&gt;Node7</title>
<g id="a_edge6_Node000004_Node000007"><a xlink:title=" ">
<path fill="none" stroke="#63b8ff" d="M685.7,-160.92C709.56,-155.2 736.21,-148.81 758.86,-143.37"/>
<polygon fill="#63b8ff" stroke="#63b8ff" points="759.59,-146.8 768.5,-141.06 757.96,-139.99 759.59,-146.8"/>
</a>
</g>
</g>
<!-- Node8&#45;&gt;Node5 -->
<g id="edge8_Node000008_Node000005" class="edge">
<title>Node8&#45;&gt;Node5</title>
<g id="a_edge8_Node000008_Node000005"><a xlink:title=" ">
<path fill="none" stroke="#63b8ff" d="M670.25,-106.26C679.9,-110.07 689.72,-114.54 698.5,-119.62 716.52,-130.06 716.26,-139.58 734.5,-149.62 737.66,-151.36 740.96,-153 744.33,-154.55"/>
<polygon fill="#63b8ff" stroke="#63b8ff" points="742.68,-157.65 753.26,-158.31 745.4,-151.2 742.68,-157.65"/>
</a>
</g>
</g>
<!-- Node8&#45;&gt;Node6 -->
<g id="edge10_Node000008_Node000006" class="edge">
<title>Node8&#45;&gt;Node6</title>
<g id="a_edge10_Node000008_Node000006"><a xlink:title=" ">
<path fill="none" stroke="#63b8ff" d="M642.66,-106.17C658.97,-118 681.15,-135.17 698.5,-152.62 716.8,-171.04 712.78,-184.41 734.5,-198.62 737.74,-200.74 741.19,-202.64 744.76,-204.33"/>
<polygon fill="#63b8ff" stroke="#63b8ff" points="743.14,-207.45 753.72,-208.02 745.8,-200.98 743.14,-207.45"/>
</a>
</g>
</g>
<!-- Node8&#45;&gt;Node7 -->
<g id="edge11_Node000008_Node000007" class="edge">
<title>Node8&#45;&gt;Node7</title>
<g id="a_edge11_Node000008_Node000007"><a xlink:title=" ">
<path fill="none" stroke="#63b8ff" d="M691.38,-105.46C711.51,-109.66 733.21,-114.19 752.58,-118.23"/>
<polygon fill="#63b8ff" stroke="#63b8ff" points="751.7,-121.62 762.2,-120.24 753.13,-114.77 751.7,-121.62"/>
</a>
</g>
</g>
<!-- Node9 -->
<g id="Node000009" class="node">
<title>Node9</title>
<g id="a_Node000009"><a xlink:href="class_nuki_1_1_nuki_ble.html#a25207bb564a4b54b8dd8c872177b53a7" target="_top" xlink:title="Returns if BLE is pairing/paired/connected with a Smart Lock Ultra.">
<polygon fill="white" stroke="#666666" points="878,-100.25 748,-100.25 748,-81 878,-81 878,-100.25"/>
<text text-anchor="middle" x="813" y="-86.75" font-family="Helvetica,sans-Serif" font-size="10.00">Nuki::NukiBle::isLockUltra</text>
</a>
</g>
</g>
<!-- Node8&#45;&gt;Node9 -->
<g id="edge9_Node000008_Node000009" class="edge">
<title>Node8&#45;&gt;Node9</title>
<g id="a_edge9_Node000008_Node000009"><a xlink:title=" ">
<path fill="none" stroke="#63b8ff" d="M691.38,-90.62C706.07,-90.62 721.6,-90.62 736.44,-90.62"/>
<polygon fill="#63b8ff" stroke="#63b8ff" points="736.12,-94.13 746.12,-90.63 736.12,-87.13 736.12,-94.13"/>
</a>
</g>
</g>
<!-- Node10&#45;&gt;Node5 -->
<g id="edge13_Node000010_Node000005" class="edge">
<title>Node10&#45;&gt;Node5</title>
<g id="a_edge13_Node000010_Node000005"><a xlink:title=" ">
<path fill="none" stroke="#63b8ff" d="M663.28,-209.53C684.16,-204.63 709.89,-198.59 734.05,-192.92"/>
<polygon fill="#63b8ff" stroke="#63b8ff" points="734.61,-196.38 743.54,-190.69 733.01,-189.57 734.61,-196.38"/>
</a>
</g>
</g>
<!-- Node10&#45;&gt;Node6 -->
<g id="edge14_Node000010_Node000006" class="edge">
<title>Node10&#45;&gt;Node6</title>
<g id="a_edge14_Node000010_Node000006"><a xlink:title=" ">
<path fill="none" stroke="#63b8ff" d="M698.8,-219.22C710.79,-219.15 723.15,-219.09 735.11,-219.03"/>
<polygon fill="#63b8ff" stroke="#63b8ff" points="734.93,-222.53 744.91,-218.97 734.89,-215.53 734.93,-222.53"/>
</a>
</g>
</g>
<!-- Node10&#45;&gt;Node7 -->
<g id="edge15_Node000010_Node000007" class="edge">
<title>Node10&#45;&gt;Node7</title>
<g id="a_edge15_Node000010_Node000007"><a xlink:title=" ">
<path fill="none" stroke="#63b8ff" d="M680.66,-209.65C686.96,-207.26 693.05,-204.29 698.5,-200.62 721.22,-185.33 711.89,-166.08 734.5,-150.62 737.39,-148.65 740.46,-146.87 743.65,-145.27"/>
<polygon fill="#63b8ff" stroke="#63b8ff" points="744.98,-148.5 752.77,-141.32 742.2,-142.08 744.98,-148.5"/>
</a>
</g>
</g>
</g>
</svg>

<g id="navigator" transform="translate(0 0)" fill="#404254">
  <rect fill="#f2f5e9" fill-opacity="0.5" stroke="#606060" stroke-width=".5" x="0" y="0" width="60" height="60"/>
  <use id="zoomplus" xlink:href="#zoomPlus" x="17" y="9" onmousedown="handleZoom(evt,'in')"/>
  <use id="zoomminus" xlink:href="#zoomMin" x="42" y="9" onmousedown="handleZoom(evt,'out')"/>
  <use id="reset" xlink:href="#resetDef" x="30" y="36" onmousedown="handleReset()"/>
   <use id="arrowup" xlink:href="#arrowUp" x="0" y="0" onmousedown="handlePan(0,-1)"/>
  <use id="arrowright" xlink:href="#arrowRight" x="0" y="0" onmousedown="handlePan(1,0)"/>
  <use id="arrowdown" xlink:href="#arrowDown" x="0" y="0" onmousedown="handlePan(0,1)"/>
  <use id="arrowleft" xlink:href="#arrowLeft" x="0" y="0" onmousedown="handlePan(-1,0)"/>
</g>
<svg viewBox="0 0 15 15" width="100%" height="30px" preserveAspectRatio="xMaxYMin meet">
 <g id="arrow_out" transform="scale(0.3 0.3)">
  <a xlink:href="class_nuki_opener_1_1_nuki_opener_acbe5597eb82f0d9127af22dee5967f50_cgraph_org.svg" target="_base">
   <rect id="button" ry="5" rx="5" y="6" x="6" height="38" width="38"
        fill="#f2f5e9" fill-opacity="0.5" stroke="#606060" stroke-width="1.0"/>
   <path id="arrow"
     d="M 11.500037,31.436501 C 11.940474,20.09759 22.043105,11.32322 32.158766,21.979434 L 37.068811,17.246167 C 37.068811,17.246167 37.088388,32 37.088388,32 L 22.160133,31.978069 C 22.160133,31.978069 26.997745,27.140456 26.997745,27.140456 C 18.528582,18.264221 13.291696,25.230495 11.500037,31.436501 z"
     style="fill:#404040;"/>
  </a>
 </g>
</svg>

<style type='text/css'>
<![CDATA[
[data-mouse-over-selected='false'] { opacity: 0.7; }
[data-mouse-over-selected='true']  { opacity: 1.0; }
]]>
</style>
<script type="application/ecmascript"><![CDATA[
document.addEventListener('DOMContentLoaded', (event) => {
  highlightEdges();
  highlightAdjacentNodes();
});
]]></script>
</svg>
