<?xml version="1.0" encoding="UTF-8" standalone="no"?>
<!DOCTYPE svg PUBLIC "-//W3C//DTD SVG 1.1//EN"
 "http://www.w3.org/Graphics/SVG/1.1/DTD/svg11.dtd">
<!-- Generated by graphviz version 12.2.1 (20241206.2353)
 -->
<!-- Title: NukiOpener::NukiOpener::setDoubleButtonPressAction Pages: 1 -->
<!--zoomable 205 -->

<svg id="main" version="1.1" xmlns="http://www.w3.org/2000/svg" xmlns:xlink="http://www.w3.org/1999/xlink" xml:space="preserve" onload="init(evt)">

<style type="text/css"><![CDATA[
.node, .edge {opacity: 0.7;}
.node.selected, .edge.selected {opacity: 1;}
.edge:hover path { stroke: red; }
.edge:hover polygon { stroke: red; fill: red; }
]]></style>

<defs>
  <circle id="rim" cx="0" cy="0" r="7"/>
  <circle id="rim2" cx="0" cy="0" r="3.5"/>
  <g id="zoomPlus">
    <use xlink:href="#rim" fill="#404040"><set attributeName="fill" to="#808080" begin="zoomplus.mouseover" end="zoomplus.mouseout"/></use>
    <path d="M-4,0h8M0,-4v8" fill="none" stroke="white" stroke-width="1.5" pointer-events="none"/>
  </g>
  <g id="zoomMin">
    <use xlink:href="#rim" fill="#404040"><set attributeName="fill" to="#808080" begin="zoomminus.mouseover" end="zoomminus.mouseout"/></use>
    <path d="M-4,0h8" fill="none" stroke="white" stroke-width="1.5" pointer-events="none"/>
  </g>
  <g id="arrowUp" transform="translate(30 24)">
    <use xlink:href="#rim"/>
    <path pointer-events="none" fill="none" stroke="white" stroke-width="1.5" d="M0,-3.0v7 M-2.5,-0.5L0,-3.0L2.5,-0.5"/>
  </g>
  <g id="arrowRight" transform="rotate(90) translate(36 -43)">
    <use xlink:href="#rim"/>
    <path pointer-events="none" fill="none" stroke="white" stroke-width="1.5" d="M0,-3.0v7 M-2.5,-0.5L0,-3.0L2.5,-0.5"/>
  </g>
  <g id="arrowDown" transform="rotate(180) translate(-30 -48)">
    <use xlink:href="#rim"/>
    <path pointer-events="none" fill="none" stroke="white" stroke-width="1.5" d="M0,-3.0v7 M-2.5,-0.5L0,-3.0L2.5,-0.5"/>
  </g>
  <g id="arrowLeft" transform="rotate(270) translate(-36 17)">
    <use xlink:href="#rim"/>
    <path pointer-events="none" fill="none" stroke="white" stroke-width="1.5" d="M0,-3.0v7 M-2.5,-0.5L0,-3.0L2.5,-0.5"/>
  </g>
  <g id="resetDef">
    <use xlink:href="#rim2" fill="#404040"><set attributeName="fill" to="#808080" begin="reset.mouseover" end="reset.mouseout"/></use>
  </g>
</defs>
<script type="application/ecmascript">
var viewWidth = 879;
var viewHeight = 205;
var sectionId = 'dynsection-30';
</script>
<script type="application/ecmascript" xlink:href="svg.min.js"/>
<svg id="graph" class="graph">
<g id="viewport">
<title>NukiOpener::NukiOpener::setDoubleButtonPressAction</title>
<!-- Node1 -->
<g id="Node000001" class="node">
<title>Node1</title>
<g id="a_Node000001"><a xlink:title="Gets the current advanced config from the opener, updates the double button press action parameter an...">
<polygon fill="#999999" stroke="#666666" points="145.75,-102.35 0,-102.35 0,-71.85 145.75,-71.85 145.75,-102.35"/>
<text text-anchor="start" x="8" y="-88.85" font-family="Helvetica,sans-Serif" font-size="10.00">NukiOpener::NukiOpener</text>
<text text-anchor="middle" x="72.88" y="-77.6" font-family="Helvetica,sans-Serif" font-size="10.00">::setDoubleButtonPressAction</text>
</a>
</g>
</g>
<!-- Node2 -->
<g id="Node000002" class="node">
<title>Node2</title>
<g id="a_Node000002"><a xlink:href="class_nuki_opener_1_1_nuki_opener.html#adf50e8b8e35409d8aa43de69c43535b5" target="_top" xlink:title="Requests advanced config from Opener via BLE.">
<polygon fill="white" stroke="#666666" points="305.75,-102.35 181.75,-102.35 181.75,-71.85 305.75,-71.85 305.75,-102.35"/>
<text text-anchor="start" x="189.75" y="-88.85" font-family="Helvetica,sans-Serif" font-size="10.00">NukiOpener::NukiOpener</text>
<text text-anchor="middle" x="243.75" y="-77.6" font-family="Helvetica,sans-Serif" font-size="10.00">::requestAdvancedConfig</text>
</a>
</g>
</g>
<!-- Node1&#45;&gt;Node2 -->
<g id="edge1_Node000001_Node000002" class="edge">
<title>Node1&#45;&gt;Node2</title>
<g id="a_edge1_Node000001_Node000002"><a xlink:title=" ">
<path fill="none" stroke="#63b8ff" d="M145.98,-87.1C153.87,-87.1 161.91,-87.1 169.81,-87.1"/>
<polygon fill="#63b8ff" stroke="#63b8ff" points="169.74,-90.6 179.74,-87.1 169.74,-83.6 169.74,-90.6"/>
</a>
</g>
</g>
<!-- Node3 -->
<g id="Node000003" class="node">
<title>Node3</title>
<g id="a_Node000003"><a xlink:href="class_nuki_1_1_nuki_ble.html#af1f1e299e8d97e053bba80e92ba285d6" target="_top" xlink:title=" ">
<polygon fill="white" stroke="#666666" points="483,-96.73 341.75,-96.73 341.75,-77.48 483,-77.48 483,-96.73"/>
<text text-anchor="middle" x="412.38" y="-83.23" font-family="Helvetica,sans-Serif" font-size="10.00">Nuki::NukiBle::executeAction</text>
</a>
</g>
</g>
<!-- Node2&#45;&gt;Node3 -->
<g id="edge2_Node000002_Node000003" class="edge">
<title>Node2&#45;&gt;Node3</title>
<g id="a_edge2_Node000002_Node000003"><a xlink:title=" ">
<path fill="none" stroke="#63b8ff" d="M305.85,-87.1C313.68,-87.1 321.79,-87.1 329.87,-87.1"/>
<polygon fill="#63b8ff" stroke="#63b8ff" points="329.75,-90.6 339.75,-87.1 329.75,-83.6 329.75,-90.6"/>
</a>
</g>
</g>
<!-- Node4 -->
<g id="Node000004" class="node">
<title>Node4</title>
<g id="a_Node000004"><a xlink:href="class_nuki_1_1_nuki_ble.html#ada0f3beebd95d35c122e25dd3f9eb886" target="_top" xlink:title=" ">
<polygon fill="white" stroke="#666666" points="667,-173.35 529.5,-173.35 529.5,-142.85 667,-142.85 667,-173.35"/>
<text text-anchor="start" x="537.5" y="-159.85" font-family="Helvetica,sans-Serif" font-size="10.00">Nuki::NukiBle::cmdChallAcc</text>
<text text-anchor="middle" x="598.25" y="-148.6" font-family="Helvetica,sans-Serif" font-size="10.00">StateMachine</text>
</a>
</g>
</g>
<!-- Node3&#45;&gt;Node4 -->
<g id="edge3_Node000003_Node000004" class="edge">
<title>Node3&#45;&gt;Node4</title>
<g id="a_edge3_Node000003_Node000004"><a xlink:title=" ">
<path fill="none" stroke="#63b8ff" d="M434.56,-97.09C455.7,-106.87 489.24,-121.9 519,-133.1 524.21,-135.06 529.64,-137 535.12,-138.89"/>
<polygon fill="#63b8ff" stroke="#63b8ff" points="533.61,-142.08 544.21,-141.95 535.85,-135.44 533.61,-142.08"/>
</a>
</g>
</g>
<!-- Node5 -->
<g id="Node000005" class="node">
<title>Node5</title>
<g id="a_Node000005"><a xlink:href="class_nuki_1_1_nuki_ble.html#a6e8fca90c04249660dce6cb993eb4495" target="_top" xlink:title=" ">
<polygon fill="white" stroke="#666666" points="870.5,-169.35 713.5,-169.35 713.5,-138.85 870.5,-138.85 870.5,-169.35"/>
<text text-anchor="start" x="721.5" y="-155.85" font-family="Helvetica,sans-Serif" font-size="10.00">Nuki::NukiBle::extendDisconnect</text>
<text text-anchor="middle" x="792" y="-144.6" font-family="Helvetica,sans-Serif" font-size="10.00">Timeout</text>
</a>
</g>
</g>
<!-- Node3&#45;&gt;Node5 -->
<g id="edge15_Node000003_Node000005" class="edge">
<title>Node3&#45;&gt;Node5</title>
<g id="a_edge15_Node000003_Node000005"><a xlink:title=" ">
<path fill="none" stroke="#63b8ff" d="M420.39,-97.14C435.54,-117.83 473.64,-164.7 519,-182.1 591.51,-209.91 682.42,-190.75 738.61,-173.28"/>
<polygon fill="#63b8ff" stroke="#63b8ff" points="739.47,-176.68 747.93,-170.29 737.33,-170.02 739.47,-176.68"/>
</a>
</g>
</g>
<!-- Node6 -->
<g id="Node000006" class="node">
<title>Node6</title>
<g id="a_Node000006"><a xlink:href="class_nuki_1_1_nuki_ble.html#ac7ce691d9c3e586474655d1663eb2e20" target="_top" xlink:title=" ">
<polygon fill="white" stroke="#666666" points="858.12,-78.73 725.88,-78.73 725.88,-59.48 858.12,-59.48 858.12,-78.73"/>
<text text-anchor="middle" x="792" y="-65.23" font-family="Helvetica,sans-Serif" font-size="10.00">Nuki::NukiBle::logMessage</text>
</a>
</g>
</g>
<!-- Node3&#45;&gt;Node6 -->
<g id="edge16_Node000003_Node000006" class="edge">
<title>Node3&#45;&gt;Node6</title>
<g id="a_edge16_Node000003_Node000006"><a xlink:title=" ">
<path fill="none" stroke="#63b8ff" d="M423.31,-77.03C440.78,-60.1 478.99,-26.58 519,-14.1 586.25,6.88 608.84,1.66 677.5,-14.1 710.11,-21.59 744.23,-39.73 766.44,-53.14"/>
<polygon fill="#63b8ff" stroke="#63b8ff" points="764.41,-56 774.75,-58.3 768.1,-50.06 764.41,-56"/>
</a>
</g>
</g>
<!-- Node7 -->
<g id="Node000007" class="node">
<title>Node7</title>
<g id="a_Node000007"><a xlink:href="class_nuki_1_1_nuki_ble.html#af3650133f46aeca48a5f01b95d23ab71" target="_top" xlink:title=" ">
<polygon fill="white" stroke="#666666" points="865.62,-116.73 718.38,-116.73 718.38,-97.48 865.62,-97.48 865.62,-116.73"/>
<text text-anchor="middle" x="792" y="-103.23" font-family="Helvetica,sans-Serif" font-size="10.00">Nuki::NukiBle::logMessageVar</text>
</a>
</g>
</g>
<!-- Node3&#45;&gt;Node7 -->
<g id="edge17_Node000003_Node000007" class="edge">
<title>Node3&#45;&gt;Node7</title>
<g id="a_edge17_Node000003_Node000007"><a xlink:title=" ">
<path fill="none" stroke="#63b8ff" d="M432.95,-77.03C478.18,-55.24 592.58,-8.66 677.5,-47.1 699.59,-57.1 692.77,-75.52 713.5,-88.1 716.43,-89.88 719.51,-91.49 722.69,-92.95"/>
<polygon fill="#63b8ff" stroke="#63b8ff" points="721.13,-96.09 731.72,-96.55 723.73,-89.59 721.13,-96.09"/>
</a>
</g>
</g>
<!-- Node8 -->
<g id="Node000008" class="node">
<title>Node8</title>
<g id="a_Node000008"><a xlink:href="class_nuki_1_1_nuki_ble.html#a59169a9f492793762e3c6ba39b611b07" target="_top" xlink:title=" ">
<polygon fill="white" stroke="#666666" points="670,-124.35 526.5,-124.35 526.5,-93.85 670,-93.85 670,-124.35"/>
<text text-anchor="start" x="534.5" y="-110.85" font-family="Helvetica,sans-Serif" font-size="10.00">Nuki::NukiBle::cmdChallState</text>
<text text-anchor="middle" x="598.25" y="-99.6" font-family="Helvetica,sans-Serif" font-size="10.00">Machine</text>
</a>
</g>
</g>
<!-- Node3&#45;&gt;Node8 -->
<g id="edge7_Node000003_Node000008" class="edge">
<title>Node3&#45;&gt;Node8</title>
<g id="a_edge7_Node000003_Node000008"><a xlink:title=" ">
<path fill="none" stroke="#63b8ff" d="M483.41,-95.48C493.7,-96.71 504.37,-97.99 514.88,-99.25"/>
<polygon fill="#63b8ff" stroke="#63b8ff" points="514.34,-102.71 524.68,-100.42 515.17,-95.76 514.34,-102.71"/>
</a>
</g>
</g>
<!-- Node9 -->
<g id="Node000009" class="node">
<title>Node9</title>
<g id="a_Node000009"><a xlink:href="class_nuki_1_1_nuki_ble.html#ad135bb1455665decfddff67772c1d411" target="_top" xlink:title=" ">
<polygon fill="white" stroke="#666666" points="677.5,-75.73 519,-75.73 519,-56.48 677.5,-56.48 677.5,-75.73"/>
<text text-anchor="middle" x="598.25" y="-62.23" font-family="Helvetica,sans-Serif" font-size="10.00">Nuki::NukiBle::cmdStateMachine</text>
</a>
</g>
</g>
<!-- Node3&#45;&gt;Node9 -->
<g id="edge11_Node000003_Node000009" class="edge">
<title>Node3&#45;&gt;Node9</title>
<g id="a_edge11_Node000003_Node000009"><a xlink:title=" ">
<path fill="none" stroke="#63b8ff" d="M483.41,-79.1C491.28,-78.21 499.37,-77.28 507.44,-76.36"/>
<polygon fill="#63b8ff" stroke="#63b8ff" points="507.76,-79.85 517.3,-75.23 506.97,-72.89 507.76,-79.85"/>
</a>
</g>
</g>
<!-- Node4&#45;&gt;Node5 -->
<g id="edge4_Node000004_Node000005" class="edge">
<title>Node4&#45;&gt;Node5</title>
<g id="a_edge4_Node000004_Node000005"><a xlink:title=" ">
<path fill="none" stroke="#63b8ff" d="M667.39,-156.68C678.54,-156.45 690.22,-156.2 701.78,-155.96"/>
<polygon fill="#63b8ff" stroke="#63b8ff" points="701.83,-159.46 711.76,-155.76 701.69,-152.46 701.83,-159.46"/>
</a>
</g>
</g>
<!-- Node4&#45;&gt;Node6 -->
<g id="edge5_Node000004_Node000006" class="edge">
<title>Node4&#45;&gt;Node6</title>
<g id="a_edge5_Node000004_Node000006"><a xlink:title=" ">
<path fill="none" stroke="#63b8ff" d="M660.72,-142.38C666.63,-139.73 672.33,-136.66 677.5,-133.1 698.6,-118.58 691.91,-101.89 713.5,-88.1 716.09,-86.45 718.82,-84.94 721.63,-83.56"/>
<polygon fill="#63b8ff" stroke="#63b8ff" points="722.91,-86.82 730.76,-79.7 720.19,-80.37 722.91,-86.82"/>
</a>
</g>
</g>
<!-- Node4&#45;&gt;Node7 -->
<g id="edge6_Node000004_Node000007" class="edge">
<title>Node4&#45;&gt;Node7</title>
<g id="a_edge6_Node000004_Node000007"><a xlink:title=" ">
<path fill="none" stroke="#63b8ff" d="M658.35,-142.38C685.19,-135.25 716.56,-126.9 742.05,-120.12"/>
<polygon fill="#63b8ff" stroke="#63b8ff" points="742.72,-123.56 751.49,-117.61 740.93,-116.8 742.72,-123.56"/>
</a>
</g>
</g>
<!-- Node8&#45;&gt;Node5 -->
<g id="edge8_Node000008_Node000005" class="edge">
<title>Node8&#45;&gt;Node5</title>
<g id="a_edge8_Node000008_Node000005"><a xlink:title=" ">
<path fill="none" stroke="#63b8ff" d="M666.31,-124.84C681.35,-128.37 697.43,-132.14 712.87,-135.77"/>
<polygon fill="#63b8ff" stroke="#63b8ff" points="711.96,-139.15 722.5,-138.03 713.56,-132.33 711.96,-139.15"/>
</a>
</g>
</g>
<!-- Node8&#45;&gt;Node6 -->
<g id="edge9_Node000008_Node000006" class="edge">
<title>Node8&#45;&gt;Node6</title>
<g id="a_edge9_Node000008_Node000006"><a xlink:title=" ">
<path fill="none" stroke="#63b8ff" d="M670.38,-94.26C690.51,-90.06 712.21,-85.54 731.58,-81.5"/>
<polygon fill="#63b8ff" stroke="#63b8ff" points="732.13,-84.96 741.2,-79.49 730.7,-78.11 732.13,-84.96"/>
</a>
</g>
</g>
<!-- Node8&#45;&gt;Node7 -->
<g id="edge10_Node000008_Node000007" class="edge">
<title>Node8&#45;&gt;Node7</title>
<g id="a_edge10_Node000008_Node000007"><a xlink:title=" ">
<path fill="none" stroke="#63b8ff" d="M670.38,-108.36C682.17,-108.24 694.5,-108.11 706.58,-107.98"/>
<polygon fill="#63b8ff" stroke="#63b8ff" points="706.59,-111.48 716.55,-107.88 706.51,-104.48 706.59,-111.48"/>
</a>
</g>
</g>
<!-- Node9&#45;&gt;Node5 -->
<g id="edge12_Node000009_Node000005" class="edge">
<title>Node9&#45;&gt;Node5</title>
<g id="a_edge12_Node000009_Node000005"><a xlink:title=" ">
<path fill="none" stroke="#63b8ff" d="M658.09,-76.18C664.89,-78.55 671.52,-81.48 677.5,-85.1 698.25,-97.66 693.46,-112.44 713.5,-126.1 717.6,-128.9 722.01,-131.45 726.58,-133.77"/>
<polygon fill="#63b8ff" stroke="#63b8ff" points="724.83,-136.82 735.37,-137.86 727.78,-130.47 724.83,-136.82"/>
</a>
</g>
</g>
<!-- Node9&#45;&gt;Node6 -->
<g id="edge13_Node000009_Node000006" class="edge">
<title>Node9&#45;&gt;Node6</title>
<g id="a_edge13_Node000009_Node000006"><a xlink:title=" ">
<path fill="none" stroke="#63b8ff" d="M677.8,-67.33C689.79,-67.52 702.15,-67.71 714.11,-67.9"/>
<polygon fill="#63b8ff" stroke="#63b8ff" points="713.85,-71.4 723.91,-68.05 713.96,-64.4 713.85,-71.4"/>
</a>
</g>
</g>
<!-- Node9&#45;&gt;Node7 -->
<g id="edge14_Node000009_Node000007" class="edge">
<title>Node9&#45;&gt;Node7</title>
<g id="a_edge14_Node000009_Node000007"><a xlink:title=" ">
<path fill="none" stroke="#63b8ff" d="M646.16,-76.13C672.27,-81.72 705.02,-88.72 732.76,-94.65"/>
<polygon fill="#63b8ff" stroke="#63b8ff" points="731.92,-98.05 742.43,-96.72 733.39,-91.2 731.92,-98.05"/>
</a>
</g>
</g>
</g>
</svg>

<g id="navigator" transform="translate(0 0)" fill="#404254">
  <rect fill="#f2f5e9" fill-opacity="0.5" stroke="#606060" stroke-width=".5" x="0" y="0" width="60" height="60"/>
  <use id="zoomplus" xlink:href="#zoomPlus" x="17" y="9" onmousedown="handleZoom(evt,'in')"/>
  <use id="zoomminus" xlink:href="#zoomMin" x="42" y="9" onmousedown="handleZoom(evt,'out')"/>
  <use id="reset" xlink:href="#resetDef" x="30" y="36" onmousedown="handleReset()"/>
   <use id="arrowup" xlink:href="#arrowUp" x="0" y="0" onmousedown="handlePan(0,-1)"/>
  <use id="arrowright" xlink:href="#arrowRight" x="0" y="0" onmousedown="handlePan(1,0)"/>
  <use id="arrowdown" xlink:href="#arrowDown" x="0" y="0" onmousedown="handlePan(0,1)"/>
  <use id="arrowleft" xlink:href="#arrowLeft" x="0" y="0" onmousedown="handlePan(-1,0)"/>
</g>
<svg viewBox="0 0 15 15" width="100%" height="30px" preserveAspectRatio="xMaxYMin meet">
 <g id="arrow_out" transform="scale(0.3 0.3)">
  <a xlink:href="class_nuki_opener_1_1_nuki_opener_ae005fd4fdfaeca86d623e71f9dc16141_cgraph_org.svg" target="_base">
   <rect id="button" ry="5" rx="5" y="6" x="6" height="38" width="38"
        fill="#f2f5e9" fill-opacity="0.5" stroke="#606060" stroke-width="1.0"/>
   <path id="arrow"
     d="M 11.500037,31.436501 C 11.940474,20.09759 22.043105,11.32322 32.158766,21.979434 L 37.068811,17.246167 C 37.068811,17.246167 37.088388,32 37.088388,32 L 22.160133,31.978069 C 22.160133,31.978069 26.997745,27.140456 26.997745,27.140456 C 18.528582,18.264221 13.291696,25.230495 11.500037,31.436501 z"
     style="fill:#404040;"/>
  </a>
 </g>
</svg>

<style type='text/css'>
<![CDATA[
[data-mouse-over-selected='false'] { opacity: 0.7; }
[data-mouse-over-selected='true']  { opacity: 1.0; }
]]>
</style>
<script type="application/ecmascript"><![CDATA[
document.addEventListener('DOMContentLoaded', (event) => {
  highlightEdges();
  highlightAdjacentNodes();
});
]]></script>
</svg>
