<?xml version="1.0" encoding="UTF-8" standalone="no"?>
<!DOCTYPE svg PUBLIC "-//W3C//DTD SVG 1.1//EN"
 "http://www.w3.org/Graphics/SVG/1.1/DTD/svg11.dtd">
<!-- Generated by graphviz version 8.0.1 (20230327.1645)
 -->
<!-- Title: Nuki::NukiBle::verifySecurityPin Pages: 1 -->
<svg width="534pt" height="172pt"
 viewBox="0.00 0.00 534.00 172.00" xmlns="http://www.w3.org/2000/svg" xmlns:xlink="http://www.w3.org/1999/xlink">
<g id="graph0" class="graph" transform="scale(1 1) rotate(0) translate(4 168)">
<title>Nuki::NukiBle::verifySecurityPin</title>
<!-- Node1 -->
<g id="node1" class="node">
<title>Node1</title>
<g id="a_node1"><a xlink:title="Send the verify pincode command via BLE to the lock. This command uses the earlier by saveSecurityPin...">
<polygon fill="#999999" stroke="#666666" points="153,-88.5 0,-88.5 0,-69.5 153,-69.5 153,-88.5"/>
<text text-anchor="middle" x="76.5" y="-76.5" font-family="Helvetica,sans-Serif" font-size="10.00">Nuki::NukiBle::verifySecurityPin</text>
</a>
</g>
</g>
<!-- Node2 -->
<g id="node2" class="node">
<title>Node2</title>
<g id="a_node2"><a xlink:href="class_nuki_1_1_nuki_ble.html#af1f1e299e8d97e053bba80e92ba285d6" target="_top" xlink:title=" ">
<polygon fill="white" stroke="#666666" points="331,-88.5 189,-88.5 189,-69.5 331,-69.5 331,-88.5"/>
<text text-anchor="middle" x="260" y="-76.5" font-family="Helvetica,sans-Serif" font-size="10.00">Nuki::NukiBle::executeAction</text>
</a>
</g>
</g>
<!-- Node1&#45;&gt;Node2 -->
<g id="edge1" class="edge">
<title>Node1&#45;&gt;Node2</title>
<path fill="none" stroke="#63b8ff" d="M153.42,-79C161.43,-79 169.61,-79 177.68,-79"/>
<polygon fill="#63b8ff" stroke="#63b8ff" points="177.6,-82.5 187.6,-79 177.6,-75.5 177.6,-82.5"/>
</g>
<!-- Node3 -->
<g id="node3" class="node">
<title>Node3</title>
<g id="a_node3"><a xlink:href="class_nuki_1_1_nuki_ble.html#ada0f3beebd95d35c122e25dd3f9eb886" target="_top" xlink:title=" ">
<polygon fill="white" stroke="#666666" points="515.5,-164 377.5,-164 377.5,-134 515.5,-134 515.5,-164"/>
<text text-anchor="start" x="385.5" y="-152" font-family="Helvetica,sans-Serif" font-size="10.00">Nuki::NukiBle::cmdChallAcc</text>
<text text-anchor="middle" x="446.5" y="-141" font-family="Helvetica,sans-Serif" font-size="10.00">StateMachine</text>
</a>
</g>
</g>
<!-- Node2&#45;&gt;Node3 -->
<g id="edge2" class="edge">
<title>Node2&#45;&gt;Node3</title>
<path fill="none" stroke="#63b8ff" d="M281.83,-88.87C303.01,-98.71 336.88,-113.9 367,-125 371.76,-126.76 376.72,-128.49 381.73,-130.17"/>
<polygon fill="#63b8ff" stroke="#63b8ff" points="380.43,-133.75 391.02,-133.54 382.61,-127.1 380.43,-133.75"/>
</g>
<!-- Node4 -->
<g id="node4" class="node">
<title>Node4</title>
<g id="a_node4"><a xlink:href="class_nuki_1_1_nuki_ble.html#a59169a9f492793762e3c6ba39b611b07" target="_top" xlink:title=" ">
<polygon fill="white" stroke="#666666" points="518.5,-116 374.5,-116 374.5,-86 518.5,-86 518.5,-116"/>
<text text-anchor="start" x="382.5" y="-104" font-family="Helvetica,sans-Serif" font-size="10.00">Nuki::NukiBle::cmdChallState</text>
<text text-anchor="middle" x="446.5" y="-93" font-family="Helvetica,sans-Serif" font-size="10.00">Machine</text>
</a>
</g>
</g>
<!-- Node2&#45;&gt;Node4 -->
<g id="edge3" class="edge">
<title>Node2&#45;&gt;Node4</title>
<path fill="none" stroke="#63b8ff" d="M331.28,-87.38C341.82,-88.64 352.76,-89.94 363.52,-91.22"/>
<polygon fill="#63b8ff" stroke="#63b8ff" points="362.85,-94.79 373.19,-92.5 363.68,-87.84 362.85,-94.79"/>
</g>
<!-- Node5 -->
<g id="node5" class="node">
<title>Node5</title>
<g id="a_node5"><a xlink:href="class_nuki_1_1_nuki_ble.html#ad135bb1455665decfddff67772c1d411" target="_top" xlink:title=" ">
<polygon fill="white" stroke="#666666" points="526,-67.5 367,-67.5 367,-48.5 526,-48.5 526,-67.5"/>
<text text-anchor="middle" x="446.5" y="-55.5" font-family="Helvetica,sans-Serif" font-size="10.00">Nuki::NukiBle::cmdStateMachine</text>
</a>
</g>
</g>
<!-- Node2&#45;&gt;Node5 -->
<g id="edge4" class="edge">
<title>Node2&#45;&gt;Node5</title>
<path fill="none" stroke="#63b8ff" d="M331.28,-71C339.35,-70.08 347.66,-69.14 355.94,-68.19"/>
<polygon fill="#63b8ff" stroke="#63b8ff" points="356.25,-71.57 365.79,-66.96 355.46,-64.61 356.25,-71.57"/>
</g>
<!-- Node6 -->
<g id="node6" class="node">
<title>Node6</title>
<g id="a_node6"><a xlink:href="class_nuki_1_1_nuki_ble.html#aed01f10d1ffa769f0f6fadc0d06d328e" target="_top" xlink:title=" ">
<polygon fill="white" stroke="#666666" points="522.5,-30 370.5,-30 370.5,0 522.5,0 522.5,-30"/>
<text text-anchor="start" x="378.5" y="-18" font-family="Helvetica,sans-Serif" font-size="10.00">Nuki::NukiBle::extendDisonnect</text>
<text text-anchor="middle" x="446.5" y="-7" font-family="Helvetica,sans-Serif" font-size="10.00">Timeout</text>
</a>
</g>
</g>
<!-- Node2&#45;&gt;Node6 -->
<g id="edge5" class="edge">
<title>Node2&#45;&gt;Node6</title>
<path fill="none" stroke="#63b8ff" d="M287.02,-69.06C308.41,-60.98 339.55,-49.42 367,-40 373.13,-37.9 379.54,-35.76 385.95,-33.66"/>
<polygon fill="#63b8ff" stroke="#63b8ff" points="386.55,-36.82 394.98,-30.4 384.39,-30.16 386.55,-36.82"/>
</g>
</g>
</svg>
