<?xml version="1.0" encoding="UTF-8" standalone="no"?>
<!DOCTYPE svg PUBLIC "-//W3C//DTD SVG 1.1//EN"
 "http://www.w3.org/Graphics/SVG/1.1/DTD/svg11.dtd">
<!-- Generated by graphviz version 12.2.1 (20241206.2353)
 -->
<!-- Title: Nuki::NukiBle::NukiBle Pages: 1 -->
<svg width="282pt" height="88pt"
 viewBox="0.00 0.00 282.25 87.50" xmlns="http://www.w3.org/2000/svg" xmlns:xlink="http://www.w3.org/1999/xlink">
<g id="graph0" class="graph" transform="scale(1 1) rotate(0) translate(4 83.5)">
<title>Nuki::NukiBle::NukiBle</title>
<!-- Node1 -->
<g id="Node000001" class="node">
<title>Node1</title>
<g id="a_Node000001"><a xlink:title=" ">
<polygon fill="#999999" stroke="#666666" points="274.25,-48.88 160,-48.88 160,-29.62 274.25,-29.62 274.25,-48.88"/>
<text text-anchor="middle" x="217.12" y="-35.38" font-family="Helvetica,sans-Serif" font-size="10.00">Nuki::NukiBle::NukiBle</text>
</a>
</g>
</g>
<!-- Node2 -->
<g id="Node000002" class="node">
<title>Node2</title>
<g id="a_Node000002"><a xlink:href="class_nuki_lock_1_1_nuki_lock.html#a98d6daa6b2e9adb789bdbfdea5106ff9" target="_top" xlink:title=" ">
<polygon fill="white" stroke="#666666" points="114.25,-79.5 9.75,-79.5 9.75,-49 114.25,-49 114.25,-79.5"/>
<text text-anchor="start" x="17.75" y="-66" font-family="Helvetica,sans-Serif" font-size="10.00">NukiLock::NukiLock</text>
<text text-anchor="middle" x="62" y="-54.75" font-family="Helvetica,sans-Serif" font-size="10.00">::NukiLock</text>
</a>
</g>
</g>
<!-- Node1&#45;&gt;Node2 -->
<g id="edge1_Node000001_Node000002" class="edge">
<title>Node1&#45;&gt;Node2</title>
<g id="a_edge1_Node000001_Node000002"><a xlink:title=" ">
<path fill="none" stroke="#63b8ff" d="M148.33,-50.32C136.99,-52.17 125.39,-54.06 114.54,-55.84"/>
<polygon fill="#63b8ff" stroke="#63b8ff" points="148.74,-53.8 158.05,-48.73 147.61,-46.89 148.74,-53.8"/>
</a>
</g>
</g>
<!-- Node3 -->
<g id="Node000003" class="node">
<title>Node3</title>
<g id="a_Node000003"><a xlink:href="class_nuki_opener_1_1_nuki_opener.html#a9d431a0561e1ed660025fb1176c2dfb2" target="_top" xlink:title=" ">
<polygon fill="white" stroke="#666666" points="124,-30.5 0,-30.5 0,0 124,0 124,-30.5"/>
<text text-anchor="start" x="8" y="-17" font-family="Helvetica,sans-Serif" font-size="10.00">NukiOpener::NukiOpener</text>
<text text-anchor="middle" x="62" y="-5.75" font-family="Helvetica,sans-Serif" font-size="10.00">::NukiOpener</text>
</a>
</g>
</g>
<!-- Node1&#45;&gt;Node3 -->
<g id="edge2_Node000001_Node000003" class="edge">
<title>Node1&#45;&gt;Node3</title>
<g id="a_edge2_Node000001_Node000003"><a xlink:title=" ">
<path fill="none" stroke="#63b8ff" d="M148.41,-28.64C140.45,-27.39 132.37,-26.12 124.5,-24.89"/>
<polygon fill="#63b8ff" stroke="#63b8ff" points="147.63,-32.06 158.05,-30.15 148.71,-25.14 147.63,-32.06"/>
</a>
</g>
</g>
</g>
</svg>
