<?xml version="1.0" encoding="UTF-8" standalone="no"?>
<!DOCTYPE svg PUBLIC "-//W3C//DTD SVG 1.1//EN"
 "http://www.w3.org/Graphics/SVG/1.1/DTD/svg11.dtd">
<!-- Generated by graphviz version 8.0.1 (20230327.1645)
 -->
<!-- Title: Nuki::NukiBle::requestCalibration Pages: 1 -->
<svg width="539pt" height="172pt"
 viewBox="0.00 0.00 539.00 172.00" xmlns="http://www.w3.org/2000/svg" xmlns:xlink="http://www.w3.org/1999/xlink">
<g id="graph0" class="graph" transform="scale(1 1) rotate(0) translate(4 168)">
<title>Nuki::NukiBle::requestCalibration</title>
<!-- Node1 -->
<g id="node1" class="node">
<title>Node1</title>
<g id="a_node1"><a xlink:title="Sends an calibration (mechanical) request to the lock via BLE.">
<polygon fill="#999999" stroke="#666666" points="158,-88.5 0,-88.5 0,-69.5 158,-69.5 158,-88.5"/>
<text text-anchor="middle" x="79" y="-76.5" font-family="Helvetica,sans-Serif" font-size="10.00">Nuki::NukiBle::requestCalibration</text>
</a>
</g>
</g>
<!-- Node2 -->
<g id="node2" class="node">
<title>Node2</title>
<g id="a_node2"><a xlink:href="class_nuki_1_1_nuki_ble.html#af1f1e299e8d97e053bba80e92ba285d6" target="_top" xlink:title=" ">
<polygon fill="white" stroke="#666666" points="336,-88.5 194,-88.5 194,-69.5 336,-69.5 336,-88.5"/>
<text text-anchor="middle" x="265" y="-76.5" font-family="Helvetica,sans-Serif" font-size="10.00">Nuki::NukiBle::executeAction</text>
</a>
</g>
</g>
<!-- Node1&#45;&gt;Node2 -->
<g id="edge1" class="edge">
<title>Node1&#45;&gt;Node2</title>
<path fill="none" stroke="#63b8ff" d="M158.3,-79C166.37,-79 174.58,-79 182.68,-79"/>
<polygon fill="#63b8ff" stroke="#63b8ff" points="182.64,-82.5 192.64,-79 182.64,-75.5 182.64,-82.5"/>
</g>
<!-- Node3 -->
<g id="node3" class="node">
<title>Node3</title>
<g id="a_node3"><a xlink:href="class_nuki_1_1_nuki_ble.html#ada0f3beebd95d35c122e25dd3f9eb886" target="_top" xlink:title=" ">
<polygon fill="white" stroke="#666666" points="520.5,-164 382.5,-164 382.5,-134 520.5,-134 520.5,-164"/>
<text text-anchor="start" x="390.5" y="-152" font-family="Helvetica,sans-Serif" font-size="10.00">Nuki::NukiBle::cmdChallAcc</text>
<text text-anchor="middle" x="451.5" y="-141" font-family="Helvetica,sans-Serif" font-size="10.00">StateMachine</text>
</a>
</g>
</g>
<!-- Node2&#45;&gt;Node3 -->
<g id="edge2" class="edge">
<title>Node2&#45;&gt;Node3</title>
<path fill="none" stroke="#63b8ff" d="M286.83,-88.87C308.01,-98.71 341.88,-113.9 372,-125 376.76,-126.76 381.72,-128.49 386.73,-130.17"/>
<polygon fill="#63b8ff" stroke="#63b8ff" points="385.43,-133.75 396.02,-133.54 387.61,-127.1 385.43,-133.75"/>
</g>
<!-- Node4 -->
<g id="node4" class="node">
<title>Node4</title>
<g id="a_node4"><a xlink:href="class_nuki_1_1_nuki_ble.html#a59169a9f492793762e3c6ba39b611b07" target="_top" xlink:title=" ">
<polygon fill="white" stroke="#666666" points="523.5,-116 379.5,-116 379.5,-86 523.5,-86 523.5,-116"/>
<text text-anchor="start" x="387.5" y="-104" font-family="Helvetica,sans-Serif" font-size="10.00">Nuki::NukiBle::cmdChallState</text>
<text text-anchor="middle" x="451.5" y="-93" font-family="Helvetica,sans-Serif" font-size="10.00">Machine</text>
</a>
</g>
</g>
<!-- Node2&#45;&gt;Node4 -->
<g id="edge3" class="edge">
<title>Node2&#45;&gt;Node4</title>
<path fill="none" stroke="#63b8ff" d="M336.28,-87.38C346.82,-88.64 357.76,-89.94 368.52,-91.22"/>
<polygon fill="#63b8ff" stroke="#63b8ff" points="367.85,-94.79 378.19,-92.5 368.68,-87.84 367.85,-94.79"/>
</g>
<!-- Node5 -->
<g id="node5" class="node">
<title>Node5</title>
<g id="a_node5"><a xlink:href="class_nuki_1_1_nuki_ble.html#ad135bb1455665decfddff67772c1d411" target="_top" xlink:title=" ">
<polygon fill="white" stroke="#666666" points="531,-67.5 372,-67.5 372,-48.5 531,-48.5 531,-67.5"/>
<text text-anchor="middle" x="451.5" y="-55.5" font-family="Helvetica,sans-Serif" font-size="10.00">Nuki::NukiBle::cmdStateMachine</text>
</a>
</g>
</g>
<!-- Node2&#45;&gt;Node5 -->
<g id="edge4" class="edge">
<title>Node2&#45;&gt;Node5</title>
<path fill="none" stroke="#63b8ff" d="M336.28,-71C344.35,-70.08 352.66,-69.14 360.94,-68.19"/>
<polygon fill="#63b8ff" stroke="#63b8ff" points="361.25,-71.57 370.79,-66.96 360.46,-64.61 361.25,-71.57"/>
</g>
<!-- Node6 -->
<g id="node6" class="node">
<title>Node6</title>
<g id="a_node6"><a xlink:href="class_nuki_1_1_nuki_ble.html#aed01f10d1ffa769f0f6fadc0d06d328e" target="_top" xlink:title=" ">
<polygon fill="white" stroke="#666666" points="527.5,-30 375.5,-30 375.5,0 527.5,0 527.5,-30"/>
<text text-anchor="start" x="383.5" y="-18" font-family="Helvetica,sans-Serif" font-size="10.00">Nuki::NukiBle::extendDisonnect</text>
<text text-anchor="middle" x="451.5" y="-7" font-family="Helvetica,sans-Serif" font-size="10.00">Timeout</text>
</a>
</g>
</g>
<!-- Node2&#45;&gt;Node6 -->
<g id="edge5" class="edge">
<title>Node2&#45;&gt;Node6</title>
<path fill="none" stroke="#63b8ff" d="M292.02,-69.06C313.41,-60.98 344.55,-49.42 372,-40 378.13,-37.9 384.54,-35.76 390.95,-33.66"/>
<polygon fill="#63b8ff" stroke="#63b8ff" points="391.55,-36.82 399.98,-30.4 389.39,-30.16 391.55,-36.82"/>
</g>
</g>
</svg>
