<?xml version="1.0" encoding="UTF-8" standalone="no"?>
<!DOCTYPE svg PUBLIC "-//W3C//DTD SVG 1.1//EN"
 "http://www.w3.org/Graphics/SVG/1.1/DTD/svg11.dtd">
<!-- Generated by graphviz version 12.2.1 (20241206.2353)
 -->
<!-- Title: Nuki::NukiBle Pages: 1 -->
<svg width="254pt" height="138pt"
 viewBox="0.00 0.00 254.25 137.75" xmlns="http://www.w3.org/2000/svg" xmlns:xlink="http://www.w3.org/1999/xlink">
<g id="graph0" class="graph" transform="scale(1 1) rotate(0) translate(4 133.75)">
<title>Nuki::NukiBle</title>
<!-- Node1 -->
<g id="Node000001" class="node">
<title>Node1</title>
<g id="a_Node000001"><a xlink:title=" ">
<polygon fill="#999999" stroke="#666666" points="155.88,-74.5 80.62,-74.5 80.62,-55.25 155.88,-55.25 155.88,-74.5"/>
<text text-anchor="middle" x="118.25" y="-61" font-family="Helvetica,sans-Serif" font-size="10.00">Nuki::NukiBle</text>
</a>
</g>
</g>
<!-- Node4 -->
<g id="Node000004" class="node">
<title>Node4</title>
<g id="a_Node000004"><a xlink:href="class_nuki_lock_1_1_nuki_lock.html" target="_top" xlink:title=" ">
<polygon fill="white" stroke="#666666" points="104.5,-19.25 0,-19.25 0,0 104.5,0 104.5,-19.25"/>
<text text-anchor="middle" x="52.25" y="-5.75" font-family="Helvetica,sans-Serif" font-size="10.00">NukiLock::NukiLock</text>
</a>
</g>
</g>
<!-- Node1&#45;&gt;Node4 -->
<g id="edge3_Node000001_Node000004" class="edge">
<title>Node1&#45;&gt;Node4</title>
<g id="a_edge3_Node000001_Node000004"><a xlink:title=" ">
<path fill="none" stroke="#63b8ff" d="M98.16,-47.66C86.7,-38.42 72.77,-27.18 63.28,-19.52"/>
<polygon fill="#63b8ff" stroke="#63b8ff" points="95.9,-50.34 105.88,-53.89 100.29,-44.89 95.9,-50.34"/>
</a>
</g>
</g>
<!-- Node5 -->
<g id="Node000005" class="node">
<title>Node5</title>
<g id="a_Node000005"><a xlink:href="class_nuki_opener_1_1_nuki_opener.html" target="_top" xlink:title=" ">
<polygon fill="white" stroke="#666666" points="246.25,-19.25 122.25,-19.25 122.25,0 246.25,0 246.25,-19.25"/>
<text text-anchor="middle" x="184.25" y="-5.75" font-family="Helvetica,sans-Serif" font-size="10.00">NukiOpener::NukiOpener</text>
</a>
</g>
</g>
<!-- Node1&#45;&gt;Node5 -->
<g id="edge4_Node000001_Node000005" class="edge">
<title>Node1&#45;&gt;Node5</title>
<g id="a_edge4_Node000001_Node000005"><a xlink:title=" ">
<path fill="none" stroke="#63b8ff" d="M138.34,-47.66C149.8,-38.42 163.73,-27.18 173.22,-19.52"/>
<polygon fill="#63b8ff" stroke="#63b8ff" points="136.21,-44.89 130.62,-53.89 140.6,-50.34 136.21,-44.89"/>
</a>
</g>
</g>
<!-- Node2 -->
<g id="Node000002" class="node">
<title>Node2</title>
<g id="a_Node000002"><a xlink:title=" ">
<polygon fill="white" stroke="#666666" points="105.38,-129.75 3.12,-129.75 3.12,-110.5 105.38,-110.5 105.38,-129.75"/>
<text text-anchor="middle" x="54.25" y="-116.25" font-family="Helvetica,sans-Serif" font-size="10.00">BLEClientCallbacks</text>
</a>
</g>
</g>
<!-- Node2&#45;&gt;Node1 -->
<g id="edge1_Node000001_Node000002" class="edge">
<title>Node2&#45;&gt;Node1</title>
<g id="a_edge1_Node000001_Node000002"><a xlink:title=" ">
<path fill="none" stroke="#63b8ff" d="M73.73,-102.91C84.85,-93.67 98.35,-82.43 107.55,-74.77"/>
<polygon fill="#63b8ff" stroke="#63b8ff" points="71.72,-100.04 66.27,-109.12 76.2,-105.42 71.72,-100.04"/>
</a>
</g>
</g>
<!-- Node3 -->
<g id="Node000003" class="node">
<title>Node3</title>
<g id="a_Node000003"><a xlink:title=" ">
<polygon fill="white" stroke="#666666" points="240.88,-129.75 123.62,-129.75 123.62,-110.5 240.88,-110.5 240.88,-129.75"/>
<text text-anchor="middle" x="182.25" y="-116.25" font-family="Helvetica,sans-Serif" font-size="10.00">BleScanner::Subscriber</text>
</a>
</g>
</g>
<!-- Node3&#45;&gt;Node1 -->
<g id="edge2_Node000001_Node000003" class="edge">
<title>Node3&#45;&gt;Node1</title>
<g id="a_edge2_Node000001_Node000003"><a xlink:title=" ">
<path fill="none" stroke="#63b8ff" d="M162.77,-102.91C151.65,-93.67 138.15,-82.43 128.95,-74.77"/>
<polygon fill="#63b8ff" stroke="#63b8ff" points="160.3,-105.42 170.23,-109.12 164.78,-100.04 160.3,-105.42"/>
</a>
</g>
</g>
</g>
</svg>
