<?xml version="1.0" encoding="UTF-8" standalone="no"?>
<!DOCTYPE svg PUBLIC "-//W3C//DTD SVG 1.1//EN"
 "http://www.w3.org/Graphics/SVG/1.1/DTD/svg11.dtd">
<!-- Generated by graphviz version 7.0.3 (20221126.0506)
 -->
<!-- Title: Nuki::NukiBle::pairNuki Pages: 1 -->
<svg width="312pt" height="76pt"
 viewBox="0.00 0.00 312.00 75.50" xmlns="http://www.w3.org/2000/svg" xmlns:xlink="http://www.w3.org/1999/xlink">
<g id="graph0" class="graph" transform="scale(1 1) rotate(0) translate(4 71.5)">
<title>Nuki::NukiBle::pairNuki</title>
<!-- Node1 -->
<g id="node1" class="node">
<title>Node1</title>
<g id="a_node1"><a xlink:title="Checks if credentials are stored in preferences, if not initiate pairing.">
<polygon fill="#999999" stroke="#666666" points="116,-45.5 0,-45.5 0,-26.5 116,-26.5 116,-45.5"/>
<text text-anchor="middle" x="58" y="-33.5" font-family="Helvetica,sans-Serif" font-size="10.00">Nuki::NukiBle::pairNuki</text>
</a>
</g>
</g>
<!-- Node2 -->
<g id="node2" class="node">
<title>Node2</title>
<g id="a_node2"><a xlink:href="class_nuki_1_1_nuki_ble.html#a9b93a592c1d9ee5a250d745f8f5381fb" target="_top" xlink:title=" ">
<polygon fill="white" stroke="#666666" points="292.5,-67.5 163.5,-67.5 163.5,-48.5 292.5,-48.5 292.5,-67.5"/>
<text text-anchor="middle" x="228" y="-55.5" font-family="Helvetica,sans-Serif" font-size="10.00">Nuki::NukiBle::connectBle</text>
</a>
</g>
</g>
<!-- Node1&#45;&gt;Node2 -->
<g id="edge1" class="edge">
<title>Node1&#45;&gt;Node2</title>
<path fill="none" stroke="#63b8ff" d="M116.35,-43.51C127.8,-45.01 139.99,-46.61 151.94,-48.17"/>
<polygon fill="#63b8ff" stroke="#63b8ff" points="151.41,-51.63 161.78,-49.46 152.32,-44.69 151.41,-51.63"/>
</g>
<!-- Node3 -->
<g id="node3" class="node">
<title>Node3</title>
<g id="a_node3"><a xlink:href="class_nuki_1_1_nuki_ble.html#aed01f10d1ffa769f0f6fadc0d06d328e" target="_top" xlink:title=" ">
<polygon fill="white" stroke="#666666" points="304,-30 152,-30 152,0 304,0 304,-30"/>
<text text-anchor="start" x="160" y="-18" font-family="Helvetica,sans-Serif" font-size="10.00">Nuki::NukiBle::extendDisonnect</text>
<text text-anchor="middle" x="228" y="-7" font-family="Helvetica,sans-Serif" font-size="10.00">Timeout</text>
</a>
</g>
</g>
<!-- Node1&#45;&gt;Node3 -->
<g id="edge2" class="edge">
<title>Node1&#45;&gt;Node3</title>
<path fill="none" stroke="#63b8ff" d="M116.35,-28.83C124.19,-27.85 132.38,-26.83 140.59,-25.8"/>
<polygon fill="#63b8ff" stroke="#63b8ff" points="140.8,-29.3 150.29,-24.59 139.93,-22.36 140.8,-29.3"/>
</g>
</g>
</svg>
