<?xml version="1.0" encoding="UTF-8" standalone="no"?>
<!DOCTYPE svg PUBLIC "-//W3C//DTD SVG 1.1//EN"
 "http://www.w3.org/Graphics/SVG/1.1/DTD/svg11.dtd">
<!-- Generated by graphviz version 9.0.0 (20230911.1827)
 -->
<!-- Title: Nuki::NukiBle::pairNuki Pages: 1 -->
<svg width="312pt" height="76pt"
 viewBox="0.00 0.00 311.50 75.88" xmlns="http://www.w3.org/2000/svg" xmlns:xlink="http://www.w3.org/1999/xlink">
<g id="graph0" class="graph" transform="scale(1 1) rotate(0) translate(4 71.88)">
<title>Nuki::NukiBle::pairNuki</title>
<!-- Node1 -->
<g id="Node000001" class="node">
<title>Node1</title>
<g id="a_Node000001"><a xlink:title="Checks if credentials are stored in preferences, if not initiate pairing.">
<polygon fill="#999999" stroke="#666666" points="115.75,-45.88 0,-45.88 0,-26.62 115.75,-26.62 115.75,-45.88"/>
<text text-anchor="middle" x="57.88" y="-32.38" font-family="Helvetica,sans-Serif" font-size="10.00">Nuki::NukiBle::pairNuki</text>
</a>
</g>
</g>
<!-- Node2 -->
<g id="Node000002" class="node">
<title>Node2</title>
<g id="a_Node000002"><a xlink:href="class_nuki_1_1_nuki_ble.html#a9b93a592c1d9ee5a250d745f8f5381fb" target="_top" xlink:title=" ">
<polygon fill="white" stroke="#666666" points="291.88,-67.88 163.38,-67.88 163.38,-48.62 291.88,-48.62 291.88,-67.88"/>
<text text-anchor="middle" x="227.62" y="-54.38" font-family="Helvetica,sans-Serif" font-size="10.00">Nuki::NukiBle::connectBle</text>
</a>
</g>
</g>
<!-- Node1&#45;&gt;Node2 -->
<g id="edge1_Node000001_Node000002" class="edge">
<title>Node1&#45;&gt;Node2</title>
<g id="a_edge1_Node000001_Node000002"><a xlink:title=" ">
<path fill="none" stroke="#63b8ff" d="M116.14,-43.76C127.57,-45.26 139.75,-46.86 151.67,-48.42"/>
<polygon fill="#63b8ff" stroke="#63b8ff" points="151.13,-51.88 161.5,-49.71 152.04,-44.94 151.13,-51.88"/>
</a>
</g>
</g>
<!-- Node3 -->
<g id="Node000003" class="node">
<title>Node3</title>
<g id="a_Node000003"><a xlink:href="class_nuki_1_1_nuki_ble.html#aed01f10d1ffa769f0f6fadc0d06d328e" target="_top" xlink:title=" ">
<polygon fill="white" stroke="#666666" points="303.5,-30.5 151.75,-30.5 151.75,0 303.5,0 303.5,-30.5"/>
<text text-anchor="start" x="159.75" y="-17" font-family="Helvetica,sans-Serif" font-size="10.00">Nuki::NukiBle::extendDisonnect</text>
<text text-anchor="middle" x="227.62" y="-5.75" font-family="Helvetica,sans-Serif" font-size="10.00">Timeout</text>
</a>
</g>
</g>
<!-- Node1&#45;&gt;Node3 -->
<g id="edge2_Node000001_Node000003" class="edge">
<title>Node1&#45;&gt;Node3</title>
<g id="a_edge2_Node000001_Node000003"><a xlink:title=" ">
<path fill="none" stroke="#63b8ff" d="M116.14,-29.08C123.97,-28.1 132.14,-27.08 140.35,-26.05"/>
<polygon fill="#63b8ff" stroke="#63b8ff" points="140.54,-29.55 150.03,-24.84 139.67,-22.61 140.54,-29.55"/>
</a>
</g>
</g>
</g>
</svg>
