<?xml version="1.0" encoding="UTF-8" standalone="no"?>
<!DOCTYPE svg PUBLIC "-//W3C//DTD SVG 1.1//EN"
 "http://www.w3.org/Graphics/SVG/1.1/DTD/svg11.dtd">
<!-- Generated by graphviz version 12.2.1 (20241206.2353)
 -->
<!-- Title: NukiOpener::NukiOpener::requestBatteryReport Pages: 1 -->
<svg width="697pt" height="205pt"
 viewBox="0.00 0.00 696.75 204.75" xmlns="http://www.w3.org/2000/svg" xmlns:xlink="http://www.w3.org/1999/xlink">
<g id="graph0" class="graph" transform="scale(1 1) rotate(0) translate(4 200.75)">
<title>NukiOpener::NukiOpener::requestBatteryReport</title>
<!-- Node1 -->
<g id="Node000001" class="node">
<title>Node1</title>
<g id="a_Node000001"><a xlink:title="Requests battery status from Opener via BLE.">
<polygon fill="#999999" stroke="#666666" points="124,-102.35 0,-102.35 0,-71.85 124,-71.85 124,-102.35"/>
<text text-anchor="start" x="8" y="-88.85" font-family="Helvetica,sans-Serif" font-size="10.00">NukiOpener::NukiOpener</text>
<text text-anchor="middle" x="62" y="-77.6" font-family="Helvetica,sans-Serif" font-size="10.00">::requestBatteryReport</text>
</a>
</g>
</g>
<!-- Node2 -->
<g id="Node000002" class="node">
<title>Node2</title>
<g id="a_Node000002"><a xlink:href="class_nuki_1_1_nuki_ble.html#af1f1e299e8d97e053bba80e92ba285d6" target="_top" xlink:title=" ">
<polygon fill="white" stroke="#666666" points="301.25,-96.73 160,-96.73 160,-77.48 301.25,-77.48 301.25,-96.73"/>
<text text-anchor="middle" x="230.62" y="-83.23" font-family="Helvetica,sans-Serif" font-size="10.00">Nuki::NukiBle::executeAction</text>
</a>
</g>
</g>
<!-- Node1&#45;&gt;Node2 -->
<g id="edge1_Node000001_Node000002" class="edge">
<title>Node1&#45;&gt;Node2</title>
<g id="a_edge1_Node000001_Node000002"><a xlink:title=" ">
<path fill="none" stroke="#63b8ff" d="M124.1,-87.1C131.93,-87.1 140.04,-87.1 148.12,-87.1"/>
<polygon fill="#63b8ff" stroke="#63b8ff" points="148,-90.6 158,-87.1 148,-83.6 148,-90.6"/>
</a>
</g>
</g>
<!-- Node3 -->
<g id="Node000003" class="node">
<title>Node3</title>
<g id="a_Node000003"><a xlink:href="class_nuki_1_1_nuki_ble.html#ada0f3beebd95d35c122e25dd3f9eb886" target="_top" xlink:title=" ">
<polygon fill="white" stroke="#666666" points="485.25,-173.35 347.75,-173.35 347.75,-142.85 485.25,-142.85 485.25,-173.35"/>
<text text-anchor="start" x="355.75" y="-159.85" font-family="Helvetica,sans-Serif" font-size="10.00">Nuki::NukiBle::cmdChallAcc</text>
<text text-anchor="middle" x="416.5" y="-148.6" font-family="Helvetica,sans-Serif" font-size="10.00">StateMachine</text>
</a>
</g>
</g>
<!-- Node2&#45;&gt;Node3 -->
<g id="edge2_Node000002_Node000003" class="edge">
<title>Node2&#45;&gt;Node3</title>
<g id="a_edge2_Node000002_Node000003"><a xlink:title=" ">
<path fill="none" stroke="#63b8ff" d="M252.81,-97.09C273.95,-106.87 307.49,-121.9 337.25,-133.1 342.46,-135.06 347.89,-137 353.37,-138.89"/>
<polygon fill="#63b8ff" stroke="#63b8ff" points="351.86,-142.08 362.46,-141.95 354.1,-135.44 351.86,-142.08"/>
</a>
</g>
</g>
<!-- Node4 -->
<g id="Node000004" class="node">
<title>Node4</title>
<g id="a_Node000004"><a xlink:href="class_nuki_1_1_nuki_ble.html#a6e8fca90c04249660dce6cb993eb4495" target="_top" xlink:title=" ">
<polygon fill="white" stroke="#666666" points="688.75,-169.35 531.75,-169.35 531.75,-138.85 688.75,-138.85 688.75,-169.35"/>
<text text-anchor="start" x="539.75" y="-155.85" font-family="Helvetica,sans-Serif" font-size="10.00">Nuki::NukiBle::extendDisconnect</text>
<text text-anchor="middle" x="610.25" y="-144.6" font-family="Helvetica,sans-Serif" font-size="10.00">Timeout</text>
</a>
</g>
</g>
<!-- Node2&#45;&gt;Node4 -->
<g id="edge14_Node000002_Node000004" class="edge">
<title>Node2&#45;&gt;Node4</title>
<g id="a_edge14_Node000002_Node000004"><a xlink:title=" ">
<path fill="none" stroke="#63b8ff" d="M238.64,-97.14C253.79,-117.83 291.89,-164.7 337.25,-182.1 409.76,-209.91 500.67,-190.75 556.86,-173.28"/>
<polygon fill="#63b8ff" stroke="#63b8ff" points="557.72,-176.68 566.18,-170.29 555.58,-170.02 557.72,-176.68"/>
</a>
</g>
</g>
<!-- Node5 -->
<g id="Node000005" class="node">
<title>Node5</title>
<g id="a_Node000005"><a xlink:href="class_nuki_1_1_nuki_ble.html#ac7ce691d9c3e586474655d1663eb2e20" target="_top" xlink:title=" ">
<polygon fill="white" stroke="#666666" points="676.38,-78.73 544.12,-78.73 544.12,-59.48 676.38,-59.48 676.38,-78.73"/>
<text text-anchor="middle" x="610.25" y="-65.23" font-family="Helvetica,sans-Serif" font-size="10.00">Nuki::NukiBle::logMessage</text>
</a>
</g>
</g>
<!-- Node2&#45;&gt;Node5 -->
<g id="edge15_Node000002_Node000005" class="edge">
<title>Node2&#45;&gt;Node5</title>
<g id="a_edge15_Node000002_Node000005"><a xlink:title=" ">
<path fill="none" stroke="#63b8ff" d="M241.56,-77.03C259.03,-60.1 297.24,-26.58 337.25,-14.1 404.5,6.88 427.09,1.66 495.75,-14.1 528.36,-21.59 562.48,-39.73 584.69,-53.14"/>
<polygon fill="#63b8ff" stroke="#63b8ff" points="582.66,-56 593,-58.3 586.35,-50.06 582.66,-56"/>
</a>
</g>
</g>
<!-- Node6 -->
<g id="Node000006" class="node">
<title>Node6</title>
<g id="a_Node000006"><a xlink:href="class_nuki_1_1_nuki_ble.html#af3650133f46aeca48a5f01b95d23ab71" target="_top" xlink:title=" ">
<polygon fill="white" stroke="#666666" points="683.88,-116.73 536.62,-116.73 536.62,-97.48 683.88,-97.48 683.88,-116.73"/>
<text text-anchor="middle" x="610.25" y="-103.23" font-family="Helvetica,sans-Serif" font-size="10.00">Nuki::NukiBle::logMessageVar</text>
</a>
</g>
</g>
<!-- Node2&#45;&gt;Node6 -->
<g id="edge16_Node000002_Node000006" class="edge">
<title>Node2&#45;&gt;Node6</title>
<g id="a_edge16_Node000002_Node000006"><a xlink:title=" ">
<path fill="none" stroke="#63b8ff" d="M251.2,-77.03C296.43,-55.24 410.83,-8.66 495.75,-47.1 517.84,-57.1 511.02,-75.52 531.75,-88.1 534.68,-89.88 537.76,-91.49 540.94,-92.95"/>
<polygon fill="#63b8ff" stroke="#63b8ff" points="539.38,-96.09 549.97,-96.55 541.98,-89.59 539.38,-96.09"/>
</a>
</g>
</g>
<!-- Node7 -->
<g id="Node000007" class="node">
<title>Node7</title>
<g id="a_Node000007"><a xlink:href="class_nuki_1_1_nuki_ble.html#a59169a9f492793762e3c6ba39b611b07" target="_top" xlink:title=" ">
<polygon fill="white" stroke="#666666" points="488.25,-124.35 344.75,-124.35 344.75,-93.85 488.25,-93.85 488.25,-124.35"/>
<text text-anchor="start" x="352.75" y="-110.85" font-family="Helvetica,sans-Serif" font-size="10.00">Nuki::NukiBle::cmdChallState</text>
<text text-anchor="middle" x="416.5" y="-99.6" font-family="Helvetica,sans-Serif" font-size="10.00">Machine</text>
</a>
</g>
</g>
<!-- Node2&#45;&gt;Node7 -->
<g id="edge6_Node000002_Node000007" class="edge">
<title>Node2&#45;&gt;Node7</title>
<g id="a_edge6_Node000002_Node000007"><a xlink:title=" ">
<path fill="none" stroke="#63b8ff" d="M301.66,-95.48C311.95,-96.71 322.62,-97.99 333.13,-99.25"/>
<polygon fill="#63b8ff" stroke="#63b8ff" points="332.59,-102.71 342.93,-100.42 333.42,-95.76 332.59,-102.71"/>
</a>
</g>
</g>
<!-- Node8 -->
<g id="Node000008" class="node">
<title>Node8</title>
<g id="a_Node000008"><a xlink:href="class_nuki_1_1_nuki_ble.html#ad135bb1455665decfddff67772c1d411" target="_top" xlink:title=" ">
<polygon fill="white" stroke="#666666" points="495.75,-75.73 337.25,-75.73 337.25,-56.48 495.75,-56.48 495.75,-75.73"/>
<text text-anchor="middle" x="416.5" y="-62.23" font-family="Helvetica,sans-Serif" font-size="10.00">Nuki::NukiBle::cmdStateMachine</text>
</a>
</g>
</g>
<!-- Node2&#45;&gt;Node8 -->
<g id="edge10_Node000002_Node000008" class="edge">
<title>Node2&#45;&gt;Node8</title>
<g id="a_edge10_Node000002_Node000008"><a xlink:title=" ">
<path fill="none" stroke="#63b8ff" d="M301.66,-79.1C309.53,-78.21 317.62,-77.28 325.69,-76.36"/>
<polygon fill="#63b8ff" stroke="#63b8ff" points="326.01,-79.85 335.55,-75.23 325.22,-72.89 326.01,-79.85"/>
</a>
</g>
</g>
<!-- Node3&#45;&gt;Node4 -->
<g id="edge3_Node000003_Node000004" class="edge">
<title>Node3&#45;&gt;Node4</title>
<g id="a_edge3_Node000003_Node000004"><a xlink:title=" ">
<path fill="none" stroke="#63b8ff" d="M485.64,-156.68C496.79,-156.45 508.47,-156.2 520.03,-155.96"/>
<polygon fill="#63b8ff" stroke="#63b8ff" points="520.08,-159.46 530.01,-155.76 519.94,-152.46 520.08,-159.46"/>
</a>
</g>
</g>
<!-- Node3&#45;&gt;Node5 -->
<g id="edge4_Node000003_Node000005" class="edge">
<title>Node3&#45;&gt;Node5</title>
<g id="a_edge4_Node000003_Node000005"><a xlink:title=" ">
<path fill="none" stroke="#63b8ff" d="M478.97,-142.38C484.88,-139.73 490.58,-136.66 495.75,-133.1 516.85,-118.58 510.16,-101.89 531.75,-88.1 534.34,-86.45 537.07,-84.94 539.88,-83.56"/>
<polygon fill="#63b8ff" stroke="#63b8ff" points="541.16,-86.82 549.01,-79.7 538.44,-80.37 541.16,-86.82"/>
</a>
</g>
</g>
<!-- Node3&#45;&gt;Node6 -->
<g id="edge5_Node000003_Node000006" class="edge">
<title>Node3&#45;&gt;Node6</title>
<g id="a_edge5_Node000003_Node000006"><a xlink:title=" ">
<path fill="none" stroke="#63b8ff" d="M476.6,-142.38C503.44,-135.25 534.81,-126.9 560.3,-120.12"/>
<polygon fill="#63b8ff" stroke="#63b8ff" points="560.97,-123.56 569.74,-117.61 559.18,-116.8 560.97,-123.56"/>
</a>
</g>
</g>
<!-- Node7&#45;&gt;Node4 -->
<g id="edge7_Node000007_Node000004" class="edge">
<title>Node7&#45;&gt;Node4</title>
<g id="a_edge7_Node000007_Node000004"><a xlink:title=" ">
<path fill="none" stroke="#63b8ff" d="M484.56,-124.84C499.6,-128.37 515.68,-132.14 531.12,-135.77"/>
<polygon fill="#63b8ff" stroke="#63b8ff" points="530.21,-139.15 540.75,-138.03 531.81,-132.33 530.21,-139.15"/>
</a>
</g>
</g>
<!-- Node7&#45;&gt;Node5 -->
<g id="edge8_Node000007_Node000005" class="edge">
<title>Node7&#45;&gt;Node5</title>
<g id="a_edge8_Node000007_Node000005"><a xlink:title=" ">
<path fill="none" stroke="#63b8ff" d="M488.63,-94.26C508.76,-90.06 530.46,-85.54 549.83,-81.5"/>
<polygon fill="#63b8ff" stroke="#63b8ff" points="550.38,-84.96 559.45,-79.49 548.95,-78.11 550.38,-84.96"/>
</a>
</g>
</g>
<!-- Node7&#45;&gt;Node6 -->
<g id="edge9_Node000007_Node000006" class="edge">
<title>Node7&#45;&gt;Node6</title>
<g id="a_edge9_Node000007_Node000006"><a xlink:title=" ">
<path fill="none" stroke="#63b8ff" d="M488.63,-108.36C500.42,-108.24 512.75,-108.11 524.83,-107.98"/>
<polygon fill="#63b8ff" stroke="#63b8ff" points="524.84,-111.48 534.8,-107.88 524.76,-104.48 524.84,-111.48"/>
</a>
</g>
</g>
<!-- Node8&#45;&gt;Node4 -->
<g id="edge11_Node000008_Node000004" class="edge">
<title>Node8&#45;&gt;Node4</title>
<g id="a_edge11_Node000008_Node000004"><a xlink:title=" ">
<path fill="none" stroke="#63b8ff" d="M476.34,-76.18C483.14,-78.55 489.77,-81.48 495.75,-85.1 516.5,-97.66 511.71,-112.44 531.75,-126.1 535.85,-128.9 540.26,-131.45 544.83,-133.77"/>
<polygon fill="#63b8ff" stroke="#63b8ff" points="543.08,-136.82 553.62,-137.86 546.03,-130.47 543.08,-136.82"/>
</a>
</g>
</g>
<!-- Node8&#45;&gt;Node5 -->
<g id="edge12_Node000008_Node000005" class="edge">
<title>Node8&#45;&gt;Node5</title>
<g id="a_edge12_Node000008_Node000005"><a xlink:title=" ">
<path fill="none" stroke="#63b8ff" d="M496.05,-67.33C508.04,-67.52 520.4,-67.71 532.36,-67.9"/>
<polygon fill="#63b8ff" stroke="#63b8ff" points="532.1,-71.4 542.16,-68.05 532.21,-64.4 532.1,-71.4"/>
</a>
</g>
</g>
<!-- Node8&#45;&gt;Node6 -->
<g id="edge13_Node000008_Node000006" class="edge">
<title>Node8&#45;&gt;Node6</title>
<g id="a_edge13_Node000008_Node000006"><a xlink:title=" ">
<path fill="none" stroke="#63b8ff" d="M464.41,-76.13C490.52,-81.72 523.27,-88.72 551.01,-94.65"/>
<polygon fill="#63b8ff" stroke="#63b8ff" points="550.17,-98.05 560.68,-96.72 551.64,-91.2 550.17,-98.05"/>
</a>
</g>
</g>
</g>
</svg>
