<?xml version="1.0" encoding="UTF-8" standalone="no"?>
<!DOCTYPE svg PUBLIC "-//W3C//DTD SVG 1.1//EN"
 "http://www.w3.org/Graphics/SVG/1.1/DTD/svg11.dtd">
<!-- Generated by graphviz version 5.0.1 (20220820.1526)
 -->
<!-- Title: Nuki::NukiBle::addAuthorizationEntry Pages: 1 -->
<svg width="629pt" height="186pt"
 viewBox="0.00 0.00 629.00 186.00" xmlns="http://www.w3.org/2000/svg" xmlns:xlink="http://www.w3.org/1999/xlink">
<g id="graph0" class="graph" transform="scale(1 1) rotate(0) translate(4 182)">
<title>Nuki::NukiBle::addAuthorizationEntry</title>
<!-- Node1 -->
<g id="node1" class="node">
<title>Node1</title>
<g id="a_node1"><a xlink:title="Sends a new authorization entry to the lock via BLE.">
<polygon fill="#999999" stroke="#666666" points="186,-83 0,-83 0,-49 186,-49 186,-83"/>
<text text-anchor="start" x="8" y="-69.4" font-family="Helvetica,sans-Serif" font-size="12.00">Nuki::NukiBle::addAuthorization</text>
<text text-anchor="middle" x="93" y="-56.4" font-family="Helvetica,sans-Serif" font-size="12.00">Entry</text>
</a>
</g>
</g>
<!-- Node2 -->
<g id="node2" class="node">
<title>Node2</title>
<g id="a_node2"><a xlink:href="class_nuki_1_1_nuki_ble.html#af1f1e299e8d97e053bba80e92ba285d6" target="_top" xlink:title=" ">
<polygon fill="white" stroke="#666666" points="393,-96.5 222,-96.5 222,-75.5 393,-75.5 393,-96.5"/>
<text text-anchor="middle" x="307.5" y="-82.9" font-family="Helvetica,sans-Serif" font-size="12.00">Nuki::NukiBle::executeAction</text>
</a>
</g>
</g>
<!-- Node1&#45;&gt;Node2 -->
<g id="edge1" class="edge">
<title>Node1&#45;&gt;Node2</title>
<path fill="none" stroke="#63b8ff" d="M186.28,-74.69C194.64,-75.47 203.12,-76.27 211.5,-77.06"/>
<polygon fill="#63b8ff" stroke="#63b8ff" points="211.38,-80.56 221.67,-78.02 212.04,-73.59 211.38,-80.56"/>
</g>
<!-- Node7 -->
<g id="node7" class="node">
<title>Node7</title>
<g id="a_node7"><a xlink:href="namespace_nuki.html#a280e19d4682ca4b35d3fe64001da816a" target="_top" xlink:title=" ">
<polygon fill="white" stroke="#666666" points="358.5,-57.5 256.5,-57.5 256.5,-36.5 358.5,-36.5 358.5,-57.5"/>
<text text-anchor="middle" x="307.5" y="-43.9" font-family="Helvetica,sans-Serif" font-size="12.00">Nuki::printBuffer</text>
</a>
</g>
</g>
<!-- Node1&#45;&gt;Node7 -->
<g id="edge6" class="edge">
<title>Node1&#45;&gt;Node7</title>
<path fill="none" stroke="#63b8ff" d="M186.28,-57.75C206.6,-55.93 227.61,-54.05 246.27,-52.38"/>
<polygon fill="#63b8ff" stroke="#63b8ff" points="246.73,-55.86 256.38,-51.48 246.11,-48.89 246.73,-55.86"/>
</g>
<!-- Node3 -->
<g id="node3" class="node">
<title>Node3</title>
<g id="a_node3"><a xlink:href="class_nuki_1_1_nuki_ble.html#ada0f3beebd95d35c122e25dd3f9eb886" target="_top" xlink:title=" ">
<polygon fill="white" stroke="#666666" points="607,-178 443,-178 443,-144 607,-144 607,-178"/>
<text text-anchor="start" x="451" y="-164.4" font-family="Helvetica,sans-Serif" font-size="12.00">Nuki::NukiBle::cmdChallAcc</text>
<text text-anchor="middle" x="525" y="-151.4" font-family="Helvetica,sans-Serif" font-size="12.00">StateMachine</text>
</a>
</g>
</g>
<!-- Node2&#45;&gt;Node3 -->
<g id="edge2" class="edge">
<title>Node2&#45;&gt;Node3</title>
<path fill="none" stroke="#63b8ff" d="M332.19,-96.61C356.26,-107.16 394.78,-123.4 429,-135 435.06,-137.05 441.37,-139.06 447.74,-140.99"/>
<polygon fill="#63b8ff" stroke="#63b8ff" points="447.18,-144.48 457.77,-143.96 449.17,-137.77 447.18,-144.48"/>
</g>
<!-- Node4 -->
<g id="node4" class="node">
<title>Node4</title>
<g id="a_node4"><a xlink:href="class_nuki_1_1_nuki_ble.html#a59169a9f492793762e3c6ba39b611b07" target="_top" xlink:title=" ">
<polygon fill="white" stroke="#666666" points="611,-126 439,-126 439,-92 611,-92 611,-126"/>
<text text-anchor="start" x="447" y="-112.4" font-family="Helvetica,sans-Serif" font-size="12.00">Nuki::NukiBle::cmdChallState</text>
<text text-anchor="middle" x="525" y="-99.4" font-family="Helvetica,sans-Serif" font-size="12.00">Machine</text>
</a>
</g>
</g>
<!-- Node2&#45;&gt;Node4 -->
<g id="edge3" class="edge">
<title>Node2&#45;&gt;Node4</title>
<path fill="none" stroke="#63b8ff" d="M393.05,-95.02C404.84,-96.28 417.03,-97.58 428.99,-98.86"/>
<polygon fill="#63b8ff" stroke="#63b8ff" points="428.67,-102.35 438.98,-99.93 429.41,-95.38 428.67,-102.35"/>
</g>
<!-- Node5 -->
<g id="node5" class="node">
<title>Node5</title>
<g id="a_node5"><a xlink:href="class_nuki_1_1_nuki_ble.html#ad135bb1455665decfddff67772c1d411" target="_top" xlink:title=" ">
<polygon fill="white" stroke="#666666" points="621,-73.5 429,-73.5 429,-52.5 621,-52.5 621,-73.5"/>
<text text-anchor="middle" x="525" y="-59.9" font-family="Helvetica,sans-Serif" font-size="12.00">Nuki::NukiBle::cmdStateMachine</text>
</a>
</g>
</g>
<!-- Node2&#45;&gt;Node5 -->
<g id="edge4" class="edge">
<title>Node2&#45;&gt;Node5</title>
<path fill="none" stroke="#63b8ff" d="M393.05,-76.98C401.53,-76.07 410.2,-75.15 418.86,-74.22"/>
<polygon fill="#63b8ff" stroke="#63b8ff" points="419.42,-77.68 428.99,-73.14 418.68,-70.72 419.42,-77.68"/>
</g>
<!-- Node6 -->
<g id="node6" class="node">
<title>Node6</title>
<g id="a_node6"><a xlink:href="class_nuki_1_1_nuki_ble.html#aed01f10d1ffa769f0f6fadc0d06d328e" target="_top" xlink:title=" ">
<polygon fill="white" stroke="#666666" points="617.5,-34 432.5,-34 432.5,0 617.5,0 617.5,-34"/>
<text text-anchor="start" x="440.5" y="-20.4" font-family="Helvetica,sans-Serif" font-size="12.00">Nuki::NukiBle::extendDisonnect</text>
<text text-anchor="middle" x="525" y="-7.4" font-family="Helvetica,sans-Serif" font-size="12.00">Timeout</text>
</a>
</g>
</g>
<!-- Node2&#45;&gt;Node6 -->
<g id="edge5" class="edge">
<title>Node2&#45;&gt;Node6</title>
<path fill="none" stroke="#63b8ff" d="M367.96,-75.38C376.51,-73.07 385.09,-70.3 393,-67 410.53,-59.7 411.68,-51.79 429,-44 434.26,-41.63 439.78,-39.42 445.39,-37.37"/>
<polygon fill="#63b8ff" stroke="#63b8ff" points="446.62,-40.65 454.91,-34.06 444.32,-34.04 446.62,-40.65"/>
</g>
</g>
</svg>
