<?xml version="1.0" encoding="UTF-8" standalone="no"?>
<!DOCTYPE svg PUBLIC "-//W3C//DTD SVG 1.1//EN"
 "http://www.w3.org/Graphics/SVG/1.1/DTD/svg11.dtd">
<!-- Generated by graphviz version 12.2.1 (20241206.2353)
 -->
<!-- Title: NukiLock::NukiLock::setLockNgoTimeout Pages: 1 -->
<!--zoomable 215 -->

<svg id="main" version="1.1" xmlns="http://www.w3.org/2000/svg" xmlns:xlink="http://www.w3.org/1999/xlink" xml:space="preserve" onload="init(evt)">

<style type="text/css"><![CDATA[
.node, .edge {opacity: 0.7;}
.node.selected, .edge.selected {opacity: 1;}
.edge:hover path { stroke: red; }
.edge:hover polygon { stroke: red; fill: red; }
]]></style>

<defs>
  <circle id="rim" cx="0" cy="0" r="7"/>
  <circle id="rim2" cx="0" cy="0" r="3.5"/>
  <g id="zoomPlus">
    <use xlink:href="#rim" fill="#404040"><set attributeName="fill" to="#808080" begin="zoomplus.mouseover" end="zoomplus.mouseout"/></use>
    <path d="M-4,0h8M0,-4v8" fill="none" stroke="white" stroke-width="1.5" pointer-events="none"/>
  </g>
  <g id="zoomMin">
    <use xlink:href="#rim" fill="#404040"><set attributeName="fill" to="#808080" begin="zoomminus.mouseover" end="zoomminus.mouseout"/></use>
    <path d="M-4,0h8" fill="none" stroke="white" stroke-width="1.5" pointer-events="none"/>
  </g>
  <g id="arrowUp" transform="translate(30 24)">
    <use xlink:href="#rim"/>
    <path pointer-events="none" fill="none" stroke="white" stroke-width="1.5" d="M0,-3.0v7 M-2.5,-0.5L0,-3.0L2.5,-0.5"/>
  </g>
  <g id="arrowRight" transform="rotate(90) translate(36 -43)">
    <use xlink:href="#rim"/>
    <path pointer-events="none" fill="none" stroke="white" stroke-width="1.5" d="M0,-3.0v7 M-2.5,-0.5L0,-3.0L2.5,-0.5"/>
  </g>
  <g id="arrowDown" transform="rotate(180) translate(-30 -48)">
    <use xlink:href="#rim"/>
    <path pointer-events="none" fill="none" stroke="white" stroke-width="1.5" d="M0,-3.0v7 M-2.5,-0.5L0,-3.0L2.5,-0.5"/>
  </g>
  <g id="arrowLeft" transform="rotate(270) translate(-36 17)">
    <use xlink:href="#rim"/>
    <path pointer-events="none" fill="none" stroke="white" stroke-width="1.5" d="M0,-3.0v7 M-2.5,-0.5L0,-3.0L2.5,-0.5"/>
  </g>
  <g id="resetDef">
    <use xlink:href="#rim2" fill="#404040"><set attributeName="fill" to="#808080" begin="reset.mouseover" end="reset.mouseout"/></use>
  </g>
</defs>
<script type="application/ecmascript">
var viewWidth = 841;
var viewHeight = 215;
var sectionId = 'dynsection-45';
</script>
<script type="application/ecmascript" xlink:href="svg.min.js"/>
<svg id="graph" class="graph">
<g id="viewport">
<title>NukiLock::NukiLock::setLockNgoTimeout</title>
<!-- Node1 -->
<g id="Node000001" class="node">
<title>Node1</title>
<g id="a_Node000001"><a xlink:title="Gets the current config from the lock, updates the lock n go timeout parameter and sends the new conf...">
<polygon fill="#999999" stroke="#666666" points="109,-123.78 0,-123.78 0,-93.28 109,-93.28 109,-123.78"/>
<text text-anchor="start" x="8" y="-110.28" font-family="Helvetica,sans-Serif" font-size="10.00">NukiLock::NukiLock</text>
<text text-anchor="middle" x="54.5" y="-99.03" font-family="Helvetica,sans-Serif" font-size="10.00">::setLockNgoTimeout</text>
</a>
</g>
</g>
<!-- Node2 -->
<g id="Node000002" class="node">
<title>Node2</title>
<g id="a_Node000002"><a xlink:href="class_nuki_lock_1_1_nuki_lock.html#aa882f9b3256313bbd45b4269f8c74521" target="_top" xlink:title="Requests advanced config from Lock via BLE.">
<polygon fill="white" stroke="#666666" points="268.25,-123.78 145,-123.78 145,-93.28 268.25,-93.28 268.25,-123.78"/>
<text text-anchor="start" x="153" y="-110.28" font-family="Helvetica,sans-Serif" font-size="10.00">NukiLock::NukiLock</text>
<text text-anchor="middle" x="206.62" y="-99.03" font-family="Helvetica,sans-Serif" font-size="10.00">::requestAdvancedConfig</text>
</a>
</g>
</g>
<!-- Node1&#45;&gt;Node2 -->
<g id="edge1_Node000001_Node000002" class="edge">
<title>Node1&#45;&gt;Node2</title>
<g id="a_edge1_Node000001_Node000002"><a xlink:title=" ">
<path fill="none" stroke="#63b8ff" d="M109.27,-108.53C117.05,-108.53 125.16,-108.53 133.23,-108.53"/>
<polygon fill="#63b8ff" stroke="#63b8ff" points="133.06,-112.03 143.06,-108.53 133.06,-105.03 133.06,-112.03"/>
</a>
</g>
</g>
<!-- Node3 -->
<g id="Node000003" class="node">
<title>Node3</title>
<g id="a_Node000003"><a xlink:href="class_nuki_1_1_nuki_ble.html#af1f1e299e8d97e053bba80e92ba285d6" target="_top" xlink:title=" ">
<polygon fill="white" stroke="#666666" points="445.5,-118.16 304.25,-118.16 304.25,-98.91 445.5,-98.91 445.5,-118.16"/>
<text text-anchor="middle" x="374.88" y="-104.66" font-family="Helvetica,sans-Serif" font-size="10.00">Nuki::NukiBle::executeAction</text>
</a>
</g>
</g>
<!-- Node2&#45;&gt;Node3 -->
<g id="edge2_Node000002_Node000003" class="edge">
<title>Node2&#45;&gt;Node3</title>
<g id="a_edge2_Node000002_Node000003"><a xlink:title=" ">
<path fill="none" stroke="#63b8ff" d="M268.59,-108.53C276.4,-108.53 284.49,-108.53 292.56,-108.53"/>
<polygon fill="#63b8ff" stroke="#63b8ff" points="292.41,-112.03 302.41,-108.53 292.41,-105.03 292.41,-112.03"/>
</a>
</g>
</g>
<!-- Node4 -->
<g id="Node000004" class="node">
<title>Node4</title>
<g id="a_Node000004"><a xlink:href="class_nuki_1_1_nuki_ble.html#ada0f3beebd95d35c122e25dd3f9eb886" target="_top" xlink:title=" ">
<polygon fill="white" stroke="#666666" points="629.5,-145.78 492,-145.78 492,-115.28 629.5,-115.28 629.5,-145.78"/>
<text text-anchor="start" x="500" y="-132.28" font-family="Helvetica,sans-Serif" font-size="10.00">Nuki::NukiBle::cmdChallAcc</text>
<text text-anchor="middle" x="560.75" y="-121.03" font-family="Helvetica,sans-Serif" font-size="10.00">StateMachine</text>
</a>
</g>
</g>
<!-- Node3&#45;&gt;Node4 -->
<g id="edge3_Node000003_Node000004" class="edge">
<title>Node3&#45;&gt;Node4</title>
<g id="a_edge3_Node000003_Node000004"><a xlink:title=" ">
<path fill="none" stroke="#63b8ff" d="M445.91,-116.91C457.18,-118.26 468.91,-119.66 480.38,-121.04"/>
<polygon fill="#63b8ff" stroke="#63b8ff" points="479.88,-124.5 490.22,-122.21 480.71,-117.55 479.88,-124.5"/>
</a>
</g>
</g>
<!-- Node5 -->
<g id="Node000005" class="node">
<title>Node5</title>
<g id="a_Node000005"><a xlink:href="class_nuki_1_1_nuki_ble.html#a6e8fca90c04249660dce6cb993eb4495" target="_top" xlink:title=" ">
<polygon fill="white" stroke="#666666" points="833,-186.78 676,-186.78 676,-156.28 833,-156.28 833,-186.78"/>
<text text-anchor="start" x="684" y="-173.28" font-family="Helvetica,sans-Serif" font-size="10.00">Nuki::NukiBle::extendDisconnect</text>
<text text-anchor="middle" x="754.5" y="-162.03" font-family="Helvetica,sans-Serif" font-size="10.00">Timeout</text>
</a>
</g>
</g>
<!-- Node3&#45;&gt;Node5 -->
<g id="edge16_Node000003_Node000005" class="edge">
<title>Node3&#45;&gt;Node5</title>
<g id="a_edge16_Node000003_Node000005"><a xlink:title=" ">
<path fill="none" stroke="#63b8ff" d="M384.16,-118.58C400.45,-137.45 438.81,-177.63 481.5,-192.53 550.88,-216.76 636.07,-203.9 692.43,-190.02"/>
<polygon fill="#63b8ff" stroke="#63b8ff" points="693.01,-193.48 701.83,-187.61 691.28,-186.7 693.01,-193.48"/>
</a>
</g>
</g>
<!-- Node6 -->
<g id="Node000006" class="node">
<title>Node6</title>
<g id="a_Node000006"><a xlink:href="class_nuki_1_1_nuki_ble.html#ac7ce691d9c3e586474655d1663eb2e20" target="_top" xlink:title=" ">
<polygon fill="white" stroke="#666666" points="820.62,-137.16 688.38,-137.16 688.38,-117.91 820.62,-117.91 820.62,-137.16"/>
<text text-anchor="middle" x="754.5" y="-123.66" font-family="Helvetica,sans-Serif" font-size="10.00">Nuki::NukiBle::logMessage</text>
</a>
</g>
</g>
<!-- Node3&#45;&gt;Node6 -->
<g id="edge17_Node000003_Node000006" class="edge">
<title>Node3&#45;&gt;Node6</title>
<g id="a_edge17_Node000003_Node000006"><a xlink:title=" ">
<path fill="none" stroke="#63b8ff" d="M445.76,-107.02C457.68,-106.82 469.95,-106.64 481.5,-106.53 551.94,-105.87 569.85,-100.1 640,-106.53 659.09,-108.28 679.76,-111.66 698.16,-115.2"/>
<polygon fill="#63b8ff" stroke="#63b8ff" points="697.32,-118.6 707.81,-117.12 698.68,-111.73 697.32,-118.6"/>
</a>
</g>
</g>
<!-- Node7 -->
<g id="Node000007" class="node">
<title>Node7</title>
<g id="a_Node000007"><a xlink:href="class_nuki_1_1_nuki_ble.html#af3650133f46aeca48a5f01b95d23ab71" target="_top" xlink:title=" ">
<polygon fill="white" stroke="#666666" points="828.12,-97.16 680.88,-97.16 680.88,-77.91 828.12,-77.91 828.12,-97.16"/>
<text text-anchor="middle" x="754.5" y="-83.66" font-family="Helvetica,sans-Serif" font-size="10.00">Nuki::NukiBle::logMessageVar</text>
</a>
</g>
</g>
<!-- Node3&#45;&gt;Node7 -->
<g id="edge18_Node000003_Node000007" class="edge">
<title>Node3&#45;&gt;Node7</title>
<g id="a_edge18_Node000003_Node000007"><a xlink:title=" ">
<path fill="none" stroke="#63b8ff" d="M383.55,-98.62C399.36,-79.14 437.74,-36.37 481.5,-20.53 547.74,3.44 576.17,9.27 640,-20.53 662.58,-31.08 655.25,-49.73 676,-63.53 681.85,-67.42 688.36,-70.71 695.05,-73.48"/>
<polygon fill="#63b8ff" stroke="#63b8ff" points="693.64,-76.69 704.24,-76.89 696.08,-70.13 693.64,-76.69"/>
</a>
</g>
</g>
<!-- Node8 -->
<g id="Node000008" class="node">
<title>Node8</title>
<g id="a_Node000008"><a xlink:href="class_nuki_1_1_nuki_ble.html#a59169a9f492793762e3c6ba39b611b07" target="_top" xlink:title=" ">
<polygon fill="white" stroke="#666666" points="632.5,-59.78 489,-59.78 489,-29.28 632.5,-29.28 632.5,-59.78"/>
<text text-anchor="start" x="497" y="-46.28" font-family="Helvetica,sans-Serif" font-size="10.00">Nuki::NukiBle::cmdChallState</text>
<text text-anchor="middle" x="560.75" y="-35.03" font-family="Helvetica,sans-Serif" font-size="10.00">Machine</text>
</a>
</g>
</g>
<!-- Node3&#45;&gt;Node8 -->
<g id="edge7_Node000003_Node000008" class="edge">
<title>Node3&#45;&gt;Node8</title>
<g id="a_edge7_Node000003_Node000008"><a xlink:title=" ">
<path fill="none" stroke="#63b8ff" d="M404.61,-98.53C431.1,-89.31 471.18,-75.36 503.96,-63.95"/>
<polygon fill="#63b8ff" stroke="#63b8ff" points="505.05,-67.28 513.34,-60.69 502.74,-60.67 505.05,-67.28"/>
</a>
</g>
</g>
<!-- Node10 -->
<g id="Node000010" class="node">
<title>Node10</title>
<g id="a_Node000010"><a xlink:href="class_nuki_1_1_nuki_ble.html#ad135bb1455665decfddff67772c1d411" target="_top" xlink:title=" ">
<polygon fill="white" stroke="#666666" points="640,-183.16 481.5,-183.16 481.5,-163.91 640,-163.91 640,-183.16"/>
<text text-anchor="middle" x="560.75" y="-169.66" font-family="Helvetica,sans-Serif" font-size="10.00">Nuki::NukiBle::cmdStateMachine</text>
</a>
</g>
</g>
<!-- Node3&#45;&gt;Node10 -->
<g id="edge12_Node000003_Node000010" class="edge">
<title>Node3&#45;&gt;Node10</title>
<g id="a_edge12_Node000003_Node000010"><a xlink:title=" ">
<path fill="none" stroke="#63b8ff" d="M396.11,-118.59C417.07,-128.72 450.98,-144.27 481.5,-154.53 488.02,-156.73 494.93,-158.78 501.83,-160.66"/>
<polygon fill="#63b8ff" stroke="#63b8ff" points="500.59,-163.96 511.15,-163.1 502.36,-157.19 500.59,-163.96"/>
</a>
</g>
</g>
<!-- Node4&#45;&gt;Node5 -->
<g id="edge4_Node000004_Node000005" class="edge">
<title>Node4&#45;&gt;Node5</title>
<g id="a_edge4_Node000004_Node000005"><a xlink:title=" ">
<path fill="none" stroke="#63b8ff" d="M629.89,-145.1C642.59,-147.82 656,-150.69 669.12,-153.49"/>
<polygon fill="#63b8ff" stroke="#63b8ff" points="668.06,-156.84 678.57,-155.51 669.52,-150 668.06,-156.84"/>
</a>
</g>
</g>
<!-- Node4&#45;&gt;Node6 -->
<g id="edge5_Node000004_Node000006" class="edge">
<title>Node4&#45;&gt;Node6</title>
<g id="a_edge5_Node000004_Node000006"><a xlink:title=" ">
<path fill="none" stroke="#63b8ff" d="M629.89,-129.47C645.14,-129.23 661.41,-128.97 676.97,-128.73"/>
<polygon fill="#63b8ff" stroke="#63b8ff" points="676.69,-132.24 686.63,-128.58 676.58,-125.24 676.69,-132.24"/>
</a>
</g>
</g>
<!-- Node4&#45;&gt;Node7 -->
<g id="edge6_Node000004_Node000007" class="edge">
<title>Node4&#45;&gt;Node7</title>
<g id="a_edge6_Node000004_Node000007"><a xlink:title=" ">
<path fill="none" stroke="#63b8ff" d="M629.89,-115.25C651.98,-110.3 676.2,-104.87 697.32,-100.13"/>
<polygon fill="#63b8ff" stroke="#63b8ff" points="697.9,-103.59 706.89,-97.99 696.36,-96.76 697.9,-103.59"/>
</a>
</g>
</g>
<!-- Node8&#45;&gt;Node5 -->
<g id="edge8_Node000008_Node000005" class="edge">
<title>Node8&#45;&gt;Node5</title>
<g id="a_edge8_Node000008_Node000005"><a xlink:title=" ">
<path fill="none" stroke="#63b8ff" d="M583.47,-60.19C599.63,-72.21 621.93,-89.57 640,-106.53 657.43,-122.91 655.93,-133.53 676,-146.53 678.39,-148.08 680.88,-149.54 683.44,-150.91"/>
<polygon fill="#63b8ff" stroke="#63b8ff" points="681.73,-153.97 692.26,-155.15 684.76,-147.66 681.73,-153.97"/>
</a>
</g>
</g>
<!-- Node8&#45;&gt;Node6 -->
<g id="edge10_Node000008_Node000006" class="edge">
<title>Node8&#45;&gt;Node6</title>
<g id="a_edge10_Node000008_Node000006"><a xlink:title=" ">
<path fill="none" stroke="#63b8ff" d="M612.77,-60.17C622.13,-63.94 631.59,-68.4 640,-73.53 658.52,-84.85 656.99,-96.06 676,-106.53 680.99,-109.28 686.35,-111.68 691.85,-113.78"/>
<polygon fill="#63b8ff" stroke="#63b8ff" points="690.5,-117.02 701.09,-116.97 692.78,-110.4 690.5,-117.02"/>
</a>
</g>
</g>
<!-- Node8&#45;&gt;Node7 -->
<g id="edge11_Node000008_Node000007" class="edge">
<title>Node8&#45;&gt;Node7</title>
<g id="a_edge11_Node000008_Node000007"><a xlink:title=" ">
<path fill="none" stroke="#63b8ff" d="M631.79,-60.24C653.36,-65.08 676.82,-70.34 697.34,-74.94"/>
<polygon fill="#63b8ff" stroke="#63b8ff" points="696.4,-78.32 706.92,-77.09 697.93,-71.49 696.4,-78.32"/>
</a>
</g>
</g>
<!-- Node9 -->
<g id="Node000009" class="node">
<title>Node9</title>
<g id="a_Node000009"><a xlink:href="class_nuki_1_1_nuki_ble.html#a25207bb564a4b54b8dd8c872177b53a7" target="_top" xlink:title="Returns if BLE is pairing/paired/connected with a Smart Lock Ultra.">
<polygon fill="white" stroke="#666666" points="819.5,-54.16 689.5,-54.16 689.5,-34.91 819.5,-34.91 819.5,-54.16"/>
<text text-anchor="middle" x="754.5" y="-40.66" font-family="Helvetica,sans-Serif" font-size="10.00">Nuki::NukiBle::isLockUltra</text>
</a>
</g>
</g>
<!-- Node8&#45;&gt;Node9 -->
<g id="edge9_Node000008_Node000009" class="edge">
<title>Node8&#45;&gt;Node9</title>
<g id="a_edge9_Node000008_Node000009"><a xlink:title=" ">
<path fill="none" stroke="#63b8ff" d="M632.88,-44.53C647.57,-44.53 663.1,-44.53 677.94,-44.53"/>
<polygon fill="#63b8ff" stroke="#63b8ff" points="677.62,-48.03 687.62,-44.53 677.62,-41.03 677.62,-48.03"/>
</a>
</g>
</g>
<!-- Node10&#45;&gt;Node5 -->
<g id="edge13_Node000010_Node000005" class="edge">
<title>Node10&#45;&gt;Node5</title>
<g id="a_edge13_Node000010_Node000005"><a xlink:title=" ">
<path fill="none" stroke="#63b8ff" d="M640.3,-172.71C648.24,-172.63 656.35,-172.55 664.39,-172.46"/>
<polygon fill="#63b8ff" stroke="#63b8ff" points="664.22,-175.96 674.18,-172.36 664.15,-168.97 664.22,-175.96"/>
</a>
</g>
</g>
<!-- Node10&#45;&gt;Node6 -->
<g id="edge14_Node000010_Node000006" class="edge">
<title>Node10&#45;&gt;Node6</title>
<g id="a_edge14_Node000010_Node000006"><a xlink:title=" ">
<path fill="none" stroke="#63b8ff" d="M603.83,-163.44C632.3,-156.61 670.14,-147.53 700.64,-140.21"/>
<polygon fill="#63b8ff" stroke="#63b8ff" points="701.14,-143.69 710.05,-137.96 699.51,-136.89 701.14,-143.69"/>
</a>
</g>
</g>
<!-- Node10&#45;&gt;Node7 -->
<g id="edge15_Node000010_Node000007" class="edge">
<title>Node10&#45;&gt;Node7</title>
<g id="a_edge15_Node000010_Node000007"><a xlink:title=" ">
<path fill="none" stroke="#63b8ff" d="M621.61,-163.49C628.08,-161.11 634.36,-158.17 640,-154.53 661.82,-140.47 654.37,-122.88 676,-108.53 679.75,-106.05 683.78,-103.85 687.97,-101.92"/>
<polygon fill="#63b8ff" stroke="#63b8ff" points="689.26,-105.17 697.22,-98.19 686.64,-98.68 689.26,-105.17"/>
</a>
</g>
</g>
</g>
</svg>

<g id="navigator" transform="translate(0 0)" fill="#404254">
  <rect fill="#f2f5e9" fill-opacity="0.5" stroke="#606060" stroke-width=".5" x="0" y="0" width="60" height="60"/>
  <use id="zoomplus" xlink:href="#zoomPlus" x="17" y="9" onmousedown="handleZoom(evt,'in')"/>
  <use id="zoomminus" xlink:href="#zoomMin" x="42" y="9" onmousedown="handleZoom(evt,'out')"/>
  <use id="reset" xlink:href="#resetDef" x="30" y="36" onmousedown="handleReset()"/>
   <use id="arrowup" xlink:href="#arrowUp" x="0" y="0" onmousedown="handlePan(0,-1)"/>
  <use id="arrowright" xlink:href="#arrowRight" x="0" y="0" onmousedown="handlePan(1,0)"/>
  <use id="arrowdown" xlink:href="#arrowDown" x="0" y="0" onmousedown="handlePan(0,1)"/>
  <use id="arrowleft" xlink:href="#arrowLeft" x="0" y="0" onmousedown="handlePan(-1,0)"/>
</g>
<svg viewBox="0 0 15 15" width="100%" height="30px" preserveAspectRatio="xMaxYMin meet">
 <g id="arrow_out" transform="scale(0.3 0.3)">
  <a xlink:href="class_nuki_lock_1_1_nuki_lock_a862978a250acfbc8d814b1ccefc0d0c5_cgraph_org.svg" target="_base">
   <rect id="button" ry="5" rx="5" y="6" x="6" height="38" width="38"
        fill="#f2f5e9" fill-opacity="0.5" stroke="#606060" stroke-width="1.0"/>
   <path id="arrow"
     d="M 11.500037,31.436501 C 11.940474,20.09759 22.043105,11.32322 32.158766,21.979434 L 37.068811,17.246167 C 37.068811,17.246167 37.088388,32 37.088388,32 L 22.160133,31.978069 C 22.160133,31.978069 26.997745,27.140456 26.997745,27.140456 C 18.528582,18.264221 13.291696,25.230495 11.500037,31.436501 z"
     style="fill:#404040;"/>
  </a>
 </g>
</svg>

<style type='text/css'>
<![CDATA[
[data-mouse-over-selected='false'] { opacity: 0.7; }
[data-mouse-over-selected='true']  { opacity: 1.0; }
]]>
</style>
<script type="application/ecmascript"><![CDATA[
document.addEventListener('DOMContentLoaded', (event) => {
  highlightEdges();
  highlightAdjacentNodes();
});
]]></script>
</svg>
