<?xml version="1.0" encoding="UTF-8" standalone="no"?>
<!DOCTYPE svg PUBLIC "-//W3C//DTD SVG 1.1//EN"
 "http://www.w3.org/Graphics/SVG/1.1/DTD/svg11.dtd">
<!-- Generated by graphviz version 9.0.0 (20230911.1827)
 -->
<!-- Title: Nuki::NukiBle::addAuthorizationEntry Pages: 1 -->
<svg width="542pt" height="190pt"
 viewBox="0.00 0.00 542.00 189.88" xmlns="http://www.w3.org/2000/svg" xmlns:xlink="http://www.w3.org/1999/xlink">
<g id="graph0" class="graph" transform="scale(1 1) rotate(0) translate(4 185.88)">
<title>Nuki::NukiBle::addAuthorizationEntry</title>
<!-- Node1 -->
<g id="Node000001" class="node">
<title>Node1</title>
<g id="a_Node000001"><a xlink:title="Sends a new authorization entry to the lock via BLE.">
<polygon fill="#999999" stroke="#666666" points="151.75,-67.88 0,-67.88 0,-37.38 151.75,-37.38 151.75,-67.88"/>
<text text-anchor="start" x="8" y="-54.38" font-family="Helvetica,sans-Serif" font-size="10.00">Nuki::NukiBle::addAuthorization</text>
<text text-anchor="middle" x="75.88" y="-43.12" font-family="Helvetica,sans-Serif" font-size="10.00">Entry</text>
</a>
</g>
</g>
<!-- Node2 -->
<g id="Node000002" class="node">
<title>Node2</title>
<g id="a_Node000002"><a xlink:href="class_nuki_1_1_nuki_ble.html#af1f1e299e8d97e053bba80e92ba285d6" target="_top" xlink:title=" ">
<polygon fill="white" stroke="#666666" points="334.25,-105.25 193,-105.25 193,-86 334.25,-86 334.25,-105.25"/>
<text text-anchor="middle" x="263.62" y="-91.75" font-family="Helvetica,sans-Serif" font-size="10.00">Nuki::NukiBle::executeAction</text>
</a>
</g>
</g>
<!-- Node1&#45;&gt;Node2 -->
<g id="edge1_Node000001_Node000002" class="edge">
<title>Node1&#45;&gt;Node2</title>
<g id="a_edge1_Node000001_Node000002"><a xlink:title=" ">
<path fill="none" stroke="#63b8ff" d="M144.72,-68.33C165.53,-73.15 188.14,-78.38 207.94,-82.97"/>
<polygon fill="#63b8ff" stroke="#63b8ff" points="206.93,-86.32 217.46,-85.17 208.51,-79.5 206.93,-86.32"/>
</a>
</g>
</g>
<!-- Node7 -->
<g id="Node000007" class="node">
<title>Node7</title>
<g id="a_Node000007"><a xlink:href="namespace_nuki_lock.html#a6ed41649d4ecfc8ec23f170ff9bbcad1" target="_top" xlink:title=" ">
<polygon fill="white" stroke="#666666" points="339.5,-67.88 187.75,-67.88 187.75,-37.38 339.5,-37.38 339.5,-67.88"/>
<text text-anchor="start" x="195.75" y="-54.38" font-family="Helvetica,sans-Serif" font-size="10.00">NukiLock::logNewAuthorization</text>
<text text-anchor="middle" x="263.62" y="-43.12" font-family="Helvetica,sans-Serif" font-size="10.00">Entry</text>
</a>
</g>
</g>
<!-- Node1&#45;&gt;Node7 -->
<g id="edge6_Node000001_Node000007" class="edge">
<title>Node1&#45;&gt;Node7</title>
<g id="a_edge6_Node000001_Node000007"><a xlink:title=" ">
<path fill="none" stroke="#63b8ff" d="M152.16,-52.62C160.09,-52.62 168.19,-52.62 176.24,-52.62"/>
<polygon fill="#63b8ff" stroke="#63b8ff" points="176.02,-56.13 186.02,-52.63 176.02,-49.13 176.02,-56.13"/>
</a>
</g>
</g>
<!-- Node8 -->
<g id="Node000008" class="node">
<title>Node8</title>
<g id="a_Node000008"><a xlink:href="namespace_nuki.html#a280e19d4682ca4b35d3fe64001da816a" target="_top" xlink:title=" ">
<polygon fill="white" stroke="#666666" points="306.12,-19.25 221.12,-19.25 221.12,0 306.12,0 306.12,-19.25"/>
<text text-anchor="middle" x="263.62" y="-5.75" font-family="Helvetica,sans-Serif" font-size="10.00">Nuki::printBuffer</text>
</a>
</g>
</g>
<!-- Node1&#45;&gt;Node8 -->
<g id="edge7_Node000001_Node000008" class="edge">
<title>Node1&#45;&gt;Node8</title>
<g id="a_edge7_Node000001_Node000008"><a xlink:title=" ">
<path fill="none" stroke="#63b8ff" d="M144.72,-36.92C166.14,-31.96 189.46,-26.56 209.68,-21.88"/>
<polygon fill="#63b8ff" stroke="#63b8ff" points="210.44,-25.3 219.39,-19.63 208.86,-18.48 210.44,-25.3"/>
</a>
</g>
</g>
<!-- Node3 -->
<g id="Node000003" class="node">
<title>Node3</title>
<g id="a_Node000003"><a xlink:href="class_nuki_1_1_nuki_ble.html#ada0f3beebd95d35c122e25dd3f9eb886" target="_top" xlink:title=" ">
<polygon fill="white" stroke="#666666" points="523.5,-181.88 386,-181.88 386,-151.38 523.5,-151.38 523.5,-181.88"/>
<text text-anchor="start" x="394" y="-168.38" font-family="Helvetica,sans-Serif" font-size="10.00">Nuki::NukiBle::cmdChallAcc</text>
<text text-anchor="middle" x="454.75" y="-157.12" font-family="Helvetica,sans-Serif" font-size="10.00">StateMachine</text>
</a>
</g>
</g>
<!-- Node2&#45;&gt;Node3 -->
<g id="edge2_Node000002_Node000003" class="edge">
<title>Node2&#45;&gt;Node3</title>
<g id="a_edge2_Node000002_Node000003"><a xlink:title=" ">
<path fill="none" stroke="#63b8ff" d="M287.34,-105.71C309.59,-115.43 344.58,-130.3 375.5,-141.62 380.8,-143.57 386.34,-145.51 391.91,-147.4"/>
<polygon fill="#63b8ff" stroke="#63b8ff" points="390.58,-150.65 401.17,-150.49 392.79,-144.01 390.58,-150.65"/>
</a>
</g>
</g>
<!-- Node4 -->
<g id="Node000004" class="node">
<title>Node4</title>
<g id="a_Node000004"><a xlink:href="class_nuki_1_1_nuki_ble.html#a59169a9f492793762e3c6ba39b611b07" target="_top" xlink:title=" ">
<polygon fill="white" stroke="#666666" points="526.5,-132.88 383,-132.88 383,-102.38 526.5,-102.38 526.5,-132.88"/>
<text text-anchor="start" x="391" y="-119.38" font-family="Helvetica,sans-Serif" font-size="10.00">Nuki::NukiBle::cmdChallState</text>
<text text-anchor="middle" x="454.75" y="-108.12" font-family="Helvetica,sans-Serif" font-size="10.00">Machine</text>
</a>
</g>
</g>
<!-- Node2&#45;&gt;Node4 -->
<g id="edge3_Node000002_Node000004" class="edge">
<title>Node2&#45;&gt;Node4</title>
<g id="a_edge3_Node000002_Node000004"><a xlink:title=" ">
<path fill="none" stroke="#63b8ff" d="M334.51,-103.75C346.51,-105.15 359.09,-106.61 371.38,-108.04"/>
<polygon fill="#63b8ff" stroke="#63b8ff" points="370.73,-111.49 381.07,-109.17 371.54,-104.54 370.73,-111.49"/>
</a>
</g>
</g>
<!-- Node5 -->
<g id="Node000005" class="node">
<title>Node5</title>
<g id="a_Node000005"><a xlink:href="class_nuki_1_1_nuki_ble.html#ad135bb1455665decfddff67772c1d411" target="_top" xlink:title=" ">
<polygon fill="white" stroke="#666666" points="534,-84.25 375.5,-84.25 375.5,-65 534,-65 534,-84.25"/>
<text text-anchor="middle" x="454.75" y="-70.75" font-family="Helvetica,sans-Serif" font-size="10.00">Nuki::NukiBle::cmdStateMachine</text>
</a>
</g>
</g>
<!-- Node2&#45;&gt;Node5 -->
<g id="edge4_Node000002_Node000005" class="edge">
<title>Node2&#45;&gt;Node5</title>
<g id="a_edge4_Node000002_Node000005"><a xlink:title=" ">
<path fill="none" stroke="#63b8ff" d="M334.51,-87.87C344.14,-86.8 354.14,-85.69 364.07,-84.58"/>
<polygon fill="#63b8ff" stroke="#63b8ff" points="364.17,-88.09 373.72,-83.51 363.4,-81.14 364.17,-88.09"/>
</a>
</g>
</g>
<!-- Node6 -->
<g id="Node000006" class="node">
<title>Node6</title>
<g id="a_Node000006"><a xlink:href="class_nuki_1_1_nuki_ble.html#aed01f10d1ffa769f0f6fadc0d06d328e" target="_top" xlink:title=" ">
<polygon fill="white" stroke="#666666" points="530.62,-46.88 378.88,-46.88 378.88,-16.38 530.62,-16.38 530.62,-46.88"/>
<text text-anchor="start" x="386.88" y="-33.38" font-family="Helvetica,sans-Serif" font-size="10.00">Nuki::NukiBle::extendDisonnect</text>
<text text-anchor="middle" x="454.75" y="-22.12" font-family="Helvetica,sans-Serif" font-size="10.00">Timeout</text>
</a>
</g>
</g>
<!-- Node2&#45;&gt;Node6 -->
<g id="edge5_Node000002_Node000006" class="edge">
<title>Node2&#45;&gt;Node6</title>
<g id="a_edge5_Node000002_Node000006"><a xlink:title=" ">
<path fill="none" stroke="#63b8ff" d="M312.8,-85.52C321.82,-83.04 331.06,-80.08 339.5,-76.62 356.64,-69.61 358.53,-63.06 375.5,-55.62 379.06,-54.07 382.75,-52.57 386.5,-51.13"/>
<polygon fill="#63b8ff" stroke="#63b8ff" points="387.55,-54.47 395.76,-47.78 385.17,-47.89 387.55,-54.47"/>
</a>
</g>
</g>
</g>
</svg>
