<?xml version="1.0" encoding="UTF-8" standalone="no"?>
<!DOCTYPE svg PUBLIC "-//W3C//DTD SVG 1.1//EN"
 "http://www.w3.org/Graphics/SVG/1.1/DTD/svg11.dtd">
<!-- Generated by graphviz version 12.2.1 (20241206.2353)
 -->
<!-- Title: Nuki::NukiBle::deleteKeypadEntry Pages: 1 -->
<svg width="711pt" height="215pt"
 viewBox="0.00 0.00 711.00 214.53" xmlns="http://www.w3.org/2000/svg" xmlns:xlink="http://www.w3.org/1999/xlink">
<g id="graph0" class="graph" transform="scale(1 1) rotate(0) translate(4 210.53)">
<title>Nuki::NukiBle::deleteKeypadEntry</title>
<!-- Node1 -->
<g id="Node000001" class="node">
<title>Node1</title>
<g id="a_Node000001"><a xlink:title="Delete a Keypad Entry.">
<polygon fill="#999999" stroke="#666666" points="138.25,-123.78 0,-123.78 0,-93.28 138.25,-93.28 138.25,-123.78"/>
<text text-anchor="start" x="8" y="-110.28" font-family="Helvetica,sans-Serif" font-size="10.00">Nuki::NukiBle::deleteKeypad</text>
<text text-anchor="middle" x="69.12" y="-99.03" font-family="Helvetica,sans-Serif" font-size="10.00">Entry</text>
</a>
</g>
</g>
<!-- Node2 -->
<g id="Node000002" class="node">
<title>Node2</title>
<g id="a_Node000002"><a xlink:href="class_nuki_1_1_nuki_ble.html#af1f1e299e8d97e053bba80e92ba285d6" target="_top" xlink:title=" ">
<polygon fill="white" stroke="#666666" points="315.5,-118.16 174.25,-118.16 174.25,-98.91 315.5,-98.91 315.5,-118.16"/>
<text text-anchor="middle" x="244.88" y="-104.66" font-family="Helvetica,sans-Serif" font-size="10.00">Nuki::NukiBle::executeAction</text>
</a>
</g>
</g>
<!-- Node1&#45;&gt;Node2 -->
<g id="edge1_Node000001_Node000002" class="edge">
<title>Node1&#45;&gt;Node2</title>
<g id="a_edge1_Node000001_Node000002"><a xlink:title=" ">
<path fill="none" stroke="#63b8ff" d="M138.3,-108.53C146.25,-108.53 154.41,-108.53 162.52,-108.53"/>
<polygon fill="#63b8ff" stroke="#63b8ff" points="162.39,-112.03 172.39,-108.53 162.39,-105.03 162.39,-112.03"/>
</a>
</g>
</g>
<!-- Node3 -->
<g id="Node000003" class="node">
<title>Node3</title>
<g id="a_Node000003"><a xlink:href="class_nuki_1_1_nuki_ble.html#ada0f3beebd95d35c122e25dd3f9eb886" target="_top" xlink:title=" ">
<polygon fill="white" stroke="#666666" points="499.5,-145.78 362,-145.78 362,-115.28 499.5,-115.28 499.5,-145.78"/>
<text text-anchor="start" x="370" y="-132.28" font-family="Helvetica,sans-Serif" font-size="10.00">Nuki::NukiBle::cmdChallAcc</text>
<text text-anchor="middle" x="430.75" y="-121.03" font-family="Helvetica,sans-Serif" font-size="10.00">StateMachine</text>
</a>
</g>
</g>
<!-- Node2&#45;&gt;Node3 -->
<g id="edge2_Node000002_Node000003" class="edge">
<title>Node2&#45;&gt;Node3</title>
<g id="a_edge2_Node000002_Node000003"><a xlink:title=" ">
<path fill="none" stroke="#63b8ff" d="M315.91,-116.91C327.18,-118.26 338.91,-119.66 350.38,-121.04"/>
<polygon fill="#63b8ff" stroke="#63b8ff" points="349.88,-124.5 360.22,-122.21 350.71,-117.55 349.88,-124.5"/>
</a>
</g>
</g>
<!-- Node4 -->
<g id="Node000004" class="node">
<title>Node4</title>
<g id="a_Node000004"><a xlink:href="class_nuki_1_1_nuki_ble.html#a6e8fca90c04249660dce6cb993eb4495" target="_top" xlink:title=" ">
<polygon fill="white" stroke="#666666" points="703,-186.78 546,-186.78 546,-156.28 703,-156.28 703,-186.78"/>
<text text-anchor="start" x="554" y="-173.28" font-family="Helvetica,sans-Serif" font-size="10.00">Nuki::NukiBle::extendDisconnect</text>
<text text-anchor="middle" x="624.5" y="-162.03" font-family="Helvetica,sans-Serif" font-size="10.00">Timeout</text>
</a>
</g>
</g>
<!-- Node2&#45;&gt;Node4 -->
<g id="edge15_Node000002_Node000004" class="edge">
<title>Node2&#45;&gt;Node4</title>
<g id="a_edge15_Node000002_Node000004"><a xlink:title=" ">
<path fill="none" stroke="#63b8ff" d="M254.16,-118.58C270.45,-137.45 308.81,-177.63 351.5,-192.53 420.88,-216.76 506.07,-203.9 562.43,-190.02"/>
<polygon fill="#63b8ff" stroke="#63b8ff" points="563.01,-193.48 571.83,-187.61 561.28,-186.7 563.01,-193.48"/>
</a>
</g>
</g>
<!-- Node5 -->
<g id="Node000005" class="node">
<title>Node5</title>
<g id="a_Node000005"><a xlink:href="class_nuki_1_1_nuki_ble.html#ac7ce691d9c3e586474655d1663eb2e20" target="_top" xlink:title=" ">
<polygon fill="white" stroke="#666666" points="690.62,-137.16 558.38,-137.16 558.38,-117.91 690.62,-117.91 690.62,-137.16"/>
<text text-anchor="middle" x="624.5" y="-123.66" font-family="Helvetica,sans-Serif" font-size="10.00">Nuki::NukiBle::logMessage</text>
</a>
</g>
</g>
<!-- Node2&#45;&gt;Node5 -->
<g id="edge16_Node000002_Node000005" class="edge">
<title>Node2&#45;&gt;Node5</title>
<g id="a_edge16_Node000002_Node000005"><a xlink:title=" ">
<path fill="none" stroke="#63b8ff" d="M315.76,-107.02C327.68,-106.82 339.95,-106.64 351.5,-106.53 421.94,-105.87 439.85,-100.1 510,-106.53 529.09,-108.28 549.76,-111.66 568.16,-115.2"/>
<polygon fill="#63b8ff" stroke="#63b8ff" points="567.32,-118.6 577.81,-117.12 568.68,-111.73 567.32,-118.6"/>
</a>
</g>
</g>
<!-- Node6 -->
<g id="Node000006" class="node">
<title>Node6</title>
<g id="a_Node000006"><a xlink:href="class_nuki_1_1_nuki_ble.html#af3650133f46aeca48a5f01b95d23ab71" target="_top" xlink:title=" ">
<polygon fill="white" stroke="#666666" points="698.12,-97.16 550.88,-97.16 550.88,-77.91 698.12,-77.91 698.12,-97.16"/>
<text text-anchor="middle" x="624.5" y="-83.66" font-family="Helvetica,sans-Serif" font-size="10.00">Nuki::NukiBle::logMessageVar</text>
</a>
</g>
</g>
<!-- Node2&#45;&gt;Node6 -->
<g id="edge17_Node000002_Node000006" class="edge">
<title>Node2&#45;&gt;Node6</title>
<g id="a_edge17_Node000002_Node000006"><a xlink:title=" ">
<path fill="none" stroke="#63b8ff" d="M253.55,-98.62C269.36,-79.14 307.74,-36.37 351.5,-20.53 417.74,3.44 446.17,9.27 510,-20.53 532.58,-31.08 525.25,-49.73 546,-63.53 551.85,-67.42 558.36,-70.71 565.05,-73.48"/>
<polygon fill="#63b8ff" stroke="#63b8ff" points="563.64,-76.69 574.24,-76.89 566.08,-70.13 563.64,-76.69"/>
</a>
</g>
</g>
<!-- Node7 -->
<g id="Node000007" class="node">
<title>Node7</title>
<g id="a_Node000007"><a xlink:href="class_nuki_1_1_nuki_ble.html#a59169a9f492793762e3c6ba39b611b07" target="_top" xlink:title=" ">
<polygon fill="white" stroke="#666666" points="502.5,-59.78 359,-59.78 359,-29.28 502.5,-29.28 502.5,-59.78"/>
<text text-anchor="start" x="367" y="-46.28" font-family="Helvetica,sans-Serif" font-size="10.00">Nuki::NukiBle::cmdChallState</text>
<text text-anchor="middle" x="430.75" y="-35.03" font-family="Helvetica,sans-Serif" font-size="10.00">Machine</text>
</a>
</g>
</g>
<!-- Node2&#45;&gt;Node7 -->
<g id="edge6_Node000002_Node000007" class="edge">
<title>Node2&#45;&gt;Node7</title>
<g id="a_edge6_Node000002_Node000007"><a xlink:title=" ">
<path fill="none" stroke="#63b8ff" d="M274.61,-98.53C301.1,-89.31 341.18,-75.36 373.96,-63.95"/>
<polygon fill="#63b8ff" stroke="#63b8ff" points="375.05,-67.28 383.34,-60.69 372.74,-60.67 375.05,-67.28"/>
</a>
</g>
</g>
<!-- Node9 -->
<g id="Node000009" class="node">
<title>Node9</title>
<g id="a_Node000009"><a xlink:href="class_nuki_1_1_nuki_ble.html#ad135bb1455665decfddff67772c1d411" target="_top" xlink:title=" ">
<polygon fill="white" stroke="#666666" points="510,-183.16 351.5,-183.16 351.5,-163.91 510,-163.91 510,-183.16"/>
<text text-anchor="middle" x="430.75" y="-169.66" font-family="Helvetica,sans-Serif" font-size="10.00">Nuki::NukiBle::cmdStateMachine</text>
</a>
</g>
</g>
<!-- Node2&#45;&gt;Node9 -->
<g id="edge11_Node000002_Node000009" class="edge">
<title>Node2&#45;&gt;Node9</title>
<g id="a_edge11_Node000002_Node000009"><a xlink:title=" ">
<path fill="none" stroke="#63b8ff" d="M266.11,-118.59C287.07,-128.72 320.98,-144.27 351.5,-154.53 358.02,-156.73 364.93,-158.78 371.83,-160.66"/>
<polygon fill="#63b8ff" stroke="#63b8ff" points="370.59,-163.96 381.15,-163.1 372.36,-157.19 370.59,-163.96"/>
</a>
</g>
</g>
<!-- Node3&#45;&gt;Node4 -->
<g id="edge3_Node000003_Node000004" class="edge">
<title>Node3&#45;&gt;Node4</title>
<g id="a_edge3_Node000003_Node000004"><a xlink:title=" ">
<path fill="none" stroke="#63b8ff" d="M499.89,-145.1C512.59,-147.82 526,-150.69 539.12,-153.49"/>
<polygon fill="#63b8ff" stroke="#63b8ff" points="538.06,-156.84 548.57,-155.51 539.52,-150 538.06,-156.84"/>
</a>
</g>
</g>
<!-- Node3&#45;&gt;Node5 -->
<g id="edge4_Node000003_Node000005" class="edge">
<title>Node3&#45;&gt;Node5</title>
<g id="a_edge4_Node000003_Node000005"><a xlink:title=" ">
<path fill="none" stroke="#63b8ff" d="M499.89,-129.47C515.14,-129.23 531.41,-128.97 546.97,-128.73"/>
<polygon fill="#63b8ff" stroke="#63b8ff" points="546.69,-132.24 556.63,-128.58 546.58,-125.24 546.69,-132.24"/>
</a>
</g>
</g>
<!-- Node3&#45;&gt;Node6 -->
<g id="edge5_Node000003_Node000006" class="edge">
<title>Node3&#45;&gt;Node6</title>
<g id="a_edge5_Node000003_Node000006"><a xlink:title=" ">
<path fill="none" stroke="#63b8ff" d="M499.89,-115.25C521.98,-110.3 546.2,-104.87 567.32,-100.13"/>
<polygon fill="#63b8ff" stroke="#63b8ff" points="567.9,-103.59 576.89,-97.99 566.36,-96.76 567.9,-103.59"/>
</a>
</g>
</g>
<!-- Node7&#45;&gt;Node4 -->
<g id="edge7_Node000007_Node000004" class="edge">
<title>Node7&#45;&gt;Node4</title>
<g id="a_edge7_Node000007_Node000004"><a xlink:title=" ">
<path fill="none" stroke="#63b8ff" d="M453.47,-60.19C469.63,-72.21 491.93,-89.57 510,-106.53 527.43,-122.91 525.93,-133.53 546,-146.53 548.39,-148.08 550.88,-149.54 553.44,-150.91"/>
<polygon fill="#63b8ff" stroke="#63b8ff" points="551.73,-153.97 562.26,-155.15 554.76,-147.66 551.73,-153.97"/>
</a>
</g>
</g>
<!-- Node7&#45;&gt;Node5 -->
<g id="edge9_Node000007_Node000005" class="edge">
<title>Node7&#45;&gt;Node5</title>
<g id="a_edge9_Node000007_Node000005"><a xlink:title=" ">
<path fill="none" stroke="#63b8ff" d="M482.77,-60.17C492.13,-63.94 501.59,-68.4 510,-73.53 528.52,-84.85 526.99,-96.06 546,-106.53 550.99,-109.28 556.35,-111.68 561.85,-113.78"/>
<polygon fill="#63b8ff" stroke="#63b8ff" points="560.5,-117.02 571.09,-116.97 562.78,-110.4 560.5,-117.02"/>
</a>
</g>
</g>
<!-- Node7&#45;&gt;Node6 -->
<g id="edge10_Node000007_Node000006" class="edge">
<title>Node7&#45;&gt;Node6</title>
<g id="a_edge10_Node000007_Node000006"><a xlink:title=" ">
<path fill="none" stroke="#63b8ff" d="M501.79,-60.24C523.36,-65.08 546.82,-70.34 567.34,-74.94"/>
<polygon fill="#63b8ff" stroke="#63b8ff" points="566.4,-78.32 576.92,-77.09 567.93,-71.49 566.4,-78.32"/>
</a>
</g>
</g>
<!-- Node8 -->
<g id="Node000008" class="node">
<title>Node8</title>
<g id="a_Node000008"><a xlink:href="class_nuki_1_1_nuki_ble.html#a25207bb564a4b54b8dd8c872177b53a7" target="_top" xlink:title="Returns if BLE is pairing/paired/connected with a Smart Lock Ultra.">
<polygon fill="white" stroke="#666666" points="689.5,-54.16 559.5,-54.16 559.5,-34.91 689.5,-34.91 689.5,-54.16"/>
<text text-anchor="middle" x="624.5" y="-40.66" font-family="Helvetica,sans-Serif" font-size="10.00">Nuki::NukiBle::isLockUltra</text>
</a>
</g>
</g>
<!-- Node7&#45;&gt;Node8 -->
<g id="edge8_Node000007_Node000008" class="edge">
<title>Node7&#45;&gt;Node8</title>
<g id="a_edge8_Node000007_Node000008"><a xlink:title=" ">
<path fill="none" stroke="#63b8ff" d="M502.88,-44.53C517.57,-44.53 533.1,-44.53 547.94,-44.53"/>
<polygon fill="#63b8ff" stroke="#63b8ff" points="547.62,-48.03 557.62,-44.53 547.62,-41.03 547.62,-48.03"/>
</a>
</g>
</g>
<!-- Node9&#45;&gt;Node4 -->
<g id="edge12_Node000009_Node000004" class="edge">
<title>Node9&#45;&gt;Node4</title>
<g id="a_edge12_Node000009_Node000004"><a xlink:title=" ">
<path fill="none" stroke="#63b8ff" d="M510.3,-172.71C518.24,-172.63 526.35,-172.55 534.39,-172.46"/>
<polygon fill="#63b8ff" stroke="#63b8ff" points="534.22,-175.96 544.18,-172.36 534.15,-168.97 534.22,-175.96"/>
</a>
</g>
</g>
<!-- Node9&#45;&gt;Node5 -->
<g id="edge13_Node000009_Node000005" class="edge">
<title>Node9&#45;&gt;Node5</title>
<g id="a_edge13_Node000009_Node000005"><a xlink:title=" ">
<path fill="none" stroke="#63b8ff" d="M473.83,-163.44C502.3,-156.61 540.14,-147.53 570.64,-140.21"/>
<polygon fill="#63b8ff" stroke="#63b8ff" points="571.14,-143.69 580.05,-137.96 569.51,-136.89 571.14,-143.69"/>
</a>
</g>
</g>
<!-- Node9&#45;&gt;Node6 -->
<g id="edge14_Node000009_Node000006" class="edge">
<title>Node9&#45;&gt;Node6</title>
<g id="a_edge14_Node000009_Node000006"><a xlink:title=" ">
<path fill="none" stroke="#63b8ff" d="M491.61,-163.49C498.08,-161.11 504.36,-158.17 510,-154.53 531.82,-140.47 524.37,-122.88 546,-108.53 549.75,-106.05 553.78,-103.85 557.97,-101.92"/>
<polygon fill="#63b8ff" stroke="#63b8ff" points="559.26,-105.17 567.22,-98.19 556.64,-98.68 559.26,-105.17"/>
</a>
</g>
</g>
</g>
</svg>
