<?xml version="1.0" encoding="UTF-8" standalone="no"?>
<!DOCTYPE svg PUBLIC "-//W3C//DTD SVG 1.1//EN"
 "http://www.w3.org/Graphics/SVG/1.1/DTD/svg11.dtd">
<!-- Generated by graphviz version 8.0.5 (20230430.1635)
 -->
<!-- Title: Nuki::NukiBle Pages: 1 -->
<svg width="246pt" height="83pt"
 viewBox="0.00 0.00 245.75 82.50" xmlns="http://www.w3.org/2000/svg" xmlns:xlink="http://www.w3.org/1999/xlink">
<g id="graph0" class="graph" transform="scale(1 1) rotate(0) translate(4 78.5)">
<title>Nuki::NukiBle</title>
<!-- Node1 -->
<g id="node1" class="node">
<title>Node1</title>
<g id="a_node1"><a xlink:title=" ">
<polygon fill="#999999" stroke="#666666" points="152.75,-19.25 77.5,-19.25 77.5,0 152.75,0 152.75,-19.25"/>
<text text-anchor="middle" x="115.12" y="-5.75" font-family="Helvetica,sans-Serif" font-size="10.00">Nuki::NukiBle</text>
</a>
</g>
</g>
<!-- Node2 -->
<g id="node2" class="node">
<title>Node2</title>
<g id="a_node2"><a xlink:title=" ">
<polygon fill="white" stroke="#666666" points="102.25,-74.5 0,-74.5 0,-55.25 102.25,-55.25 102.25,-74.5"/>
<text text-anchor="middle" x="51.12" y="-61" font-family="Helvetica,sans-Serif" font-size="10.00">BLEClientCallbacks</text>
</a>
</g>
</g>
<!-- Node2&#45;&gt;Node1 -->
<g id="edge1" class="edge">
<title>Node2&#45;&gt;Node1</title>
<path fill="none" stroke="#63b8ff" d="M70.28,-47.94C81.45,-38.64 95.14,-27.26 104.43,-19.52"/>
<polygon fill="#63b8ff" stroke="#63b8ff" points="68.43,-45.76 62.98,-54.84 72.91,-51.14 68.43,-45.76"/>
</g>
<!-- Node3 -->
<g id="node3" class="node">
<title>Node3</title>
<g id="a_node3"><a xlink:title=" ">
<polygon fill="white" stroke="#666666" points="237.75,-74.5 120.5,-74.5 120.5,-55.25 237.75,-55.25 237.75,-74.5"/>
<text text-anchor="middle" x="179.12" y="-61" font-family="Helvetica,sans-Serif" font-size="10.00">BleScanner::Subscriber</text>
</a>
</g>
</g>
<!-- Node3&#45;&gt;Node1 -->
<g id="edge2" class="edge">
<title>Node3&#45;&gt;Node1</title>
<path fill="none" stroke="#63b8ff" d="M159.97,-47.94C148.8,-38.64 135.11,-27.26 125.82,-19.52"/>
<polygon fill="#63b8ff" stroke="#63b8ff" points="157.34,-51.14 167.27,-54.84 161.82,-45.76 157.34,-51.14"/>
</g>
</g>
</svg>
