<?xml version="1.0" encoding="UTF-8" standalone="no"?>
<!DOCTYPE svg PUBLIC "-//W3C//DTD SVG 1.1//EN"
 "http://www.w3.org/Graphics/SVG/1.1/DTD/svg11.dtd">
<!-- Generated by graphviz version 5.0.1 (20220820.1526)
 -->
<!-- Title: Nuki::NukiBle::requestCalibration Pages: 1 -->
<!--zoomable 186 -->
<svg id="main" version="1.1" xmlns="http://www.w3.org/2000/svg" xmlns:xlink="http://www.w3.org/1999/xlink" xml:space="preserve" onload="init(evt)">
<style type="text/css"><![CDATA[
.edge:hover path { stroke: red; }
.edge:hover polygon { stroke: red; fill: red; }
]]></style>
<script type="text/javascript"><![CDATA[
var edges = document.getElementsByTagName('g');
if (edges && edges.length) {
  for (var i=0;i<edges.length;i++) {
    if (edges[i].id.substr(0,4)=='edge') {
      edges[i].setAttribute('class','edge');
    }
  }
}
]]></script>
        <defs>
                <circle id="rim" cx="0" cy="0" r="7"/>
                <circle id="rim2" cx="0" cy="0" r="3.5"/>
                <g id="zoomPlus">
                        <use xlink:href="#rim" fill="#404040">
                                <set attributeName="fill" to="#808080" begin="zoomplus.mouseover" end="zoomplus.mouseout"/>
                        </use>
                        <path d="M-4,0h8M0,-4v8" fill="none" stroke="white" stroke-width="1.5" pointer-events="none"/>
                </g>
                <g id="zoomMin">
                        <use xlink:href="#rim" fill="#404040">
                                <set attributeName="fill" to="#808080" begin="zoomminus.mouseover" end="zoomminus.mouseout"/>
                        </use>
                        <path d="M-4,0h8" fill="none" stroke="white" stroke-width="1.5" pointer-events="none"/>
                </g>
                <g id="dirArrow">
                        <path fill="none" stroke="white" stroke-width="1.5" d="M0,-3.0v7 M-2.5,-0.5L0,-3.0L2.5,-0.5"/>
                </g>
               <g id="resetDef">
                       <use xlink:href="#rim2" fill="#404040">
                               <set attributeName="fill" to="#808080" begin="reset.mouseover" end="reset.mouseout"/>
                       </use>
               </g>
        </defs>

<script type="text/javascript">
var viewWidth = 635;
var viewHeight = 186;
var sectionId = 'dynsection-15';
</script>
<script xlink:href="svgpan.js"/>
<svg id="graph" class="graph">
<g id="viewport">
<title>Nuki::NukiBle::requestCalibration</title>
<!-- Node1 -->
<g id="node1" class="node">
<title>Node1</title>
<g id="a_node1"><a xlink:title="Sends an calibration (mechanical) request to the lock via BLE.">
<polygon fill="#999999" stroke="#666666" points="192,-96.5 0,-96.5 0,-75.5 192,-75.5 192,-96.5"/>
<text text-anchor="middle" x="96" y="-82.9" font-family="Helvetica,sans-Serif" font-size="12.00">Nuki::NukiBle::requestCalibration</text>
</a>
</g>
</g>
<!-- Node2 -->
<g id="node2" class="node">
<title>Node2</title>
<g id="a_node2"><a xlink:href="class_nuki_1_1_nuki_ble.html#af1f1e299e8d97e053bba80e92ba285d6" target="_top" xlink:title=" ">
<polygon fill="white" stroke="#666666" points="399,-96.5 228,-96.5 228,-75.5 399,-75.5 399,-96.5"/>
<text text-anchor="middle" x="313.5" y="-82.9" font-family="Helvetica,sans-Serif" font-size="12.00">Nuki::NukiBle::executeAction</text>
</a>
</g>
</g>
<!-- Node1&#45;&gt;Node2 -->
<g id="edge1" class="edge">
<title>Node1&#45;&gt;Node2</title>
<path fill="none" stroke="#63b8ff" d="M192.15,-86C200.57,-86 209.09,-86 217.5,-86"/>
<polygon fill="#63b8ff" stroke="#63b8ff" points="217.7,-89.5 227.7,-86 217.7,-82.5 217.7,-89.5"/>
</g>
<!-- Node3 -->
<g id="node3" class="node">
<title>Node3</title>
<g id="a_node3"><a xlink:href="class_nuki_1_1_nuki_ble.html#ada0f3beebd95d35c122e25dd3f9eb886" target="_top" xlink:title=" ">
<polygon fill="white" stroke="#666666" points="613,-178 449,-178 449,-144 613,-144 613,-178"/>
<text text-anchor="start" x="457" y="-164.4" font-family="Helvetica,sans-Serif" font-size="12.00">Nuki::NukiBle::cmdChallAcc</text>
<text text-anchor="middle" x="531" y="-151.4" font-family="Helvetica,sans-Serif" font-size="12.00">StateMachine</text>
</a>
</g>
</g>
<!-- Node2&#45;&gt;Node3 -->
<g id="edge2" class="edge">
<title>Node2&#45;&gt;Node3</title>
<path fill="none" stroke="#63b8ff" d="M338.19,-96.61C362.26,-107.16 400.78,-123.4 435,-135 441.06,-137.05 447.37,-139.06 453.74,-140.99"/>
<polygon fill="#63b8ff" stroke="#63b8ff" points="453.18,-144.48 463.77,-143.96 455.17,-137.77 453.18,-144.48"/>
</g>
<!-- Node4 -->
<g id="node4" class="node">
<title>Node4</title>
<g id="a_node4"><a xlink:href="class_nuki_1_1_nuki_ble.html#a59169a9f492793762e3c6ba39b611b07" target="_top" xlink:title=" ">
<polygon fill="white" stroke="#666666" points="617,-126 445,-126 445,-92 617,-92 617,-126"/>
<text text-anchor="start" x="453" y="-112.4" font-family="Helvetica,sans-Serif" font-size="12.00">Nuki::NukiBle::cmdChallState</text>
<text text-anchor="middle" x="531" y="-99.4" font-family="Helvetica,sans-Serif" font-size="12.00">Machine</text>
</a>
</g>
</g>
<!-- Node2&#45;&gt;Node4 -->
<g id="edge3" class="edge">
<title>Node2&#45;&gt;Node4</title>
<path fill="none" stroke="#63b8ff" d="M399.05,-95.02C410.84,-96.28 423.03,-97.58 434.99,-98.86"/>
<polygon fill="#63b8ff" stroke="#63b8ff" points="434.67,-102.35 444.98,-99.93 435.41,-95.38 434.67,-102.35"/>
</g>
<!-- Node5 -->
<g id="node5" class="node">
<title>Node5</title>
<g id="a_node5"><a xlink:href="class_nuki_1_1_nuki_ble.html#ad135bb1455665decfddff67772c1d411" target="_top" xlink:title=" ">
<polygon fill="white" stroke="#666666" points="627,-73.5 435,-73.5 435,-52.5 627,-52.5 627,-73.5"/>
<text text-anchor="middle" x="531" y="-59.9" font-family="Helvetica,sans-Serif" font-size="12.00">Nuki::NukiBle::cmdStateMachine</text>
</a>
</g>
</g>
<!-- Node2&#45;&gt;Node5 -->
<g id="edge4" class="edge">
<title>Node2&#45;&gt;Node5</title>
<path fill="none" stroke="#63b8ff" d="M399.05,-76.98C407.53,-76.07 416.2,-75.15 424.86,-74.22"/>
<polygon fill="#63b8ff" stroke="#63b8ff" points="425.42,-77.68 434.99,-73.14 424.68,-70.72 425.42,-77.68"/>
</g>
<!-- Node6 -->
<g id="node6" class="node">
<title>Node6</title>
<g id="a_node6"><a xlink:href="class_nuki_1_1_nuki_ble.html#aed01f10d1ffa769f0f6fadc0d06d328e" target="_top" xlink:title=" ">
<polygon fill="white" stroke="#666666" points="623.5,-34 438.5,-34 438.5,0 623.5,0 623.5,-34"/>
<text text-anchor="start" x="446.5" y="-20.4" font-family="Helvetica,sans-Serif" font-size="12.00">Nuki::NukiBle::extendDisonnect</text>
<text text-anchor="middle" x="531" y="-7.4" font-family="Helvetica,sans-Serif" font-size="12.00">Timeout</text>
</a>
</g>
</g>
<!-- Node2&#45;&gt;Node6 -->
<g id="edge5" class="edge">
<title>Node2&#45;&gt;Node6</title>
<path fill="none" stroke="#63b8ff" d="M343.56,-75.34C367.87,-66.54 403.52,-53.95 435,-44 442.56,-41.61 450.48,-39.21 458.39,-36.87"/>
<polygon fill="#63b8ff" stroke="#63b8ff" points="459.4,-40.22 468.01,-34.05 457.43,-33.5 459.4,-40.22"/>
</g>
</g>
</svg>
        <g id="navigator" transform="translate(0 0)" fill="#404254">
                <rect fill="#f2f5e9" fill-opacity="0.5" stroke="#606060" stroke-width=".5" x="0" y="0" width="60" height="60"/>
                <use id="zoomplus" xlink:href="#zoomPlus" x="17" y="9" onmousedown="handleZoom(evt,'in')"/>
                <use id="zoomminus" xlink:href="#zoomMin" x="42" y="9" onmousedown="handleZoom(evt,'out')"/>
                <use id="reset" xlink:href="#resetDef" x="30" y="36" onmousedown="handleReset()"/>
                <g id="arrowUp" xlink:href="#dirArrow" transform="translate(30 24)" onmousedown="handlePan(0,-1)">
                  <use xlink:href="#rim" fill="#404040">
                        <set attributeName="fill" to="#808080" begin="arrowUp.mouseover" end="arrowUp.mouseout"/>
                  </use>
                  <path fill="none" stroke="white" stroke-width="1.5" d="M0,-3.0v7 M-2.5,-0.5L0,-3.0L2.5,-0.5"/>
                </g>
                <g id="arrowRight" xlink:href="#dirArrow" transform="rotate(90) translate(36 -43)" onmousedown="handlePan(1,0)">
                  <use xlink:href="#rim" fill="#404040">
                        <set attributeName="fill" to="#808080" begin="arrowRight.mouseover" end="arrowRight.mouseout"/>
                  </use>
                  <path fill="none" stroke="white" stroke-width="1.5" d="M0,-3.0v7 M-2.5,-0.5L0,-3.0L2.5,-0.5"/>
                </g>
                <g id="arrowDown" xlink:href="#dirArrow" transform="rotate(180) translate(-30 -48)" onmousedown="handlePan(0,1)">
                  <use xlink:href="#rim" fill="#404040">
                        <set attributeName="fill" to="#808080" begin="arrowDown.mouseover" end="arrowDown.mouseout"/>
                  </use>
                  <path fill="none" stroke="white" stroke-width="1.5" d="M0,-3.0v7 M-2.5,-0.5L0,-3.0L2.5,-0.5"/>
                </g>
                <g id="arrowLeft" xlink:href="#dirArrow" transform="rotate(270) translate(-36 17)" onmousedown="handlePan(-1,0)">
                  <use xlink:href="#rim" fill="#404040">
                        <set attributeName="fill" to="#808080" begin="arrowLeft.mouseover" end="arrowLeft.mouseout"/>
                  </use>
                  <path fill="none" stroke="white" stroke-width="1.5" d="M0,-3.0v7 M-2.5,-0.5L0,-3.0L2.5,-0.5"/>
                </g>
        </g>
        <svg viewBox="0 0 15 15" width="100%" height="30px" preserveAspectRatio="xMaxYMin meet">
         <g id="arrow_out" transform="scale(0.3 0.3)">
          <a xlink:href="class_nuki_1_1_nuki_ble_a5c80321a4355c9394be7a7de29133c7b_cgraph_org.svg" target="_base">
           <rect id="button" ry="5" rx="5" y="6" x="6" height="38" width="38"
                fill="#f2f5e9" fill-opacity="0.5" stroke="#606060" stroke-width="1.0"/>
           <path id="arrow"
             d="M 11.500037,31.436501 C 11.940474,20.09759 22.043105,11.32322 32.158766,21.979434 L 37.068811,17.246167 C 37.068811,17.246167 37.088388,32 37.088388,32 L 22.160133,31.978069 C 22.160133,31.978069 26.997745,27.140456 26.997745,27.140456 C 18.528582,18.264221 13.291696,25.230495 11.500037,31.436501 z"
             style="fill:#404040;"/>
          </a>
         </g>
        </svg>
</svg>
