<?xml version="1.0" encoding="UTF-8" standalone="no"?>
<!DOCTYPE svg PUBLIC "-//W3C//DTD SVG 1.1//EN"
 "http://www.w3.org/Graphics/SVG/1.1/DTD/svg11.dtd">
<!-- Generated by graphviz version 5.0.1 (20220820.1526)
 -->
<!-- Title: Nuki::NukiBle::updateTime Pages: 1 -->
<svg width="512pt" height="172pt"
 viewBox="0.00 0.00 512.00 172.00" xmlns="http://www.w3.org/2000/svg" xmlns:xlink="http://www.w3.org/1999/xlink">
<g id="graph0" class="graph" transform="scale(1 1) rotate(0) translate(4 168)">
<title>Nuki::NukiBle::updateTime</title>
<!-- Node1 -->
<g id="node1" class="node">
<title>Node1</title>
<g id="a_node1"><a xlink:title="Sends the time to be set to the lock via BLE.">
<polygon fill="#999999" stroke="#666666" points="131,-88.5 0,-88.5 0,-69.5 131,-69.5 131,-88.5"/>
<text text-anchor="middle" x="65.5" y="-76.5" font-family="Helvetica,sans-Serif" font-size="10.00">Nuki::NukiBle::updateTime</text>
</a>
</g>
</g>
<!-- Node2 -->
<g id="node2" class="node">
<title>Node2</title>
<g id="a_node2"><a xlink:href="class_nuki_1_1_nuki_ble.html#af1f1e299e8d97e053bba80e92ba285d6" target="_top" xlink:title=" ">
<polygon fill="white" stroke="#666666" points="309,-88.5 167,-88.5 167,-69.5 309,-69.5 309,-88.5"/>
<text text-anchor="middle" x="238" y="-76.5" font-family="Helvetica,sans-Serif" font-size="10.00">Nuki::NukiBle::executeAction</text>
</a>
</g>
</g>
<!-- Node1&#45;&gt;Node2 -->
<g id="edge1" class="edge">
<title>Node1&#45;&gt;Node2</title>
<path fill="none" stroke="#63b8ff" d="M131.45,-79C139.67,-79 148.17,-79 156.61,-79"/>
<polygon fill="#63b8ff" stroke="#63b8ff" points="156.84,-82.5 166.84,-79 156.84,-75.5 156.84,-82.5"/>
</g>
<!-- Node3 -->
<g id="node3" class="node">
<title>Node3</title>
<g id="a_node3"><a xlink:href="class_nuki_1_1_nuki_ble.html#ada0f3beebd95d35c122e25dd3f9eb886" target="_top" xlink:title=" ">
<polygon fill="white" stroke="#666666" points="493.5,-164 355.5,-164 355.5,-134 493.5,-134 493.5,-164"/>
<text text-anchor="start" x="363.5" y="-152" font-family="Helvetica,sans-Serif" font-size="10.00">Nuki::NukiBle::cmdChallAcc</text>
<text text-anchor="middle" x="424.5" y="-141" font-family="Helvetica,sans-Serif" font-size="10.00">StateMachine</text>
</a>
</g>
</g>
<!-- Node2&#45;&gt;Node3 -->
<g id="edge2" class="edge">
<title>Node2&#45;&gt;Node3</title>
<path fill="none" stroke="#63b8ff" d="M259.05,-88.51C280.16,-98.33 314.51,-113.76 345,-125 350.4,-126.99 356.04,-128.95 361.73,-130.83"/>
<polygon fill="#63b8ff" stroke="#63b8ff" points="360.7,-134.18 371.29,-133.94 362.86,-127.52 360.7,-134.18"/>
</g>
<!-- Node4 -->
<g id="node4" class="node">
<title>Node4</title>
<g id="a_node4"><a xlink:href="class_nuki_1_1_nuki_ble.html#a59169a9f492793762e3c6ba39b611b07" target="_top" xlink:title=" ">
<polygon fill="white" stroke="#666666" points="496.5,-116 352.5,-116 352.5,-86 496.5,-86 496.5,-116"/>
<text text-anchor="start" x="360.5" y="-104" font-family="Helvetica,sans-Serif" font-size="10.00">Nuki::NukiBle::cmdChallState</text>
<text text-anchor="middle" x="424.5" y="-93" font-family="Helvetica,sans-Serif" font-size="10.00">Machine</text>
</a>
</g>
</g>
<!-- Node2&#45;&gt;Node4 -->
<g id="edge3" class="edge">
<title>Node2&#45;&gt;Node4</title>
<path fill="none" stroke="#63b8ff" d="M309.01,-87.35C319.86,-88.64 331.15,-89.99 342.22,-91.31"/>
<polygon fill="#63b8ff" stroke="#63b8ff" points="341.96,-94.8 352.31,-92.51 342.79,-87.85 341.96,-94.8"/>
</g>
<!-- Node5 -->
<g id="node5" class="node">
<title>Node5</title>
<g id="a_node5"><a xlink:href="class_nuki_1_1_nuki_ble.html#ad135bb1455665decfddff67772c1d411" target="_top" xlink:title=" ">
<polygon fill="white" stroke="#666666" points="504,-67.5 345,-67.5 345,-48.5 504,-48.5 504,-67.5"/>
<text text-anchor="middle" x="424.5" y="-55.5" font-family="Helvetica,sans-Serif" font-size="10.00">Nuki::NukiBle::cmdStateMachine</text>
</a>
</g>
</g>
<!-- Node2&#45;&gt;Node5 -->
<g id="edge4" class="edge">
<title>Node2&#45;&gt;Node5</title>
<path fill="none" stroke="#63b8ff" d="M309.01,-71.03C317.44,-70.07 326.13,-69.08 334.78,-68.1"/>
<polygon fill="#63b8ff" stroke="#63b8ff" points="335.35,-71.56 344.89,-66.95 334.56,-64.6 335.35,-71.56"/>
</g>
<!-- Node6 -->
<g id="node6" class="node">
<title>Node6</title>
<g id="a_node6"><a xlink:href="class_nuki_1_1_nuki_ble.html#aed01f10d1ffa769f0f6fadc0d06d328e" target="_top" xlink:title=" ">
<polygon fill="white" stroke="#666666" points="500.5,-30 348.5,-30 348.5,0 500.5,0 500.5,-30"/>
<text text-anchor="start" x="356.5" y="-18" font-family="Helvetica,sans-Serif" font-size="10.00">Nuki::NukiBle::extendDisonnect</text>
<text text-anchor="middle" x="424.5" y="-7" font-family="Helvetica,sans-Serif" font-size="10.00">Timeout</text>
</a>
</g>
</g>
<!-- Node2&#45;&gt;Node6 -->
<g id="edge5" class="edge">
<title>Node2&#45;&gt;Node6</title>
<path fill="none" stroke="#63b8ff" d="M264.16,-69.39C285.57,-61.29 317.18,-49.54 345,-40 351.54,-37.76 358.42,-35.47 365.26,-33.23"/>
<polygon fill="#63b8ff" stroke="#63b8ff" points="366.8,-36.41 375.23,-30 364.64,-29.75 366.8,-36.41"/>
</g>
</g>
</svg>
