<?xml version="1.0" encoding="UTF-8" standalone="no"?>
<!DOCTYPE svg PUBLIC "-//W3C//DTD SVG 1.1//EN"
 "http://www.w3.org/Graphics/SVG/1.1/DTD/svg11.dtd">
<!-- Generated by graphviz version 12.2.1 (20241206.2353)
 -->
<!-- Title: Nuki::NukiBle::requestCalibration Pages: 1 -->
<svg width="731pt" height="223pt"
 viewBox="0.00 0.00 730.50 222.81" xmlns="http://www.w3.org/2000/svg" xmlns:xlink="http://www.w3.org/1999/xlink">
<g id="graph0" class="graph" transform="scale(1 1) rotate(0) translate(4 218.81)">
<title>Nuki::NukiBle::requestCalibration</title>
<!-- Node1 -->
<g id="Node000001" class="node">
<title>Node1</title>
<g id="a_Node000001"><a xlink:title="Sends an calibration (mechanical) request to the lock via BLE.">
<polygon fill="#999999" stroke="#666666" points="157.75,-44.84 0,-44.84 0,-25.59 157.75,-25.59 157.75,-44.84"/>
<text text-anchor="middle" x="78.88" y="-31.34" font-family="Helvetica,sans-Serif" font-size="10.00">Nuki::NukiBle::requestCalibration</text>
</a>
</g>
</g>
<!-- Node2 -->
<g id="Node000002" class="node">
<title>Node2</title>
<g id="a_Node000002"><a xlink:href="class_nuki_1_1_nuki_ble.html#af1f1e299e8d97e053bba80e92ba285d6" target="_top" xlink:title=" ">
<polygon fill="white" stroke="#666666" points="335,-109.84 193.75,-109.84 193.75,-90.59 335,-90.59 335,-109.84"/>
<text text-anchor="middle" x="264.38" y="-96.34" font-family="Helvetica,sans-Serif" font-size="10.00">Nuki::NukiBle::executeAction</text>
</a>
</g>
</g>
<!-- Node1&#45;&gt;Node2 -->
<g id="edge1_Node000001_Node000002" class="edge">
<title>Node1&#45;&gt;Node2</title>
<g id="a_edge1_Node000001_Node000002"><a xlink:title=" ">
<path fill="none" stroke="#63b8ff" d="M108.14,-45.23C139.26,-56.25 189.48,-74.04 224.34,-86.39"/>
<polygon fill="#63b8ff" stroke="#63b8ff" points="223.05,-89.64 233.65,-89.68 225.39,-83.04 223.05,-89.64"/>
</a>
</g>
</g>
<!-- Node5 -->
<g id="Node000005" class="node">
<title>Node5</title>
<g id="a_Node000005"><a xlink:href="class_nuki_1_1_nuki_ble.html#ac7ce691d9c3e586474655d1663eb2e20" target="_top" xlink:title=" ">
<polygon fill="white" stroke="#666666" points="710.12,-60.84 577.88,-60.84 577.88,-41.59 710.12,-41.59 710.12,-60.84"/>
<text text-anchor="middle" x="644" y="-47.34" font-family="Helvetica,sans-Serif" font-size="10.00">Nuki::NukiBle::logMessage</text>
</a>
</g>
</g>
<!-- Node1&#45;&gt;Node5 -->
<g id="edge17_Node000001_Node000005" class="edge">
<title>Node1&#45;&gt;Node5</title>
<g id="a_edge17_Node000001_Node000005"><a xlink:title=" ">
<path fill="none" stroke="#63b8ff" d="M131.21,-25.13C215.16,-10.28 386.76,13.2 529.5,-11.21 557.86,-16.06 588.56,-27.27 610.87,-36.6"/>
<polygon fill="#63b8ff" stroke="#63b8ff" points="609.45,-39.79 620.02,-40.52 612.21,-33.36 609.45,-39.79"/>
</a>
</g>
</g>
<!-- Node3 -->
<g id="Node000003" class="node">
<title>Node3</title>
<g id="a_Node000003"><a xlink:href="class_nuki_1_1_nuki_ble.html#ada0f3beebd95d35c122e25dd3f9eb886" target="_top" xlink:title=" ">
<polygon fill="white" stroke="#666666" points="519,-115.46 381.5,-115.46 381.5,-84.96 519,-84.96 519,-115.46"/>
<text text-anchor="start" x="389.5" y="-101.96" font-family="Helvetica,sans-Serif" font-size="10.00">Nuki::NukiBle::cmdChallAcc</text>
<text text-anchor="middle" x="450.25" y="-90.71" font-family="Helvetica,sans-Serif" font-size="10.00">StateMachine</text>
</a>
</g>
</g>
<!-- Node2&#45;&gt;Node3 -->
<g id="edge2_Node000002_Node000003" class="edge">
<title>Node2&#45;&gt;Node3</title>
<g id="a_edge2_Node000002_Node000003"><a xlink:title=" ">
<path fill="none" stroke="#63b8ff" d="M335.41,-100.21C346.68,-100.21 358.41,-100.21 369.88,-100.21"/>
<polygon fill="#63b8ff" stroke="#63b8ff" points="369.71,-103.71 379.71,-100.21 369.71,-96.71 369.71,-103.71"/>
</a>
</g>
</g>
<!-- Node4 -->
<g id="Node000004" class="node">
<title>Node4</title>
<g id="a_Node000004"><a xlink:href="class_nuki_1_1_nuki_ble.html#a6e8fca90c04249660dce6cb993eb4495" target="_top" xlink:title=" ">
<polygon fill="white" stroke="#666666" points="722.5,-186.46 565.5,-186.46 565.5,-155.96 722.5,-155.96 722.5,-186.46"/>
<text text-anchor="start" x="573.5" y="-172.96" font-family="Helvetica,sans-Serif" font-size="10.00">Nuki::NukiBle::extendDisconnect</text>
<text text-anchor="middle" x="644" y="-161.71" font-family="Helvetica,sans-Serif" font-size="10.00">Timeout</text>
</a>
</g>
</g>
<!-- Node2&#45;&gt;Node4 -->
<g id="edge14_Node000002_Node000004" class="edge">
<title>Node2&#45;&gt;Node4</title>
<g id="a_edge14_Node000002_Node000004"><a xlink:title=" ">
<path fill="none" stroke="#63b8ff" d="M271.81,-110.11C286.39,-131.51 324.31,-181.62 371,-200.21 444,-229.29 536.27,-208.66 592.4,-190.44"/>
<polygon fill="#63b8ff" stroke="#63b8ff" points="593.32,-193.82 601.69,-187.32 591.1,-187.18 593.32,-193.82"/>
</a>
</g>
</g>
<!-- Node2&#45;&gt;Node5 -->
<g id="edge15_Node000002_Node000005" class="edge">
<title>Node2&#45;&gt;Node5</title>
<g id="a_edge15_Node000002_Node000005"><a xlink:title=" ">
<path fill="none" stroke="#63b8ff" d="M275.31,-90.14C292.78,-73.21 330.99,-39.69 371,-27.21 450.01,-2.57 547.75,-22.7 601.94,-38"/>
<polygon fill="#63b8ff" stroke="#63b8ff" points="600.78,-41.31 611.36,-40.75 602.74,-34.59 600.78,-41.31"/>
</a>
</g>
</g>
<!-- Node6 -->
<g id="Node000006" class="node">
<title>Node6</title>
<g id="a_Node000006"><a xlink:href="class_nuki_1_1_nuki_ble.html#af3650133f46aeca48a5f01b95d23ab71" target="_top" xlink:title=" ">
<polygon fill="white" stroke="#666666" points="717.62,-118.84 570.38,-118.84 570.38,-99.59 717.62,-99.59 717.62,-118.84"/>
<text text-anchor="middle" x="644" y="-105.34" font-family="Helvetica,sans-Serif" font-size="10.00">Nuki::NukiBle::logMessageVar</text>
</a>
</g>
</g>
<!-- Node2&#45;&gt;Node6 -->
<g id="edge16_Node000002_Node000006" class="edge">
<title>Node2&#45;&gt;Node6</title>
<g id="a_edge16_Node000002_Node000006"><a xlink:title=" ">
<path fill="none" stroke="#63b8ff" d="M300.73,-110.33C321.09,-115.62 347.27,-121.55 371,-124.21 441.01,-132.07 459.21,-128.84 529.5,-124.21 541.5,-123.42 554.16,-122.17 566.51,-120.72"/>
<polygon fill="#63b8ff" stroke="#63b8ff" points="566.73,-124.21 576.22,-119.52 565.87,-117.27 566.73,-124.21"/>
</a>
</g>
</g>
<!-- Node7 -->
<g id="Node000007" class="node">
<title>Node7</title>
<g id="a_Node000007"><a xlink:href="class_nuki_1_1_nuki_ble.html#a59169a9f492793762e3c6ba39b611b07" target="_top" xlink:title=" ">
<polygon fill="white" stroke="#666666" points="522,-66.46 378.5,-66.46 378.5,-35.96 522,-35.96 522,-66.46"/>
<text text-anchor="start" x="386.5" y="-52.96" font-family="Helvetica,sans-Serif" font-size="10.00">Nuki::NukiBle::cmdChallState</text>
<text text-anchor="middle" x="450.25" y="-41.71" font-family="Helvetica,sans-Serif" font-size="10.00">Machine</text>
</a>
</g>
</g>
<!-- Node2&#45;&gt;Node7 -->
<g id="edge6_Node000002_Node000007" class="edge">
<title>Node2&#45;&gt;Node7</title>
<g id="a_edge6_Node000002_Node000007"><a xlink:title=" ">
<path fill="none" stroke="#63b8ff" d="M303.03,-90.18C325,-84.32 353.42,-76.75 379.35,-69.84"/>
<polygon fill="#63b8ff" stroke="#63b8ff" points="380.06,-73.27 388.82,-67.32 378.26,-66.51 380.06,-73.27"/>
</a>
</g>
</g>
<!-- Node8 -->
<g id="Node000008" class="node">
<title>Node8</title>
<g id="a_Node000008"><a xlink:href="class_nuki_1_1_nuki_ble.html#ad135bb1455665decfddff67772c1d411" target="_top" xlink:title=" ">
<polygon fill="white" stroke="#666666" points="529.5,-190.84 371,-190.84 371,-171.59 529.5,-171.59 529.5,-190.84"/>
<text text-anchor="middle" x="450.25" y="-177.34" font-family="Helvetica,sans-Serif" font-size="10.00">Nuki::NukiBle::cmdStateMachine</text>
</a>
</g>
</g>
<!-- Node2&#45;&gt;Node8 -->
<g id="edge10_Node000002_Node000008" class="edge">
<title>Node2&#45;&gt;Node8</title>
<g id="a_edge10_Node000002_Node000008"><a xlink:title=" ">
<path fill="none" stroke="#63b8ff" d="M281.35,-110.13C301.62,-122.41 337.94,-143.38 371,-157.21 380.24,-161.08 390.32,-164.63 400.08,-167.76"/>
<polygon fill="#63b8ff" stroke="#63b8ff" points="398.87,-171.05 409.46,-170.65 400.93,-164.36 398.87,-171.05"/>
</a>
</g>
</g>
<!-- Node3&#45;&gt;Node4 -->
<g id="edge3_Node000003_Node000004" class="edge">
<title>Node3&#45;&gt;Node4</title>
<g id="a_edge3_Node000003_Node000004"><a xlink:title=" ">
<path fill="none" stroke="#63b8ff" d="M493.33,-115.79C521.83,-126.35 559.71,-140.37 590.23,-151.67"/>
<polygon fill="#63b8ff" stroke="#63b8ff" points="588.67,-154.83 599.27,-155.02 591.11,-148.27 588.67,-154.83"/>
</a>
</g>
</g>
<!-- Node3&#45;&gt;Node5 -->
<g id="edge4_Node000003_Node000005" class="edge">
<title>Node3&#45;&gt;Node5</title>
<g id="a_edge4_Node000003_Node000005"><a xlink:title=" ">
<path fill="none" stroke="#63b8ff" d="M512.71,-84.51C538.55,-77.9 568.23,-70.32 592.74,-64.06"/>
<polygon fill="#63b8ff" stroke="#63b8ff" points="593.31,-67.52 602.13,-61.66 591.57,-60.74 593.31,-67.52"/>
</a>
</g>
</g>
<!-- Node3&#45;&gt;Node6 -->
<g id="edge5_Node000003_Node000006" class="edge">
<title>Node3&#45;&gt;Node6</title>
<g id="a_edge5_Node000003_Node000006"><a xlink:title=" ">
<path fill="none" stroke="#63b8ff" d="M519.39,-103.41C532.05,-104.01 545.41,-104.63 558.48,-105.25"/>
<polygon fill="#63b8ff" stroke="#63b8ff" points="558.21,-108.74 568.36,-105.71 558.54,-101.74 558.21,-108.74"/>
</a>
</g>
</g>
<!-- Node7&#45;&gt;Node4 -->
<g id="edge7_Node000007_Node000004" class="edge">
<title>Node7&#45;&gt;Node4</title>
<g id="a_edge7_Node000007_Node000004"><a xlink:title=" ">
<path fill="none" stroke="#63b8ff" d="M513.78,-66.94C519.34,-69.58 524.69,-72.65 529.5,-76.21 552.09,-92.94 544.66,-109.34 565.5,-128.21 574.76,-136.6 585.93,-143.98 596.88,-150.17"/>
<polygon fill="#63b8ff" stroke="#63b8ff" points="595.01,-153.14 605.48,-154.79 598.32,-146.97 595.01,-153.14"/>
</a>
</g>
</g>
<!-- Node7&#45;&gt;Node5 -->
<g id="edge8_Node000007_Node000005" class="edge">
<title>Node7&#45;&gt;Node5</title>
<g id="a_edge8_Node000007_Node000005"><a xlink:title=" ">
<path fill="none" stroke="#63b8ff" d="M522.38,-51.21C536.59,-51.21 551.58,-51.21 565.98,-51.21"/>
<polygon fill="#63b8ff" stroke="#63b8ff" points="565.87,-54.71 575.87,-51.21 565.87,-47.71 565.87,-54.71"/>
</a>
</g>
</g>
<!-- Node7&#45;&gt;Node6 -->
<g id="edge9_Node000007_Node000006" class="edge">
<title>Node7&#45;&gt;Node6</title>
<g id="a_edge9_Node000007_Node000006"><a xlink:title=" ">
<path fill="none" stroke="#63b8ff" d="M503.14,-66.91C533.1,-75.97 570.38,-87.25 598.92,-95.88"/>
<polygon fill="#63b8ff" stroke="#63b8ff" points="597.75,-99.18 608.33,-98.73 599.77,-92.48 597.75,-99.18"/>
</a>
</g>
</g>
<!-- Node8&#45;&gt;Node4 -->
<g id="edge11_Node000008_Node000004" class="edge">
<title>Node8&#45;&gt;Node4</title>
<g id="a_edge11_Node000008_Node000004"><a xlink:title=" ">
<path fill="none" stroke="#63b8ff" d="M529.8,-177.12C537.74,-176.7 545.85,-176.28 553.89,-175.86"/>
<polygon fill="#63b8ff" stroke="#63b8ff" points="553.88,-179.37 563.69,-175.35 553.52,-172.38 553.88,-179.37"/>
</a>
</g>
</g>
<!-- Node8&#45;&gt;Node5 -->
<g id="edge12_Node000008_Node000005" class="edge">
<title>Node8&#45;&gt;Node5</title>
<g id="a_edge12_Node000008_Node000005"><a xlink:title=" ">
<path fill="none" stroke="#63b8ff" d="M466.09,-171.24C482.15,-160.27 508.3,-141.83 529.5,-124.21 546.43,-110.15 547.48,-102.85 565.5,-90.21 578.77,-80.91 594.57,-72.54 608.43,-65.96"/>
<polygon fill="#63b8ff" stroke="#63b8ff" points="609.59,-69.28 617.21,-61.92 606.66,-62.92 609.59,-69.28"/>
</a>
</g>
</g>
<!-- Node8&#45;&gt;Node6 -->
<g id="edge13_Node000008_Node000006" class="edge">
<title>Node8&#45;&gt;Node6</title>
<g id="a_edge13_Node000008_Node000006"><a xlink:title=" ">
<path fill="none" stroke="#63b8ff" d="M486.95,-171.1C500.39,-167.08 515.75,-162.22 529.5,-157.21 557.32,-147.09 588.22,-133.89 610.75,-123.9"/>
<polygon fill="#63b8ff" stroke="#63b8ff" points="612,-127.17 619.7,-119.89 609.14,-120.78 612,-127.17"/>
</a>
</g>
</g>
</g>
</svg>
