<?xml version="1.0" encoding="UTF-8" standalone="no"?>
<!DOCTYPE svg PUBLIC "-//W3C//DTD SVG 1.1//EN"
 "http://www.w3.org/Graphics/SVG/1.1/DTD/svg11.dtd">
<!-- Generated by graphviz version 7.0.5 (20221223.1930)
 -->
<!-- Title: Nuki::NukiBle::requestReboot Pages: 1 -->
<svg width="524pt" height="172pt"
 viewBox="0.00 0.00 524.00 172.00" xmlns="http://www.w3.org/2000/svg" xmlns:xlink="http://www.w3.org/1999/xlink">
<g id="graph0" class="graph" transform="scale(1 1) rotate(0) translate(4 168)">
<title>Nuki::NukiBle::requestReboot</title>
<!-- Node1 -->
<g id="node1" class="node">
<title>Node1</title>
<g id="a_node1"><a xlink:title="Sends an reboot request to the lock via BLE.">
<polygon fill="#999999" stroke="#666666" points="143,-88.5 0,-88.5 0,-69.5 143,-69.5 143,-88.5"/>
<text text-anchor="middle" x="71.5" y="-76.5" font-family="Helvetica,sans-Serif" font-size="10.00">Nuki::NukiBle::requestReboot</text>
</a>
</g>
</g>
<!-- Node2 -->
<g id="node2" class="node">
<title>Node2</title>
<g id="a_node2"><a xlink:href="class_nuki_1_1_nuki_ble.html#af1f1e299e8d97e053bba80e92ba285d6" target="_top" xlink:title=" ">
<polygon fill="white" stroke="#666666" points="321,-88.5 179,-88.5 179,-69.5 321,-69.5 321,-88.5"/>
<text text-anchor="middle" x="250" y="-76.5" font-family="Helvetica,sans-Serif" font-size="10.00">Nuki::NukiBle::executeAction</text>
</a>
</g>
</g>
<!-- Node1&#45;&gt;Node2 -->
<g id="edge1" class="edge">
<title>Node1&#45;&gt;Node2</title>
<path fill="none" stroke="#63b8ff" d="M143.27,-79C151.22,-79 159.37,-79 167.45,-79"/>
<polygon fill="#63b8ff" stroke="#63b8ff" points="167.27,-82.5 177.27,-79 167.27,-75.5 167.27,-82.5"/>
</g>
<!-- Node3 -->
<g id="node3" class="node">
<title>Node3</title>
<g id="a_node3"><a xlink:href="class_nuki_1_1_nuki_ble.html#ada0f3beebd95d35c122e25dd3f9eb886" target="_top" xlink:title=" ">
<polygon fill="white" stroke="#666666" points="505.5,-164 367.5,-164 367.5,-134 505.5,-134 505.5,-164"/>
<text text-anchor="start" x="375.5" y="-152" font-family="Helvetica,sans-Serif" font-size="10.00">Nuki::NukiBle::cmdChallAcc</text>
<text text-anchor="middle" x="436.5" y="-141" font-family="Helvetica,sans-Serif" font-size="10.00">StateMachine</text>
</a>
</g>
</g>
<!-- Node2&#45;&gt;Node3 -->
<g id="edge2" class="edge">
<title>Node2&#45;&gt;Node3</title>
<path fill="none" stroke="#63b8ff" d="M271.83,-88.87C293.01,-98.71 326.88,-113.9 357,-125 361.64,-126.71 366.46,-128.4 371.33,-130.03"/>
<polygon fill="#63b8ff" stroke="#63b8ff" points="369.99,-133.28 380.59,-133.07 372.17,-126.63 369.99,-133.28"/>
</g>
<!-- Node4 -->
<g id="node4" class="node">
<title>Node4</title>
<g id="a_node4"><a xlink:href="class_nuki_1_1_nuki_ble.html#a59169a9f492793762e3c6ba39b611b07" target="_top" xlink:title=" ">
<polygon fill="white" stroke="#666666" points="508.5,-116 364.5,-116 364.5,-86 508.5,-86 508.5,-116"/>
<text text-anchor="start" x="372.5" y="-104" font-family="Helvetica,sans-Serif" font-size="10.00">Nuki::NukiBle::cmdChallState</text>
<text text-anchor="middle" x="436.5" y="-93" font-family="Helvetica,sans-Serif" font-size="10.00">Machine</text>
</a>
</g>
</g>
<!-- Node2&#45;&gt;Node4 -->
<g id="edge3" class="edge">
<title>Node2&#45;&gt;Node4</title>
<path fill="none" stroke="#63b8ff" d="M321.28,-87.38C331.6,-88.61 342.31,-89.89 352.85,-91.14"/>
<polygon fill="#63b8ff" stroke="#63b8ff" points="352.35,-94.61 362.69,-92.32 353.18,-87.66 352.35,-94.61"/>
</g>
<!-- Node5 -->
<g id="node5" class="node">
<title>Node5</title>
<g id="a_node5"><a xlink:href="class_nuki_1_1_nuki_ble.html#ad135bb1455665decfddff67772c1d411" target="_top" xlink:title=" ">
<polygon fill="white" stroke="#666666" points="516,-67.5 357,-67.5 357,-48.5 516,-48.5 516,-67.5"/>
<text text-anchor="middle" x="436.5" y="-55.5" font-family="Helvetica,sans-Serif" font-size="10.00">Nuki::NukiBle::cmdStateMachine</text>
</a>
</g>
</g>
<!-- Node2&#45;&gt;Node5 -->
<g id="edge4" class="edge">
<title>Node2&#45;&gt;Node5</title>
<path fill="none" stroke="#63b8ff" d="M321.28,-71C329.17,-70.1 337.29,-69.18 345.38,-68.26"/>
<polygon fill="#63b8ff" stroke="#63b8ff" points="345.75,-71.74 355.29,-67.13 344.95,-64.78 345.75,-71.74"/>
</g>
<!-- Node6 -->
<g id="node6" class="node">
<title>Node6</title>
<g id="a_node6"><a xlink:href="class_nuki_1_1_nuki_ble.html#aed01f10d1ffa769f0f6fadc0d06d328e" target="_top" xlink:title=" ">
<polygon fill="white" stroke="#666666" points="512.5,-30 360.5,-30 360.5,0 512.5,0 512.5,-30"/>
<text text-anchor="start" x="368.5" y="-18" font-family="Helvetica,sans-Serif" font-size="10.00">Nuki::NukiBle::extendDisonnect</text>
<text text-anchor="middle" x="436.5" y="-7" font-family="Helvetica,sans-Serif" font-size="10.00">Timeout</text>
</a>
</g>
</g>
<!-- Node2&#45;&gt;Node6 -->
<g id="edge5" class="edge">
<title>Node2&#45;&gt;Node6</title>
<path fill="none" stroke="#63b8ff" d="M277.02,-69.06C298.41,-60.98 329.55,-49.42 357,-40 362.83,-38 368.93,-35.96 375.04,-33.96"/>
<polygon fill="#63b8ff" stroke="#63b8ff" points="376.11,-37.29 384.54,-30.87 373.95,-30.63 376.11,-37.29"/>
</g>
</g>
</svg>
