<?xml version="1.0" encoding="UTF-8" standalone="no"?>
<!DOCTYPE svg PUBLIC "-//W3C//DTD SVG 1.1//EN"
 "http://www.w3.org/Graphics/SVG/1.1/DTD/svg11.dtd">
<!-- Generated by graphviz version 12.2.1 (20241206.2353)
 -->
<!-- Title: NukiLock::NukiLock::setNightModeStartTime Pages: 1 -->
<svg width="856pt" height="215pt"
 viewBox="0.00 0.00 856.00 214.53" xmlns="http://www.w3.org/2000/svg" xmlns:xlink="http://www.w3.org/1999/xlink">
<g id="graph0" class="graph" transform="scale(1 1) rotate(0) translate(4 210.53)">
<title>NukiLock::NukiLock::setNightModeStartTime</title>
<!-- Node1 -->
<g id="Node000001" class="node">
<title>Node1</title>
<g id="a_Node000001"><a xlink:title="Gets the current config from the lock, updates the night mode start time parameter and sends the new ...">
<polygon fill="#999999" stroke="#666666" points="124,-123.78 0,-123.78 0,-93.28 124,-93.28 124,-123.78"/>
<text text-anchor="start" x="8" y="-110.28" font-family="Helvetica,sans-Serif" font-size="10.00">NukiLock::NukiLock</text>
<text text-anchor="middle" x="62" y="-99.03" font-family="Helvetica,sans-Serif" font-size="10.00">::setNightModeStartTime</text>
</a>
</g>
</g>
<!-- Node2 -->
<g id="Node000002" class="node">
<title>Node2</title>
<g id="a_Node000002"><a xlink:href="class_nuki_lock_1_1_nuki_lock.html#aa882f9b3256313bbd45b4269f8c74521" target="_top" xlink:title="Requests advanced config from Lock via BLE.">
<polygon fill="white" stroke="#666666" points="283.25,-123.78 160,-123.78 160,-93.28 283.25,-93.28 283.25,-123.78"/>
<text text-anchor="start" x="168" y="-110.28" font-family="Helvetica,sans-Serif" font-size="10.00">NukiLock::NukiLock</text>
<text text-anchor="middle" x="221.62" y="-99.03" font-family="Helvetica,sans-Serif" font-size="10.00">::requestAdvancedConfig</text>
</a>
</g>
</g>
<!-- Node1&#45;&gt;Node2 -->
<g id="edge1_Node000001_Node000002" class="edge">
<title>Node1&#45;&gt;Node2</title>
<g id="a_edge1_Node000001_Node000002"><a xlink:title=" ">
<path fill="none" stroke="#63b8ff" d="M124.39,-108.53C132.27,-108.53 140.38,-108.53 148.41,-108.53"/>
<polygon fill="#63b8ff" stroke="#63b8ff" points="148.14,-112.03 158.14,-108.53 148.14,-105.03 148.14,-112.03"/>
</a>
</g>
</g>
<!-- Node3 -->
<g id="Node000003" class="node">
<title>Node3</title>
<g id="a_Node000003"><a xlink:href="class_nuki_1_1_nuki_ble.html#af1f1e299e8d97e053bba80e92ba285d6" target="_top" xlink:title=" ">
<polygon fill="white" stroke="#666666" points="460.5,-118.16 319.25,-118.16 319.25,-98.91 460.5,-98.91 460.5,-118.16"/>
<text text-anchor="middle" x="389.88" y="-104.66" font-family="Helvetica,sans-Serif" font-size="10.00">Nuki::NukiBle::executeAction</text>
</a>
</g>
</g>
<!-- Node2&#45;&gt;Node3 -->
<g id="edge2_Node000002_Node000003" class="edge">
<title>Node2&#45;&gt;Node3</title>
<g id="a_edge2_Node000002_Node000003"><a xlink:title=" ">
<path fill="none" stroke="#63b8ff" d="M283.59,-108.53C291.4,-108.53 299.49,-108.53 307.56,-108.53"/>
<polygon fill="#63b8ff" stroke="#63b8ff" points="307.41,-112.03 317.41,-108.53 307.41,-105.03 307.41,-112.03"/>
</a>
</g>
</g>
<!-- Node4 -->
<g id="Node000004" class="node">
<title>Node4</title>
<g id="a_Node000004"><a xlink:href="class_nuki_1_1_nuki_ble.html#ada0f3beebd95d35c122e25dd3f9eb886" target="_top" xlink:title=" ">
<polygon fill="white" stroke="#666666" points="644.5,-145.78 507,-145.78 507,-115.28 644.5,-115.28 644.5,-145.78"/>
<text text-anchor="start" x="515" y="-132.28" font-family="Helvetica,sans-Serif" font-size="10.00">Nuki::NukiBle::cmdChallAcc</text>
<text text-anchor="middle" x="575.75" y="-121.03" font-family="Helvetica,sans-Serif" font-size="10.00">StateMachine</text>
</a>
</g>
</g>
<!-- Node3&#45;&gt;Node4 -->
<g id="edge3_Node000003_Node000004" class="edge">
<title>Node3&#45;&gt;Node4</title>
<g id="a_edge3_Node000003_Node000004"><a xlink:title=" ">
<path fill="none" stroke="#63b8ff" d="M460.91,-116.91C472.18,-118.26 483.91,-119.66 495.38,-121.04"/>
<polygon fill="#63b8ff" stroke="#63b8ff" points="494.88,-124.5 505.22,-122.21 495.71,-117.55 494.88,-124.5"/>
</a>
</g>
</g>
<!-- Node5 -->
<g id="Node000005" class="node">
<title>Node5</title>
<g id="a_Node000005"><a xlink:href="class_nuki_1_1_nuki_ble.html#a6e8fca90c04249660dce6cb993eb4495" target="_top" xlink:title=" ">
<polygon fill="white" stroke="#666666" points="848,-186.78 691,-186.78 691,-156.28 848,-156.28 848,-186.78"/>
<text text-anchor="start" x="699" y="-173.28" font-family="Helvetica,sans-Serif" font-size="10.00">Nuki::NukiBle::extendDisconnect</text>
<text text-anchor="middle" x="769.5" y="-162.03" font-family="Helvetica,sans-Serif" font-size="10.00">Timeout</text>
</a>
</g>
</g>
<!-- Node3&#45;&gt;Node5 -->
<g id="edge16_Node000003_Node000005" class="edge">
<title>Node3&#45;&gt;Node5</title>
<g id="a_edge16_Node000003_Node000005"><a xlink:title=" ">
<path fill="none" stroke="#63b8ff" d="M399.16,-118.58C415.45,-137.45 453.81,-177.63 496.5,-192.53 565.88,-216.76 651.07,-203.9 707.43,-190.02"/>
<polygon fill="#63b8ff" stroke="#63b8ff" points="708.01,-193.48 716.83,-187.61 706.28,-186.7 708.01,-193.48"/>
</a>
</g>
</g>
<!-- Node6 -->
<g id="Node000006" class="node">
<title>Node6</title>
<g id="a_Node000006"><a xlink:href="class_nuki_1_1_nuki_ble.html#ac7ce691d9c3e586474655d1663eb2e20" target="_top" xlink:title=" ">
<polygon fill="white" stroke="#666666" points="835.62,-137.16 703.38,-137.16 703.38,-117.91 835.62,-117.91 835.62,-137.16"/>
<text text-anchor="middle" x="769.5" y="-123.66" font-family="Helvetica,sans-Serif" font-size="10.00">Nuki::NukiBle::logMessage</text>
</a>
</g>
</g>
<!-- Node3&#45;&gt;Node6 -->
<g id="edge17_Node000003_Node000006" class="edge">
<title>Node3&#45;&gt;Node6</title>
<g id="a_edge17_Node000003_Node000006"><a xlink:title=" ">
<path fill="none" stroke="#63b8ff" d="M460.76,-107.02C472.68,-106.82 484.95,-106.64 496.5,-106.53 566.94,-105.87 584.85,-100.1 655,-106.53 674.09,-108.28 694.76,-111.66 713.16,-115.2"/>
<polygon fill="#63b8ff" stroke="#63b8ff" points="712.32,-118.6 722.81,-117.12 713.68,-111.73 712.32,-118.6"/>
</a>
</g>
</g>
<!-- Node7 -->
<g id="Node000007" class="node">
<title>Node7</title>
<g id="a_Node000007"><a xlink:href="class_nuki_1_1_nuki_ble.html#af3650133f46aeca48a5f01b95d23ab71" target="_top" xlink:title=" ">
<polygon fill="white" stroke="#666666" points="843.12,-97.16 695.88,-97.16 695.88,-77.91 843.12,-77.91 843.12,-97.16"/>
<text text-anchor="middle" x="769.5" y="-83.66" font-family="Helvetica,sans-Serif" font-size="10.00">Nuki::NukiBle::logMessageVar</text>
</a>
</g>
</g>
<!-- Node3&#45;&gt;Node7 -->
<g id="edge18_Node000003_Node000007" class="edge">
<title>Node3&#45;&gt;Node7</title>
<g id="a_edge18_Node000003_Node000007"><a xlink:title=" ">
<path fill="none" stroke="#63b8ff" d="M398.55,-98.62C414.36,-79.14 452.74,-36.37 496.5,-20.53 562.74,3.44 591.17,9.27 655,-20.53 677.58,-31.08 670.25,-49.73 691,-63.53 696.85,-67.42 703.36,-70.71 710.05,-73.48"/>
<polygon fill="#63b8ff" stroke="#63b8ff" points="708.64,-76.69 719.24,-76.89 711.08,-70.13 708.64,-76.69"/>
</a>
</g>
</g>
<!-- Node8 -->
<g id="Node000008" class="node">
<title>Node8</title>
<g id="a_Node000008"><a xlink:href="class_nuki_1_1_nuki_ble.html#a59169a9f492793762e3c6ba39b611b07" target="_top" xlink:title=" ">
<polygon fill="white" stroke="#666666" points="647.5,-59.78 504,-59.78 504,-29.28 647.5,-29.28 647.5,-59.78"/>
<text text-anchor="start" x="512" y="-46.28" font-family="Helvetica,sans-Serif" font-size="10.00">Nuki::NukiBle::cmdChallState</text>
<text text-anchor="middle" x="575.75" y="-35.03" font-family="Helvetica,sans-Serif" font-size="10.00">Machine</text>
</a>
</g>
</g>
<!-- Node3&#45;&gt;Node8 -->
<g id="edge7_Node000003_Node000008" class="edge">
<title>Node3&#45;&gt;Node8</title>
<g id="a_edge7_Node000003_Node000008"><a xlink:title=" ">
<path fill="none" stroke="#63b8ff" d="M419.61,-98.53C446.1,-89.31 486.18,-75.36 518.96,-63.95"/>
<polygon fill="#63b8ff" stroke="#63b8ff" points="520.05,-67.28 528.34,-60.69 517.74,-60.67 520.05,-67.28"/>
</a>
</g>
</g>
<!-- Node10 -->
<g id="Node000010" class="node">
<title>Node10</title>
<g id="a_Node000010"><a xlink:href="class_nuki_1_1_nuki_ble.html#ad135bb1455665decfddff67772c1d411" target="_top" xlink:title=" ">
<polygon fill="white" stroke="#666666" points="655,-183.16 496.5,-183.16 496.5,-163.91 655,-163.91 655,-183.16"/>
<text text-anchor="middle" x="575.75" y="-169.66" font-family="Helvetica,sans-Serif" font-size="10.00">Nuki::NukiBle::cmdStateMachine</text>
</a>
</g>
</g>
<!-- Node3&#45;&gt;Node10 -->
<g id="edge12_Node000003_Node000010" class="edge">
<title>Node3&#45;&gt;Node10</title>
<g id="a_edge12_Node000003_Node000010"><a xlink:title=" ">
<path fill="none" stroke="#63b8ff" d="M411.11,-118.59C432.07,-128.72 465.98,-144.27 496.5,-154.53 503.02,-156.73 509.93,-158.78 516.83,-160.66"/>
<polygon fill="#63b8ff" stroke="#63b8ff" points="515.59,-163.96 526.15,-163.1 517.36,-157.19 515.59,-163.96"/>
</a>
</g>
</g>
<!-- Node4&#45;&gt;Node5 -->
<g id="edge4_Node000004_Node000005" class="edge">
<title>Node4&#45;&gt;Node5</title>
<g id="a_edge4_Node000004_Node000005"><a xlink:title=" ">
<path fill="none" stroke="#63b8ff" d="M644.89,-145.1C657.59,-147.82 671,-150.69 684.12,-153.49"/>
<polygon fill="#63b8ff" stroke="#63b8ff" points="683.06,-156.84 693.57,-155.51 684.52,-150 683.06,-156.84"/>
</a>
</g>
</g>
<!-- Node4&#45;&gt;Node6 -->
<g id="edge5_Node000004_Node000006" class="edge">
<title>Node4&#45;&gt;Node6</title>
<g id="a_edge5_Node000004_Node000006"><a xlink:title=" ">
<path fill="none" stroke="#63b8ff" d="M644.89,-129.47C660.14,-129.23 676.41,-128.97 691.97,-128.73"/>
<polygon fill="#63b8ff" stroke="#63b8ff" points="691.69,-132.24 701.63,-128.58 691.58,-125.24 691.69,-132.24"/>
</a>
</g>
</g>
<!-- Node4&#45;&gt;Node7 -->
<g id="edge6_Node000004_Node000007" class="edge">
<title>Node4&#45;&gt;Node7</title>
<g id="a_edge6_Node000004_Node000007"><a xlink:title=" ">
<path fill="none" stroke="#63b8ff" d="M644.89,-115.25C666.98,-110.3 691.2,-104.87 712.32,-100.13"/>
<polygon fill="#63b8ff" stroke="#63b8ff" points="712.9,-103.59 721.89,-97.99 711.36,-96.76 712.9,-103.59"/>
</a>
</g>
</g>
<!-- Node8&#45;&gt;Node5 -->
<g id="edge8_Node000008_Node000005" class="edge">
<title>Node8&#45;&gt;Node5</title>
<g id="a_edge8_Node000008_Node000005"><a xlink:title=" ">
<path fill="none" stroke="#63b8ff" d="M598.47,-60.19C614.63,-72.21 636.93,-89.57 655,-106.53 672.43,-122.91 670.93,-133.53 691,-146.53 693.39,-148.08 695.88,-149.54 698.44,-150.91"/>
<polygon fill="#63b8ff" stroke="#63b8ff" points="696.73,-153.97 707.26,-155.15 699.76,-147.66 696.73,-153.97"/>
</a>
</g>
</g>
<!-- Node8&#45;&gt;Node6 -->
<g id="edge10_Node000008_Node000006" class="edge">
<title>Node8&#45;&gt;Node6</title>
<g id="a_edge10_Node000008_Node000006"><a xlink:title=" ">
<path fill="none" stroke="#63b8ff" d="M627.77,-60.17C637.13,-63.94 646.59,-68.4 655,-73.53 673.52,-84.85 671.99,-96.06 691,-106.53 695.99,-109.28 701.35,-111.68 706.85,-113.78"/>
<polygon fill="#63b8ff" stroke="#63b8ff" points="705.5,-117.02 716.09,-116.97 707.78,-110.4 705.5,-117.02"/>
</a>
</g>
</g>
<!-- Node8&#45;&gt;Node7 -->
<g id="edge11_Node000008_Node000007" class="edge">
<title>Node8&#45;&gt;Node7</title>
<g id="a_edge11_Node000008_Node000007"><a xlink:title=" ">
<path fill="none" stroke="#63b8ff" d="M646.79,-60.24C668.36,-65.08 691.82,-70.34 712.34,-74.94"/>
<polygon fill="#63b8ff" stroke="#63b8ff" points="711.4,-78.32 721.92,-77.09 712.93,-71.49 711.4,-78.32"/>
</a>
</g>
</g>
<!-- Node9 -->
<g id="Node000009" class="node">
<title>Node9</title>
<g id="a_Node000009"><a xlink:href="class_nuki_1_1_nuki_ble.html#a25207bb564a4b54b8dd8c872177b53a7" target="_top" xlink:title="Returns if BLE is pairing/paired/connected with a Smart Lock Ultra.">
<polygon fill="white" stroke="#666666" points="834.5,-54.16 704.5,-54.16 704.5,-34.91 834.5,-34.91 834.5,-54.16"/>
<text text-anchor="middle" x="769.5" y="-40.66" font-family="Helvetica,sans-Serif" font-size="10.00">Nuki::NukiBle::isLockUltra</text>
</a>
</g>
</g>
<!-- Node8&#45;&gt;Node9 -->
<g id="edge9_Node000008_Node000009" class="edge">
<title>Node8&#45;&gt;Node9</title>
<g id="a_edge9_Node000008_Node000009"><a xlink:title=" ">
<path fill="none" stroke="#63b8ff" d="M647.88,-44.53C662.57,-44.53 678.1,-44.53 692.94,-44.53"/>
<polygon fill="#63b8ff" stroke="#63b8ff" points="692.62,-48.03 702.62,-44.53 692.62,-41.03 692.62,-48.03"/>
</a>
</g>
</g>
<!-- Node10&#45;&gt;Node5 -->
<g id="edge13_Node000010_Node000005" class="edge">
<title>Node10&#45;&gt;Node5</title>
<g id="a_edge13_Node000010_Node000005"><a xlink:title=" ">
<path fill="none" stroke="#63b8ff" d="M655.3,-172.71C663.24,-172.63 671.35,-172.55 679.39,-172.46"/>
<polygon fill="#63b8ff" stroke="#63b8ff" points="679.22,-175.96 689.18,-172.36 679.15,-168.97 679.22,-175.96"/>
</a>
</g>
</g>
<!-- Node10&#45;&gt;Node6 -->
<g id="edge14_Node000010_Node000006" class="edge">
<title>Node10&#45;&gt;Node6</title>
<g id="a_edge14_Node000010_Node000006"><a xlink:title=" ">
<path fill="none" stroke="#63b8ff" d="M618.83,-163.44C647.3,-156.61 685.14,-147.53 715.64,-140.21"/>
<polygon fill="#63b8ff" stroke="#63b8ff" points="716.14,-143.69 725.05,-137.96 714.51,-136.89 716.14,-143.69"/>
</a>
</g>
</g>
<!-- Node10&#45;&gt;Node7 -->
<g id="edge15_Node000010_Node000007" class="edge">
<title>Node10&#45;&gt;Node7</title>
<g id="a_edge15_Node000010_Node000007"><a xlink:title=" ">
<path fill="none" stroke="#63b8ff" d="M636.61,-163.49C643.08,-161.11 649.36,-158.17 655,-154.53 676.82,-140.47 669.37,-122.88 691,-108.53 694.75,-106.05 698.78,-103.85 702.97,-101.92"/>
<polygon fill="#63b8ff" stroke="#63b8ff" points="704.26,-105.17 712.22,-98.19 701.64,-98.68 704.26,-105.17"/>
</a>
</g>
</g>
</g>
</svg>
