<?xml version="1.0" encoding="UTF-8" standalone="no"?>
<!DOCTYPE svg PUBLIC "-//W3C//DTD SVG 1.1//EN"
 "http://www.w3.org/Graphics/SVG/1.1/DTD/svg11.dtd">
<!-- Generated by graphviz version 12.2.1 (20241206.2353)
 -->
<!-- Title: Nuki::NukiBle::setSecurityPin Pages: 1 -->
<svg width="716pt" height="215pt"
 viewBox="0.00 0.00 715.50 214.53" xmlns="http://www.w3.org/2000/svg" xmlns:xlink="http://www.w3.org/1999/xlink">
<g id="graph0" class="graph" transform="scale(1 1) rotate(0) translate(4 210.53)">
<title>Nuki::NukiBle::setSecurityPin</title>
<!-- Node1 -->
<g id="Node000001" class="node">
<title>Node1</title>
<g id="a_Node000001"><a xlink:title="Send the new pincode command to the lock via BLE (this command uses the earlier by saveSecurityPincod...">
<polygon fill="#999999" stroke="#666666" points="142.75,-118.16 0,-118.16 0,-98.91 142.75,-98.91 142.75,-118.16"/>
<text text-anchor="middle" x="71.38" y="-104.66" font-family="Helvetica,sans-Serif" font-size="10.00">Nuki::NukiBle::setSecurityPin</text>
</a>
</g>
</g>
<!-- Node2 -->
<g id="Node000002" class="node">
<title>Node2</title>
<g id="a_Node000002"><a xlink:href="class_nuki_1_1_nuki_ble.html#af1f1e299e8d97e053bba80e92ba285d6" target="_top" xlink:title=" ">
<polygon fill="white" stroke="#666666" points="320,-118.16 178.75,-118.16 178.75,-98.91 320,-98.91 320,-118.16"/>
<text text-anchor="middle" x="249.38" y="-104.66" font-family="Helvetica,sans-Serif" font-size="10.00">Nuki::NukiBle::executeAction</text>
</a>
</g>
</g>
<!-- Node1&#45;&gt;Node2 -->
<g id="edge1_Node000001_Node000002" class="edge">
<title>Node1&#45;&gt;Node2</title>
<g id="a_edge1_Node000001_Node000002"><a xlink:title=" ">
<path fill="none" stroke="#63b8ff" d="M143.2,-108.53C150.97,-108.53 158.92,-108.53 166.8,-108.53"/>
<polygon fill="#63b8ff" stroke="#63b8ff" points="166.75,-112.03 176.75,-108.53 166.75,-105.03 166.75,-112.03"/>
</a>
</g>
</g>
<!-- Node3 -->
<g id="Node000003" class="node">
<title>Node3</title>
<g id="a_Node000003"><a xlink:href="class_nuki_1_1_nuki_ble.html#ada0f3beebd95d35c122e25dd3f9eb886" target="_top" xlink:title=" ">
<polygon fill="white" stroke="#666666" points="504,-145.78 366.5,-145.78 366.5,-115.28 504,-115.28 504,-145.78"/>
<text text-anchor="start" x="374.5" y="-132.28" font-family="Helvetica,sans-Serif" font-size="10.00">Nuki::NukiBle::cmdChallAcc</text>
<text text-anchor="middle" x="435.25" y="-121.03" font-family="Helvetica,sans-Serif" font-size="10.00">StateMachine</text>
</a>
</g>
</g>
<!-- Node2&#45;&gt;Node3 -->
<g id="edge2_Node000002_Node000003" class="edge">
<title>Node2&#45;&gt;Node3</title>
<g id="a_edge2_Node000002_Node000003"><a xlink:title=" ">
<path fill="none" stroke="#63b8ff" d="M320.41,-116.91C331.68,-118.26 343.41,-119.66 354.88,-121.04"/>
<polygon fill="#63b8ff" stroke="#63b8ff" points="354.38,-124.5 364.72,-122.21 355.21,-117.55 354.38,-124.5"/>
</a>
</g>
</g>
<!-- Node4 -->
<g id="Node000004" class="node">
<title>Node4</title>
<g id="a_Node000004"><a xlink:href="class_nuki_1_1_nuki_ble.html#a6e8fca90c04249660dce6cb993eb4495" target="_top" xlink:title=" ">
<polygon fill="white" stroke="#666666" points="707.5,-186.78 550.5,-186.78 550.5,-156.28 707.5,-156.28 707.5,-186.78"/>
<text text-anchor="start" x="558.5" y="-173.28" font-family="Helvetica,sans-Serif" font-size="10.00">Nuki::NukiBle::extendDisconnect</text>
<text text-anchor="middle" x="629" y="-162.03" font-family="Helvetica,sans-Serif" font-size="10.00">Timeout</text>
</a>
</g>
</g>
<!-- Node2&#45;&gt;Node4 -->
<g id="edge15_Node000002_Node000004" class="edge">
<title>Node2&#45;&gt;Node4</title>
<g id="a_edge15_Node000002_Node000004"><a xlink:title=" ">
<path fill="none" stroke="#63b8ff" d="M258.66,-118.58C274.95,-137.45 313.31,-177.63 356,-192.53 425.38,-216.76 510.57,-203.9 566.93,-190.02"/>
<polygon fill="#63b8ff" stroke="#63b8ff" points="567.51,-193.48 576.33,-187.61 565.78,-186.7 567.51,-193.48"/>
</a>
</g>
</g>
<!-- Node5 -->
<g id="Node000005" class="node">
<title>Node5</title>
<g id="a_Node000005"><a xlink:href="class_nuki_1_1_nuki_ble.html#ac7ce691d9c3e586474655d1663eb2e20" target="_top" xlink:title=" ">
<polygon fill="white" stroke="#666666" points="695.12,-137.16 562.88,-137.16 562.88,-117.91 695.12,-117.91 695.12,-137.16"/>
<text text-anchor="middle" x="629" y="-123.66" font-family="Helvetica,sans-Serif" font-size="10.00">Nuki::NukiBle::logMessage</text>
</a>
</g>
</g>
<!-- Node2&#45;&gt;Node5 -->
<g id="edge16_Node000002_Node000005" class="edge">
<title>Node2&#45;&gt;Node5</title>
<g id="a_edge16_Node000002_Node000005"><a xlink:title=" ">
<path fill="none" stroke="#63b8ff" d="M320.26,-107.02C332.18,-106.82 344.45,-106.64 356,-106.53 426.44,-105.87 444.35,-100.1 514.5,-106.53 533.59,-108.28 554.26,-111.66 572.66,-115.2"/>
<polygon fill="#63b8ff" stroke="#63b8ff" points="571.82,-118.6 582.31,-117.12 573.18,-111.73 571.82,-118.6"/>
</a>
</g>
</g>
<!-- Node6 -->
<g id="Node000006" class="node">
<title>Node6</title>
<g id="a_Node000006"><a xlink:href="class_nuki_1_1_nuki_ble.html#af3650133f46aeca48a5f01b95d23ab71" target="_top" xlink:title=" ">
<polygon fill="white" stroke="#666666" points="702.62,-97.16 555.38,-97.16 555.38,-77.91 702.62,-77.91 702.62,-97.16"/>
<text text-anchor="middle" x="629" y="-83.66" font-family="Helvetica,sans-Serif" font-size="10.00">Nuki::NukiBle::logMessageVar</text>
</a>
</g>
</g>
<!-- Node2&#45;&gt;Node6 -->
<g id="edge17_Node000002_Node000006" class="edge">
<title>Node2&#45;&gt;Node6</title>
<g id="a_edge17_Node000002_Node000006"><a xlink:title=" ">
<path fill="none" stroke="#63b8ff" d="M258.05,-98.62C273.86,-79.14 312.24,-36.37 356,-20.53 422.24,3.44 450.67,9.27 514.5,-20.53 537.08,-31.08 529.75,-49.73 550.5,-63.53 556.35,-67.42 562.86,-70.71 569.55,-73.48"/>
<polygon fill="#63b8ff" stroke="#63b8ff" points="568.14,-76.69 578.74,-76.89 570.58,-70.13 568.14,-76.69"/>
</a>
</g>
</g>
<!-- Node7 -->
<g id="Node000007" class="node">
<title>Node7</title>
<g id="a_Node000007"><a xlink:href="class_nuki_1_1_nuki_ble.html#a59169a9f492793762e3c6ba39b611b07" target="_top" xlink:title=" ">
<polygon fill="white" stroke="#666666" points="507,-59.78 363.5,-59.78 363.5,-29.28 507,-29.28 507,-59.78"/>
<text text-anchor="start" x="371.5" y="-46.28" font-family="Helvetica,sans-Serif" font-size="10.00">Nuki::NukiBle::cmdChallState</text>
<text text-anchor="middle" x="435.25" y="-35.03" font-family="Helvetica,sans-Serif" font-size="10.00">Machine</text>
</a>
</g>
</g>
<!-- Node2&#45;&gt;Node7 -->
<g id="edge6_Node000002_Node000007" class="edge">
<title>Node2&#45;&gt;Node7</title>
<g id="a_edge6_Node000002_Node000007"><a xlink:title=" ">
<path fill="none" stroke="#63b8ff" d="M279.11,-98.53C305.6,-89.31 345.68,-75.36 378.46,-63.95"/>
<polygon fill="#63b8ff" stroke="#63b8ff" points="379.55,-67.28 387.84,-60.69 377.24,-60.67 379.55,-67.28"/>
</a>
</g>
</g>
<!-- Node9 -->
<g id="Node000009" class="node">
<title>Node9</title>
<g id="a_Node000009"><a xlink:href="class_nuki_1_1_nuki_ble.html#ad135bb1455665decfddff67772c1d411" target="_top" xlink:title=" ">
<polygon fill="white" stroke="#666666" points="514.5,-183.16 356,-183.16 356,-163.91 514.5,-163.91 514.5,-183.16"/>
<text text-anchor="middle" x="435.25" y="-169.66" font-family="Helvetica,sans-Serif" font-size="10.00">Nuki::NukiBle::cmdStateMachine</text>
</a>
</g>
</g>
<!-- Node2&#45;&gt;Node9 -->
<g id="edge11_Node000002_Node000009" class="edge">
<title>Node2&#45;&gt;Node9</title>
<g id="a_edge11_Node000002_Node000009"><a xlink:title=" ">
<path fill="none" stroke="#63b8ff" d="M270.61,-118.59C291.57,-128.72 325.48,-144.27 356,-154.53 362.52,-156.73 369.43,-158.78 376.33,-160.66"/>
<polygon fill="#63b8ff" stroke="#63b8ff" points="375.09,-163.96 385.65,-163.1 376.86,-157.19 375.09,-163.96"/>
</a>
</g>
</g>
<!-- Node3&#45;&gt;Node4 -->
<g id="edge3_Node000003_Node000004" class="edge">
<title>Node3&#45;&gt;Node4</title>
<g id="a_edge3_Node000003_Node000004"><a xlink:title=" ">
<path fill="none" stroke="#63b8ff" d="M504.39,-145.1C517.09,-147.82 530.5,-150.69 543.62,-153.49"/>
<polygon fill="#63b8ff" stroke="#63b8ff" points="542.56,-156.84 553.07,-155.51 544.02,-150 542.56,-156.84"/>
</a>
</g>
</g>
<!-- Node3&#45;&gt;Node5 -->
<g id="edge4_Node000003_Node000005" class="edge">
<title>Node3&#45;&gt;Node5</title>
<g id="a_edge4_Node000003_Node000005"><a xlink:title=" ">
<path fill="none" stroke="#63b8ff" d="M504.39,-129.47C519.64,-129.23 535.91,-128.97 551.47,-128.73"/>
<polygon fill="#63b8ff" stroke="#63b8ff" points="551.19,-132.24 561.13,-128.58 551.08,-125.24 551.19,-132.24"/>
</a>
</g>
</g>
<!-- Node3&#45;&gt;Node6 -->
<g id="edge5_Node000003_Node000006" class="edge">
<title>Node3&#45;&gt;Node6</title>
<g id="a_edge5_Node000003_Node000006"><a xlink:title=" ">
<path fill="none" stroke="#63b8ff" d="M504.39,-115.25C526.48,-110.3 550.7,-104.87 571.82,-100.13"/>
<polygon fill="#63b8ff" stroke="#63b8ff" points="572.4,-103.59 581.39,-97.99 570.86,-96.76 572.4,-103.59"/>
</a>
</g>
</g>
<!-- Node7&#45;&gt;Node4 -->
<g id="edge7_Node000007_Node000004" class="edge">
<title>Node7&#45;&gt;Node4</title>
<g id="a_edge7_Node000007_Node000004"><a xlink:title=" ">
<path fill="none" stroke="#63b8ff" d="M457.97,-60.19C474.13,-72.21 496.43,-89.57 514.5,-106.53 531.93,-122.91 530.43,-133.53 550.5,-146.53 552.89,-148.08 555.38,-149.54 557.94,-150.91"/>
<polygon fill="#63b8ff" stroke="#63b8ff" points="556.23,-153.97 566.76,-155.15 559.26,-147.66 556.23,-153.97"/>
</a>
</g>
</g>
<!-- Node7&#45;&gt;Node5 -->
<g id="edge9_Node000007_Node000005" class="edge">
<title>Node7&#45;&gt;Node5</title>
<g id="a_edge9_Node000007_Node000005"><a xlink:title=" ">
<path fill="none" stroke="#63b8ff" d="M487.27,-60.17C496.63,-63.94 506.09,-68.4 514.5,-73.53 533.02,-84.85 531.49,-96.06 550.5,-106.53 555.49,-109.28 560.85,-111.68 566.35,-113.78"/>
<polygon fill="#63b8ff" stroke="#63b8ff" points="565,-117.02 575.59,-116.97 567.28,-110.4 565,-117.02"/>
</a>
</g>
</g>
<!-- Node7&#45;&gt;Node6 -->
<g id="edge10_Node000007_Node000006" class="edge">
<title>Node7&#45;&gt;Node6</title>
<g id="a_edge10_Node000007_Node000006"><a xlink:title=" ">
<path fill="none" stroke="#63b8ff" d="M506.29,-60.24C527.86,-65.08 551.32,-70.34 571.84,-74.94"/>
<polygon fill="#63b8ff" stroke="#63b8ff" points="570.9,-78.32 581.42,-77.09 572.43,-71.49 570.9,-78.32"/>
</a>
</g>
</g>
<!-- Node8 -->
<g id="Node000008" class="node">
<title>Node8</title>
<g id="a_Node000008"><a xlink:href="class_nuki_1_1_nuki_ble.html#a25207bb564a4b54b8dd8c872177b53a7" target="_top" xlink:title="Returns if BLE is pairing/paired/connected with a Smart Lock Ultra.">
<polygon fill="white" stroke="#666666" points="694,-54.16 564,-54.16 564,-34.91 694,-34.91 694,-54.16"/>
<text text-anchor="middle" x="629" y="-40.66" font-family="Helvetica,sans-Serif" font-size="10.00">Nuki::NukiBle::isLockUltra</text>
</a>
</g>
</g>
<!-- Node7&#45;&gt;Node8 -->
<g id="edge8_Node000007_Node000008" class="edge">
<title>Node7&#45;&gt;Node8</title>
<g id="a_edge8_Node000007_Node000008"><a xlink:title=" ">
<path fill="none" stroke="#63b8ff" d="M507.38,-44.53C522.07,-44.53 537.6,-44.53 552.44,-44.53"/>
<polygon fill="#63b8ff" stroke="#63b8ff" points="552.12,-48.03 562.12,-44.53 552.12,-41.03 552.12,-48.03"/>
</a>
</g>
</g>
<!-- Node9&#45;&gt;Node4 -->
<g id="edge12_Node000009_Node000004" class="edge">
<title>Node9&#45;&gt;Node4</title>
<g id="a_edge12_Node000009_Node000004"><a xlink:title=" ">
<path fill="none" stroke="#63b8ff" d="M514.8,-172.71C522.74,-172.63 530.85,-172.55 538.89,-172.46"/>
<polygon fill="#63b8ff" stroke="#63b8ff" points="538.72,-175.96 548.68,-172.36 538.65,-168.97 538.72,-175.96"/>
</a>
</g>
</g>
<!-- Node9&#45;&gt;Node5 -->
<g id="edge13_Node000009_Node000005" class="edge">
<title>Node9&#45;&gt;Node5</title>
<g id="a_edge13_Node000009_Node000005"><a xlink:title=" ">
<path fill="none" stroke="#63b8ff" d="M478.33,-163.44C506.8,-156.61 544.64,-147.53 575.14,-140.21"/>
<polygon fill="#63b8ff" stroke="#63b8ff" points="575.64,-143.69 584.55,-137.96 574.01,-136.89 575.64,-143.69"/>
</a>
</g>
</g>
<!-- Node9&#45;&gt;Node6 -->
<g id="edge14_Node000009_Node000006" class="edge">
<title>Node9&#45;&gt;Node6</title>
<g id="a_edge14_Node000009_Node000006"><a xlink:title=" ">
<path fill="none" stroke="#63b8ff" d="M496.11,-163.49C502.58,-161.11 508.86,-158.17 514.5,-154.53 536.32,-140.47 528.87,-122.88 550.5,-108.53 554.25,-106.05 558.28,-103.85 562.47,-101.92"/>
<polygon fill="#63b8ff" stroke="#63b8ff" points="563.76,-105.17 571.72,-98.19 561.14,-98.68 563.76,-105.17"/>
</a>
</g>
</g>
</g>
</svg>
