<?xml version="1.0" encoding="UTF-8" standalone="no"?>
<!DOCTYPE svg PUBLIC "-//W3C//DTD SVG 1.1//EN"
 "http://www.w3.org/Graphics/SVG/1.1/DTD/svg11.dtd">
<!-- Generated by graphviz version 12.2.1 (20241206.2353)
 -->
<!-- Title: NukiOpener::NukiOpener::requestAdvancedConfig Pages: 1 -->
<svg width="697pt" height="215pt"
 viewBox="0.00 0.00 696.75 214.53" xmlns="http://www.w3.org/2000/svg" xmlns:xlink="http://www.w3.org/1999/xlink">
<g id="graph0" class="graph" transform="scale(1 1) rotate(0) translate(4 210.53)">
<title>NukiOpener::NukiOpener::requestAdvancedConfig</title>
<!-- Node1 -->
<g id="Node000001" class="node">
<title>Node1</title>
<g id="a_Node000001"><a xlink:title="Requests advanced config from Opener via BLE.">
<polygon fill="#999999" stroke="#666666" points="124,-123.78 0,-123.78 0,-93.28 124,-93.28 124,-123.78"/>
<text text-anchor="start" x="8" y="-110.28" font-family="Helvetica,sans-Serif" font-size="10.00">NukiOpener::NukiOpener</text>
<text text-anchor="middle" x="62" y="-99.03" font-family="Helvetica,sans-Serif" font-size="10.00">::requestAdvancedConfig</text>
</a>
</g>
</g>
<!-- Node2 -->
<g id="Node000002" class="node">
<title>Node2</title>
<g id="a_Node000002"><a xlink:href="class_nuki_1_1_nuki_ble.html#af1f1e299e8d97e053bba80e92ba285d6" target="_top" xlink:title=" ">
<polygon fill="white" stroke="#666666" points="301.25,-118.16 160,-118.16 160,-98.91 301.25,-98.91 301.25,-118.16"/>
<text text-anchor="middle" x="230.62" y="-104.66" font-family="Helvetica,sans-Serif" font-size="10.00">Nuki::NukiBle::executeAction</text>
</a>
</g>
</g>
<!-- Node1&#45;&gt;Node2 -->
<g id="edge1_Node000001_Node000002" class="edge">
<title>Node1&#45;&gt;Node2</title>
<g id="a_edge1_Node000001_Node000002"><a xlink:title=" ">
<path fill="none" stroke="#63b8ff" d="M124.1,-108.53C131.93,-108.53 140.04,-108.53 148.12,-108.53"/>
<polygon fill="#63b8ff" stroke="#63b8ff" points="148,-112.03 158,-108.53 148,-105.03 148,-112.03"/>
</a>
</g>
</g>
<!-- Node3 -->
<g id="Node000003" class="node">
<title>Node3</title>
<g id="a_Node000003"><a xlink:href="class_nuki_1_1_nuki_ble.html#ada0f3beebd95d35c122e25dd3f9eb886" target="_top" xlink:title=" ">
<polygon fill="white" stroke="#666666" points="485.25,-145.78 347.75,-145.78 347.75,-115.28 485.25,-115.28 485.25,-145.78"/>
<text text-anchor="start" x="355.75" y="-132.28" font-family="Helvetica,sans-Serif" font-size="10.00">Nuki::NukiBle::cmdChallAcc</text>
<text text-anchor="middle" x="416.5" y="-121.03" font-family="Helvetica,sans-Serif" font-size="10.00">StateMachine</text>
</a>
</g>
</g>
<!-- Node2&#45;&gt;Node3 -->
<g id="edge2_Node000002_Node000003" class="edge">
<title>Node2&#45;&gt;Node3</title>
<g id="a_edge2_Node000002_Node000003"><a xlink:title=" ">
<path fill="none" stroke="#63b8ff" d="M301.66,-116.91C312.93,-118.26 324.66,-119.66 336.13,-121.04"/>
<polygon fill="#63b8ff" stroke="#63b8ff" points="335.63,-124.5 345.97,-122.21 336.46,-117.55 335.63,-124.5"/>
</a>
</g>
</g>
<!-- Node4 -->
<g id="Node000004" class="node">
<title>Node4</title>
<g id="a_Node000004"><a xlink:href="class_nuki_1_1_nuki_ble.html#a6e8fca90c04249660dce6cb993eb4495" target="_top" xlink:title=" ">
<polygon fill="white" stroke="#666666" points="688.75,-186.78 531.75,-186.78 531.75,-156.28 688.75,-156.28 688.75,-186.78"/>
<text text-anchor="start" x="539.75" y="-173.28" font-family="Helvetica,sans-Serif" font-size="10.00">Nuki::NukiBle::extendDisconnect</text>
<text text-anchor="middle" x="610.25" y="-162.03" font-family="Helvetica,sans-Serif" font-size="10.00">Timeout</text>
</a>
</g>
</g>
<!-- Node2&#45;&gt;Node4 -->
<g id="edge15_Node000002_Node000004" class="edge">
<title>Node2&#45;&gt;Node4</title>
<g id="a_edge15_Node000002_Node000004"><a xlink:title=" ">
<path fill="none" stroke="#63b8ff" d="M239.91,-118.58C256.2,-137.45 294.56,-177.63 337.25,-192.53 406.63,-216.76 491.82,-203.9 548.18,-190.02"/>
<polygon fill="#63b8ff" stroke="#63b8ff" points="548.76,-193.48 557.58,-187.61 547.03,-186.7 548.76,-193.48"/>
</a>
</g>
</g>
<!-- Node5 -->
<g id="Node000005" class="node">
<title>Node5</title>
<g id="a_Node000005"><a xlink:href="class_nuki_1_1_nuki_ble.html#ac7ce691d9c3e586474655d1663eb2e20" target="_top" xlink:title=" ">
<polygon fill="white" stroke="#666666" points="676.38,-137.16 544.12,-137.16 544.12,-117.91 676.38,-117.91 676.38,-137.16"/>
<text text-anchor="middle" x="610.25" y="-123.66" font-family="Helvetica,sans-Serif" font-size="10.00">Nuki::NukiBle::logMessage</text>
</a>
</g>
</g>
<!-- Node2&#45;&gt;Node5 -->
<g id="edge16_Node000002_Node000005" class="edge">
<title>Node2&#45;&gt;Node5</title>
<g id="a_edge16_Node000002_Node000005"><a xlink:title=" ">
<path fill="none" stroke="#63b8ff" d="M301.51,-107.02C313.43,-106.82 325.7,-106.64 337.25,-106.53 407.69,-105.87 425.6,-100.1 495.75,-106.53 514.84,-108.28 535.51,-111.66 553.91,-115.2"/>
<polygon fill="#63b8ff" stroke="#63b8ff" points="553.07,-118.6 563.56,-117.12 554.43,-111.73 553.07,-118.6"/>
</a>
</g>
</g>
<!-- Node6 -->
<g id="Node000006" class="node">
<title>Node6</title>
<g id="a_Node000006"><a xlink:href="class_nuki_1_1_nuki_ble.html#af3650133f46aeca48a5f01b95d23ab71" target="_top" xlink:title=" ">
<polygon fill="white" stroke="#666666" points="683.88,-97.16 536.62,-97.16 536.62,-77.91 683.88,-77.91 683.88,-97.16"/>
<text text-anchor="middle" x="610.25" y="-83.66" font-family="Helvetica,sans-Serif" font-size="10.00">Nuki::NukiBle::logMessageVar</text>
</a>
</g>
</g>
<!-- Node2&#45;&gt;Node6 -->
<g id="edge17_Node000002_Node000006" class="edge">
<title>Node2&#45;&gt;Node6</title>
<g id="a_edge17_Node000002_Node000006"><a xlink:title=" ">
<path fill="none" stroke="#63b8ff" d="M239.3,-98.62C255.11,-79.14 293.49,-36.37 337.25,-20.53 403.49,3.44 431.92,9.27 495.75,-20.53 518.33,-31.08 511,-49.73 531.75,-63.53 537.6,-67.42 544.11,-70.71 550.8,-73.48"/>
<polygon fill="#63b8ff" stroke="#63b8ff" points="549.39,-76.69 559.99,-76.89 551.83,-70.13 549.39,-76.69"/>
</a>
</g>
</g>
<!-- Node7 -->
<g id="Node000007" class="node">
<title>Node7</title>
<g id="a_Node000007"><a xlink:href="class_nuki_1_1_nuki_ble.html#a59169a9f492793762e3c6ba39b611b07" target="_top" xlink:title=" ">
<polygon fill="white" stroke="#666666" points="488.25,-59.78 344.75,-59.78 344.75,-29.28 488.25,-29.28 488.25,-59.78"/>
<text text-anchor="start" x="352.75" y="-46.28" font-family="Helvetica,sans-Serif" font-size="10.00">Nuki::NukiBle::cmdChallState</text>
<text text-anchor="middle" x="416.5" y="-35.03" font-family="Helvetica,sans-Serif" font-size="10.00">Machine</text>
</a>
</g>
</g>
<!-- Node2&#45;&gt;Node7 -->
<g id="edge6_Node000002_Node000007" class="edge">
<title>Node2&#45;&gt;Node7</title>
<g id="a_edge6_Node000002_Node000007"><a xlink:title=" ">
<path fill="none" stroke="#63b8ff" d="M260.36,-98.53C286.85,-89.31 326.93,-75.36 359.71,-63.95"/>
<polygon fill="#63b8ff" stroke="#63b8ff" points="360.8,-67.28 369.09,-60.69 358.49,-60.67 360.8,-67.28"/>
</a>
</g>
</g>
<!-- Node9 -->
<g id="Node000009" class="node">
<title>Node9</title>
<g id="a_Node000009"><a xlink:href="class_nuki_1_1_nuki_ble.html#ad135bb1455665decfddff67772c1d411" target="_top" xlink:title=" ">
<polygon fill="white" stroke="#666666" points="495.75,-183.16 337.25,-183.16 337.25,-163.91 495.75,-163.91 495.75,-183.16"/>
<text text-anchor="middle" x="416.5" y="-169.66" font-family="Helvetica,sans-Serif" font-size="10.00">Nuki::NukiBle::cmdStateMachine</text>
</a>
</g>
</g>
<!-- Node2&#45;&gt;Node9 -->
<g id="edge11_Node000002_Node000009" class="edge">
<title>Node2&#45;&gt;Node9</title>
<g id="a_edge11_Node000002_Node000009"><a xlink:title=" ">
<path fill="none" stroke="#63b8ff" d="M251.86,-118.59C272.82,-128.72 306.73,-144.27 337.25,-154.53 343.77,-156.73 350.68,-158.78 357.58,-160.66"/>
<polygon fill="#63b8ff" stroke="#63b8ff" points="356.34,-163.96 366.9,-163.1 358.11,-157.19 356.34,-163.96"/>
</a>
</g>
</g>
<!-- Node3&#45;&gt;Node4 -->
<g id="edge3_Node000003_Node000004" class="edge">
<title>Node3&#45;&gt;Node4</title>
<g id="a_edge3_Node000003_Node000004"><a xlink:title=" ">
<path fill="none" stroke="#63b8ff" d="M485.64,-145.1C498.34,-147.82 511.75,-150.69 524.87,-153.49"/>
<polygon fill="#63b8ff" stroke="#63b8ff" points="523.81,-156.84 534.32,-155.51 525.27,-150 523.81,-156.84"/>
</a>
</g>
</g>
<!-- Node3&#45;&gt;Node5 -->
<g id="edge4_Node000003_Node000005" class="edge">
<title>Node3&#45;&gt;Node5</title>
<g id="a_edge4_Node000003_Node000005"><a xlink:title=" ">
<path fill="none" stroke="#63b8ff" d="M485.64,-129.47C500.89,-129.23 517.16,-128.97 532.72,-128.73"/>
<polygon fill="#63b8ff" stroke="#63b8ff" points="532.44,-132.24 542.38,-128.58 532.33,-125.24 532.44,-132.24"/>
</a>
</g>
</g>
<!-- Node3&#45;&gt;Node6 -->
<g id="edge5_Node000003_Node000006" class="edge">
<title>Node3&#45;&gt;Node6</title>
<g id="a_edge5_Node000003_Node000006"><a xlink:title=" ">
<path fill="none" stroke="#63b8ff" d="M485.64,-115.25C507.73,-110.3 531.95,-104.87 553.07,-100.13"/>
<polygon fill="#63b8ff" stroke="#63b8ff" points="553.65,-103.59 562.64,-97.99 552.11,-96.76 553.65,-103.59"/>
</a>
</g>
</g>
<!-- Node7&#45;&gt;Node4 -->
<g id="edge7_Node000007_Node000004" class="edge">
<title>Node7&#45;&gt;Node4</title>
<g id="a_edge7_Node000007_Node000004"><a xlink:title=" ">
<path fill="none" stroke="#63b8ff" d="M439.22,-60.19C455.38,-72.21 477.68,-89.57 495.75,-106.53 513.18,-122.91 511.68,-133.53 531.75,-146.53 534.14,-148.08 536.63,-149.54 539.19,-150.91"/>
<polygon fill="#63b8ff" stroke="#63b8ff" points="537.48,-153.97 548.01,-155.15 540.51,-147.66 537.48,-153.97"/>
</a>
</g>
</g>
<!-- Node7&#45;&gt;Node5 -->
<g id="edge9_Node000007_Node000005" class="edge">
<title>Node7&#45;&gt;Node5</title>
<g id="a_edge9_Node000007_Node000005"><a xlink:title=" ">
<path fill="none" stroke="#63b8ff" d="M468.52,-60.17C477.88,-63.94 487.34,-68.4 495.75,-73.53 514.27,-84.85 512.74,-96.06 531.75,-106.53 536.74,-109.28 542.1,-111.68 547.6,-113.78"/>
<polygon fill="#63b8ff" stroke="#63b8ff" points="546.25,-117.02 556.84,-116.97 548.53,-110.4 546.25,-117.02"/>
</a>
</g>
</g>
<!-- Node7&#45;&gt;Node6 -->
<g id="edge10_Node000007_Node000006" class="edge">
<title>Node7&#45;&gt;Node6</title>
<g id="a_edge10_Node000007_Node000006"><a xlink:title=" ">
<path fill="none" stroke="#63b8ff" d="M487.54,-60.24C509.11,-65.08 532.57,-70.34 553.09,-74.94"/>
<polygon fill="#63b8ff" stroke="#63b8ff" points="552.15,-78.32 562.67,-77.09 553.68,-71.49 552.15,-78.32"/>
</a>
</g>
</g>
<!-- Node8 -->
<g id="Node000008" class="node">
<title>Node8</title>
<g id="a_Node000008"><a xlink:href="class_nuki_1_1_nuki_ble.html#a25207bb564a4b54b8dd8c872177b53a7" target="_top" xlink:title="Returns if BLE is pairing/paired/connected with a Smart Lock Ultra.">
<polygon fill="white" stroke="#666666" points="675.25,-54.16 545.25,-54.16 545.25,-34.91 675.25,-34.91 675.25,-54.16"/>
<text text-anchor="middle" x="610.25" y="-40.66" font-family="Helvetica,sans-Serif" font-size="10.00">Nuki::NukiBle::isLockUltra</text>
</a>
</g>
</g>
<!-- Node7&#45;&gt;Node8 -->
<g id="edge8_Node000007_Node000008" class="edge">
<title>Node7&#45;&gt;Node8</title>
<g id="a_edge8_Node000007_Node000008"><a xlink:title=" ">
<path fill="none" stroke="#63b8ff" d="M488.63,-44.53C503.32,-44.53 518.85,-44.53 533.69,-44.53"/>
<polygon fill="#63b8ff" stroke="#63b8ff" points="533.37,-48.03 543.37,-44.53 533.37,-41.03 533.37,-48.03"/>
</a>
</g>
</g>
<!-- Node9&#45;&gt;Node4 -->
<g id="edge12_Node000009_Node000004" class="edge">
<title>Node9&#45;&gt;Node4</title>
<g id="a_edge12_Node000009_Node000004"><a xlink:title=" ">
<path fill="none" stroke="#63b8ff" d="M496.05,-172.71C503.99,-172.63 512.1,-172.55 520.14,-172.46"/>
<polygon fill="#63b8ff" stroke="#63b8ff" points="519.97,-175.96 529.93,-172.36 519.9,-168.97 519.97,-175.96"/>
</a>
</g>
</g>
<!-- Node9&#45;&gt;Node5 -->
<g id="edge13_Node000009_Node000005" class="edge">
<title>Node9&#45;&gt;Node5</title>
<g id="a_edge13_Node000009_Node000005"><a xlink:title=" ">
<path fill="none" stroke="#63b8ff" d="M459.58,-163.44C488.05,-156.61 525.89,-147.53 556.39,-140.21"/>
<polygon fill="#63b8ff" stroke="#63b8ff" points="556.89,-143.69 565.8,-137.96 555.26,-136.89 556.89,-143.69"/>
</a>
</g>
</g>
<!-- Node9&#45;&gt;Node6 -->
<g id="edge14_Node000009_Node000006" class="edge">
<title>Node9&#45;&gt;Node6</title>
<g id="a_edge14_Node000009_Node000006"><a xlink:title=" ">
<path fill="none" stroke="#63b8ff" d="M477.36,-163.49C483.83,-161.11 490.11,-158.17 495.75,-154.53 517.57,-140.47 510.12,-122.88 531.75,-108.53 535.5,-106.05 539.53,-103.85 543.72,-101.92"/>
<polygon fill="#63b8ff" stroke="#63b8ff" points="545.01,-105.17 552.97,-98.19 542.39,-98.68 545.01,-105.17"/>
</a>
</g>
</g>
</g>
</svg>
