<?xml version="1.0" encoding="UTF-8" standalone="no"?>
<!DOCTYPE svg PUBLIC "-//W3C//DTD SVG 1.1//EN"
 "http://www.w3.org/Graphics/SVG/1.1/DTD/svg11.dtd">
<!-- Generated by graphviz version 5.0.1 (20220820.1526)
 -->
<!-- Title: NukiLock::NukiLock::addTimeControlEntry Pages: 1 -->
<svg width="356pt" height="82pt"
 viewBox="0.00 0.00 356.00 81.50" xmlns="http://www.w3.org/2000/svg" xmlns:xlink="http://www.w3.org/1999/xlink">
<g id="graph0" class="graph" transform="scale(1 1) rotate(0) translate(4 77.5)">
<title>NukiLock::NukiLock::addTimeControlEntry</title>
<!-- Node1 -->
<g id="node1" class="node">
<title>Node1</title>
<g id="a_node1"><a xlink:title="Sends a new time(d) control entry via BLE to the lock. This entry is independant of keypad or authori...">
<polygon fill="#999999" stroke="#666666" points="134,-50.5 0,-50.5 0,-16.5 134,-16.5 134,-50.5"/>
<text text-anchor="start" x="8" y="-36.9" font-family="Helvetica,sans-Serif" font-size="12.00">NukiLock::NukiLock</text>
<text text-anchor="middle" x="67" y="-23.9" font-family="Helvetica,sans-Serif" font-size="12.00">::addTimeControlEntry</text>
</a>
</g>
</g>
<!-- Node2 -->
<g id="node2" class="node">
<title>Node2</title>
<g id="a_node2"><a xlink:href="namespace_nuki_lock.html#aacbba5cd838f4046ccecea8412b1c0aa" target="_top" xlink:title=" ">
<polygon fill="white" stroke="#666666" points="348,-73.5 170,-73.5 170,-39.5 348,-39.5 348,-73.5"/>
<text text-anchor="start" x="178" y="-59.9" font-family="Helvetica,sans-Serif" font-size="12.00">NukiLock::logNewTimeControl</text>
<text text-anchor="middle" x="259" y="-46.9" font-family="Helvetica,sans-Serif" font-size="12.00">Entry</text>
</a>
</g>
</g>
<!-- Node1&#45;&gt;Node2 -->
<g id="edge1" class="edge">
<title>Node1&#45;&gt;Node2</title>
<path fill="none" stroke="#63b8ff" d="M134.19,-41.51C142.5,-42.52 151.14,-43.56 159.81,-44.61"/>
<polygon fill="#63b8ff" stroke="#63b8ff" points="159.65,-48.12 169.99,-45.85 160.49,-41.17 159.65,-48.12"/>
</g>
<!-- Node3 -->
<g id="node3" class="node">
<title>Node3</title>
<g id="a_node3"><a xlink:href="namespace_nuki.html#a280e19d4682ca4b35d3fe64001da816a" target="_top" xlink:title=" ">
<polygon fill="white" stroke="#666666" points="310,-21 208,-21 208,0 310,0 310,-21"/>
<text text-anchor="middle" x="259" y="-7.4" font-family="Helvetica,sans-Serif" font-size="12.00">Nuki::printBuffer</text>
</a>
</g>
</g>
<!-- Node1&#45;&gt;Node3 -->
<g id="edge2" class="edge">
<title>Node1&#45;&gt;Node3</title>
<path fill="none" stroke="#63b8ff" d="M134.19,-25.49C154.89,-22.98 177.61,-20.23 197.88,-17.78"/>
<polygon fill="#63b8ff" stroke="#63b8ff" points="198.41,-21.24 207.92,-16.56 197.57,-14.29 198.41,-21.24"/>
</g>
</g>
</svg>
