<?xml version="1.0" encoding="UTF-8" standalone="no"?>
<!DOCTYPE svg PUBLIC "-//W3C//DTD SVG 1.1//EN"
 "http://www.w3.org/Graphics/SVG/1.1/DTD/svg11.dtd">
<!-- Generated by graphviz version 7.0.5 (20221223.1930)
 -->
<!-- Title: NukiOpener::NukiOpener::updateTimeControlEntry Pages: 1 -->
<svg width="307pt" height="76pt"
 viewBox="0.00 0.00 307.00 75.50" xmlns="http://www.w3.org/2000/svg" xmlns:xlink="http://www.w3.org/1999/xlink">
<g id="graph0" class="graph" transform="scale(1 1) rotate(0) translate(4 71.5)">
<title>NukiOpener::NukiOpener::updateTimeControlEntry</title>
<!-- Node1 -->
<g id="node1" class="node">
<title>Node1</title>
<g id="a_node1"><a xlink:title="Sends an updated time(d) control entry via BLE to the lock. (see addTimeControlEntry())">
<polygon fill="#999999" stroke="#666666" points="125,-45.5 0,-45.5 0,-15.5 125,-15.5 125,-45.5"/>
<text text-anchor="start" x="8" y="-33.5" font-family="Helvetica,sans-Serif" font-size="10.00">NukiOpener::NukiOpener</text>
<text text-anchor="middle" x="62.5" y="-22.5" font-family="Helvetica,sans-Serif" font-size="10.00">::updateTimeControlEntry</text>
</a>
</g>
</g>
<!-- Node2 -->
<g id="node2" class="node">
<title>Node2</title>
<g id="a_node2"><a xlink:href="namespace_nuki_opener.html#aa944d8da41129e4c94392db3b7cd2ae6" target="_top" xlink:title=" ">
<polygon fill="white" stroke="#666666" points="299,-67.5 161,-67.5 161,-37.5 299,-37.5 299,-67.5"/>
<text text-anchor="start" x="169" y="-55.5" font-family="Helvetica,sans-Serif" font-size="10.00">NukiOpener::logTimeControl</text>
<text text-anchor="middle" x="230" y="-44.5" font-family="Helvetica,sans-Serif" font-size="10.00">Entry</text>
</a>
</g>
</g>
<!-- Node1&#45;&gt;Node2 -->
<g id="edge1" class="edge">
<title>Node1&#45;&gt;Node2</title>
<path fill="none" stroke="#63b8ff" d="M125.13,-38.69C133,-39.74 141.14,-40.82 149.25,-41.9"/>
<polygon fill="#63b8ff" stroke="#63b8ff" points="148.77,-45.37 159.15,-43.21 149.7,-38.43 148.77,-45.37"/>
</g>
<!-- Node3 -->
<g id="node3" class="node">
<title>Node3</title>
<g id="a_node3"><a xlink:href="namespace_nuki.html#a280e19d4682ca4b35d3fe64001da816a" target="_top" xlink:title=" ">
<polygon fill="white" stroke="#666666" points="273,-19 187,-19 187,0 273,0 273,-19"/>
<text text-anchor="middle" x="230" y="-7" font-family="Helvetica,sans-Serif" font-size="10.00">Nuki::printBuffer</text>
</a>
</g>
</g>
<!-- Node1&#45;&gt;Node3 -->
<g id="edge2" class="edge">
<title>Node1&#45;&gt;Node3</title>
<path fill="none" stroke="#63b8ff" d="M125.13,-22.68C141.62,-20.59 159.31,-18.34 175.33,-16.31"/>
<polygon fill="#63b8ff" stroke="#63b8ff" points="175.68,-19.79 185.16,-15.06 174.8,-12.85 175.68,-19.79"/>
</g>
</g>
</svg>
