<?xml version="1.0" encoding="UTF-8" standalone="no"?>
<!DOCTYPE svg PUBLIC "-//W3C//DTD SVG 1.1//EN"
 "http://www.w3.org/Graphics/SVG/1.1/DTD/svg11.dtd">
<!-- Generated by graphviz version 12.2.1 (20241206.2353)
 -->
<!-- Title: NukiOpener::NukiOpener::setDoubleButtonPressAction Pages: 1 -->
<svg width="879pt" height="205pt"
 viewBox="0.00 0.00 878.50 204.75" xmlns="http://www.w3.org/2000/svg" xmlns:xlink="http://www.w3.org/1999/xlink">
<g id="graph0" class="graph" transform="scale(1 1) rotate(0) translate(4 200.75)">
<title>NukiOpener::NukiOpener::setDoubleButtonPressAction</title>
<!-- Node1 -->
<g id="Node000001" class="node">
<title>Node1</title>
<g id="a_Node000001"><a xlink:title="Gets the current advanced config from the opener, updates the double button press action parameter an...">
<polygon fill="#999999" stroke="#666666" points="145.75,-102.35 0,-102.35 0,-71.85 145.75,-71.85 145.75,-102.35"/>
<text text-anchor="start" x="8" y="-88.85" font-family="Helvetica,sans-Serif" font-size="10.00">NukiOpener::NukiOpener</text>
<text text-anchor="middle" x="72.88" y="-77.6" font-family="Helvetica,sans-Serif" font-size="10.00">::setDoubleButtonPressAction</text>
</a>
</g>
</g>
<!-- Node2 -->
<g id="Node000002" class="node">
<title>Node2</title>
<g id="a_Node000002"><a xlink:href="class_nuki_opener_1_1_nuki_opener.html#adf50e8b8e35409d8aa43de69c43535b5" target="_top" xlink:title="Requests advanced config from Opener via BLE.">
<polygon fill="white" stroke="#666666" points="305.75,-102.35 181.75,-102.35 181.75,-71.85 305.75,-71.85 305.75,-102.35"/>
<text text-anchor="start" x="189.75" y="-88.85" font-family="Helvetica,sans-Serif" font-size="10.00">NukiOpener::NukiOpener</text>
<text text-anchor="middle" x="243.75" y="-77.6" font-family="Helvetica,sans-Serif" font-size="10.00">::requestAdvancedConfig</text>
</a>
</g>
</g>
<!-- Node1&#45;&gt;Node2 -->
<g id="edge1_Node000001_Node000002" class="edge">
<title>Node1&#45;&gt;Node2</title>
<g id="a_edge1_Node000001_Node000002"><a xlink:title=" ">
<path fill="none" stroke="#63b8ff" d="M145.98,-87.1C153.87,-87.1 161.91,-87.1 169.81,-87.1"/>
<polygon fill="#63b8ff" stroke="#63b8ff" points="169.74,-90.6 179.74,-87.1 169.74,-83.6 169.74,-90.6"/>
</a>
</g>
</g>
<!-- Node3 -->
<g id="Node000003" class="node">
<title>Node3</title>
<g id="a_Node000003"><a xlink:href="class_nuki_1_1_nuki_ble.html#af1f1e299e8d97e053bba80e92ba285d6" target="_top" xlink:title=" ">
<polygon fill="white" stroke="#666666" points="483,-96.73 341.75,-96.73 341.75,-77.48 483,-77.48 483,-96.73"/>
<text text-anchor="middle" x="412.38" y="-83.23" font-family="Helvetica,sans-Serif" font-size="10.00">Nuki::NukiBle::executeAction</text>
</a>
</g>
</g>
<!-- Node2&#45;&gt;Node3 -->
<g id="edge2_Node000002_Node000003" class="edge">
<title>Node2&#45;&gt;Node3</title>
<g id="a_edge2_Node000002_Node000003"><a xlink:title=" ">
<path fill="none" stroke="#63b8ff" d="M305.85,-87.1C313.68,-87.1 321.79,-87.1 329.87,-87.1"/>
<polygon fill="#63b8ff" stroke="#63b8ff" points="329.75,-90.6 339.75,-87.1 329.75,-83.6 329.75,-90.6"/>
</a>
</g>
</g>
<!-- Node4 -->
<g id="Node000004" class="node">
<title>Node4</title>
<g id="a_Node000004"><a xlink:href="class_nuki_1_1_nuki_ble.html#ada0f3beebd95d35c122e25dd3f9eb886" target="_top" xlink:title=" ">
<polygon fill="white" stroke="#666666" points="667,-173.35 529.5,-173.35 529.5,-142.85 667,-142.85 667,-173.35"/>
<text text-anchor="start" x="537.5" y="-159.85" font-family="Helvetica,sans-Serif" font-size="10.00">Nuki::NukiBle::cmdChallAcc</text>
<text text-anchor="middle" x="598.25" y="-148.6" font-family="Helvetica,sans-Serif" font-size="10.00">StateMachine</text>
</a>
</g>
</g>
<!-- Node3&#45;&gt;Node4 -->
<g id="edge3_Node000003_Node000004" class="edge">
<title>Node3&#45;&gt;Node4</title>
<g id="a_edge3_Node000003_Node000004"><a xlink:title=" ">
<path fill="none" stroke="#63b8ff" d="M434.56,-97.09C455.7,-106.87 489.24,-121.9 519,-133.1 524.21,-135.06 529.64,-137 535.12,-138.89"/>
<polygon fill="#63b8ff" stroke="#63b8ff" points="533.61,-142.08 544.21,-141.95 535.85,-135.44 533.61,-142.08"/>
</a>
</g>
</g>
<!-- Node5 -->
<g id="Node000005" class="node">
<title>Node5</title>
<g id="a_Node000005"><a xlink:href="class_nuki_1_1_nuki_ble.html#a6e8fca90c04249660dce6cb993eb4495" target="_top" xlink:title=" ">
<polygon fill="white" stroke="#666666" points="870.5,-169.35 713.5,-169.35 713.5,-138.85 870.5,-138.85 870.5,-169.35"/>
<text text-anchor="start" x="721.5" y="-155.85" font-family="Helvetica,sans-Serif" font-size="10.00">Nuki::NukiBle::extendDisconnect</text>
<text text-anchor="middle" x="792" y="-144.6" font-family="Helvetica,sans-Serif" font-size="10.00">Timeout</text>
</a>
</g>
</g>
<!-- Node3&#45;&gt;Node5 -->
<g id="edge15_Node000003_Node000005" class="edge">
<title>Node3&#45;&gt;Node5</title>
<g id="a_edge15_Node000003_Node000005"><a xlink:title=" ">
<path fill="none" stroke="#63b8ff" d="M420.39,-97.14C435.54,-117.83 473.64,-164.7 519,-182.1 591.51,-209.91 682.42,-190.75 738.61,-173.28"/>
<polygon fill="#63b8ff" stroke="#63b8ff" points="739.47,-176.68 747.93,-170.29 737.33,-170.02 739.47,-176.68"/>
</a>
</g>
</g>
<!-- Node6 -->
<g id="Node000006" class="node">
<title>Node6</title>
<g id="a_Node000006"><a xlink:href="class_nuki_1_1_nuki_ble.html#ac7ce691d9c3e586474655d1663eb2e20" target="_top" xlink:title=" ">
<polygon fill="white" stroke="#666666" points="858.12,-78.73 725.88,-78.73 725.88,-59.48 858.12,-59.48 858.12,-78.73"/>
<text text-anchor="middle" x="792" y="-65.23" font-family="Helvetica,sans-Serif" font-size="10.00">Nuki::NukiBle::logMessage</text>
</a>
</g>
</g>
<!-- Node3&#45;&gt;Node6 -->
<g id="edge16_Node000003_Node000006" class="edge">
<title>Node3&#45;&gt;Node6</title>
<g id="a_edge16_Node000003_Node000006"><a xlink:title=" ">
<path fill="none" stroke="#63b8ff" d="M423.31,-77.03C440.78,-60.1 478.99,-26.58 519,-14.1 586.25,6.88 608.84,1.66 677.5,-14.1 710.11,-21.59 744.23,-39.73 766.44,-53.14"/>
<polygon fill="#63b8ff" stroke="#63b8ff" points="764.41,-56 774.75,-58.3 768.1,-50.06 764.41,-56"/>
</a>
</g>
</g>
<!-- Node7 -->
<g id="Node000007" class="node">
<title>Node7</title>
<g id="a_Node000007"><a xlink:href="class_nuki_1_1_nuki_ble.html#af3650133f46aeca48a5f01b95d23ab71" target="_top" xlink:title=" ">
<polygon fill="white" stroke="#666666" points="865.62,-116.73 718.38,-116.73 718.38,-97.48 865.62,-97.48 865.62,-116.73"/>
<text text-anchor="middle" x="792" y="-103.23" font-family="Helvetica,sans-Serif" font-size="10.00">Nuki::NukiBle::logMessageVar</text>
</a>
</g>
</g>
<!-- Node3&#45;&gt;Node7 -->
<g id="edge17_Node000003_Node000007" class="edge">
<title>Node3&#45;&gt;Node7</title>
<g id="a_edge17_Node000003_Node000007"><a xlink:title=" ">
<path fill="none" stroke="#63b8ff" d="M432.95,-77.03C478.18,-55.24 592.58,-8.66 677.5,-47.1 699.59,-57.1 692.77,-75.52 713.5,-88.1 716.43,-89.88 719.51,-91.49 722.69,-92.95"/>
<polygon fill="#63b8ff" stroke="#63b8ff" points="721.13,-96.09 731.72,-96.55 723.73,-89.59 721.13,-96.09"/>
</a>
</g>
</g>
<!-- Node8 -->
<g id="Node000008" class="node">
<title>Node8</title>
<g id="a_Node000008"><a xlink:href="class_nuki_1_1_nuki_ble.html#a59169a9f492793762e3c6ba39b611b07" target="_top" xlink:title=" ">
<polygon fill="white" stroke="#666666" points="670,-124.35 526.5,-124.35 526.5,-93.85 670,-93.85 670,-124.35"/>
<text text-anchor="start" x="534.5" y="-110.85" font-family="Helvetica,sans-Serif" font-size="10.00">Nuki::NukiBle::cmdChallState</text>
<text text-anchor="middle" x="598.25" y="-99.6" font-family="Helvetica,sans-Serif" font-size="10.00">Machine</text>
</a>
</g>
</g>
<!-- Node3&#45;&gt;Node8 -->
<g id="edge7_Node000003_Node000008" class="edge">
<title>Node3&#45;&gt;Node8</title>
<g id="a_edge7_Node000003_Node000008"><a xlink:title=" ">
<path fill="none" stroke="#63b8ff" d="M483.41,-95.48C493.7,-96.71 504.37,-97.99 514.88,-99.25"/>
<polygon fill="#63b8ff" stroke="#63b8ff" points="514.34,-102.71 524.68,-100.42 515.17,-95.76 514.34,-102.71"/>
</a>
</g>
</g>
<!-- Node9 -->
<g id="Node000009" class="node">
<title>Node9</title>
<g id="a_Node000009"><a xlink:href="class_nuki_1_1_nuki_ble.html#ad135bb1455665decfddff67772c1d411" target="_top" xlink:title=" ">
<polygon fill="white" stroke="#666666" points="677.5,-75.73 519,-75.73 519,-56.48 677.5,-56.48 677.5,-75.73"/>
<text text-anchor="middle" x="598.25" y="-62.23" font-family="Helvetica,sans-Serif" font-size="10.00">Nuki::NukiBle::cmdStateMachine</text>
</a>
</g>
</g>
<!-- Node3&#45;&gt;Node9 -->
<g id="edge11_Node000003_Node000009" class="edge">
<title>Node3&#45;&gt;Node9</title>
<g id="a_edge11_Node000003_Node000009"><a xlink:title=" ">
<path fill="none" stroke="#63b8ff" d="M483.41,-79.1C491.28,-78.21 499.37,-77.28 507.44,-76.36"/>
<polygon fill="#63b8ff" stroke="#63b8ff" points="507.76,-79.85 517.3,-75.23 506.97,-72.89 507.76,-79.85"/>
</a>
</g>
</g>
<!-- Node4&#45;&gt;Node5 -->
<g id="edge4_Node000004_Node000005" class="edge">
<title>Node4&#45;&gt;Node5</title>
<g id="a_edge4_Node000004_Node000005"><a xlink:title=" ">
<path fill="none" stroke="#63b8ff" d="M667.39,-156.68C678.54,-156.45 690.22,-156.2 701.78,-155.96"/>
<polygon fill="#63b8ff" stroke="#63b8ff" points="701.83,-159.46 711.76,-155.76 701.69,-152.46 701.83,-159.46"/>
</a>
</g>
</g>
<!-- Node4&#45;&gt;Node6 -->
<g id="edge5_Node000004_Node000006" class="edge">
<title>Node4&#45;&gt;Node6</title>
<g id="a_edge5_Node000004_Node000006"><a xlink:title=" ">
<path fill="none" stroke="#63b8ff" d="M660.72,-142.38C666.63,-139.73 672.33,-136.66 677.5,-133.1 698.6,-118.58 691.91,-101.89 713.5,-88.1 716.09,-86.45 718.82,-84.94 721.63,-83.56"/>
<polygon fill="#63b8ff" stroke="#63b8ff" points="722.91,-86.82 730.76,-79.7 720.19,-80.37 722.91,-86.82"/>
</a>
</g>
</g>
<!-- Node4&#45;&gt;Node7 -->
<g id="edge6_Node000004_Node000007" class="edge">
<title>Node4&#45;&gt;Node7</title>
<g id="a_edge6_Node000004_Node000007"><a xlink:title=" ">
<path fill="none" stroke="#63b8ff" d="M658.35,-142.38C685.19,-135.25 716.56,-126.9 742.05,-120.12"/>
<polygon fill="#63b8ff" stroke="#63b8ff" points="742.72,-123.56 751.49,-117.61 740.93,-116.8 742.72,-123.56"/>
</a>
</g>
</g>
<!-- Node8&#45;&gt;Node5 -->
<g id="edge8_Node000008_Node000005" class="edge">
<title>Node8&#45;&gt;Node5</title>
<g id="a_edge8_Node000008_Node000005"><a xlink:title=" ">
<path fill="none" stroke="#63b8ff" d="M666.31,-124.84C681.35,-128.37 697.43,-132.14 712.87,-135.77"/>
<polygon fill="#63b8ff" stroke="#63b8ff" points="711.96,-139.15 722.5,-138.03 713.56,-132.33 711.96,-139.15"/>
</a>
</g>
</g>
<!-- Node8&#45;&gt;Node6 -->
<g id="edge9_Node000008_Node000006" class="edge">
<title>Node8&#45;&gt;Node6</title>
<g id="a_edge9_Node000008_Node000006"><a xlink:title=" ">
<path fill="none" stroke="#63b8ff" d="M670.38,-94.26C690.51,-90.06 712.21,-85.54 731.58,-81.5"/>
<polygon fill="#63b8ff" stroke="#63b8ff" points="732.13,-84.96 741.2,-79.49 730.7,-78.11 732.13,-84.96"/>
</a>
</g>
</g>
<!-- Node8&#45;&gt;Node7 -->
<g id="edge10_Node000008_Node000007" class="edge">
<title>Node8&#45;&gt;Node7</title>
<g id="a_edge10_Node000008_Node000007"><a xlink:title=" ">
<path fill="none" stroke="#63b8ff" d="M670.38,-108.36C682.17,-108.24 694.5,-108.11 706.58,-107.98"/>
<polygon fill="#63b8ff" stroke="#63b8ff" points="706.59,-111.48 716.55,-107.88 706.51,-104.48 706.59,-111.48"/>
</a>
</g>
</g>
<!-- Node9&#45;&gt;Node5 -->
<g id="edge12_Node000009_Node000005" class="edge">
<title>Node9&#45;&gt;Node5</title>
<g id="a_edge12_Node000009_Node000005"><a xlink:title=" ">
<path fill="none" stroke="#63b8ff" d="M658.09,-76.18C664.89,-78.55 671.52,-81.48 677.5,-85.1 698.25,-97.66 693.46,-112.44 713.5,-126.1 717.6,-128.9 722.01,-131.45 726.58,-133.77"/>
<polygon fill="#63b8ff" stroke="#63b8ff" points="724.83,-136.82 735.37,-137.86 727.78,-130.47 724.83,-136.82"/>
</a>
</g>
</g>
<!-- Node9&#45;&gt;Node6 -->
<g id="edge13_Node000009_Node000006" class="edge">
<title>Node9&#45;&gt;Node6</title>
<g id="a_edge13_Node000009_Node000006"><a xlink:title=" ">
<path fill="none" stroke="#63b8ff" d="M677.8,-67.33C689.79,-67.52 702.15,-67.71 714.11,-67.9"/>
<polygon fill="#63b8ff" stroke="#63b8ff" points="713.85,-71.4 723.91,-68.05 713.96,-64.4 713.85,-71.4"/>
</a>
</g>
</g>
<!-- Node9&#45;&gt;Node7 -->
<g id="edge14_Node000009_Node000007" class="edge">
<title>Node9&#45;&gt;Node7</title>
<g id="a_edge14_Node000009_Node000007"><a xlink:title=" ">
<path fill="none" stroke="#63b8ff" d="M646.16,-76.13C672.27,-81.72 705.02,-88.72 732.76,-94.65"/>
<polygon fill="#63b8ff" stroke="#63b8ff" points="731.92,-98.05 742.43,-96.72 733.39,-91.2 731.92,-98.05"/>
</a>
</g>
</g>
</g>
</svg>
