<?xml version="1.0" encoding="UTF-8" standalone="no"?>
<!DOCTYPE svg PUBLIC "-//W3C//DTD SVG 1.1//EN"
 "http://www.w3.org/Graphics/SVG/1.1/DTD/svg11.dtd">
<!-- Generated by graphviz version 12.1.2 (20240928.0832)
 -->
<!-- Title: Nuki::NukiBle::updateKeypadEntry Pages: 1 -->
<!--zoomable 183 -->

<svg id="main" version="1.1" xmlns="http://www.w3.org/2000/svg" xmlns:xlink="http://www.w3.org/1999/xlink" xml:space="preserve" onload="init(evt)">

<style type="text/css"><![CDATA[
.node, .edge {opacity: 0.7;}
.node.selected, .edge.selected {opacity: 1;}
.edge:hover path { stroke: red; }
.edge:hover polygon { stroke: red; fill: red; }
]]></style>

<defs>
  <circle id="rim" cx="0" cy="0" r="7"/>
  <circle id="rim2" cx="0" cy="0" r="3.5"/>
  <g id="zoomPlus">
    <use xlink:href="#rim" fill="#404040"><set attributeName="fill" to="#808080" begin="zoomplus.mouseover" end="zoomplus.mouseout"/></use>
    <path d="M-4,0h8M0,-4v8" fill="none" stroke="white" stroke-width="1.5" pointer-events="none"/>
  </g>
  <g id="zoomMin">
    <use xlink:href="#rim" fill="#404040"><set attributeName="fill" to="#808080" begin="zoomminus.mouseover" end="zoomminus.mouseout"/></use>
    <path d="M-4,0h8" fill="none" stroke="white" stroke-width="1.5" pointer-events="none"/>
  </g>
  <g id="arrowUp" transform="translate(30 24)">
    <use xlink:href="#rim"/>
    <path pointer-events="none" fill="none" stroke="white" stroke-width="1.5" d="M0,-3.0v7 M-2.5,-0.5L0,-3.0L2.5,-0.5"/>
  </g>
  <g id="arrowRight" transform="rotate(90) translate(36 -43)">
    <use xlink:href="#rim"/>
    <path pointer-events="none" fill="none" stroke="white" stroke-width="1.5" d="M0,-3.0v7 M-2.5,-0.5L0,-3.0L2.5,-0.5"/>
  </g>
  <g id="arrowDown" transform="rotate(180) translate(-30 -48)">
    <use xlink:href="#rim"/>
    <path pointer-events="none" fill="none" stroke="white" stroke-width="1.5" d="M0,-3.0v7 M-2.5,-0.5L0,-3.0L2.5,-0.5"/>
  </g>
  <g id="arrowLeft" transform="rotate(270) translate(-36 17)">
    <use xlink:href="#rim"/>
    <path pointer-events="none" fill="none" stroke="white" stroke-width="1.5" d="M0,-3.0v7 M-2.5,-0.5L0,-3.0L2.5,-0.5"/>
  </g>
  <g id="resetDef">
    <use xlink:href="#rim2" fill="#404040"><set attributeName="fill" to="#808080" begin="reset.mouseover" end="reset.mouseout"/></use>
  </g>
</defs>
<script type="application/ecmascript">
var viewWidth = 717;
var viewHeight = 183;
var sectionId = 'dynsection-27';
</script>
<script type="application/ecmascript" xlink:href="svg.min.js"/>
<svg id="graph" class="graph">
<g id="viewport">
<title>Nuki::NukiBle::updateKeypadEntry</title>
<!-- Node1 -->
<g id="Node000001" class="node">
<title>Node1</title>
<g id="a_Node000001"><a xlink:title="Send an updated keypad entry to the lock via BLE.">
<polygon fill="#999999" stroke="#666666" points="141.25,-67.88 0,-67.88 0,-37.38 141.25,-37.38 141.25,-67.88"/>
<text text-anchor="start" x="8" y="-54.38" font-family="Helvetica,sans-Serif" font-size="10.00">Nuki::NukiBle::updateKeypad</text>
<text text-anchor="middle" x="70.62" y="-43.12" font-family="Helvetica,sans-Serif" font-size="10.00">Entry</text>
</a>
</g>
</g>
<!-- Node2 -->
<g id="Node000002" class="node">
<title>Node2</title>
<g id="a_Node000002"><a xlink:href="class_nuki_1_1_nuki_ble.html#af1f1e299e8d97e053bba80e92ba285d6" target="_top" xlink:title=" ">
<polygon fill="white" stroke="#666666" points="320,-105.25 178.75,-105.25 178.75,-86 320,-86 320,-105.25"/>
<text text-anchor="middle" x="249.38" y="-91.75" font-family="Helvetica,sans-Serif" font-size="10.00">Nuki::NukiBle::executeAction</text>
</a>
</g>
</g>
<!-- Node1&#45;&gt;Node2 -->
<g id="edge1_Node000001_Node000002" class="edge">
<title>Node1&#45;&gt;Node2</title>
<g id="a_edge1_Node000001_Node000002"><a xlink:title=" ">
<path fill="none" stroke="#63b8ff" d="M136.19,-68.33C155.8,-73.1 177.1,-78.28 195.82,-82.84"/>
<polygon fill="#63b8ff" stroke="#63b8ff" points="194.79,-86.19 205.33,-85.15 196.44,-79.39 194.79,-86.19"/>
</a>
</g>
</g>
<!-- Node7 -->
<g id="Node000007" class="node">
<title>Node7</title>
<g id="a_Node000007"><a xlink:href="namespace_nuki_lock.html#af2b794f25294d2c5505a91d16687d512" target="_top" xlink:title=" ">
<polygon fill="white" stroke="#666666" points="321.5,-67.88 177.25,-67.88 177.25,-37.38 321.5,-37.38 321.5,-67.88"/>
<text text-anchor="start" x="185.25" y="-54.38" font-family="Helvetica,sans-Serif" font-size="10.00">NukiLock::logUpdatedKeypad</text>
<text text-anchor="middle" x="249.38" y="-43.12" font-family="Helvetica,sans-Serif" font-size="10.00">Entry</text>
</a>
</g>
</g>
<!-- Node1&#45;&gt;Node7 -->
<g id="edge9_Node000001_Node000007" class="edge">
<title>Node1&#45;&gt;Node7</title>
<g id="a_edge9_Node000001_Node000007"><a xlink:title=" ">
<path fill="none" stroke="#63b8ff" d="M141.74,-52.62C149.6,-52.62 157.66,-52.62 165.66,-52.62"/>
<polygon fill="#63b8ff" stroke="#63b8ff" points="165.39,-56.13 175.39,-52.63 165.39,-49.13 165.39,-56.13"/>
</a>
</g>
</g>
<!-- Node8 -->
<g id="Node000008" class="node">
<title>Node8</title>
<g id="a_Node000008"><a xlink:href="namespace_nuki.html#a280e19d4682ca4b35d3fe64001da816a" target="_top" xlink:title=" ">
<polygon fill="white" stroke="#666666" points="291.88,-19.25 206.88,-19.25 206.88,0 291.88,0 291.88,-19.25"/>
<text text-anchor="middle" x="249.38" y="-5.75" font-family="Helvetica,sans-Serif" font-size="10.00">Nuki::printBuffer</text>
</a>
</g>
</g>
<!-- Node1&#45;&gt;Node8 -->
<g id="edge10_Node000001_Node000008" class="edge">
<title>Node1&#45;&gt;Node8</title>
<g id="a_edge10_Node000001_Node000008"><a xlink:title=" ">
<path fill="none" stroke="#63b8ff" d="M136.19,-36.92C155.8,-32.15 177.1,-26.97 195.82,-22.41"/>
<polygon fill="#63b8ff" stroke="#63b8ff" points="196.44,-25.86 205.33,-20.1 194.79,-19.06 196.44,-25.86"/>
</a>
</g>
</g>
<!-- Node3 -->
<g id="Node000003" class="node">
<title>Node3</title>
<g id="a_Node000003"><a xlink:href="class_nuki_1_1_nuki_ble.html#ada0f3beebd95d35c122e25dd3f9eb886" target="_top" xlink:title=" ">
<polygon fill="white" stroke="#666666" points="505.5,-174.88 368,-174.88 368,-144.38 505.5,-144.38 505.5,-174.88"/>
<text text-anchor="start" x="376" y="-161.38" font-family="Helvetica,sans-Serif" font-size="10.00">Nuki::NukiBle::cmdChallAcc</text>
<text text-anchor="middle" x="436.75" y="-150.12" font-family="Helvetica,sans-Serif" font-size="10.00">StateMachine</text>
</a>
</g>
</g>
<!-- Node2&#45;&gt;Node3 -->
<g id="edge2_Node000002_Node000003" class="edge">
<title>Node2&#45;&gt;Node3</title>
<g id="a_edge2_Node000002_Node000003"><a xlink:title=" ">
<path fill="none" stroke="#63b8ff" d="M279.34,-105.62C306.17,-114.89 346.81,-128.92 379.94,-140.36"/>
<polygon fill="#63b8ff" stroke="#63b8ff" points="378.38,-143.52 388.97,-143.47 380.66,-136.9 378.38,-143.52"/>
</a>
</g>
</g>
<!-- Node4 -->
<g id="Node000004" class="node">
<title>Node4</title>
<g id="a_Node000004"><a xlink:href="class_nuki_1_1_nuki_ble.html#a6e8fca90c04249660dce6cb993eb4495" target="_top" xlink:title=" ">
<polygon fill="white" stroke="#666666" points="709,-109.88 552,-109.88 552,-79.38 709,-79.38 709,-109.88"/>
<text text-anchor="start" x="560" y="-96.38" font-family="Helvetica,sans-Serif" font-size="10.00">Nuki::NukiBle::extendDisconnect</text>
<text text-anchor="middle" x="630.5" y="-85.12" font-family="Helvetica,sans-Serif" font-size="10.00">Timeout</text>
</a>
</g>
</g>
<!-- Node2&#45;&gt;Node4 -->
<g id="edge8_Node000002_Node000004" class="edge">
<title>Node2&#45;&gt;Node4</title>
<g id="a_edge8_Node000002_Node000004"><a xlink:title=" ">
<path fill="none" stroke="#63b8ff" d="M320.39,-97.12C332.75,-97.33 345.5,-97.51 357.5,-97.62 427.94,-98.28 445.56,-98.56 516,-97.62 523.93,-97.52 532.16,-97.37 540.42,-97.2"/>
<polygon fill="#63b8ff" stroke="#63b8ff" points="540.23,-100.71 550.15,-96.99 540.07,-93.71 540.23,-100.71"/>
</a>
</g>
</g>
<!-- Node5 -->
<g id="Node000005" class="node">
<title>Node5</title>
<g id="a_Node000005"><a xlink:href="class_nuki_1_1_nuki_ble.html#a59169a9f492793762e3c6ba39b611b07" target="_top" xlink:title=" ">
<polygon fill="white" stroke="#666666" points="508.5,-88.88 365,-88.88 365,-58.38 508.5,-58.38 508.5,-88.88"/>
<text text-anchor="start" x="373" y="-75.38" font-family="Helvetica,sans-Serif" font-size="10.00">Nuki::NukiBle::cmdChallState</text>
<text text-anchor="middle" x="436.75" y="-64.12" font-family="Helvetica,sans-Serif" font-size="10.00">Machine</text>
</a>
</g>
</g>
<!-- Node2&#45;&gt;Node5 -->
<g id="edge4_Node000002_Node000005" class="edge">
<title>Node2&#45;&gt;Node5</title>
<g id="a_edge4_Node000002_Node000005"><a xlink:title=" ">
<path fill="none" stroke="#63b8ff" d="M320.46,-87.31C331.19,-86.03 342.35,-84.71 353.31,-83.41"/>
<polygon fill="#63b8ff" stroke="#63b8ff" points="353.62,-86.9 363.14,-82.24 352.8,-79.95 353.62,-86.9"/>
</a>
</g>
</g>
<!-- Node6 -->
<g id="Node000006" class="node">
<title>Node6</title>
<g id="a_Node000006"><a xlink:href="class_nuki_1_1_nuki_ble.html#ad135bb1455665decfddff67772c1d411" target="_top" xlink:title=" ">
<polygon fill="white" stroke="#666666" points="516,-40.25 357.5,-40.25 357.5,-21 516,-21 516,-40.25"/>
<text text-anchor="middle" x="436.75" y="-26.75" font-family="Helvetica,sans-Serif" font-size="10.00">Nuki::NukiBle::cmdStateMachine</text>
</a>
</g>
</g>
<!-- Node2&#45;&gt;Node6 -->
<g id="edge6_Node000002_Node000006" class="edge">
<title>Node2&#45;&gt;Node6</title>
<g id="a_edge6_Node000002_Node000006"><a xlink:title=" ">
<path fill="none" stroke="#63b8ff" d="M298.35,-85.51C306.27,-83.08 314.26,-80.14 321.5,-76.62 339.49,-67.88 339.41,-58.16 357.5,-49.62 361.77,-47.61 366.27,-45.8 370.87,-44.17"/>
<polygon fill="#63b8ff" stroke="#63b8ff" points="371.83,-47.54 380.28,-41.15 369.69,-40.87 371.83,-47.54"/>
</a>
</g>
</g>
<!-- Node3&#45;&gt;Node4 -->
<g id="edge3_Node000003_Node000004" class="edge">
<title>Node3&#45;&gt;Node4</title>
<g id="a_edge3_Node000003_Node000004"><a xlink:title=" ">
<path fill="none" stroke="#63b8ff" d="M484.17,-143.89C510.68,-134.9 544.15,-123.56 572.29,-114.02"/>
<polygon fill="#63b8ff" stroke="#63b8ff" points="573.4,-117.34 581.74,-110.81 571.15,-110.71 573.4,-117.34"/>
</a>
</g>
</g>
<!-- Node5&#45;&gt;Node4 -->
<g id="edge5_Node000005_Node000004" class="edge">
<title>Node5&#45;&gt;Node4</title>
<g id="a_edge5_Node000005_Node000004"><a xlink:title=" ">
<path fill="none" stroke="#63b8ff" d="M508.88,-81.41C519.13,-82.54 529.79,-83.71 540.34,-84.86"/>
<polygon fill="#63b8ff" stroke="#63b8ff" points="539.9,-88.33 550.22,-85.94 540.66,-81.37 539.9,-88.33"/>
</a>
</g>
</g>
<!-- Node6&#45;&gt;Node4 -->
<g id="edge7_Node000006_Node000004" class="edge">
<title>Node6&#45;&gt;Node4</title>
<g id="a_edge7_Node000006_Node000004"><a xlink:title=" ">
<path fill="none" stroke="#63b8ff" d="M483.97,-40.72C494.57,-43.34 505.74,-46.36 516,-49.62 538.43,-56.76 562.76,-66.17 583.12,-74.54"/>
<polygon fill="#63b8ff" stroke="#63b8ff" points="581.7,-77.74 592.28,-78.35 584.39,-71.28 581.7,-77.74"/>
</a>
</g>
</g>
</g>
</svg>

<g id="navigator" transform="translate(0 0)" fill="#404254">
  <rect fill="#f2f5e9" fill-opacity="0.5" stroke="#606060" stroke-width=".5" x="0" y="0" width="60" height="60"/>
  <use id="zoomplus" xlink:href="#zoomPlus" x="17" y="9" onmousedown="handleZoom(evt,'in')"/>
  <use id="zoomminus" xlink:href="#zoomMin" x="42" y="9" onmousedown="handleZoom(evt,'out')"/>
  <use id="reset" xlink:href="#resetDef" x="30" y="36" onmousedown="handleReset()"/>
   <use id="arrowup" xlink:href="#arrowUp" x="0" y="0" onmousedown="handlePan(0,-1)"/>
  <use id="arrowright" xlink:href="#arrowRight" x="0" y="0" onmousedown="handlePan(1,0)"/>
  <use id="arrowdown" xlink:href="#arrowDown" x="0" y="0" onmousedown="handlePan(0,1)"/>
  <use id="arrowleft" xlink:href="#arrowLeft" x="0" y="0" onmousedown="handlePan(-1,0)"/>
</g>
<svg viewBox="0 0 15 15" width="100%" height="30px" preserveAspectRatio="xMaxYMin meet">
 <g id="arrow_out" transform="scale(0.3 0.3)">
  <a xlink:href="class_nuki_1_1_nuki_ble_a0f1be2034e079e676a7771dfb775df81_cgraph_org.svg" target="_base">
   <rect id="button" ry="5" rx="5" y="6" x="6" height="38" width="38"
        fill="#f2f5e9" fill-opacity="0.5" stroke="#606060" stroke-width="1.0"/>
   <path id="arrow"
     d="M 11.500037,31.436501 C 11.940474,20.09759 22.043105,11.32322 32.158766,21.979434 L 37.068811,17.246167 C 37.068811,17.246167 37.088388,32 37.088388,32 L 22.160133,31.978069 C 22.160133,31.978069 26.997745,27.140456 26.997745,27.140456 C 18.528582,18.264221 13.291696,25.230495 11.500037,31.436501 z"
     style="fill:#404040;"/>
  </a>
 </g>
</svg>

<style type='text/css'>
<![CDATA[
[data-mouse-over-selected='false'] { opacity: 0.7; }
[data-mouse-over-selected='true']  { opacity: 1.0; }
]]>
</style>
<script type="application/ecmascript"><![CDATA[
document.addEventListener('DOMContentLoaded', (event) => {
  highlightEdges();
  highlightAdjacentNodes();
});
]]></script>
</svg>
