<?xml version="1.0" encoding="UTF-8" standalone="no"?>
<!DOCTYPE svg PUBLIC "-//W3C//DTD SVG 1.1//EN"
 "http://www.w3.org/Graphics/SVG/1.1/DTD/svg11.dtd">
<!-- Generated by graphviz version 12.2.1 (20241206.2353)
 -->
<!-- Title: NukiLock::NukiLock::enableAutoBatteryTypeDetection Pages: 1 -->
<svg width="894pt" height="215pt"
 viewBox="0.00 0.00 894.25 214.53" xmlns="http://www.w3.org/2000/svg" xmlns:xlink="http://www.w3.org/1999/xlink">
<g id="graph0" class="graph" transform="scale(1 1) rotate(0) translate(4 210.53)">
<title>NukiLock::NukiLock::enableAutoBatteryTypeDetection</title>
<!-- Node1 -->
<g id="Node000001" class="node">
<title>Node1</title>
<g id="a_Node000001"><a xlink:title="Gets the current advanced config from the lock, updates the enable battery type detection parameter a...">
<polygon fill="#999999" stroke="#666666" points="162.25,-123.78 0,-123.78 0,-93.28 162.25,-93.28 162.25,-123.78"/>
<text text-anchor="start" x="8" y="-110.28" font-family="Helvetica,sans-Serif" font-size="10.00">NukiLock::NukiLock</text>
<text text-anchor="middle" x="81.12" y="-99.03" font-family="Helvetica,sans-Serif" font-size="10.00">::enableAutoBatteryTypeDetection</text>
</a>
</g>
</g>
<!-- Node2 -->
<g id="Node000002" class="node">
<title>Node2</title>
<g id="a_Node000002"><a xlink:href="class_nuki_lock_1_1_nuki_lock.html#aa882f9b3256313bbd45b4269f8c74521" target="_top" xlink:title="Requests advanced config from Lock via BLE.">
<polygon fill="white" stroke="#666666" points="321.5,-123.78 198.25,-123.78 198.25,-93.28 321.5,-93.28 321.5,-123.78"/>
<text text-anchor="start" x="206.25" y="-110.28" font-family="Helvetica,sans-Serif" font-size="10.00">NukiLock::NukiLock</text>
<text text-anchor="middle" x="259.88" y="-99.03" font-family="Helvetica,sans-Serif" font-size="10.00">::requestAdvancedConfig</text>
</a>
</g>
</g>
<!-- Node1&#45;&gt;Node2 -->
<g id="edge1_Node000001_Node000002" class="edge">
<title>Node1&#45;&gt;Node2</title>
<g id="a_edge1_Node000001_Node000002"><a xlink:title=" ">
<path fill="none" stroke="#63b8ff" d="M162.74,-108.53C170.69,-108.53 178.73,-108.53 186.59,-108.53"/>
<polygon fill="#63b8ff" stroke="#63b8ff" points="186.44,-112.03 196.44,-108.53 186.44,-105.03 186.44,-112.03"/>
</a>
</g>
</g>
<!-- Node3 -->
<g id="Node000003" class="node">
<title>Node3</title>
<g id="a_Node000003"><a xlink:href="class_nuki_1_1_nuki_ble.html#af1f1e299e8d97e053bba80e92ba285d6" target="_top" xlink:title=" ">
<polygon fill="white" stroke="#666666" points="498.75,-118.16 357.5,-118.16 357.5,-98.91 498.75,-98.91 498.75,-118.16"/>
<text text-anchor="middle" x="428.12" y="-104.66" font-family="Helvetica,sans-Serif" font-size="10.00">Nuki::NukiBle::executeAction</text>
</a>
</g>
</g>
<!-- Node2&#45;&gt;Node3 -->
<g id="edge2_Node000002_Node000003" class="edge">
<title>Node2&#45;&gt;Node3</title>
<g id="a_edge2_Node000002_Node000003"><a xlink:title=" ">
<path fill="none" stroke="#63b8ff" d="M321.84,-108.53C329.65,-108.53 337.74,-108.53 345.81,-108.53"/>
<polygon fill="#63b8ff" stroke="#63b8ff" points="345.66,-112.03 355.66,-108.53 345.66,-105.03 345.66,-112.03"/>
</a>
</g>
</g>
<!-- Node4 -->
<g id="Node000004" class="node">
<title>Node4</title>
<g id="a_Node000004"><a xlink:href="class_nuki_1_1_nuki_ble.html#ada0f3beebd95d35c122e25dd3f9eb886" target="_top" xlink:title=" ">
<polygon fill="white" stroke="#666666" points="682.75,-145.78 545.25,-145.78 545.25,-115.28 682.75,-115.28 682.75,-145.78"/>
<text text-anchor="start" x="553.25" y="-132.28" font-family="Helvetica,sans-Serif" font-size="10.00">Nuki::NukiBle::cmdChallAcc</text>
<text text-anchor="middle" x="614" y="-121.03" font-family="Helvetica,sans-Serif" font-size="10.00">StateMachine</text>
</a>
</g>
</g>
<!-- Node3&#45;&gt;Node4 -->
<g id="edge3_Node000003_Node000004" class="edge">
<title>Node3&#45;&gt;Node4</title>
<g id="a_edge3_Node000003_Node000004"><a xlink:title=" ">
<path fill="none" stroke="#63b8ff" d="M499.16,-116.91C510.43,-118.26 522.16,-119.66 533.63,-121.04"/>
<polygon fill="#63b8ff" stroke="#63b8ff" points="533.13,-124.5 543.47,-122.21 533.96,-117.55 533.13,-124.5"/>
</a>
</g>
</g>
<!-- Node5 -->
<g id="Node000005" class="node">
<title>Node5</title>
<g id="a_Node000005"><a xlink:href="class_nuki_1_1_nuki_ble.html#a6e8fca90c04249660dce6cb993eb4495" target="_top" xlink:title=" ">
<polygon fill="white" stroke="#666666" points="886.25,-186.78 729.25,-186.78 729.25,-156.28 886.25,-156.28 886.25,-186.78"/>
<text text-anchor="start" x="737.25" y="-173.28" font-family="Helvetica,sans-Serif" font-size="10.00">Nuki::NukiBle::extendDisconnect</text>
<text text-anchor="middle" x="807.75" y="-162.03" font-family="Helvetica,sans-Serif" font-size="10.00">Timeout</text>
</a>
</g>
</g>
<!-- Node3&#45;&gt;Node5 -->
<g id="edge16_Node000003_Node000005" class="edge">
<title>Node3&#45;&gt;Node5</title>
<g id="a_edge16_Node000003_Node000005"><a xlink:title=" ">
<path fill="none" stroke="#63b8ff" d="M437.41,-118.58C453.7,-137.45 492.06,-177.63 534.75,-192.53 604.13,-216.76 689.32,-203.9 745.68,-190.02"/>
<polygon fill="#63b8ff" stroke="#63b8ff" points="746.26,-193.48 755.08,-187.61 744.53,-186.7 746.26,-193.48"/>
</a>
</g>
</g>
<!-- Node6 -->
<g id="Node000006" class="node">
<title>Node6</title>
<g id="a_Node000006"><a xlink:href="class_nuki_1_1_nuki_ble.html#ac7ce691d9c3e586474655d1663eb2e20" target="_top" xlink:title=" ">
<polygon fill="white" stroke="#666666" points="873.88,-137.16 741.62,-137.16 741.62,-117.91 873.88,-117.91 873.88,-137.16"/>
<text text-anchor="middle" x="807.75" y="-123.66" font-family="Helvetica,sans-Serif" font-size="10.00">Nuki::NukiBle::logMessage</text>
</a>
</g>
</g>
<!-- Node3&#45;&gt;Node6 -->
<g id="edge17_Node000003_Node000006" class="edge">
<title>Node3&#45;&gt;Node6</title>
<g id="a_edge17_Node000003_Node000006"><a xlink:title=" ">
<path fill="none" stroke="#63b8ff" d="M499.01,-107.02C510.93,-106.82 523.2,-106.64 534.75,-106.53 605.19,-105.87 623.1,-100.1 693.25,-106.53 712.34,-108.28 733.01,-111.66 751.41,-115.2"/>
<polygon fill="#63b8ff" stroke="#63b8ff" points="750.57,-118.6 761.06,-117.12 751.93,-111.73 750.57,-118.6"/>
</a>
</g>
</g>
<!-- Node7 -->
<g id="Node000007" class="node">
<title>Node7</title>
<g id="a_Node000007"><a xlink:href="class_nuki_1_1_nuki_ble.html#af3650133f46aeca48a5f01b95d23ab71" target="_top" xlink:title=" ">
<polygon fill="white" stroke="#666666" points="881.38,-97.16 734.12,-97.16 734.12,-77.91 881.38,-77.91 881.38,-97.16"/>
<text text-anchor="middle" x="807.75" y="-83.66" font-family="Helvetica,sans-Serif" font-size="10.00">Nuki::NukiBle::logMessageVar</text>
</a>
</g>
</g>
<!-- Node3&#45;&gt;Node7 -->
<g id="edge18_Node000003_Node000007" class="edge">
<title>Node3&#45;&gt;Node7</title>
<g id="a_edge18_Node000003_Node000007"><a xlink:title=" ">
<path fill="none" stroke="#63b8ff" d="M436.8,-98.62C452.61,-79.14 490.99,-36.37 534.75,-20.53 600.99,3.44 629.42,9.27 693.25,-20.53 715.83,-31.08 708.5,-49.73 729.25,-63.53 735.1,-67.42 741.61,-70.71 748.3,-73.48"/>
<polygon fill="#63b8ff" stroke="#63b8ff" points="746.89,-76.69 757.49,-76.89 749.33,-70.13 746.89,-76.69"/>
</a>
</g>
</g>
<!-- Node8 -->
<g id="Node000008" class="node">
<title>Node8</title>
<g id="a_Node000008"><a xlink:href="class_nuki_1_1_nuki_ble.html#a59169a9f492793762e3c6ba39b611b07" target="_top" xlink:title=" ">
<polygon fill="white" stroke="#666666" points="685.75,-59.78 542.25,-59.78 542.25,-29.28 685.75,-29.28 685.75,-59.78"/>
<text text-anchor="start" x="550.25" y="-46.28" font-family="Helvetica,sans-Serif" font-size="10.00">Nuki::NukiBle::cmdChallState</text>
<text text-anchor="middle" x="614" y="-35.03" font-family="Helvetica,sans-Serif" font-size="10.00">Machine</text>
</a>
</g>
</g>
<!-- Node3&#45;&gt;Node8 -->
<g id="edge7_Node000003_Node000008" class="edge">
<title>Node3&#45;&gt;Node8</title>
<g id="a_edge7_Node000003_Node000008"><a xlink:title=" ">
<path fill="none" stroke="#63b8ff" d="M457.86,-98.53C484.35,-89.31 524.43,-75.36 557.21,-63.95"/>
<polygon fill="#63b8ff" stroke="#63b8ff" points="558.3,-67.28 566.59,-60.69 555.99,-60.67 558.3,-67.28"/>
</a>
</g>
</g>
<!-- Node10 -->
<g id="Node000010" class="node">
<title>Node10</title>
<g id="a_Node000010"><a xlink:href="class_nuki_1_1_nuki_ble.html#ad135bb1455665decfddff67772c1d411" target="_top" xlink:title=" ">
<polygon fill="white" stroke="#666666" points="693.25,-183.16 534.75,-183.16 534.75,-163.91 693.25,-163.91 693.25,-183.16"/>
<text text-anchor="middle" x="614" y="-169.66" font-family="Helvetica,sans-Serif" font-size="10.00">Nuki::NukiBle::cmdStateMachine</text>
</a>
</g>
</g>
<!-- Node3&#45;&gt;Node10 -->
<g id="edge12_Node000003_Node000010" class="edge">
<title>Node3&#45;&gt;Node10</title>
<g id="a_edge12_Node000003_Node000010"><a xlink:title=" ">
<path fill="none" stroke="#63b8ff" d="M449.36,-118.59C470.32,-128.72 504.23,-144.27 534.75,-154.53 541.27,-156.73 548.18,-158.78 555.08,-160.66"/>
<polygon fill="#63b8ff" stroke="#63b8ff" points="553.84,-163.96 564.4,-163.1 555.61,-157.19 553.84,-163.96"/>
</a>
</g>
</g>
<!-- Node4&#45;&gt;Node5 -->
<g id="edge4_Node000004_Node000005" class="edge">
<title>Node4&#45;&gt;Node5</title>
<g id="a_edge4_Node000004_Node000005"><a xlink:title=" ">
<path fill="none" stroke="#63b8ff" d="M683.14,-145.1C695.84,-147.82 709.25,-150.69 722.37,-153.49"/>
<polygon fill="#63b8ff" stroke="#63b8ff" points="721.31,-156.84 731.82,-155.51 722.77,-150 721.31,-156.84"/>
</a>
</g>
</g>
<!-- Node4&#45;&gt;Node6 -->
<g id="edge5_Node000004_Node000006" class="edge">
<title>Node4&#45;&gt;Node6</title>
<g id="a_edge5_Node000004_Node000006"><a xlink:title=" ">
<path fill="none" stroke="#63b8ff" d="M683.14,-129.47C698.39,-129.23 714.66,-128.97 730.22,-128.73"/>
<polygon fill="#63b8ff" stroke="#63b8ff" points="729.94,-132.24 739.88,-128.58 729.83,-125.24 729.94,-132.24"/>
</a>
</g>
</g>
<!-- Node4&#45;&gt;Node7 -->
<g id="edge6_Node000004_Node000007" class="edge">
<title>Node4&#45;&gt;Node7</title>
<g id="a_edge6_Node000004_Node000007"><a xlink:title=" ">
<path fill="none" stroke="#63b8ff" d="M683.14,-115.25C705.23,-110.3 729.45,-104.87 750.57,-100.13"/>
<polygon fill="#63b8ff" stroke="#63b8ff" points="751.15,-103.59 760.14,-97.99 749.61,-96.76 751.15,-103.59"/>
</a>
</g>
</g>
<!-- Node8&#45;&gt;Node5 -->
<g id="edge8_Node000008_Node000005" class="edge">
<title>Node8&#45;&gt;Node5</title>
<g id="a_edge8_Node000008_Node000005"><a xlink:title=" ">
<path fill="none" stroke="#63b8ff" d="M636.72,-60.19C652.88,-72.21 675.18,-89.57 693.25,-106.53 710.68,-122.91 709.18,-133.53 729.25,-146.53 731.64,-148.08 734.13,-149.54 736.69,-150.91"/>
<polygon fill="#63b8ff" stroke="#63b8ff" points="734.98,-153.97 745.51,-155.15 738.01,-147.66 734.98,-153.97"/>
</a>
</g>
</g>
<!-- Node8&#45;&gt;Node6 -->
<g id="edge10_Node000008_Node000006" class="edge">
<title>Node8&#45;&gt;Node6</title>
<g id="a_edge10_Node000008_Node000006"><a xlink:title=" ">
<path fill="none" stroke="#63b8ff" d="M666.02,-60.17C675.38,-63.94 684.84,-68.4 693.25,-73.53 711.77,-84.85 710.24,-96.06 729.25,-106.53 734.24,-109.28 739.6,-111.68 745.1,-113.78"/>
<polygon fill="#63b8ff" stroke="#63b8ff" points="743.75,-117.02 754.34,-116.97 746.03,-110.4 743.75,-117.02"/>
</a>
</g>
</g>
<!-- Node8&#45;&gt;Node7 -->
<g id="edge11_Node000008_Node000007" class="edge">
<title>Node8&#45;&gt;Node7</title>
<g id="a_edge11_Node000008_Node000007"><a xlink:title=" ">
<path fill="none" stroke="#63b8ff" d="M685.04,-60.24C706.61,-65.08 730.07,-70.34 750.59,-74.94"/>
<polygon fill="#63b8ff" stroke="#63b8ff" points="749.65,-78.32 760.17,-77.09 751.18,-71.49 749.65,-78.32"/>
</a>
</g>
</g>
<!-- Node9 -->
<g id="Node000009" class="node">
<title>Node9</title>
<g id="a_Node000009"><a xlink:href="class_nuki_1_1_nuki_ble.html#a25207bb564a4b54b8dd8c872177b53a7" target="_top" xlink:title="Returns if BLE is pairing/paired/connected with a Smart Lock Ultra.">
<polygon fill="white" stroke="#666666" points="872.75,-54.16 742.75,-54.16 742.75,-34.91 872.75,-34.91 872.75,-54.16"/>
<text text-anchor="middle" x="807.75" y="-40.66" font-family="Helvetica,sans-Serif" font-size="10.00">Nuki::NukiBle::isLockUltra</text>
</a>
</g>
</g>
<!-- Node8&#45;&gt;Node9 -->
<g id="edge9_Node000008_Node000009" class="edge">
<title>Node8&#45;&gt;Node9</title>
<g id="a_edge9_Node000008_Node000009"><a xlink:title=" ">
<path fill="none" stroke="#63b8ff" d="M686.13,-44.53C700.82,-44.53 716.35,-44.53 731.19,-44.53"/>
<polygon fill="#63b8ff" stroke="#63b8ff" points="730.87,-48.03 740.87,-44.53 730.87,-41.03 730.87,-48.03"/>
</a>
</g>
</g>
<!-- Node10&#45;&gt;Node5 -->
<g id="edge13_Node000010_Node000005" class="edge">
<title>Node10&#45;&gt;Node5</title>
<g id="a_edge13_Node000010_Node000005"><a xlink:title=" ">
<path fill="none" stroke="#63b8ff" d="M693.55,-172.71C701.49,-172.63 709.6,-172.55 717.64,-172.46"/>
<polygon fill="#63b8ff" stroke="#63b8ff" points="717.47,-175.96 727.43,-172.36 717.4,-168.97 717.47,-175.96"/>
</a>
</g>
</g>
<!-- Node10&#45;&gt;Node6 -->
<g id="edge14_Node000010_Node000006" class="edge">
<title>Node10&#45;&gt;Node6</title>
<g id="a_edge14_Node000010_Node000006"><a xlink:title=" ">
<path fill="none" stroke="#63b8ff" d="M657.08,-163.44C685.55,-156.61 723.39,-147.53 753.89,-140.21"/>
<polygon fill="#63b8ff" stroke="#63b8ff" points="754.39,-143.69 763.3,-137.96 752.76,-136.89 754.39,-143.69"/>
</a>
</g>
</g>
<!-- Node10&#45;&gt;Node7 -->
<g id="edge15_Node000010_Node000007" class="edge">
<title>Node10&#45;&gt;Node7</title>
<g id="a_edge15_Node000010_Node000007"><a xlink:title=" ">
<path fill="none" stroke="#63b8ff" d="M674.86,-163.49C681.33,-161.11 687.61,-158.17 693.25,-154.53 715.07,-140.47 707.62,-122.88 729.25,-108.53 733,-106.05 737.03,-103.85 741.22,-101.92"/>
<polygon fill="#63b8ff" stroke="#63b8ff" points="742.51,-105.17 750.47,-98.19 739.89,-98.68 742.51,-105.17"/>
</a>
</g>
</g>
</g>
</svg>
