<?xml version="1.0" encoding="UTF-8" standalone="no"?>
<!DOCTYPE svg PUBLIC "-//W3C//DTD SVG 1.1//EN"
 "http://www.w3.org/Graphics/SVG/1.1/DTD/svg11.dtd">
<!-- Generated by graphviz version 12.2.1 (20241206.2353)
 -->
<!-- Title: NukiOpener::NukiOpener::addTimeControlEntry Pages: 1 -->
<svg width="713pt" height="289pt"
 viewBox="0.00 0.00 713.25 289.03" xmlns="http://www.w3.org/2000/svg" xmlns:xlink="http://www.w3.org/1999/xlink">
<g id="graph0" class="graph" transform="scale(1 1) rotate(0) translate(4 285.03)">
<title>NukiOpener::NukiOpener::addTimeControlEntry</title>
<!-- Node1 -->
<g id="Node000001" class="node">
<title>Node1</title>
<g id="a_Node000001"><a xlink:title="Sends a new time(d) control entry via BLE to the opener. This entry is independant of keypad or autho...">
<polygon fill="#999999" stroke="#666666" points="124,-88.88 0,-88.88 0,-58.38 124,-58.38 124,-88.88"/>
<text text-anchor="start" x="8" y="-75.38" font-family="Helvetica,sans-Serif" font-size="10.00">NukiOpener::NukiOpener</text>
<text text-anchor="middle" x="62" y="-64.12" font-family="Helvetica,sans-Serif" font-size="10.00">::addTimeControlEntry</text>
</a>
</g>
</g>
<!-- Node2 -->
<g id="Node000002" class="node">
<title>Node2</title>
<g id="a_Node000002"><a xlink:href="class_nuki_1_1_nuki_ble.html#af1f1e299e8d97e053bba80e92ba285d6" target="_top" xlink:title=" ">
<polygon fill="white" stroke="#666666" points="309.5,-186.25 168.25,-186.25 168.25,-167 309.5,-167 309.5,-186.25"/>
<text text-anchor="middle" x="238.88" y="-172.75" font-family="Helvetica,sans-Serif" font-size="10.00">Nuki::NukiBle::executeAction</text>
</a>
</g>
</g>
<!-- Node1&#45;&gt;Node2 -->
<g id="edge1_Node000001_Node000002" class="edge">
<title>Node1&#45;&gt;Node2</title>
<g id="a_edge1_Node000001_Node000002"><a xlink:title=" ">
<path fill="none" stroke="#63b8ff" d="M89.56,-89.27C122.49,-108.67 178.31,-141.54 211.27,-160.95"/>
<polygon fill="#63b8ff" stroke="#63b8ff" points="209.41,-163.92 219.8,-165.98 212.96,-157.89 209.41,-163.92"/>
</a>
</g>
</g>
<!-- Node10 -->
<g id="Node000010" class="node">
<title>Node10</title>
<g id="a_Node000010"><a xlink:href="namespace_nuki_opener.html#ac87f753e40affc2a7be0d69862685555" target="_top" xlink:title=" ">
<polygon fill="white" stroke="#666666" points="502.88,-62.25 363.12,-62.25 363.12,-43 502.88,-43 502.88,-62.25"/>
<text text-anchor="middle" x="433" y="-48.75" font-family="Helvetica,sans-Serif" font-size="10.00">NukiOpener::logMessageVar</text>
</a>
</g>
</g>
<!-- Node1&#45;&gt;Node10 -->
<g id="edge18_Node000001_Node000010" class="edge">
<title>Node1&#45;&gt;Node10</title>
<g id="a_edge18_Node000001_Node000010"><a xlink:title=" ">
<path fill="none" stroke="#63b8ff" d="M124.31,-75.81C136.15,-76.15 148.46,-76.45 160,-76.62 230.1,-77.71 248.01,-83.87 317.75,-76.62 339.25,-74.39 362.67,-69.85 382.67,-65.32"/>
<polygon fill="#63b8ff" stroke="#63b8ff" points="383.29,-68.77 392.23,-63.08 381.7,-61.95 383.29,-68.77"/>
</a>
</g>
</g>
<!-- Node11 -->
<g id="Node000011" class="node">
<title>Node11</title>
<g id="a_Node000011"><a xlink:href="namespace_nuki_opener.html#a2dddaad56246fc87dd8f3f2939ebef93" target="_top" xlink:title=" ">
<polygon fill="white" stroke="#666666" points="317.75,-67.88 160,-67.88 160,-37.38 317.75,-37.38 317.75,-67.88"/>
<text text-anchor="start" x="168" y="-54.38" font-family="Helvetica,sans-Serif" font-size="10.00">NukiOpener::logNewTimeControl</text>
<text text-anchor="middle" x="238.88" y="-43.12" font-family="Helvetica,sans-Serif" font-size="10.00">Entry</text>
</a>
</g>
</g>
<!-- Node1&#45;&gt;Node11 -->
<g id="edge19_Node000001_Node000011" class="edge">
<title>Node1&#45;&gt;Node11</title>
<g id="a_edge19_Node000001_Node000011"><a xlink:title=" ">
<path fill="none" stroke="#63b8ff" d="M124.16,-66.28C132.02,-65.34 140.18,-64.36 148.38,-63.37"/>
<polygon fill="#63b8ff" stroke="#63b8ff" points="148.52,-66.88 158.03,-62.21 147.68,-59.93 148.52,-66.88"/>
</a>
</g>
</g>
<!-- Node12 -->
<g id="Node000012" class="node">
<title>Node12</title>
<g id="a_Node000012"><a xlink:href="namespace_nuki.html#a438fdfcef9f81eb0a3e493631b71ca5b" target="_top" xlink:title=" ">
<polygon fill="white" stroke="#666666" points="281.38,-19.25 196.38,-19.25 196.38,0 281.38,0 281.38,-19.25"/>
<text text-anchor="middle" x="238.88" y="-5.75" font-family="Helvetica,sans-Serif" font-size="10.00">Nuki::printBuffer</text>
</a>
</g>
</g>
<!-- Node1&#45;&gt;Node12 -->
<g id="edge21_Node000001_Node000012" class="edge">
<title>Node1&#45;&gt;Node12</title>
<g id="a_edge21_Node000001_Node000012"><a xlink:title=" ">
<path fill="none" stroke="#63b8ff" d="M92.95,-57.88C111.81,-48.43 136.87,-36.72 160,-28.62 168.04,-25.81 176.68,-23.26 185.18,-21"/>
<polygon fill="#63b8ff" stroke="#63b8ff" points="185.91,-24.42 194.75,-18.58 184.19,-17.64 185.91,-24.42"/>
</a>
</g>
</g>
<!-- Node3 -->
<g id="Node000003" class="node">
<title>Node3</title>
<g id="a_Node000003"><a xlink:href="class_nuki_1_1_nuki_ble.html#ada0f3beebd95d35c122e25dd3f9eb886" target="_top" xlink:title=" ">
<polygon fill="white" stroke="#666666" points="501.75,-234.88 364.25,-234.88 364.25,-204.38 501.75,-204.38 501.75,-234.88"/>
<text text-anchor="start" x="372.25" y="-221.38" font-family="Helvetica,sans-Serif" font-size="10.00">Nuki::NukiBle::cmdChallAcc</text>
<text text-anchor="middle" x="433" y="-210.12" font-family="Helvetica,sans-Serif" font-size="10.00">StateMachine</text>
</a>
</g>
</g>
<!-- Node2&#45;&gt;Node3 -->
<g id="edge2_Node000002_Node000003" class="edge">
<title>Node2&#45;&gt;Node3</title>
<g id="a_edge2_Node000002_Node000003"><a xlink:title=" ">
<path fill="none" stroke="#63b8ff" d="M284.92,-186.71C305.13,-191.23 329.58,-196.7 352.69,-201.87"/>
<polygon fill="#63b8ff" stroke="#63b8ff" points="351.9,-205.29 362.43,-204.05 353.43,-198.45 351.9,-205.29"/>
</a>
</g>
</g>
<!-- Node4 -->
<g id="Node000004" class="node">
<title>Node4</title>
<g id="a_Node000004"><a xlink:href="class_nuki_1_1_nuki_ble.html#a6e8fca90c04249660dce6cb993eb4495" target="_top" xlink:title=" ">
<polygon fill="white" stroke="#666666" points="705.25,-191.88 548.25,-191.88 548.25,-161.38 705.25,-161.38 705.25,-191.88"/>
<text text-anchor="start" x="556.25" y="-178.38" font-family="Helvetica,sans-Serif" font-size="10.00">Nuki::NukiBle::extendDisconnect</text>
<text text-anchor="middle" x="626.75" y="-167.12" font-family="Helvetica,sans-Serif" font-size="10.00">Timeout</text>
</a>
</g>
</g>
<!-- Node2&#45;&gt;Node4 -->
<g id="edge15_Node000002_Node000004" class="edge">
<title>Node2&#45;&gt;Node4</title>
<g id="a_edge15_Node000002_Node000004"><a xlink:title=" ">
<path fill="none" stroke="#63b8ff" d="M251.85,-186.65C271.57,-202.45 312.81,-232.47 353.75,-243.62 421.72,-262.14 448.42,-273.43 512.25,-243.62 534.83,-233.08 527.5,-214.43 548.25,-200.62 550.05,-199.43 551.92,-198.28 553.83,-197.2"/>
<polygon fill="#63b8ff" stroke="#63b8ff" points="555.04,-200.51 562.4,-192.89 551.89,-194.26 555.04,-200.51"/>
</a>
</g>
</g>
<!-- Node5 -->
<g id="Node000005" class="node">
<title>Node5</title>
<g id="a_Node000005"><a xlink:href="class_nuki_1_1_nuki_ble.html#ac7ce691d9c3e586474655d1663eb2e20" target="_top" xlink:title=" ">
<polygon fill="white" stroke="#666666" points="692.88,-229.25 560.62,-229.25 560.62,-210 692.88,-210 692.88,-229.25"/>
<text text-anchor="middle" x="626.75" y="-215.75" font-family="Helvetica,sans-Serif" font-size="10.00">Nuki::NukiBle::logMessage</text>
</a>
</g>
</g>
<!-- Node2&#45;&gt;Node5 -->
<g id="edge16_Node000002_Node000005" class="edge">
<title>Node2&#45;&gt;Node5</title>
<g id="a_edge16_Node000002_Node000005"><a xlink:title=" ">
<path fill="none" stroke="#63b8ff" d="M248.02,-186.47C265.13,-206.27 307.1,-250.41 353.75,-266.62 420.29,-289.75 443.16,-280.36 512.25,-266.62 542.81,-260.55 575.45,-246.1 597.85,-234.81"/>
<polygon fill="#63b8ff" stroke="#63b8ff" points="599.35,-237.98 606.62,-230.28 596.13,-231.76 599.35,-237.98"/>
</a>
</g>
</g>
<!-- Node6 -->
<g id="Node000006" class="node">
<title>Node6</title>
<g id="a_Node000006"><a xlink:href="class_nuki_1_1_nuki_ble.html#af3650133f46aeca48a5f01b95d23ab71" target="_top" xlink:title=" ">
<polygon fill="white" stroke="#666666" points="700.38,-143.25 553.12,-143.25 553.12,-124 700.38,-124 700.38,-143.25"/>
<text text-anchor="middle" x="626.75" y="-129.75" font-family="Helvetica,sans-Serif" font-size="10.00">Nuki::NukiBle::logMessageVar</text>
</a>
</g>
</g>
<!-- Node2&#45;&gt;Node6 -->
<g id="edge17_Node000002_Node000006" class="edge">
<title>Node2&#45;&gt;Node6</title>
<g id="a_edge17_Node000002_Node000006"><a xlink:title=" ">
<path fill="none" stroke="#63b8ff" d="M251.85,-166.6C271.57,-150.8 312.81,-120.78 353.75,-109.62 421.72,-91.11 442.19,-102.3 512.25,-109.62 523.92,-110.85 548.49,-115.93 571.79,-121.1"/>
<polygon fill="#63b8ff" stroke="#63b8ff" points="570.71,-124.45 581.24,-123.22 572.25,-117.62 570.71,-124.45"/>
</a>
</g>
</g>
<!-- Node7 -->
<g id="Node000007" class="node">
<title>Node7</title>
<g id="a_Node000007"><a xlink:href="class_nuki_1_1_nuki_ble.html#a59169a9f492793762e3c6ba39b611b07" target="_top" xlink:title=" ">
<polygon fill="white" stroke="#666666" points="504.75,-148.88 361.25,-148.88 361.25,-118.38 504.75,-118.38 504.75,-148.88"/>
<text text-anchor="start" x="369.25" y="-135.38" font-family="Helvetica,sans-Serif" font-size="10.00">Nuki::NukiBle::cmdChallState</text>
<text text-anchor="middle" x="433" y="-124.12" font-family="Helvetica,sans-Serif" font-size="10.00">Machine</text>
</a>
</g>
</g>
<!-- Node2&#45;&gt;Node7 -->
<g id="edge6_Node000002_Node000007" class="edge">
<title>Node2&#45;&gt;Node7</title>
<g id="a_edge6_Node000002_Node000007"><a xlink:title=" ">
<path fill="none" stroke="#63b8ff" d="M284.92,-166.54C304.55,-162.15 328.2,-156.86 350.72,-151.82"/>
<polygon fill="#63b8ff" stroke="#63b8ff" points="351.2,-155.3 360.19,-149.7 349.67,-148.46 351.2,-155.3"/>
</a>
</g>
</g>
<!-- Node9 -->
<g id="Node000009" class="node">
<title>Node9</title>
<g id="a_Node000009"><a xlink:href="class_nuki_1_1_nuki_ble.html#ad135bb1455665decfddff67772c1d411" target="_top" xlink:title=" ">
<polygon fill="white" stroke="#666666" points="512.25,-186.25 353.75,-186.25 353.75,-167 512.25,-167 512.25,-186.25"/>
<text text-anchor="middle" x="433" y="-172.75" font-family="Helvetica,sans-Serif" font-size="10.00">Nuki::NukiBle::cmdStateMachine</text>
</a>
</g>
</g>
<!-- Node2&#45;&gt;Node9 -->
<g id="edge11_Node000002_Node000009" class="edge">
<title>Node2&#45;&gt;Node9</title>
<g id="a_edge11_Node000002_Node000009"><a xlink:title=" ">
<path fill="none" stroke="#63b8ff" d="M309.78,-176.62C320.29,-176.62 331.25,-176.62 342.11,-176.62"/>
<polygon fill="#63b8ff" stroke="#63b8ff" points="341.85,-180.13 351.85,-176.63 341.85,-173.13 341.85,-180.13"/>
</a>
</g>
</g>
<!-- Node3&#45;&gt;Node4 -->
<g id="edge3_Node000003_Node000004" class="edge">
<title>Node3&#45;&gt;Node4</title>
<g id="a_edge3_Node000003_Node000004"><a xlink:title=" ">
<path fill="none" stroke="#63b8ff" d="M502.14,-204.34C515.82,-201.28 530.32,-198.03 544.39,-194.87"/>
<polygon fill="#63b8ff" stroke="#63b8ff" points="545.09,-198.3 554.08,-192.7 543.56,-191.47 545.09,-198.3"/>
</a>
</g>
</g>
<!-- Node3&#45;&gt;Node5 -->
<g id="edge4_Node000003_Node000005" class="edge">
<title>Node3&#45;&gt;Node5</title>
<g id="a_edge4_Node000003_Node000005"><a xlink:title=" ">
<path fill="none" stroke="#63b8ff" d="M502.14,-219.62C517.39,-219.62 533.66,-219.62 549.22,-219.62"/>
<polygon fill="#63b8ff" stroke="#63b8ff" points="548.88,-223.13 558.88,-219.63 548.88,-216.13 548.88,-223.13"/>
</a>
</g>
</g>
<!-- Node3&#45;&gt;Node6 -->
<g id="edge5_Node000003_Node000006" class="edge">
<title>Node3&#45;&gt;Node6</title>
<g id="a_edge5_Node000003_Node000006"><a xlink:title=" ">
<path fill="none" stroke="#63b8ff" d="M497,-203.91C502.35,-201.51 507.51,-198.77 512.25,-195.62 533.02,-181.85 527.09,-165.8 548.25,-152.62 551.01,-150.91 553.91,-149.35 556.9,-147.93"/>
<polygon fill="#63b8ff" stroke="#63b8ff" points="558.07,-151.23 565.99,-144.19 555.41,-144.76 558.07,-151.23"/>
</a>
</g>
</g>
<!-- Node7&#45;&gt;Node4 -->
<g id="edge7_Node000007_Node000004" class="edge">
<title>Node7&#45;&gt;Node4</title>
<g id="a_edge7_Node000007_Node000004"><a xlink:title=" ">
<path fill="none" stroke="#63b8ff" d="M504.04,-149.33C517.16,-152.27 530.98,-155.37 544.41,-158.39"/>
<polygon fill="#63b8ff" stroke="#63b8ff" points="543.58,-161.78 554.1,-160.56 545.11,-154.95 543.58,-161.78"/>
</a>
</g>
</g>
<!-- Node7&#45;&gt;Node5 -->
<g id="edge9_Node000007_Node000005" class="edge">
<title>Node7&#45;&gt;Node5</title>
<g id="a_edge9_Node000007_Node000005"><a xlink:title=" ">
<path fill="none" stroke="#63b8ff" d="M497,-149.34C502.35,-151.74 507.51,-154.48 512.25,-157.62 533.02,-171.4 527.09,-187.45 548.25,-200.62 551.01,-202.34 553.91,-203.9 556.9,-205.32"/>
<polygon fill="#63b8ff" stroke="#63b8ff" points="555.41,-208.49 565.99,-209.06 558.07,-202.02 555.41,-208.49"/>
</a>
</g>
</g>
<!-- Node7&#45;&gt;Node6 -->
<g id="edge10_Node000007_Node000006" class="edge">
<title>Node7&#45;&gt;Node6</title>
<g id="a_edge10_Node000007_Node000006"><a xlink:title=" ">
<path fill="none" stroke="#63b8ff" d="M505.13,-133.62C516.92,-133.62 529.25,-133.62 541.33,-133.62"/>
<polygon fill="#63b8ff" stroke="#63b8ff" points="541.3,-137.13 551.3,-133.63 541.3,-130.13 541.3,-137.13"/>
</a>
</g>
</g>
<!-- Node8 -->
<g id="Node000008" class="node">
<title>Node8</title>
<g id="a_Node000008"><a xlink:href="class_nuki_1_1_nuki_ble.html#a25207bb564a4b54b8dd8c872177b53a7" target="_top" xlink:title="Returns if BLE is pairing/paired/connected with a Smart Lock Ultra.">
<polygon fill="white" stroke="#666666" points="691.75,-106.25 561.75,-106.25 561.75,-87 691.75,-87 691.75,-106.25"/>
<text text-anchor="middle" x="626.75" y="-92.75" font-family="Helvetica,sans-Serif" font-size="10.00">Nuki::NukiBle::isLockUltra</text>
</a>
</g>
</g>
<!-- Node7&#45;&gt;Node8 -->
<g id="edge8_Node000007_Node000008" class="edge">
<title>Node7&#45;&gt;Node8</title>
<g id="a_edge8_Node000007_Node000008"><a xlink:title=" ">
<path fill="none" stroke="#63b8ff" d="M505.13,-119.9C523.84,-116.29 543.9,-112.42 562.19,-108.89"/>
<polygon fill="#63b8ff" stroke="#63b8ff" points="562.67,-112.36 571.83,-107.03 561.35,-105.49 562.67,-112.36"/>
</a>
</g>
</g>
<!-- Node9&#45;&gt;Node4 -->
<g id="edge12_Node000009_Node000004" class="edge">
<title>Node9&#45;&gt;Node4</title>
<g id="a_edge12_Node000009_Node000004"><a xlink:title=" ">
<path fill="none" stroke="#63b8ff" d="M512.55,-176.62C520.49,-176.62 528.6,-176.62 536.64,-176.62"/>
<polygon fill="#63b8ff" stroke="#63b8ff" points="536.43,-180.13 546.43,-176.63 536.43,-173.13 536.43,-180.13"/>
</a>
</g>
</g>
<!-- Node9&#45;&gt;Node5 -->
<g id="edge13_Node000009_Node000005" class="edge">
<title>Node9&#45;&gt;Node5</title>
<g id="a_edge13_Node000009_Node000005"><a xlink:title=" ">
<path fill="none" stroke="#63b8ff" d="M478.96,-186.71C506.03,-192.78 540.72,-200.56 569.59,-207.03"/>
<polygon fill="#63b8ff" stroke="#63b8ff" points="568.74,-210.43 579.27,-209.2 570.27,-203.6 568.74,-210.43"/>
</a>
</g>
</g>
<!-- Node9&#45;&gt;Node6 -->
<g id="edge14_Node000009_Node000006" class="edge">
<title>Node9&#45;&gt;Node6</title>
<g id="a_edge14_Node000009_Node000006"><a xlink:title=" ">
<path fill="none" stroke="#63b8ff" d="M478.96,-166.54C506.03,-160.47 540.72,-152.69 569.59,-146.22"/>
<polygon fill="#63b8ff" stroke="#63b8ff" points="570.27,-149.65 579.27,-144.05 568.74,-142.82 570.27,-149.65"/>
</a>
</g>
</g>
<!-- Node11&#45;&gt;Node10 -->
<g id="edge20_Node000011_Node000010" class="edge">
<title>Node11&#45;&gt;Node10</title>
<g id="a_edge20_Node000011_Node000010"><a xlink:title=" ">
<path fill="none" stroke="#63b8ff" d="M318.02,-52.62C329.05,-52.62 340.4,-52.62 351.47,-52.62"/>
<polygon fill="#63b8ff" stroke="#63b8ff" points="351.36,-56.13 361.36,-52.63 351.36,-49.13 351.36,-56.13"/>
</a>
</g>
</g>
</g>
</svg>
