<?xml version="1.0" encoding="UTF-8" standalone="no"?>
<!DOCTYPE svg PUBLIC "-//W3C//DTD SVG 1.1//EN"
 "http://www.w3.org/Graphics/SVG/1.1/DTD/svg11.dtd">
<!-- Generated by graphviz version 12.2.1 (20241206.2353)
 -->
<!-- Title: Nuki::NukiBle::handleReturnMessage Pages: 1 -->
<svg width="305pt" height="88pt"
 viewBox="0.00 0.00 304.75 87.50" xmlns="http://www.w3.org/2000/svg" xmlns:xlink="http://www.w3.org/1999/xlink">
<g id="graph0" class="graph" transform="scale(1 1) rotate(0) translate(4 83.5)">
<title>Nuki::NukiBle::handleReturnMessage</title>
<!-- Node1 -->
<g id="Node000001" class="node">
<title>Node1</title>
<g id="a_Node000001"><a xlink:title=" ">
<polygon fill="#999999" stroke="#666666" points="296.75,-54.5 160,-54.5 160,-24 296.75,-24 296.75,-54.5"/>
<text text-anchor="start" x="168" y="-41" font-family="Helvetica,sans-Serif" font-size="10.00">Nuki::NukiBle::handleReturn</text>
<text text-anchor="middle" x="228.38" y="-29.75" font-family="Helvetica,sans-Serif" font-size="10.00">Message</text>
</a>
</g>
</g>
<!-- Node2 -->
<g id="Node000002" class="node">
<title>Node2</title>
<g id="a_Node000002"><a xlink:href="class_nuki_lock_1_1_nuki_lock.html#a8d9fc4e4a1bde183754ced8b783f82d5" target="_top" xlink:title=" ">
<polygon fill="white" stroke="#666666" points="120.62,-79.5 3.38,-79.5 3.38,-49 120.62,-49 120.62,-79.5"/>
<text text-anchor="start" x="11.38" y="-66" font-family="Helvetica,sans-Serif" font-size="10.00">NukiLock::NukiLock</text>
<text text-anchor="middle" x="62" y="-54.75" font-family="Helvetica,sans-Serif" font-size="10.00">::handleReturnMessage</text>
</a>
</g>
</g>
<!-- Node1&#45;&gt;Node2 -->
<g id="edge1_Node000001_Node000002" class="edge">
<title>Node1&#45;&gt;Node2</title>
<g id="a_edge1_Node000001_Node000002"><a xlink:title=" ">
<path fill="none" stroke="#63b8ff" d="M148.36,-51.27C139.12,-52.67 129.83,-54.09 120.95,-55.44"/>
<polygon fill="#63b8ff" stroke="#63b8ff" points="148.71,-54.75 158.07,-49.79 147.66,-47.83 148.71,-54.75"/>
</a>
</g>
</g>
<!-- Node3 -->
<g id="Node000003" class="node">
<title>Node3</title>
<g id="a_Node000003"><a xlink:href="class_nuki_opener_1_1_nuki_opener.html#a19ad4317e201ebe5e43ad55b6ea906da" target="_top" xlink:title=" ">
<polygon fill="white" stroke="#666666" points="124,-30.5 0,-30.5 0,0 124,0 124,-30.5"/>
<text text-anchor="start" x="8" y="-17" font-family="Helvetica,sans-Serif" font-size="10.00">NukiOpener::NukiOpener</text>
<text text-anchor="middle" x="62" y="-5.75" font-family="Helvetica,sans-Serif" font-size="10.00">::handleReturnMessage</text>
</a>
</g>
</g>
<!-- Node1&#45;&gt;Node3 -->
<g id="edge2_Node000001_Node000003" class="edge">
<title>Node1&#45;&gt;Node3</title>
<g id="a_edge2_Node000001_Node000003"><a xlink:title=" ">
<path fill="none" stroke="#63b8ff" d="M148.26,-27.7C140.22,-26.52 132.14,-25.35 124.33,-24.2"/>
<polygon fill="#63b8ff" stroke="#63b8ff" points="147.67,-31.15 158.07,-29.13 148.68,-24.22 147.67,-31.15"/>
</a>
</g>
</g>
</g>
</svg>
