<?xml version="1.0" encoding="UTF-8" standalone="no"?>
<!DOCTYPE svg PUBLIC "-//W3C//DTD SVG 1.1//EN"
 "http://www.w3.org/Graphics/SVG/1.1/DTD/svg11.dtd">
<!-- Generated by graphviz version 12.2.1 (20241206.2353)
 -->
<!-- Title: NukiLock::NukiLock::retrieveTimeControlEntries Pages: 1 -->
<svg width="708pt" height="215pt"
 viewBox="0.00 0.00 708.00 214.53" xmlns="http://www.w3.org/2000/svg" xmlns:xlink="http://www.w3.org/1999/xlink">
<g id="graph0" class="graph" transform="scale(1 1) rotate(0) translate(4 210.53)">
<title>NukiLock::NukiLock::retrieveTimeControlEntries</title>
<!-- Node1 -->
<g id="Node000001" class="node">
<title>Node1</title>
<g id="a_Node000001"><a xlink:title="Request the lock via BLE to send the existing time control entries.">
<polygon fill="#999999" stroke="#666666" points="135.25,-123.78 0,-123.78 0,-93.28 135.25,-93.28 135.25,-123.78"/>
<text text-anchor="start" x="8" y="-110.28" font-family="Helvetica,sans-Serif" font-size="10.00">NukiLock::NukiLock</text>
<text text-anchor="middle" x="67.62" y="-99.03" font-family="Helvetica,sans-Serif" font-size="10.00">::retrieveTimeControlEntries</text>
</a>
</g>
</g>
<!-- Node2 -->
<g id="Node000002" class="node">
<title>Node2</title>
<g id="a_Node000002"><a xlink:href="class_nuki_1_1_nuki_ble.html#af1f1e299e8d97e053bba80e92ba285d6" target="_top" xlink:title=" ">
<polygon fill="white" stroke="#666666" points="312.5,-118.16 171.25,-118.16 171.25,-98.91 312.5,-98.91 312.5,-118.16"/>
<text text-anchor="middle" x="241.88" y="-104.66" font-family="Helvetica,sans-Serif" font-size="10.00">Nuki::NukiBle::executeAction</text>
</a>
</g>
</g>
<!-- Node1&#45;&gt;Node2 -->
<g id="edge1_Node000001_Node000002" class="edge">
<title>Node1&#45;&gt;Node2</title>
<g id="a_edge1_Node000001_Node000002"><a xlink:title=" ">
<path fill="none" stroke="#63b8ff" d="M135.71,-108.53C143.55,-108.53 151.6,-108.53 159.6,-108.53"/>
<polygon fill="#63b8ff" stroke="#63b8ff" points="159.33,-112.03 169.33,-108.53 159.33,-105.03 159.33,-112.03"/>
</a>
</g>
</g>
<!-- Node3 -->
<g id="Node000003" class="node">
<title>Node3</title>
<g id="a_Node000003"><a xlink:href="class_nuki_1_1_nuki_ble.html#ada0f3beebd95d35c122e25dd3f9eb886" target="_top" xlink:title=" ">
<polygon fill="white" stroke="#666666" points="496.5,-145.78 359,-145.78 359,-115.28 496.5,-115.28 496.5,-145.78"/>
<text text-anchor="start" x="367" y="-132.28" font-family="Helvetica,sans-Serif" font-size="10.00">Nuki::NukiBle::cmdChallAcc</text>
<text text-anchor="middle" x="427.75" y="-121.03" font-family="Helvetica,sans-Serif" font-size="10.00">StateMachine</text>
</a>
</g>
</g>
<!-- Node2&#45;&gt;Node3 -->
<g id="edge2_Node000002_Node000003" class="edge">
<title>Node2&#45;&gt;Node3</title>
<g id="a_edge2_Node000002_Node000003"><a xlink:title=" ">
<path fill="none" stroke="#63b8ff" d="M312.91,-116.91C324.18,-118.26 335.91,-119.66 347.38,-121.04"/>
<polygon fill="#63b8ff" stroke="#63b8ff" points="346.88,-124.5 357.22,-122.21 347.71,-117.55 346.88,-124.5"/>
</a>
</g>
</g>
<!-- Node4 -->
<g id="Node000004" class="node">
<title>Node4</title>
<g id="a_Node000004"><a xlink:href="class_nuki_1_1_nuki_ble.html#a6e8fca90c04249660dce6cb993eb4495" target="_top" xlink:title=" ">
<polygon fill="white" stroke="#666666" points="700,-186.78 543,-186.78 543,-156.28 700,-156.28 700,-186.78"/>
<text text-anchor="start" x="551" y="-173.28" font-family="Helvetica,sans-Serif" font-size="10.00">Nuki::NukiBle::extendDisconnect</text>
<text text-anchor="middle" x="621.5" y="-162.03" font-family="Helvetica,sans-Serif" font-size="10.00">Timeout</text>
</a>
</g>
</g>
<!-- Node2&#45;&gt;Node4 -->
<g id="edge15_Node000002_Node000004" class="edge">
<title>Node2&#45;&gt;Node4</title>
<g id="a_edge15_Node000002_Node000004"><a xlink:title=" ">
<path fill="none" stroke="#63b8ff" d="M251.16,-118.58C267.45,-137.45 305.81,-177.63 348.5,-192.53 417.88,-216.76 503.07,-203.9 559.43,-190.02"/>
<polygon fill="#63b8ff" stroke="#63b8ff" points="560.01,-193.48 568.83,-187.61 558.28,-186.7 560.01,-193.48"/>
</a>
</g>
</g>
<!-- Node5 -->
<g id="Node000005" class="node">
<title>Node5</title>
<g id="a_Node000005"><a xlink:href="class_nuki_1_1_nuki_ble.html#ac7ce691d9c3e586474655d1663eb2e20" target="_top" xlink:title=" ">
<polygon fill="white" stroke="#666666" points="687.62,-137.16 555.38,-137.16 555.38,-117.91 687.62,-117.91 687.62,-137.16"/>
<text text-anchor="middle" x="621.5" y="-123.66" font-family="Helvetica,sans-Serif" font-size="10.00">Nuki::NukiBle::logMessage</text>
</a>
</g>
</g>
<!-- Node2&#45;&gt;Node5 -->
<g id="edge16_Node000002_Node000005" class="edge">
<title>Node2&#45;&gt;Node5</title>
<g id="a_edge16_Node000002_Node000005"><a xlink:title=" ">
<path fill="none" stroke="#63b8ff" d="M312.76,-107.02C324.68,-106.82 336.95,-106.64 348.5,-106.53 418.94,-105.87 436.85,-100.1 507,-106.53 526.09,-108.28 546.76,-111.66 565.16,-115.2"/>
<polygon fill="#63b8ff" stroke="#63b8ff" points="564.32,-118.6 574.81,-117.12 565.68,-111.73 564.32,-118.6"/>
</a>
</g>
</g>
<!-- Node6 -->
<g id="Node000006" class="node">
<title>Node6</title>
<g id="a_Node000006"><a xlink:href="class_nuki_1_1_nuki_ble.html#af3650133f46aeca48a5f01b95d23ab71" target="_top" xlink:title=" ">
<polygon fill="white" stroke="#666666" points="695.12,-97.16 547.88,-97.16 547.88,-77.91 695.12,-77.91 695.12,-97.16"/>
<text text-anchor="middle" x="621.5" y="-83.66" font-family="Helvetica,sans-Serif" font-size="10.00">Nuki::NukiBle::logMessageVar</text>
</a>
</g>
</g>
<!-- Node2&#45;&gt;Node6 -->
<g id="edge17_Node000002_Node000006" class="edge">
<title>Node2&#45;&gt;Node6</title>
<g id="a_edge17_Node000002_Node000006"><a xlink:title=" ">
<path fill="none" stroke="#63b8ff" d="M250.55,-98.62C266.36,-79.14 304.74,-36.37 348.5,-20.53 414.74,3.44 443.17,9.27 507,-20.53 529.58,-31.08 522.25,-49.73 543,-63.53 548.85,-67.42 555.36,-70.71 562.05,-73.48"/>
<polygon fill="#63b8ff" stroke="#63b8ff" points="560.64,-76.69 571.24,-76.89 563.08,-70.13 560.64,-76.69"/>
</a>
</g>
</g>
<!-- Node7 -->
<g id="Node000007" class="node">
<title>Node7</title>
<g id="a_Node000007"><a xlink:href="class_nuki_1_1_nuki_ble.html#a59169a9f492793762e3c6ba39b611b07" target="_top" xlink:title=" ">
<polygon fill="white" stroke="#666666" points="499.5,-59.78 356,-59.78 356,-29.28 499.5,-29.28 499.5,-59.78"/>
<text text-anchor="start" x="364" y="-46.28" font-family="Helvetica,sans-Serif" font-size="10.00">Nuki::NukiBle::cmdChallState</text>
<text text-anchor="middle" x="427.75" y="-35.03" font-family="Helvetica,sans-Serif" font-size="10.00">Machine</text>
</a>
</g>
</g>
<!-- Node2&#45;&gt;Node7 -->
<g id="edge6_Node000002_Node000007" class="edge">
<title>Node2&#45;&gt;Node7</title>
<g id="a_edge6_Node000002_Node000007"><a xlink:title=" ">
<path fill="none" stroke="#63b8ff" d="M271.61,-98.53C298.1,-89.31 338.18,-75.36 370.96,-63.95"/>
<polygon fill="#63b8ff" stroke="#63b8ff" points="372.05,-67.28 380.34,-60.69 369.74,-60.67 372.05,-67.28"/>
</a>
</g>
</g>
<!-- Node9 -->
<g id="Node000009" class="node">
<title>Node9</title>
<g id="a_Node000009"><a xlink:href="class_nuki_1_1_nuki_ble.html#ad135bb1455665decfddff67772c1d411" target="_top" xlink:title=" ">
<polygon fill="white" stroke="#666666" points="507,-183.16 348.5,-183.16 348.5,-163.91 507,-163.91 507,-183.16"/>
<text text-anchor="middle" x="427.75" y="-169.66" font-family="Helvetica,sans-Serif" font-size="10.00">Nuki::NukiBle::cmdStateMachine</text>
</a>
</g>
</g>
<!-- Node2&#45;&gt;Node9 -->
<g id="edge11_Node000002_Node000009" class="edge">
<title>Node2&#45;&gt;Node9</title>
<g id="a_edge11_Node000002_Node000009"><a xlink:title=" ">
<path fill="none" stroke="#63b8ff" d="M263.11,-118.59C284.07,-128.72 317.98,-144.27 348.5,-154.53 355.02,-156.73 361.93,-158.78 368.83,-160.66"/>
<polygon fill="#63b8ff" stroke="#63b8ff" points="367.59,-163.96 378.15,-163.1 369.36,-157.19 367.59,-163.96"/>
</a>
</g>
</g>
<!-- Node3&#45;&gt;Node4 -->
<g id="edge3_Node000003_Node000004" class="edge">
<title>Node3&#45;&gt;Node4</title>
<g id="a_edge3_Node000003_Node000004"><a xlink:title=" ">
<path fill="none" stroke="#63b8ff" d="M496.89,-145.1C509.59,-147.82 523,-150.69 536.12,-153.49"/>
<polygon fill="#63b8ff" stroke="#63b8ff" points="535.06,-156.84 545.57,-155.51 536.52,-150 535.06,-156.84"/>
</a>
</g>
</g>
<!-- Node3&#45;&gt;Node5 -->
<g id="edge4_Node000003_Node000005" class="edge">
<title>Node3&#45;&gt;Node5</title>
<g id="a_edge4_Node000003_Node000005"><a xlink:title=" ">
<path fill="none" stroke="#63b8ff" d="M496.89,-129.47C512.14,-129.23 528.41,-128.97 543.97,-128.73"/>
<polygon fill="#63b8ff" stroke="#63b8ff" points="543.69,-132.24 553.63,-128.58 543.58,-125.24 543.69,-132.24"/>
</a>
</g>
</g>
<!-- Node3&#45;&gt;Node6 -->
<g id="edge5_Node000003_Node000006" class="edge">
<title>Node3&#45;&gt;Node6</title>
<g id="a_edge5_Node000003_Node000006"><a xlink:title=" ">
<path fill="none" stroke="#63b8ff" d="M496.89,-115.25C518.98,-110.3 543.2,-104.87 564.32,-100.13"/>
<polygon fill="#63b8ff" stroke="#63b8ff" points="564.9,-103.59 573.89,-97.99 563.36,-96.76 564.9,-103.59"/>
</a>
</g>
</g>
<!-- Node7&#45;&gt;Node4 -->
<g id="edge7_Node000007_Node000004" class="edge">
<title>Node7&#45;&gt;Node4</title>
<g id="a_edge7_Node000007_Node000004"><a xlink:title=" ">
<path fill="none" stroke="#63b8ff" d="M450.47,-60.19C466.63,-72.21 488.93,-89.57 507,-106.53 524.43,-122.91 522.93,-133.53 543,-146.53 545.39,-148.08 547.88,-149.54 550.44,-150.91"/>
<polygon fill="#63b8ff" stroke="#63b8ff" points="548.73,-153.97 559.26,-155.15 551.76,-147.66 548.73,-153.97"/>
</a>
</g>
</g>
<!-- Node7&#45;&gt;Node5 -->
<g id="edge9_Node000007_Node000005" class="edge">
<title>Node7&#45;&gt;Node5</title>
<g id="a_edge9_Node000007_Node000005"><a xlink:title=" ">
<path fill="none" stroke="#63b8ff" d="M479.77,-60.17C489.13,-63.94 498.59,-68.4 507,-73.53 525.52,-84.85 523.99,-96.06 543,-106.53 547.99,-109.28 553.35,-111.68 558.85,-113.78"/>
<polygon fill="#63b8ff" stroke="#63b8ff" points="557.5,-117.02 568.09,-116.97 559.78,-110.4 557.5,-117.02"/>
</a>
</g>
</g>
<!-- Node7&#45;&gt;Node6 -->
<g id="edge10_Node000007_Node000006" class="edge">
<title>Node7&#45;&gt;Node6</title>
<g id="a_edge10_Node000007_Node000006"><a xlink:title=" ">
<path fill="none" stroke="#63b8ff" d="M498.79,-60.24C520.36,-65.08 543.82,-70.34 564.34,-74.94"/>
<polygon fill="#63b8ff" stroke="#63b8ff" points="563.4,-78.32 573.92,-77.09 564.93,-71.49 563.4,-78.32"/>
</a>
</g>
</g>
<!-- Node8 -->
<g id="Node000008" class="node">
<title>Node8</title>
<g id="a_Node000008"><a xlink:href="class_nuki_1_1_nuki_ble.html#a25207bb564a4b54b8dd8c872177b53a7" target="_top" xlink:title="Returns if BLE is pairing/paired/connected with a Smart Lock Ultra.">
<polygon fill="white" stroke="#666666" points="686.5,-54.16 556.5,-54.16 556.5,-34.91 686.5,-34.91 686.5,-54.16"/>
<text text-anchor="middle" x="621.5" y="-40.66" font-family="Helvetica,sans-Serif" font-size="10.00">Nuki::NukiBle::isLockUltra</text>
</a>
</g>
</g>
<!-- Node7&#45;&gt;Node8 -->
<g id="edge8_Node000007_Node000008" class="edge">
<title>Node7&#45;&gt;Node8</title>
<g id="a_edge8_Node000007_Node000008"><a xlink:title=" ">
<path fill="none" stroke="#63b8ff" d="M499.88,-44.53C514.57,-44.53 530.1,-44.53 544.94,-44.53"/>
<polygon fill="#63b8ff" stroke="#63b8ff" points="544.62,-48.03 554.62,-44.53 544.62,-41.03 544.62,-48.03"/>
</a>
</g>
</g>
<!-- Node9&#45;&gt;Node4 -->
<g id="edge12_Node000009_Node000004" class="edge">
<title>Node9&#45;&gt;Node4</title>
<g id="a_edge12_Node000009_Node000004"><a xlink:title=" ">
<path fill="none" stroke="#63b8ff" d="M507.3,-172.71C515.24,-172.63 523.35,-172.55 531.39,-172.46"/>
<polygon fill="#63b8ff" stroke="#63b8ff" points="531.22,-175.96 541.18,-172.36 531.15,-168.97 531.22,-175.96"/>
</a>
</g>
</g>
<!-- Node9&#45;&gt;Node5 -->
<g id="edge13_Node000009_Node000005" class="edge">
<title>Node9&#45;&gt;Node5</title>
<g id="a_edge13_Node000009_Node000005"><a xlink:title=" ">
<path fill="none" stroke="#63b8ff" d="M470.83,-163.44C499.3,-156.61 537.14,-147.53 567.64,-140.21"/>
<polygon fill="#63b8ff" stroke="#63b8ff" points="568.14,-143.69 577.05,-137.96 566.51,-136.89 568.14,-143.69"/>
</a>
</g>
</g>
<!-- Node9&#45;&gt;Node6 -->
<g id="edge14_Node000009_Node000006" class="edge">
<title>Node9&#45;&gt;Node6</title>
<g id="a_edge14_Node000009_Node000006"><a xlink:title=" ">
<path fill="none" stroke="#63b8ff" d="M488.61,-163.49C495.08,-161.11 501.36,-158.17 507,-154.53 528.82,-140.47 521.37,-122.88 543,-108.53 546.75,-106.05 550.78,-103.85 554.97,-101.92"/>
<polygon fill="#63b8ff" stroke="#63b8ff" points="556.26,-105.17 564.22,-98.19 553.64,-98.68 556.26,-105.17"/>
</a>
</g>
</g>
</g>
</svg>
