<?xml version="1.0" encoding="UTF-8" standalone="no"?>
<!DOCTYPE svg PUBLIC "-//W3C//DTD SVG 1.1//EN"
 "http://www.w3.org/Graphics/SVG/1.1/DTD/svg11.dtd">
<!-- Generated by graphviz version 12.2.1 (20241206.2353)
 -->
<!-- Title: NukiLock::NukiLock::enableSlowSpeedDuringNightMode Pages: 1 -->
<svg width="906pt" height="263pt"
 viewBox="0.00 0.00 905.50 263.03" xmlns="http://www.w3.org/2000/svg" xmlns:xlink="http://www.w3.org/1999/xlink">
<g id="graph0" class="graph" transform="scale(1 1) rotate(0) translate(4 259.03)">
<title>NukiLock::NukiLock::enableSlowSpeedDuringNightMode</title>
<!-- Node1 -->
<g id="Node000001" class="node">
<title>Node1</title>
<g id="a_Node000001"><a xlink:title="Gets the current advanced config from the lock, updates the enable slow speed during NightMode parame...">
<polygon fill="#999999" stroke="#666666" points="173.5,-148.88 0,-148.88 0,-118.38 173.5,-118.38 173.5,-148.88"/>
<text text-anchor="start" x="8" y="-135.38" font-family="Helvetica,sans-Serif" font-size="10.00">NukiLock::NukiLock</text>
<text text-anchor="middle" x="86.75" y="-124.12" font-family="Helvetica,sans-Serif" font-size="10.00">::enableSlowSpeedDuringNightMode</text>
</a>
</g>
</g>
<!-- Node2 -->
<g id="Node000002" class="node">
<title>Node2</title>
<g id="a_Node000002"><a xlink:href="class_nuki_lock_1_1_nuki_lock.html#aa882f9b3256313bbd45b4269f8c74521" target="_top" xlink:title="Requests advanced config from Lock via BLE.">
<polygon fill="white" stroke="#666666" points="332.75,-148.88 209.5,-148.88 209.5,-118.38 332.75,-118.38 332.75,-148.88"/>
<text text-anchor="start" x="217.5" y="-135.38" font-family="Helvetica,sans-Serif" font-size="10.00">NukiLock::NukiLock</text>
<text text-anchor="middle" x="271.12" y="-124.12" font-family="Helvetica,sans-Serif" font-size="10.00">::requestAdvancedConfig</text>
</a>
</g>
</g>
<!-- Node1&#45;&gt;Node2 -->
<g id="edge1_Node000001_Node000002" class="edge">
<title>Node1&#45;&gt;Node2</title>
<g id="a_edge1_Node000001_Node000002"><a xlink:title=" ">
<path fill="none" stroke="#63b8ff" d="M173.86,-133.62C181.86,-133.62 189.9,-133.62 197.75,-133.62"/>
<polygon fill="#63b8ff" stroke="#63b8ff" points="197.58,-137.13 207.58,-133.63 197.58,-130.13 197.58,-137.13"/>
</a>
</g>
</g>
<!-- Node3 -->
<g id="Node000003" class="node">
<title>Node3</title>
<g id="a_Node000003"><a xlink:href="class_nuki_1_1_nuki_ble.html#af1f1e299e8d97e053bba80e92ba285d6" target="_top" xlink:title=" ">
<polygon fill="white" stroke="#666666" points="510,-143.25 368.75,-143.25 368.75,-124 510,-124 510,-143.25"/>
<text text-anchor="middle" x="439.38" y="-129.75" font-family="Helvetica,sans-Serif" font-size="10.00">Nuki::NukiBle::executeAction</text>
</a>
</g>
</g>
<!-- Node2&#45;&gt;Node3 -->
<g id="edge2_Node000002_Node000003" class="edge">
<title>Node2&#45;&gt;Node3</title>
<g id="a_edge2_Node000002_Node000003"><a xlink:title=" ">
<path fill="none" stroke="#63b8ff" d="M333.09,-133.62C340.9,-133.62 348.99,-133.62 357.06,-133.62"/>
<polygon fill="#63b8ff" stroke="#63b8ff" points="356.91,-137.13 366.91,-133.63 356.91,-130.13 356.91,-137.13"/>
</a>
</g>
</g>
<!-- Node4 -->
<g id="Node000004" class="node">
<title>Node4</title>
<g id="a_Node000004"><a xlink:href="class_nuki_1_1_nuki_ble.html#ada0f3beebd95d35c122e25dd3f9eb886" target="_top" xlink:title=" ">
<polygon fill="white" stroke="#666666" points="694,-191.88 556.5,-191.88 556.5,-161.38 694,-161.38 694,-191.88"/>
<text text-anchor="start" x="564.5" y="-178.38" font-family="Helvetica,sans-Serif" font-size="10.00">Nuki::NukiBle::cmdChallAcc</text>
<text text-anchor="middle" x="625.25" y="-167.12" font-family="Helvetica,sans-Serif" font-size="10.00">StateMachine</text>
</a>
</g>
</g>
<!-- Node3&#45;&gt;Node4 -->
<g id="edge3_Node000003_Node000004" class="edge">
<title>Node3&#45;&gt;Node4</title>
<g id="a_edge3_Node000003_Node000004"><a xlink:title=" ">
<path fill="none" stroke="#63b8ff" d="M483.49,-143.71C502.11,-148.06 524.49,-153.3 545.88,-158.3"/>
<polygon fill="#63b8ff" stroke="#63b8ff" points="544.93,-161.67 555.47,-160.54 546.53,-154.85 544.93,-161.67"/>
</a>
</g>
</g>
<!-- Node5 -->
<g id="Node000005" class="node">
<title>Node5</title>
<g id="a_Node000005"><a xlink:href="class_nuki_1_1_nuki_ble.html#a6e8fca90c04249660dce6cb993eb4495" target="_top" xlink:title=" ">
<polygon fill="white" stroke="#666666" points="897.5,-189.88 740.5,-189.88 740.5,-159.38 897.5,-159.38 897.5,-189.88"/>
<text text-anchor="start" x="748.5" y="-176.38" font-family="Helvetica,sans-Serif" font-size="10.00">Nuki::NukiBle::extendDisconnect</text>
<text text-anchor="middle" x="819" y="-165.12" font-family="Helvetica,sans-Serif" font-size="10.00">Timeout</text>
</a>
</g>
</g>
<!-- Node3&#45;&gt;Node5 -->
<g id="edge16_Node000003_Node000005" class="edge">
<title>Node3&#45;&gt;Node5</title>
<g id="a_edge16_Node000003_Node000005"><a xlink:title=" ">
<path fill="none" stroke="#63b8ff" d="M510.4,-136.38C563.77,-139.03 638.98,-143.95 704.5,-152.62 713.65,-153.84 723.18,-155.32 732.65,-156.95"/>
<polygon fill="#63b8ff" stroke="#63b8ff" points="731.78,-160.35 742.23,-158.64 733,-153.45 731.78,-160.35"/>
</a>
</g>
</g>
<!-- Node6 -->
<g id="Node000006" class="node">
<title>Node6</title>
<g id="a_Node000006"><a xlink:href="class_nuki_1_1_nuki_ble.html#ac7ce691d9c3e586474655d1663eb2e20" target="_top" xlink:title=" ">
<polygon fill="white" stroke="#666666" points="885.12,-228.25 752.88,-228.25 752.88,-209 885.12,-209 885.12,-228.25"/>
<text text-anchor="middle" x="819" y="-214.75" font-family="Helvetica,sans-Serif" font-size="10.00">Nuki::NukiBle::logMessage</text>
</a>
</g>
</g>
<!-- Node3&#45;&gt;Node6 -->
<g id="edge18_Node000003_Node000006" class="edge">
<title>Node3&#45;&gt;Node6</title>
<g id="a_edge18_Node000003_Node000006"><a xlink:title=" ">
<path fill="none" stroke="#63b8ff" d="M446.46,-143.67C460.62,-165.91 498.19,-218.91 546,-238.62 623.85,-270.74 724.81,-248.58 779.2,-232.06"/>
<polygon fill="#63b8ff" stroke="#63b8ff" points="780.14,-235.43 788.63,-229.09 778.04,-228.75 780.14,-235.43"/>
</a>
</g>
</g>
<!-- Node7 -->
<g id="Node000007" class="node">
<title>Node7</title>
<g id="a_Node000007"><a xlink:href="class_nuki_1_1_nuki_ble.html#af3650133f46aeca48a5f01b95d23ab71" target="_top" xlink:title=" ">
<polygon fill="white" stroke="#666666" points="892.62,-140.25 745.38,-140.25 745.38,-121 892.62,-121 892.62,-140.25"/>
<text text-anchor="middle" x="819" y="-126.75" font-family="Helvetica,sans-Serif" font-size="10.00">Nuki::NukiBle::logMessageVar</text>
</a>
</g>
</g>
<!-- Node3&#45;&gt;Node7 -->
<g id="edge19_Node000003_Node000007" class="edge">
<title>Node3&#45;&gt;Node7</title>
<g id="a_edge19_Node000003_Node000007"><a xlink:title=" ">
<path fill="none" stroke="#63b8ff" d="M451.34,-123.61C469.44,-107.83 507.42,-77.83 546,-66.62 613.65,-46.98 640.67,-36.82 704.5,-66.62 727.08,-77.17 719.51,-96.19 740.5,-109.62 744.53,-112.2 748.87,-114.47 753.37,-116.46"/>
<polygon fill="#63b8ff" stroke="#63b8ff" points="752.07,-119.71 762.66,-120.06 754.61,-113.18 752.07,-119.71"/>
</a>
</g>
</g>
<!-- Node8 -->
<g id="Node000008" class="node">
<title>Node8</title>
<g id="a_Node000008"><a xlink:href="class_nuki_1_1_nuki_ble.html#a59169a9f492793762e3c6ba39b611b07" target="_top" xlink:title=" ">
<polygon fill="white" stroke="#666666" points="697,-105.88 553.5,-105.88 553.5,-75.38 697,-75.38 697,-105.88"/>
<text text-anchor="start" x="561.5" y="-92.38" font-family="Helvetica,sans-Serif" font-size="10.00">Nuki::NukiBle::cmdChallState</text>
<text text-anchor="middle" x="625.25" y="-81.12" font-family="Helvetica,sans-Serif" font-size="10.00">Machine</text>
</a>
</g>
</g>
<!-- Node3&#45;&gt;Node8 -->
<g id="edge7_Node000003_Node000008" class="edge">
<title>Node3&#45;&gt;Node8</title>
<g id="a_edge7_Node000003_Node000008"><a xlink:title=" ">
<path fill="none" stroke="#63b8ff" d="M483.49,-123.54C502.11,-119.19 524.49,-113.95 545.88,-108.95"/>
<polygon fill="#63b8ff" stroke="#63b8ff" points="546.53,-112.4 555.47,-106.71 544.93,-105.58 546.53,-112.4"/>
</a>
</g>
</g>
<!-- Node10 -->
<g id="Node000010" class="node">
<title>Node10</title>
<g id="a_Node000010"><a xlink:href="class_nuki_1_1_nuki_ble.html#ad135bb1455665decfddff67772c1d411" target="_top" xlink:title=" ">
<polygon fill="white" stroke="#666666" points="704.5,-229.25 546,-229.25 546,-210 704.5,-210 704.5,-229.25"/>
<text text-anchor="middle" x="625.25" y="-215.75" font-family="Helvetica,sans-Serif" font-size="10.00">Nuki::NukiBle::cmdStateMachine</text>
</a>
</g>
</g>
<!-- Node3&#45;&gt;Node10 -->
<g id="edge12_Node000003_Node000010" class="edge">
<title>Node3&#45;&gt;Node10</title>
<g id="a_edge12_Node000003_Node000010"><a xlink:title=" ">
<path fill="none" stroke="#63b8ff" d="M452.95,-143.55C472,-158.13 509.82,-185.26 546,-200.62 550.97,-202.73 556.21,-204.64 561.54,-206.35"/>
<polygon fill="#63b8ff" stroke="#63b8ff" points="560.51,-209.7 571.09,-209.18 562.49,-202.99 560.51,-209.7"/>
</a>
</g>
</g>
<!-- Node11 -->
<g id="Node000011" class="node">
<title>Node11</title>
<g id="a_Node000011"><a xlink:href="class_nuki_1_1_nuki_ble.html#a050f54fbfcea03dc5238e8c66a7e89ca" target="_top" xlink:title="Returns pairing state (if credentials are stored or not)">
<polygon fill="white" stroke="#666666" points="703.38,-19.25 547.12,-19.25 547.12,0 703.38,0 703.38,-19.25"/>
<text text-anchor="middle" x="625.25" y="-5.75" font-family="Helvetica,sans-Serif" font-size="10.00">Nuki::NukiBle::isPairedWithLock</text>
</a>
</g>
</g>
<!-- Node3&#45;&gt;Node11 -->
<g id="edge17_Node000003_Node000011" class="edge">
<title>Node3&#45;&gt;Node11</title>
<g id="a_edge17_Node000003_Node000011"><a xlink:title=" ">
<path fill="none" stroke="#63b8ff" d="M448.26,-123.52C464.44,-103.47 503.46,-58.43 546,-33.62 552.84,-29.64 560.41,-26.25 568.07,-23.38"/>
<polygon fill="#63b8ff" stroke="#63b8ff" points="569.13,-26.72 577.46,-20.17 566.87,-20.1 569.13,-26.72"/>
</a>
</g>
</g>
<!-- Node4&#45;&gt;Node5 -->
<g id="edge4_Node000004_Node000005" class="edge">
<title>Node4&#45;&gt;Node5</title>
<g id="a_edge4_Node000004_Node000005"><a xlink:title=" ">
<path fill="none" stroke="#63b8ff" d="M694.39,-175.91C705.54,-175.8 717.22,-175.68 728.78,-175.56"/>
<polygon fill="#63b8ff" stroke="#63b8ff" points="728.8,-179.06 738.76,-175.45 728.72,-172.06 728.8,-179.06"/>
</a>
</g>
</g>
<!-- Node4&#45;&gt;Node6 -->
<g id="edge5_Node000004_Node000006" class="edge">
<title>Node4&#45;&gt;Node6</title>
<g id="a_edge5_Node000004_Node000006"><a xlink:title=" ">
<path fill="none" stroke="#63b8ff" d="M694.39,-191.55C716.2,-196.33 740.1,-201.56 761.03,-206.15"/>
<polygon fill="#63b8ff" stroke="#63b8ff" points="760,-209.5 770.51,-208.22 761.49,-202.67 760,-209.5"/>
</a>
</g>
</g>
<!-- Node4&#45;&gt;Node7 -->
<g id="edge6_Node000004_Node000007" class="edge">
<title>Node4&#45;&gt;Node7</title>
<g id="a_edge6_Node000004_Node000007"><a xlink:title=" ">
<path fill="none" stroke="#63b8ff" d="M691.7,-160.92C715.56,-155.2 742.21,-148.81 764.86,-143.37"/>
<polygon fill="#63b8ff" stroke="#63b8ff" points="765.59,-146.8 774.5,-141.06 763.96,-139.99 765.59,-146.8"/>
</a>
</g>
</g>
<!-- Node8&#45;&gt;Node5 -->
<g id="edge8_Node000008_Node000005" class="edge">
<title>Node8&#45;&gt;Node5</title>
<g id="a_edge8_Node000008_Node000005"><a xlink:title=" ">
<path fill="none" stroke="#63b8ff" d="M676.25,-106.26C685.9,-110.07 695.72,-114.54 704.5,-119.62 722.52,-130.06 722.26,-139.58 740.5,-149.62 743.66,-151.36 746.96,-153 750.33,-154.55"/>
<polygon fill="#63b8ff" stroke="#63b8ff" points="748.68,-157.65 759.26,-158.31 751.4,-151.2 748.68,-157.65"/>
</a>
</g>
</g>
<!-- Node8&#45;&gt;Node6 -->
<g id="edge10_Node000008_Node000006" class="edge">
<title>Node8&#45;&gt;Node6</title>
<g id="a_edge10_Node000008_Node000006"><a xlink:title=" ">
<path fill="none" stroke="#63b8ff" d="M648.66,-106.17C664.97,-118 687.15,-135.17 704.5,-152.62 722.8,-171.04 718.78,-184.41 740.5,-198.62 743.74,-200.74 747.19,-202.64 750.76,-204.33"/>
<polygon fill="#63b8ff" stroke="#63b8ff" points="749.14,-207.45 759.72,-208.02 751.8,-200.98 749.14,-207.45"/>
</a>
</g>
</g>
<!-- Node8&#45;&gt;Node7 -->
<g id="edge11_Node000008_Node000007" class="edge">
<title>Node8&#45;&gt;Node7</title>
<g id="a_edge11_Node000008_Node000007"><a xlink:title=" ">
<path fill="none" stroke="#63b8ff" d="M697.38,-105.46C717.51,-109.66 739.21,-114.19 758.58,-118.23"/>
<polygon fill="#63b8ff" stroke="#63b8ff" points="757.7,-121.62 768.2,-120.24 759.13,-114.77 757.7,-121.62"/>
</a>
</g>
</g>
<!-- Node9 -->
<g id="Node000009" class="node">
<title>Node9</title>
<g id="a_Node000009"><a xlink:href="class_nuki_1_1_nuki_ble.html#a25207bb564a4b54b8dd8c872177b53a7" target="_top" xlink:title="Returns if BLE is pairing/paired/connected with a Smart Lock Ultra.">
<polygon fill="white" stroke="#666666" points="884,-100.25 754,-100.25 754,-81 884,-81 884,-100.25"/>
<text text-anchor="middle" x="819" y="-86.75" font-family="Helvetica,sans-Serif" font-size="10.00">Nuki::NukiBle::isLockUltra</text>
</a>
</g>
</g>
<!-- Node8&#45;&gt;Node9 -->
<g id="edge9_Node000008_Node000009" class="edge">
<title>Node8&#45;&gt;Node9</title>
<g id="a_edge9_Node000008_Node000009"><a xlink:title=" ">
<path fill="none" stroke="#63b8ff" d="M697.38,-90.62C712.07,-90.62 727.6,-90.62 742.44,-90.62"/>
<polygon fill="#63b8ff" stroke="#63b8ff" points="742.12,-94.13 752.12,-90.63 742.12,-87.13 742.12,-94.13"/>
</a>
</g>
</g>
<!-- Node10&#45;&gt;Node5 -->
<g id="edge13_Node000010_Node000005" class="edge">
<title>Node10&#45;&gt;Node5</title>
<g id="a_edge13_Node000010_Node000005"><a xlink:title=" ">
<path fill="none" stroke="#63b8ff" d="M669.28,-209.53C690.16,-204.63 715.89,-198.59 740.05,-192.92"/>
<polygon fill="#63b8ff" stroke="#63b8ff" points="740.61,-196.38 749.54,-190.69 739.01,-189.57 740.61,-196.38"/>
</a>
</g>
</g>
<!-- Node10&#45;&gt;Node6 -->
<g id="edge14_Node000010_Node000006" class="edge">
<title>Node10&#45;&gt;Node6</title>
<g id="a_edge14_Node000010_Node000006"><a xlink:title=" ">
<path fill="none" stroke="#63b8ff" d="M704.8,-219.22C716.79,-219.15 729.15,-219.09 741.11,-219.03"/>
<polygon fill="#63b8ff" stroke="#63b8ff" points="740.93,-222.53 750.91,-218.97 740.89,-215.53 740.93,-222.53"/>
</a>
</g>
</g>
<!-- Node10&#45;&gt;Node7 -->
<g id="edge15_Node000010_Node000007" class="edge">
<title>Node10&#45;&gt;Node7</title>
<g id="a_edge15_Node000010_Node000007"><a xlink:title=" ">
<path fill="none" stroke="#63b8ff" d="M686.66,-209.65C692.96,-207.26 699.05,-204.29 704.5,-200.62 727.22,-185.33 717.89,-166.08 740.5,-150.62 743.39,-148.65 746.46,-146.87 749.65,-145.27"/>
<polygon fill="#63b8ff" stroke="#63b8ff" points="750.98,-148.5 758.77,-141.32 748.2,-142.08 750.98,-148.5"/>
</a>
</g>
</g>
</g>
</svg>
