<?xml version="1.0" encoding="UTF-8" standalone="no"?>
<!DOCTYPE svg PUBLIC "-//W3C//DTD SVG 1.1//EN"
 "http://www.w3.org/Graphics/SVG/1.1/DTD/svg11.dtd">
<!-- Generated by graphviz version 11.0.0 (20240428.1522)
 -->
<!-- Title: Nuki::NukiBle::retrieveAuthorizationEntries Pages: 1 -->
<svg width="741pt" height="163pt"
 viewBox="0.00 0.00 741.00 162.88" xmlns="http://www.w3.org/2000/svg" xmlns:xlink="http://www.w3.org/1999/xlink">
<g id="graph0" class="graph" transform="scale(1 1) rotate(0) translate(4 158.88)">
<title>Nuki::NukiBle::retrieveAuthorizationEntries</title>
<!-- Node1 -->
<g id="Node000001" class="node">
<title>Node1</title>
<g id="a_Node000001"><a xlink:title="Request the lock via BLE to send the existing authorizationentries.">
<polygon fill="#999999" stroke="#666666" points="168.25,-83.88 0,-83.88 0,-53.38 168.25,-53.38 168.25,-83.88"/>
<text text-anchor="start" x="8" y="-70.38" font-family="Helvetica,sans-Serif" font-size="10.00">Nuki::NukiBle::retrieveAuthorization</text>
<text text-anchor="middle" x="84.12" y="-59.12" font-family="Helvetica,sans-Serif" font-size="10.00">Entries</text>
</a>
</g>
</g>
<!-- Node2 -->
<g id="Node000002" class="node">
<title>Node2</title>
<g id="a_Node000002"><a xlink:href="class_nuki_1_1_nuki_ble.html#af1f1e299e8d97e053bba80e92ba285d6" target="_top" xlink:title=" ">
<polygon fill="white" stroke="#666666" points="345.5,-78.25 204.25,-78.25 204.25,-59 345.5,-59 345.5,-78.25"/>
<text text-anchor="middle" x="274.88" y="-64.75" font-family="Helvetica,sans-Serif" font-size="10.00">Nuki::NukiBle::executeAction</text>
</a>
</g>
</g>
<!-- Node1&#45;&gt;Node2 -->
<g id="edge1_Node000001_Node000002" class="edge">
<title>Node1&#45;&gt;Node2</title>
<g id="a_edge1_Node000001_Node000002"><a xlink:title=" ">
<path fill="none" stroke="#63b8ff" d="M168.74,-68.62C176.62,-68.62 184.61,-68.62 192.47,-68.62"/>
<polygon fill="#63b8ff" stroke="#63b8ff" points="192.36,-72.13 202.36,-68.63 192.36,-65.13 192.36,-72.13"/>
</a>
</g>
</g>
<!-- Node3 -->
<g id="Node000003" class="node">
<title>Node3</title>
<g id="a_Node000003"><a xlink:href="class_nuki_1_1_nuki_ble.html#ada0f3beebd95d35c122e25dd3f9eb886" target="_top" xlink:title=" ">
<polygon fill="white" stroke="#666666" points="529.5,-154.88 392,-154.88 392,-124.38 529.5,-124.38 529.5,-154.88"/>
<text text-anchor="start" x="400" y="-141.38" font-family="Helvetica,sans-Serif" font-size="10.00">Nuki::NukiBle::cmdChallAcc</text>
<text text-anchor="middle" x="460.75" y="-130.12" font-family="Helvetica,sans-Serif" font-size="10.00">StateMachine</text>
</a>
</g>
</g>
<!-- Node2&#45;&gt;Node3 -->
<g id="edge2_Node000002_Node000003" class="edge">
<title>Node2&#45;&gt;Node3</title>
<g id="a_edge2_Node000002_Node000003"><a xlink:title=" ">
<path fill="none" stroke="#63b8ff" d="M297.06,-78.61C318.2,-88.39 351.74,-103.42 381.5,-114.62 386.71,-116.58 392.14,-118.53 397.62,-120.41"/>
<polygon fill="#63b8ff" stroke="#63b8ff" points="396.11,-123.6 406.71,-123.47 398.35,-116.97 396.11,-123.6"/>
</a>
</g>
</g>
<!-- Node4 -->
<g id="Node000004" class="node">
<title>Node4</title>
<g id="a_Node000004"><a xlink:href="class_nuki_1_1_nuki_ble.html#a59169a9f492793762e3c6ba39b611b07" target="_top" xlink:title=" ">
<polygon fill="white" stroke="#666666" points="532.5,-105.88 389,-105.88 389,-75.38 532.5,-75.38 532.5,-105.88"/>
<text text-anchor="start" x="397" y="-92.38" font-family="Helvetica,sans-Serif" font-size="10.00">Nuki::NukiBle::cmdChallState</text>
<text text-anchor="middle" x="460.75" y="-81.12" font-family="Helvetica,sans-Serif" font-size="10.00">Machine</text>
</a>
</g>
</g>
<!-- Node2&#45;&gt;Node4 -->
<g id="edge3_Node000002_Node000004" class="edge">
<title>Node2&#45;&gt;Node4</title>
<g id="a_edge3_Node000002_Node000004"><a xlink:title=" ">
<path fill="none" stroke="#63b8ff" d="M345.91,-77.01C356.2,-78.24 366.87,-79.51 377.38,-80.77"/>
<polygon fill="#63b8ff" stroke="#63b8ff" points="376.84,-84.23 387.18,-81.94 377.67,-77.28 376.84,-84.23"/>
</a>
</g>
</g>
<!-- Node5 -->
<g id="Node000005" class="node">
<title>Node5</title>
<g id="a_Node000005"><a xlink:href="class_nuki_1_1_nuki_ble.html#a6e8fca90c04249660dce6cb993eb4495" target="_top" xlink:title=" ">
<polygon fill="white" stroke="#666666" points="733,-62.88 576,-62.88 576,-32.38 733,-32.38 733,-62.88"/>
<text text-anchor="start" x="584" y="-49.38" font-family="Helvetica,sans-Serif" font-size="10.00">Nuki::NukiBle::extendDisconnect</text>
<text text-anchor="middle" x="654.5" y="-38.12" font-family="Helvetica,sans-Serif" font-size="10.00">Timeout</text>
</a>
</g>
</g>
<!-- Node2&#45;&gt;Node5 -->
<g id="edge7_Node000002_Node000005" class="edge">
<title>Node2&#45;&gt;Node5</title>
<g id="a_edge7_Node000002_Node000005"><a xlink:title=" ">
<path fill="none" stroke="#63b8ff" d="M345.58,-64.75C407.22,-61.32 497.5,-56.3 564.38,-52.58"/>
<polygon fill="#63b8ff" stroke="#63b8ff" points="564.44,-56.08 574.23,-52.03 564.05,-49.09 564.44,-56.08"/>
</a>
</g>
</g>
<!-- Node6 -->
<g id="Node000006" class="node">
<title>Node6</title>
<g id="a_Node000006"><a xlink:href="class_nuki_1_1_nuki_ble.html#ad135bb1455665decfddff67772c1d411" target="_top" xlink:title=" ">
<polygon fill="white" stroke="#666666" points="540,-19.25 381.5,-19.25 381.5,0 540,0 540,-19.25"/>
<text text-anchor="middle" x="460.75" y="-5.75" font-family="Helvetica,sans-Serif" font-size="10.00">Nuki::NukiBle::cmdStateMachine</text>
</a>
</g>
</g>
<!-- Node2&#45;&gt;Node6 -->
<g id="edge5_Node000002_Node000006" class="edge">
<title>Node2&#45;&gt;Node6</title>
<g id="a_edge5_Node000002_Node000006"><a xlink:title=" ">
<path fill="none" stroke="#63b8ff" d="M305.41,-58.64C326.56,-51.54 355.73,-41.84 381.5,-33.62 392.47,-30.13 404.33,-26.44 415.42,-23.03"/>
<polygon fill="#63b8ff" stroke="#63b8ff" points="416.2,-26.45 424.74,-20.18 414.16,-19.76 416.2,-26.45"/>
</a>
</g>
</g>
<!-- Node4&#45;&gt;Node5 -->
<g id="edge4_Node000004_Node000005" class="edge">
<title>Node4&#45;&gt;Node5</title>
<g id="a_edge4_Node000004_Node000005"><a xlink:title=" ">
<path fill="none" stroke="#63b8ff" d="M531.79,-74.92C544.91,-71.98 558.73,-68.88 572.16,-65.86"/>
<polygon fill="#63b8ff" stroke="#63b8ff" points="572.86,-69.3 581.85,-63.69 571.33,-62.47 572.86,-69.3"/>
</a>
</g>
</g>
<!-- Node6&#45;&gt;Node5 -->
<g id="edge6_Node000006_Node000005" class="edge">
<title>Node6&#45;&gt;Node5</title>
<g id="a_edge6_Node000006_Node000005"><a xlink:title=" ">
<path fill="none" stroke="#63b8ff" d="M512.63,-19.71C528.54,-22.86 546.59,-26.44 564.34,-29.96"/>
<polygon fill="#63b8ff" stroke="#63b8ff" points="563.65,-33.39 574.14,-31.9 565.01,-26.52 563.65,-33.39"/>
</a>
</g>
</g>
</g>
</svg>
