<?xml version="1.0" encoding="UTF-8" standalone="no"?>
<!DOCTYPE svg PUBLIC "-//W3C//DTD SVG 1.1//EN"
 "http://www.w3.org/Graphics/SVG/1.1/DTD/svg11.dtd">
<!-- Generated by graphviz version 12.2.1 (20241206.2353)
 -->
<!-- Title: Nuki::NukiBle::updateKeypadEntry Pages: 1 -->
<svg width="717pt" height="347pt"
 viewBox="0.00 0.00 717.00 347.10" xmlns="http://www.w3.org/2000/svg" xmlns:xlink="http://www.w3.org/1999/xlink">
<g id="graph0" class="graph" transform="scale(1 1) rotate(0) translate(4 343.1)">
<title>Nuki::NukiBle::updateKeypadEntry</title>
<!-- Node1 -->
<g id="Node000001" class="node">
<title>Node1</title>
<g id="a_Node000001"><a xlink:title="Send an updated keypad entry to the lock via BLE.">
<polygon fill="#999999" stroke="#666666" points="141.25,-88.88 0,-88.88 0,-58.38 141.25,-58.38 141.25,-88.88"/>
<text text-anchor="start" x="8" y="-75.38" font-family="Helvetica,sans-Serif" font-size="10.00">Nuki::NukiBle::updateKeypad</text>
<text text-anchor="middle" x="70.62" y="-64.12" font-family="Helvetica,sans-Serif" font-size="10.00">Entry</text>
</a>
</g>
</g>
<!-- Node2 -->
<g id="Node000002" class="node">
<title>Node2</title>
<g id="a_Node000002"><a xlink:href="class_nuki_1_1_nuki_ble.html#af1f1e299e8d97e053bba80e92ba285d6" target="_top" xlink:title=" ">
<polygon fill="white" stroke="#666666" points="320,-229.25 178.75,-229.25 178.75,-210 320,-210 320,-229.25"/>
<text text-anchor="middle" x="249.38" y="-215.75" font-family="Helvetica,sans-Serif" font-size="10.00">Nuki::NukiBle::executeAction</text>
</a>
</g>
</g>
<!-- Node1&#45;&gt;Node2 -->
<g id="edge1_Node000001_Node000002" class="edge">
<title>Node1&#45;&gt;Node2</title>
<g id="a_edge1_Node000001_Node000002"><a xlink:title=" ">
<path fill="none" stroke="#63b8ff" d="M90.54,-89.25C123.92,-116.82 193,-173.88 227.63,-202.49"/>
<polygon fill="#63b8ff" stroke="#63b8ff" points="225.32,-205.12 235.26,-208.79 229.78,-199.72 225.32,-205.12"/>
</a>
</g>
</g>
<!-- Node6 -->
<g id="Node000006" class="node">
<title>Node6</title>
<g id="a_Node000006"><a xlink:href="class_nuki_1_1_nuki_ble.html#af3650133f46aeca48a5f01b95d23ab71" target="_top" xlink:title=" ">
<polygon fill="white" stroke="#666666" points="704.12,-186.25 556.88,-186.25 556.88,-167 704.12,-167 704.12,-186.25"/>
<text text-anchor="middle" x="630.5" y="-172.75" font-family="Helvetica,sans-Serif" font-size="10.00">Nuki::NukiBle::logMessageVar</text>
</a>
</g>
</g>
<!-- Node1&#45;&gt;Node6 -->
<g id="edge17_Node000001_Node000006" class="edge">
<title>Node1&#45;&gt;Node6</title>
<g id="a_edge17_Node000001_Node000006"><a xlink:title=" ">
<path fill="none" stroke="#63b8ff" d="M141.63,-79.98C229.8,-88.86 385.55,-107.51 516,-138.62 542.28,-144.89 571.15,-154.6 593.19,-162.63"/>
<polygon fill="#63b8ff" stroke="#63b8ff" points="591.72,-165.82 602.32,-166.01 594.15,-159.25 591.72,-165.82"/>
</a>
</g>
</g>
<!-- Node9 -->
<g id="Node000009" class="node">
<title>Node9</title>
<g id="a_Node000009"><a xlink:href="namespace_nuki_lock.html#a2afef62c8ad3997e1154ffaabbd645de" target="_top" xlink:title=" ">
<polygon fill="white" stroke="#666666" points="321.5,-67.88 177.25,-67.88 177.25,-37.38 321.5,-37.38 321.5,-67.88"/>
<text text-anchor="start" x="185.25" y="-54.38" font-family="Helvetica,sans-Serif" font-size="10.00">NukiLock::logUpdatedKeypad</text>
<text text-anchor="middle" x="249.38" y="-43.12" font-family="Helvetica,sans-Serif" font-size="10.00">Entry</text>
</a>
</g>
</g>
<!-- Node1&#45;&gt;Node9 -->
<g id="edge18_Node000001_Node000009" class="edge">
<title>Node1&#45;&gt;Node9</title>
<g id="a_edge18_Node000001_Node000009"><a xlink:title=" ">
<path fill="none" stroke="#63b8ff" d="M141.74,-65.3C149.6,-64.36 157.66,-63.4 165.66,-62.45"/>
<polygon fill="#63b8ff" stroke="#63b8ff" points="165.88,-65.95 175.4,-61.3 165.06,-59 165.88,-65.95"/>
</a>
</g>
</g>
<!-- Node11 -->
<g id="Node000011" class="node">
<title>Node11</title>
<g id="a_Node000011"><a xlink:href="namespace_nuki.html#a438fdfcef9f81eb0a3e493631b71ca5b" target="_top" xlink:title=" ">
<polygon fill="white" stroke="#666666" points="291.88,-19.25 206.88,-19.25 206.88,0 291.88,0 291.88,-19.25"/>
<text text-anchor="middle" x="249.38" y="-5.75" font-family="Helvetica,sans-Serif" font-size="10.00">Nuki::printBuffer</text>
</a>
</g>
</g>
<!-- Node1&#45;&gt;Node11 -->
<g id="edge20_Node000001_Node000011" class="edge">
<title>Node1&#45;&gt;Node11</title>
<g id="a_edge20_Node000001_Node000011"><a xlink:title=" ">
<path fill="none" stroke="#63b8ff" d="M104.92,-58C125.48,-48.72 152.56,-37.13 177.25,-28.62 183.29,-26.54 189.68,-24.55 196.05,-22.69"/>
<polygon fill="#63b8ff" stroke="#63b8ff" points="196.57,-26.18 205.25,-20.11 194.67,-19.44 196.57,-26.18"/>
</a>
</g>
</g>
<!-- Node3 -->
<g id="Node000003" class="node">
<title>Node3</title>
<g id="a_Node000003"><a xlink:href="class_nuki_1_1_nuki_ble.html#ada0f3beebd95d35c122e25dd3f9eb886" target="_top" xlink:title=" ">
<polygon fill="white" stroke="#666666" points="505.5,-191.88 368,-191.88 368,-161.38 505.5,-161.38 505.5,-191.88"/>
<text text-anchor="start" x="376" y="-178.38" font-family="Helvetica,sans-Serif" font-size="10.00">Nuki::NukiBle::cmdChallAcc</text>
<text text-anchor="middle" x="436.75" y="-167.12" font-family="Helvetica,sans-Serif" font-size="10.00">StateMachine</text>
</a>
</g>
</g>
<!-- Node2&#45;&gt;Node3 -->
<g id="edge2_Node000002_Node000003" class="edge">
<title>Node2&#45;&gt;Node3</title>
<g id="a_edge2_Node000002_Node000003"><a xlink:title=" ">
<path fill="none" stroke="#63b8ff" d="M293.84,-209.54C312.61,-205.19 335.18,-199.95 356.74,-194.95"/>
<polygon fill="#63b8ff" stroke="#63b8ff" points="357.47,-198.38 366.42,-192.71 355.89,-191.56 357.47,-198.38"/>
</a>
</g>
</g>
<!-- Node4 -->
<g id="Node000004" class="node">
<title>Node4</title>
<g id="a_Node000004"><a xlink:href="class_nuki_1_1_nuki_ble.html#a6e8fca90c04249660dce6cb993eb4495" target="_top" xlink:title=" ">
<polygon fill="white" stroke="#666666" points="709,-243.88 552,-243.88 552,-213.38 709,-213.38 709,-243.88"/>
<text text-anchor="start" x="560" y="-230.38" font-family="Helvetica,sans-Serif" font-size="10.00">Nuki::NukiBle::extendDisconnect</text>
<text text-anchor="middle" x="630.5" y="-219.12" font-family="Helvetica,sans-Serif" font-size="10.00">Timeout</text>
</a>
</g>
</g>
<!-- Node2&#45;&gt;Node4 -->
<g id="edge14_Node000002_Node000004" class="edge">
<title>Node2&#45;&gt;Node4</title>
<g id="a_edge14_Node000002_Node000004"><a xlink:title=" ">
<path fill="none" stroke="#63b8ff" d="M297.07,-229.74C315.76,-233.31 337.56,-236.87 357.5,-238.62 418.35,-243.98 487.1,-241.38 540.25,-237.49"/>
<polygon fill="#63b8ff" stroke="#63b8ff" points="540.48,-240.98 550.19,-236.73 539.95,-234 540.48,-240.98"/>
</a>
</g>
</g>
<!-- Node5 -->
<g id="Node000005" class="node">
<title>Node5</title>
<g id="a_Node000005"><a xlink:href="class_nuki_1_1_nuki_ble.html#ac7ce691d9c3e586474655d1663eb2e20" target="_top" xlink:title=" ">
<polygon fill="white" stroke="#666666" points="696.62,-300.25 564.38,-300.25 564.38,-281 696.62,-281 696.62,-300.25"/>
<text text-anchor="middle" x="630.5" y="-286.75" font-family="Helvetica,sans-Serif" font-size="10.00">Nuki::NukiBle::logMessage</text>
</a>
</g>
</g>
<!-- Node2&#45;&gt;Node5 -->
<g id="edge15_Node000002_Node000005" class="edge">
<title>Node2&#45;&gt;Node5</title>
<g id="a_edge15_Node000002_Node000005"><a xlink:title=" ">
<path fill="none" stroke="#63b8ff" d="M256.59,-229.67C271.02,-251.92 309.28,-304.93 357.5,-324.62 438.74,-357.8 544.05,-325.55 596.62,-304.91"/>
<polygon fill="#63b8ff" stroke="#63b8ff" points="597.65,-308.27 605.61,-301.27 595.03,-301.78 597.65,-308.27"/>
</a>
</g>
</g>
<!-- Node2&#45;&gt;Node6 -->
<g id="edge16_Node000002_Node000006" class="edge">
<title>Node2&#45;&gt;Node6</title>
<g id="a_edge16_Node000002_Node000006"><a xlink:title=" ">
<path fill="none" stroke="#63b8ff" d="M261.52,-209.61C279.92,-193.82 318.49,-163.82 357.5,-152.62 436.2,-130.04 532.52,-148.85 586.85,-163.49"/>
<polygon fill="#63b8ff" stroke="#63b8ff" points="585.76,-166.81 596.33,-166.12 587.64,-160.07 585.76,-166.81"/>
</a>
</g>
</g>
<!-- Node7 -->
<g id="Node000007" class="node">
<title>Node7</title>
<g id="a_Node000007"><a xlink:href="class_nuki_1_1_nuki_ble.html#a59169a9f492793762e3c6ba39b611b07" target="_top" xlink:title=" ">
<polygon fill="white" stroke="#666666" points="508.5,-315.88 365,-315.88 365,-285.38 508.5,-285.38 508.5,-315.88"/>
<text text-anchor="start" x="373" y="-302.38" font-family="Helvetica,sans-Serif" font-size="10.00">Nuki::NukiBle::cmdChallState</text>
<text text-anchor="middle" x="436.75" y="-291.12" font-family="Helvetica,sans-Serif" font-size="10.00">Machine</text>
</a>
</g>
</g>
<!-- Node2&#45;&gt;Node7 -->
<g id="edge6_Node000002_Node000007" class="edge">
<title>Node2&#45;&gt;Node7</title>
<g id="a_edge6_Node000002_Node000007"><a xlink:title=" ">
<path fill="none" stroke="#63b8ff" d="M269.47,-229.59C290.69,-240.5 326.13,-258.23 357.5,-271.62 364.92,-274.79 372.82,-277.95 380.63,-280.96"/>
<polygon fill="#63b8ff" stroke="#63b8ff" points="379.17,-284.15 389.76,-284.42 381.65,-277.61 379.17,-284.15"/>
</a>
</g>
</g>
<!-- Node8 -->
<g id="Node000008" class="node">
<title>Node8</title>
<g id="a_Node000008"><a xlink:href="class_nuki_1_1_nuki_ble.html#ad135bb1455665decfddff67772c1d411" target="_top" xlink:title=" ">
<polygon fill="white" stroke="#666666" points="516,-229.25 357.5,-229.25 357.5,-210 516,-210 516,-229.25"/>
<text text-anchor="middle" x="436.75" y="-215.75" font-family="Helvetica,sans-Serif" font-size="10.00">Nuki::NukiBle::cmdStateMachine</text>
</a>
</g>
</g>
<!-- Node2&#45;&gt;Node8 -->
<g id="edge10_Node000002_Node000008" class="edge">
<title>Node2&#45;&gt;Node8</title>
<g id="a_edge10_Node000002_Node000008"><a xlink:title=" ">
<path fill="none" stroke="#63b8ff" d="M320.46,-219.62C328.7,-219.62 337.21,-219.62 345.68,-219.62"/>
<polygon fill="#63b8ff" stroke="#63b8ff" points="345.67,-223.13 355.67,-219.63 345.67,-216.13 345.67,-223.13"/>
</a>
</g>
</g>
<!-- Node3&#45;&gt;Node4 -->
<g id="edge3_Node000003_Node000004" class="edge">
<title>Node3&#45;&gt;Node4</title>
<g id="a_edge3_Node000003_Node000004"><a xlink:title=" ">
<path fill="none" stroke="#63b8ff" d="M495.8,-192.37C516.26,-197.92 539.47,-204.21 560.73,-209.97"/>
<polygon fill="#63b8ff" stroke="#63b8ff" points="559.62,-213.3 570.18,-212.54 561.45,-206.54 559.62,-213.3"/>
</a>
</g>
</g>
<!-- Node3&#45;&gt;Node5 -->
<g id="edge4_Node000003_Node000005" class="edge">
<title>Node3&#45;&gt;Node5</title>
<g id="a_edge4_Node000003_Node000005"><a xlink:title=" ">
<path fill="none" stroke="#63b8ff" d="M501.86,-192.26C506.85,-194.67 511.64,-197.44 516,-200.62 538.69,-217.22 530.69,-234.29 552,-252.62 563.2,-262.27 577.28,-270.12 590.35,-276.13"/>
<polygon fill="#63b8ff" stroke="#63b8ff" points="588.59,-279.18 599.15,-279.95 591.37,-272.76 588.59,-279.18"/>
</a>
</g>
</g>
<!-- Node3&#45;&gt;Node6 -->
<g id="edge5_Node000003_Node000006" class="edge">
<title>Node3&#45;&gt;Node6</title>
<g id="a_edge5_Node000003_Node000006"><a xlink:title=" ">
<path fill="none" stroke="#63b8ff" d="M505.89,-176.62C518.55,-176.62 531.91,-176.62 544.98,-176.62"/>
<polygon fill="#63b8ff" stroke="#63b8ff" points="544.86,-180.13 554.86,-176.63 544.86,-173.13 544.86,-180.13"/>
</a>
</g>
</g>
<!-- Node7&#45;&gt;Node4 -->
<g id="edge7_Node000007_Node000004" class="edge">
<title>Node7&#45;&gt;Node4</title>
<g id="a_edge7_Node000007_Node000004"><a xlink:title=" ">
<path fill="none" stroke="#63b8ff" d="M480.41,-284.88C491.97,-280.6 504.47,-275.95 516,-271.62 536.13,-264.08 558.25,-255.72 577.57,-248.39"/>
<polygon fill="#63b8ff" stroke="#63b8ff" points="578.76,-251.68 586.87,-244.86 576.28,-245.14 578.76,-251.68"/>
</a>
</g>
</g>
<!-- Node7&#45;&gt;Node5 -->
<g id="edge8_Node000007_Node000005" class="edge">
<title>Node7&#45;&gt;Node5</title>
<g id="a_edge8_Node000007_Node000005"><a xlink:title=" ">
<path fill="none" stroke="#63b8ff" d="M508.88,-296.92C523.09,-296.17 538.08,-295.39 552.48,-294.64"/>
<polygon fill="#63b8ff" stroke="#63b8ff" points="552.56,-298.14 562.37,-294.13 552.2,-291.15 552.56,-298.14"/>
</a>
</g>
</g>
<!-- Node7&#45;&gt;Node6 -->
<g id="edge9_Node000007_Node000006" class="edge">
<title>Node7&#45;&gt;Node6</title>
<g id="a_edge9_Node000007_Node000006"><a xlink:title=" ">
<path fill="none" stroke="#63b8ff" d="M458.41,-285.04C474.42,-272.78 497,-255.07 516,-238.62 532.64,-224.22 533.26,-216.16 552,-204.62 561.04,-199.06 571.34,-194.37 581.42,-190.52"/>
<polygon fill="#63b8ff" stroke="#63b8ff" points="582.54,-193.83 590.78,-187.17 580.18,-187.24 582.54,-193.83"/>
</a>
</g>
</g>
<!-- Node8&#45;&gt;Node4 -->
<g id="edge11_Node000008_Node000004" class="edge">
<title>Node8&#45;&gt;Node4</title>
<g id="a_edge11_Node000008_Node000004"><a xlink:title=" ">
<path fill="none" stroke="#63b8ff" d="M516.3,-223.31C524.24,-223.68 532.35,-224.07 540.39,-224.44"/>
<polygon fill="#63b8ff" stroke="#63b8ff" points="540.03,-227.93 550.19,-224.9 540.36,-220.94 540.03,-227.93"/>
</a>
</g>
</g>
<!-- Node8&#45;&gt;Node5 -->
<g id="edge12_Node000008_Node000005" class="edge">
<title>Node8&#45;&gt;Node5</title>
<g id="a_edge12_Node000008_Node000005"><a xlink:title=" ">
<path fill="none" stroke="#63b8ff" d="M464.82,-229.65C497.98,-241.93 554.37,-262.81 591.78,-276.66"/>
<polygon fill="#63b8ff" stroke="#63b8ff" points="590.25,-279.82 600.84,-280.01 592.68,-273.26 590.25,-279.82"/>
</a>
</g>
</g>
<!-- Node8&#45;&gt;Node6 -->
<g id="edge13_Node000008_Node000006" class="edge">
<title>Node8&#45;&gt;Node6</title>
<g id="a_edge13_Node000008_Node000006"><a xlink:title=" ">
<path fill="none" stroke="#63b8ff" d="M482.71,-209.54C509.78,-203.47 544.47,-195.69 573.34,-189.22"/>
<polygon fill="#63b8ff" stroke="#63b8ff" points="574.02,-192.65 583.02,-187.05 572.49,-185.82 574.02,-192.65"/>
</a>
</g>
</g>
<!-- Node10 -->
<g id="Node000010" class="node">
<title>Node10</title>
<g id="a_Node000010"><a xlink:href="namespace_nuki_lock.html#af6ebff0f8c6c0cb27a927a440812c02a" target="_top" xlink:title=" ">
<polygon fill="white" stroke="#666666" points="501.75,-62.25 371.75,-62.25 371.75,-43 501.75,-43 501.75,-62.25"/>
<text text-anchor="middle" x="436.75" y="-48.75" font-family="Helvetica,sans-Serif" font-size="10.00">NukiLock::logMessageVar</text>
</a>
</g>
</g>
<!-- Node9&#45;&gt;Node10 -->
<g id="edge19_Node000009_Node000010" class="edge">
<title>Node9&#45;&gt;Node10</title>
<g id="a_edge19_Node000009_Node000010"><a xlink:title=" ">
<path fill="none" stroke="#63b8ff" d="M321.78,-52.62C334.27,-52.62 347.31,-52.62 359.92,-52.62"/>
<polygon fill="#63b8ff" stroke="#63b8ff" points="359.84,-56.13 369.84,-52.63 359.84,-49.13 359.84,-56.13"/>
</a>
</g>
</g>
</g>
</svg>
