<?xml version="1.0" encoding="UTF-8" standalone="no"?>
<!DOCTYPE svg PUBLIC "-//W3C//DTD SVG 1.1//EN"
 "http://www.w3.org/Graphics/SVG/1.1/DTD/svg11.dtd">
<!-- Generated by graphviz version 12.2.1 (20241206.2353)
 -->
<!-- Title: NukiOpener::NukiOpener::handleReturnMessage Pages: 1 -->
<svg width="662pt" height="324pt"
 viewBox="0.00 0.00 661.50 323.88" xmlns="http://www.w3.org/2000/svg" xmlns:xlink="http://www.w3.org/1999/xlink">
<g id="graph0" class="graph" transform="scale(1 1) rotate(0) translate(4 319.88)">
<title>NukiOpener::NukiOpener::handleReturnMessage</title>
<!-- Node1 -->
<g id="Node000001" class="node">
<title>Node1</title>
<g id="a_Node000001"><a xlink:title=" ">
<polygon fill="#999999" stroke="#666666" points="124,-167.88 0,-167.88 0,-137.38 124,-137.38 124,-167.88"/>
<text text-anchor="start" x="8" y="-154.38" font-family="Helvetica,sans-Serif" font-size="10.00">NukiOpener::NukiOpener</text>
<text text-anchor="middle" x="62" y="-143.12" font-family="Helvetica,sans-Serif" font-size="10.00">::handleReturnMessage</text>
</a>
</g>
</g>
<!-- Node2 -->
<g id="Node000002" class="node">
<title>Node2</title>
<g id="a_Node000002"><a xlink:href="class_nuki_1_1_nuki_ble.html#a6e8fca90c04249660dce6cb993eb4495" target="_top" xlink:title=" ">
<polygon fill="white" stroke="#666666" points="317,-315.88 160,-315.88 160,-285.38 317,-285.38 317,-315.88"/>
<text text-anchor="start" x="168" y="-302.38" font-family="Helvetica,sans-Serif" font-size="10.00">Nuki::NukiBle::extendDisconnect</text>
<text text-anchor="middle" x="238.5" y="-291.12" font-family="Helvetica,sans-Serif" font-size="10.00">Timeout</text>
</a>
</g>
</g>
<!-- Node1&#45;&gt;Node2 -->
<g id="edge1_Node000001_Node000002" class="edge">
<title>Node1&#45;&gt;Node2</title>
<g id="a_edge1_Node000001_Node000002"><a xlink:title=" ">
<path fill="none" stroke="#63b8ff" d="M71.24,-168.29C85.73,-194.34 118.24,-246.59 160,-275.62 162.07,-277.07 164.24,-278.43 166.47,-279.72"/>
<polygon fill="#63b8ff" stroke="#63b8ff" points="164.74,-282.77 175.24,-284.2 167.93,-276.54 164.74,-282.77"/>
</a>
</g>
</g>
<!-- Node3 -->
<g id="Node000003" class="node">
<title>Node3</title>
<g id="a_Node000003"><a xlink:href="class_nuki_1_1_nuki_ble.html#ac2e28f07ed0a738f73c5f77b46cdb1bb" target="_top" xlink:title=" ">
<polygon fill="white" stroke="#666666" points="306.88,-266.88 170.12,-266.88 170.12,-236.38 306.88,-236.38 306.88,-266.88"/>
<text text-anchor="start" x="178.12" y="-253.38" font-family="Helvetica,sans-Serif" font-size="10.00">Nuki::NukiBle::handleReturn</text>
<text text-anchor="middle" x="238.5" y="-242.12" font-family="Helvetica,sans-Serif" font-size="10.00">Message</text>
</a>
</g>
</g>
<!-- Node1&#45;&gt;Node3 -->
<g id="edge2_Node000001_Node000003" class="edge">
<title>Node1&#45;&gt;Node3</title>
<g id="a_edge2_Node000001_Node000003"><a xlink:title=" ">
<path fill="none" stroke="#63b8ff" d="M79.24,-168.18C97.55,-184.95 128.83,-211.43 160,-227.62 162.72,-229.04 165.53,-230.38 168.41,-231.66"/>
<polygon fill="#63b8ff" stroke="#63b8ff" points="167.05,-234.89 177.63,-235.44 169.71,-228.41 167.05,-234.89"/>
</a>
</g>
</g>
<!-- Node4 -->
<g id="Node000004" class="node">
<title>Node4</title>
<g id="a_Node000004"><a xlink:href="namespace_nuki_opener.html#a0a734c84a0fcb8e58a4fe1162747db98" target="_top" xlink:title=" ">
<polygon fill="white" stroke="#666666" points="316.25,-218.25 160.75,-218.25 160.75,-199 316.25,-199 316.25,-218.25"/>
<text text-anchor="middle" x="238.5" y="-204.75" font-family="Helvetica,sans-Serif" font-size="10.00">NukiOpener::logAdvancedConfig</text>
</a>
</g>
</g>
<!-- Node1&#45;&gt;Node4 -->
<g id="edge3_Node000001_Node000004" class="edge">
<title>Node1&#45;&gt;Node4</title>
<g id="a_edge3_Node000001_Node000004"><a xlink:title=" ">
<path fill="none" stroke="#63b8ff" d="M99.4,-168.33C117.41,-175.73 139.62,-184.3 160,-190.62 165.85,-192.44 172.01,-194.17 178.18,-195.78"/>
<polygon fill="#63b8ff" stroke="#63b8ff" points="177.23,-199.15 187.78,-198.19 178.94,-192.36 177.23,-199.15"/>
</a>
</g>
</g>
<!-- Node6 -->
<g id="Node000006" class="node">
<title>Node6</title>
<g id="a_Node000006"><a xlink:href="namespace_nuki_opener.html#addd007828c6aae2767c95081958d60dd" target="_top" xlink:title=" ">
<polygon fill="white" stroke="#666666" points="310.62,-181.25 166.38,-181.25 166.38,-162 310.62,-162 310.62,-181.25"/>
<text text-anchor="middle" x="238.5" y="-167.75" font-family="Helvetica,sans-Serif" font-size="10.00">NukiOpener::logBatteryReport</text>
</a>
</g>
</g>
<!-- Node1&#45;&gt;Node6 -->
<g id="edge5_Node000001_Node000006" class="edge">
<title>Node1&#45;&gt;Node6</title>
<g id="a_edge5_Node000001_Node000006"><a xlink:title=" ">
<path fill="none" stroke="#63b8ff" d="M124.03,-159.27C133.99,-160.35 144.45,-161.49 154.83,-162.62"/>
<polygon fill="#63b8ff" stroke="#63b8ff" points="154.2,-166.08 164.52,-163.68 154.96,-159.12 154.2,-166.08"/>
</a>
</g>
</g>
<!-- Node7 -->
<g id="Node000007" class="node">
<title>Node7</title>
<g id="a_Node000007"><a xlink:href="namespace_nuki_opener.html#a2e6270c8700b5a83a853b534ce59a08f" target="_top" xlink:title=" ">
<polygon fill="white" stroke="#666666" points="294.5,-144.25 182.5,-144.25 182.5,-125 294.5,-125 294.5,-144.25"/>
<text text-anchor="middle" x="238.5" y="-130.75" font-family="Helvetica,sans-Serif" font-size="10.00">NukiOpener::logConfig</text>
</a>
</g>
</g>
<!-- Node1&#45;&gt;Node7 -->
<g id="edge7_Node000001_Node000007" class="edge">
<title>Node1&#45;&gt;Node7</title>
<g id="a_edge7_Node000001_Node000007"><a xlink:title=" ">
<path fill="none" stroke="#63b8ff" d="M124.03,-146.33C139.22,-144.76 155.57,-143.08 171,-141.48"/>
<polygon fill="#63b8ff" stroke="#63b8ff" points="170.95,-145.01 180.54,-140.5 170.24,-138.04 170.95,-145.01"/>
</a>
</g>
</g>
<!-- Node8 -->
<g id="Node000008" class="node">
<title>Node8</title>
<g id="a_Node000008"><a xlink:href="namespace_nuki_opener.html#a510454c0171d807a1eebd77045481ba0" target="_top" xlink:title=" ">
<polygon fill="white" stroke="#666666" points="301.62,-69.88 175.38,-69.88 175.38,-39.38 301.62,-39.38 301.62,-69.88"/>
<text text-anchor="start" x="183.38" y="-56.38" font-family="Helvetica,sans-Serif" font-size="10.00">NukiOpener::logKeyturner</text>
<text text-anchor="middle" x="238.5" y="-45.12" font-family="Helvetica,sans-Serif" font-size="10.00">State</text>
</a>
</g>
</g>
<!-- Node1&#45;&gt;Node8 -->
<g id="edge9_Node000001_Node000008" class="edge">
<title>Node1&#45;&gt;Node8</title>
<g id="a_edge9_Node000001_Node000008"><a xlink:title=" ">
<path fill="none" stroke="#63b8ff" d="M79.62,-136.99C98,-120.44 129.12,-94.54 160,-78.62 162.72,-77.22 165.54,-75.88 168.42,-74.61"/>
<polygon fill="#63b8ff" stroke="#63b8ff" points="169.71,-77.86 177.65,-70.85 167.07,-71.38 169.71,-77.86"/>
</a>
</g>
</g>
<!-- Node13 -->
<g id="Node000013" class="node">
<title>Node13</title>
<g id="a_Node000013"><a xlink:href="namespace_nuki_opener.html#ad5810b4aac856a27473aedd0fe8f433e" target="_top" xlink:title=" ">
<polygon fill="white" stroke="#666666" points="300.12,-107.25 176.88,-107.25 176.88,-88 300.12,-88 300.12,-107.25"/>
<text text-anchor="middle" x="238.5" y="-93.75" font-family="Helvetica,sans-Serif" font-size="10.00">NukiOpener::logLogEntry</text>
</a>
</g>
</g>
<!-- Node1&#45;&gt;Node13 -->
<g id="edge17_Node000001_Node000013" class="edge">
<title>Node1&#45;&gt;Node13</title>
<g id="a_edge17_Node000001_Node000013"><a xlink:title=" ">
<path fill="none" stroke="#63b8ff" d="M100.36,-137.01C118.21,-129.9 140,-121.73 160,-115.62 166.09,-113.76 172.51,-111.99 178.93,-110.33"/>
<polygon fill="#63b8ff" stroke="#63b8ff" points="179.36,-113.83 188.22,-108.02 177.67,-107.04 179.36,-113.83"/>
</a>
</g>
</g>
<!-- Node14 -->
<g id="Node000014" class="node">
<title>Node14</title>
<g id="a_Node000014"><a xlink:href="namespace_nuki.html#a438fdfcef9f81eb0a3e493631b71ca5b" target="_top" xlink:title=" ">
<polygon fill="white" stroke="#666666" points="281,-21.25 196,-21.25 196,-2 281,-2 281,-21.25"/>
<text text-anchor="middle" x="238.5" y="-7.75" font-family="Helvetica,sans-Serif" font-size="10.00">Nuki::printBuffer</text>
</a>
</g>
</g>
<!-- Node1&#45;&gt;Node14 -->
<g id="edge22_Node000001_Node000014" class="edge">
<title>Node1&#45;&gt;Node14</title>
<g id="a_edge22_Node000001_Node000014"><a xlink:title=" ">
<path fill="none" stroke="#63b8ff" d="M70.83,-137.18C84.93,-111 117.16,-58.07 160,-30.62 167.46,-25.84 176.04,-22.27 184.7,-19.59"/>
<polygon fill="#63b8ff" stroke="#63b8ff" points="185.43,-23.02 194.18,-17.05 183.62,-16.25 185.43,-23.02"/>
</a>
</g>
</g>
<!-- Node5 -->
<g id="Node000005" class="node">
<title>Node5</title>
<g id="a_Node000005"><a xlink:href="namespace_nuki_opener.html#ac87f753e40affc2a7be0d69862685555" target="_top" xlink:title=" ">
<polygon fill="white" stroke="#666666" points="492.75,-181.25 353,-181.25 353,-162 492.75,-162 492.75,-181.25"/>
<text text-anchor="middle" x="422.88" y="-167.75" font-family="Helvetica,sans-Serif" font-size="10.00">NukiOpener::logMessageVar</text>
</a>
</g>
</g>
<!-- Node4&#45;&gt;Node5 -->
<g id="edge4_Node000004_Node000005" class="edge">
<title>Node4&#45;&gt;Node5</title>
<g id="a_edge4_Node000004_Node000005"><a xlink:title=" ">
<path fill="none" stroke="#63b8ff" d="M289.33,-198.51C311.45,-194.03 337.68,-188.71 360.95,-183.99"/>
<polygon fill="#63b8ff" stroke="#63b8ff" points="361.51,-187.44 370.62,-182.02 360.12,-180.58 361.51,-187.44"/>
</a>
</g>
</g>
<!-- Node6&#45;&gt;Node5 -->
<g id="edge6_Node000006_Node000005" class="edge">
<title>Node6&#45;&gt;Node5</title>
<g id="a_edge6_Node000006_Node000005"><a xlink:title=" ">
<path fill="none" stroke="#63b8ff" d="M311.06,-171.62C320.99,-171.62 331.25,-171.62 341.33,-171.62"/>
<polygon fill="#63b8ff" stroke="#63b8ff" points="341.1,-175.13 351.1,-171.63 341.1,-168.13 341.1,-175.13"/>
</a>
</g>
</g>
<!-- Node7&#45;&gt;Node5 -->
<g id="edge8_Node000007_Node000005" class="edge">
<title>Node7&#45;&gt;Node5</title>
<g id="a_edge8_Node000007_Node000005"><a xlink:title=" ">
<path fill="none" stroke="#63b8ff" d="M289.33,-144.74C311.45,-149.22 337.68,-154.54 360.95,-159.26"/>
<polygon fill="#63b8ff" stroke="#63b8ff" points="360.12,-162.67 370.62,-161.23 361.51,-155.81 360.12,-162.67"/>
</a>
</g>
</g>
<!-- Node8&#45;&gt;Node5 -->
<g id="edge14_Node000008_Node000005" class="edge">
<title>Node8&#45;&gt;Node5</title>
<g id="a_edge14_Node000008_Node000005"><a xlink:title=" ">
<path fill="none" stroke="#63b8ff" d="M300.4,-70.32C306.18,-72.74 311.81,-75.5 317,-78.62 336.37,-90.31 336.27,-99.39 353,-114.62 368.39,-128.63 386.55,-143.6 400.36,-154.68"/>
<polygon fill="#63b8ff" stroke="#63b8ff" points="397.95,-157.24 407.95,-160.73 402.31,-151.76 397.95,-157.24"/>
</a>
</g>
</g>
<!-- Node9 -->
<g id="Node000009" class="node">
<title>Node9</title>
<g id="a_Node000009"><a xlink:href="namespace_nuki_opener.html#a6bf8f7b28ff29642c9206fe6fc3e0070" target="_top" xlink:title=" ">
<polygon fill="white" stroke="#666666" points="489.75,-67.88 356,-67.88 356,-37.38 489.75,-37.38 489.75,-67.88"/>
<text text-anchor="start" x="364" y="-54.38" font-family="Helvetica,sans-Serif" font-size="10.00">NukiOpener::logCompletion</text>
<text text-anchor="middle" x="422.88" y="-43.12" font-family="Helvetica,sans-Serif" font-size="10.00">Status</text>
</a>
</g>
</g>
<!-- Node8&#45;&gt;Node9 -->
<g id="edge10_Node000008_Node000009" class="edge">
<title>Node8&#45;&gt;Node9</title>
<g id="a_edge10_Node000008_Node000009"><a xlink:title=" ">
<path fill="none" stroke="#63b8ff" d="M302.01,-53.94C315.68,-53.79 330.3,-53.63 344.47,-53.47"/>
<polygon fill="#63b8ff" stroke="#63b8ff" points="344.24,-56.98 354.2,-53.37 344.16,-49.98 344.24,-56.98"/>
</a>
</g>
</g>
<!-- Node11 -->
<g id="Node000011" class="node">
<title>Node11</title>
<g id="a_Node000011"><a xlink:href="namespace_nuki_opener.html#a3e96f2a12b591da08c015e0ea11fb890" target="_top" xlink:title=" ">
<polygon fill="white" stroke="#666666" points="490.12,-105.25 355.62,-105.25 355.62,-86 490.12,-86 490.12,-105.25"/>
<text text-anchor="middle" x="422.88" y="-91.75" font-family="Helvetica,sans-Serif" font-size="10.00">NukiOpener::logLockAction</text>
</a>
</g>
</g>
<!-- Node8&#45;&gt;Node11 -->
<g id="edge12_Node000008_Node000011" class="edge">
<title>Node8&#45;&gt;Node11</title>
<g id="a_edge12_Node000008_Node000011"><a xlink:title=" ">
<path fill="none" stroke="#63b8ff" d="M302.01,-68.68C322.71,-73.33 345.6,-78.48 365.78,-83.01"/>
<polygon fill="#63b8ff" stroke="#63b8ff" points="365,-86.43 375.52,-85.2 366.53,-79.6 365,-86.43"/>
</a>
</g>
</g>
<!-- Node12 -->
<g id="Node000012" class="node">
<title>Node12</title>
<g id="a_Node000012"><a xlink:href="namespace_nuki_opener.html#a447a699b1fa6e98b086dd250d8db7825" target="_top" xlink:title=" ">
<polygon fill="white" stroke="#666666" points="490.5,-19.25 355.25,-19.25 355.25,0 490.5,0 490.5,-19.25"/>
<text text-anchor="middle" x="422.88" y="-5.75" font-family="Helvetica,sans-Serif" font-size="10.00">NukiOpener::logNukiTrigger</text>
</a>
</g>
</g>
<!-- Node8&#45;&gt;Node12 -->
<g id="edge15_Node000008_Node000012" class="edge">
<title>Node8&#45;&gt;Node12</title>
<g id="a_edge15_Node000008_Node000012"><a xlink:title=" ">
<path fill="none" stroke="#63b8ff" d="M302.01,-39.2C324.12,-33.75 348.74,-27.67 369.89,-22.45"/>
<polygon fill="#63b8ff" stroke="#63b8ff" points="370.58,-25.89 379.45,-20.09 368.9,-19.09 370.58,-25.89"/>
</a>
</g>
</g>
<!-- Node10 -->
<g id="Node000010" class="node">
<title>Node10</title>
<g id="a_Node000010"><a xlink:href="namespace_nuki_opener.html#abe42ec4ff1fe8d7a2324598ccb90732d" target="_top" xlink:title=" ">
<polygon fill="white" stroke="#666666" points="653.5,-83.25 528.75,-83.25 528.75,-64 653.5,-64 653.5,-83.25"/>
<text text-anchor="middle" x="591.12" y="-69.75" font-family="Helvetica,sans-Serif" font-size="10.00">NukiOpener::logMessage</text>
</a>
</g>
</g>
<!-- Node9&#45;&gt;Node10 -->
<g id="edge11_Node000009_Node000010" class="edge">
<title>Node9&#45;&gt;Node10</title>
<g id="a_edge11_Node000009_Node000010"><a xlink:title=" ">
<path fill="none" stroke="#63b8ff" d="M490.06,-60.99C498.97,-62.11 508.16,-63.27 517.18,-64.41"/>
<polygon fill="#63b8ff" stroke="#63b8ff" points="516.63,-67.87 526.99,-65.65 517.5,-60.92 516.63,-67.87"/>
</a>
</g>
</g>
<!-- Node11&#45;&gt;Node10 -->
<g id="edge13_Node000011_Node000010" class="edge">
<title>Node11&#45;&gt;Node10</title>
<g id="a_edge13_Node000011_Node000010"><a xlink:title=" ">
<path fill="none" stroke="#63b8ff" d="M490.54,-86.8C499.21,-85.66 508.12,-84.48 516.89,-83.32"/>
<polygon fill="#63b8ff" stroke="#63b8ff" points="517.34,-86.79 526.8,-82.01 516.42,-79.85 517.34,-86.79"/>
</a>
</g>
</g>
<!-- Node12&#45;&gt;Node10 -->
<g id="edge16_Node000012_Node000010" class="edge">
<title>Node12&#45;&gt;Node10</title>
<g id="a_edge16_Node000012_Node000010"><a xlink:title=" ">
<path fill="none" stroke="#63b8ff" d="M464.65,-19.69C473.98,-22.31 483.78,-25.34 492.75,-28.62 516.1,-37.18 541.59,-49.05 560.63,-58.45"/>
<polygon fill="#63b8ff" stroke="#63b8ff" points="558.89,-61.5 569.4,-62.85 562.03,-55.24 558.89,-61.5"/>
</a>
</g>
</g>
<!-- Node13&#45;&gt;Node5 -->
<g id="edge21_Node000013_Node000005" class="edge">
<title>Node13&#45;&gt;Node5</title>
<g id="a_edge21_Node000013_Node000005"><a xlink:title=" ">
<path fill="none" stroke="#63b8ff" d="M297.37,-107.67C304.17,-109.83 310.87,-112.45 317,-115.62 336.01,-125.46 334.54,-136.78 353,-147.62 359.53,-151.46 366.77,-154.81 374.02,-157.7"/>
<polygon fill="#63b8ff" stroke="#63b8ff" points="372.58,-160.9 383.17,-161.07 375,-154.33 372.58,-160.9"/>
</a>
</g>
</g>
<!-- Node13&#45;&gt;Node9 -->
<g id="edge18_Node000013_Node000009" class="edge">
<title>Node13&#45;&gt;Node9</title>
<g id="a_edge18_Node000013_Node000009"><a xlink:title=" ">
<path fill="none" stroke="#63b8ff" d="M280.53,-87.59C292.31,-84.7 305.16,-81.54 317,-78.62 326.9,-76.18 337.32,-73.61 347.6,-71.07"/>
<polygon fill="#63b8ff" stroke="#63b8ff" points="348.32,-74.49 357.19,-68.69 346.64,-67.7 348.32,-74.49"/>
</a>
</g>
</g>
<!-- Node13&#45;&gt;Node10 -->
<g id="edge20_Node000013_Node000010" class="edge">
<title>Node13&#45;&gt;Node10</title>
<g id="a_edge20_Node000013_Node000010"><a xlink:title=" ">
<path fill="none" stroke="#63b8ff" d="M284.35,-107.73C335.34,-117.59 420.83,-129.15 492.75,-114.62 517.36,-109.65 543.5,-98.28 562.49,-88.76"/>
<polygon fill="#63b8ff" stroke="#63b8ff" points="563.89,-91.98 571.17,-84.28 560.68,-85.76 563.89,-91.98"/>
</a>
</g>
</g>
<!-- Node13&#45;&gt;Node11 -->
<g id="edge19_Node000013_Node000011" class="edge">
<title>Node13&#45;&gt;Node11</title>
<g id="a_edge19_Node000013_Node000011"><a xlink:title=" ">
<path fill="none" stroke="#63b8ff" d="M300.48,-96.96C314.37,-96.8 329.32,-96.64 343.81,-96.48"/>
<polygon fill="#63b8ff" stroke="#63b8ff" points="343.83,-99.98 353.79,-96.37 343.76,-92.98 343.83,-99.98"/>
</a>
</g>
</g>
</g>
</svg>
