<?xml version="1.0" encoding="UTF-8" standalone="no"?>
<!DOCTYPE svg PUBLIC "-//W3C//DTD SVG 1.1//EN"
 "http://www.w3.org/Graphics/SVG/1.1/DTD/svg11.dtd">
<!-- Generated by graphviz version 12.0.0 (20240704.0754)
 -->
<!-- Title: Nuki::NukiBle::setSecurityPin Pages: 1 -->
<svg width="716pt" height="162pt"
 viewBox="0.00 0.00 715.50 161.88" xmlns="http://www.w3.org/2000/svg" xmlns:xlink="http://www.w3.org/1999/xlink">
<g id="graph0" class="graph" transform="scale(1 1) rotate(0) translate(4 157.88)">
<title>Nuki::NukiBle::setSecurityPin</title>
<!-- Node1 -->
<g id="Node000001" class="node">
<title>Node1</title>
<g id="a_Node000001"><a xlink:title="Send the new pincode command to the lock via BLE (this command uses the earlier by saveSecurityPincod...">
<polygon fill="#999999" stroke="#666666" points="142.75,-83.25 0,-83.25 0,-64 142.75,-64 142.75,-83.25"/>
<text text-anchor="middle" x="71.38" y="-69.75" font-family="Helvetica,sans-Serif" font-size="10.00">Nuki::NukiBle::setSecurityPin</text>
</a>
</g>
</g>
<!-- Node2 -->
<g id="Node000002" class="node">
<title>Node2</title>
<g id="a_Node000002"><a xlink:href="class_nuki_1_1_nuki_ble.html#af1f1e299e8d97e053bba80e92ba285d6" target="_top" xlink:title=" ">
<polygon fill="white" stroke="#666666" points="320,-83.25 178.75,-83.25 178.75,-64 320,-64 320,-83.25"/>
<text text-anchor="middle" x="249.38" y="-69.75" font-family="Helvetica,sans-Serif" font-size="10.00">Nuki::NukiBle::executeAction</text>
</a>
</g>
</g>
<!-- Node1&#45;&gt;Node2 -->
<g id="edge1_Node000001_Node000002" class="edge">
<title>Node1&#45;&gt;Node2</title>
<g id="a_edge1_Node000001_Node000002"><a xlink:title=" ">
<path fill="none" stroke="#63b8ff" d="M143.2,-73.62C150.97,-73.62 158.92,-73.62 166.8,-73.62"/>
<polygon fill="#63b8ff" stroke="#63b8ff" points="166.75,-77.13 176.75,-73.63 166.75,-70.13 166.75,-77.13"/>
</a>
</g>
</g>
<!-- Node3 -->
<g id="Node000003" class="node">
<title>Node3</title>
<g id="a_Node000003"><a xlink:href="class_nuki_1_1_nuki_ble.html#ada0f3beebd95d35c122e25dd3f9eb886" target="_top" xlink:title=" ">
<polygon fill="white" stroke="#666666" points="504,-153.88 366.5,-153.88 366.5,-123.38 504,-123.38 504,-153.88"/>
<text text-anchor="start" x="374.5" y="-140.38" font-family="Helvetica,sans-Serif" font-size="10.00">Nuki::NukiBle::cmdChallAcc</text>
<text text-anchor="middle" x="435.25" y="-129.12" font-family="Helvetica,sans-Serif" font-size="10.00">StateMachine</text>
</a>
</g>
</g>
<!-- Node2&#45;&gt;Node3 -->
<g id="edge2_Node000002_Node000003" class="edge">
<title>Node2&#45;&gt;Node3</title>
<g id="a_edge2_Node000002_Node000003"><a xlink:title=" ">
<path fill="none" stroke="#63b8ff" d="M278.7,-83.64C305.43,-93.09 346.22,-107.51 379.32,-119.21"/>
<polygon fill="#63b8ff" stroke="#63b8ff" points="377.75,-122.37 388.35,-122.4 380.09,-115.77 377.75,-122.37"/>
</a>
</g>
</g>
<!-- Node4 -->
<g id="Node000004" class="node">
<title>Node4</title>
<g id="a_Node000004"><a xlink:href="class_nuki_1_1_nuki_ble.html#a6e8fca90c04249660dce6cb993eb4495" target="_top" xlink:title=" ">
<polygon fill="white" stroke="#666666" points="707.5,-88.88 550.5,-88.88 550.5,-58.38 707.5,-58.38 707.5,-88.88"/>
<text text-anchor="start" x="558.5" y="-75.38" font-family="Helvetica,sans-Serif" font-size="10.00">Nuki::NukiBle::extendDisconnect</text>
<text text-anchor="middle" x="629" y="-64.12" font-family="Helvetica,sans-Serif" font-size="10.00">Timeout</text>
</a>
</g>
</g>
<!-- Node2&#45;&gt;Node4 -->
<g id="edge8_Node000002_Node000004" class="edge">
<title>Node2&#45;&gt;Node4</title>
<g id="a_edge8_Node000002_Node000004"><a xlink:title=" ">
<path fill="none" stroke="#63b8ff" d="M320.25,-75.89C332.18,-76.2 344.44,-76.46 356,-76.62 426.44,-77.63 444.06,-77.56 514.5,-76.62 522.43,-76.52 530.66,-76.37 538.92,-76.2"/>
<polygon fill="#63b8ff" stroke="#63b8ff" points="538.73,-79.71 548.65,-75.99 538.57,-72.71 538.73,-79.71"/>
</a>
</g>
</g>
<!-- Node5 -->
<g id="Node000005" class="node">
<title>Node5</title>
<g id="a_Node000005"><a xlink:href="class_nuki_1_1_nuki_ble.html#a59169a9f492793762e3c6ba39b611b07" target="_top" xlink:title=" ">
<polygon fill="white" stroke="#666666" points="507,-67.88 363.5,-67.88 363.5,-37.38 507,-37.38 507,-67.88"/>
<text text-anchor="start" x="371.5" y="-54.38" font-family="Helvetica,sans-Serif" font-size="10.00">Nuki::NukiBle::cmdChallState</text>
<text text-anchor="middle" x="435.25" y="-43.12" font-family="Helvetica,sans-Serif" font-size="10.00">Machine</text>
</a>
</g>
</g>
<!-- Node2&#45;&gt;Node5 -->
<g id="edge4_Node000002_Node000005" class="edge">
<title>Node2&#45;&gt;Node5</title>
<g id="a_edge4_Node000002_Node000005"><a xlink:title=" ">
<path fill="none" stroke="#63b8ff" d="M320.41,-65.63C330.7,-64.45 341.37,-63.23 351.88,-62.03"/>
<polygon fill="#63b8ff" stroke="#63b8ff" points="352.14,-65.53 361.68,-60.91 351.35,-58.57 352.14,-65.53"/>
</a>
</g>
</g>
<!-- Node6 -->
<g id="Node000006" class="node">
<title>Node6</title>
<g id="a_Node000006"><a xlink:href="class_nuki_1_1_nuki_ble.html#ad135bb1455665decfddff67772c1d411" target="_top" xlink:title=" ">
<polygon fill="white" stroke="#666666" points="514.5,-19.25 356,-19.25 356,0 514.5,0 514.5,-19.25"/>
<text text-anchor="middle" x="435.25" y="-5.75" font-family="Helvetica,sans-Serif" font-size="10.00">Nuki::NukiBle::cmdStateMachine</text>
</a>
</g>
</g>
<!-- Node2&#45;&gt;Node6 -->
<g id="edge6_Node000002_Node000006" class="edge">
<title>Node2&#45;&gt;Node6</title>
<g id="a_edge6_Node000002_Node000006"><a xlink:title=" ">
<path fill="none" stroke="#63b8ff" d="M271.03,-63.63C292.04,-53.74 325.73,-38.67 356,-28.62 362.53,-26.46 369.44,-24.42 376.35,-22.55"/>
<polygon fill="#63b8ff" stroke="#63b8ff" points="376.88,-26.02 385.67,-20.12 375.11,-19.25 376.88,-26.02"/>
</a>
</g>
</g>
<!-- Node3&#45;&gt;Node4 -->
<g id="edge3_Node000003_Node000004" class="edge">
<title>Node3&#45;&gt;Node4</title>
<g id="a_edge3_Node000003_Node000004"><a xlink:title=" ">
<path fill="none" stroke="#63b8ff" d="M482.67,-122.89C509.18,-113.9 542.65,-102.56 570.79,-93.02"/>
<polygon fill="#63b8ff" stroke="#63b8ff" points="571.9,-96.34 580.24,-89.81 569.65,-89.71 571.9,-96.34"/>
</a>
</g>
</g>
<!-- Node5&#45;&gt;Node4 -->
<g id="edge5_Node000005_Node000004" class="edge">
<title>Node5&#45;&gt;Node4</title>
<g id="a_edge5_Node000005_Node000004"><a xlink:title=" ">
<path fill="none" stroke="#63b8ff" d="M507.38,-60.41C517.63,-61.54 528.29,-62.71 538.84,-63.86"/>
<polygon fill="#63b8ff" stroke="#63b8ff" points="538.4,-67.33 548.72,-64.94 539.16,-60.37 538.4,-67.33"/>
</a>
</g>
</g>
<!-- Node6&#45;&gt;Node4 -->
<g id="edge7_Node000006_Node000004" class="edge">
<title>Node6&#45;&gt;Node4</title>
<g id="a_edge7_Node000006_Node000004"><a xlink:title=" ">
<path fill="none" stroke="#63b8ff" d="M482.47,-19.72C493.07,-22.34 504.24,-25.36 514.5,-28.62 536.93,-35.76 561.26,-45.17 581.62,-53.54"/>
<polygon fill="#63b8ff" stroke="#63b8ff" points="580.2,-56.74 590.78,-57.35 582.89,-50.28 580.2,-56.74"/>
</a>
</g>
</g>
</g>
</svg>
