<?xml version="1.0" encoding="UTF-8" standalone="no"?>
<!DOCTYPE svg PUBLIC "-//W3C//DTD SVG 1.1//EN"
 "http://www.w3.org/Graphics/SVG/1.1/DTD/svg11.dtd">
<!-- Generated by graphviz version 6.0.1 (20220911.1526)
 -->
<!-- Title: Nuki::NukiBle::updateKeypadEntry Pages: 1 -->
<svg width="526pt" height="189pt"
 viewBox="0.00 0.00 526.00 188.50" xmlns="http://www.w3.org/2000/svg" xmlns:xlink="http://www.w3.org/1999/xlink">
<g id="graph0" class="graph" transform="scale(1 1) rotate(0) translate(4 184.5)">
<title>Nuki::NukiBle::updateKeypadEntry</title>
<!-- Node1 -->
<g id="node1" class="node">
<title>Node1</title>
<g id="a_node1"><a xlink:title="Send an updated keypad entry to the lock via BLE.">
<polygon fill="#999999" stroke="#666666" points="142,-67.5 0,-67.5 0,-37.5 142,-37.5 142,-67.5"/>
<text text-anchor="start" x="8" y="-55.5" font-family="Helvetica,sans-Serif" font-size="10.00">Nuki::NukiBle::updateKeypad</text>
<text text-anchor="middle" x="71" y="-44.5" font-family="Helvetica,sans-Serif" font-size="10.00">Entry</text>
</a>
</g>
</g>
<!-- Node2 -->
<g id="node2" class="node">
<title>Node2</title>
<g id="a_node2"><a xlink:href="class_nuki_1_1_nuki_ble.html#af1f1e299e8d97e053bba80e92ba285d6" target="_top" xlink:title=" ">
<polygon fill="white" stroke="#666666" points="321.5,-105 179.5,-105 179.5,-86 321.5,-86 321.5,-105"/>
<text text-anchor="middle" x="250.5" y="-93" font-family="Helvetica,sans-Serif" font-size="10.00">Nuki::NukiBle::executeAction</text>
</a>
</g>
</g>
<!-- Node1&#45;&gt;Node2 -->
<g id="edge1" class="edge">
<title>Node1&#45;&gt;Node2</title>
<path fill="none" stroke="#63b8ff" d="M134.08,-67.54C155.82,-72.8 179.91,-78.64 200.43,-83.61"/>
<polygon fill="#63b8ff" stroke="#63b8ff" points="199.65,-87.02 210.19,-85.98 201.3,-80.22 199.65,-87.02"/>
</g>
<!-- Node7 -->
<g id="node7" class="node">
<title>Node7</title>
<g id="a_node7"><a xlink:href="namespace_nuki_lock.html#af2b794f25294d2c5505a91d16687d512" target="_top" xlink:title=" ">
<polygon fill="white" stroke="#666666" points="323,-67.5 178,-67.5 178,-37.5 323,-37.5 323,-67.5"/>
<text text-anchor="start" x="186" y="-55.5" font-family="Helvetica,sans-Serif" font-size="10.00">NukiLock::logUpdatedKeypad</text>
<text text-anchor="middle" x="250.5" y="-44.5" font-family="Helvetica,sans-Serif" font-size="10.00">Entry</text>
</a>
</g>
</g>
<!-- Node1&#45;&gt;Node7 -->
<g id="edge6" class="edge">
<title>Node1&#45;&gt;Node7</title>
<path fill="none" stroke="#63b8ff" d="M142.15,-52.5C150.58,-52.5 159.24,-52.5 167.82,-52.5"/>
<polygon fill="#63b8ff" stroke="#63b8ff" points="167.82,-56 177.82,-52.5 167.82,-49 167.82,-56"/>
</g>
<!-- Node8 -->
<g id="node8" class="node">
<title>Node8</title>
<g id="a_node8"><a xlink:href="namespace_nuki.html#a280e19d4682ca4b35d3fe64001da816a" target="_top" xlink:title=" ">
<polygon fill="white" stroke="#666666" points="293.5,-19 207.5,-19 207.5,0 293.5,0 293.5,-19"/>
<text text-anchor="middle" x="250.5" y="-7" font-family="Helvetica,sans-Serif" font-size="10.00">Nuki::printBuffer</text>
</a>
</g>
</g>
<!-- Node1&#45;&gt;Node8 -->
<g id="edge7" class="edge">
<title>Node1&#45;&gt;Node8</title>
<path fill="none" stroke="#63b8ff" d="M134.08,-37.46C155.82,-32.2 179.91,-26.36 200.43,-21.39"/>
<polygon fill="#63b8ff" stroke="#63b8ff" points="201.3,-24.78 210.19,-19.02 199.65,-17.98 201.3,-24.78"/>
</g>
<!-- Node3 -->
<g id="node3" class="node">
<title>Node3</title>
<g id="a_node3"><a xlink:href="class_nuki_1_1_nuki_ble.html#ada0f3beebd95d35c122e25dd3f9eb886" target="_top" xlink:title=" ">
<polygon fill="white" stroke="#666666" points="507.5,-180.5 369.5,-180.5 369.5,-150.5 507.5,-150.5 507.5,-180.5"/>
<text text-anchor="start" x="377.5" y="-168.5" font-family="Helvetica,sans-Serif" font-size="10.00">Nuki::NukiBle::cmdChallAcc</text>
<text text-anchor="middle" x="438.5" y="-157.5" font-family="Helvetica,sans-Serif" font-size="10.00">StateMachine</text>
</a>
</g>
</g>
<!-- Node2&#45;&gt;Node3 -->
<g id="edge2" class="edge">
<title>Node2&#45;&gt;Node3</title>
<path fill="none" stroke="#63b8ff" d="M272.24,-105.17C293.7,-114.98 328.3,-130.28 359,-141.5 364.4,-143.48 370.05,-145.42 375.74,-147.31"/>
<polygon fill="#63b8ff" stroke="#63b8ff" points="374.71,-150.65 385.3,-150.4 376.86,-143.99 374.71,-150.65"/>
</g>
<!-- Node4 -->
<g id="node4" class="node">
<title>Node4</title>
<g id="a_node4"><a xlink:href="class_nuki_1_1_nuki_ble.html#a59169a9f492793762e3c6ba39b611b07" target="_top" xlink:title=" ">
<polygon fill="white" stroke="#666666" points="510.5,-132.5 366.5,-132.5 366.5,-102.5 510.5,-102.5 510.5,-132.5"/>
<text text-anchor="start" x="374.5" y="-120.5" font-family="Helvetica,sans-Serif" font-size="10.00">Nuki::NukiBle::cmdChallState</text>
<text text-anchor="middle" x="438.5" y="-109.5" font-family="Helvetica,sans-Serif" font-size="10.00">Machine</text>
</a>
</g>
</g>
<!-- Node2&#45;&gt;Node4 -->
<g id="edge3" class="edge">
<title>Node2&#45;&gt;Node4</title>
<path fill="none" stroke="#63b8ff" d="M321.55,-103.79C332.86,-105.12 344.66,-106.52 356.2,-107.88"/>
<polygon fill="#63b8ff" stroke="#63b8ff" points="355.93,-111.38 366.27,-109.08 356.75,-104.42 355.93,-111.38"/>
</g>
<!-- Node5 -->
<g id="node5" class="node">
<title>Node5</title>
<g id="a_node5"><a xlink:href="class_nuki_1_1_nuki_ble.html#ad135bb1455665decfddff67772c1d411" target="_top" xlink:title=" ">
<polygon fill="white" stroke="#666666" points="518,-84 359,-84 359,-65 518,-65 518,-84"/>
<text text-anchor="middle" x="438.5" y="-72" font-family="Helvetica,sans-Serif" font-size="10.00">Nuki::NukiBle::cmdStateMachine</text>
</a>
</g>
</g>
<!-- Node2&#45;&gt;Node5 -->
<g id="edge4" class="edge">
<title>Node2&#45;&gt;Node5</title>
<path fill="none" stroke="#63b8ff" d="M321.55,-87.59C330.38,-86.59 339.51,-85.56 348.58,-84.54"/>
<polygon fill="#63b8ff" stroke="#63b8ff" points="349.23,-87.99 358.78,-83.39 348.45,-81.03 349.23,-87.99"/>
</g>
<!-- Node6 -->
<g id="node6" class="node">
<title>Node6</title>
<g id="a_node6"><a xlink:href="class_nuki_1_1_nuki_ble.html#aed01f10d1ffa769f0f6fadc0d06d328e" target="_top" xlink:title=" ">
<polygon fill="white" stroke="#666666" points="514.5,-46.5 362.5,-46.5 362.5,-16.5 514.5,-16.5 514.5,-46.5"/>
<text text-anchor="start" x="370.5" y="-34.5" font-family="Helvetica,sans-Serif" font-size="10.00">Nuki::NukiBle::extendDisonnect</text>
<text text-anchor="middle" x="438.5" y="-23.5" font-family="Helvetica,sans-Serif" font-size="10.00">Timeout</text>
</a>
</g>
</g>
<!-- Node2&#45;&gt;Node6 -->
<g id="edge5" class="edge">
<title>Node2&#45;&gt;Node6</title>
<path fill="none" stroke="#63b8ff" d="M294.85,-85.98C304.28,-83.36 314.1,-80.2 323,-76.5 340.1,-69.39 342.03,-62.92 359,-55.5 363.42,-53.57 368.04,-51.73 372.74,-49.99"/>
<polygon fill="#63b8ff" stroke="#63b8ff" points="374.17,-53.19 382.43,-46.56 371.84,-46.59 374.17,-53.19"/>
</g>
</g>
</svg>
