<?xml version="1.0" encoding="UTF-8" standalone="no"?>
<!DOCTYPE svg PUBLIC "-//W3C//DTD SVG 1.1//EN"
 "http://www.w3.org/Graphics/SVG/1.1/DTD/svg11.dtd">
<!-- Generated by graphviz version 11.0.0 (20240428.1522)
 -->
<!-- Title: Nuki::NukiBle::setSecurityPin Pages: 1 -->
<svg width="523pt" height="174pt"
 viewBox="0.00 0.00 522.50 173.50" xmlns="http://www.w3.org/2000/svg" xmlns:xlink="http://www.w3.org/1999/xlink">
<g id="graph0" class="graph" transform="scale(1 1) rotate(0) translate(4 169.5)">
<title>Nuki::NukiBle::setSecurityPin</title>
<!-- Node1 -->
<g id="Node000001" class="node">
<title>Node1</title>
<g id="a_Node000001"><a xlink:title="Send the new pincode command to the lock via BLE (this command uses the earlier by saveSecurityPincod...">
<polygon fill="#999999" stroke="#666666" points="142.75,-88.88 0,-88.88 0,-69.62 142.75,-69.62 142.75,-88.88"/>
<text text-anchor="middle" x="71.38" y="-75.38" font-family="Helvetica,sans-Serif" font-size="10.00">Nuki::NukiBle::setSecurityPin</text>
</a>
</g>
</g>
<!-- Node2 -->
<g id="Node000002" class="node">
<title>Node2</title>
<g id="a_Node000002"><a xlink:href="class_nuki_1_1_nuki_ble.html#af1f1e299e8d97e053bba80e92ba285d6" target="_top" xlink:title=" ">
<polygon fill="white" stroke="#666666" points="320,-88.88 178.75,-88.88 178.75,-69.62 320,-69.62 320,-88.88"/>
<text text-anchor="middle" x="249.38" y="-75.38" font-family="Helvetica,sans-Serif" font-size="10.00">Nuki::NukiBle::executeAction</text>
</a>
</g>
</g>
<!-- Node1&#45;&gt;Node2 -->
<g id="edge1_Node000001_Node000002" class="edge">
<title>Node1&#45;&gt;Node2</title>
<g id="a_edge1_Node000001_Node000002"><a xlink:title=" ">
<path fill="none" stroke="#63b8ff" d="M143.2,-79.25C150.97,-79.25 158.92,-79.25 166.8,-79.25"/>
<polygon fill="#63b8ff" stroke="#63b8ff" points="166.75,-82.75 176.75,-79.25 166.75,-75.75 166.75,-82.75"/>
</a>
</g>
</g>
<!-- Node3 -->
<g id="Node000003" class="node">
<title>Node3</title>
<g id="a_Node000003"><a xlink:href="class_nuki_1_1_nuki_ble.html#ada0f3beebd95d35c122e25dd3f9eb886" target="_top" xlink:title=" ">
<polygon fill="white" stroke="#666666" points="504,-165.5 366.5,-165.5 366.5,-135 504,-135 504,-165.5"/>
<text text-anchor="start" x="374.5" y="-152" font-family="Helvetica,sans-Serif" font-size="10.00">Nuki::NukiBle::cmdChallAcc</text>
<text text-anchor="middle" x="435.25" y="-140.75" font-family="Helvetica,sans-Serif" font-size="10.00">StateMachine</text>
</a>
</g>
</g>
<!-- Node2&#45;&gt;Node3 -->
<g id="edge2_Node000002_Node000003" class="edge">
<title>Node2&#45;&gt;Node3</title>
<g id="a_edge2_Node000002_Node000003"><a xlink:title=" ">
<path fill="none" stroke="#63b8ff" d="M271.56,-89.23C292.7,-99.02 326.24,-114.05 356,-125.25 361.21,-127.21 366.64,-129.15 372.12,-131.04"/>
<polygon fill="#63b8ff" stroke="#63b8ff" points="370.61,-134.22 381.21,-134.1 372.85,-127.59 370.61,-134.22"/>
</a>
</g>
</g>
<!-- Node4 -->
<g id="Node000004" class="node">
<title>Node4</title>
<g id="a_Node000004"><a xlink:href="class_nuki_1_1_nuki_ble.html#a59169a9f492793762e3c6ba39b611b07" target="_top" xlink:title=" ">
<polygon fill="white" stroke="#666666" points="507,-116.5 363.5,-116.5 363.5,-86 507,-86 507,-116.5"/>
<text text-anchor="start" x="371.5" y="-103" font-family="Helvetica,sans-Serif" font-size="10.00">Nuki::NukiBle::cmdChallState</text>
<text text-anchor="middle" x="435.25" y="-91.75" font-family="Helvetica,sans-Serif" font-size="10.00">Machine</text>
</a>
</g>
</g>
<!-- Node2&#45;&gt;Node4 -->
<g id="edge3_Node000002_Node000004" class="edge">
<title>Node2&#45;&gt;Node4</title>
<g id="a_edge3_Node000002_Node000004"><a xlink:title=" ">
<path fill="none" stroke="#63b8ff" d="M320.41,-87.63C330.7,-88.86 341.37,-90.14 351.88,-91.39"/>
<polygon fill="#63b8ff" stroke="#63b8ff" points="351.34,-94.85 361.68,-92.57 352.17,-87.9 351.34,-94.85"/>
</a>
</g>
</g>
<!-- Node5 -->
<g id="Node000005" class="node">
<title>Node5</title>
<g id="a_Node000005"><a xlink:href="class_nuki_1_1_nuki_ble.html#ad135bb1455665decfddff67772c1d411" target="_top" xlink:title=" ">
<polygon fill="white" stroke="#666666" points="514.5,-67.88 356,-67.88 356,-48.62 514.5,-48.62 514.5,-67.88"/>
<text text-anchor="middle" x="435.25" y="-54.38" font-family="Helvetica,sans-Serif" font-size="10.00">Nuki::NukiBle::cmdStateMachine</text>
</a>
</g>
</g>
<!-- Node2&#45;&gt;Node5 -->
<g id="edge4_Node000002_Node000005" class="edge">
<title>Node2&#45;&gt;Node5</title>
<g id="a_edge4_Node000002_Node000005"><a xlink:title=" ">
<path fill="none" stroke="#63b8ff" d="M320.41,-71.25C328.28,-70.35 336.37,-69.43 344.44,-68.51"/>
<polygon fill="#63b8ff" stroke="#63b8ff" points="344.76,-71.99 354.3,-67.38 343.97,-65.04 344.76,-71.99"/>
</a>
</g>
</g>
<!-- Node6 -->
<g id="Node000006" class="node">
<title>Node6</title>
<g id="a_Node000006"><a xlink:href="class_nuki_1_1_nuki_ble.html#a6e8fca90c04249660dce6cb993eb4495" target="_top" xlink:title=" ">
<polygon fill="white" stroke="#666666" points="513.75,-30.5 356.75,-30.5 356.75,0 513.75,0 513.75,-30.5"/>
<text text-anchor="start" x="364.75" y="-17" font-family="Helvetica,sans-Serif" font-size="10.00">Nuki::NukiBle::extendDisconnect</text>
<text text-anchor="middle" x="435.25" y="-5.75" font-family="Helvetica,sans-Serif" font-size="10.00">Timeout</text>
</a>
</g>
</g>
<!-- Node2&#45;&gt;Node6 -->
<g id="edge5_Node000002_Node000006" class="edge">
<title>Node2&#45;&gt;Node6</title>
<g id="a_edge5_Node000002_Node000006"><a xlink:title=" ">
<path fill="none" stroke="#63b8ff" d="M275.39,-69.25C296.69,-60.87 328.17,-48.78 356,-39.25 360.74,-37.63 365.66,-36 370.62,-34.39"/>
<polygon fill="#63b8ff" stroke="#63b8ff" points="371.58,-37.76 380.04,-31.38 369.45,-31.09 371.58,-37.76"/>
</a>
</g>
</g>
</g>
</svg>
