<?xml version="1.0" encoding="UTF-8" standalone="no"?>
<!DOCTYPE svg PUBLIC "-//W3C//DTD SVG 1.1//EN"
 "http://www.w3.org/Graphics/SVG/1.1/DTD/svg11.dtd">
<!-- Generated by graphviz version 12.2.1 (20241206.2353)
 -->
<!-- Title: NukiLock::NukiLock::lockAction Pages: 1 -->
<svg width="677pt" height="215pt"
 viewBox="0.00 0.00 677.25 214.53" xmlns="http://www.w3.org/2000/svg" xmlns:xlink="http://www.w3.org/1999/xlink">
<g id="graph0" class="graph" transform="scale(1 1) rotate(0) translate(4 210.53)">
<title>NukiLock::NukiLock::lockAction</title>
<!-- Node1 -->
<g id="Node000001" class="node">
<title>Node1</title>
<g id="a_Node000001"><a xlink:title="Sends lock action cmd via BLE to the lock.">
<polygon fill="#999999" stroke="#666666" points="104.5,-123.78 0,-123.78 0,-93.28 104.5,-93.28 104.5,-123.78"/>
<text text-anchor="start" x="8" y="-110.28" font-family="Helvetica,sans-Serif" font-size="10.00">NukiLock::NukiLock</text>
<text text-anchor="middle" x="52.25" y="-99.03" font-family="Helvetica,sans-Serif" font-size="10.00">::lockAction</text>
</a>
</g>
</g>
<!-- Node1&#45;&gt;Node1 -->
<g id="edge18_Node000001_Node000001" class="edge">
<title>Node1&#45;&gt;Node1</title>
<g id="a_edge18_Node000001_Node000001"><a xlink:title=" ">
<path fill="none" stroke="#63b8ff" d="M24.1,-124.27C18.35,-133.34 27.74,-141.78 52.25,-141.78 65.66,-141.78 74.54,-139.26 78.89,-135.49"/>
<polygon fill="#63b8ff" stroke="#63b8ff" points="82.34,-136.15 80.2,-125.77 75.4,-135.21 82.34,-136.15"/>
</a>
</g>
</g>
<!-- Node2 -->
<g id="Node000002" class="node">
<title>Node2</title>
<g id="a_Node000002"><a xlink:href="class_nuki_1_1_nuki_ble.html#af1f1e299e8d97e053bba80e92ba285d6" target="_top" xlink:title=" ">
<polygon fill="white" stroke="#666666" points="281.75,-118.16 140.5,-118.16 140.5,-98.91 281.75,-98.91 281.75,-118.16"/>
<text text-anchor="middle" x="211.12" y="-104.66" font-family="Helvetica,sans-Serif" font-size="10.00">Nuki::NukiBle::executeAction</text>
</a>
</g>
</g>
<!-- Node1&#45;&gt;Node2 -->
<g id="edge1_Node000001_Node000002" class="edge">
<title>Node1&#45;&gt;Node2</title>
<g id="a_edge1_Node000001_Node000002"><a xlink:title=" ">
<path fill="none" stroke="#63b8ff" d="M104.62,-108.53C112.42,-108.53 120.63,-108.53 128.88,-108.53"/>
<polygon fill="#63b8ff" stroke="#63b8ff" points="128.61,-112.03 138.61,-108.53 128.61,-105.03 128.61,-112.03"/>
</a>
</g>
</g>
<!-- Node3 -->
<g id="Node000003" class="node">
<title>Node3</title>
<g id="a_Node000003"><a xlink:href="class_nuki_1_1_nuki_ble.html#ada0f3beebd95d35c122e25dd3f9eb886" target="_top" xlink:title=" ">
<polygon fill="white" stroke="#666666" points="465.75,-145.78 328.25,-145.78 328.25,-115.28 465.75,-115.28 465.75,-145.78"/>
<text text-anchor="start" x="336.25" y="-132.28" font-family="Helvetica,sans-Serif" font-size="10.00">Nuki::NukiBle::cmdChallAcc</text>
<text text-anchor="middle" x="397" y="-121.03" font-family="Helvetica,sans-Serif" font-size="10.00">StateMachine</text>
</a>
</g>
</g>
<!-- Node2&#45;&gt;Node3 -->
<g id="edge2_Node000002_Node000003" class="edge">
<title>Node2&#45;&gt;Node3</title>
<g id="a_edge2_Node000002_Node000003"><a xlink:title=" ">
<path fill="none" stroke="#63b8ff" d="M282.16,-116.91C293.43,-118.26 305.16,-119.66 316.63,-121.04"/>
<polygon fill="#63b8ff" stroke="#63b8ff" points="316.13,-124.5 326.47,-122.21 316.96,-117.55 316.13,-124.5"/>
</a>
</g>
</g>
<!-- Node4 -->
<g id="Node000004" class="node">
<title>Node4</title>
<g id="a_Node000004"><a xlink:href="class_nuki_1_1_nuki_ble.html#a6e8fca90c04249660dce6cb993eb4495" target="_top" xlink:title=" ">
<polygon fill="white" stroke="#666666" points="669.25,-186.78 512.25,-186.78 512.25,-156.28 669.25,-156.28 669.25,-186.78"/>
<text text-anchor="start" x="520.25" y="-173.28" font-family="Helvetica,sans-Serif" font-size="10.00">Nuki::NukiBle::extendDisconnect</text>
<text text-anchor="middle" x="590.75" y="-162.03" font-family="Helvetica,sans-Serif" font-size="10.00">Timeout</text>
</a>
</g>
</g>
<!-- Node2&#45;&gt;Node4 -->
<g id="edge15_Node000002_Node000004" class="edge">
<title>Node2&#45;&gt;Node4</title>
<g id="a_edge15_Node000002_Node000004"><a xlink:title=" ">
<path fill="none" stroke="#63b8ff" d="M220.41,-118.58C236.7,-137.45 275.06,-177.63 317.75,-192.53 387.13,-216.76 472.32,-203.9 528.68,-190.02"/>
<polygon fill="#63b8ff" stroke="#63b8ff" points="529.26,-193.48 538.08,-187.61 527.53,-186.7 529.26,-193.48"/>
</a>
</g>
</g>
<!-- Node5 -->
<g id="Node000005" class="node">
<title>Node5</title>
<g id="a_Node000005"><a xlink:href="class_nuki_1_1_nuki_ble.html#ac7ce691d9c3e586474655d1663eb2e20" target="_top" xlink:title=" ">
<polygon fill="white" stroke="#666666" points="656.88,-137.16 524.62,-137.16 524.62,-117.91 656.88,-117.91 656.88,-137.16"/>
<text text-anchor="middle" x="590.75" y="-123.66" font-family="Helvetica,sans-Serif" font-size="10.00">Nuki::NukiBle::logMessage</text>
</a>
</g>
</g>
<!-- Node2&#45;&gt;Node5 -->
<g id="edge16_Node000002_Node000005" class="edge">
<title>Node2&#45;&gt;Node5</title>
<g id="a_edge16_Node000002_Node000005"><a xlink:title=" ">
<path fill="none" stroke="#63b8ff" d="M282.01,-107.02C293.93,-106.82 306.2,-106.64 317.75,-106.53 388.19,-105.87 406.1,-100.1 476.25,-106.53 495.34,-108.28 516.01,-111.66 534.41,-115.2"/>
<polygon fill="#63b8ff" stroke="#63b8ff" points="533.57,-118.6 544.06,-117.12 534.93,-111.73 533.57,-118.6"/>
</a>
</g>
</g>
<!-- Node6 -->
<g id="Node000006" class="node">
<title>Node6</title>
<g id="a_Node000006"><a xlink:href="class_nuki_1_1_nuki_ble.html#af3650133f46aeca48a5f01b95d23ab71" target="_top" xlink:title=" ">
<polygon fill="white" stroke="#666666" points="664.38,-97.16 517.12,-97.16 517.12,-77.91 664.38,-77.91 664.38,-97.16"/>
<text text-anchor="middle" x="590.75" y="-83.66" font-family="Helvetica,sans-Serif" font-size="10.00">Nuki::NukiBle::logMessageVar</text>
</a>
</g>
</g>
<!-- Node2&#45;&gt;Node6 -->
<g id="edge17_Node000002_Node000006" class="edge">
<title>Node2&#45;&gt;Node6</title>
<g id="a_edge17_Node000002_Node000006"><a xlink:title=" ">
<path fill="none" stroke="#63b8ff" d="M219.8,-98.62C235.61,-79.14 273.99,-36.37 317.75,-20.53 383.99,3.44 412.42,9.27 476.25,-20.53 498.83,-31.08 491.5,-49.73 512.25,-63.53 518.1,-67.42 524.61,-70.71 531.3,-73.48"/>
<polygon fill="#63b8ff" stroke="#63b8ff" points="529.89,-76.69 540.49,-76.89 532.33,-70.13 529.89,-76.69"/>
</a>
</g>
</g>
<!-- Node7 -->
<g id="Node000007" class="node">
<title>Node7</title>
<g id="a_Node000007"><a xlink:href="class_nuki_1_1_nuki_ble.html#a59169a9f492793762e3c6ba39b611b07" target="_top" xlink:title=" ">
<polygon fill="white" stroke="#666666" points="468.75,-59.78 325.25,-59.78 325.25,-29.28 468.75,-29.28 468.75,-59.78"/>
<text text-anchor="start" x="333.25" y="-46.28" font-family="Helvetica,sans-Serif" font-size="10.00">Nuki::NukiBle::cmdChallState</text>
<text text-anchor="middle" x="397" y="-35.03" font-family="Helvetica,sans-Serif" font-size="10.00">Machine</text>
</a>
</g>
</g>
<!-- Node2&#45;&gt;Node7 -->
<g id="edge6_Node000002_Node000007" class="edge">
<title>Node2&#45;&gt;Node7</title>
<g id="a_edge6_Node000002_Node000007"><a xlink:title=" ">
<path fill="none" stroke="#63b8ff" d="M240.86,-98.53C267.35,-89.31 307.43,-75.36 340.21,-63.95"/>
<polygon fill="#63b8ff" stroke="#63b8ff" points="341.3,-67.28 349.59,-60.69 338.99,-60.67 341.3,-67.28"/>
</a>
</g>
</g>
<!-- Node9 -->
<g id="Node000009" class="node">
<title>Node9</title>
<g id="a_Node000009"><a xlink:href="class_nuki_1_1_nuki_ble.html#ad135bb1455665decfddff67772c1d411" target="_top" xlink:title=" ">
<polygon fill="white" stroke="#666666" points="476.25,-183.16 317.75,-183.16 317.75,-163.91 476.25,-163.91 476.25,-183.16"/>
<text text-anchor="middle" x="397" y="-169.66" font-family="Helvetica,sans-Serif" font-size="10.00">Nuki::NukiBle::cmdStateMachine</text>
</a>
</g>
</g>
<!-- Node2&#45;&gt;Node9 -->
<g id="edge11_Node000002_Node000009" class="edge">
<title>Node2&#45;&gt;Node9</title>
<g id="a_edge11_Node000002_Node000009"><a xlink:title=" ">
<path fill="none" stroke="#63b8ff" d="M232.36,-118.59C253.32,-128.72 287.23,-144.27 317.75,-154.53 324.27,-156.73 331.18,-158.78 338.08,-160.66"/>
<polygon fill="#63b8ff" stroke="#63b8ff" points="336.84,-163.96 347.4,-163.1 338.61,-157.19 336.84,-163.96"/>
</a>
</g>
</g>
<!-- Node3&#45;&gt;Node4 -->
<g id="edge3_Node000003_Node000004" class="edge">
<title>Node3&#45;&gt;Node4</title>
<g id="a_edge3_Node000003_Node000004"><a xlink:title=" ">
<path fill="none" stroke="#63b8ff" d="M466.14,-145.1C478.84,-147.82 492.25,-150.69 505.37,-153.49"/>
<polygon fill="#63b8ff" stroke="#63b8ff" points="504.31,-156.84 514.82,-155.51 505.77,-150 504.31,-156.84"/>
</a>
</g>
</g>
<!-- Node3&#45;&gt;Node5 -->
<g id="edge4_Node000003_Node000005" class="edge">
<title>Node3&#45;&gt;Node5</title>
<g id="a_edge4_Node000003_Node000005"><a xlink:title=" ">
<path fill="none" stroke="#63b8ff" d="M466.14,-129.47C481.39,-129.23 497.66,-128.97 513.22,-128.73"/>
<polygon fill="#63b8ff" stroke="#63b8ff" points="512.94,-132.24 522.88,-128.58 512.83,-125.24 512.94,-132.24"/>
</a>
</g>
</g>
<!-- Node3&#45;&gt;Node6 -->
<g id="edge5_Node000003_Node000006" class="edge">
<title>Node3&#45;&gt;Node6</title>
<g id="a_edge5_Node000003_Node000006"><a xlink:title=" ">
<path fill="none" stroke="#63b8ff" d="M466.14,-115.25C488.23,-110.3 512.45,-104.87 533.57,-100.13"/>
<polygon fill="#63b8ff" stroke="#63b8ff" points="534.15,-103.59 543.14,-97.99 532.61,-96.76 534.15,-103.59"/>
</a>
</g>
</g>
<!-- Node7&#45;&gt;Node4 -->
<g id="edge7_Node000007_Node000004" class="edge">
<title>Node7&#45;&gt;Node4</title>
<g id="a_edge7_Node000007_Node000004"><a xlink:title=" ">
<path fill="none" stroke="#63b8ff" d="M419.72,-60.19C435.88,-72.21 458.18,-89.57 476.25,-106.53 493.68,-122.91 492.18,-133.53 512.25,-146.53 514.64,-148.08 517.13,-149.54 519.69,-150.91"/>
<polygon fill="#63b8ff" stroke="#63b8ff" points="517.98,-153.97 528.51,-155.15 521.01,-147.66 517.98,-153.97"/>
</a>
</g>
</g>
<!-- Node7&#45;&gt;Node5 -->
<g id="edge9_Node000007_Node000005" class="edge">
<title>Node7&#45;&gt;Node5</title>
<g id="a_edge9_Node000007_Node000005"><a xlink:title=" ">
<path fill="none" stroke="#63b8ff" d="M449.02,-60.17C458.38,-63.94 467.84,-68.4 476.25,-73.53 494.77,-84.85 493.24,-96.06 512.25,-106.53 517.24,-109.28 522.6,-111.68 528.1,-113.78"/>
<polygon fill="#63b8ff" stroke="#63b8ff" points="526.75,-117.02 537.34,-116.97 529.03,-110.4 526.75,-117.02"/>
</a>
</g>
</g>
<!-- Node7&#45;&gt;Node6 -->
<g id="edge10_Node000007_Node000006" class="edge">
<title>Node7&#45;&gt;Node6</title>
<g id="a_edge10_Node000007_Node000006"><a xlink:title=" ">
<path fill="none" stroke="#63b8ff" d="M468.04,-60.24C489.61,-65.08 513.07,-70.34 533.59,-74.94"/>
<polygon fill="#63b8ff" stroke="#63b8ff" points="532.65,-78.32 543.17,-77.09 534.18,-71.49 532.65,-78.32"/>
</a>
</g>
</g>
<!-- Node8 -->
<g id="Node000008" class="node">
<title>Node8</title>
<g id="a_Node000008"><a xlink:href="class_nuki_1_1_nuki_ble.html#a25207bb564a4b54b8dd8c872177b53a7" target="_top" xlink:title="Returns if BLE is pairing/paired/connected with a Smart Lock Ultra.">
<polygon fill="white" stroke="#666666" points="655.75,-54.16 525.75,-54.16 525.75,-34.91 655.75,-34.91 655.75,-54.16"/>
<text text-anchor="middle" x="590.75" y="-40.66" font-family="Helvetica,sans-Serif" font-size="10.00">Nuki::NukiBle::isLockUltra</text>
</a>
</g>
</g>
<!-- Node7&#45;&gt;Node8 -->
<g id="edge8_Node000007_Node000008" class="edge">
<title>Node7&#45;&gt;Node8</title>
<g id="a_edge8_Node000007_Node000008"><a xlink:title=" ">
<path fill="none" stroke="#63b8ff" d="M469.13,-44.53C483.82,-44.53 499.35,-44.53 514.19,-44.53"/>
<polygon fill="#63b8ff" stroke="#63b8ff" points="513.87,-48.03 523.87,-44.53 513.87,-41.03 513.87,-48.03"/>
</a>
</g>
</g>
<!-- Node9&#45;&gt;Node4 -->
<g id="edge12_Node000009_Node000004" class="edge">
<title>Node9&#45;&gt;Node4</title>
<g id="a_edge12_Node000009_Node000004"><a xlink:title=" ">
<path fill="none" stroke="#63b8ff" d="M476.55,-172.71C484.49,-172.63 492.6,-172.55 500.64,-172.46"/>
<polygon fill="#63b8ff" stroke="#63b8ff" points="500.47,-175.96 510.43,-172.36 500.4,-168.97 500.47,-175.96"/>
</a>
</g>
</g>
<!-- Node9&#45;&gt;Node5 -->
<g id="edge13_Node000009_Node000005" class="edge">
<title>Node9&#45;&gt;Node5</title>
<g id="a_edge13_Node000009_Node000005"><a xlink:title=" ">
<path fill="none" stroke="#63b8ff" d="M440.08,-163.44C468.55,-156.61 506.39,-147.53 536.89,-140.21"/>
<polygon fill="#63b8ff" stroke="#63b8ff" points="537.39,-143.69 546.3,-137.96 535.76,-136.89 537.39,-143.69"/>
</a>
</g>
</g>
<!-- Node9&#45;&gt;Node6 -->
<g id="edge14_Node000009_Node000006" class="edge">
<title>Node9&#45;&gt;Node6</title>
<g id="a_edge14_Node000009_Node000006"><a xlink:title=" ">
<path fill="none" stroke="#63b8ff" d="M457.86,-163.49C464.33,-161.11 470.61,-158.17 476.25,-154.53 498.07,-140.47 490.62,-122.88 512.25,-108.53 516,-106.05 520.03,-103.85 524.22,-101.92"/>
<polygon fill="#63b8ff" stroke="#63b8ff" points="525.51,-105.17 533.47,-98.19 522.89,-98.68 525.51,-105.17"/>
</a>
</g>
</g>
</g>
</svg>
