<?xml version="1.0" encoding="UTF-8" standalone="no"?>
<!DOCTYPE svg PUBLIC "-//W3C//DTD SVG 1.1//EN"
 "http://www.w3.org/Graphics/SVG/1.1/DTD/svg11.dtd">
<!-- Generated by graphviz version 12.2.1 (20241206.2353)
 -->
<!-- Title: NukiOpener::NukiOpener Pages: 1 -->
<svg width="246pt" height="138pt"
 viewBox="0.00 0.00 245.75 137.75" xmlns="http://www.w3.org/2000/svg" xmlns:xlink="http://www.w3.org/1999/xlink">
<g id="graph0" class="graph" transform="scale(1 1) rotate(0) translate(4 133.75)">
<title>NukiOpener::NukiOpener</title>
<!-- Node1 -->
<g id="Node000001" class="node">
<title>Node1</title>
<g id="a_Node000001"><a xlink:title=" ">
<polygon fill="#999999" stroke="#666666" points="177.12,-19.25 53.12,-19.25 53.12,0 177.12,0 177.12,-19.25"/>
<text text-anchor="middle" x="115.12" y="-5.75" font-family="Helvetica,sans-Serif" font-size="10.00">NukiOpener::NukiOpener</text>
</a>
</g>
</g>
<!-- Node2 -->
<g id="Node000002" class="node">
<title>Node2</title>
<g id="a_Node000002"><a xlink:href="class_nuki_1_1_nuki_ble.html" target="_top" xlink:title=" ">
<polygon fill="white" stroke="#666666" points="152.75,-74.5 77.5,-74.5 77.5,-55.25 152.75,-55.25 152.75,-74.5"/>
<text text-anchor="middle" x="115.12" y="-61" font-family="Helvetica,sans-Serif" font-size="10.00">Nuki::NukiBle</text>
</a>
</g>
</g>
<!-- Node2&#45;&gt;Node1 -->
<g id="edge1_Node000001_Node000002" class="edge">
<title>Node2&#45;&gt;Node1</title>
<g id="a_edge1_Node000001_Node000002"><a xlink:title=" ">
<path fill="none" stroke="#63b8ff" d="M115.12,-43.63C115.12,-35.34 115.12,-26.17 115.12,-19.61"/>
<polygon fill="#63b8ff" stroke="#63b8ff" points="111.63,-43.57 115.13,-53.57 118.63,-43.57 111.63,-43.57"/>
</a>
</g>
</g>
<!-- Node3 -->
<g id="Node000003" class="node">
<title>Node3</title>
<g id="a_Node000003"><a xlink:title=" ">
<polygon fill="white" stroke="#666666" points="102.25,-129.75 0,-129.75 0,-110.5 102.25,-110.5 102.25,-129.75"/>
<text text-anchor="middle" x="51.12" y="-116.25" font-family="Helvetica,sans-Serif" font-size="10.00">BLEClientCallbacks</text>
</a>
</g>
</g>
<!-- Node3&#45;&gt;Node2 -->
<g id="edge2_Node000002_Node000003" class="edge">
<title>Node3&#45;&gt;Node2</title>
<g id="a_edge2_Node000002_Node000003"><a xlink:title=" ">
<path fill="none" stroke="#63b8ff" d="M70.61,-102.91C81.72,-93.67 95.23,-82.43 104.43,-74.77"/>
<polygon fill="#63b8ff" stroke="#63b8ff" points="68.59,-100.04 63.15,-109.12 73.07,-105.42 68.59,-100.04"/>
</a>
</g>
</g>
<!-- Node4 -->
<g id="Node000004" class="node">
<title>Node4</title>
<g id="a_Node000004"><a xlink:title=" ">
<polygon fill="white" stroke="#666666" points="237.75,-129.75 120.5,-129.75 120.5,-110.5 237.75,-110.5 237.75,-129.75"/>
<text text-anchor="middle" x="179.12" y="-116.25" font-family="Helvetica,sans-Serif" font-size="10.00">BleScanner::Subscriber</text>
</a>
</g>
</g>
<!-- Node4&#45;&gt;Node2 -->
<g id="edge3_Node000002_Node000004" class="edge">
<title>Node4&#45;&gt;Node2</title>
<g id="a_edge3_Node000002_Node000004"><a xlink:title=" ">
<path fill="none" stroke="#63b8ff" d="M159.64,-102.91C148.53,-93.67 135.02,-82.43 125.82,-74.77"/>
<polygon fill="#63b8ff" stroke="#63b8ff" points="157.18,-105.42 167.1,-109.12 161.66,-100.04 157.18,-105.42"/>
</a>
</g>
</g>
</g>
</svg>
