<?xml version="1.0" encoding="UTF-8" standalone="no"?>
<!DOCTYPE svg PUBLIC "-//W3C//DTD SVG 1.1//EN"
 "http://www.w3.org/Graphics/SVG/1.1/DTD/svg11.dtd">
<!-- Generated by graphviz version 5.0.1 (20220820.1526)
 -->
<!-- Title: NukiOpener::NukiOpener::handleReturnMessage Pages: 1 -->
<svg width="591pt" height="291pt"
 viewBox="0.00 0.00 591.00 290.50" xmlns="http://www.w3.org/2000/svg" xmlns:xlink="http://www.w3.org/1999/xlink">
<g id="graph0" class="graph" transform="scale(1 1) rotate(0) translate(4 286.5)">
<title>NukiOpener::NukiOpener::handleReturnMessage</title>
<!-- Node1 -->
<g id="node1" class="node">
<title>Node1</title>
<g id="a_node1"><a xlink:title=" ">
<polygon fill="#999999" stroke="#666666" points="153,-158.5 0,-158.5 0,-124.5 153,-124.5 153,-158.5"/>
<text text-anchor="start" x="8" y="-144.9" font-family="Helvetica,sans-Serif" font-size="12.00">NukiOpener::NukiOpener</text>
<text text-anchor="middle" x="76.5" y="-131.9" font-family="Helvetica,sans-Serif" font-size="12.00">::handleReturnMessage</text>
</a>
</g>
</g>
<!-- Node2 -->
<g id="node2" class="node">
<title>Node2</title>
<g id="a_node2"><a xlink:href="class_nuki_1_1_nuki_ble.html#ac2e28f07ed0a738f73c5f77b46cdb1bb" target="_top" xlink:title=" ">
<polygon fill="white" stroke="#666666" points="368,-282.5 201,-282.5 201,-248.5 368,-248.5 368,-282.5"/>
<text text-anchor="start" x="209" y="-268.9" font-family="Helvetica,sans-Serif" font-size="12.00">Nuki::NukiBle::handleReturn</text>
<text text-anchor="middle" x="284.5" y="-255.9" font-family="Helvetica,sans-Serif" font-size="12.00">Message</text>
</a>
</g>
</g>
<!-- Node1&#45;&gt;Node2 -->
<g id="edge1" class="edge">
<title>Node1&#45;&gt;Node2</title>
<path fill="none" stroke="#63b8ff" d="M92.34,-158.67C112.21,-180.59 149.53,-218.21 189,-239.5 192.44,-241.36 196.02,-243.09 199.7,-244.7"/>
<polygon fill="#63b8ff" stroke="#63b8ff" points="198.4,-247.95 208.98,-248.48 201.04,-241.47 198.4,-247.95"/>
</g>
<!-- Node3 -->
<g id="node3" class="node">
<title>Node3</title>
<g id="a_node3"><a xlink:href="namespace_nuki_opener.html#a5df6b087b417e58c5c7a085a7f97fa63" target="_top" xlink:title=" ">
<polygon fill="white" stroke="#666666" points="380,-230 189,-230 189,-209 380,-209 380,-230"/>
<text text-anchor="middle" x="284.5" y="-216.4" font-family="Helvetica,sans-Serif" font-size="12.00">NukiOpener::logAdvancedConfig</text>
</a>
</g>
</g>
<!-- Node1&#45;&gt;Node3 -->
<g id="edge2" class="edge">
<title>Node1&#45;&gt;Node3</title>
<path fill="none" stroke="#63b8ff" d="M104.44,-158.6C126.41,-171.84 158.68,-189.69 189,-200.5 195.25,-202.73 201.83,-204.72 208.48,-206.5"/>
<polygon fill="#63b8ff" stroke="#63b8ff" points="207.71,-209.92 218.27,-208.95 209.42,-203.13 207.71,-209.92"/>
</g>
<!-- Node4 -->
<g id="node4" class="node">
<title>Node4</title>
<g id="a_node4"><a xlink:href="namespace_nuki_opener.html#a92b38c2119f39bf1c525b70cb49d3232" target="_top" xlink:title=" ">
<polygon fill="white" stroke="#666666" points="372.5,-191 196.5,-191 196.5,-170 372.5,-170 372.5,-191"/>
<text text-anchor="middle" x="284.5" y="-177.4" font-family="Helvetica,sans-Serif" font-size="12.00">NukiOpener::logBatteryReport</text>
</a>
</g>
</g>
<!-- Node1&#45;&gt;Node4 -->
<g id="edge3" class="edge">
<title>Node1&#45;&gt;Node4</title>
<path fill="none" stroke="#63b8ff" d="M153.04,-155.8C174.35,-159.84 197.36,-164.19 218.03,-168.11"/>
<polygon fill="#63b8ff" stroke="#63b8ff" points="217.5,-171.57 227.97,-169.99 218.8,-164.69 217.5,-171.57"/>
</g>
<!-- Node5 -->
<g id="node5" class="node">
<title>Node5</title>
<g id="a_node5"><a xlink:href="namespace_nuki_opener.html#a01fb60e0e360c42ad366aef691d5a390" target="_top" xlink:title=" ">
<polygon fill="white" stroke="#666666" points="353,-152 216,-152 216,-131 353,-131 353,-152"/>
<text text-anchor="middle" x="284.5" y="-138.4" font-family="Helvetica,sans-Serif" font-size="12.00">NukiOpener::logConfig</text>
</a>
</g>
</g>
<!-- Node1&#45;&gt;Node5 -->
<g id="edge4" class="edge">
<title>Node1&#45;&gt;Node5</title>
<path fill="none" stroke="#63b8ff" d="M153.04,-141.5C170.22,-141.5 188.5,-141.5 205.77,-141.5"/>
<polygon fill="#63b8ff" stroke="#63b8ff" points="205.81,-145 215.81,-141.5 205.81,-138 205.81,-145"/>
</g>
<!-- Node6 -->
<g id="node6" class="node">
<title>Node6</title>
<g id="a_node6"><a xlink:href="namespace_nuki_opener.html#ad694b05ff6125ebf77e067be3002d075" target="_top" xlink:title=" ">
<polygon fill="white" stroke="#666666" points="362,-73.5 207,-73.5 207,-39.5 362,-39.5 362,-73.5"/>
<text text-anchor="start" x="215" y="-59.9" font-family="Helvetica,sans-Serif" font-size="12.00">NukiOpener::logKeyturner</text>
<text text-anchor="middle" x="284.5" y="-46.9" font-family="Helvetica,sans-Serif" font-size="12.00">State</text>
</a>
</g>
</g>
<!-- Node1&#45;&gt;Node6 -->
<g id="edge5" class="edge">
<title>Node1&#45;&gt;Node6</title>
<path fill="none" stroke="#63b8ff" d="M106.55,-124.32C128.62,-111.79 160.01,-95.04 189,-83.5 194.93,-81.14 201.14,-78.89 207.43,-76.77"/>
<polygon fill="#63b8ff" stroke="#63b8ff" points="208.92,-79.97 217.35,-73.56 206.76,-73.31 208.92,-79.97"/>
</g>
<!-- Node10 -->
<g id="node10" class="node">
<title>Node10</title>
<g id="a_node10"><a xlink:href="namespace_nuki_opener.html#a1c24f78474980cc2d90ee83e371621c4" target="_top" xlink:title=" ">
<polygon fill="white" stroke="#666666" points="360,-113 209,-113 209,-92 360,-92 360,-113"/>
<text text-anchor="middle" x="284.5" y="-99.4" font-family="Helvetica,sans-Serif" font-size="12.00">NukiOpener::logLogEntry</text>
</a>
</g>
</g>
<!-- Node1&#45;&gt;Node10 -->
<g id="edge9" class="edge">
<title>Node1&#45;&gt;Node10</title>
<path fill="none" stroke="#63b8ff" d="M153.04,-127.2C174.35,-123.16 197.36,-118.81 218.03,-114.89"/>
<polygon fill="#63b8ff" stroke="#63b8ff" points="218.8,-118.31 227.97,-113.01 217.5,-111.43 218.8,-118.31"/>
</g>
<!-- Node11 -->
<g id="node11" class="node">
<title>Node11</title>
<g id="a_node11"><a xlink:href="namespace_nuki.html#a280e19d4682ca4b35d3fe64001da816a" target="_top" xlink:title=" ">
<polygon fill="white" stroke="#666666" points="335.5,-21 233.5,-21 233.5,0 335.5,0 335.5,-21"/>
<text text-anchor="middle" x="284.5" y="-7.4" font-family="Helvetica,sans-Serif" font-size="12.00">Nuki::printBuffer</text>
</a>
</g>
</g>
<!-- Node1&#45;&gt;Node11 -->
<g id="edge12" class="edge">
<title>Node1&#45;&gt;Node11</title>
<path fill="none" stroke="#63b8ff" d="M89.71,-124.14C108.2,-99.27 145.76,-53.89 189,-30.5 199.49,-24.83 211.44,-20.76 223.23,-17.85"/>
<polygon fill="#63b8ff" stroke="#63b8ff" points="224.06,-21.25 233.06,-15.67 222.54,-14.42 224.06,-21.25"/>
</g>
<!-- Node7 -->
<g id="node7" class="node">
<title>Node7</title>
<g id="a_node7"><a xlink:href="namespace_nuki_opener.html#a84631e75b3f180ead51e1a292fcee637" target="_top" xlink:title=" ">
<polygon fill="white" stroke="#666666" points="581.5,-73.5 417.5,-73.5 417.5,-39.5 581.5,-39.5 581.5,-73.5"/>
<text text-anchor="start" x="425.5" y="-59.9" font-family="Helvetica,sans-Serif" font-size="12.00">NukiOpener::logCompletion</text>
<text text-anchor="middle" x="499.5" y="-46.9" font-family="Helvetica,sans-Serif" font-size="12.00">Status</text>
</a>
</g>
</g>
<!-- Node6&#45;&gt;Node7 -->
<g id="edge6" class="edge">
<title>Node6&#45;&gt;Node7</title>
<path fill="none" stroke="#63b8ff" d="M362.1,-56.5C376.63,-56.5 391.98,-56.5 406.92,-56.5"/>
<polygon fill="#63b8ff" stroke="#63b8ff" points="407.19,-60 417.19,-56.5 407.19,-53 407.19,-60"/>
</g>
<!-- Node8 -->
<g id="node8" class="node">
<title>Node8</title>
<g id="a_node8"><a xlink:href="namespace_nuki_opener.html#ab25308954cb451d83358353032200422" target="_top" xlink:title=" ">
<polygon fill="white" stroke="#666666" points="581,-113 418,-113 418,-92 581,-92 581,-113"/>
<text text-anchor="middle" x="499.5" y="-99.4" font-family="Helvetica,sans-Serif" font-size="12.00">NukiOpener::logLockAction</text>
</a>
</g>
</g>
<!-- Node6&#45;&gt;Node8 -->
<g id="edge7" class="edge">
<title>Node6&#45;&gt;Node8</title>
<path fill="none" stroke="#63b8ff" d="M362.1,-73.04C387.66,-78.56 415.74,-84.63 439.73,-89.81"/>
<polygon fill="#63b8ff" stroke="#63b8ff" points="439.23,-93.28 449.74,-91.97 440.71,-86.44 439.23,-93.28"/>
</g>
<!-- Node9 -->
<g id="node9" class="node">
<title>Node9</title>
<g id="a_node9"><a xlink:href="namespace_nuki_opener.html#a9915ff097023a69e5792e791336bfcd6" target="_top" xlink:title=" ">
<polygon fill="white" stroke="#666666" points="583,-21 416,-21 416,0 583,0 583,-21"/>
<text text-anchor="middle" x="499.5" y="-7.4" font-family="Helvetica,sans-Serif" font-size="12.00">NukiOpener::logNukiTrigger</text>
</a>
</g>
</g>
<!-- Node6&#45;&gt;Node9 -->
<g id="edge8" class="edge">
<title>Node6&#45;&gt;Node9</title>
<path fill="none" stroke="#63b8ff" d="M362.1,-39.96C387.66,-34.44 415.74,-28.37 439.73,-23.19"/>
<polygon fill="#63b8ff" stroke="#63b8ff" points="440.71,-26.56 449.74,-21.03 439.23,-19.72 440.71,-26.56"/>
</g>
<!-- Node10&#45;&gt;Node7 -->
<g id="edge10" class="edge">
<title>Node10&#45;&gt;Node7</title>
<path fill="none" stroke="#63b8ff" d="M335.54,-91.98C349.9,-88.94 365.57,-85.61 380,-82.5 390.14,-80.31 400.77,-78.01 411.32,-75.71"/>
<polygon fill="#63b8ff" stroke="#63b8ff" points="412.37,-79.06 421.39,-73.51 410.87,-72.22 412.37,-79.06"/>
</g>
<!-- Node10&#45;&gt;Node8 -->
<g id="edge11" class="edge">
<title>Node10&#45;&gt;Node8</title>
<path fill="none" stroke="#63b8ff" d="M360.3,-102.5C375.54,-102.5 391.73,-102.5 407.47,-102.5"/>
<polygon fill="#63b8ff" stroke="#63b8ff" points="407.73,-106 417.73,-102.5 407.73,-99 407.73,-106"/>
</g>
</g>
</svg>
