<?xml version="1.0" encoding="UTF-8" standalone="no"?>
<!DOCTYPE svg PUBLIC "-//W3C//DTD SVG 1.1//EN"
 "http://www.w3.org/Graphics/SVG/1.1/DTD/svg11.dtd">
<!-- Generated by graphviz version 12.2.1 (20241206.2353)
 -->
<!-- Title: NukiLock::NukiLock::requestAdvancedConfig Pages: 1 -->
<svg width="696pt" height="263pt"
 viewBox="0.00 0.00 696.00 263.03" xmlns="http://www.w3.org/2000/svg" xmlns:xlink="http://www.w3.org/1999/xlink">
<g id="graph0" class="graph" transform="scale(1 1) rotate(0) translate(4 259.03)">
<title>NukiLock::NukiLock::requestAdvancedConfig</title>
<!-- Node1 -->
<g id="Node000001" class="node">
<title>Node1</title>
<g id="a_Node000001"><a xlink:title="Requests advanced config from Lock via BLE.">
<polygon fill="#999999" stroke="#666666" points="123.25,-148.88 0,-148.88 0,-118.38 123.25,-118.38 123.25,-148.88"/>
<text text-anchor="start" x="8" y="-135.38" font-family="Helvetica,sans-Serif" font-size="10.00">NukiLock::NukiLock</text>
<text text-anchor="middle" x="61.62" y="-124.12" font-family="Helvetica,sans-Serif" font-size="10.00">::requestAdvancedConfig</text>
</a>
</g>
</g>
<!-- Node2 -->
<g id="Node000002" class="node">
<title>Node2</title>
<g id="a_Node000002"><a xlink:href="class_nuki_1_1_nuki_ble.html#af1f1e299e8d97e053bba80e92ba285d6" target="_top" xlink:title=" ">
<polygon fill="white" stroke="#666666" points="300.5,-143.25 159.25,-143.25 159.25,-124 300.5,-124 300.5,-143.25"/>
<text text-anchor="middle" x="229.88" y="-129.75" font-family="Helvetica,sans-Serif" font-size="10.00">Nuki::NukiBle::executeAction</text>
</a>
</g>
</g>
<!-- Node1&#45;&gt;Node2 -->
<g id="edge1_Node000001_Node000002" class="edge">
<title>Node1&#45;&gt;Node2</title>
<g id="a_edge1_Node000001_Node000002"><a xlink:title=" ">
<path fill="none" stroke="#63b8ff" d="M123.59,-133.62C131.4,-133.62 139.49,-133.62 147.56,-133.62"/>
<polygon fill="#63b8ff" stroke="#63b8ff" points="147.41,-137.13 157.41,-133.63 147.41,-130.13 147.41,-137.13"/>
</a>
</g>
</g>
<!-- Node3 -->
<g id="Node000003" class="node">
<title>Node3</title>
<g id="a_Node000003"><a xlink:href="class_nuki_1_1_nuki_ble.html#ada0f3beebd95d35c122e25dd3f9eb886" target="_top" xlink:title=" ">
<polygon fill="white" stroke="#666666" points="484.5,-191.88 347,-191.88 347,-161.38 484.5,-161.38 484.5,-191.88"/>
<text text-anchor="start" x="355" y="-178.38" font-family="Helvetica,sans-Serif" font-size="10.00">Nuki::NukiBle::cmdChallAcc</text>
<text text-anchor="middle" x="415.75" y="-167.12" font-family="Helvetica,sans-Serif" font-size="10.00">StateMachine</text>
</a>
</g>
</g>
<!-- Node2&#45;&gt;Node3 -->
<g id="edge2_Node000002_Node000003" class="edge">
<title>Node2&#45;&gt;Node3</title>
<g id="a_edge2_Node000002_Node000003"><a xlink:title=" ">
<path fill="none" stroke="#63b8ff" d="M273.99,-143.71C292.61,-148.06 314.99,-153.3 336.38,-158.3"/>
<polygon fill="#63b8ff" stroke="#63b8ff" points="335.43,-161.67 345.97,-160.54 337.03,-154.85 335.43,-161.67"/>
</a>
</g>
</g>
<!-- Node4 -->
<g id="Node000004" class="node">
<title>Node4</title>
<g id="a_Node000004"><a xlink:href="class_nuki_1_1_nuki_ble.html#a6e8fca90c04249660dce6cb993eb4495" target="_top" xlink:title=" ">
<polygon fill="white" stroke="#666666" points="688,-189.88 531,-189.88 531,-159.38 688,-159.38 688,-189.88"/>
<text text-anchor="start" x="539" y="-176.38" font-family="Helvetica,sans-Serif" font-size="10.00">Nuki::NukiBle::extendDisconnect</text>
<text text-anchor="middle" x="609.5" y="-165.12" font-family="Helvetica,sans-Serif" font-size="10.00">Timeout</text>
</a>
</g>
</g>
<!-- Node2&#45;&gt;Node4 -->
<g id="edge15_Node000002_Node000004" class="edge">
<title>Node2&#45;&gt;Node4</title>
<g id="a_edge15_Node000002_Node000004"><a xlink:title=" ">
<path fill="none" stroke="#63b8ff" d="M300.9,-136.38C354.27,-139.03 429.48,-143.95 495,-152.62 504.15,-153.84 513.68,-155.32 523.15,-156.95"/>
<polygon fill="#63b8ff" stroke="#63b8ff" points="522.28,-160.35 532.73,-158.64 523.5,-153.45 522.28,-160.35"/>
</a>
</g>
</g>
<!-- Node5 -->
<g id="Node000005" class="node">
<title>Node5</title>
<g id="a_Node000005"><a xlink:href="class_nuki_1_1_nuki_ble.html#ac7ce691d9c3e586474655d1663eb2e20" target="_top" xlink:title=" ">
<polygon fill="white" stroke="#666666" points="675.62,-228.25 543.38,-228.25 543.38,-209 675.62,-209 675.62,-228.25"/>
<text text-anchor="middle" x="609.5" y="-214.75" font-family="Helvetica,sans-Serif" font-size="10.00">Nuki::NukiBle::logMessage</text>
</a>
</g>
</g>
<!-- Node2&#45;&gt;Node5 -->
<g id="edge17_Node000002_Node000005" class="edge">
<title>Node2&#45;&gt;Node5</title>
<g id="a_edge17_Node000002_Node000005"><a xlink:title=" ">
<path fill="none" stroke="#63b8ff" d="M236.96,-143.67C251.12,-165.91 288.69,-218.91 336.5,-238.62 414.35,-270.74 515.31,-248.58 569.7,-232.06"/>
<polygon fill="#63b8ff" stroke="#63b8ff" points="570.64,-235.43 579.13,-229.09 568.54,-228.75 570.64,-235.43"/>
</a>
</g>
</g>
<!-- Node6 -->
<g id="Node000006" class="node">
<title>Node6</title>
<g id="a_Node000006"><a xlink:href="class_nuki_1_1_nuki_ble.html#af3650133f46aeca48a5f01b95d23ab71" target="_top" xlink:title=" ">
<polygon fill="white" stroke="#666666" points="683.12,-140.25 535.88,-140.25 535.88,-121 683.12,-121 683.12,-140.25"/>
<text text-anchor="middle" x="609.5" y="-126.75" font-family="Helvetica,sans-Serif" font-size="10.00">Nuki::NukiBle::logMessageVar</text>
</a>
</g>
</g>
<!-- Node2&#45;&gt;Node6 -->
<g id="edge18_Node000002_Node000006" class="edge">
<title>Node2&#45;&gt;Node6</title>
<g id="a_edge18_Node000002_Node000006"><a xlink:title=" ">
<path fill="none" stroke="#63b8ff" d="M241.84,-123.61C259.94,-107.83 297.92,-77.83 336.5,-66.62 404.15,-46.98 431.17,-36.82 495,-66.62 517.58,-77.17 510.01,-96.19 531,-109.62 535.03,-112.2 539.37,-114.47 543.87,-116.46"/>
<polygon fill="#63b8ff" stroke="#63b8ff" points="542.57,-119.71 553.16,-120.06 545.11,-113.18 542.57,-119.71"/>
</a>
</g>
</g>
<!-- Node7 -->
<g id="Node000007" class="node">
<title>Node7</title>
<g id="a_Node000007"><a xlink:href="class_nuki_1_1_nuki_ble.html#a59169a9f492793762e3c6ba39b611b07" target="_top" xlink:title=" ">
<polygon fill="white" stroke="#666666" points="487.5,-105.88 344,-105.88 344,-75.38 487.5,-75.38 487.5,-105.88"/>
<text text-anchor="start" x="352" y="-92.38" font-family="Helvetica,sans-Serif" font-size="10.00">Nuki::NukiBle::cmdChallState</text>
<text text-anchor="middle" x="415.75" y="-81.12" font-family="Helvetica,sans-Serif" font-size="10.00">Machine</text>
</a>
</g>
</g>
<!-- Node2&#45;&gt;Node7 -->
<g id="edge6_Node000002_Node000007" class="edge">
<title>Node2&#45;&gt;Node7</title>
<g id="a_edge6_Node000002_Node000007"><a xlink:title=" ">
<path fill="none" stroke="#63b8ff" d="M273.99,-123.54C292.61,-119.19 314.99,-113.95 336.38,-108.95"/>
<polygon fill="#63b8ff" stroke="#63b8ff" points="337.03,-112.4 345.97,-106.71 335.43,-105.58 337.03,-112.4"/>
</a>
</g>
</g>
<!-- Node9 -->
<g id="Node000009" class="node">
<title>Node9</title>
<g id="a_Node000009"><a xlink:href="class_nuki_1_1_nuki_ble.html#ad135bb1455665decfddff67772c1d411" target="_top" xlink:title=" ">
<polygon fill="white" stroke="#666666" points="495,-229.25 336.5,-229.25 336.5,-210 495,-210 495,-229.25"/>
<text text-anchor="middle" x="415.75" y="-215.75" font-family="Helvetica,sans-Serif" font-size="10.00">Nuki::NukiBle::cmdStateMachine</text>
</a>
</g>
</g>
<!-- Node2&#45;&gt;Node9 -->
<g id="edge11_Node000002_Node000009" class="edge">
<title>Node2&#45;&gt;Node9</title>
<g id="a_edge11_Node000002_Node000009"><a xlink:title=" ">
<path fill="none" stroke="#63b8ff" d="M243.45,-143.55C262.5,-158.13 300.32,-185.26 336.5,-200.62 341.47,-202.73 346.71,-204.64 352.04,-206.35"/>
<polygon fill="#63b8ff" stroke="#63b8ff" points="351.01,-209.7 361.59,-209.18 352.99,-202.99 351.01,-209.7"/>
</a>
</g>
</g>
<!-- Node10 -->
<g id="Node000010" class="node">
<title>Node10</title>
<g id="a_Node000010"><a xlink:href="class_nuki_1_1_nuki_ble.html#a050f54fbfcea03dc5238e8c66a7e89ca" target="_top" xlink:title="Returns pairing state (if credentials are stored or not)">
<polygon fill="white" stroke="#666666" points="493.88,-19.25 337.62,-19.25 337.62,0 493.88,0 493.88,-19.25"/>
<text text-anchor="middle" x="415.75" y="-5.75" font-family="Helvetica,sans-Serif" font-size="10.00">Nuki::NukiBle::isPairedWithLock</text>
</a>
</g>
</g>
<!-- Node2&#45;&gt;Node10 -->
<g id="edge16_Node000002_Node000010" class="edge">
<title>Node2&#45;&gt;Node10</title>
<g id="a_edge16_Node000002_Node000010"><a xlink:title=" ">
<path fill="none" stroke="#63b8ff" d="M238.76,-123.52C254.94,-103.47 293.96,-58.43 336.5,-33.62 343.34,-29.64 350.91,-26.25 358.57,-23.38"/>
<polygon fill="#63b8ff" stroke="#63b8ff" points="359.63,-26.72 367.96,-20.17 357.37,-20.1 359.63,-26.72"/>
</a>
</g>
</g>
<!-- Node3&#45;&gt;Node4 -->
<g id="edge3_Node000003_Node000004" class="edge">
<title>Node3&#45;&gt;Node4</title>
<g id="a_edge3_Node000003_Node000004"><a xlink:title=" ">
<path fill="none" stroke="#63b8ff" d="M484.89,-175.91C496.04,-175.8 507.72,-175.68 519.28,-175.56"/>
<polygon fill="#63b8ff" stroke="#63b8ff" points="519.3,-179.06 529.26,-175.45 519.22,-172.06 519.3,-179.06"/>
</a>
</g>
</g>
<!-- Node3&#45;&gt;Node5 -->
<g id="edge4_Node000003_Node000005" class="edge">
<title>Node3&#45;&gt;Node5</title>
<g id="a_edge4_Node000003_Node000005"><a xlink:title=" ">
<path fill="none" stroke="#63b8ff" d="M484.89,-191.55C506.7,-196.33 530.6,-201.56 551.53,-206.15"/>
<polygon fill="#63b8ff" stroke="#63b8ff" points="550.5,-209.5 561.01,-208.22 551.99,-202.67 550.5,-209.5"/>
</a>
</g>
</g>
<!-- Node3&#45;&gt;Node6 -->
<g id="edge5_Node000003_Node000006" class="edge">
<title>Node3&#45;&gt;Node6</title>
<g id="a_edge5_Node000003_Node000006"><a xlink:title=" ">
<path fill="none" stroke="#63b8ff" d="M482.2,-160.92C506.06,-155.2 532.71,-148.81 555.36,-143.37"/>
<polygon fill="#63b8ff" stroke="#63b8ff" points="556.09,-146.8 565,-141.06 554.46,-139.99 556.09,-146.8"/>
</a>
</g>
</g>
<!-- Node7&#45;&gt;Node4 -->
<g id="edge7_Node000007_Node000004" class="edge">
<title>Node7&#45;&gt;Node4</title>
<g id="a_edge7_Node000007_Node000004"><a xlink:title=" ">
<path fill="none" stroke="#63b8ff" d="M466.75,-106.26C476.4,-110.07 486.22,-114.54 495,-119.62 513.02,-130.06 512.76,-139.58 531,-149.62 534.16,-151.36 537.46,-153 540.83,-154.55"/>
<polygon fill="#63b8ff" stroke="#63b8ff" points="539.18,-157.65 549.76,-158.31 541.9,-151.2 539.18,-157.65"/>
</a>
</g>
</g>
<!-- Node7&#45;&gt;Node5 -->
<g id="edge9_Node000007_Node000005" class="edge">
<title>Node7&#45;&gt;Node5</title>
<g id="a_edge9_Node000007_Node000005"><a xlink:title=" ">
<path fill="none" stroke="#63b8ff" d="M439.16,-106.17C455.47,-118 477.65,-135.17 495,-152.62 513.3,-171.04 509.28,-184.41 531,-198.62 534.24,-200.74 537.69,-202.64 541.26,-204.33"/>
<polygon fill="#63b8ff" stroke="#63b8ff" points="539.64,-207.45 550.22,-208.02 542.3,-200.98 539.64,-207.45"/>
</a>
</g>
</g>
<!-- Node7&#45;&gt;Node6 -->
<g id="edge10_Node000007_Node000006" class="edge">
<title>Node7&#45;&gt;Node6</title>
<g id="a_edge10_Node000007_Node000006"><a xlink:title=" ">
<path fill="none" stroke="#63b8ff" d="M487.88,-105.46C508.01,-109.66 529.71,-114.19 549.08,-118.23"/>
<polygon fill="#63b8ff" stroke="#63b8ff" points="548.2,-121.62 558.7,-120.24 549.63,-114.77 548.2,-121.62"/>
</a>
</g>
</g>
<!-- Node8 -->
<g id="Node000008" class="node">
<title>Node8</title>
<g id="a_Node000008"><a xlink:href="class_nuki_1_1_nuki_ble.html#a25207bb564a4b54b8dd8c872177b53a7" target="_top" xlink:title="Returns if BLE is pairing/paired/connected with a Smart Lock Ultra.">
<polygon fill="white" stroke="#666666" points="674.5,-100.25 544.5,-100.25 544.5,-81 674.5,-81 674.5,-100.25"/>
<text text-anchor="middle" x="609.5" y="-86.75" font-family="Helvetica,sans-Serif" font-size="10.00">Nuki::NukiBle::isLockUltra</text>
</a>
</g>
</g>
<!-- Node7&#45;&gt;Node8 -->
<g id="edge8_Node000007_Node000008" class="edge">
<title>Node7&#45;&gt;Node8</title>
<g id="a_edge8_Node000007_Node000008"><a xlink:title=" ">
<path fill="none" stroke="#63b8ff" d="M487.88,-90.62C502.57,-90.62 518.1,-90.62 532.94,-90.62"/>
<polygon fill="#63b8ff" stroke="#63b8ff" points="532.62,-94.13 542.62,-90.63 532.62,-87.13 532.62,-94.13"/>
</a>
</g>
</g>
<!-- Node9&#45;&gt;Node4 -->
<g id="edge12_Node000009_Node000004" class="edge">
<title>Node9&#45;&gt;Node4</title>
<g id="a_edge12_Node000009_Node000004"><a xlink:title=" ">
<path fill="none" stroke="#63b8ff" d="M459.78,-209.53C480.66,-204.63 506.39,-198.59 530.55,-192.92"/>
<polygon fill="#63b8ff" stroke="#63b8ff" points="531.11,-196.38 540.04,-190.69 529.51,-189.57 531.11,-196.38"/>
</a>
</g>
</g>
<!-- Node9&#45;&gt;Node5 -->
<g id="edge13_Node000009_Node000005" class="edge">
<title>Node9&#45;&gt;Node5</title>
<g id="a_edge13_Node000009_Node000005"><a xlink:title=" ">
<path fill="none" stroke="#63b8ff" d="M495.3,-219.22C507.29,-219.15 519.65,-219.09 531.61,-219.03"/>
<polygon fill="#63b8ff" stroke="#63b8ff" points="531.43,-222.53 541.41,-218.97 531.39,-215.53 531.43,-222.53"/>
</a>
</g>
</g>
<!-- Node9&#45;&gt;Node6 -->
<g id="edge14_Node000009_Node000006" class="edge">
<title>Node9&#45;&gt;Node6</title>
<g id="a_edge14_Node000009_Node000006"><a xlink:title=" ">
<path fill="none" stroke="#63b8ff" d="M477.16,-209.65C483.46,-207.26 489.55,-204.29 495,-200.62 517.72,-185.33 508.39,-166.08 531,-150.62 533.89,-148.65 536.96,-146.87 540.15,-145.27"/>
<polygon fill="#63b8ff" stroke="#63b8ff" points="541.48,-148.5 549.27,-141.32 538.7,-142.08 541.48,-148.5"/>
</a>
</g>
</g>
</g>
</svg>
