<?xml version="1.0" encoding="UTF-8" standalone="no"?>
<!DOCTYPE svg PUBLIC "-//W3C//DTD SVG 1.1//EN"
 "http://www.w3.org/Graphics/SVG/1.1/DTD/svg11.dtd">
<!-- Generated by graphviz version 12.2.1 (20241206.2353)
 -->
<!-- Title: NukiLock::NukiLock::setAutoLockTimeOut Pages: 1 -->
<svg width="846pt" height="215pt"
 viewBox="0.00 0.00 845.50 214.53" xmlns="http://www.w3.org/2000/svg" xmlns:xlink="http://www.w3.org/1999/xlink">
<g id="graph0" class="graph" transform="scale(1 1) rotate(0) translate(4 210.53)">
<title>NukiLock::NukiLock::setAutoLockTimeOut</title>
<!-- Node1 -->
<g id="Node000001" class="node">
<title>Node1</title>
<g id="a_Node000001"><a xlink:title="Gets the current config from the lock, updates the auto lock timeout parameter and sends the new conf...">
<polygon fill="#999999" stroke="#666666" points="113.5,-123.78 0,-123.78 0,-93.28 113.5,-93.28 113.5,-123.78"/>
<text text-anchor="start" x="8" y="-110.28" font-family="Helvetica,sans-Serif" font-size="10.00">NukiLock::NukiLock</text>
<text text-anchor="middle" x="56.75" y="-99.03" font-family="Helvetica,sans-Serif" font-size="10.00">::setAutoLockTimeOut</text>
</a>
</g>
</g>
<!-- Node2 -->
<g id="Node000002" class="node">
<title>Node2</title>
<g id="a_Node000002"><a xlink:href="class_nuki_lock_1_1_nuki_lock.html#aa882f9b3256313bbd45b4269f8c74521" target="_top" xlink:title="Requests advanced config from Lock via BLE.">
<polygon fill="white" stroke="#666666" points="272.75,-123.78 149.5,-123.78 149.5,-93.28 272.75,-93.28 272.75,-123.78"/>
<text text-anchor="start" x="157.5" y="-110.28" font-family="Helvetica,sans-Serif" font-size="10.00">NukiLock::NukiLock</text>
<text text-anchor="middle" x="211.12" y="-99.03" font-family="Helvetica,sans-Serif" font-size="10.00">::requestAdvancedConfig</text>
</a>
</g>
</g>
<!-- Node1&#45;&gt;Node2 -->
<g id="edge1_Node000001_Node000002" class="edge">
<title>Node1&#45;&gt;Node2</title>
<g id="a_edge1_Node000001_Node000002"><a xlink:title=" ">
<path fill="none" stroke="#63b8ff" d="M113.62,-108.53C121.47,-108.53 129.64,-108.53 137.74,-108.53"/>
<polygon fill="#63b8ff" stroke="#63b8ff" points="137.61,-112.03 147.61,-108.53 137.61,-105.03 137.61,-112.03"/>
</a>
</g>
</g>
<!-- Node3 -->
<g id="Node000003" class="node">
<title>Node3</title>
<g id="a_Node000003"><a xlink:href="class_nuki_1_1_nuki_ble.html#af1f1e299e8d97e053bba80e92ba285d6" target="_top" xlink:title=" ">
<polygon fill="white" stroke="#666666" points="450,-118.16 308.75,-118.16 308.75,-98.91 450,-98.91 450,-118.16"/>
<text text-anchor="middle" x="379.38" y="-104.66" font-family="Helvetica,sans-Serif" font-size="10.00">Nuki::NukiBle::executeAction</text>
</a>
</g>
</g>
<!-- Node2&#45;&gt;Node3 -->
<g id="edge2_Node000002_Node000003" class="edge">
<title>Node2&#45;&gt;Node3</title>
<g id="a_edge2_Node000002_Node000003"><a xlink:title=" ">
<path fill="none" stroke="#63b8ff" d="M273.09,-108.53C280.9,-108.53 288.99,-108.53 297.06,-108.53"/>
<polygon fill="#63b8ff" stroke="#63b8ff" points="296.91,-112.03 306.91,-108.53 296.91,-105.03 296.91,-112.03"/>
</a>
</g>
</g>
<!-- Node4 -->
<g id="Node000004" class="node">
<title>Node4</title>
<g id="a_Node000004"><a xlink:href="class_nuki_1_1_nuki_ble.html#ada0f3beebd95d35c122e25dd3f9eb886" target="_top" xlink:title=" ">
<polygon fill="white" stroke="#666666" points="634,-145.78 496.5,-145.78 496.5,-115.28 634,-115.28 634,-145.78"/>
<text text-anchor="start" x="504.5" y="-132.28" font-family="Helvetica,sans-Serif" font-size="10.00">Nuki::NukiBle::cmdChallAcc</text>
<text text-anchor="middle" x="565.25" y="-121.03" font-family="Helvetica,sans-Serif" font-size="10.00">StateMachine</text>
</a>
</g>
</g>
<!-- Node3&#45;&gt;Node4 -->
<g id="edge3_Node000003_Node000004" class="edge">
<title>Node3&#45;&gt;Node4</title>
<g id="a_edge3_Node000003_Node000004"><a xlink:title=" ">
<path fill="none" stroke="#63b8ff" d="M450.41,-116.91C461.68,-118.26 473.41,-119.66 484.88,-121.04"/>
<polygon fill="#63b8ff" stroke="#63b8ff" points="484.38,-124.5 494.72,-122.21 485.21,-117.55 484.38,-124.5"/>
</a>
</g>
</g>
<!-- Node5 -->
<g id="Node000005" class="node">
<title>Node5</title>
<g id="a_Node000005"><a xlink:href="class_nuki_1_1_nuki_ble.html#a6e8fca90c04249660dce6cb993eb4495" target="_top" xlink:title=" ">
<polygon fill="white" stroke="#666666" points="837.5,-186.78 680.5,-186.78 680.5,-156.28 837.5,-156.28 837.5,-186.78"/>
<text text-anchor="start" x="688.5" y="-173.28" font-family="Helvetica,sans-Serif" font-size="10.00">Nuki::NukiBle::extendDisconnect</text>
<text text-anchor="middle" x="759" y="-162.03" font-family="Helvetica,sans-Serif" font-size="10.00">Timeout</text>
</a>
</g>
</g>
<!-- Node3&#45;&gt;Node5 -->
<g id="edge16_Node000003_Node000005" class="edge">
<title>Node3&#45;&gt;Node5</title>
<g id="a_edge16_Node000003_Node000005"><a xlink:title=" ">
<path fill="none" stroke="#63b8ff" d="M388.66,-118.58C404.95,-137.45 443.31,-177.63 486,-192.53 555.38,-216.76 640.57,-203.9 696.93,-190.02"/>
<polygon fill="#63b8ff" stroke="#63b8ff" points="697.51,-193.48 706.33,-187.61 695.78,-186.7 697.51,-193.48"/>
</a>
</g>
</g>
<!-- Node6 -->
<g id="Node000006" class="node">
<title>Node6</title>
<g id="a_Node000006"><a xlink:href="class_nuki_1_1_nuki_ble.html#ac7ce691d9c3e586474655d1663eb2e20" target="_top" xlink:title=" ">
<polygon fill="white" stroke="#666666" points="825.12,-137.16 692.88,-137.16 692.88,-117.91 825.12,-117.91 825.12,-137.16"/>
<text text-anchor="middle" x="759" y="-123.66" font-family="Helvetica,sans-Serif" font-size="10.00">Nuki::NukiBle::logMessage</text>
</a>
</g>
</g>
<!-- Node3&#45;&gt;Node6 -->
<g id="edge17_Node000003_Node000006" class="edge">
<title>Node3&#45;&gt;Node6</title>
<g id="a_edge17_Node000003_Node000006"><a xlink:title=" ">
<path fill="none" stroke="#63b8ff" d="M450.26,-107.02C462.18,-106.82 474.45,-106.64 486,-106.53 556.44,-105.87 574.35,-100.1 644.5,-106.53 663.59,-108.28 684.26,-111.66 702.66,-115.2"/>
<polygon fill="#63b8ff" stroke="#63b8ff" points="701.82,-118.6 712.31,-117.12 703.18,-111.73 701.82,-118.6"/>
</a>
</g>
</g>
<!-- Node7 -->
<g id="Node000007" class="node">
<title>Node7</title>
<g id="a_Node000007"><a xlink:href="class_nuki_1_1_nuki_ble.html#af3650133f46aeca48a5f01b95d23ab71" target="_top" xlink:title=" ">
<polygon fill="white" stroke="#666666" points="832.62,-97.16 685.38,-97.16 685.38,-77.91 832.62,-77.91 832.62,-97.16"/>
<text text-anchor="middle" x="759" y="-83.66" font-family="Helvetica,sans-Serif" font-size="10.00">Nuki::NukiBle::logMessageVar</text>
</a>
</g>
</g>
<!-- Node3&#45;&gt;Node7 -->
<g id="edge18_Node000003_Node000007" class="edge">
<title>Node3&#45;&gt;Node7</title>
<g id="a_edge18_Node000003_Node000007"><a xlink:title=" ">
<path fill="none" stroke="#63b8ff" d="M388.05,-98.62C403.86,-79.14 442.24,-36.37 486,-20.53 552.24,3.44 580.67,9.27 644.5,-20.53 667.08,-31.08 659.75,-49.73 680.5,-63.53 686.35,-67.42 692.86,-70.71 699.55,-73.48"/>
<polygon fill="#63b8ff" stroke="#63b8ff" points="698.14,-76.69 708.74,-76.89 700.58,-70.13 698.14,-76.69"/>
</a>
</g>
</g>
<!-- Node8 -->
<g id="Node000008" class="node">
<title>Node8</title>
<g id="a_Node000008"><a xlink:href="class_nuki_1_1_nuki_ble.html#a59169a9f492793762e3c6ba39b611b07" target="_top" xlink:title=" ">
<polygon fill="white" stroke="#666666" points="637,-59.78 493.5,-59.78 493.5,-29.28 637,-29.28 637,-59.78"/>
<text text-anchor="start" x="501.5" y="-46.28" font-family="Helvetica,sans-Serif" font-size="10.00">Nuki::NukiBle::cmdChallState</text>
<text text-anchor="middle" x="565.25" y="-35.03" font-family="Helvetica,sans-Serif" font-size="10.00">Machine</text>
</a>
</g>
</g>
<!-- Node3&#45;&gt;Node8 -->
<g id="edge7_Node000003_Node000008" class="edge">
<title>Node3&#45;&gt;Node8</title>
<g id="a_edge7_Node000003_Node000008"><a xlink:title=" ">
<path fill="none" stroke="#63b8ff" d="M409.11,-98.53C435.6,-89.31 475.68,-75.36 508.46,-63.95"/>
<polygon fill="#63b8ff" stroke="#63b8ff" points="509.55,-67.28 517.84,-60.69 507.24,-60.67 509.55,-67.28"/>
</a>
</g>
</g>
<!-- Node10 -->
<g id="Node000010" class="node">
<title>Node10</title>
<g id="a_Node000010"><a xlink:href="class_nuki_1_1_nuki_ble.html#ad135bb1455665decfddff67772c1d411" target="_top" xlink:title=" ">
<polygon fill="white" stroke="#666666" points="644.5,-183.16 486,-183.16 486,-163.91 644.5,-163.91 644.5,-183.16"/>
<text text-anchor="middle" x="565.25" y="-169.66" font-family="Helvetica,sans-Serif" font-size="10.00">Nuki::NukiBle::cmdStateMachine</text>
</a>
</g>
</g>
<!-- Node3&#45;&gt;Node10 -->
<g id="edge12_Node000003_Node000010" class="edge">
<title>Node3&#45;&gt;Node10</title>
<g id="a_edge12_Node000003_Node000010"><a xlink:title=" ">
<path fill="none" stroke="#63b8ff" d="M400.61,-118.59C421.57,-128.72 455.48,-144.27 486,-154.53 492.52,-156.73 499.43,-158.78 506.33,-160.66"/>
<polygon fill="#63b8ff" stroke="#63b8ff" points="505.09,-163.96 515.65,-163.1 506.86,-157.19 505.09,-163.96"/>
</a>
</g>
</g>
<!-- Node4&#45;&gt;Node5 -->
<g id="edge4_Node000004_Node000005" class="edge">
<title>Node4&#45;&gt;Node5</title>
<g id="a_edge4_Node000004_Node000005"><a xlink:title=" ">
<path fill="none" stroke="#63b8ff" d="M634.39,-145.1C647.09,-147.82 660.5,-150.69 673.62,-153.49"/>
<polygon fill="#63b8ff" stroke="#63b8ff" points="672.56,-156.84 683.07,-155.51 674.02,-150 672.56,-156.84"/>
</a>
</g>
</g>
<!-- Node4&#45;&gt;Node6 -->
<g id="edge5_Node000004_Node000006" class="edge">
<title>Node4&#45;&gt;Node6</title>
<g id="a_edge5_Node000004_Node000006"><a xlink:title=" ">
<path fill="none" stroke="#63b8ff" d="M634.39,-129.47C649.64,-129.23 665.91,-128.97 681.47,-128.73"/>
<polygon fill="#63b8ff" stroke="#63b8ff" points="681.19,-132.24 691.13,-128.58 681.08,-125.24 681.19,-132.24"/>
</a>
</g>
</g>
<!-- Node4&#45;&gt;Node7 -->
<g id="edge6_Node000004_Node000007" class="edge">
<title>Node4&#45;&gt;Node7</title>
<g id="a_edge6_Node000004_Node000007"><a xlink:title=" ">
<path fill="none" stroke="#63b8ff" d="M634.39,-115.25C656.48,-110.3 680.7,-104.87 701.82,-100.13"/>
<polygon fill="#63b8ff" stroke="#63b8ff" points="702.4,-103.59 711.39,-97.99 700.86,-96.76 702.4,-103.59"/>
</a>
</g>
</g>
<!-- Node8&#45;&gt;Node5 -->
<g id="edge8_Node000008_Node000005" class="edge">
<title>Node8&#45;&gt;Node5</title>
<g id="a_edge8_Node000008_Node000005"><a xlink:title=" ">
<path fill="none" stroke="#63b8ff" d="M587.97,-60.19C604.13,-72.21 626.43,-89.57 644.5,-106.53 661.93,-122.91 660.43,-133.53 680.5,-146.53 682.89,-148.08 685.38,-149.54 687.94,-150.91"/>
<polygon fill="#63b8ff" stroke="#63b8ff" points="686.23,-153.97 696.76,-155.15 689.26,-147.66 686.23,-153.97"/>
</a>
</g>
</g>
<!-- Node8&#45;&gt;Node6 -->
<g id="edge10_Node000008_Node000006" class="edge">
<title>Node8&#45;&gt;Node6</title>
<g id="a_edge10_Node000008_Node000006"><a xlink:title=" ">
<path fill="none" stroke="#63b8ff" d="M617.27,-60.17C626.63,-63.94 636.09,-68.4 644.5,-73.53 663.02,-84.85 661.49,-96.06 680.5,-106.53 685.49,-109.28 690.85,-111.68 696.35,-113.78"/>
<polygon fill="#63b8ff" stroke="#63b8ff" points="695,-117.02 705.59,-116.97 697.28,-110.4 695,-117.02"/>
</a>
</g>
</g>
<!-- Node8&#45;&gt;Node7 -->
<g id="edge11_Node000008_Node000007" class="edge">
<title>Node8&#45;&gt;Node7</title>
<g id="a_edge11_Node000008_Node000007"><a xlink:title=" ">
<path fill="none" stroke="#63b8ff" d="M636.29,-60.24C657.86,-65.08 681.32,-70.34 701.84,-74.94"/>
<polygon fill="#63b8ff" stroke="#63b8ff" points="700.9,-78.32 711.42,-77.09 702.43,-71.49 700.9,-78.32"/>
</a>
</g>
</g>
<!-- Node9 -->
<g id="Node000009" class="node">
<title>Node9</title>
<g id="a_Node000009"><a xlink:href="class_nuki_1_1_nuki_ble.html#a25207bb564a4b54b8dd8c872177b53a7" target="_top" xlink:title="Returns if BLE is pairing/paired/connected with a Smart Lock Ultra.">
<polygon fill="white" stroke="#666666" points="824,-54.16 694,-54.16 694,-34.91 824,-34.91 824,-54.16"/>
<text text-anchor="middle" x="759" y="-40.66" font-family="Helvetica,sans-Serif" font-size="10.00">Nuki::NukiBle::isLockUltra</text>
</a>
</g>
</g>
<!-- Node8&#45;&gt;Node9 -->
<g id="edge9_Node000008_Node000009" class="edge">
<title>Node8&#45;&gt;Node9</title>
<g id="a_edge9_Node000008_Node000009"><a xlink:title=" ">
<path fill="none" stroke="#63b8ff" d="M637.38,-44.53C652.07,-44.53 667.6,-44.53 682.44,-44.53"/>
<polygon fill="#63b8ff" stroke="#63b8ff" points="682.12,-48.03 692.12,-44.53 682.12,-41.03 682.12,-48.03"/>
</a>
</g>
</g>
<!-- Node10&#45;&gt;Node5 -->
<g id="edge13_Node000010_Node000005" class="edge">
<title>Node10&#45;&gt;Node5</title>
<g id="a_edge13_Node000010_Node000005"><a xlink:title=" ">
<path fill="none" stroke="#63b8ff" d="M644.8,-172.71C652.74,-172.63 660.85,-172.55 668.89,-172.46"/>
<polygon fill="#63b8ff" stroke="#63b8ff" points="668.72,-175.96 678.68,-172.36 668.65,-168.97 668.72,-175.96"/>
</a>
</g>
</g>
<!-- Node10&#45;&gt;Node6 -->
<g id="edge14_Node000010_Node000006" class="edge">
<title>Node10&#45;&gt;Node6</title>
<g id="a_edge14_Node000010_Node000006"><a xlink:title=" ">
<path fill="none" stroke="#63b8ff" d="M608.33,-163.44C636.8,-156.61 674.64,-147.53 705.14,-140.21"/>
<polygon fill="#63b8ff" stroke="#63b8ff" points="705.64,-143.69 714.55,-137.96 704.01,-136.89 705.64,-143.69"/>
</a>
</g>
</g>
<!-- Node10&#45;&gt;Node7 -->
<g id="edge15_Node000010_Node000007" class="edge">
<title>Node10&#45;&gt;Node7</title>
<g id="a_edge15_Node000010_Node000007"><a xlink:title=" ">
<path fill="none" stroke="#63b8ff" d="M626.11,-163.49C632.58,-161.11 638.86,-158.17 644.5,-154.53 666.32,-140.47 658.87,-122.88 680.5,-108.53 684.25,-106.05 688.28,-103.85 692.47,-101.92"/>
<polygon fill="#63b8ff" stroke="#63b8ff" points="693.76,-105.17 701.72,-98.19 691.14,-98.68 693.76,-105.17"/>
</a>
</g>
</g>
</g>
</svg>
