<?xml version="1.0" encoding="UTF-8" standalone="no"?>
<!DOCTYPE svg PUBLIC "-//W3C//DTD SVG 1.1//EN"
 "http://www.w3.org/Graphics/SVG/1.1/DTD/svg11.dtd">
<!-- Generated by graphviz version 12.2.1 (20241206.2353)
 -->
<!-- Title: NukiLock::NukiLock::addTimeControlEntry Pages: 1 -->
<svg width="469pt" height="91pt"
 viewBox="0.00 0.00 468.50 91.25" xmlns="http://www.w3.org/2000/svg" xmlns:xlink="http://www.w3.org/1999/xlink">

<svg id="main" version="1.1" xmlns="http://www.w3.org/2000/svg" xmlns:xlink="http://www.w3.org/1999/xlink" xml:space="preserve">

<style type="text/css"><![CDATA[
.node, .edge {opacity: 0.7;}
.node.selected, .edge.selected {opacity: 1;}
.edge:hover path { stroke: red; }
.edge:hover polygon { stroke: red; fill: red; }
]]></style>
<script type="application/ecmascript" xlink:href="svg.min.js"/>
<svg id="graph" class="graph">
<g id="graph0" class="graph" transform="scale(1 1) rotate(0) translate(4 87.25)">
<title>NukiLock::NukiLock::addTimeControlEntry</title>
<!-- Node1 -->
<g id="Node000001" class="node">
<title>Node1</title>
<g id="a_Node000001"><a xlink:title="Sends a new time(d) control entry via BLE to the lock. This entry is independant of keypad or authori...">
<polygon fill="#999999" stroke="#666666" points="110.5,-67.88 0,-67.88 0,-37.38 110.5,-37.38 110.5,-67.88"/>
<text text-anchor="start" x="8" y="-54.38" font-family="Helvetica,sans-Serif" font-size="10.00">NukiLock::NukiLock</text>
<text text-anchor="middle" x="55.25" y="-43.12" font-family="Helvetica,sans-Serif" font-size="10.00">::addTimeControlEntry</text>
</a>
</g>
</g>
<!-- Node2 -->
<g id="Node000002" class="node">
<title>Node2</title>
<g id="a_Node000002"><a xlink:href="namespace_nuki_lock.html#af6ebff0f8c6c0cb27a927a440812c02a" target="_top" xlink:title=" ">
<polygon fill="white" stroke="#666666" points="460.5,-83.25 330.5,-83.25 330.5,-64 460.5,-64 460.5,-83.25"/>
<text text-anchor="middle" x="395.5" y="-69.75" font-family="Helvetica,sans-Serif" font-size="10.00">NukiLock::logMessageVar</text>
</a>
</g>
</g>
<!-- Node1&#45;&gt;Node2 -->
<g id="edge1_Node000001_Node000002" class="edge">
<title>Node1&#45;&gt;Node2</title>
<g id="a_edge1_Node000001_Node000002"><a xlink:title=" ">
<path fill="none" stroke="#63b8ff" d="M105.91,-68.3C118.98,-71.75 133.16,-74.88 146.5,-76.62 204.03,-84.14 269.71,-82.92 319.02,-80.07"/>
<polygon fill="#63b8ff" stroke="#63b8ff" points="318.96,-83.58 328.72,-79.47 318.53,-76.59 318.96,-83.58"/>
</a>
</g>
</g>
<!-- Node3 -->
<g id="Node000003" class="node">
<title>Node3</title>
<g id="a_Node000003"><a xlink:href="namespace_nuki_lock.html#a765365aab0b5b13b9bab3076326b877e" target="_top" xlink:title=" ">
<polygon fill="white" stroke="#666666" points="294.5,-67.88 146.5,-67.88 146.5,-37.38 294.5,-37.38 294.5,-67.88"/>
<text text-anchor="start" x="154.5" y="-54.38" font-family="Helvetica,sans-Serif" font-size="10.00">NukiLock::logNewTimeControl</text>
<text text-anchor="middle" x="220.5" y="-43.12" font-family="Helvetica,sans-Serif" font-size="10.00">Entry</text>
</a>
</g>
</g>
<!-- Node1&#45;&gt;Node3 -->
<g id="edge2_Node000001_Node000003" class="edge">
<title>Node1&#45;&gt;Node3</title>
<g id="a_edge2_Node000001_Node000003"><a xlink:title=" ">
<path fill="none" stroke="#63b8ff" d="M110.61,-52.62C118.45,-52.62 126.68,-52.62 134.94,-52.62"/>
<polygon fill="#63b8ff" stroke="#63b8ff" points="134.69,-56.13 144.69,-52.63 134.69,-49.13 134.69,-56.13"/>
</a>
</g>
</g>
<!-- Node4 -->
<g id="Node000004" class="node">
<title>Node4</title>
<g id="a_Node000004"><a xlink:href="namespace_nuki.html#a438fdfcef9f81eb0a3e493631b71ca5b" target="_top" xlink:title=" ">
<polygon fill="white" stroke="#666666" points="263,-19.25 178,-19.25 178,0 263,0 263,-19.25"/>
<text text-anchor="middle" x="220.5" y="-5.75" font-family="Helvetica,sans-Serif" font-size="10.00">Nuki::printBuffer</text>
</a>
</g>
</g>
<!-- Node1&#45;&gt;Node4 -->
<g id="edge4_Node000001_Node000004" class="edge">
<title>Node1&#45;&gt;Node4</title>
<g id="a_edge4_Node000001_Node000004"><a xlink:title=" ">
<path fill="none" stroke="#63b8ff" d="M110.64,-38.11C122.46,-34.97 134.9,-31.68 146.5,-28.62 153.9,-26.68 161.73,-24.63 169.4,-22.63"/>
<polygon fill="#63b8ff" stroke="#63b8ff" points="170.21,-26.03 179,-20.12 168.44,-19.26 170.21,-26.03"/>
</a>
</g>
</g>
<!-- Node3&#45;&gt;Node2 -->
<g id="edge3_Node000003_Node000002" class="edge">
<title>Node3&#45;&gt;Node2</title>
<g id="a_edge3_Node000003_Node000002"><a xlink:title=" ">
<path fill="none" stroke="#63b8ff" d="M294.87,-61.53C302.82,-62.5 310.92,-63.48 318.89,-64.45"/>
<polygon fill="#63b8ff" stroke="#63b8ff" points="318.2,-67.89 328.55,-65.62 319.05,-60.94 318.2,-67.89"/>
</a>
</g>
</g>
</g>
</svg>
</svg>

<style type='text/css'>
<![CDATA[
[data-mouse-over-selected='false'] { opacity: 0.7; }
[data-mouse-over-selected='true']  { opacity: 1.0; }
]]>
</style>
<script type="application/ecmascript"><![CDATA[
document.addEventListener('DOMContentLoaded', (event) => {
  highlightEdges();
  highlightAdjacentNodes();
});
]]></script>
</svg>
