<?xml version="1.0" encoding="UTF-8" standalone="no"?>
<!DOCTYPE svg PUBLIC "-//W3C//DTD SVG 1.1//EN"
 "http://www.w3.org/Graphics/SVG/1.1/DTD/svg11.dtd">
<!-- Generated by graphviz version 7.0.1 (20221109.1506)
 -->
<!-- Title: Nuki::NukiBle::handleReturnMessage Pages: 1 -->
<svg width="306pt" height="86pt"
 viewBox="0.00 0.00 306.00 86.00" xmlns="http://www.w3.org/2000/svg" xmlns:xlink="http://www.w3.org/1999/xlink">
<g id="graph0" class="graph" transform="scale(1 1) rotate(0) translate(4 82)">
<title>Nuki::NukiBle::handleReturnMessage</title>
<!-- Node1 -->
<g id="node1" class="node">
<title>Node1</title>
<g id="a_node1"><a xlink:title=" ">
<polygon fill="#999999" stroke="#666666" points="298,-54 161,-54 161,-24 298,-24 298,-54"/>
<text text-anchor="start" x="169" y="-42" font-family="Helvetica,sans-Serif" font-size="10.00">Nuki::NukiBle::handleReturn</text>
<text text-anchor="middle" x="229.5" y="-31" font-family="Helvetica,sans-Serif" font-size="10.00">Message</text>
</a>
</g>
</g>
<!-- Node2 -->
<g id="node2" class="node">
<title>Node2</title>
<g id="a_node2"><a xlink:href="class_nuki_lock_1_1_nuki_lock.html#a8d9fc4e4a1bde183754ced8b783f82d5" target="_top" xlink:title=" ">
<polygon fill="white" stroke="#666666" points="121.5,-78 3.5,-78 3.5,-48 121.5,-48 121.5,-78"/>
<text text-anchor="start" x="11.5" y="-66" font-family="Helvetica,sans-Serif" font-size="10.00">NukiLock::NukiLock</text>
<text text-anchor="middle" x="62.5" y="-55" font-family="Helvetica,sans-Serif" font-size="10.00">::handleReturnMessage</text>
</a>
</g>
</g>
<!-- Node1&#45;&gt;Node2 -->
<g id="edge1" class="edge">
<title>Node1&#45;&gt;Node2</title>
<path fill="none" stroke="#63b8ff" d="M149.55,-50.48C140.18,-51.85 130.75,-53.22 121.75,-54.53"/>
<polygon fill="#63b8ff" stroke="#63b8ff" points="150.02,-53.95 159.41,-49.05 149.01,-47.02 150.02,-53.95"/>
</g>
<!-- Node3 -->
<g id="node3" class="node">
<title>Node3</title>
<g id="a_node3"><a xlink:href="class_nuki_opener_1_1_nuki_opener.html#a19ad4317e201ebe5e43ad55b6ea906da" target="_top" xlink:title=" ">
<polygon fill="white" stroke="#666666" points="125,-30 0,-30 0,0 125,0 125,-30"/>
<text text-anchor="start" x="8" y="-18" font-family="Helvetica,sans-Serif" font-size="10.00">NukiOpener::NukiOpener</text>
<text text-anchor="middle" x="62.5" y="-7" font-family="Helvetica,sans-Serif" font-size="10.00">::handleReturnMessage</text>
</a>
</g>
</g>
<!-- Node1&#45;&gt;Node3 -->
<g id="edge2" class="edge">
<title>Node1&#45;&gt;Node3</title>
<path fill="none" stroke="#63b8ff" d="M149.53,-27.51C141.43,-26.34 133.29,-25.15 125.41,-24.01"/>
<polygon fill="#63b8ff" stroke="#63b8ff" points="149.01,-30.98 159.41,-28.95 150.02,-24.05 149.01,-30.98"/>
</g>
</g>
</svg>
