<?xml version="1.0" encoding="UTF-8" standalone="no"?>
<!DOCTYPE svg PUBLIC "-//W3C//DTD SVG 1.1//EN"
 "http://www.w3.org/Graphics/SVG/1.1/DTD/svg11.dtd">
<!-- Generated by graphviz version 8.0.5 (20230430.1635)
 -->
<!-- Title: NukiLock::NukiLock::handleReturnMessage Pages: 1 -->
<svg width="496pt" height="310pt"
 viewBox="0.00 0.00 495.50 309.88" xmlns="http://www.w3.org/2000/svg" xmlns:xlink="http://www.w3.org/1999/xlink">
<g id="graph0" class="graph" transform="scale(1 1) rotate(0) translate(4 305.88)">
<title>NukiLock::NukiLock::handleReturnMessage</title>
<!-- Node1 -->
<g id="node1" class="node">
<title>Node1</title>
<g id="a_node1"><a xlink:title=" ">
<polygon fill="#999999" stroke="#666666" points="117.25,-153.88 0,-153.88 0,-123.38 117.25,-123.38 117.25,-153.88"/>
<text text-anchor="start" x="8" y="-140.38" font-family="Helvetica,sans-Serif" font-size="10.00">NukiLock::NukiLock</text>
<text text-anchor="middle" x="58.62" y="-129.12" font-family="Helvetica,sans-Serif" font-size="10.00">::handleReturnMessage</text>
</a>
</g>
</g>
<!-- Node2 -->
<g id="node2" class="node">
<title>Node2</title>
<g id="a_node2"><a xlink:href="class_nuki_1_1_nuki_ble.html#ac2e28f07ed0a738f73c5f77b46cdb1bb" target="_top" xlink:title=" ">
<polygon fill="white" stroke="#666666" points="294.5,-301.88 157.75,-301.88 157.75,-271.38 294.5,-271.38 294.5,-301.88"/>
<text text-anchor="start" x="165.75" y="-288.38" font-family="Helvetica,sans-Serif" font-size="10.00">Nuki::NukiBle::handleReturn</text>
<text text-anchor="middle" x="226.12" y="-277.12" font-family="Helvetica,sans-Serif" font-size="10.00">Message</text>
</a>
</g>
</g>
<!-- Node1&#45;&gt;Node2 -->
<g id="edge1" class="edge">
<title>Node1&#45;&gt;Node2</title>
<path fill="none" stroke="#63b8ff" d="M67.22,-153.96C80.88,-180.03 112.07,-233.03 153.25,-262.62 154.76,-263.71 156.31,-264.74 157.91,-265.73"/>
<polygon fill="#63b8ff" stroke="#63b8ff" points="156,-269.22 166.46,-270.94 159.35,-263.08 156,-269.22"/>
</g>
<!-- Node3 -->
<g id="node3" class="node">
<title>Node3</title>
<g id="a_node3"><a xlink:href="namespace_nuki_lock.html#a443e14fa26c3b2a4a0c2c6565be0d459" target="_top" xlink:title=" ">
<polygon fill="white" stroke="#666666" points="299,-253.25 153.25,-253.25 153.25,-234 299,-234 299,-253.25"/>
<text text-anchor="middle" x="226.12" y="-239.75" font-family="Helvetica,sans-Serif" font-size="10.00">NukiLock::logAdvancedConfig</text>
</a>
</g>
</g>
<!-- Node1&#45;&gt;Node3 -->
<g id="edge2" class="edge">
<title>Node1&#45;&gt;Node3</title>
<path fill="none" stroke="#63b8ff" d="M72.21,-154.1C88.77,-173.47 119.75,-206.3 153.25,-224.62 156.74,-226.53 160.43,-228.26 164.22,-229.82"/>
<polygon fill="#63b8ff" stroke="#63b8ff" points="162.84,-233.4 173.43,-233.56 165.25,-226.83 162.84,-233.4"/>
</g>
<!-- Node4 -->
<g id="node4" class="node">
<title>Node4</title>
<g id="a_node4"><a xlink:href="namespace_nuki_lock.html#a650ff7596ea6baa28cb6e1001a490330" target="_top" xlink:title=" ">
<polygon fill="white" stroke="#666666" points="291.88,-215.88 160.38,-215.88 160.38,-185.38 291.88,-185.38 291.88,-215.88"/>
<text text-anchor="start" x="168.38" y="-202.38" font-family="Helvetica,sans-Serif" font-size="10.00">NukiLock::logAuthorization</text>
<text text-anchor="middle" x="226.12" y="-191.12" font-family="Helvetica,sans-Serif" font-size="10.00">Entry</text>
</a>
</g>
</g>
<!-- Node1&#45;&gt;Node4 -->
<g id="edge3" class="edge">
<title>Node1&#45;&gt;Node4</title>
<path fill="none" stroke="#63b8ff" d="M96.77,-154.33C113.87,-161.4 134.49,-169.69 153.25,-176.62 157.48,-178.19 161.87,-179.77 166.3,-181.32"/>
<polygon fill="#63b8ff" stroke="#63b8ff" points="165.06,-184.94 175.65,-184.9 167.35,-178.33 165.06,-184.94"/>
</g>
<!-- Node5 -->
<g id="node5" class="node">
<title>Node5</title>
<g id="a_node5"><a xlink:href="namespace_nuki_lock.html#a7ea754b2cb764a6f6469efc00dbfdfe8" target="_top" xlink:title=" ">
<polygon fill="white" stroke="#666666" points="293.38,-167.25 158.88,-167.25 158.88,-148 293.38,-148 293.38,-167.25"/>
<text text-anchor="middle" x="226.12" y="-153.75" font-family="Helvetica,sans-Serif" font-size="10.00">NukiLock::logBatteryReport</text>
</a>
</g>
</g>
<!-- Node1&#45;&gt;Node5 -->
<g id="edge4" class="edge">
<title>Node1&#45;&gt;Node5</title>
<path fill="none" stroke="#63b8ff" d="M117.51,-145.27C127.23,-146.39 137.45,-147.56 147.58,-148.72"/>
<polygon fill="#63b8ff" stroke="#63b8ff" points="147.15,-152.31 157.49,-149.97 147.95,-145.36 147.15,-152.31"/>
</g>
<!-- Node6 -->
<g id="node6" class="node">
<title>Node6</title>
<g id="a_node6"><a xlink:href="namespace_nuki_lock.html#a44f8fccc739b59c4fa2c9994da10aaed" target="_top" xlink:title=" ">
<polygon fill="white" stroke="#666666" points="277.25,-130.25 175,-130.25 175,-111 277.25,-111 277.25,-130.25"/>
<text text-anchor="middle" x="226.12" y="-116.75" font-family="Helvetica,sans-Serif" font-size="10.00">NukiLock::logConfig</text>
</a>
</g>
</g>
<!-- Node1&#45;&gt;Node6 -->
<g id="edge5" class="edge">
<title>Node1&#45;&gt;Node6</title>
<path fill="none" stroke="#63b8ff" d="M117.51,-132.33C132.51,-130.7 148.71,-128.94 163.88,-127.29"/>
<polygon fill="#63b8ff" stroke="#63b8ff" points="164.15,-130.67 173.71,-126.11 163.39,-123.71 164.15,-130.67"/>
</g>
<!-- Node7 -->
<g id="node7" class="node">
<title>Node7</title>
<g id="a_node7"><a xlink:href="namespace_nuki_lock.html#a5b521a0ba26dfc799683a2edb9529902" target="_top" xlink:title=" ">
<polygon fill="white" stroke="#666666" points="296,-93.25 156.25,-93.25 156.25,-74 296,-74 296,-93.25"/>
<text text-anchor="middle" x="226.12" y="-79.75" font-family="Helvetica,sans-Serif" font-size="10.00">NukiLock::logKeyturnerState</text>
</a>
</g>
</g>
<!-- Node1&#45;&gt;Node7 -->
<g id="edge6" class="edge">
<title>Node1&#45;&gt;Node7</title>
<path fill="none" stroke="#63b8ff" d="M96.13,-122.91C113.28,-115.86 134.11,-107.77 153.25,-101.62 158.84,-99.83 164.72,-98.1 170.61,-96.48"/>
<polygon fill="#63b8ff" stroke="#63b8ff" points="171.39,-99.62 180.16,-93.67 169.59,-92.86 171.39,-99.62"/>
</g>
<!-- Node11 -->
<g id="node11" class="node">
<title>Node11</title>
<g id="a_node11"><a xlink:href="namespace_nuki_lock.html#aec3cb8258cc4133d676e8c5f50bcd938" target="_top" xlink:title=" ">
<polygon fill="white" stroke="#666666" points="282.88,-56.25 169.38,-56.25 169.38,-37 282.88,-37 282.88,-56.25"/>
<text text-anchor="middle" x="226.12" y="-42.75" font-family="Helvetica,sans-Serif" font-size="10.00">NukiLock::logLogEntry</text>
</a>
</g>
</g>
<!-- Node1&#45;&gt;Node11 -->
<g id="edge10" class="edge">
<title>Node1&#45;&gt;Node11</title>
<path fill="none" stroke="#63b8ff" d="M75.08,-122.94C92.55,-106.09 122.57,-79.71 153.25,-64.62 156.42,-63.06 159.75,-61.63 163.15,-60.31"/>
<polygon fill="#63b8ff" stroke="#63b8ff" points="164.22,-63.3 172.52,-56.71 161.92,-56.69 164.22,-63.3"/>
</g>
<!-- Node12 -->
<g id="node12" class="node">
<title>Node12</title>
<g id="a_node12"><a xlink:href="namespace_nuki.html#a280e19d4682ca4b35d3fe64001da816a" target="_top" xlink:title=" ">
<polygon fill="white" stroke="#666666" points="268.62,-19.25 183.62,-19.25 183.62,0 268.62,0 268.62,-19.25"/>
<text text-anchor="middle" x="226.12" y="-5.75" font-family="Helvetica,sans-Serif" font-size="10.00">Nuki::printBuffer</text>
</a>
</g>
</g>
<!-- Node1&#45;&gt;Node12 -->
<g id="edge14" class="edge">
<title>Node1&#45;&gt;Node12</title>
<path fill="none" stroke="#63b8ff" d="M68.34,-123.05C82.74,-98.78 113.89,-52.18 153.25,-27.62 159.34,-23.83 166.18,-20.83 173.17,-18.47"/>
<polygon fill="#63b8ff" stroke="#63b8ff" points="173.83,-21.62 182.43,-15.43 171.85,-14.91 173.83,-21.62"/>
</g>
<!-- Node8 -->
<g id="node8" class="node">
<title>Node8</title>
<g id="a_node8"><a xlink:href="namespace_nuki_lock.html#a564f6d63072267bb72f431e4c4e1c947" target="_top" xlink:title=" ">
<polygon fill="white" stroke="#666666" points="487.5,-112.25 335,-112.25 335,-93 487.5,-93 487.5,-112.25"/>
<text text-anchor="middle" x="411.25" y="-98.75" font-family="Helvetica,sans-Serif" font-size="10.00">NukiLock::logCompletionStatus</text>
</a>
</g>
</g>
<!-- Node7&#45;&gt;Node8 -->
<g id="edge7" class="edge">
<title>Node7&#45;&gt;Node8</title>
<path fill="none" stroke="#63b8ff" d="M296.36,-90.81C305.38,-91.74 314.72,-92.71 323.98,-93.67"/>
<polygon fill="#63b8ff" stroke="#63b8ff" points="323.49,-97.25 333.8,-94.8 324.21,-90.28 323.49,-97.25"/>
</g>
<!-- Node9 -->
<g id="node9" class="node">
<title>Node9</title>
<g id="a_node9"><a xlink:href="namespace_nuki_lock.html#a02e1891ccc5565890fd8ddd6577dea57" target="_top" xlink:title=" ">
<polygon fill="white" stroke="#666666" points="473.62,-75.25 348.88,-75.25 348.88,-56 473.62,-56 473.62,-75.25"/>
<text text-anchor="middle" x="411.25" y="-61.75" font-family="Helvetica,sans-Serif" font-size="10.00">NukiLock::logLockAction</text>
</a>
</g>
</g>
<!-- Node7&#45;&gt;Node9 -->
<g id="edge8" class="edge">
<title>Node7&#45;&gt;Node9</title>
<path fill="none" stroke="#63b8ff" d="M296.36,-76.82C309.86,-75.49 324.06,-74.1 337.67,-72.76"/>
<polygon fill="#63b8ff" stroke="#63b8ff" points="337.83,-76.16 347.44,-71.7 337.14,-69.2 337.83,-76.16"/>
</g>
<!-- Node10 -->
<g id="node10" class="node">
<title>Node10</title>
<g id="a_node10"><a xlink:href="namespace_nuki_lock.html#aa9c8584e761f69cad4eb3ea1c20d27e7" target="_top" xlink:title=" ">
<polygon fill="white" stroke="#666666" points="474,-38.25 348.5,-38.25 348.5,-19 474,-19 474,-38.25"/>
<text text-anchor="middle" x="411.25" y="-24.75" font-family="Helvetica,sans-Serif" font-size="10.00">NukiLock::logNukiTrigger</text>
</a>
</g>
</g>
<!-- Node7&#45;&gt;Node10 -->
<g id="edge9" class="edge">
<title>Node7&#45;&gt;Node10</title>
<path fill="none" stroke="#63b8ff" d="M274.41,-73.51C282.71,-71.24 291.19,-68.61 299,-65.62 315.9,-59.16 318.07,-53 335,-46.62 339.78,-44.83 344.79,-43.16 349.87,-41.64"/>
<polygon fill="#63b8ff" stroke="#63b8ff" points="350.65,-44.77 359.33,-38.7 348.76,-38.04 350.65,-44.77"/>
</g>
<!-- Node11&#45;&gt;Node8 -->
<g id="edge11" class="edge">
<title>Node11&#45;&gt;Node8</title>
<path fill="none" stroke="#63b8ff" d="M274.85,-56.71C283.02,-58.96 291.34,-61.6 299,-64.62 316.02,-71.35 317.94,-77.99 335,-84.62 339.68,-86.45 344.6,-88.12 349.59,-89.65"/>
<polygon fill="#63b8ff" stroke="#63b8ff" points="348.3,-93.21 358.88,-92.59 350.22,-86.48 348.3,-93.21"/>
</g>
<!-- Node11&#45;&gt;Node9 -->
<g id="edge12" class="edge">
<title>Node11&#45;&gt;Node9</title>
<path fill="none" stroke="#63b8ff" d="M283.31,-52.45C300.46,-54.23 319.56,-56.22 337.63,-58.09"/>
<polygon fill="#63b8ff" stroke="#63b8ff" points="337.12,-61.66 347.43,-59.21 337.84,-54.7 337.12,-61.66"/>
</g>
<!-- Node11&#45;&gt;Node10 -->
<g id="edge13" class="edge">
<title>Node11&#45;&gt;Node10</title>
<path fill="none" stroke="#63b8ff" d="M283.31,-41.1C300.37,-39.43 319.37,-37.56 337.35,-35.79"/>
<polygon fill="#63b8ff" stroke="#63b8ff" points="337.49,-39.2 347.1,-34.73 336.81,-32.23 337.49,-39.2"/>
</g>
</g>
</svg>
