<?xml version="1.0" encoding="UTF-8" standalone="no"?>
<!DOCTYPE svg PUBLIC "-//W3C//DTD SVG 1.1//EN"
 "http://www.w3.org/Graphics/SVG/1.1/DTD/svg11.dtd">
<!-- Generated by graphviz version 12.2.1 (20241206.2353)
 -->
<!-- Title: Nuki::NukiBle::addKeypadEntry Pages: 1 -->
<svg width="709pt" height="318pt"
 viewBox="0.00 0.00 708.75 317.66" xmlns="http://www.w3.org/2000/svg" xmlns:xlink="http://www.w3.org/1999/xlink">
<g id="graph0" class="graph" transform="scale(1 1) rotate(0) translate(4 313.66)">
<title>Nuki::NukiBle::addKeypadEntry</title>
<!-- Node1 -->
<g id="Node000001" class="node">
<title>Node1</title>
<g id="a_Node000001"><a xlink:title="Send a new keypad entry to the lock via BLE.">
<polygon fill="#999999" stroke="#666666" points="127.75,-167.88 0,-167.88 0,-137.38 127.75,-137.38 127.75,-167.88"/>
<text text-anchor="start" x="8" y="-154.38" font-family="Helvetica,sans-Serif" font-size="10.00">Nuki::NukiBle::addKeypad</text>
<text text-anchor="middle" x="63.88" y="-143.12" font-family="Helvetica,sans-Serif" font-size="10.00">Entry</text>
</a>
</g>
</g>
<!-- Node2 -->
<g id="Node000002" class="node">
<title>Node2</title>
<g id="a_Node000002"><a xlink:href="class_nuki_1_1_nuki_ble.html#af1f1e299e8d97e053bba80e92ba285d6" target="_top" xlink:title=" ">
<polygon fill="white" stroke="#666666" points="309.12,-181.25 167.88,-181.25 167.88,-162 309.12,-162 309.12,-181.25"/>
<text text-anchor="middle" x="238.5" y="-167.75" font-family="Helvetica,sans-Serif" font-size="10.00">Nuki::NukiBle::executeAction</text>
</a>
</g>
</g>
<!-- Node1&#45;&gt;Node2 -->
<g id="edge1_Node000001_Node000002" class="edge">
<title>Node1&#45;&gt;Node2</title>
<g id="a_edge1_Node000001_Node000002"><a xlink:title=" ">
<path fill="none" stroke="#63b8ff" d="M128.17,-159.59C137.27,-160.59 146.74,-161.64 156.13,-162.67"/>
<polygon fill="#63b8ff" stroke="#63b8ff" points="155.68,-166.14 166.01,-163.76 156.45,-159.18 155.68,-166.14"/>
</a>
</g>
</g>
<!-- Node6 -->
<g id="Node000006" class="node">
<title>Node6</title>
<g id="a_Node000006"><a xlink:href="class_nuki_1_1_nuki_ble.html#af3650133f46aeca48a5f01b95d23ab71" target="_top" xlink:title=" ">
<polygon fill="white" stroke="#666666" points="695.88,-267.25 548.62,-267.25 548.62,-248 695.88,-248 695.88,-267.25"/>
<text text-anchor="middle" x="622.25" y="-253.75" font-family="Helvetica,sans-Serif" font-size="10.00">Nuki::NukiBle::logMessageVar</text>
</a>
</g>
</g>
<!-- Node1&#45;&gt;Node6 -->
<g id="edge19_Node000001_Node000006" class="edge">
<title>Node1&#45;&gt;Node6</title>
<g id="a_edge19_Node000001_Node000006"><a xlink:title=" ">
<path fill="none" stroke="#63b8ff" d="M86.29,-168.22C131.87,-200.33 242.98,-272.94 349.25,-298.62 417.72,-315.18 438.36,-310.77 507.75,-298.62 536.53,-293.59 567.63,-281.87 589.99,-272.25"/>
<polygon fill="#63b8ff" stroke="#63b8ff" points="591.4,-275.45 599.13,-268.21 588.57,-269.05 591.4,-275.45"/>
</a>
</g>
</g>
<!-- Node11 -->
<g id="Node000011" class="node">
<title>Node11</title>
<g id="a_Node000011"><a xlink:href="namespace_nuki_lock.html#a27d784854d32c047bd88453667f7d942" target="_top" xlink:title=" ">
<polygon fill="white" stroke="#666666" points="313.25,-144.25 163.75,-144.25 163.75,-125 313.25,-125 313.25,-144.25"/>
<text text-anchor="middle" x="238.5" y="-130.75" font-family="Helvetica,sans-Serif" font-size="10.00">NukiLock::logNewKeypadEntry</text>
</a>
</g>
</g>
<!-- Node1&#45;&gt;Node11 -->
<g id="edge20_Node000001_Node000011" class="edge">
<title>Node1&#45;&gt;Node11</title>
<g id="a_edge20_Node000001_Node000011"><a xlink:title=" ">
<path fill="none" stroke="#63b8ff" d="M128.17,-146.02C135.96,-145.21 144.01,-144.37 152.05,-143.53"/>
<polygon fill="#63b8ff" stroke="#63b8ff" points="152.3,-147.03 161.88,-142.51 151.57,-140.07 152.3,-147.03"/>
</a>
</g>
</g>
<!-- Node13 -->
<g id="Node000013" class="node">
<title>Node13</title>
<g id="a_Node000013"><a xlink:href="namespace_nuki.html#a438fdfcef9f81eb0a3e493631b71ca5b" target="_top" xlink:title=" ">
<polygon fill="white" stroke="#666666" points="281,-107.25 196,-107.25 196,-88 281,-88 281,-107.25"/>
<text text-anchor="middle" x="238.5" y="-93.75" font-family="Helvetica,sans-Serif" font-size="10.00">Nuki::printBuffer</text>
</a>
</g>
</g>
<!-- Node1&#45;&gt;Node13 -->
<g id="edge22_Node000001_Node000013" class="edge">
<title>Node1&#45;&gt;Node13</title>
<g id="a_edge22_Node000001_Node000013"><a xlink:title=" ">
<path fill="none" stroke="#63b8ff" d="M103.49,-136.96C121.61,-129.92 143.61,-121.83 163.75,-115.62 170.45,-113.56 177.54,-111.58 184.58,-109.74"/>
<polygon fill="#63b8ff" stroke="#63b8ff" points="185.23,-113.18 194.06,-107.33 183.51,-106.4 185.23,-113.18"/>
</a>
</g>
</g>
<!-- Node3 -->
<g id="Node000003" class="node">
<title>Node3</title>
<g id="a_Node000003"><a xlink:href="class_nuki_1_1_nuki_ble.html#ada0f3beebd95d35c122e25dd3f9eb886" target="_top" xlink:title=" ">
<polygon fill="white" stroke="#666666" points="497.25,-229.88 359.75,-229.88 359.75,-199.38 497.25,-199.38 497.25,-229.88"/>
<text text-anchor="start" x="367.75" y="-216.38" font-family="Helvetica,sans-Serif" font-size="10.00">Nuki::NukiBle::cmdChallAcc</text>
<text text-anchor="middle" x="428.5" y="-205.12" font-family="Helvetica,sans-Serif" font-size="10.00">StateMachine</text>
</a>
</g>
</g>
<!-- Node2&#45;&gt;Node3 -->
<g id="edge2_Node000002_Node000003" class="edge">
<title>Node2&#45;&gt;Node3</title>
<g id="a_edge2_Node000002_Node000003"><a xlink:title=" ">
<path fill="none" stroke="#63b8ff" d="M283.58,-181.71C302.89,-186.12 326.16,-191.45 348.31,-196.51"/>
<polygon fill="#63b8ff" stroke="#63b8ff" points="347.41,-199.9 357.94,-198.71 348.97,-193.07 347.41,-199.9"/>
</a>
</g>
</g>
<!-- Node4 -->
<g id="Node000004" class="node">
<title>Node4</title>
<g id="a_Node000004"><a xlink:href="class_nuki_1_1_nuki_ble.html#a6e8fca90c04249660dce6cb993eb4495" target="_top" xlink:title=" ">
<polygon fill="white" stroke="#666666" points="700.75,-228.88 543.75,-228.88 543.75,-198.38 700.75,-198.38 700.75,-228.88"/>
<text text-anchor="start" x="551.75" y="-215.38" font-family="Helvetica,sans-Serif" font-size="10.00">Nuki::NukiBle::extendDisconnect</text>
<text text-anchor="middle" x="622.25" y="-204.12" font-family="Helvetica,sans-Serif" font-size="10.00">Timeout</text>
</a>
</g>
</g>
<!-- Node2&#45;&gt;Node4 -->
<g id="edge15_Node000002_Node000004" class="edge">
<title>Node2&#45;&gt;Node4</title>
<g id="a_edge15_Node000002_Node000004"><a xlink:title=" ">
<path fill="none" stroke="#63b8ff" d="M309.51,-174.11C363.79,-176.63 440.79,-181.51 507.75,-190.62 518.17,-192.04 529.08,-193.84 539.83,-195.81"/>
<polygon fill="#63b8ff" stroke="#63b8ff" points="538.99,-199.21 549.47,-197.63 540.29,-192.33 538.99,-199.21"/>
</a>
</g>
</g>
<!-- Node5 -->
<g id="Node000005" class="node">
<title>Node5</title>
<g id="a_Node000005"><a xlink:href="class_nuki_1_1_nuki_ble.html#ac7ce691d9c3e586474655d1663eb2e20" target="_top" xlink:title=" ">
<polygon fill="white" stroke="#666666" points="688.38,-177.25 556.12,-177.25 556.12,-158 688.38,-158 688.38,-177.25"/>
<text text-anchor="middle" x="622.25" y="-163.75" font-family="Helvetica,sans-Serif" font-size="10.00">Nuki::NukiBle::logMessage</text>
</a>
</g>
</g>
<!-- Node2&#45;&gt;Node5 -->
<g id="edge17_Node000002_Node000005" class="edge">
<title>Node2&#45;&gt;Node5</title>
<g id="a_edge17_Node000002_Node000005"><a xlink:title=" ">
<path fill="none" stroke="#63b8ff" d="M300.95,-161.61C305.38,-159.43 309.55,-156.8 313.25,-153.62 345.01,-126.38 314.46,-89.88 349.25,-66.62 407.82,-27.48 448.68,-28.24 507.75,-66.62 540.78,-88.09 513.68,-122.17 543.75,-147.62 545.81,-149.37 548,-150.96 550.29,-152.42"/>
<polygon fill="#63b8ff" stroke="#63b8ff" points="548.39,-155.37 558.87,-156.96 551.67,-149.19 548.39,-155.37"/>
</a>
</g>
</g>
<!-- Node2&#45;&gt;Node6 -->
<g id="edge18_Node000002_Node000006" class="edge">
<title>Node2&#45;&gt;Node6</title>
<g id="a_edge18_Node000002_Node000006"><a xlink:title=" ">
<path fill="none" stroke="#63b8ff" d="M245.93,-181.68C260.85,-203.94 300.31,-256.98 349.25,-276.62 426.77,-307.73 526.65,-286.93 581.23,-271"/>
<polygon fill="#63b8ff" stroke="#63b8ff" points="582.16,-274.38 590.72,-268.13 580.14,-267.68 582.16,-274.38"/>
</a>
</g>
</g>
<!-- Node7 -->
<g id="Node000007" class="node">
<title>Node7</title>
<g id="a_Node000007"><a xlink:href="class_nuki_1_1_nuki_ble.html#a59169a9f492793762e3c6ba39b611b07" target="_top" xlink:title=" ">
<polygon fill="white" stroke="#666666" points="500.25,-143.88 356.75,-143.88 356.75,-113.38 500.25,-113.38 500.25,-143.88"/>
<text text-anchor="start" x="364.75" y="-130.38" font-family="Helvetica,sans-Serif" font-size="10.00">Nuki::NukiBle::cmdChallState</text>
<text text-anchor="middle" x="428.5" y="-119.12" font-family="Helvetica,sans-Serif" font-size="10.00">Machine</text>
</a>
</g>
</g>
<!-- Node2&#45;&gt;Node7 -->
<g id="edge6_Node000002_Node000007" class="edge">
<title>Node2&#45;&gt;Node7</title>
<g id="a_edge6_Node000002_Node000007"><a xlink:title=" ">
<path fill="none" stroke="#63b8ff" d="M283.58,-161.54C302.7,-157.17 325.71,-151.91 347.67,-146.88"/>
<polygon fill="#63b8ff" stroke="#63b8ff" points="348.24,-150.34 357.21,-144.7 346.68,-143.52 348.24,-150.34"/>
</a>
</g>
</g>
<!-- Node9 -->
<g id="Node000009" class="node">
<title>Node9</title>
<g id="a_Node000009"><a xlink:href="class_nuki_1_1_nuki_ble.html#ad135bb1455665decfddff67772c1d411" target="_top" xlink:title=" ">
<polygon fill="white" stroke="#666666" points="507.75,-267.25 349.25,-267.25 349.25,-248 507.75,-248 507.75,-267.25"/>
<text text-anchor="middle" x="428.5" y="-253.75" font-family="Helvetica,sans-Serif" font-size="10.00">Nuki::NukiBle::cmdStateMachine</text>
</a>
</g>
</g>
<!-- Node2&#45;&gt;Node9 -->
<g id="edge11_Node000002_Node000009" class="edge">
<title>Node2&#45;&gt;Node9</title>
<g id="a_edge11_Node000002_Node000009"><a xlink:title=" ">
<path fill="none" stroke="#63b8ff" d="M252.63,-181.52C272.52,-196.06 311.93,-223.15 349.25,-238.62 354.44,-240.78 359.94,-242.73 365.51,-244.48"/>
<polygon fill="#63b8ff" stroke="#63b8ff" points="364.22,-247.75 374.8,-247.18 366.18,-241.03 364.22,-247.75"/>
</a>
</g>
</g>
<!-- Node10 -->
<g id="Node000010" class="node">
<title>Node10</title>
<g id="a_Node000010"><a xlink:href="class_nuki_1_1_nuki_ble.html#a050f54fbfcea03dc5238e8c66a7e89ca" target="_top" xlink:title="Returns pairing state (if credentials are stored or not)">
<polygon fill="white" stroke="#666666" points="506.62,-95.25 350.38,-95.25 350.38,-76 506.62,-76 506.62,-95.25"/>
<text text-anchor="middle" x="428.5" y="-81.75" font-family="Helvetica,sans-Serif" font-size="10.00">Nuki::NukiBle::isPairedWithLock</text>
</a>
</g>
</g>
<!-- Node2&#45;&gt;Node10 -->
<g id="edge16_Node000002_Node000010" class="edge">
<title>Node2&#45;&gt;Node10</title>
<g id="a_edge16_Node000002_Node000010"><a xlink:title=" ">
<path fill="none" stroke="#63b8ff" d="M297.92,-161.51C303.32,-159.37 308.54,-156.77 313.25,-153.62 335.73,-138.63 326.76,-119.61 349.25,-104.62 351.64,-103.03 354.16,-101.57 356.75,-100.23"/>
<polygon fill="#63b8ff" stroke="#63b8ff" points="358.01,-103.51 365.74,-96.27 355.18,-97.1 358.01,-103.51"/>
</a>
</g>
</g>
<!-- Node3&#45;&gt;Node4 -->
<g id="edge3_Node000003_Node000004" class="edge">
<title>Node3&#45;&gt;Node4</title>
<g id="a_edge3_Node000003_Node000004"><a xlink:title=" ">
<path fill="none" stroke="#63b8ff" d="M497.64,-214.27C508.79,-214.21 520.47,-214.15 532.03,-214.09"/>
<polygon fill="#63b8ff" stroke="#63b8ff" points="532.03,-217.59 542.01,-214.04 531.99,-210.59 532.03,-217.59"/>
</a>
</g>
</g>
<!-- Node3&#45;&gt;Node5 -->
<g id="edge4_Node000003_Node000005" class="edge">
<title>Node3&#45;&gt;Node5</title>
<g id="a_edge4_Node000003_Node000005"><a xlink:title=" ">
<path fill="none" stroke="#63b8ff" d="M493.62,-198.91C518.13,-192.9 545.77,-186.13 569.04,-180.42"/>
<polygon fill="#63b8ff" stroke="#63b8ff" points="569.73,-183.86 578.61,-178.08 568.06,-177.06 569.73,-183.86"/>
</a>
</g>
</g>
<!-- Node3&#45;&gt;Node6 -->
<g id="edge5_Node000003_Node000006" class="edge">
<title>Node3&#45;&gt;Node6</title>
<g id="a_edge5_Node000003_Node000006"><a xlink:title=" ">
<path fill="none" stroke="#63b8ff" d="M497.64,-229.91C519.73,-234.86 543.95,-240.29 565.07,-245.03"/>
<polygon fill="#63b8ff" stroke="#63b8ff" points="564.11,-248.4 574.64,-247.17 565.65,-241.57 564.11,-248.4"/>
</a>
</g>
</g>
<!-- Node7&#45;&gt;Node4 -->
<g id="edge7_Node000007_Node000004" class="edge">
<title>Node7&#45;&gt;Node4</title>
<g id="a_edge7_Node000007_Node000004"><a xlink:title=" ">
<path fill="none" stroke="#63b8ff" d="M479.43,-144.37C489.08,-148.18 498.93,-152.62 507.75,-157.62 525.62,-167.77 525.79,-176.65 543.75,-186.62 548.34,-189.17 553.21,-191.54 558.18,-193.74"/>
<polygon fill="#63b8ff" stroke="#63b8ff" points="556.51,-196.83 567.09,-197.42 559.19,-190.36 556.51,-196.83"/>
</a>
</g>
</g>
<!-- Node7&#45;&gt;Node5 -->
<g id="edge9_Node000007_Node000005" class="edge">
<title>Node7&#45;&gt;Node5</title>
<g id="a_edge9_Node000007_Node000005"><a xlink:title=" ">
<path fill="none" stroke="#63b8ff" d="M500.63,-143.09C520.23,-147.08 541.31,-151.37 560.27,-155.22"/>
<polygon fill="#63b8ff" stroke="#63b8ff" points="559.49,-158.64 569.99,-157.2 560.89,-151.78 559.49,-158.64"/>
</a>
</g>
</g>
<!-- Node7&#45;&gt;Node6 -->
<g id="edge10_Node000007_Node000006" class="edge">
<title>Node7&#45;&gt;Node6</title>
<g id="a_edge10_Node000007_Node000006"><a xlink:title=" ">
<path fill="none" stroke="#63b8ff" d="M452.31,-144.37C468.61,-156.16 490.61,-173.2 507.75,-190.62 526.2,-209.38 521.81,-223.1 543.75,-237.62 546.82,-239.66 550.09,-241.48 553.47,-243.13"/>
<polygon fill="#63b8ff" stroke="#63b8ff" points="551.95,-246.28 562.53,-246.93 554.66,-239.83 551.95,-246.28"/>
</a>
</g>
</g>
<!-- Node8 -->
<g id="Node000008" class="node">
<title>Node8</title>
<g id="a_Node000008"><a xlink:href="class_nuki_1_1_nuki_ble.html#a25207bb564a4b54b8dd8c872177b53a7" target="_top" xlink:title="Returns if BLE is pairing/paired/connected with a Smart Lock Ultra.">
<polygon fill="white" stroke="#666666" points="687.25,-138.25 557.25,-138.25 557.25,-119 687.25,-119 687.25,-138.25"/>
<text text-anchor="middle" x="622.25" y="-124.75" font-family="Helvetica,sans-Serif" font-size="10.00">Nuki::NukiBle::isLockUltra</text>
</a>
</g>
</g>
<!-- Node7&#45;&gt;Node8 -->
<g id="edge8_Node000007_Node000008" class="edge">
<title>Node7&#45;&gt;Node8</title>
<g id="a_edge8_Node000007_Node000008"><a xlink:title=" ">
<path fill="none" stroke="#63b8ff" d="M500.63,-128.62C515.32,-128.62 530.85,-128.62 545.69,-128.62"/>
<polygon fill="#63b8ff" stroke="#63b8ff" points="545.37,-132.13 555.37,-128.63 545.37,-125.13 545.37,-132.13"/>
</a>
</g>
</g>
<!-- Node9&#45;&gt;Node4 -->
<g id="edge12_Node000009_Node000004" class="edge">
<title>Node9&#45;&gt;Node4</title>
<g id="a_edge12_Node000009_Node000004"><a xlink:title=" ">
<path fill="none" stroke="#63b8ff" d="M473.49,-247.53C493.73,-242.89 518.38,-237.23 541.7,-231.88"/>
<polygon fill="#63b8ff" stroke="#63b8ff" points="542.22,-235.35 551.18,-229.7 540.65,-228.53 542.22,-235.35"/>
</a>
</g>
</g>
<!-- Node9&#45;&gt;Node5 -->
<g id="edge13_Node000009_Node000005" class="edge">
<title>Node9&#45;&gt;Node5</title>
<g id="a_edge13_Node000009_Node000005"><a xlink:title=" ">
<path fill="none" stroke="#63b8ff" d="M489.87,-247.6C496.18,-245.21 502.28,-242.27 507.75,-238.62 530.24,-223.64 521.55,-205.04 543.75,-189.62 547.93,-186.72 552.5,-184.2 557.25,-182"/>
<polygon fill="#63b8ff" stroke="#63b8ff" points="558.5,-185.27 566.46,-178.28 555.88,-178.78 558.5,-185.27"/>
</a>
</g>
</g>
<!-- Node9&#45;&gt;Node6 -->
<g id="edge14_Node000009_Node000006" class="edge">
<title>Node9&#45;&gt;Node6</title>
<g id="a_edge14_Node000009_Node000006"><a xlink:title=" ">
<path fill="none" stroke="#63b8ff" d="M508.05,-257.62C517.63,-257.62 527.46,-257.62 537.13,-257.62"/>
<polygon fill="#63b8ff" stroke="#63b8ff" points="536.87,-261.13 546.87,-257.63 536.87,-254.13 536.87,-261.13"/>
</a>
</g>
</g>
<!-- Node12 -->
<g id="Node000012" class="node">
<title>Node12</title>
<g id="a_Node000012"><a xlink:href="namespace_nuki_lock.html#af6ebff0f8c6c0cb27a927a440812c02a" target="_top" xlink:title=" ">
<polygon fill="white" stroke="#666666" points="493.5,-19.25 363.5,-19.25 363.5,0 493.5,0 493.5,-19.25"/>
<text text-anchor="middle" x="428.5" y="-5.75" font-family="Helvetica,sans-Serif" font-size="10.00">NukiLock::logMessageVar</text>
</a>
</g>
</g>
<!-- Node11&#45;&gt;Node12 -->
<g id="edge21_Node000011_Node000012" class="edge">
<title>Node11&#45;&gt;Node12</title>
<g id="a_edge21_Node000011_Node000012"><a xlink:title=" ">
<path fill="none" stroke="#63b8ff" d="M300.89,-124.55C305.33,-122.38 309.52,-119.77 313.25,-116.62 343.99,-90.71 319.28,-60.43 349.25,-33.62 353.28,-30.03 357.83,-26.97 362.67,-24.37"/>
<polygon fill="#63b8ff" stroke="#63b8ff" points="363.92,-27.64 371.54,-20.28 360.99,-21.28 363.92,-27.64"/>
</a>
</g>
</g>
</g>
</svg>
