<?xml version="1.0" encoding="UTF-8" standalone="no"?>
<!DOCTYPE svg PUBLIC "-//W3C//DTD SVG 1.1//EN"
 "http://www.w3.org/Graphics/SVG/1.1/DTD/svg11.dtd">
<!-- Generated by graphviz version 5.0.1 (20220820.1526)
 -->
<!-- Title: Nuki::NukiBle::setSecurityPin Pages: 1 -->
<svg width="615pt" height="186pt"
 viewBox="0.00 0.00 615.00 186.00" xmlns="http://www.w3.org/2000/svg" xmlns:xlink="http://www.w3.org/1999/xlink">
<g id="graph0" class="graph" transform="scale(1 1) rotate(0) translate(4 182)">
<title>Nuki::NukiBle::setSecurityPin</title>
<!-- Node1 -->
<g id="node1" class="node">
<title>Node1</title>
<g id="a_node1"><a xlink:title="Send the new pincode command to the lock via BLE (this command uses the earlier by saveSecurityPincod...">
<polygon fill="#999999" stroke="#666666" points="172,-96.5 0,-96.5 0,-75.5 172,-75.5 172,-96.5"/>
<text text-anchor="middle" x="86" y="-82.9" font-family="Helvetica,sans-Serif" font-size="12.00">Nuki::NukiBle::setSecurityPin</text>
</a>
</g>
</g>
<!-- Node2 -->
<g id="node2" class="node">
<title>Node2</title>
<g id="a_node2"><a xlink:href="class_nuki_1_1_nuki_ble.html#af1f1e299e8d97e053bba80e92ba285d6" target="_top" xlink:title=" ">
<polygon fill="white" stroke="#666666" points="379,-96.5 208,-96.5 208,-75.5 379,-75.5 379,-96.5"/>
<text text-anchor="middle" x="293.5" y="-82.9" font-family="Helvetica,sans-Serif" font-size="12.00">Nuki::NukiBle::executeAction</text>
</a>
</g>
</g>
<!-- Node1&#45;&gt;Node2 -->
<g id="edge1" class="edge">
<title>Node1&#45;&gt;Node2</title>
<path fill="none" stroke="#63b8ff" d="M172.07,-86C180.56,-86 189.22,-86 197.8,-86"/>
<polygon fill="#63b8ff" stroke="#63b8ff" points="197.83,-89.5 207.83,-86 197.83,-82.5 197.83,-89.5"/>
</g>
<!-- Node3 -->
<g id="node3" class="node">
<title>Node3</title>
<g id="a_node3"><a xlink:href="class_nuki_1_1_nuki_ble.html#ada0f3beebd95d35c122e25dd3f9eb886" target="_top" xlink:title=" ">
<polygon fill="white" stroke="#666666" points="593,-178 429,-178 429,-144 593,-144 593,-178"/>
<text text-anchor="start" x="437" y="-164.4" font-family="Helvetica,sans-Serif" font-size="12.00">Nuki::NukiBle::cmdChallAcc</text>
<text text-anchor="middle" x="511" y="-151.4" font-family="Helvetica,sans-Serif" font-size="12.00">StateMachine</text>
</a>
</g>
</g>
<!-- Node2&#45;&gt;Node3 -->
<g id="edge2" class="edge">
<title>Node2&#45;&gt;Node3</title>
<path fill="none" stroke="#63b8ff" d="M318.19,-96.61C342.26,-107.16 380.78,-123.4 415,-135 421.06,-137.05 427.37,-139.06 433.74,-140.99"/>
<polygon fill="#63b8ff" stroke="#63b8ff" points="433.18,-144.48 443.77,-143.96 435.17,-137.77 433.18,-144.48"/>
</g>
<!-- Node4 -->
<g id="node4" class="node">
<title>Node4</title>
<g id="a_node4"><a xlink:href="class_nuki_1_1_nuki_ble.html#a59169a9f492793762e3c6ba39b611b07" target="_top" xlink:title=" ">
<polygon fill="white" stroke="#666666" points="597,-126 425,-126 425,-92 597,-92 597,-126"/>
<text text-anchor="start" x="433" y="-112.4" font-family="Helvetica,sans-Serif" font-size="12.00">Nuki::NukiBle::cmdChallState</text>
<text text-anchor="middle" x="511" y="-99.4" font-family="Helvetica,sans-Serif" font-size="12.00">Machine</text>
</a>
</g>
</g>
<!-- Node2&#45;&gt;Node4 -->
<g id="edge3" class="edge">
<title>Node2&#45;&gt;Node4</title>
<path fill="none" stroke="#63b8ff" d="M379.05,-95.02C390.84,-96.28 403.03,-97.58 414.99,-98.86"/>
<polygon fill="#63b8ff" stroke="#63b8ff" points="414.67,-102.35 424.98,-99.93 415.41,-95.38 414.67,-102.35"/>
</g>
<!-- Node5 -->
<g id="node5" class="node">
<title>Node5</title>
<g id="a_node5"><a xlink:href="class_nuki_1_1_nuki_ble.html#ad135bb1455665decfddff67772c1d411" target="_top" xlink:title=" ">
<polygon fill="white" stroke="#666666" points="607,-73.5 415,-73.5 415,-52.5 607,-52.5 607,-73.5"/>
<text text-anchor="middle" x="511" y="-59.9" font-family="Helvetica,sans-Serif" font-size="12.00">Nuki::NukiBle::cmdStateMachine</text>
</a>
</g>
</g>
<!-- Node2&#45;&gt;Node5 -->
<g id="edge4" class="edge">
<title>Node2&#45;&gt;Node5</title>
<path fill="none" stroke="#63b8ff" d="M379.05,-76.98C387.53,-76.07 396.2,-75.15 404.86,-74.22"/>
<polygon fill="#63b8ff" stroke="#63b8ff" points="405.42,-77.68 414.99,-73.14 404.68,-70.72 405.42,-77.68"/>
</g>
<!-- Node6 -->
<g id="node6" class="node">
<title>Node6</title>
<g id="a_node6"><a xlink:href="class_nuki_1_1_nuki_ble.html#aed01f10d1ffa769f0f6fadc0d06d328e" target="_top" xlink:title=" ">
<polygon fill="white" stroke="#666666" points="603.5,-34 418.5,-34 418.5,0 603.5,0 603.5,-34"/>
<text text-anchor="start" x="426.5" y="-20.4" font-family="Helvetica,sans-Serif" font-size="12.00">Nuki::NukiBle::extendDisonnect</text>
<text text-anchor="middle" x="511" y="-7.4" font-family="Helvetica,sans-Serif" font-size="12.00">Timeout</text>
</a>
</g>
</g>
<!-- Node2&#45;&gt;Node6 -->
<g id="edge5" class="edge">
<title>Node2&#45;&gt;Node6</title>
<path fill="none" stroke="#63b8ff" d="M323.56,-75.34C347.87,-66.54 383.52,-53.95 415,-44 422.56,-41.61 430.48,-39.21 438.39,-36.87"/>
<polygon fill="#63b8ff" stroke="#63b8ff" points="439.4,-40.22 448.01,-34.05 437.43,-33.5 439.4,-40.22"/>
</g>
</g>
</svg>
