<?xml version="1.0" encoding="UTF-8" standalone="no"?>
<!DOCTYPE svg PUBLIC "-//W3C//DTD SVG 1.1//EN"
 "http://www.w3.org/Graphics/SVG/1.1/DTD/svg11.dtd">
<!-- Generated by graphviz version 12.2.1 (20241206.2353)
 -->
<!-- Title: NukiLock::NukiLock::addTimeControlEntry Pages: 1 -->
<!--zoomable 342 -->

<svg id="main" version="1.1" xmlns="http://www.w3.org/2000/svg" xmlns:xlink="http://www.w3.org/1999/xlink" xml:space="preserve" onload="init(evt)">

<style type="text/css"><![CDATA[
.node, .edge {opacity: 0.7;}
.node.selected, .edge.selected {opacity: 1;}
.edge:hover path { stroke: red; }
.edge:hover polygon { stroke: red; fill: red; }
]]></style>

<defs>
  <circle id="rim" cx="0" cy="0" r="7"/>
  <circle id="rim2" cx="0" cy="0" r="3.5"/>
  <g id="zoomPlus">
    <use xlink:href="#rim" fill="#404040"><set attributeName="fill" to="#808080" begin="zoomplus.mouseover" end="zoomplus.mouseout"/></use>
    <path d="M-4,0h8M0,-4v8" fill="none" stroke="white" stroke-width="1.5" pointer-events="none"/>
  </g>
  <g id="zoomMin">
    <use xlink:href="#rim" fill="#404040"><set attributeName="fill" to="#808080" begin="zoomminus.mouseover" end="zoomminus.mouseout"/></use>
    <path d="M-4,0h8" fill="none" stroke="white" stroke-width="1.5" pointer-events="none"/>
  </g>
  <g id="arrowUp" transform="translate(30 24)">
    <use xlink:href="#rim"/>
    <path pointer-events="none" fill="none" stroke="white" stroke-width="1.5" d="M0,-3.0v7 M-2.5,-0.5L0,-3.0L2.5,-0.5"/>
  </g>
  <g id="arrowRight" transform="rotate(90) translate(36 -43)">
    <use xlink:href="#rim"/>
    <path pointer-events="none" fill="none" stroke="white" stroke-width="1.5" d="M0,-3.0v7 M-2.5,-0.5L0,-3.0L2.5,-0.5"/>
  </g>
  <g id="arrowDown" transform="rotate(180) translate(-30 -48)">
    <use xlink:href="#rim"/>
    <path pointer-events="none" fill="none" stroke="white" stroke-width="1.5" d="M0,-3.0v7 M-2.5,-0.5L0,-3.0L2.5,-0.5"/>
  </g>
  <g id="arrowLeft" transform="rotate(270) translate(-36 17)">
    <use xlink:href="#rim"/>
    <path pointer-events="none" fill="none" stroke="white" stroke-width="1.5" d="M0,-3.0v7 M-2.5,-0.5L0,-3.0L2.5,-0.5"/>
  </g>
  <g id="resetDef">
    <use xlink:href="#rim2" fill="#404040"><set attributeName="fill" to="#808080" begin="reset.mouseover" end="reset.mouseout"/></use>
  </g>
</defs>
<script type="application/ecmascript">
var viewWidth = 690;
var viewHeight = 342;
var sectionId = 'dynsection-3';
</script>
<script type="application/ecmascript" xlink:href="svg.min.js"/>
<svg id="graph" class="graph">
<g id="viewport">
<title>NukiLock::NukiLock::addTimeControlEntry</title>
<!-- Node1 -->
<g id="Node000001" class="node">
<title>Node1</title>
<g id="a_Node000001"><a xlink:title="Sends a new time(d) control entry via BLE to the lock. This entry is independant of keypad or authori...">
<polygon fill="#999999" stroke="#666666" points="110.5,-88.88 0,-88.88 0,-58.38 110.5,-58.38 110.5,-88.88"/>
<text text-anchor="start" x="8" y="-75.38" font-family="Helvetica,sans-Serif" font-size="10.00">NukiLock::NukiLock</text>
<text text-anchor="middle" x="55.25" y="-64.12" font-family="Helvetica,sans-Serif" font-size="10.00">::addTimeControlEntry</text>
</a>
</g>
</g>
<!-- Node2 -->
<g id="Node000002" class="node">
<title>Node2</title>
<g id="a_Node000002"><a xlink:href="class_nuki_1_1_nuki_ble.html#af1f1e299e8d97e053bba80e92ba285d6" target="_top" xlink:title=" ">
<polygon fill="white" stroke="#666666" points="291.12,-207.25 149.88,-207.25 149.88,-188 291.12,-188 291.12,-207.25"/>
<text text-anchor="middle" x="220.5" y="-193.75" font-family="Helvetica,sans-Serif" font-size="10.00">Nuki::NukiBle::executeAction</text>
</a>
</g>
</g>
<!-- Node1&#45;&gt;Node2 -->
<g id="edge1_Node000001_Node000002" class="edge">
<title>Node1&#45;&gt;Node2</title>
<g id="a_edge1_Node000001_Node000002"><a xlink:title=" ">
<path fill="none" stroke="#63b8ff" d="M76.93,-89.33C107.87,-112.84 165.97,-156.97 197.61,-181"/>
<polygon fill="#63b8ff" stroke="#63b8ff" points="195.24,-183.59 205.32,-186.85 199.47,-178.02 195.24,-183.59"/>
</a>
</g>
</g>
<!-- Node11 -->
<g id="Node000011" class="node">
<title>Node11</title>
<g id="a_Node000011"><a xlink:href="namespace_nuki_lock.html#af6ebff0f8c6c0cb27a927a440812c02a" target="_top" xlink:title=" ">
<polygon fill="white" stroke="#666666" points="474.75,-62.25 344.75,-62.25 344.75,-43 474.75,-43 474.75,-62.25"/>
<text text-anchor="middle" x="409.75" y="-48.75" font-family="Helvetica,sans-Serif" font-size="10.00">NukiLock::logMessageVar</text>
</a>
</g>
</g>
<!-- Node1&#45;&gt;Node11 -->
<g id="edge19_Node000001_Node000011" class="edge">
<title>Node1&#45;&gt;Node11</title>
<g id="a_edge19_Node000001_Node000011"><a xlink:title=" ">
<path fill="none" stroke="#63b8ff" d="M110.65,-75.73C122.47,-76.1 134.9,-76.43 146.5,-76.62 212.27,-77.72 229.07,-83.42 294.5,-76.62 316,-74.39 339.42,-69.85 359.42,-65.32"/>
<polygon fill="#63b8ff" stroke="#63b8ff" points="360.04,-68.77 368.98,-63.08 358.45,-61.95 360.04,-68.77"/>
</a>
</g>
</g>
<!-- Node12 -->
<g id="Node000012" class="node">
<title>Node12</title>
<g id="a_Node000012"><a xlink:href="namespace_nuki_lock.html#a765365aab0b5b13b9bab3076326b877e" target="_top" xlink:title=" ">
<polygon fill="white" stroke="#666666" points="294.5,-67.88 146.5,-67.88 146.5,-37.38 294.5,-37.38 294.5,-67.88"/>
<text text-anchor="start" x="154.5" y="-54.38" font-family="Helvetica,sans-Serif" font-size="10.00">NukiLock::logNewTimeControl</text>
<text text-anchor="middle" x="220.5" y="-43.12" font-family="Helvetica,sans-Serif" font-size="10.00">Entry</text>
</a>
</g>
</g>
<!-- Node1&#45;&gt;Node12 -->
<g id="edge20_Node000001_Node000012" class="edge">
<title>Node1&#45;&gt;Node12</title>
<g id="a_edge20_Node000001_Node000012"><a xlink:title=" ">
<path fill="none" stroke="#63b8ff" d="M110.61,-66.63C118.45,-65.62 126.68,-64.57 134.94,-63.5"/>
<polygon fill="#63b8ff" stroke="#63b8ff" points="135.23,-66.99 144.7,-62.25 134.33,-60.05 135.23,-66.99"/>
</a>
</g>
</g>
<!-- Node13 -->
<g id="Node000013" class="node">
<title>Node13</title>
<g id="a_Node000013"><a xlink:href="namespace_nuki.html#a438fdfcef9f81eb0a3e493631b71ca5b" target="_top" xlink:title=" ">
<polygon fill="white" stroke="#666666" points="263,-19.25 178,-19.25 178,0 263,0 263,-19.25"/>
<text text-anchor="middle" x="220.5" y="-5.75" font-family="Helvetica,sans-Serif" font-size="10.00">Nuki::printBuffer</text>
</a>
</g>
</g>
<!-- Node1&#45;&gt;Node13 -->
<g id="edge22_Node000001_Node000013" class="edge">
<title>Node1&#45;&gt;Node13</title>
<g id="a_edge22_Node000001_Node000013"><a xlink:title=" ">
<path fill="none" stroke="#63b8ff" d="M84.03,-57.89C101.54,-48.45 124.86,-36.74 146.5,-28.62 153.02,-26.18 159.98,-23.93 166.91,-21.91"/>
<polygon fill="#63b8ff" stroke="#63b8ff" points="167.57,-25.36 176.27,-19.31 165.69,-18.61 167.57,-25.36"/>
</a>
</g>
</g>
<!-- Node3 -->
<g id="Node000003" class="node">
<title>Node3</title>
<g id="a_Node000003"><a xlink:href="class_nuki_1_1_nuki_ble.html#ada0f3beebd95d35c122e25dd3f9eb886" target="_top" xlink:title=" ">
<polygon fill="white" stroke="#666666" points="478.5,-234.88 341,-234.88 341,-204.38 478.5,-204.38 478.5,-234.88"/>
<text text-anchor="start" x="349" y="-221.38" font-family="Helvetica,sans-Serif" font-size="10.00">Nuki::NukiBle::cmdChallAcc</text>
<text text-anchor="middle" x="409.75" y="-210.12" font-family="Helvetica,sans-Serif" font-size="10.00">StateMachine</text>
</a>
</g>
</g>
<!-- Node2&#45;&gt;Node3 -->
<g id="edge2_Node000002_Node000003" class="edge">
<title>Node2&#45;&gt;Node3</title>
<g id="a_edge2_Node000002_Node000003"><a xlink:title=" ">
<path fill="none" stroke="#63b8ff" d="M291.49,-205.85C303.82,-207.3 316.73,-208.81 329.29,-210.29"/>
<polygon fill="#63b8ff" stroke="#63b8ff" points="328.86,-213.76 339.21,-211.45 329.68,-206.81 328.86,-213.76"/>
</a>
</g>
</g>
<!-- Node4 -->
<g id="Node000004" class="node">
<title>Node4</title>
<g id="a_Node000004"><a xlink:href="class_nuki_1_1_nuki_ble.html#a6e8fca90c04249660dce6cb993eb4495" target="_top" xlink:title=" ">
<polygon fill="white" stroke="#666666" points="682,-232.88 525,-232.88 525,-202.38 682,-202.38 682,-232.88"/>
<text text-anchor="start" x="533" y="-219.38" font-family="Helvetica,sans-Serif" font-size="10.00">Nuki::NukiBle::extendDisconnect</text>
<text text-anchor="middle" x="603.5" y="-208.12" font-family="Helvetica,sans-Serif" font-size="10.00">Timeout</text>
</a>
</g>
</g>
<!-- Node2&#45;&gt;Node4 -->
<g id="edge15_Node000002_Node000004" class="edge">
<title>Node2&#45;&gt;Node4</title>
<g id="a_edge15_Node000002_Node000004"><a xlink:title=" ">
<path fill="none" stroke="#63b8ff" d="M291.51,-193.17C345.58,-190.67 422.2,-189.21 489,-195.62 499.53,-196.64 510.53,-198.16 521.37,-199.95"/>
<polygon fill="#63b8ff" stroke="#63b8ff" points="520.63,-203.37 531.08,-201.64 521.83,-196.48 520.63,-203.37"/>
</a>
</g>
</g>
<!-- Node5 -->
<g id="Node000005" class="node">
<title>Node5</title>
<g id="a_Node000005"><a xlink:href="class_nuki_1_1_nuki_ble.html#ac7ce691d9c3e586474655d1663eb2e20" target="_top" xlink:title=" ">
<polygon fill="white" stroke="#666666" points="669.62,-183.25 537.38,-183.25 537.38,-164 669.62,-164 669.62,-183.25"/>
<text text-anchor="middle" x="603.5" y="-169.75" font-family="Helvetica,sans-Serif" font-size="10.00">Nuki::NukiBle::logMessage</text>
</a>
</g>
</g>
<!-- Node2&#45;&gt;Node5 -->
<g id="edge17_Node000002_Node000005" class="edge">
<title>Node2&#45;&gt;Node5</title>
<g id="a_edge17_Node000002_Node000005"><a xlink:title=" ">
<path fill="none" stroke="#63b8ff" d="M229.5,-187.71C245.95,-168.21 285.78,-125.42 330.5,-109.62 396.92,-86.16 425.17,-79.82 489,-109.62 511.58,-120.17 504.01,-139.19 525,-152.62 529.03,-155.2 533.37,-157.47 537.87,-159.46"/>
<polygon fill="#63b8ff" stroke="#63b8ff" points="536.57,-162.71 547.16,-163.06 539.11,-156.18 536.57,-162.71"/>
</a>
</g>
</g>
<!-- Node6 -->
<g id="Node000006" class="node">
<title>Node6</title>
<g id="a_Node000006"><a xlink:href="class_nuki_1_1_nuki_ble.html#af3650133f46aeca48a5f01b95d23ab71" target="_top" xlink:title=" ">
<polygon fill="white" stroke="#666666" points="677.12,-289.25 529.88,-289.25 529.88,-270 677.12,-270 677.12,-289.25"/>
<text text-anchor="middle" x="603.5" y="-275.75" font-family="Helvetica,sans-Serif" font-size="10.00">Nuki::NukiBle::logMessageVar</text>
</a>
</g>
</g>
<!-- Node2&#45;&gt;Node6 -->
<g id="edge18_Node000002_Node000006" class="edge">
<title>Node2&#45;&gt;Node6</title>
<g id="a_edge18_Node000002_Node000006"><a xlink:title=" ">
<path fill="none" stroke="#63b8ff" d="M226.64,-207.67C239.88,-232.26 277.81,-295.17 330.5,-318.62 412.28,-355.03 520.32,-317.11 572.18,-294.26"/>
<polygon fill="#63b8ff" stroke="#63b8ff" points="573.32,-297.59 580.98,-290.28 570.43,-291.21 573.32,-297.59"/>
</a>
</g>
</g>
<!-- Node7 -->
<g id="Node000007" class="node">
<title>Node7</title>
<g id="a_Node000007"><a xlink:href="class_nuki_1_1_nuki_ble.html#a59169a9f492793762e3c6ba39b611b07" target="_top" xlink:title=" ">
<polygon fill="white" stroke="#666666" points="481.5,-148.88 338,-148.88 338,-118.38 481.5,-118.38 481.5,-148.88"/>
<text text-anchor="start" x="346" y="-135.38" font-family="Helvetica,sans-Serif" font-size="10.00">Nuki::NukiBle::cmdChallState</text>
<text text-anchor="middle" x="409.75" y="-124.12" font-family="Helvetica,sans-Serif" font-size="10.00">Machine</text>
</a>
</g>
</g>
<!-- Node2&#45;&gt;Node7 -->
<g id="edge6_Node000002_Node000007" class="edge">
<title>Node2&#45;&gt;Node7</title>
<g id="a_edge6_Node000002_Node000007"><a xlink:title=" ">
<path fill="none" stroke="#63b8ff" d="M250.76,-187.62C277.86,-178.36 318.91,-164.33 352.37,-152.89"/>
<polygon fill="#63b8ff" stroke="#63b8ff" points="353.18,-156.32 361.51,-149.77 350.92,-149.69 353.18,-156.32"/>
</a>
</g>
</g>
<!-- Node9 -->
<g id="Node000009" class="node">
<title>Node9</title>
<g id="a_Node000009"><a xlink:href="class_nuki_1_1_nuki_ble.html#ad135bb1455665decfddff67772c1d411" target="_top" xlink:title=" ">
<polygon fill="white" stroke="#666666" points="489,-309.25 330.5,-309.25 330.5,-290 489,-290 489,-309.25"/>
<text text-anchor="middle" x="409.75" y="-295.75" font-family="Helvetica,sans-Serif" font-size="10.00">Nuki::NukiBle::cmdStateMachine</text>
</a>
</g>
</g>
<!-- Node2&#45;&gt;Node9 -->
<g id="edge11_Node000002_Node000009" class="edge">
<title>Node2&#45;&gt;Node9</title>
<g id="a_edge11_Node000002_Node000009"><a xlink:title=" ">
<path fill="none" stroke="#63b8ff" d="M231.32,-207.63C249.3,-225.36 289.46,-262.24 330.5,-281.62 333.84,-283.2 337.33,-284.65 340.9,-285.97"/>
<polygon fill="#63b8ff" stroke="#63b8ff" points="339.74,-289.27 350.34,-289.1 341.95,-282.63 339.74,-289.27"/>
</a>
</g>
</g>
<!-- Node10 -->
<g id="Node000010" class="node">
<title>Node10</title>
<g id="a_Node000010"><a xlink:href="class_nuki_1_1_nuki_ble.html#a050f54fbfcea03dc5238e8c66a7e89ca" target="_top" xlink:title="Returns pairing state (if credentials are stored or not)">
<polygon fill="white" stroke="#666666" points="487.88,-272.25 331.62,-272.25 331.62,-253 487.88,-253 487.88,-272.25"/>
<text text-anchor="middle" x="409.75" y="-258.75" font-family="Helvetica,sans-Serif" font-size="10.00">Nuki::NukiBle::isPairedWithLock</text>
</a>
</g>
</g>
<!-- Node2&#45;&gt;Node10 -->
<g id="edge16_Node000002_Node000010" class="edge">
<title>Node2&#45;&gt;Node10</title>
<g id="a_edge16_Node000002_Node000010"><a xlink:title=" ">
<path fill="none" stroke="#63b8ff" d="M242.42,-207.65C264.08,-217.74 299.1,-233.26 330.5,-243.62 337.12,-245.81 344.13,-247.87 351.13,-249.76"/>
<polygon fill="#63b8ff" stroke="#63b8ff" points="350.04,-253.09 360.59,-252.21 351.79,-246.31 350.04,-253.09"/>
</a>
</g>
</g>
<!-- Node3&#45;&gt;Node4 -->
<g id="edge3_Node000003_Node000004" class="edge">
<title>Node3&#45;&gt;Node4</title>
<g id="a_edge3_Node000003_Node000004"><a xlink:title=" ">
<path fill="none" stroke="#63b8ff" d="M478.89,-218.91C490.04,-218.8 501.72,-218.68 513.28,-218.56"/>
<polygon fill="#63b8ff" stroke="#63b8ff" points="513.3,-222.06 523.26,-218.45 513.22,-215.06 513.3,-222.06"/>
</a>
</g>
</g>
<!-- Node3&#45;&gt;Node5 -->
<g id="edge4_Node000003_Node000005" class="edge">
<title>Node3&#45;&gt;Node5</title>
<g id="a_edge4_Node000003_Node000005"><a xlink:title=" ">
<path fill="none" stroke="#63b8ff" d="M476.2,-203.92C500.06,-198.2 526.71,-191.81 549.36,-186.37"/>
<polygon fill="#63b8ff" stroke="#63b8ff" points="550.09,-189.8 559,-184.06 548.46,-182.99 550.09,-189.8"/>
</a>
</g>
</g>
<!-- Node3&#45;&gt;Node6 -->
<g id="edge5_Node000003_Node000006" class="edge">
<title>Node3&#45;&gt;Node6</title>
<g id="a_edge5_Node000003_Node000006"><a xlink:title=" ">
<path fill="none" stroke="#63b8ff" d="M462.12,-235.31C471.09,-238.06 480.32,-240.92 489,-243.62 512.7,-251.02 539.13,-259.39 560.52,-266.21"/>
<polygon fill="#63b8ff" stroke="#63b8ff" points="559.18,-269.45 569.77,-269.15 561.3,-262.78 559.18,-269.45"/>
</a>
</g>
</g>
<!-- Node7&#45;&gt;Node4 -->
<g id="edge7_Node000007_Node000004" class="edge">
<title>Node7&#45;&gt;Node4</title>
<g id="a_edge7_Node000007_Node000004"><a xlink:title=" ">
<path fill="none" stroke="#63b8ff" d="M460.75,-149.26C470.4,-153.07 480.22,-157.54 489,-162.62 507.02,-173.06 506.76,-182.58 525,-192.62 528.16,-194.36 531.46,-196 534.83,-197.55"/>
<polygon fill="#63b8ff" stroke="#63b8ff" points="533.18,-200.65 543.76,-201.31 535.9,-194.2 533.18,-200.65"/>
</a>
</g>
</g>
<!-- Node7&#45;&gt;Node5 -->
<g id="edge9_Node000007_Node000005" class="edge">
<title>Node7&#45;&gt;Node5</title>
<g id="a_edge9_Node000007_Node000005"><a xlink:title=" ">
<path fill="none" stroke="#63b8ff" d="M481.88,-148.46C502.01,-152.66 523.71,-157.19 543.08,-161.23"/>
<polygon fill="#63b8ff" stroke="#63b8ff" points="542.2,-164.62 552.7,-163.24 543.63,-157.77 542.2,-164.62"/>
</a>
</g>
</g>
<!-- Node7&#45;&gt;Node6 -->
<g id="edge10_Node000007_Node000006" class="edge">
<title>Node7&#45;&gt;Node6</title>
<g id="a_edge10_Node000007_Node000006"><a xlink:title=" ">
<path fill="none" stroke="#63b8ff" d="M433.16,-149.17C449.47,-161 471.65,-178.17 489,-195.62 507.3,-214.04 504.83,-225.27 525,-241.62 536.66,-251.08 551.07,-258.96 564.29,-265.04"/>
<polygon fill="#63b8ff" stroke="#63b8ff" points="562.61,-268.13 573.17,-268.93 565.41,-261.71 562.61,-268.13"/>
</a>
</g>
</g>
<!-- Node8 -->
<g id="Node000008" class="node">
<title>Node8</title>
<g id="a_Node000008"><a xlink:href="class_nuki_1_1_nuki_ble.html#a25207bb564a4b54b8dd8c872177b53a7" target="_top" xlink:title="Returns if BLE is pairing/paired/connected with a Smart Lock Ultra.">
<polygon fill="white" stroke="#666666" points="668.5,-143.25 538.5,-143.25 538.5,-124 668.5,-124 668.5,-143.25"/>
<text text-anchor="middle" x="603.5" y="-129.75" font-family="Helvetica,sans-Serif" font-size="10.00">Nuki::NukiBle::isLockUltra</text>
</a>
</g>
</g>
<!-- Node7&#45;&gt;Node8 -->
<g id="edge8_Node000007_Node000008" class="edge">
<title>Node7&#45;&gt;Node8</title>
<g id="a_edge8_Node000007_Node000008"><a xlink:title=" ">
<path fill="none" stroke="#63b8ff" d="M481.88,-133.62C496.57,-133.62 512.1,-133.62 526.94,-133.62"/>
<polygon fill="#63b8ff" stroke="#63b8ff" points="526.62,-137.13 536.62,-133.63 526.62,-130.13 526.62,-137.13"/>
</a>
</g>
</g>
<!-- Node9&#45;&gt;Node4 -->
<g id="edge12_Node000009_Node000004" class="edge">
<title>Node9&#45;&gt;Node4</title>
<g id="a_edge12_Node000009_Node000004"><a xlink:title=" ">
<path fill="none" stroke="#63b8ff" d="M464.44,-289.54C472.79,-287.33 481.22,-284.7 489,-281.62 506.22,-274.8 508.9,-269.79 525,-260.62 537.77,-253.36 551.79,-245.53 564.36,-238.57"/>
<polygon fill="#63b8ff" stroke="#63b8ff" points="565.69,-241.84 572.75,-233.94 562.3,-235.71 565.69,-241.84"/>
</a>
</g>
</g>
<!-- Node9&#45;&gt;Node5 -->
<g id="edge13_Node000009_Node000005" class="edge">
<title>Node9&#45;&gt;Node5</title>
<g id="a_edge13_Node000009_Node000005"><a xlink:title=" ">
<path fill="none" stroke="#63b8ff" d="M476.7,-289.61C481.12,-287.42 485.28,-284.78 489,-281.62 521.2,-254.26 493.16,-221.41 525,-193.62 526.91,-191.95 528.95,-190.42 531.08,-189.01"/>
<polygon fill="#63b8ff" stroke="#63b8ff" points="532.53,-192.21 539.62,-184.34 529.16,-186.07 532.53,-192.21"/>
</a>
</g>
</g>
<!-- Node9&#45;&gt;Node6 -->
<g id="edge14_Node000009_Node000006" class="edge">
<title>Node9&#45;&gt;Node6</title>
<g id="a_edge14_Node000009_Node000006"><a xlink:title=" ">
<path fill="none" stroke="#63b8ff" d="M489.3,-291.43C498.88,-290.43 508.71,-289.41 518.38,-288.4"/>
<polygon fill="#63b8ff" stroke="#63b8ff" points="518.54,-291.9 528.13,-287.38 517.82,-284.94 518.54,-291.9"/>
</a>
</g>
</g>
<!-- Node12&#45;&gt;Node11 -->
<g id="edge21_Node000012_Node000011" class="edge">
<title>Node12&#45;&gt;Node11</title>
<g id="a_edge21_Node000012_Node000011"><a xlink:title=" ">
<path fill="none" stroke="#63b8ff" d="M294.97,-52.62C307.44,-52.62 320.42,-52.62 332.95,-52.62"/>
<polygon fill="#63b8ff" stroke="#63b8ff" points="332.79,-56.13 342.79,-52.63 332.79,-49.13 332.79,-56.13"/>
</a>
</g>
</g>
</g>
</svg>

<g id="navigator" transform="translate(0 0)" fill="#404254">
  <rect fill="#f2f5e9" fill-opacity="0.5" stroke="#606060" stroke-width=".5" x="0" y="0" width="60" height="60"/>
  <use id="zoomplus" xlink:href="#zoomPlus" x="17" y="9" onmousedown="handleZoom(evt,'in')"/>
  <use id="zoomminus" xlink:href="#zoomMin" x="42" y="9" onmousedown="handleZoom(evt,'out')"/>
  <use id="reset" xlink:href="#resetDef" x="30" y="36" onmousedown="handleReset()"/>
   <use id="arrowup" xlink:href="#arrowUp" x="0" y="0" onmousedown="handlePan(0,-1)"/>
  <use id="arrowright" xlink:href="#arrowRight" x="0" y="0" onmousedown="handlePan(1,0)"/>
  <use id="arrowdown" xlink:href="#arrowDown" x="0" y="0" onmousedown="handlePan(0,1)"/>
  <use id="arrowleft" xlink:href="#arrowLeft" x="0" y="0" onmousedown="handlePan(-1,0)"/>
</g>
<svg viewBox="0 0 15 15" width="100%" height="30px" preserveAspectRatio="xMaxYMin meet">
 <g id="arrow_out" transform="scale(0.3 0.3)">
  <a xlink:href="class_nuki_lock_1_1_nuki_lock_ae580874f09b745718bb40c263de51c6e_cgraph_org.svg" target="_base">
   <rect id="button" ry="5" rx="5" y="6" x="6" height="38" width="38"
        fill="#f2f5e9" fill-opacity="0.5" stroke="#606060" stroke-width="1.0"/>
   <path id="arrow"
     d="M 11.500037,31.436501 C 11.940474,20.09759 22.043105,11.32322 32.158766,21.979434 L 37.068811,17.246167 C 37.068811,17.246167 37.088388,32 37.088388,32 L 22.160133,31.978069 C 22.160133,31.978069 26.997745,27.140456 26.997745,27.140456 C 18.528582,18.264221 13.291696,25.230495 11.500037,31.436501 z"
     style="fill:#404040;"/>
  </a>
 </g>
</svg>

<style type='text/css'>
<![CDATA[
[data-mouse-over-selected='false'] { opacity: 0.7; }
[data-mouse-over-selected='true']  { opacity: 1.0; }
]]>
</style>
<script type="application/ecmascript"><![CDATA[
document.addEventListener('DOMContentLoaded', (event) => {
  highlightEdges();
  highlightAdjacentNodes();
});
]]></script>
</svg>
