<?xml version="1.0" encoding="UTF-8" standalone="no"?>
<!DOCTYPE svg PUBLIC "-//W3C//DTD SVG 1.1//EN"
 "http://www.w3.org/Graphics/SVG/1.1/DTD/svg11.dtd">
<!-- Generated by graphviz version 12.2.1 (20241206.2353)
 -->
<!-- Title: NukiLock::NukiLock::enableAutoBatteryTypeDetection Pages: 1 -->
<svg width="894pt" height="205pt"
 viewBox="0.00 0.00 894.25 204.75" xmlns="http://www.w3.org/2000/svg" xmlns:xlink="http://www.w3.org/1999/xlink">
<g id="graph0" class="graph" transform="scale(1 1) rotate(0) translate(4 200.75)">
<title>NukiLock::NukiLock::enableAutoBatteryTypeDetection</title>
<!-- Node1 -->
<g id="Node000001" class="node">
<title>Node1</title>
<g id="a_Node000001"><a xlink:title="Gets the current advanced config from the lock, updates the enable battery type detection parameter a...">
<polygon fill="#999999" stroke="#666666" points="162.25,-102.35 0,-102.35 0,-71.85 162.25,-71.85 162.25,-102.35"/>
<text text-anchor="start" x="8" y="-88.85" font-family="Helvetica,sans-Serif" font-size="10.00">NukiLock::NukiLock</text>
<text text-anchor="middle" x="81.12" y="-77.6" font-family="Helvetica,sans-Serif" font-size="10.00">::enableAutoBatteryTypeDetection</text>
</a>
</g>
</g>
<!-- Node2 -->
<g id="Node000002" class="node">
<title>Node2</title>
<g id="a_Node000002"><a xlink:href="class_nuki_lock_1_1_nuki_lock.html#aa882f9b3256313bbd45b4269f8c74521" target="_top" xlink:title="Requests advanced config from Lock via BLE.">
<polygon fill="white" stroke="#666666" points="321.5,-102.35 198.25,-102.35 198.25,-71.85 321.5,-71.85 321.5,-102.35"/>
<text text-anchor="start" x="206.25" y="-88.85" font-family="Helvetica,sans-Serif" font-size="10.00">NukiLock::NukiLock</text>
<text text-anchor="middle" x="259.88" y="-77.6" font-family="Helvetica,sans-Serif" font-size="10.00">::requestAdvancedConfig</text>
</a>
</g>
</g>
<!-- Node1&#45;&gt;Node2 -->
<g id="edge1_Node000001_Node000002" class="edge">
<title>Node1&#45;&gt;Node2</title>
<g id="a_edge1_Node000001_Node000002"><a xlink:title=" ">
<path fill="none" stroke="#63b8ff" d="M162.74,-87.1C170.69,-87.1 178.73,-87.1 186.59,-87.1"/>
<polygon fill="#63b8ff" stroke="#63b8ff" points="186.44,-90.6 196.44,-87.1 186.44,-83.6 186.44,-90.6"/>
</a>
</g>
</g>
<!-- Node3 -->
<g id="Node000003" class="node">
<title>Node3</title>
<g id="a_Node000003"><a xlink:href="class_nuki_1_1_nuki_ble.html#af1f1e299e8d97e053bba80e92ba285d6" target="_top" xlink:title=" ">
<polygon fill="white" stroke="#666666" points="498.75,-96.73 357.5,-96.73 357.5,-77.48 498.75,-77.48 498.75,-96.73"/>
<text text-anchor="middle" x="428.12" y="-83.23" font-family="Helvetica,sans-Serif" font-size="10.00">Nuki::NukiBle::executeAction</text>
</a>
</g>
</g>
<!-- Node2&#45;&gt;Node3 -->
<g id="edge2_Node000002_Node000003" class="edge">
<title>Node2&#45;&gt;Node3</title>
<g id="a_edge2_Node000002_Node000003"><a xlink:title=" ">
<path fill="none" stroke="#63b8ff" d="M321.84,-87.1C329.65,-87.1 337.74,-87.1 345.81,-87.1"/>
<polygon fill="#63b8ff" stroke="#63b8ff" points="345.66,-90.6 355.66,-87.1 345.66,-83.6 345.66,-90.6"/>
</a>
</g>
</g>
<!-- Node4 -->
<g id="Node000004" class="node">
<title>Node4</title>
<g id="a_Node000004"><a xlink:href="class_nuki_1_1_nuki_ble.html#ada0f3beebd95d35c122e25dd3f9eb886" target="_top" xlink:title=" ">
<polygon fill="white" stroke="#666666" points="682.75,-173.35 545.25,-173.35 545.25,-142.85 682.75,-142.85 682.75,-173.35"/>
<text text-anchor="start" x="553.25" y="-159.85" font-family="Helvetica,sans-Serif" font-size="10.00">Nuki::NukiBle::cmdChallAcc</text>
<text text-anchor="middle" x="614" y="-148.6" font-family="Helvetica,sans-Serif" font-size="10.00">StateMachine</text>
</a>
</g>
</g>
<!-- Node3&#45;&gt;Node4 -->
<g id="edge3_Node000003_Node000004" class="edge">
<title>Node3&#45;&gt;Node4</title>
<g id="a_edge3_Node000003_Node000004"><a xlink:title=" ">
<path fill="none" stroke="#63b8ff" d="M450.31,-97.09C471.45,-106.87 504.99,-121.9 534.75,-133.1 539.96,-135.06 545.39,-137 550.87,-138.89"/>
<polygon fill="#63b8ff" stroke="#63b8ff" points="549.36,-142.08 559.96,-141.95 551.6,-135.44 549.36,-142.08"/>
</a>
</g>
</g>
<!-- Node5 -->
<g id="Node000005" class="node">
<title>Node5</title>
<g id="a_Node000005"><a xlink:href="class_nuki_1_1_nuki_ble.html#a6e8fca90c04249660dce6cb993eb4495" target="_top" xlink:title=" ">
<polygon fill="white" stroke="#666666" points="886.25,-169.35 729.25,-169.35 729.25,-138.85 886.25,-138.85 886.25,-169.35"/>
<text text-anchor="start" x="737.25" y="-155.85" font-family="Helvetica,sans-Serif" font-size="10.00">Nuki::NukiBle::extendDisconnect</text>
<text text-anchor="middle" x="807.75" y="-144.6" font-family="Helvetica,sans-Serif" font-size="10.00">Timeout</text>
</a>
</g>
</g>
<!-- Node3&#45;&gt;Node5 -->
<g id="edge15_Node000003_Node000005" class="edge">
<title>Node3&#45;&gt;Node5</title>
<g id="a_edge15_Node000003_Node000005"><a xlink:title=" ">
<path fill="none" stroke="#63b8ff" d="M436.14,-97.14C451.29,-117.83 489.39,-164.7 534.75,-182.1 607.26,-209.91 698.17,-190.75 754.36,-173.28"/>
<polygon fill="#63b8ff" stroke="#63b8ff" points="755.22,-176.68 763.68,-170.29 753.08,-170.02 755.22,-176.68"/>
</a>
</g>
</g>
<!-- Node6 -->
<g id="Node000006" class="node">
<title>Node6</title>
<g id="a_Node000006"><a xlink:href="class_nuki_1_1_nuki_ble.html#ac7ce691d9c3e586474655d1663eb2e20" target="_top" xlink:title=" ">
<polygon fill="white" stroke="#666666" points="873.88,-78.73 741.62,-78.73 741.62,-59.48 873.88,-59.48 873.88,-78.73"/>
<text text-anchor="middle" x="807.75" y="-65.23" font-family="Helvetica,sans-Serif" font-size="10.00">Nuki::NukiBle::logMessage</text>
</a>
</g>
</g>
<!-- Node3&#45;&gt;Node6 -->
<g id="edge16_Node000003_Node000006" class="edge">
<title>Node3&#45;&gt;Node6</title>
<g id="a_edge16_Node000003_Node000006"><a xlink:title=" ">
<path fill="none" stroke="#63b8ff" d="M439.06,-77.03C456.53,-60.1 494.74,-26.58 534.75,-14.1 602,6.88 624.59,1.66 693.25,-14.1 725.86,-21.59 759.98,-39.73 782.19,-53.14"/>
<polygon fill="#63b8ff" stroke="#63b8ff" points="780.16,-56 790.5,-58.3 783.85,-50.06 780.16,-56"/>
</a>
</g>
</g>
<!-- Node7 -->
<g id="Node000007" class="node">
<title>Node7</title>
<g id="a_Node000007"><a xlink:href="class_nuki_1_1_nuki_ble.html#af3650133f46aeca48a5f01b95d23ab71" target="_top" xlink:title=" ">
<polygon fill="white" stroke="#666666" points="881.38,-116.73 734.12,-116.73 734.12,-97.48 881.38,-97.48 881.38,-116.73"/>
<text text-anchor="middle" x="807.75" y="-103.23" font-family="Helvetica,sans-Serif" font-size="10.00">Nuki::NukiBle::logMessageVar</text>
</a>
</g>
</g>
<!-- Node3&#45;&gt;Node7 -->
<g id="edge17_Node000003_Node000007" class="edge">
<title>Node3&#45;&gt;Node7</title>
<g id="a_edge17_Node000003_Node000007"><a xlink:title=" ">
<path fill="none" stroke="#63b8ff" d="M448.7,-77.03C493.93,-55.24 608.33,-8.66 693.25,-47.1 715.34,-57.1 708.52,-75.52 729.25,-88.1 732.18,-89.88 735.26,-91.49 738.44,-92.95"/>
<polygon fill="#63b8ff" stroke="#63b8ff" points="736.88,-96.09 747.47,-96.55 739.48,-89.59 736.88,-96.09"/>
</a>
</g>
</g>
<!-- Node8 -->
<g id="Node000008" class="node">
<title>Node8</title>
<g id="a_Node000008"><a xlink:href="class_nuki_1_1_nuki_ble.html#a59169a9f492793762e3c6ba39b611b07" target="_top" xlink:title=" ">
<polygon fill="white" stroke="#666666" points="685.75,-124.35 542.25,-124.35 542.25,-93.85 685.75,-93.85 685.75,-124.35"/>
<text text-anchor="start" x="550.25" y="-110.85" font-family="Helvetica,sans-Serif" font-size="10.00">Nuki::NukiBle::cmdChallState</text>
<text text-anchor="middle" x="614" y="-99.6" font-family="Helvetica,sans-Serif" font-size="10.00">Machine</text>
</a>
</g>
</g>
<!-- Node3&#45;&gt;Node8 -->
<g id="edge7_Node000003_Node000008" class="edge">
<title>Node3&#45;&gt;Node8</title>
<g id="a_edge7_Node000003_Node000008"><a xlink:title=" ">
<path fill="none" stroke="#63b8ff" d="M499.16,-95.48C509.45,-96.71 520.12,-97.99 530.63,-99.25"/>
<polygon fill="#63b8ff" stroke="#63b8ff" points="530.09,-102.71 540.43,-100.42 530.92,-95.76 530.09,-102.71"/>
</a>
</g>
</g>
<!-- Node9 -->
<g id="Node000009" class="node">
<title>Node9</title>
<g id="a_Node000009"><a xlink:href="class_nuki_1_1_nuki_ble.html#ad135bb1455665decfddff67772c1d411" target="_top" xlink:title=" ">
<polygon fill="white" stroke="#666666" points="693.25,-75.73 534.75,-75.73 534.75,-56.48 693.25,-56.48 693.25,-75.73"/>
<text text-anchor="middle" x="614" y="-62.23" font-family="Helvetica,sans-Serif" font-size="10.00">Nuki::NukiBle::cmdStateMachine</text>
</a>
</g>
</g>
<!-- Node3&#45;&gt;Node9 -->
<g id="edge11_Node000003_Node000009" class="edge">
<title>Node3&#45;&gt;Node9</title>
<g id="a_edge11_Node000003_Node000009"><a xlink:title=" ">
<path fill="none" stroke="#63b8ff" d="M499.16,-79.1C507.03,-78.21 515.12,-77.28 523.19,-76.36"/>
<polygon fill="#63b8ff" stroke="#63b8ff" points="523.51,-79.85 533.05,-75.23 522.72,-72.89 523.51,-79.85"/>
</a>
</g>
</g>
<!-- Node4&#45;&gt;Node5 -->
<g id="edge4_Node000004_Node000005" class="edge">
<title>Node4&#45;&gt;Node5</title>
<g id="a_edge4_Node000004_Node000005"><a xlink:title=" ">
<path fill="none" stroke="#63b8ff" d="M683.14,-156.68C694.29,-156.45 705.97,-156.2 717.53,-155.96"/>
<polygon fill="#63b8ff" stroke="#63b8ff" points="717.58,-159.46 727.51,-155.76 717.44,-152.46 717.58,-159.46"/>
</a>
</g>
</g>
<!-- Node4&#45;&gt;Node6 -->
<g id="edge5_Node000004_Node000006" class="edge">
<title>Node4&#45;&gt;Node6</title>
<g id="a_edge5_Node000004_Node000006"><a xlink:title=" ">
<path fill="none" stroke="#63b8ff" d="M676.47,-142.38C682.38,-139.73 688.08,-136.66 693.25,-133.1 714.35,-118.58 707.66,-101.89 729.25,-88.1 731.84,-86.45 734.57,-84.94 737.38,-83.56"/>
<polygon fill="#63b8ff" stroke="#63b8ff" points="738.66,-86.82 746.51,-79.7 735.94,-80.37 738.66,-86.82"/>
</a>
</g>
</g>
<!-- Node4&#45;&gt;Node7 -->
<g id="edge6_Node000004_Node000007" class="edge">
<title>Node4&#45;&gt;Node7</title>
<g id="a_edge6_Node000004_Node000007"><a xlink:title=" ">
<path fill="none" stroke="#63b8ff" d="M674.1,-142.38C700.94,-135.25 732.31,-126.9 757.8,-120.12"/>
<polygon fill="#63b8ff" stroke="#63b8ff" points="758.47,-123.56 767.24,-117.61 756.68,-116.8 758.47,-123.56"/>
</a>
</g>
</g>
<!-- Node8&#45;&gt;Node5 -->
<g id="edge8_Node000008_Node000005" class="edge">
<title>Node8&#45;&gt;Node5</title>
<g id="a_edge8_Node000008_Node000005"><a xlink:title=" ">
<path fill="none" stroke="#63b8ff" d="M682.06,-124.84C697.1,-128.37 713.18,-132.14 728.62,-135.77"/>
<polygon fill="#63b8ff" stroke="#63b8ff" points="727.71,-139.15 738.25,-138.03 729.31,-132.33 727.71,-139.15"/>
</a>
</g>
</g>
<!-- Node8&#45;&gt;Node6 -->
<g id="edge9_Node000008_Node000006" class="edge">
<title>Node8&#45;&gt;Node6</title>
<g id="a_edge9_Node000008_Node000006"><a xlink:title=" ">
<path fill="none" stroke="#63b8ff" d="M686.13,-94.26C706.26,-90.06 727.96,-85.54 747.33,-81.5"/>
<polygon fill="#63b8ff" stroke="#63b8ff" points="747.88,-84.96 756.95,-79.49 746.45,-78.11 747.88,-84.96"/>
</a>
</g>
</g>
<!-- Node8&#45;&gt;Node7 -->
<g id="edge10_Node000008_Node000007" class="edge">
<title>Node8&#45;&gt;Node7</title>
<g id="a_edge10_Node000008_Node000007"><a xlink:title=" ">
<path fill="none" stroke="#63b8ff" d="M686.13,-108.36C697.92,-108.24 710.25,-108.11 722.33,-107.98"/>
<polygon fill="#63b8ff" stroke="#63b8ff" points="722.34,-111.48 732.3,-107.88 722.26,-104.48 722.34,-111.48"/>
</a>
</g>
</g>
<!-- Node9&#45;&gt;Node5 -->
<g id="edge12_Node000009_Node000005" class="edge">
<title>Node9&#45;&gt;Node5</title>
<g id="a_edge12_Node000009_Node000005"><a xlink:title=" ">
<path fill="none" stroke="#63b8ff" d="M673.84,-76.18C680.64,-78.55 687.27,-81.48 693.25,-85.1 714,-97.66 709.21,-112.44 729.25,-126.1 733.35,-128.9 737.76,-131.45 742.33,-133.77"/>
<polygon fill="#63b8ff" stroke="#63b8ff" points="740.58,-136.82 751.12,-137.86 743.53,-130.47 740.58,-136.82"/>
</a>
</g>
</g>
<!-- Node9&#45;&gt;Node6 -->
<g id="edge13_Node000009_Node000006" class="edge">
<title>Node9&#45;&gt;Node6</title>
<g id="a_edge13_Node000009_Node000006"><a xlink:title=" ">
<path fill="none" stroke="#63b8ff" d="M693.55,-67.33C705.54,-67.52 717.9,-67.71 729.86,-67.9"/>
<polygon fill="#63b8ff" stroke="#63b8ff" points="729.6,-71.4 739.66,-68.05 729.71,-64.4 729.6,-71.4"/>
</a>
</g>
</g>
<!-- Node9&#45;&gt;Node7 -->
<g id="edge14_Node000009_Node000007" class="edge">
<title>Node9&#45;&gt;Node7</title>
<g id="a_edge14_Node000009_Node000007"><a xlink:title=" ">
<path fill="none" stroke="#63b8ff" d="M661.91,-76.13C688.02,-81.72 720.77,-88.72 748.51,-94.65"/>
<polygon fill="#63b8ff" stroke="#63b8ff" points="747.67,-98.05 758.18,-96.72 749.14,-91.2 747.67,-98.05"/>
</a>
</g>
</g>
</g>
</svg>
