<?xml version="1.0" encoding="UTF-8" standalone="no"?>
<!DOCTYPE svg PUBLIC "-//W3C//DTD SVG 1.1//EN"
 "http://www.w3.org/Graphics/SVG/1.1/DTD/svg11.dtd">
<!-- Generated by graphviz version 8.0.5 (20230430.1635)
 -->
<!-- Title: Nuki::NukiBle::executeAction Pages: 1 -->
<svg width="344pt" height="174pt"
 viewBox="0.00 0.00 343.75 173.50" xmlns="http://www.w3.org/2000/svg" xmlns:xlink="http://www.w3.org/1999/xlink">
<g id="graph0" class="graph" transform="scale(1 1) rotate(0) translate(4 169.5)">
<title>Nuki::NukiBle::executeAction</title>
<!-- Node1 -->
<g id="node1" class="node">
<title>Node1</title>
<g id="a_node1"><a xlink:title=" ">
<polygon fill="#999999" stroke="#666666" points="141.25,-88.88 0,-88.88 0,-69.62 141.25,-69.62 141.25,-88.88"/>
<text text-anchor="middle" x="70.62" y="-75.38" font-family="Helvetica,sans-Serif" font-size="10.00">Nuki::NukiBle::executeAction</text>
</a>
</g>
</g>
<!-- Node2 -->
<g id="node2" class="node">
<title>Node2</title>
<g id="a_node2"><a xlink:href="class_nuki_1_1_nuki_ble.html#ada0f3beebd95d35c122e25dd3f9eb886" target="_top" xlink:title=" ">
<polygon fill="white" stroke="#666666" points="325.25,-165.5 187.75,-165.5 187.75,-135 325.25,-135 325.25,-165.5"/>
<text text-anchor="start" x="195.75" y="-152" font-family="Helvetica,sans-Serif" font-size="10.00">Nuki::NukiBle::cmdChallAcc</text>
<text text-anchor="middle" x="256.5" y="-140.75" font-family="Helvetica,sans-Serif" font-size="10.00">StateMachine</text>
</a>
</g>
</g>
<!-- Node1&#45;&gt;Node2 -->
<g id="edge1" class="edge">
<title>Node1&#45;&gt;Node2</title>
<path fill="none" stroke="#63b8ff" d="M92.81,-89.23C113.95,-99.02 147.49,-114.05 177.25,-125.25 182.59,-127.26 188.17,-129.25 193.79,-131.18"/>
<polygon fill="#63b8ff" stroke="#63b8ff" points="192.3,-134.71 202.89,-134.58 194.53,-128.08 192.3,-134.71"/>
</g>
<!-- Node3 -->
<g id="node3" class="node">
<title>Node3</title>
<g id="a_node3"><a xlink:href="class_nuki_1_1_nuki_ble.html#a59169a9f492793762e3c6ba39b611b07" target="_top" xlink:title=" ">
<polygon fill="white" stroke="#666666" points="328.25,-116.5 184.75,-116.5 184.75,-86 328.25,-86 328.25,-116.5"/>
<text text-anchor="start" x="192.75" y="-103" font-family="Helvetica,sans-Serif" font-size="10.00">Nuki::NukiBle::cmdChallState</text>
<text text-anchor="middle" x="256.5" y="-91.75" font-family="Helvetica,sans-Serif" font-size="10.00">Machine</text>
</a>
</g>
</g>
<!-- Node1&#45;&gt;Node3 -->
<g id="edge2" class="edge">
<title>Node1&#45;&gt;Node3</title>
<path fill="none" stroke="#63b8ff" d="M141.66,-87.63C152.17,-88.89 163.08,-90.19 173.8,-91.47"/>
<polygon fill="#63b8ff" stroke="#63b8ff" points="173.09,-95.03 183.44,-92.75 173.92,-88.08 173.09,-95.03"/>
</g>
<!-- Node4 -->
<g id="node4" class="node">
<title>Node4</title>
<g id="a_node4"><a xlink:href="class_nuki_1_1_nuki_ble.html#ad135bb1455665decfddff67772c1d411" target="_top" xlink:title=" ">
<polygon fill="white" stroke="#666666" points="335.75,-67.88 177.25,-67.88 177.25,-48.62 335.75,-48.62 335.75,-67.88"/>
<text text-anchor="middle" x="256.5" y="-54.38" font-family="Helvetica,sans-Serif" font-size="10.00">Nuki::NukiBle::cmdStateMachine</text>
</a>
</g>
</g>
<!-- Node1&#45;&gt;Node4 -->
<g id="edge3" class="edge">
<title>Node1&#45;&gt;Node4</title>
<path fill="none" stroke="#63b8ff" d="M141.66,-71.25C149.71,-70.33 157.99,-69.39 166.25,-68.44"/>
<polygon fill="#63b8ff" stroke="#63b8ff" points="166.52,-71.82 176.06,-67.21 165.72,-64.87 166.52,-71.82"/>
</g>
<!-- Node5 -->
<g id="node5" class="node">
<title>Node5</title>
<g id="a_node5"><a xlink:href="class_nuki_1_1_nuki_ble.html#aed01f10d1ffa769f0f6fadc0d06d328e" target="_top" xlink:title=" ">
<polygon fill="white" stroke="#666666" points="332.38,-30.5 180.62,-30.5 180.62,0 332.38,0 332.38,-30.5"/>
<text text-anchor="start" x="188.62" y="-17" font-family="Helvetica,sans-Serif" font-size="10.00">Nuki::NukiBle::extendDisonnect</text>
<text text-anchor="middle" x="256.5" y="-5.75" font-family="Helvetica,sans-Serif" font-size="10.00">Timeout</text>
</a>
</g>
</g>
<!-- Node1&#45;&gt;Node5 -->
<g id="edge4" class="edge">
<title>Node1&#45;&gt;Node5</title>
<path fill="none" stroke="#63b8ff" d="M96.64,-69.25C117.94,-60.87 149.42,-48.78 177.25,-39.25 182.12,-37.58 187.18,-35.91 192.27,-34.26"/>
<polygon fill="#63b8ff" stroke="#63b8ff" points="193.27,-37.3 201.74,-30.93 191.15,-30.63 193.27,-37.3"/>
</g>
</g>
</svg>
