<?xml version="1.0" encoding="UTF-8" standalone="no"?>
<!DOCTYPE svg PUBLIC "-//W3C//DTD SVG 1.1//EN"
 "http://www.w3.org/Graphics/SVG/1.1/DTD/svg11.dtd">
<!-- Generated by graphviz version 12.2.1 (20241206.2353)
 -->
<!-- Title: NukiLock::NukiLock::setBatteryType Pages: 1 -->
<svg width="837pt" height="205pt"
 viewBox="0.00 0.00 836.50 204.75" xmlns="http://www.w3.org/2000/svg" xmlns:xlink="http://www.w3.org/1999/xlink">
<g id="graph0" class="graph" transform="scale(1 1) rotate(0) translate(4 200.75)">
<title>NukiLock::NukiLock::setBatteryType</title>
<!-- Node1 -->
<g id="Node000001" class="node">
<title>Node1</title>
<g id="a_Node000001"><a xlink:title="Gets the current advanced config from the lock, updates the battery type parameter and sends the new ...">
<polygon fill="#999999" stroke="#666666" points="104.5,-102.35 0,-102.35 0,-71.85 104.5,-71.85 104.5,-102.35"/>
<text text-anchor="start" x="8" y="-88.85" font-family="Helvetica,sans-Serif" font-size="10.00">NukiLock::NukiLock</text>
<text text-anchor="middle" x="52.25" y="-77.6" font-family="Helvetica,sans-Serif" font-size="10.00">::setBatteryType</text>
</a>
</g>
</g>
<!-- Node2 -->
<g id="Node000002" class="node">
<title>Node2</title>
<g id="a_Node000002"><a xlink:href="class_nuki_lock_1_1_nuki_lock.html#aa882f9b3256313bbd45b4269f8c74521" target="_top" xlink:title="Requests advanced config from Lock via BLE.">
<polygon fill="white" stroke="#666666" points="263.75,-102.35 140.5,-102.35 140.5,-71.85 263.75,-71.85 263.75,-102.35"/>
<text text-anchor="start" x="148.5" y="-88.85" font-family="Helvetica,sans-Serif" font-size="10.00">NukiLock::NukiLock</text>
<text text-anchor="middle" x="202.12" y="-77.6" font-family="Helvetica,sans-Serif" font-size="10.00">::requestAdvancedConfig</text>
</a>
</g>
</g>
<!-- Node1&#45;&gt;Node2 -->
<g id="edge1_Node000001_Node000002" class="edge">
<title>Node1&#45;&gt;Node2</title>
<g id="a_edge1_Node000001_Node000002"><a xlink:title=" ">
<path fill="none" stroke="#63b8ff" d="M104.97,-87.1C112.67,-87.1 120.72,-87.1 128.75,-87.1"/>
<polygon fill="#63b8ff" stroke="#63b8ff" points="128.53,-90.6 138.53,-87.1 128.53,-83.6 128.53,-90.6"/>
</a>
</g>
</g>
<!-- Node3 -->
<g id="Node000003" class="node">
<title>Node3</title>
<g id="a_Node000003"><a xlink:href="class_nuki_1_1_nuki_ble.html#af1f1e299e8d97e053bba80e92ba285d6" target="_top" xlink:title=" ">
<polygon fill="white" stroke="#666666" points="441,-96.73 299.75,-96.73 299.75,-77.48 441,-77.48 441,-96.73"/>
<text text-anchor="middle" x="370.38" y="-83.23" font-family="Helvetica,sans-Serif" font-size="10.00">Nuki::NukiBle::executeAction</text>
</a>
</g>
</g>
<!-- Node2&#45;&gt;Node3 -->
<g id="edge2_Node000002_Node000003" class="edge">
<title>Node2&#45;&gt;Node3</title>
<g id="a_edge2_Node000002_Node000003"><a xlink:title=" ">
<path fill="none" stroke="#63b8ff" d="M264.09,-87.1C271.9,-87.1 279.99,-87.1 288.06,-87.1"/>
<polygon fill="#63b8ff" stroke="#63b8ff" points="287.91,-90.6 297.91,-87.1 287.91,-83.6 287.91,-90.6"/>
</a>
</g>
</g>
<!-- Node4 -->
<g id="Node000004" class="node">
<title>Node4</title>
<g id="a_Node000004"><a xlink:href="class_nuki_1_1_nuki_ble.html#ada0f3beebd95d35c122e25dd3f9eb886" target="_top" xlink:title=" ">
<polygon fill="white" stroke="#666666" points="625,-173.35 487.5,-173.35 487.5,-142.85 625,-142.85 625,-173.35"/>
<text text-anchor="start" x="495.5" y="-159.85" font-family="Helvetica,sans-Serif" font-size="10.00">Nuki::NukiBle::cmdChallAcc</text>
<text text-anchor="middle" x="556.25" y="-148.6" font-family="Helvetica,sans-Serif" font-size="10.00">StateMachine</text>
</a>
</g>
</g>
<!-- Node3&#45;&gt;Node4 -->
<g id="edge3_Node000003_Node000004" class="edge">
<title>Node3&#45;&gt;Node4</title>
<g id="a_edge3_Node000003_Node000004"><a xlink:title=" ">
<path fill="none" stroke="#63b8ff" d="M392.56,-97.09C413.7,-106.87 447.24,-121.9 477,-133.1 482.21,-135.06 487.64,-137 493.12,-138.89"/>
<polygon fill="#63b8ff" stroke="#63b8ff" points="491.61,-142.08 502.21,-141.95 493.85,-135.44 491.61,-142.08"/>
</a>
</g>
</g>
<!-- Node5 -->
<g id="Node000005" class="node">
<title>Node5</title>
<g id="a_Node000005"><a xlink:href="class_nuki_1_1_nuki_ble.html#a6e8fca90c04249660dce6cb993eb4495" target="_top" xlink:title=" ">
<polygon fill="white" stroke="#666666" points="828.5,-169.35 671.5,-169.35 671.5,-138.85 828.5,-138.85 828.5,-169.35"/>
<text text-anchor="start" x="679.5" y="-155.85" font-family="Helvetica,sans-Serif" font-size="10.00">Nuki::NukiBle::extendDisconnect</text>
<text text-anchor="middle" x="750" y="-144.6" font-family="Helvetica,sans-Serif" font-size="10.00">Timeout</text>
</a>
</g>
</g>
<!-- Node3&#45;&gt;Node5 -->
<g id="edge15_Node000003_Node000005" class="edge">
<title>Node3&#45;&gt;Node5</title>
<g id="a_edge15_Node000003_Node000005"><a xlink:title=" ">
<path fill="none" stroke="#63b8ff" d="M378.39,-97.14C393.54,-117.83 431.64,-164.7 477,-182.1 549.51,-209.91 640.42,-190.75 696.61,-173.28"/>
<polygon fill="#63b8ff" stroke="#63b8ff" points="697.47,-176.68 705.93,-170.29 695.33,-170.02 697.47,-176.68"/>
</a>
</g>
</g>
<!-- Node6 -->
<g id="Node000006" class="node">
<title>Node6</title>
<g id="a_Node000006"><a xlink:href="class_nuki_1_1_nuki_ble.html#ac7ce691d9c3e586474655d1663eb2e20" target="_top" xlink:title=" ">
<polygon fill="white" stroke="#666666" points="816.12,-78.73 683.88,-78.73 683.88,-59.48 816.12,-59.48 816.12,-78.73"/>
<text text-anchor="middle" x="750" y="-65.23" font-family="Helvetica,sans-Serif" font-size="10.00">Nuki::NukiBle::logMessage</text>
</a>
</g>
</g>
<!-- Node3&#45;&gt;Node6 -->
<g id="edge16_Node000003_Node000006" class="edge">
<title>Node3&#45;&gt;Node6</title>
<g id="a_edge16_Node000003_Node000006"><a xlink:title=" ">
<path fill="none" stroke="#63b8ff" d="M381.31,-77.03C398.78,-60.1 436.99,-26.58 477,-14.1 544.25,6.88 566.84,1.66 635.5,-14.1 668.11,-21.59 702.23,-39.73 724.44,-53.14"/>
<polygon fill="#63b8ff" stroke="#63b8ff" points="722.41,-56 732.75,-58.3 726.1,-50.06 722.41,-56"/>
</a>
</g>
</g>
<!-- Node7 -->
<g id="Node000007" class="node">
<title>Node7</title>
<g id="a_Node000007"><a xlink:href="class_nuki_1_1_nuki_ble.html#af3650133f46aeca48a5f01b95d23ab71" target="_top" xlink:title=" ">
<polygon fill="white" stroke="#666666" points="823.62,-116.73 676.38,-116.73 676.38,-97.48 823.62,-97.48 823.62,-116.73"/>
<text text-anchor="middle" x="750" y="-103.23" font-family="Helvetica,sans-Serif" font-size="10.00">Nuki::NukiBle::logMessageVar</text>
</a>
</g>
</g>
<!-- Node3&#45;&gt;Node7 -->
<g id="edge17_Node000003_Node000007" class="edge">
<title>Node3&#45;&gt;Node7</title>
<g id="a_edge17_Node000003_Node000007"><a xlink:title=" ">
<path fill="none" stroke="#63b8ff" d="M390.95,-77.03C436.18,-55.24 550.58,-8.66 635.5,-47.1 657.59,-57.1 650.77,-75.52 671.5,-88.1 674.43,-89.88 677.51,-91.49 680.69,-92.95"/>
<polygon fill="#63b8ff" stroke="#63b8ff" points="679.13,-96.09 689.72,-96.55 681.73,-89.59 679.13,-96.09"/>
</a>
</g>
</g>
<!-- Node8 -->
<g id="Node000008" class="node">
<title>Node8</title>
<g id="a_Node000008"><a xlink:href="class_nuki_1_1_nuki_ble.html#a59169a9f492793762e3c6ba39b611b07" target="_top" xlink:title=" ">
<polygon fill="white" stroke="#666666" points="628,-124.35 484.5,-124.35 484.5,-93.85 628,-93.85 628,-124.35"/>
<text text-anchor="start" x="492.5" y="-110.85" font-family="Helvetica,sans-Serif" font-size="10.00">Nuki::NukiBle::cmdChallState</text>
<text text-anchor="middle" x="556.25" y="-99.6" font-family="Helvetica,sans-Serif" font-size="10.00">Machine</text>
</a>
</g>
</g>
<!-- Node3&#45;&gt;Node8 -->
<g id="edge7_Node000003_Node000008" class="edge">
<title>Node3&#45;&gt;Node8</title>
<g id="a_edge7_Node000003_Node000008"><a xlink:title=" ">
<path fill="none" stroke="#63b8ff" d="M441.41,-95.48C451.7,-96.71 462.37,-97.99 472.88,-99.25"/>
<polygon fill="#63b8ff" stroke="#63b8ff" points="472.34,-102.71 482.68,-100.42 473.17,-95.76 472.34,-102.71"/>
</a>
</g>
</g>
<!-- Node9 -->
<g id="Node000009" class="node">
<title>Node9</title>
<g id="a_Node000009"><a xlink:href="class_nuki_1_1_nuki_ble.html#ad135bb1455665decfddff67772c1d411" target="_top" xlink:title=" ">
<polygon fill="white" stroke="#666666" points="635.5,-75.73 477,-75.73 477,-56.48 635.5,-56.48 635.5,-75.73"/>
<text text-anchor="middle" x="556.25" y="-62.23" font-family="Helvetica,sans-Serif" font-size="10.00">Nuki::NukiBle::cmdStateMachine</text>
</a>
</g>
</g>
<!-- Node3&#45;&gt;Node9 -->
<g id="edge11_Node000003_Node000009" class="edge">
<title>Node3&#45;&gt;Node9</title>
<g id="a_edge11_Node000003_Node000009"><a xlink:title=" ">
<path fill="none" stroke="#63b8ff" d="M441.41,-79.1C449.28,-78.21 457.37,-77.28 465.44,-76.36"/>
<polygon fill="#63b8ff" stroke="#63b8ff" points="465.76,-79.85 475.3,-75.23 464.97,-72.89 465.76,-79.85"/>
</a>
</g>
</g>
<!-- Node4&#45;&gt;Node5 -->
<g id="edge4_Node000004_Node000005" class="edge">
<title>Node4&#45;&gt;Node5</title>
<g id="a_edge4_Node000004_Node000005"><a xlink:title=" ">
<path fill="none" stroke="#63b8ff" d="M625.39,-156.68C636.54,-156.45 648.22,-156.2 659.78,-155.96"/>
<polygon fill="#63b8ff" stroke="#63b8ff" points="659.83,-159.46 669.76,-155.76 659.69,-152.46 659.83,-159.46"/>
</a>
</g>
</g>
<!-- Node4&#45;&gt;Node6 -->
<g id="edge5_Node000004_Node000006" class="edge">
<title>Node4&#45;&gt;Node6</title>
<g id="a_edge5_Node000004_Node000006"><a xlink:title=" ">
<path fill="none" stroke="#63b8ff" d="M618.72,-142.38C624.63,-139.73 630.33,-136.66 635.5,-133.1 656.6,-118.58 649.91,-101.89 671.5,-88.1 674.09,-86.45 676.82,-84.94 679.63,-83.56"/>
<polygon fill="#63b8ff" stroke="#63b8ff" points="680.91,-86.82 688.76,-79.7 678.19,-80.37 680.91,-86.82"/>
</a>
</g>
</g>
<!-- Node4&#45;&gt;Node7 -->
<g id="edge6_Node000004_Node000007" class="edge">
<title>Node4&#45;&gt;Node7</title>
<g id="a_edge6_Node000004_Node000007"><a xlink:title=" ">
<path fill="none" stroke="#63b8ff" d="M616.35,-142.38C643.19,-135.25 674.56,-126.9 700.05,-120.12"/>
<polygon fill="#63b8ff" stroke="#63b8ff" points="700.72,-123.56 709.49,-117.61 698.93,-116.8 700.72,-123.56"/>
</a>
</g>
</g>
<!-- Node8&#45;&gt;Node5 -->
<g id="edge8_Node000008_Node000005" class="edge">
<title>Node8&#45;&gt;Node5</title>
<g id="a_edge8_Node000008_Node000005"><a xlink:title=" ">
<path fill="none" stroke="#63b8ff" d="M624.31,-124.84C639.35,-128.37 655.43,-132.14 670.87,-135.77"/>
<polygon fill="#63b8ff" stroke="#63b8ff" points="669.96,-139.15 680.5,-138.03 671.56,-132.33 669.96,-139.15"/>
</a>
</g>
</g>
<!-- Node8&#45;&gt;Node6 -->
<g id="edge9_Node000008_Node000006" class="edge">
<title>Node8&#45;&gt;Node6</title>
<g id="a_edge9_Node000008_Node000006"><a xlink:title=" ">
<path fill="none" stroke="#63b8ff" d="M628.38,-94.26C648.51,-90.06 670.21,-85.54 689.58,-81.5"/>
<polygon fill="#63b8ff" stroke="#63b8ff" points="690.13,-84.96 699.2,-79.49 688.7,-78.11 690.13,-84.96"/>
</a>
</g>
</g>
<!-- Node8&#45;&gt;Node7 -->
<g id="edge10_Node000008_Node000007" class="edge">
<title>Node8&#45;&gt;Node7</title>
<g id="a_edge10_Node000008_Node000007"><a xlink:title=" ">
<path fill="none" stroke="#63b8ff" d="M628.38,-108.36C640.17,-108.24 652.5,-108.11 664.58,-107.98"/>
<polygon fill="#63b8ff" stroke="#63b8ff" points="664.59,-111.48 674.55,-107.88 664.51,-104.48 664.59,-111.48"/>
</a>
</g>
</g>
<!-- Node9&#45;&gt;Node5 -->
<g id="edge12_Node000009_Node000005" class="edge">
<title>Node9&#45;&gt;Node5</title>
<g id="a_edge12_Node000009_Node000005"><a xlink:title=" ">
<path fill="none" stroke="#63b8ff" d="M616.09,-76.18C622.89,-78.55 629.52,-81.48 635.5,-85.1 656.25,-97.66 651.46,-112.44 671.5,-126.1 675.6,-128.9 680.01,-131.45 684.58,-133.77"/>
<polygon fill="#63b8ff" stroke="#63b8ff" points="682.83,-136.82 693.37,-137.86 685.78,-130.47 682.83,-136.82"/>
</a>
</g>
</g>
<!-- Node9&#45;&gt;Node6 -->
<g id="edge13_Node000009_Node000006" class="edge">
<title>Node9&#45;&gt;Node6</title>
<g id="a_edge13_Node000009_Node000006"><a xlink:title=" ">
<path fill="none" stroke="#63b8ff" d="M635.8,-67.33C647.79,-67.52 660.15,-67.71 672.11,-67.9"/>
<polygon fill="#63b8ff" stroke="#63b8ff" points="671.85,-71.4 681.91,-68.05 671.96,-64.4 671.85,-71.4"/>
</a>
</g>
</g>
<!-- Node9&#45;&gt;Node7 -->
<g id="edge14_Node000009_Node000007" class="edge">
<title>Node9&#45;&gt;Node7</title>
<g id="a_edge14_Node000009_Node000007"><a xlink:title=" ">
<path fill="none" stroke="#63b8ff" d="M604.16,-76.13C630.27,-81.72 663.02,-88.72 690.76,-94.65"/>
<polygon fill="#63b8ff" stroke="#63b8ff" points="689.92,-98.05 700.43,-96.72 691.39,-91.2 689.92,-98.05"/>
</a>
</g>
</g>
</g>
</svg>
