<?xml version="1.0" encoding="UTF-8" standalone="no"?>
<!DOCTYPE svg PUBLIC "-//W3C//DTD SVG 1.1//EN"
 "http://www.w3.org/Graphics/SVG/1.1/DTD/svg11.dtd">
<!-- Generated by graphviz version 8.0.5 (20230430.1635)
 -->
<!-- Title: Nuki::NukiBle::updateKeypadEntry Pages: 1 -->
<svg width="524pt" height="190pt"
 viewBox="0.00 0.00 524.00 189.88" xmlns="http://www.w3.org/2000/svg" xmlns:xlink="http://www.w3.org/1999/xlink">
<g id="graph0" class="graph" transform="scale(1 1) rotate(0) translate(4 185.88)">
<title>Nuki::NukiBle::updateKeypadEntry</title>
<!-- Node1 -->
<g id="node1" class="node">
<title>Node1</title>
<g id="a_node1"><a xlink:title="Send an updated keypad entry to the lock via BLE.">
<polygon fill="#999999" stroke="#666666" points="141.25,-67.88 0,-67.88 0,-37.38 141.25,-37.38 141.25,-67.88"/>
<text text-anchor="start" x="8" y="-54.38" font-family="Helvetica,sans-Serif" font-size="10.00">Nuki::NukiBle::updateKeypad</text>
<text text-anchor="middle" x="70.62" y="-43.12" font-family="Helvetica,sans-Serif" font-size="10.00">Entry</text>
</a>
</g>
</g>
<!-- Node2 -->
<g id="node2" class="node">
<title>Node2</title>
<g id="a_node2"><a xlink:href="class_nuki_1_1_nuki_ble.html#af1f1e299e8d97e053bba80e92ba285d6" target="_top" xlink:title=" ">
<polygon fill="white" stroke="#666666" points="320,-105.25 178.75,-105.25 178.75,-86 320,-86 320,-105.25"/>
<text text-anchor="middle" x="249.38" y="-91.75" font-family="Helvetica,sans-Serif" font-size="10.00">Nuki::NukiBle::executeAction</text>
</a>
</g>
</g>
<!-- Node1&#45;&gt;Node2 -->
<g id="edge1" class="edge">
<title>Node1&#45;&gt;Node2</title>
<path fill="none" stroke="#63b8ff" d="M136.19,-68.33C155.98,-73.15 177.5,-78.38 196.34,-82.97"/>
<polygon fill="#63b8ff" stroke="#63b8ff" points="195.26,-86.55 205.8,-85.51 196.91,-79.75 195.26,-86.55"/>
</g>
<!-- Node7 -->
<g id="node7" class="node">
<title>Node7</title>
<g id="a_node7"><a xlink:href="namespace_nuki_lock.html#af2b794f25294d2c5505a91d16687d512" target="_top" xlink:title=" ">
<polygon fill="white" stroke="#666666" points="321.5,-67.88 177.25,-67.88 177.25,-37.38 321.5,-37.38 321.5,-67.88"/>
<text text-anchor="start" x="185.25" y="-54.38" font-family="Helvetica,sans-Serif" font-size="10.00">NukiLock::logUpdatedKeypad</text>
<text text-anchor="middle" x="249.38" y="-43.12" font-family="Helvetica,sans-Serif" font-size="10.00">Entry</text>
</a>
</g>
</g>
<!-- Node1&#45;&gt;Node7 -->
<g id="edge6" class="edge">
<title>Node1&#45;&gt;Node7</title>
<path fill="none" stroke="#63b8ff" d="M141.74,-52.62C149.69,-52.62 157.84,-52.62 165.94,-52.62"/>
<polygon fill="#63b8ff" stroke="#63b8ff" points="165.9,-56.13 175.9,-52.62 165.9,-49.13 165.9,-56.13"/>
</g>
<!-- Node8 -->
<g id="node8" class="node">
<title>Node8</title>
<g id="a_node8"><a xlink:href="namespace_nuki.html#a280e19d4682ca4b35d3fe64001da816a" target="_top" xlink:title=" ">
<polygon fill="white" stroke="#666666" points="291.88,-19.25 206.88,-19.25 206.88,0 291.88,0 291.88,-19.25"/>
<text text-anchor="middle" x="249.38" y="-5.75" font-family="Helvetica,sans-Serif" font-size="10.00">Nuki::printBuffer</text>
</a>
</g>
</g>
<!-- Node1&#45;&gt;Node8 -->
<g id="edge7" class="edge">
<title>Node1&#45;&gt;Node8</title>
<path fill="none" stroke="#63b8ff" d="M136.19,-36.92C155.98,-32.1 177.5,-26.87 196.34,-22.28"/>
<polygon fill="#63b8ff" stroke="#63b8ff" points="196.91,-25.5 205.8,-19.74 195.26,-18.7 196.91,-25.5"/>
</g>
<!-- Node3 -->
<g id="node3" class="node">
<title>Node3</title>
<g id="a_node3"><a xlink:href="class_nuki_1_1_nuki_ble.html#ada0f3beebd95d35c122e25dd3f9eb886" target="_top" xlink:title=" ">
<polygon fill="white" stroke="#666666" points="505.5,-181.88 368,-181.88 368,-151.38 505.5,-151.38 505.5,-181.88"/>
<text text-anchor="start" x="376" y="-168.38" font-family="Helvetica,sans-Serif" font-size="10.00">Nuki::NukiBle::cmdChallAcc</text>
<text text-anchor="middle" x="436.75" y="-157.12" font-family="Helvetica,sans-Serif" font-size="10.00">StateMachine</text>
</a>
</g>
</g>
<!-- Node2&#45;&gt;Node3 -->
<g id="edge2" class="edge">
<title>Node2&#45;&gt;Node3</title>
<path fill="none" stroke="#63b8ff" d="M271.87,-105.58C293.33,-115.35 327.35,-130.37 357.5,-141.62 362.84,-143.62 368.43,-145.6 374.05,-147.53"/>
<polygon fill="#63b8ff" stroke="#63b8ff" points="372.56,-151.06 383.16,-150.92 374.79,-144.42 372.56,-151.06"/>
</g>
<!-- Node4 -->
<g id="node4" class="node">
<title>Node4</title>
<g id="a_node4"><a xlink:href="class_nuki_1_1_nuki_ble.html#a59169a9f492793762e3c6ba39b611b07" target="_top" xlink:title=" ">
<polygon fill="white" stroke="#666666" points="508.5,-132.88 365,-132.88 365,-102.38 508.5,-102.38 508.5,-132.88"/>
<text text-anchor="start" x="373" y="-119.38" font-family="Helvetica,sans-Serif" font-size="10.00">Nuki::NukiBle::cmdChallState</text>
<text text-anchor="middle" x="436.75" y="-108.12" font-family="Helvetica,sans-Serif" font-size="10.00">Machine</text>
</a>
</g>
</g>
<!-- Node2&#45;&gt;Node4 -->
<g id="edge3" class="edge">
<title>Node2&#45;&gt;Node4</title>
<path fill="none" stroke="#63b8ff" d="M320.46,-103.94C331.41,-105.24 342.82,-106.6 354.01,-107.92"/>
<polygon fill="#63b8ff" stroke="#63b8ff" points="353.3,-111.48 363.64,-109.19 354.13,-104.53 353.3,-111.48"/>
</g>
<!-- Node5 -->
<g id="node5" class="node">
<title>Node5</title>
<g id="a_node5"><a xlink:href="class_nuki_1_1_nuki_ble.html#ad135bb1455665decfddff67772c1d411" target="_top" xlink:title=" ">
<polygon fill="white" stroke="#666666" points="516,-84.25 357.5,-84.25 357.5,-65 516,-65 516,-84.25"/>
<text text-anchor="middle" x="436.75" y="-70.75" font-family="Helvetica,sans-Serif" font-size="10.00">Nuki::NukiBle::cmdStateMachine</text>
</a>
</g>
</g>
<!-- Node2&#45;&gt;Node5 -->
<g id="edge4" class="edge">
<title>Node2&#45;&gt;Node5</title>
<path fill="none" stroke="#63b8ff" d="M320.46,-87.69C328.99,-86.72 337.79,-85.72 346.54,-84.73"/>
<polygon fill="#63b8ff" stroke="#63b8ff" points="346.64,-88.13 356.19,-83.52 345.86,-81.17 346.64,-88.13"/>
</g>
<!-- Node6 -->
<g id="node6" class="node">
<title>Node6</title>
<g id="a_node6"><a xlink:href="class_nuki_1_1_nuki_ble.html#aed01f10d1ffa769f0f6fadc0d06d328e" target="_top" xlink:title=" ">
<polygon fill="white" stroke="#666666" points="512.62,-46.88 360.88,-46.88 360.88,-16.38 512.62,-16.38 512.62,-46.88"/>
<text text-anchor="start" x="368.88" y="-33.38" font-family="Helvetica,sans-Serif" font-size="10.00">Nuki::NukiBle::extendDisonnect</text>
<text text-anchor="middle" x="436.75" y="-22.12" font-family="Helvetica,sans-Serif" font-size="10.00">Timeout</text>
</a>
</g>
</g>
<!-- Node2&#45;&gt;Node6 -->
<g id="edge5" class="edge">
<title>Node2&#45;&gt;Node6</title>
<path fill="none" stroke="#63b8ff" d="M295.37,-85.56C304.18,-83.04 313.24,-80.06 321.5,-76.62 338.6,-69.5 340.53,-63.06 357.5,-55.62 361.27,-53.97 365.19,-52.39 369.18,-50.87"/>
<polygon fill="#63b8ff" stroke="#63b8ff" points="369.97,-53.95 378.19,-47.27 367.59,-47.37 369.97,-53.95"/>
</g>
</g>
</svg>
