<?xml version="1.0" encoding="UTF-8" standalone="no"?>
<!DOCTYPE svg PUBLIC "-//W3C//DTD SVG 1.1//EN"
 "http://www.w3.org/Graphics/SVG/1.1/DTD/svg11.dtd">
<!-- Generated by graphviz version 12.2.1 (20241206.2353)
 -->
<!-- Title: Nuki::NukiBle::requestReboot Pages: 1 -->
<svg width="716pt" height="220pt"
 viewBox="0.00 0.00 715.50 219.65" xmlns="http://www.w3.org/2000/svg" xmlns:xlink="http://www.w3.org/1999/xlink">
<g id="graph0" class="graph" transform="scale(1 1) rotate(0) translate(4 215.65)">
<title>Nuki::NukiBle::requestReboot</title>
<!-- Node1 -->
<g id="Node000001" class="node">
<title>Node1</title>
<g id="a_Node000001"><a xlink:title="Sends an reboot request to the lock via BLE.">
<polygon fill="#999999" stroke="#666666" points="142.75,-57.15 0,-57.15 0,-37.9 142.75,-37.9 142.75,-57.15"/>
<text text-anchor="middle" x="71.38" y="-43.65" font-family="Helvetica,sans-Serif" font-size="10.00">Nuki::NukiBle::requestReboot</text>
</a>
</g>
</g>
<!-- Node2 -->
<g id="Node000002" class="node">
<title>Node2</title>
<g id="a_Node000002"><a xlink:href="class_nuki_1_1_nuki_ble.html#af1f1e299e8d97e053bba80e92ba285d6" target="_top" xlink:title=" ">
<polygon fill="white" stroke="#666666" points="320,-122.15 178.75,-122.15 178.75,-102.9 320,-102.9 320,-122.15"/>
<text text-anchor="middle" x="249.38" y="-108.65" font-family="Helvetica,sans-Serif" font-size="10.00">Nuki::NukiBle::executeAction</text>
</a>
</g>
</g>
<!-- Node1&#45;&gt;Node2 -->
<g id="edge1_Node000001_Node000002" class="edge">
<title>Node1&#45;&gt;Node2</title>
<g id="a_edge1_Node000001_Node000002"><a xlink:title=" ">
<path fill="none" stroke="#63b8ff" d="M99.49,-57.54C129.2,-68.51 177.08,-86.2 210.5,-98.54"/>
<polygon fill="#63b8ff" stroke="#63b8ff" points="209.22,-101.79 219.81,-101.97 211.64,-95.23 209.22,-101.79"/>
</a>
</g>
</g>
<!-- Node5 -->
<g id="Node000005" class="node">
<title>Node5</title>
<g id="a_Node000005"><a xlink:href="class_nuki_1_1_nuki_ble.html#ac7ce691d9c3e586474655d1663eb2e20" target="_top" xlink:title=" ">
<polygon fill="white" stroke="#666666" points="695.12,-79.15 562.88,-79.15 562.88,-59.9 695.12,-59.9 695.12,-79.15"/>
<text text-anchor="middle" x="629" y="-65.65" font-family="Helvetica,sans-Serif" font-size="10.00">Nuki::NukiBle::logMessage</text>
</a>
</g>
</g>
<!-- Node1&#45;&gt;Node5 -->
<g id="edge18_Node000001_Node000005" class="edge">
<title>Node1&#45;&gt;Node5</title>
<g id="a_edge18_Node000001_Node000005"><a xlink:title=" ">
<path fill="none" stroke="#63b8ff" d="M105.71,-37.42C181.03,-16.34 369.08,26.37 514.5,-23.52 533.67,-30.1 532.2,-42.81 550.5,-51.52 553.8,-53.1 557.26,-54.54 560.79,-55.86"/>
<polygon fill="#63b8ff" stroke="#63b8ff" points="559.53,-59.13 570.12,-58.98 561.75,-52.49 559.53,-59.13"/>
</a>
</g>
</g>
<!-- Node3 -->
<g id="Node000003" class="node">
<title>Node3</title>
<g id="a_Node000003"><a xlink:href="class_nuki_1_1_nuki_ble.html#ada0f3beebd95d35c122e25dd3f9eb886" target="_top" xlink:title=" ">
<polygon fill="white" stroke="#666666" points="504,-127.77 366.5,-127.77 366.5,-97.27 504,-97.27 504,-127.77"/>
<text text-anchor="start" x="374.5" y="-114.27" font-family="Helvetica,sans-Serif" font-size="10.00">Nuki::NukiBle::cmdChallAcc</text>
<text text-anchor="middle" x="435.25" y="-103.02" font-family="Helvetica,sans-Serif" font-size="10.00">StateMachine</text>
</a>
</g>
</g>
<!-- Node2&#45;&gt;Node3 -->
<g id="edge2_Node000002_Node000003" class="edge">
<title>Node2&#45;&gt;Node3</title>
<g id="a_edge2_Node000002_Node000003"><a xlink:title=" ">
<path fill="none" stroke="#63b8ff" d="M320.41,-112.52C331.68,-112.52 343.41,-112.52 354.88,-112.52"/>
<polygon fill="#63b8ff" stroke="#63b8ff" points="354.71,-116.02 364.71,-112.52 354.71,-109.02 354.71,-116.02"/>
</a>
</g>
</g>
<!-- Node4 -->
<g id="Node000004" class="node">
<title>Node4</title>
<g id="a_Node000004"><a xlink:href="class_nuki_1_1_nuki_ble.html#a6e8fca90c04249660dce6cb993eb4495" target="_top" xlink:title=" ">
<polygon fill="white" stroke="#666666" points="707.5,-170.77 550.5,-170.77 550.5,-140.27 707.5,-140.27 707.5,-170.77"/>
<text text-anchor="start" x="558.5" y="-157.27" font-family="Helvetica,sans-Serif" font-size="10.00">Nuki::NukiBle::extendDisconnect</text>
<text text-anchor="middle" x="629" y="-146.02" font-family="Helvetica,sans-Serif" font-size="10.00">Timeout</text>
</a>
</g>
</g>
<!-- Node2&#45;&gt;Node4 -->
<g id="edge15_Node000002_Node000004" class="edge">
<title>Node2&#45;&gt;Node4</title>
<g id="a_edge15_Node000002_Node000004"><a xlink:title=" ">
<path fill="none" stroke="#63b8ff" d="M258.38,-122.4C274.48,-141.36 312.93,-182.35 356,-197.52 422.44,-220.94 445.16,-209.94 514.5,-197.52 538.45,-193.23 563.96,-184.23 584.72,-175.66"/>
<polygon fill="#63b8ff" stroke="#63b8ff" points="585.88,-178.96 593.71,-171.83 583.14,-172.52 585.88,-178.96"/>
</a>
</g>
</g>
<!-- Node2&#45;&gt;Node5 -->
<g id="edge16_Node000002_Node000005" class="edge">
<title>Node2&#45;&gt;Node5</title>
<g id="a_edge16_Node000002_Node000005"><a xlink:title=" ">
<path fill="none" stroke="#63b8ff" d="M260.31,-102.45C277.78,-85.52 315.99,-52 356,-39.52 423.25,-18.55 444.97,-28.24 514.5,-39.52 531.15,-42.23 534.27,-46.94 550.5,-51.52 557.04,-53.37 563.94,-55.17 570.8,-56.88"/>
<polygon fill="#63b8ff" stroke="#63b8ff" points="569.5,-60.16 580.04,-59.12 571.14,-53.36 569.5,-60.16"/>
</a>
</g>
</g>
<!-- Node6 -->
<g id="Node000006" class="node">
<title>Node6</title>
<g id="a_Node000006"><a xlink:href="class_nuki_1_1_nuki_ble.html#af3650133f46aeca48a5f01b95d23ab71" target="_top" xlink:title=" ">
<polygon fill="white" stroke="#666666" points="702.62,-122.15 555.38,-122.15 555.38,-102.9 702.62,-102.9 702.62,-122.15"/>
<text text-anchor="middle" x="629" y="-108.65" font-family="Helvetica,sans-Serif" font-size="10.00">Nuki::NukiBle::logMessageVar</text>
</a>
</g>
</g>
<!-- Node2&#45;&gt;Node6 -->
<g id="edge17_Node000002_Node000006" class="edge">
<title>Node2&#45;&gt;Node6</title>
<g id="a_edge17_Node000002_Node000006"><a xlink:title=" ">
<path fill="none" stroke="#63b8ff" d="M262.39,-122.53C281.02,-137.32 318.66,-164.37 356,-174.52 423.98,-193 450.67,-204.33 514.5,-174.52 537.08,-163.98 529.34,-144.7 550.5,-131.52 553.26,-129.81 556.16,-128.25 559.15,-126.83"/>
<polygon fill="#63b8ff" stroke="#63b8ff" points="560.32,-130.13 568.24,-123.09 557.66,-123.66 560.32,-130.13"/>
</a>
</g>
</g>
<!-- Node7 -->
<g id="Node000007" class="node">
<title>Node7</title>
<g id="a_Node000007"><a xlink:href="class_nuki_1_1_nuki_ble.html#a59169a9f492793762e3c6ba39b611b07" target="_top" xlink:title=" ">
<polygon fill="white" stroke="#666666" points="507,-78.77 363.5,-78.77 363.5,-48.27 507,-48.27 507,-78.77"/>
<text text-anchor="start" x="371.5" y="-65.27" font-family="Helvetica,sans-Serif" font-size="10.00">Nuki::NukiBle::cmdChallState</text>
<text text-anchor="middle" x="435.25" y="-54.02" font-family="Helvetica,sans-Serif" font-size="10.00">Machine</text>
</a>
</g>
</g>
<!-- Node2&#45;&gt;Node7 -->
<g id="edge6_Node000002_Node000007" class="edge">
<title>Node2&#45;&gt;Node7</title>
<g id="a_edge6_Node000002_Node000007"><a xlink:title=" ">
<path fill="none" stroke="#63b8ff" d="M288.03,-102.49C310,-96.63 338.42,-89.06 364.35,-82.15"/>
<polygon fill="#63b8ff" stroke="#63b8ff" points="365.06,-85.58 373.82,-79.63 363.26,-78.82 365.06,-85.58"/>
</a>
</g>
</g>
<!-- Node9 -->
<g id="Node000009" class="node">
<title>Node9</title>
<g id="a_Node000009"><a xlink:href="class_nuki_1_1_nuki_ble.html#ad135bb1455665decfddff67772c1d411" target="_top" xlink:title=" ">
<polygon fill="white" stroke="#666666" points="514.5,-165.15 356,-165.15 356,-145.9 514.5,-145.9 514.5,-165.15"/>
<text text-anchor="middle" x="435.25" y="-151.65" font-family="Helvetica,sans-Serif" font-size="10.00">Nuki::NukiBle::cmdStateMachine</text>
</a>
</g>
</g>
<!-- Node2&#45;&gt;Node9 -->
<g id="edge11_Node000002_Node000009" class="edge">
<title>Node2&#45;&gt;Node9</title>
<g id="a_edge11_Node000002_Node000009"><a xlink:title=" ">
<path fill="none" stroke="#63b8ff" d="M293.49,-122.61C319.33,-128.65 352.42,-136.39 380.03,-142.84"/>
<polygon fill="#63b8ff" stroke="#63b8ff" points="379.08,-146.22 389.62,-145.09 380.68,-139.4 379.08,-146.22"/>
</a>
</g>
</g>
<!-- Node3&#45;&gt;Node4 -->
<g id="edge3_Node000003_Node000004" class="edge">
<title>Node3&#45;&gt;Node4</title>
<g id="a_edge3_Node000003_Node000004"><a xlink:title=" ">
<path fill="none" stroke="#63b8ff" d="M504.39,-127.81C518.07,-130.87 532.57,-134.12 546.64,-137.28"/>
<polygon fill="#63b8ff" stroke="#63b8ff" points="545.81,-140.68 556.33,-139.45 547.34,-133.85 545.81,-140.68"/>
</a>
</g>
</g>
<!-- Node3&#45;&gt;Node5 -->
<g id="edge4_Node000003_Node000005" class="edge">
<title>Node3&#45;&gt;Node5</title>
<g id="a_edge4_Node000003_Node000005"><a xlink:title=" ">
<path fill="none" stroke="#63b8ff" d="M504.39,-97.24C526.48,-92.29 550.7,-86.86 571.82,-82.12"/>
<polygon fill="#63b8ff" stroke="#63b8ff" points="572.4,-85.58 581.39,-79.98 570.86,-78.75 572.4,-85.58"/>
</a>
</g>
</g>
<!-- Node3&#45;&gt;Node6 -->
<g id="edge5_Node000003_Node000006" class="edge">
<title>Node3&#45;&gt;Node6</title>
<g id="a_edge5_Node000003_Node000006"><a xlink:title=" ">
<path fill="none" stroke="#63b8ff" d="M504.39,-112.52C517.05,-112.52 530.41,-112.52 543.48,-112.52"/>
<polygon fill="#63b8ff" stroke="#63b8ff" points="543.36,-116.02 553.36,-112.52 543.36,-109.02 543.36,-116.02"/>
</a>
</g>
</g>
<!-- Node7&#45;&gt;Node4 -->
<g id="edge7_Node000007_Node000004" class="edge">
<title>Node7&#45;&gt;Node4</title>
<g id="a_edge7_Node000007_Node000004"><a xlink:title=" ">
<path fill="none" stroke="#63b8ff" d="M497.24,-79.18C503.3,-81.85 509.17,-84.95 514.5,-88.52 535.19,-102.42 529.75,-117.72 550.5,-131.52 552.3,-132.72 554.17,-133.87 556.08,-134.95"/>
<polygon fill="#63b8ff" stroke="#63b8ff" points="554.14,-137.89 564.65,-139.26 557.29,-131.64 554.14,-137.89"/>
</a>
</g>
</g>
<!-- Node7&#45;&gt;Node5 -->
<g id="edge9_Node000007_Node000005" class="edge">
<title>Node7&#45;&gt;Node5</title>
<g id="a_edge9_Node000007_Node000005"><a xlink:title=" ">
<path fill="none" stroke="#63b8ff" d="M507.38,-65.75C521.59,-66.19 536.58,-66.66 550.98,-67.11"/>
<polygon fill="#63b8ff" stroke="#63b8ff" points="550.76,-70.61 560.87,-67.42 550.98,-63.61 550.76,-70.61"/>
</a>
</g>
</g>
<!-- Node7&#45;&gt;Node6 -->
<g id="edge10_Node000007_Node000006" class="edge">
<title>Node7&#45;&gt;Node6</title>
<g id="a_edge10_Node000007_Node000006"><a xlink:title=" ">
<path fill="none" stroke="#63b8ff" d="M497.71,-79.23C523.55,-85.83 553.23,-93.42 577.74,-99.68"/>
<polygon fill="#63b8ff" stroke="#63b8ff" points="576.57,-103 587.13,-102.08 578.31,-96.21 576.57,-103"/>
</a>
</g>
</g>
<!-- Node8 -->
<g id="Node000008" class="node">
<title>Node8</title>
<g id="a_Node000008"><a xlink:href="class_nuki_1_1_nuki_ble.html#a25207bb564a4b54b8dd8c872177b53a7" target="_top" xlink:title="Returns if BLE is pairing/paired/connected with a Smart Lock Ultra.">
<polygon fill="white" stroke="#666666" points="694,-42.15 564,-42.15 564,-22.9 694,-22.9 694,-42.15"/>
<text text-anchor="middle" x="629" y="-28.65" font-family="Helvetica,sans-Serif" font-size="10.00">Nuki::NukiBle::isLockUltra</text>
</a>
</g>
</g>
<!-- Node7&#45;&gt;Node8 -->
<g id="edge8_Node000007_Node000008" class="edge">
<title>Node7&#45;&gt;Node8</title>
<g id="a_edge8_Node000007_Node000008"><a xlink:title=" ">
<path fill="none" stroke="#63b8ff" d="M507.38,-52.02C522.73,-49.54 538.99,-46.91 554.43,-44.42"/>
<polygon fill="#63b8ff" stroke="#63b8ff" points="554.7,-47.92 564.02,-42.87 553.59,-41.01 554.7,-47.92"/>
</a>
</g>
</g>
<!-- Node9&#45;&gt;Node4 -->
<g id="edge12_Node000009_Node000004" class="edge">
<title>Node9&#45;&gt;Node4</title>
<g id="a_edge12_Node000009_Node000004"><a xlink:title=" ">
<path fill="none" stroke="#63b8ff" d="M514.8,-155.52C522.74,-155.52 530.85,-155.52 538.89,-155.52"/>
<polygon fill="#63b8ff" stroke="#63b8ff" points="538.68,-159.02 548.68,-155.52 538.68,-152.02 538.68,-159.02"/>
</a>
</g>
</g>
<!-- Node9&#45;&gt;Node5 -->
<g id="edge13_Node000009_Node000005" class="edge">
<title>Node9&#45;&gt;Node5</title>
<g id="a_edge13_Node000009_Node000005"><a xlink:title=" ">
<path fill="none" stroke="#63b8ff" d="M495.58,-145.44C502.22,-143.07 508.68,-140.14 514.5,-136.52 535.67,-123.37 529.75,-107.33 550.5,-93.52 556.35,-89.63 562.86,-86.35 569.55,-83.58"/>
<polygon fill="#63b8ff" stroke="#63b8ff" points="570.58,-86.93 578.74,-80.17 568.14,-80.37 570.58,-86.93"/>
</a>
</g>
</g>
<!-- Node9&#45;&gt;Node6 -->
<g id="edge14_Node000009_Node000006" class="edge">
<title>Node9&#45;&gt;Node6</title>
<g id="a_edge14_Node000009_Node000006"><a xlink:title=" ">
<path fill="none" stroke="#63b8ff" d="M481.21,-145.44C508.28,-139.37 542.97,-131.59 571.84,-125.12"/>
<polygon fill="#63b8ff" stroke="#63b8ff" points="572.52,-128.55 581.52,-122.95 570.99,-121.72 572.52,-128.55"/>
</a>
</g>
</g>
</g>
</svg>
