<?xml version="1.0" encoding="UTF-8" standalone="no"?>
<!DOCTYPE svg PUBLIC "-//W3C//DTD SVG 1.1//EN"
 "http://www.w3.org/Graphics/SVG/1.1/DTD/svg11.dtd">
<!-- Generated by graphviz version 12.2.1 (20241206.2353)
 -->
<!-- Title: NukiLock::NukiLock::requestKeyTurnerState Pages: 1 -->
<!--zoomable 215 -->

<svg id="main" version="1.1" xmlns="http://www.w3.org/2000/svg" xmlns:xlink="http://www.w3.org/1999/xlink" xml:space="preserve" onload="init(evt)">

<style type="text/css"><![CDATA[
.node, .edge {opacity: 0.7;}
.node.selected, .edge.selected {opacity: 1;}
.edge:hover path { stroke: red; }
.edge:hover polygon { stroke: red; fill: red; }
]]></style>

<defs>
  <circle id="rim" cx="0" cy="0" r="7"/>
  <circle id="rim2" cx="0" cy="0" r="3.5"/>
  <g id="zoomPlus">
    <use xlink:href="#rim" fill="#404040"><set attributeName="fill" to="#808080" begin="zoomplus.mouseover" end="zoomplus.mouseout"/></use>
    <path d="M-4,0h8M0,-4v8" fill="none" stroke="white" stroke-width="1.5" pointer-events="none"/>
  </g>
  <g id="zoomMin">
    <use xlink:href="#rim" fill="#404040"><set attributeName="fill" to="#808080" begin="zoomminus.mouseover" end="zoomminus.mouseout"/></use>
    <path d="M-4,0h8" fill="none" stroke="white" stroke-width="1.5" pointer-events="none"/>
  </g>
  <g id="arrowUp" transform="translate(30 24)">
    <use xlink:href="#rim"/>
    <path pointer-events="none" fill="none" stroke="white" stroke-width="1.5" d="M0,-3.0v7 M-2.5,-0.5L0,-3.0L2.5,-0.5"/>
  </g>
  <g id="arrowRight" transform="rotate(90) translate(36 -43)">
    <use xlink:href="#rim"/>
    <path pointer-events="none" fill="none" stroke="white" stroke-width="1.5" d="M0,-3.0v7 M-2.5,-0.5L0,-3.0L2.5,-0.5"/>
  </g>
  <g id="arrowDown" transform="rotate(180) translate(-30 -48)">
    <use xlink:href="#rim"/>
    <path pointer-events="none" fill="none" stroke="white" stroke-width="1.5" d="M0,-3.0v7 M-2.5,-0.5L0,-3.0L2.5,-0.5"/>
  </g>
  <g id="arrowLeft" transform="rotate(270) translate(-36 17)">
    <use xlink:href="#rim"/>
    <path pointer-events="none" fill="none" stroke="white" stroke-width="1.5" d="M0,-3.0v7 M-2.5,-0.5L0,-3.0L2.5,-0.5"/>
  </g>
  <g id="resetDef">
    <use xlink:href="#rim2" fill="#404040"><set attributeName="fill" to="#808080" begin="reset.mouseover" end="reset.mouseout"/></use>
  </g>
</defs>
<script type="application/ecmascript">
var viewWidth = 693;
var viewHeight = 215;
var sectionId = 'dynsection-34';
</script>
<script type="application/ecmascript" xlink:href="svg.min.js"/>
<svg id="graph" class="graph">
<g id="viewport">
<title>NukiLock::NukiLock::requestKeyTurnerState</title>
<!-- Node1 -->
<g id="Node000001" class="node">
<title>Node1</title>
<g id="a_Node000001"><a xlink:title="Requests keyturner state from Lock via BLE.">
<polygon fill="#999999" stroke="#666666" points="120.25,-123.78 0,-123.78 0,-93.28 120.25,-93.28 120.25,-123.78"/>
<text text-anchor="start" x="8" y="-110.28" font-family="Helvetica,sans-Serif" font-size="10.00">NukiLock::NukiLock</text>
<text text-anchor="middle" x="60.12" y="-99.03" font-family="Helvetica,sans-Serif" font-size="10.00">::requestKeyTurnerState</text>
</a>
</g>
</g>
<!-- Node2 -->
<g id="Node000002" class="node">
<title>Node2</title>
<g id="a_Node000002"><a xlink:href="class_nuki_1_1_nuki_ble.html#af1f1e299e8d97e053bba80e92ba285d6" target="_top" xlink:title=" ">
<polygon fill="white" stroke="#666666" points="297.5,-118.16 156.25,-118.16 156.25,-98.91 297.5,-98.91 297.5,-118.16"/>
<text text-anchor="middle" x="226.88" y="-104.66" font-family="Helvetica,sans-Serif" font-size="10.00">Nuki::NukiBle::executeAction</text>
</a>
</g>
</g>
<!-- Node1&#45;&gt;Node2 -->
<g id="edge1_Node000001_Node000002" class="edge">
<title>Node1&#45;&gt;Node2</title>
<g id="a_edge1_Node000001_Node000002"><a xlink:title=" ">
<path fill="none" stroke="#63b8ff" d="M120.6,-108.53C128.37,-108.53 136.43,-108.53 144.49,-108.53"/>
<polygon fill="#63b8ff" stroke="#63b8ff" points="144.31,-112.03 154.31,-108.53 144.31,-105.03 144.31,-112.03"/>
</a>
</g>
</g>
<!-- Node3 -->
<g id="Node000003" class="node">
<title>Node3</title>
<g id="a_Node000003"><a xlink:href="class_nuki_1_1_nuki_ble.html#ada0f3beebd95d35c122e25dd3f9eb886" target="_top" xlink:title=" ">
<polygon fill="white" stroke="#666666" points="481.5,-145.78 344,-145.78 344,-115.28 481.5,-115.28 481.5,-145.78"/>
<text text-anchor="start" x="352" y="-132.28" font-family="Helvetica,sans-Serif" font-size="10.00">Nuki::NukiBle::cmdChallAcc</text>
<text text-anchor="middle" x="412.75" y="-121.03" font-family="Helvetica,sans-Serif" font-size="10.00">StateMachine</text>
</a>
</g>
</g>
<!-- Node2&#45;&gt;Node3 -->
<g id="edge2_Node000002_Node000003" class="edge">
<title>Node2&#45;&gt;Node3</title>
<g id="a_edge2_Node000002_Node000003"><a xlink:title=" ">
<path fill="none" stroke="#63b8ff" d="M297.91,-116.91C309.18,-118.26 320.91,-119.66 332.38,-121.04"/>
<polygon fill="#63b8ff" stroke="#63b8ff" points="331.88,-124.5 342.22,-122.21 332.71,-117.55 331.88,-124.5"/>
</a>
</g>
</g>
<!-- Node4 -->
<g id="Node000004" class="node">
<title>Node4</title>
<g id="a_Node000004"><a xlink:href="class_nuki_1_1_nuki_ble.html#a6e8fca90c04249660dce6cb993eb4495" target="_top" xlink:title=" ">
<polygon fill="white" stroke="#666666" points="685,-186.78 528,-186.78 528,-156.28 685,-156.28 685,-186.78"/>
<text text-anchor="start" x="536" y="-173.28" font-family="Helvetica,sans-Serif" font-size="10.00">Nuki::NukiBle::extendDisconnect</text>
<text text-anchor="middle" x="606.5" y="-162.03" font-family="Helvetica,sans-Serif" font-size="10.00">Timeout</text>
</a>
</g>
</g>
<!-- Node2&#45;&gt;Node4 -->
<g id="edge15_Node000002_Node000004" class="edge">
<title>Node2&#45;&gt;Node4</title>
<g id="a_edge15_Node000002_Node000004"><a xlink:title=" ">
<path fill="none" stroke="#63b8ff" d="M236.16,-118.58C252.45,-137.45 290.81,-177.63 333.5,-192.53 402.88,-216.76 488.07,-203.9 544.43,-190.02"/>
<polygon fill="#63b8ff" stroke="#63b8ff" points="545.01,-193.48 553.83,-187.61 543.28,-186.7 545.01,-193.48"/>
</a>
</g>
</g>
<!-- Node5 -->
<g id="Node000005" class="node">
<title>Node5</title>
<g id="a_Node000005"><a xlink:href="class_nuki_1_1_nuki_ble.html#ac7ce691d9c3e586474655d1663eb2e20" target="_top" xlink:title=" ">
<polygon fill="white" stroke="#666666" points="672.62,-137.16 540.38,-137.16 540.38,-117.91 672.62,-117.91 672.62,-137.16"/>
<text text-anchor="middle" x="606.5" y="-123.66" font-family="Helvetica,sans-Serif" font-size="10.00">Nuki::NukiBle::logMessage</text>
</a>
</g>
</g>
<!-- Node2&#45;&gt;Node5 -->
<g id="edge16_Node000002_Node000005" class="edge">
<title>Node2&#45;&gt;Node5</title>
<g id="a_edge16_Node000002_Node000005"><a xlink:title=" ">
<path fill="none" stroke="#63b8ff" d="M297.76,-107.02C309.68,-106.82 321.95,-106.64 333.5,-106.53 403.94,-105.87 421.85,-100.1 492,-106.53 511.09,-108.28 531.76,-111.66 550.16,-115.2"/>
<polygon fill="#63b8ff" stroke="#63b8ff" points="549.32,-118.6 559.81,-117.12 550.68,-111.73 549.32,-118.6"/>
</a>
</g>
</g>
<!-- Node6 -->
<g id="Node000006" class="node">
<title>Node6</title>
<g id="a_Node000006"><a xlink:href="class_nuki_1_1_nuki_ble.html#af3650133f46aeca48a5f01b95d23ab71" target="_top" xlink:title=" ">
<polygon fill="white" stroke="#666666" points="680.12,-97.16 532.88,-97.16 532.88,-77.91 680.12,-77.91 680.12,-97.16"/>
<text text-anchor="middle" x="606.5" y="-83.66" font-family="Helvetica,sans-Serif" font-size="10.00">Nuki::NukiBle::logMessageVar</text>
</a>
</g>
</g>
<!-- Node2&#45;&gt;Node6 -->
<g id="edge17_Node000002_Node000006" class="edge">
<title>Node2&#45;&gt;Node6</title>
<g id="a_edge17_Node000002_Node000006"><a xlink:title=" ">
<path fill="none" stroke="#63b8ff" d="M235.55,-98.62C251.36,-79.14 289.74,-36.37 333.5,-20.53 399.74,3.44 428.17,9.27 492,-20.53 514.58,-31.08 507.25,-49.73 528,-63.53 533.85,-67.42 540.36,-70.71 547.05,-73.48"/>
<polygon fill="#63b8ff" stroke="#63b8ff" points="545.64,-76.69 556.24,-76.89 548.08,-70.13 545.64,-76.69"/>
</a>
</g>
</g>
<!-- Node7 -->
<g id="Node000007" class="node">
<title>Node7</title>
<g id="a_Node000007"><a xlink:href="class_nuki_1_1_nuki_ble.html#a59169a9f492793762e3c6ba39b611b07" target="_top" xlink:title=" ">
<polygon fill="white" stroke="#666666" points="484.5,-59.78 341,-59.78 341,-29.28 484.5,-29.28 484.5,-59.78"/>
<text text-anchor="start" x="349" y="-46.28" font-family="Helvetica,sans-Serif" font-size="10.00">Nuki::NukiBle::cmdChallState</text>
<text text-anchor="middle" x="412.75" y="-35.03" font-family="Helvetica,sans-Serif" font-size="10.00">Machine</text>
</a>
</g>
</g>
<!-- Node2&#45;&gt;Node7 -->
<g id="edge6_Node000002_Node000007" class="edge">
<title>Node2&#45;&gt;Node7</title>
<g id="a_edge6_Node000002_Node000007"><a xlink:title=" ">
<path fill="none" stroke="#63b8ff" d="M256.61,-98.53C283.1,-89.31 323.18,-75.36 355.96,-63.95"/>
<polygon fill="#63b8ff" stroke="#63b8ff" points="357.05,-67.28 365.34,-60.69 354.74,-60.67 357.05,-67.28"/>
</a>
</g>
</g>
<!-- Node9 -->
<g id="Node000009" class="node">
<title>Node9</title>
<g id="a_Node000009"><a xlink:href="class_nuki_1_1_nuki_ble.html#ad135bb1455665decfddff67772c1d411" target="_top" xlink:title=" ">
<polygon fill="white" stroke="#666666" points="492,-183.16 333.5,-183.16 333.5,-163.91 492,-163.91 492,-183.16"/>
<text text-anchor="middle" x="412.75" y="-169.66" font-family="Helvetica,sans-Serif" font-size="10.00">Nuki::NukiBle::cmdStateMachine</text>
</a>
</g>
</g>
<!-- Node2&#45;&gt;Node9 -->
<g id="edge11_Node000002_Node000009" class="edge">
<title>Node2&#45;&gt;Node9</title>
<g id="a_edge11_Node000002_Node000009"><a xlink:title=" ">
<path fill="none" stroke="#63b8ff" d="M248.11,-118.59C269.07,-128.72 302.98,-144.27 333.5,-154.53 340.02,-156.73 346.93,-158.78 353.83,-160.66"/>
<polygon fill="#63b8ff" stroke="#63b8ff" points="352.59,-163.96 363.15,-163.1 354.36,-157.19 352.59,-163.96"/>
</a>
</g>
</g>
<!-- Node3&#45;&gt;Node4 -->
<g id="edge3_Node000003_Node000004" class="edge">
<title>Node3&#45;&gt;Node4</title>
<g id="a_edge3_Node000003_Node000004"><a xlink:title=" ">
<path fill="none" stroke="#63b8ff" d="M481.89,-145.1C494.59,-147.82 508,-150.69 521.12,-153.49"/>
<polygon fill="#63b8ff" stroke="#63b8ff" points="520.06,-156.84 530.57,-155.51 521.52,-150 520.06,-156.84"/>
</a>
</g>
</g>
<!-- Node3&#45;&gt;Node5 -->
<g id="edge4_Node000003_Node000005" class="edge">
<title>Node3&#45;&gt;Node5</title>
<g id="a_edge4_Node000003_Node000005"><a xlink:title=" ">
<path fill="none" stroke="#63b8ff" d="M481.89,-129.47C497.14,-129.23 513.41,-128.97 528.97,-128.73"/>
<polygon fill="#63b8ff" stroke="#63b8ff" points="528.69,-132.24 538.63,-128.58 528.58,-125.24 528.69,-132.24"/>
</a>
</g>
</g>
<!-- Node3&#45;&gt;Node6 -->
<g id="edge5_Node000003_Node000006" class="edge">
<title>Node3&#45;&gt;Node6</title>
<g id="a_edge5_Node000003_Node000006"><a xlink:title=" ">
<path fill="none" stroke="#63b8ff" d="M481.89,-115.25C503.98,-110.3 528.2,-104.87 549.32,-100.13"/>
<polygon fill="#63b8ff" stroke="#63b8ff" points="549.9,-103.59 558.89,-97.99 548.36,-96.76 549.9,-103.59"/>
</a>
</g>
</g>
<!-- Node7&#45;&gt;Node4 -->
<g id="edge7_Node000007_Node000004" class="edge">
<title>Node7&#45;&gt;Node4</title>
<g id="a_edge7_Node000007_Node000004"><a xlink:title=" ">
<path fill="none" stroke="#63b8ff" d="M435.47,-60.19C451.63,-72.21 473.93,-89.57 492,-106.53 509.43,-122.91 507.93,-133.53 528,-146.53 530.39,-148.08 532.88,-149.54 535.44,-150.91"/>
<polygon fill="#63b8ff" stroke="#63b8ff" points="533.73,-153.97 544.26,-155.15 536.76,-147.66 533.73,-153.97"/>
</a>
</g>
</g>
<!-- Node7&#45;&gt;Node5 -->
<g id="edge9_Node000007_Node000005" class="edge">
<title>Node7&#45;&gt;Node5</title>
<g id="a_edge9_Node000007_Node000005"><a xlink:title=" ">
<path fill="none" stroke="#63b8ff" d="M464.77,-60.17C474.13,-63.94 483.59,-68.4 492,-73.53 510.52,-84.85 508.99,-96.06 528,-106.53 532.99,-109.28 538.35,-111.68 543.85,-113.78"/>
<polygon fill="#63b8ff" stroke="#63b8ff" points="542.5,-117.02 553.09,-116.97 544.78,-110.4 542.5,-117.02"/>
</a>
</g>
</g>
<!-- Node7&#45;&gt;Node6 -->
<g id="edge10_Node000007_Node000006" class="edge">
<title>Node7&#45;&gt;Node6</title>
<g id="a_edge10_Node000007_Node000006"><a xlink:title=" ">
<path fill="none" stroke="#63b8ff" d="M483.79,-60.24C505.36,-65.08 528.82,-70.34 549.34,-74.94"/>
<polygon fill="#63b8ff" stroke="#63b8ff" points="548.4,-78.32 558.92,-77.09 549.93,-71.49 548.4,-78.32"/>
</a>
</g>
</g>
<!-- Node8 -->
<g id="Node000008" class="node">
<title>Node8</title>
<g id="a_Node000008"><a xlink:href="class_nuki_1_1_nuki_ble.html#a25207bb564a4b54b8dd8c872177b53a7" target="_top" xlink:title="Returns if BLE is pairing/paired/connected with a Smart Lock Ultra.">
<polygon fill="white" stroke="#666666" points="671.5,-54.16 541.5,-54.16 541.5,-34.91 671.5,-34.91 671.5,-54.16"/>
<text text-anchor="middle" x="606.5" y="-40.66" font-family="Helvetica,sans-Serif" font-size="10.00">Nuki::NukiBle::isLockUltra</text>
</a>
</g>
</g>
<!-- Node7&#45;&gt;Node8 -->
<g id="edge8_Node000007_Node000008" class="edge">
<title>Node7&#45;&gt;Node8</title>
<g id="a_edge8_Node000007_Node000008"><a xlink:title=" ">
<path fill="none" stroke="#63b8ff" d="M484.88,-44.53C499.57,-44.53 515.1,-44.53 529.94,-44.53"/>
<polygon fill="#63b8ff" stroke="#63b8ff" points="529.62,-48.03 539.62,-44.53 529.62,-41.03 529.62,-48.03"/>
</a>
</g>
</g>
<!-- Node9&#45;&gt;Node4 -->
<g id="edge12_Node000009_Node000004" class="edge">
<title>Node9&#45;&gt;Node4</title>
<g id="a_edge12_Node000009_Node000004"><a xlink:title=" ">
<path fill="none" stroke="#63b8ff" d="M492.3,-172.71C500.24,-172.63 508.35,-172.55 516.39,-172.46"/>
<polygon fill="#63b8ff" stroke="#63b8ff" points="516.22,-175.96 526.18,-172.36 516.15,-168.97 516.22,-175.96"/>
</a>
</g>
</g>
<!-- Node9&#45;&gt;Node5 -->
<g id="edge13_Node000009_Node000005" class="edge">
<title>Node9&#45;&gt;Node5</title>
<g id="a_edge13_Node000009_Node000005"><a xlink:title=" ">
<path fill="none" stroke="#63b8ff" d="M455.83,-163.44C484.3,-156.61 522.14,-147.53 552.64,-140.21"/>
<polygon fill="#63b8ff" stroke="#63b8ff" points="553.14,-143.69 562.05,-137.96 551.51,-136.89 553.14,-143.69"/>
</a>
</g>
</g>
<!-- Node9&#45;&gt;Node6 -->
<g id="edge14_Node000009_Node000006" class="edge">
<title>Node9&#45;&gt;Node6</title>
<g id="a_edge14_Node000009_Node000006"><a xlink:title=" ">
<path fill="none" stroke="#63b8ff" d="M473.61,-163.49C480.08,-161.11 486.36,-158.17 492,-154.53 513.82,-140.47 506.37,-122.88 528,-108.53 531.75,-106.05 535.78,-103.85 539.97,-101.92"/>
<polygon fill="#63b8ff" stroke="#63b8ff" points="541.26,-105.17 549.22,-98.19 538.64,-98.68 541.26,-105.17"/>
</a>
</g>
</g>
</g>
</svg>

<g id="navigator" transform="translate(0 0)" fill="#404254">
  <rect fill="#f2f5e9" fill-opacity="0.5" stroke="#606060" stroke-width=".5" x="0" y="0" width="60" height="60"/>
  <use id="zoomplus" xlink:href="#zoomPlus" x="17" y="9" onmousedown="handleZoom(evt,'in')"/>
  <use id="zoomminus" xlink:href="#zoomMin" x="42" y="9" onmousedown="handleZoom(evt,'out')"/>
  <use id="reset" xlink:href="#resetDef" x="30" y="36" onmousedown="handleReset()"/>
   <use id="arrowup" xlink:href="#arrowUp" x="0" y="0" onmousedown="handlePan(0,-1)"/>
  <use id="arrowright" xlink:href="#arrowRight" x="0" y="0" onmousedown="handlePan(1,0)"/>
  <use id="arrowdown" xlink:href="#arrowDown" x="0" y="0" onmousedown="handlePan(0,1)"/>
  <use id="arrowleft" xlink:href="#arrowLeft" x="0" y="0" onmousedown="handlePan(-1,0)"/>
</g>
<svg viewBox="0 0 15 15" width="100%" height="30px" preserveAspectRatio="xMaxYMin meet">
 <g id="arrow_out" transform="scale(0.3 0.3)">
  <a xlink:href="class_nuki_lock_1_1_nuki_lock_a28358f24ba27300e6c5098a478e0719e_cgraph_org.svg" target="_base">
   <rect id="button" ry="5" rx="5" y="6" x="6" height="38" width="38"
        fill="#f2f5e9" fill-opacity="0.5" stroke="#606060" stroke-width="1.0"/>
   <path id="arrow"
     d="M 11.500037,31.436501 C 11.940474,20.09759 22.043105,11.32322 32.158766,21.979434 L 37.068811,17.246167 C 37.068811,17.246167 37.088388,32 37.088388,32 L 22.160133,31.978069 C 22.160133,31.978069 26.997745,27.140456 26.997745,27.140456 C 18.528582,18.264221 13.291696,25.230495 11.500037,31.436501 z"
     style="fill:#404040;"/>
  </a>
 </g>
</svg>

<style type='text/css'>
<![CDATA[
[data-mouse-over-selected='false'] { opacity: 0.7; }
[data-mouse-over-selected='true']  { opacity: 1.0; }
]]>
</style>
<script type="application/ecmascript"><![CDATA[
document.addEventListener('DOMContentLoaded', (event) => {
  highlightEdges();
  highlightAdjacentNodes();
});
]]></script>
</svg>
