<?xml version="1.0" encoding="UTF-8" standalone="no"?>
<!DOCTYPE svg PUBLIC "-//W3C//DTD SVG 1.1//EN"
 "http://www.w3.org/Graphics/SVG/1.1/DTD/svg11.dtd">
<!-- Generated by graphviz version 12.2.1 (20241206.2353)
 -->
<!-- Title: NukiOpener::NukiOpener::updateTimeControlEntry Pages: 1 -->
<svg width="697pt" height="306pt"
 viewBox="0.00 0.00 696.75 306.03" xmlns="http://www.w3.org/2000/svg" xmlns:xlink="http://www.w3.org/1999/xlink">
<g id="graph0" class="graph" transform="scale(1 1) rotate(0) translate(4 302.03)">
<title>NukiOpener::NukiOpener::updateTimeControlEntry</title>
<!-- Node1 -->
<g id="Node000001" class="node">
<title>Node1</title>
<g id="a_Node000001"><a xlink:title="Sends an updated time(d) control entry via BLE to the opener. (see addTimeControlEntry())">
<polygon fill="#999999" stroke="#666666" points="124,-88.88 0,-88.88 0,-58.38 124,-58.38 124,-88.88"/>
<text text-anchor="start" x="8" y="-75.38" font-family="Helvetica,sans-Serif" font-size="10.00">NukiOpener::NukiOpener</text>
<text text-anchor="middle" x="62" y="-64.12" font-family="Helvetica,sans-Serif" font-size="10.00">::updateTimeControlEntry</text>
</a>
</g>
</g>
<!-- Node2 -->
<g id="Node000002" class="node">
<title>Node2</title>
<g id="a_Node000002"><a xlink:href="class_nuki_1_1_nuki_ble.html#af1f1e299e8d97e053bba80e92ba285d6" target="_top" xlink:title=" ">
<polygon fill="white" stroke="#666666" points="301.25,-176.25 160,-176.25 160,-157 301.25,-157 301.25,-176.25"/>
<text text-anchor="middle" x="230.62" y="-162.75" font-family="Helvetica,sans-Serif" font-size="10.00">Nuki::NukiBle::executeAction</text>
</a>
</g>
</g>
<!-- Node1&#45;&gt;Node2 -->
<g id="edge1_Node000001_Node000002" class="edge">
<title>Node1&#45;&gt;Node2</title>
<g id="a_edge1_Node000001_Node000002"><a xlink:title=" ">
<path fill="none" stroke="#63b8ff" d="M90.89,-89.19C121.72,-106.4 171.08,-133.95 201.86,-151.13"/>
<polygon fill="#63b8ff" stroke="#63b8ff" points="200.15,-154.18 210.59,-156 203.56,-148.07 200.15,-154.18"/>
</a>
</g>
</g>
<!-- Node9 -->
<g id="Node000009" class="node">
<title>Node9</title>
<g id="a_Node000009"><a xlink:href="namespace_nuki_opener.html#ac87f753e40affc2a7be0d69862685555" target="_top" xlink:title=" ">
<polygon fill="white" stroke="#666666" points="486.38,-62.25 346.62,-62.25 346.62,-43 486.38,-43 486.38,-62.25"/>
<text text-anchor="middle" x="416.5" y="-48.75" font-family="Helvetica,sans-Serif" font-size="10.00">NukiOpener::logMessageVar</text>
</a>
</g>
</g>
<!-- Node1&#45;&gt;Node9 -->
<g id="edge17_Node000001_Node000009" class="edge">
<title>Node1&#45;&gt;Node9</title>
<g id="a_edge17_Node000001_Node000009"><a xlink:title=" ">
<path fill="none" stroke="#63b8ff" d="M124.31,-75.81C136.15,-76.15 148.46,-76.45 160,-76.62 222.77,-77.6 238.81,-83.11 301.25,-76.62 322.75,-74.39 346.17,-69.85 366.17,-65.32"/>
<polygon fill="#63b8ff" stroke="#63b8ff" points="366.79,-68.77 375.73,-63.08 365.2,-61.95 366.79,-68.77"/>
</a>
</g>
</g>
<!-- Node10 -->
<g id="Node000010" class="node">
<title>Node10</title>
<g id="a_Node000010"><a xlink:href="namespace_nuki_opener.html#af823ab673287af9ea23f8c4a30c7d053" target="_top" xlink:title=" ">
<polygon fill="white" stroke="#666666" points="299.38,-67.88 161.88,-67.88 161.88,-37.38 299.38,-37.38 299.38,-67.88"/>
<text text-anchor="start" x="169.88" y="-54.38" font-family="Helvetica,sans-Serif" font-size="10.00">NukiOpener::logTimeControl</text>
<text text-anchor="middle" x="230.62" y="-43.12" font-family="Helvetica,sans-Serif" font-size="10.00">Entry</text>
</a>
</g>
</g>
<!-- Node1&#45;&gt;Node10 -->
<g id="edge18_Node000001_Node000010" class="edge">
<title>Node1&#45;&gt;Node10</title>
<g id="a_edge18_Node000001_Node000010"><a xlink:title=" ">
<path fill="none" stroke="#63b8ff" d="M124.1,-65.92C132.56,-64.86 141.35,-63.75 150.08,-62.65"/>
<polygon fill="#63b8ff" stroke="#63b8ff" points="150.52,-66.12 160,-61.4 149.64,-59.18 150.52,-66.12"/>
</a>
</g>
</g>
<!-- Node11 -->
<g id="Node000011" class="node">
<title>Node11</title>
<g id="a_Node000011"><a xlink:href="namespace_nuki.html#a438fdfcef9f81eb0a3e493631b71ca5b" target="_top" xlink:title=" ">
<polygon fill="white" stroke="#666666" points="273.12,-19.25 188.12,-19.25 188.12,0 273.12,0 273.12,-19.25"/>
<text text-anchor="middle" x="230.62" y="-5.75" font-family="Helvetica,sans-Serif" font-size="10.00">Nuki::printBuffer</text>
</a>
</g>
</g>
<!-- Node1&#45;&gt;Node11 -->
<g id="edge20_Node000001_Node000011" class="edge">
<title>Node1&#45;&gt;Node11</title>
<g id="a_edge20_Node000001_Node000011"><a xlink:title=" ">
<path fill="none" stroke="#63b8ff" d="M93.46,-57.89C112.29,-48.56 137.16,-36.97 160,-28.62 165.45,-26.63 171.21,-24.74 176.98,-22.98"/>
<polygon fill="#63b8ff" stroke="#63b8ff" points="177.96,-26.34 186.58,-20.17 176,-19.62 177.96,-26.34"/>
</a>
</g>
</g>
<!-- Node3 -->
<g id="Node000003" class="node">
<title>Node3</title>
<g id="a_Node000003"><a xlink:href="class_nuki_1_1_nuki_ble.html#ada0f3beebd95d35c122e25dd3f9eb886" target="_top" xlink:title=" ">
<polygon fill="white" stroke="#666666" points="485.25,-273.88 347.75,-273.88 347.75,-243.38 485.25,-243.38 485.25,-273.88"/>
<text text-anchor="start" x="355.75" y="-260.38" font-family="Helvetica,sans-Serif" font-size="10.00">Nuki::NukiBle::cmdChallAcc</text>
<text text-anchor="middle" x="416.5" y="-249.12" font-family="Helvetica,sans-Serif" font-size="10.00">StateMachine</text>
</a>
</g>
</g>
<!-- Node2&#45;&gt;Node3 -->
<g id="edge2_Node000002_Node000003" class="edge">
<title>Node2&#45;&gt;Node3</title>
<g id="a_edge2_Node000002_Node000003"><a xlink:title=" ">
<path fill="none" stroke="#63b8ff" d="M244.99,-176.7C264.43,-190.97 302.04,-217.16 337.25,-233.62 341.21,-235.47 345.34,-237.24 349.54,-238.91"/>
<polygon fill="#63b8ff" stroke="#63b8ff" points="348.08,-242.1 358.68,-242.35 350.55,-235.55 348.08,-242.1"/>
</a>
</g>
</g>
<!-- Node4 -->
<g id="Node000004" class="node">
<title>Node4</title>
<g id="a_Node000004"><a xlink:href="class_nuki_1_1_nuki_ble.html#a6e8fca90c04249660dce6cb993eb4495" target="_top" xlink:title=" ">
<polygon fill="white" stroke="#666666" points="688.75,-260.88 531.75,-260.88 531.75,-230.38 688.75,-230.38 688.75,-260.88"/>
<text text-anchor="start" x="539.75" y="-247.38" font-family="Helvetica,sans-Serif" font-size="10.00">Nuki::NukiBle::extendDisconnect</text>
<text text-anchor="middle" x="610.25" y="-236.12" font-family="Helvetica,sans-Serif" font-size="10.00">Timeout</text>
</a>
</g>
</g>
<!-- Node2&#45;&gt;Node4 -->
<g id="edge14_Node000002_Node000004" class="edge">
<title>Node2&#45;&gt;Node4</title>
<g id="a_edge14_Node000002_Node000004"><a xlink:title=" ">
<path fill="none" stroke="#63b8ff" d="M236.83,-176.61C249.89,-200.43 286.68,-260.28 337.25,-282.62 412.24,-315.76 509.27,-287.65 564.86,-265.65"/>
<polygon fill="#63b8ff" stroke="#63b8ff" points="566.07,-268.94 574,-261.92 563.42,-262.46 566.07,-268.94"/>
</a>
</g>
</g>
<!-- Node5 -->
<g id="Node000005" class="node">
<title>Node5</title>
<g id="a_Node000005"><a xlink:href="class_nuki_1_1_nuki_ble.html#ac7ce691d9c3e586474655d1663eb2e20" target="_top" xlink:title=" ">
<polygon fill="white" stroke="#666666" points="676.38,-188.25 544.12,-188.25 544.12,-169 676.38,-169 676.38,-188.25"/>
<text text-anchor="middle" x="610.25" y="-174.75" font-family="Helvetica,sans-Serif" font-size="10.00">Nuki::NukiBle::logMessage</text>
</a>
</g>
</g>
<!-- Node2&#45;&gt;Node5 -->
<g id="edge15_Node000002_Node000005" class="edge">
<title>Node2&#45;&gt;Node5</title>
<g id="a_edge15_Node000002_Node000005"><a xlink:title=" ">
<path fill="none" stroke="#63b8ff" d="M301.33,-168.84C366.8,-170.92 464.57,-174.03 532.3,-176.18"/>
<polygon fill="#63b8ff" stroke="#63b8ff" points="532.13,-179.68 542.23,-176.5 532.35,-172.68 532.13,-179.68"/>
</a>
</g>
</g>
<!-- Node6 -->
<g id="Node000006" class="node">
<title>Node6</title>
<g id="a_Node000006"><a xlink:href="class_nuki_1_1_nuki_ble.html#af3650133f46aeca48a5f01b95d23ab71" target="_top" xlink:title=" ">
<polygon fill="white" stroke="#666666" points="683.88,-151.25 536.62,-151.25 536.62,-132 683.88,-132 683.88,-151.25"/>
<text text-anchor="middle" x="610.25" y="-137.75" font-family="Helvetica,sans-Serif" font-size="10.00">Nuki::NukiBle::logMessageVar</text>
</a>
</g>
</g>
<!-- Node2&#45;&gt;Node6 -->
<g id="edge16_Node000002_Node000006" class="edge">
<title>Node2&#45;&gt;Node6</title>
<g id="a_edge16_Node000002_Node000006"><a xlink:title=" ">
<path fill="none" stroke="#63b8ff" d="M245.05,-156.5C264.27,-142.72 301.29,-118.71 337.25,-109.62 405.55,-92.37 425.97,-99.98 495.75,-109.62 521.31,-113.16 549.21,-120.97 570.95,-127.99"/>
<polygon fill="#63b8ff" stroke="#63b8ff" points="569.69,-131.26 580.28,-131.08 571.89,-124.61 569.69,-131.26"/>
</a>
</g>
</g>
<!-- Node7 -->
<g id="Node000007" class="node">
<title>Node7</title>
<g id="a_Node000007"><a xlink:href="class_nuki_1_1_nuki_ble.html#a59169a9f492793762e3c6ba39b611b07" target="_top" xlink:title=" ">
<polygon fill="white" stroke="#666666" points="488.25,-224.88 344.75,-224.88 344.75,-194.38 488.25,-194.38 488.25,-224.88"/>
<text text-anchor="start" x="352.75" y="-211.38" font-family="Helvetica,sans-Serif" font-size="10.00">Nuki::NukiBle::cmdChallState</text>
<text text-anchor="middle" x="416.5" y="-200.12" font-family="Helvetica,sans-Serif" font-size="10.00">Machine</text>
</a>
</g>
</g>
<!-- Node2&#45;&gt;Node7 -->
<g id="edge6_Node000002_Node000007" class="edge">
<title>Node2&#45;&gt;Node7</title>
<g id="a_edge6_Node000002_Node000007"><a xlink:title=" ">
<path fill="none" stroke="#63b8ff" d="M274.74,-176.71C293.36,-181.06 315.74,-186.3 337.13,-191.3"/>
<polygon fill="#63b8ff" stroke="#63b8ff" points="336.18,-194.67 346.72,-193.54 337.78,-187.85 336.18,-194.67"/>
</a>
</g>
</g>
<!-- Node8 -->
<g id="Node000008" class="node">
<title>Node8</title>
<g id="a_Node000008"><a xlink:href="class_nuki_1_1_nuki_ble.html#ad135bb1455665decfddff67772c1d411" target="_top" xlink:title=" ">
<polygon fill="white" stroke="#666666" points="495.75,-138.25 337.25,-138.25 337.25,-119 495.75,-119 495.75,-138.25"/>
<text text-anchor="middle" x="416.5" y="-124.75" font-family="Helvetica,sans-Serif" font-size="10.00">Nuki::NukiBle::cmdStateMachine</text>
</a>
</g>
</g>
<!-- Node2&#45;&gt;Node8 -->
<g id="edge10_Node000002_Node000008" class="edge">
<title>Node2&#45;&gt;Node8</title>
<g id="a_edge10_Node000002_Node000008"><a xlink:title=" ">
<path fill="none" stroke="#63b8ff" d="M280.42,-156.54C303.47,-151.78 331.21,-146.05 355.53,-141.02"/>
<polygon fill="#63b8ff" stroke="#63b8ff" points="356.23,-144.45 365.32,-139 354.82,-137.59 356.23,-144.45"/>
</a>
</g>
</g>
<!-- Node3&#45;&gt;Node4 -->
<g id="edge3_Node000003_Node000004" class="edge">
<title>Node3&#45;&gt;Node4</title>
<g id="a_edge3_Node000003_Node000004"><a xlink:title=" ">
<path fill="none" stroke="#63b8ff" d="M485.64,-254.01C496.9,-253.24 508.72,-252.44 520.39,-251.65"/>
<polygon fill="#63b8ff" stroke="#63b8ff" points="520.27,-255.17 530.01,-251 519.8,-248.18 520.27,-255.17"/>
</a>
</g>
</g>
<!-- Node3&#45;&gt;Node5 -->
<g id="edge4_Node000003_Node000005" class="edge">
<title>Node3&#45;&gt;Node5</title>
<g id="a_edge4_Node000003_Node000005"><a xlink:title=" ">
<path fill="none" stroke="#63b8ff" d="M470.06,-242.97C478.72,-240.07 487.54,-236.91 495.75,-233.62 525.41,-221.77 558.13,-205.56 580.79,-193.82"/>
<polygon fill="#63b8ff" stroke="#63b8ff" points="582.16,-197.05 589.4,-189.31 578.92,-190.84 582.16,-197.05"/>
</a>
</g>
</g>
<!-- Node3&#45;&gt;Node6 -->
<g id="edge5_Node000003_Node000006" class="edge">
<title>Node3&#45;&gt;Node6</title>
<g id="a_edge5_Node000003_Node000006"><a xlink:title=" ">
<path fill="none" stroke="#63b8ff" d="M481.79,-243.04C486.81,-240.38 491.55,-237.27 495.75,-233.62 523.4,-209.68 503.15,-182.43 531.75,-159.62 532.87,-158.73 534.03,-157.88 535.23,-157.06"/>
<polygon fill="#63b8ff" stroke="#63b8ff" points="536.6,-160.31 543.59,-152.35 533.16,-154.21 536.6,-160.31"/>
</a>
</g>
</g>
<!-- Node7&#45;&gt;Node4 -->
<g id="edge7_Node000007_Node000004" class="edge">
<title>Node7&#45;&gt;Node4</title>
<g id="a_edge7_Node000007_Node000004"><a xlink:title=" ">
<path fill="none" stroke="#63b8ff" d="M488.63,-222.98C498.99,-224.92 509.77,-226.95 520.43,-228.95"/>
<polygon fill="#63b8ff" stroke="#63b8ff" points="519.51,-232.34 529.98,-230.74 520.8,-225.46 519.51,-232.34"/>
</a>
</g>
</g>
<!-- Node7&#45;&gt;Node5 -->
<g id="edge8_Node000007_Node000005" class="edge">
<title>Node7&#45;&gt;Node5</title>
<g id="a_edge8_Node000007_Node000005"><a xlink:title=" ">
<path fill="none" stroke="#63b8ff" d="M488.63,-198.13C503.98,-195.64 520.24,-193.02 535.68,-190.52"/>
<polygon fill="#63b8ff" stroke="#63b8ff" points="535.95,-194.02 545.27,-188.97 534.84,-187.11 535.95,-194.02"/>
</a>
</g>
</g>
<!-- Node7&#45;&gt;Node6 -->
<g id="edge9_Node000007_Node000006" class="edge">
<title>Node7&#45;&gt;Node6</title>
<g id="a_edge9_Node000007_Node000006"><a xlink:title=" ">
<path fill="none" stroke="#63b8ff" d="M448.89,-194.01C471.51,-183.23 502.98,-169.17 531.75,-159.62 537.18,-157.82 542.89,-156.13 548.63,-154.56"/>
<polygon fill="#63b8ff" stroke="#63b8ff" points="549.41,-157.98 558.21,-152.08 547.65,-151.2 549.41,-157.98"/>
</a>
</g>
</g>
<!-- Node8&#45;&gt;Node4 -->
<g id="edge11_Node000008_Node000004" class="edge">
<title>Node8&#45;&gt;Node4</title>
<g id="a_edge11_Node000008_Node000004"><a xlink:title=" ">
<path fill="none" stroke="#63b8ff" d="M433.85,-138.6C464.72,-157.44 532.24,-198.64 573.92,-224.07"/>
<polygon fill="#63b8ff" stroke="#63b8ff" points="572.01,-227.01 582.37,-229.23 575.66,-221.03 572.01,-227.01"/>
</a>
</g>
</g>
<!-- Node8&#45;&gt;Node5 -->
<g id="edge12_Node000008_Node000005" class="edge">
<title>Node8&#45;&gt;Node5</title>
<g id="a_edge12_Node000008_Node000005"><a xlink:title=" ">
<path fill="none" stroke="#63b8ff" d="M451.89,-138.69C474.51,-145.21 504.81,-153.73 531.75,-160.62 538.77,-162.42 546.17,-164.24 553.49,-165.99"/>
<polygon fill="#63b8ff" stroke="#63b8ff" points="552.49,-169.35 563.02,-168.24 554.1,-162.54 552.49,-169.35"/>
</a>
</g>
</g>
<!-- Node8&#45;&gt;Node6 -->
<g id="edge13_Node000008_Node000006" class="edge">
<title>Node8&#45;&gt;Node6</title>
<g id="a_edge13_Node000008_Node000006"><a xlink:title=" ">
<path fill="none" stroke="#63b8ff" d="M496.05,-133.95C505.63,-134.6 515.46,-135.27 525.13,-135.92"/>
<polygon fill="#63b8ff" stroke="#63b8ff" points="524.66,-139.4 534.87,-136.58 525.13,-132.41 524.66,-139.4"/>
</a>
</g>
</g>
<!-- Node10&#45;&gt;Node9 -->
<g id="edge19_Node000010_Node000009" class="edge">
<title>Node10&#45;&gt;Node9</title>
<g id="a_edge19_Node000010_Node000009"><a xlink:title=" ">
<path fill="none" stroke="#63b8ff" d="M299.83,-52.62C311.29,-52.62 323.29,-52.62 335.02,-52.62"/>
<polygon fill="#63b8ff" stroke="#63b8ff" points="334.66,-56.13 344.66,-52.63 334.66,-49.13 334.66,-56.13"/>
</a>
</g>
</g>
</g>
</svg>
