<?xml version="1.0" encoding="UTF-8" standalone="no"?>
<!DOCTYPE svg PUBLIC "-//W3C//DTD SVG 1.1//EN"
 "http://www.w3.org/Graphics/SVG/1.1/DTD/svg11.dtd">
<!-- Generated by graphviz version 6.0.1 (20220911.1526)
 -->
<!-- Title: Nuki::NukiBle::deleteKeypadEntry Pages: 1 -->
<svg width="520pt" height="172pt"
 viewBox="0.00 0.00 520.00 172.00" xmlns="http://www.w3.org/2000/svg" xmlns:xlink="http://www.w3.org/1999/xlink">
<g id="graph0" class="graph" transform="scale(1 1) rotate(0) translate(4 168)">
<title>Nuki::NukiBle::deleteKeypadEntry</title>
<!-- Node1 -->
<g id="node1" class="node">
<title>Node1</title>
<g id="a_node1"><a xlink:title="Delete a Keypad Entry.">
<polygon fill="#999999" stroke="#666666" points="139,-94 0,-94 0,-64 139,-64 139,-94"/>
<text text-anchor="start" x="8" y="-82" font-family="Helvetica,sans-Serif" font-size="10.00">Nuki::NukiBle::deleteKeypad</text>
<text text-anchor="middle" x="69.5" y="-71" font-family="Helvetica,sans-Serif" font-size="10.00">Entry</text>
</a>
</g>
</g>
<!-- Node2 -->
<g id="node2" class="node">
<title>Node2</title>
<g id="a_node2"><a xlink:href="class_nuki_1_1_nuki_ble.html#af1f1e299e8d97e053bba80e92ba285d6" target="_top" xlink:title=" ">
<polygon fill="white" stroke="#666666" points="317,-88.5 175,-88.5 175,-69.5 317,-69.5 317,-88.5"/>
<text text-anchor="middle" x="246" y="-76.5" font-family="Helvetica,sans-Serif" font-size="10.00">Nuki::NukiBle::executeAction</text>
</a>
</g>
</g>
<!-- Node1&#45;&gt;Node2 -->
<g id="edge1" class="edge">
<title>Node1&#45;&gt;Node2</title>
<path fill="none" stroke="#63b8ff" d="M139.22,-79C147.65,-79 156.32,-79 164.9,-79"/>
<polygon fill="#63b8ff" stroke="#63b8ff" points="164.91,-82.5 174.91,-79 164.91,-75.5 164.91,-82.5"/>
</g>
<!-- Node3 -->
<g id="node3" class="node">
<title>Node3</title>
<g id="a_node3"><a xlink:href="class_nuki_1_1_nuki_ble.html#ada0f3beebd95d35c122e25dd3f9eb886" target="_top" xlink:title=" ">
<polygon fill="white" stroke="#666666" points="501.5,-164 363.5,-164 363.5,-134 501.5,-134 501.5,-164"/>
<text text-anchor="start" x="371.5" y="-152" font-family="Helvetica,sans-Serif" font-size="10.00">Nuki::NukiBle::cmdChallAcc</text>
<text text-anchor="middle" x="432.5" y="-141" font-family="Helvetica,sans-Serif" font-size="10.00">StateMachine</text>
</a>
</g>
</g>
<!-- Node2&#45;&gt;Node3 -->
<g id="edge2" class="edge">
<title>Node2&#45;&gt;Node3</title>
<path fill="none" stroke="#63b8ff" d="M267.05,-88.51C288.16,-98.33 322.51,-113.76 353,-125 358.4,-126.99 364.04,-128.95 369.73,-130.83"/>
<polygon fill="#63b8ff" stroke="#63b8ff" points="368.7,-134.18 379.29,-133.94 370.86,-127.52 368.7,-134.18"/>
</g>
<!-- Node4 -->
<g id="node4" class="node">
<title>Node4</title>
<g id="a_node4"><a xlink:href="class_nuki_1_1_nuki_ble.html#a59169a9f492793762e3c6ba39b611b07" target="_top" xlink:title=" ">
<polygon fill="white" stroke="#666666" points="504.5,-116 360.5,-116 360.5,-86 504.5,-86 504.5,-116"/>
<text text-anchor="start" x="368.5" y="-104" font-family="Helvetica,sans-Serif" font-size="10.00">Nuki::NukiBle::cmdChallState</text>
<text text-anchor="middle" x="432.5" y="-93" font-family="Helvetica,sans-Serif" font-size="10.00">Machine</text>
</a>
</g>
</g>
<!-- Node2&#45;&gt;Node4 -->
<g id="edge3" class="edge">
<title>Node2&#45;&gt;Node4</title>
<path fill="none" stroke="#63b8ff" d="M317.01,-87.35C327.86,-88.64 339.15,-89.99 350.22,-91.31"/>
<polygon fill="#63b8ff" stroke="#63b8ff" points="349.96,-94.8 360.31,-92.51 350.79,-87.85 349.96,-94.8"/>
</g>
<!-- Node5 -->
<g id="node5" class="node">
<title>Node5</title>
<g id="a_node5"><a xlink:href="class_nuki_1_1_nuki_ble.html#ad135bb1455665decfddff67772c1d411" target="_top" xlink:title=" ">
<polygon fill="white" stroke="#666666" points="512,-67.5 353,-67.5 353,-48.5 512,-48.5 512,-67.5"/>
<text text-anchor="middle" x="432.5" y="-55.5" font-family="Helvetica,sans-Serif" font-size="10.00">Nuki::NukiBle::cmdStateMachine</text>
</a>
</g>
</g>
<!-- Node2&#45;&gt;Node5 -->
<g id="edge4" class="edge">
<title>Node2&#45;&gt;Node5</title>
<path fill="none" stroke="#63b8ff" d="M317.01,-71.03C325.44,-70.07 334.13,-69.08 342.78,-68.1"/>
<polygon fill="#63b8ff" stroke="#63b8ff" points="343.35,-71.56 352.89,-66.95 342.56,-64.6 343.35,-71.56"/>
</g>
<!-- Node6 -->
<g id="node6" class="node">
<title>Node6</title>
<g id="a_node6"><a xlink:href="class_nuki_1_1_nuki_ble.html#aed01f10d1ffa769f0f6fadc0d06d328e" target="_top" xlink:title=" ">
<polygon fill="white" stroke="#666666" points="508.5,-30 356.5,-30 356.5,0 508.5,0 508.5,-30"/>
<text text-anchor="start" x="364.5" y="-18" font-family="Helvetica,sans-Serif" font-size="10.00">Nuki::NukiBle::extendDisonnect</text>
<text text-anchor="middle" x="432.5" y="-7" font-family="Helvetica,sans-Serif" font-size="10.00">Timeout</text>
</a>
</g>
</g>
<!-- Node2&#45;&gt;Node6 -->
<g id="edge5" class="edge">
<title>Node2&#45;&gt;Node6</title>
<path fill="none" stroke="#63b8ff" d="M272.16,-69.39C293.57,-61.29 325.18,-49.54 353,-40 359.54,-37.76 366.42,-35.47 373.26,-33.23"/>
<polygon fill="#63b8ff" stroke="#63b8ff" points="374.8,-36.41 383.23,-30 372.64,-29.75 374.8,-36.41"/>
</g>
</g>
</svg>
