<?xml version="1.0" encoding="UTF-8" standalone="no"?>
<!DOCTYPE svg PUBLIC "-//W3C//DTD SVG 1.1//EN"
 "http://www.w3.org/Graphics/SVG/1.1/DTD/svg11.dtd">
<!-- Generated by graphviz version 8.0.5 (20230430.1635)
 -->
<!-- Title: Nuki::NukiBle Pages: 1 -->
<svg width="254pt" height="138pt"
 viewBox="0.00 0.00 254.25 137.75" xmlns="http://www.w3.org/2000/svg" xmlns:xlink="http://www.w3.org/1999/xlink">
<g id="graph0" class="graph" transform="scale(1 1) rotate(0) translate(4 133.75)">
<title>Nuki::NukiBle</title>
<!-- Node1 -->
<g id="node1" class="node">
<title>Node1</title>
<g id="a_node1"><a xlink:title=" ">
<polygon fill="#999999" stroke="#666666" points="155.88,-74.5 80.62,-74.5 80.62,-55.25 155.88,-55.25 155.88,-74.5"/>
<text text-anchor="middle" x="118.25" y="-61" font-family="Helvetica,sans-Serif" font-size="10.00">Nuki::NukiBle</text>
</a>
</g>
</g>
<!-- Node4 -->
<g id="node4" class="node">
<title>Node4</title>
<g id="a_node4"><a xlink:href="class_nuki_lock_1_1_nuki_lock.html" target="_top" xlink:title=" ">
<polygon fill="white" stroke="#666666" points="104.5,-19.25 0,-19.25 0,0 104.5,0 104.5,-19.25"/>
<text text-anchor="middle" x="52.25" y="-5.75" font-family="Helvetica,sans-Serif" font-size="10.00">NukiLock::NukiLock</text>
</a>
</g>
</g>
<!-- Node1&#45;&gt;Node4 -->
<g id="edge3" class="edge">
<title>Node1&#45;&gt;Node4</title>
<path fill="none" stroke="#63b8ff" d="M98.5,-47.94C86.98,-38.64 72.86,-27.26 63.28,-19.52"/>
<polygon fill="#63b8ff" stroke="#63b8ff" points="96.07,-51.29 106.05,-54.84 100.47,-45.84 96.07,-51.29"/>
</g>
<!-- Node5 -->
<g id="node5" class="node">
<title>Node5</title>
<g id="a_node5"><a xlink:href="class_nuki_opener_1_1_nuki_opener.html" target="_top" xlink:title=" ">
<polygon fill="white" stroke="#666666" points="246.25,-19.25 122.25,-19.25 122.25,0 246.25,0 246.25,-19.25"/>
<text text-anchor="middle" x="184.25" y="-5.75" font-family="Helvetica,sans-Serif" font-size="10.00">NukiOpener::NukiOpener</text>
</a>
</g>
</g>
<!-- Node1&#45;&gt;Node5 -->
<g id="edge4" class="edge">
<title>Node1&#45;&gt;Node5</title>
<path fill="none" stroke="#63b8ff" d="M138,-47.94C149.52,-38.64 163.64,-27.26 173.22,-19.52"/>
<polygon fill="#63b8ff" stroke="#63b8ff" points="136.03,-45.84 130.45,-54.84 140.43,-51.29 136.03,-45.84"/>
</g>
<!-- Node2 -->
<g id="node2" class="node">
<title>Node2</title>
<g id="a_node2"><a xlink:title=" ">
<polygon fill="white" stroke="#666666" points="105.38,-129.75 3.12,-129.75 3.12,-110.5 105.38,-110.5 105.38,-129.75"/>
<text text-anchor="middle" x="54.25" y="-116.25" font-family="Helvetica,sans-Serif" font-size="10.00">BLEClientCallbacks</text>
</a>
</g>
</g>
<!-- Node2&#45;&gt;Node1 -->
<g id="edge1" class="edge">
<title>Node2&#45;&gt;Node1</title>
<path fill="none" stroke="#63b8ff" d="M73.4,-103.19C84.58,-93.89 98.26,-82.51 107.55,-74.77"/>
<polygon fill="#63b8ff" stroke="#63b8ff" points="71.56,-101.01 66.11,-110.09 76.03,-106.39 71.56,-101.01"/>
</g>
<!-- Node3 -->
<g id="node3" class="node">
<title>Node3</title>
<g id="a_node3"><a xlink:title=" ">
<polygon fill="white" stroke="#666666" points="240.88,-129.75 123.62,-129.75 123.62,-110.5 240.88,-110.5 240.88,-129.75"/>
<text text-anchor="middle" x="182.25" y="-116.25" font-family="Helvetica,sans-Serif" font-size="10.00">BleScanner::Subscriber</text>
</a>
</g>
</g>
<!-- Node3&#45;&gt;Node1 -->
<g id="edge2" class="edge">
<title>Node3&#45;&gt;Node1</title>
<path fill="none" stroke="#63b8ff" d="M163.1,-103.19C151.92,-93.89 138.24,-82.51 128.95,-74.77"/>
<polygon fill="#63b8ff" stroke="#63b8ff" points="160.47,-106.39 170.39,-110.09 164.94,-101.01 160.47,-106.39"/>
</g>
</g>
</svg>
