<?xml version="1.0" encoding="UTF-8" standalone="no"?>
<!DOCTYPE svg PUBLIC "-//W3C//DTD SVG 1.1//EN"
 "http://www.w3.org/Graphics/SVG/1.1/DTD/svg11.dtd">
<!-- Generated by graphviz version 5.0.1 (20220820.1526)
 -->
<!-- Title: NukiOpener::NukiOpener::updateTimeControlEntry Pages: 1 -->
<svg width="365pt" height="82pt"
 viewBox="0.00 0.00 365.00 81.50" xmlns="http://www.w3.org/2000/svg" xmlns:xlink="http://www.w3.org/1999/xlink">
<g id="graph0" class="graph" transform="scale(1 1) rotate(0) translate(4 77.5)">
<title>NukiOpener::NukiOpener::updateTimeControlEntry</title>
<!-- Node1 -->
<g id="node1" class="node">
<title>Node1</title>
<g id="a_node1"><a xlink:title="Sends an updated time(d) control entry via BLE to the lock. (see addTimeControlEntry())">
<polygon fill="#999999" stroke="#666666" points="153,-50.5 0,-50.5 0,-16.5 153,-16.5 153,-50.5"/>
<text text-anchor="start" x="8" y="-36.9" font-family="Helvetica,sans-Serif" font-size="12.00">NukiOpener::NukiOpener</text>
<text text-anchor="middle" x="76.5" y="-23.9" font-family="Helvetica,sans-Serif" font-size="12.00">::updateTimeControlEntry</text>
</a>
</g>
</g>
<!-- Node2 -->
<g id="node2" class="node">
<title>Node2</title>
<g id="a_node2"><a xlink:href="namespace_nuki_opener.html#aa944d8da41129e4c94392db3b7cd2ae6" target="_top" xlink:title=" ">
<polygon fill="white" stroke="#666666" points="357,-73.5 189,-73.5 189,-39.5 357,-39.5 357,-73.5"/>
<text text-anchor="start" x="197" y="-59.9" font-family="Helvetica,sans-Serif" font-size="12.00">NukiOpener::logTimeControl</text>
<text text-anchor="middle" x="273" y="-46.9" font-family="Helvetica,sans-Serif" font-size="12.00">Entry</text>
</a>
</g>
</g>
<!-- Node1&#45;&gt;Node2 -->
<g id="edge1" class="edge">
<title>Node1&#45;&gt;Node2</title>
<path fill="none" stroke="#63b8ff" d="M153.26,-42.46C161.61,-43.45 170.19,-44.46 178.73,-45.47"/>
<polygon fill="#63b8ff" stroke="#63b8ff" points="178.38,-48.95 188.72,-46.65 179.2,-42 178.38,-48.95"/>
</g>
<!-- Node3 -->
<g id="node3" class="node">
<title>Node3</title>
<g id="a_node3"><a xlink:href="namespace_nuki.html#a280e19d4682ca4b35d3fe64001da816a" target="_top" xlink:title=" ">
<polygon fill="white" stroke="#666666" points="324,-21 222,-21 222,0 324,0 324,-21"/>
<text text-anchor="middle" x="273" y="-7.4" font-family="Helvetica,sans-Serif" font-size="12.00">Nuki::printBuffer</text>
</a>
</g>
</g>
<!-- Node1&#45;&gt;Node3 -->
<g id="edge2" class="edge">
<title>Node1&#45;&gt;Node3</title>
<path fill="none" stroke="#63b8ff" d="M153.26,-24.54C172.7,-22.24 193.34,-19.8 211.87,-17.61"/>
<polygon fill="#63b8ff" stroke="#63b8ff" points="212.41,-21.07 221.93,-16.42 211.59,-14.12 212.41,-21.07"/>
</g>
</g>
</svg>
