<?xml version="1.0" encoding="UTF-8" standalone="no"?>
<!DOCTYPE svg PUBLIC "-//W3C//DTD SVG 1.1//EN"
 "http://www.w3.org/Graphics/SVG/1.1/DTD/svg11.dtd">
<!-- Generated by graphviz version 12.1.2 (20240928.0832)
 -->
<!-- Title: Nuki::NukiBle::updateTime Pages: 1 -->
<svg width="704pt" height="162pt"
 viewBox="0.00 0.00 703.50 161.88" xmlns="http://www.w3.org/2000/svg" xmlns:xlink="http://www.w3.org/1999/xlink">
<g id="graph0" class="graph" transform="scale(1 1) rotate(0) translate(4 157.88)">
<title>Nuki::NukiBle::updateTime</title>
<!-- Node1 -->
<g id="Node000001" class="node">
<title>Node1</title>
<g id="a_Node000001"><a xlink:title="Sends the time to be set to the lock via BLE.">
<polygon fill="#999999" stroke="#666666" points="130.75,-83.25 0,-83.25 0,-64 130.75,-64 130.75,-83.25"/>
<text text-anchor="middle" x="65.38" y="-69.75" font-family="Helvetica,sans-Serif" font-size="10.00">Nuki::NukiBle::updateTime</text>
</a>
</g>
</g>
<!-- Node2 -->
<g id="Node000002" class="node">
<title>Node2</title>
<g id="a_Node000002"><a xlink:href="class_nuki_1_1_nuki_ble.html#af1f1e299e8d97e053bba80e92ba285d6" target="_top" xlink:title=" ">
<polygon fill="white" stroke="#666666" points="308,-83.25 166.75,-83.25 166.75,-64 308,-64 308,-83.25"/>
<text text-anchor="middle" x="237.38" y="-69.75" font-family="Helvetica,sans-Serif" font-size="10.00">Nuki::NukiBle::executeAction</text>
</a>
</g>
</g>
<!-- Node1&#45;&gt;Node2 -->
<g id="edge1_Node000001_Node000002" class="edge">
<title>Node1&#45;&gt;Node2</title>
<g id="a_edge1_Node000001_Node000002"><a xlink:title=" ">
<path fill="none" stroke="#63b8ff" d="M131.13,-73.62C138.97,-73.62 147.06,-73.62 155.11,-73.62"/>
<polygon fill="#63b8ff" stroke="#63b8ff" points="154.91,-77.13 164.91,-73.63 154.91,-70.13 154.91,-77.13"/>
</a>
</g>
</g>
<!-- Node3 -->
<g id="Node000003" class="node">
<title>Node3</title>
<g id="a_Node000003"><a xlink:href="class_nuki_1_1_nuki_ble.html#ada0f3beebd95d35c122e25dd3f9eb886" target="_top" xlink:title=" ">
<polygon fill="white" stroke="#666666" points="492,-153.88 354.5,-153.88 354.5,-123.38 492,-123.38 492,-153.88"/>
<text text-anchor="start" x="362.5" y="-140.38" font-family="Helvetica,sans-Serif" font-size="10.00">Nuki::NukiBle::cmdChallAcc</text>
<text text-anchor="middle" x="423.25" y="-129.12" font-family="Helvetica,sans-Serif" font-size="10.00">StateMachine</text>
</a>
</g>
</g>
<!-- Node2&#45;&gt;Node3 -->
<g id="edge2_Node000002_Node000003" class="edge">
<title>Node2&#45;&gt;Node3</title>
<g id="a_edge2_Node000002_Node000003"><a xlink:title=" ">
<path fill="none" stroke="#63b8ff" d="M266.7,-83.64C293.43,-93.09 334.22,-107.51 367.32,-119.21"/>
<polygon fill="#63b8ff" stroke="#63b8ff" points="365.75,-122.37 376.35,-122.4 368.09,-115.77 365.75,-122.37"/>
</a>
</g>
</g>
<!-- Node4 -->
<g id="Node000004" class="node">
<title>Node4</title>
<g id="a_Node000004"><a xlink:href="class_nuki_1_1_nuki_ble.html#a6e8fca90c04249660dce6cb993eb4495" target="_top" xlink:title=" ">
<polygon fill="white" stroke="#666666" points="695.5,-88.88 538.5,-88.88 538.5,-58.38 695.5,-58.38 695.5,-88.88"/>
<text text-anchor="start" x="546.5" y="-75.38" font-family="Helvetica,sans-Serif" font-size="10.00">Nuki::NukiBle::extendDisconnect</text>
<text text-anchor="middle" x="617" y="-64.12" font-family="Helvetica,sans-Serif" font-size="10.00">Timeout</text>
</a>
</g>
</g>
<!-- Node2&#45;&gt;Node4 -->
<g id="edge8_Node000002_Node000004" class="edge">
<title>Node2&#45;&gt;Node4</title>
<g id="a_edge8_Node000002_Node000004"><a xlink:title=" ">
<path fill="none" stroke="#63b8ff" d="M308.25,-75.89C320.18,-76.2 332.44,-76.46 344,-76.62 414.44,-77.63 432.06,-77.56 502.5,-76.62 510.43,-76.52 518.66,-76.37 526.92,-76.2"/>
<polygon fill="#63b8ff" stroke="#63b8ff" points="526.73,-79.71 536.65,-75.99 526.57,-72.71 526.73,-79.71"/>
</a>
</g>
</g>
<!-- Node5 -->
<g id="Node000005" class="node">
<title>Node5</title>
<g id="a_Node000005"><a xlink:href="class_nuki_1_1_nuki_ble.html#a59169a9f492793762e3c6ba39b611b07" target="_top" xlink:title=" ">
<polygon fill="white" stroke="#666666" points="495,-67.88 351.5,-67.88 351.5,-37.38 495,-37.38 495,-67.88"/>
<text text-anchor="start" x="359.5" y="-54.38" font-family="Helvetica,sans-Serif" font-size="10.00">Nuki::NukiBle::cmdChallState</text>
<text text-anchor="middle" x="423.25" y="-43.12" font-family="Helvetica,sans-Serif" font-size="10.00">Machine</text>
</a>
</g>
</g>
<!-- Node2&#45;&gt;Node5 -->
<g id="edge4_Node000002_Node000005" class="edge">
<title>Node2&#45;&gt;Node5</title>
<g id="a_edge4_Node000002_Node000005"><a xlink:title=" ">
<path fill="none" stroke="#63b8ff" d="M308.41,-65.63C318.7,-64.45 329.37,-63.23 339.88,-62.03"/>
<polygon fill="#63b8ff" stroke="#63b8ff" points="340.14,-65.53 349.68,-60.91 339.35,-58.57 340.14,-65.53"/>
</a>
</g>
</g>
<!-- Node6 -->
<g id="Node000006" class="node">
<title>Node6</title>
<g id="a_Node000006"><a xlink:href="class_nuki_1_1_nuki_ble.html#ad135bb1455665decfddff67772c1d411" target="_top" xlink:title=" ">
<polygon fill="white" stroke="#666666" points="502.5,-19.25 344,-19.25 344,0 502.5,0 502.5,-19.25"/>
<text text-anchor="middle" x="423.25" y="-5.75" font-family="Helvetica,sans-Serif" font-size="10.00">Nuki::NukiBle::cmdStateMachine</text>
</a>
</g>
</g>
<!-- Node2&#45;&gt;Node6 -->
<g id="edge6_Node000002_Node000006" class="edge">
<title>Node2&#45;&gt;Node6</title>
<g id="a_edge6_Node000002_Node000006"><a xlink:title=" ">
<path fill="none" stroke="#63b8ff" d="M259.03,-63.63C280.04,-53.74 313.73,-38.67 344,-28.62 350.53,-26.46 357.44,-24.42 364.35,-22.55"/>
<polygon fill="#63b8ff" stroke="#63b8ff" points="364.88,-26.02 373.67,-20.12 363.11,-19.25 364.88,-26.02"/>
</a>
</g>
</g>
<!-- Node3&#45;&gt;Node4 -->
<g id="edge3_Node000003_Node000004" class="edge">
<title>Node3&#45;&gt;Node4</title>
<g id="a_edge3_Node000003_Node000004"><a xlink:title=" ">
<path fill="none" stroke="#63b8ff" d="M470.67,-122.89C497.18,-113.9 530.65,-102.56 558.79,-93.02"/>
<polygon fill="#63b8ff" stroke="#63b8ff" points="559.9,-96.34 568.24,-89.81 557.65,-89.71 559.9,-96.34"/>
</a>
</g>
</g>
<!-- Node5&#45;&gt;Node4 -->
<g id="edge5_Node000005_Node000004" class="edge">
<title>Node5&#45;&gt;Node4</title>
<g id="a_edge5_Node000005_Node000004"><a xlink:title=" ">
<path fill="none" stroke="#63b8ff" d="M495.38,-60.41C505.63,-61.54 516.29,-62.71 526.84,-63.86"/>
<polygon fill="#63b8ff" stroke="#63b8ff" points="526.4,-67.33 536.72,-64.94 527.16,-60.37 526.4,-67.33"/>
</a>
</g>
</g>
<!-- Node6&#45;&gt;Node4 -->
<g id="edge7_Node000006_Node000004" class="edge">
<title>Node6&#45;&gt;Node4</title>
<g id="a_edge7_Node000006_Node000004"><a xlink:title=" ">
<path fill="none" stroke="#63b8ff" d="M470.47,-19.72C481.07,-22.34 492.24,-25.36 502.5,-28.62 524.93,-35.76 549.26,-45.17 569.62,-53.54"/>
<polygon fill="#63b8ff" stroke="#63b8ff" points="568.2,-56.74 578.78,-57.35 570.89,-50.28 568.2,-56.74"/>
</a>
</g>
</g>
</g>
</svg>
