<?xml version="1.0" encoding="UTF-8" standalone="no"?>
<!DOCTYPE svg PUBLIC "-//W3C//DTD SVG 1.1//EN"
 "http://www.w3.org/Graphics/SVG/1.1/DTD/svg11.dtd">
<!-- Generated by graphviz version 12.2.1 (20241206.2353)
 -->
<!-- Title: NukiOpener::NukiOpener::addTimeControlEntry Pages: 1 -->
<svg width="713pt" height="342pt"
 viewBox="0.00 0.00 713.25 341.50" xmlns="http://www.w3.org/2000/svg" xmlns:xlink="http://www.w3.org/1999/xlink">
<g id="graph0" class="graph" transform="scale(1 1) rotate(0) translate(4 337.5)">
<title>NukiOpener::NukiOpener::addTimeControlEntry</title>
<!-- Node1 -->
<g id="Node000001" class="node">
<title>Node1</title>
<g id="a_Node000001"><a xlink:title="Sends a new time(d) control entry via BLE to the opener. This entry is independant of keypad or autho...">
<polygon fill="#999999" stroke="#666666" points="124,-88.88 0,-88.88 0,-58.38 124,-58.38 124,-88.88"/>
<text text-anchor="start" x="8" y="-75.38" font-family="Helvetica,sans-Serif" font-size="10.00">NukiOpener::NukiOpener</text>
<text text-anchor="middle" x="62" y="-64.12" font-family="Helvetica,sans-Serif" font-size="10.00">::addTimeControlEntry</text>
</a>
</g>
</g>
<!-- Node2 -->
<g id="Node000002" class="node">
<title>Node2</title>
<g id="a_Node000002"><a xlink:href="class_nuki_1_1_nuki_ble.html#af1f1e299e8d97e053bba80e92ba285d6" target="_top" xlink:title=" ">
<polygon fill="white" stroke="#666666" points="309.5,-207.25 168.25,-207.25 168.25,-188 309.5,-188 309.5,-207.25"/>
<text text-anchor="middle" x="238.88" y="-193.75" font-family="Helvetica,sans-Serif" font-size="10.00">Nuki::NukiBle::executeAction</text>
</a>
</g>
</g>
<!-- Node1&#45;&gt;Node2 -->
<g id="edge1_Node000001_Node000002" class="edge">
<title>Node1&#45;&gt;Node2</title>
<g id="a_edge1_Node000001_Node000002"><a xlink:title=" ">
<path fill="none" stroke="#63b8ff" d="M85.15,-89.33C118.44,-112.94 181.07,-157.35 214.86,-181.31"/>
<polygon fill="#63b8ff" stroke="#63b8ff" points="212.56,-183.96 222.74,-186.89 216.6,-178.25 212.56,-183.96"/>
</a>
</g>
</g>
<!-- Node11 -->
<g id="Node000011" class="node">
<title>Node11</title>
<g id="a_Node000011"><a xlink:href="namespace_nuki_opener.html#ac87f753e40affc2a7be0d69862685555" target="_top" xlink:title=" ">
<polygon fill="white" stroke="#666666" points="502.88,-62.25 363.12,-62.25 363.12,-43 502.88,-43 502.88,-62.25"/>
<text text-anchor="middle" x="433" y="-48.75" font-family="Helvetica,sans-Serif" font-size="10.00">NukiOpener::logMessageVar</text>
</a>
</g>
</g>
<!-- Node1&#45;&gt;Node11 -->
<g id="edge19_Node000001_Node000011" class="edge">
<title>Node1&#45;&gt;Node11</title>
<g id="a_edge19_Node000001_Node000011"><a xlink:title=" ">
<path fill="none" stroke="#63b8ff" d="M124.31,-75.81C136.15,-76.15 148.46,-76.45 160,-76.62 230.1,-77.71 248.01,-83.87 317.75,-76.62 339.25,-74.39 362.67,-69.85 382.67,-65.32"/>
<polygon fill="#63b8ff" stroke="#63b8ff" points="383.29,-68.77 392.23,-63.08 381.7,-61.95 383.29,-68.77"/>
</a>
</g>
</g>
<!-- Node12 -->
<g id="Node000012" class="node">
<title>Node12</title>
<g id="a_Node000012"><a xlink:href="namespace_nuki_opener.html#a2dddaad56246fc87dd8f3f2939ebef93" target="_top" xlink:title=" ">
<polygon fill="white" stroke="#666666" points="317.75,-67.88 160,-67.88 160,-37.38 317.75,-37.38 317.75,-67.88"/>
<text text-anchor="start" x="168" y="-54.38" font-family="Helvetica,sans-Serif" font-size="10.00">NukiOpener::logNewTimeControl</text>
<text text-anchor="middle" x="238.88" y="-43.12" font-family="Helvetica,sans-Serif" font-size="10.00">Entry</text>
</a>
</g>
</g>
<!-- Node1&#45;&gt;Node12 -->
<g id="edge20_Node000001_Node000012" class="edge">
<title>Node1&#45;&gt;Node12</title>
<g id="a_edge20_Node000001_Node000012"><a xlink:title=" ">
<path fill="none" stroke="#63b8ff" d="M124.16,-66.28C132.02,-65.34 140.18,-64.36 148.38,-63.37"/>
<polygon fill="#63b8ff" stroke="#63b8ff" points="148.52,-66.88 158.03,-62.21 147.68,-59.93 148.52,-66.88"/>
</a>
</g>
</g>
<!-- Node13 -->
<g id="Node000013" class="node">
<title>Node13</title>
<g id="a_Node000013"><a xlink:href="namespace_nuki.html#a438fdfcef9f81eb0a3e493631b71ca5b" target="_top" xlink:title=" ">
<polygon fill="white" stroke="#666666" points="281.38,-19.25 196.38,-19.25 196.38,0 281.38,0 281.38,-19.25"/>
<text text-anchor="middle" x="238.88" y="-5.75" font-family="Helvetica,sans-Serif" font-size="10.00">Nuki::printBuffer</text>
</a>
</g>
</g>
<!-- Node1&#45;&gt;Node13 -->
<g id="edge22_Node000001_Node000013" class="edge">
<title>Node1&#45;&gt;Node13</title>
<g id="a_edge22_Node000001_Node000013"><a xlink:title=" ">
<path fill="none" stroke="#63b8ff" d="M92.95,-57.88C111.81,-48.43 136.87,-36.72 160,-28.62 168.04,-25.81 176.68,-23.26 185.18,-21"/>
<polygon fill="#63b8ff" stroke="#63b8ff" points="185.91,-24.42 194.75,-18.58 184.19,-17.64 185.91,-24.42"/>
</a>
</g>
</g>
<!-- Node3 -->
<g id="Node000003" class="node">
<title>Node3</title>
<g id="a_Node000003"><a xlink:href="class_nuki_1_1_nuki_ble.html#ada0f3beebd95d35c122e25dd3f9eb886" target="_top" xlink:title=" ">
<polygon fill="white" stroke="#666666" points="501.75,-234.88 364.25,-234.88 364.25,-204.38 501.75,-204.38 501.75,-234.88"/>
<text text-anchor="start" x="372.25" y="-221.38" font-family="Helvetica,sans-Serif" font-size="10.00">Nuki::NukiBle::cmdChallAcc</text>
<text text-anchor="middle" x="433" y="-210.12" font-family="Helvetica,sans-Serif" font-size="10.00">StateMachine</text>
</a>
</g>
</g>
<!-- Node2&#45;&gt;Node3 -->
<g id="edge2_Node000002_Node000003" class="edge">
<title>Node2&#45;&gt;Node3</title>
<g id="a_edge2_Node000002_Node000003"><a xlink:title=" ">
<path fill="none" stroke="#63b8ff" d="M309.78,-205.63C323.66,-207.22 338.34,-208.9 352.51,-210.52"/>
<polygon fill="#63b8ff" stroke="#63b8ff" points="351.92,-213.98 362.25,-211.64 352.71,-207.02 351.92,-213.98"/>
</a>
</g>
</g>
<!-- Node4 -->
<g id="Node000004" class="node">
<title>Node4</title>
<g id="a_Node000004"><a xlink:href="class_nuki_1_1_nuki_ble.html#a6e8fca90c04249660dce6cb993eb4495" target="_top" xlink:title=" ">
<polygon fill="white" stroke="#666666" points="705.25,-232.88 548.25,-232.88 548.25,-202.38 705.25,-202.38 705.25,-232.88"/>
<text text-anchor="start" x="556.25" y="-219.38" font-family="Helvetica,sans-Serif" font-size="10.00">Nuki::NukiBle::extendDisconnect</text>
<text text-anchor="middle" x="626.75" y="-208.12" font-family="Helvetica,sans-Serif" font-size="10.00">Timeout</text>
</a>
</g>
</g>
<!-- Node2&#45;&gt;Node4 -->
<g id="edge15_Node000002_Node000004" class="edge">
<title>Node2&#45;&gt;Node4</title>
<g id="a_edge15_Node000002_Node000004"><a xlink:title=" ">
<path fill="none" stroke="#63b8ff" d="M309.74,-193.17C364.87,-190.6 443.64,-189.04 512.25,-195.62 522.78,-196.64 533.78,-198.16 544.62,-199.95"/>
<polygon fill="#63b8ff" stroke="#63b8ff" points="543.88,-203.37 554.33,-201.64 545.08,-196.48 543.88,-203.37"/>
</a>
</g>
</g>
<!-- Node5 -->
<g id="Node000005" class="node">
<title>Node5</title>
<g id="a_Node000005"><a xlink:href="class_nuki_1_1_nuki_ble.html#ac7ce691d9c3e586474655d1663eb2e20" target="_top" xlink:title=" ">
<polygon fill="white" stroke="#666666" points="692.88,-183.25 560.62,-183.25 560.62,-164 692.88,-164 692.88,-183.25"/>
<text text-anchor="middle" x="626.75" y="-169.75" font-family="Helvetica,sans-Serif" font-size="10.00">Nuki::NukiBle::logMessage</text>
</a>
</g>
</g>
<!-- Node2&#45;&gt;Node5 -->
<g id="edge17_Node000002_Node000005" class="edge">
<title>Node2&#45;&gt;Node5</title>
<g id="a_edge17_Node000002_Node000005"><a xlink:title=" ">
<path fill="none" stroke="#63b8ff" d="M248.34,-187.7C265.7,-168.18 307.64,-125.36 353.75,-109.62 420.42,-86.87 448.42,-79.82 512.25,-109.62 534.83,-120.17 527.26,-139.19 548.25,-152.62 552.28,-155.2 556.62,-157.47 561.12,-159.46"/>
<polygon fill="#63b8ff" stroke="#63b8ff" points="559.82,-162.71 570.41,-163.06 562.36,-156.18 559.82,-162.71"/>
</a>
</g>
</g>
<!-- Node6 -->
<g id="Node000006" class="node">
<title>Node6</title>
<g id="a_Node000006"><a xlink:href="class_nuki_1_1_nuki_ble.html#af3650133f46aeca48a5f01b95d23ab71" target="_top" xlink:title=" ">
<polygon fill="white" stroke="#666666" points="700.38,-289.25 553.12,-289.25 553.12,-270 700.38,-270 700.38,-289.25"/>
<text text-anchor="middle" x="626.75" y="-275.75" font-family="Helvetica,sans-Serif" font-size="10.00">Nuki::NukiBle::logMessageVar</text>
</a>
</g>
</g>
<!-- Node2&#45;&gt;Node6 -->
<g id="edge18_Node000002_Node000006" class="edge">
<title>Node2&#45;&gt;Node6</title>
<g id="a_edge18_Node000002_Node000006"><a xlink:title=" ">
<path fill="none" stroke="#63b8ff" d="M245.38,-207.68C259.49,-232.31 299.73,-295.28 353.75,-318.62 435.72,-354.04 543.24,-316.82 595.12,-294.24"/>
<polygon fill="#63b8ff" stroke="#63b8ff" points="596.24,-297.58 603.94,-290.3 593.38,-291.19 596.24,-297.58"/>
</a>
</g>
</g>
<!-- Node7 -->
<g id="Node000007" class="node">
<title>Node7</title>
<g id="a_Node000007"><a xlink:href="class_nuki_1_1_nuki_ble.html#a59169a9f492793762e3c6ba39b611b07" target="_top" xlink:title=" ">
<polygon fill="white" stroke="#666666" points="504.75,-148.88 361.25,-148.88 361.25,-118.38 504.75,-118.38 504.75,-148.88"/>
<text text-anchor="start" x="369.25" y="-135.38" font-family="Helvetica,sans-Serif" font-size="10.00">Nuki::NukiBle::cmdChallState</text>
<text text-anchor="middle" x="433" y="-124.12" font-family="Helvetica,sans-Serif" font-size="10.00">Machine</text>
</a>
</g>
</g>
<!-- Node2&#45;&gt;Node7 -->
<g id="edge6_Node000002_Node000007" class="edge">
<title>Node2&#45;&gt;Node7</title>
<g id="a_edge6_Node000002_Node000007"><a xlink:title=" ">
<path fill="none" stroke="#63b8ff" d="M269.89,-187.62C297.7,-178.36 339.82,-164.33 374.15,-152.89"/>
<polygon fill="#63b8ff" stroke="#63b8ff" points="375.18,-156.24 383.56,-149.76 372.97,-149.6 375.18,-156.24"/>
</a>
</g>
</g>
<!-- Node9 -->
<g id="Node000009" class="node">
<title>Node9</title>
<g id="a_Node000009"><a xlink:href="class_nuki_1_1_nuki_ble.html#ad135bb1455665decfddff67772c1d411" target="_top" xlink:title=" ">
<polygon fill="white" stroke="#666666" points="512.25,-309.25 353.75,-309.25 353.75,-290 512.25,-290 512.25,-309.25"/>
<text text-anchor="middle" x="433" y="-295.75" font-family="Helvetica,sans-Serif" font-size="10.00">Nuki::NukiBle::cmdStateMachine</text>
</a>
</g>
</g>
<!-- Node2&#45;&gt;Node9 -->
<g id="edge11_Node000002_Node000009" class="edge">
<title>Node2&#45;&gt;Node9</title>
<g id="a_edge11_Node000002_Node000009"><a xlink:title=" ">
<path fill="none" stroke="#63b8ff" d="M250.22,-207.61C269.15,-225.3 311.34,-262.13 353.75,-281.62 357.28,-283.25 360.96,-284.73 364.73,-286.08"/>
<polygon fill="#63b8ff" stroke="#63b8ff" points="363.47,-289.35 374.06,-289.1 365.62,-282.69 363.47,-289.35"/>
</a>
</g>
</g>
<!-- Node10 -->
<g id="Node000010" class="node">
<title>Node10</title>
<g id="a_Node000010"><a xlink:href="class_nuki_1_1_nuki_ble.html#a050f54fbfcea03dc5238e8c66a7e89ca" target="_top" xlink:title="Returns pairing state (if credentials are stored or not)">
<polygon fill="white" stroke="#666666" points="511.12,-272.25 354.88,-272.25 354.88,-253 511.12,-253 511.12,-272.25"/>
<text text-anchor="middle" x="433" y="-258.75" font-family="Helvetica,sans-Serif" font-size="10.00">Nuki::NukiBle::isPairedWithLock</text>
</a>
</g>
</g>
<!-- Node2&#45;&gt;Node10 -->
<g id="edge16_Node000002_Node000010" class="edge">
<title>Node2&#45;&gt;Node10</title>
<g id="a_edge16_Node000002_Node000010"><a xlink:title=" ">
<path fill="none" stroke="#63b8ff" d="M261.78,-207.59C284.45,-217.63 321.07,-233.12 353.75,-243.62 360.48,-245.79 367.59,-247.84 374.69,-249.73"/>
<polygon fill="#63b8ff" stroke="#63b8ff" points="373.74,-253.1 384.29,-252.2 375.48,-246.32 373.74,-253.1"/>
</a>
</g>
</g>
<!-- Node3&#45;&gt;Node4 -->
<g id="edge3_Node000003_Node000004" class="edge">
<title>Node3&#45;&gt;Node4</title>
<g id="a_edge3_Node000003_Node000004"><a xlink:title=" ">
<path fill="none" stroke="#63b8ff" d="M502.14,-218.91C513.29,-218.8 524.97,-218.68 536.53,-218.56"/>
<polygon fill="#63b8ff" stroke="#63b8ff" points="536.55,-222.06 546.51,-218.45 536.47,-215.06 536.55,-222.06"/>
</a>
</g>
</g>
<!-- Node3&#45;&gt;Node5 -->
<g id="edge4_Node000003_Node000005" class="edge">
<title>Node3&#45;&gt;Node5</title>
<g id="a_edge4_Node000003_Node000005"><a xlink:title=" ">
<path fill="none" stroke="#63b8ff" d="M499.45,-203.92C523.31,-198.2 549.96,-191.81 572.61,-186.37"/>
<polygon fill="#63b8ff" stroke="#63b8ff" points="573.34,-189.8 582.25,-184.06 571.71,-182.99 573.34,-189.8"/>
</a>
</g>
</g>
<!-- Node3&#45;&gt;Node6 -->
<g id="edge5_Node000003_Node000006" class="edge">
<title>Node3&#45;&gt;Node6</title>
<g id="a_edge5_Node000003_Node000006"><a xlink:title=" ">
<path fill="none" stroke="#63b8ff" d="M485.37,-235.31C494.34,-238.06 503.57,-240.92 512.25,-243.62 535.95,-251.02 562.38,-259.39 583.77,-266.21"/>
<polygon fill="#63b8ff" stroke="#63b8ff" points="582.43,-269.45 593.02,-269.15 584.55,-262.78 582.43,-269.45"/>
</a>
</g>
</g>
<!-- Node7&#45;&gt;Node4 -->
<g id="edge7_Node000007_Node000004" class="edge">
<title>Node7&#45;&gt;Node4</title>
<g id="a_edge7_Node000007_Node000004"><a xlink:title=" ">
<path fill="none" stroke="#63b8ff" d="M484,-149.26C493.65,-153.07 503.47,-157.54 512.25,-162.62 530.27,-173.06 530.01,-182.58 548.25,-192.62 551.41,-194.36 554.71,-196 558.08,-197.55"/>
<polygon fill="#63b8ff" stroke="#63b8ff" points="556.43,-200.65 567.01,-201.31 559.15,-194.2 556.43,-200.65"/>
</a>
</g>
</g>
<!-- Node7&#45;&gt;Node5 -->
<g id="edge9_Node000007_Node000005" class="edge">
<title>Node7&#45;&gt;Node5</title>
<g id="a_edge9_Node000007_Node000005"><a xlink:title=" ">
<path fill="none" stroke="#63b8ff" d="M505.13,-148.46C525.26,-152.66 546.96,-157.19 566.33,-161.23"/>
<polygon fill="#63b8ff" stroke="#63b8ff" points="565.45,-164.62 575.95,-163.24 566.88,-157.77 565.45,-164.62"/>
</a>
</g>
</g>
<!-- Node7&#45;&gt;Node6 -->
<g id="edge10_Node000007_Node000006" class="edge">
<title>Node7&#45;&gt;Node6</title>
<g id="a_edge10_Node000007_Node000006"><a xlink:title=" ">
<path fill="none" stroke="#63b8ff" d="M456.41,-149.17C472.72,-161 494.9,-178.17 512.25,-195.62 530.55,-214.04 528.08,-225.27 548.25,-241.62 559.91,-251.08 574.32,-258.96 587.54,-265.04"/>
<polygon fill="#63b8ff" stroke="#63b8ff" points="585.86,-268.13 596.42,-268.93 588.66,-261.71 585.86,-268.13"/>
</a>
</g>
</g>
<!-- Node8 -->
<g id="Node000008" class="node">
<title>Node8</title>
<g id="a_Node000008"><a xlink:href="class_nuki_1_1_nuki_ble.html#a25207bb564a4b54b8dd8c872177b53a7" target="_top" xlink:title="Returns if BLE is pairing/paired/connected with a Smart Lock Ultra.">
<polygon fill="white" stroke="#666666" points="691.75,-143.25 561.75,-143.25 561.75,-124 691.75,-124 691.75,-143.25"/>
<text text-anchor="middle" x="626.75" y="-129.75" font-family="Helvetica,sans-Serif" font-size="10.00">Nuki::NukiBle::isLockUltra</text>
</a>
</g>
</g>
<!-- Node7&#45;&gt;Node8 -->
<g id="edge8_Node000007_Node000008" class="edge">
<title>Node7&#45;&gt;Node8</title>
<g id="a_edge8_Node000007_Node000008"><a xlink:title=" ">
<path fill="none" stroke="#63b8ff" d="M505.13,-133.62C519.82,-133.62 535.35,-133.62 550.19,-133.62"/>
<polygon fill="#63b8ff" stroke="#63b8ff" points="549.87,-137.13 559.87,-133.63 549.87,-130.13 549.87,-137.13"/>
</a>
</g>
</g>
<!-- Node9&#45;&gt;Node4 -->
<g id="edge12_Node000009_Node000004" class="edge">
<title>Node9&#45;&gt;Node4</title>
<g id="a_edge12_Node000009_Node000004"><a xlink:title=" ">
<path fill="none" stroke="#63b8ff" d="M487.69,-289.54C496.04,-287.33 504.47,-284.7 512.25,-281.62 529.47,-274.8 532.15,-269.79 548.25,-260.62 561.02,-253.36 575.04,-245.53 587.61,-238.57"/>
<polygon fill="#63b8ff" stroke="#63b8ff" points="588.94,-241.84 596,-233.94 585.55,-235.71 588.94,-241.84"/>
</a>
</g>
</g>
<!-- Node9&#45;&gt;Node5 -->
<g id="edge13_Node000009_Node000005" class="edge">
<title>Node9&#45;&gt;Node5</title>
<g id="a_edge13_Node000009_Node000005"><a xlink:title=" ">
<path fill="none" stroke="#63b8ff" d="M499.95,-289.61C504.37,-287.42 508.53,-284.78 512.25,-281.62 544.45,-254.26 516.41,-221.41 548.25,-193.62 550.16,-191.95 552.2,-190.42 554.33,-189.01"/>
<polygon fill="#63b8ff" stroke="#63b8ff" points="555.78,-192.21 562.87,-184.34 552.41,-186.07 555.78,-192.21"/>
</a>
</g>
</g>
<!-- Node9&#45;&gt;Node6 -->
<g id="edge14_Node000009_Node000006" class="edge">
<title>Node9&#45;&gt;Node6</title>
<g id="a_edge14_Node000009_Node000006"><a xlink:title=" ">
<path fill="none" stroke="#63b8ff" d="M512.55,-291.43C522.13,-290.43 531.96,-289.41 541.63,-288.4"/>
<polygon fill="#63b8ff" stroke="#63b8ff" points="541.79,-291.9 551.38,-287.38 541.07,-284.94 541.79,-291.9"/>
</a>
</g>
</g>
<!-- Node12&#45;&gt;Node11 -->
<g id="edge21_Node000012_Node000011" class="edge">
<title>Node12&#45;&gt;Node11</title>
<g id="a_edge21_Node000012_Node000011"><a xlink:title=" ">
<path fill="none" stroke="#63b8ff" d="M318.02,-52.62C329.05,-52.62 340.4,-52.62 351.47,-52.62"/>
<polygon fill="#63b8ff" stroke="#63b8ff" points="351.36,-56.13 361.36,-52.63 351.36,-49.13 351.36,-56.13"/>
</a>
</g>
</g>
</g>
</svg>
