<?xml version="1.0" encoding="UTF-8" standalone="no"?>
<!DOCTYPE svg PUBLIC "-//W3C//DTD SVG 1.1//EN"
 "http://www.w3.org/Graphics/SVG/1.1/DTD/svg11.dtd">
<!-- Generated by graphviz version 7.0.3 (20221126.0506)
 -->
<!-- Title: Nuki::NukiBle::requestCalibration Pages: 1 -->
<svg width="539pt" height="172pt"
 viewBox="0.00 0.00 539.00 172.00" xmlns="http://www.w3.org/2000/svg" xmlns:xlink="http://www.w3.org/1999/xlink">
<g id="graph0" class="graph" transform="scale(1 1) rotate(0) translate(4 168)">
<title>Nuki::NukiBle::requestCalibration</title>
<!-- Node1 -->
<g id="node1" class="node">
<title>Node1</title>
<g id="a_node1"><a xlink:title="Sends an calibration (mechanical) request to the lock via BLE.">
<polygon fill="#999999" stroke="#666666" points="158,-88.5 0,-88.5 0,-69.5 158,-69.5 158,-88.5"/>
<text text-anchor="middle" x="79" y="-76.5" font-family="Helvetica,sans-Serif" font-size="10.00">Nuki::NukiBle::requestCalibration</text>
</a>
</g>
</g>
<!-- Node2 -->
<g id="node2" class="node">
<title>Node2</title>
<g id="a_node2"><a xlink:href="class_nuki_1_1_nuki_ble.html#af1f1e299e8d97e053bba80e92ba285d6" target="_top" xlink:title=" ">
<polygon fill="white" stroke="#666666" points="336,-88.5 194,-88.5 194,-69.5 336,-69.5 336,-88.5"/>
<text text-anchor="middle" x="265" y="-76.5" font-family="Helvetica,sans-Serif" font-size="10.00">Nuki::NukiBle::executeAction</text>
</a>
</g>
</g>
<!-- Node1&#45;&gt;Node2 -->
<g id="edge1" class="edge">
<title>Node1&#45;&gt;Node2</title>
<path fill="none" stroke="#63b8ff" d="M158.3,-79C166.19,-79 174.21,-79 182.13,-79"/>
<polygon fill="#63b8ff" stroke="#63b8ff" points="182.12,-82.5 192.12,-79 182.12,-75.5 182.12,-82.5"/>
</g>
<!-- Node3 -->
<g id="node3" class="node">
<title>Node3</title>
<g id="a_node3"><a xlink:href="class_nuki_1_1_nuki_ble.html#ada0f3beebd95d35c122e25dd3f9eb886" target="_top" xlink:title=" ">
<polygon fill="white" stroke="#666666" points="520.5,-164 382.5,-164 382.5,-134 520.5,-134 520.5,-164"/>
<text text-anchor="start" x="390.5" y="-152" font-family="Helvetica,sans-Serif" font-size="10.00">Nuki::NukiBle::cmdChallAcc</text>
<text text-anchor="middle" x="451.5" y="-141" font-family="Helvetica,sans-Serif" font-size="10.00">StateMachine</text>
</a>
</g>
</g>
<!-- Node2&#45;&gt;Node3 -->
<g id="edge2" class="edge">
<title>Node2&#45;&gt;Node3</title>
<path fill="none" stroke="#63b8ff" d="M286.83,-88.87C308.01,-98.71 341.88,-113.9 372,-125 376.64,-126.71 381.46,-128.4 386.33,-130.03"/>
<polygon fill="#63b8ff" stroke="#63b8ff" points="384.99,-133.28 395.59,-133.07 387.17,-126.63 384.99,-133.28"/>
</g>
<!-- Node4 -->
<g id="node4" class="node">
<title>Node4</title>
<g id="a_node4"><a xlink:href="class_nuki_1_1_nuki_ble.html#a59169a9f492793762e3c6ba39b611b07" target="_top" xlink:title=" ">
<polygon fill="white" stroke="#666666" points="523.5,-116 379.5,-116 379.5,-86 523.5,-86 523.5,-116"/>
<text text-anchor="start" x="387.5" y="-104" font-family="Helvetica,sans-Serif" font-size="10.00">Nuki::NukiBle::cmdChallState</text>
<text text-anchor="middle" x="451.5" y="-93" font-family="Helvetica,sans-Serif" font-size="10.00">Machine</text>
</a>
</g>
</g>
<!-- Node2&#45;&gt;Node4 -->
<g id="edge3" class="edge">
<title>Node2&#45;&gt;Node4</title>
<path fill="none" stroke="#63b8ff" d="M336.28,-87.38C346.6,-88.61 357.31,-89.89 367.85,-91.14"/>
<polygon fill="#63b8ff" stroke="#63b8ff" points="367.35,-94.61 377.69,-92.32 368.18,-87.66 367.35,-94.61"/>
</g>
<!-- Node5 -->
<g id="node5" class="node">
<title>Node5</title>
<g id="a_node5"><a xlink:href="class_nuki_1_1_nuki_ble.html#ad135bb1455665decfddff67772c1d411" target="_top" xlink:title=" ">
<polygon fill="white" stroke="#666666" points="531,-67.5 372,-67.5 372,-48.5 531,-48.5 531,-67.5"/>
<text text-anchor="middle" x="451.5" y="-55.5" font-family="Helvetica,sans-Serif" font-size="10.00">Nuki::NukiBle::cmdStateMachine</text>
</a>
</g>
</g>
<!-- Node2&#45;&gt;Node5 -->
<g id="edge4" class="edge">
<title>Node2&#45;&gt;Node5</title>
<path fill="none" stroke="#63b8ff" d="M336.28,-71C344.17,-70.1 352.29,-69.18 360.38,-68.26"/>
<polygon fill="#63b8ff" stroke="#63b8ff" points="360.75,-71.74 370.29,-67.13 359.95,-64.78 360.75,-71.74"/>
</g>
<!-- Node6 -->
<g id="node6" class="node">
<title>Node6</title>
<g id="a_node6"><a xlink:href="class_nuki_1_1_nuki_ble.html#aed01f10d1ffa769f0f6fadc0d06d328e" target="_top" xlink:title=" ">
<polygon fill="white" stroke="#666666" points="527.5,-30 375.5,-30 375.5,0 527.5,0 527.5,-30"/>
<text text-anchor="start" x="383.5" y="-18" font-family="Helvetica,sans-Serif" font-size="10.00">Nuki::NukiBle::extendDisonnect</text>
<text text-anchor="middle" x="451.5" y="-7" font-family="Helvetica,sans-Serif" font-size="10.00">Timeout</text>
</a>
</g>
</g>
<!-- Node2&#45;&gt;Node6 -->
<g id="edge5" class="edge">
<title>Node2&#45;&gt;Node6</title>
<path fill="none" stroke="#63b8ff" d="M292.02,-69.06C313.41,-60.98 344.55,-49.42 372,-40 377.83,-38 383.93,-35.96 390.04,-33.96"/>
<polygon fill="#63b8ff" stroke="#63b8ff" points="391.11,-37.29 399.54,-30.87 388.95,-30.63 391.11,-37.29"/>
</g>
</g>
</svg>
