<?xml version="1.0" encoding="UTF-8" standalone="no"?>
<!DOCTYPE svg PUBLIC "-//W3C//DTD SVG 1.1//EN"
 "http://www.w3.org/Graphics/SVG/1.1/DTD/svg11.dtd">
<!-- Generated by graphviz version 5.0.1 (20220820.1526)
 -->
<!-- Title: NukiLock::NukiLock::handleReturnMessage Pages: 1 -->
<svg width="497pt" height="261pt"
 viewBox="0.00 0.00 497.00 260.50" xmlns="http://www.w3.org/2000/svg" xmlns:xlink="http://www.w3.org/1999/xlink">
<g id="graph0" class="graph" transform="scale(1 1) rotate(0) translate(4 256.5)">
<title>NukiLock::NukiLock::handleReturnMessage</title>
<!-- Node1 -->
<g id="node1" class="node">
<title>Node1</title>
<g id="a_node1"><a xlink:title=" ">
<polygon fill="#999999" stroke="#666666" points="118,-135.5 0,-135.5 0,-105.5 118,-105.5 118,-135.5"/>
<text text-anchor="start" x="8" y="-123.5" font-family="Helvetica,sans-Serif" font-size="10.00">NukiLock::NukiLock</text>
<text text-anchor="middle" x="59" y="-112.5" font-family="Helvetica,sans-Serif" font-size="10.00">::handleReturnMessage</text>
</a>
</g>
</g>
<!-- Node2 -->
<g id="node2" class="node">
<title>Node2</title>
<g id="a_node2"><a xlink:href="class_nuki_1_1_nuki_ble.html#ac2e28f07ed0a738f73c5f77b46cdb1bb" target="_top" xlink:title=" ">
<polygon fill="white" stroke="#666666" points="295.5,-252.5 158.5,-252.5 158.5,-222.5 295.5,-222.5 295.5,-252.5"/>
<text text-anchor="start" x="166.5" y="-240.5" font-family="Helvetica,sans-Serif" font-size="10.00">Nuki::NukiBle::handleReturn</text>
<text text-anchor="middle" x="227" y="-229.5" font-family="Helvetica,sans-Serif" font-size="10.00">Message</text>
</a>
</g>
</g>
<!-- Node1&#45;&gt;Node2 -->
<g id="edge1" class="edge">
<title>Node1&#45;&gt;Node2</title>
<path fill="none" stroke="#63b8ff" d="M71.44,-135.53C87.7,-155.91 119.38,-192.23 154,-213.5 156.75,-215.19 159.63,-216.78 162.6,-218.26"/>
<polygon fill="#63b8ff" stroke="#63b8ff" points="161.14,-221.45 171.69,-222.43 164.06,-215.08 161.14,-221.45"/>
</g>
<!-- Node3 -->
<g id="node3" class="node">
<title>Node3</title>
<g id="a_node3"><a xlink:href="namespace_nuki_lock.html#a443e14fa26c3b2a4a0c2c6565be0d459" target="_top" xlink:title=" ">
<polygon fill="white" stroke="#666666" points="300,-204 154,-204 154,-185 300,-185 300,-204"/>
<text text-anchor="middle" x="227" y="-192" font-family="Helvetica,sans-Serif" font-size="10.00">NukiLock::logAdvancedConfig</text>
</a>
</g>
</g>
<!-- Node1&#45;&gt;Node3 -->
<g id="edge2" class="edge">
<title>Node1&#45;&gt;Node3</title>
<path fill="none" stroke="#63b8ff" d="M81.09,-135.52C99.54,-148.05 127.48,-165.56 154,-176.5 158.99,-178.56 164.27,-180.42 169.62,-182.1"/>
<polygon fill="#63b8ff" stroke="#63b8ff" points="168.68,-185.48 179.26,-184.93 170.65,-178.76 168.68,-185.48"/>
</g>
<!-- Node4 -->
<g id="node4" class="node">
<title>Node4</title>
<g id="a_node4"><a xlink:href="namespace_nuki_lock.html#a7ea754b2cb764a6f6469efc00dbfdfe8" target="_top" xlink:title=" ">
<polygon fill="white" stroke="#666666" points="294.5,-167 159.5,-167 159.5,-148 294.5,-148 294.5,-167"/>
<text text-anchor="middle" x="227" y="-155" font-family="Helvetica,sans-Serif" font-size="10.00">NukiLock::logBatteryReport</text>
</a>
</g>
</g>
<!-- Node1&#45;&gt;Node4 -->
<g id="edge3" class="edge">
<title>Node1&#45;&gt;Node4</title>
<path fill="none" stroke="#63b8ff" d="M118.06,-133.44C135.96,-137.43 155.56,-141.8 173.09,-145.71"/>
<polygon fill="#63b8ff" stroke="#63b8ff" points="172.62,-149.19 183.15,-147.95 174.15,-142.36 172.62,-149.19"/>
</g>
<!-- Node5 -->
<g id="node5" class="node">
<title>Node5</title>
<g id="a_node5"><a xlink:href="namespace_nuki_lock.html#a44f8fccc739b59c4fa2c9994da10aaed" target="_top" xlink:title=" ">
<polygon fill="white" stroke="#666666" points="278.5,-130 175.5,-130 175.5,-111 278.5,-111 278.5,-130"/>
<text text-anchor="middle" x="227" y="-118" font-family="Helvetica,sans-Serif" font-size="10.00">NukiLock::logConfig</text>
</a>
</g>
</g>
<!-- Node1&#45;&gt;Node5 -->
<g id="edge4" class="edge">
<title>Node1&#45;&gt;Node5</title>
<path fill="none" stroke="#63b8ff" d="M118.06,-120.5C133.25,-120.5 149.67,-120.5 165.01,-120.5"/>
<polygon fill="#63b8ff" stroke="#63b8ff" points="165.43,-124 175.43,-120.5 165.43,-117 165.43,-124"/>
</g>
<!-- Node6 -->
<g id="node6" class="node">
<title>Node6</title>
<g id="a_node6"><a xlink:href="namespace_nuki_lock.html#a5b521a0ba26dfc799683a2edb9529902" target="_top" xlink:title=" ">
<polygon fill="white" stroke="#666666" points="297,-56 157,-56 157,-37 297,-37 297,-56"/>
<text text-anchor="middle" x="227" y="-44" font-family="Helvetica,sans-Serif" font-size="10.00">NukiLock::logKeyturnerState</text>
</a>
</g>
</g>
<!-- Node1&#45;&gt;Node6 -->
<g id="edge5" class="edge">
<title>Node1&#45;&gt;Node6</title>
<path fill="none" stroke="#63b8ff" d="M81.9,-105.37C100.41,-93.17 127.98,-76.31 154,-65.5 159.8,-63.09 165.99,-60.91 172.21,-58.96"/>
<polygon fill="#63b8ff" stroke="#63b8ff" points="173.36,-62.27 181.97,-56.09 171.38,-55.56 173.36,-62.27"/>
</g>
<!-- Node10 -->
<g id="node10" class="node">
<title>Node10</title>
<g id="a_node10"><a xlink:href="namespace_nuki_lock.html#aec3cb8258cc4133d676e8c5f50bcd938" target="_top" xlink:title=" ">
<polygon fill="white" stroke="#666666" points="284,-93 170,-93 170,-74 284,-74 284,-93"/>
<text text-anchor="middle" x="227" y="-81" font-family="Helvetica,sans-Serif" font-size="10.00">NukiLock::logLogEntry</text>
</a>
</g>
</g>
<!-- Node1&#45;&gt;Node10 -->
<g id="edge9" class="edge">
<title>Node1&#45;&gt;Node10</title>
<path fill="none" stroke="#63b8ff" d="M118.06,-107.56C135.96,-103.57 155.56,-99.2 173.09,-95.29"/>
<polygon fill="#63b8ff" stroke="#63b8ff" points="174.15,-98.64 183.15,-93.05 172.62,-91.81 174.15,-98.64"/>
</g>
<!-- Node11 -->
<g id="node11" class="node">
<title>Node11</title>
<g id="a_node11"><a xlink:href="namespace_nuki.html#a280e19d4682ca4b35d3fe64001da816a" target="_top" xlink:title=" ">
<polygon fill="white" stroke="#666666" points="270,-19 184,-19 184,0 270,0 270,-19"/>
<text text-anchor="middle" x="227" y="-7" font-family="Helvetica,sans-Serif" font-size="10.00">Nuki::printBuffer</text>
</a>
</g>
</g>
<!-- Node1&#45;&gt;Node11 -->
<g id="edge13" class="edge">
<title>Node1&#45;&gt;Node11</title>
<path fill="none" stroke="#63b8ff" d="M70.94,-105.44C86.85,-84.67 118.39,-47.54 154,-27.5 160.11,-24.06 166.88,-21.27 173.75,-19.01"/>
<polygon fill="#63b8ff" stroke="#63b8ff" points="175.2,-22.23 183.81,-16.06 173.23,-15.51 175.2,-22.23"/>
</g>
<!-- Node7 -->
<g id="node7" class="node">
<title>Node7</title>
<g id="a_node7"><a xlink:href="namespace_nuki_lock.html#a564f6d63072267bb72f431e4c4e1c947" target="_top" xlink:title=" ">
<polygon fill="white" stroke="#666666" points="489,-111 336,-111 336,-92 489,-92 489,-111"/>
<text text-anchor="middle" x="412.5" y="-99" font-family="Helvetica,sans-Serif" font-size="10.00">NukiLock::logCompletionStatus</text>
</a>
</g>
</g>
<!-- Node6&#45;&gt;Node7 -->
<g id="edge6" class="edge">
<title>Node6&#45;&gt;Node7</title>
<path fill="none" stroke="#63b8ff" d="M269.96,-56.02C279.93,-58.7 290.44,-61.89 300,-65.5 316.74,-71.82 319.19,-77.39 336,-83.5 341.82,-85.62 347.98,-87.55 354.17,-89.3"/>
<polygon fill="#63b8ff" stroke="#63b8ff" points="353.32,-92.7 363.89,-91.91 355.13,-85.94 353.32,-92.7"/>
</g>
<!-- Node8 -->
<g id="node8" class="node">
<title>Node8</title>
<g id="a_node8"><a xlink:href="namespace_nuki_lock.html#a02e1891ccc5565890fd8ddd6577dea57" target="_top" xlink:title=" ">
<polygon fill="white" stroke="#666666" points="475,-74 350,-74 350,-55 475,-55 475,-74"/>
<text text-anchor="middle" x="412.5" y="-62" font-family="Helvetica,sans-Serif" font-size="10.00">NukiLock::logLockAction</text>
</a>
</g>
</g>
<!-- Node6&#45;&gt;Node8 -->
<g id="edge7" class="edge">
<title>Node6&#45;&gt;Node8</title>
<path fill="none" stroke="#63b8ff" d="M297.11,-53.28C311.09,-54.65 325.82,-56.1 339.88,-57.47"/>
<polygon fill="#63b8ff" stroke="#63b8ff" points="339.69,-60.97 349.99,-58.47 340.38,-54.01 339.69,-60.97"/>
</g>
<!-- Node9 -->
<g id="node9" class="node">
<title>Node9</title>
<g id="a_node9"><a xlink:href="namespace_nuki_lock.html#aa9c8584e761f69cad4eb3ea1c20d27e7" target="_top" xlink:title=" ">
<polygon fill="white" stroke="#666666" points="475.5,-37 349.5,-37 349.5,-18 475.5,-18 475.5,-37"/>
<text text-anchor="middle" x="412.5" y="-25" font-family="Helvetica,sans-Serif" font-size="10.00">NukiLock::logNukiTrigger</text>
</a>
</g>
</g>
<!-- Node6&#45;&gt;Node9 -->
<g id="edge8" class="edge">
<title>Node6&#45;&gt;Node9</title>
<path fill="none" stroke="#63b8ff" d="M297.11,-39.34C310.93,-37.91 325.47,-36.41 339.39,-34.97"/>
<polygon fill="#63b8ff" stroke="#63b8ff" points="339.8,-38.44 349.39,-33.93 339.08,-31.48 339.8,-38.44"/>
</g>
<!-- Node10&#45;&gt;Node7 -->
<g id="edge10" class="edge">
<title>Node10&#45;&gt;Node7</title>
<path fill="none" stroke="#63b8ff" d="M284.05,-89C297.2,-90.29 311.5,-91.69 325.62,-93.08"/>
<polygon fill="#63b8ff" stroke="#63b8ff" points="325.56,-96.59 335.85,-94.08 326.24,-89.62 325.56,-96.59"/>
</g>
<!-- Node10&#45;&gt;Node8 -->
<g id="edge11" class="edge">
<title>Node10&#45;&gt;Node8</title>
<path fill="none" stroke="#63b8ff" d="M284.05,-77.7C301.57,-75.88 321.15,-73.86 339.6,-71.94"/>
<polygon fill="#63b8ff" stroke="#63b8ff" points="340.13,-75.41 349.71,-70.9 339.41,-68.45 340.13,-75.41"/>
</g>
<!-- Node10&#45;&gt;Node9 -->
<g id="edge12" class="edge">
<title>Node10&#45;&gt;Node9</title>
<path fill="none" stroke="#63b8ff" d="M273.89,-73.94C282.69,-71.58 291.73,-68.76 300,-65.5 317.02,-58.78 318.94,-52.13 336,-45.5 341.39,-43.41 347.1,-41.51 352.86,-39.8"/>
<polygon fill="#63b8ff" stroke="#63b8ff" points="353.87,-43.15 362.57,-37.1 352,-36.41 353.87,-43.15"/>
</g>
</g>
</svg>
