<?xml version="1.0" encoding="UTF-8" standalone="no"?>
<!DOCTYPE svg PUBLIC "-//W3C//DTD SVG 1.1//EN"
 "http://www.w3.org/Graphics/SVG/1.1/DTD/svg11.dtd">
<!-- Generated by graphviz version 12.2.1 (20241206.2353)
 -->
<!-- Title: NukiOpener::NukiOpener::requestAdvancedConfig Pages: 1 -->
<!--zoomable 970 -->

<svg id="main" version="1.1" xmlns="http://www.w3.org/2000/svg" xmlns:xlink="http://www.w3.org/1999/xlink" xml:space="preserve" onload="init(evt)">

<style type="text/css"><![CDATA[
.node, .edge {opacity: 0.7;}
.node.selected, .edge.selected {opacity: 1;}
.edge:hover path { stroke: red; }
.edge:hover polygon { stroke: red; fill: red; }
]]></style>

<defs>
  <circle id="rim" cx="0" cy="0" r="7"/>
  <circle id="rim2" cx="0" cy="0" r="3.5"/>
  <g id="zoomPlus">
    <use xlink:href="#rim" fill="#404040"><set attributeName="fill" to="#808080" begin="zoomplus.mouseover" end="zoomplus.mouseout"/></use>
    <path d="M-4,0h8M0,-4v8" fill="none" stroke="white" stroke-width="1.5" pointer-events="none"/>
  </g>
  <g id="zoomMin">
    <use xlink:href="#rim" fill="#404040"><set attributeName="fill" to="#808080" begin="zoomminus.mouseover" end="zoomminus.mouseout"/></use>
    <path d="M-4,0h8" fill="none" stroke="white" stroke-width="1.5" pointer-events="none"/>
  </g>
  <g id="arrowUp" transform="translate(30 24)">
    <use xlink:href="#rim"/>
    <path pointer-events="none" fill="none" stroke="white" stroke-width="1.5" d="M0,-3.0v7 M-2.5,-0.5L0,-3.0L2.5,-0.5"/>
  </g>
  <g id="arrowRight" transform="rotate(90) translate(36 -43)">
    <use xlink:href="#rim"/>
    <path pointer-events="none" fill="none" stroke="white" stroke-width="1.5" d="M0,-3.0v7 M-2.5,-0.5L0,-3.0L2.5,-0.5"/>
  </g>
  <g id="arrowDown" transform="rotate(180) translate(-30 -48)">
    <use xlink:href="#rim"/>
    <path pointer-events="none" fill="none" stroke="white" stroke-width="1.5" d="M0,-3.0v7 M-2.5,-0.5L0,-3.0L2.5,-0.5"/>
  </g>
  <g id="arrowLeft" transform="rotate(270) translate(-36 17)">
    <use xlink:href="#rim"/>
    <path pointer-events="none" fill="none" stroke="white" stroke-width="1.5" d="M0,-3.0v7 M-2.5,-0.5L0,-3.0L2.5,-0.5"/>
  </g>
  <g id="resetDef">
    <use xlink:href="#rim2" fill="#404040"><set attributeName="fill" to="#808080" begin="reset.mouseover" end="reset.mouseout"/></use>
  </g>
</defs>
<script type="application/ecmascript">
var viewWidth = 335;
var viewHeight = 970;
var sectionId = 'dynsection-18';
</script>
<script type="application/ecmascript" xlink:href="svg.min.js"/>
<svg id="graph" class="graph">
<g id="viewport">
<title>NukiOpener::NukiOpener::requestAdvancedConfig</title>
<!-- Node1 -->
<g id="Node000001" class="node">
<title>Node1</title>
<g id="a_Node000001"><a xlink:title="Requests advanced config from Opener via BLE.">
<polygon fill="#999999" stroke="#666666" points="326.75,-495.5 202.75,-495.5 202.75,-465 326.75,-465 326.75,-495.5"/>
<text text-anchor="start" x="210.75" y="-482" font-family="Helvetica,sans-Serif" font-size="10.00">NukiOpener::NukiOpener</text>
<text text-anchor="middle" x="264.75" y="-470.75" font-family="Helvetica,sans-Serif" font-size="10.00">::requestAdvancedConfig</text>
</a>
</g>
</g>
<!-- Node2 -->
<g id="Node000002" class="node">
<title>Node2</title>
<g id="a_Node000002"><a xlink:href="class_nuki_opener_1_1_nuki_opener.html#aabc89505b1939ff308a86d83015f9f68" target="_top" xlink:title="Gets the current config from the opener, updates the disable rto after ring parameter and sends the n...">
<polygon fill="white" stroke="#666666" points="145.38,-961.5 21.38,-961.5 21.38,-931 145.38,-931 145.38,-961.5"/>
<text text-anchor="start" x="29.38" y="-948" font-family="Helvetica,sans-Serif" font-size="10.00">NukiOpener::NukiOpener</text>
<text text-anchor="middle" x="83.38" y="-936.75" font-family="Helvetica,sans-Serif" font-size="10.00">::disableRtoAfterRing</text>
</a>
</g>
</g>
<!-- Node1&#45;&gt;Node2 -->
<g id="edge1_Node000001_Node000002" class="edge">
<title>Node1&#45;&gt;Node2</title>
<g id="a_edge1_Node000001_Node000002"><a xlink:title=" ">
<path fill="none" stroke="#63b8ff" d="M261.37,-507.02C253.21,-592.93 223.69,-859.67 166.75,-921.25 160.97,-927.5 153.67,-932.21 145.83,-935.75"/>
<polygon fill="#63b8ff" stroke="#63b8ff" points="264.84,-507.49 262.28,-497.21 257.87,-506.84 264.84,-507.49"/>
</a>
</g>
</g>
<!-- Node3 -->
<g id="Node000003" class="node">
<title>Node3</title>
<g id="a_Node000003"><a xlink:href="class_nuki_opener_1_1_nuki_opener.html#a4f1440923689261d6809e91081ae710b" target="_top" xlink:title="Gets the current advanced config from the opener, updates the enable battery type detection parameter...">
<polygon fill="white" stroke="#666666" points="164.5,-912.5 2.25,-912.5 2.25,-882 164.5,-882 164.5,-912.5"/>
<text text-anchor="start" x="10.25" y="-899" font-family="Helvetica,sans-Serif" font-size="10.00">NukiOpener::NukiOpener</text>
<text text-anchor="middle" x="83.38" y="-887.75" font-family="Helvetica,sans-Serif" font-size="10.00">::enableAutoBatteryTypeDetection</text>
</a>
</g>
</g>
<!-- Node1&#45;&gt;Node3 -->
<g id="edge2_Node000001_Node000003" class="edge">
<title>Node1&#45;&gt;Node3</title>
<g id="a_edge2_Node000001_Node000003"><a xlink:title=" ">
<path fill="none" stroke="#63b8ff" d="M260.56,-507.13C250.61,-586.65 217.72,-818.55 166.75,-872.25 163.35,-875.83 159.47,-878.9 155.27,-881.53"/>
<polygon fill="#63b8ff" stroke="#63b8ff" points="264.03,-507.58 261.78,-497.23 257.08,-506.73 264.03,-507.58"/>
</a>
</g>
</g>
<!-- Node4 -->
<g id="Node000004" class="node">
<title>Node4</title>
<g id="a_Node000004"><a xlink:href="class_nuki_opener_1_1_nuki_opener.html#acbe5597eb82f0d9127af22dee5967f50" target="_top" xlink:title="Gets the current config from the opener, updates the random electric strike delay parameter and sends...">
<polygon fill="white" stroke="#666666" points="166.75,-863.5 0,-863.5 0,-833 166.75,-833 166.75,-863.5"/>
<text text-anchor="start" x="8" y="-850" font-family="Helvetica,sans-Serif" font-size="10.00">NukiOpener::NukiOpener</text>
<text text-anchor="middle" x="83.38" y="-838.75" font-family="Helvetica,sans-Serif" font-size="10.00">::enableRandomElectricStrikeDelay</text>
</a>
</g>
</g>
<!-- Node1&#45;&gt;Node4 -->
<g id="edge3_Node000001_Node000004" class="edge">
<title>Node1&#45;&gt;Node4</title>
<g id="a_edge3_Node000001_Node000004"><a xlink:title=" ">
<path fill="none" stroke="#63b8ff" d="M264.31,-507.21C264.13,-571.25 254.51,-733.8 166.75,-823.25 163.19,-826.88 159.12,-829.98 154.75,-832.64"/>
<polygon fill="#63b8ff" stroke="#63b8ff" points="267.81,-507.26 264.25,-497.28 260.81,-507.3 267.81,-507.26"/>
</a>
</g>
</g>
<!-- Node5 -->
<g id="Node000005" class="node">
<title>Node5</title>
<g id="a_Node000005"><a xlink:href="class_nuki_opener_1_1_nuki_opener.html#ada6fc979fbb54b0204add4d58d2835a3" target="_top" xlink:title="Gets the current config from the opener, updates the enable sound confirmation parameter and sends th...">
<polygon fill="white" stroke="#666666" points="148.75,-814.5 18,-814.5 18,-784 148.75,-784 148.75,-814.5"/>
<text text-anchor="start" x="26" y="-801" font-family="Helvetica,sans-Serif" font-size="10.00">NukiOpener::NukiOpener</text>
<text text-anchor="middle" x="83.38" y="-789.75" font-family="Helvetica,sans-Serif" font-size="10.00">::enableSoundConfirmation</text>
</a>
</g>
</g>
<!-- Node1&#45;&gt;Node5 -->
<g id="edge4_Node000001_Node000005" class="edge">
<title>Node1&#45;&gt;Node5</title>
<g id="a_edge4_Node000001_Node000005"><a xlink:title=" ">
<path fill="none" stroke="#63b8ff" d="M262.79,-507.26C259.28,-564.73 242.89,-699.92 166.75,-774.25 161.62,-779.26 155.51,-783.27 148.98,-786.48"/>
<polygon fill="#63b8ff" stroke="#63b8ff" points="266.28,-507.6 263.3,-497.43 259.29,-507.24 266.28,-507.6"/>
</a>
</g>
</g>
<!-- Node6 -->
<g id="Node000006" class="node">
<title>Node6</title>
<g id="a_Node000006"><a xlink:href="class_nuki_opener_1_1_nuki_opener.html#abace4d85e538c614c83a4c9d5cc44166" target="_top" xlink:title="Gets the current advanced config from the opener, updates the battery type parameter and sends the ne...">
<polygon fill="white" stroke="#666666" points="145.38,-765.5 21.38,-765.5 21.38,-735 145.38,-735 145.38,-765.5"/>
<text text-anchor="start" x="29.38" y="-752" font-family="Helvetica,sans-Serif" font-size="10.00">NukiOpener::NukiOpener</text>
<text text-anchor="middle" x="83.38" y="-740.75" font-family="Helvetica,sans-Serif" font-size="10.00">::setBatteryType</text>
</a>
</g>
</g>
<!-- Node1&#45;&gt;Node6 -->
<g id="edge5_Node000001_Node000006" class="edge">
<title>Node1&#45;&gt;Node6</title>
<g id="a_edge5_Node000001_Node000006"><a xlink:title=" ">
<path fill="none" stroke="#63b8ff" d="M260.78,-506.89C253.76,-556.99 231.57,-665.56 166.75,-725.25 160.7,-730.82 153.45,-735.15 145.79,-738.51"/>
<polygon fill="#63b8ff" stroke="#63b8ff" points="264.21,-507.62 262.02,-497.25 257.27,-506.72 264.21,-507.62"/>
</a>
</g>
</g>
<!-- Node7 -->
<g id="Node000007" class="node">
<title>Node7</title>
<g id="a_Node000007"><a xlink:href="class_nuki_opener_1_1_nuki_opener.html#a2d8ca5684bf5936fdefc5a4fb665ab7d" target="_top" xlink:title="Gets the current config from the opener, updates the bus mode switch parameter and sends the new conf...">
<polygon fill="white" stroke="#666666" points="145.38,-716.5 21.38,-716.5 21.38,-686 145.38,-686 145.38,-716.5"/>
<text text-anchor="start" x="29.38" y="-703" font-family="Helvetica,sans-Serif" font-size="10.00">NukiOpener::NukiOpener</text>
<text text-anchor="middle" x="83.38" y="-691.75" font-family="Helvetica,sans-Serif" font-size="10.00">::setBusModeSwitch</text>
</a>
</g>
</g>
<!-- Node1&#45;&gt;Node7 -->
<g id="edge6_Node000001_Node000007" class="edge">
<title>Node1&#45;&gt;Node7</title>
<g id="a_edge6_Node000001_Node000007"><a xlink:title=" ">
<path fill="none" stroke="#63b8ff" d="M257.82,-506.84C247.04,-548.97 220.25,-630.92 166.75,-676.25 160.59,-681.47 153.37,-685.6 145.8,-688.86"/>
<polygon fill="#63b8ff" stroke="#63b8ff" points="261.17,-507.86 260.14,-497.31 254.37,-506.2 261.17,-507.86"/>
</a>
</g>
</g>
<!-- Node8 -->
<g id="Node000008" class="node">
<title>Node8</title>
<g id="a_Node000008"><a xlink:href="class_nuki_opener_1_1_nuki_opener.html#aaf1d1a75887e36ffe3b1f945fcee8bf6" target="_top" xlink:title="Gets the current config from the opener, updates the doorbell suppression parameter and sends the new...">
<polygon fill="white" stroke="#666666" points="145.38,-667.5 21.38,-667.5 21.38,-637 145.38,-637 145.38,-667.5"/>
<text text-anchor="start" x="29.38" y="-654" font-family="Helvetica,sans-Serif" font-size="10.00">NukiOpener::NukiOpener</text>
<text text-anchor="middle" x="83.38" y="-642.75" font-family="Helvetica,sans-Serif" font-size="10.00">::setDoorbellSuppression</text>
</a>
</g>
</g>
<!-- Node1&#45;&gt;Node8 -->
<g id="edge7_Node000001_Node000008" class="edge">
<title>Node1&#45;&gt;Node8</title>
<g id="a_edge7_Node000001_Node000008"><a xlink:title=" ">
<path fill="none" stroke="#63b8ff" d="M253.47,-505.87C238.98,-538.76 209.46,-595.38 166.75,-627.25 160.4,-631.99 153.15,-635.83 145.64,-638.96"/>
<polygon fill="#63b8ff" stroke="#63b8ff" points="256.51,-507.66 257.21,-497.09 250.07,-504.92 256.51,-507.66"/>
</a>
</g>
</g>
<!-- Node9 -->
<g id="Node000009" class="node">
<title>Node9</title>
<g id="a_Node000009"><a xlink:href="class_nuki_opener_1_1_nuki_opener.html#a8937f87c7de9884801b5e27a404f4567" target="_top" xlink:title="Gets the current config from the opener, updates the doorbell suppression duration parameter and send...">
<polygon fill="white" stroke="#666666" points="163,-618.5 3.75,-618.5 3.75,-588 163,-588 163,-618.5"/>
<text text-anchor="start" x="11.75" y="-605" font-family="Helvetica,sans-Serif" font-size="10.00">NukiOpener::NukiOpener</text>
<text text-anchor="middle" x="83.38" y="-593.75" font-family="Helvetica,sans-Serif" font-size="10.00">::setDoorbellSuppressionDuration</text>
</a>
</g>
</g>
<!-- Node1&#45;&gt;Node9 -->
<g id="edge8_Node000001_Node000009" class="edge">
<title>Node1&#45;&gt;Node9</title>
<g id="a_edge8_Node000001_Node000009"><a xlink:title=" ">
<path fill="none" stroke="#63b8ff" d="M245.46,-504.71C227.66,-526.9 198.68,-559 166.75,-578.25 160.86,-581.8 154.43,-584.88 147.84,-587.55"/>
<polygon fill="#63b8ff" stroke="#63b8ff" points="248.04,-507.09 251.45,-497.06 242.53,-502.78 248.04,-507.09"/>
</a>
</g>
</g>
<!-- Node10 -->
<g id="Node000010" class="node">
<title>Node10</title>
<g id="a_Node000010"><a xlink:href="class_nuki_opener_1_1_nuki_opener.html#ae005fd4fdfaeca86d623e71f9dc16141" target="_top" xlink:title="Gets the current advanced config from the opener, updates the double button press action parameter an...">
<polygon fill="white" stroke="#666666" points="156.25,-569.5 10.5,-569.5 10.5,-539 156.25,-539 156.25,-569.5"/>
<text text-anchor="start" x="18.5" y="-556" font-family="Helvetica,sans-Serif" font-size="10.00">NukiOpener::NukiOpener</text>
<text text-anchor="middle" x="83.38" y="-544.75" font-family="Helvetica,sans-Serif" font-size="10.00">::setDoubleButtonPressAction</text>
</a>
</g>
</g>
<!-- Node1&#45;&gt;Node10 -->
<g id="edge9_Node000001_Node000010" class="edge">
<title>Node1&#45;&gt;Node10</title>
<g id="a_edge9_Node000001_Node000010"><a xlink:title=" ">
<path fill="none" stroke="#63b8ff" d="M225.99,-501.24C208.33,-510.56 186.81,-521.21 166.75,-529.25 158.43,-532.59 149.48,-535.73 140.66,-538.59"/>
<polygon fill="#63b8ff" stroke="#63b8ff" points="227.41,-504.45 234.57,-496.65 224.11,-498.28 227.41,-504.45"/>
</a>
</g>
</g>
<!-- Node11 -->
<g id="Node000011" class="node">
<title>Node11</title>
<g id="a_Node000011"><a xlink:href="class_nuki_opener_1_1_nuki_opener.html#ae70a6f5395cabdfd04af7685caac09b3" target="_top" xlink:title="Gets the current config from the opener, updates the electric strike delay parameter and sends the ne...">
<polygon fill="white" stroke="#666666" points="145.38,-520.5 21.38,-520.5 21.38,-490 145.38,-490 145.38,-520.5"/>
<text text-anchor="start" x="29.38" y="-507" font-family="Helvetica,sans-Serif" font-size="10.00">NukiOpener::NukiOpener</text>
<text text-anchor="middle" x="83.38" y="-495.75" font-family="Helvetica,sans-Serif" font-size="10.00">::setElectricStrikeDelay</text>
</a>
</g>
</g>
<!-- Node1&#45;&gt;Node11 -->
<g id="edge10_Node000001_Node000011" class="edge">
<title>Node1&#45;&gt;Node11</title>
<g id="a_edge10_Node000001_Node000011"><a xlink:title=" ">
<path fill="none" stroke="#63b8ff" d="M190.96,-490.39C175.97,-492.48 160.32,-494.67 145.77,-496.69"/>
<polygon fill="#63b8ff" stroke="#63b8ff" points="191.35,-493.87 200.77,-489.03 190.38,-486.94 191.35,-493.87"/>
</a>
</g>
</g>
<!-- Node12 -->
<g id="Node000012" class="node">
<title>Node12</title>
<g id="a_Node000012"><a xlink:href="class_nuki_opener_1_1_nuki_opener.html#aafe9f6fb6f56b569da27296501388d58" target="_top" xlink:title="Gets the current config from the opener, updates the electric strike duration parameter and sends the...">
<polygon fill="white" stroke="#666666" points="147.25,-471.5 19.5,-471.5 19.5,-441 147.25,-441 147.25,-471.5"/>
<text text-anchor="start" x="27.5" y="-458" font-family="Helvetica,sans-Serif" font-size="10.00">NukiOpener::NukiOpener</text>
<text text-anchor="middle" x="83.38" y="-446.75" font-family="Helvetica,sans-Serif" font-size="10.00">::setElectricStrikeDuration</text>
</a>
</g>
</g>
<!-- Node1&#45;&gt;Node12 -->
<g id="edge11_Node000001_Node000012" class="edge">
<title>Node1&#45;&gt;Node12</title>
<g id="a_edge11_Node000001_Node000012"><a xlink:title=" ">
<path fill="none" stroke="#63b8ff" d="M190.92,-470.5C176.56,-468.58 161.61,-466.58 147.61,-464.71"/>
<polygon fill="#63b8ff" stroke="#63b8ff" points="190.39,-473.97 200.77,-471.82 191.32,-467.03 190.39,-473.97"/>
</a>
</g>
</g>
<!-- Node13 -->
<g id="Node000013" class="node">
<title>Node13</title>
<g id="a_Node000013"><a xlink:href="class_nuki_opener_1_1_nuki_opener.html#adcae42098c358cbda1e926c1cd463b3e" target="_top" xlink:title="Gets the current config from the opener, updates the intercom id parameter and sends the new config t...">
<polygon fill="white" stroke="#666666" points="145.38,-422.5 21.38,-422.5 21.38,-392 145.38,-392 145.38,-422.5"/>
<text text-anchor="start" x="29.38" y="-409" font-family="Helvetica,sans-Serif" font-size="10.00">NukiOpener::NukiOpener</text>
<text text-anchor="middle" x="83.38" y="-397.75" font-family="Helvetica,sans-Serif" font-size="10.00">::setIntercomID</text>
</a>
</g>
</g>
<!-- Node1&#45;&gt;Node13 -->
<g id="edge12_Node000001_Node000013" class="edge">
<title>Node1&#45;&gt;Node13</title>
<g id="a_edge12_Node000001_Node000013"><a xlink:title=" ">
<path fill="none" stroke="#63b8ff" d="M225.56,-459.53C207.96,-450.46 186.61,-440.12 166.75,-432.25 158.41,-428.95 149.46,-425.82 140.63,-422.97"/>
<polygon fill="#63b8ff" stroke="#63b8ff" points="223.63,-462.47 234.11,-464 226.87,-456.27 223.63,-462.47"/>
</a>
</g>
</g>
<!-- Node14 -->
<g id="Node000014" class="node">
<title>Node14</title>
<g id="a_Node000014"><a xlink:href="class_nuki_opener_1_1_nuki_opener.html#a96129a8ae0926ad81f95c4611e089bc4" target="_top" xlink:title="Gets the current config from the opener, updates the rto timeout parameter and sends the new config t...">
<polygon fill="white" stroke="#666666" points="145.38,-373.5 21.38,-373.5 21.38,-343 145.38,-343 145.38,-373.5"/>
<text text-anchor="start" x="29.38" y="-360" font-family="Helvetica,sans-Serif" font-size="10.00">NukiOpener::NukiOpener</text>
<text text-anchor="middle" x="83.38" y="-348.75" font-family="Helvetica,sans-Serif" font-size="10.00">::setRtoTimeout</text>
</a>
</g>
</g>
<!-- Node1&#45;&gt;Node14 -->
<g id="edge13_Node000001_Node000014" class="edge">
<title>Node1&#45;&gt;Node14</title>
<g id="a_edge13_Node000001_Node000014"><a xlink:title=" ">
<path fill="none" stroke="#63b8ff" d="M245.41,-456.05C227.57,-434.09 198.56,-402.32 166.75,-383.25 160.21,-379.33 153.01,-375.98 145.67,-373.13"/>
<polygon fill="#63b8ff" stroke="#63b8ff" points="242.45,-457.95 251.41,-463.61 247.93,-453.6 242.45,-457.95"/>
</a>
</g>
</g>
<!-- Node15 -->
<g id="Node000015" class="node">
<title>Node15</title>
<g id="a_Node000015"><a xlink:href="class_nuki_opener_1_1_nuki_opener.html#a74cd98c79533ccd102c149de484dd607" target="_top" xlink:title="Gets the current config from the opener, updates the short circuit duration parameter and sends the n...">
<polygon fill="white" stroke="#666666" points="145.38,-324.5 21.38,-324.5 21.38,-294 145.38,-294 145.38,-324.5"/>
<text text-anchor="start" x="29.38" y="-311" font-family="Helvetica,sans-Serif" font-size="10.00">NukiOpener::NukiOpener</text>
<text text-anchor="middle" x="83.38" y="-299.75" font-family="Helvetica,sans-Serif" font-size="10.00">::setShortCircuitDuration</text>
</a>
</g>
</g>
<!-- Node1&#45;&gt;Node15 -->
<g id="edge14_Node000001_Node000015" class="edge">
<title>Node1&#45;&gt;Node15</title>
<g id="a_edge14_Node000001_Node000015"><a xlink:title=" ">
<path fill="none" stroke="#63b8ff" d="M253.23,-454.37C238.62,-421.65 209.12,-365.77 166.75,-334.25 160.39,-329.52 153.14,-325.68 145.63,-322.56"/>
<polygon fill="#63b8ff" stroke="#63b8ff" points="250,-455.72 257.17,-463.52 256.43,-452.95 250,-455.72"/>
</a>
</g>
</g>
<!-- Node16 -->
<g id="Node000016" class="node">
<title>Node16</title>
<g id="a_Node000016"><a xlink:href="class_nuki_opener_1_1_nuki_opener.html#af25efc0b89615b203dcc72637f0fcd4a" target="_top" xlink:title="Gets the current advanced config from the opener, updates the single button press action parameter an...">
<polygon fill="white" stroke="#666666" points="154.75,-275.5 12,-275.5 12,-245 154.75,-245 154.75,-275.5"/>
<text text-anchor="start" x="20" y="-262" font-family="Helvetica,sans-Serif" font-size="10.00">NukiOpener::NukiOpener</text>
<text text-anchor="middle" x="83.38" y="-250.75" font-family="Helvetica,sans-Serif" font-size="10.00">::setSingleButtonPressAction</text>
</a>
</g>
</g>
<!-- Node1&#45;&gt;Node16 -->
<g id="edge15_Node000001_Node000016" class="edge">
<title>Node1&#45;&gt;Node16</title>
<g id="a_edge15_Node000001_Node000016"><a xlink:title=" ">
<path fill="none" stroke="#63b8ff" d="M257.78,-453.79C246.95,-411.88 220.08,-330.34 166.75,-285.25 162.53,-281.68 157.8,-278.62 152.81,-276"/>
<polygon fill="#63b8ff" stroke="#63b8ff" points="254.32,-454.39 260.11,-463.27 261.12,-452.72 254.32,-454.39"/>
</a>
</g>
</g>
<!-- Node17 -->
<g id="Node000017" class="node">
<title>Node17</title>
<g id="a_Node000017"><a xlink:href="class_nuki_opener_1_1_nuki_opener.html#ab1eb2f552f2e84597132b2dd3dbbc40e" target="_top" xlink:title="Gets the current config from the opener, updates the sound continuous mode parameter and sends the ne...">
<polygon fill="white" stroke="#666666" points="145.38,-226.5 21.38,-226.5 21.38,-196 145.38,-196 145.38,-226.5"/>
<text text-anchor="start" x="29.38" y="-213" font-family="Helvetica,sans-Serif" font-size="10.00">NukiOpener::NukiOpener</text>
<text text-anchor="middle" x="83.38" y="-201.75" font-family="Helvetica,sans-Serif" font-size="10.00">::setSoundCm</text>
</a>
</g>
</g>
<!-- Node1&#45;&gt;Node17 -->
<g id="edge16_Node000001_Node000017" class="edge">
<title>Node1&#45;&gt;Node17</title>
<g id="a_edge16_Node000001_Node000017"><a xlink:title=" ">
<path fill="none" stroke="#63b8ff" d="M260.69,-453.36C253.56,-403.3 231.23,-295.54 166.75,-236.25 160.7,-230.69 153.45,-226.36 145.79,-222.99"/>
<polygon fill="#63b8ff" stroke="#63b8ff" points="257.19,-453.54 261.96,-463 264.13,-452.63 257.19,-453.54"/>
</a>
</g>
</g>
<!-- Node18 -->
<g id="Node000018" class="node">
<title>Node18</title>
<g id="a_Node000018"><a xlink:href="class_nuki_opener_1_1_nuki_opener.html#a397e7b44a087b6134b393a12c228f566" target="_top" xlink:title="Gets the current config from the opener, and updates the sound level.">
<polygon fill="white" stroke="#666666" points="145.38,-177.5 21.38,-177.5 21.38,-147 145.38,-147 145.38,-177.5"/>
<text text-anchor="start" x="29.38" y="-164" font-family="Helvetica,sans-Serif" font-size="10.00">NukiOpener::NukiOpener</text>
<text text-anchor="middle" x="83.38" y="-152.75" font-family="Helvetica,sans-Serif" font-size="10.00">::setSoundLevel</text>
</a>
</g>
</g>
<!-- Node1&#45;&gt;Node18 -->
<g id="edge17_Node000001_Node000018" class="edge">
<title>Node1&#45;&gt;Node18</title>
<g id="a_edge17_Node000001_Node000018"><a xlink:title=" ">
<path fill="none" stroke="#63b8ff" d="M262.76,-453.33C259.19,-396.05 242.69,-261.32 166.75,-187.25 160.76,-181.41 153.45,-176.92 145.68,-173.48"/>
<polygon fill="#63b8ff" stroke="#63b8ff" points="259.26,-453.32 263.28,-463.12 266.25,-452.95 259.26,-453.32"/>
</a>
</g>
</g>
<!-- Node19 -->
<g id="Node000019" class="node">
<title>Node19</title>
<g id="a_Node000019"><a xlink:href="class_nuki_opener_1_1_nuki_opener.html#a68e205e659262fe037e6328ef525a4a1" target="_top" xlink:title="Gets the current config from the opener, updates the sound open parameter and sends the new config to...">
<polygon fill="white" stroke="#666666" points="145.38,-128.5 21.38,-128.5 21.38,-98 145.38,-98 145.38,-128.5"/>
<text text-anchor="start" x="29.38" y="-115" font-family="Helvetica,sans-Serif" font-size="10.00">NukiOpener::NukiOpener</text>
<text text-anchor="middle" x="83.38" y="-103.75" font-family="Helvetica,sans-Serif" font-size="10.00">::setSoundOpen</text>
</a>
</g>
</g>
<!-- Node1&#45;&gt;Node19 -->
<g id="edge18_Node000001_Node000019" class="edge">
<title>Node1&#45;&gt;Node19</title>
<g id="a_edge18_Node000001_Node000019"><a xlink:title=" ">
<path fill="none" stroke="#63b8ff" d="M264.28,-453.37C264.04,-389.51 254.31,-227.43 166.75,-138.25 160.78,-132.17 153.39,-127.56 145.5,-124.06"/>
<polygon fill="#63b8ff" stroke="#63b8ff" points="260.78,-453.25 264.23,-463.26 267.78,-453.28 260.78,-453.25"/>
</a>
</g>
</g>
<!-- Node20 -->
<g id="Node000020" class="node">
<title>Node20</title>
<g id="a_Node000020"><a xlink:href="class_nuki_opener_1_1_nuki_opener.html#ad6de014d1210f9e0d6d0322bac55450d" target="_top" xlink:title="Gets the current config from the opener, updates the sound ring parameter and sends the new config to...">
<polygon fill="white" stroke="#666666" points="145.38,-79.5 21.38,-79.5 21.38,-49 145.38,-49 145.38,-79.5"/>
<text text-anchor="start" x="29.38" y="-66" font-family="Helvetica,sans-Serif" font-size="10.00">NukiOpener::NukiOpener</text>
<text text-anchor="middle" x="83.38" y="-54.75" font-family="Helvetica,sans-Serif" font-size="10.00">::setSoundRing</text>
</a>
</g>
</g>
<!-- Node1&#45;&gt;Node20 -->
<g id="edge19_Node000001_Node000020" class="edge">
<title>Node1&#45;&gt;Node20</title>
<g id="a_edge19_Node000001_Node000020"><a xlink:title=" ">
<path fill="none" stroke="#63b8ff" d="M260.55,-453.44C250.57,-374.12 217.61,-142.8 166.75,-89.25 160.88,-83.07 153.55,-78.41 145.68,-74.89"/>
<polygon fill="#63b8ff" stroke="#63b8ff" points="257.07,-453.82 261.77,-463.31 264.02,-452.96 257.07,-453.82"/>
</a>
</g>
</g>
<!-- Node21 -->
<g id="Node000021" class="node">
<title>Node21</title>
<g id="a_Node000021"><a xlink:href="class_nuki_opener_1_1_nuki_opener.html#ae39cd2c075b64a5df539f5c4aa82773a" target="_top" xlink:title="Gets the current config from the opener, updates the sound RTO parameter and sends the new config to ...">
<polygon fill="white" stroke="#666666" points="145.38,-30.5 21.38,-30.5 21.38,0 145.38,0 145.38,-30.5"/>
<text text-anchor="start" x="29.38" y="-17" font-family="Helvetica,sans-Serif" font-size="10.00">NukiOpener::NukiOpener</text>
<text text-anchor="middle" x="83.38" y="-5.75" font-family="Helvetica,sans-Serif" font-size="10.00">::setSoundRto</text>
</a>
</g>
</g>
<!-- Node1&#45;&gt;Node21 -->
<g id="edge20_Node000001_Node000021" class="edge">
<title>Node1&#45;&gt;Node21</title>
<g id="a_edge20_Node000001_Node000021"><a xlink:title=" ">
<path fill="none" stroke="#63b8ff" d="M261.36,-453.54C253.18,-367.82 223.59,-101.68 166.75,-40.25 160.96,-34 153.67,-29.29 145.83,-25.75"/>
<polygon fill="#63b8ff" stroke="#63b8ff" points="257.86,-453.69 262.27,-463.32 264.83,-453.04 257.86,-453.69"/>
</a>
</g>
</g>
</g>
</svg>

<g id="navigator" transform="translate(0 0)" fill="#404254">
  <rect fill="#f2f5e9" fill-opacity="0.5" stroke="#606060" stroke-width=".5" x="0" y="0" width="60" height="60"/>
  <use id="zoomplus" xlink:href="#zoomPlus" x="17" y="9" onmousedown="handleZoom(evt,'in')"/>
  <use id="zoomminus" xlink:href="#zoomMin" x="42" y="9" onmousedown="handleZoom(evt,'out')"/>
  <use id="reset" xlink:href="#resetDef" x="30" y="36" onmousedown="handleReset()"/>
   <use id="arrowup" xlink:href="#arrowUp" x="0" y="0" onmousedown="handlePan(0,-1)"/>
  <use id="arrowright" xlink:href="#arrowRight" x="0" y="0" onmousedown="handlePan(1,0)"/>
  <use id="arrowdown" xlink:href="#arrowDown" x="0" y="0" onmousedown="handlePan(0,1)"/>
  <use id="arrowleft" xlink:href="#arrowLeft" x="0" y="0" onmousedown="handlePan(-1,0)"/>
</g>
<svg viewBox="0 0 15 15" width="100%" height="30px" preserveAspectRatio="xMaxYMin meet">
 <g id="arrow_out" transform="scale(0.3 0.3)">
  <a xlink:href="class_nuki_opener_1_1_nuki_opener_adf50e8b8e35409d8aa43de69c43535b5_icgraph_org.svg" target="_base">
   <rect id="button" ry="5" rx="5" y="6" x="6" height="38" width="38"
        fill="#f2f5e9" fill-opacity="0.5" stroke="#606060" stroke-width="1.0"/>
   <path id="arrow"
     d="M 11.500037,31.436501 C 11.940474,20.09759 22.043105,11.32322 32.158766,21.979434 L 37.068811,17.246167 C 37.068811,17.246167 37.088388,32 37.088388,32 L 22.160133,31.978069 C 22.160133,31.978069 26.997745,27.140456 26.997745,27.140456 C 18.528582,18.264221 13.291696,25.230495 11.500037,31.436501 z"
     style="fill:#404040;"/>
  </a>
 </g>
</svg>

<style type='text/css'>
<![CDATA[
[data-mouse-over-selected='false'] { opacity: 0.7; }
[data-mouse-over-selected='true']  { opacity: 1.0; }
]]>
</style>
<script type="application/ecmascript"><![CDATA[
document.addEventListener('DOMContentLoaded', (event) => {
  highlightEdges();
  highlightAdjacentNodes();
});
]]></script>
</svg>
