<?xml version="1.0" encoding="UTF-8" standalone="no"?>
<!DOCTYPE svg PUBLIC "-//W3C//DTD SVG 1.1//EN"
 "http://www.w3.org/Graphics/SVG/1.1/DTD/svg11.dtd">
<!-- Generated by graphviz version 11.0.0 (20240428.1522)
 -->
<!-- Title: Nuki::NukiBle::deleteAuthorizationEntry Pages: 1 -->
<svg width="735pt" height="163pt"
 viewBox="0.00 0.00 735.00 162.88" xmlns="http://www.w3.org/2000/svg" xmlns:xlink="http://www.w3.org/1999/xlink">
<g id="graph0" class="graph" transform="scale(1 1) rotate(0) translate(4 158.88)">
<title>Nuki::NukiBle::deleteAuthorizationEntry</title>
<!-- Node1 -->
<g id="Node000001" class="node">
<title>Node1</title>
<g id="a_Node000001"><a xlink:title="Deletes the authorization entry from the lock.">
<polygon fill="#999999" stroke="#666666" points="162.25,-83.88 0,-83.88 0,-53.38 162.25,-53.38 162.25,-83.88"/>
<text text-anchor="start" x="8" y="-70.38" font-family="Helvetica,sans-Serif" font-size="10.00">Nuki::NukiBle::deleteAuthorization</text>
<text text-anchor="middle" x="81.12" y="-59.12" font-family="Helvetica,sans-Serif" font-size="10.00">Entry</text>
</a>
</g>
</g>
<!-- Node2 -->
<g id="Node000002" class="node">
<title>Node2</title>
<g id="a_Node000002"><a xlink:href="class_nuki_1_1_nuki_ble.html#af1f1e299e8d97e053bba80e92ba285d6" target="_top" xlink:title=" ">
<polygon fill="white" stroke="#666666" points="339.5,-78.25 198.25,-78.25 198.25,-59 339.5,-59 339.5,-78.25"/>
<text text-anchor="middle" x="268.88" y="-64.75" font-family="Helvetica,sans-Serif" font-size="10.00">Nuki::NukiBle::executeAction</text>
</a>
</g>
</g>
<!-- Node1&#45;&gt;Node2 -->
<g id="edge1_Node000001_Node000002" class="edge">
<title>Node1&#45;&gt;Node2</title>
<g id="a_edge1_Node000001_Node000002"><a xlink:title=" ">
<path fill="none" stroke="#63b8ff" d="M162.52,-68.62C170.42,-68.62 178.45,-68.62 186.37,-68.62"/>
<polygon fill="#63b8ff" stroke="#63b8ff" points="186.34,-72.13 196.34,-68.63 186.34,-65.13 186.34,-72.13"/>
</a>
</g>
</g>
<!-- Node3 -->
<g id="Node000003" class="node">
<title>Node3</title>
<g id="a_Node000003"><a xlink:href="class_nuki_1_1_nuki_ble.html#ada0f3beebd95d35c122e25dd3f9eb886" target="_top" xlink:title=" ">
<polygon fill="white" stroke="#666666" points="523.5,-154.88 386,-154.88 386,-124.38 523.5,-124.38 523.5,-154.88"/>
<text text-anchor="start" x="394" y="-141.38" font-family="Helvetica,sans-Serif" font-size="10.00">Nuki::NukiBle::cmdChallAcc</text>
<text text-anchor="middle" x="454.75" y="-130.12" font-family="Helvetica,sans-Serif" font-size="10.00">StateMachine</text>
</a>
</g>
</g>
<!-- Node2&#45;&gt;Node3 -->
<g id="edge2_Node000002_Node000003" class="edge">
<title>Node2&#45;&gt;Node3</title>
<g id="a_edge2_Node000002_Node000003"><a xlink:title=" ">
<path fill="none" stroke="#63b8ff" d="M291.06,-78.61C312.2,-88.39 345.74,-103.42 375.5,-114.62 380.71,-116.58 386.14,-118.53 391.62,-120.41"/>
<polygon fill="#63b8ff" stroke="#63b8ff" points="390.11,-123.6 400.71,-123.47 392.35,-116.97 390.11,-123.6"/>
</a>
</g>
</g>
<!-- Node4 -->
<g id="Node000004" class="node">
<title>Node4</title>
<g id="a_Node000004"><a xlink:href="class_nuki_1_1_nuki_ble.html#a59169a9f492793762e3c6ba39b611b07" target="_top" xlink:title=" ">
<polygon fill="white" stroke="#666666" points="526.5,-105.88 383,-105.88 383,-75.38 526.5,-75.38 526.5,-105.88"/>
<text text-anchor="start" x="391" y="-92.38" font-family="Helvetica,sans-Serif" font-size="10.00">Nuki::NukiBle::cmdChallState</text>
<text text-anchor="middle" x="454.75" y="-81.12" font-family="Helvetica,sans-Serif" font-size="10.00">Machine</text>
</a>
</g>
</g>
<!-- Node2&#45;&gt;Node4 -->
<g id="edge3_Node000002_Node000004" class="edge">
<title>Node2&#45;&gt;Node4</title>
<g id="a_edge3_Node000002_Node000004"><a xlink:title=" ">
<path fill="none" stroke="#63b8ff" d="M339.91,-77.01C350.2,-78.24 360.87,-79.51 371.38,-80.77"/>
<polygon fill="#63b8ff" stroke="#63b8ff" points="370.84,-84.23 381.18,-81.94 371.67,-77.28 370.84,-84.23"/>
</a>
</g>
</g>
<!-- Node5 -->
<g id="Node000005" class="node">
<title>Node5</title>
<g id="a_Node000005"><a xlink:href="class_nuki_1_1_nuki_ble.html#a6e8fca90c04249660dce6cb993eb4495" target="_top" xlink:title=" ">
<polygon fill="white" stroke="#666666" points="727,-62.88 570,-62.88 570,-32.38 727,-32.38 727,-62.88"/>
<text text-anchor="start" x="578" y="-49.38" font-family="Helvetica,sans-Serif" font-size="10.00">Nuki::NukiBle::extendDisconnect</text>
<text text-anchor="middle" x="648.5" y="-38.12" font-family="Helvetica,sans-Serif" font-size="10.00">Timeout</text>
</a>
</g>
</g>
<!-- Node2&#45;&gt;Node5 -->
<g id="edge7_Node000002_Node000005" class="edge">
<title>Node2&#45;&gt;Node5</title>
<g id="a_edge7_Node000002_Node000005"><a xlink:title=" ">
<path fill="none" stroke="#63b8ff" d="M339.58,-64.75C401.22,-61.32 491.5,-56.3 558.38,-52.58"/>
<polygon fill="#63b8ff" stroke="#63b8ff" points="558.44,-56.08 568.23,-52.03 558.05,-49.09 558.44,-56.08"/>
</a>
</g>
</g>
<!-- Node6 -->
<g id="Node000006" class="node">
<title>Node6</title>
<g id="a_Node000006"><a xlink:href="class_nuki_1_1_nuki_ble.html#ad135bb1455665decfddff67772c1d411" target="_top" xlink:title=" ">
<polygon fill="white" stroke="#666666" points="534,-19.25 375.5,-19.25 375.5,0 534,0 534,-19.25"/>
<text text-anchor="middle" x="454.75" y="-5.75" font-family="Helvetica,sans-Serif" font-size="10.00">Nuki::NukiBle::cmdStateMachine</text>
</a>
</g>
</g>
<!-- Node2&#45;&gt;Node6 -->
<g id="edge5_Node000002_Node000006" class="edge">
<title>Node2&#45;&gt;Node6</title>
<g id="a_edge5_Node000002_Node000006"><a xlink:title=" ">
<path fill="none" stroke="#63b8ff" d="M299.41,-58.64C320.56,-51.54 349.73,-41.84 375.5,-33.62 386.47,-30.13 398.33,-26.44 409.42,-23.03"/>
<polygon fill="#63b8ff" stroke="#63b8ff" points="410.2,-26.45 418.74,-20.18 408.16,-19.76 410.2,-26.45"/>
</a>
</g>
</g>
<!-- Node4&#45;&gt;Node5 -->
<g id="edge4_Node000004_Node000005" class="edge">
<title>Node4&#45;&gt;Node5</title>
<g id="a_edge4_Node000004_Node000005"><a xlink:title=" ">
<path fill="none" stroke="#63b8ff" d="M525.79,-74.92C538.91,-71.98 552.73,-68.88 566.16,-65.86"/>
<polygon fill="#63b8ff" stroke="#63b8ff" points="566.86,-69.3 575.85,-63.69 565.33,-62.47 566.86,-69.3"/>
</a>
</g>
</g>
<!-- Node6&#45;&gt;Node5 -->
<g id="edge6_Node000006_Node000005" class="edge">
<title>Node6&#45;&gt;Node5</title>
<g id="a_edge6_Node000006_Node000005"><a xlink:title=" ">
<path fill="none" stroke="#63b8ff" d="M506.63,-19.71C522.54,-22.86 540.59,-26.44 558.34,-29.96"/>
<polygon fill="#63b8ff" stroke="#63b8ff" points="557.65,-33.39 568.14,-31.9 559.01,-26.52 557.65,-33.39"/>
</a>
</g>
</g>
</g>
</svg>
