<?xml version="1.0" encoding="UTF-8" standalone="no"?>
<!DOCTYPE svg PUBLIC "-//W3C//DTD SVG 1.1//EN"
 "http://www.w3.org/Graphics/SVG/1.1/DTD/svg11.dtd">
<!-- Generated by graphviz version 12.2.1 (20241206.2353)
 -->
<!-- Title: NukiLock::NukiLock::updateTimeControlEntry Pages: 1 -->
<svg width="697pt" height="290pt"
 viewBox="0.00 0.00 696.75 289.57" xmlns="http://www.w3.org/2000/svg" xmlns:xlink="http://www.w3.org/1999/xlink">
<g id="graph0" class="graph" transform="scale(1 1) rotate(0) translate(4 285.57)">
<title>NukiLock::NukiLock::updateTimeControlEntry</title>
<!-- Node1 -->
<g id="Node000001" class="node">
<title>Node1</title>
<g id="a_Node000001"><a xlink:title="Sends an updated time(d) control entry via BLE to the lock. (see addTimeControlEntry())">
<polygon fill="#999999" stroke="#666666" points="124,-88.88 0,-88.88 0,-58.38 124,-58.38 124,-88.88"/>
<text text-anchor="start" x="8" y="-75.38" font-family="Helvetica,sans-Serif" font-size="10.00">NukiLock::NukiLock</text>
<text text-anchor="middle" x="62" y="-64.12" font-family="Helvetica,sans-Serif" font-size="10.00">::updateTimeControlEntry</text>
</a>
</g>
</g>
<!-- Node2 -->
<g id="Node000002" class="node">
<title>Node2</title>
<g id="a_Node000002"><a xlink:href="class_nuki_1_1_nuki_ble.html#af1f1e299e8d97e053bba80e92ba285d6" target="_top" xlink:title=" ">
<polygon fill="white" stroke="#666666" points="301.25,-186.25 160,-186.25 160,-167 301.25,-167 301.25,-186.25"/>
<text text-anchor="middle" x="230.62" y="-172.75" font-family="Helvetica,sans-Serif" font-size="10.00">Nuki::NukiBle::executeAction</text>
</a>
</g>
</g>
<!-- Node1&#45;&gt;Node2 -->
<g id="edge1_Node000001_Node000002" class="edge">
<title>Node1&#45;&gt;Node2</title>
<g id="a_edge1_Node000001_Node000002"><a xlink:title=" ">
<path fill="none" stroke="#63b8ff" d="M88.31,-89.27C119.55,-108.58 172.41,-141.26 203.86,-160.7"/>
<polygon fill="#63b8ff" stroke="#63b8ff" points="202.01,-163.67 212.36,-165.95 205.69,-157.72 202.01,-163.67"/>
</a>
</g>
</g>
<!-- Node10 -->
<g id="Node000010" class="node">
<title>Node10</title>
<g id="a_Node000010"><a xlink:href="namespace_nuki_lock.html#af6ebff0f8c6c0cb27a927a440812c02a" target="_top" xlink:title=" ">
<polygon fill="white" stroke="#666666" points="481.5,-62.25 351.5,-62.25 351.5,-43 481.5,-43 481.5,-62.25"/>
<text text-anchor="middle" x="416.5" y="-48.75" font-family="Helvetica,sans-Serif" font-size="10.00">NukiLock::logMessageVar</text>
</a>
</g>
</g>
<!-- Node1&#45;&gt;Node10 -->
<g id="edge18_Node000001_Node000010" class="edge">
<title>Node1&#45;&gt;Node10</title>
<g id="a_edge18_Node000001_Node000010"><a xlink:title=" ">
<path fill="none" stroke="#63b8ff" d="M124.31,-75.81C136.15,-76.15 148.46,-76.45 160,-76.62 222.77,-77.6 238.81,-83.11 301.25,-76.62 322.75,-74.39 346.17,-69.85 366.17,-65.32"/>
<polygon fill="#63b8ff" stroke="#63b8ff" points="366.79,-68.77 375.73,-63.08 365.2,-61.95 366.79,-68.77"/>
</a>
</g>
</g>
<!-- Node11 -->
<g id="Node000011" class="node">
<title>Node11</title>
<g id="a_Node000011"><a xlink:href="namespace_nuki_lock.html#ab7a8e7266f3ff581a0c32d1adb638ff7" target="_top" xlink:title=" ">
<polygon fill="white" stroke="#666666" points="294.5,-67.88 166.75,-67.88 166.75,-37.38 294.5,-37.38 294.5,-67.88"/>
<text text-anchor="start" x="174.75" y="-54.38" font-family="Helvetica,sans-Serif" font-size="10.00">NukiLock::logTimeControl</text>
<text text-anchor="middle" x="230.62" y="-43.12" font-family="Helvetica,sans-Serif" font-size="10.00">Entry</text>
</a>
</g>
</g>
<!-- Node1&#45;&gt;Node11 -->
<g id="edge19_Node000001_Node000011" class="edge">
<title>Node1&#45;&gt;Node11</title>
<g id="a_edge19_Node000001_Node000011"><a xlink:title=" ">
<path fill="none" stroke="#63b8ff" d="M124.1,-65.92C134.19,-64.65 144.76,-63.32 155.14,-62.01"/>
<polygon fill="#63b8ff" stroke="#63b8ff" points="155.31,-65.52 164.8,-60.8 154.44,-58.57 155.31,-65.52"/>
</a>
</g>
</g>
<!-- Node12 -->
<g id="Node000012" class="node">
<title>Node12</title>
<g id="a_Node000012"><a xlink:href="namespace_nuki.html#a438fdfcef9f81eb0a3e493631b71ca5b" target="_top" xlink:title=" ">
<polygon fill="white" stroke="#666666" points="273.12,-19.25 188.12,-19.25 188.12,0 273.12,0 273.12,-19.25"/>
<text text-anchor="middle" x="230.62" y="-5.75" font-family="Helvetica,sans-Serif" font-size="10.00">Nuki::printBuffer</text>
</a>
</g>
</g>
<!-- Node1&#45;&gt;Node12 -->
<g id="edge21_Node000001_Node000012" class="edge">
<title>Node1&#45;&gt;Node12</title>
<g id="a_edge21_Node000001_Node000012"><a xlink:title=" ">
<path fill="none" stroke="#63b8ff" d="M93.46,-57.89C112.29,-48.56 137.16,-36.97 160,-28.62 165.45,-26.63 171.21,-24.74 176.98,-22.98"/>
<polygon fill="#63b8ff" stroke="#63b8ff" points="177.96,-26.34 186.58,-20.17 176,-19.62 177.96,-26.34"/>
</a>
</g>
</g>
<!-- Node3 -->
<g id="Node000003" class="node">
<title>Node3</title>
<g id="a_Node000003"><a xlink:href="class_nuki_1_1_nuki_ble.html#ada0f3beebd95d35c122e25dd3f9eb886" target="_top" xlink:title=" ">
<polygon fill="white" stroke="#666666" points="485.25,-234.88 347.75,-234.88 347.75,-204.38 485.25,-204.38 485.25,-234.88"/>
<text text-anchor="start" x="355.75" y="-221.38" font-family="Helvetica,sans-Serif" font-size="10.00">Nuki::NukiBle::cmdChallAcc</text>
<text text-anchor="middle" x="416.5" y="-210.12" font-family="Helvetica,sans-Serif" font-size="10.00">StateMachine</text>
</a>
</g>
</g>
<!-- Node2&#45;&gt;Node3 -->
<g id="edge2_Node000002_Node000003" class="edge">
<title>Node2&#45;&gt;Node3</title>
<g id="a_edge2_Node000002_Node000003"><a xlink:title=" ">
<path fill="none" stroke="#63b8ff" d="M274.74,-186.71C293.36,-191.06 315.74,-196.3 337.13,-201.3"/>
<polygon fill="#63b8ff" stroke="#63b8ff" points="336.18,-204.67 346.72,-203.54 337.78,-197.85 336.18,-204.67"/>
</a>
</g>
</g>
<!-- Node4 -->
<g id="Node000004" class="node">
<title>Node4</title>
<g id="a_Node000004"><a xlink:href="class_nuki_1_1_nuki_ble.html#a6e8fca90c04249660dce6cb993eb4495" target="_top" xlink:title=" ">
<polygon fill="white" stroke="#666666" points="688.75,-191.88 531.75,-191.88 531.75,-161.38 688.75,-161.38 688.75,-191.88"/>
<text text-anchor="start" x="539.75" y="-178.38" font-family="Helvetica,sans-Serif" font-size="10.00">Nuki::NukiBle::extendDisconnect</text>
<text text-anchor="middle" x="610.25" y="-167.12" font-family="Helvetica,sans-Serif" font-size="10.00">Timeout</text>
</a>
</g>
</g>
<!-- Node2&#45;&gt;Node4 -->
<g id="edge15_Node000002_Node000004" class="edge">
<title>Node2&#45;&gt;Node4</title>
<g id="a_edge15_Node000002_Node000004"><a xlink:title=" ">
<path fill="none" stroke="#63b8ff" d="M242.59,-186.64C260.69,-202.42 298.67,-232.42 337.25,-243.62 404.9,-263.27 431.92,-273.43 495.75,-243.62 518.33,-233.08 511,-214.43 531.75,-200.62 533.55,-199.43 535.42,-198.28 537.33,-197.2"/>
<polygon fill="#63b8ff" stroke="#63b8ff" points="538.54,-200.51 545.9,-192.89 535.39,-194.26 538.54,-200.51"/>
</a>
</g>
</g>
<!-- Node5 -->
<g id="Node000005" class="node">
<title>Node5</title>
<g id="a_Node000005"><a xlink:href="class_nuki_1_1_nuki_ble.html#ac7ce691d9c3e586474655d1663eb2e20" target="_top" xlink:title=" ">
<polygon fill="white" stroke="#666666" points="676.38,-229.25 544.12,-229.25 544.12,-210 676.38,-210 676.38,-229.25"/>
<text text-anchor="middle" x="610.25" y="-215.75" font-family="Helvetica,sans-Serif" font-size="10.00">Nuki::NukiBle::logMessage</text>
</a>
</g>
</g>
<!-- Node2&#45;&gt;Node5 -->
<g id="edge16_Node000002_Node000005" class="edge">
<title>Node2&#45;&gt;Node5</title>
<g id="a_edge16_Node000002_Node000005"><a xlink:title=" ">
<path fill="none" stroke="#63b8ff" d="M239.01,-186.45C254.56,-206.22 292.94,-250.31 337.25,-266.62 403.35,-290.97 426.66,-280.36 495.75,-266.62 526.31,-260.55 558.95,-246.1 581.35,-234.81"/>
<polygon fill="#63b8ff" stroke="#63b8ff" points="582.85,-237.98 590.12,-230.28 579.63,-231.76 582.85,-237.98"/>
</a>
</g>
</g>
<!-- Node6 -->
<g id="Node000006" class="node">
<title>Node6</title>
<g id="a_Node000006"><a xlink:href="class_nuki_1_1_nuki_ble.html#af3650133f46aeca48a5f01b95d23ab71" target="_top" xlink:title=" ">
<polygon fill="white" stroke="#666666" points="683.88,-143.25 536.62,-143.25 536.62,-124 683.88,-124 683.88,-143.25"/>
<text text-anchor="middle" x="610.25" y="-129.75" font-family="Helvetica,sans-Serif" font-size="10.00">Nuki::NukiBle::logMessageVar</text>
</a>
</g>
</g>
<!-- Node2&#45;&gt;Node6 -->
<g id="edge17_Node000002_Node000006" class="edge">
<title>Node2&#45;&gt;Node6</title>
<g id="a_edge17_Node000002_Node000006"><a xlink:title=" ">
<path fill="none" stroke="#63b8ff" d="M242.59,-166.61C260.69,-150.83 298.67,-120.83 337.25,-109.62 404.9,-89.98 425.69,-102.3 495.75,-109.62 507.42,-110.85 531.99,-115.93 555.29,-121.1"/>
<polygon fill="#63b8ff" stroke="#63b8ff" points="554.21,-124.45 564.74,-123.22 555.75,-117.62 554.21,-124.45"/>
</a>
</g>
</g>
<!-- Node7 -->
<g id="Node000007" class="node">
<title>Node7</title>
<g id="a_Node000007"><a xlink:href="class_nuki_1_1_nuki_ble.html#a59169a9f492793762e3c6ba39b611b07" target="_top" xlink:title=" ">
<polygon fill="white" stroke="#666666" points="488.25,-148.88 344.75,-148.88 344.75,-118.38 488.25,-118.38 488.25,-148.88"/>
<text text-anchor="start" x="352.75" y="-135.38" font-family="Helvetica,sans-Serif" font-size="10.00">Nuki::NukiBle::cmdChallState</text>
<text text-anchor="middle" x="416.5" y="-124.12" font-family="Helvetica,sans-Serif" font-size="10.00">Machine</text>
</a>
</g>
</g>
<!-- Node2&#45;&gt;Node7 -->
<g id="edge6_Node000002_Node000007" class="edge">
<title>Node2&#45;&gt;Node7</title>
<g id="a_edge6_Node000002_Node000007"><a xlink:title=" ">
<path fill="none" stroke="#63b8ff" d="M274.74,-166.54C293.36,-162.19 315.74,-156.95 337.13,-151.95"/>
<polygon fill="#63b8ff" stroke="#63b8ff" points="337.78,-155.4 346.72,-149.71 336.18,-148.58 337.78,-155.4"/>
</a>
</g>
</g>
<!-- Node9 -->
<g id="Node000009" class="node">
<title>Node9</title>
<g id="a_Node000009"><a xlink:href="class_nuki_1_1_nuki_ble.html#ad135bb1455665decfddff67772c1d411" target="_top" xlink:title=" ">
<polygon fill="white" stroke="#666666" points="495.75,-186.25 337.25,-186.25 337.25,-167 495.75,-167 495.75,-186.25"/>
<text text-anchor="middle" x="416.5" y="-172.75" font-family="Helvetica,sans-Serif" font-size="10.00">Nuki::NukiBle::cmdStateMachine</text>
</a>
</g>
</g>
<!-- Node2&#45;&gt;Node9 -->
<g id="edge11_Node000002_Node000009" class="edge">
<title>Node2&#45;&gt;Node9</title>
<g id="a_edge11_Node000002_Node000009"><a xlink:title=" ">
<path fill="none" stroke="#63b8ff" d="M301.66,-176.62C309.53,-176.62 317.62,-176.62 325.69,-176.62"/>
<polygon fill="#63b8ff" stroke="#63b8ff" points="325.54,-180.13 335.54,-176.63 325.54,-173.13 325.54,-180.13"/>
</a>
</g>
</g>
<!-- Node3&#45;&gt;Node4 -->
<g id="edge3_Node000003_Node000004" class="edge">
<title>Node3&#45;&gt;Node4</title>
<g id="a_edge3_Node000003_Node000004"><a xlink:title=" ">
<path fill="none" stroke="#63b8ff" d="M485.64,-204.34C499.32,-201.28 513.82,-198.03 527.89,-194.87"/>
<polygon fill="#63b8ff" stroke="#63b8ff" points="528.59,-198.3 537.58,-192.7 527.06,-191.47 528.59,-198.3"/>
</a>
</g>
</g>
<!-- Node3&#45;&gt;Node5 -->
<g id="edge4_Node000003_Node000005" class="edge">
<title>Node3&#45;&gt;Node5</title>
<g id="a_edge4_Node000003_Node000005"><a xlink:title=" ">
<path fill="none" stroke="#63b8ff" d="M485.64,-219.62C500.89,-219.62 517.16,-219.62 532.72,-219.62"/>
<polygon fill="#63b8ff" stroke="#63b8ff" points="532.38,-223.13 542.38,-219.63 532.38,-216.13 532.38,-223.13"/>
</a>
</g>
</g>
<!-- Node3&#45;&gt;Node6 -->
<g id="edge5_Node000003_Node000006" class="edge">
<title>Node3&#45;&gt;Node6</title>
<g id="a_edge5_Node000003_Node000006"><a xlink:title=" ">
<path fill="none" stroke="#63b8ff" d="M480.5,-203.91C485.85,-201.51 491.01,-198.77 495.75,-195.62 516.52,-181.85 510.59,-165.8 531.75,-152.62 534.51,-150.91 537.41,-149.35 540.4,-147.93"/>
<polygon fill="#63b8ff" stroke="#63b8ff" points="541.57,-151.23 549.49,-144.19 538.91,-144.76 541.57,-151.23"/>
</a>
</g>
</g>
<!-- Node7&#45;&gt;Node4 -->
<g id="edge7_Node000007_Node000004" class="edge">
<title>Node7&#45;&gt;Node4</title>
<g id="a_edge7_Node000007_Node000004"><a xlink:title=" ">
<path fill="none" stroke="#63b8ff" d="M487.54,-149.33C500.66,-152.27 514.48,-155.37 527.91,-158.39"/>
<polygon fill="#63b8ff" stroke="#63b8ff" points="527.08,-161.78 537.6,-160.56 528.61,-154.95 527.08,-161.78"/>
</a>
</g>
</g>
<!-- Node7&#45;&gt;Node5 -->
<g id="edge9_Node000007_Node000005" class="edge">
<title>Node7&#45;&gt;Node5</title>
<g id="a_edge9_Node000007_Node000005"><a xlink:title=" ">
<path fill="none" stroke="#63b8ff" d="M480.5,-149.34C485.85,-151.74 491.01,-154.48 495.75,-157.62 516.52,-171.4 510.59,-187.45 531.75,-200.62 534.51,-202.34 537.41,-203.9 540.4,-205.32"/>
<polygon fill="#63b8ff" stroke="#63b8ff" points="538.91,-208.49 549.49,-209.06 541.57,-202.02 538.91,-208.49"/>
</a>
</g>
</g>
<!-- Node7&#45;&gt;Node6 -->
<g id="edge10_Node000007_Node000006" class="edge">
<title>Node7&#45;&gt;Node6</title>
<g id="a_edge10_Node000007_Node000006"><a xlink:title=" ">
<path fill="none" stroke="#63b8ff" d="M488.63,-133.62C500.42,-133.62 512.75,-133.62 524.83,-133.62"/>
<polygon fill="#63b8ff" stroke="#63b8ff" points="524.8,-137.13 534.8,-133.63 524.8,-130.13 524.8,-137.13"/>
</a>
</g>
</g>
<!-- Node8 -->
<g id="Node000008" class="node">
<title>Node8</title>
<g id="a_Node000008"><a xlink:href="class_nuki_1_1_nuki_ble.html#a25207bb564a4b54b8dd8c872177b53a7" target="_top" xlink:title="Returns if BLE is pairing/paired/connected with a Smart Lock Ultra.">
<polygon fill="white" stroke="#666666" points="675.25,-106.25 545.25,-106.25 545.25,-87 675.25,-87 675.25,-106.25"/>
<text text-anchor="middle" x="610.25" y="-92.75" font-family="Helvetica,sans-Serif" font-size="10.00">Nuki::NukiBle::isLockUltra</text>
</a>
</g>
</g>
<!-- Node7&#45;&gt;Node8 -->
<g id="edge8_Node000007_Node000008" class="edge">
<title>Node7&#45;&gt;Node8</title>
<g id="a_edge8_Node000007_Node000008"><a xlink:title=" ">
<path fill="none" stroke="#63b8ff" d="M488.63,-119.9C507.34,-116.29 527.4,-112.42 545.69,-108.89"/>
<polygon fill="#63b8ff" stroke="#63b8ff" points="546.17,-112.36 555.33,-107.03 544.85,-105.49 546.17,-112.36"/>
</a>
</g>
</g>
<!-- Node9&#45;&gt;Node4 -->
<g id="edge12_Node000009_Node000004" class="edge">
<title>Node9&#45;&gt;Node4</title>
<g id="a_edge12_Node000009_Node000004"><a xlink:title=" ">
<path fill="none" stroke="#63b8ff" d="M496.05,-176.62C503.99,-176.62 512.1,-176.62 520.14,-176.62"/>
<polygon fill="#63b8ff" stroke="#63b8ff" points="519.93,-180.13 529.93,-176.63 519.93,-173.13 519.93,-180.13"/>
</a>
</g>
</g>
<!-- Node9&#45;&gt;Node5 -->
<g id="edge13_Node000009_Node000005" class="edge">
<title>Node9&#45;&gt;Node5</title>
<g id="a_edge13_Node000009_Node000005"><a xlink:title=" ">
<path fill="none" stroke="#63b8ff" d="M462.46,-186.71C489.53,-192.78 524.22,-200.56 553.09,-207.03"/>
<polygon fill="#63b8ff" stroke="#63b8ff" points="552.24,-210.43 562.77,-209.2 553.77,-203.6 552.24,-210.43"/>
</a>
</g>
</g>
<!-- Node9&#45;&gt;Node6 -->
<g id="edge14_Node000009_Node000006" class="edge">
<title>Node9&#45;&gt;Node6</title>
<g id="a_edge14_Node000009_Node000006"><a xlink:title=" ">
<path fill="none" stroke="#63b8ff" d="M462.46,-166.54C489.53,-160.47 524.22,-152.69 553.09,-146.22"/>
<polygon fill="#63b8ff" stroke="#63b8ff" points="553.77,-149.65 562.77,-144.05 552.24,-142.82 553.77,-149.65"/>
</a>
</g>
</g>
<!-- Node11&#45;&gt;Node10 -->
<g id="edge20_Node000011_Node000010" class="edge">
<title>Node11&#45;&gt;Node10</title>
<g id="a_edge20_Node000011_Node000010"><a xlink:title=" ">
<path fill="none" stroke="#63b8ff" d="M294.9,-52.62C309.39,-52.62 324.93,-52.62 339.88,-52.62"/>
<polygon fill="#63b8ff" stroke="#63b8ff" points="339.65,-56.13 349.65,-52.63 339.65,-49.13 339.65,-56.13"/>
</a>
</g>
</g>
</g>
</svg>
