<?xml version="1.0" encoding="UTF-8" standalone="no"?>
<!DOCTYPE svg PUBLIC "-//W3C//DTD SVG 1.1//EN"
 "http://www.w3.org/Graphics/SVG/1.1/DTD/svg11.dtd">
<!-- Generated by graphviz version 12.2.1 (20241206.2353)
 -->
<!-- Title: Nuki::NukiBle::genericCommand Pages: 1 -->
<svg width="728pt" height="263pt"
 viewBox="0.00 0.00 728.25 263.03" xmlns="http://www.w3.org/2000/svg" xmlns:xlink="http://www.w3.org/1999/xlink">
<g id="graph0" class="graph" transform="scale(1 1) rotate(0) translate(4 259.03)">
<title>Nuki::NukiBle::genericCommand</title>
<!-- Node1 -->
<g id="Node000001" class="node">
<title>Node1</title>
<g id="a_Node000001"><a xlink:title="Sends a custom command to the lock via BLE.">
<polygon fill="#999999" stroke="#666666" points="155.5,-143.25 0,-143.25 0,-124 155.5,-124 155.5,-143.25"/>
<text text-anchor="middle" x="77.75" y="-129.75" font-family="Helvetica,sans-Serif" font-size="10.00">Nuki::NukiBle::genericCommand</text>
</a>
</g>
</g>
<!-- Node2 -->
<g id="Node000002" class="node">
<title>Node2</title>
<g id="a_Node000002"><a xlink:href="class_nuki_1_1_nuki_ble.html#af1f1e299e8d97e053bba80e92ba285d6" target="_top" xlink:title=" ">
<polygon fill="white" stroke="#666666" points="332.75,-143.25 191.5,-143.25 191.5,-124 332.75,-124 332.75,-143.25"/>
<text text-anchor="middle" x="262.12" y="-129.75" font-family="Helvetica,sans-Serif" font-size="10.00">Nuki::NukiBle::executeAction</text>
</a>
</g>
</g>
<!-- Node1&#45;&gt;Node2 -->
<g id="edge1_Node000001_Node000002" class="edge">
<title>Node1&#45;&gt;Node2</title>
<g id="a_edge1_Node000001_Node000002"><a xlink:title=" ">
<path fill="none" stroke="#63b8ff" d="M155.83,-133.62C163.82,-133.62 171.97,-133.62 180.01,-133.62"/>
<polygon fill="#63b8ff" stroke="#63b8ff" points="179.76,-137.13 189.76,-133.63 179.76,-130.13 179.76,-137.13"/>
</a>
</g>
</g>
<!-- Node3 -->
<g id="Node000003" class="node">
<title>Node3</title>
<g id="a_Node000003"><a xlink:href="class_nuki_1_1_nuki_ble.html#ada0f3beebd95d35c122e25dd3f9eb886" target="_top" xlink:title=" ">
<polygon fill="white" stroke="#666666" points="516.75,-191.88 379.25,-191.88 379.25,-161.38 516.75,-161.38 516.75,-191.88"/>
<text text-anchor="start" x="387.25" y="-178.38" font-family="Helvetica,sans-Serif" font-size="10.00">Nuki::NukiBle::cmdChallAcc</text>
<text text-anchor="middle" x="448" y="-167.12" font-family="Helvetica,sans-Serif" font-size="10.00">StateMachine</text>
</a>
</g>
</g>
<!-- Node2&#45;&gt;Node3 -->
<g id="edge2_Node000002_Node000003" class="edge">
<title>Node2&#45;&gt;Node3</title>
<g id="a_edge2_Node000002_Node000003"><a xlink:title=" ">
<path fill="none" stroke="#63b8ff" d="M306.24,-143.71C324.86,-148.06 347.24,-153.3 368.63,-158.3"/>
<polygon fill="#63b8ff" stroke="#63b8ff" points="367.68,-161.67 378.22,-160.54 369.28,-154.85 367.68,-161.67"/>
</a>
</g>
</g>
<!-- Node4 -->
<g id="Node000004" class="node">
<title>Node4</title>
<g id="a_Node000004"><a xlink:href="class_nuki_1_1_nuki_ble.html#a6e8fca90c04249660dce6cb993eb4495" target="_top" xlink:title=" ">
<polygon fill="white" stroke="#666666" points="720.25,-189.88 563.25,-189.88 563.25,-159.38 720.25,-159.38 720.25,-189.88"/>
<text text-anchor="start" x="571.25" y="-176.38" font-family="Helvetica,sans-Serif" font-size="10.00">Nuki::NukiBle::extendDisconnect</text>
<text text-anchor="middle" x="641.75" y="-165.12" font-family="Helvetica,sans-Serif" font-size="10.00">Timeout</text>
</a>
</g>
</g>
<!-- Node2&#45;&gt;Node4 -->
<g id="edge15_Node000002_Node000004" class="edge">
<title>Node2&#45;&gt;Node4</title>
<g id="a_edge15_Node000002_Node000004"><a xlink:title=" ">
<path fill="none" stroke="#63b8ff" d="M333.15,-136.38C386.52,-139.03 461.73,-143.95 527.25,-152.62 536.4,-153.84 545.93,-155.32 555.4,-156.95"/>
<polygon fill="#63b8ff" stroke="#63b8ff" points="554.53,-160.35 564.98,-158.64 555.75,-153.45 554.53,-160.35"/>
</a>
</g>
</g>
<!-- Node5 -->
<g id="Node000005" class="node">
<title>Node5</title>
<g id="a_Node000005"><a xlink:href="class_nuki_1_1_nuki_ble.html#ac7ce691d9c3e586474655d1663eb2e20" target="_top" xlink:title=" ">
<polygon fill="white" stroke="#666666" points="707.88,-228.25 575.62,-228.25 575.62,-209 707.88,-209 707.88,-228.25"/>
<text text-anchor="middle" x="641.75" y="-214.75" font-family="Helvetica,sans-Serif" font-size="10.00">Nuki::NukiBle::logMessage</text>
</a>
</g>
</g>
<!-- Node2&#45;&gt;Node5 -->
<g id="edge17_Node000002_Node000005" class="edge">
<title>Node2&#45;&gt;Node5</title>
<g id="a_edge17_Node000002_Node000005"><a xlink:title=" ">
<path fill="none" stroke="#63b8ff" d="M269.21,-143.67C283.37,-165.91 320.94,-218.91 368.75,-238.62 446.6,-270.74 547.56,-248.58 601.95,-232.06"/>
<polygon fill="#63b8ff" stroke="#63b8ff" points="602.89,-235.43 611.38,-229.09 600.79,-228.75 602.89,-235.43"/>
</a>
</g>
</g>
<!-- Node6 -->
<g id="Node000006" class="node">
<title>Node6</title>
<g id="a_Node000006"><a xlink:href="class_nuki_1_1_nuki_ble.html#af3650133f46aeca48a5f01b95d23ab71" target="_top" xlink:title=" ">
<polygon fill="white" stroke="#666666" points="715.38,-140.25 568.12,-140.25 568.12,-121 715.38,-121 715.38,-140.25"/>
<text text-anchor="middle" x="641.75" y="-126.75" font-family="Helvetica,sans-Serif" font-size="10.00">Nuki::NukiBle::logMessageVar</text>
</a>
</g>
</g>
<!-- Node2&#45;&gt;Node6 -->
<g id="edge18_Node000002_Node000006" class="edge">
<title>Node2&#45;&gt;Node6</title>
<g id="a_edge18_Node000002_Node000006"><a xlink:title=" ">
<path fill="none" stroke="#63b8ff" d="M274.09,-123.61C292.19,-107.83 330.17,-77.83 368.75,-66.62 436.4,-46.98 463.42,-36.82 527.25,-66.62 549.83,-77.17 542.26,-96.19 563.25,-109.62 567.28,-112.2 571.62,-114.47 576.12,-116.46"/>
<polygon fill="#63b8ff" stroke="#63b8ff" points="574.82,-119.71 585.41,-120.06 577.36,-113.18 574.82,-119.71"/>
</a>
</g>
</g>
<!-- Node7 -->
<g id="Node000007" class="node">
<title>Node7</title>
<g id="a_Node000007"><a xlink:href="class_nuki_1_1_nuki_ble.html#a59169a9f492793762e3c6ba39b611b07" target="_top" xlink:title=" ">
<polygon fill="white" stroke="#666666" points="519.75,-105.88 376.25,-105.88 376.25,-75.38 519.75,-75.38 519.75,-105.88"/>
<text text-anchor="start" x="384.25" y="-92.38" font-family="Helvetica,sans-Serif" font-size="10.00">Nuki::NukiBle::cmdChallState</text>
<text text-anchor="middle" x="448" y="-81.12" font-family="Helvetica,sans-Serif" font-size="10.00">Machine</text>
</a>
</g>
</g>
<!-- Node2&#45;&gt;Node7 -->
<g id="edge6_Node000002_Node000007" class="edge">
<title>Node2&#45;&gt;Node7</title>
<g id="a_edge6_Node000002_Node000007"><a xlink:title=" ">
<path fill="none" stroke="#63b8ff" d="M306.24,-123.54C324.86,-119.19 347.24,-113.95 368.63,-108.95"/>
<polygon fill="#63b8ff" stroke="#63b8ff" points="369.28,-112.4 378.22,-106.71 367.68,-105.58 369.28,-112.4"/>
</a>
</g>
</g>
<!-- Node9 -->
<g id="Node000009" class="node">
<title>Node9</title>
<g id="a_Node000009"><a xlink:href="class_nuki_1_1_nuki_ble.html#ad135bb1455665decfddff67772c1d411" target="_top" xlink:title=" ">
<polygon fill="white" stroke="#666666" points="527.25,-229.25 368.75,-229.25 368.75,-210 527.25,-210 527.25,-229.25"/>
<text text-anchor="middle" x="448" y="-215.75" font-family="Helvetica,sans-Serif" font-size="10.00">Nuki::NukiBle::cmdStateMachine</text>
</a>
</g>
</g>
<!-- Node2&#45;&gt;Node9 -->
<g id="edge11_Node000002_Node000009" class="edge">
<title>Node2&#45;&gt;Node9</title>
<g id="a_edge11_Node000002_Node000009"><a xlink:title=" ">
<path fill="none" stroke="#63b8ff" d="M275.7,-143.55C294.75,-158.13 332.57,-185.26 368.75,-200.62 373.72,-202.73 378.96,-204.64 384.29,-206.35"/>
<polygon fill="#63b8ff" stroke="#63b8ff" points="383.26,-209.7 393.84,-209.18 385.24,-202.99 383.26,-209.7"/>
</a>
</g>
</g>
<!-- Node10 -->
<g id="Node000010" class="node">
<title>Node10</title>
<g id="a_Node000010"><a xlink:href="class_nuki_1_1_nuki_ble.html#a050f54fbfcea03dc5238e8c66a7e89ca" target="_top" xlink:title="Returns pairing state (if credentials are stored or not)">
<polygon fill="white" stroke="#666666" points="526.12,-19.25 369.88,-19.25 369.88,0 526.12,0 526.12,-19.25"/>
<text text-anchor="middle" x="448" y="-5.75" font-family="Helvetica,sans-Serif" font-size="10.00">Nuki::NukiBle::isPairedWithLock</text>
</a>
</g>
</g>
<!-- Node2&#45;&gt;Node10 -->
<g id="edge16_Node000002_Node000010" class="edge">
<title>Node2&#45;&gt;Node10</title>
<g id="a_edge16_Node000002_Node000010"><a xlink:title=" ">
<path fill="none" stroke="#63b8ff" d="M271.01,-123.52C287.19,-103.47 326.21,-58.43 368.75,-33.62 375.59,-29.64 383.16,-26.25 390.82,-23.38"/>
<polygon fill="#63b8ff" stroke="#63b8ff" points="391.88,-26.72 400.21,-20.17 389.62,-20.1 391.88,-26.72"/>
</a>
</g>
</g>
<!-- Node3&#45;&gt;Node4 -->
<g id="edge3_Node000003_Node000004" class="edge">
<title>Node3&#45;&gt;Node4</title>
<g id="a_edge3_Node000003_Node000004"><a xlink:title=" ">
<path fill="none" stroke="#63b8ff" d="M517.14,-175.91C528.29,-175.8 539.97,-175.68 551.53,-175.56"/>
<polygon fill="#63b8ff" stroke="#63b8ff" points="551.55,-179.06 561.51,-175.45 551.47,-172.06 551.55,-179.06"/>
</a>
</g>
</g>
<!-- Node3&#45;&gt;Node5 -->
<g id="edge4_Node000003_Node000005" class="edge">
<title>Node3&#45;&gt;Node5</title>
<g id="a_edge4_Node000003_Node000005"><a xlink:title=" ">
<path fill="none" stroke="#63b8ff" d="M517.14,-191.55C538.95,-196.33 562.85,-201.56 583.78,-206.15"/>
<polygon fill="#63b8ff" stroke="#63b8ff" points="582.75,-209.5 593.26,-208.22 584.24,-202.67 582.75,-209.5"/>
</a>
</g>
</g>
<!-- Node3&#45;&gt;Node6 -->
<g id="edge5_Node000003_Node000006" class="edge">
<title>Node3&#45;&gt;Node6</title>
<g id="a_edge5_Node000003_Node000006"><a xlink:title=" ">
<path fill="none" stroke="#63b8ff" d="M514.45,-160.92C538.31,-155.2 564.96,-148.81 587.61,-143.37"/>
<polygon fill="#63b8ff" stroke="#63b8ff" points="588.34,-146.8 597.25,-141.06 586.71,-139.99 588.34,-146.8"/>
</a>
</g>
</g>
<!-- Node7&#45;&gt;Node4 -->
<g id="edge7_Node000007_Node000004" class="edge">
<title>Node7&#45;&gt;Node4</title>
<g id="a_edge7_Node000007_Node000004"><a xlink:title=" ">
<path fill="none" stroke="#63b8ff" d="M499,-106.26C508.65,-110.07 518.47,-114.54 527.25,-119.62 545.27,-130.06 545.01,-139.58 563.25,-149.62 566.41,-151.36 569.71,-153 573.08,-154.55"/>
<polygon fill="#63b8ff" stroke="#63b8ff" points="571.43,-157.65 582.01,-158.31 574.15,-151.2 571.43,-157.65"/>
</a>
</g>
</g>
<!-- Node7&#45;&gt;Node5 -->
<g id="edge9_Node000007_Node000005" class="edge">
<title>Node7&#45;&gt;Node5</title>
<g id="a_edge9_Node000007_Node000005"><a xlink:title=" ">
<path fill="none" stroke="#63b8ff" d="M471.41,-106.17C487.72,-118 509.9,-135.17 527.25,-152.62 545.55,-171.04 541.53,-184.41 563.25,-198.62 566.49,-200.74 569.94,-202.64 573.51,-204.33"/>
<polygon fill="#63b8ff" stroke="#63b8ff" points="571.89,-207.45 582.47,-208.02 574.55,-200.98 571.89,-207.45"/>
</a>
</g>
</g>
<!-- Node7&#45;&gt;Node6 -->
<g id="edge10_Node000007_Node000006" class="edge">
<title>Node7&#45;&gt;Node6</title>
<g id="a_edge10_Node000007_Node000006"><a xlink:title=" ">
<path fill="none" stroke="#63b8ff" d="M520.13,-105.46C540.26,-109.66 561.96,-114.19 581.33,-118.23"/>
<polygon fill="#63b8ff" stroke="#63b8ff" points="580.45,-121.62 590.95,-120.24 581.88,-114.77 580.45,-121.62"/>
</a>
</g>
</g>
<!-- Node8 -->
<g id="Node000008" class="node">
<title>Node8</title>
<g id="a_Node000008"><a xlink:href="class_nuki_1_1_nuki_ble.html#a25207bb564a4b54b8dd8c872177b53a7" target="_top" xlink:title="Returns if BLE is pairing/paired/connected with a Smart Lock Ultra.">
<polygon fill="white" stroke="#666666" points="706.75,-100.25 576.75,-100.25 576.75,-81 706.75,-81 706.75,-100.25"/>
<text text-anchor="middle" x="641.75" y="-86.75" font-family="Helvetica,sans-Serif" font-size="10.00">Nuki::NukiBle::isLockUltra</text>
</a>
</g>
</g>
<!-- Node7&#45;&gt;Node8 -->
<g id="edge8_Node000007_Node000008" class="edge">
<title>Node7&#45;&gt;Node8</title>
<g id="a_edge8_Node000007_Node000008"><a xlink:title=" ">
<path fill="none" stroke="#63b8ff" d="M520.13,-90.62C534.82,-90.62 550.35,-90.62 565.19,-90.62"/>
<polygon fill="#63b8ff" stroke="#63b8ff" points="564.87,-94.13 574.87,-90.63 564.87,-87.13 564.87,-94.13"/>
</a>
</g>
</g>
<!-- Node9&#45;&gt;Node4 -->
<g id="edge12_Node000009_Node000004" class="edge">
<title>Node9&#45;&gt;Node4</title>
<g id="a_edge12_Node000009_Node000004"><a xlink:title=" ">
<path fill="none" stroke="#63b8ff" d="M492.03,-209.53C512.91,-204.63 538.64,-198.59 562.8,-192.92"/>
<polygon fill="#63b8ff" stroke="#63b8ff" points="563.36,-196.38 572.29,-190.69 561.76,-189.57 563.36,-196.38"/>
</a>
</g>
</g>
<!-- Node9&#45;&gt;Node5 -->
<g id="edge13_Node000009_Node000005" class="edge">
<title>Node9&#45;&gt;Node5</title>
<g id="a_edge13_Node000009_Node000005"><a xlink:title=" ">
<path fill="none" stroke="#63b8ff" d="M527.55,-219.22C539.54,-219.15 551.9,-219.09 563.86,-219.03"/>
<polygon fill="#63b8ff" stroke="#63b8ff" points="563.68,-222.53 573.66,-218.97 563.64,-215.53 563.68,-222.53"/>
</a>
</g>
</g>
<!-- Node9&#45;&gt;Node6 -->
<g id="edge14_Node000009_Node000006" class="edge">
<title>Node9&#45;&gt;Node6</title>
<g id="a_edge14_Node000009_Node000006"><a xlink:title=" ">
<path fill="none" stroke="#63b8ff" d="M509.41,-209.65C515.71,-207.26 521.8,-204.29 527.25,-200.62 549.97,-185.33 540.64,-166.08 563.25,-150.62 566.14,-148.65 569.21,-146.87 572.4,-145.27"/>
<polygon fill="#63b8ff" stroke="#63b8ff" points="573.73,-148.5 581.52,-141.32 570.95,-142.08 573.73,-148.5"/>
</a>
</g>
</g>
</g>
</svg>
