<?xml version="1.0" encoding="UTF-8" standalone="no"?>
<!DOCTYPE svg PUBLIC "-//W3C//DTD SVG 1.1//EN"
 "http://www.w3.org/Graphics/SVG/1.1/DTD/svg11.dtd">
<!-- Generated by graphviz version 12.2.1 (20241206.2353)
 -->
<!-- Title: NukiLock::NukiLock::setUnlockedToLockedTransitionOffsetDegrees Pages: 1 -->
<svg width="894pt" height="215pt"
 viewBox="0.00 0.00 893.50 214.53" xmlns="http://www.w3.org/2000/svg" xmlns:xlink="http://www.w3.org/1999/xlink">
<g id="graph0" class="graph" transform="scale(1 1) rotate(0) translate(4 210.53)">
<title>NukiLock::NukiLock::setUnlockedToLockedTransitionOffsetDegrees</title>
<!-- Node1 -->
<g id="Node000001" class="node">
<title>Node1</title>
<g id="a_Node000001"><a xlink:title="Gets the current config from the lock, updates the unlocked to locked transition offset degrees param...">
<polygon fill="#999999" stroke="#666666" points="161.5,-129.41 0,-129.41 0,-87.66 161.5,-87.66 161.5,-129.41"/>
<text text-anchor="start" x="8" y="-115.91" font-family="Helvetica,sans-Serif" font-size="10.00">NukiLock::NukiLock</text>
<text text-anchor="start" x="8" y="-104.66" font-family="Helvetica,sans-Serif" font-size="10.00">::setUnlockedToLockedTransition</text>
<text text-anchor="middle" x="80.75" y="-93.41" font-family="Helvetica,sans-Serif" font-size="10.00">OffsetDegrees</text>
</a>
</g>
</g>
<!-- Node2 -->
<g id="Node000002" class="node">
<title>Node2</title>
<g id="a_Node000002"><a xlink:href="class_nuki_lock_1_1_nuki_lock.html#aa882f9b3256313bbd45b4269f8c74521" target="_top" xlink:title="Requests advanced config from Lock via BLE.">
<polygon fill="white" stroke="#666666" points="320.75,-123.78 197.5,-123.78 197.5,-93.28 320.75,-93.28 320.75,-123.78"/>
<text text-anchor="start" x="205.5" y="-110.28" font-family="Helvetica,sans-Serif" font-size="10.00">NukiLock::NukiLock</text>
<text text-anchor="middle" x="259.12" y="-99.03" font-family="Helvetica,sans-Serif" font-size="10.00">::requestAdvancedConfig</text>
</a>
</g>
</g>
<!-- Node1&#45;&gt;Node2 -->
<g id="edge1_Node000001_Node000002" class="edge">
<title>Node1&#45;&gt;Node2</title>
<g id="a_edge1_Node000001_Node000002"><a xlink:title=" ">
<path fill="none" stroke="#63b8ff" d="M161.94,-108.53C169.89,-108.53 177.92,-108.53 185.78,-108.53"/>
<polygon fill="#63b8ff" stroke="#63b8ff" points="185.63,-112.03 195.63,-108.53 185.63,-105.03 185.63,-112.03"/>
</a>
</g>
</g>
<!-- Node3 -->
<g id="Node000003" class="node">
<title>Node3</title>
<g id="a_Node000003"><a xlink:href="class_nuki_1_1_nuki_ble.html#af1f1e299e8d97e053bba80e92ba285d6" target="_top" xlink:title=" ">
<polygon fill="white" stroke="#666666" points="498,-118.16 356.75,-118.16 356.75,-98.91 498,-98.91 498,-118.16"/>
<text text-anchor="middle" x="427.38" y="-104.66" font-family="Helvetica,sans-Serif" font-size="10.00">Nuki::NukiBle::executeAction</text>
</a>
</g>
</g>
<!-- Node2&#45;&gt;Node3 -->
<g id="edge2_Node000002_Node000003" class="edge">
<title>Node2&#45;&gt;Node3</title>
<g id="a_edge2_Node000002_Node000003"><a xlink:title=" ">
<path fill="none" stroke="#63b8ff" d="M321.09,-108.53C328.9,-108.53 336.99,-108.53 345.06,-108.53"/>
<polygon fill="#63b8ff" stroke="#63b8ff" points="344.91,-112.03 354.91,-108.53 344.91,-105.03 344.91,-112.03"/>
</a>
</g>
</g>
<!-- Node4 -->
<g id="Node000004" class="node">
<title>Node4</title>
<g id="a_Node000004"><a xlink:href="class_nuki_1_1_nuki_ble.html#ada0f3beebd95d35c122e25dd3f9eb886" target="_top" xlink:title=" ">
<polygon fill="white" stroke="#666666" points="682,-145.78 544.5,-145.78 544.5,-115.28 682,-115.28 682,-145.78"/>
<text text-anchor="start" x="552.5" y="-132.28" font-family="Helvetica,sans-Serif" font-size="10.00">Nuki::NukiBle::cmdChallAcc</text>
<text text-anchor="middle" x="613.25" y="-121.03" font-family="Helvetica,sans-Serif" font-size="10.00">StateMachine</text>
</a>
</g>
</g>
<!-- Node3&#45;&gt;Node4 -->
<g id="edge3_Node000003_Node000004" class="edge">
<title>Node3&#45;&gt;Node4</title>
<g id="a_edge3_Node000003_Node000004"><a xlink:title=" ">
<path fill="none" stroke="#63b8ff" d="M498.41,-116.91C509.68,-118.26 521.41,-119.66 532.88,-121.04"/>
<polygon fill="#63b8ff" stroke="#63b8ff" points="532.38,-124.5 542.72,-122.21 533.21,-117.55 532.38,-124.5"/>
</a>
</g>
</g>
<!-- Node5 -->
<g id="Node000005" class="node">
<title>Node5</title>
<g id="a_Node000005"><a xlink:href="class_nuki_1_1_nuki_ble.html#a6e8fca90c04249660dce6cb993eb4495" target="_top" xlink:title=" ">
<polygon fill="white" stroke="#666666" points="885.5,-186.78 728.5,-186.78 728.5,-156.28 885.5,-156.28 885.5,-186.78"/>
<text text-anchor="start" x="736.5" y="-173.28" font-family="Helvetica,sans-Serif" font-size="10.00">Nuki::NukiBle::extendDisconnect</text>
<text text-anchor="middle" x="807" y="-162.03" font-family="Helvetica,sans-Serif" font-size="10.00">Timeout</text>
</a>
</g>
</g>
<!-- Node3&#45;&gt;Node5 -->
<g id="edge16_Node000003_Node000005" class="edge">
<title>Node3&#45;&gt;Node5</title>
<g id="a_edge16_Node000003_Node000005"><a xlink:title=" ">
<path fill="none" stroke="#63b8ff" d="M436.66,-118.58C452.95,-137.45 491.31,-177.63 534,-192.53 603.38,-216.76 688.57,-203.9 744.93,-190.02"/>
<polygon fill="#63b8ff" stroke="#63b8ff" points="745.51,-193.48 754.33,-187.61 743.78,-186.7 745.51,-193.48"/>
</a>
</g>
</g>
<!-- Node6 -->
<g id="Node000006" class="node">
<title>Node6</title>
<g id="a_Node000006"><a xlink:href="class_nuki_1_1_nuki_ble.html#ac7ce691d9c3e586474655d1663eb2e20" target="_top" xlink:title=" ">
<polygon fill="white" stroke="#666666" points="873.12,-137.16 740.88,-137.16 740.88,-117.91 873.12,-117.91 873.12,-137.16"/>
<text text-anchor="middle" x="807" y="-123.66" font-family="Helvetica,sans-Serif" font-size="10.00">Nuki::NukiBle::logMessage</text>
</a>
</g>
</g>
<!-- Node3&#45;&gt;Node6 -->
<g id="edge17_Node000003_Node000006" class="edge">
<title>Node3&#45;&gt;Node6</title>
<g id="a_edge17_Node000003_Node000006"><a xlink:title=" ">
<path fill="none" stroke="#63b8ff" d="M498.26,-107.02C510.18,-106.82 522.45,-106.64 534,-106.53 604.44,-105.87 622.35,-100.1 692.5,-106.53 711.59,-108.28 732.26,-111.66 750.66,-115.2"/>
<polygon fill="#63b8ff" stroke="#63b8ff" points="749.82,-118.6 760.31,-117.12 751.18,-111.73 749.82,-118.6"/>
</a>
</g>
</g>
<!-- Node7 -->
<g id="Node000007" class="node">
<title>Node7</title>
<g id="a_Node000007"><a xlink:href="class_nuki_1_1_nuki_ble.html#af3650133f46aeca48a5f01b95d23ab71" target="_top" xlink:title=" ">
<polygon fill="white" stroke="#666666" points="880.62,-97.16 733.38,-97.16 733.38,-77.91 880.62,-77.91 880.62,-97.16"/>
<text text-anchor="middle" x="807" y="-83.66" font-family="Helvetica,sans-Serif" font-size="10.00">Nuki::NukiBle::logMessageVar</text>
</a>
</g>
</g>
<!-- Node3&#45;&gt;Node7 -->
<g id="edge18_Node000003_Node000007" class="edge">
<title>Node3&#45;&gt;Node7</title>
<g id="a_edge18_Node000003_Node000007"><a xlink:title=" ">
<path fill="none" stroke="#63b8ff" d="M436.05,-98.62C451.86,-79.14 490.24,-36.37 534,-20.53 600.24,3.44 628.67,9.27 692.5,-20.53 715.08,-31.08 707.75,-49.73 728.5,-63.53 734.35,-67.42 740.86,-70.71 747.55,-73.48"/>
<polygon fill="#63b8ff" stroke="#63b8ff" points="746.14,-76.69 756.74,-76.89 748.58,-70.13 746.14,-76.69"/>
</a>
</g>
</g>
<!-- Node8 -->
<g id="Node000008" class="node">
<title>Node8</title>
<g id="a_Node000008"><a xlink:href="class_nuki_1_1_nuki_ble.html#a59169a9f492793762e3c6ba39b611b07" target="_top" xlink:title=" ">
<polygon fill="white" stroke="#666666" points="685,-59.78 541.5,-59.78 541.5,-29.28 685,-29.28 685,-59.78"/>
<text text-anchor="start" x="549.5" y="-46.28" font-family="Helvetica,sans-Serif" font-size="10.00">Nuki::NukiBle::cmdChallState</text>
<text text-anchor="middle" x="613.25" y="-35.03" font-family="Helvetica,sans-Serif" font-size="10.00">Machine</text>
</a>
</g>
</g>
<!-- Node3&#45;&gt;Node8 -->
<g id="edge7_Node000003_Node000008" class="edge">
<title>Node3&#45;&gt;Node8</title>
<g id="a_edge7_Node000003_Node000008"><a xlink:title=" ">
<path fill="none" stroke="#63b8ff" d="M457.11,-98.53C483.6,-89.31 523.68,-75.36 556.46,-63.95"/>
<polygon fill="#63b8ff" stroke="#63b8ff" points="557.55,-67.28 565.84,-60.69 555.24,-60.67 557.55,-67.28"/>
</a>
</g>
</g>
<!-- Node10 -->
<g id="Node000010" class="node">
<title>Node10</title>
<g id="a_Node000010"><a xlink:href="class_nuki_1_1_nuki_ble.html#ad135bb1455665decfddff67772c1d411" target="_top" xlink:title=" ">
<polygon fill="white" stroke="#666666" points="692.5,-183.16 534,-183.16 534,-163.91 692.5,-163.91 692.5,-183.16"/>
<text text-anchor="middle" x="613.25" y="-169.66" font-family="Helvetica,sans-Serif" font-size="10.00">Nuki::NukiBle::cmdStateMachine</text>
</a>
</g>
</g>
<!-- Node3&#45;&gt;Node10 -->
<g id="edge12_Node000003_Node000010" class="edge">
<title>Node3&#45;&gt;Node10</title>
<g id="a_edge12_Node000003_Node000010"><a xlink:title=" ">
<path fill="none" stroke="#63b8ff" d="M448.61,-118.59C469.57,-128.72 503.48,-144.27 534,-154.53 540.52,-156.73 547.43,-158.78 554.33,-160.66"/>
<polygon fill="#63b8ff" stroke="#63b8ff" points="553.09,-163.96 563.65,-163.1 554.86,-157.19 553.09,-163.96"/>
</a>
</g>
</g>
<!-- Node4&#45;&gt;Node5 -->
<g id="edge4_Node000004_Node000005" class="edge">
<title>Node4&#45;&gt;Node5</title>
<g id="a_edge4_Node000004_Node000005"><a xlink:title=" ">
<path fill="none" stroke="#63b8ff" d="M682.39,-145.1C695.09,-147.82 708.5,-150.69 721.62,-153.49"/>
<polygon fill="#63b8ff" stroke="#63b8ff" points="720.56,-156.84 731.07,-155.51 722.02,-150 720.56,-156.84"/>
</a>
</g>
</g>
<!-- Node4&#45;&gt;Node6 -->
<g id="edge5_Node000004_Node000006" class="edge">
<title>Node4&#45;&gt;Node6</title>
<g id="a_edge5_Node000004_Node000006"><a xlink:title=" ">
<path fill="none" stroke="#63b8ff" d="M682.39,-129.47C697.64,-129.23 713.91,-128.97 729.47,-128.73"/>
<polygon fill="#63b8ff" stroke="#63b8ff" points="729.19,-132.24 739.13,-128.58 729.08,-125.24 729.19,-132.24"/>
</a>
</g>
</g>
<!-- Node4&#45;&gt;Node7 -->
<g id="edge6_Node000004_Node000007" class="edge">
<title>Node4&#45;&gt;Node7</title>
<g id="a_edge6_Node000004_Node000007"><a xlink:title=" ">
<path fill="none" stroke="#63b8ff" d="M682.39,-115.25C704.48,-110.3 728.7,-104.87 749.82,-100.13"/>
<polygon fill="#63b8ff" stroke="#63b8ff" points="750.4,-103.59 759.39,-97.99 748.86,-96.76 750.4,-103.59"/>
</a>
</g>
</g>
<!-- Node8&#45;&gt;Node5 -->
<g id="edge8_Node000008_Node000005" class="edge">
<title>Node8&#45;&gt;Node5</title>
<g id="a_edge8_Node000008_Node000005"><a xlink:title=" ">
<path fill="none" stroke="#63b8ff" d="M635.97,-60.19C652.13,-72.21 674.43,-89.57 692.5,-106.53 709.93,-122.91 708.43,-133.53 728.5,-146.53 730.89,-148.08 733.38,-149.54 735.94,-150.91"/>
<polygon fill="#63b8ff" stroke="#63b8ff" points="734.23,-153.97 744.76,-155.15 737.26,-147.66 734.23,-153.97"/>
</a>
</g>
</g>
<!-- Node8&#45;&gt;Node6 -->
<g id="edge10_Node000008_Node000006" class="edge">
<title>Node8&#45;&gt;Node6</title>
<g id="a_edge10_Node000008_Node000006"><a xlink:title=" ">
<path fill="none" stroke="#63b8ff" d="M665.27,-60.17C674.63,-63.94 684.09,-68.4 692.5,-73.53 711.02,-84.85 709.49,-96.06 728.5,-106.53 733.49,-109.28 738.85,-111.68 744.35,-113.78"/>
<polygon fill="#63b8ff" stroke="#63b8ff" points="743,-117.02 753.59,-116.97 745.28,-110.4 743,-117.02"/>
</a>
</g>
</g>
<!-- Node8&#45;&gt;Node7 -->
<g id="edge11_Node000008_Node000007" class="edge">
<title>Node8&#45;&gt;Node7</title>
<g id="a_edge11_Node000008_Node000007"><a xlink:title=" ">
<path fill="none" stroke="#63b8ff" d="M684.29,-60.24C705.86,-65.08 729.32,-70.34 749.84,-74.94"/>
<polygon fill="#63b8ff" stroke="#63b8ff" points="748.9,-78.32 759.42,-77.09 750.43,-71.49 748.9,-78.32"/>
</a>
</g>
</g>
<!-- Node9 -->
<g id="Node000009" class="node">
<title>Node9</title>
<g id="a_Node000009"><a xlink:href="class_nuki_1_1_nuki_ble.html#a25207bb564a4b54b8dd8c872177b53a7" target="_top" xlink:title="Returns if BLE is pairing/paired/connected with a Smart Lock Ultra.">
<polygon fill="white" stroke="#666666" points="872,-54.16 742,-54.16 742,-34.91 872,-34.91 872,-54.16"/>
<text text-anchor="middle" x="807" y="-40.66" font-family="Helvetica,sans-Serif" font-size="10.00">Nuki::NukiBle::isLockUltra</text>
</a>
</g>
</g>
<!-- Node8&#45;&gt;Node9 -->
<g id="edge9_Node000008_Node000009" class="edge">
<title>Node8&#45;&gt;Node9</title>
<g id="a_edge9_Node000008_Node000009"><a xlink:title=" ">
<path fill="none" stroke="#63b8ff" d="M685.38,-44.53C700.07,-44.53 715.6,-44.53 730.44,-44.53"/>
<polygon fill="#63b8ff" stroke="#63b8ff" points="730.12,-48.03 740.12,-44.53 730.12,-41.03 730.12,-48.03"/>
</a>
</g>
</g>
<!-- Node10&#45;&gt;Node5 -->
<g id="edge13_Node000010_Node000005" class="edge">
<title>Node10&#45;&gt;Node5</title>
<g id="a_edge13_Node000010_Node000005"><a xlink:title=" ">
<path fill="none" stroke="#63b8ff" d="M692.8,-172.71C700.74,-172.63 708.85,-172.55 716.89,-172.46"/>
<polygon fill="#63b8ff" stroke="#63b8ff" points="716.72,-175.96 726.68,-172.36 716.65,-168.97 716.72,-175.96"/>
</a>
</g>
</g>
<!-- Node10&#45;&gt;Node6 -->
<g id="edge14_Node000010_Node000006" class="edge">
<title>Node10&#45;&gt;Node6</title>
<g id="a_edge14_Node000010_Node000006"><a xlink:title=" ">
<path fill="none" stroke="#63b8ff" d="M656.33,-163.44C684.8,-156.61 722.64,-147.53 753.14,-140.21"/>
<polygon fill="#63b8ff" stroke="#63b8ff" points="753.64,-143.69 762.55,-137.96 752.01,-136.89 753.64,-143.69"/>
</a>
</g>
</g>
<!-- Node10&#45;&gt;Node7 -->
<g id="edge15_Node000010_Node000007" class="edge">
<title>Node10&#45;&gt;Node7</title>
<g id="a_edge15_Node000010_Node000007"><a xlink:title=" ">
<path fill="none" stroke="#63b8ff" d="M674.11,-163.49C680.58,-161.11 686.86,-158.17 692.5,-154.53 714.32,-140.47 706.87,-122.88 728.5,-108.53 732.25,-106.05 736.28,-103.85 740.47,-101.92"/>
<polygon fill="#63b8ff" stroke="#63b8ff" points="741.76,-105.17 749.72,-98.19 739.14,-98.68 741.76,-105.17"/>
</a>
</g>
</g>
</g>
</svg>
