<?xml version="1.0" encoding="UTF-8" standalone="no"?>
<!DOCTYPE svg PUBLIC "-//W3C//DTD SVG 1.1//EN"
 "http://www.w3.org/Graphics/SVG/1.1/DTD/svg11.dtd">
<!-- Generated by graphviz version 12.2.1 (20241206.2353)
 -->
<!-- Title: NukiLock::NukiLock::disableAutoUnlock Pages: 1 -->
<svg width="837pt" height="263pt"
 viewBox="0.00 0.00 836.50 263.03" xmlns="http://www.w3.org/2000/svg" xmlns:xlink="http://www.w3.org/1999/xlink">
<g id="graph0" class="graph" transform="scale(1 1) rotate(0) translate(4 259.03)">
<title>NukiLock::NukiLock::disableAutoUnlock</title>
<!-- Node1 -->
<g id="Node000001" class="node">
<title>Node1</title>
<g id="a_Node000001"><a xlink:title="Gets the current advanced config from the lock, updates the disable autounlock parameter and sends th...">
<polygon fill="#999999" stroke="#666666" points="104.5,-148.88 0,-148.88 0,-118.38 104.5,-118.38 104.5,-148.88"/>
<text text-anchor="start" x="8" y="-135.38" font-family="Helvetica,sans-Serif" font-size="10.00">NukiLock::NukiLock</text>
<text text-anchor="middle" x="52.25" y="-124.12" font-family="Helvetica,sans-Serif" font-size="10.00">::disableAutoUnlock</text>
</a>
</g>
</g>
<!-- Node2 -->
<g id="Node000002" class="node">
<title>Node2</title>
<g id="a_Node000002"><a xlink:href="class_nuki_lock_1_1_nuki_lock.html#aa882f9b3256313bbd45b4269f8c74521" target="_top" xlink:title="Requests advanced config from Lock via BLE.">
<polygon fill="white" stroke="#666666" points="263.75,-148.88 140.5,-148.88 140.5,-118.38 263.75,-118.38 263.75,-148.88"/>
<text text-anchor="start" x="148.5" y="-135.38" font-family="Helvetica,sans-Serif" font-size="10.00">NukiLock::NukiLock</text>
<text text-anchor="middle" x="202.12" y="-124.12" font-family="Helvetica,sans-Serif" font-size="10.00">::requestAdvancedConfig</text>
</a>
</g>
</g>
<!-- Node1&#45;&gt;Node2 -->
<g id="edge1_Node000001_Node000002" class="edge">
<title>Node1&#45;&gt;Node2</title>
<g id="a_edge1_Node000001_Node000002"><a xlink:title=" ">
<path fill="none" stroke="#63b8ff" d="M104.97,-133.62C112.67,-133.62 120.72,-133.62 128.75,-133.62"/>
<polygon fill="#63b8ff" stroke="#63b8ff" points="128.53,-137.13 138.53,-133.63 128.53,-130.13 128.53,-137.13"/>
</a>
</g>
</g>
<!-- Node3 -->
<g id="Node000003" class="node">
<title>Node3</title>
<g id="a_Node000003"><a xlink:href="class_nuki_1_1_nuki_ble.html#af1f1e299e8d97e053bba80e92ba285d6" target="_top" xlink:title=" ">
<polygon fill="white" stroke="#666666" points="441,-143.25 299.75,-143.25 299.75,-124 441,-124 441,-143.25"/>
<text text-anchor="middle" x="370.38" y="-129.75" font-family="Helvetica,sans-Serif" font-size="10.00">Nuki::NukiBle::executeAction</text>
</a>
</g>
</g>
<!-- Node2&#45;&gt;Node3 -->
<g id="edge2_Node000002_Node000003" class="edge">
<title>Node2&#45;&gt;Node3</title>
<g id="a_edge2_Node000002_Node000003"><a xlink:title=" ">
<path fill="none" stroke="#63b8ff" d="M264.09,-133.62C271.9,-133.62 279.99,-133.62 288.06,-133.62"/>
<polygon fill="#63b8ff" stroke="#63b8ff" points="287.91,-137.13 297.91,-133.63 287.91,-130.13 287.91,-137.13"/>
</a>
</g>
</g>
<!-- Node4 -->
<g id="Node000004" class="node">
<title>Node4</title>
<g id="a_Node000004"><a xlink:href="class_nuki_1_1_nuki_ble.html#ada0f3beebd95d35c122e25dd3f9eb886" target="_top" xlink:title=" ">
<polygon fill="white" stroke="#666666" points="625,-191.88 487.5,-191.88 487.5,-161.38 625,-161.38 625,-191.88"/>
<text text-anchor="start" x="495.5" y="-178.38" font-family="Helvetica,sans-Serif" font-size="10.00">Nuki::NukiBle::cmdChallAcc</text>
<text text-anchor="middle" x="556.25" y="-167.12" font-family="Helvetica,sans-Serif" font-size="10.00">StateMachine</text>
</a>
</g>
</g>
<!-- Node3&#45;&gt;Node4 -->
<g id="edge3_Node000003_Node000004" class="edge">
<title>Node3&#45;&gt;Node4</title>
<g id="a_edge3_Node000003_Node000004"><a xlink:title=" ">
<path fill="none" stroke="#63b8ff" d="M414.49,-143.71C433.11,-148.06 455.49,-153.3 476.88,-158.3"/>
<polygon fill="#63b8ff" stroke="#63b8ff" points="475.93,-161.67 486.47,-160.54 477.53,-154.85 475.93,-161.67"/>
</a>
</g>
</g>
<!-- Node5 -->
<g id="Node000005" class="node">
<title>Node5</title>
<g id="a_Node000005"><a xlink:href="class_nuki_1_1_nuki_ble.html#a6e8fca90c04249660dce6cb993eb4495" target="_top" xlink:title=" ">
<polygon fill="white" stroke="#666666" points="828.5,-189.88 671.5,-189.88 671.5,-159.38 828.5,-159.38 828.5,-189.88"/>
<text text-anchor="start" x="679.5" y="-176.38" font-family="Helvetica,sans-Serif" font-size="10.00">Nuki::NukiBle::extendDisconnect</text>
<text text-anchor="middle" x="750" y="-165.12" font-family="Helvetica,sans-Serif" font-size="10.00">Timeout</text>
</a>
</g>
</g>
<!-- Node3&#45;&gt;Node5 -->
<g id="edge16_Node000003_Node000005" class="edge">
<title>Node3&#45;&gt;Node5</title>
<g id="a_edge16_Node000003_Node000005"><a xlink:title=" ">
<path fill="none" stroke="#63b8ff" d="M441.4,-136.38C494.77,-139.03 569.98,-143.95 635.5,-152.62 644.65,-153.84 654.18,-155.32 663.65,-156.95"/>
<polygon fill="#63b8ff" stroke="#63b8ff" points="662.78,-160.35 673.23,-158.64 664,-153.45 662.78,-160.35"/>
</a>
</g>
</g>
<!-- Node6 -->
<g id="Node000006" class="node">
<title>Node6</title>
<g id="a_Node000006"><a xlink:href="class_nuki_1_1_nuki_ble.html#ac7ce691d9c3e586474655d1663eb2e20" target="_top" xlink:title=" ">
<polygon fill="white" stroke="#666666" points="816.12,-228.25 683.88,-228.25 683.88,-209 816.12,-209 816.12,-228.25"/>
<text text-anchor="middle" x="750" y="-214.75" font-family="Helvetica,sans-Serif" font-size="10.00">Nuki::NukiBle::logMessage</text>
</a>
</g>
</g>
<!-- Node3&#45;&gt;Node6 -->
<g id="edge18_Node000003_Node000006" class="edge">
<title>Node3&#45;&gt;Node6</title>
<g id="a_edge18_Node000003_Node000006"><a xlink:title=" ">
<path fill="none" stroke="#63b8ff" d="M377.46,-143.67C391.62,-165.91 429.19,-218.91 477,-238.62 554.85,-270.74 655.81,-248.58 710.2,-232.06"/>
<polygon fill="#63b8ff" stroke="#63b8ff" points="711.14,-235.43 719.63,-229.09 709.04,-228.75 711.14,-235.43"/>
</a>
</g>
</g>
<!-- Node7 -->
<g id="Node000007" class="node">
<title>Node7</title>
<g id="a_Node000007"><a xlink:href="class_nuki_1_1_nuki_ble.html#af3650133f46aeca48a5f01b95d23ab71" target="_top" xlink:title=" ">
<polygon fill="white" stroke="#666666" points="823.62,-140.25 676.38,-140.25 676.38,-121 823.62,-121 823.62,-140.25"/>
<text text-anchor="middle" x="750" y="-126.75" font-family="Helvetica,sans-Serif" font-size="10.00">Nuki::NukiBle::logMessageVar</text>
</a>
</g>
</g>
<!-- Node3&#45;&gt;Node7 -->
<g id="edge19_Node000003_Node000007" class="edge">
<title>Node3&#45;&gt;Node7</title>
<g id="a_edge19_Node000003_Node000007"><a xlink:title=" ">
<path fill="none" stroke="#63b8ff" d="M382.34,-123.61C400.44,-107.83 438.42,-77.83 477,-66.62 544.65,-46.98 571.67,-36.82 635.5,-66.62 658.08,-77.17 650.51,-96.19 671.5,-109.62 675.53,-112.2 679.87,-114.47 684.37,-116.46"/>
<polygon fill="#63b8ff" stroke="#63b8ff" points="683.07,-119.71 693.66,-120.06 685.61,-113.18 683.07,-119.71"/>
</a>
</g>
</g>
<!-- Node8 -->
<g id="Node000008" class="node">
<title>Node8</title>
<g id="a_Node000008"><a xlink:href="class_nuki_1_1_nuki_ble.html#a59169a9f492793762e3c6ba39b611b07" target="_top" xlink:title=" ">
<polygon fill="white" stroke="#666666" points="628,-105.88 484.5,-105.88 484.5,-75.38 628,-75.38 628,-105.88"/>
<text text-anchor="start" x="492.5" y="-92.38" font-family="Helvetica,sans-Serif" font-size="10.00">Nuki::NukiBle::cmdChallState</text>
<text text-anchor="middle" x="556.25" y="-81.12" font-family="Helvetica,sans-Serif" font-size="10.00">Machine</text>
</a>
</g>
</g>
<!-- Node3&#45;&gt;Node8 -->
<g id="edge7_Node000003_Node000008" class="edge">
<title>Node3&#45;&gt;Node8</title>
<g id="a_edge7_Node000003_Node000008"><a xlink:title=" ">
<path fill="none" stroke="#63b8ff" d="M414.49,-123.54C433.11,-119.19 455.49,-113.95 476.88,-108.95"/>
<polygon fill="#63b8ff" stroke="#63b8ff" points="477.53,-112.4 486.47,-106.71 475.93,-105.58 477.53,-112.4"/>
</a>
</g>
</g>
<!-- Node10 -->
<g id="Node000010" class="node">
<title>Node10</title>
<g id="a_Node000010"><a xlink:href="class_nuki_1_1_nuki_ble.html#ad135bb1455665decfddff67772c1d411" target="_top" xlink:title=" ">
<polygon fill="white" stroke="#666666" points="635.5,-229.25 477,-229.25 477,-210 635.5,-210 635.5,-229.25"/>
<text text-anchor="middle" x="556.25" y="-215.75" font-family="Helvetica,sans-Serif" font-size="10.00">Nuki::NukiBle::cmdStateMachine</text>
</a>
</g>
</g>
<!-- Node3&#45;&gt;Node10 -->
<g id="edge12_Node000003_Node000010" class="edge">
<title>Node3&#45;&gt;Node10</title>
<g id="a_edge12_Node000003_Node000010"><a xlink:title=" ">
<path fill="none" stroke="#63b8ff" d="M383.95,-143.55C403,-158.13 440.82,-185.26 477,-200.62 481.97,-202.73 487.21,-204.64 492.54,-206.35"/>
<polygon fill="#63b8ff" stroke="#63b8ff" points="491.51,-209.7 502.09,-209.18 493.49,-202.99 491.51,-209.7"/>
</a>
</g>
</g>
<!-- Node11 -->
<g id="Node000011" class="node">
<title>Node11</title>
<g id="a_Node000011"><a xlink:href="class_nuki_1_1_nuki_ble.html#a050f54fbfcea03dc5238e8c66a7e89ca" target="_top" xlink:title="Returns pairing state (if credentials are stored or not)">
<polygon fill="white" stroke="#666666" points="634.38,-19.25 478.12,-19.25 478.12,0 634.38,0 634.38,-19.25"/>
<text text-anchor="middle" x="556.25" y="-5.75" font-family="Helvetica,sans-Serif" font-size="10.00">Nuki::NukiBle::isPairedWithLock</text>
</a>
</g>
</g>
<!-- Node3&#45;&gt;Node11 -->
<g id="edge17_Node000003_Node000011" class="edge">
<title>Node3&#45;&gt;Node11</title>
<g id="a_edge17_Node000003_Node000011"><a xlink:title=" ">
<path fill="none" stroke="#63b8ff" d="M379.26,-123.52C395.44,-103.47 434.46,-58.43 477,-33.62 483.84,-29.64 491.41,-26.25 499.07,-23.38"/>
<polygon fill="#63b8ff" stroke="#63b8ff" points="500.13,-26.72 508.46,-20.17 497.87,-20.1 500.13,-26.72"/>
</a>
</g>
</g>
<!-- Node4&#45;&gt;Node5 -->
<g id="edge4_Node000004_Node000005" class="edge">
<title>Node4&#45;&gt;Node5</title>
<g id="a_edge4_Node000004_Node000005"><a xlink:title=" ">
<path fill="none" stroke="#63b8ff" d="M625.39,-175.91C636.54,-175.8 648.22,-175.68 659.78,-175.56"/>
<polygon fill="#63b8ff" stroke="#63b8ff" points="659.8,-179.06 669.76,-175.45 659.72,-172.06 659.8,-179.06"/>
</a>
</g>
</g>
<!-- Node4&#45;&gt;Node6 -->
<g id="edge5_Node000004_Node000006" class="edge">
<title>Node4&#45;&gt;Node6</title>
<g id="a_edge5_Node000004_Node000006"><a xlink:title=" ">
<path fill="none" stroke="#63b8ff" d="M625.39,-191.55C647.2,-196.33 671.1,-201.56 692.03,-206.15"/>
<polygon fill="#63b8ff" stroke="#63b8ff" points="691,-209.5 701.51,-208.22 692.49,-202.67 691,-209.5"/>
</a>
</g>
</g>
<!-- Node4&#45;&gt;Node7 -->
<g id="edge6_Node000004_Node000007" class="edge">
<title>Node4&#45;&gt;Node7</title>
<g id="a_edge6_Node000004_Node000007"><a xlink:title=" ">
<path fill="none" stroke="#63b8ff" d="M622.7,-160.92C646.56,-155.2 673.21,-148.81 695.86,-143.37"/>
<polygon fill="#63b8ff" stroke="#63b8ff" points="696.59,-146.8 705.5,-141.06 694.96,-139.99 696.59,-146.8"/>
</a>
</g>
</g>
<!-- Node8&#45;&gt;Node5 -->
<g id="edge8_Node000008_Node000005" class="edge">
<title>Node8&#45;&gt;Node5</title>
<g id="a_edge8_Node000008_Node000005"><a xlink:title=" ">
<path fill="none" stroke="#63b8ff" d="M607.25,-106.26C616.9,-110.07 626.72,-114.54 635.5,-119.62 653.52,-130.06 653.26,-139.58 671.5,-149.62 674.66,-151.36 677.96,-153 681.33,-154.55"/>
<polygon fill="#63b8ff" stroke="#63b8ff" points="679.68,-157.65 690.26,-158.31 682.4,-151.2 679.68,-157.65"/>
</a>
</g>
</g>
<!-- Node8&#45;&gt;Node6 -->
<g id="edge10_Node000008_Node000006" class="edge">
<title>Node8&#45;&gt;Node6</title>
<g id="a_edge10_Node000008_Node000006"><a xlink:title=" ">
<path fill="none" stroke="#63b8ff" d="M579.66,-106.17C595.97,-118 618.15,-135.17 635.5,-152.62 653.8,-171.04 649.78,-184.41 671.5,-198.62 674.74,-200.74 678.19,-202.64 681.76,-204.33"/>
<polygon fill="#63b8ff" stroke="#63b8ff" points="680.14,-207.45 690.72,-208.02 682.8,-200.98 680.14,-207.45"/>
</a>
</g>
</g>
<!-- Node8&#45;&gt;Node7 -->
<g id="edge11_Node000008_Node000007" class="edge">
<title>Node8&#45;&gt;Node7</title>
<g id="a_edge11_Node000008_Node000007"><a xlink:title=" ">
<path fill="none" stroke="#63b8ff" d="M628.38,-105.46C648.51,-109.66 670.21,-114.19 689.58,-118.23"/>
<polygon fill="#63b8ff" stroke="#63b8ff" points="688.7,-121.62 699.2,-120.24 690.13,-114.77 688.7,-121.62"/>
</a>
</g>
</g>
<!-- Node9 -->
<g id="Node000009" class="node">
<title>Node9</title>
<g id="a_Node000009"><a xlink:href="class_nuki_1_1_nuki_ble.html#a25207bb564a4b54b8dd8c872177b53a7" target="_top" xlink:title="Returns if BLE is pairing/paired/connected with a Smart Lock Ultra.">
<polygon fill="white" stroke="#666666" points="815,-100.25 685,-100.25 685,-81 815,-81 815,-100.25"/>
<text text-anchor="middle" x="750" y="-86.75" font-family="Helvetica,sans-Serif" font-size="10.00">Nuki::NukiBle::isLockUltra</text>
</a>
</g>
</g>
<!-- Node8&#45;&gt;Node9 -->
<g id="edge9_Node000008_Node000009" class="edge">
<title>Node8&#45;&gt;Node9</title>
<g id="a_edge9_Node000008_Node000009"><a xlink:title=" ">
<path fill="none" stroke="#63b8ff" d="M628.38,-90.62C643.07,-90.62 658.6,-90.62 673.44,-90.62"/>
<polygon fill="#63b8ff" stroke="#63b8ff" points="673.12,-94.13 683.12,-90.63 673.12,-87.13 673.12,-94.13"/>
</a>
</g>
</g>
<!-- Node10&#45;&gt;Node5 -->
<g id="edge13_Node000010_Node000005" class="edge">
<title>Node10&#45;&gt;Node5</title>
<g id="a_edge13_Node000010_Node000005"><a xlink:title=" ">
<path fill="none" stroke="#63b8ff" d="M600.28,-209.53C621.16,-204.63 646.89,-198.59 671.05,-192.92"/>
<polygon fill="#63b8ff" stroke="#63b8ff" points="671.61,-196.38 680.54,-190.69 670.01,-189.57 671.61,-196.38"/>
</a>
</g>
</g>
<!-- Node10&#45;&gt;Node6 -->
<g id="edge14_Node000010_Node000006" class="edge">
<title>Node10&#45;&gt;Node6</title>
<g id="a_edge14_Node000010_Node000006"><a xlink:title=" ">
<path fill="none" stroke="#63b8ff" d="M635.8,-219.22C647.79,-219.15 660.15,-219.09 672.11,-219.03"/>
<polygon fill="#63b8ff" stroke="#63b8ff" points="671.93,-222.53 681.91,-218.97 671.89,-215.53 671.93,-222.53"/>
</a>
</g>
</g>
<!-- Node10&#45;&gt;Node7 -->
<g id="edge15_Node000010_Node000007" class="edge">
<title>Node10&#45;&gt;Node7</title>
<g id="a_edge15_Node000010_Node000007"><a xlink:title=" ">
<path fill="none" stroke="#63b8ff" d="M617.66,-209.65C623.96,-207.26 630.05,-204.29 635.5,-200.62 658.22,-185.33 648.89,-166.08 671.5,-150.62 674.39,-148.65 677.46,-146.87 680.65,-145.27"/>
<polygon fill="#63b8ff" stroke="#63b8ff" points="681.98,-148.5 689.77,-141.32 679.2,-142.08 681.98,-148.5"/>
</a>
</g>
</g>
</g>
</svg>
