<?xml version="1.0" encoding="UTF-8" standalone="no"?>
<!DOCTYPE svg PUBLIC "-//W3C//DTD SVG 1.1//EN"
 "http://www.w3.org/Graphics/SVG/1.1/DTD/svg11.dtd">
<!-- Generated by graphviz version 12.2.1 (20241206.2353)
 -->
<!-- Title: Nuki::NukiBle::addAuthorizationEntry Pages: 1 -->
<svg width="735pt" height="347pt"
 viewBox="0.00 0.00 735.00 346.71" xmlns="http://www.w3.org/2000/svg" xmlns:xlink="http://www.w3.org/1999/xlink">
<g id="graph0" class="graph" transform="scale(1 1) rotate(0) translate(4 342.71)">
<title>Nuki::NukiBle::addAuthorizationEntry</title>
<!-- Node1 -->
<g id="Node000001" class="node">
<title>Node1</title>
<g id="a_Node000001"><a xlink:title="Sends a new authorization entry to the lock via BLE.">
<polygon fill="#999999" stroke="#666666" points="151.75,-88.88 0,-88.88 0,-58.38 151.75,-58.38 151.75,-88.88"/>
<text text-anchor="start" x="8" y="-75.38" font-family="Helvetica,sans-Serif" font-size="10.00">Nuki::NukiBle::addAuthorization</text>
<text text-anchor="middle" x="75.88" y="-64.12" font-family="Helvetica,sans-Serif" font-size="10.00">Entry</text>
</a>
</g>
</g>
<!-- Node2 -->
<g id="Node000002" class="node">
<title>Node2</title>
<g id="a_Node000002"><a xlink:href="class_nuki_1_1_nuki_ble.html#af1f1e299e8d97e053bba80e92ba285d6" target="_top" xlink:title=" ">
<polygon fill="white" stroke="#666666" points="334.25,-229.25 193,-229.25 193,-210 334.25,-210 334.25,-229.25"/>
<text text-anchor="middle" x="263.62" y="-215.75" font-family="Helvetica,sans-Serif" font-size="10.00">Nuki::NukiBle::executeAction</text>
</a>
</g>
</g>
<!-- Node1&#45;&gt;Node2 -->
<g id="edge1_Node000001_Node000002" class="edge">
<title>Node1&#45;&gt;Node2</title>
<g id="a_edge1_Node000001_Node000002"><a xlink:title=" ">
<path fill="none" stroke="#63b8ff" d="M96.75,-89.25C131.98,-116.94 205.05,-174.37 241.29,-202.85"/>
<polygon fill="#63b8ff" stroke="#63b8ff" points="238.85,-205.39 248.88,-208.82 243.18,-199.89 238.85,-205.39"/>
</a>
</g>
</g>
<!-- Node6 -->
<g id="Node000006" class="node">
<title>Node6</title>
<g id="a_Node000006"><a xlink:href="class_nuki_1_1_nuki_ble.html#af3650133f46aeca48a5f01b95d23ab71" target="_top" xlink:title=" ">
<polygon fill="white" stroke="#666666" points="722.12,-186.25 574.88,-186.25 574.88,-167 722.12,-167 722.12,-186.25"/>
<text text-anchor="middle" x="648.5" y="-172.75" font-family="Helvetica,sans-Serif" font-size="10.00">Nuki::NukiBle::logMessageVar</text>
</a>
</g>
</g>
<!-- Node1&#45;&gt;Node6 -->
<g id="edge17_Node000001_Node000006" class="edge">
<title>Node1&#45;&gt;Node6</title>
<g id="a_edge17_Node000001_Node000006"><a xlink:title=" ">
<path fill="none" stroke="#63b8ff" d="M152.08,-80.09C243.32,-88.9 401.38,-107.27 534,-138.62 560.3,-144.84 589.16,-154.55 611.2,-162.59"/>
<polygon fill="#63b8ff" stroke="#63b8ff" points="609.73,-165.78 620.32,-165.98 612.17,-159.22 609.73,-165.78"/>
</a>
</g>
</g>
<!-- Node9 -->
<g id="Node000009" class="node">
<title>Node9</title>
<g id="a_Node000009"><a xlink:href="namespace_nuki_lock.html#a630414184015ed567084332b87f2b0ad" target="_top" xlink:title=" ">
<polygon fill="white" stroke="#666666" points="339.5,-67.88 187.75,-67.88 187.75,-37.38 339.5,-37.38 339.5,-67.88"/>
<text text-anchor="start" x="195.75" y="-54.38" font-family="Helvetica,sans-Serif" font-size="10.00">NukiLock::logNewAuthorization</text>
<text text-anchor="middle" x="263.62" y="-43.12" font-family="Helvetica,sans-Serif" font-size="10.00">Entry</text>
</a>
</g>
</g>
<!-- Node1&#45;&gt;Node9 -->
<g id="edge18_Node000001_Node000009" class="edge">
<title>Node1&#45;&gt;Node9</title>
<g id="a_edge18_Node000001_Node000009"><a xlink:title=" ">
<path fill="none" stroke="#63b8ff" d="M152.16,-65.11C160.09,-64.22 168.19,-63.3 176.24,-62.39"/>
<polygon fill="#63b8ff" stroke="#63b8ff" points="176.49,-65.89 186.03,-61.28 175.7,-58.93 176.49,-65.89"/>
</a>
</g>
</g>
<!-- Node11 -->
<g id="Node000011" class="node">
<title>Node11</title>
<g id="a_Node000011"><a xlink:href="namespace_nuki.html#a438fdfcef9f81eb0a3e493631b71ca5b" target="_top" xlink:title=" ">
<polygon fill="white" stroke="#666666" points="306.12,-19.25 221.12,-19.25 221.12,0 306.12,0 306.12,-19.25"/>
<text text-anchor="middle" x="263.62" y="-5.75" font-family="Helvetica,sans-Serif" font-size="10.00">Nuki::printBuffer</text>
</a>
</g>
</g>
<!-- Node1&#45;&gt;Node11 -->
<g id="edge20_Node000001_Node000011" class="edge">
<title>Node1&#45;&gt;Node11</title>
<g id="a_edge20_Node000001_Node000011"><a xlink:title=" ">
<path fill="none" stroke="#63b8ff" d="M111.87,-57.98C133.46,-48.69 161.89,-37.11 187.75,-28.62 194.77,-26.32 202.24,-24.13 209.64,-22.11"/>
<polygon fill="#63b8ff" stroke="#63b8ff" points="210.51,-25.5 219.29,-19.56 208.72,-18.73 210.51,-25.5"/>
</a>
</g>
</g>
<!-- Node3 -->
<g id="Node000003" class="node">
<title>Node3</title>
<g id="a_Node000003"><a xlink:href="class_nuki_1_1_nuki_ble.html#ada0f3beebd95d35c122e25dd3f9eb886" target="_top" xlink:title=" ">
<polygon fill="white" stroke="#666666" points="523.5,-191.88 386,-191.88 386,-161.38 523.5,-161.38 523.5,-191.88"/>
<text text-anchor="start" x="394" y="-178.38" font-family="Helvetica,sans-Serif" font-size="10.00">Nuki::NukiBle::cmdChallAcc</text>
<text text-anchor="middle" x="454.75" y="-167.12" font-family="Helvetica,sans-Serif" font-size="10.00">StateMachine</text>
</a>
</g>
</g>
<!-- Node2&#45;&gt;Node3 -->
<g id="edge2_Node000002_Node000003" class="edge">
<title>Node2&#45;&gt;Node3</title>
<g id="a_edge2_Node000002_Node000003"><a xlink:title=" ">
<path fill="none" stroke="#63b8ff" d="M308.97,-209.54C328.49,-205.11 352.03,-199.75 374.4,-194.67"/>
<polygon fill="#63b8ff" stroke="#63b8ff" points="375.17,-198.08 384.14,-192.45 373.62,-191.25 375.17,-198.08"/>
</a>
</g>
</g>
<!-- Node4 -->
<g id="Node000004" class="node">
<title>Node4</title>
<g id="a_Node000004"><a xlink:href="class_nuki_1_1_nuki_ble.html#a6e8fca90c04249660dce6cb993eb4495" target="_top" xlink:title=" ">
<polygon fill="white" stroke="#666666" points="727,-243.88 570,-243.88 570,-213.38 727,-213.38 727,-243.88"/>
<text text-anchor="start" x="578" y="-230.38" font-family="Helvetica,sans-Serif" font-size="10.00">Nuki::NukiBle::extendDisconnect</text>
<text text-anchor="middle" x="648.5" y="-219.12" font-family="Helvetica,sans-Serif" font-size="10.00">Timeout</text>
</a>
</g>
</g>
<!-- Node2&#45;&gt;Node4 -->
<g id="edge14_Node000002_Node000004" class="edge">
<title>Node2&#45;&gt;Node4</title>
<g id="a_edge14_Node000002_Node000004"><a xlink:title=" ">
<path fill="none" stroke="#63b8ff" d="M312.97,-229.74C332.32,-233.31 354.87,-236.87 375.5,-238.62 436.36,-243.8 505.11,-241.2 558.27,-237.36"/>
<polygon fill="#63b8ff" stroke="#63b8ff" points="558.49,-240.85 568.2,-236.61 557.96,-233.87 558.49,-240.85"/>
</a>
</g>
</g>
<!-- Node5 -->
<g id="Node000005" class="node">
<title>Node5</title>
<g id="a_Node000005"><a xlink:href="class_nuki_1_1_nuki_ble.html#ac7ce691d9c3e586474655d1663eb2e20" target="_top" xlink:title=" ">
<polygon fill="white" stroke="#666666" points="714.62,-300.25 582.38,-300.25 582.38,-281 714.62,-281 714.62,-300.25"/>
<text text-anchor="middle" x="648.5" y="-286.75" font-family="Helvetica,sans-Serif" font-size="10.00">Nuki::NukiBle::logMessage</text>
</a>
</g>
</g>
<!-- Node2&#45;&gt;Node5 -->
<g id="edge15_Node000002_Node000005" class="edge">
<title>Node2&#45;&gt;Node5</title>
<g id="a_edge15_Node000002_Node000005"><a xlink:title=" ">
<path fill="none" stroke="#63b8ff" d="M271.15,-229.68C286.28,-251.95 326.24,-305 375.5,-324.62 456.81,-357.02 561.68,-325.32 614.29,-304.9"/>
<polygon fill="#63b8ff" stroke="#63b8ff" points="615.3,-308.26 623.29,-301.3 612.71,-301.76 615.3,-308.26"/>
</a>
</g>
</g>
<!-- Node2&#45;&gt;Node6 -->
<g id="edge16_Node000002_Node000006" class="edge">
<title>Node2&#45;&gt;Node6</title>
<g id="a_edge16_Node000002_Node000006"><a xlink:title=" ">
<path fill="none" stroke="#63b8ff" d="M276.23,-209.6C295.37,-193.81 335.42,-163.79 375.5,-152.62 454.16,-130.7 550.11,-149.15 604.47,-163.56"/>
<polygon fill="#63b8ff" stroke="#63b8ff" points="603.39,-166.89 613.96,-166.16 605.24,-160.14 603.39,-166.89"/>
</a>
</g>
</g>
<!-- Node7 -->
<g id="Node000007" class="node">
<title>Node7</title>
<g id="a_Node000007"><a xlink:href="class_nuki_1_1_nuki_ble.html#a59169a9f492793762e3c6ba39b611b07" target="_top" xlink:title=" ">
<polygon fill="white" stroke="#666666" points="526.5,-315.88 383,-315.88 383,-285.38 526.5,-285.38 526.5,-315.88"/>
<text text-anchor="start" x="391" y="-302.38" font-family="Helvetica,sans-Serif" font-size="10.00">Nuki::NukiBle::cmdChallState</text>
<text text-anchor="middle" x="454.75" y="-291.12" font-family="Helvetica,sans-Serif" font-size="10.00">Machine</text>
</a>
</g>
</g>
<!-- Node2&#45;&gt;Node7 -->
<g id="edge6_Node000002_Node000007" class="edge">
<title>Node2&#45;&gt;Node7</title>
<g id="a_edge6_Node000002_Node000007"><a xlink:title=" ">
<path fill="none" stroke="#63b8ff" d="M284.83,-229.73C306.88,-240.6 343.34,-258.15 375.5,-271.62 383.03,-274.78 391.04,-277.95 398.95,-280.98"/>
<polygon fill="#63b8ff" stroke="#63b8ff" points="397.62,-284.22 408.21,-284.47 400.09,-277.67 397.62,-284.22"/>
</a>
</g>
</g>
<!-- Node8 -->
<g id="Node000008" class="node">
<title>Node8</title>
<g id="a_Node000008"><a xlink:href="class_nuki_1_1_nuki_ble.html#ad135bb1455665decfddff67772c1d411" target="_top" xlink:title=" ">
<polygon fill="white" stroke="#666666" points="534,-229.25 375.5,-229.25 375.5,-210 534,-210 534,-229.25"/>
<text text-anchor="middle" x="454.75" y="-215.75" font-family="Helvetica,sans-Serif" font-size="10.00">Nuki::NukiBle::cmdStateMachine</text>
</a>
</g>
</g>
<!-- Node2&#45;&gt;Node8 -->
<g id="edge10_Node000002_Node000008" class="edge">
<title>Node2&#45;&gt;Node8</title>
<g id="a_edge10_Node000002_Node000008"><a xlink:title=" ">
<path fill="none" stroke="#63b8ff" d="M334.51,-219.62C344.04,-219.62 353.93,-219.62 363.75,-219.62"/>
<polygon fill="#63b8ff" stroke="#63b8ff" points="363.71,-223.13 373.71,-219.63 363.71,-216.13 363.71,-223.13"/>
</a>
</g>
</g>
<!-- Node3&#45;&gt;Node4 -->
<g id="edge3_Node000003_Node000004" class="edge">
<title>Node3&#45;&gt;Node4</title>
<g id="a_edge3_Node000003_Node000004"><a xlink:title=" ">
<path fill="none" stroke="#63b8ff" d="M513.8,-192.37C534.26,-197.92 557.47,-204.21 578.73,-209.97"/>
<polygon fill="#63b8ff" stroke="#63b8ff" points="577.62,-213.3 588.18,-212.54 579.45,-206.54 577.62,-213.3"/>
</a>
</g>
</g>
<!-- Node3&#45;&gt;Node5 -->
<g id="edge4_Node000003_Node000005" class="edge">
<title>Node3&#45;&gt;Node5</title>
<g id="a_edge4_Node000003_Node000005"><a xlink:title=" ">
<path fill="none" stroke="#63b8ff" d="M519.86,-192.26C524.85,-194.67 529.64,-197.44 534,-200.62 556.69,-217.22 548.69,-234.29 570,-252.62 581.2,-262.27 595.28,-270.12 608.35,-276.13"/>
<polygon fill="#63b8ff" stroke="#63b8ff" points="606.59,-279.18 617.15,-279.95 609.37,-272.76 606.59,-279.18"/>
</a>
</g>
</g>
<!-- Node3&#45;&gt;Node6 -->
<g id="edge5_Node000003_Node000006" class="edge">
<title>Node3&#45;&gt;Node6</title>
<g id="a_edge5_Node000003_Node000006"><a xlink:title=" ">
<path fill="none" stroke="#63b8ff" d="M523.89,-176.62C536.55,-176.62 549.91,-176.62 562.98,-176.62"/>
<polygon fill="#63b8ff" stroke="#63b8ff" points="562.86,-180.13 572.86,-176.63 562.86,-173.13 562.86,-180.13"/>
</a>
</g>
</g>
<!-- Node7&#45;&gt;Node4 -->
<g id="edge7_Node000007_Node000004" class="edge">
<title>Node7&#45;&gt;Node4</title>
<g id="a_edge7_Node000007_Node000004"><a xlink:title=" ">
<path fill="none" stroke="#63b8ff" d="M498.41,-284.88C509.97,-280.6 522.47,-275.95 534,-271.62 554.13,-264.08 576.25,-255.72 595.57,-248.39"/>
<polygon fill="#63b8ff" stroke="#63b8ff" points="596.76,-251.68 604.87,-244.86 594.28,-245.14 596.76,-251.68"/>
</a>
</g>
</g>
<!-- Node7&#45;&gt;Node5 -->
<g id="edge8_Node000007_Node000005" class="edge">
<title>Node7&#45;&gt;Node5</title>
<g id="a_edge8_Node000007_Node000005"><a xlink:title=" ">
<path fill="none" stroke="#63b8ff" d="M526.88,-296.92C541.09,-296.17 556.08,-295.39 570.48,-294.64"/>
<polygon fill="#63b8ff" stroke="#63b8ff" points="570.56,-298.14 580.37,-294.13 570.2,-291.15 570.56,-298.14"/>
</a>
</g>
</g>
<!-- Node7&#45;&gt;Node6 -->
<g id="edge9_Node000007_Node000006" class="edge">
<title>Node7&#45;&gt;Node6</title>
<g id="a_edge9_Node000007_Node000006"><a xlink:title=" ">
<path fill="none" stroke="#63b8ff" d="M476.41,-285.04C492.42,-272.78 515,-255.07 534,-238.62 550.64,-224.22 551.26,-216.16 570,-204.62 579.04,-199.06 589.34,-194.37 599.42,-190.52"/>
<polygon fill="#63b8ff" stroke="#63b8ff" points="600.54,-193.83 608.78,-187.17 598.18,-187.24 600.54,-193.83"/>
</a>
</g>
</g>
<!-- Node8&#45;&gt;Node4 -->
<g id="edge11_Node000008_Node000004" class="edge">
<title>Node8&#45;&gt;Node4</title>
<g id="a_edge11_Node000008_Node000004"><a xlink:title=" ">
<path fill="none" stroke="#63b8ff" d="M534.3,-223.31C542.24,-223.68 550.35,-224.07 558.39,-224.44"/>
<polygon fill="#63b8ff" stroke="#63b8ff" points="558.03,-227.93 568.19,-224.9 558.36,-220.94 558.03,-227.93"/>
</a>
</g>
</g>
<!-- Node8&#45;&gt;Node5 -->
<g id="edge12_Node000008_Node000005" class="edge">
<title>Node8&#45;&gt;Node5</title>
<g id="a_edge12_Node000008_Node000005"><a xlink:title=" ">
<path fill="none" stroke="#63b8ff" d="M482.82,-229.65C515.98,-241.93 572.37,-262.81 609.78,-276.66"/>
<polygon fill="#63b8ff" stroke="#63b8ff" points="608.25,-279.82 618.84,-280.01 610.68,-273.26 608.25,-279.82"/>
</a>
</g>
</g>
<!-- Node8&#45;&gt;Node6 -->
<g id="edge13_Node000008_Node000006" class="edge">
<title>Node8&#45;&gt;Node6</title>
<g id="a_edge13_Node000008_Node000006"><a xlink:title=" ">
<path fill="none" stroke="#63b8ff" d="M500.71,-209.54C527.78,-203.47 562.47,-195.69 591.34,-189.22"/>
<polygon fill="#63b8ff" stroke="#63b8ff" points="592.02,-192.65 601.02,-187.05 590.49,-185.82 592.02,-192.65"/>
</a>
</g>
</g>
<!-- Node10 -->
<g id="Node000010" class="node">
<title>Node10</title>
<g id="a_Node000010"><a xlink:href="namespace_nuki_lock.html#af6ebff0f8c6c0cb27a927a440812c02a" target="_top" xlink:title=" ">
<polygon fill="white" stroke="#666666" points="519.75,-62.25 389.75,-62.25 389.75,-43 519.75,-43 519.75,-62.25"/>
<text text-anchor="middle" x="454.75" y="-48.75" font-family="Helvetica,sans-Serif" font-size="10.00">NukiLock::logMessageVar</text>
</a>
</g>
</g>
<!-- Node9&#45;&gt;Node10 -->
<g id="edge19_Node000009_Node000010" class="edge">
<title>Node9&#45;&gt;Node10</title>
<g id="a_edge19_Node000009_Node000010"><a xlink:title=" ">
<path fill="none" stroke="#63b8ff" d="M339.92,-52.62C352.46,-52.62 365.47,-52.62 378.02,-52.62"/>
<polygon fill="#63b8ff" stroke="#63b8ff" points="377.87,-56.13 387.87,-52.63 377.87,-49.13 377.87,-56.13"/>
</a>
</g>
</g>
</g>
</svg>
