<?xml version="1.0" encoding="UTF-8" standalone="no"?>
<!DOCTYPE svg PUBLIC "-//W3C//DTD SVG 1.1//EN"
 "http://www.w3.org/Graphics/SVG/1.1/DTD/svg11.dtd">
<!-- Generated by graphviz version 11.0.0 (20240428.1522)
 -->
<!-- Title: Nuki::NukiBle::retrieveAuthorizationEntries Pages: 1 -->
<svg width="548pt" height="174pt"
 viewBox="0.00 0.00 548.00 173.50" xmlns="http://www.w3.org/2000/svg" xmlns:xlink="http://www.w3.org/1999/xlink">
<g id="graph0" class="graph" transform="scale(1 1) rotate(0) translate(4 169.5)">
<title>Nuki::NukiBle::retrieveAuthorizationEntries</title>
<!-- Node1 -->
<g id="Node000001" class="node">
<title>Node1</title>
<g id="a_Node000001"><a xlink:title="Request the lock via BLE to send the existing authorizationentries.">
<polygon fill="#999999" stroke="#666666" points="168.25,-94.5 0,-94.5 0,-64 168.25,-64 168.25,-94.5"/>
<text text-anchor="start" x="8" y="-81" font-family="Helvetica,sans-Serif" font-size="10.00">Nuki::NukiBle::retrieveAuthorization</text>
<text text-anchor="middle" x="84.12" y="-69.75" font-family="Helvetica,sans-Serif" font-size="10.00">Entries</text>
</a>
</g>
</g>
<!-- Node2 -->
<g id="Node000002" class="node">
<title>Node2</title>
<g id="a_Node000002"><a xlink:href="class_nuki_1_1_nuki_ble.html#af1f1e299e8d97e053bba80e92ba285d6" target="_top" xlink:title=" ">
<polygon fill="white" stroke="#666666" points="345.5,-88.88 204.25,-88.88 204.25,-69.62 345.5,-69.62 345.5,-88.88"/>
<text text-anchor="middle" x="274.88" y="-75.38" font-family="Helvetica,sans-Serif" font-size="10.00">Nuki::NukiBle::executeAction</text>
</a>
</g>
</g>
<!-- Node1&#45;&gt;Node2 -->
<g id="edge1_Node000001_Node000002" class="edge">
<title>Node1&#45;&gt;Node2</title>
<g id="a_edge1_Node000001_Node000002"><a xlink:title=" ">
<path fill="none" stroke="#63b8ff" d="M168.74,-79.25C176.62,-79.25 184.61,-79.25 192.47,-79.25"/>
<polygon fill="#63b8ff" stroke="#63b8ff" points="192.36,-82.75 202.36,-79.25 192.36,-75.75 192.36,-82.75"/>
</a>
</g>
</g>
<!-- Node3 -->
<g id="Node000003" class="node">
<title>Node3</title>
<g id="a_Node000003"><a xlink:href="class_nuki_1_1_nuki_ble.html#ada0f3beebd95d35c122e25dd3f9eb886" target="_top" xlink:title=" ">
<polygon fill="white" stroke="#666666" points="529.5,-165.5 392,-165.5 392,-135 529.5,-135 529.5,-165.5"/>
<text text-anchor="start" x="400" y="-152" font-family="Helvetica,sans-Serif" font-size="10.00">Nuki::NukiBle::cmdChallAcc</text>
<text text-anchor="middle" x="460.75" y="-140.75" font-family="Helvetica,sans-Serif" font-size="10.00">StateMachine</text>
</a>
</g>
</g>
<!-- Node2&#45;&gt;Node3 -->
<g id="edge2_Node000002_Node000003" class="edge">
<title>Node2&#45;&gt;Node3</title>
<g id="a_edge2_Node000002_Node000003"><a xlink:title=" ">
<path fill="none" stroke="#63b8ff" d="M297.06,-89.23C318.2,-99.02 351.74,-114.05 381.5,-125.25 386.71,-127.21 392.14,-129.15 397.62,-131.04"/>
<polygon fill="#63b8ff" stroke="#63b8ff" points="396.11,-134.22 406.71,-134.1 398.35,-127.59 396.11,-134.22"/>
</a>
</g>
</g>
<!-- Node4 -->
<g id="Node000004" class="node">
<title>Node4</title>
<g id="a_Node000004"><a xlink:href="class_nuki_1_1_nuki_ble.html#a59169a9f492793762e3c6ba39b611b07" target="_top" xlink:title=" ">
<polygon fill="white" stroke="#666666" points="532.5,-116.5 389,-116.5 389,-86 532.5,-86 532.5,-116.5"/>
<text text-anchor="start" x="397" y="-103" font-family="Helvetica,sans-Serif" font-size="10.00">Nuki::NukiBle::cmdChallState</text>
<text text-anchor="middle" x="460.75" y="-91.75" font-family="Helvetica,sans-Serif" font-size="10.00">Machine</text>
</a>
</g>
</g>
<!-- Node2&#45;&gt;Node4 -->
<g id="edge3_Node000002_Node000004" class="edge">
<title>Node2&#45;&gt;Node4</title>
<g id="a_edge3_Node000002_Node000004"><a xlink:title=" ">
<path fill="none" stroke="#63b8ff" d="M345.91,-87.63C356.2,-88.86 366.87,-90.14 377.38,-91.39"/>
<polygon fill="#63b8ff" stroke="#63b8ff" points="376.84,-94.85 387.18,-92.57 377.67,-87.9 376.84,-94.85"/>
</a>
</g>
</g>
<!-- Node5 -->
<g id="Node000005" class="node">
<title>Node5</title>
<g id="a_Node000005"><a xlink:href="class_nuki_1_1_nuki_ble.html#ad135bb1455665decfddff67772c1d411" target="_top" xlink:title=" ">
<polygon fill="white" stroke="#666666" points="540,-67.88 381.5,-67.88 381.5,-48.62 540,-48.62 540,-67.88"/>
<text text-anchor="middle" x="460.75" y="-54.38" font-family="Helvetica,sans-Serif" font-size="10.00">Nuki::NukiBle::cmdStateMachine</text>
</a>
</g>
</g>
<!-- Node2&#45;&gt;Node5 -->
<g id="edge4_Node000002_Node000005" class="edge">
<title>Node2&#45;&gt;Node5</title>
<g id="a_edge4_Node000002_Node000005"><a xlink:title=" ">
<path fill="none" stroke="#63b8ff" d="M345.91,-71.25C353.78,-70.35 361.87,-69.43 369.94,-68.51"/>
<polygon fill="#63b8ff" stroke="#63b8ff" points="370.26,-71.99 379.8,-67.38 369.47,-65.04 370.26,-71.99"/>
</a>
</g>
</g>
<!-- Node6 -->
<g id="Node000006" class="node">
<title>Node6</title>
<g id="a_Node000006"><a xlink:href="class_nuki_1_1_nuki_ble.html#a6e8fca90c04249660dce6cb993eb4495" target="_top" xlink:title=" ">
<polygon fill="white" stroke="#666666" points="539.25,-30.5 382.25,-30.5 382.25,0 539.25,0 539.25,-30.5"/>
<text text-anchor="start" x="390.25" y="-17" font-family="Helvetica,sans-Serif" font-size="10.00">Nuki::NukiBle::extendDisconnect</text>
<text text-anchor="middle" x="460.75" y="-5.75" font-family="Helvetica,sans-Serif" font-size="10.00">Timeout</text>
</a>
</g>
</g>
<!-- Node2&#45;&gt;Node6 -->
<g id="edge5_Node000002_Node000006" class="edge">
<title>Node2&#45;&gt;Node6</title>
<g id="a_edge5_Node000002_Node000006"><a xlink:title=" ">
<path fill="none" stroke="#63b8ff" d="M300.89,-69.25C322.19,-60.87 353.67,-48.78 381.5,-39.25 386.24,-37.63 391.16,-36 396.12,-34.39"/>
<polygon fill="#63b8ff" stroke="#63b8ff" points="397.08,-37.76 405.54,-31.38 394.95,-31.09 397.08,-37.76"/>
</a>
</g>
</g>
</g>
</svg>
