<?xml version="1.0" encoding="UTF-8" standalone="no"?>
<!DOCTYPE svg PUBLIC "-//W3C//DTD SVG 1.1//EN"
 "http://www.w3.org/Graphics/SVG/1.1/DTD/svg11.dtd">
<!-- Generated by graphviz version 7.0.3 (20221126.0506)
 -->
<!-- Title: NukiOpener::NukiOpener::handleReturnMessage Pages: 1 -->
<svg width="497pt" height="273pt"
 viewBox="0.00 0.00 497.00 272.50" xmlns="http://www.w3.org/2000/svg" xmlns:xlink="http://www.w3.org/1999/xlink">
<g id="graph0" class="graph" transform="scale(1 1) rotate(0) translate(4 268.5)">
<title>NukiOpener::NukiOpener::handleReturnMessage</title>
<!-- Node1 -->
<g id="node1" class="node">
<title>Node1</title>
<g id="a_node1"><a xlink:title=" ">
<polygon fill="#999999" stroke="#666666" points="125,-147.5 0,-147.5 0,-117.5 125,-117.5 125,-147.5"/>
<text text-anchor="start" x="8" y="-135.5" font-family="Helvetica,sans-Serif" font-size="10.00">NukiOpener::NukiOpener</text>
<text text-anchor="middle" x="62.5" y="-124.5" font-family="Helvetica,sans-Serif" font-size="10.00">::handleReturnMessage</text>
</a>
</g>
</g>
<!-- Node2 -->
<g id="node2" class="node">
<title>Node2</title>
<g id="a_node2"><a xlink:href="class_nuki_1_1_nuki_ble.html#ac2e28f07ed0a738f73c5f77b46cdb1bb" target="_top" xlink:title=" ">
<polygon fill="white" stroke="#666666" points="307.5,-264.5 170.5,-264.5 170.5,-234.5 307.5,-234.5 307.5,-264.5"/>
<text text-anchor="start" x="178.5" y="-252.5" font-family="Helvetica,sans-Serif" font-size="10.00">Nuki::NukiBle::handleReturn</text>
<text text-anchor="middle" x="239" y="-241.5" font-family="Helvetica,sans-Serif" font-size="10.00">Message</text>
</a>
</g>
</g>
<!-- Node1&#45;&gt;Node2 -->
<g id="edge1" class="edge">
<title>Node1&#45;&gt;Node2</title>
<path fill="none" stroke="#63b8ff" d="M75.72,-147.95C92.74,-168.49 125.52,-204.62 161,-225.5 163.43,-226.93 165.95,-228.28 168.54,-229.56"/>
<polygon fill="#63b8ff" stroke="#63b8ff" points="166.83,-232.63 177.39,-233.52 169.69,-226.24 166.83,-232.63"/>
</g>
<!-- Node3 -->
<g id="node3" class="node">
<title>Node3</title>
<g id="a_node3"><a xlink:href="namespace_nuki_opener.html#a5df6b087b417e58c5c7a085a7f97fa63" target="_top" xlink:title=" ">
<polygon fill="white" stroke="#666666" points="317,-216 161,-216 161,-197 317,-197 317,-216"/>
<text text-anchor="middle" x="239" y="-204" font-family="Helvetica,sans-Serif" font-size="10.00">NukiOpener::logAdvancedConfig</text>
</a>
</g>
</g>
<!-- Node1&#45;&gt;Node3 -->
<g id="edge2" class="edge">
<title>Node1&#45;&gt;Node3</title>
<path fill="none" stroke="#63b8ff" d="M85.79,-147.83C104.97,-160.38 133.76,-177.76 161,-188.5 165.58,-190.3 170.38,-191.96 175.26,-193.46"/>
<polygon fill="#63b8ff" stroke="#63b8ff" points="173.97,-196.73 184.55,-196.12 175.9,-190 173.97,-196.73"/>
</g>
<!-- Node4 -->
<g id="node4" class="node">
<title>Node4</title>
<g id="a_node4"><a xlink:href="namespace_nuki_opener.html#a92b38c2119f39bf1c525b70cb49d3232" target="_top" xlink:title=" ">
<polygon fill="white" stroke="#666666" points="311.5,-179 166.5,-179 166.5,-160 311.5,-160 311.5,-179"/>
<text text-anchor="middle" x="239" y="-167" font-family="Helvetica,sans-Serif" font-size="10.00">NukiOpener::logBatteryReport</text>
</a>
</g>
</g>
<!-- Node1&#45;&gt;Node4 -->
<g id="edge3" class="edge">
<title>Node1&#45;&gt;Node4</title>
<path fill="none" stroke="#63b8ff" d="M125.02,-145.54C142.9,-149.33 162.35,-153.46 180,-157.2"/>
<polygon fill="#63b8ff" stroke="#63b8ff" points="179.02,-160.57 189.53,-159.22 180.48,-153.73 179.02,-160.57"/>
</g>
<!-- Node5 -->
<g id="node5" class="node">
<title>Node5</title>
<g id="a_node5"><a xlink:href="namespace_nuki_opener.html#a01fb60e0e360c42ad366aef691d5a390" target="_top" xlink:title=" ">
<polygon fill="white" stroke="#666666" points="295.5,-142 182.5,-142 182.5,-123 295.5,-123 295.5,-142"/>
<text text-anchor="middle" x="239" y="-130" font-family="Helvetica,sans-Serif" font-size="10.00">NukiOpener::logConfig</text>
</a>
</g>
</g>
<!-- Node1&#45;&gt;Node5 -->
<g id="edge4" class="edge">
<title>Node1&#45;&gt;Node5</title>
<path fill="none" stroke="#63b8ff" d="M125.02,-132.5C139.88,-132.5 155.83,-132.5 170.93,-132.5"/>
<polygon fill="#63b8ff" stroke="#63b8ff" points="170.76,-136 180.76,-132.5 170.76,-129 170.76,-136"/>
</g>
<!-- Node6 -->
<g id="node6" class="node">
<title>Node6</title>
<g id="a_node6"><a xlink:href="namespace_nuki_opener.html#ad694b05ff6125ebf77e067be3002d075" target="_top" xlink:title=" ">
<polygon fill="white" stroke="#666666" points="302.5,-67.5 175.5,-67.5 175.5,-37.5 302.5,-37.5 302.5,-67.5"/>
<text text-anchor="start" x="183.5" y="-55.5" font-family="Helvetica,sans-Serif" font-size="10.00">NukiOpener::logKeyturner</text>
<text text-anchor="middle" x="239" y="-44.5" font-family="Helvetica,sans-Serif" font-size="10.00">State</text>
</a>
</g>
</g>
<!-- Node1&#45;&gt;Node6 -->
<g id="edge5" class="edge">
<title>Node1&#45;&gt;Node6</title>
<path fill="none" stroke="#63b8ff" d="M87.64,-117.08C106.96,-105.19 135.02,-88.91 161,-77.5 165.54,-75.51 170.29,-73.59 175.1,-71.76"/>
<polygon fill="#63b8ff" stroke="#63b8ff" points="176.07,-75.14 184.27,-68.43 173.68,-68.56 176.07,-75.14"/>
</g>
<!-- Node10 -->
<g id="node10" class="node">
<title>Node10</title>
<g id="a_node10"><a xlink:href="namespace_nuki_opener.html#a1c24f78474980cc2d90ee83e371621c4" target="_top" xlink:title=" ">
<polygon fill="white" stroke="#666666" points="301,-105 177,-105 177,-86 301,-86 301,-105"/>
<text text-anchor="middle" x="239" y="-93" font-family="Helvetica,sans-Serif" font-size="10.00">NukiOpener::logLogEntry</text>
</a>
</g>
</g>
<!-- Node1&#45;&gt;Node10 -->
<g id="edge9" class="edge">
<title>Node1&#45;&gt;Node10</title>
<path fill="none" stroke="#63b8ff" d="M125.02,-119.46C142.9,-115.67 162.35,-111.54 180,-107.8"/>
<polygon fill="#63b8ff" stroke="#63b8ff" points="180.48,-111.27 189.53,-105.78 179.02,-104.43 180.48,-111.27"/>
</g>
<!-- Node11 -->
<g id="node11" class="node">
<title>Node11</title>
<g id="a_node11"><a xlink:href="namespace_nuki.html#a280e19d4682ca4b35d3fe64001da816a" target="_top" xlink:title=" ">
<polygon fill="white" stroke="#666666" points="282,-19 196,-19 196,0 282,0 282,-19"/>
<text text-anchor="middle" x="239" y="-7" font-family="Helvetica,sans-Serif" font-size="10.00">Nuki::printBuffer</text>
</a>
</g>
</g>
<!-- Node1&#45;&gt;Node11 -->
<g id="edge12" class="edge">
<title>Node1&#45;&gt;Node11</title>
<path fill="none" stroke="#63b8ff" d="M73.49,-117.16C89.25,-94.22 122.13,-51.26 161,-28.5 168.27,-24.24 176.46,-20.93 184.72,-18.37"/>
<polygon fill="#63b8ff" stroke="#63b8ff" points="185.37,-21.82 194.09,-15.8 183.52,-15.07 185.37,-21.82"/>
</g>
<!-- Node7 -->
<g id="node7" class="node">
<title>Node7</title>
<g id="a_node7"><a xlink:href="namespace_nuki_opener.html#a84631e75b3f180ead51e1a292fcee637" target="_top" xlink:title=" ">
<polygon fill="white" stroke="#666666" points="488,-67.5 354,-67.5 354,-37.5 488,-37.5 488,-67.5"/>
<text text-anchor="start" x="362" y="-55.5" font-family="Helvetica,sans-Serif" font-size="10.00">NukiOpener::logCompletion</text>
<text text-anchor="middle" x="421" y="-44.5" font-family="Helvetica,sans-Serif" font-size="10.00">Status</text>
</a>
</g>
</g>
<!-- Node6&#45;&gt;Node7 -->
<g id="edge6" class="edge">
<title>Node6&#45;&gt;Node7</title>
<path fill="none" stroke="#63b8ff" d="M302.96,-52.5C315.66,-52.5 329.15,-52.5 342.29,-52.5"/>
<polygon fill="#63b8ff" stroke="#63b8ff" points="342.2,-56 352.2,-52.5 342.2,-49 342.2,-56"/>
</g>
<!-- Node8 -->
<g id="node8" class="node">
<title>Node8</title>
<g id="a_node8"><a xlink:href="namespace_nuki_opener.html#ab25308954cb451d83358353032200422" target="_top" xlink:title=" ">
<polygon fill="white" stroke="#666666" points="488.5,-105 353.5,-105 353.5,-86 488.5,-86 488.5,-105"/>
<text text-anchor="middle" x="421" y="-93" font-family="Helvetica,sans-Serif" font-size="10.00">NukiOpener::logLockAction</text>
</a>
</g>
</g>
<!-- Node6&#45;&gt;Node8 -->
<g id="edge7" class="edge">
<title>Node6&#45;&gt;Node8</title>
<path fill="none" stroke="#63b8ff" d="M302.96,-67.54C323.9,-72.54 347,-78.06 367.11,-82.86"/>
<polygon fill="#63b8ff" stroke="#63b8ff" points="366.23,-86.25 376.77,-85.17 367.86,-79.45 366.23,-86.25"/>
</g>
<!-- Node9 -->
<g id="node9" class="node">
<title>Node9</title>
<g id="a_node9"><a xlink:href="namespace_nuki_opener.html#a9915ff097023a69e5792e791336bfcd6" target="_top" xlink:title=" ">
<polygon fill="white" stroke="#666666" points="489,-19 353,-19 353,0 489,0 489,-19"/>
<text text-anchor="middle" x="421" y="-7" font-family="Helvetica,sans-Serif" font-size="10.00">NukiOpener::logNukiTrigger</text>
</a>
</g>
</g>
<!-- Node6&#45;&gt;Node9 -->
<g id="edge8" class="edge">
<title>Node6&#45;&gt;Node9</title>
<path fill="none" stroke="#63b8ff" d="M302.96,-37.46C323.9,-32.46 347,-26.94 367.11,-22.14"/>
<polygon fill="#63b8ff" stroke="#63b8ff" points="367.86,-25.55 376.77,-19.83 366.23,-18.75 367.86,-25.55"/>
</g>
<!-- Node10&#45;&gt;Node7 -->
<g id="edge10" class="edge">
<title>Node10&#45;&gt;Node7</title>
<path fill="none" stroke="#63b8ff" d="M281.75,-85.53C300.32,-81.09 322.78,-75.72 344.16,-70.62"/>
<polygon fill="#63b8ff" stroke="#63b8ff" points="344.82,-74.06 353.73,-68.33 343.19,-67.25 344.82,-74.06"/>
</g>
<!-- Node10&#45;&gt;Node8 -->
<g id="edge11" class="edge">
<title>Node10&#45;&gt;Node8</title>
<path fill="none" stroke="#63b8ff" d="M301.44,-95.5C314.49,-95.5 328.43,-95.5 342.01,-95.5"/>
<polygon fill="#63b8ff" stroke="#63b8ff" points="341.78,-99 351.78,-95.5 341.78,-92 341.78,-99"/>
</g>
</g>
</svg>
