<?xml version="1.0" encoding="UTF-8" standalone="no"?>
<!DOCTYPE svg PUBLIC "-//W3C//DTD SVG 1.1//EN"
 "http://www.w3.org/Graphics/SVG/1.1/DTD/svg11.dtd">
<!-- Generated by graphviz version 12.2.1 (20241206.2353)
 -->
<!-- Title: NukiOpener::NukiOpener::setSoundRto Pages: 1 -->
<!--zoomable 263 -->

<svg id="main" version="1.1" xmlns="http://www.w3.org/2000/svg" xmlns:xlink="http://www.w3.org/1999/xlink" xml:space="preserve" onload="init(evt)">

<style type="text/css"><![CDATA[
.node, .edge {opacity: 0.7;}
.node.selected, .edge.selected {opacity: 1;}
.edge:hover path { stroke: red; }
.edge:hover polygon { stroke: red; fill: red; }
]]></style>

<defs>
  <circle id="rim" cx="0" cy="0" r="7"/>
  <circle id="rim2" cx="0" cy="0" r="3.5"/>
  <g id="zoomPlus">
    <use xlink:href="#rim" fill="#404040"><set attributeName="fill" to="#808080" begin="zoomplus.mouseover" end="zoomplus.mouseout"/></use>
    <path d="M-4,0h8M0,-4v8" fill="none" stroke="white" stroke-width="1.5" pointer-events="none"/>
  </g>
  <g id="zoomMin">
    <use xlink:href="#rim" fill="#404040"><set attributeName="fill" to="#808080" begin="zoomminus.mouseover" end="zoomminus.mouseout"/></use>
    <path d="M-4,0h8" fill="none" stroke="white" stroke-width="1.5" pointer-events="none"/>
  </g>
  <g id="arrowUp" transform="translate(30 24)">
    <use xlink:href="#rim"/>
    <path pointer-events="none" fill="none" stroke="white" stroke-width="1.5" d="M0,-3.0v7 M-2.5,-0.5L0,-3.0L2.5,-0.5"/>
  </g>
  <g id="arrowRight" transform="rotate(90) translate(36 -43)">
    <use xlink:href="#rim"/>
    <path pointer-events="none" fill="none" stroke="white" stroke-width="1.5" d="M0,-3.0v7 M-2.5,-0.5L0,-3.0L2.5,-0.5"/>
  </g>
  <g id="arrowDown" transform="rotate(180) translate(-30 -48)">
    <use xlink:href="#rim"/>
    <path pointer-events="none" fill="none" stroke="white" stroke-width="1.5" d="M0,-3.0v7 M-2.5,-0.5L0,-3.0L2.5,-0.5"/>
  </g>
  <g id="arrowLeft" transform="rotate(270) translate(-36 17)">
    <use xlink:href="#rim"/>
    <path pointer-events="none" fill="none" stroke="white" stroke-width="1.5" d="M0,-3.0v7 M-2.5,-0.5L0,-3.0L2.5,-0.5"/>
  </g>
  <g id="resetDef">
    <use xlink:href="#rim2" fill="#404040"><set attributeName="fill" to="#808080" begin="reset.mouseover" end="reset.mouseout"/></use>
  </g>
</defs>
<script type="application/ecmascript">
var viewWidth = 857;
var viewHeight = 263;
var sectionId = 'dynsection-46';
</script>
<script type="application/ecmascript" xlink:href="svg.min.js"/>
<svg id="graph" class="graph">
<g id="viewport">
<title>NukiOpener::NukiOpener::setSoundRto</title>
<!-- Node1 -->
<g id="Node000001" class="node">
<title>Node1</title>
<g id="a_Node000001"><a xlink:title="Gets the current config from the opener, updates the sound RTO parameter and sends the new config to ...">
<polygon fill="#999999" stroke="#666666" points="124,-148.88 0,-148.88 0,-118.38 124,-118.38 124,-148.88"/>
<text text-anchor="start" x="8" y="-135.38" font-family="Helvetica,sans-Serif" font-size="10.00">NukiOpener::NukiOpener</text>
<text text-anchor="middle" x="62" y="-124.12" font-family="Helvetica,sans-Serif" font-size="10.00">::setSoundRto</text>
</a>
</g>
</g>
<!-- Node2 -->
<g id="Node000002" class="node">
<title>Node2</title>
<g id="a_Node000002"><a xlink:href="class_nuki_opener_1_1_nuki_opener.html#adf50e8b8e35409d8aa43de69c43535b5" target="_top" xlink:title="Requests advanced config from Opener via BLE.">
<polygon fill="white" stroke="#666666" points="284,-148.88 160,-148.88 160,-118.38 284,-118.38 284,-148.88"/>
<text text-anchor="start" x="168" y="-135.38" font-family="Helvetica,sans-Serif" font-size="10.00">NukiOpener::NukiOpener</text>
<text text-anchor="middle" x="222" y="-124.12" font-family="Helvetica,sans-Serif" font-size="10.00">::requestAdvancedConfig</text>
</a>
</g>
</g>
<!-- Node1&#45;&gt;Node2 -->
<g id="edge1_Node000001_Node000002" class="edge">
<title>Node1&#45;&gt;Node2</title>
<g id="a_edge1_Node000001_Node000002"><a xlink:title=" ">
<path fill="none" stroke="#63b8ff" d="M124.09,-133.62C132,-133.62 140.16,-133.62 148.23,-133.62"/>
<polygon fill="#63b8ff" stroke="#63b8ff" points="148.04,-137.13 158.04,-133.63 148.04,-130.13 148.04,-137.13"/>
</a>
</g>
</g>
<!-- Node3 -->
<g id="Node000003" class="node">
<title>Node3</title>
<g id="a_Node000003"><a xlink:href="class_nuki_1_1_nuki_ble.html#af1f1e299e8d97e053bba80e92ba285d6" target="_top" xlink:title=" ">
<polygon fill="white" stroke="#666666" points="461.25,-143.25 320,-143.25 320,-124 461.25,-124 461.25,-143.25"/>
<text text-anchor="middle" x="390.62" y="-129.75" font-family="Helvetica,sans-Serif" font-size="10.00">Nuki::NukiBle::executeAction</text>
</a>
</g>
</g>
<!-- Node2&#45;&gt;Node3 -->
<g id="edge2_Node000002_Node000003" class="edge">
<title>Node2&#45;&gt;Node3</title>
<g id="a_edge2_Node000002_Node000003"><a xlink:title=" ">
<path fill="none" stroke="#63b8ff" d="M284.1,-133.62C291.93,-133.62 300.04,-133.62 308.12,-133.62"/>
<polygon fill="#63b8ff" stroke="#63b8ff" points="308,-137.13 318,-133.63 308,-130.13 308,-137.13"/>
</a>
</g>
</g>
<!-- Node4 -->
<g id="Node000004" class="node">
<title>Node4</title>
<g id="a_Node000004"><a xlink:href="class_nuki_1_1_nuki_ble.html#ada0f3beebd95d35c122e25dd3f9eb886" target="_top" xlink:title=" ">
<polygon fill="white" stroke="#666666" points="645.25,-191.88 507.75,-191.88 507.75,-161.38 645.25,-161.38 645.25,-191.88"/>
<text text-anchor="start" x="515.75" y="-178.38" font-family="Helvetica,sans-Serif" font-size="10.00">Nuki::NukiBle::cmdChallAcc</text>
<text text-anchor="middle" x="576.5" y="-167.12" font-family="Helvetica,sans-Serif" font-size="10.00">StateMachine</text>
</a>
</g>
</g>
<!-- Node3&#45;&gt;Node4 -->
<g id="edge3_Node000003_Node000004" class="edge">
<title>Node3&#45;&gt;Node4</title>
<g id="a_edge3_Node000003_Node000004"><a xlink:title=" ">
<path fill="none" stroke="#63b8ff" d="M434.74,-143.71C453.36,-148.06 475.74,-153.3 497.13,-158.3"/>
<polygon fill="#63b8ff" stroke="#63b8ff" points="496.18,-161.67 506.72,-160.54 497.78,-154.85 496.18,-161.67"/>
</a>
</g>
</g>
<!-- Node5 -->
<g id="Node000005" class="node">
<title>Node5</title>
<g id="a_Node000005"><a xlink:href="class_nuki_1_1_nuki_ble.html#a6e8fca90c04249660dce6cb993eb4495" target="_top" xlink:title=" ">
<polygon fill="white" stroke="#666666" points="848.75,-189.88 691.75,-189.88 691.75,-159.38 848.75,-159.38 848.75,-189.88"/>
<text text-anchor="start" x="699.75" y="-176.38" font-family="Helvetica,sans-Serif" font-size="10.00">Nuki::NukiBle::extendDisconnect</text>
<text text-anchor="middle" x="770.25" y="-165.12" font-family="Helvetica,sans-Serif" font-size="10.00">Timeout</text>
</a>
</g>
</g>
<!-- Node3&#45;&gt;Node5 -->
<g id="edge16_Node000003_Node000005" class="edge">
<title>Node3&#45;&gt;Node5</title>
<g id="a_edge16_Node000003_Node000005"><a xlink:title=" ">
<path fill="none" stroke="#63b8ff" d="M461.65,-136.38C515.02,-139.03 590.23,-143.95 655.75,-152.62 664.9,-153.84 674.43,-155.32 683.9,-156.95"/>
<polygon fill="#63b8ff" stroke="#63b8ff" points="683.03,-160.35 693.48,-158.64 684.25,-153.45 683.03,-160.35"/>
</a>
</g>
</g>
<!-- Node6 -->
<g id="Node000006" class="node">
<title>Node6</title>
<g id="a_Node000006"><a xlink:href="class_nuki_1_1_nuki_ble.html#ac7ce691d9c3e586474655d1663eb2e20" target="_top" xlink:title=" ">
<polygon fill="white" stroke="#666666" points="836.38,-228.25 704.12,-228.25 704.12,-209 836.38,-209 836.38,-228.25"/>
<text text-anchor="middle" x="770.25" y="-214.75" font-family="Helvetica,sans-Serif" font-size="10.00">Nuki::NukiBle::logMessage</text>
</a>
</g>
</g>
<!-- Node3&#45;&gt;Node6 -->
<g id="edge18_Node000003_Node000006" class="edge">
<title>Node3&#45;&gt;Node6</title>
<g id="a_edge18_Node000003_Node000006"><a xlink:title=" ">
<path fill="none" stroke="#63b8ff" d="M397.71,-143.67C411.87,-165.91 449.44,-218.91 497.25,-238.62 575.1,-270.74 676.06,-248.58 730.45,-232.06"/>
<polygon fill="#63b8ff" stroke="#63b8ff" points="731.39,-235.43 739.88,-229.09 729.29,-228.75 731.39,-235.43"/>
</a>
</g>
</g>
<!-- Node7 -->
<g id="Node000007" class="node">
<title>Node7</title>
<g id="a_Node000007"><a xlink:href="class_nuki_1_1_nuki_ble.html#af3650133f46aeca48a5f01b95d23ab71" target="_top" xlink:title=" ">
<polygon fill="white" stroke="#666666" points="843.88,-140.25 696.62,-140.25 696.62,-121 843.88,-121 843.88,-140.25"/>
<text text-anchor="middle" x="770.25" y="-126.75" font-family="Helvetica,sans-Serif" font-size="10.00">Nuki::NukiBle::logMessageVar</text>
</a>
</g>
</g>
<!-- Node3&#45;&gt;Node7 -->
<g id="edge19_Node000003_Node000007" class="edge">
<title>Node3&#45;&gt;Node7</title>
<g id="a_edge19_Node000003_Node000007"><a xlink:title=" ">
<path fill="none" stroke="#63b8ff" d="M402.59,-123.61C420.69,-107.83 458.67,-77.83 497.25,-66.62 564.9,-46.98 591.92,-36.82 655.75,-66.62 678.33,-77.17 670.76,-96.19 691.75,-109.62 695.78,-112.2 700.12,-114.47 704.62,-116.46"/>
<polygon fill="#63b8ff" stroke="#63b8ff" points="703.32,-119.71 713.91,-120.06 705.86,-113.18 703.32,-119.71"/>
</a>
</g>
</g>
<!-- Node8 -->
<g id="Node000008" class="node">
<title>Node8</title>
<g id="a_Node000008"><a xlink:href="class_nuki_1_1_nuki_ble.html#a59169a9f492793762e3c6ba39b611b07" target="_top" xlink:title=" ">
<polygon fill="white" stroke="#666666" points="648.25,-105.88 504.75,-105.88 504.75,-75.38 648.25,-75.38 648.25,-105.88"/>
<text text-anchor="start" x="512.75" y="-92.38" font-family="Helvetica,sans-Serif" font-size="10.00">Nuki::NukiBle::cmdChallState</text>
<text text-anchor="middle" x="576.5" y="-81.12" font-family="Helvetica,sans-Serif" font-size="10.00">Machine</text>
</a>
</g>
</g>
<!-- Node3&#45;&gt;Node8 -->
<g id="edge7_Node000003_Node000008" class="edge">
<title>Node3&#45;&gt;Node8</title>
<g id="a_edge7_Node000003_Node000008"><a xlink:title=" ">
<path fill="none" stroke="#63b8ff" d="M434.74,-123.54C453.36,-119.19 475.74,-113.95 497.13,-108.95"/>
<polygon fill="#63b8ff" stroke="#63b8ff" points="497.78,-112.4 506.72,-106.71 496.18,-105.58 497.78,-112.4"/>
</a>
</g>
</g>
<!-- Node10 -->
<g id="Node000010" class="node">
<title>Node10</title>
<g id="a_Node000010"><a xlink:href="class_nuki_1_1_nuki_ble.html#ad135bb1455665decfddff67772c1d411" target="_top" xlink:title=" ">
<polygon fill="white" stroke="#666666" points="655.75,-229.25 497.25,-229.25 497.25,-210 655.75,-210 655.75,-229.25"/>
<text text-anchor="middle" x="576.5" y="-215.75" font-family="Helvetica,sans-Serif" font-size="10.00">Nuki::NukiBle::cmdStateMachine</text>
</a>
</g>
</g>
<!-- Node3&#45;&gt;Node10 -->
<g id="edge12_Node000003_Node000010" class="edge">
<title>Node3&#45;&gt;Node10</title>
<g id="a_edge12_Node000003_Node000010"><a xlink:title=" ">
<path fill="none" stroke="#63b8ff" d="M404.2,-143.55C423.25,-158.13 461.07,-185.26 497.25,-200.62 502.22,-202.73 507.46,-204.64 512.79,-206.35"/>
<polygon fill="#63b8ff" stroke="#63b8ff" points="511.76,-209.7 522.34,-209.18 513.74,-202.99 511.76,-209.7"/>
</a>
</g>
</g>
<!-- Node11 -->
<g id="Node000011" class="node">
<title>Node11</title>
<g id="a_Node000011"><a xlink:href="class_nuki_1_1_nuki_ble.html#a050f54fbfcea03dc5238e8c66a7e89ca" target="_top" xlink:title="Returns pairing state (if credentials are stored or not)">
<polygon fill="white" stroke="#666666" points="654.62,-19.25 498.38,-19.25 498.38,0 654.62,0 654.62,-19.25"/>
<text text-anchor="middle" x="576.5" y="-5.75" font-family="Helvetica,sans-Serif" font-size="10.00">Nuki::NukiBle::isPairedWithLock</text>
</a>
</g>
</g>
<!-- Node3&#45;&gt;Node11 -->
<g id="edge17_Node000003_Node000011" class="edge">
<title>Node3&#45;&gt;Node11</title>
<g id="a_edge17_Node000003_Node000011"><a xlink:title=" ">
<path fill="none" stroke="#63b8ff" d="M399.51,-123.52C415.69,-103.47 454.71,-58.43 497.25,-33.62 504.09,-29.64 511.66,-26.25 519.32,-23.38"/>
<polygon fill="#63b8ff" stroke="#63b8ff" points="520.38,-26.72 528.71,-20.17 518.12,-20.1 520.38,-26.72"/>
</a>
</g>
</g>
<!-- Node4&#45;&gt;Node5 -->
<g id="edge4_Node000004_Node000005" class="edge">
<title>Node4&#45;&gt;Node5</title>
<g id="a_edge4_Node000004_Node000005"><a xlink:title=" ">
<path fill="none" stroke="#63b8ff" d="M645.64,-175.91C656.79,-175.8 668.47,-175.68 680.03,-175.56"/>
<polygon fill="#63b8ff" stroke="#63b8ff" points="680.05,-179.06 690.01,-175.45 679.97,-172.06 680.05,-179.06"/>
</a>
</g>
</g>
<!-- Node4&#45;&gt;Node6 -->
<g id="edge5_Node000004_Node000006" class="edge">
<title>Node4&#45;&gt;Node6</title>
<g id="a_edge5_Node000004_Node000006"><a xlink:title=" ">
<path fill="none" stroke="#63b8ff" d="M645.64,-191.55C667.45,-196.33 691.35,-201.56 712.28,-206.15"/>
<polygon fill="#63b8ff" stroke="#63b8ff" points="711.25,-209.5 721.76,-208.22 712.74,-202.67 711.25,-209.5"/>
</a>
</g>
</g>
<!-- Node4&#45;&gt;Node7 -->
<g id="edge6_Node000004_Node000007" class="edge">
<title>Node4&#45;&gt;Node7</title>
<g id="a_edge6_Node000004_Node000007"><a xlink:title=" ">
<path fill="none" stroke="#63b8ff" d="M642.95,-160.92C666.81,-155.2 693.46,-148.81 716.11,-143.37"/>
<polygon fill="#63b8ff" stroke="#63b8ff" points="716.84,-146.8 725.75,-141.06 715.21,-139.99 716.84,-146.8"/>
</a>
</g>
</g>
<!-- Node8&#45;&gt;Node5 -->
<g id="edge8_Node000008_Node000005" class="edge">
<title>Node8&#45;&gt;Node5</title>
<g id="a_edge8_Node000008_Node000005"><a xlink:title=" ">
<path fill="none" stroke="#63b8ff" d="M627.5,-106.26C637.15,-110.07 646.97,-114.54 655.75,-119.62 673.77,-130.06 673.51,-139.58 691.75,-149.62 694.91,-151.36 698.21,-153 701.58,-154.55"/>
<polygon fill="#63b8ff" stroke="#63b8ff" points="699.93,-157.65 710.51,-158.31 702.65,-151.2 699.93,-157.65"/>
</a>
</g>
</g>
<!-- Node8&#45;&gt;Node6 -->
<g id="edge10_Node000008_Node000006" class="edge">
<title>Node8&#45;&gt;Node6</title>
<g id="a_edge10_Node000008_Node000006"><a xlink:title=" ">
<path fill="none" stroke="#63b8ff" d="M599.91,-106.17C616.22,-118 638.4,-135.17 655.75,-152.62 674.05,-171.04 670.03,-184.41 691.75,-198.62 694.99,-200.74 698.44,-202.64 702.01,-204.33"/>
<polygon fill="#63b8ff" stroke="#63b8ff" points="700.39,-207.45 710.97,-208.02 703.05,-200.98 700.39,-207.45"/>
</a>
</g>
</g>
<!-- Node8&#45;&gt;Node7 -->
<g id="edge11_Node000008_Node000007" class="edge">
<title>Node8&#45;&gt;Node7</title>
<g id="a_edge11_Node000008_Node000007"><a xlink:title=" ">
<path fill="none" stroke="#63b8ff" d="M648.63,-105.46C668.76,-109.66 690.46,-114.19 709.83,-118.23"/>
<polygon fill="#63b8ff" stroke="#63b8ff" points="708.95,-121.62 719.45,-120.24 710.38,-114.77 708.95,-121.62"/>
</a>
</g>
</g>
<!-- Node9 -->
<g id="Node000009" class="node">
<title>Node9</title>
<g id="a_Node000009"><a xlink:href="class_nuki_1_1_nuki_ble.html#a25207bb564a4b54b8dd8c872177b53a7" target="_top" xlink:title="Returns if BLE is pairing/paired/connected with a Smart Lock Ultra.">
<polygon fill="white" stroke="#666666" points="835.25,-100.25 705.25,-100.25 705.25,-81 835.25,-81 835.25,-100.25"/>
<text text-anchor="middle" x="770.25" y="-86.75" font-family="Helvetica,sans-Serif" font-size="10.00">Nuki::NukiBle::isLockUltra</text>
</a>
</g>
</g>
<!-- Node8&#45;&gt;Node9 -->
<g id="edge9_Node000008_Node000009" class="edge">
<title>Node8&#45;&gt;Node9</title>
<g id="a_edge9_Node000008_Node000009"><a xlink:title=" ">
<path fill="none" stroke="#63b8ff" d="M648.63,-90.62C663.32,-90.62 678.85,-90.62 693.69,-90.62"/>
<polygon fill="#63b8ff" stroke="#63b8ff" points="693.37,-94.13 703.37,-90.63 693.37,-87.13 693.37,-94.13"/>
</a>
</g>
</g>
<!-- Node10&#45;&gt;Node5 -->
<g id="edge13_Node000010_Node000005" class="edge">
<title>Node10&#45;&gt;Node5</title>
<g id="a_edge13_Node000010_Node000005"><a xlink:title=" ">
<path fill="none" stroke="#63b8ff" d="M620.53,-209.53C641.41,-204.63 667.14,-198.59 691.3,-192.92"/>
<polygon fill="#63b8ff" stroke="#63b8ff" points="691.86,-196.38 700.79,-190.69 690.26,-189.57 691.86,-196.38"/>
</a>
</g>
</g>
<!-- Node10&#45;&gt;Node6 -->
<g id="edge14_Node000010_Node000006" class="edge">
<title>Node10&#45;&gt;Node6</title>
<g id="a_edge14_Node000010_Node000006"><a xlink:title=" ">
<path fill="none" stroke="#63b8ff" d="M656.05,-219.22C668.04,-219.15 680.4,-219.09 692.36,-219.03"/>
<polygon fill="#63b8ff" stroke="#63b8ff" points="692.18,-222.53 702.16,-218.97 692.14,-215.53 692.18,-222.53"/>
</a>
</g>
</g>
<!-- Node10&#45;&gt;Node7 -->
<g id="edge15_Node000010_Node000007" class="edge">
<title>Node10&#45;&gt;Node7</title>
<g id="a_edge15_Node000010_Node000007"><a xlink:title=" ">
<path fill="none" stroke="#63b8ff" d="M637.91,-209.65C644.21,-207.26 650.3,-204.29 655.75,-200.62 678.47,-185.33 669.14,-166.08 691.75,-150.62 694.64,-148.65 697.71,-146.87 700.9,-145.27"/>
<polygon fill="#63b8ff" stroke="#63b8ff" points="702.23,-148.5 710.02,-141.32 699.45,-142.08 702.23,-148.5"/>
</a>
</g>
</g>
</g>
</svg>

<g id="navigator" transform="translate(0 0)" fill="#404254">
  <rect fill="#f2f5e9" fill-opacity="0.5" stroke="#606060" stroke-width=".5" x="0" y="0" width="60" height="60"/>
  <use id="zoomplus" xlink:href="#zoomPlus" x="17" y="9" onmousedown="handleZoom(evt,'in')"/>
  <use id="zoomminus" xlink:href="#zoomMin" x="42" y="9" onmousedown="handleZoom(evt,'out')"/>
  <use id="reset" xlink:href="#resetDef" x="30" y="36" onmousedown="handleReset()"/>
   <use id="arrowup" xlink:href="#arrowUp" x="0" y="0" onmousedown="handlePan(0,-1)"/>
  <use id="arrowright" xlink:href="#arrowRight" x="0" y="0" onmousedown="handlePan(1,0)"/>
  <use id="arrowdown" xlink:href="#arrowDown" x="0" y="0" onmousedown="handlePan(0,1)"/>
  <use id="arrowleft" xlink:href="#arrowLeft" x="0" y="0" onmousedown="handlePan(-1,0)"/>
</g>
<svg viewBox="0 0 15 15" width="100%" height="30px" preserveAspectRatio="xMaxYMin meet">
 <g id="arrow_out" transform="scale(0.3 0.3)">
  <a xlink:href="class_nuki_opener_1_1_nuki_opener_ae39cd2c075b64a5df539f5c4aa82773a_cgraph_org.svg" target="_base">
   <rect id="button" ry="5" rx="5" y="6" x="6" height="38" width="38"
        fill="#f2f5e9" fill-opacity="0.5" stroke="#606060" stroke-width="1.0"/>
   <path id="arrow"
     d="M 11.500037,31.436501 C 11.940474,20.09759 22.043105,11.32322 32.158766,21.979434 L 37.068811,17.246167 C 37.068811,17.246167 37.088388,32 37.088388,32 L 22.160133,31.978069 C 22.160133,31.978069 26.997745,27.140456 26.997745,27.140456 C 18.528582,18.264221 13.291696,25.230495 11.500037,31.436501 z"
     style="fill:#404040;"/>
  </a>
 </g>
</svg>

<style type='text/css'>
<![CDATA[
[data-mouse-over-selected='false'] { opacity: 0.7; }
[data-mouse-over-selected='true']  { opacity: 1.0; }
]]>
</style>
<script type="application/ecmascript"><![CDATA[
document.addEventListener('DOMContentLoaded', (event) => {
  highlightEdges();
  highlightAdjacentNodes();
});
]]></script>
</svg>
