<?xml version="1.0" encoding="UTF-8" standalone="no"?>
<!DOCTYPE svg PUBLIC "-//W3C//DTD SVG 1.1//EN"
 "http://www.w3.org/Graphics/SVG/1.1/DTD/svg11.dtd">
<!-- Generated by graphviz version 11.0.0 (20240428.1522)
 -->
<!-- Title: Nuki::NukiBle::updateTime Pages: 1 -->
<svg width="704pt" height="163pt"
 viewBox="0.00 0.00 703.50 162.88" xmlns="http://www.w3.org/2000/svg" xmlns:xlink="http://www.w3.org/1999/xlink">
<g id="graph0" class="graph" transform="scale(1 1) rotate(0) translate(4 158.88)">
<title>Nuki::NukiBle::updateTime</title>
<!-- Node1 -->
<g id="Node000001" class="node">
<title>Node1</title>
<g id="a_Node000001"><a xlink:title="Sends the time to be set to the lock via BLE.">
<polygon fill="#999999" stroke="#666666" points="130.75,-78.25 0,-78.25 0,-59 130.75,-59 130.75,-78.25"/>
<text text-anchor="middle" x="65.38" y="-64.75" font-family="Helvetica,sans-Serif" font-size="10.00">Nuki::NukiBle::updateTime</text>
</a>
</g>
</g>
<!-- Node2 -->
<g id="Node000002" class="node">
<title>Node2</title>
<g id="a_Node000002"><a xlink:href="class_nuki_1_1_nuki_ble.html#af1f1e299e8d97e053bba80e92ba285d6" target="_top" xlink:title=" ">
<polygon fill="white" stroke="#666666" points="308,-78.25 166.75,-78.25 166.75,-59 308,-59 308,-78.25"/>
<text text-anchor="middle" x="237.38" y="-64.75" font-family="Helvetica,sans-Serif" font-size="10.00">Nuki::NukiBle::executeAction</text>
</a>
</g>
</g>
<!-- Node1&#45;&gt;Node2 -->
<g id="edge1_Node000001_Node000002" class="edge">
<title>Node1&#45;&gt;Node2</title>
<g id="a_edge1_Node000001_Node000002"><a xlink:title=" ">
<path fill="none" stroke="#63b8ff" d="M131.13,-68.62C138.97,-68.62 147.06,-68.62 155.11,-68.62"/>
<polygon fill="#63b8ff" stroke="#63b8ff" points="154.91,-72.13 164.91,-68.63 154.91,-65.13 154.91,-72.13"/>
</a>
</g>
</g>
<!-- Node3 -->
<g id="Node000003" class="node">
<title>Node3</title>
<g id="a_Node000003"><a xlink:href="class_nuki_1_1_nuki_ble.html#ada0f3beebd95d35c122e25dd3f9eb886" target="_top" xlink:title=" ">
<polygon fill="white" stroke="#666666" points="492,-154.88 354.5,-154.88 354.5,-124.38 492,-124.38 492,-154.88"/>
<text text-anchor="start" x="362.5" y="-141.38" font-family="Helvetica,sans-Serif" font-size="10.00">Nuki::NukiBle::cmdChallAcc</text>
<text text-anchor="middle" x="423.25" y="-130.12" font-family="Helvetica,sans-Serif" font-size="10.00">StateMachine</text>
</a>
</g>
</g>
<!-- Node2&#45;&gt;Node3 -->
<g id="edge2_Node000002_Node000003" class="edge">
<title>Node2&#45;&gt;Node3</title>
<g id="a_edge2_Node000002_Node000003"><a xlink:title=" ">
<path fill="none" stroke="#63b8ff" d="M259.56,-78.61C280.7,-88.39 314.24,-103.42 344,-114.62 349.21,-116.58 354.64,-118.53 360.12,-120.41"/>
<polygon fill="#63b8ff" stroke="#63b8ff" points="358.61,-123.6 369.21,-123.47 360.85,-116.97 358.61,-123.6"/>
</a>
</g>
</g>
<!-- Node4 -->
<g id="Node000004" class="node">
<title>Node4</title>
<g id="a_Node000004"><a xlink:href="class_nuki_1_1_nuki_ble.html#a59169a9f492793762e3c6ba39b611b07" target="_top" xlink:title=" ">
<polygon fill="white" stroke="#666666" points="495,-105.88 351.5,-105.88 351.5,-75.38 495,-75.38 495,-105.88"/>
<text text-anchor="start" x="359.5" y="-92.38" font-family="Helvetica,sans-Serif" font-size="10.00">Nuki::NukiBle::cmdChallState</text>
<text text-anchor="middle" x="423.25" y="-81.12" font-family="Helvetica,sans-Serif" font-size="10.00">Machine</text>
</a>
</g>
</g>
<!-- Node2&#45;&gt;Node4 -->
<g id="edge3_Node000002_Node000004" class="edge">
<title>Node2&#45;&gt;Node4</title>
<g id="a_edge3_Node000002_Node000004"><a xlink:title=" ">
<path fill="none" stroke="#63b8ff" d="M308.41,-77.01C318.7,-78.24 329.37,-79.51 339.88,-80.77"/>
<polygon fill="#63b8ff" stroke="#63b8ff" points="339.34,-84.23 349.68,-81.94 340.17,-77.28 339.34,-84.23"/>
</a>
</g>
</g>
<!-- Node5 -->
<g id="Node000005" class="node">
<title>Node5</title>
<g id="a_Node000005"><a xlink:href="class_nuki_1_1_nuki_ble.html#a6e8fca90c04249660dce6cb993eb4495" target="_top" xlink:title=" ">
<polygon fill="white" stroke="#666666" points="695.5,-62.88 538.5,-62.88 538.5,-32.38 695.5,-32.38 695.5,-62.88"/>
<text text-anchor="start" x="546.5" y="-49.38" font-family="Helvetica,sans-Serif" font-size="10.00">Nuki::NukiBle::extendDisconnect</text>
<text text-anchor="middle" x="617" y="-38.12" font-family="Helvetica,sans-Serif" font-size="10.00">Timeout</text>
</a>
</g>
</g>
<!-- Node2&#45;&gt;Node5 -->
<g id="edge7_Node000002_Node000005" class="edge">
<title>Node2&#45;&gt;Node5</title>
<g id="a_edge7_Node000002_Node000005"><a xlink:title=" ">
<path fill="none" stroke="#63b8ff" d="M308.08,-64.75C369.72,-61.32 460,-56.3 526.88,-52.58"/>
<polygon fill="#63b8ff" stroke="#63b8ff" points="526.94,-56.08 536.73,-52.03 526.55,-49.09 526.94,-56.08"/>
</a>
</g>
</g>
<!-- Node6 -->
<g id="Node000006" class="node">
<title>Node6</title>
<g id="a_Node000006"><a xlink:href="class_nuki_1_1_nuki_ble.html#ad135bb1455665decfddff67772c1d411" target="_top" xlink:title=" ">
<polygon fill="white" stroke="#666666" points="502.5,-19.25 344,-19.25 344,0 502.5,0 502.5,-19.25"/>
<text text-anchor="middle" x="423.25" y="-5.75" font-family="Helvetica,sans-Serif" font-size="10.00">Nuki::NukiBle::cmdStateMachine</text>
</a>
</g>
</g>
<!-- Node2&#45;&gt;Node6 -->
<g id="edge5_Node000002_Node000006" class="edge">
<title>Node2&#45;&gt;Node6</title>
<g id="a_edge5_Node000002_Node000006"><a xlink:title=" ">
<path fill="none" stroke="#63b8ff" d="M267.91,-58.64C289.06,-51.54 318.23,-41.84 344,-33.62 354.97,-30.13 366.83,-26.44 377.92,-23.03"/>
<polygon fill="#63b8ff" stroke="#63b8ff" points="378.7,-26.45 387.24,-20.18 376.66,-19.76 378.7,-26.45"/>
</a>
</g>
</g>
<!-- Node4&#45;&gt;Node5 -->
<g id="edge4_Node000004_Node000005" class="edge">
<title>Node4&#45;&gt;Node5</title>
<g id="a_edge4_Node000004_Node000005"><a xlink:title=" ">
<path fill="none" stroke="#63b8ff" d="M494.29,-74.92C507.41,-71.98 521.23,-68.88 534.66,-65.86"/>
<polygon fill="#63b8ff" stroke="#63b8ff" points="535.36,-69.3 544.35,-63.69 533.83,-62.47 535.36,-69.3"/>
</a>
</g>
</g>
<!-- Node6&#45;&gt;Node5 -->
<g id="edge6_Node000006_Node000005" class="edge">
<title>Node6&#45;&gt;Node5</title>
<g id="a_edge6_Node000006_Node000005"><a xlink:title=" ">
<path fill="none" stroke="#63b8ff" d="M475.13,-19.71C491.04,-22.86 509.09,-26.44 526.84,-29.96"/>
<polygon fill="#63b8ff" stroke="#63b8ff" points="526.15,-33.39 536.64,-31.9 527.51,-26.52 526.15,-33.39"/>
</a>
</g>
</g>
</g>
</svg>
