<?xml version="1.0" encoding="UTF-8" standalone="no"?>
<!DOCTYPE svg PUBLIC "-//W3C//DTD SVG 1.1//EN"
 "http://www.w3.org/Graphics/SVG/1.1/DTD/svg11.dtd">
<!-- Generated by graphviz version 12.2.1 (20241206.2353)
 -->
<!-- Title: Nuki::NukiBle::requestCalibration Pages: 1 -->
<!--zoomable 220 -->

<svg id="main" version="1.1" xmlns="http://www.w3.org/2000/svg" xmlns:xlink="http://www.w3.org/1999/xlink" xml:space="preserve" onload="init(evt)">

<style type="text/css"><![CDATA[
.node, .edge {opacity: 0.7;}
.node.selected, .edge.selected {opacity: 1;}
.edge:hover path { stroke: red; }
.edge:hover polygon { stroke: red; fill: red; }
]]></style>

<defs>
  <circle id="rim" cx="0" cy="0" r="7"/>
  <circle id="rim2" cx="0" cy="0" r="3.5"/>
  <g id="zoomPlus">
    <use xlink:href="#rim" fill="#404040"><set attributeName="fill" to="#808080" begin="zoomplus.mouseover" end="zoomplus.mouseout"/></use>
    <path d="M-4,0h8M0,-4v8" fill="none" stroke="white" stroke-width="1.5" pointer-events="none"/>
  </g>
  <g id="zoomMin">
    <use xlink:href="#rim" fill="#404040"><set attributeName="fill" to="#808080" begin="zoomminus.mouseover" end="zoomminus.mouseout"/></use>
    <path d="M-4,0h8" fill="none" stroke="white" stroke-width="1.5" pointer-events="none"/>
  </g>
  <g id="arrowUp" transform="translate(30 24)">
    <use xlink:href="#rim"/>
    <path pointer-events="none" fill="none" stroke="white" stroke-width="1.5" d="M0,-3.0v7 M-2.5,-0.5L0,-3.0L2.5,-0.5"/>
  </g>
  <g id="arrowRight" transform="rotate(90) translate(36 -43)">
    <use xlink:href="#rim"/>
    <path pointer-events="none" fill="none" stroke="white" stroke-width="1.5" d="M0,-3.0v7 M-2.5,-0.5L0,-3.0L2.5,-0.5"/>
  </g>
  <g id="arrowDown" transform="rotate(180) translate(-30 -48)">
    <use xlink:href="#rim"/>
    <path pointer-events="none" fill="none" stroke="white" stroke-width="1.5" d="M0,-3.0v7 M-2.5,-0.5L0,-3.0L2.5,-0.5"/>
  </g>
  <g id="arrowLeft" transform="rotate(270) translate(-36 17)">
    <use xlink:href="#rim"/>
    <path pointer-events="none" fill="none" stroke="white" stroke-width="1.5" d="M0,-3.0v7 M-2.5,-0.5L0,-3.0L2.5,-0.5"/>
  </g>
  <g id="resetDef">
    <use xlink:href="#rim2" fill="#404040"><set attributeName="fill" to="#808080" begin="reset.mouseover" end="reset.mouseout"/></use>
  </g>
</defs>
<script type="application/ecmascript">
var viewWidth = 731;
var viewHeight = 220;
var sectionId = 'dynsection-24';
</script>
<script type="application/ecmascript" xlink:href="svg.min.js"/>
<svg id="graph" class="graph">
<g id="viewport">
<title>Nuki::NukiBle::requestCalibration</title>
<!-- Node1 -->
<g id="Node000001" class="node">
<title>Node1</title>
<g id="a_Node000001"><a xlink:title="Sends an calibration (mechanical) request to the lock via BLE.">
<polygon fill="#999999" stroke="#666666" points="157.75,-57.62 0,-57.62 0,-38.37 157.75,-38.37 157.75,-57.62"/>
<text text-anchor="middle" x="78.88" y="-44.12" font-family="Helvetica,sans-Serif" font-size="10.00">Nuki::NukiBle::requestCalibration</text>
</a>
</g>
</g>
<!-- Node2 -->
<g id="Node000002" class="node">
<title>Node2</title>
<g id="a_Node000002"><a xlink:href="class_nuki_1_1_nuki_ble.html#af1f1e299e8d97e053bba80e92ba285d6" target="_top" xlink:title=" ">
<polygon fill="white" stroke="#666666" points="335,-122.62 193.75,-122.62 193.75,-103.37 335,-103.37 335,-122.62"/>
<text text-anchor="middle" x="264.38" y="-109.12" font-family="Helvetica,sans-Serif" font-size="10.00">Nuki::NukiBle::executeAction</text>
</a>
</g>
</g>
<!-- Node1&#45;&gt;Node2 -->
<g id="edge1_Node000001_Node000002" class="edge">
<title>Node1&#45;&gt;Node2</title>
<g id="a_edge1_Node000001_Node000002"><a xlink:title=" ">
<path fill="none" stroke="#63b8ff" d="M108.14,-58.01C139.26,-69.03 189.48,-86.82 224.34,-99.17"/>
<polygon fill="#63b8ff" stroke="#63b8ff" points="223.05,-102.42 233.65,-102.46 225.39,-95.82 223.05,-102.42"/>
</a>
</g>
</g>
<!-- Node5 -->
<g id="Node000005" class="node">
<title>Node5</title>
<g id="a_Node000005"><a xlink:href="class_nuki_1_1_nuki_ble.html#ac7ce691d9c3e586474655d1663eb2e20" target="_top" xlink:title=" ">
<polygon fill="white" stroke="#666666" points="710.12,-79.62 577.88,-79.62 577.88,-60.37 710.12,-60.37 710.12,-79.62"/>
<text text-anchor="middle" x="644" y="-66.12" font-family="Helvetica,sans-Serif" font-size="10.00">Nuki::NukiBle::logMessage</text>
</a>
</g>
</g>
<!-- Node1&#45;&gt;Node5 -->
<g id="edge18_Node000001_Node000005" class="edge">
<title>Node1&#45;&gt;Node5</title>
<g id="a_edge18_Node000001_Node000005"><a xlink:title=" ">
<path fill="none" stroke="#63b8ff" d="M113.21,-37.93C189.42,-16.66 381.25,26.87 529.5,-23.99 548.67,-30.57 547.2,-43.27 565.5,-51.99 568.8,-53.57 572.26,-55.01 575.79,-56.33"/>
<polygon fill="#63b8ff" stroke="#63b8ff" points="574.53,-59.6 585.12,-59.45 576.75,-52.96 574.53,-59.6"/>
</a>
</g>
</g>
<!-- Node3 -->
<g id="Node000003" class="node">
<title>Node3</title>
<g id="a_Node000003"><a xlink:href="class_nuki_1_1_nuki_ble.html#ada0f3beebd95d35c122e25dd3f9eb886" target="_top" xlink:title=" ">
<polygon fill="white" stroke="#666666" points="519,-128.24 381.5,-128.24 381.5,-97.74 519,-97.74 519,-128.24"/>
<text text-anchor="start" x="389.5" y="-114.74" font-family="Helvetica,sans-Serif" font-size="10.00">Nuki::NukiBle::cmdChallAcc</text>
<text text-anchor="middle" x="450.25" y="-103.49" font-family="Helvetica,sans-Serif" font-size="10.00">StateMachine</text>
</a>
</g>
</g>
<!-- Node2&#45;&gt;Node3 -->
<g id="edge2_Node000002_Node000003" class="edge">
<title>Node2&#45;&gt;Node3</title>
<g id="a_edge2_Node000002_Node000003"><a xlink:title=" ">
<path fill="none" stroke="#63b8ff" d="M335.41,-112.99C346.68,-112.99 358.41,-112.99 369.88,-112.99"/>
<polygon fill="#63b8ff" stroke="#63b8ff" points="369.71,-116.49 379.71,-112.99 369.71,-109.49 369.71,-116.49"/>
</a>
</g>
</g>
<!-- Node4 -->
<g id="Node000004" class="node">
<title>Node4</title>
<g id="a_Node000004"><a xlink:href="class_nuki_1_1_nuki_ble.html#a6e8fca90c04249660dce6cb993eb4495" target="_top" xlink:title=" ">
<polygon fill="white" stroke="#666666" points="722.5,-171.24 565.5,-171.24 565.5,-140.74 722.5,-140.74 722.5,-171.24"/>
<text text-anchor="start" x="573.5" y="-157.74" font-family="Helvetica,sans-Serif" font-size="10.00">Nuki::NukiBle::extendDisconnect</text>
<text text-anchor="middle" x="644" y="-146.49" font-family="Helvetica,sans-Serif" font-size="10.00">Timeout</text>
</a>
</g>
</g>
<!-- Node2&#45;&gt;Node4 -->
<g id="edge15_Node000002_Node000004" class="edge">
<title>Node2&#45;&gt;Node4</title>
<g id="a_edge15_Node000002_Node000004"><a xlink:title=" ">
<path fill="none" stroke="#63b8ff" d="M273.38,-122.86C289.48,-141.83 327.93,-182.82 371,-197.99 437.44,-221.41 460.16,-210.41 529.5,-197.99 553.45,-193.7 578.96,-184.7 599.72,-176.12"/>
<polygon fill="#63b8ff" stroke="#63b8ff" points="600.88,-179.43 608.71,-172.3 598.14,-172.99 600.88,-179.43"/>
</a>
</g>
</g>
<!-- Node2&#45;&gt;Node5 -->
<g id="edge16_Node000002_Node000005" class="edge">
<title>Node2&#45;&gt;Node5</title>
<g id="a_edge16_Node000002_Node000005"><a xlink:title=" ">
<path fill="none" stroke="#63b8ff" d="M275.31,-102.92C292.78,-85.99 330.99,-52.47 371,-39.99 438.25,-19.02 459.97,-28.71 529.5,-39.99 546.15,-42.69 549.27,-47.41 565.5,-51.99 572.04,-53.84 578.94,-55.64 585.8,-57.35"/>
<polygon fill="#63b8ff" stroke="#63b8ff" points="584.5,-60.63 595.04,-59.58 586.14,-53.83 584.5,-60.63"/>
</a>
</g>
</g>
<!-- Node6 -->
<g id="Node000006" class="node">
<title>Node6</title>
<g id="a_Node000006"><a xlink:href="class_nuki_1_1_nuki_ble.html#af3650133f46aeca48a5f01b95d23ab71" target="_top" xlink:title=" ">
<polygon fill="white" stroke="#666666" points="717.62,-122.62 570.38,-122.62 570.38,-103.37 717.62,-103.37 717.62,-122.62"/>
<text text-anchor="middle" x="644" y="-109.12" font-family="Helvetica,sans-Serif" font-size="10.00">Nuki::NukiBle::logMessageVar</text>
</a>
</g>
</g>
<!-- Node2&#45;&gt;Node6 -->
<g id="edge17_Node000002_Node000006" class="edge">
<title>Node2&#45;&gt;Node6</title>
<g id="a_edge17_Node000002_Node000006"><a xlink:title=" ">
<path fill="none" stroke="#63b8ff" d="M277.39,-122.99C296.02,-137.79 333.66,-164.84 371,-174.99 438.98,-193.47 465.67,-204.8 529.5,-174.99 552.08,-164.45 544.34,-145.17 565.5,-131.99 568.26,-130.28 571.16,-128.71 574.15,-127.29"/>
<polygon fill="#63b8ff" stroke="#63b8ff" points="575.32,-130.6 583.24,-123.56 572.66,-124.13 575.32,-130.6"/>
</a>
</g>
</g>
<!-- Node7 -->
<g id="Node000007" class="node">
<title>Node7</title>
<g id="a_Node000007"><a xlink:href="class_nuki_1_1_nuki_ble.html#a59169a9f492793762e3c6ba39b611b07" target="_top" xlink:title=" ">
<polygon fill="white" stroke="#666666" points="522,-79.24 378.5,-79.24 378.5,-48.74 522,-48.74 522,-79.24"/>
<text text-anchor="start" x="386.5" y="-65.74" font-family="Helvetica,sans-Serif" font-size="10.00">Nuki::NukiBle::cmdChallState</text>
<text text-anchor="middle" x="450.25" y="-54.49" font-family="Helvetica,sans-Serif" font-size="10.00">Machine</text>
</a>
</g>
</g>
<!-- Node2&#45;&gt;Node7 -->
<g id="edge6_Node000002_Node000007" class="edge">
<title>Node2&#45;&gt;Node7</title>
<g id="a_edge6_Node000002_Node000007"><a xlink:title=" ">
<path fill="none" stroke="#63b8ff" d="M303.03,-102.96C325,-97.1 353.42,-89.53 379.35,-82.62"/>
<polygon fill="#63b8ff" stroke="#63b8ff" points="380.06,-86.05 388.82,-80.1 378.26,-79.29 380.06,-86.05"/>
</a>
</g>
</g>
<!-- Node9 -->
<g id="Node000009" class="node">
<title>Node9</title>
<g id="a_Node000009"><a xlink:href="class_nuki_1_1_nuki_ble.html#ad135bb1455665decfddff67772c1d411" target="_top" xlink:title=" ">
<polygon fill="white" stroke="#666666" points="529.5,-165.62 371,-165.62 371,-146.37 529.5,-146.37 529.5,-165.62"/>
<text text-anchor="middle" x="450.25" y="-152.12" font-family="Helvetica,sans-Serif" font-size="10.00">Nuki::NukiBle::cmdStateMachine</text>
</a>
</g>
</g>
<!-- Node2&#45;&gt;Node9 -->
<g id="edge11_Node000002_Node000009" class="edge">
<title>Node2&#45;&gt;Node9</title>
<g id="a_edge11_Node000002_Node000009"><a xlink:title=" ">
<path fill="none" stroke="#63b8ff" d="M308.49,-123.07C334.33,-129.12 367.42,-136.86 395.03,-143.31"/>
<polygon fill="#63b8ff" stroke="#63b8ff" points="394.08,-146.69 404.62,-145.56 395.68,-139.87 394.08,-146.69"/>
</a>
</g>
</g>
<!-- Node3&#45;&gt;Node4 -->
<g id="edge3_Node000003_Node000004" class="edge">
<title>Node3&#45;&gt;Node4</title>
<g id="a_edge3_Node000003_Node000004"><a xlink:title=" ">
<path fill="none" stroke="#63b8ff" d="M519.39,-128.27C533.07,-131.34 547.57,-134.59 561.64,-137.75"/>
<polygon fill="#63b8ff" stroke="#63b8ff" points="560.81,-141.15 571.33,-139.92 562.34,-134.32 560.81,-141.15"/>
</a>
</g>
</g>
<!-- Node3&#45;&gt;Node5 -->
<g id="edge4_Node000003_Node000005" class="edge">
<title>Node3&#45;&gt;Node5</title>
<g id="a_edge4_Node000003_Node000005"><a xlink:title=" ">
<path fill="none" stroke="#63b8ff" d="M519.39,-97.71C541.48,-92.76 565.7,-87.33 586.82,-82.59"/>
<polygon fill="#63b8ff" stroke="#63b8ff" points="587.4,-86.05 596.39,-80.45 585.86,-79.22 587.4,-86.05"/>
</a>
</g>
</g>
<!-- Node3&#45;&gt;Node6 -->
<g id="edge5_Node000003_Node000006" class="edge">
<title>Node3&#45;&gt;Node6</title>
<g id="a_edge5_Node000003_Node000006"><a xlink:title=" ">
<path fill="none" stroke="#63b8ff" d="M519.39,-112.99C532.05,-112.99 545.41,-112.99 558.48,-112.99"/>
<polygon fill="#63b8ff" stroke="#63b8ff" points="558.36,-116.49 568.36,-112.99 558.36,-109.49 558.36,-116.49"/>
</a>
</g>
</g>
<!-- Node7&#45;&gt;Node4 -->
<g id="edge7_Node000007_Node000004" class="edge">
<title>Node7&#45;&gt;Node4</title>
<g id="a_edge7_Node000007_Node000004"><a xlink:title=" ">
<path fill="none" stroke="#63b8ff" d="M512.24,-79.65C518.3,-82.32 524.17,-85.41 529.5,-88.99 550.19,-102.89 544.75,-118.19 565.5,-131.99 567.3,-133.19 569.17,-134.33 571.08,-135.42"/>
<polygon fill="#63b8ff" stroke="#63b8ff" points="569.14,-138.36 579.65,-139.73 572.29,-132.11 569.14,-138.36"/>
</a>
</g>
</g>
<!-- Node7&#45;&gt;Node5 -->
<g id="edge9_Node000007_Node000005" class="edge">
<title>Node7&#45;&gt;Node5</title>
<g id="a_edge9_Node000007_Node000005"><a xlink:title=" ">
<path fill="none" stroke="#63b8ff" d="M522.38,-66.22C536.59,-66.66 551.58,-67.13 565.98,-67.58"/>
<polygon fill="#63b8ff" stroke="#63b8ff" points="565.76,-71.08 575.87,-67.89 565.98,-64.08 565.76,-71.08"/>
</a>
</g>
</g>
<!-- Node7&#45;&gt;Node6 -->
<g id="edge10_Node000007_Node000006" class="edge">
<title>Node7&#45;&gt;Node6</title>
<g id="a_edge10_Node000007_Node000006"><a xlink:title=" ">
<path fill="none" stroke="#63b8ff" d="M512.71,-79.7C538.55,-86.3 568.23,-93.89 592.74,-100.15"/>
<polygon fill="#63b8ff" stroke="#63b8ff" points="591.57,-103.46 602.13,-102.55 593.31,-96.68 591.57,-103.46"/>
</a>
</g>
</g>
<!-- Node8 -->
<g id="Node000008" class="node">
<title>Node8</title>
<g id="a_Node000008"><a xlink:href="class_nuki_1_1_nuki_ble.html#a25207bb564a4b54b8dd8c872177b53a7" target="_top" xlink:title="Returns if BLE is pairing/paired/connected with a Smart Lock Ultra.">
<polygon fill="white" stroke="#666666" points="709,-42.62 579,-42.62 579,-23.37 709,-23.37 709,-42.62"/>
<text text-anchor="middle" x="644" y="-29.12" font-family="Helvetica,sans-Serif" font-size="10.00">Nuki::NukiBle::isLockUltra</text>
</a>
</g>
</g>
<!-- Node7&#45;&gt;Node8 -->
<g id="edge8_Node000007_Node000008" class="edge">
<title>Node7&#45;&gt;Node8</title>
<g id="a_edge8_Node000007_Node000008"><a xlink:title=" ">
<path fill="none" stroke="#63b8ff" d="M522.38,-52.49C537.73,-50.01 553.99,-47.38 569.43,-44.89"/>
<polygon fill="#63b8ff" stroke="#63b8ff" points="569.7,-48.39 579.02,-43.34 568.59,-41.48 569.7,-48.39"/>
</a>
</g>
</g>
<!-- Node9&#45;&gt;Node4 -->
<g id="edge12_Node000009_Node000004" class="edge">
<title>Node9&#45;&gt;Node4</title>
<g id="a_edge12_Node000009_Node000004"><a xlink:title=" ">
<path fill="none" stroke="#63b8ff" d="M529.8,-155.99C537.74,-155.99 545.85,-155.99 553.89,-155.99"/>
<polygon fill="#63b8ff" stroke="#63b8ff" points="553.68,-159.49 563.68,-155.99 553.68,-152.49 553.68,-159.49"/>
</a>
</g>
</g>
<!-- Node9&#45;&gt;Node5 -->
<g id="edge13_Node000009_Node000005" class="edge">
<title>Node9&#45;&gt;Node5</title>
<g id="a_edge13_Node000009_Node000005"><a xlink:title=" ">
<path fill="none" stroke="#63b8ff" d="M510.58,-145.91C517.22,-143.54 523.68,-140.61 529.5,-136.99 550.67,-123.84 544.75,-107.8 565.5,-93.99 571.35,-90.1 577.86,-86.82 584.55,-84.05"/>
<polygon fill="#63b8ff" stroke="#63b8ff" points="585.58,-87.4 593.74,-80.64 583.14,-80.84 585.58,-87.4"/>
</a>
</g>
</g>
<!-- Node9&#45;&gt;Node6 -->
<g id="edge14_Node000009_Node000006" class="edge">
<title>Node9&#45;&gt;Node6</title>
<g id="a_edge14_Node000009_Node000006"><a xlink:title=" ">
<path fill="none" stroke="#63b8ff" d="M496.21,-145.91C523.28,-139.84 557.97,-132.06 586.84,-125.59"/>
<polygon fill="#63b8ff" stroke="#63b8ff" points="587.52,-129.02 596.52,-123.42 585.99,-122.19 587.52,-129.02"/>
</a>
</g>
</g>
</g>
</svg>

<g id="navigator" transform="translate(0 0)" fill="#404254">
  <rect fill="#f2f5e9" fill-opacity="0.5" stroke="#606060" stroke-width=".5" x="0" y="0" width="60" height="60"/>
  <use id="zoomplus" xlink:href="#zoomPlus" x="17" y="9" onmousedown="handleZoom(evt,'in')"/>
  <use id="zoomminus" xlink:href="#zoomMin" x="42" y="9" onmousedown="handleZoom(evt,'out')"/>
  <use id="reset" xlink:href="#resetDef" x="30" y="36" onmousedown="handleReset()"/>
   <use id="arrowup" xlink:href="#arrowUp" x="0" y="0" onmousedown="handlePan(0,-1)"/>
  <use id="arrowright" xlink:href="#arrowRight" x="0" y="0" onmousedown="handlePan(1,0)"/>
  <use id="arrowdown" xlink:href="#arrowDown" x="0" y="0" onmousedown="handlePan(0,1)"/>
  <use id="arrowleft" xlink:href="#arrowLeft" x="0" y="0" onmousedown="handlePan(-1,0)"/>
</g>
<svg viewBox="0 0 15 15" width="100%" height="30px" preserveAspectRatio="xMaxYMin meet">
 <g id="arrow_out" transform="scale(0.3 0.3)">
  <a xlink:href="class_nuki_1_1_nuki_ble_a5c80321a4355c9394be7a7de29133c7b_cgraph_org.svg" target="_base">
   <rect id="button" ry="5" rx="5" y="6" x="6" height="38" width="38"
        fill="#f2f5e9" fill-opacity="0.5" stroke="#606060" stroke-width="1.0"/>
   <path id="arrow"
     d="M 11.500037,31.436501 C 11.940474,20.09759 22.043105,11.32322 32.158766,21.979434 L 37.068811,17.246167 C 37.068811,17.246167 37.088388,32 37.088388,32 L 22.160133,31.978069 C 22.160133,31.978069 26.997745,27.140456 26.997745,27.140456 C 18.528582,18.264221 13.291696,25.230495 11.500037,31.436501 z"
     style="fill:#404040;"/>
  </a>
 </g>
</svg>

<style type='text/css'>
<![CDATA[
[data-mouse-over-selected='false'] { opacity: 0.7; }
[data-mouse-over-selected='true']  { opacity: 1.0; }
]]>
</style>
<script type="application/ecmascript"><![CDATA[
document.addEventListener('DOMContentLoaded', (event) => {
  highlightEdges();
  highlightAdjacentNodes();
});
]]></script>
</svg>
