<?xml version="1.0" encoding="UTF-8" standalone="no"?>
<!DOCTYPE svg PUBLIC "-//W3C//DTD SVG 1.1//EN"
 "http://www.w3.org/Graphics/SVG/1.1/DTD/svg11.dtd">
<!-- Generated by graphviz version 8.0.1 (20230327.1645)
 -->
<!-- Title: Nuki::NukiBle Pages: 1 -->
<svg width="256pt" height="137pt"
 viewBox="0.00 0.00 256.00 137.00" xmlns="http://www.w3.org/2000/svg" xmlns:xlink="http://www.w3.org/1999/xlink">
<g id="graph0" class="graph" transform="scale(1 1) rotate(0) translate(4 133)">
<title>Nuki::NukiBle</title>
<!-- Node1 -->
<g id="node1" class="node">
<title>Node1</title>
<g id="a_node1"><a xlink:title=" ">
<polygon fill="#999999" stroke="#666666" points="156.5,-74 80.5,-74 80.5,-55 156.5,-55 156.5,-74"/>
<text text-anchor="middle" x="118.5" y="-62" font-family="Helvetica,sans-Serif" font-size="10.00">Nuki::NukiBle</text>
</a>
</g>
</g>
<!-- Node4 -->
<g id="node4" class="node">
<title>Node4</title>
<g id="a_node4"><a xlink:href="class_nuki_lock_1_1_nuki_lock.html" target="_top" xlink:title=" ">
<polygon fill="white" stroke="#666666" points="105,-19 0,-19 0,0 105,0 105,-19"/>
<text text-anchor="middle" x="52.5" y="-7" font-family="Helvetica,sans-Serif" font-size="10.00">NukiLock::NukiLock</text>
</a>
</g>
</g>
<!-- Node1&#45;&gt;Node4 -->
<g id="edge3" class="edge">
<title>Node1&#45;&gt;Node4</title>
<path fill="none" stroke="#63b8ff" d="M98.75,-47.64C87.23,-38.39 73.11,-27.05 63.53,-19.36"/>
<polygon fill="#63b8ff" stroke="#63b8ff" points="96.32,-50.98 106.3,-54.51 100.7,-45.52 96.32,-50.98"/>
</g>
<!-- Node5 -->
<g id="node5" class="node">
<title>Node5</title>
<g id="a_node5"><a xlink:href="class_nuki_opener_1_1_nuki_opener.html" target="_top" xlink:title=" ">
<polygon fill="white" stroke="#666666" points="248,-19 123,-19 123,0 248,0 248,-19"/>
<text text-anchor="middle" x="185.5" y="-7" font-family="Helvetica,sans-Serif" font-size="10.00">NukiOpener::NukiOpener</text>
</a>
</g>
</g>
<!-- Node1&#45;&gt;Node5 -->
<g id="edge4" class="edge">
<title>Node1&#45;&gt;Node5</title>
<path fill="none" stroke="#63b8ff" d="M138.2,-47.92C149.96,-38.61 164.48,-27.13 174.3,-19.36"/>
<polygon fill="#63b8ff" stroke="#63b8ff" points="136.54,-45.56 130.87,-54.51 140.88,-51.05 136.54,-45.56"/>
</g>
<!-- Node2 -->
<g id="node2" class="node">
<title>Node2</title>
<g id="a_node2"><a xlink:title=" ">
<polygon fill="white" stroke="#666666" points="106,-129 3,-129 3,-110 106,-110 106,-129"/>
<text text-anchor="middle" x="54.5" y="-117" font-family="Helvetica,sans-Serif" font-size="10.00">BLEClientCallbacks</text>
</a>
</g>
</g>
<!-- Node2&#45;&gt;Node1 -->
<g id="edge1" class="edge">
<title>Node2&#45;&gt;Node1</title>
<path fill="none" stroke="#63b8ff" d="M73.65,-102.64C84.83,-93.39 98.51,-82.05 107.8,-74.36"/>
<polygon fill="#63b8ff" stroke="#63b8ff" points="71.83,-100.44 66.36,-109.51 76.29,-105.83 71.83,-100.44"/>
</g>
<!-- Node3 -->
<g id="node3" class="node">
<title>Node3</title>
<g id="a_node3"><a xlink:title=" ">
<polygon fill="white" stroke="#666666" points="242.5,-129 124.5,-129 124.5,-110 242.5,-110 242.5,-129"/>
<text text-anchor="middle" x="183.5" y="-117" font-family="Helvetica,sans-Serif" font-size="10.00">BleScanner::Subscriber</text>
</a>
</g>
</g>
<!-- Node3&#45;&gt;Node1 -->
<g id="edge2" class="edge">
<title>Node3&#45;&gt;Node1</title>
<path fill="none" stroke="#63b8ff" d="M164.05,-102.64C152.7,-93.39 138.8,-82.05 129.36,-74.36"/>
<polygon fill="#63b8ff" stroke="#63b8ff" points="161.51,-105.9 171.47,-109.51 165.94,-100.48 161.51,-105.9"/>
</g>
</g>
</svg>
