<?xml version="1.0" encoding="UTF-8" standalone="no"?>
<!DOCTYPE svg PUBLIC "-//W3C//DTD SVG 1.1//EN"
 "http://www.w3.org/Graphics/SVG/1.1/DTD/svg11.dtd">
<!-- Generated by graphviz version 12.0.0 (20240704.0754)
 -->
<!-- Title: Nuki::NukiBle::addKeypadEntry Pages: 1 -->
<svg width="709pt" height="171pt"
 viewBox="0.00 0.00 708.75 170.88" xmlns="http://www.w3.org/2000/svg" xmlns:xlink="http://www.w3.org/1999/xlink">
<g id="graph0" class="graph" transform="scale(1 1) rotate(0) translate(4 166.88)">
<title>Nuki::NukiBle::addKeypadEntry</title>
<!-- Node1 -->
<g id="Node000001" class="node">
<title>Node1</title>
<g id="a_Node000001"><a xlink:title="Send a new keypad entry to the lock via BLE.">
<polygon fill="#999999" stroke="#666666" points="127.75,-61.88 0,-61.88 0,-31.38 127.75,-31.38 127.75,-61.88"/>
<text text-anchor="start" x="8" y="-48.38" font-family="Helvetica,sans-Serif" font-size="10.00">Nuki::NukiBle::addKeypad</text>
<text text-anchor="middle" x="63.88" y="-37.12" font-family="Helvetica,sans-Serif" font-size="10.00">Entry</text>
</a>
</g>
</g>
<!-- Node2 -->
<g id="Node000002" class="node">
<title>Node2</title>
<g id="a_Node000002"><a xlink:href="class_nuki_1_1_nuki_ble.html#af1f1e299e8d97e053bba80e92ba285d6" target="_top" xlink:title=" ">
<polygon fill="white" stroke="#666666" points="309.12,-93.25 167.88,-93.25 167.88,-74 309.12,-74 309.12,-93.25"/>
<text text-anchor="middle" x="238.5" y="-79.75" font-family="Helvetica,sans-Serif" font-size="10.00">Nuki::NukiBle::executeAction</text>
</a>
</g>
</g>
<!-- Node1&#45;&gt;Node2 -->
<g id="edge1_Node000001_Node000002" class="edge">
<title>Node1&#45;&gt;Node2</title>
<g id="a_edge1_Node000001_Node000002"><a xlink:title=" ">
<path fill="none" stroke="#63b8ff" d="M128.17,-60.19C144.91,-63.78 162.88,-67.63 179.33,-71.16"/>
<polygon fill="#63b8ff" stroke="#63b8ff" points="178.44,-74.55 188.95,-73.22 179.91,-67.7 178.44,-74.55"/>
</a>
</g>
</g>
<!-- Node7 -->
<g id="Node000007" class="node">
<title>Node7</title>
<g id="a_Node000007"><a xlink:href="namespace_nuki_lock.html#abbaa1d9201aa8a1c0239fb92fad5fc60" target="_top" xlink:title=" ">
<polygon fill="white" stroke="#666666" points="313.25,-56.25 163.75,-56.25 163.75,-37 313.25,-37 313.25,-56.25"/>
<text text-anchor="middle" x="238.5" y="-42.75" font-family="Helvetica,sans-Serif" font-size="10.00">NukiLock::logNewKeypadEntry</text>
</a>
</g>
</g>
<!-- Node1&#45;&gt;Node7 -->
<g id="edge9_Node000001_Node000007" class="edge">
<title>Node1&#45;&gt;Node7</title>
<g id="a_edge9_Node000001_Node000007"><a xlink:title=" ">
<path fill="none" stroke="#63b8ff" d="M128.17,-46.62C135.96,-46.62 144.01,-46.62 152.05,-46.62"/>
<polygon fill="#63b8ff" stroke="#63b8ff" points="151.87,-50.13 161.87,-46.63 151.87,-43.13 151.87,-50.13"/>
</a>
</g>
</g>
<!-- Node8 -->
<g id="Node000008" class="node">
<title>Node8</title>
<g id="a_Node000008"><a xlink:href="namespace_nuki.html#a280e19d4682ca4b35d3fe64001da816a" target="_top" xlink:title=" ">
<polygon fill="white" stroke="#666666" points="281,-19.25 196,-19.25 196,0 281,0 281,-19.25"/>
<text text-anchor="middle" x="238.5" y="-5.75" font-family="Helvetica,sans-Serif" font-size="10.00">Nuki::printBuffer</text>
</a>
</g>
</g>
<!-- Node1&#45;&gt;Node8 -->
<g id="edge10_Node000001_Node000008" class="edge">
<title>Node1&#45;&gt;Node8</title>
<g id="a_edge10_Node000001_Node000008"><a xlink:title=" ">
<path fill="none" stroke="#63b8ff" d="M128.17,-33.06C146.73,-29.08 166.82,-24.77 184.66,-20.95"/>
<polygon fill="#63b8ff" stroke="#63b8ff" points="185.2,-24.41 194.24,-18.9 183.73,-17.57 185.2,-24.41"/>
</a>
</g>
</g>
<!-- Node3 -->
<g id="Node000003" class="node">
<title>Node3</title>
<g id="a_Node000003"><a xlink:href="class_nuki_1_1_nuki_ble.html#ada0f3beebd95d35c122e25dd3f9eb886" target="_top" xlink:title=" ">
<polygon fill="white" stroke="#666666" points="497.25,-162.88 359.75,-162.88 359.75,-132.38 497.25,-132.38 497.25,-162.88"/>
<text text-anchor="start" x="367.75" y="-149.38" font-family="Helvetica,sans-Serif" font-size="10.00">Nuki::NukiBle::cmdChallAcc</text>
<text text-anchor="middle" x="428.5" y="-138.12" font-family="Helvetica,sans-Serif" font-size="10.00">StateMachine</text>
</a>
</g>
</g>
<!-- Node2&#45;&gt;Node3 -->
<g id="edge2_Node000002_Node000003" class="edge">
<title>Node2&#45;&gt;Node3</title>
<g id="a_edge2_Node000002_Node000003"><a xlink:title=" ">
<path fill="none" stroke="#63b8ff" d="M268.88,-93.62C296.09,-102.89 337.3,-116.92 370.9,-128.36"/>
<polygon fill="#63b8ff" stroke="#63b8ff" points="369.48,-131.57 380.08,-131.48 371.74,-124.95 369.48,-131.57"/>
</a>
</g>
</g>
<!-- Node4 -->
<g id="Node000004" class="node">
<title>Node4</title>
<g id="a_Node000004"><a xlink:href="class_nuki_1_1_nuki_ble.html#a6e8fca90c04249660dce6cb993eb4495" target="_top" xlink:title=" ">
<polygon fill="white" stroke="#666666" points="700.75,-97.88 543.75,-97.88 543.75,-67.38 700.75,-67.38 700.75,-97.88"/>
<text text-anchor="start" x="551.75" y="-84.38" font-family="Helvetica,sans-Serif" font-size="10.00">Nuki::NukiBle::extendDisconnect</text>
<text text-anchor="middle" x="622.25" y="-73.12" font-family="Helvetica,sans-Serif" font-size="10.00">Timeout</text>
</a>
</g>
</g>
<!-- Node2&#45;&gt;Node4 -->
<g id="edge8_Node000002_Node000004" class="edge">
<title>Node2&#45;&gt;Node4</title>
<g id="a_edge8_Node000002_Node000004"><a xlink:title=" ">
<path fill="none" stroke="#63b8ff" d="M309.46,-85.09C322.68,-85.31 336.39,-85.51 349.25,-85.62 419.69,-86.27 437.31,-86.56 507.75,-85.62 515.68,-85.52 523.91,-85.37 532.17,-85.2"/>
<polygon fill="#63b8ff" stroke="#63b8ff" points="531.98,-88.71 541.9,-84.99 531.82,-81.71 531.98,-88.71"/>
</a>
</g>
</g>
<!-- Node5 -->
<g id="Node000005" class="node">
<title>Node5</title>
<g id="a_Node000005"><a xlink:href="class_nuki_1_1_nuki_ble.html#a59169a9f492793762e3c6ba39b611b07" target="_top" xlink:title=" ">
<polygon fill="white" stroke="#666666" points="500.25,-76.88 356.75,-76.88 356.75,-46.38 500.25,-46.38 500.25,-76.88"/>
<text text-anchor="start" x="364.75" y="-63.38" font-family="Helvetica,sans-Serif" font-size="10.00">Nuki::NukiBle::cmdChallState</text>
<text text-anchor="middle" x="428.5" y="-52.12" font-family="Helvetica,sans-Serif" font-size="10.00">Machine</text>
</a>
</g>
</g>
<!-- Node2&#45;&gt;Node5 -->
<g id="edge4_Node000002_Node000005" class="edge">
<title>Node2&#45;&gt;Node5</title>
<g id="a_edge4_Node000002_Node000005"><a xlink:title=" ">
<path fill="none" stroke="#63b8ff" d="M309.5,-75.43C321.13,-74.07 333.29,-72.65 345.19,-71.26"/>
<polygon fill="#63b8ff" stroke="#63b8ff" points="345.47,-74.75 354.99,-70.11 344.65,-67.8 345.47,-74.75"/>
</a>
</g>
</g>
<!-- Node6 -->
<g id="Node000006" class="node">
<title>Node6</title>
<g id="a_Node000006"><a xlink:href="class_nuki_1_1_nuki_ble.html#ad135bb1455665decfddff67772c1d411" target="_top" xlink:title=" ">
<polygon fill="white" stroke="#666666" points="507.75,-28.25 349.25,-28.25 349.25,-9 507.75,-9 507.75,-28.25"/>
<text text-anchor="middle" x="428.5" y="-14.75" font-family="Helvetica,sans-Serif" font-size="10.00">Nuki::NukiBle::cmdStateMachine</text>
</a>
</g>
</g>
<!-- Node2&#45;&gt;Node6 -->
<g id="edge6_Node000002_Node000006" class="edge">
<title>Node2&#45;&gt;Node6</title>
<g id="a_edge6_Node000002_Node000006"><a xlink:title=" ">
<path fill="none" stroke="#63b8ff" d="M292.43,-73.59C299.6,-71.41 306.72,-68.78 313.25,-65.62 331.5,-56.8 330.99,-46.43 349.25,-37.62 353.43,-35.61 357.84,-33.8 362.35,-32.17"/>
<polygon fill="#63b8ff" stroke="#63b8ff" points="363.14,-35.59 371.56,-29.16 360.97,-28.94 363.14,-35.59"/>
</a>
</g>
</g>
<!-- Node3&#45;&gt;Node4 -->
<g id="edge3_Node000003_Node000004" class="edge">
<title>Node3&#45;&gt;Node4</title>
<g id="a_edge3_Node000003_Node000004"><a xlink:title=" ">
<path fill="none" stroke="#63b8ff" d="M475.92,-131.89C502.43,-122.9 535.9,-111.56 564.04,-102.02"/>
<polygon fill="#63b8ff" stroke="#63b8ff" points="565.15,-105.34 573.49,-98.81 562.9,-98.71 565.15,-105.34"/>
</a>
</g>
</g>
<!-- Node5&#45;&gt;Node4 -->
<g id="edge5_Node000005_Node000004" class="edge">
<title>Node5&#45;&gt;Node4</title>
<g id="a_edge5_Node000005_Node000004"><a xlink:title=" ">
<path fill="none" stroke="#63b8ff" d="M500.63,-69.41C510.88,-70.54 521.54,-71.71 532.09,-72.86"/>
<polygon fill="#63b8ff" stroke="#63b8ff" points="531.65,-76.33 541.97,-73.94 532.41,-69.37 531.65,-76.33"/>
</a>
</g>
</g>
<!-- Node6&#45;&gt;Node4 -->
<g id="edge7_Node000006_Node000004" class="edge">
<title>Node6&#45;&gt;Node4</title>
<g id="a_edge7_Node000006_Node000004"><a xlink:title=" ">
<path fill="none" stroke="#63b8ff" d="M475.72,-28.72C486.32,-31.34 497.49,-34.36 507.75,-37.62 530.18,-44.76 554.51,-54.17 574.87,-62.54"/>
<polygon fill="#63b8ff" stroke="#63b8ff" points="573.45,-65.74 584.03,-66.35 576.14,-59.28 573.45,-65.74"/>
</a>
</g>
</g>
</g>
</svg>
