<?xml version="1.0" encoding="UTF-8" standalone="no"?>
<!DOCTYPE svg PUBLIC "-//W3C//DTD SVG 1.1//EN"
 "http://www.w3.org/Graphics/SVG/1.1/DTD/svg11.dtd">
<!-- Generated by graphviz version 5.0.1 (20220820.1526)
 -->
<!-- Title: Nuki::NukiBle::executeAction Pages: 1 -->
<svg width="407pt" height="186pt"
 viewBox="0.00 0.00 407.00 186.00" xmlns="http://www.w3.org/2000/svg" xmlns:xlink="http://www.w3.org/1999/xlink">
<g id="graph0" class="graph" transform="scale(1 1) rotate(0) translate(4 182)">
<title>Nuki::NukiBle::executeAction</title>
<!-- Node1 -->
<g id="node1" class="node">
<title>Node1</title>
<g id="a_node1"><a xlink:title=" ">
<polygon fill="#999999" stroke="#666666" points="171,-96.5 0,-96.5 0,-75.5 171,-75.5 171,-96.5"/>
<text text-anchor="middle" x="85.5" y="-82.9" font-family="Helvetica,sans-Serif" font-size="12.00">Nuki::NukiBle::executeAction</text>
</a>
</g>
</g>
<!-- Node2 -->
<g id="node2" class="node">
<title>Node2</title>
<g id="a_node2"><a xlink:href="class_nuki_1_1_nuki_ble.html#ada0f3beebd95d35c122e25dd3f9eb886" target="_top" xlink:title=" ">
<polygon fill="white" stroke="#666666" points="385,-178 221,-178 221,-144 385,-144 385,-178"/>
<text text-anchor="start" x="229" y="-164.4" font-family="Helvetica,sans-Serif" font-size="12.00">Nuki::NukiBle::cmdChallAcc</text>
<text text-anchor="middle" x="303" y="-151.4" font-family="Helvetica,sans-Serif" font-size="12.00">StateMachine</text>
</a>
</g>
</g>
<!-- Node1&#45;&gt;Node2 -->
<g id="edge1" class="edge">
<title>Node1&#45;&gt;Node2</title>
<path fill="none" stroke="#63b8ff" d="M110.19,-96.61C134.26,-107.16 172.78,-123.4 207,-135 213.06,-137.05 219.37,-139.06 225.74,-140.99"/>
<polygon fill="#63b8ff" stroke="#63b8ff" points="225.18,-144.48 235.77,-143.96 227.17,-137.77 225.18,-144.48"/>
</g>
<!-- Node3 -->
<g id="node3" class="node">
<title>Node3</title>
<g id="a_node3"><a xlink:href="class_nuki_1_1_nuki_ble.html#a59169a9f492793762e3c6ba39b611b07" target="_top" xlink:title=" ">
<polygon fill="white" stroke="#666666" points="389,-126 217,-126 217,-92 389,-92 389,-126"/>
<text text-anchor="start" x="225" y="-112.4" font-family="Helvetica,sans-Serif" font-size="12.00">Nuki::NukiBle::cmdChallState</text>
<text text-anchor="middle" x="303" y="-99.4" font-family="Helvetica,sans-Serif" font-size="12.00">Machine</text>
</a>
</g>
</g>
<!-- Node1&#45;&gt;Node3 -->
<g id="edge2" class="edge">
<title>Node1&#45;&gt;Node3</title>
<path fill="none" stroke="#63b8ff" d="M171.05,-95.02C182.84,-96.28 195.03,-97.58 206.99,-98.86"/>
<polygon fill="#63b8ff" stroke="#63b8ff" points="206.67,-102.35 216.98,-99.93 207.41,-95.38 206.67,-102.35"/>
</g>
<!-- Node4 -->
<g id="node4" class="node">
<title>Node4</title>
<g id="a_node4"><a xlink:href="class_nuki_1_1_nuki_ble.html#ad135bb1455665decfddff67772c1d411" target="_top" xlink:title=" ">
<polygon fill="white" stroke="#666666" points="399,-73.5 207,-73.5 207,-52.5 399,-52.5 399,-73.5"/>
<text text-anchor="middle" x="303" y="-59.9" font-family="Helvetica,sans-Serif" font-size="12.00">Nuki::NukiBle::cmdStateMachine</text>
</a>
</g>
</g>
<!-- Node1&#45;&gt;Node4 -->
<g id="edge3" class="edge">
<title>Node1&#45;&gt;Node4</title>
<path fill="none" stroke="#63b8ff" d="M171.05,-76.98C179.53,-76.07 188.2,-75.15 196.86,-74.22"/>
<polygon fill="#63b8ff" stroke="#63b8ff" points="197.42,-77.68 206.99,-73.14 196.68,-70.72 197.42,-77.68"/>
</g>
<!-- Node5 -->
<g id="node5" class="node">
<title>Node5</title>
<g id="a_node5"><a xlink:href="class_nuki_1_1_nuki_ble.html#aed01f10d1ffa769f0f6fadc0d06d328e" target="_top" xlink:title=" ">
<polygon fill="white" stroke="#666666" points="395.5,-34 210.5,-34 210.5,0 395.5,0 395.5,-34"/>
<text text-anchor="start" x="218.5" y="-20.4" font-family="Helvetica,sans-Serif" font-size="12.00">Nuki::NukiBle::extendDisonnect</text>
<text text-anchor="middle" x="303" y="-7.4" font-family="Helvetica,sans-Serif" font-size="12.00">Timeout</text>
</a>
</g>
</g>
<!-- Node1&#45;&gt;Node5 -->
<g id="edge4" class="edge">
<title>Node1&#45;&gt;Node5</title>
<path fill="none" stroke="#63b8ff" d="M115.56,-75.34C139.87,-66.54 175.52,-53.95 207,-44 214.56,-41.61 222.48,-39.21 230.39,-36.87"/>
<polygon fill="#63b8ff" stroke="#63b8ff" points="231.4,-40.22 240.01,-34.05 229.43,-33.5 231.4,-40.22"/>
</g>
</g>
</svg>
