<?xml version="1.0" encoding="UTF-8" standalone="no"?>
<!DOCTYPE svg PUBLIC "-//W3C//DTD SVG 1.1//EN"
 "http://www.w3.org/Graphics/SVG/1.1/DTD/svg11.dtd">
<!-- Generated by graphviz version 7.0.1 (20221109.1506)
 -->
<!-- Title: NukiOpener::NukiOpener Pages: 1 -->
<svg width="248pt" height="137pt"
 viewBox="0.00 0.00 247.50 137.00" xmlns="http://www.w3.org/2000/svg" xmlns:xlink="http://www.w3.org/1999/xlink">
<g id="graph0" class="graph" transform="scale(1 1) rotate(0) translate(4 133)">
<title>NukiOpener::NukiOpener</title>
<!-- Node1 -->
<g id="node1" class="node">
<title>Node1</title>
<g id="a_node1"><a xlink:title=" ">
<polygon fill="#999999" stroke="#666666" points="178,-19 53,-19 53,0 178,0 178,-19"/>
<text text-anchor="middle" x="115.5" y="-7" font-family="Helvetica,sans-Serif" font-size="10.00">NukiOpener::NukiOpener</text>
</a>
</g>
</g>
<!-- Node2 -->
<g id="node2" class="node">
<title>Node2</title>
<g id="a_node2"><a xlink:href="class_nuki_1_1_nuki_ble.html" target="_top" xlink:title=" ">
<polygon fill="white" stroke="#666666" points="153.5,-74 77.5,-74 77.5,-55 153.5,-55 153.5,-74"/>
<text text-anchor="middle" x="115.5" y="-62" font-family="Helvetica,sans-Serif" font-size="10.00">Nuki::NukiBle</text>
</a>
</g>
</g>
<!-- Node2&#45;&gt;Node1 -->
<g id="edge1" class="edge">
<title>Node2&#45;&gt;Node1</title>
<path fill="none" stroke="#63b8ff" d="M115.5,-43.35C115.5,-35.1 115.5,-25.97 115.5,-19.44"/>
<polygon fill="#63b8ff" stroke="#63b8ff" points="112,-43.23 115.5,-53.23 119,-43.23 112,-43.23"/>
</g>
<!-- Node3 -->
<g id="node3" class="node">
<title>Node3</title>
<g id="a_node3"><a xlink:title=" ">
<polygon fill="white" stroke="#666666" points="103,-129 0,-129 0,-110 103,-110 103,-129"/>
<text text-anchor="middle" x="51.5" y="-117" font-family="Helvetica,sans-Serif" font-size="10.00">BLEClientCallbacks</text>
</a>
</g>
</g>
<!-- Node3&#45;&gt;Node2 -->
<g id="edge2" class="edge">
<title>Node3&#45;&gt;Node2</title>
<path fill="none" stroke="#63b8ff" d="M70.98,-102.37C82.1,-93.16 95.6,-81.98 104.8,-74.36"/>
<polygon fill="#63b8ff" stroke="#63b8ff" points="68.99,-99.47 63.52,-108.54 73.46,-104.86 68.99,-99.47"/>
</g>
<!-- Node4 -->
<g id="node4" class="node">
<title>Node4</title>
<g id="a_node4"><a xlink:title=" ">
<polygon fill="white" stroke="#666666" points="239.5,-129 121.5,-129 121.5,-110 239.5,-110 239.5,-129"/>
<text text-anchor="middle" x="180.5" y="-117" font-family="Helvetica,sans-Serif" font-size="10.00">BleScanner::Subscriber</text>
</a>
</g>
</g>
<!-- Node4&#45;&gt;Node2 -->
<g id="edge3" class="edge">
<title>Node4&#45;&gt;Node2</title>
<path fill="none" stroke="#63b8ff" d="M160.71,-102.37C149.42,-93.16 135.71,-81.98 126.36,-74.36"/>
<polygon fill="#63b8ff" stroke="#63b8ff" points="158.34,-104.95 168.3,-108.55 162.76,-99.52 158.34,-104.95"/>
</g>
</g>
</svg>
