<?xml version="1.0" encoding="UTF-8" standalone="no"?>
<!DOCTYPE svg PUBLIC "-//W3C//DTD SVG 1.1//EN"
 "http://www.w3.org/Graphics/SVG/1.1/DTD/svg11.dtd">
<!-- Generated by graphviz version 12.2.1 (20241206.2353)
 -->
<!-- Title: NukiLock::NukiLock::handleReturnMessage Pages: 1 -->
<!--zoomable 753 -->

<svg id="main" version="1.1" xmlns="http://www.w3.org/2000/svg" xmlns:xlink="http://www.w3.org/1999/xlink" xml:space="preserve" onload="init(evt)">

<style type="text/css"><![CDATA[
.node, .edge {opacity: 0.7;}
.node.selected, .edge.selected {opacity: 1;}
.edge:hover path { stroke: red; }
.edge:hover polygon { stroke: red; fill: red; }
]]></style>

<defs>
  <circle id="rim" cx="0" cy="0" r="7"/>
  <circle id="rim2" cx="0" cy="0" r="3.5"/>
  <g id="zoomPlus">
    <use xlink:href="#rim" fill="#404040"><set attributeName="fill" to="#808080" begin="zoomplus.mouseover" end="zoomplus.mouseout"/></use>
    <path d="M-4,0h8M0,-4v8" fill="none" stroke="white" stroke-width="1.5" pointer-events="none"/>
  </g>
  <g id="zoomMin">
    <use xlink:href="#rim" fill="#404040"><set attributeName="fill" to="#808080" begin="zoomminus.mouseover" end="zoomminus.mouseout"/></use>
    <path d="M-4,0h8" fill="none" stroke="white" stroke-width="1.5" pointer-events="none"/>
  </g>
  <g id="arrowUp" transform="translate(30 24)">
    <use xlink:href="#rim"/>
    <path pointer-events="none" fill="none" stroke="white" stroke-width="1.5" d="M0,-3.0v7 M-2.5,-0.5L0,-3.0L2.5,-0.5"/>
  </g>
  <g id="arrowRight" transform="rotate(90) translate(36 -43)">
    <use xlink:href="#rim"/>
    <path pointer-events="none" fill="none" stroke="white" stroke-width="1.5" d="M0,-3.0v7 M-2.5,-0.5L0,-3.0L2.5,-0.5"/>
  </g>
  <g id="arrowDown" transform="rotate(180) translate(-30 -48)">
    <use xlink:href="#rim"/>
    <path pointer-events="none" fill="none" stroke="white" stroke-width="1.5" d="M0,-3.0v7 M-2.5,-0.5L0,-3.0L2.5,-0.5"/>
  </g>
  <g id="arrowLeft" transform="rotate(270) translate(-36 17)">
    <use xlink:href="#rim"/>
    <path pointer-events="none" fill="none" stroke="white" stroke-width="1.5" d="M0,-3.0v7 M-2.5,-0.5L0,-3.0L2.5,-0.5"/>
  </g>
  <g id="resetDef">
    <use xlink:href="#rim2" fill="#404040"><set attributeName="fill" to="#808080" begin="reset.mouseover" end="reset.mouseout"/></use>
  </g>
</defs>
<script type="application/ecmascript">
var viewWidth = 658;
var viewHeight = 753;
var sectionId = 'dynsection-22';
</script>
<script type="application/ecmascript" xlink:href="svg.min.js"/>
<svg id="graph" class="graph">
<g id="viewport">
<title>NukiLock::NukiLock::handleReturnMessage</title>
<!-- Node1 -->
<g id="Node000001" class="node">
<title>Node1</title>
<g id="a_Node000001"><a xlink:title=" ">
<polygon fill="#999999" stroke="#666666" points="117.25,-387.88 0,-387.88 0,-357.38 117.25,-357.38 117.25,-387.88"/>
<text text-anchor="start" x="8" y="-374.38" font-family="Helvetica,sans-Serif" font-size="10.00">NukiLock::NukiLock</text>
<text text-anchor="middle" x="58.62" y="-363.12" font-family="Helvetica,sans-Serif" font-size="10.00">::handleReturnMessage</text>
</a>
</g>
</g>
<!-- Node2 -->
<g id="Node000002" class="node">
<title>Node2</title>
<g id="a_Node000002"><a xlink:href="class_nuki_1_1_nuki_ble.html#a6e8fca90c04249660dce6cb993eb4495" target="_top" xlink:title=" ">
<polygon fill="white" stroke="#666666" points="310.25,-744.88 153.25,-744.88 153.25,-714.38 310.25,-714.38 310.25,-744.88"/>
<text text-anchor="start" x="161.25" y="-731.38" font-family="Helvetica,sans-Serif" font-size="10.00">Nuki::NukiBle::extendDisconnect</text>
<text text-anchor="middle" x="231.75" y="-720.12" font-family="Helvetica,sans-Serif" font-size="10.00">Timeout</text>
</a>
</g>
</g>
<!-- Node1&#45;&gt;Node2 -->
<g id="edge1_Node000001_Node000002" class="edge">
<title>Node1&#45;&gt;Node2</title>
<g id="a_edge1_Node000001_Node000002"><a xlink:title=" ">
<path fill="none" stroke="#63b8ff" d="M59.19,-388.31C58.6,-440.75 63.91,-611.9 153.25,-704.62 154.13,-705.54 155.05,-706.42 156,-707.27"/>
<polygon fill="#63b8ff" stroke="#63b8ff" points="153.9,-710.07 164.02,-713.19 158.05,-704.44 153.9,-710.07"/>
</a>
</g>
</g>
<!-- Node3 -->
<g id="Node000003" class="node">
<title>Node3</title>
<g id="a_Node000003"><a xlink:href="class_nuki_1_1_nuki_ble.html#ac2e28f07ed0a738f73c5f77b46cdb1bb" target="_top" xlink:title=" ">
<polygon fill="white" stroke="#666666" points="300.12,-695.88 163.38,-695.88 163.38,-665.38 300.12,-665.38 300.12,-695.88"/>
<text text-anchor="start" x="171.38" y="-682.38" font-family="Helvetica,sans-Serif" font-size="10.00">Nuki::NukiBle::handleReturn</text>
<text text-anchor="middle" x="231.75" y="-671.12" font-family="Helvetica,sans-Serif" font-size="10.00">Message</text>
</a>
</g>
</g>
<!-- Node1&#45;&gt;Node3 -->
<g id="edge2_Node000001_Node000003" class="edge">
<title>Node1&#45;&gt;Node3</title>
<g id="a_edge2_Node000001_Node000003"><a xlink:title=" ">
<path fill="none" stroke="#63b8ff" d="M60.01,-388.08C62.05,-435.35 74.72,-579.51 153.25,-656.62 153.75,-657.12 154.26,-657.6 154.79,-658.08"/>
<polygon fill="#63b8ff" stroke="#63b8ff" points="152.64,-660.84 162.75,-664.01 156.82,-655.23 152.64,-660.84"/>
</a>
</g>
</g>
<!-- Node4 -->
<g id="Node000004" class="node">
<title>Node4</title>
<g id="a_Node000004"><a xlink:href="namespace_nuki_lock.html#ae6f2eea44b7b0c3aec6503dea0b19df4" target="_top" xlink:title=" ">
<polygon fill="white" stroke="#666666" points="300.5,-610.25 163,-610.25 163,-591 300.5,-591 300.5,-610.25"/>
<text text-anchor="middle" x="231.75" y="-596.75" font-family="Helvetica,sans-Serif" font-size="10.00">NukiLock::logAccessoryInfo</text>
</a>
</g>
</g>
<!-- Node1&#45;&gt;Node4 -->
<g id="edge3_Node000001_Node000004" class="edge">
<title>Node1&#45;&gt;Node4</title>
<g id="a_edge3_Node000001_Node000004"><a xlink:title=" ">
<path fill="none" stroke="#63b8ff" d="M61.78,-388.11C68.06,-427.21 90.13,-530.55 153.25,-582.62 154.21,-583.42 155.2,-584.17 156.21,-584.9"/>
<polygon fill="#63b8ff" stroke="#63b8ff" points="154.22,-587.79 164.61,-589.84 157.76,-581.75 154.22,-587.79"/>
</a>
</g>
</g>
<!-- Node6 -->
<g id="Node000006" class="node">
<title>Node6</title>
<g id="a_Node000006"><a xlink:href="namespace_nuki_lock.html#a03e673a769ecefb4c006f70b6f00b190" target="_top" xlink:title=" ">
<polygon fill="white" stroke="#666666" points="304.62,-573.25 158.88,-573.25 158.88,-554 304.62,-554 304.62,-573.25"/>
<text text-anchor="middle" x="231.75" y="-559.75" font-family="Helvetica,sans-Serif" font-size="10.00">NukiLock::logAdvancedConfig</text>
</a>
</g>
</g>
<!-- Node1&#45;&gt;Node6 -->
<g id="edge5_Node000001_Node000006" class="edge">
<title>Node1&#45;&gt;Node6</title>
<g id="a_edge5_Node000001_Node000006"><a xlink:title=" ">
<path fill="none" stroke="#63b8ff" d="M63.38,-388.15C72.48,-422.33 99.07,-504.31 153.25,-545.62 154.42,-546.52 155.63,-547.37 156.88,-548.18"/>
<polygon fill="#63b8ff" stroke="#63b8ff" points="155.15,-551.23 165.61,-552.9 158.48,-545.07 155.15,-551.23"/>
</a>
</g>
</g>
<!-- Node7 -->
<g id="Node000007" class="node">
<title>Node7</title>
<g id="a_Node000007"><a xlink:href="namespace_nuki_lock.html#add2fab4b3c435a5bdbac6100ab0bbc42" target="_top" xlink:title=" ">
<polygon fill="white" stroke="#666666" points="299,-536.25 164.5,-536.25 164.5,-517 299,-517 299,-536.25"/>
<text text-anchor="middle" x="231.75" y="-522.75" font-family="Helvetica,sans-Serif" font-size="10.00">NukiLock::logBatteryReport</text>
</a>
</g>
</g>
<!-- Node1&#45;&gt;Node7 -->
<g id="edge7_Node000001_Node000007" class="edge">
<title>Node1&#45;&gt;Node7</title>
<g id="a_edge7_Node000001_Node000007"><a xlink:title=" ">
<path fill="none" stroke="#63b8ff" d="M65.73,-388.06C77.84,-416.63 107.77,-477.64 153.25,-508.62 154.86,-509.72 156.53,-510.75 158.24,-511.72"/>
<polygon fill="#63b8ff" stroke="#63b8ff" points="156.58,-514.81 167.11,-515.96 159.6,-508.49 156.58,-514.81"/>
</a>
</g>
</g>
<!-- Node8 -->
<g id="Node000008" class="node">
<title>Node8</title>
<g id="a_Node000008"><a xlink:href="namespace_nuki_lock.html#ab086ceeda3d1303bb71b60d978ef3467" target="_top" xlink:title=" ">
<polygon fill="white" stroke="#666666" points="282.88,-647.25 180.62,-647.25 180.62,-628 282.88,-628 282.88,-647.25"/>
<text text-anchor="middle" x="231.75" y="-633.75" font-family="Helvetica,sans-Serif" font-size="10.00">NukiLock::logConfig</text>
</a>
</g>
</g>
<!-- Node1&#45;&gt;Node8 -->
<g id="edge9_Node000001_Node000008" class="edge">
<title>Node1&#45;&gt;Node8</title>
<g id="a_edge9_Node000001_Node000008"><a xlink:title=" ">
<path fill="none" stroke="#63b8ff" d="M60.64,-388.17C64.35,-431.83 81.09,-556.55 153.25,-619.62 157.99,-623.77 163.51,-627.01 169.37,-629.54"/>
<polygon fill="#63b8ff" stroke="#63b8ff" points="168.18,-632.83 178.77,-632.85 170.5,-626.23 168.18,-632.83"/>
</a>
</g>
</g>
<!-- Node10 -->
<g id="Node000010" class="node">
<title>Node10</title>
<g id="a_Node000010"><a xlink:href="namespace_nuki_lock.html#a0659754539ebef743ae133a389b739c3" target="_top" xlink:title=" ">
<polygon fill="white" stroke="#666666" points="300.5,-499.25 163,-499.25 163,-480 300.5,-480 300.5,-499.25"/>
<text text-anchor="middle" x="231.75" y="-485.75" font-family="Helvetica,sans-Serif" font-size="10.00">NukiLock::logDailyStatistics</text>
</a>
</g>
</g>
<!-- Node1&#45;&gt;Node10 -->
<g id="edge12_Node000001_Node000010" class="edge">
<title>Node1&#45;&gt;Node10</title>
<g id="a_edge12_Node000001_Node000010"><a xlink:title=" ">
<path fill="none" stroke="#63b8ff" d="M69.71,-388.02C85.03,-410.1 116.31,-450.44 153.25,-471.62 155.58,-472.96 157.99,-474.19 160.48,-475.34"/>
<polygon fill="#63b8ff" stroke="#63b8ff" points="158.99,-478.51 169.58,-478.98 161.6,-472.01 158.99,-478.51"/>
</a>
</g>
</g>
<!-- Node11 -->
<g id="Node000011" class="node">
<title>Node11</title>
<g id="a_Node000011"><a xlink:href="namespace_nuki_lock.html#afcc8a7199c54768221d0f0cb31a13a58" target="_top" xlink:title=" ">
<polygon fill="white" stroke="#666666" points="308.38,-462.25 155.12,-462.25 155.12,-443 308.38,-443 308.38,-462.25"/>
<text text-anchor="middle" x="231.75" y="-448.75" font-family="Helvetica,sans-Serif" font-size="10.00">NukiLock::logDoorSensorConfig</text>
</a>
</g>
</g>
<!-- Node1&#45;&gt;Node11 -->
<g id="edge14_Node000001_Node000011" class="edge">
<title>Node1&#45;&gt;Node11</title>
<g id="a_edge14_Node000001_Node000011"><a xlink:title=" ">
<path fill="none" stroke="#63b8ff" d="M78.54,-388.11C96.66,-402.21 125.32,-422.6 153.25,-434.62 157.09,-436.28 161.11,-437.79 165.21,-439.18"/>
<polygon fill="#63b8ff" stroke="#63b8ff" points="164.14,-442.51 174.73,-442.1 166.2,-435.82 164.14,-442.51"/>
</a>
</g>
</g>
<!-- Node12 -->
<g id="Node000012" class="node">
<title>Node12</title>
<g id="a_Node000012"><a xlink:href="namespace_nuki_lock.html#a4b3a6de8193c5deb6641fe1cb343e950" target="_top" xlink:title=" ">
<polygon fill="white" stroke="#666666" points="306.88,-425.25 156.62,-425.25 156.62,-406 306.88,-406 306.88,-425.25"/>
<text text-anchor="middle" x="231.75" y="-411.75" font-family="Helvetica,sans-Serif" font-size="10.00">NukiLock::logGeneralStatistics</text>
</a>
</g>
</g>
<!-- Node1&#45;&gt;Node12 -->
<g id="edge16_Node000001_Node000012" class="edge">
<title>Node1&#45;&gt;Node12</title>
<g id="a_edge16_Node000001_Node000012"><a xlink:title=" ">
<path fill="none" stroke="#63b8ff" d="M117.54,-387.57C129.35,-390.59 141.69,-393.73 153.25,-396.62 161.29,-398.64 169.8,-400.75 178.13,-402.8"/>
<polygon fill="#63b8ff" stroke="#63b8ff" points="177.29,-406.2 187.83,-405.19 178.96,-399.4 177.29,-406.2"/>
</a>
</g>
</g>
<!-- Node13 -->
<g id="Node000013" class="node">
<title>Node13</title>
<g id="a_Node000013"><a xlink:href="namespace_nuki_lock.html#a53c9585bb1e4f213e3080fc73bb7b336" target="_top" xlink:title=" ">
<polygon fill="white" stroke="#666666" points="293.75,-387.88 169.75,-387.88 169.75,-357.38 293.75,-357.38 293.75,-387.88"/>
<text text-anchor="start" x="177.75" y="-374.38" font-family="Helvetica,sans-Serif" font-size="10.00">NukiLock::logInternalLog</text>
<text text-anchor="middle" x="231.75" y="-363.12" font-family="Helvetica,sans-Serif" font-size="10.00">Entry</text>
</a>
</g>
</g>
<!-- Node1&#45;&gt;Node13 -->
<g id="edge18_Node000001_Node000013" class="edge">
<title>Node1&#45;&gt;Node13</title>
<g id="a_edge18_Node000001_Node000013"><a xlink:title=" ">
<path fill="none" stroke="#63b8ff" d="M117.56,-372.62C130.59,-372.62 144.58,-372.62 158.12,-372.62"/>
<polygon fill="#63b8ff" stroke="#63b8ff" points="157.85,-376.13 167.85,-372.63 157.85,-369.13 157.85,-376.13"/>
</a>
</g>
</g>
<!-- Node14 -->
<g id="Node000014" class="node">
<title>Node14</title>
<g id="a_Node000014"><a xlink:href="namespace_nuki_lock.html#a27efa02919578c828e2b38e33a22401a" target="_top" xlink:title=" ">
<polygon fill="white" stroke="#666666" points="301.62,-339.25 161.88,-339.25 161.88,-320 301.62,-320 301.62,-339.25"/>
<text text-anchor="middle" x="231.75" y="-325.75" font-family="Helvetica,sans-Serif" font-size="10.00">NukiLock::logKeypad2Config</text>
</a>
</g>
</g>
<!-- Node1&#45;&gt;Node14 -->
<g id="edge20_Node000001_Node000014" class="edge">
<title>Node1&#45;&gt;Node14</title>
<g id="a_edge20_Node000001_Node000014"><a xlink:title=" ">
<path fill="none" stroke="#63b8ff" d="M117.54,-357.68C129.35,-354.66 141.69,-351.52 153.25,-348.62 161.29,-346.61 169.8,-344.5 178.13,-342.45"/>
<polygon fill="#63b8ff" stroke="#63b8ff" points="178.96,-345.85 187.83,-340.06 177.29,-339.05 178.96,-345.85"/>
</a>
</g>
</g>
<!-- Node15 -->
<g id="Node000015" class="node">
<title>Node15</title>
<g id="a_Node000015"><a xlink:href="namespace_nuki_lock.html#ab1986f14b91343876f9fb360da901791" target="_top" xlink:title=" ">
<polygon fill="white" stroke="#666666" points="301.62,-93.25 161.88,-93.25 161.88,-74 301.62,-74 301.62,-93.25"/>
<text text-anchor="middle" x="231.75" y="-79.75" font-family="Helvetica,sans-Serif" font-size="10.00">NukiLock::logKeyturnerState</text>
</a>
</g>
</g>
<!-- Node1&#45;&gt;Node15 -->
<g id="edge22_Node000001_Node000015" class="edge">
<title>Node1&#45;&gt;Node15</title>
<g id="a_edge22_Node000001_Node000015"><a xlink:title=" ">
<path fill="none" stroke="#63b8ff" d="M60.05,-356.96C62.21,-310.44 75.21,-171.92 153.25,-101.62 153.9,-101.04 154.57,-100.46 155.26,-99.91"/>
<polygon fill="#63b8ff" stroke="#63b8ff" points="157.12,-102.88 163.59,-94.49 153.3,-97.01 157.12,-102.88"/>
</a>
</g>
</g>
<!-- Node19 -->
<g id="Node000019" class="node">
<title>Node19</title>
<g id="a_Node000019"><a xlink:href="namespace_nuki_lock.html#a6dc562c3f2e49e34b447de8ba53e64bf" target="_top" xlink:title=" ">
<polygon fill="white" stroke="#666666" points="288.5,-56.25 175,-56.25 175,-37 288.5,-37 288.5,-56.25"/>
<text text-anchor="middle" x="231.75" y="-42.75" font-family="Helvetica,sans-Serif" font-size="10.00">NukiLock::logLogEntry</text>
</a>
</g>
</g>
<!-- Node1&#45;&gt;Node19 -->
<g id="edge30_Node000001_Node000019" class="edge">
<title>Node1&#45;&gt;Node19</title>
<g id="a_edge30_Node000001_Node000019"><a xlink:title=" ">
<path fill="none" stroke="#63b8ff" d="M59.3,-357.07C59.16,-306.66 65.9,-146.32 153.25,-64.62 156.56,-61.53 160.3,-58.93 164.29,-56.75"/>
<polygon fill="#63b8ff" stroke="#63b8ff" points="165.55,-60.02 173.29,-52.78 162.72,-53.62 165.55,-60.02"/>
</a>
</g>
</g>
<!-- Node20 -->
<g id="Node000020" class="node">
<title>Node20</title>
<g id="a_Node000020"><a xlink:href="namespace_nuki_lock.html#a56a27350fc787c0f4a12396524a8cbcd" target="_top" xlink:title=" ">
<polygon fill="white" stroke="#666666" points="292.62,-302.25 170.88,-302.25 170.88,-283 292.62,-283 292.62,-302.25"/>
<text text-anchor="middle" x="231.75" y="-288.75" font-family="Helvetica,sans-Serif" font-size="10.00">NukiLock::logMqttConfig</text>
</a>
</g>
</g>
<!-- Node1&#45;&gt;Node20 -->
<g id="edge36_Node000001_Node000020" class="edge">
<title>Node1&#45;&gt;Node20</title>
<g id="a_edge36_Node000001_Node000020"><a xlink:title=" ">
<path fill="none" stroke="#63b8ff" d="M78.54,-357.14C96.66,-343.04 125.32,-322.65 153.25,-310.62 157.09,-308.97 161.11,-307.46 165.21,-306.07"/>
<polygon fill="#63b8ff" stroke="#63b8ff" points="166.2,-309.43 174.73,-303.15 164.14,-302.74 166.2,-309.43"/>
</a>
</g>
</g>
<!-- Node21 -->
<g id="Node000021" class="node">
<title>Node21</title>
<g id="a_Node000021"><a xlink:href="namespace_nuki_lock.html#abce0d5f498469d62d720684186b6b913" target="_top" xlink:title=" ">
<polygon fill="white" stroke="#666666" points="299.75,-264.88 163.75,-264.88 163.75,-234.38 299.75,-234.38 299.75,-264.88"/>
<text text-anchor="start" x="171.75" y="-251.38" font-family="Helvetica,sans-Serif" font-size="10.00">NukiLock::logMqttConfigFor</text>
<text text-anchor="middle" x="231.75" y="-240.12" font-family="Helvetica,sans-Serif" font-size="10.00">Migration</text>
</a>
</g>
</g>
<!-- Node1&#45;&gt;Node21 -->
<g id="edge38_Node000001_Node000021" class="edge">
<title>Node1&#45;&gt;Node21</title>
<g id="a_edge38_Node000001_Node000021"><a xlink:title=" ">
<path fill="none" stroke="#63b8ff" d="M70.18,-357.22C85.85,-335.49 117.3,-296 153.25,-273.62 155.13,-272.45 157.08,-271.33 159.07,-270.27"/>
<polygon fill="#63b8ff" stroke="#63b8ff" points="160.48,-273.47 167.99,-266 157.46,-267.16 160.48,-273.47"/>
</a>
</g>
</g>
<!-- Node22 -->
<g id="Node000022" class="node">
<title>Node22</title>
<g id="a_Node000022"><a xlink:href="namespace_nuki_lock.html#ad3c99cdbe4ca103480e416cd3cbdf57e" target="_top" xlink:title=" ">
<polygon fill="white" stroke="#666666" points="290.75,-216.25 172.75,-216.25 172.75,-197 290.75,-197 290.75,-216.25"/>
<text text-anchor="middle" x="231.75" y="-202.75" font-family="Helvetica,sans-Serif" font-size="10.00">NukiLock::logWifiConfig</text>
</a>
</g>
</g>
<!-- Node1&#45;&gt;Node22 -->
<g id="edge40_Node000001_Node000022" class="edge">
<title>Node1&#45;&gt;Node22</title>
<g id="a_edge40_Node000001_Node000022"><a xlink:title=" ">
<path fill="none" stroke="#63b8ff" d="M65.05,-356.95C76.38,-326.61 105.55,-259.83 153.25,-225.62 155.94,-223.7 158.81,-221.96 161.79,-220.4"/>
<polygon fill="#63b8ff" stroke="#63b8ff" points="163.19,-223.61 170.91,-216.36 160.35,-217.21 163.19,-223.61"/>
</a>
</g>
</g>
<!-- Node23 -->
<g id="Node000023" class="node">
<title>Node23</title>
<g id="a_Node000023"><a xlink:href="namespace_nuki_lock.html#aaa6d14f45ca4120780f3ceff1e1639a3" target="_top" xlink:title=" ">
<polygon fill="white" stroke="#666666" points="297.88,-178.88 165.62,-178.88 165.62,-148.38 297.88,-148.38 297.88,-178.88"/>
<text text-anchor="start" x="173.62" y="-165.38" font-family="Helvetica,sans-Serif" font-size="10.00">NukiLock::logWifiConfigFor</text>
<text text-anchor="middle" x="231.75" y="-154.12" font-family="Helvetica,sans-Serif" font-size="10.00">Migration</text>
</a>
</g>
</g>
<!-- Node1&#45;&gt;Node23 -->
<g id="edge42_Node000001_Node000023" class="edge">
<title>Node1&#45;&gt;Node23</title>
<g id="a_edge42_Node000001_Node000023"><a xlink:title=" ">
<path fill="none" stroke="#63b8ff" d="M63.14,-356.88C71.91,-321.3 98.11,-234.19 153.25,-187.62 154.19,-186.83 155.16,-186.06 156.15,-185.32"/>
<polygon fill="#63b8ff" stroke="#63b8ff" points="157.79,-188.42 164.34,-180.1 154.03,-182.52 157.79,-188.42"/>
</a>
</g>
</g>
<!-- Node24 -->
<g id="Node000024" class="node">
<title>Node24</title>
<g id="a_Node000024"><a xlink:href="namespace_nuki_lock.html#a42c0a3b31d4302c5f07c10f1ffa4ab97" target="_top" xlink:title=" ">
<polygon fill="white" stroke="#666666" points="299.38,-130.25 164.12,-130.25 164.12,-111 299.38,-111 299.38,-130.25"/>
<text text-anchor="middle" x="231.75" y="-116.75" font-family="Helvetica,sans-Serif" font-size="10.00">NukiLock::logWifiScanEntry</text>
</a>
</g>
</g>
<!-- Node1&#45;&gt;Node24 -->
<g id="edge44_Node000001_Node000024" class="edge">
<title>Node1&#45;&gt;Node24</title>
<g id="a_edge44_Node000001_Node000024"><a xlink:title=" ">
<path fill="none" stroke="#63b8ff" d="M61.08,-357.09C65.85,-315.16 84.92,-198.9 153.25,-139.62 154.56,-138.49 155.92,-137.42 157.34,-136.41"/>
<polygon fill="#63b8ff" stroke="#63b8ff" points="159.09,-139.44 165.97,-131.39 155.56,-133.4 159.09,-139.44"/>
</a>
</g>
</g>
<!-- Node25 -->
<g id="Node000025" class="node">
<title>Node25</title>
<g id="a_Node000025"><a xlink:href="namespace_nuki.html#a438fdfcef9f81eb0a3e493631b71ca5b" target="_top" xlink:title=" ">
<polygon fill="white" stroke="#666666" points="274.25,-19.25 189.25,-19.25 189.25,0 274.25,0 274.25,-19.25"/>
<text text-anchor="middle" x="231.75" y="-5.75" font-family="Helvetica,sans-Serif" font-size="10.00">Nuki::printBuffer</text>
</a>
</g>
</g>
<!-- Node1&#45;&gt;Node25 -->
<g id="edge46_Node000001_Node000025" class="edge">
<title>Node1&#45;&gt;Node25</title>
<g id="a_edge46_Node000001_Node000025"><a xlink:title=" ">
<path fill="none" stroke="#63b8ff" d="M61.74,-356.89C70.28,-295.74 104.1,-75 153.25,-27.62 160.04,-21.08 168.71,-16.75 177.79,-13.91"/>
<polygon fill="#63b8ff" stroke="#63b8ff" points="178.63,-17.31 187.49,-11.51 176.94,-10.52 178.63,-17.31"/>
</a>
</g>
</g>
<!-- Node5 -->
<g id="Node000005" class="node">
<title>Node5</title>
<g id="a_Node000005"><a xlink:href="namespace_nuki_lock.html#af6ebff0f8c6c0cb27a927a440812c02a" target="_top" xlink:title=" ">
<polygon fill="white" stroke="#666666" points="487.5,-360.25 357.5,-360.25 357.5,-341 487.5,-341 487.5,-360.25"/>
<text text-anchor="middle" x="422.5" y="-346.75" font-family="Helvetica,sans-Serif" font-size="10.00">NukiLock::logMessageVar</text>
</a>
</g>
</g>
<!-- Node4&#45;&gt;Node5 -->
<g id="edge4_Node000004_Node000005" class="edge">
<title>Node4&#45;&gt;Node5</title>
<g id="a_edge4_Node000004_Node000005"><a xlink:title=" ">
<path fill="none" stroke="#63b8ff" d="M297.11,-590.66C301.81,-588.47 306.26,-585.82 310.25,-582.62 312.53,-580.79 385.63,-426.5 412.07,-370.58"/>
<polygon fill="#63b8ff" stroke="#63b8ff" points="415.08,-372.41 416.19,-361.87 408.75,-369.42 415.08,-372.41"/>
</a>
</g>
</g>
<!-- Node6&#45;&gt;Node5 -->
<g id="edge6_Node000006_Node000005" class="edge">
<title>Node6&#45;&gt;Node5</title>
<g id="a_edge6_Node000006_Node000005"><a xlink:title=" ">
<path fill="none" stroke="#63b8ff" d="M296.48,-553.52C301.37,-551.36 306.04,-548.76 310.25,-545.62 341.59,-522.28 392.1,-415.84 412.51,-370.83"/>
<polygon fill="#63b8ff" stroke="#63b8ff" points="415.6,-372.5 416.51,-361.94 409.21,-369.63 415.6,-372.5"/>
</a>
</g>
</g>
<!-- Node7&#45;&gt;Node5 -->
<g id="edge8_Node000007_Node000005" class="edge">
<title>Node7&#45;&gt;Node5</title>
<g id="a_edge8_Node000007_Node000005"><a xlink:title=" ">
<path fill="none" stroke="#63b8ff" d="M294.98,-516.56C300.37,-514.4 305.55,-511.79 310.25,-508.62 362.5,-473.43 397.95,-404.86 413.14,-370.81"/>
<polygon fill="#63b8ff" stroke="#63b8ff" points="416.16,-372.64 416.91,-362.08 409.73,-369.87 416.16,-372.64"/>
</a>
</g>
</g>
<!-- Node8&#45;&gt;Node5 -->
<g id="edge11_Node000008_Node000005" class="edge">
<title>Node8&#45;&gt;Node5</title>
<g id="a_edge11_Node000008_Node000005"><a xlink:title=" ">
<path fill="none" stroke="#63b8ff" d="M283.14,-633.73C293.05,-630.94 302.71,-626.53 310.25,-619.62 348.19,-584.89 327.21,-557.41 346.25,-509.62 366.7,-458.31 395.82,-400.12 411.15,-370.4"/>
<polygon fill="#63b8ff" stroke="#63b8ff" points="414.1,-372.31 415.6,-361.82 407.89,-369.08 414.1,-372.31"/>
</a>
</g>
</g>
<!-- Node9 -->
<g id="Node000009" class="node">
<title>Node9</title>
<g id="a_Node000009"><a xlink:href="namespace_nuki_lock.html#a1c4b22e22d81b2258bb6f2ce1e1f7d6f" target="_top" xlink:title=" ">
<polygon fill="white" stroke="#666666" points="649.75,-93.25 534.75,-93.25 534.75,-74 649.75,-74 649.75,-93.25"/>
<text text-anchor="middle" x="592.25" y="-79.75" font-family="Helvetica,sans-Serif" font-size="10.00">NukiLock::logMessage</text>
</a>
</g>
</g>
<!-- Node8&#45;&gt;Node9 -->
<g id="edge10_Node000008_Node000009" class="edge">
<title>Node8&#45;&gt;Node9</title>
<g id="a_edge10_Node000008_Node000009"><a xlink:title=" ">
<path fill="none" stroke="#63b8ff" d="M283.2,-631.27C292.68,-628.63 302.14,-624.9 310.25,-619.62 426.92,-543.77 434.56,-493.09 498.75,-369.62 547.03,-276.75 576.44,-153.84 586.91,-104.98"/>
<polygon fill="#63b8ff" stroke="#63b8ff" points="590.33,-105.71 588.95,-95.21 583.48,-104.28 590.33,-105.71"/>
</a>
</g>
</g>
<!-- Node10&#45;&gt;Node5 -->
<g id="edge13_Node000010_Node000005" class="edge">
<title>Node10&#45;&gt;Node5</title>
<g id="a_edge13_Node000010_Node000005"><a xlink:title=" ">
<path fill="none" stroke="#63b8ff" d="M292.56,-479.62C298.74,-477.46 304.76,-474.82 310.25,-471.62 354.21,-446 390.91,-397.36 409.13,-370.2"/>
<polygon fill="#63b8ff" stroke="#63b8ff" points="412.02,-372.18 414.56,-361.9 406.16,-368.36 412.02,-372.18"/>
</a>
</g>
</g>
<!-- Node11&#45;&gt;Node5 -->
<g id="edge15_Node000011_Node000005" class="edge">
<title>Node11&#45;&gt;Node5</title>
<g id="a_edge15_Node000011_Node000005"><a xlink:title=" ">
<path fill="none" stroke="#63b8ff" d="M288.74,-442.59C296.14,-440.41 303.49,-437.79 310.25,-434.62 346.53,-417.66 382.4,-387.52 403.23,-368.33"/>
<polygon fill="#63b8ff" stroke="#63b8ff" points="405.45,-371.05 410.33,-361.65 400.65,-365.95 405.45,-371.05"/>
</a>
</g>
</g>
<!-- Node12&#45;&gt;Node5 -->
<g id="edge17_Node000012_Node000005" class="edge">
<title>Node12&#45;&gt;Node5</title>
<g id="a_edge17_Node000012_Node000005"><a xlink:title=" ">
<path fill="none" stroke="#63b8ff" d="M278.97,-405.51C289.35,-402.9 300.24,-399.9 310.25,-396.62 337.61,-387.67 367.73,-375.04 389.72,-365.28"/>
<polygon fill="#63b8ff" stroke="#63b8ff" points="391.05,-368.51 398.74,-361.22 388.19,-362.13 391.05,-368.51"/>
</a>
</g>
</g>
<!-- Node13&#45;&gt;Node5 -->
<g id="edge19_Node000013_Node000005" class="edge">
<title>Node13&#45;&gt;Node5</title>
<g id="a_edge19_Node000013_Node000005"><a xlink:title=" ">
<path fill="none" stroke="#63b8ff" d="M294.03,-365.48C310.63,-363.55 328.8,-361.43 346.08,-359.42"/>
<polygon fill="#63b8ff" stroke="#63b8ff" points="346.25,-362.92 355.78,-358.29 345.44,-355.97 346.25,-362.92"/>
</a>
</g>
</g>
<!-- Node14&#45;&gt;Node5 -->
<g id="edge21_Node000014_Node000005" class="edge">
<title>Node14&#45;&gt;Node5</title>
<g id="a_edge21_Node000014_Node000005"><a xlink:title=" ">
<path fill="none" stroke="#63b8ff" d="M301.96,-337.33C316.38,-338.93 331.65,-340.63 346.27,-342.26"/>
<polygon fill="#63b8ff" stroke="#63b8ff" points="345.48,-345.69 355.81,-343.32 346.25,-338.73 345.48,-345.69"/>
</a>
</g>
</g>
<!-- Node15&#45;&gt;Node5 -->
<g id="edge27_Node000015_Node000005" class="edge">
<title>Node15&#45;&gt;Node5</title>
<g id="a_edge27_Node000015_Node000005"><a xlink:title=" ">
<path fill="none" stroke="#63b8ff" d="M297.58,-93.65C302.12,-95.83 306.41,-98.46 310.25,-101.62 383.7,-162.17 410.4,-281.18 418.47,-329.49"/>
<polygon fill="#63b8ff" stroke="#63b8ff" points="414.98,-329.82 419.98,-339.16 421.9,-328.74 414.98,-329.82"/>
</a>
</g>
</g>
<!-- Node16 -->
<g id="Node000016" class="node">
<title>Node16</title>
<g id="a_Node000016"><a xlink:href="namespace_nuki_lock.html#ac4d82a0f8f0d3ae3fe2a00c9d442cab0" target="_top" xlink:title=" ">
<polygon fill="white" stroke="#666666" points="498.75,-130.25 346.25,-130.25 346.25,-111 498.75,-111 498.75,-130.25"/>
<text text-anchor="middle" x="422.5" y="-116.75" font-family="Helvetica,sans-Serif" font-size="10.00">NukiLock::logCompletionStatus</text>
</a>
</g>
</g>
<!-- Node15&#45;&gt;Node16 -->
<g id="edge23_Node000015_Node000016" class="edge">
<title>Node15&#45;&gt;Node16</title>
<g id="a_edge23_Node000015_Node000016"><a xlink:title=" ">
<path fill="none" stroke="#63b8ff" d="M284.33,-93.74C307.32,-98.24 334.61,-103.59 358.77,-108.33"/>
<polygon fill="#63b8ff" stroke="#63b8ff" points="358.01,-111.75 368.5,-110.24 359.36,-104.88 358.01,-111.75"/>
</a>
</g>
</g>
<!-- Node17 -->
<g id="Node000017" class="node">
<title>Node17</title>
<g id="a_Node000017"><a xlink:href="namespace_nuki_lock.html#a031da7ab93a6a69e0e16dd7f5426ffaf" target="_top" xlink:title=" ">
<polygon fill="white" stroke="#666666" points="484.88,-93.25 360.12,-93.25 360.12,-74 484.88,-74 484.88,-93.25"/>
<text text-anchor="middle" x="422.5" y="-79.75" font-family="Helvetica,sans-Serif" font-size="10.00">NukiLock::logLockAction</text>
</a>
</g>
</g>
<!-- Node15&#45;&gt;Node17 -->
<g id="edge25_Node000015_Node000017" class="edge">
<title>Node15&#45;&gt;Node17</title>
<g id="a_edge25_Node000015_Node000017"><a xlink:title=" ">
<path fill="none" stroke="#63b8ff" d="M301.96,-83.62C317.05,-83.62 333.07,-83.62 348.31,-83.62"/>
<polygon fill="#63b8ff" stroke="#63b8ff" points="348.27,-87.13 358.27,-83.63 348.27,-80.13 348.27,-87.13"/>
</a>
</g>
</g>
<!-- Node18 -->
<g id="Node000018" class="node">
<title>Node18</title>
<g id="a_Node000018"><a xlink:href="namespace_nuki_lock.html#a7d68c58293514d39207ee29f239b897c" target="_top" xlink:title=" ">
<polygon fill="white" stroke="#666666" points="485.25,-56.25 359.75,-56.25 359.75,-37 485.25,-37 485.25,-56.25"/>
<text text-anchor="middle" x="422.5" y="-42.75" font-family="Helvetica,sans-Serif" font-size="10.00">NukiLock::logNukiTrigger</text>
</a>
</g>
</g>
<!-- Node15&#45;&gt;Node18 -->
<g id="edge28_Node000015_Node000018" class="edge">
<title>Node15&#45;&gt;Node18</title>
<g id="a_edge28_Node000015_Node000018"><a xlink:title=" ">
<path fill="none" stroke="#63b8ff" d="M284.33,-73.51C307.32,-69.01 334.61,-63.66 358.77,-58.92"/>
<polygon fill="#63b8ff" stroke="#63b8ff" points="359.36,-62.37 368.5,-57.01 358.01,-55.5 359.36,-62.37"/>
</a>
</g>
</g>
<!-- Node16&#45;&gt;Node9 -->
<g id="edge24_Node000016_Node000009" class="edge">
<title>Node16&#45;&gt;Node9</title>
<g id="a_edge24_Node000016_Node000009"><a xlink:title=" ">
<path fill="none" stroke="#63b8ff" d="M469.34,-110.51C489.4,-106.09 513.15,-100.85 534.33,-96.18"/>
<polygon fill="#63b8ff" stroke="#63b8ff" points="534.98,-99.62 543.99,-94.05 533.47,-92.79 534.98,-99.62"/>
</a>
</g>
</g>
<!-- Node17&#45;&gt;Node9 -->
<g id="edge26_Node000017_Node000009" class="edge">
<title>Node17&#45;&gt;Node9</title>
<g id="a_edge26_Node000017_Node000009"><a xlink:title=" ">
<path fill="none" stroke="#63b8ff" d="M485.01,-83.62C497.4,-83.62 510.48,-83.62 523.08,-83.62"/>
<polygon fill="#63b8ff" stroke="#63b8ff" points="522.96,-87.13 532.96,-83.63 522.96,-80.13 522.96,-87.13"/>
</a>
</g>
</g>
<!-- Node18&#45;&gt;Node9 -->
<g id="edge29_Node000018_Node000009" class="edge">
<title>Node18&#45;&gt;Node9</title>
<g id="a_edge29_Node000018_Node000009"><a xlink:title=" ">
<path fill="none" stroke="#63b8ff" d="M469.34,-56.74C489.4,-61.16 513.15,-66.4 534.33,-71.07"/>
<polygon fill="#63b8ff" stroke="#63b8ff" points="533.47,-74.46 543.99,-73.2 534.98,-67.63 533.47,-74.46"/>
</a>
</g>
</g>
<!-- Node19&#45;&gt;Node5 -->
<g id="edge34_Node000019_Node000005" class="edge">
<title>Node19&#45;&gt;Node5</title>
<g id="a_edge34_Node000019_Node000005"><a xlink:title=" ">
<path fill="none" stroke="#63b8ff" d="M288.86,-52.72C296.65,-55.45 304.09,-59.29 310.25,-64.62 320.96,-73.91 390.73,-265.35 413.98,-329.72"/>
<polygon fill="#63b8ff" stroke="#63b8ff" points="410.66,-330.86 417.35,-339.08 417.25,-328.48 410.66,-330.86"/>
</a>
</g>
</g>
<!-- Node19&#45;&gt;Node9 -->
<g id="edge33_Node000019_Node000009" class="edge">
<title>Node19&#45;&gt;Node9</title>
<g id="a_edge33_Node000019_Node000009"><a xlink:title=" ">
<path fill="none" stroke="#63b8ff" d="M282.25,-36.51C302.06,-32.94 325.14,-29.38 346.25,-27.62 413.79,-22.01 433.47,-9.4 498.75,-27.62 525.91,-35.2 553.04,-53.17 570.82,-66.72"/>
<polygon fill="#63b8ff" stroke="#63b8ff" points="568.47,-69.32 578.5,-72.76 572.81,-63.82 568.47,-69.32"/>
</a>
</g>
</g>
<!-- Node19&#45;&gt;Node16 -->
<g id="edge31_Node000019_Node000016" class="edge">
<title>Node19&#45;&gt;Node16</title>
<g id="a_edge31_Node000019_Node000016"><a xlink:title=" ">
<path fill="none" stroke="#63b8ff" d="M288.86,-55.5C296.32,-57.86 303.66,-60.85 310.25,-64.62 330.44,-76.19 326.1,-90.99 346.25,-102.62 348.56,-103.96 350.96,-105.19 353.42,-106.33"/>
<polygon fill="#63b8ff" stroke="#63b8ff" points="351.87,-109.48 362.46,-109.97 354.49,-102.99 351.87,-109.48"/>
</a>
</g>
</g>
<!-- Node19&#45;&gt;Node17 -->
<g id="edge32_Node000019_Node000017" class="edge">
<title>Node19&#45;&gt;Node17</title>
<g id="a_edge32_Node000019_Node000017"><a xlink:title=" ">
<path fill="none" stroke="#63b8ff" d="M284.33,-56.74C307.32,-61.24 334.61,-66.59 358.77,-71.33"/>
<polygon fill="#63b8ff" stroke="#63b8ff" points="358.01,-74.75 368.5,-73.24 359.36,-67.88 358.01,-74.75"/>
</a>
</g>
</g>
<!-- Node19&#45;&gt;Node18 -->
<g id="edge35_Node000019_Node000018" class="edge">
<title>Node19&#45;&gt;Node18</title>
<g id="a_edge35_Node000019_Node000018"><a xlink:title=" ">
<path fill="none" stroke="#63b8ff" d="M288.87,-46.62C307.4,-46.62 328.3,-46.62 347.94,-46.62"/>
<polygon fill="#63b8ff" stroke="#63b8ff" points="347.81,-50.13 357.81,-46.63 347.81,-43.13 347.81,-50.13"/>
</a>
</g>
</g>
<!-- Node20&#45;&gt;Node5 -->
<g id="edge37_Node000020_Node000005" class="edge">
<title>Node20&#45;&gt;Node5</title>
<g id="a_edge37_Node000020_Node000005"><a xlink:title=" ">
<path fill="none" stroke="#63b8ff" d="M280.11,-302.7C290.12,-305.08 300.58,-307.77 310.25,-310.62 335.73,-318.14 363.89,-328.28 385.5,-336.47"/>
<polygon fill="#63b8ff" stroke="#63b8ff" points="384.15,-339.7 394.74,-340.01 386.65,-333.16 384.15,-339.7"/>
</a>
</g>
</g>
<!-- Node21&#45;&gt;Node5 -->
<g id="edge39_Node000021_Node000005" class="edge">
<title>Node21&#45;&gt;Node5</title>
<g id="a_edge39_Node000021_Node000005"><a xlink:title=" ">
<path fill="none" stroke="#63b8ff" d="M290.23,-265.25C297.1,-267.75 303.92,-270.54 310.25,-273.62 344.14,-290.11 379.24,-316.18 400.73,-333.34"/>
<polygon fill="#63b8ff" stroke="#63b8ff" points="398.45,-335.99 408.42,-339.58 402.86,-330.56 398.45,-335.99"/>
</a>
</g>
</g>
<!-- Node22&#45;&gt;Node5 -->
<g id="edge41_Node000022_Node000005" class="edge">
<title>Node22&#45;&gt;Node5</title>
<g id="a_edge41_Node000022_Node000005"><a xlink:title=" ">
<path fill="none" stroke="#63b8ff" d="M290.6,-216.65C297.48,-219.03 304.2,-221.98 310.25,-225.62 355.05,-252.6 391.85,-303.44 409.75,-331.25"/>
<polygon fill="#63b8ff" stroke="#63b8ff" points="406.58,-332.79 414.86,-339.4 412.52,-329.07 406.58,-332.79"/>
</a>
</g>
</g>
<!-- Node23&#45;&gt;Node5 -->
<g id="edge43_Node000023_Node000005" class="edge">
<title>Node23&#45;&gt;Node5</title>
<g id="a_edge43_Node000023_Node000005"><a xlink:title=" ">
<path fill="none" stroke="#63b8ff" d="M296.27,-179.28C301.21,-181.68 305.94,-184.45 310.25,-187.62 362.25,-226.03 398.03,-296.36 413.25,-330.7"/>
<polygon fill="#63b8ff" stroke="#63b8ff" points="409.86,-331.67 417.02,-339.48 416.29,-328.91 409.86,-331.67"/>
</a>
</g>
</g>
<!-- Node24&#45;&gt;Node5 -->
<g id="edge45_Node000024_Node000005" class="edge">
<title>Node24&#45;&gt;Node5</title>
<g id="a_edge45_Node000024_Node000005"><a xlink:title=" ">
<path fill="none" stroke="#63b8ff" d="M294.67,-130.58C300.25,-132.99 305.56,-135.96 310.25,-139.62 374.42,-189.73 405.64,-287.32 416.67,-329.91"/>
<polygon fill="#63b8ff" stroke="#63b8ff" points="413.21,-330.47 419,-339.34 420,-328.8 413.21,-330.47"/>
</a>
</g>
</g>
</g>
</svg>

<g id="navigator" transform="translate(0 0)" fill="#404254">
  <rect fill="#f2f5e9" fill-opacity="0.5" stroke="#606060" stroke-width=".5" x="0" y="0" width="60" height="60"/>
  <use id="zoomplus" xlink:href="#zoomPlus" x="17" y="9" onmousedown="handleZoom(evt,'in')"/>
  <use id="zoomminus" xlink:href="#zoomMin" x="42" y="9" onmousedown="handleZoom(evt,'out')"/>
  <use id="reset" xlink:href="#resetDef" x="30" y="36" onmousedown="handleReset()"/>
   <use id="arrowup" xlink:href="#arrowUp" x="0" y="0" onmousedown="handlePan(0,-1)"/>
  <use id="arrowright" xlink:href="#arrowRight" x="0" y="0" onmousedown="handlePan(1,0)"/>
  <use id="arrowdown" xlink:href="#arrowDown" x="0" y="0" onmousedown="handlePan(0,1)"/>
  <use id="arrowleft" xlink:href="#arrowLeft" x="0" y="0" onmousedown="handlePan(-1,0)"/>
</g>
<svg viewBox="0 0 15 15" width="100%" height="30px" preserveAspectRatio="xMaxYMin meet">
 <g id="arrow_out" transform="scale(0.3 0.3)">
  <a xlink:href="class_nuki_lock_1_1_nuki_lock_a8d9fc4e4a1bde183754ced8b783f82d5_cgraph_org.svg" target="_base">
   <rect id="button" ry="5" rx="5" y="6" x="6" height="38" width="38"
        fill="#f2f5e9" fill-opacity="0.5" stroke="#606060" stroke-width="1.0"/>
   <path id="arrow"
     d="M 11.500037,31.436501 C 11.940474,20.09759 22.043105,11.32322 32.158766,21.979434 L 37.068811,17.246167 C 37.068811,17.246167 37.088388,32 37.088388,32 L 22.160133,31.978069 C 22.160133,31.978069 26.997745,27.140456 26.997745,27.140456 C 18.528582,18.264221 13.291696,25.230495 11.500037,31.436501 z"
     style="fill:#404040;"/>
  </a>
 </g>
</svg>

<style type='text/css'>
<![CDATA[
[data-mouse-over-selected='false'] { opacity: 0.7; }
[data-mouse-over-selected='true']  { opacity: 1.0; }
]]>
</style>
<script type="application/ecmascript"><![CDATA[
document.addEventListener('DOMContentLoaded', (event) => {
  highlightEdges();
  highlightAdjacentNodes();
});
]]></script>
</svg>
