<?xml version="1.0" encoding="UTF-8" standalone="no"?>
<!DOCTYPE svg PUBLIC "-//W3C//DTD SVG 1.1//EN"
 "http://www.w3.org/Graphics/SVG/1.1/DTD/svg11.dtd">
<!-- Generated by graphviz version 12.0.0 (20240704.0754)
 -->
<!-- Title: Nuki::NukiBle::updateAuthorizationEntry Pages: 1 -->
<svg width="765pt" height="183pt"
 viewBox="0.00 0.00 765.00 182.88" xmlns="http://www.w3.org/2000/svg" xmlns:xlink="http://www.w3.org/1999/xlink">
<g id="graph0" class="graph" transform="scale(1 1) rotate(0) translate(4 178.88)">
<title>Nuki::NukiBle::updateAuthorizationEntry</title>
<!-- Node1 -->
<g id="Node000001" class="node">
<title>Node1</title>
<g id="a_Node000001"><a xlink:title="Sends an updated authorization entry to the lock via BLE.">
<polygon fill="#999999" stroke="#666666" points="165.25,-67.88 0,-67.88 0,-37.38 165.25,-37.38 165.25,-67.88"/>
<text text-anchor="start" x="8" y="-54.38" font-family="Helvetica,sans-Serif" font-size="10.00">Nuki::NukiBle::updateAuthorization</text>
<text text-anchor="middle" x="82.62" y="-43.12" font-family="Helvetica,sans-Serif" font-size="10.00">Entry</text>
</a>
</g>
</g>
<!-- Node2 -->
<g id="Node000002" class="node">
<title>Node2</title>
<g id="a_Node000002"><a xlink:href="class_nuki_1_1_nuki_ble.html#af1f1e299e8d97e053bba80e92ba285d6" target="_top" xlink:title=" ">
<polygon fill="white" stroke="#666666" points="356,-105.25 214.75,-105.25 214.75,-86 356,-86 356,-105.25"/>
<text text-anchor="middle" x="285.38" y="-91.75" font-family="Helvetica,sans-Serif" font-size="10.00">Nuki::NukiBle::executeAction</text>
</a>
</g>
</g>
<!-- Node1&#45;&gt;Node2 -->
<g id="edge1_Node000001_Node000002" class="edge">
<title>Node1&#45;&gt;Node2</title>
<g id="a_edge1_Node000001_Node000002"><a xlink:title=" ">
<path fill="none" stroke="#63b8ff" d="M156.95,-68.33C179.75,-73.21 204.56,-78.53 226.17,-83.16"/>
<polygon fill="#63b8ff" stroke="#63b8ff" points="225.17,-86.52 235.68,-85.19 226.63,-79.68 225.17,-86.52"/>
</a>
</g>
</g>
<!-- Node7 -->
<g id="Node000007" class="node">
<title>Node7</title>
<g id="a_Node000007"><a xlink:href="namespace_nuki_lock.html#a8f94609bc7203fda62e2833369d36f98" target="_top" xlink:title=" ">
<polygon fill="white" stroke="#666666" points="369.5,-67.88 201.25,-67.88 201.25,-37.38 369.5,-37.38 369.5,-67.88"/>
<text text-anchor="start" x="209.25" y="-54.38" font-family="Helvetica,sans-Serif" font-size="10.00">NukiLock::logUpdatedAuthorization</text>
<text text-anchor="middle" x="285.38" y="-43.12" font-family="Helvetica,sans-Serif" font-size="10.00">Entry</text>
</a>
</g>
</g>
<!-- Node1&#45;&gt;Node7 -->
<g id="edge9_Node000001_Node000007" class="edge">
<title>Node1&#45;&gt;Node7</title>
<g id="a_edge9_Node000001_Node000007"><a xlink:title=" ">
<path fill="none" stroke="#63b8ff" d="M165.57,-52.62C173.53,-52.62 181.64,-52.62 189.71,-52.62"/>
<polygon fill="#63b8ff" stroke="#63b8ff" points="189.55,-56.13 199.55,-52.63 189.55,-49.13 189.55,-56.13"/>
</a>
</g>
</g>
<!-- Node8 -->
<g id="Node000008" class="node">
<title>Node8</title>
<g id="a_Node000008"><a xlink:href="namespace_nuki.html#a280e19d4682ca4b35d3fe64001da816a" target="_top" xlink:title=" ">
<polygon fill="white" stroke="#666666" points="327.88,-19.25 242.88,-19.25 242.88,0 327.88,0 327.88,-19.25"/>
<text text-anchor="middle" x="285.38" y="-5.75" font-family="Helvetica,sans-Serif" font-size="10.00">Nuki::printBuffer</text>
</a>
</g>
</g>
<!-- Node1&#45;&gt;Node8 -->
<g id="edge10_Node000001_Node000008" class="edge">
<title>Node1&#45;&gt;Node8</title>
<g id="a_edge10_Node000001_Node000008"><a xlink:title=" ">
<path fill="none" stroke="#63b8ff" d="M156.95,-36.92C181.58,-31.64 208.55,-25.87 231.31,-20.99"/>
<polygon fill="#63b8ff" stroke="#63b8ff" points="231.93,-24.44 240.98,-18.92 230.47,-17.59 231.93,-24.44"/>
</a>
</g>
</g>
<!-- Node3 -->
<g id="Node000003" class="node">
<title>Node3</title>
<g id="a_Node000003"><a xlink:href="class_nuki_1_1_nuki_ble.html#ada0f3beebd95d35c122e25dd3f9eb886" target="_top" xlink:title=" ">
<polygon fill="white" stroke="#666666" points="553.5,-174.88 416,-174.88 416,-144.38 553.5,-144.38 553.5,-174.88"/>
<text text-anchor="start" x="424" y="-161.38" font-family="Helvetica,sans-Serif" font-size="10.00">Nuki::NukiBle::cmdChallAcc</text>
<text text-anchor="middle" x="484.75" y="-150.12" font-family="Helvetica,sans-Serif" font-size="10.00">StateMachine</text>
</a>
</g>
</g>
<!-- Node2&#45;&gt;Node3 -->
<g id="edge2_Node000002_Node000003" class="edge">
<title>Node2&#45;&gt;Node3</title>
<g id="a_edge2_Node000002_Node000003"><a xlink:title=" ">
<path fill="none" stroke="#63b8ff" d="M317.21,-105.62C345.91,-114.93 389.43,-129.04 424.78,-140.5"/>
<polygon fill="#63b8ff" stroke="#63b8ff" points="423.43,-143.75 434.03,-143.5 425.59,-137.09 423.43,-143.75"/>
</a>
</g>
</g>
<!-- Node4 -->
<g id="Node000004" class="node">
<title>Node4</title>
<g id="a_Node000004"><a xlink:href="class_nuki_1_1_nuki_ble.html#a6e8fca90c04249660dce6cb993eb4495" target="_top" xlink:title=" ">
<polygon fill="white" stroke="#666666" points="757,-109.88 600,-109.88 600,-79.38 757,-79.38 757,-109.88"/>
<text text-anchor="start" x="608" y="-96.38" font-family="Helvetica,sans-Serif" font-size="10.00">Nuki::NukiBle::extendDisconnect</text>
<text text-anchor="middle" x="678.5" y="-85.12" font-family="Helvetica,sans-Serif" font-size="10.00">Timeout</text>
</a>
</g>
</g>
<!-- Node2&#45;&gt;Node4 -->
<g id="edge8_Node000002_Node000004" class="edge">
<title>Node2&#45;&gt;Node4</title>
<g id="a_edge8_Node000002_Node000004"><a xlink:title=" ">
<path fill="none" stroke="#63b8ff" d="M356.29,-96.99C372.45,-97.26 389.57,-97.49 405.5,-97.62 475.94,-98.22 493.56,-98.56 564,-97.62 571.93,-97.52 580.16,-97.37 588.42,-97.2"/>
<polygon fill="#63b8ff" stroke="#63b8ff" points="588.23,-100.71 598.15,-96.99 588.07,-93.71 588.23,-100.71"/>
</a>
</g>
</g>
<!-- Node5 -->
<g id="Node000005" class="node">
<title>Node5</title>
<g id="a_Node000005"><a xlink:href="class_nuki_1_1_nuki_ble.html#a59169a9f492793762e3c6ba39b611b07" target="_top" xlink:title=" ">
<polygon fill="white" stroke="#666666" points="556.5,-88.88 413,-88.88 413,-58.38 556.5,-58.38 556.5,-88.88"/>
<text text-anchor="start" x="421" y="-75.38" font-family="Helvetica,sans-Serif" font-size="10.00">Nuki::NukiBle::cmdChallState</text>
<text text-anchor="middle" x="484.75" y="-64.12" font-family="Helvetica,sans-Serif" font-size="10.00">Machine</text>
</a>
</g>
</g>
<!-- Node2&#45;&gt;Node5 -->
<g id="edge4_Node000002_Node000005" class="edge">
<title>Node2&#45;&gt;Node5</title>
<g id="a_edge4_Node000002_Node000005"><a xlink:title=" ">
<path fill="none" stroke="#63b8ff" d="M356.24,-87.84C370.82,-86.21 386.32,-84.48 401.31,-82.81"/>
<polygon fill="#63b8ff" stroke="#63b8ff" points="401.59,-86.3 411.14,-81.72 400.82,-79.35 401.59,-86.3"/>
</a>
</g>
</g>
<!-- Node6 -->
<g id="Node000006" class="node">
<title>Node6</title>
<g id="a_Node000006"><a xlink:href="class_nuki_1_1_nuki_ble.html#ad135bb1455665decfddff67772c1d411" target="_top" xlink:title=" ">
<polygon fill="white" stroke="#666666" points="564,-40.25 405.5,-40.25 405.5,-21 564,-21 564,-40.25"/>
<text text-anchor="middle" x="484.75" y="-26.75" font-family="Helvetica,sans-Serif" font-size="10.00">Nuki::NukiBle::cmdStateMachine</text>
</a>
</g>
</g>
<!-- Node2&#45;&gt;Node6 -->
<g id="edge6_Node000002_Node000006" class="edge">
<title>Node2&#45;&gt;Node6</title>
<g id="a_edge6_Node000002_Node000006"><a xlink:title=" ">
<path fill="none" stroke="#63b8ff" d="M344.65,-85.59C353.18,-83.19 361.71,-80.24 369.5,-76.62 387.64,-68.21 387.41,-58.16 405.5,-49.62 409.77,-47.61 414.27,-45.8 418.87,-44.17"/>
<polygon fill="#63b8ff" stroke="#63b8ff" points="419.83,-47.54 428.28,-41.15 417.69,-40.87 419.83,-47.54"/>
</a>
</g>
</g>
<!-- Node3&#45;&gt;Node4 -->
<g id="edge3_Node000003_Node000004" class="edge">
<title>Node3&#45;&gt;Node4</title>
<g id="a_edge3_Node000003_Node000004"><a xlink:title=" ">
<path fill="none" stroke="#63b8ff" d="M532.17,-143.89C558.68,-134.9 592.15,-123.56 620.29,-114.02"/>
<polygon fill="#63b8ff" stroke="#63b8ff" points="621.4,-117.34 629.74,-110.81 619.15,-110.71 621.4,-117.34"/>
</a>
</g>
</g>
<!-- Node5&#45;&gt;Node4 -->
<g id="edge5_Node000005_Node000004" class="edge">
<title>Node5&#45;&gt;Node4</title>
<g id="a_edge5_Node000005_Node000004"><a xlink:title=" ">
<path fill="none" stroke="#63b8ff" d="M556.88,-81.41C567.13,-82.54 577.79,-83.71 588.34,-84.86"/>
<polygon fill="#63b8ff" stroke="#63b8ff" points="587.9,-88.33 598.22,-85.94 588.66,-81.37 587.9,-88.33"/>
</a>
</g>
</g>
<!-- Node6&#45;&gt;Node4 -->
<g id="edge7_Node000006_Node000004" class="edge">
<title>Node6&#45;&gt;Node4</title>
<g id="a_edge7_Node000006_Node000004"><a xlink:title=" ">
<path fill="none" stroke="#63b8ff" d="M531.97,-40.72C542.57,-43.34 553.74,-46.36 564,-49.62 586.43,-56.76 610.76,-66.17 631.12,-74.54"/>
<polygon fill="#63b8ff" stroke="#63b8ff" points="629.7,-77.74 640.28,-78.35 632.39,-71.28 629.7,-77.74"/>
</a>
</g>
</g>
</g>
</svg>
