<?xml version="1.0" encoding="UTF-8" standalone="no"?>
<!DOCTYPE svg PUBLIC "-//W3C//DTD SVG 1.1//EN"
 "http://www.w3.org/Graphics/SVG/1.1/DTD/svg11.dtd">
<!-- Generated by graphviz version 8.0.5 (20230430.1635)
 -->
<!-- Title: NukiOpener::NukiOpener::updateTimeControlEntry Pages: 1 -->
<svg width="306pt" height="76pt"
 viewBox="0.00 0.00 305.50 75.88" xmlns="http://www.w3.org/2000/svg" xmlns:xlink="http://www.w3.org/1999/xlink">
<g id="graph0" class="graph" transform="scale(1 1) rotate(0) translate(4 71.88)">
<title>NukiOpener::NukiOpener::updateTimeControlEntry</title>
<!-- Node1 -->
<g id="node1" class="node">
<title>Node1</title>
<g id="a_node1"><a xlink:title="Sends an updated time(d) control entry via BLE to the lock. (see addTimeControlEntry())">
<polygon fill="#999999" stroke="#666666" points="124,-45.88 0,-45.88 0,-15.37 124,-15.37 124,-45.88"/>
<text text-anchor="start" x="8" y="-32.38" font-family="Helvetica,sans-Serif" font-size="10.00">NukiOpener::NukiOpener</text>
<text text-anchor="middle" x="62" y="-21.12" font-family="Helvetica,sans-Serif" font-size="10.00">::updateTimeControlEntry</text>
</a>
</g>
</g>
<!-- Node2 -->
<g id="node2" class="node">
<title>Node2</title>
<g id="a_node2"><a xlink:href="namespace_nuki_opener.html#aa944d8da41129e4c94392db3b7cd2ae6" target="_top" xlink:title=" ">
<polygon fill="white" stroke="#666666" points="297.5,-67.88 160,-67.88 160,-37.38 297.5,-37.38 297.5,-67.88"/>
<text text-anchor="start" x="168" y="-54.38" font-family="Helvetica,sans-Serif" font-size="10.00">NukiOpener::logTimeControl</text>
<text text-anchor="middle" x="228.75" y="-43.12" font-family="Helvetica,sans-Serif" font-size="10.00">Entry</text>
</a>
</g>
</g>
<!-- Node1&#45;&gt;Node2 -->
<g id="edge1" class="edge">
<title>Node1&#45;&gt;Node2</title>
<path fill="none" stroke="#63b8ff" d="M124.35,-38.82C132.36,-39.89 140.66,-41 148.91,-42.1"/>
<polygon fill="#63b8ff" stroke="#63b8ff" points="148.33,-45.68 158.71,-43.54 149.26,-38.75 148.33,-45.68"/>
</g>
<!-- Node3 -->
<g id="node3" class="node">
<title>Node3</title>
<g id="a_node3"><a xlink:href="namespace_nuki.html#a280e19d4682ca4b35d3fe64001da816a" target="_top" xlink:title=" ">
<polygon fill="white" stroke="#666666" points="271.25,-19.25 186.25,-19.25 186.25,0 271.25,0 271.25,-19.25"/>
<text text-anchor="middle" x="228.75" y="-5.75" font-family="Helvetica,sans-Serif" font-size="10.00">Nuki::printBuffer</text>
</a>
</g>
</g>
<!-- Node1&#45;&gt;Node3 -->
<g id="edge2" class="edge">
<title>Node1&#45;&gt;Node3</title>
<path fill="none" stroke="#63b8ff" d="M124.35,-22.81C141,-20.68 158.88,-18.4 175.01,-16.35"/>
<polygon fill="#63b8ff" stroke="#63b8ff" points="175.38,-19.7 184.86,-14.96 174.49,-12.76 175.38,-19.7"/>
</g>
</g>
</svg>
