<?xml version="1.0" encoding="UTF-8" standalone="no"?>
<!DOCTYPE svg PUBLIC "-//W3C//DTD SVG 1.1//EN"
 "http://www.w3.org/Graphics/SVG/1.1/DTD/svg11.dtd">
<!-- Generated by graphviz version 12.2.1 (20241206.2353)
 -->
<!-- Title: Nuki::NukiBle::addKeypadEntry Pages: 1 -->
<svg width="709pt" height="336pt"
 viewBox="0.00 0.00 708.75 335.83" xmlns="http://www.w3.org/2000/svg" xmlns:xlink="http://www.w3.org/1999/xlink">
<g id="graph0" class="graph" transform="scale(1 1) rotate(0) translate(4 331.83)">
<title>Nuki::NukiBle::addKeypadEntry</title>
<!-- Node1 -->
<g id="Node000001" class="node">
<title>Node1</title>
<g id="a_Node000001"><a xlink:title="Send a new keypad entry to the lock via BLE.">
<polygon fill="#999999" stroke="#666666" points="127.75,-80.88 0,-80.88 0,-50.38 127.75,-50.38 127.75,-80.88"/>
<text text-anchor="start" x="8" y="-67.38" font-family="Helvetica,sans-Serif" font-size="10.00">Nuki::NukiBle::addKeypad</text>
<text text-anchor="middle" x="63.88" y="-56.12" font-family="Helvetica,sans-Serif" font-size="10.00">Entry</text>
</a>
</g>
</g>
<!-- Node2 -->
<g id="Node000002" class="node">
<title>Node2</title>
<g id="a_Node000002"><a xlink:href="class_nuki_1_1_nuki_ble.html#af1f1e299e8d97e053bba80e92ba285d6" target="_top" xlink:title=" ">
<polygon fill="white" stroke="#666666" points="309.12,-218.25 167.88,-218.25 167.88,-199 309.12,-199 309.12,-218.25"/>
<text text-anchor="middle" x="238.5" y="-204.75" font-family="Helvetica,sans-Serif" font-size="10.00">Nuki::NukiBle::executeAction</text>
</a>
</g>
</g>
<!-- Node1&#45;&gt;Node2 -->
<g id="edge1_Node000001_Node000002" class="edge">
<title>Node1&#45;&gt;Node2</title>
<g id="a_edge1_Node000001_Node000002"><a xlink:title=" ">
<path fill="none" stroke="#63b8ff" d="M83.68,-81.2C116.27,-108.2 182.99,-163.47 216.83,-191.51"/>
<polygon fill="#63b8ff" stroke="#63b8ff" points="214.35,-193.99 224.29,-197.68 218.82,-188.6 214.35,-193.99"/>
</a>
</g>
</g>
<!-- Node6 -->
<g id="Node000006" class="node">
<title>Node6</title>
<g id="a_Node000006"><a xlink:href="class_nuki_1_1_nuki_ble.html#af3650133f46aeca48a5f01b95d23ab71" target="_top" xlink:title=" ">
<polygon fill="white" stroke="#666666" points="695.88,-175.25 548.62,-175.25 548.62,-156 695.88,-156 695.88,-175.25"/>
<text text-anchor="middle" x="622.25" y="-161.75" font-family="Helvetica,sans-Serif" font-size="10.00">Nuki::NukiBle::logMessageVar</text>
</a>
</g>
</g>
<!-- Node1&#45;&gt;Node6 -->
<g id="edge17_Node000001_Node000006" class="edge">
<title>Node1&#45;&gt;Node6</title>
<g id="a_edge17_Node000001_Node000006"><a xlink:title=" ">
<path fill="none" stroke="#63b8ff" d="M127.89,-70.77C214.38,-78.66 374.36,-96.24 507.75,-127.62 534.23,-133.85 563.3,-143.65 585.39,-151.73"/>
<polygon fill="#63b8ff" stroke="#63b8ff" points="583.93,-154.92 594.53,-155.13 586.37,-148.36 583.93,-154.92"/>
</a>
</g>
</g>
<!-- Node9 -->
<g id="Node000009" class="node">
<title>Node9</title>
<g id="a_Node000009"><a xlink:href="namespace_nuki_lock.html#a27d784854d32c047bd88453667f7d942" target="_top" xlink:title=" ">
<polygon fill="white" stroke="#666666" points="313.25,-56.25 163.75,-56.25 163.75,-37 313.25,-37 313.25,-56.25"/>
<text text-anchor="middle" x="238.5" y="-42.75" font-family="Helvetica,sans-Serif" font-size="10.00">NukiLock::logNewKeypadEntry</text>
</a>
</g>
</g>
<!-- Node1&#45;&gt;Node9 -->
<g id="edge18_Node000001_Node000009" class="edge">
<title>Node1&#45;&gt;Node9</title>
<g id="a_edge18_Node000001_Node000009"><a xlink:title=" ">
<path fill="none" stroke="#63b8ff" d="M128.17,-58.66C135.96,-57.8 144.01,-56.92 152.05,-56.03"/>
<polygon fill="#63b8ff" stroke="#63b8ff" points="152.32,-59.52 161.88,-54.95 151.56,-52.56 152.32,-59.52"/>
</a>
</g>
</g>
<!-- Node11 -->
<g id="Node000011" class="node">
<title>Node11</title>
<g id="a_Node000011"><a xlink:href="namespace_nuki.html#a438fdfcef9f81eb0a3e493631b71ca5b" target="_top" xlink:title=" ">
<polygon fill="white" stroke="#666666" points="281,-19.25 196,-19.25 196,0 281,0 281,-19.25"/>
<text text-anchor="middle" x="238.5" y="-5.75" font-family="Helvetica,sans-Serif" font-size="10.00">Nuki::printBuffer</text>
</a>
</g>
</g>
<!-- Node1&#45;&gt;Node11 -->
<g id="edge20_Node000001_Node000011" class="edge">
<title>Node1&#45;&gt;Node11</title>
<g id="a_edge20_Node000001_Node000011"><a xlink:title=" ">
<path fill="none" stroke="#63b8ff" d="M102.04,-50.05C120.41,-42.68 143.04,-34.1 163.75,-27.62 170.44,-25.53 177.53,-23.53 184.56,-21.68"/>
<polygon fill="#63b8ff" stroke="#63b8ff" points="185.22,-25.12 194.04,-19.26 183.49,-18.34 185.22,-25.12"/>
</a>
</g>
</g>
<!-- Node3 -->
<g id="Node000003" class="node">
<title>Node3</title>
<g id="a_Node000003"><a xlink:href="class_nuki_1_1_nuki_ble.html#ada0f3beebd95d35c122e25dd3f9eb886" target="_top" xlink:title=" ">
<polygon fill="white" stroke="#666666" points="497.25,-180.88 359.75,-180.88 359.75,-150.38 497.25,-150.38 497.25,-180.88"/>
<text text-anchor="start" x="367.75" y="-167.38" font-family="Helvetica,sans-Serif" font-size="10.00">Nuki::NukiBle::cmdChallAcc</text>
<text text-anchor="middle" x="428.5" y="-156.12" font-family="Helvetica,sans-Serif" font-size="10.00">StateMachine</text>
</a>
</g>
</g>
<!-- Node2&#45;&gt;Node3 -->
<g id="edge2_Node000002_Node000003" class="edge">
<title>Node2&#45;&gt;Node3</title>
<g id="a_edge2_Node000002_Node000003"><a xlink:title=" ">
<path fill="none" stroke="#63b8ff" d="M283.58,-198.54C302.89,-194.13 326.16,-188.8 348.31,-183.74"/>
<polygon fill="#63b8ff" stroke="#63b8ff" points="348.97,-187.18 357.94,-181.54 347.41,-180.35 348.97,-187.18"/>
</a>
</g>
</g>
<!-- Node4 -->
<g id="Node000004" class="node">
<title>Node4</title>
<g id="a_Node000004"><a xlink:href="class_nuki_1_1_nuki_ble.html#a6e8fca90c04249660dce6cb993eb4495" target="_top" xlink:title=" ">
<polygon fill="white" stroke="#666666" points="700.75,-232.88 543.75,-232.88 543.75,-202.38 700.75,-202.38 700.75,-232.88"/>
<text text-anchor="start" x="551.75" y="-219.38" font-family="Helvetica,sans-Serif" font-size="10.00">Nuki::NukiBle::extendDisconnect</text>
<text text-anchor="middle" x="622.25" y="-208.12" font-family="Helvetica,sans-Serif" font-size="10.00">Timeout</text>
</a>
</g>
</g>
<!-- Node2&#45;&gt;Node4 -->
<g id="edge14_Node000002_Node000004" class="edge">
<title>Node2&#45;&gt;Node4</title>
<g id="a_edge14_Node000002_Node000004"><a xlink:title=" ">
<path fill="none" stroke="#63b8ff" d="M287.35,-218.74C306.5,-222.31 328.83,-225.87 349.25,-227.62 410.11,-232.85 478.86,-230.25 532.01,-226.4"/>
<polygon fill="#63b8ff" stroke="#63b8ff" points="532.24,-229.89 541.94,-225.64 531.71,-222.91 532.24,-229.89"/>
</a>
</g>
</g>
<!-- Node5 -->
<g id="Node000005" class="node">
<title>Node5</title>
<g id="a_Node000005"><a xlink:href="class_nuki_1_1_nuki_ble.html#ac7ce691d9c3e586474655d1663eb2e20" target="_top" xlink:title=" ">
<polygon fill="white" stroke="#666666" points="688.38,-289.25 556.12,-289.25 556.12,-270 688.38,-270 688.38,-289.25"/>
<text text-anchor="middle" x="622.25" y="-275.75" font-family="Helvetica,sans-Serif" font-size="10.00">Nuki::NukiBle::logMessage</text>
</a>
</g>
</g>
<!-- Node2&#45;&gt;Node5 -->
<g id="edge15_Node000002_Node000005" class="edge">
<title>Node2&#45;&gt;Node5</title>
<g id="a_edge15_Node000002_Node000005"><a xlink:title=" ">
<path fill="none" stroke="#63b8ff" d="M245.93,-218.68C260.85,-240.94 300.31,-293.98 349.25,-313.62 430.69,-346.31 535.92,-314.27 588.42,-293.79"/>
<polygon fill="#63b8ff" stroke="#63b8ff" points="589.42,-297.16 597.39,-290.19 586.81,-290.67 589.42,-297.16"/>
</a>
</g>
</g>
<!-- Node2&#45;&gt;Node6 -->
<g id="edge16_Node000002_Node000006" class="edge">
<title>Node2&#45;&gt;Node6</title>
<g id="a_edge16_Node000002_Node000006"><a xlink:title=" ">
<path fill="none" stroke="#63b8ff" d="M250.97,-198.6C269.88,-182.81 309.49,-152.8 349.25,-141.62 427.86,-119.53 523.82,-138.03 578.2,-152.5"/>
<polygon fill="#63b8ff" stroke="#63b8ff" points="577.12,-155.84 587.69,-155.11 578.98,-149.09 577.12,-155.84"/>
</a>
</g>
</g>
<!-- Node7 -->
<g id="Node000007" class="node">
<title>Node7</title>
<g id="a_Node000007"><a xlink:href="class_nuki_1_1_nuki_ble.html#a59169a9f492793762e3c6ba39b611b07" target="_top" xlink:title=" ">
<polygon fill="white" stroke="#666666" points="500.25,-304.88 356.75,-304.88 356.75,-274.38 500.25,-274.38 500.25,-304.88"/>
<text text-anchor="start" x="364.75" y="-291.38" font-family="Helvetica,sans-Serif" font-size="10.00">Nuki::NukiBle::cmdChallState</text>
<text text-anchor="middle" x="428.5" y="-280.12" font-family="Helvetica,sans-Serif" font-size="10.00">Machine</text>
</a>
</g>
</g>
<!-- Node2&#45;&gt;Node7 -->
<g id="edge6_Node000002_Node000007" class="edge">
<title>Node2&#45;&gt;Node7</title>
<g id="a_edge6_Node000002_Node000007"><a xlink:title=" ">
<path fill="none" stroke="#63b8ff" d="M259.49,-218.74C281.3,-229.64 317.38,-247.2 349.25,-260.62 356.69,-263.76 364.59,-266.9 372.4,-269.9"/>
<polygon fill="#63b8ff" stroke="#63b8ff" points="370.95,-273.09 381.54,-273.35 373.42,-266.54 370.95,-273.09"/>
</a>
</g>
</g>
<!-- Node8 -->
<g id="Node000008" class="node">
<title>Node8</title>
<g id="a_Node000008"><a xlink:href="class_nuki_1_1_nuki_ble.html#ad135bb1455665decfddff67772c1d411" target="_top" xlink:title=" ">
<polygon fill="white" stroke="#666666" points="507.75,-218.25 349.25,-218.25 349.25,-199 507.75,-199 507.75,-218.25"/>
<text text-anchor="middle" x="428.5" y="-204.75" font-family="Helvetica,sans-Serif" font-size="10.00">Nuki::NukiBle::cmdStateMachine</text>
</a>
</g>
</g>
<!-- Node2&#45;&gt;Node8 -->
<g id="edge10_Node000002_Node000008" class="edge">
<title>Node2&#45;&gt;Node8</title>
<g id="a_edge10_Node000002_Node000008"><a xlink:title=" ">
<path fill="none" stroke="#63b8ff" d="M309.5,-208.62C318.63,-208.62 328.09,-208.62 337.49,-208.62"/>
<polygon fill="#63b8ff" stroke="#63b8ff" points="337.39,-212.13 347.39,-208.63 337.39,-205.13 337.39,-212.13"/>
</a>
</g>
</g>
<!-- Node3&#45;&gt;Node4 -->
<g id="edge3_Node000003_Node000004" class="edge">
<title>Node3&#45;&gt;Node4</title>
<g id="a_edge3_Node000003_Node000004"><a xlink:title=" ">
<path fill="none" stroke="#63b8ff" d="M487.55,-181.37C508.01,-186.92 531.22,-193.21 552.48,-198.97"/>
<polygon fill="#63b8ff" stroke="#63b8ff" points="551.37,-202.3 561.93,-201.54 553.2,-195.54 551.37,-202.3"/>
</a>
</g>
</g>
<!-- Node3&#45;&gt;Node5 -->
<g id="edge4_Node000003_Node000005" class="edge">
<title>Node3&#45;&gt;Node5</title>
<g id="a_edge4_Node000003_Node000005"><a xlink:title=" ">
<path fill="none" stroke="#63b8ff" d="M493.61,-181.26C498.6,-183.67 503.39,-186.44 507.75,-189.62 530.44,-206.22 522.44,-223.29 543.75,-241.62 554.95,-251.27 569.03,-259.12 582.1,-265.13"/>
<polygon fill="#63b8ff" stroke="#63b8ff" points="580.34,-268.18 590.9,-268.95 583.12,-261.76 580.34,-268.18"/>
</a>
</g>
</g>
<!-- Node3&#45;&gt;Node6 -->
<g id="edge5_Node000003_Node000006" class="edge">
<title>Node3&#45;&gt;Node6</title>
<g id="a_edge5_Node000003_Node000006"><a xlink:title=" ">
<path fill="none" stroke="#63b8ff" d="M497.64,-165.62C510.3,-165.62 523.66,-165.62 536.73,-165.62"/>
<polygon fill="#63b8ff" stroke="#63b8ff" points="536.61,-169.13 546.61,-165.63 536.61,-162.13 536.61,-169.13"/>
</a>
</g>
</g>
<!-- Node7&#45;&gt;Node4 -->
<g id="edge7_Node000007_Node000004" class="edge">
<title>Node7&#45;&gt;Node4</title>
<g id="a_edge7_Node000007_Node000004"><a xlink:title=" ">
<path fill="none" stroke="#63b8ff" d="M472.16,-273.88C483.72,-269.6 496.22,-264.95 507.75,-260.62 527.88,-253.08 550,-244.72 569.32,-237.39"/>
<polygon fill="#63b8ff" stroke="#63b8ff" points="570.51,-240.68 578.62,-233.86 568.03,-234.14 570.51,-240.68"/>
</a>
</g>
</g>
<!-- Node7&#45;&gt;Node5 -->
<g id="edge8_Node000007_Node000005" class="edge">
<title>Node7&#45;&gt;Node5</title>
<g id="a_edge8_Node000007_Node000005"><a xlink:title=" ">
<path fill="none" stroke="#63b8ff" d="M500.63,-285.92C514.84,-285.17 529.83,-284.39 544.23,-283.64"/>
<polygon fill="#63b8ff" stroke="#63b8ff" points="544.31,-287.14 554.12,-283.13 543.95,-280.15 544.31,-287.14"/>
</a>
</g>
</g>
<!-- Node7&#45;&gt;Node6 -->
<g id="edge9_Node000007_Node000006" class="edge">
<title>Node7&#45;&gt;Node6</title>
<g id="a_edge9_Node000007_Node000006"><a xlink:title=" ">
<path fill="none" stroke="#63b8ff" d="M450.16,-274.04C466.17,-261.78 488.75,-244.07 507.75,-227.62 524.39,-213.22 525.01,-205.16 543.75,-193.62 552.79,-188.06 563.09,-183.37 573.17,-179.52"/>
<polygon fill="#63b8ff" stroke="#63b8ff" points="574.29,-182.83 582.53,-176.17 571.93,-176.24 574.29,-182.83"/>
</a>
</g>
</g>
<!-- Node8&#45;&gt;Node4 -->
<g id="edge11_Node000008_Node000004" class="edge">
<title>Node8&#45;&gt;Node4</title>
<g id="a_edge11_Node000008_Node000004"><a xlink:title=" ">
<path fill="none" stroke="#63b8ff" d="M508.05,-212.31C515.99,-212.68 524.1,-213.07 532.14,-213.44"/>
<polygon fill="#63b8ff" stroke="#63b8ff" points="531.78,-216.93 541.94,-213.9 532.11,-209.94 531.78,-216.93"/>
</a>
</g>
</g>
<!-- Node8&#45;&gt;Node5 -->
<g id="edge12_Node000008_Node000005" class="edge">
<title>Node8&#45;&gt;Node5</title>
<g id="a_edge12_Node000008_Node000005"><a xlink:title=" ">
<path fill="none" stroke="#63b8ff" d="M456.57,-218.65C489.73,-230.93 546.12,-251.81 583.53,-265.66"/>
<polygon fill="#63b8ff" stroke="#63b8ff" points="582,-268.82 592.59,-269.01 584.43,-262.26 582,-268.82"/>
</a>
</g>
</g>
<!-- Node8&#45;&gt;Node6 -->
<g id="edge13_Node000008_Node000006" class="edge">
<title>Node8&#45;&gt;Node6</title>
<g id="a_edge13_Node000008_Node000006"><a xlink:title=" ">
<path fill="none" stroke="#63b8ff" d="M474.46,-198.54C501.53,-192.47 536.22,-184.69 565.09,-178.22"/>
<polygon fill="#63b8ff" stroke="#63b8ff" points="565.77,-181.65 574.77,-176.05 564.24,-174.82 565.77,-181.65"/>
</a>
</g>
</g>
<!-- Node10 -->
<g id="Node000010" class="node">
<title>Node10</title>
<g id="a_Node000010"><a xlink:href="namespace_nuki_lock.html#af6ebff0f8c6c0cb27a927a440812c02a" target="_top" xlink:title=" ">
<polygon fill="white" stroke="#666666" points="493.5,-56.25 363.5,-56.25 363.5,-37 493.5,-37 493.5,-56.25"/>
<text text-anchor="middle" x="428.5" y="-42.75" font-family="Helvetica,sans-Serif" font-size="10.00">NukiLock::logMessageVar</text>
</a>
</g>
</g>
<!-- Node9&#45;&gt;Node10 -->
<g id="edge19_Node000009_Node000010" class="edge">
<title>Node9&#45;&gt;Node10</title>
<g id="a_edge19_Node000009_Node000010"><a xlink:title=" ">
<path fill="none" stroke="#63b8ff" d="M313.53,-46.62C326.12,-46.62 339.21,-46.62 351.84,-46.62"/>
<polygon fill="#63b8ff" stroke="#63b8ff" points="351.76,-50.13 361.76,-46.63 351.76,-43.13 351.76,-50.13"/>
</a>
</g>
</g>
</g>
</svg>
