<?xml version="1.0" encoding="UTF-8" standalone="no"?>
<!DOCTYPE svg PUBLIC "-//W3C//DTD SVG 1.1//EN"
 "http://www.w3.org/Graphics/SVG/1.1/DTD/svg11.dtd">
<!-- Generated by graphviz version 6.0.1 (20220911.1526)
 -->
<!-- Title: Nuki::NukiBle::executeAction Pages: 1 -->
<svg width="345pt" height="172pt"
 viewBox="0.00 0.00 345.00 172.00" xmlns="http://www.w3.org/2000/svg" xmlns:xlink="http://www.w3.org/1999/xlink">
<g id="graph0" class="graph" transform="scale(1 1) rotate(0) translate(4 168)">
<title>Nuki::NukiBle::executeAction</title>
<!-- Node1 -->
<g id="node1" class="node">
<title>Node1</title>
<g id="a_node1"><a xlink:title=" ">
<polygon fill="#999999" stroke="#666666" points="142,-88.5 0,-88.5 0,-69.5 142,-69.5 142,-88.5"/>
<text text-anchor="middle" x="71" y="-76.5" font-family="Helvetica,sans-Serif" font-size="10.00">Nuki::NukiBle::executeAction</text>
</a>
</g>
</g>
<!-- Node2 -->
<g id="node2" class="node">
<title>Node2</title>
<g id="a_node2"><a xlink:href="class_nuki_1_1_nuki_ble.html#ada0f3beebd95d35c122e25dd3f9eb886" target="_top" xlink:title=" ">
<polygon fill="white" stroke="#666666" points="326.5,-164 188.5,-164 188.5,-134 326.5,-134 326.5,-164"/>
<text text-anchor="start" x="196.5" y="-152" font-family="Helvetica,sans-Serif" font-size="10.00">Nuki::NukiBle::cmdChallAcc</text>
<text text-anchor="middle" x="257.5" y="-141" font-family="Helvetica,sans-Serif" font-size="10.00">StateMachine</text>
</a>
</g>
</g>
<!-- Node1&#45;&gt;Node2 -->
<g id="edge1" class="edge">
<title>Node1&#45;&gt;Node2</title>
<path fill="none" stroke="#63b8ff" d="M92.05,-88.51C113.16,-98.33 147.51,-113.76 178,-125 183.4,-126.99 189.04,-128.95 194.73,-130.83"/>
<polygon fill="#63b8ff" stroke="#63b8ff" points="193.7,-134.18 204.29,-133.94 195.86,-127.52 193.7,-134.18"/>
</g>
<!-- Node3 -->
<g id="node3" class="node">
<title>Node3</title>
<g id="a_node3"><a xlink:href="class_nuki_1_1_nuki_ble.html#a59169a9f492793762e3c6ba39b611b07" target="_top" xlink:title=" ">
<polygon fill="white" stroke="#666666" points="329.5,-116 185.5,-116 185.5,-86 329.5,-86 329.5,-116"/>
<text text-anchor="start" x="193.5" y="-104" font-family="Helvetica,sans-Serif" font-size="10.00">Nuki::NukiBle::cmdChallState</text>
<text text-anchor="middle" x="257.5" y="-93" font-family="Helvetica,sans-Serif" font-size="10.00">Machine</text>
</a>
</g>
</g>
<!-- Node1&#45;&gt;Node3 -->
<g id="edge2" class="edge">
<title>Node1&#45;&gt;Node3</title>
<path fill="none" stroke="#63b8ff" d="M142.01,-87.35C152.86,-88.64 164.15,-89.99 175.22,-91.31"/>
<polygon fill="#63b8ff" stroke="#63b8ff" points="174.96,-94.8 185.31,-92.51 175.79,-87.85 174.96,-94.8"/>
</g>
<!-- Node4 -->
<g id="node4" class="node">
<title>Node4</title>
<g id="a_node4"><a xlink:href="class_nuki_1_1_nuki_ble.html#ad135bb1455665decfddff67772c1d411" target="_top" xlink:title=" ">
<polygon fill="white" stroke="#666666" points="337,-67.5 178,-67.5 178,-48.5 337,-48.5 337,-67.5"/>
<text text-anchor="middle" x="257.5" y="-55.5" font-family="Helvetica,sans-Serif" font-size="10.00">Nuki::NukiBle::cmdStateMachine</text>
</a>
</g>
</g>
<!-- Node1&#45;&gt;Node4 -->
<g id="edge3" class="edge">
<title>Node1&#45;&gt;Node4</title>
<path fill="none" stroke="#63b8ff" d="M142.01,-71.03C150.44,-70.07 159.13,-69.08 167.78,-68.1"/>
<polygon fill="#63b8ff" stroke="#63b8ff" points="168.35,-71.56 177.89,-66.95 167.56,-64.6 168.35,-71.56"/>
</g>
<!-- Node5 -->
<g id="node5" class="node">
<title>Node5</title>
<g id="a_node5"><a xlink:href="class_nuki_1_1_nuki_ble.html#aed01f10d1ffa769f0f6fadc0d06d328e" target="_top" xlink:title=" ">
<polygon fill="white" stroke="#666666" points="333.5,-30 181.5,-30 181.5,0 333.5,0 333.5,-30"/>
<text text-anchor="start" x="189.5" y="-18" font-family="Helvetica,sans-Serif" font-size="10.00">Nuki::NukiBle::extendDisonnect</text>
<text text-anchor="middle" x="257.5" y="-7" font-family="Helvetica,sans-Serif" font-size="10.00">Timeout</text>
</a>
</g>
</g>
<!-- Node1&#45;&gt;Node5 -->
<g id="edge4" class="edge">
<title>Node1&#45;&gt;Node5</title>
<path fill="none" stroke="#63b8ff" d="M97.16,-69.39C118.57,-61.29 150.18,-49.54 178,-40 184.54,-37.76 191.42,-35.47 198.26,-33.23"/>
<polygon fill="#63b8ff" stroke="#63b8ff" points="199.8,-36.41 208.23,-30 197.64,-29.75 199.8,-36.41"/>
</g>
</g>
</svg>
