<?xml version="1.0" encoding="UTF-8" standalone="no"?>
<!DOCTYPE svg PUBLIC "-//W3C//DTD SVG 1.1//EN"
 "http://www.w3.org/Graphics/SVG/1.1/DTD/svg11.dtd">
<!-- Generated by graphviz version 12.2.1 (20241206.2353)
 -->
<!-- Title: Nuki::NukiBle::verifySecurityPin Pages: 1 -->
<!--zoomable 220 -->

<svg id="main" version="1.1" xmlns="http://www.w3.org/2000/svg" xmlns:xlink="http://www.w3.org/1999/xlink" xml:space="preserve" onload="init(evt)">

<style type="text/css"><![CDATA[
.node, .edge {opacity: 0.7;}
.node.selected, .edge.selected {opacity: 1;}
.edge:hover path { stroke: red; }
.edge:hover polygon { stroke: red; fill: red; }
]]></style>

<defs>
  <circle id="rim" cx="0" cy="0" r="7"/>
  <circle id="rim2" cx="0" cy="0" r="3.5"/>
  <g id="zoomPlus">
    <use xlink:href="#rim" fill="#404040"><set attributeName="fill" to="#808080" begin="zoomplus.mouseover" end="zoomplus.mouseout"/></use>
    <path d="M-4,0h8M0,-4v8" fill="none" stroke="white" stroke-width="1.5" pointer-events="none"/>
  </g>
  <g id="zoomMin">
    <use xlink:href="#rim" fill="#404040"><set attributeName="fill" to="#808080" begin="zoomminus.mouseover" end="zoomminus.mouseout"/></use>
    <path d="M-4,0h8" fill="none" stroke="white" stroke-width="1.5" pointer-events="none"/>
  </g>
  <g id="arrowUp" transform="translate(30 24)">
    <use xlink:href="#rim"/>
    <path pointer-events="none" fill="none" stroke="white" stroke-width="1.5" d="M0,-3.0v7 M-2.5,-0.5L0,-3.0L2.5,-0.5"/>
  </g>
  <g id="arrowRight" transform="rotate(90) translate(36 -43)">
    <use xlink:href="#rim"/>
    <path pointer-events="none" fill="none" stroke="white" stroke-width="1.5" d="M0,-3.0v7 M-2.5,-0.5L0,-3.0L2.5,-0.5"/>
  </g>
  <g id="arrowDown" transform="rotate(180) translate(-30 -48)">
    <use xlink:href="#rim"/>
    <path pointer-events="none" fill="none" stroke="white" stroke-width="1.5" d="M0,-3.0v7 M-2.5,-0.5L0,-3.0L2.5,-0.5"/>
  </g>
  <g id="arrowLeft" transform="rotate(270) translate(-36 17)">
    <use xlink:href="#rim"/>
    <path pointer-events="none" fill="none" stroke="white" stroke-width="1.5" d="M0,-3.0v7 M-2.5,-0.5L0,-3.0L2.5,-0.5"/>
  </g>
  <g id="resetDef">
    <use xlink:href="#rim2" fill="#404040"><set attributeName="fill" to="#808080" begin="reset.mouseover" end="reset.mouseout"/></use>
  </g>
</defs>
<script type="application/ecmascript">
var viewWidth = 725;
var viewHeight = 220;
var sectionId = 'dynsection-37';
</script>
<script type="application/ecmascript" xlink:href="svg.min.js"/>
<svg id="graph" class="graph">
<g id="viewport">
<title>Nuki::NukiBle::verifySecurityPin</title>
<!-- Node1 -->
<g id="Node000001" class="node">
<title>Node1</title>
<g id="a_Node000001"><a xlink:title="Send the verify pincode command via BLE to the lock. This command uses the earlier by saveSecurityPin...">
<polygon fill="#999999" stroke="#666666" points="152.5,-57.45 0,-57.45 0,-38.2 152.5,-38.2 152.5,-57.45"/>
<text text-anchor="middle" x="76.25" y="-43.95" font-family="Helvetica,sans-Serif" font-size="10.00">Nuki::NukiBle::verifySecurityPin</text>
</a>
</g>
</g>
<!-- Node2 -->
<g id="Node000002" class="node">
<title>Node2</title>
<g id="a_Node000002"><a xlink:href="class_nuki_1_1_nuki_ble.html#af1f1e299e8d97e053bba80e92ba285d6" target="_top" xlink:title=" ">
<polygon fill="white" stroke="#666666" points="329.75,-122.45 188.5,-122.45 188.5,-103.2 329.75,-103.2 329.75,-122.45"/>
<text text-anchor="middle" x="259.12" y="-108.95" font-family="Helvetica,sans-Serif" font-size="10.00">Nuki::NukiBle::executeAction</text>
</a>
</g>
</g>
<!-- Node1&#45;&gt;Node2 -->
<g id="edge1_Node000001_Node000002" class="edge">
<title>Node1&#45;&gt;Node2</title>
<g id="a_edge1_Node000001_Node000002"><a xlink:title=" ">
<path fill="none" stroke="#63b8ff" d="M105.12,-57.84C135.79,-68.86 185.29,-86.65 219.65,-99"/>
<polygon fill="#63b8ff" stroke="#63b8ff" points="218.21,-102.2 228.8,-102.29 220.58,-95.62 218.21,-102.2"/>
</a>
</g>
</g>
<!-- Node5 -->
<g id="Node000005" class="node">
<title>Node5</title>
<g id="a_Node000005"><a xlink:href="class_nuki_1_1_nuki_ble.html#ac7ce691d9c3e586474655d1663eb2e20" target="_top" xlink:title=" ">
<polygon fill="white" stroke="#666666" points="704.88,-79.45 572.62,-79.45 572.62,-60.2 704.88,-60.2 704.88,-79.45"/>
<text text-anchor="middle" x="638.75" y="-65.95" font-family="Helvetica,sans-Serif" font-size="10.00">Nuki::NukiBle::logMessage</text>
</a>
</g>
</g>
<!-- Node1&#45;&gt;Node5 -->
<g id="edge18_Node000001_Node000005" class="edge">
<title>Node1&#45;&gt;Node5</title>
<g id="a_edge18_Node000001_Node000005"><a xlink:title=" ">
<path fill="none" stroke="#63b8ff" d="M110.67,-37.72C186.63,-16.52 377.05,26.68 524.25,-23.83 543.42,-30.41 541.95,-43.11 560.25,-51.83 563.55,-53.4 567.01,-54.84 570.54,-56.16"/>
<polygon fill="#63b8ff" stroke="#63b8ff" points="569.28,-59.43 579.87,-59.28 571.5,-52.79 569.28,-59.43"/>
</a>
</g>
</g>
<!-- Node3 -->
<g id="Node000003" class="node">
<title>Node3</title>
<g id="a_Node000003"><a xlink:href="class_nuki_1_1_nuki_ble.html#ada0f3beebd95d35c122e25dd3f9eb886" target="_top" xlink:title=" ">
<polygon fill="white" stroke="#666666" points="513.75,-128.08 376.25,-128.08 376.25,-97.58 513.75,-97.58 513.75,-128.08"/>
<text text-anchor="start" x="384.25" y="-114.58" font-family="Helvetica,sans-Serif" font-size="10.00">Nuki::NukiBle::cmdChallAcc</text>
<text text-anchor="middle" x="445" y="-103.33" font-family="Helvetica,sans-Serif" font-size="10.00">StateMachine</text>
</a>
</g>
</g>
<!-- Node2&#45;&gt;Node3 -->
<g id="edge2_Node000002_Node000003" class="edge">
<title>Node2&#45;&gt;Node3</title>
<g id="a_edge2_Node000002_Node000003"><a xlink:title=" ">
<path fill="none" stroke="#63b8ff" d="M330.16,-112.83C341.43,-112.83 353.16,-112.83 364.63,-112.83"/>
<polygon fill="#63b8ff" stroke="#63b8ff" points="364.46,-116.33 374.46,-112.83 364.46,-109.33 364.46,-116.33"/>
</a>
</g>
</g>
<!-- Node4 -->
<g id="Node000004" class="node">
<title>Node4</title>
<g id="a_Node000004"><a xlink:href="class_nuki_1_1_nuki_ble.html#a6e8fca90c04249660dce6cb993eb4495" target="_top" xlink:title=" ">
<polygon fill="white" stroke="#666666" points="717.25,-171.08 560.25,-171.08 560.25,-140.58 717.25,-140.58 717.25,-171.08"/>
<text text-anchor="start" x="568.25" y="-157.58" font-family="Helvetica,sans-Serif" font-size="10.00">Nuki::NukiBle::extendDisconnect</text>
<text text-anchor="middle" x="638.75" y="-146.33" font-family="Helvetica,sans-Serif" font-size="10.00">Timeout</text>
</a>
</g>
</g>
<!-- Node2&#45;&gt;Node4 -->
<g id="edge15_Node000002_Node000004" class="edge">
<title>Node2&#45;&gt;Node4</title>
<g id="a_edge15_Node000002_Node000004"><a xlink:title=" ">
<path fill="none" stroke="#63b8ff" d="M268.13,-122.7C284.23,-141.66 322.68,-182.65 365.75,-197.83 432.19,-221.24 454.91,-210.25 524.25,-197.83 548.2,-193.54 573.71,-184.53 594.47,-175.96"/>
<polygon fill="#63b8ff" stroke="#63b8ff" points="595.63,-179.27 603.46,-172.13 592.89,-172.83 595.63,-179.27"/>
</a>
</g>
</g>
<!-- Node2&#45;&gt;Node5 -->
<g id="edge16_Node000002_Node000005" class="edge">
<title>Node2&#45;&gt;Node5</title>
<g id="a_edge16_Node000002_Node000005"><a xlink:title=" ">
<path fill="none" stroke="#63b8ff" d="M270.06,-102.75C287.53,-85.83 325.74,-52.31 365.75,-39.83 433,-18.85 454.72,-28.54 524.25,-39.83 540.9,-42.53 544.02,-47.25 560.25,-51.83 566.79,-53.67 573.69,-55.48 580.55,-57.18"/>
<polygon fill="#63b8ff" stroke="#63b8ff" points="579.25,-60.47 589.79,-59.42 580.89,-53.66 579.25,-60.47"/>
</a>
</g>
</g>
<!-- Node6 -->
<g id="Node000006" class="node">
<title>Node6</title>
<g id="a_Node000006"><a xlink:href="class_nuki_1_1_nuki_ble.html#af3650133f46aeca48a5f01b95d23ab71" target="_top" xlink:title=" ">
<polygon fill="white" stroke="#666666" points="712.38,-122.45 565.12,-122.45 565.12,-103.2 712.38,-103.2 712.38,-122.45"/>
<text text-anchor="middle" x="638.75" y="-108.95" font-family="Helvetica,sans-Serif" font-size="10.00">Nuki::NukiBle::logMessageVar</text>
</a>
</g>
</g>
<!-- Node2&#45;&gt;Node6 -->
<g id="edge17_Node000002_Node000006" class="edge">
<title>Node2&#45;&gt;Node6</title>
<g id="a_edge17_Node000002_Node000006"><a xlink:title=" ">
<path fill="none" stroke="#63b8ff" d="M272.14,-122.83C290.77,-137.62 328.41,-164.68 365.75,-174.83 433.73,-193.31 460.42,-204.63 524.25,-174.83 546.83,-164.28 539.09,-145.01 560.25,-131.83 563.01,-130.11 565.91,-128.55 568.9,-127.13"/>
<polygon fill="#63b8ff" stroke="#63b8ff" points="570.07,-130.44 577.99,-123.4 567.41,-123.96 570.07,-130.44"/>
</a>
</g>
</g>
<!-- Node7 -->
<g id="Node000007" class="node">
<title>Node7</title>
<g id="a_Node000007"><a xlink:href="class_nuki_1_1_nuki_ble.html#a59169a9f492793762e3c6ba39b611b07" target="_top" xlink:title=" ">
<polygon fill="white" stroke="#666666" points="516.75,-79.08 373.25,-79.08 373.25,-48.58 516.75,-48.58 516.75,-79.08"/>
<text text-anchor="start" x="381.25" y="-65.58" font-family="Helvetica,sans-Serif" font-size="10.00">Nuki::NukiBle::cmdChallState</text>
<text text-anchor="middle" x="445" y="-54.33" font-family="Helvetica,sans-Serif" font-size="10.00">Machine</text>
</a>
</g>
</g>
<!-- Node2&#45;&gt;Node7 -->
<g id="edge6_Node000002_Node000007" class="edge">
<title>Node2&#45;&gt;Node7</title>
<g id="a_edge6_Node000002_Node000007"><a xlink:title=" ">
<path fill="none" stroke="#63b8ff" d="M297.78,-102.79C319.75,-96.94 348.17,-89.37 374.1,-82.46"/>
<polygon fill="#63b8ff" stroke="#63b8ff" points="374.81,-85.89 383.57,-79.93 373.01,-79.12 374.81,-85.89"/>
</a>
</g>
</g>
<!-- Node9 -->
<g id="Node000009" class="node">
<title>Node9</title>
<g id="a_Node000009"><a xlink:href="class_nuki_1_1_nuki_ble.html#ad135bb1455665decfddff67772c1d411" target="_top" xlink:title=" ">
<polygon fill="white" stroke="#666666" points="524.25,-165.45 365.75,-165.45 365.75,-146.2 524.25,-146.2 524.25,-165.45"/>
<text text-anchor="middle" x="445" y="-151.95" font-family="Helvetica,sans-Serif" font-size="10.00">Nuki::NukiBle::cmdStateMachine</text>
</a>
</g>
</g>
<!-- Node2&#45;&gt;Node9 -->
<g id="edge11_Node000002_Node000009" class="edge">
<title>Node2&#45;&gt;Node9</title>
<g id="a_edge11_Node000002_Node000009"><a xlink:title=" ">
<path fill="none" stroke="#63b8ff" d="M303.24,-122.91C329.08,-128.95 362.17,-136.69 389.78,-143.15"/>
<polygon fill="#63b8ff" stroke="#63b8ff" points="388.83,-146.52 399.37,-145.39 390.43,-139.71 388.83,-146.52"/>
</a>
</g>
</g>
<!-- Node3&#45;&gt;Node4 -->
<g id="edge3_Node000003_Node000004" class="edge">
<title>Node3&#45;&gt;Node4</title>
<g id="a_edge3_Node000003_Node000004"><a xlink:title=" ">
<path fill="none" stroke="#63b8ff" d="M514.14,-128.11C527.82,-131.18 542.32,-134.43 556.39,-137.58"/>
<polygon fill="#63b8ff" stroke="#63b8ff" points="555.56,-140.98 566.08,-139.76 557.09,-134.15 555.56,-140.98"/>
</a>
</g>
</g>
<!-- Node3&#45;&gt;Node5 -->
<g id="edge4_Node000003_Node000005" class="edge">
<title>Node3&#45;&gt;Node5</title>
<g id="a_edge4_Node000003_Node000005"><a xlink:title=" ">
<path fill="none" stroke="#63b8ff" d="M514.14,-97.55C536.23,-92.6 560.45,-87.16 581.57,-82.43"/>
<polygon fill="#63b8ff" stroke="#63b8ff" points="582.15,-85.88 591.14,-80.28 580.61,-79.05 582.15,-85.88"/>
</a>
</g>
</g>
<!-- Node3&#45;&gt;Node6 -->
<g id="edge5_Node000003_Node000006" class="edge">
<title>Node3&#45;&gt;Node6</title>
<g id="a_edge5_Node000003_Node000006"><a xlink:title=" ">
<path fill="none" stroke="#63b8ff" d="M514.14,-112.83C526.8,-112.83 540.16,-112.83 553.23,-112.83"/>
<polygon fill="#63b8ff" stroke="#63b8ff" points="553.11,-116.33 563.11,-112.83 553.11,-109.33 553.11,-116.33"/>
</a>
</g>
</g>
<!-- Node7&#45;&gt;Node4 -->
<g id="edge7_Node000007_Node000004" class="edge">
<title>Node7&#45;&gt;Node4</title>
<g id="a_edge7_Node000007_Node000004"><a xlink:title=" ">
<path fill="none" stroke="#63b8ff" d="M506.99,-79.49C513.05,-82.16 518.92,-85.25 524.25,-88.83 544.94,-102.73 539.5,-118.02 560.25,-131.83 562.05,-133.03 563.92,-134.17 565.83,-135.26"/>
<polygon fill="#63b8ff" stroke="#63b8ff" points="563.89,-138.2 574.4,-139.57 567.04,-131.94 563.89,-138.2"/>
</a>
</g>
</g>
<!-- Node7&#45;&gt;Node5 -->
<g id="edge9_Node000007_Node000005" class="edge">
<title>Node7&#45;&gt;Node5</title>
<g id="a_edge9_Node000007_Node000005"><a xlink:title=" ">
<path fill="none" stroke="#63b8ff" d="M517.13,-66.05C531.34,-66.5 546.33,-66.97 560.73,-67.42"/>
<polygon fill="#63b8ff" stroke="#63b8ff" points="560.51,-70.91 570.62,-67.73 560.73,-63.92 560.51,-70.91"/>
</a>
</g>
</g>
<!-- Node7&#45;&gt;Node6 -->
<g id="edge10_Node000007_Node000006" class="edge">
<title>Node7&#45;&gt;Node6</title>
<g id="a_edge10_Node000007_Node000006"><a xlink:title=" ">
<path fill="none" stroke="#63b8ff" d="M507.46,-79.53C533.3,-86.14 562.98,-93.72 587.49,-99.98"/>
<polygon fill="#63b8ff" stroke="#63b8ff" points="586.32,-103.3 596.88,-102.38 588.06,-96.52 586.32,-103.3"/>
</a>
</g>
</g>
<!-- Node8 -->
<g id="Node000008" class="node">
<title>Node8</title>
<g id="a_Node000008"><a xlink:href="class_nuki_1_1_nuki_ble.html#a25207bb564a4b54b8dd8c872177b53a7" target="_top" xlink:title="Returns if BLE is pairing/paired/connected with a Smart Lock Ultra.">
<polygon fill="white" stroke="#666666" points="703.75,-42.45 573.75,-42.45 573.75,-23.2 703.75,-23.2 703.75,-42.45"/>
<text text-anchor="middle" x="638.75" y="-28.95" font-family="Helvetica,sans-Serif" font-size="10.00">Nuki::NukiBle::isLockUltra</text>
</a>
</g>
</g>
<!-- Node7&#45;&gt;Node8 -->
<g id="edge8_Node000007_Node000008" class="edge">
<title>Node7&#45;&gt;Node8</title>
<g id="a_edge8_Node000007_Node000008"><a xlink:title=" ">
<path fill="none" stroke="#63b8ff" d="M517.13,-52.33C532.48,-49.85 548.74,-47.22 564.18,-44.72"/>
<polygon fill="#63b8ff" stroke="#63b8ff" points="564.45,-48.22 573.77,-43.17 563.34,-41.31 564.45,-48.22"/>
</a>
</g>
</g>
<!-- Node9&#45;&gt;Node4 -->
<g id="edge12_Node000009_Node000004" class="edge">
<title>Node9&#45;&gt;Node4</title>
<g id="a_edge12_Node000009_Node000004"><a xlink:title=" ">
<path fill="none" stroke="#63b8ff" d="M524.55,-155.83C532.49,-155.83 540.6,-155.83 548.64,-155.83"/>
<polygon fill="#63b8ff" stroke="#63b8ff" points="548.43,-159.33 558.43,-155.83 548.43,-152.33 548.43,-159.33"/>
</a>
</g>
</g>
<!-- Node9&#45;&gt;Node5 -->
<g id="edge13_Node000009_Node000005" class="edge">
<title>Node9&#45;&gt;Node5</title>
<g id="a_edge13_Node000009_Node000005"><a xlink:title=" ">
<path fill="none" stroke="#63b8ff" d="M505.33,-145.74C511.97,-143.37 518.43,-140.44 524.25,-136.83 545.42,-123.67 539.5,-107.63 560.25,-93.83 566.1,-89.94 572.61,-86.65 579.3,-83.88"/>
<polygon fill="#63b8ff" stroke="#63b8ff" points="580.33,-87.23 588.49,-80.47 577.89,-80.67 580.33,-87.23"/>
</a>
</g>
</g>
<!-- Node9&#45;&gt;Node6 -->
<g id="edge14_Node000009_Node000006" class="edge">
<title>Node9&#45;&gt;Node6</title>
<g id="a_edge14_Node000009_Node000006"><a xlink:title=" ">
<path fill="none" stroke="#63b8ff" d="M490.96,-145.75C518.03,-139.68 552.72,-131.9 581.59,-125.42"/>
<polygon fill="#63b8ff" stroke="#63b8ff" points="582.27,-128.86 591.27,-123.25 580.74,-122.03 582.27,-128.86"/>
</a>
</g>
</g>
</g>
</svg>

<g id="navigator" transform="translate(0 0)" fill="#404254">
  <rect fill="#f2f5e9" fill-opacity="0.5" stroke="#606060" stroke-width=".5" x="0" y="0" width="60" height="60"/>
  <use id="zoomplus" xlink:href="#zoomPlus" x="17" y="9" onmousedown="handleZoom(evt,'in')"/>
  <use id="zoomminus" xlink:href="#zoomMin" x="42" y="9" onmousedown="handleZoom(evt,'out')"/>
  <use id="reset" xlink:href="#resetDef" x="30" y="36" onmousedown="handleReset()"/>
   <use id="arrowup" xlink:href="#arrowUp" x="0" y="0" onmousedown="handlePan(0,-1)"/>
  <use id="arrowright" xlink:href="#arrowRight" x="0" y="0" onmousedown="handlePan(1,0)"/>
  <use id="arrowdown" xlink:href="#arrowDown" x="0" y="0" onmousedown="handlePan(0,1)"/>
  <use id="arrowleft" xlink:href="#arrowLeft" x="0" y="0" onmousedown="handlePan(-1,0)"/>
</g>
<svg viewBox="0 0 15 15" width="100%" height="30px" preserveAspectRatio="xMaxYMin meet">
 <g id="arrow_out" transform="scale(0.3 0.3)">
  <a xlink:href="class_nuki_1_1_nuki_ble_a2c962e2c69d9063972790109704dd233_cgraph_org.svg" target="_base">
   <rect id="button" ry="5" rx="5" y="6" x="6" height="38" width="38"
        fill="#f2f5e9" fill-opacity="0.5" stroke="#606060" stroke-width="1.0"/>
   <path id="arrow"
     d="M 11.500037,31.436501 C 11.940474,20.09759 22.043105,11.32322 32.158766,21.979434 L 37.068811,17.246167 C 37.068811,17.246167 37.088388,32 37.088388,32 L 22.160133,31.978069 C 22.160133,31.978069 26.997745,27.140456 26.997745,27.140456 C 18.528582,18.264221 13.291696,25.230495 11.500037,31.436501 z"
     style="fill:#404040;"/>
  </a>
 </g>
</svg>

<style type='text/css'>
<![CDATA[
[data-mouse-over-selected='false'] { opacity: 0.7; }
[data-mouse-over-selected='true']  { opacity: 1.0; }
]]>
</style>
<script type="application/ecmascript"><![CDATA[
document.addEventListener('DOMContentLoaded', (event) => {
  highlightEdges();
  highlightAdjacentNodes();
});
]]></script>
</svg>
