<?xml version="1.0" encoding="UTF-8" standalone="no"?>
<!DOCTYPE svg PUBLIC "-//W3C//DTD SVG 1.1//EN"
 "http://www.w3.org/Graphics/SVG/1.1/DTD/svg11.dtd">
<!-- Generated by graphviz version 12.2.1 (20241206.2353)
 -->
<!-- Title: Nuki::NukiBle::executeAction Pages: 1 -->
<svg width="537pt" height="205pt"
 viewBox="0.00 0.00 536.75 204.75" xmlns="http://www.w3.org/2000/svg" xmlns:xlink="http://www.w3.org/1999/xlink">
<g id="graph0" class="graph" transform="scale(1 1) rotate(0) translate(4 200.75)">
<title>Nuki::NukiBle::executeAction</title>
<!-- Node1 -->
<g id="Node000001" class="node">
<title>Node1</title>
<g id="a_Node000001"><a xlink:title=" ">
<polygon fill="#999999" stroke="#666666" points="141.25,-96.73 0,-96.73 0,-77.48 141.25,-77.48 141.25,-96.73"/>
<text text-anchor="middle" x="70.62" y="-83.23" font-family="Helvetica,sans-Serif" font-size="10.00">Nuki::NukiBle::executeAction</text>
</a>
</g>
</g>
<!-- Node2 -->
<g id="Node000002" class="node">
<title>Node2</title>
<g id="a_Node000002"><a xlink:href="class_nuki_1_1_nuki_ble.html#ada0f3beebd95d35c122e25dd3f9eb886" target="_top" xlink:title=" ">
<polygon fill="white" stroke="#666666" points="325.25,-173.35 187.75,-173.35 187.75,-142.85 325.25,-142.85 325.25,-173.35"/>
<text text-anchor="start" x="195.75" y="-159.85" font-family="Helvetica,sans-Serif" font-size="10.00">Nuki::NukiBle::cmdChallAcc</text>
<text text-anchor="middle" x="256.5" y="-148.6" font-family="Helvetica,sans-Serif" font-size="10.00">StateMachine</text>
</a>
</g>
</g>
<!-- Node1&#45;&gt;Node2 -->
<g id="edge1_Node000001_Node000002" class="edge">
<title>Node1&#45;&gt;Node2</title>
<g id="a_edge1_Node000001_Node000002"><a xlink:title=" ">
<path fill="none" stroke="#63b8ff" d="M92.81,-97.09C113.95,-106.87 147.49,-121.9 177.25,-133.1 182.46,-135.06 187.89,-137 193.37,-138.89"/>
<polygon fill="#63b8ff" stroke="#63b8ff" points="191.86,-142.08 202.46,-141.95 194.1,-135.44 191.86,-142.08"/>
</a>
</g>
</g>
<!-- Node3 -->
<g id="Node000003" class="node">
<title>Node3</title>
<g id="a_Node000003"><a xlink:href="class_nuki_1_1_nuki_ble.html#a6e8fca90c04249660dce6cb993eb4495" target="_top" xlink:title=" ">
<polygon fill="white" stroke="#666666" points="528.75,-169.35 371.75,-169.35 371.75,-138.85 528.75,-138.85 528.75,-169.35"/>
<text text-anchor="start" x="379.75" y="-155.85" font-family="Helvetica,sans-Serif" font-size="10.00">Nuki::NukiBle::extendDisconnect</text>
<text text-anchor="middle" x="450.25" y="-144.6" font-family="Helvetica,sans-Serif" font-size="10.00">Timeout</text>
</a>
</g>
</g>
<!-- Node1&#45;&gt;Node3 -->
<g id="edge13_Node000001_Node000003" class="edge">
<title>Node1&#45;&gt;Node3</title>
<g id="a_edge13_Node000001_Node000003"><a xlink:title=" ">
<path fill="none" stroke="#63b8ff" d="M78.64,-97.14C93.79,-117.83 131.89,-164.7 177.25,-182.1 249.76,-209.91 340.67,-190.75 396.86,-173.28"/>
<polygon fill="#63b8ff" stroke="#63b8ff" points="397.72,-176.68 406.18,-170.29 395.58,-170.02 397.72,-176.68"/>
</a>
</g>
</g>
<!-- Node4 -->
<g id="Node000004" class="node">
<title>Node4</title>
<g id="a_Node000004"><a xlink:href="class_nuki_1_1_nuki_ble.html#ac7ce691d9c3e586474655d1663eb2e20" target="_top" xlink:title=" ">
<polygon fill="white" stroke="#666666" points="516.38,-78.73 384.12,-78.73 384.12,-59.48 516.38,-59.48 516.38,-78.73"/>
<text text-anchor="middle" x="450.25" y="-65.23" font-family="Helvetica,sans-Serif" font-size="10.00">Nuki::NukiBle::logMessage</text>
</a>
</g>
</g>
<!-- Node1&#45;&gt;Node4 -->
<g id="edge14_Node000001_Node000004" class="edge">
<title>Node1&#45;&gt;Node4</title>
<g id="a_edge14_Node000001_Node000004"><a xlink:title=" ">
<path fill="none" stroke="#63b8ff" d="M81.56,-77.03C99.03,-60.1 137.24,-26.58 177.25,-14.1 244.5,6.88 267.09,1.66 335.75,-14.1 368.36,-21.59 402.48,-39.73 424.69,-53.14"/>
<polygon fill="#63b8ff" stroke="#63b8ff" points="422.66,-56 433,-58.3 426.35,-50.06 422.66,-56"/>
</a>
</g>
</g>
<!-- Node5 -->
<g id="Node000005" class="node">
<title>Node5</title>
<g id="a_Node000005"><a xlink:href="class_nuki_1_1_nuki_ble.html#af3650133f46aeca48a5f01b95d23ab71" target="_top" xlink:title=" ">
<polygon fill="white" stroke="#666666" points="523.88,-116.73 376.62,-116.73 376.62,-97.48 523.88,-97.48 523.88,-116.73"/>
<text text-anchor="middle" x="450.25" y="-103.23" font-family="Helvetica,sans-Serif" font-size="10.00">Nuki::NukiBle::logMessageVar</text>
</a>
</g>
</g>
<!-- Node1&#45;&gt;Node5 -->
<g id="edge15_Node000001_Node000005" class="edge">
<title>Node1&#45;&gt;Node5</title>
<g id="a_edge15_Node000001_Node000005"><a xlink:title=" ">
<path fill="none" stroke="#63b8ff" d="M91.2,-77.03C136.43,-55.24 250.83,-8.66 335.75,-47.1 357.84,-57.1 351.02,-75.52 371.75,-88.1 374.68,-89.88 377.76,-91.49 380.94,-92.95"/>
<polygon fill="#63b8ff" stroke="#63b8ff" points="379.38,-96.09 389.97,-96.55 381.98,-89.59 379.38,-96.09"/>
</a>
</g>
</g>
<!-- Node6 -->
<g id="Node000006" class="node">
<title>Node6</title>
<g id="a_Node000006"><a xlink:href="class_nuki_1_1_nuki_ble.html#a59169a9f492793762e3c6ba39b611b07" target="_top" xlink:title=" ">
<polygon fill="white" stroke="#666666" points="328.25,-124.35 184.75,-124.35 184.75,-93.85 328.25,-93.85 328.25,-124.35"/>
<text text-anchor="start" x="192.75" y="-110.85" font-family="Helvetica,sans-Serif" font-size="10.00">Nuki::NukiBle::cmdChallState</text>
<text text-anchor="middle" x="256.5" y="-99.6" font-family="Helvetica,sans-Serif" font-size="10.00">Machine</text>
</a>
</g>
</g>
<!-- Node1&#45;&gt;Node6 -->
<g id="edge5_Node000001_Node000006" class="edge">
<title>Node1&#45;&gt;Node6</title>
<g id="a_edge5_Node000001_Node000006"><a xlink:title=" ">
<path fill="none" stroke="#63b8ff" d="M141.66,-95.48C151.95,-96.71 162.62,-97.99 173.13,-99.25"/>
<polygon fill="#63b8ff" stroke="#63b8ff" points="172.59,-102.71 182.93,-100.42 173.42,-95.76 172.59,-102.71"/>
</a>
</g>
</g>
<!-- Node7 -->
<g id="Node000007" class="node">
<title>Node7</title>
<g id="a_Node000007"><a xlink:href="class_nuki_1_1_nuki_ble.html#ad135bb1455665decfddff67772c1d411" target="_top" xlink:title=" ">
<polygon fill="white" stroke="#666666" points="335.75,-75.73 177.25,-75.73 177.25,-56.48 335.75,-56.48 335.75,-75.73"/>
<text text-anchor="middle" x="256.5" y="-62.23" font-family="Helvetica,sans-Serif" font-size="10.00">Nuki::NukiBle::cmdStateMachine</text>
</a>
</g>
</g>
<!-- Node1&#45;&gt;Node7 -->
<g id="edge9_Node000001_Node000007" class="edge">
<title>Node1&#45;&gt;Node7</title>
<g id="a_edge9_Node000001_Node000007"><a xlink:title=" ">
<path fill="none" stroke="#63b8ff" d="M141.66,-79.1C149.53,-78.21 157.62,-77.28 165.69,-76.36"/>
<polygon fill="#63b8ff" stroke="#63b8ff" points="166.01,-79.85 175.55,-75.23 165.22,-72.89 166.01,-79.85"/>
</a>
</g>
</g>
<!-- Node2&#45;&gt;Node3 -->
<g id="edge2_Node000002_Node000003" class="edge">
<title>Node2&#45;&gt;Node3</title>
<g id="a_edge2_Node000002_Node000003"><a xlink:title=" ">
<path fill="none" stroke="#63b8ff" d="M325.64,-156.68C336.79,-156.45 348.47,-156.2 360.03,-155.96"/>
<polygon fill="#63b8ff" stroke="#63b8ff" points="360.08,-159.46 370.01,-155.76 359.94,-152.46 360.08,-159.46"/>
</a>
</g>
</g>
<!-- Node2&#45;&gt;Node4 -->
<g id="edge3_Node000002_Node000004" class="edge">
<title>Node2&#45;&gt;Node4</title>
<g id="a_edge3_Node000002_Node000004"><a xlink:title=" ">
<path fill="none" stroke="#63b8ff" d="M318.97,-142.38C324.88,-139.73 330.58,-136.66 335.75,-133.1 356.85,-118.58 350.16,-101.89 371.75,-88.1 374.34,-86.45 377.07,-84.94 379.88,-83.56"/>
<polygon fill="#63b8ff" stroke="#63b8ff" points="381.16,-86.82 389.01,-79.7 378.44,-80.37 381.16,-86.82"/>
</a>
</g>
</g>
<!-- Node2&#45;&gt;Node5 -->
<g id="edge4_Node000002_Node000005" class="edge">
<title>Node2&#45;&gt;Node5</title>
<g id="a_edge4_Node000002_Node000005"><a xlink:title=" ">
<path fill="none" stroke="#63b8ff" d="M316.6,-142.38C343.44,-135.25 374.81,-126.9 400.3,-120.12"/>
<polygon fill="#63b8ff" stroke="#63b8ff" points="400.97,-123.56 409.74,-117.61 399.18,-116.8 400.97,-123.56"/>
</a>
</g>
</g>
<!-- Node6&#45;&gt;Node3 -->
<g id="edge6_Node000006_Node000003" class="edge">
<title>Node6&#45;&gt;Node3</title>
<g id="a_edge6_Node000006_Node000003"><a xlink:title=" ">
<path fill="none" stroke="#63b8ff" d="M324.56,-124.84C339.6,-128.37 355.68,-132.14 371.12,-135.77"/>
<polygon fill="#63b8ff" stroke="#63b8ff" points="370.21,-139.15 380.75,-138.03 371.81,-132.33 370.21,-139.15"/>
</a>
</g>
</g>
<!-- Node6&#45;&gt;Node4 -->
<g id="edge7_Node000006_Node000004" class="edge">
<title>Node6&#45;&gt;Node4</title>
<g id="a_edge7_Node000006_Node000004"><a xlink:title=" ">
<path fill="none" stroke="#63b8ff" d="M328.63,-94.26C348.76,-90.06 370.46,-85.54 389.83,-81.5"/>
<polygon fill="#63b8ff" stroke="#63b8ff" points="390.38,-84.96 399.45,-79.49 388.95,-78.11 390.38,-84.96"/>
</a>
</g>
</g>
<!-- Node6&#45;&gt;Node5 -->
<g id="edge8_Node000006_Node000005" class="edge">
<title>Node6&#45;&gt;Node5</title>
<g id="a_edge8_Node000006_Node000005"><a xlink:title=" ">
<path fill="none" stroke="#63b8ff" d="M328.63,-108.36C340.42,-108.24 352.75,-108.11 364.83,-107.98"/>
<polygon fill="#63b8ff" stroke="#63b8ff" points="364.84,-111.48 374.8,-107.88 364.76,-104.48 364.84,-111.48"/>
</a>
</g>
</g>
<!-- Node7&#45;&gt;Node3 -->
<g id="edge10_Node000007_Node000003" class="edge">
<title>Node7&#45;&gt;Node3</title>
<g id="a_edge10_Node000007_Node000003"><a xlink:title=" ">
<path fill="none" stroke="#63b8ff" d="M316.34,-76.18C323.14,-78.55 329.77,-81.48 335.75,-85.1 356.5,-97.66 351.71,-112.44 371.75,-126.1 375.85,-128.9 380.26,-131.45 384.83,-133.77"/>
<polygon fill="#63b8ff" stroke="#63b8ff" points="383.08,-136.82 393.62,-137.86 386.03,-130.47 383.08,-136.82"/>
</a>
</g>
</g>
<!-- Node7&#45;&gt;Node4 -->
<g id="edge11_Node000007_Node000004" class="edge">
<title>Node7&#45;&gt;Node4</title>
<g id="a_edge11_Node000007_Node000004"><a xlink:title=" ">
<path fill="none" stroke="#63b8ff" d="M336.05,-67.33C348.04,-67.52 360.4,-67.71 372.36,-67.9"/>
<polygon fill="#63b8ff" stroke="#63b8ff" points="372.1,-71.4 382.16,-68.05 372.21,-64.4 372.1,-71.4"/>
</a>
</g>
</g>
<!-- Node7&#45;&gt;Node5 -->
<g id="edge12_Node000007_Node000005" class="edge">
<title>Node7&#45;&gt;Node5</title>
<g id="a_edge12_Node000007_Node000005"><a xlink:title=" ">
<path fill="none" stroke="#63b8ff" d="M304.41,-76.13C330.52,-81.72 363.27,-88.72 391.01,-94.65"/>
<polygon fill="#63b8ff" stroke="#63b8ff" points="390.17,-98.05 400.68,-96.72 391.64,-91.2 390.17,-98.05"/>
</a>
</g>
</g>
</g>
</svg>
