<?xml version="1.0" encoding="UTF-8" standalone="no"?>
<!DOCTYPE svg PUBLIC "-//W3C//DTD SVG 1.1//EN"
 "http://www.w3.org/Graphics/SVG/1.1/DTD/svg11.dtd">
<!-- Generated by graphviz version 12.2.1 (20241206.2353)
 -->
<!-- Title: Nuki::NukiBle::updateKeypadEntry Pages: 1 -->
<svg width="717pt" height="355pt"
 viewBox="0.00 0.00 717.00 355.49" xmlns="http://www.w3.org/2000/svg" xmlns:xlink="http://www.w3.org/1999/xlink">
<g id="graph0" class="graph" transform="scale(1 1) rotate(0) translate(4 351.49)">
<title>Nuki::NukiBle::updateKeypadEntry</title>
<!-- Node1 -->
<g id="Node000001" class="node">
<title>Node1</title>
<g id="a_Node000001"><a xlink:title="Send an updated keypad entry to the lock via BLE.">
<polygon fill="#999999" stroke="#666666" points="141.25,-88.88 0,-88.88 0,-58.38 141.25,-58.38 141.25,-88.88"/>
<text text-anchor="start" x="8" y="-75.38" font-family="Helvetica,sans-Serif" font-size="10.00">Nuki::NukiBle::updateKeypad</text>
<text text-anchor="middle" x="70.62" y="-64.12" font-family="Helvetica,sans-Serif" font-size="10.00">Entry</text>
</a>
</g>
</g>
<!-- Node2 -->
<g id="Node000002" class="node">
<title>Node2</title>
<g id="a_Node000002"><a xlink:href="class_nuki_1_1_nuki_ble.html#af1f1e299e8d97e053bba80e92ba285d6" target="_top" xlink:title=" ">
<polygon fill="white" stroke="#666666" points="320,-219.25 178.75,-219.25 178.75,-200 320,-200 320,-219.25"/>
<text text-anchor="middle" x="249.38" y="-205.75" font-family="Helvetica,sans-Serif" font-size="10.00">Nuki::NukiBle::executeAction</text>
</a>
</g>
</g>
<!-- Node1&#45;&gt;Node2 -->
<g id="edge1_Node000001_Node000002" class="edge">
<title>Node1&#45;&gt;Node2</title>
<g id="a_edge1_Node000001_Node000002"><a xlink:title=" ">
<path fill="none" stroke="#63b8ff" d="M91.9,-89.23C125.39,-114.99 191.97,-166.22 226.48,-192.78"/>
<polygon fill="#63b8ff" stroke="#63b8ff" points="224.06,-195.33 234.12,-198.65 228.32,-189.78 224.06,-195.33"/>
</a>
</g>
</g>
<!-- Node6 -->
<g id="Node000006" class="node">
<title>Node6</title>
<g id="a_Node000006"><a xlink:href="class_nuki_1_1_nuki_ble.html#af3650133f46aeca48a5f01b95d23ab71" target="_top" xlink:title=" ">
<polygon fill="white" stroke="#666666" points="704.12,-181.25 556.88,-181.25 556.88,-162 704.12,-162 704.12,-181.25"/>
<text text-anchor="middle" x="630.5" y="-167.75" font-family="Helvetica,sans-Serif" font-size="10.00">Nuki::NukiBle::logMessageVar</text>
</a>
</g>
</g>
<!-- Node1&#45;&gt;Node6 -->
<g id="edge18_Node000001_Node000006" class="edge">
<title>Node1&#45;&gt;Node6</title>
<g id="a_edge18_Node000001_Node000006"><a xlink:title=" ">
<path fill="none" stroke="#63b8ff" d="M141.39,-81.2C229.32,-91.38 384.83,-111.51 516,-139.62 539.76,-144.72 565.88,-151.96 587.07,-158.27"/>
<polygon fill="#63b8ff" stroke="#63b8ff" points="585.94,-161.59 596.52,-161.13 587.96,-154.89 585.94,-161.59"/>
</a>
</g>
</g>
<!-- Node10 -->
<g id="Node000010" class="node">
<title>Node10</title>
<g id="a_Node000010"><a xlink:href="namespace_nuki_lock.html#a2afef62c8ad3997e1154ffaabbd645de" target="_top" xlink:title=" ">
<polygon fill="white" stroke="#666666" points="321.5,-67.88 177.25,-67.88 177.25,-37.38 321.5,-37.38 321.5,-67.88"/>
<text text-anchor="start" x="185.25" y="-54.38" font-family="Helvetica,sans-Serif" font-size="10.00">NukiLock::logUpdatedKeypad</text>
<text text-anchor="middle" x="249.38" y="-43.12" font-family="Helvetica,sans-Serif" font-size="10.00">Entry</text>
</a>
</g>
</g>
<!-- Node1&#45;&gt;Node10 -->
<g id="edge19_Node000001_Node000010" class="edge">
<title>Node1&#45;&gt;Node10</title>
<g id="a_edge19_Node000001_Node000010"><a xlink:title=" ">
<path fill="none" stroke="#63b8ff" d="M141.74,-65.3C149.6,-64.36 157.66,-63.4 165.66,-62.45"/>
<polygon fill="#63b8ff" stroke="#63b8ff" points="165.88,-65.95 175.4,-61.3 165.06,-59 165.88,-65.95"/>
</a>
</g>
</g>
<!-- Node12 -->
<g id="Node000012" class="node">
<title>Node12</title>
<g id="a_Node000012"><a xlink:href="namespace_nuki.html#a438fdfcef9f81eb0a3e493631b71ca5b" target="_top" xlink:title=" ">
<polygon fill="white" stroke="#666666" points="291.88,-19.25 206.88,-19.25 206.88,0 291.88,0 291.88,-19.25"/>
<text text-anchor="middle" x="249.38" y="-5.75" font-family="Helvetica,sans-Serif" font-size="10.00">Nuki::printBuffer</text>
</a>
</g>
</g>
<!-- Node1&#45;&gt;Node12 -->
<g id="edge21_Node000001_Node000012" class="edge">
<title>Node1&#45;&gt;Node12</title>
<g id="a_edge21_Node000001_Node000012"><a xlink:title=" ">
<path fill="none" stroke="#63b8ff" d="M104.92,-58C125.48,-48.72 152.56,-37.13 177.25,-28.62 183.29,-26.54 189.68,-24.55 196.05,-22.69"/>
<polygon fill="#63b8ff" stroke="#63b8ff" points="196.57,-26.18 205.25,-20.11 194.67,-19.44 196.57,-26.18"/>
</a>
</g>
</g>
<!-- Node3 -->
<g id="Node000003" class="node">
<title>Node3</title>
<g id="a_Node000003"><a xlink:href="class_nuki_1_1_nuki_ble.html#ada0f3beebd95d35c122e25dd3f9eb886" target="_top" xlink:title=" ">
<polygon fill="white" stroke="#666666" points="505.5,-267.88 368,-267.88 368,-237.38 505.5,-237.38 505.5,-267.88"/>
<text text-anchor="start" x="376" y="-254.38" font-family="Helvetica,sans-Serif" font-size="10.00">Nuki::NukiBle::cmdChallAcc</text>
<text text-anchor="middle" x="436.75" y="-243.12" font-family="Helvetica,sans-Serif" font-size="10.00">StateMachine</text>
</a>
</g>
</g>
<!-- Node2&#45;&gt;Node3 -->
<g id="edge2_Node000002_Node000003" class="edge">
<title>Node2&#45;&gt;Node3</title>
<g id="a_edge2_Node000002_Node000003"><a xlink:title=" ">
<path fill="none" stroke="#63b8ff" d="M293.84,-219.71C312.61,-224.06 335.18,-229.3 356.74,-234.3"/>
<polygon fill="#63b8ff" stroke="#63b8ff" points="355.89,-237.69 366.42,-236.54 357.47,-230.87 355.89,-237.69"/>
</a>
</g>
</g>
<!-- Node4 -->
<g id="Node000004" class="node">
<title>Node4</title>
<g id="a_Node000004"><a xlink:href="class_nuki_1_1_nuki_ble.html#a6e8fca90c04249660dce6cb993eb4495" target="_top" xlink:title=" ">
<polygon fill="white" stroke="#666666" points="709,-231.88 552,-231.88 552,-201.38 709,-201.38 709,-231.88"/>
<text text-anchor="start" x="560" y="-218.38" font-family="Helvetica,sans-Serif" font-size="10.00">Nuki::NukiBle::extendDisconnect</text>
<text text-anchor="middle" x="630.5" y="-207.12" font-family="Helvetica,sans-Serif" font-size="10.00">Timeout</text>
</a>
</g>
</g>
<!-- Node2&#45;&gt;Node4 -->
<g id="edge15_Node000002_Node000004" class="edge">
<title>Node2&#45;&gt;Node4</title>
<g id="a_edge15_Node000002_Node000004"><a xlink:title=" ">
<path fill="none" stroke="#63b8ff" d="M320.35,-210.92C382.35,-212.06 473.18,-213.74 540.35,-214.98"/>
<polygon fill="#63b8ff" stroke="#63b8ff" points="540.19,-218.48 550.25,-215.16 540.32,-211.48 540.19,-218.48"/>
</a>
</g>
</g>
<!-- Node5 -->
<g id="Node000005" class="node">
<title>Node5</title>
<g id="a_Node000005"><a xlink:href="class_nuki_1_1_nuki_ble.html#ac7ce691d9c3e586474655d1663eb2e20" target="_top" xlink:title=" ">
<polygon fill="white" stroke="#666666" points="696.62,-272.25 564.38,-272.25 564.38,-253 696.62,-253 696.62,-272.25"/>
<text text-anchor="middle" x="630.5" y="-258.75" font-family="Helvetica,sans-Serif" font-size="10.00">Nuki::NukiBle::logMessage</text>
</a>
</g>
</g>
<!-- Node2&#45;&gt;Node5 -->
<g id="edge16_Node000002_Node000005" class="edge">
<title>Node2&#45;&gt;Node5</title>
<g id="a_edge16_Node000002_Node000005"><a xlink:title=" ">
<path fill="none" stroke="#63b8ff" d="M255.69,-219.61C269.03,-243.45 306.52,-303.31 357.5,-325.62 422.03,-353.87 452.17,-355.43 516,-325.62 538.58,-315.08 530.92,-295.93 552,-282.62 555.33,-280.52 558.88,-278.64 562.55,-276.95"/>
<polygon fill="#63b8ff" stroke="#63b8ff" points="563.76,-280.24 571.74,-273.27 561.16,-273.74 563.76,-280.24"/>
</a>
</g>
</g>
<!-- Node2&#45;&gt;Node6 -->
<g id="edge17_Node000002_Node000006" class="edge">
<title>Node2&#45;&gt;Node6</title>
<g id="a_edge17_Node000002_Node000006"><a xlink:title=" ">
<path fill="none" stroke="#63b8ff" d="M264.02,-199.5C283.54,-185.71 321.12,-161.7 357.5,-152.62 433.4,-133.69 524.64,-147.12 579.8,-159.02"/>
<polygon fill="#63b8ff" stroke="#63b8ff" points="579,-162.42 589.53,-161.19 580.53,-155.59 579,-162.42"/>
</a>
</g>
</g>
<!-- Node7 -->
<g id="Node000007" class="node">
<title>Node7</title>
<g id="a_Node000007"><a xlink:href="class_nuki_1_1_nuki_ble.html#a59169a9f492793762e3c6ba39b611b07" target="_top" xlink:title=" ">
<polygon fill="white" stroke="#666666" points="508.5,-316.88 365,-316.88 365,-286.38 508.5,-286.38 508.5,-316.88"/>
<text text-anchor="start" x="373" y="-303.38" font-family="Helvetica,sans-Serif" font-size="10.00">Nuki::NukiBle::cmdChallState</text>
<text text-anchor="middle" x="436.75" y="-292.12" font-family="Helvetica,sans-Serif" font-size="10.00">Machine</text>
</a>
</g>
</g>
<!-- Node2&#45;&gt;Node7 -->
<g id="edge6_Node000002_Node000007" class="edge">
<title>Node2&#45;&gt;Node7</title>
<g id="a_edge6_Node000002_Node000007"><a xlink:title=" ">
<path fill="none" stroke="#63b8ff" d="M263.95,-219.68C283.7,-233.93 321.88,-260.11 357.5,-276.62 361.53,-278.49 365.74,-280.28 370.03,-281.97"/>
<polygon fill="#63b8ff" stroke="#63b8ff" points="368.77,-285.24 379.36,-285.46 371.22,-278.68 368.77,-285.24"/>
</a>
</g>
</g>
<!-- Node9 -->
<g id="Node000009" class="node">
<title>Node9</title>
<g id="a_Node000009"><a xlink:href="class_nuki_1_1_nuki_ble.html#ad135bb1455665decfddff67772c1d411" target="_top" xlink:title=" ">
<polygon fill="white" stroke="#666666" points="516,-181.25 357.5,-181.25 357.5,-162 516,-162 516,-181.25"/>
<text text-anchor="middle" x="436.75" y="-167.75" font-family="Helvetica,sans-Serif" font-size="10.00">Nuki::NukiBle::cmdStateMachine</text>
</a>
</g>
</g>
<!-- Node2&#45;&gt;Node9 -->
<g id="edge11_Node000002_Node000009" class="edge">
<title>Node2&#45;&gt;Node9</title>
<g id="a_edge11_Node000002_Node000009"><a xlink:title=" ">
<path fill="none" stroke="#63b8ff" d="M299.57,-199.54C322.91,-194.76 351.02,-188.99 375.62,-183.95"/>
<polygon fill="#63b8ff" stroke="#63b8ff" points="376.08,-187.43 385.17,-181.99 374.67,-180.57 376.08,-187.43"/>
</a>
</g>
</g>
<!-- Node3&#45;&gt;Node4 -->
<g id="edge3_Node000003_Node000004" class="edge">
<title>Node3&#45;&gt;Node4</title>
<g id="a_edge3_Node000003_Node000004"><a xlink:title=" ">
<path fill="none" stroke="#63b8ff" d="M505.89,-239.83C517.15,-237.72 528.97,-235.5 540.64,-233.31"/>
<polygon fill="#63b8ff" stroke="#63b8ff" points="541.1,-236.78 550.28,-231.5 539.81,-229.9 541.1,-236.78"/>
</a>
</g>
</g>
<!-- Node3&#45;&gt;Node5 -->
<g id="edge4_Node000003_Node000005" class="edge">
<title>Node3&#45;&gt;Node5</title>
<g id="a_edge4_Node000003_Node000005"><a xlink:title=" ">
<path fill="none" stroke="#63b8ff" d="M505.89,-256.18C521.14,-256.97 537.41,-257.82 552.97,-258.63"/>
<polygon fill="#63b8ff" stroke="#63b8ff" points="552.47,-262.11 562.64,-259.14 552.83,-255.12 552.47,-262.11"/>
</a>
</g>
</g>
<!-- Node3&#45;&gt;Node6 -->
<g id="edge5_Node000003_Node000006" class="edge">
<title>Node3&#45;&gt;Node6</title>
<g id="a_edge5_Node000003_Node000006"><a xlink:title=" ">
<path fill="none" stroke="#63b8ff" d="M463.3,-237.13C485.97,-223.89 520.3,-205.07 552,-192.62 559.32,-189.75 567.18,-187.12 574.98,-184.77"/>
<polygon fill="#63b8ff" stroke="#63b8ff" points="575.81,-188.18 584.46,-182.06 573.88,-181.45 575.81,-188.18"/>
</a>
</g>
</g>
<!-- Node7&#45;&gt;Node4 -->
<g id="edge7_Node000007_Node000004" class="edge">
<title>Node7&#45;&gt;Node4</title>
<g id="a_edge7_Node000007_Node000004"><a xlink:title=" ">
<path fill="none" stroke="#63b8ff" d="M496.64,-285.9C503.36,-283.21 509.96,-280.13 516,-276.62 534.78,-265.73 533.37,-254.76 552,-243.62 556.06,-241.2 560.37,-238.95 564.79,-236.87"/>
<polygon fill="#63b8ff" stroke="#63b8ff" points="566.1,-240.12 573.88,-232.93 563.32,-233.7 566.1,-240.12"/>
</a>
</g>
</g>
<!-- Node7&#45;&gt;Node5 -->
<g id="edge9_Node000007_Node000005" class="edge">
<title>Node7&#45;&gt;Node5</title>
<g id="a_edge9_Node000007_Node000005"><a xlink:title=" ">
<path fill="none" stroke="#63b8ff" d="M508.88,-287.16C528.48,-283.17 549.56,-278.88 568.52,-275.03"/>
<polygon fill="#63b8ff" stroke="#63b8ff" points="569.14,-278.47 578.24,-273.05 567.74,-271.61 569.14,-278.47"/>
</a>
</g>
</g>
<!-- Node7&#45;&gt;Node6 -->
<g id="edge10_Node000007_Node000006" class="edge">
<title>Node7&#45;&gt;Node6</title>
<g id="a_edge10_Node000007_Node000006"><a xlink:title=" ">
<path fill="none" stroke="#63b8ff" d="M502.61,-286.04C507.44,-283.38 511.99,-280.27 516,-276.62 546.06,-249.31 521.34,-219.26 552,-192.62 554.47,-190.48 557.13,-188.56 559.94,-186.82"/>
<polygon fill="#63b8ff" stroke="#63b8ff" points="561.32,-190.05 568.59,-182.35 558.1,-183.83 561.32,-190.05"/>
</a>
</g>
</g>
<!-- Node8 -->
<g id="Node000008" class="node">
<title>Node8</title>
<g id="a_Node000008"><a xlink:href="class_nuki_1_1_nuki_ble.html#a25207bb564a4b54b8dd8c872177b53a7" target="_top" xlink:title="Returns if BLE is pairing/paired/connected with a Smart Lock Ultra.">
<polygon fill="white" stroke="#666666" points="695.5,-311.25 565.5,-311.25 565.5,-292 695.5,-292 695.5,-311.25"/>
<text text-anchor="middle" x="630.5" y="-297.75" font-family="Helvetica,sans-Serif" font-size="10.00">Nuki::NukiBle::isLockUltra</text>
</a>
</g>
</g>
<!-- Node7&#45;&gt;Node8 -->
<g id="edge8_Node000007_Node000008" class="edge">
<title>Node7&#45;&gt;Node8</title>
<g id="a_edge8_Node000007_Node000008"><a xlink:title=" ">
<path fill="none" stroke="#63b8ff" d="M508.88,-301.62C523.57,-301.62 539.1,-301.62 553.94,-301.62"/>
<polygon fill="#63b8ff" stroke="#63b8ff" points="553.62,-305.13 563.62,-301.63 553.62,-298.13 553.62,-305.13"/>
</a>
</g>
</g>
<!-- Node9&#45;&gt;Node4 -->
<g id="edge12_Node000009_Node000004" class="edge">
<title>Node9&#45;&gt;Node4</title>
<g id="a_edge12_Node000009_Node000004"><a xlink:title=" ">
<path fill="none" stroke="#63b8ff" d="M480.78,-181.72C501.66,-186.62 527.39,-192.66 551.55,-198.33"/>
<polygon fill="#63b8ff" stroke="#63b8ff" points="550.51,-201.68 561.04,-200.56 552.11,-194.87 550.51,-201.68"/>
</a>
</g>
</g>
<!-- Node9&#45;&gt;Node5 -->
<g id="edge13_Node000009_Node000005" class="edge">
<title>Node9&#45;&gt;Node5</title>
<g id="a_edge13_Node000009_Node000005"><a xlink:title=" ">
<path fill="none" stroke="#63b8ff" d="M451.52,-181.62C472.35,-196.34 513.53,-223.91 552,-240.62 559.41,-243.84 567.42,-246.73 575.38,-249.27"/>
<polygon fill="#63b8ff" stroke="#63b8ff" points="574.11,-252.54 584.7,-252.08 576.14,-245.84 574.11,-252.54"/>
</a>
</g>
</g>
<!-- Node9&#45;&gt;Node6 -->
<g id="edge14_Node000009_Node000006" class="edge">
<title>Node9&#45;&gt;Node6</title>
<g id="a_edge14_Node000009_Node000006"><a xlink:title=" ">
<path fill="none" stroke="#63b8ff" d="M516.3,-171.62C525.88,-171.62 535.71,-171.62 545.38,-171.62"/>
<polygon fill="#63b8ff" stroke="#63b8ff" points="545.12,-175.13 555.12,-171.63 545.12,-168.13 545.12,-175.13"/>
</a>
</g>
</g>
<!-- Node11 -->
<g id="Node000011" class="node">
<title>Node11</title>
<g id="a_Node000011"><a xlink:href="namespace_nuki_lock.html#af6ebff0f8c6c0cb27a927a440812c02a" target="_top" xlink:title=" ">
<polygon fill="white" stroke="#666666" points="501.75,-62.25 371.75,-62.25 371.75,-43 501.75,-43 501.75,-62.25"/>
<text text-anchor="middle" x="436.75" y="-48.75" font-family="Helvetica,sans-Serif" font-size="10.00">NukiLock::logMessageVar</text>
</a>
</g>
</g>
<!-- Node10&#45;&gt;Node11 -->
<g id="edge20_Node000010_Node000011" class="edge">
<title>Node10&#45;&gt;Node11</title>
<g id="a_edge20_Node000010_Node000011"><a xlink:title=" ">
<path fill="none" stroke="#63b8ff" d="M321.78,-52.62C334.27,-52.62 347.31,-52.62 359.92,-52.62"/>
<polygon fill="#63b8ff" stroke="#63b8ff" points="359.84,-56.13 369.84,-52.63 359.84,-49.13 359.84,-56.13"/>
</a>
</g>
</g>
</g>
</svg>
