<?xml version="1.0" encoding="UTF-8" standalone="no"?>
<!DOCTYPE svg PUBLIC "-//W3C//DTD SVG 1.1//EN"
 "http://www.w3.org/Graphics/SVG/1.1/DTD/svg11.dtd">
<!-- Generated by graphviz version 12.2.1 (20241206.2353)
 -->
<!-- Title: Nuki::NukiBle::cmdChallStateMachine Pages: 1 -->
<svg width="533pt" height="567pt"
 viewBox="0.00 0.00 533.00 566.88" xmlns="http://www.w3.org/2000/svg" xmlns:xlink="http://www.w3.org/1999/xlink">
<g id="graph0" class="graph" transform="scale(1 1) rotate(0) translate(4 562.88)">
<title>Nuki::NukiBle::cmdChallStateMachine</title>
<!-- Node1 -->
<g id="Node000001" class="node">
<title>Node1</title>
<g id="a_Node000001"><a xlink:title=" ">
<polygon fill="#999999" stroke="#666666" points="525,-288.88 381.5,-288.88 381.5,-258.38 525,-258.38 525,-288.88"/>
<text text-anchor="start" x="389.5" y="-275.38" font-family="Helvetica,sans-Serif" font-size="10.00">Nuki::NukiBle::cmdChallState</text>
<text text-anchor="middle" x="453.25" y="-264.12" font-family="Helvetica,sans-Serif" font-size="10.00">Machine</text>
</a>
</g>
</g>
<!-- Node2 -->
<g id="Node000002" class="node">
<title>Node2</title>
<g id="a_Node000002"><a xlink:href="class_nuki_1_1_nuki_ble.html#af1f1e299e8d97e053bba80e92ba285d6" target="_top" xlink:title=" ">
<polygon fill="white" stroke="#666666" points="345.5,-283.25 204.25,-283.25 204.25,-264 345.5,-264 345.5,-283.25"/>
<text text-anchor="middle" x="274.88" y="-269.75" font-family="Helvetica,sans-Serif" font-size="10.00">Nuki::NukiBle::executeAction</text>
</a>
</g>
</g>
<!-- Node1&#45;&gt;Node2 -->
<g id="edge1_Node000001_Node000002" class="edge">
<title>Node1&#45;&gt;Node2</title>
<g id="a_edge1_Node000001_Node000002"><a xlink:title=" ">
<path fill="none" stroke="#63b8ff" d="M369.53,-273.62C361.64,-273.62 353.69,-273.62 345.94,-273.62"/>
<polygon fill="#63b8ff" stroke="#63b8ff" points="369.51,-277.13 379.51,-273.63 369.51,-270.13 369.51,-277.13"/>
</a>
</g>
</g>
<!-- Node3 -->
<g id="Node000003" class="node">
<title>Node3</title>
<g id="a_Node000003"><a xlink:href="class_nuki_1_1_nuki_ble.html#a8c69d960c9034d3ae5877285b666f09c" target="_top" xlink:title="Sends a new authorization entry to the lock via BLE.">
<polygon fill="white" stroke="#666666" points="160,-558.88 8.25,-558.88 8.25,-528.38 160,-528.38 160,-558.88"/>
<text text-anchor="start" x="16.25" y="-545.38" font-family="Helvetica,sans-Serif" font-size="10.00">Nuki::NukiBle::addAuthorization</text>
<text text-anchor="middle" x="84.12" y="-534.12" font-family="Helvetica,sans-Serif" font-size="10.00">Entry</text>
</a>
</g>
</g>
<!-- Node2&#45;&gt;Node3 -->
<g id="edge2_Node000002_Node000003" class="edge">
<title>Node2&#45;&gt;Node3</title>
<g id="a_edge2_Node000002_Node000003"><a xlink:title=" ">
<path fill="none" stroke="#63b8ff" d="M270.87,-294.71C263.01,-341.95 237.46,-456.94 168.25,-518.62 164.2,-522.23 159.65,-525.32 154.81,-527.97"/>
<polygon fill="#63b8ff" stroke="#63b8ff" points="274.3,-295.44 272.37,-285.02 267.38,-294.36 274.3,-295.44"/>
</a>
</g>
</g>
<!-- Node4 -->
<g id="Node000004" class="node">
<title>Node4</title>
<g id="a_Node000004"><a xlink:href="class_nuki_1_1_nuki_ble.html#ad96ef33212df343aa1433229f58f2ff7" target="_top" xlink:title="Send a new keypad entry to the lock via BLE.">
<polygon fill="white" stroke="#666666" points="148,-509.88 20.25,-509.88 20.25,-479.38 148,-479.38 148,-509.88"/>
<text text-anchor="start" x="28.25" y="-496.38" font-family="Helvetica,sans-Serif" font-size="10.00">Nuki::NukiBle::addKeypad</text>
<text text-anchor="middle" x="84.12" y="-485.12" font-family="Helvetica,sans-Serif" font-size="10.00">Entry</text>
</a>
</g>
</g>
<!-- Node2&#45;&gt;Node4 -->
<g id="edge3_Node000002_Node000004" class="edge">
<title>Node2&#45;&gt;Node4</title>
<g id="a_edge3_Node000002_Node000004"><a xlink:title=" ">
<path fill="none" stroke="#63b8ff" d="M268.43,-294.5C256.9,-334.54 226.21,-422.34 168.25,-469.62 162.29,-474.48 155.41,-478.4 148.21,-481.55"/>
<polygon fill="#63b8ff" stroke="#63b8ff" points="271.78,-295.53 271.05,-284.96 265.03,-293.67 271.78,-295.53"/>
</a>
</g>
</g>
<!-- Node5 -->
<g id="Node000005" class="node">
<title>Node5</title>
<g id="a_Node000005"><a xlink:href="class_nuki_1_1_nuki_ble.html#afe0f8813341d3666aae927febd4ed866" target="_top" xlink:title="Deletes the authorization entry from the lock.">
<polygon fill="white" stroke="#666666" points="165.25,-460.88 3,-460.88 3,-430.38 165.25,-430.38 165.25,-460.88"/>
<text text-anchor="start" x="11" y="-447.38" font-family="Helvetica,sans-Serif" font-size="10.00">Nuki::NukiBle::deleteAuthorization</text>
<text text-anchor="middle" x="84.12" y="-436.12" font-family="Helvetica,sans-Serif" font-size="10.00">Entry</text>
</a>
</g>
</g>
<!-- Node2&#45;&gt;Node5 -->
<g id="edge4_Node000002_Node000005" class="edge">
<title>Node2&#45;&gt;Node5</title>
<g id="a_edge4_Node000002_Node000005"><a xlink:title=" ">
<path fill="none" stroke="#63b8ff" d="M264.77,-293.81C249.42,-325.55 215.41,-386.96 168.25,-420.62 163.22,-424.21 157.67,-427.3 151.9,-429.94"/>
<polygon fill="#63b8ff" stroke="#63b8ff" points="267.85,-295.48 268.92,-284.94 261.51,-292.51 267.85,-295.48"/>
</a>
</g>
</g>
<!-- Node6 -->
<g id="Node000006" class="node">
<title>Node6</title>
<g id="a_Node000006"><a xlink:href="class_nuki_1_1_nuki_ble.html#a1aacb6b629b0e93a6f819732ab95922b" target="_top" xlink:title="Delete a Keypad Entry.">
<polygon fill="white" stroke="#666666" points="153.25,-411.88 15,-411.88 15,-381.38 153.25,-381.38 153.25,-411.88"/>
<text text-anchor="start" x="23" y="-398.38" font-family="Helvetica,sans-Serif" font-size="10.00">Nuki::NukiBle::deleteKeypad</text>
<text text-anchor="middle" x="84.12" y="-387.12" font-family="Helvetica,sans-Serif" font-size="10.00">Entry</text>
</a>
</g>
</g>
<!-- Node2&#45;&gt;Node6 -->
<g id="edge5_Node000002_Node000006" class="edge">
<title>Node2&#45;&gt;Node6</title>
<g id="a_edge5_Node000002_Node000006"><a xlink:title=" ">
<path fill="none" stroke="#63b8ff" d="M258.65,-292.54C239.73,-314.84 205.36,-351.52 168.25,-372.62 162.77,-375.74 156.84,-378.48 150.78,-380.89"/>
<polygon fill="#63b8ff" stroke="#63b8ff" points="261.34,-294.78 265.03,-284.85 255.95,-290.31 261.34,-294.78"/>
</a>
</g>
</g>
<!-- Node7 -->
<g id="Node000007" class="node">
<title>Node7</title>
<g id="a_Node000007"><a xlink:href="class_nuki_1_1_nuki_ble.html#a5c80321a4355c9394be7a7de29133c7b" target="_top" xlink:title="Sends an calibration (mechanical) request to the lock via BLE.">
<polygon fill="white" stroke="#666666" points="163,-363.25 5.25,-363.25 5.25,-344 163,-344 163,-363.25"/>
<text text-anchor="middle" x="84.12" y="-349.75" font-family="Helvetica,sans-Serif" font-size="10.00">Nuki::NukiBle::requestCalibration</text>
</a>
</g>
</g>
<!-- Node2&#45;&gt;Node7 -->
<g id="edge6_Node000002_Node000007" class="edge">
<title>Node2&#45;&gt;Node7</title>
<g id="a_edge6_Node000002_Node000007"><a xlink:title=" ">
<path fill="none" stroke="#63b8ff" d="M251.04,-289.92C230.35,-303.97 198.55,-323.8 168.25,-335.62 160.27,-338.74 151.64,-341.36 143.06,-343.56"/>
<polygon fill="#63b8ff" stroke="#63b8ff" points="252.78,-292.98 259.01,-284.41 248.79,-287.23 252.78,-292.98"/>
</a>
</g>
</g>
<!-- Node8 -->
<g id="Node000008" class="node">
<title>Node8</title>
<g id="a_Node000008"><a xlink:href="class_nuki_1_1_nuki_ble.html#a80e616a2f3d29be9d96d5233b9fefa1a" target="_top" xlink:title="Sends an reboot request to the lock via BLE.">
<polygon fill="white" stroke="#666666" points="155.5,-326.25 12.75,-326.25 12.75,-307 155.5,-307 155.5,-326.25"/>
<text text-anchor="middle" x="84.12" y="-312.75" font-family="Helvetica,sans-Serif" font-size="10.00">Nuki::NukiBle::requestReboot</text>
</a>
</g>
</g>
<!-- Node2&#45;&gt;Node8 -->
<g id="edge7_Node000002_Node000008" class="edge">
<title>Node2&#45;&gt;Node8</title>
<g id="a_edge7_Node000002_Node000008"><a xlink:title=" ">
<path fill="none" stroke="#63b8ff" d="M218.64,-286.21C190.24,-292.68 156.08,-300.46 129.43,-306.53"/>
<polygon fill="#63b8ff" stroke="#63b8ff" points="219.17,-289.68 228.15,-284.04 217.62,-282.85 219.17,-289.68"/>
</a>
</g>
</g>
<!-- Node9 -->
<g id="Node000009" class="node">
<title>Node9</title>
<g id="a_Node000009"><a xlink:href="class_nuki_1_1_nuki_ble.html#a0fb824539f7166cc53162e94267f0db0" target="_top" xlink:title="Request the lock via BLE to send the existing authorizationentries.">
<polygon fill="white" stroke="#666666" points="168.25,-288.88 0,-288.88 0,-258.38 168.25,-258.38 168.25,-288.88"/>
<text text-anchor="start" x="8" y="-275.38" font-family="Helvetica,sans-Serif" font-size="10.00">Nuki::NukiBle::retrieveAuthorization</text>
<text text-anchor="middle" x="84.12" y="-264.12" font-family="Helvetica,sans-Serif" font-size="10.00">Entries</text>
</a>
</g>
</g>
<!-- Node2&#45;&gt;Node9 -->
<g id="edge8_Node000002_Node000009" class="edge">
<title>Node2&#45;&gt;Node9</title>
<g id="a_edge8_Node000002_Node000009"><a xlink:title=" ">
<path fill="none" stroke="#63b8ff" d="M192.36,-273.62C184.43,-273.62 176.38,-273.62 168.43,-273.62"/>
<polygon fill="#63b8ff" stroke="#63b8ff" points="192.35,-277.13 202.35,-273.63 192.35,-270.13 192.35,-277.13"/>
</a>
</g>
</g>
<!-- Node10 -->
<g id="Node000010" class="node">
<title>Node10</title>
<g id="a_Node000010"><a xlink:href="class_nuki_1_1_nuki_ble.html#a6f669d52198915978c51ee441aec3c6d" target="_top" xlink:title="Request the lock via BLE to send the existing keypad entries.">
<polygon fill="white" stroke="#666666" points="156.25,-239.88 12,-239.88 12,-209.38 156.25,-209.38 156.25,-239.88"/>
<text text-anchor="start" x="20" y="-226.38" font-family="Helvetica,sans-Serif" font-size="10.00">Nuki::NukiBle::retrieveKeypad</text>
<text text-anchor="middle" x="84.12" y="-215.12" font-family="Helvetica,sans-Serif" font-size="10.00">Entries</text>
</a>
</g>
</g>
<!-- Node2&#45;&gt;Node10 -->
<g id="edge9_Node000002_Node000010" class="edge">
<title>Node2&#45;&gt;Node10</title>
<g id="a_edge9_Node000002_Node000010"><a xlink:title=" ">
<path fill="none" stroke="#63b8ff" d="M224.2,-260.73C200.13,-254.48 171.01,-246.92 145.65,-240.34"/>
<polygon fill="#63b8ff" stroke="#63b8ff" points="223.2,-264.09 233.76,-263.21 224.96,-257.31 223.2,-264.09"/>
</a>
</g>
</g>
<!-- Node11 -->
<g id="Node000011" class="node">
<title>Node11</title>
<g id="a_Node000011"><a xlink:href="class_nuki_1_1_nuki_ble.html#a6603fe4282fcab83f3038400e2c70207" target="_top" xlink:title="Send the new pincode command to the lock via BLE (this command uses the earlier by saveSecurityPincod...">
<polygon fill="white" stroke="#666666" points="155.5,-191.25 12.75,-191.25 12.75,-172 155.5,-172 155.5,-191.25"/>
<text text-anchor="middle" x="84.12" y="-177.75" font-family="Helvetica,sans-Serif" font-size="10.00">Nuki::NukiBle::setSecurityPin</text>
</a>
</g>
</g>
<!-- Node2&#45;&gt;Node11 -->
<g id="edge10_Node000002_Node000011" class="edge">
<title>Node2&#45;&gt;Node11</title>
<g id="a_edge10_Node000002_Node000011"><a xlink:title=" ">
<path fill="none" stroke="#63b8ff" d="M254.11,-256.5C233.87,-239.83 200.83,-214.97 168.25,-200.62 160.12,-197.05 151.24,-194.1 142.4,-191.69"/>
<polygon fill="#63b8ff" stroke="#63b8ff" points="251.65,-259 261.56,-262.75 256.15,-253.64 251.65,-259"/>
</a>
</g>
</g>
<!-- Node12 -->
<g id="Node000012" class="node">
<title>Node12</title>
<g id="a_Node000012"><a xlink:href="class_nuki_1_1_nuki_ble.html#af47efb4e020a327687327ad82963b347" target="_top" xlink:title="Sends an updated authorization entry to the lock via BLE.">
<polygon fill="white" stroke="#666666" points="166.75,-153.88 1.5,-153.88 1.5,-123.38 166.75,-123.38 166.75,-153.88"/>
<text text-anchor="start" x="9.5" y="-140.38" font-family="Helvetica,sans-Serif" font-size="10.00">Nuki::NukiBle::updateAuthorization</text>
<text text-anchor="middle" x="84.12" y="-129.12" font-family="Helvetica,sans-Serif" font-size="10.00">Entry</text>
</a>
</g>
</g>
<!-- Node2&#45;&gt;Node12 -->
<g id="edge11_Node000002_Node000012" class="edge">
<title>Node2&#45;&gt;Node12</title>
<g id="a_edge11_Node000002_Node000012"><a xlink:title=" ">
<path fill="none" stroke="#63b8ff" d="M260.76,-254.53C242.75,-229.74 208.02,-186.77 168.25,-162.62 162.99,-159.43 157.28,-156.64 151.4,-154.21"/>
<polygon fill="#63b8ff" stroke="#63b8ff" points="257.71,-256.28 266.35,-262.42 263.43,-252.24 257.71,-256.28"/>
</a>
</g>
</g>
<!-- Node13 -->
<g id="Node000013" class="node">
<title>Node13</title>
<g id="a_Node000013"><a xlink:href="class_nuki_1_1_nuki_ble.html#a0f1be2034e079e676a7771dfb775df81" target="_top" xlink:title="Send an updated keypad entry to the lock via BLE.">
<polygon fill="white" stroke="#666666" points="154.75,-104.88 13.5,-104.88 13.5,-74.38 154.75,-74.38 154.75,-104.88"/>
<text text-anchor="start" x="21.5" y="-91.38" font-family="Helvetica,sans-Serif" font-size="10.00">Nuki::NukiBle::updateKeypad</text>
<text text-anchor="middle" x="84.12" y="-80.12" font-family="Helvetica,sans-Serif" font-size="10.00">Entry</text>
</a>
</g>
</g>
<!-- Node2&#45;&gt;Node13 -->
<g id="edge12_Node000002_Node000013" class="edge">
<title>Node2&#45;&gt;Node13</title>
<g id="a_edge12_Node000002_Node000013"><a xlink:title=" ">
<path fill="none" stroke="#63b8ff" d="M265.83,-253.22C251.42,-219.34 218.01,-151.54 168.25,-114.62 163.41,-111.03 158.05,-107.95 152.46,-105.31"/>
<polygon fill="#63b8ff" stroke="#63b8ff" points="262.51,-254.37 269.55,-262.29 268.99,-251.71 262.51,-254.37"/>
</a>
</g>
</g>
<!-- Node14 -->
<g id="Node000014" class="node">
<title>Node14</title>
<g id="a_Node000014"><a xlink:href="class_nuki_1_1_nuki_ble.html#aac2e6b5ca939d23e8f590519b78df9f1" target="_top" xlink:title="Sends the time to be set to the lock via BLE.">
<polygon fill="white" stroke="#666666" points="149.5,-56.25 18.75,-56.25 18.75,-37 149.5,-37 149.5,-56.25"/>
<text text-anchor="middle" x="84.12" y="-42.75" font-family="Helvetica,sans-Serif" font-size="10.00">Nuki::NukiBle::updateTime</text>
</a>
</g>
</g>
<!-- Node2&#45;&gt;Node14 -->
<g id="edge13_Node000002_Node000014" class="edge">
<title>Node2&#45;&gt;Node14</title>
<g id="a_edge13_Node000002_Node000014"><a xlink:title=" ">
<path fill="none" stroke="#63b8ff" d="M269.53,-252.86C259.55,-210.62 230.88,-114.51 168.25,-65.62 162.77,-61.34 156.49,-57.99 149.91,-55.38"/>
<polygon fill="#63b8ff" stroke="#63b8ff" points="266.07,-253.45 271.67,-262.44 272.9,-251.92 266.07,-253.45"/>
</a>
</g>
</g>
<!-- Node15 -->
<g id="Node000015" class="node">
<title>Node15</title>
<g id="a_Node000015"><a xlink:href="class_nuki_1_1_nuki_ble.html#a2c962e2c69d9063972790109704dd233" target="_top" xlink:title="Send the verify pincode command via BLE to the lock. This command uses the earlier by saveSecurityPin...">
<polygon fill="white" stroke="#666666" points="160.38,-19.25 7.88,-19.25 7.88,0 160.38,0 160.38,-19.25"/>
<text text-anchor="middle" x="84.12" y="-5.75" font-family="Helvetica,sans-Serif" font-size="10.00">Nuki::NukiBle::verifySecurityPin</text>
</a>
</g>
</g>
<!-- Node2&#45;&gt;Node15 -->
<g id="edge14_Node000002_Node000015" class="edge">
<title>Node2&#45;&gt;Node15</title>
<g id="a_edge14_Node000002_Node000015"><a xlink:title=" ">
<path fill="none" stroke="#63b8ff" d="M271.29,-252.39C264.25,-204.35 240.21,-86.92 168.25,-27.62 164.38,-24.43 160.06,-21.77 155.5,-19.55"/>
<polygon fill="#63b8ff" stroke="#63b8ff" points="267.81,-252.81 272.61,-262.25 274.75,-251.87 267.81,-252.81"/>
</a>
</g>
</g>
</g>
</svg>
