<?xml version="1.0" encoding="UTF-8" standalone="no"?>
<!DOCTYPE svg PUBLIC "-//W3C//DTD SVG 1.1//EN"
 "http://www.w3.org/Graphics/SVG/1.1/DTD/svg11.dtd">
<!-- Generated by graphviz version 12.2.1 (20241206.2353)
 -->
<!-- Title: Nuki::NukiBle::retrieveKeypadEntries Pages: 1 -->
<!--zoomable 356 -->

<svg id="main" version="1.1" xmlns="http://www.w3.org/2000/svg" xmlns:xlink="http://www.w3.org/1999/xlink" xml:space="preserve" onload="init(evt)">

<style type="text/css"><![CDATA[
.node, .edge {opacity: 0.7;}
.node.selected, .edge.selected {opacity: 1;}
.edge:hover path { stroke: red; }
.edge:hover polygon { stroke: red; fill: red; }
]]></style>

<defs>
  <circle id="rim" cx="0" cy="0" r="7"/>
  <circle id="rim2" cx="0" cy="0" r="3.5"/>
  <g id="zoomPlus">
    <use xlink:href="#rim" fill="#404040"><set attributeName="fill" to="#808080" begin="zoomplus.mouseover" end="zoomplus.mouseout"/></use>
    <path d="M-4,0h8M0,-4v8" fill="none" stroke="white" stroke-width="1.5" pointer-events="none"/>
  </g>
  <g id="zoomMin">
    <use xlink:href="#rim" fill="#404040"><set attributeName="fill" to="#808080" begin="zoomminus.mouseover" end="zoomminus.mouseout"/></use>
    <path d="M-4,0h8" fill="none" stroke="white" stroke-width="1.5" pointer-events="none"/>
  </g>
  <g id="arrowUp" transform="translate(30 24)">
    <use xlink:href="#rim"/>
    <path pointer-events="none" fill="none" stroke="white" stroke-width="1.5" d="M0,-3.0v7 M-2.5,-0.5L0,-3.0L2.5,-0.5"/>
  </g>
  <g id="arrowRight" transform="rotate(90) translate(36 -43)">
    <use xlink:href="#rim"/>
    <path pointer-events="none" fill="none" stroke="white" stroke-width="1.5" d="M0,-3.0v7 M-2.5,-0.5L0,-3.0L2.5,-0.5"/>
  </g>
  <g id="arrowDown" transform="rotate(180) translate(-30 -48)">
    <use xlink:href="#rim"/>
    <path pointer-events="none" fill="none" stroke="white" stroke-width="1.5" d="M0,-3.0v7 M-2.5,-0.5L0,-3.0L2.5,-0.5"/>
  </g>
  <g id="arrowLeft" transform="rotate(270) translate(-36 17)">
    <use xlink:href="#rim"/>
    <path pointer-events="none" fill="none" stroke="white" stroke-width="1.5" d="M0,-3.0v7 M-2.5,-0.5L0,-3.0L2.5,-0.5"/>
  </g>
  <g id="resetDef">
    <use xlink:href="#rim2" fill="#404040"><set attributeName="fill" to="#808080" begin="reset.mouseover" end="reset.mouseout"/></use>
  </g>
</defs>
<script type="application/ecmascript">
var viewWidth = 717;
var viewHeight = 356;
var sectionId = 'dynsection-28';
</script>
<script type="application/ecmascript" xlink:href="svg.min.js"/>
<svg id="graph" class="graph">
<g id="viewport">
<title>Nuki::NukiBle::retrieveKeypadEntries</title>
<!-- Node1 -->
<g id="Node000001" class="node">
<title>Node1</title>
<g id="a_Node000001"><a xlink:title="Request the lock via BLE to send the existing keypad entries.">
<polygon fill="#999999" stroke="#666666" points="144.25,-92.5 0,-92.5 0,-62 144.25,-62 144.25,-92.5"/>
<text text-anchor="start" x="8" y="-79" font-family="Helvetica,sans-Serif" font-size="10.00">Nuki::NukiBle::retrieveKeypad</text>
<text text-anchor="middle" x="72.12" y="-67.75" font-family="Helvetica,sans-Serif" font-size="10.00">Entries</text>
</a>
</g>
</g>
<!-- Node2 -->
<g id="Node000002" class="node">
<title>Node2</title>
<g id="a_Node000002"><a xlink:href="class_nuki_1_1_nuki_ble.html#af1f1e299e8d97e053bba80e92ba285d6" target="_top" xlink:title=" ">
<polygon fill="white" stroke="#666666" points="321.5,-219.88 180.25,-219.88 180.25,-200.62 321.5,-200.62 321.5,-219.88"/>
<text text-anchor="middle" x="250.88" y="-206.38" font-family="Helvetica,sans-Serif" font-size="10.00">Nuki::NukiBle::executeAction</text>
</a>
</g>
</g>
<!-- Node1&#45;&gt;Node2 -->
<g id="edge1_Node000001_Node000002" class="edge">
<title>Node1&#45;&gt;Node2</title>
<g id="a_edge1_Node000001_Node000002"><a xlink:title=" ">
<path fill="none" stroke="#63b8ff" d="M93.75,-92.77C127.21,-117.95 193.06,-167.5 227.57,-193.47"/>
<polygon fill="#63b8ff" stroke="#63b8ff" points="225.12,-196 235.21,-199.22 229.33,-190.41 225.12,-196"/>
</a>
</g>
</g>
<!-- Node5 -->
<g id="Node000005" class="node">
<title>Node5</title>
<g id="a_Node000005"><a xlink:href="class_nuki_1_1_nuki_ble.html#ac7ce691d9c3e586474655d1663eb2e20" target="_top" xlink:title=" ">
<polygon fill="white" stroke="#666666" points="696.62,-183.88 564.38,-183.88 564.38,-164.62 696.62,-164.62 696.62,-183.88"/>
<text text-anchor="middle" x="630.5" y="-170.38" font-family="Helvetica,sans-Serif" font-size="10.00">Nuki::NukiBle::logMessage</text>
</a>
</g>
</g>
<!-- Node1&#45;&gt;Node5 -->
<g id="edge19_Node000001_Node000005" class="edge">
<title>Node1&#45;&gt;Node5</title>
<g id="a_edge19_Node000001_Node000005"><a xlink:title=" ">
<path fill="none" stroke="#63b8ff" d="M144.7,-64.02C234.44,-50.54 391.59,-37.37 516,-82.25 556.92,-97.01 593.95,-133.28 613.94,-155.62"/>
<polygon fill="#63b8ff" stroke="#63b8ff" points="611.23,-157.84 620.43,-163.1 616.52,-153.25 611.23,-157.84"/>
</a>
</g>
</g>
<!-- Node6 -->
<g id="Node000006" class="node">
<title>Node6</title>
<g id="a_Node000006"><a xlink:href="class_nuki_1_1_nuki_ble.html#af3650133f46aeca48a5f01b95d23ab71" target="_top" xlink:title=" ">
<polygon fill="white" stroke="#666666" points="704.12,-220.88 556.88,-220.88 556.88,-201.62 704.12,-201.62 704.12,-220.88"/>
<text text-anchor="middle" x="630.5" y="-207.38" font-family="Helvetica,sans-Serif" font-size="10.00">Nuki::NukiBle::logMessageVar</text>
</a>
</g>
</g>
<!-- Node1&#45;&gt;Node6 -->
<g id="edge20_Node000001_Node000006" class="edge">
<title>Node1&#45;&gt;Node6</title>
<g id="a_edge20_Node000001_Node000006"><a xlink:title=" ">
<path fill="none" stroke="#63b8ff" d="M144.43,-92.68C232.24,-112.03 385.77,-146.96 516,-182.25 532.15,-186.63 535.84,-188.91 552,-193.25 558.74,-195.06 565.84,-196.86 572.89,-198.58"/>
<polygon fill="#63b8ff" stroke="#63b8ff" points="571.87,-201.93 582.41,-200.85 573.5,-195.12 571.87,-201.93"/>
</a>
</g>
</g>
<!-- Node10 -->
<g id="Node000010" class="node">
<title>Node10</title>
<g id="a_Node000010"><a xlink:href="class_nuki_1_1_nuki_ble.html#ad94d354153b8b4f779f7a7a32258ff48" target="_top" xlink:title="Returns the keypad entry count. Only available after executing retreiveKeypadEntries.">
<polygon fill="white" stroke="#666666" points="313.62,-30.5 188.12,-30.5 188.12,0 313.62,0 313.62,-30.5"/>
<text text-anchor="start" x="196.12" y="-17" font-family="Helvetica,sans-Serif" font-size="10.00">Nuki::NukiBle::getKeypad</text>
<text text-anchor="middle" x="250.88" y="-5.75" font-family="Helvetica,sans-Serif" font-size="10.00">EntryCount</text>
</a>
</g>
</g>
<!-- Node1&#45;&gt;Node10 -->
<g id="edge18_Node000001_Node000010" class="edge">
<title>Node1&#45;&gt;Node10</title>
<g id="a_edge18_Node000001_Node000010"><a xlink:title=" ">
<path fill="none" stroke="#63b8ff" d="M117.73,-61.6C140.98,-53.45 169.64,-43.4 194.32,-34.74"/>
<polygon fill="#63b8ff" stroke="#63b8ff" points="195.27,-38.11 203.55,-31.5 192.96,-31.51 195.27,-38.11"/>
</a>
</g>
</g>
<!-- Node3 -->
<g id="Node000003" class="node">
<title>Node3</title>
<g id="a_Node000003"><a xlink:href="class_nuki_1_1_nuki_ble.html#ada0f3beebd95d35c122e25dd3f9eb886" target="_top" xlink:title=" ">
<polygon fill="white" stroke="#666666" points="505.5,-268.5 368,-268.5 368,-238 505.5,-238 505.5,-268.5"/>
<text text-anchor="start" x="376" y="-255" font-family="Helvetica,sans-Serif" font-size="10.00">Nuki::NukiBle::cmdChallAcc</text>
<text text-anchor="middle" x="436.75" y="-243.75" font-family="Helvetica,sans-Serif" font-size="10.00">StateMachine</text>
</a>
</g>
</g>
<!-- Node2&#45;&gt;Node3 -->
<g id="edge2_Node000002_Node000003" class="edge">
<title>Node2&#45;&gt;Node3</title>
<g id="a_edge2_Node000002_Node000003"><a xlink:title=" ">
<path fill="none" stroke="#63b8ff" d="M294.99,-220.33C313.61,-224.69 335.99,-229.92 357.38,-234.92"/>
<polygon fill="#63b8ff" stroke="#63b8ff" points="356.43,-238.3 366.97,-237.17 358.03,-231.48 356.43,-238.3"/>
</a>
</g>
</g>
<!-- Node4 -->
<g id="Node000004" class="node">
<title>Node4</title>
<g id="a_Node000004"><a xlink:href="class_nuki_1_1_nuki_ble.html#a6e8fca90c04249660dce6cb993eb4495" target="_top" xlink:title=" ">
<polygon fill="white" stroke="#666666" points="709,-271.5 552,-271.5 552,-241 709,-241 709,-271.5"/>
<text text-anchor="start" x="560" y="-258" font-family="Helvetica,sans-Serif" font-size="10.00">Nuki::NukiBle::extendDisconnect</text>
<text text-anchor="middle" x="630.5" y="-246.75" font-family="Helvetica,sans-Serif" font-size="10.00">Timeout</text>
</a>
</g>
</g>
<!-- Node2&#45;&gt;Node4 -->
<g id="edge15_Node000002_Node000004" class="edge">
<title>Node2&#45;&gt;Node4</title>
<g id="a_edge15_Node000002_Node000004"><a xlink:title=" ">
<path fill="none" stroke="#63b8ff" d="M257.08,-220.23C270.14,-244.06 306.93,-303.9 357.5,-326.25 421.93,-354.72 452.17,-356.06 516,-326.25 538.58,-315.7 531.49,-297.42 552,-283.25 555.36,-280.93 558.95,-278.79 562.66,-276.81"/>
<polygon fill="#63b8ff" stroke="#63b8ff" points="563.85,-280.12 571.35,-272.64 560.82,-273.81 563.85,-280.12"/>
</a>
</g>
</g>
<!-- Node2&#45;&gt;Node5 -->
<g id="edge16_Node000002_Node000005" class="edge">
<title>Node2&#45;&gt;Node5</title>
<g id="a_edge16_Node000002_Node000005"><a xlink:title=" ">
<path fill="none" stroke="#63b8ff" d="M282.45,-200.15C303.34,-193.74 331.78,-185.99 357.5,-182.25 422.86,-172.75 497.96,-171.24 552.66,-171.83"/>
<polygon fill="#63b8ff" stroke="#63b8ff" points="552.45,-175.33 562.5,-171.96 552.55,-168.33 552.45,-175.33"/>
</a>
</g>
</g>
<!-- Node2&#45;&gt;Node6 -->
<g id="edge17_Node000002_Node000006" class="edge">
<title>Node2&#45;&gt;Node6</title>
<g id="a_edge17_Node000002_Node000006"><a xlink:title=" ">
<path fill="none" stroke="#63b8ff" d="M297.91,-200.13C316.34,-196.56 337.83,-193.01 357.5,-191.25 427.67,-184.99 445.82,-185.11 516,-191.25 534.24,-192.84 553.93,-195.85 571.72,-199.06"/>
<polygon fill="#63b8ff" stroke="#63b8ff" points="570.84,-202.46 581.32,-200.85 572.13,-195.58 570.84,-202.46"/>
</a>
</g>
</g>
<!-- Node7 -->
<g id="Node000007" class="node">
<title>Node7</title>
<g id="a_Node000007"><a xlink:href="class_nuki_1_1_nuki_ble.html#a59169a9f492793762e3c6ba39b611b07" target="_top" xlink:title=" ">
<polygon fill="white" stroke="#666666" points="508.5,-317.5 365,-317.5 365,-287 508.5,-287 508.5,-317.5"/>
<text text-anchor="start" x="373" y="-304" font-family="Helvetica,sans-Serif" font-size="10.00">Nuki::NukiBle::cmdChallState</text>
<text text-anchor="middle" x="436.75" y="-292.75" font-family="Helvetica,sans-Serif" font-size="10.00">Machine</text>
</a>
</g>
</g>
<!-- Node2&#45;&gt;Node7 -->
<g id="edge6_Node000002_Node000007" class="edge">
<title>Node2&#45;&gt;Node7</title>
<g id="a_edge6_Node000002_Node000007"><a xlink:title=" ">
<path fill="none" stroke="#63b8ff" d="M265.24,-220.32C284.68,-234.59 322.29,-260.79 357.5,-277.25 361.46,-279.1 365.59,-280.86 369.79,-282.54"/>
<polygon fill="#63b8ff" stroke="#63b8ff" points="368.33,-285.73 378.93,-285.97 370.8,-279.18 368.33,-285.73"/>
</a>
</g>
</g>
<!-- Node9 -->
<g id="Node000009" class="node">
<title>Node9</title>
<g id="a_Node000009"><a xlink:href="class_nuki_1_1_nuki_ble.html#ad135bb1455665decfddff67772c1d411" target="_top" xlink:title=" ">
<polygon fill="white" stroke="#666666" points="516,-219.88 357.5,-219.88 357.5,-200.62 516,-200.62 516,-219.88"/>
<text text-anchor="middle" x="436.75" y="-206.38" font-family="Helvetica,sans-Serif" font-size="10.00">Nuki::NukiBle::cmdStateMachine</text>
</a>
</g>
</g>
<!-- Node2&#45;&gt;Node9 -->
<g id="edge11_Node000002_Node000009" class="edge">
<title>Node2&#45;&gt;Node9</title>
<g id="a_edge11_Node000002_Node000009"><a xlink:title=" ">
<path fill="none" stroke="#63b8ff" d="M321.91,-210.25C329.78,-210.25 337.87,-210.25 345.94,-210.25"/>
<polygon fill="#63b8ff" stroke="#63b8ff" points="345.79,-213.75 355.79,-210.25 345.79,-206.75 345.79,-213.75"/>
</a>
</g>
</g>
<!-- Node3&#45;&gt;Node4 -->
<g id="edge3_Node000003_Node000004" class="edge">
<title>Node3&#45;&gt;Node4</title>
<g id="a_edge3_Node000003_Node000004"><a xlink:title=" ">
<path fill="none" stroke="#63b8ff" d="M505.89,-254.32C517.04,-254.49 528.72,-254.67 540.28,-254.85"/>
<polygon fill="#63b8ff" stroke="#63b8ff" points="540.2,-258.35 550.26,-255.01 540.31,-251.35 540.2,-258.35"/>
</a>
</g>
</g>
<!-- Node3&#45;&gt;Node5 -->
<g id="edge4_Node000003_Node000005" class="edge">
<title>Node3&#45;&gt;Node5</title>
<g id="a_edge4_Node000003_Node000005"><a xlink:title=" ">
<path fill="none" stroke="#63b8ff" d="M499.29,-237.67C505.12,-235.23 510.79,-232.44 516,-229.25 535.58,-217.29 532.02,-203.52 552,-192.25 554.47,-190.85 557.05,-189.57 559.7,-188.38"/>
<polygon fill="#63b8ff" stroke="#63b8ff" points="560.74,-191.73 568.77,-184.83 558.19,-185.21 560.74,-191.73"/>
</a>
</g>
</g>
<!-- Node3&#45;&gt;Node6 -->
<g id="edge5_Node000003_Node000006" class="edge">
<title>Node3&#45;&gt;Node6</title>
<g id="a_edge5_Node000003_Node000006"><a xlink:title=" ">
<path fill="none" stroke="#63b8ff" d="M505.89,-238.32C527.7,-233.55 551.6,-228.31 572.53,-223.73"/>
<polygon fill="#63b8ff" stroke="#63b8ff" points="572.99,-227.21 582.01,-221.65 571.5,-220.37 572.99,-227.21"/>
</a>
</g>
</g>
<!-- Node7&#45;&gt;Node4 -->
<g id="edge7_Node000007_Node000004" class="edge">
<title>Node7&#45;&gt;Node4</title>
<g id="a_edge7_Node000007_Node000004"><a xlink:title=" ">
<path fill="none" stroke="#63b8ff" d="M503.2,-286.55C519.31,-282.68 536.7,-278.51 553.27,-274.54"/>
<polygon fill="#63b8ff" stroke="#63b8ff" points="553.64,-278.05 562.54,-272.31 552,-271.24 553.64,-278.05"/>
</a>
</g>
</g>
<!-- Node7&#45;&gt;Node5 -->
<g id="edge9_Node000007_Node000005" class="edge">
<title>Node7&#45;&gt;Node5</title>
<g id="a_edge9_Node000007_Node000005"><a xlink:title=" ">
<path fill="none" stroke="#63b8ff" d="M502.63,-286.69C507.46,-284.02 512,-280.9 516,-277.25 546.3,-249.6 520.6,-218.65 552,-192.25 552.95,-191.45 553.93,-190.68 554.94,-189.95"/>
<polygon fill="#63b8ff" stroke="#63b8ff" points="556.5,-193.09 563.3,-184.97 552.92,-187.08 556.5,-193.09"/>
</a>
</g>
</g>
<!-- Node7&#45;&gt;Node6 -->
<g id="edge10_Node000007_Node000006" class="edge">
<title>Node7&#45;&gt;Node6</title>
<g id="a_edge10_Node000007_Node000006"><a xlink:title=" ">
<path fill="none" stroke="#63b8ff" d="M499.22,-286.53C505.13,-283.88 510.83,-280.81 516,-277.25 537.1,-262.73 530.58,-246.29 552,-232.25 555.93,-229.67 560.18,-227.41 564.58,-225.42"/>
<polygon fill="#63b8ff" stroke="#63b8ff" points="565.66,-228.76 573.67,-221.82 563.08,-222.25 565.66,-228.76"/>
</a>
</g>
</g>
<!-- Node8 -->
<g id="Node000008" class="node">
<title>Node8</title>
<g id="a_Node000008"><a xlink:href="class_nuki_1_1_nuki_ble.html#a25207bb564a4b54b8dd8c872177b53a7" target="_top" xlink:title="Returns if BLE is pairing/paired/connected with a Smart Lock Ultra.">
<polygon fill="white" stroke="#666666" points="695.5,-311.88 565.5,-311.88 565.5,-292.62 695.5,-292.62 695.5,-311.88"/>
<text text-anchor="middle" x="630.5" y="-298.38" font-family="Helvetica,sans-Serif" font-size="10.00">Nuki::NukiBle::isLockUltra</text>
</a>
</g>
</g>
<!-- Node7&#45;&gt;Node8 -->
<g id="edge8_Node000007_Node000008" class="edge">
<title>Node7&#45;&gt;Node8</title>
<g id="a_edge8_Node000007_Node000008"><a xlink:title=" ">
<path fill="none" stroke="#63b8ff" d="M508.88,-302.25C523.57,-302.25 539.1,-302.25 553.94,-302.25"/>
<polygon fill="#63b8ff" stroke="#63b8ff" points="553.62,-305.75 563.62,-302.25 553.62,-298.75 553.62,-305.75"/>
</a>
</g>
</g>
<!-- Node9&#45;&gt;Node4 -->
<g id="edge12_Node000009_Node000004" class="edge">
<title>Node9&#45;&gt;Node4</title>
<g id="a_edge12_Node000009_Node000004"><a xlink:title=" ">
<path fill="none" stroke="#63b8ff" d="M479.83,-220.34C501.34,-225.51 528.19,-231.95 553.19,-237.94"/>
<polygon fill="#63b8ff" stroke="#63b8ff" points="552.13,-241.29 562.68,-240.22 553.77,-234.48 552.13,-241.29"/>
</a>
</g>
</g>
<!-- Node9&#45;&gt;Node5 -->
<g id="edge13_Node000009_Node000005" class="edge">
<title>Node9&#45;&gt;Node5</title>
<g id="a_edge13_Node000009_Node000005"><a xlink:title=" ">
<path fill="none" stroke="#63b8ff" d="M491.67,-200.13C514.34,-195.87 540.9,-190.88 564.62,-186.43"/>
<polygon fill="#63b8ff" stroke="#63b8ff" points="564.98,-189.92 574.16,-184.64 563.69,-183.04 564.98,-189.92"/>
</a>
</g>
</g>
<!-- Node9&#45;&gt;Node6 -->
<g id="edge14_Node000009_Node000006" class="edge">
<title>Node9&#45;&gt;Node6</title>
<g id="a_edge14_Node000009_Node000006"><a xlink:title=" ">
<path fill="none" stroke="#63b8ff" d="M516.3,-210.66C525.88,-210.71 535.71,-210.76 545.38,-210.81"/>
<polygon fill="#63b8ff" stroke="#63b8ff" points="545.1,-214.31 555.12,-210.86 545.14,-207.31 545.1,-214.31"/>
</a>
</g>
</g>
</g>
</svg>

<g id="navigator" transform="translate(0 0)" fill="#404254">
  <rect fill="#f2f5e9" fill-opacity="0.5" stroke="#606060" stroke-width=".5" x="0" y="0" width="60" height="60"/>
  <use id="zoomplus" xlink:href="#zoomPlus" x="17" y="9" onmousedown="handleZoom(evt,'in')"/>
  <use id="zoomminus" xlink:href="#zoomMin" x="42" y="9" onmousedown="handleZoom(evt,'out')"/>
  <use id="reset" xlink:href="#resetDef" x="30" y="36" onmousedown="handleReset()"/>
   <use id="arrowup" xlink:href="#arrowUp" x="0" y="0" onmousedown="handlePan(0,-1)"/>
  <use id="arrowright" xlink:href="#arrowRight" x="0" y="0" onmousedown="handlePan(1,0)"/>
  <use id="arrowdown" xlink:href="#arrowDown" x="0" y="0" onmousedown="handlePan(0,1)"/>
  <use id="arrowleft" xlink:href="#arrowLeft" x="0" y="0" onmousedown="handlePan(-1,0)"/>
</g>
<svg viewBox="0 0 15 15" width="100%" height="30px" preserveAspectRatio="xMaxYMin meet">
 <g id="arrow_out" transform="scale(0.3 0.3)">
  <a xlink:href="class_nuki_1_1_nuki_ble_a6f669d52198915978c51ee441aec3c6d_cgraph_org.svg" target="_base">
   <rect id="button" ry="5" rx="5" y="6" x="6" height="38" width="38"
        fill="#f2f5e9" fill-opacity="0.5" stroke="#606060" stroke-width="1.0"/>
   <path id="arrow"
     d="M 11.500037,31.436501 C 11.940474,20.09759 22.043105,11.32322 32.158766,21.979434 L 37.068811,17.246167 C 37.068811,17.246167 37.088388,32 37.088388,32 L 22.160133,31.978069 C 22.160133,31.978069 26.997745,27.140456 26.997745,27.140456 C 18.528582,18.264221 13.291696,25.230495 11.500037,31.436501 z"
     style="fill:#404040;"/>
  </a>
 </g>
</svg>

<style type='text/css'>
<![CDATA[
[data-mouse-over-selected='false'] { opacity: 0.7; }
[data-mouse-over-selected='true']  { opacity: 1.0; }
]]>
</style>
<script type="application/ecmascript"><![CDATA[
document.addEventListener('DOMContentLoaded', (event) => {
  highlightEdges();
  highlightAdjacentNodes();
});
]]></script>
</svg>
