<?xml version="1.0" encoding="UTF-8" standalone="no"?>
<!DOCTYPE svg PUBLIC "-//W3C//DTD SVG 1.1//EN"
 "http://www.w3.org/Graphics/SVG/1.1/DTD/svg11.dtd">
<!-- Generated by graphviz version 12.2.1 (20241206.2353)
 -->
<!-- Title: NukiLock::NukiLock::setLongitude Pages: 1 -->
<!--zoomable 205 -->

<svg id="main" version="1.1" xmlns="http://www.w3.org/2000/svg" xmlns:xlink="http://www.w3.org/1999/xlink" xml:space="preserve" onload="init(evt)">

<style type="text/css"><![CDATA[
.node, .edge {opacity: 0.7;}
.node.selected, .edge.selected {opacity: 1;}
.edge:hover path { stroke: red; }
.edge:hover polygon { stroke: red; fill: red; }
]]></style>

<defs>
  <circle id="rim" cx="0" cy="0" r="7"/>
  <circle id="rim2" cx="0" cy="0" r="3.5"/>
  <g id="zoomPlus">
    <use xlink:href="#rim" fill="#404040"><set attributeName="fill" to="#808080" begin="zoomplus.mouseover" end="zoomplus.mouseout"/></use>
    <path d="M-4,0h8M0,-4v8" fill="none" stroke="white" stroke-width="1.5" pointer-events="none"/>
  </g>
  <g id="zoomMin">
    <use xlink:href="#rim" fill="#404040"><set attributeName="fill" to="#808080" begin="zoomminus.mouseover" end="zoomminus.mouseout"/></use>
    <path d="M-4,0h8" fill="none" stroke="white" stroke-width="1.5" pointer-events="none"/>
  </g>
  <g id="arrowUp" transform="translate(30 24)">
    <use xlink:href="#rim"/>
    <path pointer-events="none" fill="none" stroke="white" stroke-width="1.5" d="M0,-3.0v7 M-2.5,-0.5L0,-3.0L2.5,-0.5"/>
  </g>
  <g id="arrowRight" transform="rotate(90) translate(36 -43)">
    <use xlink:href="#rim"/>
    <path pointer-events="none" fill="none" stroke="white" stroke-width="1.5" d="M0,-3.0v7 M-2.5,-0.5L0,-3.0L2.5,-0.5"/>
  </g>
  <g id="arrowDown" transform="rotate(180) translate(-30 -48)">
    <use xlink:href="#rim"/>
    <path pointer-events="none" fill="none" stroke="white" stroke-width="1.5" d="M0,-3.0v7 M-2.5,-0.5L0,-3.0L2.5,-0.5"/>
  </g>
  <g id="arrowLeft" transform="rotate(270) translate(-36 17)">
    <use xlink:href="#rim"/>
    <path pointer-events="none" fill="none" stroke="white" stroke-width="1.5" d="M0,-3.0v7 M-2.5,-0.5L0,-3.0L2.5,-0.5"/>
  </g>
  <g id="resetDef">
    <use xlink:href="#rim2" fill="#404040"><set attributeName="fill" to="#808080" begin="reset.mouseover" end="reset.mouseout"/></use>
  </g>
</defs>
<script type="application/ecmascript">
var viewWidth = 818;
var viewHeight = 205;
var sectionId = 'dynsection-45';
</script>
<script type="application/ecmascript" xlink:href="svg.min.js"/>
<svg id="graph" class="graph">
<g id="viewport">
<title>NukiLock::NukiLock::setLongitude</title>
<!-- Node1 -->
<g id="Node000001" class="node">
<title>Node1</title>
<g id="a_Node000001"><a xlink:title="Gets the current config from the lock, updates the longitude parameter and sends the new config to th...">
<polygon fill="#999999" stroke="#666666" points="104.5,-102.35 0,-102.35 0,-71.85 104.5,-71.85 104.5,-102.35"/>
<text text-anchor="start" x="8" y="-88.85" font-family="Helvetica,sans-Serif" font-size="10.00">NukiLock::NukiLock</text>
<text text-anchor="middle" x="52.25" y="-77.6" font-family="Helvetica,sans-Serif" font-size="10.00">::setLongitude</text>
</a>
</g>
</g>
<!-- Node2 -->
<g id="Node000002" class="node">
<title>Node2</title>
<g id="a_Node000002"><a xlink:href="class_nuki_lock_1_1_nuki_lock.html#ada503f36c737418195f48743658ed372" target="_top" xlink:title="Requests config from Lock via BLE.">
<polygon fill="white" stroke="#666666" points="245,-102.35 140.5,-102.35 140.5,-71.85 245,-71.85 245,-102.35"/>
<text text-anchor="start" x="148.5" y="-88.85" font-family="Helvetica,sans-Serif" font-size="10.00">NukiLock::NukiLock</text>
<text text-anchor="middle" x="192.75" y="-77.6" font-family="Helvetica,sans-Serif" font-size="10.00">::requestConfig</text>
</a>
</g>
</g>
<!-- Node1&#45;&gt;Node2 -->
<g id="edge1_Node000001_Node000002" class="edge">
<title>Node1&#45;&gt;Node2</title>
<g id="a_edge1_Node000001_Node000002"><a xlink:title=" ">
<path fill="none" stroke="#63b8ff" d="M104.82,-87.1C112.66,-87.1 120.83,-87.1 128.88,-87.1"/>
<polygon fill="#63b8ff" stroke="#63b8ff" points="128.62,-90.6 138.62,-87.1 128.62,-83.6 128.62,-90.6"/>
</a>
</g>
</g>
<!-- Node3 -->
<g id="Node000003" class="node">
<title>Node3</title>
<g id="a_Node000003"><a xlink:href="class_nuki_1_1_nuki_ble.html#af1f1e299e8d97e053bba80e92ba285d6" target="_top" xlink:title=" ">
<polygon fill="white" stroke="#666666" points="422.25,-96.73 281,-96.73 281,-77.48 422.25,-77.48 422.25,-96.73"/>
<text text-anchor="middle" x="351.62" y="-83.23" font-family="Helvetica,sans-Serif" font-size="10.00">Nuki::NukiBle::executeAction</text>
</a>
</g>
</g>
<!-- Node2&#45;&gt;Node3 -->
<g id="edge2_Node000002_Node000003" class="edge">
<title>Node2&#45;&gt;Node3</title>
<g id="a_edge2_Node000002_Node000003"><a xlink:title=" ">
<path fill="none" stroke="#63b8ff" d="M245.12,-87.1C252.92,-87.1 261.13,-87.1 269.38,-87.1"/>
<polygon fill="#63b8ff" stroke="#63b8ff" points="269.11,-90.6 279.11,-87.1 269.11,-83.6 269.11,-90.6"/>
</a>
</g>
</g>
<!-- Node4 -->
<g id="Node000004" class="node">
<title>Node4</title>
<g id="a_Node000004"><a xlink:href="class_nuki_1_1_nuki_ble.html#ada0f3beebd95d35c122e25dd3f9eb886" target="_top" xlink:title=" ">
<polygon fill="white" stroke="#666666" points="606.25,-173.35 468.75,-173.35 468.75,-142.85 606.25,-142.85 606.25,-173.35"/>
<text text-anchor="start" x="476.75" y="-159.85" font-family="Helvetica,sans-Serif" font-size="10.00">Nuki::NukiBle::cmdChallAcc</text>
<text text-anchor="middle" x="537.5" y="-148.6" font-family="Helvetica,sans-Serif" font-size="10.00">StateMachine</text>
</a>
</g>
</g>
<!-- Node3&#45;&gt;Node4 -->
<g id="edge3_Node000003_Node000004" class="edge">
<title>Node3&#45;&gt;Node4</title>
<g id="a_edge3_Node000003_Node000004"><a xlink:title=" ">
<path fill="none" stroke="#63b8ff" d="M373.81,-97.09C394.95,-106.87 428.49,-121.9 458.25,-133.1 463.46,-135.06 468.89,-137 474.37,-138.89"/>
<polygon fill="#63b8ff" stroke="#63b8ff" points="472.86,-142.08 483.46,-141.95 475.1,-135.44 472.86,-142.08"/>
</a>
</g>
</g>
<!-- Node5 -->
<g id="Node000005" class="node">
<title>Node5</title>
<g id="a_Node000005"><a xlink:href="class_nuki_1_1_nuki_ble.html#a6e8fca90c04249660dce6cb993eb4495" target="_top" xlink:title=" ">
<polygon fill="white" stroke="#666666" points="809.75,-169.35 652.75,-169.35 652.75,-138.85 809.75,-138.85 809.75,-169.35"/>
<text text-anchor="start" x="660.75" y="-155.85" font-family="Helvetica,sans-Serif" font-size="10.00">Nuki::NukiBle::extendDisconnect</text>
<text text-anchor="middle" x="731.25" y="-144.6" font-family="Helvetica,sans-Serif" font-size="10.00">Timeout</text>
</a>
</g>
</g>
<!-- Node3&#45;&gt;Node5 -->
<g id="edge15_Node000003_Node000005" class="edge">
<title>Node3&#45;&gt;Node5</title>
<g id="a_edge15_Node000003_Node000005"><a xlink:title=" ">
<path fill="none" stroke="#63b8ff" d="M359.64,-97.14C374.79,-117.83 412.89,-164.7 458.25,-182.1 530.76,-209.91 621.67,-190.75 677.86,-173.28"/>
<polygon fill="#63b8ff" stroke="#63b8ff" points="678.72,-176.68 687.18,-170.29 676.58,-170.02 678.72,-176.68"/>
</a>
</g>
</g>
<!-- Node6 -->
<g id="Node000006" class="node">
<title>Node6</title>
<g id="a_Node000006"><a xlink:href="class_nuki_1_1_nuki_ble.html#ac7ce691d9c3e586474655d1663eb2e20" target="_top" xlink:title=" ">
<polygon fill="white" stroke="#666666" points="797.38,-78.73 665.12,-78.73 665.12,-59.48 797.38,-59.48 797.38,-78.73"/>
<text text-anchor="middle" x="731.25" y="-65.23" font-family="Helvetica,sans-Serif" font-size="10.00">Nuki::NukiBle::logMessage</text>
</a>
</g>
</g>
<!-- Node3&#45;&gt;Node6 -->
<g id="edge16_Node000003_Node000006" class="edge">
<title>Node3&#45;&gt;Node6</title>
<g id="a_edge16_Node000003_Node000006"><a xlink:title=" ">
<path fill="none" stroke="#63b8ff" d="M362.56,-77.03C380.03,-60.1 418.24,-26.58 458.25,-14.1 525.5,6.88 548.09,1.66 616.75,-14.1 649.36,-21.59 683.48,-39.73 705.69,-53.14"/>
<polygon fill="#63b8ff" stroke="#63b8ff" points="703.66,-56 714,-58.3 707.35,-50.06 703.66,-56"/>
</a>
</g>
</g>
<!-- Node7 -->
<g id="Node000007" class="node">
<title>Node7</title>
<g id="a_Node000007"><a xlink:href="class_nuki_1_1_nuki_ble.html#af3650133f46aeca48a5f01b95d23ab71" target="_top" xlink:title=" ">
<polygon fill="white" stroke="#666666" points="804.88,-116.73 657.62,-116.73 657.62,-97.48 804.88,-97.48 804.88,-116.73"/>
<text text-anchor="middle" x="731.25" y="-103.23" font-family="Helvetica,sans-Serif" font-size="10.00">Nuki::NukiBle::logMessageVar</text>
</a>
</g>
</g>
<!-- Node3&#45;&gt;Node7 -->
<g id="edge17_Node000003_Node000007" class="edge">
<title>Node3&#45;&gt;Node7</title>
<g id="a_edge17_Node000003_Node000007"><a xlink:title=" ">
<path fill="none" stroke="#63b8ff" d="M372.2,-77.03C417.43,-55.24 531.83,-8.66 616.75,-47.1 638.84,-57.1 632.02,-75.52 652.75,-88.1 655.68,-89.88 658.76,-91.49 661.94,-92.95"/>
<polygon fill="#63b8ff" stroke="#63b8ff" points="660.38,-96.09 670.97,-96.55 662.98,-89.59 660.38,-96.09"/>
</a>
</g>
</g>
<!-- Node8 -->
<g id="Node000008" class="node">
<title>Node8</title>
<g id="a_Node000008"><a xlink:href="class_nuki_1_1_nuki_ble.html#a59169a9f492793762e3c6ba39b611b07" target="_top" xlink:title=" ">
<polygon fill="white" stroke="#666666" points="609.25,-124.35 465.75,-124.35 465.75,-93.85 609.25,-93.85 609.25,-124.35"/>
<text text-anchor="start" x="473.75" y="-110.85" font-family="Helvetica,sans-Serif" font-size="10.00">Nuki::NukiBle::cmdChallState</text>
<text text-anchor="middle" x="537.5" y="-99.6" font-family="Helvetica,sans-Serif" font-size="10.00">Machine</text>
</a>
</g>
</g>
<!-- Node3&#45;&gt;Node8 -->
<g id="edge7_Node000003_Node000008" class="edge">
<title>Node3&#45;&gt;Node8</title>
<g id="a_edge7_Node000003_Node000008"><a xlink:title=" ">
<path fill="none" stroke="#63b8ff" d="M422.66,-95.48C432.95,-96.71 443.62,-97.99 454.13,-99.25"/>
<polygon fill="#63b8ff" stroke="#63b8ff" points="453.59,-102.71 463.93,-100.42 454.42,-95.76 453.59,-102.71"/>
</a>
</g>
</g>
<!-- Node9 -->
<g id="Node000009" class="node">
<title>Node9</title>
<g id="a_Node000009"><a xlink:href="class_nuki_1_1_nuki_ble.html#ad135bb1455665decfddff67772c1d411" target="_top" xlink:title=" ">
<polygon fill="white" stroke="#666666" points="616.75,-75.73 458.25,-75.73 458.25,-56.48 616.75,-56.48 616.75,-75.73"/>
<text text-anchor="middle" x="537.5" y="-62.23" font-family="Helvetica,sans-Serif" font-size="10.00">Nuki::NukiBle::cmdStateMachine</text>
</a>
</g>
</g>
<!-- Node3&#45;&gt;Node9 -->
<g id="edge11_Node000003_Node000009" class="edge">
<title>Node3&#45;&gt;Node9</title>
<g id="a_edge11_Node000003_Node000009"><a xlink:title=" ">
<path fill="none" stroke="#63b8ff" d="M422.66,-79.1C430.53,-78.21 438.62,-77.28 446.69,-76.36"/>
<polygon fill="#63b8ff" stroke="#63b8ff" points="447.01,-79.85 456.55,-75.23 446.22,-72.89 447.01,-79.85"/>
</a>
</g>
</g>
<!-- Node4&#45;&gt;Node5 -->
<g id="edge4_Node000004_Node000005" class="edge">
<title>Node4&#45;&gt;Node5</title>
<g id="a_edge4_Node000004_Node000005"><a xlink:title=" ">
<path fill="none" stroke="#63b8ff" d="M606.64,-156.68C617.79,-156.45 629.47,-156.2 641.03,-155.96"/>
<polygon fill="#63b8ff" stroke="#63b8ff" points="641.08,-159.46 651.01,-155.76 640.94,-152.46 641.08,-159.46"/>
</a>
</g>
</g>
<!-- Node4&#45;&gt;Node6 -->
<g id="edge5_Node000004_Node000006" class="edge">
<title>Node4&#45;&gt;Node6</title>
<g id="a_edge5_Node000004_Node000006"><a xlink:title=" ">
<path fill="none" stroke="#63b8ff" d="M599.97,-142.38C605.88,-139.73 611.58,-136.66 616.75,-133.1 637.85,-118.58 631.16,-101.89 652.75,-88.1 655.34,-86.45 658.07,-84.94 660.88,-83.56"/>
<polygon fill="#63b8ff" stroke="#63b8ff" points="662.16,-86.82 670.01,-79.7 659.44,-80.37 662.16,-86.82"/>
</a>
</g>
</g>
<!-- Node4&#45;&gt;Node7 -->
<g id="edge6_Node000004_Node000007" class="edge">
<title>Node4&#45;&gt;Node7</title>
<g id="a_edge6_Node000004_Node000007"><a xlink:title=" ">
<path fill="none" stroke="#63b8ff" d="M597.6,-142.38C624.44,-135.25 655.81,-126.9 681.3,-120.12"/>
<polygon fill="#63b8ff" stroke="#63b8ff" points="681.97,-123.56 690.74,-117.61 680.18,-116.8 681.97,-123.56"/>
</a>
</g>
</g>
<!-- Node8&#45;&gt;Node5 -->
<g id="edge8_Node000008_Node000005" class="edge">
<title>Node8&#45;&gt;Node5</title>
<g id="a_edge8_Node000008_Node000005"><a xlink:title=" ">
<path fill="none" stroke="#63b8ff" d="M605.56,-124.84C620.6,-128.37 636.68,-132.14 652.12,-135.77"/>
<polygon fill="#63b8ff" stroke="#63b8ff" points="651.21,-139.15 661.75,-138.03 652.81,-132.33 651.21,-139.15"/>
</a>
</g>
</g>
<!-- Node8&#45;&gt;Node6 -->
<g id="edge9_Node000008_Node000006" class="edge">
<title>Node8&#45;&gt;Node6</title>
<g id="a_edge9_Node000008_Node000006"><a xlink:title=" ">
<path fill="none" stroke="#63b8ff" d="M609.63,-94.26C629.76,-90.06 651.46,-85.54 670.83,-81.5"/>
<polygon fill="#63b8ff" stroke="#63b8ff" points="671.38,-84.96 680.45,-79.49 669.95,-78.11 671.38,-84.96"/>
</a>
</g>
</g>
<!-- Node8&#45;&gt;Node7 -->
<g id="edge10_Node000008_Node000007" class="edge">
<title>Node8&#45;&gt;Node7</title>
<g id="a_edge10_Node000008_Node000007"><a xlink:title=" ">
<path fill="none" stroke="#63b8ff" d="M609.63,-108.36C621.42,-108.24 633.75,-108.11 645.83,-107.98"/>
<polygon fill="#63b8ff" stroke="#63b8ff" points="645.84,-111.48 655.8,-107.88 645.76,-104.48 645.84,-111.48"/>
</a>
</g>
</g>
<!-- Node9&#45;&gt;Node5 -->
<g id="edge12_Node000009_Node000005" class="edge">
<title>Node9&#45;&gt;Node5</title>
<g id="a_edge12_Node000009_Node000005"><a xlink:title=" ">
<path fill="none" stroke="#63b8ff" d="M597.34,-76.18C604.14,-78.55 610.77,-81.48 616.75,-85.1 637.5,-97.66 632.71,-112.44 652.75,-126.1 656.85,-128.9 661.26,-131.45 665.83,-133.77"/>
<polygon fill="#63b8ff" stroke="#63b8ff" points="664.08,-136.82 674.62,-137.86 667.03,-130.47 664.08,-136.82"/>
</a>
</g>
</g>
<!-- Node9&#45;&gt;Node6 -->
<g id="edge13_Node000009_Node000006" class="edge">
<title>Node9&#45;&gt;Node6</title>
<g id="a_edge13_Node000009_Node000006"><a xlink:title=" ">
<path fill="none" stroke="#63b8ff" d="M617.05,-67.33C629.04,-67.52 641.4,-67.71 653.36,-67.9"/>
<polygon fill="#63b8ff" stroke="#63b8ff" points="653.1,-71.4 663.16,-68.05 653.21,-64.4 653.1,-71.4"/>
</a>
</g>
</g>
<!-- Node9&#45;&gt;Node7 -->
<g id="edge14_Node000009_Node000007" class="edge">
<title>Node9&#45;&gt;Node7</title>
<g id="a_edge14_Node000009_Node000007"><a xlink:title=" ">
<path fill="none" stroke="#63b8ff" d="M585.41,-76.13C611.52,-81.72 644.27,-88.72 672.01,-94.65"/>
<polygon fill="#63b8ff" stroke="#63b8ff" points="671.17,-98.05 681.68,-96.72 672.64,-91.2 671.17,-98.05"/>
</a>
</g>
</g>
</g>
</svg>

<g id="navigator" transform="translate(0 0)" fill="#404254">
  <rect fill="#f2f5e9" fill-opacity="0.5" stroke="#606060" stroke-width=".5" x="0" y="0" width="60" height="60"/>
  <use id="zoomplus" xlink:href="#zoomPlus" x="17" y="9" onmousedown="handleZoom(evt,'in')"/>
  <use id="zoomminus" xlink:href="#zoomMin" x="42" y="9" onmousedown="handleZoom(evt,'out')"/>
  <use id="reset" xlink:href="#resetDef" x="30" y="36" onmousedown="handleReset()"/>
   <use id="arrowup" xlink:href="#arrowUp" x="0" y="0" onmousedown="handlePan(0,-1)"/>
  <use id="arrowright" xlink:href="#arrowRight" x="0" y="0" onmousedown="handlePan(1,0)"/>
  <use id="arrowdown" xlink:href="#arrowDown" x="0" y="0" onmousedown="handlePan(0,1)"/>
  <use id="arrowleft" xlink:href="#arrowLeft" x="0" y="0" onmousedown="handlePan(-1,0)"/>
</g>
<svg viewBox="0 0 15 15" width="100%" height="30px" preserveAspectRatio="xMaxYMin meet">
 <g id="arrow_out" transform="scale(0.3 0.3)">
  <a xlink:href="class_nuki_lock_1_1_nuki_lock_a13420f720e09979ab066f8257950759d_cgraph_org.svg" target="_base">
   <rect id="button" ry="5" rx="5" y="6" x="6" height="38" width="38"
        fill="#f2f5e9" fill-opacity="0.5" stroke="#606060" stroke-width="1.0"/>
   <path id="arrow"
     d="M 11.500037,31.436501 C 11.940474,20.09759 22.043105,11.32322 32.158766,21.979434 L 37.068811,17.246167 C 37.068811,17.246167 37.088388,32 37.088388,32 L 22.160133,31.978069 C 22.160133,31.978069 26.997745,27.140456 26.997745,27.140456 C 18.528582,18.264221 13.291696,25.230495 11.500037,31.436501 z"
     style="fill:#404040;"/>
  </a>
 </g>
</svg>

<style type='text/css'>
<![CDATA[
[data-mouse-over-selected='false'] { opacity: 0.7; }
[data-mouse-over-selected='true']  { opacity: 1.0; }
]]>
</style>
<script type="application/ecmascript"><![CDATA[
document.addEventListener('DOMContentLoaded', (event) => {
  highlightEdges();
  highlightAdjacentNodes();
});
]]></script>
</svg>
