<?xml version="1.0" encoding="UTF-8" standalone="no"?>
<!DOCTYPE svg PUBLIC "-//W3C//DTD SVG 1.1//EN"
 "http://www.w3.org/Graphics/SVG/1.1/DTD/svg11.dtd">
<!-- Generated by graphviz version 8.0.5 (20230430.1635)
 -->
<!-- Title: Nuki::NukiBle::verifySecurityPin Pages: 1 -->
<svg width="532pt" height="174pt"
 viewBox="0.00 0.00 532.25 173.50" xmlns="http://www.w3.org/2000/svg" xmlns:xlink="http://www.w3.org/1999/xlink">
<g id="graph0" class="graph" transform="scale(1 1) rotate(0) translate(4 169.5)">
<title>Nuki::NukiBle::verifySecurityPin</title>
<!-- Node1 -->
<g id="node1" class="node">
<title>Node1</title>
<g id="a_node1"><a xlink:title="Send the verify pincode command via BLE to the lock. This command uses the earlier by saveSecurityPin...">
<polygon fill="#999999" stroke="#666666" points="152.5,-88.88 0,-88.88 0,-69.62 152.5,-69.62 152.5,-88.88"/>
<text text-anchor="middle" x="76.25" y="-75.38" font-family="Helvetica,sans-Serif" font-size="10.00">Nuki::NukiBle::verifySecurityPin</text>
</a>
</g>
</g>
<!-- Node2 -->
<g id="node2" class="node">
<title>Node2</title>
<g id="a_node2"><a xlink:href="class_nuki_1_1_nuki_ble.html#af1f1e299e8d97e053bba80e92ba285d6" target="_top" xlink:title=" ">
<polygon fill="white" stroke="#666666" points="329.75,-88.88 188.5,-88.88 188.5,-69.62 329.75,-69.62 329.75,-88.88"/>
<text text-anchor="middle" x="259.12" y="-75.38" font-family="Helvetica,sans-Serif" font-size="10.00">Nuki::NukiBle::executeAction</text>
</a>
</g>
</g>
<!-- Node1&#45;&gt;Node2 -->
<g id="edge1" class="edge">
<title>Node1&#45;&gt;Node2</title>
<path fill="none" stroke="#63b8ff" d="M152.91,-79.25C160.96,-79.25 169.18,-79.25 177.29,-79.25"/>
<polygon fill="#63b8ff" stroke="#63b8ff" points="177.25,-82.75 187.25,-79.25 177.25,-75.75 177.25,-82.75"/>
</g>
<!-- Node3 -->
<g id="node3" class="node">
<title>Node3</title>
<g id="a_node3"><a xlink:href="class_nuki_1_1_nuki_ble.html#ada0f3beebd95d35c122e25dd3f9eb886" target="_top" xlink:title=" ">
<polygon fill="white" stroke="#666666" points="513.75,-165.5 376.25,-165.5 376.25,-135 513.75,-135 513.75,-165.5"/>
<text text-anchor="start" x="384.25" y="-152" font-family="Helvetica,sans-Serif" font-size="10.00">Nuki::NukiBle::cmdChallAcc</text>
<text text-anchor="middle" x="445" y="-140.75" font-family="Helvetica,sans-Serif" font-size="10.00">StateMachine</text>
</a>
</g>
</g>
<!-- Node2&#45;&gt;Node3 -->
<g id="edge2" class="edge">
<title>Node2&#45;&gt;Node3</title>
<path fill="none" stroke="#63b8ff" d="M281.31,-89.23C302.45,-99.02 335.99,-114.05 365.75,-125.25 371.09,-127.26 376.67,-129.25 382.29,-131.18"/>
<polygon fill="#63b8ff" stroke="#63b8ff" points="380.8,-134.71 391.39,-134.58 383.03,-128.08 380.8,-134.71"/>
</g>
<!-- Node4 -->
<g id="node4" class="node">
<title>Node4</title>
<g id="a_node4"><a xlink:href="class_nuki_1_1_nuki_ble.html#a59169a9f492793762e3c6ba39b611b07" target="_top" xlink:title=" ">
<polygon fill="white" stroke="#666666" points="516.75,-116.5 373.25,-116.5 373.25,-86 516.75,-86 516.75,-116.5"/>
<text text-anchor="start" x="381.25" y="-103" font-family="Helvetica,sans-Serif" font-size="10.00">Nuki::NukiBle::cmdChallState</text>
<text text-anchor="middle" x="445" y="-91.75" font-family="Helvetica,sans-Serif" font-size="10.00">Machine</text>
</a>
</g>
</g>
<!-- Node2&#45;&gt;Node4 -->
<g id="edge3" class="edge">
<title>Node2&#45;&gt;Node4</title>
<path fill="none" stroke="#63b8ff" d="M330.16,-87.63C340.67,-88.89 351.58,-90.19 362.3,-91.47"/>
<polygon fill="#63b8ff" stroke="#63b8ff" points="361.59,-95.03 371.94,-92.75 362.42,-88.08 361.59,-95.03"/>
</g>
<!-- Node5 -->
<g id="node5" class="node">
<title>Node5</title>
<g id="a_node5"><a xlink:href="class_nuki_1_1_nuki_ble.html#ad135bb1455665decfddff67772c1d411" target="_top" xlink:title=" ">
<polygon fill="white" stroke="#666666" points="524.25,-67.88 365.75,-67.88 365.75,-48.62 524.25,-48.62 524.25,-67.88"/>
<text text-anchor="middle" x="445" y="-54.38" font-family="Helvetica,sans-Serif" font-size="10.00">Nuki::NukiBle::cmdStateMachine</text>
</a>
</g>
</g>
<!-- Node2&#45;&gt;Node5 -->
<g id="edge4" class="edge">
<title>Node2&#45;&gt;Node5</title>
<path fill="none" stroke="#63b8ff" d="M330.16,-71.25C338.21,-70.33 346.49,-69.39 354.75,-68.44"/>
<polygon fill="#63b8ff" stroke="#63b8ff" points="355.02,-71.82 364.56,-67.21 354.22,-64.87 355.02,-71.82"/>
</g>
<!-- Node6 -->
<g id="node6" class="node">
<title>Node6</title>
<g id="a_node6"><a xlink:href="class_nuki_1_1_nuki_ble.html#aed01f10d1ffa769f0f6fadc0d06d328e" target="_top" xlink:title=" ">
<polygon fill="white" stroke="#666666" points="520.88,-30.5 369.12,-30.5 369.12,0 520.88,0 520.88,-30.5"/>
<text text-anchor="start" x="377.12" y="-17" font-family="Helvetica,sans-Serif" font-size="10.00">Nuki::NukiBle::extendDisonnect</text>
<text text-anchor="middle" x="445" y="-5.75" font-family="Helvetica,sans-Serif" font-size="10.00">Timeout</text>
</a>
</g>
</g>
<!-- Node2&#45;&gt;Node6 -->
<g id="edge5" class="edge">
<title>Node2&#45;&gt;Node6</title>
<path fill="none" stroke="#63b8ff" d="M285.14,-69.25C306.44,-60.87 337.92,-48.78 365.75,-39.25 370.62,-37.58 375.68,-35.91 380.77,-34.26"/>
<polygon fill="#63b8ff" stroke="#63b8ff" points="381.77,-37.3 390.24,-30.93 379.65,-30.63 381.77,-37.3"/>
</g>
</g>
</svg>
