<?xml version="1.0" encoding="UTF-8" standalone="no"?>
<!DOCTYPE svg PUBLIC "-//W3C//DTD SVG 1.1//EN"
 "http://www.w3.org/Graphics/SVG/1.1/DTD/svg11.dtd">
<!-- Generated by graphviz version 12.2.1 (20241206.2353)
 -->
<!-- Title: NukiLock::NukiLock::enableAutoBatteryTypeDetection Pages: 1 -->
<svg width="894pt" height="263pt"
 viewBox="0.00 0.00 894.25 263.03" xmlns="http://www.w3.org/2000/svg" xmlns:xlink="http://www.w3.org/1999/xlink">
<g id="graph0" class="graph" transform="scale(1 1) rotate(0) translate(4 259.03)">
<title>NukiLock::NukiLock::enableAutoBatteryTypeDetection</title>
<!-- Node1 -->
<g id="Node000001" class="node">
<title>Node1</title>
<g id="a_Node000001"><a xlink:title="Gets the current advanced config from the lock, updates the enable battery type detection parameter a...">
<polygon fill="#999999" stroke="#666666" points="162.25,-148.88 0,-148.88 0,-118.38 162.25,-118.38 162.25,-148.88"/>
<text text-anchor="start" x="8" y="-135.38" font-family="Helvetica,sans-Serif" font-size="10.00">NukiLock::NukiLock</text>
<text text-anchor="middle" x="81.12" y="-124.12" font-family="Helvetica,sans-Serif" font-size="10.00">::enableAutoBatteryTypeDetection</text>
</a>
</g>
</g>
<!-- Node2 -->
<g id="Node000002" class="node">
<title>Node2</title>
<g id="a_Node000002"><a xlink:href="class_nuki_lock_1_1_nuki_lock.html#aa882f9b3256313bbd45b4269f8c74521" target="_top" xlink:title="Requests advanced config from Lock via BLE.">
<polygon fill="white" stroke="#666666" points="321.5,-148.88 198.25,-148.88 198.25,-118.38 321.5,-118.38 321.5,-148.88"/>
<text text-anchor="start" x="206.25" y="-135.38" font-family="Helvetica,sans-Serif" font-size="10.00">NukiLock::NukiLock</text>
<text text-anchor="middle" x="259.88" y="-124.12" font-family="Helvetica,sans-Serif" font-size="10.00">::requestAdvancedConfig</text>
</a>
</g>
</g>
<!-- Node1&#45;&gt;Node2 -->
<g id="edge1_Node000001_Node000002" class="edge">
<title>Node1&#45;&gt;Node2</title>
<g id="a_edge1_Node000001_Node000002"><a xlink:title=" ">
<path fill="none" stroke="#63b8ff" d="M162.74,-133.62C170.69,-133.62 178.73,-133.62 186.59,-133.62"/>
<polygon fill="#63b8ff" stroke="#63b8ff" points="186.44,-137.13 196.44,-133.63 186.44,-130.13 186.44,-137.13"/>
</a>
</g>
</g>
<!-- Node3 -->
<g id="Node000003" class="node">
<title>Node3</title>
<g id="a_Node000003"><a xlink:href="class_nuki_1_1_nuki_ble.html#af1f1e299e8d97e053bba80e92ba285d6" target="_top" xlink:title=" ">
<polygon fill="white" stroke="#666666" points="498.75,-143.25 357.5,-143.25 357.5,-124 498.75,-124 498.75,-143.25"/>
<text text-anchor="middle" x="428.12" y="-129.75" font-family="Helvetica,sans-Serif" font-size="10.00">Nuki::NukiBle::executeAction</text>
</a>
</g>
</g>
<!-- Node2&#45;&gt;Node3 -->
<g id="edge2_Node000002_Node000003" class="edge">
<title>Node2&#45;&gt;Node3</title>
<g id="a_edge2_Node000002_Node000003"><a xlink:title=" ">
<path fill="none" stroke="#63b8ff" d="M321.84,-133.62C329.65,-133.62 337.74,-133.62 345.81,-133.62"/>
<polygon fill="#63b8ff" stroke="#63b8ff" points="345.66,-137.13 355.66,-133.63 345.66,-130.13 345.66,-137.13"/>
</a>
</g>
</g>
<!-- Node4 -->
<g id="Node000004" class="node">
<title>Node4</title>
<g id="a_Node000004"><a xlink:href="class_nuki_1_1_nuki_ble.html#ada0f3beebd95d35c122e25dd3f9eb886" target="_top" xlink:title=" ">
<polygon fill="white" stroke="#666666" points="682.75,-191.88 545.25,-191.88 545.25,-161.38 682.75,-161.38 682.75,-191.88"/>
<text text-anchor="start" x="553.25" y="-178.38" font-family="Helvetica,sans-Serif" font-size="10.00">Nuki::NukiBle::cmdChallAcc</text>
<text text-anchor="middle" x="614" y="-167.12" font-family="Helvetica,sans-Serif" font-size="10.00">StateMachine</text>
</a>
</g>
</g>
<!-- Node3&#45;&gt;Node4 -->
<g id="edge3_Node000003_Node000004" class="edge">
<title>Node3&#45;&gt;Node4</title>
<g id="a_edge3_Node000003_Node000004"><a xlink:title=" ">
<path fill="none" stroke="#63b8ff" d="M472.24,-143.71C490.86,-148.06 513.24,-153.3 534.63,-158.3"/>
<polygon fill="#63b8ff" stroke="#63b8ff" points="533.68,-161.67 544.22,-160.54 535.28,-154.85 533.68,-161.67"/>
</a>
</g>
</g>
<!-- Node5 -->
<g id="Node000005" class="node">
<title>Node5</title>
<g id="a_Node000005"><a xlink:href="class_nuki_1_1_nuki_ble.html#a6e8fca90c04249660dce6cb993eb4495" target="_top" xlink:title=" ">
<polygon fill="white" stroke="#666666" points="886.25,-189.88 729.25,-189.88 729.25,-159.38 886.25,-159.38 886.25,-189.88"/>
<text text-anchor="start" x="737.25" y="-176.38" font-family="Helvetica,sans-Serif" font-size="10.00">Nuki::NukiBle::extendDisconnect</text>
<text text-anchor="middle" x="807.75" y="-165.12" font-family="Helvetica,sans-Serif" font-size="10.00">Timeout</text>
</a>
</g>
</g>
<!-- Node3&#45;&gt;Node5 -->
<g id="edge16_Node000003_Node000005" class="edge">
<title>Node3&#45;&gt;Node5</title>
<g id="a_edge16_Node000003_Node000005"><a xlink:title=" ">
<path fill="none" stroke="#63b8ff" d="M499.15,-136.38C552.52,-139.03 627.73,-143.95 693.25,-152.62 702.4,-153.84 711.93,-155.32 721.4,-156.95"/>
<polygon fill="#63b8ff" stroke="#63b8ff" points="720.53,-160.35 730.98,-158.64 721.75,-153.45 720.53,-160.35"/>
</a>
</g>
</g>
<!-- Node6 -->
<g id="Node000006" class="node">
<title>Node6</title>
<g id="a_Node000006"><a xlink:href="class_nuki_1_1_nuki_ble.html#ac7ce691d9c3e586474655d1663eb2e20" target="_top" xlink:title=" ">
<polygon fill="white" stroke="#666666" points="873.88,-228.25 741.62,-228.25 741.62,-209 873.88,-209 873.88,-228.25"/>
<text text-anchor="middle" x="807.75" y="-214.75" font-family="Helvetica,sans-Serif" font-size="10.00">Nuki::NukiBle::logMessage</text>
</a>
</g>
</g>
<!-- Node3&#45;&gt;Node6 -->
<g id="edge18_Node000003_Node000006" class="edge">
<title>Node3&#45;&gt;Node6</title>
<g id="a_edge18_Node000003_Node000006"><a xlink:title=" ">
<path fill="none" stroke="#63b8ff" d="M435.21,-143.67C449.37,-165.91 486.94,-218.91 534.75,-238.62 612.6,-270.74 713.56,-248.58 767.95,-232.06"/>
<polygon fill="#63b8ff" stroke="#63b8ff" points="768.89,-235.43 777.38,-229.09 766.79,-228.75 768.89,-235.43"/>
</a>
</g>
</g>
<!-- Node7 -->
<g id="Node000007" class="node">
<title>Node7</title>
<g id="a_Node000007"><a xlink:href="class_nuki_1_1_nuki_ble.html#af3650133f46aeca48a5f01b95d23ab71" target="_top" xlink:title=" ">
<polygon fill="white" stroke="#666666" points="881.38,-140.25 734.12,-140.25 734.12,-121 881.38,-121 881.38,-140.25"/>
<text text-anchor="middle" x="807.75" y="-126.75" font-family="Helvetica,sans-Serif" font-size="10.00">Nuki::NukiBle::logMessageVar</text>
</a>
</g>
</g>
<!-- Node3&#45;&gt;Node7 -->
<g id="edge19_Node000003_Node000007" class="edge">
<title>Node3&#45;&gt;Node7</title>
<g id="a_edge19_Node000003_Node000007"><a xlink:title=" ">
<path fill="none" stroke="#63b8ff" d="M440.09,-123.61C458.19,-107.83 496.17,-77.83 534.75,-66.62 602.4,-46.98 629.42,-36.82 693.25,-66.62 715.83,-77.17 708.26,-96.19 729.25,-109.62 733.28,-112.2 737.62,-114.47 742.12,-116.46"/>
<polygon fill="#63b8ff" stroke="#63b8ff" points="740.82,-119.71 751.41,-120.06 743.36,-113.18 740.82,-119.71"/>
</a>
</g>
</g>
<!-- Node8 -->
<g id="Node000008" class="node">
<title>Node8</title>
<g id="a_Node000008"><a xlink:href="class_nuki_1_1_nuki_ble.html#a59169a9f492793762e3c6ba39b611b07" target="_top" xlink:title=" ">
<polygon fill="white" stroke="#666666" points="685.75,-105.88 542.25,-105.88 542.25,-75.38 685.75,-75.38 685.75,-105.88"/>
<text text-anchor="start" x="550.25" y="-92.38" font-family="Helvetica,sans-Serif" font-size="10.00">Nuki::NukiBle::cmdChallState</text>
<text text-anchor="middle" x="614" y="-81.12" font-family="Helvetica,sans-Serif" font-size="10.00">Machine</text>
</a>
</g>
</g>
<!-- Node3&#45;&gt;Node8 -->
<g id="edge7_Node000003_Node000008" class="edge">
<title>Node3&#45;&gt;Node8</title>
<g id="a_edge7_Node000003_Node000008"><a xlink:title=" ">
<path fill="none" stroke="#63b8ff" d="M472.24,-123.54C490.86,-119.19 513.24,-113.95 534.63,-108.95"/>
<polygon fill="#63b8ff" stroke="#63b8ff" points="535.28,-112.4 544.22,-106.71 533.68,-105.58 535.28,-112.4"/>
</a>
</g>
</g>
<!-- Node10 -->
<g id="Node000010" class="node">
<title>Node10</title>
<g id="a_Node000010"><a xlink:href="class_nuki_1_1_nuki_ble.html#ad135bb1455665decfddff67772c1d411" target="_top" xlink:title=" ">
<polygon fill="white" stroke="#666666" points="693.25,-229.25 534.75,-229.25 534.75,-210 693.25,-210 693.25,-229.25"/>
<text text-anchor="middle" x="614" y="-215.75" font-family="Helvetica,sans-Serif" font-size="10.00">Nuki::NukiBle::cmdStateMachine</text>
</a>
</g>
</g>
<!-- Node3&#45;&gt;Node10 -->
<g id="edge12_Node000003_Node000010" class="edge">
<title>Node3&#45;&gt;Node10</title>
<g id="a_edge12_Node000003_Node000010"><a xlink:title=" ">
<path fill="none" stroke="#63b8ff" d="M441.7,-143.55C460.75,-158.13 498.57,-185.26 534.75,-200.62 539.72,-202.73 544.96,-204.64 550.29,-206.35"/>
<polygon fill="#63b8ff" stroke="#63b8ff" points="549.26,-209.7 559.84,-209.18 551.24,-202.99 549.26,-209.7"/>
</a>
</g>
</g>
<!-- Node11 -->
<g id="Node000011" class="node">
<title>Node11</title>
<g id="a_Node000011"><a xlink:href="class_nuki_1_1_nuki_ble.html#a050f54fbfcea03dc5238e8c66a7e89ca" target="_top" xlink:title="Returns pairing state (if credentials are stored or not)">
<polygon fill="white" stroke="#666666" points="692.12,-19.25 535.88,-19.25 535.88,0 692.12,0 692.12,-19.25"/>
<text text-anchor="middle" x="614" y="-5.75" font-family="Helvetica,sans-Serif" font-size="10.00">Nuki::NukiBle::isPairedWithLock</text>
</a>
</g>
</g>
<!-- Node3&#45;&gt;Node11 -->
<g id="edge17_Node000003_Node000011" class="edge">
<title>Node3&#45;&gt;Node11</title>
<g id="a_edge17_Node000003_Node000011"><a xlink:title=" ">
<path fill="none" stroke="#63b8ff" d="M437.01,-123.52C453.19,-103.47 492.21,-58.43 534.75,-33.62 541.59,-29.64 549.16,-26.25 556.82,-23.38"/>
<polygon fill="#63b8ff" stroke="#63b8ff" points="557.88,-26.72 566.21,-20.17 555.62,-20.1 557.88,-26.72"/>
</a>
</g>
</g>
<!-- Node4&#45;&gt;Node5 -->
<g id="edge4_Node000004_Node000005" class="edge">
<title>Node4&#45;&gt;Node5</title>
<g id="a_edge4_Node000004_Node000005"><a xlink:title=" ">
<path fill="none" stroke="#63b8ff" d="M683.14,-175.91C694.29,-175.8 705.97,-175.68 717.53,-175.56"/>
<polygon fill="#63b8ff" stroke="#63b8ff" points="717.55,-179.06 727.51,-175.45 717.47,-172.06 717.55,-179.06"/>
</a>
</g>
</g>
<!-- Node4&#45;&gt;Node6 -->
<g id="edge5_Node000004_Node000006" class="edge">
<title>Node4&#45;&gt;Node6</title>
<g id="a_edge5_Node000004_Node000006"><a xlink:title=" ">
<path fill="none" stroke="#63b8ff" d="M683.14,-191.55C704.95,-196.33 728.85,-201.56 749.78,-206.15"/>
<polygon fill="#63b8ff" stroke="#63b8ff" points="748.75,-209.5 759.26,-208.22 750.24,-202.67 748.75,-209.5"/>
</a>
</g>
</g>
<!-- Node4&#45;&gt;Node7 -->
<g id="edge6_Node000004_Node000007" class="edge">
<title>Node4&#45;&gt;Node7</title>
<g id="a_edge6_Node000004_Node000007"><a xlink:title=" ">
<path fill="none" stroke="#63b8ff" d="M680.45,-160.92C704.31,-155.2 730.96,-148.81 753.61,-143.37"/>
<polygon fill="#63b8ff" stroke="#63b8ff" points="754.34,-146.8 763.25,-141.06 752.71,-139.99 754.34,-146.8"/>
</a>
</g>
</g>
<!-- Node8&#45;&gt;Node5 -->
<g id="edge8_Node000008_Node000005" class="edge">
<title>Node8&#45;&gt;Node5</title>
<g id="a_edge8_Node000008_Node000005"><a xlink:title=" ">
<path fill="none" stroke="#63b8ff" d="M665,-106.26C674.65,-110.07 684.47,-114.54 693.25,-119.62 711.27,-130.06 711.01,-139.58 729.25,-149.62 732.41,-151.36 735.71,-153 739.08,-154.55"/>
<polygon fill="#63b8ff" stroke="#63b8ff" points="737.43,-157.65 748.01,-158.31 740.15,-151.2 737.43,-157.65"/>
</a>
</g>
</g>
<!-- Node8&#45;&gt;Node6 -->
<g id="edge10_Node000008_Node000006" class="edge">
<title>Node8&#45;&gt;Node6</title>
<g id="a_edge10_Node000008_Node000006"><a xlink:title=" ">
<path fill="none" stroke="#63b8ff" d="M637.41,-106.17C653.72,-118 675.9,-135.17 693.25,-152.62 711.55,-171.04 707.53,-184.41 729.25,-198.62 732.49,-200.74 735.94,-202.64 739.51,-204.33"/>
<polygon fill="#63b8ff" stroke="#63b8ff" points="737.89,-207.45 748.47,-208.02 740.55,-200.98 737.89,-207.45"/>
</a>
</g>
</g>
<!-- Node8&#45;&gt;Node7 -->
<g id="edge11_Node000008_Node000007" class="edge">
<title>Node8&#45;&gt;Node7</title>
<g id="a_edge11_Node000008_Node000007"><a xlink:title=" ">
<path fill="none" stroke="#63b8ff" d="M686.13,-105.46C706.26,-109.66 727.96,-114.19 747.33,-118.23"/>
<polygon fill="#63b8ff" stroke="#63b8ff" points="746.45,-121.62 756.95,-120.24 747.88,-114.77 746.45,-121.62"/>
</a>
</g>
</g>
<!-- Node9 -->
<g id="Node000009" class="node">
<title>Node9</title>
<g id="a_Node000009"><a xlink:href="class_nuki_1_1_nuki_ble.html#a25207bb564a4b54b8dd8c872177b53a7" target="_top" xlink:title="Returns if BLE is pairing/paired/connected with a Smart Lock Ultra.">
<polygon fill="white" stroke="#666666" points="872.75,-100.25 742.75,-100.25 742.75,-81 872.75,-81 872.75,-100.25"/>
<text text-anchor="middle" x="807.75" y="-86.75" font-family="Helvetica,sans-Serif" font-size="10.00">Nuki::NukiBle::isLockUltra</text>
</a>
</g>
</g>
<!-- Node8&#45;&gt;Node9 -->
<g id="edge9_Node000008_Node000009" class="edge">
<title>Node8&#45;&gt;Node9</title>
<g id="a_edge9_Node000008_Node000009"><a xlink:title=" ">
<path fill="none" stroke="#63b8ff" d="M686.13,-90.62C700.82,-90.62 716.35,-90.62 731.19,-90.62"/>
<polygon fill="#63b8ff" stroke="#63b8ff" points="730.87,-94.13 740.87,-90.63 730.87,-87.13 730.87,-94.13"/>
</a>
</g>
</g>
<!-- Node10&#45;&gt;Node5 -->
<g id="edge13_Node000010_Node000005" class="edge">
<title>Node10&#45;&gt;Node5</title>
<g id="a_edge13_Node000010_Node000005"><a xlink:title=" ">
<path fill="none" stroke="#63b8ff" d="M658.03,-209.53C678.91,-204.63 704.64,-198.59 728.8,-192.92"/>
<polygon fill="#63b8ff" stroke="#63b8ff" points="729.36,-196.38 738.29,-190.69 727.76,-189.57 729.36,-196.38"/>
</a>
</g>
</g>
<!-- Node10&#45;&gt;Node6 -->
<g id="edge14_Node000010_Node000006" class="edge">
<title>Node10&#45;&gt;Node6</title>
<g id="a_edge14_Node000010_Node000006"><a xlink:title=" ">
<path fill="none" stroke="#63b8ff" d="M693.55,-219.22C705.54,-219.15 717.9,-219.09 729.86,-219.03"/>
<polygon fill="#63b8ff" stroke="#63b8ff" points="729.68,-222.53 739.66,-218.97 729.64,-215.53 729.68,-222.53"/>
</a>
</g>
</g>
<!-- Node10&#45;&gt;Node7 -->
<g id="edge15_Node000010_Node000007" class="edge">
<title>Node10&#45;&gt;Node7</title>
<g id="a_edge15_Node000010_Node000007"><a xlink:title=" ">
<path fill="none" stroke="#63b8ff" d="M675.41,-209.65C681.71,-207.26 687.8,-204.29 693.25,-200.62 715.97,-185.33 706.64,-166.08 729.25,-150.62 732.14,-148.65 735.21,-146.87 738.4,-145.27"/>
<polygon fill="#63b8ff" stroke="#63b8ff" points="739.73,-148.5 747.52,-141.32 736.95,-142.08 739.73,-148.5"/>
</a>
</g>
</g>
</g>
</svg>
