<?xml version="1.0" encoding="UTF-8" standalone="no"?>
<!DOCTYPE svg PUBLIC "-//W3C//DTD SVG 1.1//EN"
 "http://www.w3.org/Graphics/SVG/1.1/DTD/svg11.dtd">
<!-- Generated by graphviz version 12.2.1 (20241206.2353)
 -->
<!-- Title: Nuki::NukiBle::executeAction Pages: 1 -->
<svg width="537pt" height="263pt"
 viewBox="0.00 0.00 536.75 263.03" xmlns="http://www.w3.org/2000/svg" xmlns:xlink="http://www.w3.org/1999/xlink">
<g id="graph0" class="graph" transform="scale(1 1) rotate(0) translate(4 259.03)">
<title>Nuki::NukiBle::executeAction</title>
<!-- Node1 -->
<g id="Node000001" class="node">
<title>Node1</title>
<g id="a_Node000001"><a xlink:title=" ">
<polygon fill="#999999" stroke="#666666" points="141.25,-143.25 0,-143.25 0,-124 141.25,-124 141.25,-143.25"/>
<text text-anchor="middle" x="70.62" y="-129.75" font-family="Helvetica,sans-Serif" font-size="10.00">Nuki::NukiBle::executeAction</text>
</a>
</g>
</g>
<!-- Node2 -->
<g id="Node000002" class="node">
<title>Node2</title>
<g id="a_Node000002"><a xlink:href="class_nuki_1_1_nuki_ble.html#ada0f3beebd95d35c122e25dd3f9eb886" target="_top" xlink:title=" ">
<polygon fill="white" stroke="#666666" points="325.25,-191.88 187.75,-191.88 187.75,-161.38 325.25,-161.38 325.25,-191.88"/>
<text text-anchor="start" x="195.75" y="-178.38" font-family="Helvetica,sans-Serif" font-size="10.00">Nuki::NukiBle::cmdChallAcc</text>
<text text-anchor="middle" x="256.5" y="-167.12" font-family="Helvetica,sans-Serif" font-size="10.00">StateMachine</text>
</a>
</g>
</g>
<!-- Node1&#45;&gt;Node2 -->
<g id="edge1_Node000001_Node000002" class="edge">
<title>Node1&#45;&gt;Node2</title>
<g id="a_edge1_Node000001_Node000002"><a xlink:title=" ">
<path fill="none" stroke="#63b8ff" d="M114.74,-143.71C133.36,-148.06 155.74,-153.3 177.13,-158.3"/>
<polygon fill="#63b8ff" stroke="#63b8ff" points="176.18,-161.67 186.72,-160.54 177.78,-154.85 176.18,-161.67"/>
</a>
</g>
</g>
<!-- Node3 -->
<g id="Node000003" class="node">
<title>Node3</title>
<g id="a_Node000003"><a xlink:href="class_nuki_1_1_nuki_ble.html#a6e8fca90c04249660dce6cb993eb4495" target="_top" xlink:title=" ">
<polygon fill="white" stroke="#666666" points="528.75,-189.88 371.75,-189.88 371.75,-159.38 528.75,-159.38 528.75,-189.88"/>
<text text-anchor="start" x="379.75" y="-176.38" font-family="Helvetica,sans-Serif" font-size="10.00">Nuki::NukiBle::extendDisconnect</text>
<text text-anchor="middle" x="450.25" y="-165.12" font-family="Helvetica,sans-Serif" font-size="10.00">Timeout</text>
</a>
</g>
</g>
<!-- Node1&#45;&gt;Node3 -->
<g id="edge14_Node000001_Node000003" class="edge">
<title>Node1&#45;&gt;Node3</title>
<g id="a_edge14_Node000001_Node000003"><a xlink:title=" ">
<path fill="none" stroke="#63b8ff" d="M141.65,-136.38C195.02,-139.03 270.23,-143.95 335.75,-152.62 344.9,-153.84 354.43,-155.32 363.9,-156.95"/>
<polygon fill="#63b8ff" stroke="#63b8ff" points="363.03,-160.35 373.48,-158.64 364.25,-153.45 363.03,-160.35"/>
</a>
</g>
</g>
<!-- Node4 -->
<g id="Node000004" class="node">
<title>Node4</title>
<g id="a_Node000004"><a xlink:href="class_nuki_1_1_nuki_ble.html#ac7ce691d9c3e586474655d1663eb2e20" target="_top" xlink:title=" ">
<polygon fill="white" stroke="#666666" points="516.38,-228.25 384.12,-228.25 384.12,-209 516.38,-209 516.38,-228.25"/>
<text text-anchor="middle" x="450.25" y="-214.75" font-family="Helvetica,sans-Serif" font-size="10.00">Nuki::NukiBle::logMessage</text>
</a>
</g>
</g>
<!-- Node1&#45;&gt;Node4 -->
<g id="edge16_Node000001_Node000004" class="edge">
<title>Node1&#45;&gt;Node4</title>
<g id="a_edge16_Node000001_Node000004"><a xlink:title=" ">
<path fill="none" stroke="#63b8ff" d="M77.71,-143.67C91.87,-165.91 129.44,-218.91 177.25,-238.62 255.1,-270.74 356.06,-248.58 410.45,-232.06"/>
<polygon fill="#63b8ff" stroke="#63b8ff" points="411.39,-235.43 419.88,-229.09 409.29,-228.75 411.39,-235.43"/>
</a>
</g>
</g>
<!-- Node5 -->
<g id="Node000005" class="node">
<title>Node5</title>
<g id="a_Node000005"><a xlink:href="class_nuki_1_1_nuki_ble.html#af3650133f46aeca48a5f01b95d23ab71" target="_top" xlink:title=" ">
<polygon fill="white" stroke="#666666" points="523.88,-140.25 376.62,-140.25 376.62,-121 523.88,-121 523.88,-140.25"/>
<text text-anchor="middle" x="450.25" y="-126.75" font-family="Helvetica,sans-Serif" font-size="10.00">Nuki::NukiBle::logMessageVar</text>
</a>
</g>
</g>
<!-- Node1&#45;&gt;Node5 -->
<g id="edge17_Node000001_Node000005" class="edge">
<title>Node1&#45;&gt;Node5</title>
<g id="a_edge17_Node000001_Node000005"><a xlink:title=" ">
<path fill="none" stroke="#63b8ff" d="M82.59,-123.61C100.69,-107.83 138.67,-77.83 177.25,-66.62 244.9,-46.98 271.92,-36.82 335.75,-66.62 358.33,-77.17 350.76,-96.19 371.75,-109.62 375.78,-112.2 380.12,-114.47 384.62,-116.46"/>
<polygon fill="#63b8ff" stroke="#63b8ff" points="383.32,-119.71 393.91,-120.06 385.86,-113.18 383.32,-119.71"/>
</a>
</g>
</g>
<!-- Node6 -->
<g id="Node000006" class="node">
<title>Node6</title>
<g id="a_Node000006"><a xlink:href="class_nuki_1_1_nuki_ble.html#a59169a9f492793762e3c6ba39b611b07" target="_top" xlink:title=" ">
<polygon fill="white" stroke="#666666" points="328.25,-105.88 184.75,-105.88 184.75,-75.38 328.25,-75.38 328.25,-105.88"/>
<text text-anchor="start" x="192.75" y="-92.38" font-family="Helvetica,sans-Serif" font-size="10.00">Nuki::NukiBle::cmdChallState</text>
<text text-anchor="middle" x="256.5" y="-81.12" font-family="Helvetica,sans-Serif" font-size="10.00">Machine</text>
</a>
</g>
</g>
<!-- Node1&#45;&gt;Node6 -->
<g id="edge5_Node000001_Node000006" class="edge">
<title>Node1&#45;&gt;Node6</title>
<g id="a_edge5_Node000001_Node000006"><a xlink:title=" ">
<path fill="none" stroke="#63b8ff" d="M114.74,-123.54C133.36,-119.19 155.74,-113.95 177.13,-108.95"/>
<polygon fill="#63b8ff" stroke="#63b8ff" points="177.78,-112.4 186.72,-106.71 176.18,-105.58 177.78,-112.4"/>
</a>
</g>
</g>
<!-- Node8 -->
<g id="Node000008" class="node">
<title>Node8</title>
<g id="a_Node000008"><a xlink:href="class_nuki_1_1_nuki_ble.html#ad135bb1455665decfddff67772c1d411" target="_top" xlink:title=" ">
<polygon fill="white" stroke="#666666" points="335.75,-229.25 177.25,-229.25 177.25,-210 335.75,-210 335.75,-229.25"/>
<text text-anchor="middle" x="256.5" y="-215.75" font-family="Helvetica,sans-Serif" font-size="10.00">Nuki::NukiBle::cmdStateMachine</text>
</a>
</g>
</g>
<!-- Node1&#45;&gt;Node8 -->
<g id="edge10_Node000001_Node000008" class="edge">
<title>Node1&#45;&gt;Node8</title>
<g id="a_edge10_Node000001_Node000008"><a xlink:title=" ">
<path fill="none" stroke="#63b8ff" d="M84.2,-143.55C103.25,-158.13 141.07,-185.26 177.25,-200.62 182.22,-202.73 187.46,-204.64 192.79,-206.35"/>
<polygon fill="#63b8ff" stroke="#63b8ff" points="191.76,-209.7 202.34,-209.18 193.74,-202.99 191.76,-209.7"/>
</a>
</g>
</g>
<!-- Node9 -->
<g id="Node000009" class="node">
<title>Node9</title>
<g id="a_Node000009"><a xlink:href="class_nuki_1_1_nuki_ble.html#a050f54fbfcea03dc5238e8c66a7e89ca" target="_top" xlink:title="Returns pairing state (if credentials are stored or not)">
<polygon fill="white" stroke="#666666" points="334.62,-19.25 178.38,-19.25 178.38,0 334.62,0 334.62,-19.25"/>
<text text-anchor="middle" x="256.5" y="-5.75" font-family="Helvetica,sans-Serif" font-size="10.00">Nuki::NukiBle::isPairedWithLock</text>
</a>
</g>
</g>
<!-- Node1&#45;&gt;Node9 -->
<g id="edge15_Node000001_Node000009" class="edge">
<title>Node1&#45;&gt;Node9</title>
<g id="a_edge15_Node000001_Node000009"><a xlink:title=" ">
<path fill="none" stroke="#63b8ff" d="M79.51,-123.52C95.69,-103.47 134.71,-58.43 177.25,-33.62 184.09,-29.64 191.66,-26.25 199.32,-23.38"/>
<polygon fill="#63b8ff" stroke="#63b8ff" points="200.38,-26.72 208.71,-20.17 198.12,-20.1 200.38,-26.72"/>
</a>
</g>
</g>
<!-- Node2&#45;&gt;Node3 -->
<g id="edge2_Node000002_Node000003" class="edge">
<title>Node2&#45;&gt;Node3</title>
<g id="a_edge2_Node000002_Node000003"><a xlink:title=" ">
<path fill="none" stroke="#63b8ff" d="M325.64,-175.91C336.79,-175.8 348.47,-175.68 360.03,-175.56"/>
<polygon fill="#63b8ff" stroke="#63b8ff" points="360.05,-179.06 370.01,-175.45 359.97,-172.06 360.05,-179.06"/>
</a>
</g>
</g>
<!-- Node2&#45;&gt;Node4 -->
<g id="edge3_Node000002_Node000004" class="edge">
<title>Node2&#45;&gt;Node4</title>
<g id="a_edge3_Node000002_Node000004"><a xlink:title=" ">
<path fill="none" stroke="#63b8ff" d="M325.64,-191.55C347.45,-196.33 371.35,-201.56 392.28,-206.15"/>
<polygon fill="#63b8ff" stroke="#63b8ff" points="391.25,-209.5 401.76,-208.22 392.74,-202.67 391.25,-209.5"/>
</a>
</g>
</g>
<!-- Node2&#45;&gt;Node5 -->
<g id="edge4_Node000002_Node000005" class="edge">
<title>Node2&#45;&gt;Node5</title>
<g id="a_edge4_Node000002_Node000005"><a xlink:title=" ">
<path fill="none" stroke="#63b8ff" d="M322.95,-160.92C346.81,-155.2 373.46,-148.81 396.11,-143.37"/>
<polygon fill="#63b8ff" stroke="#63b8ff" points="396.84,-146.8 405.75,-141.06 395.21,-139.99 396.84,-146.8"/>
</a>
</g>
</g>
<!-- Node6&#45;&gt;Node3 -->
<g id="edge6_Node000006_Node000003" class="edge">
<title>Node6&#45;&gt;Node3</title>
<g id="a_edge6_Node000006_Node000003"><a xlink:title=" ">
<path fill="none" stroke="#63b8ff" d="M307.5,-106.26C317.15,-110.07 326.97,-114.54 335.75,-119.62 353.77,-130.06 353.51,-139.58 371.75,-149.62 374.91,-151.36 378.21,-153 381.58,-154.55"/>
<polygon fill="#63b8ff" stroke="#63b8ff" points="379.93,-157.65 390.51,-158.31 382.65,-151.2 379.93,-157.65"/>
</a>
</g>
</g>
<!-- Node6&#45;&gt;Node4 -->
<g id="edge8_Node000006_Node000004" class="edge">
<title>Node6&#45;&gt;Node4</title>
<g id="a_edge8_Node000006_Node000004"><a xlink:title=" ">
<path fill="none" stroke="#63b8ff" d="M279.91,-106.17C296.22,-118 318.4,-135.17 335.75,-152.62 354.05,-171.04 350.03,-184.41 371.75,-198.62 374.99,-200.74 378.44,-202.64 382.01,-204.33"/>
<polygon fill="#63b8ff" stroke="#63b8ff" points="380.39,-207.45 390.97,-208.02 383.05,-200.98 380.39,-207.45"/>
</a>
</g>
</g>
<!-- Node6&#45;&gt;Node5 -->
<g id="edge9_Node000006_Node000005" class="edge">
<title>Node6&#45;&gt;Node5</title>
<g id="a_edge9_Node000006_Node000005"><a xlink:title=" ">
<path fill="none" stroke="#63b8ff" d="M328.63,-105.46C348.76,-109.66 370.46,-114.19 389.83,-118.23"/>
<polygon fill="#63b8ff" stroke="#63b8ff" points="388.95,-121.62 399.45,-120.24 390.38,-114.77 388.95,-121.62"/>
</a>
</g>
</g>
<!-- Node7 -->
<g id="Node000007" class="node">
<title>Node7</title>
<g id="a_Node000007"><a xlink:href="class_nuki_1_1_nuki_ble.html#a25207bb564a4b54b8dd8c872177b53a7" target="_top" xlink:title="Returns if BLE is pairing/paired/connected with a Smart Lock Ultra.">
<polygon fill="white" stroke="#666666" points="515.25,-100.25 385.25,-100.25 385.25,-81 515.25,-81 515.25,-100.25"/>
<text text-anchor="middle" x="450.25" y="-86.75" font-family="Helvetica,sans-Serif" font-size="10.00">Nuki::NukiBle::isLockUltra</text>
</a>
</g>
</g>
<!-- Node6&#45;&gt;Node7 -->
<g id="edge7_Node000006_Node000007" class="edge">
<title>Node6&#45;&gt;Node7</title>
<g id="a_edge7_Node000006_Node000007"><a xlink:title=" ">
<path fill="none" stroke="#63b8ff" d="M328.63,-90.62C343.32,-90.62 358.85,-90.62 373.69,-90.62"/>
<polygon fill="#63b8ff" stroke="#63b8ff" points="373.37,-94.13 383.37,-90.63 373.37,-87.13 373.37,-94.13"/>
</a>
</g>
</g>
<!-- Node8&#45;&gt;Node3 -->
<g id="edge11_Node000008_Node000003" class="edge">
<title>Node8&#45;&gt;Node3</title>
<g id="a_edge11_Node000008_Node000003"><a xlink:title=" ">
<path fill="none" stroke="#63b8ff" d="M300.53,-209.53C321.41,-204.63 347.14,-198.59 371.3,-192.92"/>
<polygon fill="#63b8ff" stroke="#63b8ff" points="371.86,-196.38 380.79,-190.69 370.26,-189.57 371.86,-196.38"/>
</a>
</g>
</g>
<!-- Node8&#45;&gt;Node4 -->
<g id="edge12_Node000008_Node000004" class="edge">
<title>Node8&#45;&gt;Node4</title>
<g id="a_edge12_Node000008_Node000004"><a xlink:title=" ">
<path fill="none" stroke="#63b8ff" d="M336.05,-219.22C348.04,-219.15 360.4,-219.09 372.36,-219.03"/>
<polygon fill="#63b8ff" stroke="#63b8ff" points="372.18,-222.53 382.16,-218.97 372.14,-215.53 372.18,-222.53"/>
</a>
</g>
</g>
<!-- Node8&#45;&gt;Node5 -->
<g id="edge13_Node000008_Node000005" class="edge">
<title>Node8&#45;&gt;Node5</title>
<g id="a_edge13_Node000008_Node000005"><a xlink:title=" ">
<path fill="none" stroke="#63b8ff" d="M317.91,-209.65C324.21,-207.26 330.3,-204.29 335.75,-200.62 358.47,-185.33 349.14,-166.08 371.75,-150.62 374.64,-148.65 377.71,-146.87 380.9,-145.27"/>
<polygon fill="#63b8ff" stroke="#63b8ff" points="382.23,-148.5 390.02,-141.32 379.45,-142.08 382.23,-148.5"/>
</a>
</g>
</g>
</g>
</svg>
