<?xml version="1.0" encoding="UTF-8" standalone="no"?>
<!DOCTYPE svg PUBLIC "-//W3C//DTD SVG 1.1//EN"
 "http://www.w3.org/Graphics/SVG/1.1/DTD/svg11.dtd">
<!-- Generated by graphviz version 8.0.5 (20230430.1635)
 -->
<!-- Title: NukiOpener::NukiOpener::addTimeControlEntry Pages: 1 -->
<svg width="326pt" height="76pt"
 viewBox="0.00 0.00 325.75 75.88" xmlns="http://www.w3.org/2000/svg" xmlns:xlink="http://www.w3.org/1999/xlink">
<g id="graph0" class="graph" transform="scale(1 1) rotate(0) translate(4 71.88)">
<title>NukiOpener::NukiOpener::addTimeControlEntry</title>
<!-- Node1 -->
<g id="node1" class="node">
<title>Node1</title>
<g id="a_node1"><a xlink:title="Sends a new time(d) control entry via BLE to the lock. This entry is independant of keypad or authori...">
<polygon fill="#999999" stroke="#666666" points="124,-45.88 0,-45.88 0,-15.37 124,-15.37 124,-45.88"/>
<text text-anchor="start" x="8" y="-32.38" font-family="Helvetica,sans-Serif" font-size="10.00">NukiOpener::NukiOpener</text>
<text text-anchor="middle" x="62" y="-21.12" font-family="Helvetica,sans-Serif" font-size="10.00">::addTimeControlEntry</text>
</a>
</g>
</g>
<!-- Node2 -->
<g id="node2" class="node">
<title>Node2</title>
<g id="a_node2"><a xlink:href="namespace_nuki_opener.html#a2787c094621c78f690c0919692d86698" target="_top" xlink:title=" ">
<polygon fill="white" stroke="#666666" points="317.75,-67.88 160,-67.88 160,-37.38 317.75,-37.38 317.75,-67.88"/>
<text text-anchor="start" x="168" y="-54.38" font-family="Helvetica,sans-Serif" font-size="10.00">NukiOpener::logNewTimeControl</text>
<text text-anchor="middle" x="238.88" y="-43.12" font-family="Helvetica,sans-Serif" font-size="10.00">Entry</text>
</a>
</g>
</g>
<!-- Node1&#45;&gt;Node2 -->
<g id="edge1" class="edge">
<title>Node1&#45;&gt;Node2</title>
<path fill="none" stroke="#63b8ff" d="M124.16,-38.32C132.11,-39.32 140.37,-40.36 148.65,-41.4"/>
<polygon fill="#63b8ff" stroke="#63b8ff" points="148.17,-44.99 158.53,-42.77 149.05,-38.05 148.17,-44.99"/>
</g>
<!-- Node3 -->
<g id="node3" class="node">
<title>Node3</title>
<g id="a_node3"><a xlink:href="namespace_nuki.html#a280e19d4682ca4b35d3fe64001da816a" target="_top" xlink:title=" ">
<polygon fill="white" stroke="#666666" points="281.38,-19.25 196.38,-19.25 196.38,0 281.38,0 281.38,-19.25"/>
<text text-anchor="middle" x="238.88" y="-5.75" font-family="Helvetica,sans-Serif" font-size="10.00">Nuki::printBuffer</text>
</a>
</g>
</g>
<!-- Node1&#45;&gt;Node3 -->
<g id="edge2" class="edge">
<title>Node1&#45;&gt;Node3</title>
<path fill="none" stroke="#63b8ff" d="M124.16,-23.28C144.1,-20.89 166.04,-18.25 185.29,-15.94"/>
<polygon fill="#63b8ff" stroke="#63b8ff" points="185.47,-19.32 194.98,-14.66 184.63,-12.37 185.47,-19.32"/>
</g>
</g>
</svg>
