<?xml version="1.0" encoding="UTF-8" standalone="no"?>
<!DOCTYPE svg PUBLIC "-//W3C//DTD SVG 1.1//EN"
 "http://www.w3.org/Graphics/SVG/1.1/DTD/svg11.dtd">
<!-- Generated by graphviz version 7.1.0 (20230121.1956)
 -->
<!-- Title: Nuki::NukiBle::deleteKeypadEntry Pages: 1 -->
<svg width="520pt" height="172pt"
 viewBox="0.00 0.00 520.00 172.00" xmlns="http://www.w3.org/2000/svg" xmlns:xlink="http://www.w3.org/1999/xlink">
<g id="graph0" class="graph" transform="scale(1 1) rotate(0) translate(4 168)">
<title>Nuki::NukiBle::deleteKeypadEntry</title>
<!-- Node1 -->
<g id="node1" class="node">
<title>Node1</title>
<g id="a_node1"><a xlink:title="Delete a Keypad Entry.">
<polygon fill="#999999" stroke="#666666" points="139,-94 0,-94 0,-64 139,-64 139,-94"/>
<text text-anchor="start" x="8" y="-82" font-family="Helvetica,sans-Serif" font-size="10.00">Nuki::NukiBle::deleteKeypad</text>
<text text-anchor="middle" x="69.5" y="-71" font-family="Helvetica,sans-Serif" font-size="10.00">Entry</text>
</a>
</g>
</g>
<!-- Node2 -->
<g id="node2" class="node">
<title>Node2</title>
<g id="a_node2"><a xlink:href="class_nuki_1_1_nuki_ble.html#af1f1e299e8d97e053bba80e92ba285d6" target="_top" xlink:title=" ">
<polygon fill="white" stroke="#666666" points="317,-88.5 175,-88.5 175,-69.5 317,-69.5 317,-88.5"/>
<text text-anchor="middle" x="246" y="-76.5" font-family="Helvetica,sans-Serif" font-size="10.00">Nuki::NukiBle::executeAction</text>
</a>
</g>
</g>
<!-- Node1&#45;&gt;Node2 -->
<g id="edge1" class="edge">
<title>Node1&#45;&gt;Node2</title>
<path fill="none" stroke="#63b8ff" d="M139.47,-79C147.21,-79 155.16,-79 163.05,-79"/>
<polygon fill="#63b8ff" stroke="#63b8ff" points="163.02,-82.5 173.02,-79 163.02,-75.5 163.02,-82.5"/>
</g>
<!-- Node3 -->
<g id="node3" class="node">
<title>Node3</title>
<g id="a_node3"><a xlink:href="class_nuki_1_1_nuki_ble.html#ada0f3beebd95d35c122e25dd3f9eb886" target="_top" xlink:title=" ">
<polygon fill="white" stroke="#666666" points="501.5,-164 363.5,-164 363.5,-134 501.5,-134 501.5,-164"/>
<text text-anchor="start" x="371.5" y="-152" font-family="Helvetica,sans-Serif" font-size="10.00">Nuki::NukiBle::cmdChallAcc</text>
<text text-anchor="middle" x="432.5" y="-141" font-family="Helvetica,sans-Serif" font-size="10.00">StateMachine</text>
</a>
</g>
</g>
<!-- Node2&#45;&gt;Node3 -->
<g id="edge2" class="edge">
<title>Node2&#45;&gt;Node3</title>
<path fill="none" stroke="#63b8ff" d="M267.83,-88.87C289.01,-98.71 322.88,-113.9 353,-125 357.64,-126.71 362.46,-128.4 367.33,-130.03"/>
<polygon fill="#63b8ff" stroke="#63b8ff" points="365.99,-133.28 376.59,-133.07 368.17,-126.63 365.99,-133.28"/>
</g>
<!-- Node4 -->
<g id="node4" class="node">
<title>Node4</title>
<g id="a_node4"><a xlink:href="class_nuki_1_1_nuki_ble.html#a59169a9f492793762e3c6ba39b611b07" target="_top" xlink:title=" ">
<polygon fill="white" stroke="#666666" points="504.5,-116 360.5,-116 360.5,-86 504.5,-86 504.5,-116"/>
<text text-anchor="start" x="368.5" y="-104" font-family="Helvetica,sans-Serif" font-size="10.00">Nuki::NukiBle::cmdChallState</text>
<text text-anchor="middle" x="432.5" y="-93" font-family="Helvetica,sans-Serif" font-size="10.00">Machine</text>
</a>
</g>
</g>
<!-- Node2&#45;&gt;Node4 -->
<g id="edge3" class="edge">
<title>Node2&#45;&gt;Node4</title>
<path fill="none" stroke="#63b8ff" d="M317.28,-87.38C327.6,-88.61 338.31,-89.89 348.85,-91.14"/>
<polygon fill="#63b8ff" stroke="#63b8ff" points="348.35,-94.61 358.69,-92.32 349.18,-87.66 348.35,-94.61"/>
</g>
<!-- Node5 -->
<g id="node5" class="node">
<title>Node5</title>
<g id="a_node5"><a xlink:href="class_nuki_1_1_nuki_ble.html#ad135bb1455665decfddff67772c1d411" target="_top" xlink:title=" ">
<polygon fill="white" stroke="#666666" points="512,-67.5 353,-67.5 353,-48.5 512,-48.5 512,-67.5"/>
<text text-anchor="middle" x="432.5" y="-55.5" font-family="Helvetica,sans-Serif" font-size="10.00">Nuki::NukiBle::cmdStateMachine</text>
</a>
</g>
</g>
<!-- Node2&#45;&gt;Node5 -->
<g id="edge4" class="edge">
<title>Node2&#45;&gt;Node5</title>
<path fill="none" stroke="#63b8ff" d="M317.28,-71C325.17,-70.1 333.29,-69.18 341.38,-68.26"/>
<polygon fill="#63b8ff" stroke="#63b8ff" points="341.75,-71.74 351.29,-67.13 340.95,-64.78 341.75,-71.74"/>
</g>
<!-- Node6 -->
<g id="node6" class="node">
<title>Node6</title>
<g id="a_node6"><a xlink:href="class_nuki_1_1_nuki_ble.html#aed01f10d1ffa769f0f6fadc0d06d328e" target="_top" xlink:title=" ">
<polygon fill="white" stroke="#666666" points="508.5,-30 356.5,-30 356.5,0 508.5,0 508.5,-30"/>
<text text-anchor="start" x="364.5" y="-18" font-family="Helvetica,sans-Serif" font-size="10.00">Nuki::NukiBle::extendDisonnect</text>
<text text-anchor="middle" x="432.5" y="-7" font-family="Helvetica,sans-Serif" font-size="10.00">Timeout</text>
</a>
</g>
</g>
<!-- Node2&#45;&gt;Node6 -->
<g id="edge5" class="edge">
<title>Node2&#45;&gt;Node6</title>
<path fill="none" stroke="#63b8ff" d="M273.02,-69.06C294.41,-60.98 325.55,-49.42 353,-40 358.83,-38 364.93,-35.96 371.04,-33.96"/>
<polygon fill="#63b8ff" stroke="#63b8ff" points="372.11,-37.29 380.54,-30.87 369.95,-30.63 372.11,-37.29"/>
</g>
</g>
</svg>
