<?xml version="1.0" encoding="UTF-8" standalone="no"?>
<!DOCTYPE svg PUBLIC "-//W3C//DTD SVG 1.1//EN"
 "http://www.w3.org/Graphics/SVG/1.1/DTD/svg11.dtd">
<!-- Generated by graphviz version 7.1.0 (20230121.1956)
 -->
<!-- Title: Nuki::NukiBle::extendDisonnectTimeout Pages: 1 -->
<!--zoomable 514 -->
<svg id="main" version="1.1" xmlns="http://www.w3.org/2000/svg" xmlns:xlink="http://www.w3.org/1999/xlink" xml:space="preserve" onload="init(evt)">
<style type="text/css"><![CDATA[
.edge:hover path { stroke: red; }
.edge:hover polygon { stroke: red; fill: red; }
]]></style>
<script type="text/javascript"><![CDATA[
var edges = document.getElementsByTagName('g');
if (edges && edges.length) {
  for (var i=0;i<edges.length;i++) {
    if (edges[i].id.substr(0,4)=='edge') {
      edges[i].setAttribute('class','edge');
    }
  }
}
]]></script>
        <defs>
                <circle id="rim" cx="0" cy="0" r="7"/>
                <circle id="rim2" cx="0" cy="0" r="3.5"/>
                <g id="zoomPlus">
                        <use xlink:href="#rim" fill="#404040">
                                <set attributeName="fill" to="#808080" begin="zoomplus.mouseover" end="zoomplus.mouseout"/>
                        </use>
                        <path d="M-4,0h8M0,-4v8" fill="none" stroke="white" stroke-width="1.5" pointer-events="none"/>
                </g>
                <g id="zoomMin">
                        <use xlink:href="#rim" fill="#404040">
                                <set attributeName="fill" to="#808080" begin="zoomminus.mouseover" end="zoomminus.mouseout"/>
                        </use>
                        <path d="M-4,0h8" fill="none" stroke="white" stroke-width="1.5" pointer-events="none"/>
                </g>
                <g id="dirArrow">
                        <path fill="none" stroke="white" stroke-width="1.5" d="M0,-3.0v7 M-2.5,-0.5L0,-3.0L2.5,-0.5"/>
                </g>
               <g id="resetDef">
                       <use xlink:href="#rim2" fill="#404040">
                               <set attributeName="fill" to="#808080" begin="reset.mouseover" end="reset.mouseout"/>
                       </use>
               </g>
        </defs>

<script type="text/javascript">
var viewWidth = 543;
var viewHeight = 514;
var sectionId = 'dynsection-11';
</script>
<script xlink:href="svgpan.js"/>
<svg id="graph" class="graph">
<g id="viewport">
<title>Nuki::NukiBle::extendDisonnectTimeout</title>
<!-- Node1 -->
<g id="node1" class="node">
<title>Node1</title>
<g id="a_node1"><a xlink:title=" ">
<polygon fill="#999999" stroke="#666666" points="535,-243.5 383,-243.5 383,-213.5 535,-213.5 535,-243.5"/>
<text text-anchor="start" x="391" y="-231.5" font-family="Helvetica,sans-Serif" font-size="10.00">Nuki::NukiBle::extendDisonnect</text>
<text text-anchor="middle" x="459" y="-220.5" font-family="Helvetica,sans-Serif" font-size="10.00">Timeout</text>
</a>
</g>
</g>
<!-- Node2 -->
<g id="node2" class="node">
<title>Node2</title>
<g id="a_node2"><a xlink:href="class_nuki_1_1_nuki_ble.html#af1f1e299e8d97e053bba80e92ba285d6" target="_top" xlink:title=" ">
<polygon fill="white" stroke="#666666" points="347,-257 205,-257 205,-238 347,-238 347,-257"/>
<text text-anchor="middle" x="276" y="-245" font-family="Helvetica,sans-Serif" font-size="10.00">Nuki::NukiBle::executeAction</text>
</a>
</g>
</g>
<!-- Node1&#45;&gt;Node2 -->
<g id="edge1" class="edge">
<title>Node1&#45;&gt;Node2</title>
<path fill="none" stroke="#63b8ff" d="M371.29,-237.6C363.28,-238.44 355.24,-239.29 347.4,-240.11"/>
<polygon fill="#63b8ff" stroke="#63b8ff" points="371.47,-241.1 381.05,-236.58 370.73,-234.14 371.47,-241.1"/>
</g>
<!-- Node15 -->
<g id="node15" class="node">
<title>Node15</title>
<g id="a_node15"><a xlink:href="class_nuki_1_1_nuki_ble.html#a787125bfc92266571d95e94da6756700" target="_top" xlink:title="Checks if credentials are stored in preferences, if not initiate pairing.">
<polygon fill="white" stroke="#666666" points="334,-220 218,-220 218,-201 334,-201 334,-220"/>
<text text-anchor="middle" x="276" y="-208" font-family="Helvetica,sans-Serif" font-size="10.00">Nuki::NukiBle::pairNuki</text>
</a>
</g>
</g>
<!-- Node1&#45;&gt;Node15 -->
<g id="edge14" class="edge">
<title>Node1&#45;&gt;Node15</title>
<path fill="none" stroke="#63b8ff" d="M371.15,-219.86C358.67,-218.62 346.11,-217.37 334.4,-216.21"/>
<polygon fill="#63b8ff" stroke="#63b8ff" points="370.75,-223.34 381.04,-220.85 371.44,-216.37 370.75,-223.34"/>
</g>
<!-- Node3 -->
<g id="node3" class="node">
<title>Node3</title>
<g id="a_node3"><a xlink:href="class_nuki_1_1_nuki_ble.html#a8c69d960c9034d3ae5877285b666f09c" target="_top" xlink:title="Sends a new authorization entry to the lock via BLE.">
<polygon fill="white" stroke="#666666" points="160.5,-505.5 8.5,-505.5 8.5,-475.5 160.5,-475.5 160.5,-505.5"/>
<text text-anchor="start" x="16.5" y="-493.5" font-family="Helvetica,sans-Serif" font-size="10.00">Nuki::NukiBle::addAuthorization</text>
<text text-anchor="middle" x="84.5" y="-482.5" font-family="Helvetica,sans-Serif" font-size="10.00">Entry</text>
</a>
</g>
</g>
<!-- Node2&#45;&gt;Node3 -->
<g id="edge2" class="edge">
<title>Node2&#45;&gt;Node3</title>
<path fill="none" stroke="#63b8ff" d="M270.92,-268.16C261.25,-311.59 232.81,-412.76 169,-466.5 165.08,-469.8 160.72,-472.65 156.12,-475.11"/>
<polygon fill="#63b8ff" stroke="#63b8ff" points="274.3,-269.08 272.94,-258.57 267.45,-267.63 274.3,-269.08"/>
</g>
<!-- Node4 -->
<g id="node4" class="node">
<title>Node4</title>
<g id="a_node4"><a xlink:href="class_nuki_1_1_nuki_ble.html#ad96ef33212df343aa1433229f58f2ff7" target="_top" xlink:title="Send a new keypad entry to the lock via BLE.">
<polygon fill="white" stroke="#666666" points="148.5,-457.5 20.5,-457.5 20.5,-427.5 148.5,-427.5 148.5,-457.5"/>
<text text-anchor="start" x="28.5" y="-445.5" font-family="Helvetica,sans-Serif" font-size="10.00">Nuki::NukiBle::addKeypad</text>
<text text-anchor="middle" x="84.5" y="-434.5" font-family="Helvetica,sans-Serif" font-size="10.00">Entry</text>
</a>
</g>
</g>
<!-- Node2&#45;&gt;Node4 -->
<g id="edge3" class="edge">
<title>Node2&#45;&gt;Node4</title>
<path fill="none" stroke="#63b8ff" d="M267.96,-268C254.53,-303.99 221.8,-378.54 169,-418.5 162.87,-423.14 155.86,-426.89 148.58,-429.91"/>
<polygon fill="#63b8ff" stroke="#63b8ff" points="271.17,-269.39 271.26,-258.8 264.59,-267.02 271.17,-269.39"/>
</g>
<!-- Node5 -->
<g id="node5" class="node">
<title>Node5</title>
<g id="a_node5"><a xlink:href="class_nuki_1_1_nuki_ble.html#a1aacb6b629b0e93a6f819732ab95922b" target="_top" xlink:title="Delete a Keypad Entry.">
<polygon fill="white" stroke="#666666" points="154,-409.5 15,-409.5 15,-379.5 154,-379.5 154,-409.5"/>
<text text-anchor="start" x="23" y="-397.5" font-family="Helvetica,sans-Serif" font-size="10.00">Nuki::NukiBle::deleteKeypad</text>
<text text-anchor="middle" x="84.5" y="-386.5" font-family="Helvetica,sans-Serif" font-size="10.00">Entry</text>
</a>
</g>
</g>
<!-- Node2&#45;&gt;Node5 -->
<g id="edge4" class="edge">
<title>Node2&#45;&gt;Node5</title>
<path fill="none" stroke="#63b8ff" d="M263.59,-266.71C246.47,-293.88 211.54,-343.25 169,-370.5 163.92,-373.75 158.39,-376.58 152.67,-379.02"/>
<polygon fill="#63b8ff" stroke="#63b8ff" points="266.41,-268.81 268.66,-258.45 260.44,-265.15 266.41,-268.81"/>
</g>
<!-- Node6 -->
<g id="node6" class="node">
<title>Node6</title>
<g id="a_node6"><a xlink:href="class_nuki_1_1_nuki_ble.html#a5c80321a4355c9394be7a7de29133c7b" target="_top" xlink:title="Sends an calibration (mechanical) request to the lock via BLE.">
<polygon fill="white" stroke="#666666" points="163.5,-361 5.5,-361 5.5,-342 163.5,-342 163.5,-361"/>
<text text-anchor="middle" x="84.5" y="-349" font-family="Helvetica,sans-Serif" font-size="10.00">Nuki::NukiBle::requestCalibration</text>
</a>
</g>
</g>
<!-- Node2&#45;&gt;Node6 -->
<g id="edge5" class="edge">
<title>Node2&#45;&gt;Node6</title>
<path fill="none" stroke="#63b8ff" d="M258.24,-265.43C238.72,-285.2 204.58,-316.45 169,-333.5 162.31,-336.7 155.05,-339.34 147.7,-341.52"/>
<polygon fill="#63b8ff" stroke="#63b8ff" points="260.66,-267.97 265.08,-258.34 255.62,-263.11 260.66,-267.97"/>
</g>
<!-- Node7 -->
<g id="node7" class="node">
<title>Node7</title>
<g id="a_node7"><a xlink:href="class_nuki_1_1_nuki_ble.html#a80e616a2f3d29be9d96d5233b9fefa1a" target="_top" xlink:title="Sends an reboot request to the lock via BLE.">
<polygon fill="white" stroke="#666666" points="156,-324 13,-324 13,-305 156,-305 156,-324"/>
<text text-anchor="middle" x="84.5" y="-312" font-family="Helvetica,sans-Serif" font-size="10.00">Nuki::NukiBle::requestReboot</text>
</a>
</g>
</g>
<!-- Node2&#45;&gt;Node7 -->
<g id="edge6" class="edge">
<title>Node2&#45;&gt;Node7</title>
<path fill="none" stroke="#63b8ff" d="M246.17,-262.47C225.21,-272.88 195.9,-286.45 169,-295.5 158.71,-298.96 147.5,-301.99 136.73,-304.56"/>
<polygon fill="#63b8ff" stroke="#63b8ff" points="247.61,-265.66 254.97,-258.04 244.46,-259.41 247.61,-265.66"/>
</g>
<!-- Node8 -->
<g id="node8" class="node">
<title>Node8</title>
<g id="a_node8"><a xlink:href="class_nuki_1_1_nuki_ble.html#a0fb824539f7166cc53162e94267f0db0" target="_top" xlink:title="Request the lock via BLE to send the existing authorizationentries.">
<polygon fill="white" stroke="#666666" points="169,-286.5 0,-286.5 0,-256.5 169,-256.5 169,-286.5"/>
<text text-anchor="start" x="8" y="-274.5" font-family="Helvetica,sans-Serif" font-size="10.00">Nuki::NukiBle::retrieveAuthorization</text>
<text text-anchor="middle" x="84.5" y="-263.5" font-family="Helvetica,sans-Serif" font-size="10.00">Entries</text>
</a>
</g>
</g>
<!-- Node2&#45;&gt;Node8 -->
<g id="edge7" class="edge">
<title>Node2&#45;&gt;Node8</title>
<path fill="none" stroke="#63b8ff" d="M193.54,-257.82C185.56,-258.83 177.46,-259.85 169.46,-260.87"/>
<polygon fill="#63b8ff" stroke="#63b8ff" points="193.72,-261.32 203.2,-256.59 192.84,-254.38 193.72,-261.32"/>
</g>
<!-- Node9 -->
<g id="node9" class="node">
<title>Node9</title>
<g id="a_node9"><a xlink:href="class_nuki_1_1_nuki_ble.html#a6f669d52198915978c51ee441aec3c6d" target="_top" xlink:title="Request the lock via BLE to send the existing keypad entries.">
<polygon fill="white" stroke="#666666" points="157,-238.5 12,-238.5 12,-208.5 157,-208.5 157,-238.5"/>
<text text-anchor="start" x="20" y="-226.5" font-family="Helvetica,sans-Serif" font-size="10.00">Nuki::NukiBle::retrieveKeypad</text>
<text text-anchor="middle" x="84.5" y="-215.5" font-family="Helvetica,sans-Serif" font-size="10.00">Entries</text>
</a>
</g>
</g>
<!-- Node2&#45;&gt;Node9 -->
<g id="edge8" class="edge">
<title>Node2&#45;&gt;Node9</title>
<path fill="none" stroke="#63b8ff" d="M193.32,-237.16C181.32,-235.64 169.04,-234.08 157.26,-232.59"/>
<polygon fill="#63b8ff" stroke="#63b8ff" points="192.84,-240.62 203.2,-238.41 193.72,-233.68 192.84,-240.62"/>
</g>
<!-- Node10 -->
<g id="node10" class="node">
<title>Node10</title>
<g id="a_node10"><a xlink:href="class_nuki_1_1_nuki_ble.html#a6603fe4282fcab83f3038400e2c70207" target="_top" xlink:title="Send the new pincode command to the lock via BLE (this command uses the earlier by saveSecurityPincod...">
<polygon fill="white" stroke="#666666" points="156,-190 13,-190 13,-171 156,-171 156,-190"/>
<text text-anchor="middle" x="84.5" y="-178" font-family="Helvetica,sans-Serif" font-size="10.00">Nuki::NukiBle::setSecurityPin</text>
</a>
</g>
</g>
<!-- Node2&#45;&gt;Node10 -->
<g id="edge9" class="edge">
<title>Node2&#45;&gt;Node10</title>
<path fill="none" stroke="#63b8ff" d="M214.46,-233.78C211.2,-232.48 208.03,-231.05 205,-229.5 186.46,-220.01 187.67,-208.73 169,-199.5 161.54,-195.81 153.34,-192.82 145.1,-190.41"/>
<polygon fill="#63b8ff" stroke="#63b8ff" points="213.02,-236.99 223.61,-237.06 215.38,-230.39 213.02,-236.99"/>
</g>
<!-- Node11 -->
<g id="node11" class="node">
<title>Node11</title>
<g id="a_node11"><a xlink:href="class_nuki_1_1_nuki_ble.html#af47efb4e020a327687327ad82963b347" target="_top" xlink:title="Sends an updated authorization entry to the lock via BLE.">
<polygon fill="white" stroke="#666666" points="167.5,-152.5 1.5,-152.5 1.5,-122.5 167.5,-122.5 167.5,-152.5"/>
<text text-anchor="start" x="9.5" y="-140.5" font-family="Helvetica,sans-Serif" font-size="10.00">Nuki::NukiBle::updateAuthorization</text>
<text text-anchor="middle" x="84.5" y="-129.5" font-family="Helvetica,sans-Serif" font-size="10.00">Entry</text>
</a>
</g>
</g>
<!-- Node2&#45;&gt;Node11 -->
<g id="edge10" class="edge">
<title>Node2&#45;&gt;Node11</title>
<path fill="none" stroke="#63b8ff" d="M208.62,-232.11C207.37,-231.28 206.17,-230.41 205,-229.5 178.39,-208.65 195.19,-183.87 169,-162.5 164.43,-158.77 159.31,-155.6 153.92,-152.89"/>
<polygon fill="#63b8ff" stroke="#63b8ff" points="206.94,-235.18 217.4,-236.89 210.29,-229.03 206.94,-235.18"/>
</g>
<!-- Node12 -->
<g id="node12" class="node">
<title>Node12</title>
<g id="a_node12"><a xlink:href="class_nuki_1_1_nuki_ble.html#a0f1be2034e079e676a7771dfb775df81" target="_top" xlink:title="Send an updated keypad entry to the lock via BLE.">
<polygon fill="white" stroke="#666666" points="155.5,-104.5 13.5,-104.5 13.5,-74.5 155.5,-74.5 155.5,-104.5"/>
<text text-anchor="start" x="21.5" y="-92.5" font-family="Helvetica,sans-Serif" font-size="10.00">Nuki::NukiBle::updateKeypad</text>
<text text-anchor="middle" x="84.5" y="-81.5" font-family="Helvetica,sans-Serif" font-size="10.00">Entry</text>
</a>
</g>
</g>
<!-- Node2&#45;&gt;Node12 -->
<g id="edge11" class="edge">
<title>Node2&#45;&gt;Node12</title>
<path fill="none" stroke="#63b8ff" d="M206.94,-231.24C206.28,-230.68 205.63,-230.1 205,-229.5 165.9,-192.28 207.57,-151.27 169,-113.5 165.12,-109.7 160.68,-106.5 155.91,-103.79"/>
<polygon fill="#63b8ff" stroke="#63b8ff" points="204.83,-234.04 215.09,-236.7 208.73,-228.23 204.83,-234.04"/>
</g>
<!-- Node13 -->
<g id="node13" class="node">
<title>Node13</title>
<g id="a_node13"><a xlink:href="class_nuki_1_1_nuki_ble.html#aac2e6b5ca939d23e8f590519b78df9f1" target="_top" xlink:title="Sends the time to be set to the lock via BLE.">
<polygon fill="white" stroke="#666666" points="150,-56 19,-56 19,-37 150,-37 150,-56"/>
<text text-anchor="middle" x="84.5" y="-44" font-family="Helvetica,sans-Serif" font-size="10.00">Nuki::NukiBle::updateTime</text>
</a>
</g>
</g>
<!-- Node2&#45;&gt;Node13 -->
<g id="edge12" class="edge">
<title>Node2&#45;&gt;Node13</title>
<path fill="none" stroke="#63b8ff" d="M206.51,-230.98C205.99,-230.5 205.49,-230.01 205,-229.5 153.18,-175.8 221.57,-118.47 169,-65.5 163.66,-60.12 157.13,-56.13 150.1,-53.18"/>
<polygon fill="#63b8ff" stroke="#63b8ff" points="204.34,-233.74 214.49,-236.78 208.45,-228.07 204.34,-233.74"/>
</g>
<!-- Node14 -->
<g id="node14" class="node">
<title>Node14</title>
<g id="a_node14"><a xlink:href="class_nuki_1_1_nuki_ble.html#a2c962e2c69d9063972790109704dd233" target="_top" xlink:title="Send the verify pincode command via BLE to the lock. This command uses the earlier by saveSecurityPin...">
<polygon fill="white" stroke="#666666" points="161,-19 8,-19 8,0 161,0 161,-19"/>
<text text-anchor="middle" x="84.5" y="-7" font-family="Helvetica,sans-Serif" font-size="10.00">Nuki::NukiBle::verifySecurityPin</text>
</a>
</g>
</g>
<!-- Node2&#45;&gt;Node14 -->
<g id="edge13" class="edge">
<title>Node2&#45;&gt;Node14</title>
<path fill="none" stroke="#63b8ff" d="M206.14,-230.68C205.75,-230.3 205.37,-229.9 205,-229.5 143.26,-162.98 231.66,-94.15 169,-28.5 165.51,-24.84 161.47,-21.82 157.1,-19.33"/>
<polygon fill="#63b8ff" stroke="#63b8ff" points="203.97,-233.42 214.04,-236.7 208.21,-227.85 203.97,-233.42"/>
</g>
</g>
</svg>
        <g id="navigator" transform="translate(0 0)" fill="#404254">
                <rect fill="#f2f5e9" fill-opacity="0.5" stroke="#606060" stroke-width=".5" x="0" y="0" width="60" height="60"/>
                <use id="zoomplus" xlink:href="#zoomPlus" x="17" y="9" onmousedown="handleZoom(evt,'in')"/>
                <use id="zoomminus" xlink:href="#zoomMin" x="42" y="9" onmousedown="handleZoom(evt,'out')"/>
                <use id="reset" xlink:href="#resetDef" x="30" y="36" onmousedown="handleReset()"/>
                <g id="arrowUp" xlink:href="#dirArrow" transform="translate(30 24)" onmousedown="handlePan(0,-1)">
                  <use xlink:href="#rim" fill="#404040">
                        <set attributeName="fill" to="#808080" begin="arrowUp.mouseover" end="arrowUp.mouseout"/>
                  </use>
                  <path fill="none" stroke="white" stroke-width="1.5" d="M0,-3.0v7 M-2.5,-0.5L0,-3.0L2.5,-0.5"/>
                </g>
                <g id="arrowRight" xlink:href="#dirArrow" transform="rotate(90) translate(36 -43)" onmousedown="handlePan(1,0)">
                  <use xlink:href="#rim" fill="#404040">
                        <set attributeName="fill" to="#808080" begin="arrowRight.mouseover" end="arrowRight.mouseout"/>
                  </use>
                  <path fill="none" stroke="white" stroke-width="1.5" d="M0,-3.0v7 M-2.5,-0.5L0,-3.0L2.5,-0.5"/>
                </g>
                <g id="arrowDown" xlink:href="#dirArrow" transform="rotate(180) translate(-30 -48)" onmousedown="handlePan(0,1)">
                  <use xlink:href="#rim" fill="#404040">
                        <set attributeName="fill" to="#808080" begin="arrowDown.mouseover" end="arrowDown.mouseout"/>
                  </use>
                  <path fill="none" stroke="white" stroke-width="1.5" d="M0,-3.0v7 M-2.5,-0.5L0,-3.0L2.5,-0.5"/>
                </g>
                <g id="arrowLeft" xlink:href="#dirArrow" transform="rotate(270) translate(-36 17)" onmousedown="handlePan(-1,0)">
                  <use xlink:href="#rim" fill="#404040">
                        <set attributeName="fill" to="#808080" begin="arrowLeft.mouseover" end="arrowLeft.mouseout"/>
                  </use>
                  <path fill="none" stroke="white" stroke-width="1.5" d="M0,-3.0v7 M-2.5,-0.5L0,-3.0L2.5,-0.5"/>
                </g>
        </g>
        <svg viewBox="0 0 15 15" width="100%" height="30px" preserveAspectRatio="xMaxYMin meet">
         <g id="arrow_out" transform="scale(0.3 0.3)">
          <a xlink:href="class_nuki_1_1_nuki_ble_aed01f10d1ffa769f0f6fadc0d06d328e_icgraph_org.svg" target="_base">
           <rect id="button" ry="5" rx="5" y="6" x="6" height="38" width="38"
                fill="#f2f5e9" fill-opacity="0.5" stroke="#606060" stroke-width="1.0"/>
           <path id="arrow"
             d="M 11.500037,31.436501 C 11.940474,20.09759 22.043105,11.32322 32.158766,21.979434 L 37.068811,17.246167 C 37.068811,17.246167 37.088388,32 37.088388,32 L 22.160133,31.978069 C 22.160133,31.978069 26.997745,27.140456 26.997745,27.140456 C 18.528582,18.264221 13.291696,25.230495 11.500037,31.436501 z"
             style="fill:#404040;"/>
          </a>
         </g>
        </svg>
</svg>
