<?xml version="1.0" encoding="UTF-8" standalone="no"?>
<!DOCTYPE svg PUBLIC "-//W3C//DTD SVG 1.1//EN"
 "http://www.w3.org/Graphics/SVG/1.1/DTD/svg11.dtd">
<!-- Generated by graphviz version 12.2.1 (20241206.2353)
 -->
<!-- Title: NukiLock::NukiLock::handleReturnMessage Pages: 1 -->
<svg width="658pt" height="311pt"
 viewBox="0.00 0.00 657.75 311.38" xmlns="http://www.w3.org/2000/svg" xmlns:xlink="http://www.w3.org/1999/xlink">
<g id="graph0" class="graph" transform="scale(1 1) rotate(0) translate(4 307.38)">
<title>NukiLock::NukiLock::handleReturnMessage</title>
<!-- Node1 -->
<g id="Node000001" class="node">
<title>Node1</title>
<g id="a_Node000001"><a xlink:title=" ">
<polygon fill="#999999" stroke="#666666" points="117.25,-155.38 0,-155.38 0,-124.88 117.25,-124.88 117.25,-155.38"/>
<text text-anchor="start" x="8" y="-141.88" font-family="Helvetica,sans-Serif" font-size="10.00">NukiLock::NukiLock</text>
<text text-anchor="middle" x="58.62" y="-130.63" font-family="Helvetica,sans-Serif" font-size="10.00">::handleReturnMessage</text>
</a>
</g>
</g>
<!-- Node2 -->
<g id="Node000002" class="node">
<title>Node2</title>
<g id="a_Node000002"><a xlink:href="class_nuki_1_1_nuki_ble.html#a6e8fca90c04249660dce6cb993eb4495" target="_top" xlink:title=" ">
<polygon fill="white" stroke="#666666" points="310.25,-303.38 153.25,-303.38 153.25,-272.88 310.25,-272.88 310.25,-303.38"/>
<text text-anchor="start" x="161.25" y="-289.88" font-family="Helvetica,sans-Serif" font-size="10.00">Nuki::NukiBle::extendDisconnect</text>
<text text-anchor="middle" x="231.75" y="-278.63" font-family="Helvetica,sans-Serif" font-size="10.00">Timeout</text>
</a>
</g>
</g>
<!-- Node1&#45;&gt;Node2 -->
<g id="edge1_Node000001_Node000002" class="edge">
<title>Node1&#45;&gt;Node2</title>
<g id="a_edge1_Node000001_Node000002"><a xlink:title=" ">
<path fill="none" stroke="#63b8ff" d="M67.44,-155.8C81.21,-181.87 112.29,-234.14 153.25,-263.13 155.31,-264.6 157.46,-265.97 159.68,-267.27"/>
<polygon fill="#63b8ff" stroke="#63b8ff" points="157.94,-270.31 168.43,-271.8 161.16,-264.09 157.94,-270.31"/>
</a>
</g>
</g>
<!-- Node3 -->
<g id="Node000003" class="node">
<title>Node3</title>
<g id="a_Node000003"><a xlink:href="class_nuki_1_1_nuki_ble.html#ac2e28f07ed0a738f73c5f77b46cdb1bb" target="_top" xlink:title=" ">
<polygon fill="white" stroke="#666666" points="300.12,-254.38 163.38,-254.38 163.38,-223.88 300.12,-223.88 300.12,-254.38"/>
<text text-anchor="start" x="171.38" y="-240.88" font-family="Helvetica,sans-Serif" font-size="10.00">Nuki::NukiBle::handleReturn</text>
<text text-anchor="middle" x="231.75" y="-229.63" font-family="Helvetica,sans-Serif" font-size="10.00">Message</text>
</a>
</g>
</g>
<!-- Node1&#45;&gt;Node3 -->
<g id="edge2_Node000001_Node000003" class="edge">
<title>Node1&#45;&gt;Node3</title>
<g id="a_edge2_Node000001_Node000003"><a xlink:title=" ">
<path fill="none" stroke="#63b8ff" d="M75.2,-155.72C92.78,-172.53 122.89,-199.03 153.25,-215.13 155.9,-216.54 158.65,-217.88 161.45,-219.15"/>
<polygon fill="#63b8ff" stroke="#63b8ff" points="159.85,-222.27 170.42,-222.89 162.54,-215.81 159.85,-222.27"/>
</a>
</g>
</g>
<!-- Node4 -->
<g id="Node000004" class="node">
<title>Node4</title>
<g id="a_Node000004"><a xlink:href="namespace_nuki_lock.html#a03e673a769ecefb4c006f70b6f00b190" target="_top" xlink:title=" ">
<polygon fill="white" stroke="#666666" points="304.62,-205.76 158.88,-205.76 158.88,-186.51 304.62,-186.51 304.62,-205.76"/>
<text text-anchor="middle" x="231.75" y="-192.26" font-family="Helvetica,sans-Serif" font-size="10.00">NukiLock::logAdvancedConfig</text>
</a>
</g>
</g>
<!-- Node1&#45;&gt;Node4 -->
<g id="edge3_Node000001_Node000004" class="edge">
<title>Node1&#45;&gt;Node4</title>
<g id="a_edge3_Node000001_Node000004"><a xlink:title=" ">
<path fill="none" stroke="#63b8ff" d="M94.27,-155.72C111.72,-163.17 133.35,-171.83 153.25,-178.13 159.01,-179.96 165.07,-181.69 171.15,-183.3"/>
<polygon fill="#63b8ff" stroke="#63b8ff" points="170.04,-186.63 180.59,-185.69 171.76,-179.84 170.04,-186.63"/>
</a>
</g>
</g>
<!-- Node6 -->
<g id="Node000006" class="node">
<title>Node6</title>
<g id="a_Node000006"><a xlink:href="namespace_nuki_lock.html#add2fab4b3c435a5bdbac6100ab0bbc42" target="_top" xlink:title=" ">
<polygon fill="white" stroke="#666666" points="299,-168.76 164.5,-168.76 164.5,-149.51 299,-149.51 299,-168.76"/>
<text text-anchor="middle" x="231.75" y="-155.26" font-family="Helvetica,sans-Serif" font-size="10.00">NukiLock::logBatteryReport</text>
</a>
</g>
</g>
<!-- Node1&#45;&gt;Node6 -->
<g id="edge5_Node000001_Node000006" class="edge">
<title>Node1&#45;&gt;Node6</title>
<g id="a_edge5_Node000001_Node000006"><a xlink:title=" ">
<path fill="none" stroke="#63b8ff" d="M117.56,-146.57C128.88,-147.82 140.91,-149.16 152.76,-150.48"/>
<polygon fill="#63b8ff" stroke="#63b8ff" points="152.19,-153.93 162.52,-151.56 152.97,-146.98 152.19,-153.93"/>
</a>
</g>
</g>
<!-- Node7 -->
<g id="Node000007" class="node">
<title>Node7</title>
<g id="a_Node000007"><a xlink:href="namespace_nuki_lock.html#ab086ceeda3d1303bb71b60d978ef3467" target="_top" xlink:title=" ">
<polygon fill="white" stroke="#666666" points="282.88,-131.76 180.62,-131.76 180.62,-112.51 282.88,-112.51 282.88,-131.76"/>
<text text-anchor="middle" x="231.75" y="-118.26" font-family="Helvetica,sans-Serif" font-size="10.00">NukiLock::logConfig</text>
</a>
</g>
</g>
<!-- Node1&#45;&gt;Node7 -->
<g id="edge7_Node000001_Node000007" class="edge">
<title>Node1&#45;&gt;Node7</title>
<g id="a_edge7_Node000001_Node000007"><a xlink:title=" ">
<path fill="none" stroke="#63b8ff" d="M117.56,-134.04C134.1,-132.3 152.19,-130.4 168.96,-128.63"/>
<polygon fill="#63b8ff" stroke="#63b8ff" points="169.23,-132.12 178.81,-127.6 168.5,-125.16 169.23,-132.12"/>
</a>
</g>
</g>
<!-- Node8 -->
<g id="Node000008" class="node">
<title>Node8</title>
<g id="a_Node000008"><a xlink:href="namespace_nuki_lock.html#ab1986f14b91343876f9fb360da901791" target="_top" xlink:title=" ">
<polygon fill="white" stroke="#666666" points="301.62,-94.76 161.88,-94.76 161.88,-75.51 301.62,-75.51 301.62,-94.76"/>
<text text-anchor="middle" x="231.75" y="-81.26" font-family="Helvetica,sans-Serif" font-size="10.00">NukiLock::logKeyturnerState</text>
</a>
</g>
</g>
<!-- Node1&#45;&gt;Node8 -->
<g id="edge9_Node000001_Node000008" class="edge">
<title>Node1&#45;&gt;Node8</title>
<g id="a_edge9_Node000001_Node000008"><a xlink:title=" ">
<path fill="none" stroke="#63b8ff" d="M95.64,-124.46C112.86,-117.33 133.9,-109.17 153.25,-103.13 159.1,-101.31 165.25,-99.58 171.42,-97.96"/>
<polygon fill="#63b8ff" stroke="#63b8ff" points="172.18,-101.38 181.03,-95.54 170.48,-94.59 172.18,-101.38"/>
</a>
</g>
</g>
<!-- Node13 -->
<g id="Node000013" class="node">
<title>Node13</title>
<g id="a_Node000013"><a xlink:href="namespace_nuki_lock.html#a6dc562c3f2e49e34b447de8ba53e64bf" target="_top" xlink:title=" ">
<polygon fill="white" stroke="#666666" points="288.5,-57.76 175,-57.76 175,-38.51 288.5,-38.51 288.5,-57.76"/>
<text text-anchor="middle" x="231.75" y="-44.26" font-family="Helvetica,sans-Serif" font-size="10.00">NukiLock::logLogEntry</text>
</a>
</g>
</g>
<!-- Node1&#45;&gt;Node13 -->
<g id="edge17_Node000001_Node000013" class="edge">
<title>Node1&#45;&gt;Node13</title>
<g id="a_edge17_Node000001_Node000013"><a xlink:title=" ">
<path fill="none" stroke="#63b8ff" d="M74.71,-124.66C92.09,-107.74 122.26,-81.05 153.25,-66.13 156.72,-64.47 160.34,-62.95 164.06,-61.57"/>
<polygon fill="#63b8ff" stroke="#63b8ff" points="164.88,-64.99 173.26,-58.51 162.66,-58.34 164.88,-64.99"/>
</a>
</g>
</g>
<!-- Node14 -->
<g id="Node000014" class="node">
<title>Node14</title>
<g id="a_Node000014"><a xlink:href="namespace_nuki.html#a438fdfcef9f81eb0a3e493631b71ca5b" target="_top" xlink:title=" ">
<polygon fill="white" stroke="#666666" points="274.25,-20.76 189.25,-20.76 189.25,-1.51 274.25,-1.51 274.25,-20.76"/>
<text text-anchor="middle" x="231.75" y="-7.26" font-family="Helvetica,sans-Serif" font-size="10.00">Nuki::printBuffer</text>
</a>
</g>
</g>
<!-- Node1&#45;&gt;Node14 -->
<g id="edge23_Node000001_Node000014" class="edge">
<title>Node1&#45;&gt;Node14</title>
<g id="a_edge23_Node000001_Node000014"><a xlink:title=" ">
<path fill="none" stroke="#63b8ff" d="M68.29,-124.48C82.63,-100.1 113.68,-53.35 153.25,-29.13 160.79,-24.52 169.4,-21.09 178.08,-18.54"/>
<polygon fill="#63b8ff" stroke="#63b8ff" points="178.73,-21.98 187.56,-16.12 177.01,-15.2 178.73,-21.98"/>
</a>
</g>
</g>
<!-- Node5 -->
<g id="Node000005" class="node">
<title>Node5</title>
<g id="a_Node000005"><a xlink:href="namespace_nuki_lock.html#af6ebff0f8c6c0cb27a927a440812c02a" target="_top" xlink:title=" ">
<polygon fill="white" stroke="#666666" points="487.5,-150.76 357.5,-150.76 357.5,-131.51 487.5,-131.51 487.5,-150.76"/>
<text text-anchor="middle" x="422.5" y="-137.26" font-family="Helvetica,sans-Serif" font-size="10.00">NukiLock::logMessageVar</text>
</a>
</g>
</g>
<!-- Node4&#45;&gt;Node5 -->
<g id="edge4_Node000004_Node000005" class="edge">
<title>Node4&#45;&gt;Node5</title>
<g id="a_edge4_Node000004_Node000005"><a xlink:title=" ">
<path fill="none" stroke="#63b8ff" d="M279.24,-186.08C289.5,-183.65 300.28,-180.94 310.25,-178.13 334.77,-171.22 361.92,-162.23 383.25,-154.83"/>
<polygon fill="#63b8ff" stroke="#63b8ff" points="384.12,-158.24 392.4,-151.63 381.81,-151.63 384.12,-158.24"/>
</a>
</g>
</g>
<!-- Node6&#45;&gt;Node5 -->
<g id="edge6_Node000006_Node000005" class="edge">
<title>Node6&#45;&gt;Node5</title>
<g id="a_edge6_Node000006_Node000005"><a xlink:title=" ">
<path fill="none" stroke="#63b8ff" d="M299.3,-152.79C314.41,-151.35 330.58,-149.81 346.03,-148.33"/>
<polygon fill="#63b8ff" stroke="#63b8ff" points="346.01,-151.85 355.63,-147.42 345.35,-144.88 346.01,-151.85"/>
</a>
</g>
</g>
<!-- Node7&#45;&gt;Node5 -->
<g id="edge8_Node000007_Node000005" class="edge">
<title>Node7&#45;&gt;Node5</title>
<g id="a_edge8_Node000007_Node000005"><a xlink:title=" ">
<path fill="none" stroke="#63b8ff" d="M283.33,-127.23C302.58,-129.16 324.96,-131.42 346.03,-133.54"/>
<polygon fill="#63b8ff" stroke="#63b8ff" points="345.43,-137 355.73,-134.51 346.13,-130.03 345.43,-137"/>
</a>
</g>
</g>
<!-- Node8&#45;&gt;Node5 -->
<g id="edge14_Node000008_Node000005" class="edge">
<title>Node8&#45;&gt;Node5</title>
<g id="a_edge14_Node000008_Node000005"><a xlink:title=" ">
<path fill="none" stroke="#63b8ff" d="M285.05,-95.18C293.59,-97.41 302.26,-100.06 310.25,-103.13 327.33,-109.71 329.19,-116.5 346.25,-123.13 350.81,-124.91 355.6,-126.54 360.45,-128.04"/>
<polygon fill="#63b8ff" stroke="#63b8ff" points="359.1,-131.29 369.67,-130.68 361.02,-124.56 359.1,-131.29"/>
</a>
</g>
</g>
<!-- Node9 -->
<g id="Node000009" class="node">
<title>Node9</title>
<g id="a_Node000009"><a xlink:href="namespace_nuki_lock.html#ac4d82a0f8f0d3ae3fe2a00c9d442cab0" target="_top" xlink:title=" ">
<polygon fill="white" stroke="#666666" points="498.75,-76.76 346.25,-76.76 346.25,-57.51 498.75,-57.51 498.75,-76.76"/>
<text text-anchor="middle" x="422.5" y="-63.26" font-family="Helvetica,sans-Serif" font-size="10.00">NukiLock::logCompletionStatus</text>
</a>
</g>
</g>
<!-- Node8&#45;&gt;Node9 -->
<g id="edge10_Node000008_Node000009" class="edge">
<title>Node8&#45;&gt;Node9</title>
<g id="a_edge10_Node000008_Node000009"><a xlink:title=" ">
<path fill="none" stroke="#63b8ff" d="M301.96,-78.53C312.58,-77.52 323.66,-76.47 334.6,-75.42"/>
<polygon fill="#63b8ff" stroke="#63b8ff" points="334.81,-78.92 344.43,-74.48 334.14,-71.95 334.81,-78.92"/>
</a>
</g>
</g>
<!-- Node11 -->
<g id="Node000011" class="node">
<title>Node11</title>
<g id="a_Node000011"><a xlink:href="namespace_nuki_lock.html#a031da7ab93a6a69e0e16dd7f5426ffaf" target="_top" xlink:title=" ">
<polygon fill="white" stroke="#666666" points="484.88,-39.76 360.12,-39.76 360.12,-20.51 484.88,-20.51 484.88,-39.76"/>
<text text-anchor="middle" x="422.5" y="-26.26" font-family="Helvetica,sans-Serif" font-size="10.00">NukiLock::logLockAction</text>
</a>
</g>
</g>
<!-- Node8&#45;&gt;Node11 -->
<g id="edge12_Node000008_Node000011" class="edge">
<title>Node8&#45;&gt;Node11</title>
<g id="a_edge12_Node000008_Node000011"><a xlink:title=" ">
<path fill="none" stroke="#63b8ff" d="M284.58,-75.05C293.26,-72.81 302.1,-70.18 310.25,-67.13 327.2,-60.81 329.32,-54.51 346.25,-48.13 350.9,-46.38 355.78,-44.76 360.72,-43.27"/>
<polygon fill="#63b8ff" stroke="#63b8ff" points="361.45,-46.7 370.13,-40.62 359.55,-39.96 361.45,-46.7"/>
</a>
</g>
</g>
<!-- Node12 -->
<g id="Node000012" class="node">
<title>Node12</title>
<g id="a_Node000012"><a xlink:href="namespace_nuki_lock.html#a7d68c58293514d39207ee29f239b897c" target="_top" xlink:title=" ">
<polygon fill="white" stroke="#666666" points="485.25,-113.76 359.75,-113.76 359.75,-94.51 485.25,-94.51 485.25,-113.76"/>
<text text-anchor="middle" x="422.5" y="-100.26" font-family="Helvetica,sans-Serif" font-size="10.00">NukiLock::logNukiTrigger</text>
</a>
</g>
</g>
<!-- Node8&#45;&gt;Node12 -->
<g id="edge15_Node000008_Node000012" class="edge">
<title>Node8&#45;&gt;Node12</title>
<g id="a_edge15_Node000008_Node000012"><a xlink:title=" ">
<path fill="none" stroke="#63b8ff" d="M301.96,-92.1C316.97,-93.61 332.89,-95.22 348.06,-96.74"/>
<polygon fill="#63b8ff" stroke="#63b8ff" points="347.67,-100.22 357.97,-97.74 348.37,-93.26 347.67,-100.22"/>
</a>
</g>
</g>
<!-- Node10 -->
<g id="Node000010" class="node">
<title>Node10</title>
<g id="a_Node000010"><a xlink:href="namespace_nuki_lock.html#a1c4b22e22d81b2258bb6f2ce1e1f7d6f" target="_top" xlink:title=" ">
<polygon fill="white" stroke="#666666" points="649.75,-57.76 534.75,-57.76 534.75,-38.51 649.75,-38.51 649.75,-57.76"/>
<text text-anchor="middle" x="592.25" y="-44.26" font-family="Helvetica,sans-Serif" font-size="10.00">NukiLock::logMessage</text>
</a>
</g>
</g>
<!-- Node9&#45;&gt;Node10 -->
<g id="edge11_Node000009_Node000010" class="edge">
<title>Node9&#45;&gt;Node10</title>
<g id="a_edge11_Node000009_Node000010"><a xlink:title=" ">
<path fill="none" stroke="#63b8ff" d="M499.03,-58.58C507.19,-57.66 515.45,-56.72 523.51,-55.81"/>
<polygon fill="#63b8ff" stroke="#63b8ff" points="523.68,-59.31 533.23,-54.71 522.9,-52.35 523.68,-59.31"/>
</a>
</g>
</g>
<!-- Node11&#45;&gt;Node10 -->
<g id="edge13_Node000011_Node000010" class="edge">
<title>Node11&#45;&gt;Node10</title>
<g id="a_edge13_Node000011_Node000010"><a xlink:title=" ">
<path fill="none" stroke="#63b8ff" d="M485.01,-36.74C497.4,-38.06 510.48,-39.47 523.08,-40.82"/>
<polygon fill="#63b8ff" stroke="#63b8ff" points="522.66,-44.29 532.97,-41.88 523.4,-37.33 522.66,-44.29"/>
</a>
</g>
</g>
<!-- Node12&#45;&gt;Node10 -->
<g id="edge16_Node000012_Node000010" class="edge">
<title>Node12&#45;&gt;Node10</title>
<g id="a_edge16_Node000012_Node000010"><a xlink:title=" ">
<path fill="none" stroke="#63b8ff" d="M470.78,-94.01C480.12,-91.68 489.8,-89.02 498.75,-86.13 519.27,-79.51 541.66,-70.37 559.27,-62.71"/>
<polygon fill="#63b8ff" stroke="#63b8ff" points="560.43,-66.02 568.17,-58.78 557.61,-59.62 560.43,-66.02"/>
</a>
</g>
</g>
<!-- Node13&#45;&gt;Node5 -->
<g id="edge21_Node000013_Node000005" class="edge">
<title>Node13&#45;&gt;Node5</title>
<g id="a_edge21_Node000013_Node000005"><a xlink:title=" ">
<path fill="none" stroke="#63b8ff" d="M288.8,-55.59C296.43,-58.15 303.83,-61.57 310.25,-66.13 334.67,-83.49 321.88,-105.7 346.25,-123.13 347.79,-124.24 349.39,-125.27 351.03,-126.24"/>
<polygon fill="#63b8ff" stroke="#63b8ff" points="349.03,-129.16 359.54,-130.48 352.15,-122.89 349.03,-129.16"/>
</a>
</g>
</g>
<!-- Node13&#45;&gt;Node9 -->
<g id="edge18_Node000013_Node000009" class="edge">
<title>Node13&#45;&gt;Node9</title>
<g id="a_edge18_Node000013_Node000009"><a xlink:title=" ">
<path fill="none" stroke="#63b8ff" d="M288.87,-53.78C303.3,-55.24 319.16,-56.83 334.75,-58.4"/>
<polygon fill="#63b8ff" stroke="#63b8ff" points="334.22,-61.87 344.52,-59.39 334.92,-54.9 334.22,-61.87"/>
</a>
</g>
</g>
<!-- Node13&#45;&gt;Node10 -->
<g id="edge20_Node000013_Node000010" class="edge">
<title>Node13&#45;&gt;Node10</title>
<g id="a_edge20_Node000013_Node000010"><a xlink:title=" ">
<path fill="none" stroke="#63b8ff" d="M284.58,-38.05C293.26,-35.81 302.1,-33.18 310.25,-30.13 327.2,-23.81 328.69,-15.48 346.25,-11.13 412.04,5.16 432.2,1.68 498.75,-11.13 520.83,-15.39 544.34,-24.86 562.14,-33.16"/>
<polygon fill="#63b8ff" stroke="#63b8ff" points="560.52,-36.27 571.05,-37.46 563.56,-29.96 560.52,-36.27"/>
</a>
</g>
</g>
<!-- Node13&#45;&gt;Node11 -->
<g id="edge19_Node000013_Node000011" class="edge">
<title>Node13&#45;&gt;Node11</title>
<g id="a_edge19_Node000013_Node000011"><a xlink:title=" ">
<path fill="none" stroke="#63b8ff" d="M288.87,-42.78C307.49,-41.01 328.51,-39 348.23,-37.12"/>
<polygon fill="#63b8ff" stroke="#63b8ff" points="348.53,-40.61 358.15,-36.18 347.86,-33.64 348.53,-40.61"/>
</a>
</g>
</g>
<!-- Node13&#45;&gt;Node12 -->
<g id="edge22_Node000013_Node000012" class="edge">
<title>Node13&#45;&gt;Node12</title>
<g id="a_edge22_Node000013_Node000012"><a xlink:title=" ">
<path fill="none" stroke="#63b8ff" d="M285.05,-58.18C293.59,-60.41 302.26,-63.06 310.25,-66.13 327.33,-72.71 329.19,-79.5 346.25,-86.13 350.81,-87.91 355.6,-89.54 360.45,-91.04"/>
<polygon fill="#63b8ff" stroke="#63b8ff" points="359.1,-94.29 369.67,-93.68 361.02,-87.56 359.1,-94.29"/>
</a>
</g>
</g>
</g>
</svg>
