<?xml version="1.0" encoding="UTF-8" standalone="no"?>
<!DOCTYPE svg PUBLIC "-//W3C//DTD SVG 1.1//EN"
 "http://www.w3.org/Graphics/SVG/1.1/DTD/svg11.dtd">
<!-- Generated by graphviz version 12.2.1 (20241206.2353)
 -->
<!-- Title: NukiLock::NukiLock::setAdvertisingMode Pages: 1 -->
<svg width="820pt" height="263pt"
 viewBox="0.00 0.00 820.00 263.03" xmlns="http://www.w3.org/2000/svg" xmlns:xlink="http://www.w3.org/1999/xlink">
<g id="graph0" class="graph" transform="scale(1 1) rotate(0) translate(4 259.03)">
<title>NukiLock::NukiLock::setAdvertisingMode</title>
<!-- Node1 -->
<g id="Node000001" class="node">
<title>Node1</title>
<g id="a_Node000001"><a xlink:title="Gets the current config from the lock, updates the advertising frequency parameter and sends the new ...">
<polygon fill="#999999" stroke="#666666" points="106.75,-148.88 0,-148.88 0,-118.38 106.75,-118.38 106.75,-148.88"/>
<text text-anchor="start" x="8" y="-135.38" font-family="Helvetica,sans-Serif" font-size="10.00">NukiLock::NukiLock</text>
<text text-anchor="middle" x="53.38" y="-124.12" font-family="Helvetica,sans-Serif" font-size="10.00">::setAdvertisingMode</text>
</a>
</g>
</g>
<!-- Node2 -->
<g id="Node000002" class="node">
<title>Node2</title>
<g id="a_Node000002"><a xlink:href="class_nuki_lock_1_1_nuki_lock.html#ada503f36c737418195f48743658ed372" target="_top" xlink:title="Requests config from Lock via BLE.">
<polygon fill="white" stroke="#666666" points="247.25,-148.88 142.75,-148.88 142.75,-118.38 247.25,-118.38 247.25,-148.88"/>
<text text-anchor="start" x="150.75" y="-135.38" font-family="Helvetica,sans-Serif" font-size="10.00">NukiLock::NukiLock</text>
<text text-anchor="middle" x="195" y="-124.12" font-family="Helvetica,sans-Serif" font-size="10.00">::requestConfig</text>
</a>
</g>
</g>
<!-- Node1&#45;&gt;Node2 -->
<g id="edge1_Node000001_Node000002" class="edge">
<title>Node1&#45;&gt;Node2</title>
<g id="a_edge1_Node000001_Node000002"><a xlink:title=" ">
<path fill="none" stroke="#63b8ff" d="M107.16,-133.62C115.03,-133.62 123.22,-133.62 131.27,-133.62"/>
<polygon fill="#63b8ff" stroke="#63b8ff" points="131.01,-137.13 141.01,-133.63 131.01,-130.13 131.01,-137.13"/>
</a>
</g>
</g>
<!-- Node3 -->
<g id="Node000003" class="node">
<title>Node3</title>
<g id="a_Node000003"><a xlink:href="class_nuki_1_1_nuki_ble.html#af1f1e299e8d97e053bba80e92ba285d6" target="_top" xlink:title=" ">
<polygon fill="white" stroke="#666666" points="424.5,-143.25 283.25,-143.25 283.25,-124 424.5,-124 424.5,-143.25"/>
<text text-anchor="middle" x="353.88" y="-129.75" font-family="Helvetica,sans-Serif" font-size="10.00">Nuki::NukiBle::executeAction</text>
</a>
</g>
</g>
<!-- Node2&#45;&gt;Node3 -->
<g id="edge2_Node000002_Node000003" class="edge">
<title>Node2&#45;&gt;Node3</title>
<g id="a_edge2_Node000002_Node000003"><a xlink:title=" ">
<path fill="none" stroke="#63b8ff" d="M247.37,-133.62C255.17,-133.62 263.38,-133.62 271.63,-133.62"/>
<polygon fill="#63b8ff" stroke="#63b8ff" points="271.36,-137.13 281.36,-133.63 271.36,-130.13 271.36,-137.13"/>
</a>
</g>
</g>
<!-- Node4 -->
<g id="Node000004" class="node">
<title>Node4</title>
<g id="a_Node000004"><a xlink:href="class_nuki_1_1_nuki_ble.html#ada0f3beebd95d35c122e25dd3f9eb886" target="_top" xlink:title=" ">
<polygon fill="white" stroke="#666666" points="608.5,-191.88 471,-191.88 471,-161.38 608.5,-161.38 608.5,-191.88"/>
<text text-anchor="start" x="479" y="-178.38" font-family="Helvetica,sans-Serif" font-size="10.00">Nuki::NukiBle::cmdChallAcc</text>
<text text-anchor="middle" x="539.75" y="-167.12" font-family="Helvetica,sans-Serif" font-size="10.00">StateMachine</text>
</a>
</g>
</g>
<!-- Node3&#45;&gt;Node4 -->
<g id="edge3_Node000003_Node000004" class="edge">
<title>Node3&#45;&gt;Node4</title>
<g id="a_edge3_Node000003_Node000004"><a xlink:title=" ">
<path fill="none" stroke="#63b8ff" d="M397.99,-143.71C416.61,-148.06 438.99,-153.3 460.38,-158.3"/>
<polygon fill="#63b8ff" stroke="#63b8ff" points="459.43,-161.67 469.97,-160.54 461.03,-154.85 459.43,-161.67"/>
</a>
</g>
</g>
<!-- Node5 -->
<g id="Node000005" class="node">
<title>Node5</title>
<g id="a_Node000005"><a xlink:href="class_nuki_1_1_nuki_ble.html#a6e8fca90c04249660dce6cb993eb4495" target="_top" xlink:title=" ">
<polygon fill="white" stroke="#666666" points="812,-189.88 655,-189.88 655,-159.38 812,-159.38 812,-189.88"/>
<text text-anchor="start" x="663" y="-176.38" font-family="Helvetica,sans-Serif" font-size="10.00">Nuki::NukiBle::extendDisconnect</text>
<text text-anchor="middle" x="733.5" y="-165.12" font-family="Helvetica,sans-Serif" font-size="10.00">Timeout</text>
</a>
</g>
</g>
<!-- Node3&#45;&gt;Node5 -->
<g id="edge16_Node000003_Node000005" class="edge">
<title>Node3&#45;&gt;Node5</title>
<g id="a_edge16_Node000003_Node000005"><a xlink:title=" ">
<path fill="none" stroke="#63b8ff" d="M424.9,-136.38C478.27,-139.03 553.48,-143.95 619,-152.62 628.15,-153.84 637.68,-155.32 647.15,-156.95"/>
<polygon fill="#63b8ff" stroke="#63b8ff" points="646.28,-160.35 656.73,-158.64 647.5,-153.45 646.28,-160.35"/>
</a>
</g>
</g>
<!-- Node6 -->
<g id="Node000006" class="node">
<title>Node6</title>
<g id="a_Node000006"><a xlink:href="class_nuki_1_1_nuki_ble.html#ac7ce691d9c3e586474655d1663eb2e20" target="_top" xlink:title=" ">
<polygon fill="white" stroke="#666666" points="799.62,-228.25 667.38,-228.25 667.38,-209 799.62,-209 799.62,-228.25"/>
<text text-anchor="middle" x="733.5" y="-214.75" font-family="Helvetica,sans-Serif" font-size="10.00">Nuki::NukiBle::logMessage</text>
</a>
</g>
</g>
<!-- Node3&#45;&gt;Node6 -->
<g id="edge18_Node000003_Node000006" class="edge">
<title>Node3&#45;&gt;Node6</title>
<g id="a_edge18_Node000003_Node000006"><a xlink:title=" ">
<path fill="none" stroke="#63b8ff" d="M360.96,-143.67C375.12,-165.91 412.69,-218.91 460.5,-238.62 538.35,-270.74 639.31,-248.58 693.7,-232.06"/>
<polygon fill="#63b8ff" stroke="#63b8ff" points="694.64,-235.43 703.13,-229.09 692.54,-228.75 694.64,-235.43"/>
</a>
</g>
</g>
<!-- Node7 -->
<g id="Node000007" class="node">
<title>Node7</title>
<g id="a_Node000007"><a xlink:href="class_nuki_1_1_nuki_ble.html#af3650133f46aeca48a5f01b95d23ab71" target="_top" xlink:title=" ">
<polygon fill="white" stroke="#666666" points="807.12,-140.25 659.88,-140.25 659.88,-121 807.12,-121 807.12,-140.25"/>
<text text-anchor="middle" x="733.5" y="-126.75" font-family="Helvetica,sans-Serif" font-size="10.00">Nuki::NukiBle::logMessageVar</text>
</a>
</g>
</g>
<!-- Node3&#45;&gt;Node7 -->
<g id="edge19_Node000003_Node000007" class="edge">
<title>Node3&#45;&gt;Node7</title>
<g id="a_edge19_Node000003_Node000007"><a xlink:title=" ">
<path fill="none" stroke="#63b8ff" d="M365.84,-123.61C383.94,-107.83 421.92,-77.83 460.5,-66.62 528.15,-46.98 555.17,-36.82 619,-66.62 641.58,-77.17 634.01,-96.19 655,-109.62 659.03,-112.2 663.37,-114.47 667.87,-116.46"/>
<polygon fill="#63b8ff" stroke="#63b8ff" points="666.57,-119.71 677.16,-120.06 669.11,-113.18 666.57,-119.71"/>
</a>
</g>
</g>
<!-- Node8 -->
<g id="Node000008" class="node">
<title>Node8</title>
<g id="a_Node000008"><a xlink:href="class_nuki_1_1_nuki_ble.html#a59169a9f492793762e3c6ba39b611b07" target="_top" xlink:title=" ">
<polygon fill="white" stroke="#666666" points="611.5,-105.88 468,-105.88 468,-75.38 611.5,-75.38 611.5,-105.88"/>
<text text-anchor="start" x="476" y="-92.38" font-family="Helvetica,sans-Serif" font-size="10.00">Nuki::NukiBle::cmdChallState</text>
<text text-anchor="middle" x="539.75" y="-81.12" font-family="Helvetica,sans-Serif" font-size="10.00">Machine</text>
</a>
</g>
</g>
<!-- Node3&#45;&gt;Node8 -->
<g id="edge7_Node000003_Node000008" class="edge">
<title>Node3&#45;&gt;Node8</title>
<g id="a_edge7_Node000003_Node000008"><a xlink:title=" ">
<path fill="none" stroke="#63b8ff" d="M397.99,-123.54C416.61,-119.19 438.99,-113.95 460.38,-108.95"/>
<polygon fill="#63b8ff" stroke="#63b8ff" points="461.03,-112.4 469.97,-106.71 459.43,-105.58 461.03,-112.4"/>
</a>
</g>
</g>
<!-- Node10 -->
<g id="Node000010" class="node">
<title>Node10</title>
<g id="a_Node000010"><a xlink:href="class_nuki_1_1_nuki_ble.html#ad135bb1455665decfddff67772c1d411" target="_top" xlink:title=" ">
<polygon fill="white" stroke="#666666" points="619,-229.25 460.5,-229.25 460.5,-210 619,-210 619,-229.25"/>
<text text-anchor="middle" x="539.75" y="-215.75" font-family="Helvetica,sans-Serif" font-size="10.00">Nuki::NukiBle::cmdStateMachine</text>
</a>
</g>
</g>
<!-- Node3&#45;&gt;Node10 -->
<g id="edge12_Node000003_Node000010" class="edge">
<title>Node3&#45;&gt;Node10</title>
<g id="a_edge12_Node000003_Node000010"><a xlink:title=" ">
<path fill="none" stroke="#63b8ff" d="M367.45,-143.55C386.5,-158.13 424.32,-185.26 460.5,-200.62 465.47,-202.73 470.71,-204.64 476.04,-206.35"/>
<polygon fill="#63b8ff" stroke="#63b8ff" points="475.01,-209.7 485.59,-209.18 476.99,-202.99 475.01,-209.7"/>
</a>
</g>
</g>
<!-- Node11 -->
<g id="Node000011" class="node">
<title>Node11</title>
<g id="a_Node000011"><a xlink:href="class_nuki_1_1_nuki_ble.html#a050f54fbfcea03dc5238e8c66a7e89ca" target="_top" xlink:title="Returns pairing state (if credentials are stored or not)">
<polygon fill="white" stroke="#666666" points="617.88,-19.25 461.62,-19.25 461.62,0 617.88,0 617.88,-19.25"/>
<text text-anchor="middle" x="539.75" y="-5.75" font-family="Helvetica,sans-Serif" font-size="10.00">Nuki::NukiBle::isPairedWithLock</text>
</a>
</g>
</g>
<!-- Node3&#45;&gt;Node11 -->
<g id="edge17_Node000003_Node000011" class="edge">
<title>Node3&#45;&gt;Node11</title>
<g id="a_edge17_Node000003_Node000011"><a xlink:title=" ">
<path fill="none" stroke="#63b8ff" d="M362.76,-123.52C378.94,-103.47 417.96,-58.43 460.5,-33.62 467.34,-29.64 474.91,-26.25 482.57,-23.38"/>
<polygon fill="#63b8ff" stroke="#63b8ff" points="483.63,-26.72 491.96,-20.17 481.37,-20.1 483.63,-26.72"/>
</a>
</g>
</g>
<!-- Node4&#45;&gt;Node5 -->
<g id="edge4_Node000004_Node000005" class="edge">
<title>Node4&#45;&gt;Node5</title>
<g id="a_edge4_Node000004_Node000005"><a xlink:title=" ">
<path fill="none" stroke="#63b8ff" d="M608.89,-175.91C620.04,-175.8 631.72,-175.68 643.28,-175.56"/>
<polygon fill="#63b8ff" stroke="#63b8ff" points="643.3,-179.06 653.26,-175.45 643.22,-172.06 643.3,-179.06"/>
</a>
</g>
</g>
<!-- Node4&#45;&gt;Node6 -->
<g id="edge5_Node000004_Node000006" class="edge">
<title>Node4&#45;&gt;Node6</title>
<g id="a_edge5_Node000004_Node000006"><a xlink:title=" ">
<path fill="none" stroke="#63b8ff" d="M608.89,-191.55C630.7,-196.33 654.6,-201.56 675.53,-206.15"/>
<polygon fill="#63b8ff" stroke="#63b8ff" points="674.5,-209.5 685.01,-208.22 675.99,-202.67 674.5,-209.5"/>
</a>
</g>
</g>
<!-- Node4&#45;&gt;Node7 -->
<g id="edge6_Node000004_Node000007" class="edge">
<title>Node4&#45;&gt;Node7</title>
<g id="a_edge6_Node000004_Node000007"><a xlink:title=" ">
<path fill="none" stroke="#63b8ff" d="M606.2,-160.92C630.06,-155.2 656.71,-148.81 679.36,-143.37"/>
<polygon fill="#63b8ff" stroke="#63b8ff" points="680.09,-146.8 689,-141.06 678.46,-139.99 680.09,-146.8"/>
</a>
</g>
</g>
<!-- Node8&#45;&gt;Node5 -->
<g id="edge8_Node000008_Node000005" class="edge">
<title>Node8&#45;&gt;Node5</title>
<g id="a_edge8_Node000008_Node000005"><a xlink:title=" ">
<path fill="none" stroke="#63b8ff" d="M590.75,-106.26C600.4,-110.07 610.22,-114.54 619,-119.62 637.02,-130.06 636.76,-139.58 655,-149.62 658.16,-151.36 661.46,-153 664.83,-154.55"/>
<polygon fill="#63b8ff" stroke="#63b8ff" points="663.18,-157.65 673.76,-158.31 665.9,-151.2 663.18,-157.65"/>
</a>
</g>
</g>
<!-- Node8&#45;&gt;Node6 -->
<g id="edge10_Node000008_Node000006" class="edge">
<title>Node8&#45;&gt;Node6</title>
<g id="a_edge10_Node000008_Node000006"><a xlink:title=" ">
<path fill="none" stroke="#63b8ff" d="M563.16,-106.17C579.47,-118 601.65,-135.17 619,-152.62 637.3,-171.04 633.28,-184.41 655,-198.62 658.24,-200.74 661.69,-202.64 665.26,-204.33"/>
<polygon fill="#63b8ff" stroke="#63b8ff" points="663.64,-207.45 674.22,-208.02 666.3,-200.98 663.64,-207.45"/>
</a>
</g>
</g>
<!-- Node8&#45;&gt;Node7 -->
<g id="edge11_Node000008_Node000007" class="edge">
<title>Node8&#45;&gt;Node7</title>
<g id="a_edge11_Node000008_Node000007"><a xlink:title=" ">
<path fill="none" stroke="#63b8ff" d="M611.88,-105.46C632.01,-109.66 653.71,-114.19 673.08,-118.23"/>
<polygon fill="#63b8ff" stroke="#63b8ff" points="672.2,-121.62 682.7,-120.24 673.63,-114.77 672.2,-121.62"/>
</a>
</g>
</g>
<!-- Node9 -->
<g id="Node000009" class="node">
<title>Node9</title>
<g id="a_Node000009"><a xlink:href="class_nuki_1_1_nuki_ble.html#a25207bb564a4b54b8dd8c872177b53a7" target="_top" xlink:title="Returns if BLE is pairing/paired/connected with a Smart Lock Ultra.">
<polygon fill="white" stroke="#666666" points="798.5,-100.25 668.5,-100.25 668.5,-81 798.5,-81 798.5,-100.25"/>
<text text-anchor="middle" x="733.5" y="-86.75" font-family="Helvetica,sans-Serif" font-size="10.00">Nuki::NukiBle::isLockUltra</text>
</a>
</g>
</g>
<!-- Node8&#45;&gt;Node9 -->
<g id="edge9_Node000008_Node000009" class="edge">
<title>Node8&#45;&gt;Node9</title>
<g id="a_edge9_Node000008_Node000009"><a xlink:title=" ">
<path fill="none" stroke="#63b8ff" d="M611.88,-90.62C626.57,-90.62 642.1,-90.62 656.94,-90.62"/>
<polygon fill="#63b8ff" stroke="#63b8ff" points="656.62,-94.13 666.62,-90.63 656.62,-87.13 656.62,-94.13"/>
</a>
</g>
</g>
<!-- Node10&#45;&gt;Node5 -->
<g id="edge13_Node000010_Node000005" class="edge">
<title>Node10&#45;&gt;Node5</title>
<g id="a_edge13_Node000010_Node000005"><a xlink:title=" ">
<path fill="none" stroke="#63b8ff" d="M583.78,-209.53C604.66,-204.63 630.39,-198.59 654.55,-192.92"/>
<polygon fill="#63b8ff" stroke="#63b8ff" points="655.11,-196.38 664.04,-190.69 653.51,-189.57 655.11,-196.38"/>
</a>
</g>
</g>
<!-- Node10&#45;&gt;Node6 -->
<g id="edge14_Node000010_Node000006" class="edge">
<title>Node10&#45;&gt;Node6</title>
<g id="a_edge14_Node000010_Node000006"><a xlink:title=" ">
<path fill="none" stroke="#63b8ff" d="M619.3,-219.22C631.29,-219.15 643.65,-219.09 655.61,-219.03"/>
<polygon fill="#63b8ff" stroke="#63b8ff" points="655.43,-222.53 665.41,-218.97 655.39,-215.53 655.43,-222.53"/>
</a>
</g>
</g>
<!-- Node10&#45;&gt;Node7 -->
<g id="edge15_Node000010_Node000007" class="edge">
<title>Node10&#45;&gt;Node7</title>
<g id="a_edge15_Node000010_Node000007"><a xlink:title=" ">
<path fill="none" stroke="#63b8ff" d="M601.16,-209.65C607.46,-207.26 613.55,-204.29 619,-200.62 641.72,-185.33 632.39,-166.08 655,-150.62 657.89,-148.65 660.96,-146.87 664.15,-145.27"/>
<polygon fill="#63b8ff" stroke="#63b8ff" points="665.48,-148.5 673.27,-141.32 662.7,-142.08 665.48,-148.5"/>
</a>
</g>
</g>
</g>
</svg>
