<?xml version="1.0" encoding="UTF-8" standalone="no"?>
<!DOCTYPE svg PUBLIC "-//W3C//DTD SVG 1.1//EN"
 "http://www.w3.org/Graphics/SVG/1.1/DTD/svg11.dtd">
<!-- Generated by graphviz version 5.0.1 (20220820.1526)
 -->
<!-- Title: Nuki::NukiBle::executeAction Pages: 1 -->
<svg width="355pt" height="514pt"
 viewBox="0.00 0.00 355.00 513.50" xmlns="http://www.w3.org/2000/svg" xmlns:xlink="http://www.w3.org/1999/xlink">
<g id="graph0" class="graph" transform="scale(1 1) rotate(0) translate(4 509.5)">
<title>Nuki::NukiBle::executeAction</title>
<!-- Node1 -->
<g id="node1" class="node">
<title>Node1</title>
<g id="a_node1"><a xlink:title=" ">
<polygon fill="#999999" stroke="#666666" points="347,-257 205,-257 205,-238 347,-238 347,-257"/>
<text text-anchor="middle" x="276" y="-245" font-family="Helvetica,sans-Serif" font-size="10.00">Nuki::NukiBle::executeAction</text>
</a>
</g>
</g>
<!-- Node2 -->
<g id="node2" class="node">
<title>Node2</title>
<g id="a_node2"><a xlink:href="class_nuki_1_1_nuki_ble.html#a8c69d960c9034d3ae5877285b666f09c" target="_top" xlink:title="Sends a new authorization entry to the lock via BLE.">
<polygon fill="white" stroke="#666666" points="160.5,-505.5 8.5,-505.5 8.5,-475.5 160.5,-475.5 160.5,-505.5"/>
<text text-anchor="start" x="16.5" y="-493.5" font-family="Helvetica,sans-Serif" font-size="10.00">Nuki::NukiBle::addAuthorization</text>
<text text-anchor="middle" x="84.5" y="-482.5" font-family="Helvetica,sans-Serif" font-size="10.00">Entry</text>
</a>
</g>
</g>
<!-- Node1&#45;&gt;Node2 -->
<g id="edge1" class="edge">
<title>Node1&#45;&gt;Node2</title>
<path fill="none" stroke="#63b8ff" d="M271.17,-267.05C261.74,-309.85 233.36,-412.3 169,-466.5 164.96,-469.9 160.47,-472.82 155.72,-475.33"/>
<polygon fill="#63b8ff" stroke="#63b8ff" points="274.63,-267.59 273.25,-257.09 267.78,-266.16 274.63,-267.59"/>
</g>
<!-- Node3 -->
<g id="node3" class="node">
<title>Node3</title>
<g id="a_node3"><a xlink:href="class_nuki_1_1_nuki_ble.html#ad96ef33212df343aa1433229f58f2ff7" target="_top" xlink:title="Send a new keypad entry to the lock via BLE.">
<polygon fill="white" stroke="#666666" points="148.5,-457.5 20.5,-457.5 20.5,-427.5 148.5,-427.5 148.5,-457.5"/>
<text text-anchor="start" x="28.5" y="-445.5" font-family="Helvetica,sans-Serif" font-size="10.00">Nuki::NukiBle::addKeypad</text>
<text text-anchor="middle" x="84.5" y="-434.5" font-family="Helvetica,sans-Serif" font-size="10.00">Entry</text>
</a>
</g>
</g>
<!-- Node1&#45;&gt;Node3 -->
<g id="edge2" class="edge">
<title>Node1&#45;&gt;Node3</title>
<path fill="none" stroke="#63b8ff" d="M268.3,-267.06C255.09,-302.69 222.26,-378.19 169,-418.5 162.87,-423.14 155.86,-426.89 148.58,-429.91"/>
<polygon fill="#63b8ff" stroke="#63b8ff" points="271.7,-267.97 271.77,-257.37 265.11,-265.61 271.7,-267.97"/>
</g>
<!-- Node4 -->
<g id="node4" class="node">
<title>Node4</title>
<g id="a_node4"><a xlink:href="class_nuki_1_1_nuki_ble.html#a1aacb6b629b0e93a6f819732ab95922b" target="_top" xlink:title="Delete a Keypad Entry.">
<polygon fill="white" stroke="#666666" points="154,-409.5 15,-409.5 15,-379.5 154,-379.5 154,-409.5"/>
<text text-anchor="start" x="23" y="-397.5" font-family="Helvetica,sans-Serif" font-size="10.00">Nuki::NukiBle::deleteKeypad</text>
<text text-anchor="middle" x="84.5" y="-386.5" font-family="Helvetica,sans-Serif" font-size="10.00">Entry</text>
</a>
</g>
</g>
<!-- Node1&#45;&gt;Node4 -->
<g id="edge3" class="edge">
<title>Node1&#45;&gt;Node4</title>
<path fill="none" stroke="#63b8ff" d="M264.04,-265.99C247.08,-293 211.92,-343.01 169,-370.5 163.67,-373.92 157.83,-376.86 151.81,-379.39"/>
<polygon fill="#63b8ff" stroke="#63b8ff" points="267.21,-267.52 269.45,-257.16 261.24,-263.86 267.21,-267.52"/>
</g>
<!-- Node5 -->
<g id="node5" class="node">
<title>Node5</title>
<g id="a_node5"><a xlink:href="class_nuki_1_1_nuki_ble.html#a5c80321a4355c9394be7a7de29133c7b" target="_top" xlink:title="Sends an calibration (mechanical) request to the lock via BLE.">
<polygon fill="white" stroke="#666666" points="163.5,-361 5.5,-361 5.5,-342 163.5,-342 163.5,-361"/>
<text text-anchor="middle" x="84.5" y="-349" font-family="Helvetica,sans-Serif" font-size="10.00">Nuki::NukiBle::requestCalibration</text>
</a>
</g>
</g>
<!-- Node1&#45;&gt;Node5 -->
<g id="edge4" class="edge">
<title>Node1&#45;&gt;Node5</title>
<path fill="none" stroke="#63b8ff" d="M259.02,-264.64C239.64,-284.35 205.06,-316.22 169,-333.5 161.91,-336.9 154.18,-339.66 146.38,-341.9"/>
<polygon fill="#63b8ff" stroke="#63b8ff" points="261.72,-266.88 266.13,-257.25 256.67,-262.03 261.72,-266.88"/>
</g>
<!-- Node6 -->
<g id="node6" class="node">
<title>Node6</title>
<g id="a_node6"><a xlink:href="class_nuki_1_1_nuki_ble.html#a80e616a2f3d29be9d96d5233b9fefa1a" target="_top" xlink:title="Sends an reboot request to the lock via BLE.">
<polygon fill="white" stroke="#666666" points="156,-324 13,-324 13,-305 156,-305 156,-324"/>
<text text-anchor="middle" x="84.5" y="-312" font-family="Helvetica,sans-Serif" font-size="10.00">Nuki::NukiBle::requestReboot</text>
</a>
</g>
</g>
<!-- Node1&#45;&gt;Node6 -->
<g id="edge5" class="edge">
<title>Node1&#45;&gt;Node6</title>
<path fill="none" stroke="#63b8ff" d="M247.7,-261.71C226.65,-272.21 196.56,-286.23 169,-295.5 158.15,-299.15 146.27,-302.32 134.97,-304.98"/>
<polygon fill="#63b8ff" stroke="#63b8ff" points="249.35,-264.8 256.69,-257.16 246.19,-258.55 249.35,-264.8"/>
</g>
<!-- Node7 -->
<g id="node7" class="node">
<title>Node7</title>
<g id="a_node7"><a xlink:href="class_nuki_1_1_nuki_ble.html#a0fb824539f7166cc53162e94267f0db0" target="_top" xlink:title="Request the lock via BLE to send the existing authorizationentries.">
<polygon fill="white" stroke="#666666" points="169,-286.5 0,-286.5 0,-256.5 169,-256.5 169,-286.5"/>
<text text-anchor="start" x="8" y="-274.5" font-family="Helvetica,sans-Serif" font-size="10.00">Nuki::NukiBle::retrieveAuthorization</text>
<text text-anchor="middle" x="84.5" y="-263.5" font-family="Helvetica,sans-Serif" font-size="10.00">Entries</text>
</a>
</g>
</g>
<!-- Node1&#45;&gt;Node7 -->
<g id="edge6" class="edge">
<title>Node1&#45;&gt;Node7</title>
<path fill="none" stroke="#63b8ff" d="M194.99,-257.63C186.4,-258.72 177.65,-259.83 169.03,-260.92"/>
<polygon fill="#63b8ff" stroke="#63b8ff" points="195.49,-261.1 204.98,-256.37 194.62,-254.15 195.49,-261.1"/>
</g>
<!-- Node8 -->
<g id="node8" class="node">
<title>Node8</title>
<g id="a_node8"><a xlink:href="class_nuki_1_1_nuki_ble.html#a6f669d52198915978c51ee441aec3c6d" target="_top" xlink:title="Request the lock via BLE to send the existing keypad entries.">
<polygon fill="white" stroke="#666666" points="157,-238.5 12,-238.5 12,-208.5 157,-208.5 157,-238.5"/>
<text text-anchor="start" x="20" y="-226.5" font-family="Helvetica,sans-Serif" font-size="10.00">Nuki::NukiBle::retrieveKeypad</text>
<text text-anchor="middle" x="84.5" y="-215.5" font-family="Helvetica,sans-Serif" font-size="10.00">Entries</text>
</a>
</g>
</g>
<!-- Node1&#45;&gt;Node8 -->
<g id="edge7" class="edge">
<title>Node1&#45;&gt;Node8</title>
<path fill="none" stroke="#63b8ff" d="M194.99,-237.37C182.42,-235.78 169.5,-234.14 157.14,-232.57"/>
<polygon fill="#63b8ff" stroke="#63b8ff" points="194.62,-240.85 204.98,-238.63 195.49,-233.9 194.62,-240.85"/>
</g>
<!-- Node9 -->
<g id="node9" class="node">
<title>Node9</title>
<g id="a_node9"><a xlink:href="class_nuki_1_1_nuki_ble.html#a6603fe4282fcab83f3038400e2c70207" target="_top" xlink:title="Send the new pincode command to the lock via BLE (this command uses the earlier by saveSecurityPincod...">
<polygon fill="white" stroke="#666666" points="156,-190 13,-190 13,-171 156,-171 156,-190"/>
<text text-anchor="middle" x="84.5" y="-178" font-family="Helvetica,sans-Serif" font-size="10.00">Nuki::NukiBle::setSecurityPin</text>
</a>
</g>
</g>
<!-- Node1&#45;&gt;Node9 -->
<g id="edge8" class="edge">
<title>Node1&#45;&gt;Node9</title>
<path fill="none" stroke="#63b8ff" d="M247.7,-233.29C226.65,-222.79 196.56,-208.77 169,-199.5 158.15,-195.85 146.27,-192.68 134.97,-190.02"/>
<polygon fill="#63b8ff" stroke="#63b8ff" points="246.19,-236.45 256.69,-237.84 249.35,-230.2 246.19,-236.45"/>
</g>
<!-- Node10 -->
<g id="node10" class="node">
<title>Node10</title>
<g id="a_node10"><a xlink:href="class_nuki_1_1_nuki_ble.html#af47efb4e020a327687327ad82963b347" target="_top" xlink:title="Sends an updated authorization entry to the lock via BLE.">
<polygon fill="white" stroke="#666666" points="167.5,-152.5 1.5,-152.5 1.5,-122.5 167.5,-122.5 167.5,-152.5"/>
<text text-anchor="start" x="9.5" y="-140.5" font-family="Helvetica,sans-Serif" font-size="10.00">Nuki::NukiBle::updateAuthorization</text>
<text text-anchor="middle" x="84.5" y="-129.5" font-family="Helvetica,sans-Serif" font-size="10.00">Entry</text>
</a>
</g>
</g>
<!-- Node1&#45;&gt;Node10 -->
<g id="edge9" class="edge">
<title>Node1&#45;&gt;Node10</title>
<path fill="none" stroke="#63b8ff" d="M258.43,-230.76C238.72,-211.72 204.06,-180.91 169,-162.5 161.76,-158.7 153.87,-155.39 145.91,-152.54"/>
<polygon fill="#63b8ff" stroke="#63b8ff" points="256.1,-233.38 265.68,-237.89 261.01,-228.39 256.1,-233.38"/>
</g>
<!-- Node11 -->
<g id="node11" class="node">
<title>Node11</title>
<g id="a_node11"><a xlink:href="class_nuki_1_1_nuki_ble.html#a0f1be2034e079e676a7771dfb775df81" target="_top" xlink:title="Send an updated keypad entry to the lock via BLE.">
<polygon fill="white" stroke="#666666" points="155.5,-104.5 13.5,-104.5 13.5,-74.5 155.5,-74.5 155.5,-104.5"/>
<text text-anchor="start" x="21.5" y="-92.5" font-family="Helvetica,sans-Serif" font-size="10.00">Nuki::NukiBle::updateKeypad</text>
<text text-anchor="middle" x="84.5" y="-81.5" font-family="Helvetica,sans-Serif" font-size="10.00">Entry</text>
</a>
</g>
</g>
<!-- Node1&#45;&gt;Node11 -->
<g id="edge10" class="edge">
<title>Node1&#45;&gt;Node11</title>
<path fill="none" stroke="#63b8ff" d="M265.16,-228.58C249.02,-199.45 214.18,-143.8 169,-113.5 163.86,-110.06 158.23,-107.1 152.39,-104.56"/>
<polygon fill="#63b8ff" stroke="#63b8ff" points="262.24,-230.55 270.07,-237.7 268.41,-227.23 262.24,-230.55"/>
</g>
<!-- Node12 -->
<g id="node12" class="node">
<title>Node12</title>
<g id="a_node12"><a xlink:href="class_nuki_1_1_nuki_ble.html#aac2e6b5ca939d23e8f590519b78df9f1" target="_top" xlink:title="Sends the time to be set to the lock via BLE.">
<polygon fill="white" stroke="#666666" points="150,-56 19,-56 19,-37 150,-37 150,-56"/>
<text text-anchor="middle" x="84.5" y="-44" font-family="Helvetica,sans-Serif" font-size="10.00">Nuki::NukiBle::updateTime</text>
</a>
</g>
</g>
<!-- Node1&#45;&gt;Node12 -->
<g id="edge11" class="edge">
<title>Node1&#45;&gt;Node12</title>
<path fill="none" stroke="#63b8ff" d="M269.39,-227.96C257.52,-190.24 226.13,-107.47 169,-65.5 163.37,-61.36 156.99,-58.1 150.33,-55.54"/>
<polygon fill="#63b8ff" stroke="#63b8ff" points="266.1,-229.16 272.35,-237.72 272.8,-227.14 266.1,-229.16"/>
</g>
<!-- Node13 -->
<g id="node13" class="node">
<title>Node13</title>
<g id="a_node13"><a xlink:href="class_nuki_1_1_nuki_ble.html#a2c962e2c69d9063972790109704dd233" target="_top" xlink:title="Send the verify pincode command via BLE to the lock. This command uses the earlier by saveSecurityPin...">
<polygon fill="white" stroke="#666666" points="161,-19 8,-19 8,0 161,0 161,-19"/>
<text text-anchor="middle" x="84.5" y="-7" font-family="Helvetica,sans-Serif" font-size="10.00">Nuki::NukiBle::verifySecurityPin</text>
</a>
</g>
</g>
<!-- Node1&#45;&gt;Node13 -->
<g id="edge12" class="edge">
<title>Node1&#45;&gt;Node13</title>
<path fill="none" stroke="#63b8ff" d="M271.44,-227.95C262.52,-184.78 234.99,-80.99 169,-28.5 164.23,-24.71 158.84,-21.64 153.17,-19.17"/>
<polygon fill="#63b8ff" stroke="#63b8ff" points="268.01,-228.63 273.36,-237.77 274.88,-227.29 268.01,-228.63"/>
</g>
</g>
</svg>
