<?xml version="1.0" encoding="UTF-8" standalone="no"?>
<!DOCTYPE svg PUBLIC "-//W3C//DTD SVG 1.1//EN"
 "http://www.w3.org/Graphics/SVG/1.1/DTD/svg11.dtd">
<!-- Generated by graphviz version 8.0.1 (20230327.1645)
 -->
<!-- Title: Nuki::NukiBle::requestReboot Pages: 1 -->
<svg width="524pt" height="172pt"
 viewBox="0.00 0.00 524.00 172.00" xmlns="http://www.w3.org/2000/svg" xmlns:xlink="http://www.w3.org/1999/xlink">
<g id="graph0" class="graph" transform="scale(1 1) rotate(0) translate(4 168)">
<title>Nuki::NukiBle::requestReboot</title>
<!-- Node1 -->
<g id="node1" class="node">
<title>Node1</title>
<g id="a_node1"><a xlink:title="Sends an reboot request to the lock via BLE.">
<polygon fill="#999999" stroke="#666666" points="143,-88.5 0,-88.5 0,-69.5 143,-69.5 143,-88.5"/>
<text text-anchor="middle" x="71.5" y="-76.5" font-family="Helvetica,sans-Serif" font-size="10.00">Nuki::NukiBle::requestReboot</text>
</a>
</g>
</g>
<!-- Node2 -->
<g id="node2" class="node">
<title>Node2</title>
<g id="a_node2"><a xlink:href="class_nuki_1_1_nuki_ble.html#af1f1e299e8d97e053bba80e92ba285d6" target="_top" xlink:title=" ">
<polygon fill="white" stroke="#666666" points="321,-88.5 179,-88.5 179,-69.5 321,-69.5 321,-88.5"/>
<text text-anchor="middle" x="250" y="-76.5" font-family="Helvetica,sans-Serif" font-size="10.00">Nuki::NukiBle::executeAction</text>
</a>
</g>
</g>
<!-- Node1&#45;&gt;Node2 -->
<g id="edge1" class="edge">
<title>Node1&#45;&gt;Node2</title>
<path fill="none" stroke="#63b8ff" d="M143.27,-79C151.41,-79 159.75,-79 168.01,-79"/>
<polygon fill="#63b8ff" stroke="#63b8ff" points="167.79,-82.5 177.79,-79 167.79,-75.5 167.79,-82.5"/>
</g>
<!-- Node3 -->
<g id="node3" class="node">
<title>Node3</title>
<g id="a_node3"><a xlink:href="class_nuki_1_1_nuki_ble.html#ada0f3beebd95d35c122e25dd3f9eb886" target="_top" xlink:title=" ">
<polygon fill="white" stroke="#666666" points="505.5,-164 367.5,-164 367.5,-134 505.5,-134 505.5,-164"/>
<text text-anchor="start" x="375.5" y="-152" font-family="Helvetica,sans-Serif" font-size="10.00">Nuki::NukiBle::cmdChallAcc</text>
<text text-anchor="middle" x="436.5" y="-141" font-family="Helvetica,sans-Serif" font-size="10.00">StateMachine</text>
</a>
</g>
</g>
<!-- Node2&#45;&gt;Node3 -->
<g id="edge2" class="edge">
<title>Node2&#45;&gt;Node3</title>
<path fill="none" stroke="#63b8ff" d="M271.83,-88.87C293.01,-98.71 326.88,-113.9 357,-125 361.76,-126.76 366.72,-128.49 371.73,-130.17"/>
<polygon fill="#63b8ff" stroke="#63b8ff" points="370.43,-133.75 381.02,-133.54 372.61,-127.1 370.43,-133.75"/>
</g>
<!-- Node4 -->
<g id="node4" class="node">
<title>Node4</title>
<g id="a_node4"><a xlink:href="class_nuki_1_1_nuki_ble.html#a59169a9f492793762e3c6ba39b611b07" target="_top" xlink:title=" ">
<polygon fill="white" stroke="#666666" points="508.5,-116 364.5,-116 364.5,-86 508.5,-86 508.5,-116"/>
<text text-anchor="start" x="372.5" y="-104" font-family="Helvetica,sans-Serif" font-size="10.00">Nuki::NukiBle::cmdChallState</text>
<text text-anchor="middle" x="436.5" y="-93" font-family="Helvetica,sans-Serif" font-size="10.00">Machine</text>
</a>
</g>
</g>
<!-- Node2&#45;&gt;Node4 -->
<g id="edge3" class="edge">
<title>Node2&#45;&gt;Node4</title>
<path fill="none" stroke="#63b8ff" d="M321.28,-87.38C331.82,-88.64 342.76,-89.94 353.52,-91.22"/>
<polygon fill="#63b8ff" stroke="#63b8ff" points="352.85,-94.79 363.19,-92.5 353.68,-87.84 352.85,-94.79"/>
</g>
<!-- Node5 -->
<g id="node5" class="node">
<title>Node5</title>
<g id="a_node5"><a xlink:href="class_nuki_1_1_nuki_ble.html#ad135bb1455665decfddff67772c1d411" target="_top" xlink:title=" ">
<polygon fill="white" stroke="#666666" points="516,-67.5 357,-67.5 357,-48.5 516,-48.5 516,-67.5"/>
<text text-anchor="middle" x="436.5" y="-55.5" font-family="Helvetica,sans-Serif" font-size="10.00">Nuki::NukiBle::cmdStateMachine</text>
</a>
</g>
</g>
<!-- Node2&#45;&gt;Node5 -->
<g id="edge4" class="edge">
<title>Node2&#45;&gt;Node5</title>
<path fill="none" stroke="#63b8ff" d="M321.28,-71C329.35,-70.08 337.66,-69.14 345.94,-68.19"/>
<polygon fill="#63b8ff" stroke="#63b8ff" points="346.25,-71.57 355.79,-66.96 345.46,-64.61 346.25,-71.57"/>
</g>
<!-- Node6 -->
<g id="node6" class="node">
<title>Node6</title>
<g id="a_node6"><a xlink:href="class_nuki_1_1_nuki_ble.html#aed01f10d1ffa769f0f6fadc0d06d328e" target="_top" xlink:title=" ">
<polygon fill="white" stroke="#666666" points="512.5,-30 360.5,-30 360.5,0 512.5,0 512.5,-30"/>
<text text-anchor="start" x="368.5" y="-18" font-family="Helvetica,sans-Serif" font-size="10.00">Nuki::NukiBle::extendDisonnect</text>
<text text-anchor="middle" x="436.5" y="-7" font-family="Helvetica,sans-Serif" font-size="10.00">Timeout</text>
</a>
</g>
</g>
<!-- Node2&#45;&gt;Node6 -->
<g id="edge5" class="edge">
<title>Node2&#45;&gt;Node6</title>
<path fill="none" stroke="#63b8ff" d="M277.02,-69.06C298.41,-60.98 329.55,-49.42 357,-40 363.13,-37.9 369.54,-35.76 375.95,-33.66"/>
<polygon fill="#63b8ff" stroke="#63b8ff" points="376.55,-36.82 384.98,-30.4 374.39,-30.16 376.55,-36.82"/>
</g>
</g>
</svg>
