<?xml version="1.0" encoding="UTF-8" standalone="no"?>
<!DOCTYPE svg PUBLIC "-//W3C//DTD SVG 1.1//EN"
 "http://www.w3.org/Graphics/SVG/1.1/DTD/svg11.dtd">
<!-- Generated by graphviz version 5.0.1 (20220820.1526)
 -->
<!-- Title: NukiLock::NukiLock::handleReturnMessage Pages: 1 -->
<svg width="581pt" height="277pt"
 viewBox="0.00 0.00 581.00 276.50" xmlns="http://www.w3.org/2000/svg" xmlns:xlink="http://www.w3.org/1999/xlink">
<g id="graph0" class="graph" transform="scale(1 1) rotate(0) translate(4 272.5)">
<title>NukiLock::NukiLock::handleReturnMessage</title>
<!-- Node1 -->
<g id="node1" class="node">
<title>Node1</title>
<g id="a_node1"><a xlink:title=" ">
<polygon fill="#999999" stroke="#666666" points="143,-144.5 0,-144.5 0,-110.5 143,-110.5 143,-144.5"/>
<text text-anchor="start" x="8" y="-130.9" font-family="Helvetica,sans-Serif" font-size="12.00">NukiLock::NukiLock</text>
<text text-anchor="middle" x="71.5" y="-117.9" font-family="Helvetica,sans-Serif" font-size="12.00">::handleReturnMessage</text>
</a>
</g>
</g>
<!-- Node2 -->
<g id="node2" class="node">
<title>Node2</title>
<g id="a_node2"><a xlink:href="class_nuki_1_1_nuki_ble.html#ac2e28f07ed0a738f73c5f77b46cdb1bb" target="_top" xlink:title=" ">
<polygon fill="white" stroke="#666666" points="350.5,-268.5 183.5,-268.5 183.5,-234.5 350.5,-234.5 350.5,-268.5"/>
<text text-anchor="start" x="191.5" y="-254.9" font-family="Helvetica,sans-Serif" font-size="12.00">Nuki::NukiBle::handleReturn</text>
<text text-anchor="middle" x="267" y="-241.9" font-family="Helvetica,sans-Serif" font-size="12.00">Message</text>
</a>
</g>
</g>
<!-- Node1&#45;&gt;Node2 -->
<g id="edge1" class="edge">
<title>Node1&#45;&gt;Node2</title>
<path fill="none" stroke="#63b8ff" d="M86.58,-144.57C105.45,-166.38 141,-203.89 179,-225.5 182.04,-227.23 185.2,-228.85 188.45,-230.38"/>
<polygon fill="#63b8ff" stroke="#63b8ff" points="187.21,-233.65 197.78,-234.41 189.99,-227.23 187.21,-233.65"/>
</g>
<!-- Node3 -->
<g id="node3" class="node">
<title>Node3</title>
<g id="a_node3"><a xlink:href="namespace_nuki_lock.html#a443e14fa26c3b2a4a0c2c6565be0d459" target="_top" xlink:title=" ">
<polygon fill="white" stroke="#666666" points="355,-216 179,-216 179,-195 355,-195 355,-216"/>
<text text-anchor="middle" x="267" y="-202.4" font-family="Helvetica,sans-Serif" font-size="12.00">NukiLock::logAdvancedConfig</text>
</a>
</g>
</g>
<!-- Node1&#45;&gt;Node3 -->
<g id="edge2" class="edge">
<title>Node1&#45;&gt;Node3</title>
<path fill="none" stroke="#63b8ff" d="M98.17,-144.52C119.12,-157.71 149.93,-175.54 179,-186.5 184.56,-188.6 190.41,-190.49 196.34,-192.2"/>
<polygon fill="#63b8ff" stroke="#63b8ff" points="195.79,-195.67 206.36,-194.9 197.62,-188.92 195.79,-195.67"/>
</g>
<!-- Node4 -->
<g id="node4" class="node">
<title>Node4</title>
<g id="a_node4"><a xlink:href="namespace_nuki_lock.html#a7ea754b2cb764a6f6469efc00dbfdfe8" target="_top" xlink:title=" ">
<polygon fill="white" stroke="#666666" points="347.5,-177 186.5,-177 186.5,-156 347.5,-156 347.5,-177"/>
<text text-anchor="middle" x="267" y="-163.4" font-family="Helvetica,sans-Serif" font-size="12.00">NukiLock::logBatteryReport</text>
</a>
</g>
</g>
<!-- Node1&#45;&gt;Node4 -->
<g id="edge3" class="edge">
<title>Node1&#45;&gt;Node4</title>
<path fill="none" stroke="#63b8ff" d="M143.18,-141.75C163.04,-145.75 184.48,-150.07 203.8,-153.96"/>
<polygon fill="#63b8ff" stroke="#63b8ff" points="203.2,-157.41 213.7,-155.96 204.58,-150.55 203.2,-157.41"/>
</g>
<!-- Node5 -->
<g id="node5" class="node">
<title>Node5</title>
<g id="a_node5"><a xlink:href="namespace_nuki_lock.html#a44f8fccc739b59c4fa2c9994da10aaed" target="_top" xlink:title=" ">
<polygon fill="white" stroke="#666666" points="328,-138 206,-138 206,-117 328,-117 328,-138"/>
<text text-anchor="middle" x="267" y="-124.4" font-family="Helvetica,sans-Serif" font-size="12.00">NukiLock::logConfig</text>
</a>
</g>
</g>
<!-- Node1&#45;&gt;Node5 -->
<g id="edge4" class="edge">
<title>Node1&#45;&gt;Node5</title>
<path fill="none" stroke="#63b8ff" d="M143.18,-127.5C160.17,-127.5 178.31,-127.5 195.3,-127.5"/>
<polygon fill="#63b8ff" stroke="#63b8ff" points="195.71,-131 205.71,-127.5 195.71,-124 195.71,-131"/>
</g>
<!-- Node6 -->
<g id="node6" class="node">
<title>Node6</title>
<g id="a_node6"><a xlink:href="namespace_nuki_lock.html#a5b521a0ba26dfc799683a2edb9529902" target="_top" xlink:title=" ">
<polygon fill="white" stroke="#666666" points="351,-60 183,-60 183,-39 351,-39 351,-60"/>
<text text-anchor="middle" x="267" y="-46.4" font-family="Helvetica,sans-Serif" font-size="12.00">NukiLock::logKeyturnerState</text>
</a>
</g>
</g>
<!-- Node1&#45;&gt;Node6 -->
<g id="edge5" class="edge">
<title>Node1&#45;&gt;Node6</title>
<path fill="none" stroke="#63b8ff" d="M99.1,-110.35C120.08,-97.49 150.45,-80.32 179,-69.5 185.68,-66.97 192.77,-64.7 199.9,-62.69"/>
<polygon fill="#63b8ff" stroke="#63b8ff" points="200.88,-66.05 209.64,-60.09 199.07,-59.29 200.88,-66.05"/>
</g>
<!-- Node10 -->
<g id="node10" class="node">
<title>Node10</title>
<g id="a_node10"><a xlink:href="namespace_nuki_lock.html#aec3cb8258cc4133d676e8c5f50bcd938" target="_top" xlink:title=" ">
<polygon fill="white" stroke="#666666" points="335,-99 199,-99 199,-78 335,-78 335,-99"/>
<text text-anchor="middle" x="267" y="-85.4" font-family="Helvetica,sans-Serif" font-size="12.00">NukiLock::logLogEntry</text>
</a>
</g>
</g>
<!-- Node1&#45;&gt;Node10 -->
<g id="edge9" class="edge">
<title>Node1&#45;&gt;Node10</title>
<path fill="none" stroke="#63b8ff" d="M143.18,-113.25C163.04,-109.25 184.48,-104.93 203.8,-101.04"/>
<polygon fill="#63b8ff" stroke="#63b8ff" points="204.58,-104.45 213.7,-99.04 203.2,-97.59 204.58,-104.45"/>
</g>
<!-- Node11 -->
<g id="node11" class="node">
<title>Node11</title>
<g id="a_node11"><a xlink:href="namespace_nuki.html#a280e19d4682ca4b35d3fe64001da816a" target="_top" xlink:title=" ">
<polygon fill="white" stroke="#666666" points="318,-21 216,-21 216,0 318,0 318,-21"/>
<text text-anchor="middle" x="267" y="-7.4" font-family="Helvetica,sans-Serif" font-size="12.00">Nuki::printBuffer</text>
</a>
</g>
</g>
<!-- Node1&#45;&gt;Node11 -->
<g id="edge13" class="edge">
<title>Node1&#45;&gt;Node11</title>
<path fill="none" stroke="#63b8ff" d="M86.02,-110.37C104.54,-88.13 139.99,-49.78 179,-29.5 187.26,-25.21 196.45,-21.88 205.67,-19.31"/>
<polygon fill="#63b8ff" stroke="#63b8ff" points="206.8,-22.63 215.65,-16.8 205.1,-15.84 206.8,-22.63"/>
</g>
<!-- Node7 -->
<g id="node7" class="node">
<title>Node7</title>
<g id="a_node7"><a xlink:href="namespace_nuki_lock.html#a564f6d63072267bb72f431e4c4e1c947" target="_top" xlink:title=" ">
<polygon fill="white" stroke="#666666" points="573,-118 391,-118 391,-97 573,-97 573,-118"/>
<text text-anchor="middle" x="482" y="-104.4" font-family="Helvetica,sans-Serif" font-size="12.00">NukiLock::logCompletionStatus</text>
</a>
</g>
</g>
<!-- Node6&#45;&gt;Node7 -->
<g id="edge6" class="edge">
<title>Node6&#45;&gt;Node7</title>
<path fill="none" stroke="#63b8ff" d="M323.86,-60.08C334.35,-62.7 345.12,-65.83 355,-69.5 371.96,-75.8 373.99,-82.35 391,-88.5 397.01,-90.67 403.34,-92.63 409.75,-94.39"/>
<polygon fill="#63b8ff" stroke="#63b8ff" points="409.28,-97.88 419.84,-96.99 411.03,-91.1 409.28,-97.88"/>
</g>
<!-- Node8 -->
<g id="node8" class="node">
<title>Node8</title>
<g id="a_node8"><a xlink:href="namespace_nuki_lock.html#a02e1891ccc5565890fd8ddd6577dea57" target="_top" xlink:title=" ">
<polygon fill="white" stroke="#666666" points="556,-79 408,-79 408,-58 556,-58 556,-79"/>
<text text-anchor="middle" x="482" y="-65.4" font-family="Helvetica,sans-Serif" font-size="12.00">NukiLock::logLockAction</text>
</a>
</g>
</g>
<!-- Node6&#45;&gt;Node8 -->
<g id="edge7" class="edge">
<title>Node6&#45;&gt;Node8</title>
<path fill="none" stroke="#63b8ff" d="M351.27,-56.93C366.43,-58.28 382.26,-59.69 397.44,-61.05"/>
<polygon fill="#63b8ff" stroke="#63b8ff" points="397.56,-64.57 407.83,-61.97 398.18,-57.6 397.56,-64.57"/>
</g>
<!-- Node9 -->
<g id="node9" class="node">
<title>Node9</title>
<g id="a_node9"><a xlink:href="namespace_nuki_lock.html#aa9c8584e761f69cad4eb3ea1c20d27e7" target="_top" xlink:title=" ">
<polygon fill="white" stroke="#666666" points="558,-40 406,-40 406,-19 558,-19 558,-40"/>
<text text-anchor="middle" x="482" y="-26.4" font-family="Helvetica,sans-Serif" font-size="12.00">NukiLock::logNukiTrigger</text>
</a>
</g>
</g>
<!-- Node6&#45;&gt;Node9 -->
<g id="edge8" class="edge">
<title>Node6&#45;&gt;Node9</title>
<path fill="none" stroke="#63b8ff" d="M351.27,-41.68C365.87,-40.31 381.08,-38.88 395.73,-37.51"/>
<polygon fill="#63b8ff" stroke="#63b8ff" points="396.14,-40.98 405.77,-36.56 395.49,-34.01 396.14,-40.98"/>
</g>
<!-- Node10&#45;&gt;Node7 -->
<g id="edge10" class="edge">
<title>Node10&#45;&gt;Node7</title>
<path fill="none" stroke="#63b8ff" d="M335.1,-94.49C349.61,-95.78 365.25,-97.17 380.71,-98.55"/>
<polygon fill="#63b8ff" stroke="#63b8ff" points="380.56,-102.05 390.83,-99.46 381.18,-95.08 380.56,-102.05"/>
</g>
<!-- Node10&#45;&gt;Node8 -->
<g id="edge11" class="edge">
<title>Node10&#45;&gt;Node8</title>
<path fill="none" stroke="#63b8ff" d="M335.1,-82.2C355.01,-80.33 377.06,-78.26 397.86,-76.31"/>
<polygon fill="#63b8ff" stroke="#63b8ff" points="398.33,-79.78 407.96,-75.36 397.67,-72.81 398.33,-79.78"/>
</g>
<!-- Node10&#45;&gt;Node9 -->
<g id="edge12" class="edge">
<title>Node10&#45;&gt;Node9</title>
<path fill="none" stroke="#63b8ff" d="M324.39,-77.98C334.73,-75.36 345.31,-72.22 355,-68.5 372.09,-61.94 373.85,-54.91 391,-48.5 396.79,-46.34 402.89,-44.39 409.07,-42.65"/>
<polygon fill="#63b8ff" stroke="#63b8ff" points="410.04,-46.01 418.82,-40.08 408.26,-39.25 410.04,-46.01"/>
</g>
</g>
</svg>
