<?xml version="1.0" encoding="UTF-8" standalone="no"?>
<!DOCTYPE svg PUBLIC "-//W3C//DTD SVG 1.1//EN"
 "http://www.w3.org/Graphics/SVG/1.1/DTD/svg11.dtd">
<!-- Generated by graphviz version 5.0.1 (20220820.1526)
 -->
<!-- Title: Nuki::NukiBle::updateKeypadEntry Pages: 1 -->
<svg width="616pt" height="186pt"
 viewBox="0.00 0.00 616.00 186.00" xmlns="http://www.w3.org/2000/svg" xmlns:xlink="http://www.w3.org/1999/xlink">
<g id="graph0" class="graph" transform="scale(1 1) rotate(0) translate(4 182)">
<title>Nuki::NukiBle::updateKeypadEntry</title>
<!-- Node1 -->
<g id="node1" class="node">
<title>Node1</title>
<g id="a_node1"><a xlink:title="Send an updated keypad entry to the lock via BLE.">
<polygon fill="#999999" stroke="#666666" points="173,-83 0,-83 0,-49 173,-49 173,-83"/>
<text text-anchor="start" x="8" y="-69.4" font-family="Helvetica,sans-Serif" font-size="12.00">Nuki::NukiBle::updateKeypad</text>
<text text-anchor="middle" x="86.5" y="-56.4" font-family="Helvetica,sans-Serif" font-size="12.00">Entry</text>
</a>
</g>
</g>
<!-- Node2 -->
<g id="node2" class="node">
<title>Node2</title>
<g id="a_node2"><a xlink:href="class_nuki_1_1_nuki_ble.html#af1f1e299e8d97e053bba80e92ba285d6" target="_top" xlink:title=" ">
<polygon fill="white" stroke="#666666" points="380,-96.5 209,-96.5 209,-75.5 380,-75.5 380,-96.5"/>
<text text-anchor="middle" x="294.5" y="-82.9" font-family="Helvetica,sans-Serif" font-size="12.00">Nuki::NukiBle::executeAction</text>
</a>
</g>
</g>
<!-- Node1&#45;&gt;Node2 -->
<g id="edge1" class="edge">
<title>Node1&#45;&gt;Node2</title>
<path fill="none" stroke="#63b8ff" d="M173.07,-74.31C181.57,-75.13 190.24,-75.97 198.83,-76.81"/>
<polygon fill="#63b8ff" stroke="#63b8ff" points="198.56,-80.3 208.86,-77.78 199.24,-73.33 198.56,-80.3"/>
</g>
<!-- Node7 -->
<g id="node7" class="node">
<title>Node7</title>
<g id="a_node7"><a xlink:href="namespace_nuki.html#a280e19d4682ca4b35d3fe64001da816a" target="_top" xlink:title=" ">
<polygon fill="white" stroke="#666666" points="345.5,-57.5 243.5,-57.5 243.5,-36.5 345.5,-36.5 345.5,-57.5"/>
<text text-anchor="middle" x="294.5" y="-43.9" font-family="Helvetica,sans-Serif" font-size="12.00">Nuki::printBuffer</text>
</a>
</g>
</g>
<!-- Node1&#45;&gt;Node7 -->
<g id="edge6" class="edge">
<title>Node1&#45;&gt;Node7</title>
<path fill="none" stroke="#63b8ff" d="M173.07,-58.11C193.22,-56.25 214.28,-54.31 233.06,-52.57"/>
<polygon fill="#63b8ff" stroke="#63b8ff" points="233.59,-56.04 243.23,-51.64 232.95,-49.07 233.59,-56.04"/>
</g>
<!-- Node3 -->
<g id="node3" class="node">
<title>Node3</title>
<g id="a_node3"><a xlink:href="class_nuki_1_1_nuki_ble.html#ada0f3beebd95d35c122e25dd3f9eb886" target="_top" xlink:title=" ">
<polygon fill="white" stroke="#666666" points="594,-178 430,-178 430,-144 594,-144 594,-178"/>
<text text-anchor="start" x="438" y="-164.4" font-family="Helvetica,sans-Serif" font-size="12.00">Nuki::NukiBle::cmdChallAcc</text>
<text text-anchor="middle" x="512" y="-151.4" font-family="Helvetica,sans-Serif" font-size="12.00">StateMachine</text>
</a>
</g>
</g>
<!-- Node2&#45;&gt;Node3 -->
<g id="edge2" class="edge">
<title>Node2&#45;&gt;Node3</title>
<path fill="none" stroke="#63b8ff" d="M319.19,-96.61C343.26,-107.16 381.78,-123.4 416,-135 422.06,-137.05 428.37,-139.06 434.74,-140.99"/>
<polygon fill="#63b8ff" stroke="#63b8ff" points="434.18,-144.48 444.77,-143.96 436.17,-137.77 434.18,-144.48"/>
</g>
<!-- Node4 -->
<g id="node4" class="node">
<title>Node4</title>
<g id="a_node4"><a xlink:href="class_nuki_1_1_nuki_ble.html#a59169a9f492793762e3c6ba39b611b07" target="_top" xlink:title=" ">
<polygon fill="white" stroke="#666666" points="598,-126 426,-126 426,-92 598,-92 598,-126"/>
<text text-anchor="start" x="434" y="-112.4" font-family="Helvetica,sans-Serif" font-size="12.00">Nuki::NukiBle::cmdChallState</text>
<text text-anchor="middle" x="512" y="-99.4" font-family="Helvetica,sans-Serif" font-size="12.00">Machine</text>
</a>
</g>
</g>
<!-- Node2&#45;&gt;Node4 -->
<g id="edge3" class="edge">
<title>Node2&#45;&gt;Node4</title>
<path fill="none" stroke="#63b8ff" d="M380.05,-95.02C391.84,-96.28 404.03,-97.58 415.99,-98.86"/>
<polygon fill="#63b8ff" stroke="#63b8ff" points="415.67,-102.35 425.98,-99.93 416.41,-95.38 415.67,-102.35"/>
</g>
<!-- Node5 -->
<g id="node5" class="node">
<title>Node5</title>
<g id="a_node5"><a xlink:href="class_nuki_1_1_nuki_ble.html#ad135bb1455665decfddff67772c1d411" target="_top" xlink:title=" ">
<polygon fill="white" stroke="#666666" points="608,-73.5 416,-73.5 416,-52.5 608,-52.5 608,-73.5"/>
<text text-anchor="middle" x="512" y="-59.9" font-family="Helvetica,sans-Serif" font-size="12.00">Nuki::NukiBle::cmdStateMachine</text>
</a>
</g>
</g>
<!-- Node2&#45;&gt;Node5 -->
<g id="edge4" class="edge">
<title>Node2&#45;&gt;Node5</title>
<path fill="none" stroke="#63b8ff" d="M380.05,-76.98C388.53,-76.07 397.2,-75.15 405.86,-74.22"/>
<polygon fill="#63b8ff" stroke="#63b8ff" points="406.42,-77.68 415.99,-73.14 405.68,-70.72 406.42,-77.68"/>
</g>
<!-- Node6 -->
<g id="node6" class="node">
<title>Node6</title>
<g id="a_node6"><a xlink:href="class_nuki_1_1_nuki_ble.html#aed01f10d1ffa769f0f6fadc0d06d328e" target="_top" xlink:title=" ">
<polygon fill="white" stroke="#666666" points="604.5,-34 419.5,-34 419.5,0 604.5,0 604.5,-34"/>
<text text-anchor="start" x="427.5" y="-20.4" font-family="Helvetica,sans-Serif" font-size="12.00">Nuki::NukiBle::extendDisonnect</text>
<text text-anchor="middle" x="512" y="-7.4" font-family="Helvetica,sans-Serif" font-size="12.00">Timeout</text>
</a>
</g>
</g>
<!-- Node2&#45;&gt;Node6 -->
<g id="edge5" class="edge">
<title>Node2&#45;&gt;Node6</title>
<path fill="none" stroke="#63b8ff" d="M354.96,-75.38C363.51,-73.07 372.09,-70.3 380,-67 397.53,-59.7 398.68,-51.79 416,-44 421.26,-41.63 426.78,-39.42 432.39,-37.37"/>
<polygon fill="#63b8ff" stroke="#63b8ff" points="433.62,-40.65 441.91,-34.06 431.32,-34.04 433.62,-40.65"/>
</g>
</g>
</svg>
