<?xml version="1.0" encoding="UTF-8" standalone="no"?>
<!DOCTYPE svg PUBLIC "-//W3C//DTD SVG 1.1//EN"
 "http://www.w3.org/Graphics/SVG/1.1/DTD/svg11.dtd">
<!-- Generated by graphviz version 5.0.1 (20220820.1526)
 -->
<!-- Title: Nuki::NukiBle::pairNuki Pages: 1 -->
<svg width="369pt" height="82pt"
 viewBox="0.00 0.00 369.00 81.50" xmlns="http://www.w3.org/2000/svg" xmlns:xlink="http://www.w3.org/1999/xlink">
<g id="graph0" class="graph" transform="scale(1 1) rotate(0) translate(4 77.5)">
<title>Nuki::NukiBle::pairNuki</title>
<!-- Node1 -->
<g id="node1" class="node">
<title>Node1</title>
<g id="a_node1"><a xlink:title="Checks if credentials are stored in preferences, if not initiate pairing.">
<polygon fill="#999999" stroke="#666666" points="140,-50.5 0,-50.5 0,-29.5 140,-29.5 140,-50.5"/>
<text text-anchor="middle" x="70" y="-36.9" font-family="Helvetica,sans-Serif" font-size="12.00">Nuki::NukiBle::pairNuki</text>
</a>
</g>
</g>
<!-- Node2 -->
<g id="node2" class="node">
<title>Node2</title>
<g id="a_node2"><a xlink:href="class_nuki_1_1_nuki_ble.html#a9b93a592c1d9ee5a250d745f8f5381fb" target="_top" xlink:title=" ">
<polygon fill="white" stroke="#666666" points="346,-73.5 191,-73.5 191,-52.5 346,-52.5 346,-73.5"/>
<text text-anchor="middle" x="268.5" y="-59.9" font-family="Helvetica,sans-Serif" font-size="12.00">Nuki::NukiBle::connectBle</text>
</a>
</g>
</g>
<!-- Node1&#45;&gt;Node2 -->
<g id="edge1" class="edge">
<title>Node1&#45;&gt;Node2</title>
<path fill="none" stroke="#63b8ff" d="M140,-48.08C153.13,-49.61 167.03,-51.24 180.63,-52.83"/>
<polygon fill="#63b8ff" stroke="#63b8ff" points="180.62,-56.35 190.96,-54.04 181.43,-49.4 180.62,-56.35"/>
</g>
<!-- Node3 -->
<g id="node3" class="node">
<title>Node3</title>
<g id="a_node3"><a xlink:href="class_nuki_1_1_nuki_ble.html#aed01f10d1ffa769f0f6fadc0d06d328e" target="_top" xlink:title=" ">
<polygon fill="white" stroke="#666666" points="361,-34 176,-34 176,0 361,0 361,-34"/>
<text text-anchor="start" x="184" y="-20.4" font-family="Helvetica,sans-Serif" font-size="12.00">Nuki::NukiBle::extendDisonnect</text>
<text text-anchor="middle" x="268.5" y="-7.4" font-family="Helvetica,sans-Serif" font-size="12.00">Timeout</text>
</a>
</g>
</g>
<!-- Node1&#45;&gt;Node3 -->
<g id="edge2" class="edge">
<title>Node1&#45;&gt;Node3</title>
<path fill="none" stroke="#63b8ff" d="M140,-31.92C148.35,-30.95 157,-29.93 165.7,-28.92"/>
<polygon fill="#63b8ff" stroke="#63b8ff" points="166.38,-32.36 175.9,-27.72 165.56,-25.41 166.38,-32.36"/>
</g>
</g>
</svg>
