<?xml version="1.0" encoding="UTF-8" standalone="no"?>
<!DOCTYPE svg PUBLIC "-//W3C//DTD SVG 1.1//EN"
 "http://www.w3.org/Graphics/SVG/1.1/DTD/svg11.dtd">
<!-- Generated by graphviz version 12.2.1 (20241206.2353)
 -->
<!-- Title: NukiOpener::NukiOpener::handleReturnMessage Pages: 1 -->
<svg width="660pt" height="275pt"
 viewBox="0.00 0.00 660.00 274.88" xmlns="http://www.w3.org/2000/svg" xmlns:xlink="http://www.w3.org/1999/xlink">
<g id="graph0" class="graph" transform="scale(1 1) rotate(0) translate(4 270.88)">
<title>NukiOpener::NukiOpener::handleReturnMessage</title>
<!-- Node1 -->
<g id="Node000001" class="node">
<title>Node1</title>
<g id="a_Node000001"><a xlink:title=" ">
<polygon fill="#999999" stroke="#666666" points="124,-149.88 0,-149.88 0,-119.38 124,-119.38 124,-149.88"/>
<text text-anchor="start" x="8" y="-136.38" font-family="Helvetica,sans-Serif" font-size="10.00">NukiOpener::NukiOpener</text>
<text text-anchor="middle" x="62" y="-125.12" font-family="Helvetica,sans-Serif" font-size="10.00">::handleReturnMessage</text>
</a>
</g>
</g>
<!-- Node2 -->
<g id="Node000002" class="node">
<title>Node2</title>
<g id="a_Node000002"><a xlink:href="class_nuki_1_1_nuki_ble.html#ac2e28f07ed0a738f73c5f77b46cdb1bb" target="_top" xlink:title=" ">
<polygon fill="white" stroke="#666666" points="306.12,-266.88 169.38,-266.88 169.38,-236.38 306.12,-236.38 306.12,-266.88"/>
<text text-anchor="start" x="177.38" y="-253.38" font-family="Helvetica,sans-Serif" font-size="10.00">Nuki::NukiBle::handleReturn</text>
<text text-anchor="middle" x="237.75" y="-242.12" font-family="Helvetica,sans-Serif" font-size="10.00">Message</text>
</a>
</g>
</g>
<!-- Node1&#45;&gt;Node2 -->
<g id="edge1_Node000001_Node000002" class="edge">
<title>Node1&#45;&gt;Node2</title>
<g id="a_edge1_Node000001_Node000002"><a xlink:title=" ">
<path fill="none" stroke="#63b8ff" d="M75.14,-150.08C92.06,-170.61 124.65,-206.74 160,-227.62 162.15,-228.89 164.37,-230.1 166.65,-231.26"/>
<polygon fill="#63b8ff" stroke="#63b8ff" points="164.98,-234.34 175.53,-235.31 167.88,-227.97 164.98,-234.34"/>
</a>
</g>
</g>
<!-- Node3 -->
<g id="Node000003" class="node">
<title>Node3</title>
<g id="a_Node000003"><a xlink:href="namespace_nuki_opener.html#a0a734c84a0fcb8e58a4fe1162747db98" target="_top" xlink:title=" ">
<polygon fill="white" stroke="#666666" points="315.5,-218.25 160,-218.25 160,-199 315.5,-199 315.5,-218.25"/>
<text text-anchor="middle" x="237.75" y="-204.75" font-family="Helvetica,sans-Serif" font-size="10.00">NukiOpener::logAdvancedConfig</text>
</a>
</g>
</g>
<!-- Node1&#45;&gt;Node3 -->
<g id="edge2_Node000001_Node000003" class="edge">
<title>Node1&#45;&gt;Node3</title>
<g id="a_edge2_Node000001_Node000003"><a xlink:title=" ">
<path fill="none" stroke="#63b8ff" d="M85.55,-150.21C104.62,-162.74 133.06,-179.96 160,-190.62 164.37,-192.35 168.94,-193.94 173.59,-195.4"/>
<polygon fill="#63b8ff" stroke="#63b8ff" points="172.48,-198.72 183.05,-198.13 174.42,-191.99 172.48,-198.72"/>
</a>
</g>
</g>
<!-- Node5 -->
<g id="Node000005" class="node">
<title>Node5</title>
<g id="a_Node000005"><a xlink:href="namespace_nuki_opener.html#addd007828c6aae2767c95081958d60dd" target="_top" xlink:title=" ">
<polygon fill="white" stroke="#666666" points="309.88,-181.25 165.62,-181.25 165.62,-162 309.88,-162 309.88,-181.25"/>
<text text-anchor="middle" x="237.75" y="-167.75" font-family="Helvetica,sans-Serif" font-size="10.00">NukiOpener::logBatteryReport</text>
</a>
</g>
</g>
<!-- Node1&#45;&gt;Node5 -->
<g id="edge4_Node000001_Node000005" class="edge">
<title>Node1&#45;&gt;Node5</title>
<g id="a_edge4_Node000001_Node000005"><a xlink:title=" ">
<path fill="none" stroke="#63b8ff" d="M124.26,-147.67C141.81,-151.41 160.89,-155.47 178.27,-159.17"/>
<polygon fill="#63b8ff" stroke="#63b8ff" points="177.43,-162.57 187.94,-161.23 178.88,-155.72 177.43,-162.57"/>
</a>
</g>
</g>
<!-- Node6 -->
<g id="Node000006" class="node">
<title>Node6</title>
<g id="a_Node000006"><a xlink:href="namespace_nuki_opener.html#a2e6270c8700b5a83a853b534ce59a08f" target="_top" xlink:title=" ">
<polygon fill="white" stroke="#666666" points="293.75,-144.25 181.75,-144.25 181.75,-125 293.75,-125 293.75,-144.25"/>
<text text-anchor="middle" x="237.75" y="-130.75" font-family="Helvetica,sans-Serif" font-size="10.00">NukiOpener::logConfig</text>
</a>
</g>
</g>
<!-- Node1&#45;&gt;Node6 -->
<g id="edge6_Node000001_Node000006" class="edge">
<title>Node1&#45;&gt;Node6</title>
<g id="a_edge6_Node000001_Node000006"><a xlink:title=" ">
<path fill="none" stroke="#63b8ff" d="M124.26,-134.62C139.05,-134.62 154.93,-134.62 169.96,-134.62"/>
<polygon fill="#63b8ff" stroke="#63b8ff" points="169.75,-138.13 179.75,-134.63 169.75,-131.13 169.75,-138.13"/>
</a>
</g>
</g>
<!-- Node7 -->
<g id="Node000007" class="node">
<title>Node7</title>
<g id="a_Node000007"><a xlink:href="namespace_nuki_opener.html#a510454c0171d807a1eebd77045481ba0" target="_top" xlink:title=" ">
<polygon fill="white" stroke="#666666" points="300.88,-69.88 174.62,-69.88 174.62,-39.38 300.88,-39.38 300.88,-69.88"/>
<text text-anchor="start" x="182.62" y="-56.38" font-family="Helvetica,sans-Serif" font-size="10.00">NukiOpener::logKeyturner</text>
<text text-anchor="middle" x="237.75" y="-45.12" font-family="Helvetica,sans-Serif" font-size="10.00">State</text>
</a>
</g>
</g>
<!-- Node1&#45;&gt;Node7 -->
<g id="edge8_Node000001_Node000007" class="edge">
<title>Node1&#45;&gt;Node7</title>
<g id="a_edge8_Node000001_Node000007"><a xlink:title=" ">
<path fill="none" stroke="#63b8ff" d="M86.54,-119.06C105.72,-106.87 133.82,-90.11 160,-78.62 163.49,-77.09 167.12,-75.61 170.8,-74.19"/>
<polygon fill="#63b8ff" stroke="#63b8ff" points="171.68,-77.6 179.87,-70.88 169.27,-71.03 171.68,-77.6"/>
</a>
</g>
</g>
<!-- Node12 -->
<g id="Node000012" class="node">
<title>Node12</title>
<g id="a_Node000012"><a xlink:href="namespace_nuki_opener.html#ad5810b4aac856a27473aedd0fe8f433e" target="_top" xlink:title=" ">
<polygon fill="white" stroke="#666666" points="299.38,-107.25 176.12,-107.25 176.12,-88 299.38,-88 299.38,-107.25"/>
<text text-anchor="middle" x="237.75" y="-93.75" font-family="Helvetica,sans-Serif" font-size="10.00">NukiOpener::logLogEntry</text>
</a>
</g>
</g>
<!-- Node1&#45;&gt;Node12 -->
<g id="edge16_Node000001_Node000012" class="edge">
<title>Node1&#45;&gt;Node12</title>
<g id="a_edge16_Node000001_Node000012"><a xlink:title=" ">
<path fill="none" stroke="#63b8ff" d="M124.26,-121.58C141.81,-117.84 160.89,-113.78 178.27,-110.08"/>
<polygon fill="#63b8ff" stroke="#63b8ff" points="178.88,-113.53 187.94,-108.02 177.43,-106.68 178.88,-113.53"/>
</a>
</g>
</g>
<!-- Node13 -->
<g id="Node000013" class="node">
<title>Node13</title>
<g id="a_Node000013"><a xlink:href="namespace_nuki.html#a438fdfcef9f81eb0a3e493631b71ca5b" target="_top" xlink:title=" ">
<polygon fill="white" stroke="#666666" points="280.25,-21.25 195.25,-21.25 195.25,-2 280.25,-2 280.25,-21.25"/>
<text text-anchor="middle" x="237.75" y="-7.75" font-family="Helvetica,sans-Serif" font-size="10.00">Nuki::printBuffer</text>
</a>
</g>
</g>
<!-- Node1&#45;&gt;Node13 -->
<g id="edge21_Node000001_Node000013" class="edge">
<title>Node1&#45;&gt;Node13</title>
<g id="a_edge21_Node000001_Node000013"><a xlink:title=" ">
<path fill="none" stroke="#63b8ff" d="M73.18,-118.91C88.94,-95.88 121.47,-53.27 160,-30.62 167.32,-26.32 175.59,-22.99 183.92,-20.41"/>
<polygon fill="#63b8ff" stroke="#63b8ff" points="184.64,-23.84 193.36,-17.83 182.8,-17.08 184.64,-23.84"/>
</a>
</g>
</g>
<!-- Node4 -->
<g id="Node000004" class="node">
<title>Node4</title>
<g id="a_Node000004"><a xlink:href="namespace_nuki_opener.html#ac87f753e40affc2a7be0d69862685555" target="_top" xlink:title=" ">
<polygon fill="white" stroke="#666666" points="491.25,-181.25 351.5,-181.25 351.5,-162 491.25,-162 491.25,-181.25"/>
<text text-anchor="middle" x="421.38" y="-167.75" font-family="Helvetica,sans-Serif" font-size="10.00">NukiOpener::logMessageVar</text>
</a>
</g>
</g>
<!-- Node3&#45;&gt;Node4 -->
<g id="edge3_Node000003_Node000004" class="edge">
<title>Node3&#45;&gt;Node4</title>
<g id="a_edge3_Node000003_Node000004"><a xlink:title=" ">
<path fill="none" stroke="#63b8ff" d="M288.38,-198.51C310.4,-194.03 336.53,-188.71 359.7,-183.99"/>
<polygon fill="#63b8ff" stroke="#63b8ff" points="360.22,-187.45 369.32,-182.03 358.82,-180.59 360.22,-187.45"/>
</a>
</g>
</g>
<!-- Node5&#45;&gt;Node4 -->
<g id="edge5_Node000005_Node000004" class="edge">
<title>Node5&#45;&gt;Node4</title>
<g id="a_edge5_Node000005_Node000004"><a xlink:title=" ">
<path fill="none" stroke="#63b8ff" d="M310.27,-171.62C319.98,-171.62 329.99,-171.62 339.84,-171.62"/>
<polygon fill="#63b8ff" stroke="#63b8ff" points="339.78,-175.13 349.78,-171.63 339.78,-168.13 339.78,-175.13"/>
</a>
</g>
</g>
<!-- Node6&#45;&gt;Node4 -->
<g id="edge7_Node000006_Node000004" class="edge">
<title>Node6&#45;&gt;Node4</title>
<g id="a_edge7_Node000006_Node000004"><a xlink:title=" ">
<path fill="none" stroke="#63b8ff" d="M288.38,-144.74C310.4,-149.22 336.53,-154.54 359.7,-159.26"/>
<polygon fill="#63b8ff" stroke="#63b8ff" points="358.82,-162.66 369.32,-161.22 360.22,-155.8 358.82,-162.66"/>
</a>
</g>
</g>
<!-- Node7&#45;&gt;Node4 -->
<g id="edge13_Node000007_Node000004" class="edge">
<title>Node7&#45;&gt;Node4</title>
<g id="a_edge13_Node000007_Node000004"><a xlink:title=" ">
<path fill="none" stroke="#63b8ff" d="M299.06,-70.37C304.79,-72.78 310.36,-75.52 315.5,-78.62 334.86,-90.34 334.77,-99.39 351.5,-114.62 366.89,-128.63 385.05,-143.6 398.86,-154.68"/>
<polygon fill="#63b8ff" stroke="#63b8ff" points="396.45,-157.24 406.45,-160.73 400.81,-151.76 396.45,-157.24"/>
</a>
</g>
</g>
<!-- Node8 -->
<g id="Node000008" class="node">
<title>Node8</title>
<g id="a_Node000008"><a xlink:href="namespace_nuki_opener.html#a6bf8f7b28ff29642c9206fe6fc3e0070" target="_top" xlink:title=" ">
<polygon fill="white" stroke="#666666" points="488.25,-67.88 354.5,-67.88 354.5,-37.38 488.25,-37.38 488.25,-67.88"/>
<text text-anchor="start" x="362.5" y="-54.38" font-family="Helvetica,sans-Serif" font-size="10.00">NukiOpener::logCompletion</text>
<text text-anchor="middle" x="421.38" y="-43.12" font-family="Helvetica,sans-Serif" font-size="10.00">Status</text>
</a>
</g>
</g>
<!-- Node7&#45;&gt;Node8 -->
<g id="edge9_Node000007_Node000008" class="edge">
<title>Node7&#45;&gt;Node8</title>
<g id="a_edge9_Node000007_Node000008"><a xlink:title=" ">
<path fill="none" stroke="#63b8ff" d="M301.26,-53.94C314.56,-53.79 328.77,-53.63 342.57,-53.48"/>
<polygon fill="#63b8ff" stroke="#63b8ff" points="342.56,-56.98 352.52,-53.37 342.49,-49.98 342.56,-56.98"/>
</a>
</g>
</g>
<!-- Node10 -->
<g id="Node000010" class="node">
<title>Node10</title>
<g id="a_Node000010"><a xlink:href="namespace_nuki_opener.html#a3e96f2a12b591da08c015e0ea11fb890" target="_top" xlink:title=" ">
<polygon fill="white" stroke="#666666" points="488.62,-105.25 354.12,-105.25 354.12,-86 488.62,-86 488.62,-105.25"/>
<text text-anchor="middle" x="421.38" y="-91.75" font-family="Helvetica,sans-Serif" font-size="10.00">NukiOpener::logLockAction</text>
</a>
</g>
</g>
<!-- Node7&#45;&gt;Node10 -->
<g id="edge11_Node000007_Node000010" class="edge">
<title>Node7&#45;&gt;Node10</title>
<g id="a_edge11_Node000007_Node000010"><a xlink:title=" ">
<path fill="none" stroke="#63b8ff" d="M301.26,-68.73C321.77,-73.36 344.42,-78.48 364.41,-82.99"/>
<polygon fill="#63b8ff" stroke="#63b8ff" points="363.52,-86.38 374.05,-85.17 365.07,-79.55 363.52,-86.38"/>
</a>
</g>
</g>
<!-- Node11 -->
<g id="Node000011" class="node">
<title>Node11</title>
<g id="a_Node000011"><a xlink:href="namespace_nuki_opener.html#a447a699b1fa6e98b086dd250d8db7825" target="_top" xlink:title=" ">
<polygon fill="white" stroke="#666666" points="489,-19.25 353.75,-19.25 353.75,0 489,0 489,-19.25"/>
<text text-anchor="middle" x="421.38" y="-5.75" font-family="Helvetica,sans-Serif" font-size="10.00">NukiOpener::logNukiTrigger</text>
</a>
</g>
</g>
<!-- Node7&#45;&gt;Node11 -->
<g id="edge14_Node000007_Node000011" class="edge">
<title>Node7&#45;&gt;Node11</title>
<g id="a_edge14_Node000007_Node000011"><a xlink:title=" ">
<path fill="none" stroke="#63b8ff" d="M301.26,-39.14C323.26,-33.69 347.73,-27.62 368.74,-22.42"/>
<polygon fill="#63b8ff" stroke="#63b8ff" points="369.36,-25.87 378.23,-20.07 367.68,-19.08 369.36,-25.87"/>
</a>
</g>
</g>
<!-- Node9 -->
<g id="Node000009" class="node">
<title>Node9</title>
<g id="a_Node000009"><a xlink:href="namespace_nuki_opener.html#abe42ec4ff1fe8d7a2324598ccb90732d" target="_top" xlink:title=" ">
<polygon fill="white" stroke="#666666" points="652,-83.25 527.25,-83.25 527.25,-64 652,-64 652,-83.25"/>
<text text-anchor="middle" x="589.62" y="-69.75" font-family="Helvetica,sans-Serif" font-size="10.00">NukiOpener::logMessage</text>
</a>
</g>
</g>
<!-- Node8&#45;&gt;Node9 -->
<g id="edge10_Node000008_Node000009" class="edge">
<title>Node8&#45;&gt;Node9</title>
<g id="a_edge10_Node000008_Node000009"><a xlink:title=" ">
<path fill="none" stroke="#63b8ff" d="M488.56,-60.99C497.47,-62.11 506.66,-63.27 515.68,-64.41"/>
<polygon fill="#63b8ff" stroke="#63b8ff" points="515.13,-67.87 525.49,-65.65 516,-60.92 515.13,-67.87"/>
</a>
</g>
</g>
<!-- Node10&#45;&gt;Node9 -->
<g id="edge12_Node000010_Node000009" class="edge">
<title>Node10&#45;&gt;Node9</title>
<g id="a_edge12_Node000010_Node000009"><a xlink:title=" ">
<path fill="none" stroke="#63b8ff" d="M489.04,-86.8C497.71,-85.66 506.62,-84.48 515.39,-83.32"/>
<polygon fill="#63b8ff" stroke="#63b8ff" points="515.84,-86.79 525.3,-82.01 514.92,-79.85 515.84,-86.79"/>
</a>
</g>
</g>
<!-- Node11&#45;&gt;Node9 -->
<g id="edge15_Node000011_Node000009" class="edge">
<title>Node11&#45;&gt;Node9</title>
<g id="a_edge15_Node000011_Node000009"><a xlink:title=" ">
<path fill="none" stroke="#63b8ff" d="M463.15,-19.69C472.48,-22.31 482.28,-25.34 491.25,-28.62 514.6,-37.18 540.09,-49.05 559.13,-58.45"/>
<polygon fill="#63b8ff" stroke="#63b8ff" points="557.39,-61.5 567.9,-62.85 560.53,-55.24 557.39,-61.5"/>
</a>
</g>
</g>
<!-- Node12&#45;&gt;Node4 -->
<g id="edge20_Node000012_Node000004" class="edge">
<title>Node12&#45;&gt;Node4</title>
<g id="a_edge20_Node000012_Node000004"><a xlink:title=" ">
<path fill="none" stroke="#63b8ff" d="M296.06,-107.71C302.8,-109.87 309.43,-112.47 315.5,-115.62 334.5,-125.48 333.04,-136.78 351.5,-147.62 358.03,-151.46 365.27,-154.81 372.52,-157.7"/>
<polygon fill="#63b8ff" stroke="#63b8ff" points="371.08,-160.9 381.67,-161.07 373.5,-154.33 371.08,-160.9"/>
</a>
</g>
</g>
<!-- Node12&#45;&gt;Node8 -->
<g id="edge17_Node000012_Node000008" class="edge">
<title>Node12&#45;&gt;Node8</title>
<g id="a_edge17_Node000012_Node000008"><a xlink:title=" ">
<path fill="none" stroke="#63b8ff" d="M279.38,-87.57C291.04,-84.68 303.77,-81.53 315.5,-78.62 325.33,-76.19 335.67,-73.63 345.88,-71.1"/>
<polygon fill="#63b8ff" stroke="#63b8ff" points="346.54,-74.54 355.41,-68.74 344.86,-67.74 346.54,-74.54"/>
</a>
</g>
</g>
<!-- Node12&#45;&gt;Node9 -->
<g id="edge19_Node000012_Node000009" class="edge">
<title>Node12&#45;&gt;Node9</title>
<g id="a_edge19_Node000012_Node000009"><a xlink:title=" ">
<path fill="none" stroke="#63b8ff" d="M283.46,-107.72C334.3,-117.56 419.54,-129.11 491.25,-114.62 515.86,-109.65 542,-98.28 560.99,-88.76"/>
<polygon fill="#63b8ff" stroke="#63b8ff" points="562.39,-91.98 569.67,-84.28 559.18,-85.76 562.39,-91.98"/>
</a>
</g>
</g>
<!-- Node12&#45;&gt;Node10 -->
<g id="edge18_Node000012_Node000010" class="edge">
<title>Node12&#45;&gt;Node10</title>
<g id="a_edge18_Node000012_Node000010"><a xlink:title=" ">
<path fill="none" stroke="#63b8ff" d="M299.73,-96.95C313.48,-96.8 328.24,-96.64 342.57,-96.48"/>
<polygon fill="#63b8ff" stroke="#63b8ff" points="342.46,-99.98 352.42,-96.37 342.39,-92.98 342.46,-99.98"/>
</a>
</g>
</g>
</g>
</svg>
