<?xml version="1.0" encoding="UTF-8" standalone="no"?>
<!DOCTYPE svg PUBLIC "-//W3C//DTD SVG 1.1//EN"
 "http://www.w3.org/Graphics/SVG/1.1/DTD/svg11.dtd">
<!-- Generated by graphviz version 11.0.0 (20240428.1522)
 -->
<!-- Title: Nuki::NukiBle::extendDisonnectTimeout Pages: 1 -->
<!--zoomable 518 -->

<svg id="main" version="1.1" xmlns="http://www.w3.org/2000/svg" xmlns:xlink="http://www.w3.org/1999/xlink" xml:space="preserve" onload="init(evt)">
<style type="text/css"><![CDATA[
.node, .edge {opacity: 0.7;}
.node.selected, .edge.selected {opacity: 1;}
.edge:hover path { stroke: red; }
.edge:hover polygon { stroke: red; fill: red; }
]]></style>

<defs>
  <circle id="rim" cx="0" cy="0" r="7"/>
  <circle id="rim2" cx="0" cy="0" r="3.5"/>
  <g id="zoomPlus">
    <use xlink:href="#rim" fill="#404040"><set attributeName="fill" to="#808080" begin="zoomplus.mouseover" end="zoomplus.mouseout"/></use>
    <path d="M-4,0h8M0,-4v8" fill="none" stroke="white" stroke-width="1.5" pointer-events="none"/>
  </g>
  <g id="zoomMin">
    <use xlink:href="#rim" fill="#404040"><set attributeName="fill" to="#808080" begin="zoomminus.mouseover" end="zoomminus.mouseout"/></use>
    <path d="M-4,0h8" fill="none" stroke="white" stroke-width="1.5" pointer-events="none"/>
  </g>
  <g id="arrowUp" transform="translate(30 24)">
    <use xlink:href="#rim"/>
    <path pointer-events="none" fill="none" stroke="white" stroke-width="1.5" d="M0,-3.0v7 M-2.5,-0.5L0,-3.0L2.5,-0.5"/>
  </g>
  <g id="arrowRight" transform="rotate(90) translate(36 -43)">
    <use xlink:href="#rim"/>
    <path pointer-events="none" fill="none" stroke="white" stroke-width="1.5" d="M0,-3.0v7 M-2.5,-0.5L0,-3.0L2.5,-0.5"/>
  </g>
  <g id="arrowDown" transform="rotate(180) translate(-30 -48)">
    <use xlink:href="#rim"/>
    <path pointer-events="none" fill="none" stroke="white" stroke-width="1.5" d="M0,-3.0v7 M-2.5,-0.5L0,-3.0L2.5,-0.5"/>
  </g>
  <g id="arrowLeft" transform="rotate(270) translate(-36 17)">
    <use xlink:href="#rim"/>
    <path pointer-events="none" fill="none" stroke="white" stroke-width="1.5" d="M0,-3.0v7 M-2.5,-0.5L0,-3.0L2.5,-0.5"/>
  </g>
  <g id="resetDef">
    <use xlink:href="#rim2" fill="#404040"><set attributeName="fill" to="#808080" begin="reset.mouseover" end="reset.mouseout"/></use>
  </g>
</defs>
<script type="application/ecmascript">
var viewWidth = 541;
var viewHeight = 518;
var sectionId = 'dynsection-11';
</script>
<script type="application/ecmascript" xlink:href="svg.min.js"/>
<svg id="graph" class="graph">
<g id="viewport">
<title>Nuki::NukiBle::extendDisonnectTimeout</title>
<!-- Node1 -->
<g id="Node000001" class="node">
<title>Node1</title>
<g id="a_Node000001"><a xlink:title=" ">
<polygon fill="#999999" stroke="#666666" points="533.25,-244.88 381.5,-244.88 381.5,-214.38 533.25,-214.38 533.25,-244.88"/>
<text text-anchor="start" x="389.5" y="-231.38" font-family="Helvetica,sans-Serif" font-size="10.00">Nuki::NukiBle::extendDisonnect</text>
<text text-anchor="middle" x="457.38" y="-220.12" font-family="Helvetica,sans-Serif" font-size="10.00">Timeout</text>
</a>
</g>
</g>
<!-- Node2 -->
<g id="Node000002" class="node">
<title>Node2</title>
<g id="a_Node000002"><a xlink:href="class_nuki_1_1_nuki_ble.html#af1f1e299e8d97e053bba80e92ba285d6" target="_top" xlink:title=" ">
<polygon fill="white" stroke="#666666" points="345.5,-258.25 204.25,-258.25 204.25,-239 345.5,-239 345.5,-258.25"/>
<text text-anchor="middle" x="274.88" y="-244.75" font-family="Helvetica,sans-Serif" font-size="10.00">Nuki::NukiBle::executeAction</text>
</a>
</g>
</g>
<!-- Node1&#45;&gt;Node2 -->
<g id="edge1_Node000001_Node000002" class="edge">
<title>Node1&#45;&gt;Node2</title>
<g id="a_edge1_Node000001_Node000002"><a xlink:title=" ">
<path fill="none" stroke="#63b8ff" d="M369.81,-238.74C361.76,-239.58 353.67,-240.44 345.8,-241.26"/>
<polygon fill="#63b8ff" stroke="#63b8ff" points="370.05,-242.23 379.63,-237.7 369.32,-235.27 370.05,-242.23"/>
</a>
</g>
</g>
<!-- Node15 -->
<g id="Node000015" class="node">
<title>Node15</title>
<g id="a_Node000015"><a xlink:href="class_nuki_1_1_nuki_ble.html#a787125bfc92266571d95e94da6756700" target="_top" xlink:title="Checks if credentials are stored in preferences, if not initiate pairing.">
<polygon fill="white" stroke="#666666" points="332.75,-221.25 217,-221.25 217,-202 332.75,-202 332.75,-221.25"/>
<text text-anchor="middle" x="274.88" y="-207.75" font-family="Helvetica,sans-Serif" font-size="10.00">Nuki::NukiBle::pairNuki</text>
</a>
</g>
</g>
<!-- Node1&#45;&gt;Node15 -->
<g id="edge14_Node000001_Node000015" class="edge">
<title>Node1&#45;&gt;Node15</title>
<g id="a_edge14_Node000001_Node000015"><a xlink:title=" ">
<path fill="none" stroke="#63b8ff" d="M369.76,-220.99C357.32,-219.75 344.79,-218.5 333.12,-217.33"/>
<polygon fill="#63b8ff" stroke="#63b8ff" points="369.33,-224.46 379.63,-221.97 370.02,-217.5 369.33,-224.46"/>
</a>
</g>
</g>
<!-- Node3 -->
<g id="Node000003" class="node">
<title>Node3</title>
<g id="a_Node000003"><a xlink:href="class_nuki_1_1_nuki_ble.html#a8c69d960c9034d3ae5877285b666f09c" target="_top" xlink:title="Sends a new authorization entry to the lock via BLE.">
<polygon fill="white" stroke="#666666" points="160,-509.88 8.25,-509.88 8.25,-479.38 160,-479.38 160,-509.88"/>
<text text-anchor="start" x="16.25" y="-496.38" font-family="Helvetica,sans-Serif" font-size="10.00">Nuki::NukiBle::addAuthorization</text>
<text text-anchor="middle" x="84.12" y="-485.12" font-family="Helvetica,sans-Serif" font-size="10.00">Entry</text>
</a>
</g>
</g>
<!-- Node2&#45;&gt;Node3 -->
<g id="edge2_Node000002_Node000003" class="edge">
<title>Node2&#45;&gt;Node3</title>
<g id="a_edge2_Node000002_Node000003"><a xlink:title=" ">
<path fill="none" stroke="#63b8ff" d="M269.71,-270.02C260,-314.04 231.73,-415.22 168.25,-469.62 164.02,-473.25 159.27,-476.36 154.25,-479.01"/>
<polygon fill="#63b8ff" stroke="#63b8ff" points="273.13,-270.73 271.74,-260.23 266.28,-269.31 273.13,-270.73"/>
</a>
</g>
</g>
<!-- Node4 -->
<g id="Node000004" class="node">
<title>Node4</title>
<g id="a_Node000004"><a xlink:href="class_nuki_1_1_nuki_ble.html#ad96ef33212df343aa1433229f58f2ff7" target="_top" xlink:title="Send a new keypad entry to the lock via BLE.">
<polygon fill="white" stroke="#666666" points="148,-460.88 20.25,-460.88 20.25,-430.38 148,-430.38 148,-460.88"/>
<text text-anchor="start" x="28.25" y="-447.38" font-family="Helvetica,sans-Serif" font-size="10.00">Nuki::NukiBle::addKeypad</text>
<text text-anchor="middle" x="84.12" y="-436.12" font-family="Helvetica,sans-Serif" font-size="10.00">Entry</text>
</a>
</g>
</g>
<!-- Node2&#45;&gt;Node4 -->
<g id="edge3_Node000002_Node000004" class="edge">
<title>Node2&#45;&gt;Node4</title>
<g id="a_edge3_Node000002_Node000004"><a xlink:title=" ">
<path fill="none" stroke="#63b8ff" d="M266.86,-269.17C253.49,-305.28 220.89,-380.1 168.25,-420.62 162.28,-425.22 155.47,-428.98 148.38,-432.04"/>
<polygon fill="#63b8ff" stroke="#63b8ff" points="270.09,-270.54 270.15,-259.94 263.5,-268.19 270.09,-270.54"/>
</a>
</g>
</g>
<!-- Node5 -->
<g id="Node000005" class="node">
<title>Node5</title>
<g id="a_Node000005"><a xlink:href="class_nuki_1_1_nuki_ble.html#a1aacb6b629b0e93a6f819732ab95922b" target="_top" xlink:title="Delete a Keypad Entry.">
<polygon fill="white" stroke="#666666" points="153.25,-411.88 15,-411.88 15,-381.38 153.25,-381.38 153.25,-411.88"/>
<text text-anchor="start" x="23" y="-398.38" font-family="Helvetica,sans-Serif" font-size="10.00">Nuki::NukiBle::deleteKeypad</text>
<text text-anchor="middle" x="84.12" y="-387.12" font-family="Helvetica,sans-Serif" font-size="10.00">Entry</text>
</a>
</g>
</g>
<!-- Node2&#45;&gt;Node5 -->
<g id="edge4_Node000002_Node000005" class="edge">
<title>Node2&#45;&gt;Node5</title>
<g id="a_edge4_Node000002_Node000005"><a xlink:title=" ">
<path fill="none" stroke="#63b8ff" d="M262.31,-268.39C245.21,-295.86 210.62,-345.28 168.25,-372.62 163.33,-375.8 157.98,-378.57 152.44,-380.97"/>
<polygon fill="#63b8ff" stroke="#63b8ff" points="265.2,-270.38 267.38,-260.01 259.21,-266.75 265.2,-270.38"/>
</a>
</g>
</g>
<!-- Node6 -->
<g id="Node000006" class="node">
<title>Node6</title>
<g id="a_Node000006"><a xlink:href="class_nuki_1_1_nuki_ble.html#a5c80321a4355c9394be7a7de29133c7b" target="_top" xlink:title="Sends an calibration (mechanical) request to the lock via BLE.">
<polygon fill="white" stroke="#666666" points="163,-363.25 5.25,-363.25 5.25,-344 163,-344 163,-363.25"/>
<text text-anchor="middle" x="84.12" y="-349.75" font-family="Helvetica,sans-Serif" font-size="10.00">Nuki::NukiBle::requestCalibration</text>
</a>
</g>
</g>
<!-- Node2&#45;&gt;Node6 -->
<g id="edge5_Node000002_Node000006" class="edge">
<title>Node2&#45;&gt;Node6</title>
<g id="a_edge5_Node000002_Node000006"><a xlink:title=" ">
<path fill="none" stroke="#63b8ff" d="M257.22,-266.77C237.82,-286.76 203.85,-318.38 168.25,-335.62 161.74,-338.78 154.67,-341.39 147.51,-343.54"/>
<polygon fill="#63b8ff" stroke="#63b8ff" points="259.69,-269.25 264.03,-259.59 254.61,-264.44 259.69,-269.25"/>
</a>
</g>
</g>
<!-- Node7 -->
<g id="Node000007" class="node">
<title>Node7</title>
<g id="a_Node000007"><a xlink:href="class_nuki_1_1_nuki_ble.html#a80e616a2f3d29be9d96d5233b9fefa1a" target="_top" xlink:title="Sends an reboot request to the lock via BLE.">
<polygon fill="white" stroke="#666666" points="155.5,-326.25 12.75,-326.25 12.75,-307 155.5,-307 155.5,-326.25"/>
<text text-anchor="middle" x="84.12" y="-312.75" font-family="Helvetica,sans-Serif" font-size="10.00">Nuki::NukiBle::requestReboot</text>
</a>
</g>
</g>
<!-- Node2&#45;&gt;Node7 -->
<g id="edge6_Node000002_Node000007" class="edge">
<title>Node2&#45;&gt;Node7</title>
<g id="a_edge6_Node000002_Node000007"><a xlink:title=" ">
<path fill="none" stroke="#63b8ff" d="M245.19,-263.93C224.32,-274.57 195.13,-288.43 168.25,-297.62 158.3,-301.03 147.48,-304 137.03,-306.53"/>
<polygon fill="#63b8ff" stroke="#63b8ff" points="246.67,-267.11 253.94,-259.4 243.45,-260.89 246.67,-267.11"/>
</a>
</g>
</g>
<!-- Node8 -->
<g id="Node000008" class="node">
<title>Node8</title>
<g id="a_Node000008"><a xlink:href="class_nuki_1_1_nuki_ble.html#a0fb824539f7166cc53162e94267f0db0" target="_top" xlink:title="Request the lock via BLE to send the existing authorizationentries.">
<polygon fill="white" stroke="#666666" points="168.25,-288.88 0,-288.88 0,-258.38 168.25,-258.38 168.25,-288.88"/>
<text text-anchor="start" x="8" y="-275.38" font-family="Helvetica,sans-Serif" font-size="10.00">Nuki::NukiBle::retrieveAuthorization</text>
<text text-anchor="middle" x="84.12" y="-264.12" font-family="Helvetica,sans-Serif" font-size="10.00">Entries</text>
</a>
</g>
</g>
<!-- Node2&#45;&gt;Node8 -->
<g id="edge7_Node000002_Node000008" class="edge">
<title>Node2&#45;&gt;Node8</title>
<g id="a_edge7_Node000002_Node000008"><a xlink:title=" ">
<path fill="none" stroke="#63b8ff" d="M192.63,-259.39C184.62,-260.45 176.47,-261.53 168.43,-262.59"/>
<polygon fill="#63b8ff" stroke="#63b8ff" points="192.91,-262.88 202.36,-258.1 191.99,-255.94 192.91,-262.88"/>
</a>
</g>
</g>
<!-- Node9 -->
<g id="Node000009" class="node">
<title>Node9</title>
<g id="a_Node000009"><a xlink:href="class_nuki_1_1_nuki_ble.html#a6f669d52198915978c51ee441aec3c6d" target="_top" xlink:title="Request the lock via BLE to send the existing keypad entries.">
<polygon fill="white" stroke="#666666" points="156.25,-239.88 12,-239.88 12,-209.38 156.25,-209.38 156.25,-239.88"/>
<text text-anchor="start" x="20" y="-226.38" font-family="Helvetica,sans-Serif" font-size="10.00">Nuki::NukiBle::retrieveKeypad</text>
<text text-anchor="middle" x="84.12" y="-215.12" font-family="Helvetica,sans-Serif" font-size="10.00">Entries</text>
</a>
</g>
</g>
<!-- Node2&#45;&gt;Node9 -->
<g id="edge8_Node000002_Node000009" class="edge">
<title>Node2&#45;&gt;Node9</title>
<g id="a_edge8_Node000002_Node000009"><a xlink:title=" ">
<path fill="none" stroke="#63b8ff" d="M192.52,-238.28C180.57,-236.76 168.33,-235.21 156.6,-233.71"/>
<polygon fill="#63b8ff" stroke="#63b8ff" points="192,-241.74 202.36,-239.53 192.88,-234.8 192,-241.74"/>
</a>
</g>
</g>
<!-- Node10 -->
<g id="Node000010" class="node">
<title>Node10</title>
<g id="a_Node000010"><a xlink:href="class_nuki_1_1_nuki_ble.html#a6603fe4282fcab83f3038400e2c70207" target="_top" xlink:title="Send the new pincode command to the lock via BLE (this command uses the earlier by saveSecurityPincod...">
<polygon fill="white" stroke="#666666" points="155.5,-191.25 12.75,-191.25 12.75,-172 155.5,-172 155.5,-191.25"/>
<text text-anchor="middle" x="84.12" y="-177.75" font-family="Helvetica,sans-Serif" font-size="10.00">Nuki::NukiBle::setSecurityPin</text>
</a>
</g>
</g>
<!-- Node2&#45;&gt;Node10 -->
<g id="edge9_Node000002_Node000010" class="edge">
<title>Node2&#45;&gt;Node10</title>
<g id="a_edge9_Node000002_Node000010"><a xlink:title=" ">
<path fill="none" stroke="#63b8ff" d="M213.18,-234.7C210.11,-233.45 207.11,-232.09 204.25,-230.62 185.72,-221.12 186.91,-209.87 168.25,-200.62 160.95,-197.01 152.96,-194.08 144.89,-191.69"/>
<polygon fill="#63b8ff" stroke="#63b8ff" points="211.79,-237.92 222.39,-238.04 214.18,-231.34 211.79,-237.92"/>
</a>
</g>
</g>
<!-- Node11 -->
<g id="Node000011" class="node">
<title>Node11</title>
<g id="a_Node000011"><a xlink:href="class_nuki_1_1_nuki_ble.html#af47efb4e020a327687327ad82963b347" target="_top" xlink:title="Sends an updated authorization entry to the lock via BLE.">
<polygon fill="white" stroke="#666666" points="166.75,-153.88 1.5,-153.88 1.5,-123.38 166.75,-123.38 166.75,-153.88"/>
<text text-anchor="start" x="9.5" y="-140.38" font-family="Helvetica,sans-Serif" font-size="10.00">Nuki::NukiBle::updateAuthorization</text>
<text text-anchor="middle" x="84.12" y="-129.12" font-family="Helvetica,sans-Serif" font-size="10.00">Entry</text>
</a>
</g>
</g>
<!-- Node2&#45;&gt;Node11 -->
<g id="edge10_Node000002_Node000011" class="edge">
<title>Node2&#45;&gt;Node11</title>
<g id="a_edge10_Node000002_Node000011"><a xlink:title=" ">
<path fill="none" stroke="#63b8ff" d="M207.75,-233.17C206.55,-232.37 205.38,-231.52 204.25,-230.62 177.41,-209.43 194.79,-184.19 168.25,-162.62 164.29,-159.4 159.91,-156.61 155.3,-154.2"/>
<polygon fill="#63b8ff" stroke="#63b8ff" points="205.77,-236.07 216.21,-237.84 209.15,-229.95 205.77,-236.07"/>
</a>
</g>
</g>
<!-- Node12 -->
<g id="Node000012" class="node">
<title>Node12</title>
<g id="a_Node000012"><a xlink:href="class_nuki_1_1_nuki_ble.html#a0f1be2034e079e676a7771dfb775df81" target="_top" xlink:title="Send an updated keypad entry to the lock via BLE.">
<polygon fill="white" stroke="#666666" points="154.75,-104.88 13.5,-104.88 13.5,-74.38 154.75,-74.38 154.75,-104.88"/>
<text text-anchor="start" x="21.5" y="-91.38" font-family="Helvetica,sans-Serif" font-size="10.00">Nuki::NukiBle::updateKeypad</text>
<text text-anchor="middle" x="84.12" y="-80.12" font-family="Helvetica,sans-Serif" font-size="10.00">Entry</text>
</a>
</g>
</g>
<!-- Node2&#45;&gt;Node12 -->
<g id="edge11_Node000002_Node000012" class="edge">
<title>Node2&#45;&gt;Node12</title>
<g id="a_edge11_Node000002_Node000012"><a xlink:title=" ">
<path fill="none" stroke="#63b8ff" d="M206.18,-232.36C205.52,-231.8 204.88,-231.22 204.25,-230.62 165.18,-193.38 206.59,-152.63 168.25,-114.62 164.4,-110.81 159.98,-107.57 155.24,-104.82"/>
<polygon fill="#63b8ff" stroke="#63b8ff" points="204.02,-235.13 214.28,-237.8 207.93,-229.32 204.02,-235.13"/>
</a>
</g>
</g>
<!-- Node13 -->
<g id="Node000013" class="node">
<title>Node13</title>
<g id="a_Node000013"><a xlink:href="class_nuki_1_1_nuki_ble.html#aac2e6b5ca939d23e8f590519b78df9f1" target="_top" xlink:title="Sends the time to be set to the lock via BLE.">
<polygon fill="white" stroke="#666666" points="149.5,-56.25 18.75,-56.25 18.75,-37 149.5,-37 149.5,-56.25"/>
<text text-anchor="middle" x="84.12" y="-42.75" font-family="Helvetica,sans-Serif" font-size="10.00">Nuki::NukiBle::updateTime</text>
</a>
</g>
</g>
<!-- Node2&#45;&gt;Node13 -->
<g id="edge12_Node000002_Node000013" class="edge">
<title>Node2&#45;&gt;Node13</title>
<g id="a_edge12_Node000002_Node000013"><a xlink:title=" ">
<path fill="none" stroke="#63b8ff" d="M205.41,-231.78C205.01,-231.4 204.63,-231.02 204.25,-230.62 152.2,-176.55 221.06,-118.96 168.25,-65.62 163.04,-60.37 156.7,-56.44 149.86,-53.52"/>
<polygon fill="#63b8ff" stroke="#63b8ff" points="203.24,-234.53 213.36,-237.68 207.41,-228.91 203.24,-234.53"/>
</a>
</g>
</g>
<!-- Node14 -->
<g id="Node000014" class="node">
<title>Node14</title>
<g id="a_Node000014"><a xlink:href="class_nuki_1_1_nuki_ble.html#a2c962e2c69d9063972790109704dd233" target="_top" xlink:title="Send the verify pincode command via BLE to the lock. This command uses the earlier by saveSecurityPin...">
<polygon fill="white" stroke="#666666" points="160.38,-19.25 7.88,-19.25 7.88,0 160.38,0 160.38,-19.25"/>
<text text-anchor="middle" x="84.12" y="-5.75" font-family="Helvetica,sans-Serif" font-size="10.00">Nuki::NukiBle::verifySecurityPin</text>
</a>
</g>
</g>
<!-- Node2&#45;&gt;Node14 -->
<g id="edge13_Node000002_Node000014" class="edge">
<title>Node2&#45;&gt;Node14</title>
<g id="a_edge13_Node000002_Node000014"><a xlink:title=" ">
<path fill="none" stroke="#63b8ff" d="M205.07,-231.49C204.79,-231.2 204.52,-230.92 204.25,-230.62 142.02,-163.37 231.81,-93.63 168.25,-27.62 165.28,-24.54 161.92,-21.92 158.29,-19.71"/>
<polygon fill="#63b8ff" stroke="#63b8ff" points="202.88,-234.21 212.92,-237.59 207.18,-228.69 202.88,-234.21"/>
</a>
</g>
</g>
</g>
</svg>

<g id="navigator" transform="translate(0 0)" fill="#404254">
  <rect fill="#f2f5e9" fill-opacity="0.5" stroke="#606060" stroke-width=".5" x="0" y="0" width="60" height="60"/>
  <use id="zoomplus" xlink:href="#zoomPlus" x="17" y="9" onmousedown="handleZoom(evt,'in')"/>
  <use id="zoomminus" xlink:href="#zoomMin" x="42" y="9" onmousedown="handleZoom(evt,'out')"/>
  <use id="reset" xlink:href="#resetDef" x="30" y="36" onmousedown="handleReset()"/>
   <use id="arrowup" xlink:href="#arrowUp" x="0" y="0" onmousedown="handlePan(0,-1)"/>
  <use id="arrowright" xlink:href="#arrowRight" x="0" y="0" onmousedown="handlePan(1,0)"/>
  <use id="arrowdown" xlink:href="#arrowDown" x="0" y="0" onmousedown="handlePan(0,1)"/>
  <use id="arrowleft" xlink:href="#arrowLeft" x="0" y="0" onmousedown="handlePan(-1,0)"/>
</g>
<svg viewBox="0 0 15 15" width="100%" height="30px" preserveAspectRatio="xMaxYMin meet">
 <g id="arrow_out" transform="scale(0.3 0.3)">
  <a xlink:href="class_nuki_1_1_nuki_ble_aed01f10d1ffa769f0f6fadc0d06d328e_icgraph_org.svg" target="_base">
   <rect id="button" ry="5" rx="5" y="6" x="6" height="38" width="38"
        fill="#f2f5e9" fill-opacity="0.5" stroke="#606060" stroke-width="1.0"/>
   <path id="arrow"
     d="M 11.500037,31.436501 C 11.940474,20.09759 22.043105,11.32322 32.158766,21.979434 L 37.068811,17.246167 C 37.068811,17.246167 37.088388,32 37.088388,32 L 22.160133,31.978069 C 22.160133,31.978069 26.997745,27.140456 26.997745,27.140456 C 18.528582,18.264221 13.291696,25.230495 11.500037,31.436501 z"
     style="fill:#404040;"/>
  </a>
 </g>
</svg>

<style type='text/css'>
<![CDATA[
[data-mouse-over-selected='false'] { opacity: 0.7; }
[data-mouse-over-selected='true']  { opacity: 1.0; }
]]>
</style>
<script type="application/ecmascript"><![CDATA[
document.addEventListener('DOMContentLoaded', (event) => {
  highlightEdges();
  highlightAdjacentNodes();
});
]]></script>
</svg>
