<?xml version="1.0" encoding="UTF-8" standalone="no"?>
<!DOCTYPE svg PUBLIC "-//W3C//DTD SVG 1.1//EN"
 "http://www.w3.org/Graphics/SVG/1.1/DTD/svg11.dtd">
<!-- Generated by graphviz version 5.0.1 (20220820.1526)
 -->
<!-- Title: Nuki::NukiBle::verifySecurityPin Pages: 1 -->
<svg width="628pt" height="186pt"
 viewBox="0.00 0.00 628.00 186.00" xmlns="http://www.w3.org/2000/svg" xmlns:xlink="http://www.w3.org/1999/xlink">
<g id="graph0" class="graph" transform="scale(1 1) rotate(0) translate(4 182)">
<title>Nuki::NukiBle::verifySecurityPin</title>
<!-- Node1 -->
<g id="node1" class="node">
<title>Node1</title>
<g id="a_node1"><a xlink:title="Send the verify pincode command via BLE to the lock. This command uses the earlier by saveSecurityPin...">
<polygon fill="#999999" stroke="#666666" points="185,-96.5 0,-96.5 0,-75.5 185,-75.5 185,-96.5"/>
<text text-anchor="middle" x="92.5" y="-82.9" font-family="Helvetica,sans-Serif" font-size="12.00">Nuki::NukiBle::verifySecurityPin</text>
</a>
</g>
</g>
<!-- Node2 -->
<g id="node2" class="node">
<title>Node2</title>
<g id="a_node2"><a xlink:href="class_nuki_1_1_nuki_ble.html#af1f1e299e8d97e053bba80e92ba285d6" target="_top" xlink:title=" ">
<polygon fill="white" stroke="#666666" points="392,-96.5 221,-96.5 221,-75.5 392,-75.5 392,-96.5"/>
<text text-anchor="middle" x="306.5" y="-82.9" font-family="Helvetica,sans-Serif" font-size="12.00">Nuki::NukiBle::executeAction</text>
</a>
</g>
</g>
<!-- Node1&#45;&gt;Node2 -->
<g id="edge1" class="edge">
<title>Node1&#45;&gt;Node2</title>
<path fill="none" stroke="#63b8ff" d="M185.25,-86C193.69,-86 202.24,-86 210.7,-86"/>
<polygon fill="#63b8ff" stroke="#63b8ff" points="210.96,-89.5 220.96,-86 210.96,-82.5 210.96,-89.5"/>
</g>
<!-- Node3 -->
<g id="node3" class="node">
<title>Node3</title>
<g id="a_node3"><a xlink:href="class_nuki_1_1_nuki_ble.html#ada0f3beebd95d35c122e25dd3f9eb886" target="_top" xlink:title=" ">
<polygon fill="white" stroke="#666666" points="606,-178 442,-178 442,-144 606,-144 606,-178"/>
<text text-anchor="start" x="450" y="-164.4" font-family="Helvetica,sans-Serif" font-size="12.00">Nuki::NukiBle::cmdChallAcc</text>
<text text-anchor="middle" x="524" y="-151.4" font-family="Helvetica,sans-Serif" font-size="12.00">StateMachine</text>
</a>
</g>
</g>
<!-- Node2&#45;&gt;Node3 -->
<g id="edge2" class="edge">
<title>Node2&#45;&gt;Node3</title>
<path fill="none" stroke="#63b8ff" d="M331.19,-96.61C355.26,-107.16 393.78,-123.4 428,-135 434.06,-137.05 440.37,-139.06 446.74,-140.99"/>
<polygon fill="#63b8ff" stroke="#63b8ff" points="446.18,-144.48 456.77,-143.96 448.17,-137.77 446.18,-144.48"/>
</g>
<!-- Node4 -->
<g id="node4" class="node">
<title>Node4</title>
<g id="a_node4"><a xlink:href="class_nuki_1_1_nuki_ble.html#a59169a9f492793762e3c6ba39b611b07" target="_top" xlink:title=" ">
<polygon fill="white" stroke="#666666" points="610,-126 438,-126 438,-92 610,-92 610,-126"/>
<text text-anchor="start" x="446" y="-112.4" font-family="Helvetica,sans-Serif" font-size="12.00">Nuki::NukiBle::cmdChallState</text>
<text text-anchor="middle" x="524" y="-99.4" font-family="Helvetica,sans-Serif" font-size="12.00">Machine</text>
</a>
</g>
</g>
<!-- Node2&#45;&gt;Node4 -->
<g id="edge3" class="edge">
<title>Node2&#45;&gt;Node4</title>
<path fill="none" stroke="#63b8ff" d="M392.05,-95.02C403.84,-96.28 416.03,-97.58 427.99,-98.86"/>
<polygon fill="#63b8ff" stroke="#63b8ff" points="427.67,-102.35 437.98,-99.93 428.41,-95.38 427.67,-102.35"/>
</g>
<!-- Node5 -->
<g id="node5" class="node">
<title>Node5</title>
<g id="a_node5"><a xlink:href="class_nuki_1_1_nuki_ble.html#ad135bb1455665decfddff67772c1d411" target="_top" xlink:title=" ">
<polygon fill="white" stroke="#666666" points="620,-73.5 428,-73.5 428,-52.5 620,-52.5 620,-73.5"/>
<text text-anchor="middle" x="524" y="-59.9" font-family="Helvetica,sans-Serif" font-size="12.00">Nuki::NukiBle::cmdStateMachine</text>
</a>
</g>
</g>
<!-- Node2&#45;&gt;Node5 -->
<g id="edge4" class="edge">
<title>Node2&#45;&gt;Node5</title>
<path fill="none" stroke="#63b8ff" d="M392.05,-76.98C400.53,-76.07 409.2,-75.15 417.86,-74.22"/>
<polygon fill="#63b8ff" stroke="#63b8ff" points="418.42,-77.68 427.99,-73.14 417.68,-70.72 418.42,-77.68"/>
</g>
<!-- Node6 -->
<g id="node6" class="node">
<title>Node6</title>
<g id="a_node6"><a xlink:href="class_nuki_1_1_nuki_ble.html#aed01f10d1ffa769f0f6fadc0d06d328e" target="_top" xlink:title=" ">
<polygon fill="white" stroke="#666666" points="616.5,-34 431.5,-34 431.5,0 616.5,0 616.5,-34"/>
<text text-anchor="start" x="439.5" y="-20.4" font-family="Helvetica,sans-Serif" font-size="12.00">Nuki::NukiBle::extendDisonnect</text>
<text text-anchor="middle" x="524" y="-7.4" font-family="Helvetica,sans-Serif" font-size="12.00">Timeout</text>
</a>
</g>
</g>
<!-- Node2&#45;&gt;Node6 -->
<g id="edge5" class="edge">
<title>Node2&#45;&gt;Node6</title>
<path fill="none" stroke="#63b8ff" d="M336.56,-75.34C360.87,-66.54 396.52,-53.95 428,-44 435.56,-41.61 443.48,-39.21 451.39,-36.87"/>
<polygon fill="#63b8ff" stroke="#63b8ff" points="452.4,-40.22 461.01,-34.05 450.43,-33.5 452.4,-40.22"/>
</g>
</g>
</svg>
