<?xml version="1.0" encoding="UTF-8" standalone="no"?>
<!DOCTYPE svg PUBLIC "-//W3C//DTD SVG 1.1//EN"
 "http://www.w3.org/Graphics/SVG/1.1/DTD/svg11.dtd">
<!-- Generated by graphviz version 12.2.1 (20241206.2353)
 -->
<!-- Title: NukiOpener::NukiOpener::enableAutoBatteryTypeDetection Pages: 1 -->
<!--zoomable 215 -->

<svg id="main" version="1.1" xmlns="http://www.w3.org/2000/svg" xmlns:xlink="http://www.w3.org/1999/xlink" xml:space="preserve" onload="init(evt)">

<style type="text/css"><![CDATA[
.node, .edge {opacity: 0.7;}
.node.selected, .edge.selected {opacity: 1;}
.edge:hover path { stroke: red; }
.edge:hover polygon { stroke: red; fill: red; }
]]></style>

<defs>
  <circle id="rim" cx="0" cy="0" r="7"/>
  <circle id="rim2" cx="0" cy="0" r="3.5"/>
  <g id="zoomPlus">
    <use xlink:href="#rim" fill="#404040"><set attributeName="fill" to="#808080" begin="zoomplus.mouseover" end="zoomplus.mouseout"/></use>
    <path d="M-4,0h8M0,-4v8" fill="none" stroke="white" stroke-width="1.5" pointer-events="none"/>
  </g>
  <g id="zoomMin">
    <use xlink:href="#rim" fill="#404040"><set attributeName="fill" to="#808080" begin="zoomminus.mouseover" end="zoomminus.mouseout"/></use>
    <path d="M-4,0h8" fill="none" stroke="white" stroke-width="1.5" pointer-events="none"/>
  </g>
  <g id="arrowUp" transform="translate(30 24)">
    <use xlink:href="#rim"/>
    <path pointer-events="none" fill="none" stroke="white" stroke-width="1.5" d="M0,-3.0v7 M-2.5,-0.5L0,-3.0L2.5,-0.5"/>
  </g>
  <g id="arrowRight" transform="rotate(90) translate(36 -43)">
    <use xlink:href="#rim"/>
    <path pointer-events="none" fill="none" stroke="white" stroke-width="1.5" d="M0,-3.0v7 M-2.5,-0.5L0,-3.0L2.5,-0.5"/>
  </g>
  <g id="arrowDown" transform="rotate(180) translate(-30 -48)">
    <use xlink:href="#rim"/>
    <path pointer-events="none" fill="none" stroke="white" stroke-width="1.5" d="M0,-3.0v7 M-2.5,-0.5L0,-3.0L2.5,-0.5"/>
  </g>
  <g id="arrowLeft" transform="rotate(270) translate(-36 17)">
    <use xlink:href="#rim"/>
    <path pointer-events="none" fill="none" stroke="white" stroke-width="1.5" d="M0,-3.0v7 M-2.5,-0.5L0,-3.0L2.5,-0.5"/>
  </g>
  <g id="resetDef">
    <use xlink:href="#rim2" fill="#404040"><set attributeName="fill" to="#808080" begin="reset.mouseover" end="reset.mouseout"/></use>
  </g>
</defs>
<script type="application/ecmascript">
var viewWidth = 895;
var viewHeight = 215;
var sectionId = 'dynsection-5';
</script>
<script type="application/ecmascript" xlink:href="svg.min.js"/>
<svg id="graph" class="graph">
<g id="viewport">
<title>NukiOpener::NukiOpener::enableAutoBatteryTypeDetection</title>
<!-- Node1 -->
<g id="Node000001" class="node">
<title>Node1</title>
<g id="a_Node000001"><a xlink:title="Gets the current advanced config from the opener, updates the enable battery type detection parameter...">
<polygon fill="#999999" stroke="#666666" points="162.25,-123.78 0,-123.78 0,-93.28 162.25,-93.28 162.25,-123.78"/>
<text text-anchor="start" x="8" y="-110.28" font-family="Helvetica,sans-Serif" font-size="10.00">NukiOpener::NukiOpener</text>
<text text-anchor="middle" x="81.12" y="-99.03" font-family="Helvetica,sans-Serif" font-size="10.00">::enableAutoBatteryTypeDetection</text>
</a>
</g>
</g>
<!-- Node2 -->
<g id="Node000002" class="node">
<title>Node2</title>
<g id="a_Node000002"><a xlink:href="class_nuki_opener_1_1_nuki_opener.html#adf50e8b8e35409d8aa43de69c43535b5" target="_top" xlink:title="Requests advanced config from Opener via BLE.">
<polygon fill="white" stroke="#666666" points="322.25,-123.78 198.25,-123.78 198.25,-93.28 322.25,-93.28 322.25,-123.78"/>
<text text-anchor="start" x="206.25" y="-110.28" font-family="Helvetica,sans-Serif" font-size="10.00">NukiOpener::NukiOpener</text>
<text text-anchor="middle" x="260.25" y="-99.03" font-family="Helvetica,sans-Serif" font-size="10.00">::requestAdvancedConfig</text>
</a>
</g>
</g>
<!-- Node1&#45;&gt;Node2 -->
<g id="edge1_Node000001_Node000002" class="edge">
<title>Node1&#45;&gt;Node2</title>
<g id="a_edge1_Node000001_Node000002"><a xlink:title=" ">
<path fill="none" stroke="#63b8ff" d="M162.65,-108.53C170.57,-108.53 178.58,-108.53 186.42,-108.53"/>
<polygon fill="#63b8ff" stroke="#63b8ff" points="186.24,-112.03 196.24,-108.53 186.24,-105.03 186.24,-112.03"/>
</a>
</g>
</g>
<!-- Node3 -->
<g id="Node000003" class="node">
<title>Node3</title>
<g id="a_Node000003"><a xlink:href="class_nuki_1_1_nuki_ble.html#af1f1e299e8d97e053bba80e92ba285d6" target="_top" xlink:title=" ">
<polygon fill="white" stroke="#666666" points="499.5,-118.16 358.25,-118.16 358.25,-98.91 499.5,-98.91 499.5,-118.16"/>
<text text-anchor="middle" x="428.88" y="-104.66" font-family="Helvetica,sans-Serif" font-size="10.00">Nuki::NukiBle::executeAction</text>
</a>
</g>
</g>
<!-- Node2&#45;&gt;Node3 -->
<g id="edge2_Node000002_Node000003" class="edge">
<title>Node2&#45;&gt;Node3</title>
<g id="a_edge2_Node000002_Node000003"><a xlink:title=" ">
<path fill="none" stroke="#63b8ff" d="M322.35,-108.53C330.18,-108.53 338.29,-108.53 346.37,-108.53"/>
<polygon fill="#63b8ff" stroke="#63b8ff" points="346.25,-112.03 356.25,-108.53 346.25,-105.03 346.25,-112.03"/>
</a>
</g>
</g>
<!-- Node4 -->
<g id="Node000004" class="node">
<title>Node4</title>
<g id="a_Node000004"><a xlink:href="class_nuki_1_1_nuki_ble.html#ada0f3beebd95d35c122e25dd3f9eb886" target="_top" xlink:title=" ">
<polygon fill="white" stroke="#666666" points="683.5,-145.78 546,-145.78 546,-115.28 683.5,-115.28 683.5,-145.78"/>
<text text-anchor="start" x="554" y="-132.28" font-family="Helvetica,sans-Serif" font-size="10.00">Nuki::NukiBle::cmdChallAcc</text>
<text text-anchor="middle" x="614.75" y="-121.03" font-family="Helvetica,sans-Serif" font-size="10.00">StateMachine</text>
</a>
</g>
</g>
<!-- Node3&#45;&gt;Node4 -->
<g id="edge3_Node000003_Node000004" class="edge">
<title>Node3&#45;&gt;Node4</title>
<g id="a_edge3_Node000003_Node000004"><a xlink:title=" ">
<path fill="none" stroke="#63b8ff" d="M499.91,-116.91C511.18,-118.26 522.91,-119.66 534.38,-121.04"/>
<polygon fill="#63b8ff" stroke="#63b8ff" points="533.88,-124.5 544.22,-122.21 534.71,-117.55 533.88,-124.5"/>
</a>
</g>
</g>
<!-- Node5 -->
<g id="Node000005" class="node">
<title>Node5</title>
<g id="a_Node000005"><a xlink:href="class_nuki_1_1_nuki_ble.html#a6e8fca90c04249660dce6cb993eb4495" target="_top" xlink:title=" ">
<polygon fill="white" stroke="#666666" points="887,-186.78 730,-186.78 730,-156.28 887,-156.28 887,-186.78"/>
<text text-anchor="start" x="738" y="-173.28" font-family="Helvetica,sans-Serif" font-size="10.00">Nuki::NukiBle::extendDisconnect</text>
<text text-anchor="middle" x="808.5" y="-162.03" font-family="Helvetica,sans-Serif" font-size="10.00">Timeout</text>
</a>
</g>
</g>
<!-- Node3&#45;&gt;Node5 -->
<g id="edge16_Node000003_Node000005" class="edge">
<title>Node3&#45;&gt;Node5</title>
<g id="a_edge16_Node000003_Node000005"><a xlink:title=" ">
<path fill="none" stroke="#63b8ff" d="M438.16,-118.58C454.45,-137.45 492.81,-177.63 535.5,-192.53 604.88,-216.76 690.07,-203.9 746.43,-190.02"/>
<polygon fill="#63b8ff" stroke="#63b8ff" points="747.01,-193.48 755.83,-187.61 745.28,-186.7 747.01,-193.48"/>
</a>
</g>
</g>
<!-- Node6 -->
<g id="Node000006" class="node">
<title>Node6</title>
<g id="a_Node000006"><a xlink:href="class_nuki_1_1_nuki_ble.html#ac7ce691d9c3e586474655d1663eb2e20" target="_top" xlink:title=" ">
<polygon fill="white" stroke="#666666" points="874.62,-137.16 742.38,-137.16 742.38,-117.91 874.62,-117.91 874.62,-137.16"/>
<text text-anchor="middle" x="808.5" y="-123.66" font-family="Helvetica,sans-Serif" font-size="10.00">Nuki::NukiBle::logMessage</text>
</a>
</g>
</g>
<!-- Node3&#45;&gt;Node6 -->
<g id="edge17_Node000003_Node000006" class="edge">
<title>Node3&#45;&gt;Node6</title>
<g id="a_edge17_Node000003_Node000006"><a xlink:title=" ">
<path fill="none" stroke="#63b8ff" d="M499.76,-107.02C511.68,-106.82 523.95,-106.64 535.5,-106.53 605.94,-105.87 623.85,-100.1 694,-106.53 713.09,-108.28 733.76,-111.66 752.16,-115.2"/>
<polygon fill="#63b8ff" stroke="#63b8ff" points="751.32,-118.6 761.81,-117.12 752.68,-111.73 751.32,-118.6"/>
</a>
</g>
</g>
<!-- Node7 -->
<g id="Node000007" class="node">
<title>Node7</title>
<g id="a_Node000007"><a xlink:href="class_nuki_1_1_nuki_ble.html#af3650133f46aeca48a5f01b95d23ab71" target="_top" xlink:title=" ">
<polygon fill="white" stroke="#666666" points="882.12,-97.16 734.88,-97.16 734.88,-77.91 882.12,-77.91 882.12,-97.16"/>
<text text-anchor="middle" x="808.5" y="-83.66" font-family="Helvetica,sans-Serif" font-size="10.00">Nuki::NukiBle::logMessageVar</text>
</a>
</g>
</g>
<!-- Node3&#45;&gt;Node7 -->
<g id="edge18_Node000003_Node000007" class="edge">
<title>Node3&#45;&gt;Node7</title>
<g id="a_edge18_Node000003_Node000007"><a xlink:title=" ">
<path fill="none" stroke="#63b8ff" d="M437.55,-98.62C453.36,-79.14 491.74,-36.37 535.5,-20.53 601.74,3.44 630.17,9.27 694,-20.53 716.58,-31.08 709.25,-49.73 730,-63.53 735.85,-67.42 742.36,-70.71 749.05,-73.48"/>
<polygon fill="#63b8ff" stroke="#63b8ff" points="747.64,-76.69 758.24,-76.89 750.08,-70.13 747.64,-76.69"/>
</a>
</g>
</g>
<!-- Node8 -->
<g id="Node000008" class="node">
<title>Node8</title>
<g id="a_Node000008"><a xlink:href="class_nuki_1_1_nuki_ble.html#a59169a9f492793762e3c6ba39b611b07" target="_top" xlink:title=" ">
<polygon fill="white" stroke="#666666" points="686.5,-59.78 543,-59.78 543,-29.28 686.5,-29.28 686.5,-59.78"/>
<text text-anchor="start" x="551" y="-46.28" font-family="Helvetica,sans-Serif" font-size="10.00">Nuki::NukiBle::cmdChallState</text>
<text text-anchor="middle" x="614.75" y="-35.03" font-family="Helvetica,sans-Serif" font-size="10.00">Machine</text>
</a>
</g>
</g>
<!-- Node3&#45;&gt;Node8 -->
<g id="edge7_Node000003_Node000008" class="edge">
<title>Node3&#45;&gt;Node8</title>
<g id="a_edge7_Node000003_Node000008"><a xlink:title=" ">
<path fill="none" stroke="#63b8ff" d="M458.61,-98.53C485.1,-89.31 525.18,-75.36 557.96,-63.95"/>
<polygon fill="#63b8ff" stroke="#63b8ff" points="559.05,-67.28 567.34,-60.69 556.74,-60.67 559.05,-67.28"/>
</a>
</g>
</g>
<!-- Node10 -->
<g id="Node000010" class="node">
<title>Node10</title>
<g id="a_Node000010"><a xlink:href="class_nuki_1_1_nuki_ble.html#ad135bb1455665decfddff67772c1d411" target="_top" xlink:title=" ">
<polygon fill="white" stroke="#666666" points="694,-183.16 535.5,-183.16 535.5,-163.91 694,-163.91 694,-183.16"/>
<text text-anchor="middle" x="614.75" y="-169.66" font-family="Helvetica,sans-Serif" font-size="10.00">Nuki::NukiBle::cmdStateMachine</text>
</a>
</g>
</g>
<!-- Node3&#45;&gt;Node10 -->
<g id="edge12_Node000003_Node000010" class="edge">
<title>Node3&#45;&gt;Node10</title>
<g id="a_edge12_Node000003_Node000010"><a xlink:title=" ">
<path fill="none" stroke="#63b8ff" d="M450.11,-118.59C471.07,-128.72 504.98,-144.27 535.5,-154.53 542.02,-156.73 548.93,-158.78 555.83,-160.66"/>
<polygon fill="#63b8ff" stroke="#63b8ff" points="554.59,-163.96 565.15,-163.1 556.36,-157.19 554.59,-163.96"/>
</a>
</g>
</g>
<!-- Node4&#45;&gt;Node5 -->
<g id="edge4_Node000004_Node000005" class="edge">
<title>Node4&#45;&gt;Node5</title>
<g id="a_edge4_Node000004_Node000005"><a xlink:title=" ">
<path fill="none" stroke="#63b8ff" d="M683.89,-145.1C696.59,-147.82 710,-150.69 723.12,-153.49"/>
<polygon fill="#63b8ff" stroke="#63b8ff" points="722.06,-156.84 732.57,-155.51 723.52,-150 722.06,-156.84"/>
</a>
</g>
</g>
<!-- Node4&#45;&gt;Node6 -->
<g id="edge5_Node000004_Node000006" class="edge">
<title>Node4&#45;&gt;Node6</title>
<g id="a_edge5_Node000004_Node000006"><a xlink:title=" ">
<path fill="none" stroke="#63b8ff" d="M683.89,-129.47C699.14,-129.23 715.41,-128.97 730.97,-128.73"/>
<polygon fill="#63b8ff" stroke="#63b8ff" points="730.69,-132.24 740.63,-128.58 730.58,-125.24 730.69,-132.24"/>
</a>
</g>
</g>
<!-- Node4&#45;&gt;Node7 -->
<g id="edge6_Node000004_Node000007" class="edge">
<title>Node4&#45;&gt;Node7</title>
<g id="a_edge6_Node000004_Node000007"><a xlink:title=" ">
<path fill="none" stroke="#63b8ff" d="M683.89,-115.25C705.98,-110.3 730.2,-104.87 751.32,-100.13"/>
<polygon fill="#63b8ff" stroke="#63b8ff" points="751.9,-103.59 760.89,-97.99 750.36,-96.76 751.9,-103.59"/>
</a>
</g>
</g>
<!-- Node8&#45;&gt;Node5 -->
<g id="edge8_Node000008_Node000005" class="edge">
<title>Node8&#45;&gt;Node5</title>
<g id="a_edge8_Node000008_Node000005"><a xlink:title=" ">
<path fill="none" stroke="#63b8ff" d="M637.47,-60.19C653.63,-72.21 675.93,-89.57 694,-106.53 711.43,-122.91 709.93,-133.53 730,-146.53 732.39,-148.08 734.88,-149.54 737.44,-150.91"/>
<polygon fill="#63b8ff" stroke="#63b8ff" points="735.73,-153.97 746.26,-155.15 738.76,-147.66 735.73,-153.97"/>
</a>
</g>
</g>
<!-- Node8&#45;&gt;Node6 -->
<g id="edge10_Node000008_Node000006" class="edge">
<title>Node8&#45;&gt;Node6</title>
<g id="a_edge10_Node000008_Node000006"><a xlink:title=" ">
<path fill="none" stroke="#63b8ff" d="M666.77,-60.17C676.13,-63.94 685.59,-68.4 694,-73.53 712.52,-84.85 710.99,-96.06 730,-106.53 734.99,-109.28 740.35,-111.68 745.85,-113.78"/>
<polygon fill="#63b8ff" stroke="#63b8ff" points="744.5,-117.02 755.09,-116.97 746.78,-110.4 744.5,-117.02"/>
</a>
</g>
</g>
<!-- Node8&#45;&gt;Node7 -->
<g id="edge11_Node000008_Node000007" class="edge">
<title>Node8&#45;&gt;Node7</title>
<g id="a_edge11_Node000008_Node000007"><a xlink:title=" ">
<path fill="none" stroke="#63b8ff" d="M685.79,-60.24C707.36,-65.08 730.82,-70.34 751.34,-74.94"/>
<polygon fill="#63b8ff" stroke="#63b8ff" points="750.4,-78.32 760.92,-77.09 751.93,-71.49 750.4,-78.32"/>
</a>
</g>
</g>
<!-- Node9 -->
<g id="Node000009" class="node">
<title>Node9</title>
<g id="a_Node000009"><a xlink:href="class_nuki_1_1_nuki_ble.html#a25207bb564a4b54b8dd8c872177b53a7" target="_top" xlink:title="Returns if BLE is pairing/paired/connected with a Smart Lock Ultra.">
<polygon fill="white" stroke="#666666" points="873.5,-54.16 743.5,-54.16 743.5,-34.91 873.5,-34.91 873.5,-54.16"/>
<text text-anchor="middle" x="808.5" y="-40.66" font-family="Helvetica,sans-Serif" font-size="10.00">Nuki::NukiBle::isLockUltra</text>
</a>
</g>
</g>
<!-- Node8&#45;&gt;Node9 -->
<g id="edge9_Node000008_Node000009" class="edge">
<title>Node8&#45;&gt;Node9</title>
<g id="a_edge9_Node000008_Node000009"><a xlink:title=" ">
<path fill="none" stroke="#63b8ff" d="M686.88,-44.53C701.57,-44.53 717.1,-44.53 731.94,-44.53"/>
<polygon fill="#63b8ff" stroke="#63b8ff" points="731.62,-48.03 741.62,-44.53 731.62,-41.03 731.62,-48.03"/>
</a>
</g>
</g>
<!-- Node10&#45;&gt;Node5 -->
<g id="edge13_Node000010_Node000005" class="edge">
<title>Node10&#45;&gt;Node5</title>
<g id="a_edge13_Node000010_Node000005"><a xlink:title=" ">
<path fill="none" stroke="#63b8ff" d="M694.3,-172.71C702.24,-172.63 710.35,-172.55 718.39,-172.46"/>
<polygon fill="#63b8ff" stroke="#63b8ff" points="718.22,-175.96 728.18,-172.36 718.15,-168.97 718.22,-175.96"/>
</a>
</g>
</g>
<!-- Node10&#45;&gt;Node6 -->
<g id="edge14_Node000010_Node000006" class="edge">
<title>Node10&#45;&gt;Node6</title>
<g id="a_edge14_Node000010_Node000006"><a xlink:title=" ">
<path fill="none" stroke="#63b8ff" d="M657.83,-163.44C686.3,-156.61 724.14,-147.53 754.64,-140.21"/>
<polygon fill="#63b8ff" stroke="#63b8ff" points="755.14,-143.69 764.05,-137.96 753.51,-136.89 755.14,-143.69"/>
</a>
</g>
</g>
<!-- Node10&#45;&gt;Node7 -->
<g id="edge15_Node000010_Node000007" class="edge">
<title>Node10&#45;&gt;Node7</title>
<g id="a_edge15_Node000010_Node000007"><a xlink:title=" ">
<path fill="none" stroke="#63b8ff" d="M675.61,-163.49C682.08,-161.11 688.36,-158.17 694,-154.53 715.82,-140.47 708.37,-122.88 730,-108.53 733.75,-106.05 737.78,-103.85 741.97,-101.92"/>
<polygon fill="#63b8ff" stroke="#63b8ff" points="743.26,-105.17 751.22,-98.19 740.64,-98.68 743.26,-105.17"/>
</a>
</g>
</g>
</g>
</svg>

<g id="navigator" transform="translate(0 0)" fill="#404254">
  <rect fill="#f2f5e9" fill-opacity="0.5" stroke="#606060" stroke-width=".5" x="0" y="0" width="60" height="60"/>
  <use id="zoomplus" xlink:href="#zoomPlus" x="17" y="9" onmousedown="handleZoom(evt,'in')"/>
  <use id="zoomminus" xlink:href="#zoomMin" x="42" y="9" onmousedown="handleZoom(evt,'out')"/>
  <use id="reset" xlink:href="#resetDef" x="30" y="36" onmousedown="handleReset()"/>
   <use id="arrowup" xlink:href="#arrowUp" x="0" y="0" onmousedown="handlePan(0,-1)"/>
  <use id="arrowright" xlink:href="#arrowRight" x="0" y="0" onmousedown="handlePan(1,0)"/>
  <use id="arrowdown" xlink:href="#arrowDown" x="0" y="0" onmousedown="handlePan(0,1)"/>
  <use id="arrowleft" xlink:href="#arrowLeft" x="0" y="0" onmousedown="handlePan(-1,0)"/>
</g>
<svg viewBox="0 0 15 15" width="100%" height="30px" preserveAspectRatio="xMaxYMin meet">
 <g id="arrow_out" transform="scale(0.3 0.3)">
  <a xlink:href="class_nuki_opener_1_1_nuki_opener_a4f1440923689261d6809e91081ae710b_cgraph_org.svg" target="_base">
   <rect id="button" ry="5" rx="5" y="6" x="6" height="38" width="38"
        fill="#f2f5e9" fill-opacity="0.5" stroke="#606060" stroke-width="1.0"/>
   <path id="arrow"
     d="M 11.500037,31.436501 C 11.940474,20.09759 22.043105,11.32322 32.158766,21.979434 L 37.068811,17.246167 C 37.068811,17.246167 37.088388,32 37.088388,32 L 22.160133,31.978069 C 22.160133,31.978069 26.997745,27.140456 26.997745,27.140456 C 18.528582,18.264221 13.291696,25.230495 11.500037,31.436501 z"
     style="fill:#404040;"/>
  </a>
 </g>
</svg>

<style type='text/css'>
<![CDATA[
[data-mouse-over-selected='false'] { opacity: 0.7; }
[data-mouse-over-selected='true']  { opacity: 1.0; }
]]>
</style>
<script type="application/ecmascript"><![CDATA[
document.addEventListener('DOMContentLoaded', (event) => {
  highlightEdges();
  highlightAdjacentNodes();
});
]]></script>
</svg>
