<?xml version="1.0" encoding="UTF-8" standalone="no"?>
<!DOCTYPE svg PUBLIC "-//W3C//DTD SVG 1.1//EN"
 "http://www.w3.org/Graphics/SVG/1.1/DTD/svg11.dtd">
<!-- Generated by graphviz version 12.2.1 (20241206.2353)
 -->
<!-- Title: NukiLock::NukiLock::setDoubleButtonPressAction Pages: 1 -->
<svg width="878pt" height="215pt"
 viewBox="0.00 0.00 877.75 214.53" xmlns="http://www.w3.org/2000/svg" xmlns:xlink="http://www.w3.org/1999/xlink">
<g id="graph0" class="graph" transform="scale(1 1) rotate(0) translate(4 210.53)">
<title>NukiLock::NukiLock::setDoubleButtonPressAction</title>
<!-- Node1 -->
<g id="Node000001" class="node">
<title>Node1</title>
<g id="a_Node000001"><a xlink:title="Gets the current advanced config from the lock, updates the double button press action parameter and ...">
<polygon fill="#999999" stroke="#666666" points="145.75,-123.78 0,-123.78 0,-93.28 145.75,-93.28 145.75,-123.78"/>
<text text-anchor="start" x="8" y="-110.28" font-family="Helvetica,sans-Serif" font-size="10.00">NukiLock::NukiLock</text>
<text text-anchor="middle" x="72.88" y="-99.03" font-family="Helvetica,sans-Serif" font-size="10.00">::setDoubleButtonPressAction</text>
</a>
</g>
</g>
<!-- Node2 -->
<g id="Node000002" class="node">
<title>Node2</title>
<g id="a_Node000002"><a xlink:href="class_nuki_lock_1_1_nuki_lock.html#aa882f9b3256313bbd45b4269f8c74521" target="_top" xlink:title="Requests advanced config from Lock via BLE.">
<polygon fill="white" stroke="#666666" points="305,-123.78 181.75,-123.78 181.75,-93.28 305,-93.28 305,-123.78"/>
<text text-anchor="start" x="189.75" y="-110.28" font-family="Helvetica,sans-Serif" font-size="10.00">NukiLock::NukiLock</text>
<text text-anchor="middle" x="243.38" y="-99.03" font-family="Helvetica,sans-Serif" font-size="10.00">::requestAdvancedConfig</text>
</a>
</g>
</g>
<!-- Node1&#45;&gt;Node2 -->
<g id="edge1_Node000001_Node000002" class="edge">
<title>Node1&#45;&gt;Node2</title>
<g id="a_edge1_Node000001_Node000002"><a xlink:title=" ">
<path fill="none" stroke="#63b8ff" d="M145.82,-108.53C153.76,-108.53 161.84,-108.53 169.78,-108.53"/>
<polygon fill="#63b8ff" stroke="#63b8ff" points="169.76,-112.03 179.76,-108.53 169.76,-105.03 169.76,-112.03"/>
</a>
</g>
</g>
<!-- Node3 -->
<g id="Node000003" class="node">
<title>Node3</title>
<g id="a_Node000003"><a xlink:href="class_nuki_1_1_nuki_ble.html#af1f1e299e8d97e053bba80e92ba285d6" target="_top" xlink:title=" ">
<polygon fill="white" stroke="#666666" points="482.25,-118.16 341,-118.16 341,-98.91 482.25,-98.91 482.25,-118.16"/>
<text text-anchor="middle" x="411.62" y="-104.66" font-family="Helvetica,sans-Serif" font-size="10.00">Nuki::NukiBle::executeAction</text>
</a>
</g>
</g>
<!-- Node2&#45;&gt;Node3 -->
<g id="edge2_Node000002_Node000003" class="edge">
<title>Node2&#45;&gt;Node3</title>
<g id="a_edge2_Node000002_Node000003"><a xlink:title=" ">
<path fill="none" stroke="#63b8ff" d="M305.34,-108.53C313.15,-108.53 321.24,-108.53 329.31,-108.53"/>
<polygon fill="#63b8ff" stroke="#63b8ff" points="329.16,-112.03 339.16,-108.53 329.16,-105.03 329.16,-112.03"/>
</a>
</g>
</g>
<!-- Node4 -->
<g id="Node000004" class="node">
<title>Node4</title>
<g id="a_Node000004"><a xlink:href="class_nuki_1_1_nuki_ble.html#ada0f3beebd95d35c122e25dd3f9eb886" target="_top" xlink:title=" ">
<polygon fill="white" stroke="#666666" points="666.25,-145.78 528.75,-145.78 528.75,-115.28 666.25,-115.28 666.25,-145.78"/>
<text text-anchor="start" x="536.75" y="-132.28" font-family="Helvetica,sans-Serif" font-size="10.00">Nuki::NukiBle::cmdChallAcc</text>
<text text-anchor="middle" x="597.5" y="-121.03" font-family="Helvetica,sans-Serif" font-size="10.00">StateMachine</text>
</a>
</g>
</g>
<!-- Node3&#45;&gt;Node4 -->
<g id="edge3_Node000003_Node000004" class="edge">
<title>Node3&#45;&gt;Node4</title>
<g id="a_edge3_Node000003_Node000004"><a xlink:title=" ">
<path fill="none" stroke="#63b8ff" d="M482.66,-116.91C493.93,-118.26 505.66,-119.66 517.13,-121.04"/>
<polygon fill="#63b8ff" stroke="#63b8ff" points="516.63,-124.5 526.97,-122.21 517.46,-117.55 516.63,-124.5"/>
</a>
</g>
</g>
<!-- Node5 -->
<g id="Node000005" class="node">
<title>Node5</title>
<g id="a_Node000005"><a xlink:href="class_nuki_1_1_nuki_ble.html#a6e8fca90c04249660dce6cb993eb4495" target="_top" xlink:title=" ">
<polygon fill="white" stroke="#666666" points="869.75,-186.78 712.75,-186.78 712.75,-156.28 869.75,-156.28 869.75,-186.78"/>
<text text-anchor="start" x="720.75" y="-173.28" font-family="Helvetica,sans-Serif" font-size="10.00">Nuki::NukiBle::extendDisconnect</text>
<text text-anchor="middle" x="791.25" y="-162.03" font-family="Helvetica,sans-Serif" font-size="10.00">Timeout</text>
</a>
</g>
</g>
<!-- Node3&#45;&gt;Node5 -->
<g id="edge16_Node000003_Node000005" class="edge">
<title>Node3&#45;&gt;Node5</title>
<g id="a_edge16_Node000003_Node000005"><a xlink:title=" ">
<path fill="none" stroke="#63b8ff" d="M420.91,-118.58C437.2,-137.45 475.56,-177.63 518.25,-192.53 587.63,-216.76 672.82,-203.9 729.18,-190.02"/>
<polygon fill="#63b8ff" stroke="#63b8ff" points="729.76,-193.48 738.58,-187.61 728.03,-186.7 729.76,-193.48"/>
</a>
</g>
</g>
<!-- Node6 -->
<g id="Node000006" class="node">
<title>Node6</title>
<g id="a_Node000006"><a xlink:href="class_nuki_1_1_nuki_ble.html#ac7ce691d9c3e586474655d1663eb2e20" target="_top" xlink:title=" ">
<polygon fill="white" stroke="#666666" points="857.38,-137.16 725.12,-137.16 725.12,-117.91 857.38,-117.91 857.38,-137.16"/>
<text text-anchor="middle" x="791.25" y="-123.66" font-family="Helvetica,sans-Serif" font-size="10.00">Nuki::NukiBle::logMessage</text>
</a>
</g>
</g>
<!-- Node3&#45;&gt;Node6 -->
<g id="edge17_Node000003_Node000006" class="edge">
<title>Node3&#45;&gt;Node6</title>
<g id="a_edge17_Node000003_Node000006"><a xlink:title=" ">
<path fill="none" stroke="#63b8ff" d="M482.51,-107.02C494.43,-106.82 506.7,-106.64 518.25,-106.53 588.69,-105.87 606.6,-100.1 676.75,-106.53 695.84,-108.28 716.51,-111.66 734.91,-115.2"/>
<polygon fill="#63b8ff" stroke="#63b8ff" points="734.07,-118.6 744.56,-117.12 735.43,-111.73 734.07,-118.6"/>
</a>
</g>
</g>
<!-- Node7 -->
<g id="Node000007" class="node">
<title>Node7</title>
<g id="a_Node000007"><a xlink:href="class_nuki_1_1_nuki_ble.html#af3650133f46aeca48a5f01b95d23ab71" target="_top" xlink:title=" ">
<polygon fill="white" stroke="#666666" points="864.88,-97.16 717.62,-97.16 717.62,-77.91 864.88,-77.91 864.88,-97.16"/>
<text text-anchor="middle" x="791.25" y="-83.66" font-family="Helvetica,sans-Serif" font-size="10.00">Nuki::NukiBle::logMessageVar</text>
</a>
</g>
</g>
<!-- Node3&#45;&gt;Node7 -->
<g id="edge18_Node000003_Node000007" class="edge">
<title>Node3&#45;&gt;Node7</title>
<g id="a_edge18_Node000003_Node000007"><a xlink:title=" ">
<path fill="none" stroke="#63b8ff" d="M420.3,-98.62C436.11,-79.14 474.49,-36.37 518.25,-20.53 584.49,3.44 612.92,9.27 676.75,-20.53 699.33,-31.08 692,-49.73 712.75,-63.53 718.6,-67.42 725.11,-70.71 731.8,-73.48"/>
<polygon fill="#63b8ff" stroke="#63b8ff" points="730.39,-76.69 740.99,-76.89 732.83,-70.13 730.39,-76.69"/>
</a>
</g>
</g>
<!-- Node8 -->
<g id="Node000008" class="node">
<title>Node8</title>
<g id="a_Node000008"><a xlink:href="class_nuki_1_1_nuki_ble.html#a59169a9f492793762e3c6ba39b611b07" target="_top" xlink:title=" ">
<polygon fill="white" stroke="#666666" points="669.25,-59.78 525.75,-59.78 525.75,-29.28 669.25,-29.28 669.25,-59.78"/>
<text text-anchor="start" x="533.75" y="-46.28" font-family="Helvetica,sans-Serif" font-size="10.00">Nuki::NukiBle::cmdChallState</text>
<text text-anchor="middle" x="597.5" y="-35.03" font-family="Helvetica,sans-Serif" font-size="10.00">Machine</text>
</a>
</g>
</g>
<!-- Node3&#45;&gt;Node8 -->
<g id="edge7_Node000003_Node000008" class="edge">
<title>Node3&#45;&gt;Node8</title>
<g id="a_edge7_Node000003_Node000008"><a xlink:title=" ">
<path fill="none" stroke="#63b8ff" d="M441.36,-98.53C467.85,-89.31 507.93,-75.36 540.71,-63.95"/>
<polygon fill="#63b8ff" stroke="#63b8ff" points="541.8,-67.28 550.09,-60.69 539.49,-60.67 541.8,-67.28"/>
</a>
</g>
</g>
<!-- Node10 -->
<g id="Node000010" class="node">
<title>Node10</title>
<g id="a_Node000010"><a xlink:href="class_nuki_1_1_nuki_ble.html#ad135bb1455665decfddff67772c1d411" target="_top" xlink:title=" ">
<polygon fill="white" stroke="#666666" points="676.75,-183.16 518.25,-183.16 518.25,-163.91 676.75,-163.91 676.75,-183.16"/>
<text text-anchor="middle" x="597.5" y="-169.66" font-family="Helvetica,sans-Serif" font-size="10.00">Nuki::NukiBle::cmdStateMachine</text>
</a>
</g>
</g>
<!-- Node3&#45;&gt;Node10 -->
<g id="edge12_Node000003_Node000010" class="edge">
<title>Node3&#45;&gt;Node10</title>
<g id="a_edge12_Node000003_Node000010"><a xlink:title=" ">
<path fill="none" stroke="#63b8ff" d="M432.86,-118.59C453.82,-128.72 487.73,-144.27 518.25,-154.53 524.77,-156.73 531.68,-158.78 538.58,-160.66"/>
<polygon fill="#63b8ff" stroke="#63b8ff" points="537.34,-163.96 547.9,-163.1 539.11,-157.19 537.34,-163.96"/>
</a>
</g>
</g>
<!-- Node4&#45;&gt;Node5 -->
<g id="edge4_Node000004_Node000005" class="edge">
<title>Node4&#45;&gt;Node5</title>
<g id="a_edge4_Node000004_Node000005"><a xlink:title=" ">
<path fill="none" stroke="#63b8ff" d="M666.64,-145.1C679.34,-147.82 692.75,-150.69 705.87,-153.49"/>
<polygon fill="#63b8ff" stroke="#63b8ff" points="704.81,-156.84 715.32,-155.51 706.27,-150 704.81,-156.84"/>
</a>
</g>
</g>
<!-- Node4&#45;&gt;Node6 -->
<g id="edge5_Node000004_Node000006" class="edge">
<title>Node4&#45;&gt;Node6</title>
<g id="a_edge5_Node000004_Node000006"><a xlink:title=" ">
<path fill="none" stroke="#63b8ff" d="M666.64,-129.47C681.89,-129.23 698.16,-128.97 713.72,-128.73"/>
<polygon fill="#63b8ff" stroke="#63b8ff" points="713.44,-132.24 723.38,-128.58 713.33,-125.24 713.44,-132.24"/>
</a>
</g>
</g>
<!-- Node4&#45;&gt;Node7 -->
<g id="edge6_Node000004_Node000007" class="edge">
<title>Node4&#45;&gt;Node7</title>
<g id="a_edge6_Node000004_Node000007"><a xlink:title=" ">
<path fill="none" stroke="#63b8ff" d="M666.64,-115.25C688.73,-110.3 712.95,-104.87 734.07,-100.13"/>
<polygon fill="#63b8ff" stroke="#63b8ff" points="734.65,-103.59 743.64,-97.99 733.11,-96.76 734.65,-103.59"/>
</a>
</g>
</g>
<!-- Node8&#45;&gt;Node5 -->
<g id="edge8_Node000008_Node000005" class="edge">
<title>Node8&#45;&gt;Node5</title>
<g id="a_edge8_Node000008_Node000005"><a xlink:title=" ">
<path fill="none" stroke="#63b8ff" d="M620.22,-60.19C636.38,-72.21 658.68,-89.57 676.75,-106.53 694.18,-122.91 692.68,-133.53 712.75,-146.53 715.14,-148.08 717.63,-149.54 720.19,-150.91"/>
<polygon fill="#63b8ff" stroke="#63b8ff" points="718.48,-153.97 729.01,-155.15 721.51,-147.66 718.48,-153.97"/>
</a>
</g>
</g>
<!-- Node8&#45;&gt;Node6 -->
<g id="edge10_Node000008_Node000006" class="edge">
<title>Node8&#45;&gt;Node6</title>
<g id="a_edge10_Node000008_Node000006"><a xlink:title=" ">
<path fill="none" stroke="#63b8ff" d="M649.52,-60.17C658.88,-63.94 668.34,-68.4 676.75,-73.53 695.27,-84.85 693.74,-96.06 712.75,-106.53 717.74,-109.28 723.1,-111.68 728.6,-113.78"/>
<polygon fill="#63b8ff" stroke="#63b8ff" points="727.25,-117.02 737.84,-116.97 729.53,-110.4 727.25,-117.02"/>
</a>
</g>
</g>
<!-- Node8&#45;&gt;Node7 -->
<g id="edge11_Node000008_Node000007" class="edge">
<title>Node8&#45;&gt;Node7</title>
<g id="a_edge11_Node000008_Node000007"><a xlink:title=" ">
<path fill="none" stroke="#63b8ff" d="M668.54,-60.24C690.11,-65.08 713.57,-70.34 734.09,-74.94"/>
<polygon fill="#63b8ff" stroke="#63b8ff" points="733.15,-78.32 743.67,-77.09 734.68,-71.49 733.15,-78.32"/>
</a>
</g>
</g>
<!-- Node9 -->
<g id="Node000009" class="node">
<title>Node9</title>
<g id="a_Node000009"><a xlink:href="class_nuki_1_1_nuki_ble.html#a25207bb564a4b54b8dd8c872177b53a7" target="_top" xlink:title="Returns if BLE is pairing/paired/connected with a Smart Lock Ultra.">
<polygon fill="white" stroke="#666666" points="856.25,-54.16 726.25,-54.16 726.25,-34.91 856.25,-34.91 856.25,-54.16"/>
<text text-anchor="middle" x="791.25" y="-40.66" font-family="Helvetica,sans-Serif" font-size="10.00">Nuki::NukiBle::isLockUltra</text>
</a>
</g>
</g>
<!-- Node8&#45;&gt;Node9 -->
<g id="edge9_Node000008_Node000009" class="edge">
<title>Node8&#45;&gt;Node9</title>
<g id="a_edge9_Node000008_Node000009"><a xlink:title=" ">
<path fill="none" stroke="#63b8ff" d="M669.63,-44.53C684.32,-44.53 699.85,-44.53 714.69,-44.53"/>
<polygon fill="#63b8ff" stroke="#63b8ff" points="714.37,-48.03 724.37,-44.53 714.37,-41.03 714.37,-48.03"/>
</a>
</g>
</g>
<!-- Node10&#45;&gt;Node5 -->
<g id="edge13_Node000010_Node000005" class="edge">
<title>Node10&#45;&gt;Node5</title>
<g id="a_edge13_Node000010_Node000005"><a xlink:title=" ">
<path fill="none" stroke="#63b8ff" d="M677.05,-172.71C684.99,-172.63 693.1,-172.55 701.14,-172.46"/>
<polygon fill="#63b8ff" stroke="#63b8ff" points="700.97,-175.96 710.93,-172.36 700.9,-168.97 700.97,-175.96"/>
</a>
</g>
</g>
<!-- Node10&#45;&gt;Node6 -->
<g id="edge14_Node000010_Node000006" class="edge">
<title>Node10&#45;&gt;Node6</title>
<g id="a_edge14_Node000010_Node000006"><a xlink:title=" ">
<path fill="none" stroke="#63b8ff" d="M640.58,-163.44C669.05,-156.61 706.89,-147.53 737.39,-140.21"/>
<polygon fill="#63b8ff" stroke="#63b8ff" points="737.89,-143.69 746.8,-137.96 736.26,-136.89 737.89,-143.69"/>
</a>
</g>
</g>
<!-- Node10&#45;&gt;Node7 -->
<g id="edge15_Node000010_Node000007" class="edge">
<title>Node10&#45;&gt;Node7</title>
<g id="a_edge15_Node000010_Node000007"><a xlink:title=" ">
<path fill="none" stroke="#63b8ff" d="M658.36,-163.49C664.83,-161.11 671.11,-158.17 676.75,-154.53 698.57,-140.47 691.12,-122.88 712.75,-108.53 716.5,-106.05 720.53,-103.85 724.72,-101.92"/>
<polygon fill="#63b8ff" stroke="#63b8ff" points="726.01,-105.17 733.97,-98.19 723.39,-98.68 726.01,-105.17"/>
</a>
</g>
</g>
</g>
</svg>
