<?xml version="1.0" encoding="UTF-8" standalone="no"?>
<!DOCTYPE svg PUBLIC "-//W3C//DTD SVG 1.1//EN"
 "http://www.w3.org/Graphics/SVG/1.1/DTD/svg11.dtd">
<!-- Generated by graphviz version 12.2.1 (20241206.2353)
 -->
<!-- Title: NukiLock::NukiLock::setLockedPositionOffsetDegrees Pages: 1 -->
<svg width="896pt" height="205pt"
 viewBox="0.00 0.00 895.75 204.75" xmlns="http://www.w3.org/2000/svg" xmlns:xlink="http://www.w3.org/1999/xlink">
<g id="graph0" class="graph" transform="scale(1 1) rotate(0) translate(4 200.75)">
<title>NukiLock::NukiLock::setLockedPositionOffsetDegrees</title>
<!-- Node1 -->
<g id="Node000001" class="node">
<title>Node1</title>
<g id="a_Node000001"><a xlink:title="Gets the current config from the lock, updates the locked position offset degrees parameter and sends...">
<polygon fill="#999999" stroke="#666666" points="163.75,-102.35 0,-102.35 0,-71.85 163.75,-71.85 163.75,-102.35"/>
<text text-anchor="start" x="8" y="-88.85" font-family="Helvetica,sans-Serif" font-size="10.00">NukiLock::NukiLock</text>
<text text-anchor="middle" x="81.88" y="-77.6" font-family="Helvetica,sans-Serif" font-size="10.00">::setLockedPositionOffsetDegrees</text>
</a>
</g>
</g>
<!-- Node2 -->
<g id="Node000002" class="node">
<title>Node2</title>
<g id="a_Node000002"><a xlink:href="class_nuki_lock_1_1_nuki_lock.html#aa882f9b3256313bbd45b4269f8c74521" target="_top" xlink:title="Requests advanced config from Lock via BLE.">
<polygon fill="white" stroke="#666666" points="323,-102.35 199.75,-102.35 199.75,-71.85 323,-71.85 323,-102.35"/>
<text text-anchor="start" x="207.75" y="-88.85" font-family="Helvetica,sans-Serif" font-size="10.00">NukiLock::NukiLock</text>
<text text-anchor="middle" x="261.38" y="-77.6" font-family="Helvetica,sans-Serif" font-size="10.00">::requestAdvancedConfig</text>
</a>
</g>
</g>
<!-- Node1&#45;&gt;Node2 -->
<g id="edge1_Node000001_Node000002" class="edge">
<title>Node1&#45;&gt;Node2</title>
<g id="a_edge1_Node000001_Node000002"><a xlink:title=" ">
<path fill="none" stroke="#63b8ff" d="M164.09,-87.1C172.07,-87.1 180.12,-87.1 188,-87.1"/>
<polygon fill="#63b8ff" stroke="#63b8ff" points="187.87,-90.6 197.87,-87.1 187.87,-83.6 187.87,-90.6"/>
</a>
</g>
</g>
<!-- Node3 -->
<g id="Node000003" class="node">
<title>Node3</title>
<g id="a_Node000003"><a xlink:href="class_nuki_1_1_nuki_ble.html#af1f1e299e8d97e053bba80e92ba285d6" target="_top" xlink:title=" ">
<polygon fill="white" stroke="#666666" points="500.25,-96.73 359,-96.73 359,-77.48 500.25,-77.48 500.25,-96.73"/>
<text text-anchor="middle" x="429.62" y="-83.23" font-family="Helvetica,sans-Serif" font-size="10.00">Nuki::NukiBle::executeAction</text>
</a>
</g>
</g>
<!-- Node2&#45;&gt;Node3 -->
<g id="edge2_Node000002_Node000003" class="edge">
<title>Node2&#45;&gt;Node3</title>
<g id="a_edge2_Node000002_Node000003"><a xlink:title=" ">
<path fill="none" stroke="#63b8ff" d="M323.34,-87.1C331.15,-87.1 339.24,-87.1 347.31,-87.1"/>
<polygon fill="#63b8ff" stroke="#63b8ff" points="347.16,-90.6 357.16,-87.1 347.16,-83.6 347.16,-90.6"/>
</a>
</g>
</g>
<!-- Node4 -->
<g id="Node000004" class="node">
<title>Node4</title>
<g id="a_Node000004"><a xlink:href="class_nuki_1_1_nuki_ble.html#ada0f3beebd95d35c122e25dd3f9eb886" target="_top" xlink:title=" ">
<polygon fill="white" stroke="#666666" points="684.25,-173.35 546.75,-173.35 546.75,-142.85 684.25,-142.85 684.25,-173.35"/>
<text text-anchor="start" x="554.75" y="-159.85" font-family="Helvetica,sans-Serif" font-size="10.00">Nuki::NukiBle::cmdChallAcc</text>
<text text-anchor="middle" x="615.5" y="-148.6" font-family="Helvetica,sans-Serif" font-size="10.00">StateMachine</text>
</a>
</g>
</g>
<!-- Node3&#45;&gt;Node4 -->
<g id="edge3_Node000003_Node000004" class="edge">
<title>Node3&#45;&gt;Node4</title>
<g id="a_edge3_Node000003_Node000004"><a xlink:title=" ">
<path fill="none" stroke="#63b8ff" d="M451.81,-97.09C472.95,-106.87 506.49,-121.9 536.25,-133.1 541.46,-135.06 546.89,-137 552.37,-138.89"/>
<polygon fill="#63b8ff" stroke="#63b8ff" points="550.86,-142.08 561.46,-141.95 553.1,-135.44 550.86,-142.08"/>
</a>
</g>
</g>
<!-- Node5 -->
<g id="Node000005" class="node">
<title>Node5</title>
<g id="a_Node000005"><a xlink:href="class_nuki_1_1_nuki_ble.html#a6e8fca90c04249660dce6cb993eb4495" target="_top" xlink:title=" ">
<polygon fill="white" stroke="#666666" points="887.75,-169.35 730.75,-169.35 730.75,-138.85 887.75,-138.85 887.75,-169.35"/>
<text text-anchor="start" x="738.75" y="-155.85" font-family="Helvetica,sans-Serif" font-size="10.00">Nuki::NukiBle::extendDisconnect</text>
<text text-anchor="middle" x="809.25" y="-144.6" font-family="Helvetica,sans-Serif" font-size="10.00">Timeout</text>
</a>
</g>
</g>
<!-- Node3&#45;&gt;Node5 -->
<g id="edge15_Node000003_Node000005" class="edge">
<title>Node3&#45;&gt;Node5</title>
<g id="a_edge15_Node000003_Node000005"><a xlink:title=" ">
<path fill="none" stroke="#63b8ff" d="M437.64,-97.14C452.79,-117.83 490.89,-164.7 536.25,-182.1 608.76,-209.91 699.67,-190.75 755.86,-173.28"/>
<polygon fill="#63b8ff" stroke="#63b8ff" points="756.72,-176.68 765.18,-170.29 754.58,-170.02 756.72,-176.68"/>
</a>
</g>
</g>
<!-- Node6 -->
<g id="Node000006" class="node">
<title>Node6</title>
<g id="a_Node000006"><a xlink:href="class_nuki_1_1_nuki_ble.html#ac7ce691d9c3e586474655d1663eb2e20" target="_top" xlink:title=" ">
<polygon fill="white" stroke="#666666" points="875.38,-78.73 743.12,-78.73 743.12,-59.48 875.38,-59.48 875.38,-78.73"/>
<text text-anchor="middle" x="809.25" y="-65.23" font-family="Helvetica,sans-Serif" font-size="10.00">Nuki::NukiBle::logMessage</text>
</a>
</g>
</g>
<!-- Node3&#45;&gt;Node6 -->
<g id="edge16_Node000003_Node000006" class="edge">
<title>Node3&#45;&gt;Node6</title>
<g id="a_edge16_Node000003_Node000006"><a xlink:title=" ">
<path fill="none" stroke="#63b8ff" d="M440.56,-77.03C458.03,-60.1 496.24,-26.58 536.25,-14.1 603.5,6.88 626.09,1.66 694.75,-14.1 727.36,-21.59 761.48,-39.73 783.69,-53.14"/>
<polygon fill="#63b8ff" stroke="#63b8ff" points="781.66,-56 792,-58.3 785.35,-50.06 781.66,-56"/>
</a>
</g>
</g>
<!-- Node7 -->
<g id="Node000007" class="node">
<title>Node7</title>
<g id="a_Node000007"><a xlink:href="class_nuki_1_1_nuki_ble.html#af3650133f46aeca48a5f01b95d23ab71" target="_top" xlink:title=" ">
<polygon fill="white" stroke="#666666" points="882.88,-116.73 735.62,-116.73 735.62,-97.48 882.88,-97.48 882.88,-116.73"/>
<text text-anchor="middle" x="809.25" y="-103.23" font-family="Helvetica,sans-Serif" font-size="10.00">Nuki::NukiBle::logMessageVar</text>
</a>
</g>
</g>
<!-- Node3&#45;&gt;Node7 -->
<g id="edge17_Node000003_Node000007" class="edge">
<title>Node3&#45;&gt;Node7</title>
<g id="a_edge17_Node000003_Node000007"><a xlink:title=" ">
<path fill="none" stroke="#63b8ff" d="M450.2,-77.03C495.43,-55.24 609.83,-8.66 694.75,-47.1 716.84,-57.1 710.02,-75.52 730.75,-88.1 733.68,-89.88 736.76,-91.49 739.94,-92.95"/>
<polygon fill="#63b8ff" stroke="#63b8ff" points="738.38,-96.09 748.97,-96.55 740.98,-89.59 738.38,-96.09"/>
</a>
</g>
</g>
<!-- Node8 -->
<g id="Node000008" class="node">
<title>Node8</title>
<g id="a_Node000008"><a xlink:href="class_nuki_1_1_nuki_ble.html#a59169a9f492793762e3c6ba39b611b07" target="_top" xlink:title=" ">
<polygon fill="white" stroke="#666666" points="687.25,-124.35 543.75,-124.35 543.75,-93.85 687.25,-93.85 687.25,-124.35"/>
<text text-anchor="start" x="551.75" y="-110.85" font-family="Helvetica,sans-Serif" font-size="10.00">Nuki::NukiBle::cmdChallState</text>
<text text-anchor="middle" x="615.5" y="-99.6" font-family="Helvetica,sans-Serif" font-size="10.00">Machine</text>
</a>
</g>
</g>
<!-- Node3&#45;&gt;Node8 -->
<g id="edge7_Node000003_Node000008" class="edge">
<title>Node3&#45;&gt;Node8</title>
<g id="a_edge7_Node000003_Node000008"><a xlink:title=" ">
<path fill="none" stroke="#63b8ff" d="M500.66,-95.48C510.95,-96.71 521.62,-97.99 532.13,-99.25"/>
<polygon fill="#63b8ff" stroke="#63b8ff" points="531.59,-102.71 541.93,-100.42 532.42,-95.76 531.59,-102.71"/>
</a>
</g>
</g>
<!-- Node9 -->
<g id="Node000009" class="node">
<title>Node9</title>
<g id="a_Node000009"><a xlink:href="class_nuki_1_1_nuki_ble.html#ad135bb1455665decfddff67772c1d411" target="_top" xlink:title=" ">
<polygon fill="white" stroke="#666666" points="694.75,-75.73 536.25,-75.73 536.25,-56.48 694.75,-56.48 694.75,-75.73"/>
<text text-anchor="middle" x="615.5" y="-62.23" font-family="Helvetica,sans-Serif" font-size="10.00">Nuki::NukiBle::cmdStateMachine</text>
</a>
</g>
</g>
<!-- Node3&#45;&gt;Node9 -->
<g id="edge11_Node000003_Node000009" class="edge">
<title>Node3&#45;&gt;Node9</title>
<g id="a_edge11_Node000003_Node000009"><a xlink:title=" ">
<path fill="none" stroke="#63b8ff" d="M500.66,-79.1C508.53,-78.21 516.62,-77.28 524.69,-76.36"/>
<polygon fill="#63b8ff" stroke="#63b8ff" points="525.01,-79.85 534.55,-75.23 524.22,-72.89 525.01,-79.85"/>
</a>
</g>
</g>
<!-- Node4&#45;&gt;Node5 -->
<g id="edge4_Node000004_Node000005" class="edge">
<title>Node4&#45;&gt;Node5</title>
<g id="a_edge4_Node000004_Node000005"><a xlink:title=" ">
<path fill="none" stroke="#63b8ff" d="M684.64,-156.68C695.79,-156.45 707.47,-156.2 719.03,-155.96"/>
<polygon fill="#63b8ff" stroke="#63b8ff" points="719.08,-159.46 729.01,-155.76 718.94,-152.46 719.08,-159.46"/>
</a>
</g>
</g>
<!-- Node4&#45;&gt;Node6 -->
<g id="edge5_Node000004_Node000006" class="edge">
<title>Node4&#45;&gt;Node6</title>
<g id="a_edge5_Node000004_Node000006"><a xlink:title=" ">
<path fill="none" stroke="#63b8ff" d="M677.97,-142.38C683.88,-139.73 689.58,-136.66 694.75,-133.1 715.85,-118.58 709.16,-101.89 730.75,-88.1 733.34,-86.45 736.07,-84.94 738.88,-83.56"/>
<polygon fill="#63b8ff" stroke="#63b8ff" points="740.16,-86.82 748.01,-79.7 737.44,-80.37 740.16,-86.82"/>
</a>
</g>
</g>
<!-- Node4&#45;&gt;Node7 -->
<g id="edge6_Node000004_Node000007" class="edge">
<title>Node4&#45;&gt;Node7</title>
<g id="a_edge6_Node000004_Node000007"><a xlink:title=" ">
<path fill="none" stroke="#63b8ff" d="M675.6,-142.38C702.44,-135.25 733.81,-126.9 759.3,-120.12"/>
<polygon fill="#63b8ff" stroke="#63b8ff" points="759.97,-123.56 768.74,-117.61 758.18,-116.8 759.97,-123.56"/>
</a>
</g>
</g>
<!-- Node8&#45;&gt;Node5 -->
<g id="edge8_Node000008_Node000005" class="edge">
<title>Node8&#45;&gt;Node5</title>
<g id="a_edge8_Node000008_Node000005"><a xlink:title=" ">
<path fill="none" stroke="#63b8ff" d="M683.56,-124.84C698.6,-128.37 714.68,-132.14 730.12,-135.77"/>
<polygon fill="#63b8ff" stroke="#63b8ff" points="729.21,-139.15 739.75,-138.03 730.81,-132.33 729.21,-139.15"/>
</a>
</g>
</g>
<!-- Node8&#45;&gt;Node6 -->
<g id="edge9_Node000008_Node000006" class="edge">
<title>Node8&#45;&gt;Node6</title>
<g id="a_edge9_Node000008_Node000006"><a xlink:title=" ">
<path fill="none" stroke="#63b8ff" d="M687.63,-94.26C707.76,-90.06 729.46,-85.54 748.83,-81.5"/>
<polygon fill="#63b8ff" stroke="#63b8ff" points="749.38,-84.96 758.45,-79.49 747.95,-78.11 749.38,-84.96"/>
</a>
</g>
</g>
<!-- Node8&#45;&gt;Node7 -->
<g id="edge10_Node000008_Node000007" class="edge">
<title>Node8&#45;&gt;Node7</title>
<g id="a_edge10_Node000008_Node000007"><a xlink:title=" ">
<path fill="none" stroke="#63b8ff" d="M687.63,-108.36C699.42,-108.24 711.75,-108.11 723.83,-107.98"/>
<polygon fill="#63b8ff" stroke="#63b8ff" points="723.84,-111.48 733.8,-107.88 723.76,-104.48 723.84,-111.48"/>
</a>
</g>
</g>
<!-- Node9&#45;&gt;Node5 -->
<g id="edge12_Node000009_Node000005" class="edge">
<title>Node9&#45;&gt;Node5</title>
<g id="a_edge12_Node000009_Node000005"><a xlink:title=" ">
<path fill="none" stroke="#63b8ff" d="M675.34,-76.18C682.14,-78.55 688.77,-81.48 694.75,-85.1 715.5,-97.66 710.71,-112.44 730.75,-126.1 734.85,-128.9 739.26,-131.45 743.83,-133.77"/>
<polygon fill="#63b8ff" stroke="#63b8ff" points="742.08,-136.82 752.62,-137.86 745.03,-130.47 742.08,-136.82"/>
</a>
</g>
</g>
<!-- Node9&#45;&gt;Node6 -->
<g id="edge13_Node000009_Node000006" class="edge">
<title>Node9&#45;&gt;Node6</title>
<g id="a_edge13_Node000009_Node000006"><a xlink:title=" ">
<path fill="none" stroke="#63b8ff" d="M695.05,-67.33C707.04,-67.52 719.4,-67.71 731.36,-67.9"/>
<polygon fill="#63b8ff" stroke="#63b8ff" points="731.1,-71.4 741.16,-68.05 731.21,-64.4 731.1,-71.4"/>
</a>
</g>
</g>
<!-- Node9&#45;&gt;Node7 -->
<g id="edge14_Node000009_Node000007" class="edge">
<title>Node9&#45;&gt;Node7</title>
<g id="a_edge14_Node000009_Node000007"><a xlink:title=" ">
<path fill="none" stroke="#63b8ff" d="M663.41,-76.13C689.52,-81.72 722.27,-88.72 750.01,-94.65"/>
<polygon fill="#63b8ff" stroke="#63b8ff" points="749.17,-98.05 759.68,-96.72 750.64,-91.2 749.17,-98.05"/>
</a>
</g>
</g>
</g>
</svg>
