<?xml version="1.0" encoding="UTF-8" standalone="no"?>
<!DOCTYPE svg PUBLIC "-//W3C//DTD SVG 1.1//EN"
 "http://www.w3.org/Graphics/SVG/1.1/DTD/svg11.dtd">
<!-- Generated by graphviz version 6.0.1 (20220911.1526)
 -->
<!-- Title: Nuki::NukiBle::addAuthorizationEntry Pages: 1 -->
<svg width="543pt" height="189pt"
 viewBox="0.00 0.00 543.00 188.50" xmlns="http://www.w3.org/2000/svg" xmlns:xlink="http://www.w3.org/1999/xlink">
<g id="graph0" class="graph" transform="scale(1 1) rotate(0) translate(4 184.5)">
<title>Nuki::NukiBle::addAuthorizationEntry</title>
<!-- Node1 -->
<g id="node1" class="node">
<title>Node1</title>
<g id="a_node1"><a xlink:title="Sends a new authorization entry to the lock via BLE.">
<polygon fill="#999999" stroke="#666666" points="152,-67.5 0,-67.5 0,-37.5 152,-37.5 152,-67.5"/>
<text text-anchor="start" x="8" y="-55.5" font-family="Helvetica,sans-Serif" font-size="10.00">Nuki::NukiBle::addAuthorization</text>
<text text-anchor="middle" x="76" y="-44.5" font-family="Helvetica,sans-Serif" font-size="10.00">Entry</text>
</a>
</g>
</g>
<!-- Node2 -->
<g id="node2" class="node">
<title>Node2</title>
<g id="a_node2"><a xlink:href="class_nuki_1_1_nuki_ble.html#af1f1e299e8d97e053bba80e92ba285d6" target="_top" xlink:title=" ">
<polygon fill="white" stroke="#666666" points="335,-105 193,-105 193,-86 335,-86 335,-105"/>
<text text-anchor="middle" x="264" y="-93" font-family="Helvetica,sans-Serif" font-size="10.00">Nuki::NukiBle::executeAction</text>
</a>
</g>
</g>
<!-- Node1&#45;&gt;Node2 -->
<g id="edge1" class="edge">
<title>Node1&#45;&gt;Node2</title>
<path fill="none" stroke="#63b8ff" d="M142.05,-67.54C164.93,-72.83 190.3,-78.69 211.87,-83.68"/>
<polygon fill="#63b8ff" stroke="#63b8ff" points="211.28,-87.14 221.81,-85.98 212.86,-80.32 211.28,-87.14"/>
</g>
<!-- Node7 -->
<g id="node7" class="node">
<title>Node7</title>
<g id="a_node7"><a xlink:href="namespace_nuki_lock.html#a6ed41649d4ecfc8ec23f170ff9bbcad1" target="_top" xlink:title=" ">
<polygon fill="white" stroke="#666666" points="340,-67.5 188,-67.5 188,-37.5 340,-37.5 340,-67.5"/>
<text text-anchor="start" x="196" y="-55.5" font-family="Helvetica,sans-Serif" font-size="10.00">NukiLock::logNewAuthorization</text>
<text text-anchor="middle" x="264" y="-44.5" font-family="Helvetica,sans-Serif" font-size="10.00">Entry</text>
</a>
</g>
</g>
<!-- Node1&#45;&gt;Node7 -->
<g id="edge6" class="edge">
<title>Node1&#45;&gt;Node7</title>
<path fill="none" stroke="#63b8ff" d="M152.12,-52.5C160.6,-52.5 169.28,-52.5 177.87,-52.5"/>
<polygon fill="#63b8ff" stroke="#63b8ff" points="177.9,-56 187.9,-52.5 177.9,-49 177.9,-56"/>
</g>
<!-- Node8 -->
<g id="node8" class="node">
<title>Node8</title>
<g id="a_node8"><a xlink:href="namespace_nuki.html#a280e19d4682ca4b35d3fe64001da816a" target="_top" xlink:title=" ">
<polygon fill="white" stroke="#666666" points="307,-19 221,-19 221,0 307,0 307,-19"/>
<text text-anchor="middle" x="264" y="-7" font-family="Helvetica,sans-Serif" font-size="10.00">Nuki::printBuffer</text>
</a>
</g>
</g>
<!-- Node1&#45;&gt;Node8 -->
<g id="edge7" class="edge">
<title>Node1&#45;&gt;Node8</title>
<path fill="none" stroke="#63b8ff" d="M142.05,-37.46C164.93,-32.17 190.3,-26.31 211.87,-21.32"/>
<polygon fill="#63b8ff" stroke="#63b8ff" points="212.86,-24.68 221.81,-19.02 211.28,-17.86 212.86,-24.68"/>
</g>
<!-- Node3 -->
<g id="node3" class="node">
<title>Node3</title>
<g id="a_node3"><a xlink:href="class_nuki_1_1_nuki_ble.html#ada0f3beebd95d35c122e25dd3f9eb886" target="_top" xlink:title=" ">
<polygon fill="white" stroke="#666666" points="524.5,-180.5 386.5,-180.5 386.5,-150.5 524.5,-150.5 524.5,-180.5"/>
<text text-anchor="start" x="394.5" y="-168.5" font-family="Helvetica,sans-Serif" font-size="10.00">Nuki::NukiBle::cmdChallAcc</text>
<text text-anchor="middle" x="455.5" y="-157.5" font-family="Helvetica,sans-Serif" font-size="10.00">StateMachine</text>
</a>
</g>
</g>
<!-- Node2&#45;&gt;Node3 -->
<g id="edge2" class="edge">
<title>Node2&#45;&gt;Node3</title>
<path fill="none" stroke="#63b8ff" d="M286.45,-105.11C308.64,-114.88 344.39,-130.15 376,-141.5 381.5,-143.47 387.25,-145.43 393.03,-147.33"/>
<polygon fill="#63b8ff" stroke="#63b8ff" points="392.16,-150.72 402.75,-150.45 394.3,-144.06 392.16,-150.72"/>
</g>
<!-- Node4 -->
<g id="node4" class="node">
<title>Node4</title>
<g id="a_node4"><a xlink:href="class_nuki_1_1_nuki_ble.html#a59169a9f492793762e3c6ba39b611b07" target="_top" xlink:title=" ">
<polygon fill="white" stroke="#666666" points="527.5,-132.5 383.5,-132.5 383.5,-102.5 527.5,-102.5 527.5,-132.5"/>
<text text-anchor="start" x="391.5" y="-120.5" font-family="Helvetica,sans-Serif" font-size="10.00">Nuki::NukiBle::cmdChallState</text>
<text text-anchor="middle" x="455.5" y="-109.5" font-family="Helvetica,sans-Serif" font-size="10.00">Machine</text>
</a>
</g>
</g>
<!-- Node2&#45;&gt;Node4 -->
<g id="edge3" class="edge">
<title>Node2&#45;&gt;Node4</title>
<path fill="none" stroke="#63b8ff" d="M335.02,-103.63C347.5,-105.08 360.6,-106.6 373.36,-108.08"/>
<polygon fill="#63b8ff" stroke="#63b8ff" points="373.16,-111.58 383.5,-109.26 373.97,-104.63 373.16,-111.58"/>
</g>
<!-- Node5 -->
<g id="node5" class="node">
<title>Node5</title>
<g id="a_node5"><a xlink:href="class_nuki_1_1_nuki_ble.html#ad135bb1455665decfddff67772c1d411" target="_top" xlink:title=" ">
<polygon fill="white" stroke="#666666" points="535,-84 376,-84 376,-65 535,-65 535,-84"/>
<text text-anchor="middle" x="455.5" y="-72" font-family="Helvetica,sans-Serif" font-size="10.00">Nuki::NukiBle::cmdStateMachine</text>
</a>
</g>
</g>
<!-- Node2&#45;&gt;Node5 -->
<g id="edge4" class="edge">
<title>Node2&#45;&gt;Node5</title>
<path fill="none" stroke="#63b8ff" d="M335.02,-87.74C344.99,-86.64 355.34,-85.49 365.61,-84.35"/>
<polygon fill="#63b8ff" stroke="#63b8ff" points="366.27,-87.8 375.82,-83.22 365.5,-80.84 366.27,-87.8"/>
</g>
<!-- Node6 -->
<g id="node6" class="node">
<title>Node6</title>
<g id="a_node6"><a xlink:href="class_nuki_1_1_nuki_ble.html#aed01f10d1ffa769f0f6fadc0d06d328e" target="_top" xlink:title=" ">
<polygon fill="white" stroke="#666666" points="531.5,-46.5 379.5,-46.5 379.5,-16.5 531.5,-16.5 531.5,-46.5"/>
<text text-anchor="start" x="387.5" y="-34.5" font-family="Helvetica,sans-Serif" font-size="10.00">Nuki::NukiBle::extendDisonnect</text>
<text text-anchor="middle" x="455.5" y="-23.5" font-family="Helvetica,sans-Serif" font-size="10.00">Timeout</text>
</a>
</g>
</g>
<!-- Node2&#45;&gt;Node6 -->
<g id="edge5" class="edge">
<title>Node2&#45;&gt;Node6</title>
<path fill="none" stroke="#63b8ff" d="M311.27,-85.94C320.93,-83.35 330.92,-80.21 340,-76.5 357.15,-69.49 359.03,-62.92 376,-55.5 380.42,-53.57 385.04,-51.73 389.74,-49.99"/>
<polygon fill="#63b8ff" stroke="#63b8ff" points="391.17,-53.19 399.43,-46.56 388.84,-46.59 391.17,-53.19"/>
</g>
</g>
</svg>
