<?xml version="1.0" encoding="UTF-8" standalone="no"?>
<!DOCTYPE svg PUBLIC "-//W3C//DTD SVG 1.1//EN"
 "http://www.w3.org/Graphics/SVG/1.1/DTD/svg11.dtd">
<!-- Generated by graphviz version 12.2.1 (20241206.2353)
 -->
<!-- Title: NukiOpener::NukiOpener::requestConfig Pages: 1 -->
<svg width="292pt" height="578pt"
 viewBox="0.00 0.00 292.00 577.50" xmlns="http://www.w3.org/2000/svg" xmlns:xlink="http://www.w3.org/1999/xlink">
<g id="graph0" class="graph" transform="scale(1 1) rotate(0) translate(4 573.5)">
<title>NukiOpener::NukiOpener::requestConfig</title>
<!-- Node1 -->
<g id="Node000001" class="node">
<title>Node1</title>
<g id="a_Node000001"><a xlink:title="Requests config from Opener via BLE.">
<polygon fill="#999999" stroke="#666666" points="284,-299.5 160,-299.5 160,-269 284,-269 284,-299.5"/>
<text text-anchor="start" x="168" y="-286" font-family="Helvetica,sans-Serif" font-size="10.00">NukiOpener::NukiOpener</text>
<text text-anchor="middle" x="222" y="-274.75" font-family="Helvetica,sans-Serif" font-size="10.00">::requestConfig</text>
</a>
</g>
</g>
<!-- Node2 -->
<g id="Node000002" class="node">
<title>Node2</title>
<g id="a_Node000002"><a xlink:href="class_nuki_opener_1_1_nuki_opener.html#aed7ed4621f341dbbb6638f80caf2b821" target="_top" xlink:title="Gets the current config from the opener, updates the enable button parameter and sends the new config...">
<polygon fill="white" stroke="#666666" points="124,-569.5 0,-569.5 0,-539 124,-539 124,-569.5"/>
<text text-anchor="start" x="8" y="-556" font-family="Helvetica,sans-Serif" font-size="10.00">NukiOpener::NukiOpener</text>
<text text-anchor="middle" x="62" y="-544.75" font-family="Helvetica,sans-Serif" font-size="10.00">::enableButton</text>
</a>
</g>
</g>
<!-- Node1&#45;&gt;Node2 -->
<g id="edge1_Node000001_Node000002" class="edge">
<title>Node1&#45;&gt;Node2</title>
<g id="a_edge1_Node000001_Node000002"><a xlink:title=" ">
<path fill="none" stroke="#63b8ff" d="M217.39,-311.01C209.37,-360.48 185.65,-466.85 124,-529.25 120.46,-532.83 116.34,-535.92 111.93,-538.58"/>
<polygon fill="#63b8ff" stroke="#63b8ff" points="220.83,-311.63 218.87,-301.22 213.91,-310.58 220.83,-311.63"/>
</a>
</g>
</g>
<!-- Node3 -->
<g id="Node000003" class="node">
<title>Node3</title>
<g id="a_Node000003"><a xlink:href="class_nuki_opener_1_1_nuki_opener.html#adec9646f1ab2554c30e48ca921027c27" target="_top" xlink:title="Gets the current config from the opener, updates the dst parameter and sends the new config to the op...">
<polygon fill="white" stroke="#666666" points="124,-520.5 0,-520.5 0,-490 124,-490 124,-520.5"/>
<text text-anchor="start" x="8" y="-507" font-family="Helvetica,sans-Serif" font-size="10.00">NukiOpener::NukiOpener</text>
<text text-anchor="middle" x="62" y="-495.75" font-family="Helvetica,sans-Serif" font-size="10.00">::enableDst</text>
</a>
</g>
</g>
<!-- Node1&#45;&gt;Node3 -->
<g id="edge2_Node000001_Node000003" class="edge">
<title>Node1&#45;&gt;Node3</title>
<g id="a_edge2_Node000001_Node000003"><a xlink:title=" ">
<path fill="none" stroke="#63b8ff" d="M214.4,-310.84C202.82,-352.34 175.07,-432.66 124,-480.25 120.15,-483.84 115.71,-486.95 111.02,-489.63"/>
<polygon fill="#63b8ff" stroke="#63b8ff" points="217.77,-311.78 216.97,-301.22 211.01,-309.97 217.77,-311.78"/>
</a>
</g>
</g>
<!-- Node4 -->
<g id="Node000004" class="node">
<title>Node4</title>
<g id="a_Node000004"><a xlink:href="class_nuki_opener_1_1_nuki_opener.html#a394f423aacea614075b4f75efcaa7ade" target="_top" xlink:title="Gets the current config from the opener, updates the whether or not the flashing LED should be enable...">
<polygon fill="white" stroke="#666666" points="124,-471.5 0,-471.5 0,-441 124,-441 124,-471.5"/>
<text text-anchor="start" x="8" y="-458" font-family="Helvetica,sans-Serif" font-size="10.00">NukiOpener::NukiOpener</text>
<text text-anchor="middle" x="62" y="-446.75" font-family="Helvetica,sans-Serif" font-size="10.00">::enableLedFlash</text>
</a>
</g>
</g>
<!-- Node1&#45;&gt;Node4 -->
<g id="edge3_Node000001_Node000004" class="edge">
<title>Node1&#45;&gt;Node4</title>
<g id="a_edge3_Node000001_Node000004"><a xlink:title=" ">
<path fill="none" stroke="#63b8ff" d="M209.81,-310.19C194.67,-342.56 164.77,-397.72 124,-431.25 119.67,-434.81 114.76,-437.93 109.65,-440.63"/>
<polygon fill="#63b8ff" stroke="#63b8ff" points="212.97,-311.7 213.92,-301.14 206.6,-308.8 212.97,-311.7"/>
</a>
</g>
</g>
<!-- Node5 -->
<g id="Node000005" class="node">
<title>Node5</title>
<g id="a_Node000005"><a xlink:href="class_nuki_opener_1_1_nuki_opener.html#ac4f34c593d6f10ac2c20b916fb95189a" target="_top" xlink:title="Sets the opener ability to pair with other devices (can be used to prevent unauthorized pairing) Gets...">
<polygon fill="white" stroke="#666666" points="124,-422.5 0,-422.5 0,-392 124,-392 124,-422.5"/>
<text text-anchor="start" x="8" y="-409" font-family="Helvetica,sans-Serif" font-size="10.00">NukiOpener::NukiOpener</text>
<text text-anchor="middle" x="62" y="-397.75" font-family="Helvetica,sans-Serif" font-size="10.00">::enablePairing</text>
</a>
</g>
</g>
<!-- Node1&#45;&gt;Node5 -->
<g id="edge4_Node000001_Node000005" class="edge">
<title>Node1&#45;&gt;Node5</title>
<g id="a_edge4_Node000001_Node000005"><a xlink:title=" ">
<path fill="none" stroke="#63b8ff" d="M201.97,-308.39C183.85,-330.09 154.81,-361.63 124,-382.25 118.86,-385.69 113.18,-388.79 107.41,-391.54"/>
<polygon fill="#63b8ff" stroke="#63b8ff" points="204.46,-310.88 208.09,-300.93 199.05,-306.44 204.46,-310.88"/>
</a>
</g>
</g>
<!-- Node6 -->
<g id="Node000006" class="node">
<title>Node6</title>
<g id="a_Node000006"><a xlink:href="class_nuki_opener_1_1_nuki_opener.html#aeda4cb90d96951662969b5a77560e7f0" target="_top" xlink:title="Gets the current config from the opener, updates the advertising frequency parameter and sends the ne...">
<polygon fill="white" stroke="#666666" points="124,-373.5 0,-373.5 0,-343 124,-343 124,-373.5"/>
<text text-anchor="start" x="8" y="-360" font-family="Helvetica,sans-Serif" font-size="10.00">NukiOpener::NukiOpener</text>
<text text-anchor="middle" x="62" y="-348.75" font-family="Helvetica,sans-Serif" font-size="10.00">::setAdvertisingMode</text>
</a>
</g>
</g>
<!-- Node1&#45;&gt;Node6 -->
<g id="edge5_Node000001_Node000006" class="edge">
<title>Node1&#45;&gt;Node6</title>
<g id="a_edge5_Node000001_Node000006"><a xlink:title=" ">
<path fill="none" stroke="#63b8ff" d="M181.71,-304.98C164.2,-313.99 143.22,-324.47 124,-333.25 117.13,-336.39 109.75,-339.57 102.57,-342.56"/>
<polygon fill="#63b8ff" stroke="#63b8ff" points="182.96,-308.28 190.23,-300.57 179.74,-302.06 182.96,-308.28"/>
</a>
</g>
</g>
<!-- Node7 -->
<g id="Node000007" class="node">
<title>Node7</title>
<g id="a_Node000007"><a xlink:href="class_nuki_opener_1_1_nuki_opener.html#ad77022352f265372617097e22954a21a" target="_top" xlink:title="Gets the current config from the opener, updates the given fob action parameter and sends the new con...">
<polygon fill="white" stroke="#666666" points="124,-324.5 0,-324.5 0,-294 124,-294 124,-324.5"/>
<text text-anchor="start" x="8" y="-311" font-family="Helvetica,sans-Serif" font-size="10.00">NukiOpener::NukiOpener</text>
<text text-anchor="middle" x="62" y="-299.75" font-family="Helvetica,sans-Serif" font-size="10.00">::setFobAction</text>
</a>
</g>
</g>
<!-- Node1&#45;&gt;Node7 -->
<g id="edge6_Node000001_Node000007" class="edge">
<title>Node1&#45;&gt;Node7</title>
<g id="a_edge6_Node000001_Node000007"><a xlink:title=" ">
<path fill="none" stroke="#63b8ff" d="M148.6,-295.71C140.53,-296.98 132.36,-298.27 124.45,-299.53"/>
<polygon fill="#63b8ff" stroke="#63b8ff" points="149.09,-299.17 158.42,-294.15 147.99,-292.26 149.09,-299.17"/>
</a>
</g>
</g>
<!-- Node8 -->
<g id="Node000008" class="node">
<title>Node8</title>
<g id="a_Node000008"><a xlink:href="class_nuki_opener_1_1_nuki_opener.html#a0bdd923d50e748afe15244920193c4cd" target="_top" xlink:title="Gets the current config from the opener, updates the latitude parameter and sends the new config to t...">
<polygon fill="white" stroke="#666666" points="124,-275.5 0,-275.5 0,-245 124,-245 124,-275.5"/>
<text text-anchor="start" x="8" y="-262" font-family="Helvetica,sans-Serif" font-size="10.00">NukiOpener::NukiOpener</text>
<text text-anchor="middle" x="62" y="-250.75" font-family="Helvetica,sans-Serif" font-size="10.00">::setLatitude</text>
</a>
</g>
</g>
<!-- Node1&#45;&gt;Node8 -->
<g id="edge7_Node000001_Node000008" class="edge">
<title>Node1&#45;&gt;Node8</title>
<g id="a_edge7_Node000001_Node000008"><a xlink:title=" ">
<path fill="none" stroke="#63b8ff" d="M148.6,-273.25C140.53,-272.03 132.36,-270.79 124.45,-269.58"/>
<polygon fill="#63b8ff" stroke="#63b8ff" points="148,-276.7 158.42,-274.74 149.06,-269.78 148,-276.7"/>
</a>
</g>
</g>
<!-- Node9 -->
<g id="Node000009" class="node">
<title>Node9</title>
<g id="a_Node000009"><a xlink:href="class_nuki_opener_1_1_nuki_opener.html#a01c5c371a31a08b6fe6395bbcd780841" target="_top" xlink:title="Gets the current config from the opener, updates the longitude parameter and sends the new config to ...">
<polygon fill="white" stroke="#666666" points="124,-226.5 0,-226.5 0,-196 124,-196 124,-226.5"/>
<text text-anchor="start" x="8" y="-213" font-family="Helvetica,sans-Serif" font-size="10.00">NukiOpener::NukiOpener</text>
<text text-anchor="middle" x="62" y="-201.75" font-family="Helvetica,sans-Serif" font-size="10.00">::setLongitude</text>
</a>
</g>
</g>
<!-- Node1&#45;&gt;Node9 -->
<g id="edge8_Node000001_Node000009" class="edge">
<title>Node1&#45;&gt;Node9</title>
<g id="a_edge8_Node000001_Node000009"><a xlink:title=" ">
<path fill="none" stroke="#63b8ff" d="M180.88,-263.6C163.52,-254.88 142.89,-244.78 124,-236.25 117.12,-233.14 109.73,-229.97 102.55,-226.98"/>
<polygon fill="#63b8ff" stroke="#63b8ff" points="178.83,-266.49 189.33,-267.88 181.99,-260.24 178.83,-266.49"/>
</a>
</g>
</g>
<!-- Node10 -->
<g id="Node000010" class="node">
<title>Node10</title>
<g id="a_Node000010"><a xlink:href="class_nuki_opener_1_1_nuki_opener.html#ae43af00023df78b352c61c98730c1aa9" target="_top" xlink:title="Gets the current config from the opener, updates the name parameter and sends the new config to the o...">
<polygon fill="white" stroke="#666666" points="124,-177.5 0,-177.5 0,-147 124,-147 124,-177.5"/>
<text text-anchor="start" x="8" y="-164" font-family="Helvetica,sans-Serif" font-size="10.00">NukiOpener::NukiOpener</text>
<text text-anchor="middle" x="62" y="-152.75" font-family="Helvetica,sans-Serif" font-size="10.00">::setName</text>
</a>
</g>
</g>
<!-- Node1&#45;&gt;Node10 -->
<g id="edge9_Node000001_Node000010" class="edge">
<title>Node1&#45;&gt;Node10</title>
<g id="a_edge9_Node000001_Node000010"><a xlink:title=" ">
<path fill="none" stroke="#63b8ff" d="M201.37,-259.71C183.18,-238.27 154.4,-207.48 124,-187.25 118.85,-183.83 113.17,-180.73 107.39,-177.99"/>
<polygon fill="#63b8ff" stroke="#63b8ff" points="198.67,-261.94 207.76,-267.39 204.05,-257.47 198.67,-261.94"/>
</a>
</g>
</g>
<!-- Node11 -->
<g id="Node000011" class="node">
<title>Node11</title>
<g id="a_Node000011"><a xlink:href="class_nuki_opener_1_1_nuki_opener.html#a33030ce3d8aaf1d23aee03d56cdc909d" target="_top" xlink:title="Gets the current config from the opener, updates the operating mode parameter and sends the new confi...">
<polygon fill="white" stroke="#666666" points="124,-128.5 0,-128.5 0,-98 124,-98 124,-128.5"/>
<text text-anchor="start" x="8" y="-115" font-family="Helvetica,sans-Serif" font-size="10.00">NukiOpener::NukiOpener</text>
<text text-anchor="middle" x="62" y="-103.75" font-family="Helvetica,sans-Serif" font-size="10.00">::setOperatingMode</text>
</a>
</g>
</g>
<!-- Node1&#45;&gt;Node11 -->
<g id="edge10_Node000001_Node000011" class="edge">
<title>Node1&#45;&gt;Node11</title>
<g id="a_edge10_Node000001_Node000011"><a xlink:title=" ">
<path fill="none" stroke="#63b8ff" d="M209.77,-258.49C194.58,-226.34 164.63,-171.56 124,-138.25 119.66,-134.69 114.75,-131.58 109.64,-128.88"/>
<polygon fill="#63b8ff" stroke="#63b8ff" points="206.54,-259.84 213.89,-267.47 212.9,-256.92 206.54,-259.84"/>
</a>
</g>
</g>
<!-- Node12 -->
<g id="Node000012" class="node">
<title>Node12</title>
<g id="a_Node000012"><a xlink:href="class_nuki_opener_1_1_nuki_opener.html#a9b11d1e7e08826a1a218adc3439618d4" target="_top" xlink:title="Gets the current config from the opener, updates the timezone id parameter and sends the new config t...">
<polygon fill="white" stroke="#666666" points="124,-79.5 0,-79.5 0,-49 124,-49 124,-79.5"/>
<text text-anchor="start" x="8" y="-66" font-family="Helvetica,sans-Serif" font-size="10.00">NukiOpener::NukiOpener</text>
<text text-anchor="middle" x="62" y="-54.75" font-family="Helvetica,sans-Serif" font-size="10.00">::setTimeZoneId</text>
</a>
</g>
</g>
<!-- Node1&#45;&gt;Node12 -->
<g id="edge11_Node000001_Node000012" class="edge">
<title>Node1&#45;&gt;Node12</title>
<g id="a_edge11_Node000001_Node000012"><a xlink:title=" ">
<path fill="none" stroke="#63b8ff" d="M214.27,-257.49C202.59,-216.11 174.78,-136.47 124,-89.25 120.14,-85.66 115.71,-82.56 111.02,-79.88"/>
<polygon fill="#63b8ff" stroke="#63b8ff" points="210.88,-258.36 216.87,-267.09 217.64,-256.53 210.88,-258.36"/>
</a>
</g>
</g>
<!-- Node13 -->
<g id="Node000013" class="node">
<title>Node13</title>
<g id="a_Node000013"><a xlink:href="class_nuki_opener_1_1_nuki_opener.html#aeff91361728c22170ffcdce86c1de701" target="_top" xlink:title="Gets the current config from the opener, updates the timezone offset parameter and sends the new conf...">
<polygon fill="white" stroke="#666666" points="124,-30.5 0,-30.5 0,0 124,0 124,-30.5"/>
<text text-anchor="start" x="8" y="-17" font-family="Helvetica,sans-Serif" font-size="10.00">NukiOpener::NukiOpener</text>
<text text-anchor="middle" x="62" y="-5.75" font-family="Helvetica,sans-Serif" font-size="10.00">::setTimeZoneOffset</text>
</a>
</g>
</g>
<!-- Node1&#45;&gt;Node13 -->
<g id="edge12_Node000001_Node000013" class="edge">
<title>Node1&#45;&gt;Node13</title>
<g id="a_edge12_Node000001_Node000013"><a xlink:title=" ">
<path fill="none" stroke="#63b8ff" d="M217.3,-257.24C209.17,-207.82 185.33,-102.24 124,-40.25 120.46,-36.67 116.33,-33.58 111.93,-30.92"/>
<polygon fill="#63b8ff" stroke="#63b8ff" points="213.82,-257.69 218.81,-267.04 220.74,-256.62 213.82,-257.69"/>
</a>
</g>
</g>
</g>
</svg>
