<?xml version="1.0" encoding="UTF-8" standalone="no"?>
<!DOCTYPE svg PUBLIC "-//W3C//DTD SVG 1.1//EN"
 "http://www.w3.org/Graphics/SVG/1.1/DTD/svg11.dtd">
<!-- Generated by graphviz version 12.2.1 (20241206.2353)
 -->
<!-- Title: NukiOpener::NukiOpener::setLongitude Pages: 1 -->
<svg width="857pt" height="205pt"
 viewBox="0.00 0.00 856.75 204.75" xmlns="http://www.w3.org/2000/svg" xmlns:xlink="http://www.w3.org/1999/xlink">
<g id="graph0" class="graph" transform="scale(1 1) rotate(0) translate(4 200.75)">
<title>NukiOpener::NukiOpener::setLongitude</title>
<!-- Node1 -->
<g id="Node000001" class="node">
<title>Node1</title>
<g id="a_Node000001"><a xlink:title="Gets the current config from the opener, updates the longitude parameter and sends the new config to ...">
<polygon fill="#999999" stroke="#666666" points="124,-102.35 0,-102.35 0,-71.85 124,-71.85 124,-102.35"/>
<text text-anchor="start" x="8" y="-88.85" font-family="Helvetica,sans-Serif" font-size="10.00">NukiOpener::NukiOpener</text>
<text text-anchor="middle" x="62" y="-77.6" font-family="Helvetica,sans-Serif" font-size="10.00">::setLongitude</text>
</a>
</g>
</g>
<!-- Node2 -->
<g id="Node000002" class="node">
<title>Node2</title>
<g id="a_Node000002"><a xlink:href="class_nuki_opener_1_1_nuki_opener.html#ae0e0e3fef5bdadbbfe58d2eaa74f74dc" target="_top" xlink:title="Requests config from Opener via BLE.">
<polygon fill="white" stroke="#666666" points="284,-102.35 160,-102.35 160,-71.85 284,-71.85 284,-102.35"/>
<text text-anchor="start" x="168" y="-88.85" font-family="Helvetica,sans-Serif" font-size="10.00">NukiOpener::NukiOpener</text>
<text text-anchor="middle" x="222" y="-77.6" font-family="Helvetica,sans-Serif" font-size="10.00">::requestConfig</text>
</a>
</g>
</g>
<!-- Node1&#45;&gt;Node2 -->
<g id="edge1_Node000001_Node000002" class="edge">
<title>Node1&#45;&gt;Node2</title>
<g id="a_edge1_Node000001_Node000002"><a xlink:title=" ">
<path fill="none" stroke="#63b8ff" d="M124.09,-87.1C132,-87.1 140.16,-87.1 148.23,-87.1"/>
<polygon fill="#63b8ff" stroke="#63b8ff" points="148.04,-90.6 158.04,-87.1 148.04,-83.6 148.04,-90.6"/>
</a>
</g>
</g>
<!-- Node3 -->
<g id="Node000003" class="node">
<title>Node3</title>
<g id="a_Node000003"><a xlink:href="class_nuki_1_1_nuki_ble.html#af1f1e299e8d97e053bba80e92ba285d6" target="_top" xlink:title=" ">
<polygon fill="white" stroke="#666666" points="461.25,-96.73 320,-96.73 320,-77.48 461.25,-77.48 461.25,-96.73"/>
<text text-anchor="middle" x="390.62" y="-83.23" font-family="Helvetica,sans-Serif" font-size="10.00">Nuki::NukiBle::executeAction</text>
</a>
</g>
</g>
<!-- Node2&#45;&gt;Node3 -->
<g id="edge2_Node000002_Node000003" class="edge">
<title>Node2&#45;&gt;Node3</title>
<g id="a_edge2_Node000002_Node000003"><a xlink:title=" ">
<path fill="none" stroke="#63b8ff" d="M284.1,-87.1C291.93,-87.1 300.04,-87.1 308.12,-87.1"/>
<polygon fill="#63b8ff" stroke="#63b8ff" points="308,-90.6 318,-87.1 308,-83.6 308,-90.6"/>
</a>
</g>
</g>
<!-- Node4 -->
<g id="Node000004" class="node">
<title>Node4</title>
<g id="a_Node000004"><a xlink:href="class_nuki_1_1_nuki_ble.html#ada0f3beebd95d35c122e25dd3f9eb886" target="_top" xlink:title=" ">
<polygon fill="white" stroke="#666666" points="645.25,-173.35 507.75,-173.35 507.75,-142.85 645.25,-142.85 645.25,-173.35"/>
<text text-anchor="start" x="515.75" y="-159.85" font-family="Helvetica,sans-Serif" font-size="10.00">Nuki::NukiBle::cmdChallAcc</text>
<text text-anchor="middle" x="576.5" y="-148.6" font-family="Helvetica,sans-Serif" font-size="10.00">StateMachine</text>
</a>
</g>
</g>
<!-- Node3&#45;&gt;Node4 -->
<g id="edge3_Node000003_Node000004" class="edge">
<title>Node3&#45;&gt;Node4</title>
<g id="a_edge3_Node000003_Node000004"><a xlink:title=" ">
<path fill="none" stroke="#63b8ff" d="M412.81,-97.09C433.95,-106.87 467.49,-121.9 497.25,-133.1 502.46,-135.06 507.89,-137 513.37,-138.89"/>
<polygon fill="#63b8ff" stroke="#63b8ff" points="511.86,-142.08 522.46,-141.95 514.1,-135.44 511.86,-142.08"/>
</a>
</g>
</g>
<!-- Node5 -->
<g id="Node000005" class="node">
<title>Node5</title>
<g id="a_Node000005"><a xlink:href="class_nuki_1_1_nuki_ble.html#a6e8fca90c04249660dce6cb993eb4495" target="_top" xlink:title=" ">
<polygon fill="white" stroke="#666666" points="848.75,-169.35 691.75,-169.35 691.75,-138.85 848.75,-138.85 848.75,-169.35"/>
<text text-anchor="start" x="699.75" y="-155.85" font-family="Helvetica,sans-Serif" font-size="10.00">Nuki::NukiBle::extendDisconnect</text>
<text text-anchor="middle" x="770.25" y="-144.6" font-family="Helvetica,sans-Serif" font-size="10.00">Timeout</text>
</a>
</g>
</g>
<!-- Node3&#45;&gt;Node5 -->
<g id="edge15_Node000003_Node000005" class="edge">
<title>Node3&#45;&gt;Node5</title>
<g id="a_edge15_Node000003_Node000005"><a xlink:title=" ">
<path fill="none" stroke="#63b8ff" d="M398.64,-97.14C413.79,-117.83 451.89,-164.7 497.25,-182.1 569.76,-209.91 660.67,-190.75 716.86,-173.28"/>
<polygon fill="#63b8ff" stroke="#63b8ff" points="717.72,-176.68 726.18,-170.29 715.58,-170.02 717.72,-176.68"/>
</a>
</g>
</g>
<!-- Node6 -->
<g id="Node000006" class="node">
<title>Node6</title>
<g id="a_Node000006"><a xlink:href="class_nuki_1_1_nuki_ble.html#ac7ce691d9c3e586474655d1663eb2e20" target="_top" xlink:title=" ">
<polygon fill="white" stroke="#666666" points="836.38,-78.73 704.12,-78.73 704.12,-59.48 836.38,-59.48 836.38,-78.73"/>
<text text-anchor="middle" x="770.25" y="-65.23" font-family="Helvetica,sans-Serif" font-size="10.00">Nuki::NukiBle::logMessage</text>
</a>
</g>
</g>
<!-- Node3&#45;&gt;Node6 -->
<g id="edge16_Node000003_Node000006" class="edge">
<title>Node3&#45;&gt;Node6</title>
<g id="a_edge16_Node000003_Node000006"><a xlink:title=" ">
<path fill="none" stroke="#63b8ff" d="M401.56,-77.03C419.03,-60.1 457.24,-26.58 497.25,-14.1 564.5,6.88 587.09,1.66 655.75,-14.1 688.36,-21.59 722.48,-39.73 744.69,-53.14"/>
<polygon fill="#63b8ff" stroke="#63b8ff" points="742.66,-56 753,-58.3 746.35,-50.06 742.66,-56"/>
</a>
</g>
</g>
<!-- Node7 -->
<g id="Node000007" class="node">
<title>Node7</title>
<g id="a_Node000007"><a xlink:href="class_nuki_1_1_nuki_ble.html#af3650133f46aeca48a5f01b95d23ab71" target="_top" xlink:title=" ">
<polygon fill="white" stroke="#666666" points="843.88,-116.73 696.62,-116.73 696.62,-97.48 843.88,-97.48 843.88,-116.73"/>
<text text-anchor="middle" x="770.25" y="-103.23" font-family="Helvetica,sans-Serif" font-size="10.00">Nuki::NukiBle::logMessageVar</text>
</a>
</g>
</g>
<!-- Node3&#45;&gt;Node7 -->
<g id="edge17_Node000003_Node000007" class="edge">
<title>Node3&#45;&gt;Node7</title>
<g id="a_edge17_Node000003_Node000007"><a xlink:title=" ">
<path fill="none" stroke="#63b8ff" d="M411.2,-77.03C456.43,-55.24 570.83,-8.66 655.75,-47.1 677.84,-57.1 671.02,-75.52 691.75,-88.1 694.68,-89.88 697.76,-91.49 700.94,-92.95"/>
<polygon fill="#63b8ff" stroke="#63b8ff" points="699.38,-96.09 709.97,-96.55 701.98,-89.59 699.38,-96.09"/>
</a>
</g>
</g>
<!-- Node8 -->
<g id="Node000008" class="node">
<title>Node8</title>
<g id="a_Node000008"><a xlink:href="class_nuki_1_1_nuki_ble.html#a59169a9f492793762e3c6ba39b611b07" target="_top" xlink:title=" ">
<polygon fill="white" stroke="#666666" points="648.25,-124.35 504.75,-124.35 504.75,-93.85 648.25,-93.85 648.25,-124.35"/>
<text text-anchor="start" x="512.75" y="-110.85" font-family="Helvetica,sans-Serif" font-size="10.00">Nuki::NukiBle::cmdChallState</text>
<text text-anchor="middle" x="576.5" y="-99.6" font-family="Helvetica,sans-Serif" font-size="10.00">Machine</text>
</a>
</g>
</g>
<!-- Node3&#45;&gt;Node8 -->
<g id="edge7_Node000003_Node000008" class="edge">
<title>Node3&#45;&gt;Node8</title>
<g id="a_edge7_Node000003_Node000008"><a xlink:title=" ">
<path fill="none" stroke="#63b8ff" d="M461.66,-95.48C471.95,-96.71 482.62,-97.99 493.13,-99.25"/>
<polygon fill="#63b8ff" stroke="#63b8ff" points="492.59,-102.71 502.93,-100.42 493.42,-95.76 492.59,-102.71"/>
</a>
</g>
</g>
<!-- Node9 -->
<g id="Node000009" class="node">
<title>Node9</title>
<g id="a_Node000009"><a xlink:href="class_nuki_1_1_nuki_ble.html#ad135bb1455665decfddff67772c1d411" target="_top" xlink:title=" ">
<polygon fill="white" stroke="#666666" points="655.75,-75.73 497.25,-75.73 497.25,-56.48 655.75,-56.48 655.75,-75.73"/>
<text text-anchor="middle" x="576.5" y="-62.23" font-family="Helvetica,sans-Serif" font-size="10.00">Nuki::NukiBle::cmdStateMachine</text>
</a>
</g>
</g>
<!-- Node3&#45;&gt;Node9 -->
<g id="edge11_Node000003_Node000009" class="edge">
<title>Node3&#45;&gt;Node9</title>
<g id="a_edge11_Node000003_Node000009"><a xlink:title=" ">
<path fill="none" stroke="#63b8ff" d="M461.66,-79.1C469.53,-78.21 477.62,-77.28 485.69,-76.36"/>
<polygon fill="#63b8ff" stroke="#63b8ff" points="486.01,-79.85 495.55,-75.23 485.22,-72.89 486.01,-79.85"/>
</a>
</g>
</g>
<!-- Node4&#45;&gt;Node5 -->
<g id="edge4_Node000004_Node000005" class="edge">
<title>Node4&#45;&gt;Node5</title>
<g id="a_edge4_Node000004_Node000005"><a xlink:title=" ">
<path fill="none" stroke="#63b8ff" d="M645.64,-156.68C656.79,-156.45 668.47,-156.2 680.03,-155.96"/>
<polygon fill="#63b8ff" stroke="#63b8ff" points="680.08,-159.46 690.01,-155.76 679.94,-152.46 680.08,-159.46"/>
</a>
</g>
</g>
<!-- Node4&#45;&gt;Node6 -->
<g id="edge5_Node000004_Node000006" class="edge">
<title>Node4&#45;&gt;Node6</title>
<g id="a_edge5_Node000004_Node000006"><a xlink:title=" ">
<path fill="none" stroke="#63b8ff" d="M638.97,-142.38C644.88,-139.73 650.58,-136.66 655.75,-133.1 676.85,-118.58 670.16,-101.89 691.75,-88.1 694.34,-86.45 697.07,-84.94 699.88,-83.56"/>
<polygon fill="#63b8ff" stroke="#63b8ff" points="701.16,-86.82 709.01,-79.7 698.44,-80.37 701.16,-86.82"/>
</a>
</g>
</g>
<!-- Node4&#45;&gt;Node7 -->
<g id="edge6_Node000004_Node000007" class="edge">
<title>Node4&#45;&gt;Node7</title>
<g id="a_edge6_Node000004_Node000007"><a xlink:title=" ">
<path fill="none" stroke="#63b8ff" d="M636.6,-142.38C663.44,-135.25 694.81,-126.9 720.3,-120.12"/>
<polygon fill="#63b8ff" stroke="#63b8ff" points="720.97,-123.56 729.74,-117.61 719.18,-116.8 720.97,-123.56"/>
</a>
</g>
</g>
<!-- Node8&#45;&gt;Node5 -->
<g id="edge8_Node000008_Node000005" class="edge">
<title>Node8&#45;&gt;Node5</title>
<g id="a_edge8_Node000008_Node000005"><a xlink:title=" ">
<path fill="none" stroke="#63b8ff" d="M644.56,-124.84C659.6,-128.37 675.68,-132.14 691.12,-135.77"/>
<polygon fill="#63b8ff" stroke="#63b8ff" points="690.21,-139.15 700.75,-138.03 691.81,-132.33 690.21,-139.15"/>
</a>
</g>
</g>
<!-- Node8&#45;&gt;Node6 -->
<g id="edge9_Node000008_Node000006" class="edge">
<title>Node8&#45;&gt;Node6</title>
<g id="a_edge9_Node000008_Node000006"><a xlink:title=" ">
<path fill="none" stroke="#63b8ff" d="M648.63,-94.26C668.76,-90.06 690.46,-85.54 709.83,-81.5"/>
<polygon fill="#63b8ff" stroke="#63b8ff" points="710.38,-84.96 719.45,-79.49 708.95,-78.11 710.38,-84.96"/>
</a>
</g>
</g>
<!-- Node8&#45;&gt;Node7 -->
<g id="edge10_Node000008_Node000007" class="edge">
<title>Node8&#45;&gt;Node7</title>
<g id="a_edge10_Node000008_Node000007"><a xlink:title=" ">
<path fill="none" stroke="#63b8ff" d="M648.63,-108.36C660.42,-108.24 672.75,-108.11 684.83,-107.98"/>
<polygon fill="#63b8ff" stroke="#63b8ff" points="684.84,-111.48 694.8,-107.88 684.76,-104.48 684.84,-111.48"/>
</a>
</g>
</g>
<!-- Node9&#45;&gt;Node5 -->
<g id="edge12_Node000009_Node000005" class="edge">
<title>Node9&#45;&gt;Node5</title>
<g id="a_edge12_Node000009_Node000005"><a xlink:title=" ">
<path fill="none" stroke="#63b8ff" d="M636.34,-76.18C643.14,-78.55 649.77,-81.48 655.75,-85.1 676.5,-97.66 671.71,-112.44 691.75,-126.1 695.85,-128.9 700.26,-131.45 704.83,-133.77"/>
<polygon fill="#63b8ff" stroke="#63b8ff" points="703.08,-136.82 713.62,-137.86 706.03,-130.47 703.08,-136.82"/>
</a>
</g>
</g>
<!-- Node9&#45;&gt;Node6 -->
<g id="edge13_Node000009_Node000006" class="edge">
<title>Node9&#45;&gt;Node6</title>
<g id="a_edge13_Node000009_Node000006"><a xlink:title=" ">
<path fill="none" stroke="#63b8ff" d="M656.05,-67.33C668.04,-67.52 680.4,-67.71 692.36,-67.9"/>
<polygon fill="#63b8ff" stroke="#63b8ff" points="692.1,-71.4 702.16,-68.05 692.21,-64.4 692.1,-71.4"/>
</a>
</g>
</g>
<!-- Node9&#45;&gt;Node7 -->
<g id="edge14_Node000009_Node000007" class="edge">
<title>Node9&#45;&gt;Node7</title>
<g id="a_edge14_Node000009_Node000007"><a xlink:title=" ">
<path fill="none" stroke="#63b8ff" d="M624.41,-76.13C650.52,-81.72 683.27,-88.72 711.01,-94.65"/>
<polygon fill="#63b8ff" stroke="#63b8ff" points="710.17,-98.05 720.68,-96.72 711.64,-91.2 710.17,-98.05"/>
</a>
</g>
</g>
</g>
</svg>
