<?xml version="1.0" encoding="UTF-8" standalone="no"?>
<!DOCTYPE svg PUBLIC "-//W3C//DTD SVG 1.1//EN"
 "http://www.w3.org/Graphics/SVG/1.1/DTD/svg11.dtd">
<!-- Generated by graphviz version 8.0.5 (20230430.1635)
 -->
<!-- Title: NukiLock::NukiLock Pages: 1 -->
<svg width="246pt" height="138pt"
 viewBox="0.00 0.00 245.75 137.75" xmlns="http://www.w3.org/2000/svg" xmlns:xlink="http://www.w3.org/1999/xlink">
<g id="graph0" class="graph" transform="scale(1 1) rotate(0) translate(4 133.75)">
<title>NukiLock::NukiLock</title>
<!-- Node1 -->
<g id="node1" class="node">
<title>Node1</title>
<g id="a_node1"><a xlink:title=" ">
<polygon fill="#999999" stroke="#666666" points="167.38,-19.25 62.88,-19.25 62.88,0 167.38,0 167.38,-19.25"/>
<text text-anchor="middle" x="115.12" y="-5.75" font-family="Helvetica,sans-Serif" font-size="10.00">NukiLock::NukiLock</text>
</a>
</g>
</g>
<!-- Node2 -->
<g id="node2" class="node">
<title>Node2</title>
<g id="a_node2"><a xlink:href="class_nuki_1_1_nuki_ble.html" target="_top" xlink:title=" ">
<polygon fill="white" stroke="#666666" points="152.75,-74.5 77.5,-74.5 77.5,-55.25 152.75,-55.25 152.75,-74.5"/>
<text text-anchor="middle" x="115.12" y="-61" font-family="Helvetica,sans-Serif" font-size="10.00">Nuki::NukiBle</text>
</a>
</g>
</g>
<!-- Node2&#45;&gt;Node1 -->
<g id="edge1" class="edge">
<title>Node2&#45;&gt;Node1</title>
<path fill="none" stroke="#63b8ff" d="M115.12,-44.21C115.12,-35.77 115.12,-26.33 115.12,-19.61"/>
<polygon fill="#63b8ff" stroke="#63b8ff" points="111.63,-44.08 115.12,-54.08 118.63,-44.08 111.63,-44.08"/>
</g>
<!-- Node3 -->
<g id="node3" class="node">
<title>Node3</title>
<g id="a_node3"><a xlink:title=" ">
<polygon fill="white" stroke="#666666" points="102.25,-129.75 0,-129.75 0,-110.5 102.25,-110.5 102.25,-129.75"/>
<text text-anchor="middle" x="51.12" y="-116.25" font-family="Helvetica,sans-Serif" font-size="10.00">BLEClientCallbacks</text>
</a>
</g>
</g>
<!-- Node3&#45;&gt;Node2 -->
<g id="edge2" class="edge">
<title>Node3&#45;&gt;Node2</title>
<path fill="none" stroke="#63b8ff" d="M70.28,-103.19C81.45,-93.89 95.14,-82.51 104.43,-74.77"/>
<polygon fill="#63b8ff" stroke="#63b8ff" points="68.43,-101.01 62.98,-110.09 72.91,-106.39 68.43,-101.01"/>
</g>
<!-- Node4 -->
<g id="node4" class="node">
<title>Node4</title>
<g id="a_node4"><a xlink:title=" ">
<polygon fill="white" stroke="#666666" points="237.75,-129.75 120.5,-129.75 120.5,-110.5 237.75,-110.5 237.75,-129.75"/>
<text text-anchor="middle" x="179.12" y="-116.25" font-family="Helvetica,sans-Serif" font-size="10.00">BleScanner::Subscriber</text>
</a>
</g>
</g>
<!-- Node4&#45;&gt;Node2 -->
<g id="edge3" class="edge">
<title>Node4&#45;&gt;Node2</title>
<path fill="none" stroke="#63b8ff" d="M159.97,-103.19C148.8,-93.89 135.11,-82.51 125.82,-74.77"/>
<polygon fill="#63b8ff" stroke="#63b8ff" points="157.34,-106.39 167.27,-110.09 161.82,-101.01 157.34,-106.39"/>
</g>
</g>
</svg>
