<?xml version="1.0" encoding="UTF-8" standalone="no"?>
<!DOCTYPE svg PUBLIC "-//W3C//DTD SVG 1.1//EN"
 "http://www.w3.org/Graphics/SVG/1.1/DTD/svg11.dtd">
<!-- Generated by graphviz version 12.2.1 (20241206.2353)
 -->
<!-- Title: NukiLock::NukiLock::handleReturnMessage Pages: 1 -->
<!--zoomable 310 -->

<svg id="main" version="1.1" xmlns="http://www.w3.org/2000/svg" xmlns:xlink="http://www.w3.org/1999/xlink" xml:space="preserve" onload="init(evt)">

<style type="text/css"><![CDATA[
.node, .edge {opacity: 0.7;}
.node.selected, .edge.selected {opacity: 1;}
.edge:hover path { stroke: red; }
.edge:hover polygon { stroke: red; fill: red; }
]]></style>

<defs>
  <circle id="rim" cx="0" cy="0" r="7"/>
  <circle id="rim2" cx="0" cy="0" r="3.5"/>
  <g id="zoomPlus">
    <use xlink:href="#rim" fill="#404040"><set attributeName="fill" to="#808080" begin="zoomplus.mouseover" end="zoomplus.mouseout"/></use>
    <path d="M-4,0h8M0,-4v8" fill="none" stroke="white" stroke-width="1.5" pointer-events="none"/>
  </g>
  <g id="zoomMin">
    <use xlink:href="#rim" fill="#404040"><set attributeName="fill" to="#808080" begin="zoomminus.mouseover" end="zoomminus.mouseout"/></use>
    <path d="M-4,0h8" fill="none" stroke="white" stroke-width="1.5" pointer-events="none"/>
  </g>
  <g id="arrowUp" transform="translate(30 24)">
    <use xlink:href="#rim"/>
    <path pointer-events="none" fill="none" stroke="white" stroke-width="1.5" d="M0,-3.0v7 M-2.5,-0.5L0,-3.0L2.5,-0.5"/>
  </g>
  <g id="arrowRight" transform="rotate(90) translate(36 -43)">
    <use xlink:href="#rim"/>
    <path pointer-events="none" fill="none" stroke="white" stroke-width="1.5" d="M0,-3.0v7 M-2.5,-0.5L0,-3.0L2.5,-0.5"/>
  </g>
  <g id="arrowDown" transform="rotate(180) translate(-30 -48)">
    <use xlink:href="#rim"/>
    <path pointer-events="none" fill="none" stroke="white" stroke-width="1.5" d="M0,-3.0v7 M-2.5,-0.5L0,-3.0L2.5,-0.5"/>
  </g>
  <g id="arrowLeft" transform="rotate(270) translate(-36 17)">
    <use xlink:href="#rim"/>
    <path pointer-events="none" fill="none" stroke="white" stroke-width="1.5" d="M0,-3.0v7 M-2.5,-0.5L0,-3.0L2.5,-0.5"/>
  </g>
  <g id="resetDef">
    <use xlink:href="#rim2" fill="#404040"><set attributeName="fill" to="#808080" begin="reset.mouseover" end="reset.mouseout"/></use>
  </g>
</defs>
<script type="application/ecmascript">
var viewWidth = 658;
var viewHeight = 310;
var sectionId = 'dynsection-21';
</script>
<script type="application/ecmascript" xlink:href="svg.min.js"/>
<svg id="graph" class="graph">
<g id="viewport">
<title>NukiLock::NukiLock::handleReturnMessage</title>
<!-- Node1 -->
<g id="Node000001" class="node">
<title>Node1</title>
<g id="a_Node000001"><a xlink:title=" ">
<polygon fill="#999999" stroke="#666666" points="117.25,-153.88 0,-153.88 0,-123.38 117.25,-123.38 117.25,-153.88"/>
<text text-anchor="start" x="8" y="-140.38" font-family="Helvetica,sans-Serif" font-size="10.00">NukiLock::NukiLock</text>
<text text-anchor="middle" x="58.62" y="-129.12" font-family="Helvetica,sans-Serif" font-size="10.00">::handleReturnMessage</text>
</a>
</g>
</g>
<!-- Node2 -->
<g id="Node000002" class="node">
<title>Node2</title>
<g id="a_Node000002"><a xlink:href="class_nuki_1_1_nuki_ble.html#a6e8fca90c04249660dce6cb993eb4495" target="_top" xlink:title=" ">
<polygon fill="white" stroke="#666666" points="310.25,-301.88 153.25,-301.88 153.25,-271.38 310.25,-271.38 310.25,-301.88"/>
<text text-anchor="start" x="161.25" y="-288.38" font-family="Helvetica,sans-Serif" font-size="10.00">Nuki::NukiBle::extendDisconnect</text>
<text text-anchor="middle" x="231.75" y="-277.12" font-family="Helvetica,sans-Serif" font-size="10.00">Timeout</text>
</a>
</g>
</g>
<!-- Node1&#45;&gt;Node2 -->
<g id="edge1_Node000001_Node000002" class="edge">
<title>Node1&#45;&gt;Node2</title>
<g id="a_edge1_Node000001_Node000002"><a xlink:title=" ">
<path fill="none" stroke="#63b8ff" d="M67.44,-154.29C81.21,-180.36 112.29,-232.63 153.25,-261.62 155.31,-263.09 157.46,-264.46 159.68,-265.76"/>
<polygon fill="#63b8ff" stroke="#63b8ff" points="157.94,-268.8 168.43,-270.29 161.16,-262.59 157.94,-268.8"/>
</a>
</g>
</g>
<!-- Node3 -->
<g id="Node000003" class="node">
<title>Node3</title>
<g id="a_Node000003"><a xlink:href="class_nuki_1_1_nuki_ble.html#ac2e28f07ed0a738f73c5f77b46cdb1bb" target="_top" xlink:title=" ">
<polygon fill="white" stroke="#666666" points="300.12,-252.88 163.38,-252.88 163.38,-222.38 300.12,-222.38 300.12,-252.88"/>
<text text-anchor="start" x="171.38" y="-239.38" font-family="Helvetica,sans-Serif" font-size="10.00">Nuki::NukiBle::handleReturn</text>
<text text-anchor="middle" x="231.75" y="-228.12" font-family="Helvetica,sans-Serif" font-size="10.00">Message</text>
</a>
</g>
</g>
<!-- Node1&#45;&gt;Node3 -->
<g id="edge2_Node000001_Node000003" class="edge">
<title>Node1&#45;&gt;Node3</title>
<g id="a_edge2_Node000001_Node000003"><a xlink:title=" ">
<path fill="none" stroke="#63b8ff" d="M75.2,-154.21C92.78,-171.02 122.89,-197.52 153.25,-213.62 155.9,-215.03 158.65,-216.37 161.45,-217.64"/>
<polygon fill="#63b8ff" stroke="#63b8ff" points="159.85,-220.76 170.42,-221.38 162.54,-214.3 159.85,-220.76"/>
</a>
</g>
</g>
<!-- Node4 -->
<g id="Node000004" class="node">
<title>Node4</title>
<g id="a_Node000004"><a xlink:href="namespace_nuki_lock.html#a03e673a769ecefb4c006f70b6f00b190" target="_top" xlink:title=" ">
<polygon fill="white" stroke="#666666" points="304.62,-167.25 158.88,-167.25 158.88,-148 304.62,-148 304.62,-167.25"/>
<text text-anchor="middle" x="231.75" y="-153.75" font-family="Helvetica,sans-Serif" font-size="10.00">NukiLock::logAdvancedConfig</text>
</a>
</g>
</g>
<!-- Node1&#45;&gt;Node4 -->
<g id="edge3_Node000001_Node000004" class="edge">
<title>Node1&#45;&gt;Node4</title>
<g id="a_edge3_Node000001_Node000004"><a xlink:title=" ">
<path fill="none" stroke="#63b8ff" d="M117.56,-145.06C127.14,-146.12 137.24,-147.24 147.3,-148.36"/>
<polygon fill="#63b8ff" stroke="#63b8ff" points="146.78,-151.82 157.11,-149.45 147.55,-144.87 146.78,-151.82"/>
</a>
</g>
</g>
<!-- Node6 -->
<g id="Node000006" class="node">
<title>Node6</title>
<g id="a_Node000006"><a xlink:href="namespace_nuki_lock.html#add2fab4b3c435a5bdbac6100ab0bbc42" target="_top" xlink:title=" ">
<polygon fill="white" stroke="#666666" points="299,-130.25 164.5,-130.25 164.5,-111 299,-111 299,-130.25"/>
<text text-anchor="middle" x="231.75" y="-116.75" font-family="Helvetica,sans-Serif" font-size="10.00">NukiLock::logBatteryReport</text>
</a>
</g>
</g>
<!-- Node1&#45;&gt;Node6 -->
<g id="edge5_Node000001_Node000006" class="edge">
<title>Node1&#45;&gt;Node6</title>
<g id="a_edge5_Node000001_Node000006"><a xlink:title=" ">
<path fill="none" stroke="#63b8ff" d="M117.56,-132.53C128.88,-131.34 140.91,-130.07 152.76,-128.83"/>
<polygon fill="#63b8ff" stroke="#63b8ff" points="152.94,-132.33 162.52,-127.8 152.21,-125.37 152.94,-132.33"/>
</a>
</g>
</g>
<!-- Node7 -->
<g id="Node000007" class="node">
<title>Node7</title>
<g id="a_Node000007"><a xlink:href="namespace_nuki_lock.html#ab086ceeda3d1303bb71b60d978ef3467" target="_top" xlink:title=" ">
<polygon fill="white" stroke="#666666" points="282.88,-204.25 180.62,-204.25 180.62,-185 282.88,-185 282.88,-204.25"/>
<text text-anchor="middle" x="231.75" y="-190.75" font-family="Helvetica,sans-Serif" font-size="10.00">NukiLock::logConfig</text>
</a>
</g>
</g>
<!-- Node1&#45;&gt;Node7 -->
<g id="edge7_Node000001_Node000007" class="edge">
<title>Node1&#45;&gt;Node7</title>
<g id="a_edge7_Node000001_Node000007"><a xlink:title=" ">
<path fill="none" stroke="#63b8ff" d="M94.27,-154.21C111.72,-161.66 133.35,-170.32 153.25,-176.62 159.01,-178.45 165.07,-180.18 171.15,-181.79"/>
<polygon fill="#63b8ff" stroke="#63b8ff" points="170.04,-185.12 180.59,-184.18 171.76,-178.33 170.04,-185.12"/>
</a>
</g>
</g>
<!-- Node9 -->
<g id="Node000009" class="node">
<title>Node9</title>
<g id="a_Node000009"><a xlink:href="namespace_nuki_lock.html#ab1986f14b91343876f9fb360da901791" target="_top" xlink:title=" ">
<polygon fill="white" stroke="#666666" points="301.62,-93.25 161.88,-93.25 161.88,-74 301.62,-74 301.62,-93.25"/>
<text text-anchor="middle" x="231.75" y="-79.75" font-family="Helvetica,sans-Serif" font-size="10.00">NukiLock::logKeyturnerState</text>
</a>
</g>
</g>
<!-- Node1&#45;&gt;Node9 -->
<g id="edge10_Node000001_Node000009" class="edge">
<title>Node1&#45;&gt;Node9</title>
<g id="a_edge10_Node000001_Node000009"><a xlink:title=" ">
<path fill="none" stroke="#63b8ff" d="M95.64,-122.95C112.86,-115.82 133.9,-107.66 153.25,-101.62 159.1,-99.8 165.25,-98.07 171.42,-96.45"/>
<polygon fill="#63b8ff" stroke="#63b8ff" points="172.18,-99.87 181.03,-94.03 170.48,-93.08 172.18,-99.87"/>
</a>
</g>
</g>
<!-- Node13 -->
<g id="Node000013" class="node">
<title>Node13</title>
<g id="a_Node000013"><a xlink:href="namespace_nuki_lock.html#a6dc562c3f2e49e34b447de8ba53e64bf" target="_top" xlink:title=" ">
<polygon fill="white" stroke="#666666" points="288.5,-56.25 175,-56.25 175,-37 288.5,-37 288.5,-56.25"/>
<text text-anchor="middle" x="231.75" y="-42.75" font-family="Helvetica,sans-Serif" font-size="10.00">NukiLock::logLogEntry</text>
</a>
</g>
</g>
<!-- Node1&#45;&gt;Node13 -->
<g id="edge18_Node000001_Node000013" class="edge">
<title>Node1&#45;&gt;Node13</title>
<g id="a_edge18_Node000001_Node000013"><a xlink:title=" ">
<path fill="none" stroke="#63b8ff" d="M74.71,-123.15C92.09,-106.23 122.26,-79.54 153.25,-64.62 156.72,-62.96 160.34,-61.44 164.06,-60.06"/>
<polygon fill="#63b8ff" stroke="#63b8ff" points="164.88,-63.48 173.26,-57 162.66,-56.83 164.88,-63.48"/>
</a>
</g>
</g>
<!-- Node14 -->
<g id="Node000014" class="node">
<title>Node14</title>
<g id="a_Node000014"><a xlink:href="namespace_nuki.html#a438fdfcef9f81eb0a3e493631b71ca5b" target="_top" xlink:title=" ">
<polygon fill="white" stroke="#666666" points="274.25,-19.25 189.25,-19.25 189.25,0 274.25,0 274.25,-19.25"/>
<text text-anchor="middle" x="231.75" y="-5.75" font-family="Helvetica,sans-Serif" font-size="10.00">Nuki::printBuffer</text>
</a>
</g>
</g>
<!-- Node1&#45;&gt;Node14 -->
<g id="edge24_Node000001_Node000014" class="edge">
<title>Node1&#45;&gt;Node14</title>
<g id="a_edge24_Node000001_Node000014"><a xlink:title=" ">
<path fill="none" stroke="#63b8ff" d="M68.29,-122.97C82.63,-98.59 113.68,-51.84 153.25,-27.62 160.79,-23.01 169.4,-19.58 178.08,-17.03"/>
<polygon fill="#63b8ff" stroke="#63b8ff" points="178.73,-20.47 187.56,-14.61 177.01,-13.69 178.73,-20.47"/>
</a>
</g>
</g>
<!-- Node5 -->
<g id="Node000005" class="node">
<title>Node5</title>
<g id="a_Node000005"><a xlink:href="namespace_nuki_lock.html#af6ebff0f8c6c0cb27a927a440812c02a" target="_top" xlink:title=" ">
<polygon fill="white" stroke="#666666" points="487.5,-166.25 357.5,-166.25 357.5,-147 487.5,-147 487.5,-166.25"/>
<text text-anchor="middle" x="422.5" y="-152.75" font-family="Helvetica,sans-Serif" font-size="10.00">NukiLock::logMessageVar</text>
</a>
</g>
</g>
<!-- Node4&#45;&gt;Node5 -->
<g id="edge4_Node000004_Node000005" class="edge">
<title>Node4&#45;&gt;Node5</title>
<g id="a_edge4_Node000004_Node000005"><a xlink:title=" ">
<path fill="none" stroke="#63b8ff" d="M304.92,-157.24C318.33,-157.17 332.38,-157.1 345.9,-157.03"/>
<polygon fill="#63b8ff" stroke="#63b8ff" points="345.6,-160.53 355.58,-156.97 345.57,-153.53 345.6,-160.53"/>
</a>
</g>
</g>
<!-- Node6&#45;&gt;Node5 -->
<g id="edge6_Node000006_Node000005" class="edge">
<title>Node6&#45;&gt;Node5</title>
<g id="a_edge6_Node000006_Node000005"><a xlink:title=" ">
<path fill="none" stroke="#63b8ff" d="M285.83,-130.75C308.04,-134.98 334.05,-139.95 357.32,-144.38"/>
<polygon fill="#63b8ff" stroke="#63b8ff" points="356.53,-147.8 367.01,-146.23 357.84,-140.92 356.53,-147.8"/>
</a>
</g>
</g>
<!-- Node7&#45;&gt;Node5 -->
<g id="edge9_Node000007_Node000005" class="edge">
<title>Node7&#45;&gt;Node5</title>
<g id="a_edge9_Node000007_Node000005"><a xlink:title=" ">
<path fill="none" stroke="#63b8ff" d="M282.84,-184.54C306.61,-179.76 335.23,-173.99 360.28,-168.95"/>
<polygon fill="#63b8ff" stroke="#63b8ff" points="360.91,-172.39 370.02,-166.99 359.53,-165.53 360.91,-172.39"/>
</a>
</g>
</g>
<!-- Node8 -->
<g id="Node000008" class="node">
<title>Node8</title>
<g id="a_Node000008"><a xlink:href="namespace_nuki_lock.html#a1c4b22e22d81b2258bb6f2ce1e1f7d6f" target="_top" xlink:title=" ">
<polygon fill="white" stroke="#666666" points="649.75,-92.25 534.75,-92.25 534.75,-73 649.75,-73 649.75,-92.25"/>
<text text-anchor="middle" x="592.25" y="-78.75" font-family="Helvetica,sans-Serif" font-size="10.00">NukiLock::logMessage</text>
</a>
</g>
</g>
<!-- Node7&#45;&gt;Node8 -->
<g id="edge8_Node000007_Node000008" class="edge">
<title>Node7&#45;&gt;Node8</title>
<g id="a_edge8_Node000007_Node000008"><a xlink:title=" ">
<path fill="none" stroke="#63b8ff" d="M283.36,-201.19C338.88,-206.14 429.3,-207.45 498.75,-175.62 533.78,-159.57 562.91,-124.11 578.64,-101.91"/>
<polygon fill="#63b8ff" stroke="#63b8ff" points="581.47,-103.97 584.22,-93.74 575.69,-100.03 581.47,-103.97"/>
</a>
</g>
</g>
<!-- Node9&#45;&gt;Node5 -->
<g id="edge15_Node000009_Node000005" class="edge">
<title>Node9&#45;&gt;Node5</title>
<g id="a_edge15_Node000009_Node000005"><a xlink:title=" ">
<path fill="none" stroke="#63b8ff" d="M292.07,-93.65C298.41,-95.81 304.6,-98.44 310.25,-101.62 330.23,-112.9 326.3,-127.29 346.25,-138.62 348.61,-139.97 351.08,-141.21 353.6,-142.37"/>
<polygon fill="#63b8ff" stroke="#63b8ff" points="352.3,-145.61 362.89,-146.04 354.88,-139.11 352.3,-145.61"/>
</a>
</g>
</g>
<!-- Node10 -->
<g id="Node000010" class="node">
<title>Node10</title>
<g id="a_Node000010"><a xlink:href="namespace_nuki_lock.html#ac4d82a0f8f0d3ae3fe2a00c9d442cab0" target="_top" xlink:title=" ">
<polygon fill="white" stroke="#666666" points="498.75,-92.25 346.25,-92.25 346.25,-73 498.75,-73 498.75,-92.25"/>
<text text-anchor="middle" x="422.5" y="-78.75" font-family="Helvetica,sans-Serif" font-size="10.00">NukiLock::logCompletionStatus</text>
</a>
</g>
</g>
<!-- Node9&#45;&gt;Node10 -->
<g id="edge11_Node000009_Node000010" class="edge">
<title>Node9&#45;&gt;Node10</title>
<g id="a_edge11_Node000009_Node000010"><a xlink:title=" ">
<path fill="none" stroke="#63b8ff" d="M301.96,-83.26C312.58,-83.2 323.66,-83.14 334.6,-83.09"/>
<polygon fill="#63b8ff" stroke="#63b8ff" points="334.44,-86.59 344.42,-83.03 334.4,-79.59 334.44,-86.59"/>
</a>
</g>
</g>
<!-- Node11 -->
<g id="Node000011" class="node">
<title>Node11</title>
<g id="a_Node000011"><a xlink:href="namespace_nuki_lock.html#a031da7ab93a6a69e0e16dd7f5426ffaf" target="_top" xlink:title=" ">
<polygon fill="white" stroke="#666666" points="484.88,-55.25 360.12,-55.25 360.12,-36 484.88,-36 484.88,-55.25"/>
<text text-anchor="middle" x="422.5" y="-41.75" font-family="Helvetica,sans-Serif" font-size="10.00">NukiLock::logLockAction</text>
</a>
</g>
</g>
<!-- Node9&#45;&gt;Node11 -->
<g id="edge13_Node000009_Node000011" class="edge">
<title>Node9&#45;&gt;Node11</title>
<g id="a_edge13_Node000009_Node000011"><a xlink:title=" ">
<path fill="none" stroke="#63b8ff" d="M282.84,-73.54C306.61,-68.76 335.23,-62.99 360.28,-57.95"/>
<polygon fill="#63b8ff" stroke="#63b8ff" points="360.91,-61.39 370.02,-55.99 359.53,-54.53 360.91,-61.39"/>
</a>
</g>
</g>
<!-- Node12 -->
<g id="Node000012" class="node">
<title>Node12</title>
<g id="a_Node000012"><a xlink:href="namespace_nuki_lock.html#a7d68c58293514d39207ee29f239b897c" target="_top" xlink:title=" ">
<polygon fill="white" stroke="#666666" points="485.25,-129.25 359.75,-129.25 359.75,-110 485.25,-110 485.25,-129.25"/>
<text text-anchor="middle" x="422.5" y="-115.75" font-family="Helvetica,sans-Serif" font-size="10.00">NukiLock::logNukiTrigger</text>
</a>
</g>
</g>
<!-- Node9&#45;&gt;Node12 -->
<g id="edge16_Node000009_Node000012" class="edge">
<title>Node9&#45;&gt;Node12</title>
<g id="a_edge16_Node000009_Node000012"><a xlink:title=" ">
<path fill="none" stroke="#63b8ff" d="M285.83,-93.75C308.04,-97.98 334.05,-102.95 357.32,-107.38"/>
<polygon fill="#63b8ff" stroke="#63b8ff" points="356.53,-110.8 367.01,-109.23 357.84,-103.92 356.53,-110.8"/>
</a>
</g>
</g>
<!-- Node10&#45;&gt;Node8 -->
<g id="edge12_Node000010_Node000008" class="edge">
<title>Node10&#45;&gt;Node8</title>
<g id="a_edge12_Node000010_Node000008"><a xlink:title=" ">
<path fill="none" stroke="#63b8ff" d="M499.03,-82.62C507.1,-82.62 515.26,-82.62 523.23,-82.62"/>
<polygon fill="#63b8ff" stroke="#63b8ff" points="523.22,-86.13 533.22,-82.63 523.22,-79.13 523.22,-86.13"/>
</a>
</g>
</g>
<!-- Node11&#45;&gt;Node8 -->
<g id="edge14_Node000011_Node000008" class="edge">
<title>Node11&#45;&gt;Node8</title>
<g id="a_edge14_Node000011_Node000008"><a xlink:title=" ">
<path fill="none" stroke="#63b8ff" d="M469.34,-55.74C489.4,-60.16 513.15,-65.4 534.33,-70.07"/>
<polygon fill="#63b8ff" stroke="#63b8ff" points="533.47,-73.46 543.99,-72.2 534.98,-66.63 533.47,-73.46"/>
</a>
</g>
</g>
<!-- Node12&#45;&gt;Node8 -->
<g id="edge17_Node000012_Node000008" class="edge">
<title>Node12&#45;&gt;Node8</title>
<g id="a_edge17_Node000012_Node000008"><a xlink:title=" ">
<path fill="none" stroke="#63b8ff" d="M469.34,-109.51C489.4,-105.09 513.15,-99.85 534.33,-95.18"/>
<polygon fill="#63b8ff" stroke="#63b8ff" points="534.98,-98.62 543.99,-93.05 533.47,-91.79 534.98,-98.62"/>
</a>
</g>
</g>
<!-- Node13&#45;&gt;Node5 -->
<g id="edge22_Node000013_Node000005" class="edge">
<title>Node13&#45;&gt;Node5</title>
<g id="a_edge22_Node000013_Node000005"><a xlink:title=" ">
<path fill="none" stroke="#63b8ff" d="M288.88,-53.31C296.58,-55.98 303.99,-59.63 310.25,-64.62 338.85,-87.43 317.73,-115.73 346.25,-138.62 347.37,-139.52 348.53,-140.38 349.72,-141.19"/>
<polygon fill="#63b8ff" stroke="#63b8ff" points="347.64,-144.04 358.07,-145.91 351.08,-137.94 347.64,-144.04"/>
</a>
</g>
</g>
<!-- Node13&#45;&gt;Node8 -->
<g id="edge21_Node000013_Node000008" class="edge">
<title>Node13&#45;&gt;Node8</title>
<g id="a_edge21_Node000013_Node000008"><a xlink:title=" ">
<path fill="none" stroke="#63b8ff" d="M279.45,-36.51C299.85,-32.58 324.13,-28.56 346.25,-26.62 413.77,-20.72 433.47,-8.4 498.75,-26.62 525.91,-34.2 553.04,-52.17 570.82,-65.72"/>
<polygon fill="#63b8ff" stroke="#63b8ff" points="568.47,-68.32 578.5,-71.76 572.81,-62.82 568.47,-68.32"/>
</a>
</g>
</g>
<!-- Node13&#45;&gt;Node10 -->
<g id="edge19_Node000013_Node000010" class="edge">
<title>Node13&#45;&gt;Node10</title>
<g id="a_edge19_Node000013_Node000010"><a xlink:title=" ">
<path fill="none" stroke="#63b8ff" d="M285.83,-56.75C308.04,-60.98 334.05,-65.95 357.32,-70.38"/>
<polygon fill="#63b8ff" stroke="#63b8ff" points="356.53,-73.8 367.01,-72.23 357.84,-66.92 356.53,-73.8"/>
</a>
</g>
</g>
<!-- Node13&#45;&gt;Node11 -->
<g id="edge20_Node000013_Node000011" class="edge">
<title>Node13&#45;&gt;Node11</title>
<g id="a_edge20_Node000013_Node000011"><a xlink:title=" ">
<path fill="none" stroke="#63b8ff" d="M288.87,-46.33C307.49,-46.23 328.51,-46.12 348.23,-46.01"/>
<polygon fill="#63b8ff" stroke="#63b8ff" points="348.16,-49.51 358.14,-45.96 348.13,-42.51 348.16,-49.51"/>
</a>
</g>
</g>
<!-- Node13&#45;&gt;Node12 -->
<g id="edge23_Node000013_Node000012" class="edge">
<title>Node13&#45;&gt;Node12</title>
<g id="a_edge23_Node000013_Node000012"><a xlink:title=" ">
<path fill="none" stroke="#63b8ff" d="M288.82,-55.59C296.28,-57.93 303.63,-60.89 310.25,-64.62 330.23,-75.9 326.3,-90.29 346.25,-101.62 348.61,-102.97 351.08,-104.21 353.6,-105.37"/>
<polygon fill="#63b8ff" stroke="#63b8ff" points="352.3,-108.61 362.89,-109.04 354.88,-102.11 352.3,-108.61"/>
</a>
</g>
</g>
</g>
</svg>

<g id="navigator" transform="translate(0 0)" fill="#404254">
  <rect fill="#f2f5e9" fill-opacity="0.5" stroke="#606060" stroke-width=".5" x="0" y="0" width="60" height="60"/>
  <use id="zoomplus" xlink:href="#zoomPlus" x="17" y="9" onmousedown="handleZoom(evt,'in')"/>
  <use id="zoomminus" xlink:href="#zoomMin" x="42" y="9" onmousedown="handleZoom(evt,'out')"/>
  <use id="reset" xlink:href="#resetDef" x="30" y="36" onmousedown="handleReset()"/>
   <use id="arrowup" xlink:href="#arrowUp" x="0" y="0" onmousedown="handlePan(0,-1)"/>
  <use id="arrowright" xlink:href="#arrowRight" x="0" y="0" onmousedown="handlePan(1,0)"/>
  <use id="arrowdown" xlink:href="#arrowDown" x="0" y="0" onmousedown="handlePan(0,1)"/>
  <use id="arrowleft" xlink:href="#arrowLeft" x="0" y="0" onmousedown="handlePan(-1,0)"/>
</g>
<svg viewBox="0 0 15 15" width="100%" height="30px" preserveAspectRatio="xMaxYMin meet">
 <g id="arrow_out" transform="scale(0.3 0.3)">
  <a xlink:href="class_nuki_lock_1_1_nuki_lock_a8d9fc4e4a1bde183754ced8b783f82d5_cgraph_org.svg" target="_base">
   <rect id="button" ry="5" rx="5" y="6" x="6" height="38" width="38"
        fill="#f2f5e9" fill-opacity="0.5" stroke="#606060" stroke-width="1.0"/>
   <path id="arrow"
     d="M 11.500037,31.436501 C 11.940474,20.09759 22.043105,11.32322 32.158766,21.979434 L 37.068811,17.246167 C 37.068811,17.246167 37.088388,32 37.088388,32 L 22.160133,31.978069 C 22.160133,31.978069 26.997745,27.140456 26.997745,27.140456 C 18.528582,18.264221 13.291696,25.230495 11.500037,31.436501 z"
     style="fill:#404040;"/>
  </a>
 </g>
</svg>

<style type='text/css'>
<![CDATA[
[data-mouse-over-selected='false'] { opacity: 0.7; }
[data-mouse-over-selected='true']  { opacity: 1.0; }
]]>
</style>
<script type="application/ecmascript"><![CDATA[
document.addEventListener('DOMContentLoaded', (event) => {
  highlightEdges();
  highlightAdjacentNodes();
});
]]></script>
</svg>
