<?xml version="1.0" encoding="UTF-8" standalone="no"?>
<!DOCTYPE svg PUBLIC "-//W3C//DTD SVG 1.1//EN"
 "http://www.w3.org/Graphics/SVG/1.1/DTD/svg11.dtd">
<!-- Generated by graphviz version 8.0.1 (20230327.1645)
 -->
<!-- Title: Nuki::NukiBle::addKeypadEntry Pages: 1 -->
<svg width="517pt" height="177pt"
 viewBox="0.00 0.00 517.00 176.50" xmlns="http://www.w3.org/2000/svg" xmlns:xlink="http://www.w3.org/1999/xlink">
<g id="graph0" class="graph" transform="scale(1 1) rotate(0) translate(4 172.5)">
<title>Nuki::NukiBle::addKeypadEntry</title>
<!-- Node1 -->
<g id="node1" class="node">
<title>Node1</title>
<g id="a_node1"><a xlink:title="Send a new keypad entry to the lock via BLE.">
<polygon fill="#999999" stroke="#666666" points="128,-61.5 0,-61.5 0,-31.5 128,-31.5 128,-61.5"/>
<text text-anchor="start" x="8" y="-49.5" font-family="Helvetica,sans-Serif" font-size="10.00">Nuki::NukiBle::addKeypad</text>
<text text-anchor="middle" x="64" y="-38.5" font-family="Helvetica,sans-Serif" font-size="10.00">Entry</text>
</a>
</g>
</g>
<!-- Node2 -->
<g id="node2" class="node">
<title>Node2</title>
<g id="a_node2"><a xlink:href="class_nuki_1_1_nuki_ble.html#af1f1e299e8d97e053bba80e92ba285d6" target="_top" xlink:title=" ">
<polygon fill="white" stroke="#666666" points="310,-93 168,-93 168,-74 310,-74 310,-93"/>
<text text-anchor="middle" x="239" y="-81" font-family="Helvetica,sans-Serif" font-size="10.00">Nuki::NukiBle::executeAction</text>
</a>
</g>
</g>
<!-- Node1&#45;&gt;Node2 -->
<g id="edge1" class="edge">
<title>Node1&#45;&gt;Node2</title>
<path fill="none" stroke="#63b8ff" d="M128.44,-60.07C145.52,-63.72 163.91,-67.65 180.64,-71.23"/>
<polygon fill="#63b8ff" stroke="#63b8ff" points="179.86,-74.86 190.37,-73.53 181.32,-68.01 179.86,-74.86"/>
</g>
<!-- Node7 -->
<g id="node7" class="node">
<title>Node7</title>
<g id="a_node7"><a xlink:href="namespace_nuki_lock.html#abbaa1d9201aa8a1c0239fb92fad5fc60" target="_top" xlink:title=" ">
<polygon fill="white" stroke="#666666" points="314,-56 164,-56 164,-37 314,-37 314,-56"/>
<text text-anchor="middle" x="239" y="-44" font-family="Helvetica,sans-Serif" font-size="10.00">NukiLock::logNewKeypadEntry</text>
</a>
</g>
</g>
<!-- Node1&#45;&gt;Node7 -->
<g id="edge6" class="edge">
<title>Node1&#45;&gt;Node7</title>
<path fill="none" stroke="#63b8ff" d="M128.44,-46.5C136.42,-46.5 144.68,-46.5 152.92,-46.5"/>
<polygon fill="#63b8ff" stroke="#63b8ff" points="152.72,-50 162.72,-46.5 152.72,-43 152.72,-50"/>
</g>
<!-- Node8 -->
<g id="node8" class="node">
<title>Node8</title>
<g id="a_node8"><a xlink:href="namespace_nuki.html#a280e19d4682ca4b35d3fe64001da816a" target="_top" xlink:title=" ">
<polygon fill="white" stroke="#666666" points="282,-19 196,-19 196,0 282,0 282,-19"/>
<text text-anchor="middle" x="239" y="-7" font-family="Helvetica,sans-Serif" font-size="10.00">Nuki::printBuffer</text>
</a>
</g>
</g>
<!-- Node1&#45;&gt;Node8 -->
<g id="edge7" class="edge">
<title>Node1&#45;&gt;Node8</title>
<path fill="none" stroke="#63b8ff" d="M128.44,-32.93C147.05,-28.95 167.2,-24.64 185.09,-20.82"/>
<polygon fill="#63b8ff" stroke="#63b8ff" points="185.56,-24.08 194.61,-18.57 184.1,-17.23 185.56,-24.08"/>
</g>
<!-- Node3 -->
<g id="node3" class="node">
<title>Node3</title>
<g id="a_node3"><a xlink:href="class_nuki_1_1_nuki_ble.html#ada0f3beebd95d35c122e25dd3f9eb886" target="_top" xlink:title=" ">
<polygon fill="white" stroke="#666666" points="498.5,-168.5 360.5,-168.5 360.5,-138.5 498.5,-138.5 498.5,-168.5"/>
<text text-anchor="start" x="368.5" y="-156.5" font-family="Helvetica,sans-Serif" font-size="10.00">Nuki::NukiBle::cmdChallAcc</text>
<text text-anchor="middle" x="429.5" y="-145.5" font-family="Helvetica,sans-Serif" font-size="10.00">StateMachine</text>
</a>
</g>
</g>
<!-- Node2&#45;&gt;Node3 -->
<g id="edge2" class="edge">
<title>Node2&#45;&gt;Node3</title>
<path fill="none" stroke="#63b8ff" d="M262.08,-93.5C284.11,-103.29 319.04,-118.33 350,-129.5 354.98,-131.3 360.17,-133.08 365.41,-134.81"/>
<polygon fill="#63b8ff" stroke="#63b8ff" points="363.89,-138.32 374.48,-138.08 366.05,-131.67 363.89,-138.32"/>
</g>
<!-- Node4 -->
<g id="node4" class="node">
<title>Node4</title>
<g id="a_node4"><a xlink:href="class_nuki_1_1_nuki_ble.html#a59169a9f492793762e3c6ba39b611b07" target="_top" xlink:title=" ">
<polygon fill="white" stroke="#666666" points="501.5,-120.5 357.5,-120.5 357.5,-90.5 501.5,-90.5 501.5,-120.5"/>
<text text-anchor="start" x="365.5" y="-108.5" font-family="Helvetica,sans-Serif" font-size="10.00">Nuki::NukiBle::cmdChallState</text>
<text text-anchor="middle" x="429.5" y="-97.5" font-family="Helvetica,sans-Serif" font-size="10.00">Machine</text>
</a>
</g>
</g>
<!-- Node2&#45;&gt;Node4 -->
<g id="edge3" class="edge">
<title>Node2&#45;&gt;Node4</title>
<path fill="none" stroke="#63b8ff" d="M310.46,-91.72C322.15,-93.09 334.36,-94.51 346.31,-95.91"/>
<polygon fill="#63b8ff" stroke="#63b8ff" points="345.85,-99.49 356.18,-97.18 346.66,-92.54 345.85,-99.49"/>
</g>
<!-- Node5 -->
<g id="node5" class="node">
<title>Node5</title>
<g id="a_node5"><a xlink:href="class_nuki_1_1_nuki_ble.html#ad135bb1455665decfddff67772c1d411" target="_top" xlink:title=" ">
<polygon fill="white" stroke="#666666" points="509,-72 350,-72 350,-53 509,-53 509,-72"/>
<text text-anchor="middle" x="429.5" y="-60" font-family="Helvetica,sans-Serif" font-size="10.00">Nuki::NukiBle::cmdStateMachine</text>
</a>
</g>
</g>
<!-- Node2&#45;&gt;Node5 -->
<g id="edge4" class="edge">
<title>Node2&#45;&gt;Node5</title>
<path fill="none" stroke="#63b8ff" d="M310.46,-75.65C319.73,-74.62 329.33,-73.55 338.86,-72.49"/>
<polygon fill="#63b8ff" stroke="#63b8ff" points="339.03,-75.88 348.58,-71.29 338.25,-68.92 339.03,-75.88"/>
</g>
<!-- Node6 -->
<g id="node6" class="node">
<title>Node6</title>
<g id="a_node6"><a xlink:href="class_nuki_1_1_nuki_ble.html#aed01f10d1ffa769f0f6fadc0d06d328e" target="_top" xlink:title=" ">
<polygon fill="white" stroke="#666666" points="505.5,-34.5 353.5,-34.5 353.5,-4.5 505.5,-4.5 505.5,-34.5"/>
<text text-anchor="start" x="361.5" y="-22.5" font-family="Helvetica,sans-Serif" font-size="10.00">Nuki::NukiBle::extendDisonnect</text>
<text text-anchor="middle" x="429.5" y="-11.5" font-family="Helvetica,sans-Serif" font-size="10.00">Timeout</text>
</a>
</g>
</g>
<!-- Node2&#45;&gt;Node6 -->
<g id="edge5" class="edge">
<title>Node2&#45;&gt;Node6</title>
<path fill="none" stroke="#63b8ff" d="M290.04,-73.57C298.19,-71.32 306.43,-68.64 314,-65.5 331.32,-58.31 332.9,-51.19 350,-43.5 353.77,-41.81 357.69,-40.19 361.68,-38.65"/>
<polygon fill="#63b8ff" stroke="#63b8ff" points="362.5,-41.71 370.7,-35 360.1,-35.13 362.5,-41.71"/>
</g>
</g>
</svg>
