<?xml version="1.0" encoding="UTF-8" standalone="no"?>
<!DOCTYPE svg PUBLIC "-//W3C//DTD SVG 1.1//EN"
 "http://www.w3.org/Graphics/SVG/1.1/DTD/svg11.dtd">
<!-- Generated by graphviz version 8.0.5 (20230430.1635)
 -->
<!-- Title: NukiOpener::NukiOpener::handleReturnMessage Pages: 1 -->
<svg width="495pt" height="273pt"
 viewBox="0.00 0.00 494.75 272.88" xmlns="http://www.w3.org/2000/svg" xmlns:xlink="http://www.w3.org/1999/xlink">
<g id="graph0" class="graph" transform="scale(1 1) rotate(0) translate(4 268.88)">
<title>NukiOpener::NukiOpener::handleReturnMessage</title>
<!-- Node1 -->
<g id="node1" class="node">
<title>Node1</title>
<g id="a_node1"><a xlink:title=" ">
<polygon fill="#999999" stroke="#666666" points="124,-147.88 0,-147.88 0,-117.38 124,-117.38 124,-147.88"/>
<text text-anchor="start" x="8" y="-134.38" font-family="Helvetica,sans-Serif" font-size="10.00">NukiOpener::NukiOpener</text>
<text text-anchor="middle" x="62" y="-123.12" font-family="Helvetica,sans-Serif" font-size="10.00">::handleReturnMessage</text>
</a>
</g>
</g>
<!-- Node2 -->
<g id="node2" class="node">
<title>Node2</title>
<g id="a_node2"><a xlink:href="class_nuki_1_1_nuki_ble.html#ac2e28f07ed0a738f73c5f77b46cdb1bb" target="_top" xlink:title=" ">
<polygon fill="white" stroke="#666666" points="306.12,-264.88 169.38,-264.88 169.38,-234.38 306.12,-234.38 306.12,-264.88"/>
<text text-anchor="start" x="177.38" y="-251.38" font-family="Helvetica,sans-Serif" font-size="10.00">Nuki::NukiBle::handleReturn</text>
<text text-anchor="middle" x="237.75" y="-240.12" font-family="Helvetica,sans-Serif" font-size="10.00">Message</text>
</a>
</g>
</g>
<!-- Node1&#45;&gt;Node2 -->
<g id="edge1" class="edge">
<title>Node1&#45;&gt;Node2</title>
<path fill="none" stroke="#63b8ff" d="M75.14,-148.08C92.06,-168.61 124.65,-204.74 160,-225.62 162.23,-226.94 164.54,-228.2 166.91,-229.39"/>
<polygon fill="#63b8ff" stroke="#63b8ff" points="165.35,-232.98 175.9,-233.94 168.25,-226.61 165.35,-232.98"/>
</g>
<!-- Node3 -->
<g id="node3" class="node">
<title>Node3</title>
<g id="a_node3"><a xlink:href="namespace_nuki_opener.html#a5df6b087b417e58c5c7a085a7f97fa63" target="_top" xlink:title=" ">
<polygon fill="white" stroke="#666666" points="315.5,-216.25 160,-216.25 160,-197 315.5,-197 315.5,-216.25"/>
<text text-anchor="middle" x="237.75" y="-202.75" font-family="Helvetica,sans-Serif" font-size="10.00">NukiOpener::logAdvancedConfig</text>
</a>
</g>
</g>
<!-- Node1&#45;&gt;Node3 -->
<g id="edge2" class="edge">
<title>Node1&#45;&gt;Node3</title>
<path fill="none" stroke="#63b8ff" d="M85.55,-148.21C104.62,-160.74 133.06,-177.96 160,-188.62 164.49,-190.4 169.2,-192.03 173.98,-193.52"/>
<polygon fill="#63b8ff" stroke="#63b8ff" points="172.93,-197.15 183.51,-196.55 174.87,-190.42 172.93,-197.15"/>
</g>
<!-- Node4 -->
<g id="node4" class="node">
<title>Node4</title>
<g id="a_node4"><a xlink:href="namespace_nuki_opener.html#a92b38c2119f39bf1c525b70cb49d3232" target="_top" xlink:title=" ">
<polygon fill="white" stroke="#666666" points="309.88,-179.25 165.62,-179.25 165.62,-160 309.88,-160 309.88,-179.25"/>
<text text-anchor="middle" x="237.75" y="-165.75" font-family="Helvetica,sans-Serif" font-size="10.00">NukiOpener::logBatteryReport</text>
</a>
</g>
</g>
<!-- Node1&#45;&gt;Node4 -->
<g id="edge3" class="edge">
<title>Node1&#45;&gt;Node4</title>
<path fill="none" stroke="#63b8ff" d="M124.26,-145.67C141.98,-149.44 161.26,-153.55 178.77,-157.28"/>
<polygon fill="#63b8ff" stroke="#63b8ff" points="177.91,-160.89 188.42,-159.55 179.36,-154.04 177.91,-160.89"/>
</g>
<!-- Node5 -->
<g id="node5" class="node">
<title>Node5</title>
<g id="a_node5"><a xlink:href="namespace_nuki_opener.html#a01fb60e0e360c42ad366aef691d5a390" target="_top" xlink:title=" ">
<polygon fill="white" stroke="#666666" points="293.75,-142.25 181.75,-142.25 181.75,-123 293.75,-123 293.75,-142.25"/>
<text text-anchor="middle" x="237.75" y="-128.75" font-family="Helvetica,sans-Serif" font-size="10.00">NukiOpener::logConfig</text>
</a>
</g>
</g>
<!-- Node1&#45;&gt;Node5 -->
<g id="edge4" class="edge">
<title>Node1&#45;&gt;Node5</title>
<path fill="none" stroke="#63b8ff" d="M124.26,-132.62C139.2,-132.62 155.24,-132.62 170.41,-132.62"/>
<polygon fill="#63b8ff" stroke="#63b8ff" points="170.26,-136.13 180.26,-132.62 170.26,-129.13 170.26,-136.13"/>
</g>
<!-- Node6 -->
<g id="node6" class="node">
<title>Node6</title>
<g id="a_node6"><a xlink:href="namespace_nuki_opener.html#ad694b05ff6125ebf77e067be3002d075" target="_top" xlink:title=" ">
<polygon fill="white" stroke="#666666" points="300.88,-67.88 174.62,-67.88 174.62,-37.38 300.88,-37.38 300.88,-67.88"/>
<text text-anchor="start" x="182.62" y="-54.38" font-family="Helvetica,sans-Serif" font-size="10.00">NukiOpener::logKeyturner</text>
<text text-anchor="middle" x="237.75" y="-43.12" font-family="Helvetica,sans-Serif" font-size="10.00">State</text>
</a>
</g>
</g>
<!-- Node1&#45;&gt;Node6 -->
<g id="edge5" class="edge">
<title>Node1&#45;&gt;Node6</title>
<path fill="none" stroke="#63b8ff" d="M86.54,-117.06C105.72,-104.87 133.82,-88.11 160,-76.62 163.6,-75.05 167.34,-73.52 171.14,-72.07"/>
<polygon fill="#63b8ff" stroke="#63b8ff" points="172.1,-75.08 180.29,-68.36 169.7,-68.5 172.1,-75.08"/>
</g>
<!-- Node10 -->
<g id="node10" class="node">
<title>Node10</title>
<g id="a_node10"><a xlink:href="namespace_nuki_opener.html#a1c24f78474980cc2d90ee83e371621c4" target="_top" xlink:title=" ">
<polygon fill="white" stroke="#666666" points="299.38,-105.25 176.12,-105.25 176.12,-86 299.38,-86 299.38,-105.25"/>
<text text-anchor="middle" x="237.75" y="-91.75" font-family="Helvetica,sans-Serif" font-size="10.00">NukiOpener::logLogEntry</text>
</a>
</g>
</g>
<!-- Node1&#45;&gt;Node10 -->
<g id="edge9" class="edge">
<title>Node1&#45;&gt;Node10</title>
<path fill="none" stroke="#63b8ff" d="M124.26,-119.58C141.98,-115.81 161.26,-111.7 178.77,-107.97"/>
<polygon fill="#63b8ff" stroke="#63b8ff" points="179.36,-111.21 188.42,-105.7 177.91,-104.36 179.36,-111.21"/>
</g>
<!-- Node11 -->
<g id="node11" class="node">
<title>Node11</title>
<g id="a_node11"><a xlink:href="namespace_nuki.html#a280e19d4682ca4b35d3fe64001da816a" target="_top" xlink:title=" ">
<polygon fill="white" stroke="#666666" points="280.25,-19.25 195.25,-19.25 195.25,0 280.25,0 280.25,-19.25"/>
<text text-anchor="middle" x="237.75" y="-5.75" font-family="Helvetica,sans-Serif" font-size="10.00">Nuki::printBuffer</text>
</a>
</g>
</g>
<!-- Node1&#45;&gt;Node11 -->
<g id="edge12" class="edge">
<title>Node1&#45;&gt;Node11</title>
<path fill="none" stroke="#63b8ff" d="M73.18,-116.91C88.94,-93.88 121.47,-51.27 160,-28.62 167.49,-24.22 175.96,-20.84 184.48,-18.23"/>
<polygon fill="#63b8ff" stroke="#63b8ff" points="185.09,-21.42 193.82,-15.43 183.26,-14.67 185.09,-21.42"/>
</g>
<!-- Node7 -->
<g id="node7" class="node">
<title>Node7</title>
<g id="a_node7"><a xlink:href="namespace_nuki_opener.html#a84631e75b3f180ead51e1a292fcee637" target="_top" xlink:title=" ">
<polygon fill="white" stroke="#666666" points="486,-67.88 352.25,-67.88 352.25,-37.38 486,-37.38 486,-67.88"/>
<text text-anchor="start" x="360.25" y="-54.38" font-family="Helvetica,sans-Serif" font-size="10.00">NukiOpener::logCompletion</text>
<text text-anchor="middle" x="419.12" y="-43.12" font-family="Helvetica,sans-Serif" font-size="10.00">Status</text>
</a>
</g>
</g>
<!-- Node6&#45;&gt;Node7 -->
<g id="edge6" class="edge">
<title>Node6&#45;&gt;Node7</title>
<path fill="none" stroke="#63b8ff" d="M301.23,-52.62C314.16,-52.62 327.92,-52.62 341.28,-52.62"/>
<polygon fill="#63b8ff" stroke="#63b8ff" points="340.9,-56.13 350.9,-52.62 340.9,-49.13 340.9,-56.13"/>
</g>
<!-- Node8 -->
<g id="node8" class="node">
<title>Node8</title>
<g id="a_node8"><a xlink:href="namespace_nuki_opener.html#ab25308954cb451d83358353032200422" target="_top" xlink:title=" ">
<polygon fill="white" stroke="#666666" points="486.38,-105.25 351.88,-105.25 351.88,-86 486.38,-86 486.38,-105.25"/>
<text text-anchor="middle" x="419.12" y="-91.75" font-family="Helvetica,sans-Serif" font-size="10.00">NukiOpener::logLockAction</text>
</a>
</g>
</g>
<!-- Node6&#45;&gt;Node8 -->
<g id="edge7" class="edge">
<title>Node6&#45;&gt;Node8</title>
<path fill="none" stroke="#63b8ff" d="M301.23,-67.6C322.23,-72.64 345.43,-78.2 365.58,-83.03"/>
<polygon fill="#63b8ff" stroke="#63b8ff" points="364.58,-86.63 375.12,-85.56 366.22,-79.82 364.58,-86.63"/>
</g>
<!-- Node9 -->
<g id="node9" class="node">
<title>Node9</title>
<g id="a_node9"><a xlink:href="namespace_nuki_opener.html#a9915ff097023a69e5792e791336bfcd6" target="_top" xlink:title=" ">
<polygon fill="white" stroke="#666666" points="486.75,-19.25 351.5,-19.25 351.5,0 486.75,0 486.75,-19.25"/>
<text text-anchor="middle" x="419.12" y="-5.75" font-family="Helvetica,sans-Serif" font-size="10.00">NukiOpener::logNukiTrigger</text>
</a>
</g>
</g>
<!-- Node6&#45;&gt;Node9 -->
<g id="edge8" class="edge">
<title>Node6&#45;&gt;Node9</title>
<path fill="none" stroke="#63b8ff" d="M301.23,-37.65C322.23,-32.61 345.43,-27.05 365.58,-22.22"/>
<polygon fill="#63b8ff" stroke="#63b8ff" points="366.22,-25.43 375.12,-19.69 364.58,-18.62 366.22,-25.43"/>
</g>
<!-- Node10&#45;&gt;Node7 -->
<g id="edge10" class="edge">
<title>Node10&#45;&gt;Node7</title>
<path fill="none" stroke="#63b8ff" d="M280.81,-85.54C299.05,-81.17 321.01,-75.91 341.96,-70.88"/>
<polygon fill="#63b8ff" stroke="#63b8ff" points="342.56,-74.1 351.46,-68.37 340.92,-67.29 342.56,-74.1"/>
</g>
<!-- Node10&#45;&gt;Node8 -->
<g id="edge11" class="edge">
<title>Node10&#45;&gt;Node8</title>
<path fill="none" stroke="#63b8ff" d="M299.73,-95.62C312.87,-95.62 326.93,-95.62 340.61,-95.62"/>
<polygon fill="#63b8ff" stroke="#63b8ff" points="340.47,-99.13 350.47,-95.62 340.47,-92.13 340.47,-99.13"/>
</g>
</g>
</svg>
