<?xml version="1.0" encoding="UTF-8" standalone="no"?>
<!DOCTYPE svg PUBLIC "-//W3C//DTD SVG 1.1//EN"
 "http://www.w3.org/Graphics/SVG/1.1/DTD/svg11.dtd">
<!-- Generated by graphviz version 12.2.1 (20241206.2353)
 -->
<!-- Title: NukiOpener::NukiOpener::setSingleButtonPressAction Pages: 1 -->
<svg width="876pt" height="205pt"
 viewBox="0.00 0.00 875.50 204.75" xmlns="http://www.w3.org/2000/svg" xmlns:xlink="http://www.w3.org/1999/xlink">
<g id="graph0" class="graph" transform="scale(1 1) rotate(0) translate(4 200.75)">
<title>NukiOpener::NukiOpener::setSingleButtonPressAction</title>
<!-- Node1 -->
<g id="Node000001" class="node">
<title>Node1</title>
<g id="a_Node000001"><a xlink:title="Gets the current advanced config from the opener, updates the single button press action parameter an...">
<polygon fill="#999999" stroke="#666666" points="142.75,-102.35 0,-102.35 0,-71.85 142.75,-71.85 142.75,-102.35"/>
<text text-anchor="start" x="8" y="-88.85" font-family="Helvetica,sans-Serif" font-size="10.00">NukiOpener::NukiOpener</text>
<text text-anchor="middle" x="71.38" y="-77.6" font-family="Helvetica,sans-Serif" font-size="10.00">::setSingleButtonPressAction</text>
</a>
</g>
</g>
<!-- Node2 -->
<g id="Node000002" class="node">
<title>Node2</title>
<g id="a_Node000002"><a xlink:href="class_nuki_opener_1_1_nuki_opener.html#adf50e8b8e35409d8aa43de69c43535b5" target="_top" xlink:title="Requests advanced config from Opener via BLE.">
<polygon fill="white" stroke="#666666" points="302.75,-102.35 178.75,-102.35 178.75,-71.85 302.75,-71.85 302.75,-102.35"/>
<text text-anchor="start" x="186.75" y="-88.85" font-family="Helvetica,sans-Serif" font-size="10.00">NukiOpener::NukiOpener</text>
<text text-anchor="middle" x="240.75" y="-77.6" font-family="Helvetica,sans-Serif" font-size="10.00">::requestAdvancedConfig</text>
</a>
</g>
</g>
<!-- Node1&#45;&gt;Node2 -->
<g id="edge1_Node000001_Node000002" class="edge">
<title>Node1&#45;&gt;Node2</title>
<g id="a_edge1_Node000001_Node000002"><a xlink:title=" ">
<path fill="none" stroke="#63b8ff" d="M142.87,-87.1C150.89,-87.1 159.07,-87.1 167.11,-87.1"/>
<polygon fill="#63b8ff" stroke="#63b8ff" points="166.84,-90.6 176.84,-87.1 166.84,-83.6 166.84,-90.6"/>
</a>
</g>
</g>
<!-- Node3 -->
<g id="Node000003" class="node">
<title>Node3</title>
<g id="a_Node000003"><a xlink:href="class_nuki_1_1_nuki_ble.html#af1f1e299e8d97e053bba80e92ba285d6" target="_top" xlink:title=" ">
<polygon fill="white" stroke="#666666" points="480,-96.73 338.75,-96.73 338.75,-77.48 480,-77.48 480,-96.73"/>
<text text-anchor="middle" x="409.38" y="-83.23" font-family="Helvetica,sans-Serif" font-size="10.00">Nuki::NukiBle::executeAction</text>
</a>
</g>
</g>
<!-- Node2&#45;&gt;Node3 -->
<g id="edge2_Node000002_Node000003" class="edge">
<title>Node2&#45;&gt;Node3</title>
<g id="a_edge2_Node000002_Node000003"><a xlink:title=" ">
<path fill="none" stroke="#63b8ff" d="M302.85,-87.1C310.68,-87.1 318.79,-87.1 326.87,-87.1"/>
<polygon fill="#63b8ff" stroke="#63b8ff" points="326.75,-90.6 336.75,-87.1 326.75,-83.6 326.75,-90.6"/>
</a>
</g>
</g>
<!-- Node4 -->
<g id="Node000004" class="node">
<title>Node4</title>
<g id="a_Node000004"><a xlink:href="class_nuki_1_1_nuki_ble.html#ada0f3beebd95d35c122e25dd3f9eb886" target="_top" xlink:title=" ">
<polygon fill="white" stroke="#666666" points="664,-173.35 526.5,-173.35 526.5,-142.85 664,-142.85 664,-173.35"/>
<text text-anchor="start" x="534.5" y="-159.85" font-family="Helvetica,sans-Serif" font-size="10.00">Nuki::NukiBle::cmdChallAcc</text>
<text text-anchor="middle" x="595.25" y="-148.6" font-family="Helvetica,sans-Serif" font-size="10.00">StateMachine</text>
</a>
</g>
</g>
<!-- Node3&#45;&gt;Node4 -->
<g id="edge3_Node000003_Node000004" class="edge">
<title>Node3&#45;&gt;Node4</title>
<g id="a_edge3_Node000003_Node000004"><a xlink:title=" ">
<path fill="none" stroke="#63b8ff" d="M431.56,-97.09C452.7,-106.87 486.24,-121.9 516,-133.1 521.21,-135.06 526.64,-137 532.12,-138.89"/>
<polygon fill="#63b8ff" stroke="#63b8ff" points="530.61,-142.08 541.21,-141.95 532.85,-135.44 530.61,-142.08"/>
</a>
</g>
</g>
<!-- Node5 -->
<g id="Node000005" class="node">
<title>Node5</title>
<g id="a_Node000005"><a xlink:href="class_nuki_1_1_nuki_ble.html#a6e8fca90c04249660dce6cb993eb4495" target="_top" xlink:title=" ">
<polygon fill="white" stroke="#666666" points="867.5,-169.35 710.5,-169.35 710.5,-138.85 867.5,-138.85 867.5,-169.35"/>
<text text-anchor="start" x="718.5" y="-155.85" font-family="Helvetica,sans-Serif" font-size="10.00">Nuki::NukiBle::extendDisconnect</text>
<text text-anchor="middle" x="789" y="-144.6" font-family="Helvetica,sans-Serif" font-size="10.00">Timeout</text>
</a>
</g>
</g>
<!-- Node3&#45;&gt;Node5 -->
<g id="edge15_Node000003_Node000005" class="edge">
<title>Node3&#45;&gt;Node5</title>
<g id="a_edge15_Node000003_Node000005"><a xlink:title=" ">
<path fill="none" stroke="#63b8ff" d="M417.39,-97.14C432.54,-117.83 470.64,-164.7 516,-182.1 588.51,-209.91 679.42,-190.75 735.61,-173.28"/>
<polygon fill="#63b8ff" stroke="#63b8ff" points="736.47,-176.68 744.93,-170.29 734.33,-170.02 736.47,-176.68"/>
</a>
</g>
</g>
<!-- Node6 -->
<g id="Node000006" class="node">
<title>Node6</title>
<g id="a_Node000006"><a xlink:href="class_nuki_1_1_nuki_ble.html#ac7ce691d9c3e586474655d1663eb2e20" target="_top" xlink:title=" ">
<polygon fill="white" stroke="#666666" points="855.12,-78.73 722.88,-78.73 722.88,-59.48 855.12,-59.48 855.12,-78.73"/>
<text text-anchor="middle" x="789" y="-65.23" font-family="Helvetica,sans-Serif" font-size="10.00">Nuki::NukiBle::logMessage</text>
</a>
</g>
</g>
<!-- Node3&#45;&gt;Node6 -->
<g id="edge16_Node000003_Node000006" class="edge">
<title>Node3&#45;&gt;Node6</title>
<g id="a_edge16_Node000003_Node000006"><a xlink:title=" ">
<path fill="none" stroke="#63b8ff" d="M420.31,-77.03C437.78,-60.1 475.99,-26.58 516,-14.1 583.25,6.88 605.84,1.66 674.5,-14.1 707.11,-21.59 741.23,-39.73 763.44,-53.14"/>
<polygon fill="#63b8ff" stroke="#63b8ff" points="761.41,-56 771.75,-58.3 765.1,-50.06 761.41,-56"/>
</a>
</g>
</g>
<!-- Node7 -->
<g id="Node000007" class="node">
<title>Node7</title>
<g id="a_Node000007"><a xlink:href="class_nuki_1_1_nuki_ble.html#af3650133f46aeca48a5f01b95d23ab71" target="_top" xlink:title=" ">
<polygon fill="white" stroke="#666666" points="862.62,-116.73 715.38,-116.73 715.38,-97.48 862.62,-97.48 862.62,-116.73"/>
<text text-anchor="middle" x="789" y="-103.23" font-family="Helvetica,sans-Serif" font-size="10.00">Nuki::NukiBle::logMessageVar</text>
</a>
</g>
</g>
<!-- Node3&#45;&gt;Node7 -->
<g id="edge17_Node000003_Node000007" class="edge">
<title>Node3&#45;&gt;Node7</title>
<g id="a_edge17_Node000003_Node000007"><a xlink:title=" ">
<path fill="none" stroke="#63b8ff" d="M429.95,-77.03C475.18,-55.24 589.58,-8.66 674.5,-47.1 696.59,-57.1 689.77,-75.52 710.5,-88.1 713.43,-89.88 716.51,-91.49 719.69,-92.95"/>
<polygon fill="#63b8ff" stroke="#63b8ff" points="718.13,-96.09 728.72,-96.55 720.73,-89.59 718.13,-96.09"/>
</a>
</g>
</g>
<!-- Node8 -->
<g id="Node000008" class="node">
<title>Node8</title>
<g id="a_Node000008"><a xlink:href="class_nuki_1_1_nuki_ble.html#a59169a9f492793762e3c6ba39b611b07" target="_top" xlink:title=" ">
<polygon fill="white" stroke="#666666" points="667,-124.35 523.5,-124.35 523.5,-93.85 667,-93.85 667,-124.35"/>
<text text-anchor="start" x="531.5" y="-110.85" font-family="Helvetica,sans-Serif" font-size="10.00">Nuki::NukiBle::cmdChallState</text>
<text text-anchor="middle" x="595.25" y="-99.6" font-family="Helvetica,sans-Serif" font-size="10.00">Machine</text>
</a>
</g>
</g>
<!-- Node3&#45;&gt;Node8 -->
<g id="edge7_Node000003_Node000008" class="edge">
<title>Node3&#45;&gt;Node8</title>
<g id="a_edge7_Node000003_Node000008"><a xlink:title=" ">
<path fill="none" stroke="#63b8ff" d="M480.41,-95.48C490.7,-96.71 501.37,-97.99 511.88,-99.25"/>
<polygon fill="#63b8ff" stroke="#63b8ff" points="511.34,-102.71 521.68,-100.42 512.17,-95.76 511.34,-102.71"/>
</a>
</g>
</g>
<!-- Node9 -->
<g id="Node000009" class="node">
<title>Node9</title>
<g id="a_Node000009"><a xlink:href="class_nuki_1_1_nuki_ble.html#ad135bb1455665decfddff67772c1d411" target="_top" xlink:title=" ">
<polygon fill="white" stroke="#666666" points="674.5,-75.73 516,-75.73 516,-56.48 674.5,-56.48 674.5,-75.73"/>
<text text-anchor="middle" x="595.25" y="-62.23" font-family="Helvetica,sans-Serif" font-size="10.00">Nuki::NukiBle::cmdStateMachine</text>
</a>
</g>
</g>
<!-- Node3&#45;&gt;Node9 -->
<g id="edge11_Node000003_Node000009" class="edge">
<title>Node3&#45;&gt;Node9</title>
<g id="a_edge11_Node000003_Node000009"><a xlink:title=" ">
<path fill="none" stroke="#63b8ff" d="M480.41,-79.1C488.28,-78.21 496.37,-77.28 504.44,-76.36"/>
<polygon fill="#63b8ff" stroke="#63b8ff" points="504.76,-79.85 514.3,-75.23 503.97,-72.89 504.76,-79.85"/>
</a>
</g>
</g>
<!-- Node4&#45;&gt;Node5 -->
<g id="edge4_Node000004_Node000005" class="edge">
<title>Node4&#45;&gt;Node5</title>
<g id="a_edge4_Node000004_Node000005"><a xlink:title=" ">
<path fill="none" stroke="#63b8ff" d="M664.39,-156.68C675.54,-156.45 687.22,-156.2 698.78,-155.96"/>
<polygon fill="#63b8ff" stroke="#63b8ff" points="698.83,-159.46 708.76,-155.76 698.69,-152.46 698.83,-159.46"/>
</a>
</g>
</g>
<!-- Node4&#45;&gt;Node6 -->
<g id="edge5_Node000004_Node000006" class="edge">
<title>Node4&#45;&gt;Node6</title>
<g id="a_edge5_Node000004_Node000006"><a xlink:title=" ">
<path fill="none" stroke="#63b8ff" d="M657.72,-142.38C663.63,-139.73 669.33,-136.66 674.5,-133.1 695.6,-118.58 688.91,-101.89 710.5,-88.1 713.09,-86.45 715.82,-84.94 718.63,-83.56"/>
<polygon fill="#63b8ff" stroke="#63b8ff" points="719.91,-86.82 727.76,-79.7 717.19,-80.37 719.91,-86.82"/>
</a>
</g>
</g>
<!-- Node4&#45;&gt;Node7 -->
<g id="edge6_Node000004_Node000007" class="edge">
<title>Node4&#45;&gt;Node7</title>
<g id="a_edge6_Node000004_Node000007"><a xlink:title=" ">
<path fill="none" stroke="#63b8ff" d="M655.35,-142.38C682.19,-135.25 713.56,-126.9 739.05,-120.12"/>
<polygon fill="#63b8ff" stroke="#63b8ff" points="739.72,-123.56 748.49,-117.61 737.93,-116.8 739.72,-123.56"/>
</a>
</g>
</g>
<!-- Node8&#45;&gt;Node5 -->
<g id="edge8_Node000008_Node000005" class="edge">
<title>Node8&#45;&gt;Node5</title>
<g id="a_edge8_Node000008_Node000005"><a xlink:title=" ">
<path fill="none" stroke="#63b8ff" d="M663.31,-124.84C678.35,-128.37 694.43,-132.14 709.87,-135.77"/>
<polygon fill="#63b8ff" stroke="#63b8ff" points="708.96,-139.15 719.5,-138.03 710.56,-132.33 708.96,-139.15"/>
</a>
</g>
</g>
<!-- Node8&#45;&gt;Node6 -->
<g id="edge9_Node000008_Node000006" class="edge">
<title>Node8&#45;&gt;Node6</title>
<g id="a_edge9_Node000008_Node000006"><a xlink:title=" ">
<path fill="none" stroke="#63b8ff" d="M667.38,-94.26C687.51,-90.06 709.21,-85.54 728.58,-81.5"/>
<polygon fill="#63b8ff" stroke="#63b8ff" points="729.13,-84.96 738.2,-79.49 727.7,-78.11 729.13,-84.96"/>
</a>
</g>
</g>
<!-- Node8&#45;&gt;Node7 -->
<g id="edge10_Node000008_Node000007" class="edge">
<title>Node8&#45;&gt;Node7</title>
<g id="a_edge10_Node000008_Node000007"><a xlink:title=" ">
<path fill="none" stroke="#63b8ff" d="M667.38,-108.36C679.17,-108.24 691.5,-108.11 703.58,-107.98"/>
<polygon fill="#63b8ff" stroke="#63b8ff" points="703.59,-111.48 713.55,-107.88 703.51,-104.48 703.59,-111.48"/>
</a>
</g>
</g>
<!-- Node9&#45;&gt;Node5 -->
<g id="edge12_Node000009_Node000005" class="edge">
<title>Node9&#45;&gt;Node5</title>
<g id="a_edge12_Node000009_Node000005"><a xlink:title=" ">
<path fill="none" stroke="#63b8ff" d="M655.09,-76.18C661.89,-78.55 668.52,-81.48 674.5,-85.1 695.25,-97.66 690.46,-112.44 710.5,-126.1 714.6,-128.9 719.01,-131.45 723.58,-133.77"/>
<polygon fill="#63b8ff" stroke="#63b8ff" points="721.83,-136.82 732.37,-137.86 724.78,-130.47 721.83,-136.82"/>
</a>
</g>
</g>
<!-- Node9&#45;&gt;Node6 -->
<g id="edge13_Node000009_Node000006" class="edge">
<title>Node9&#45;&gt;Node6</title>
<g id="a_edge13_Node000009_Node000006"><a xlink:title=" ">
<path fill="none" stroke="#63b8ff" d="M674.8,-67.33C686.79,-67.52 699.15,-67.71 711.11,-67.9"/>
<polygon fill="#63b8ff" stroke="#63b8ff" points="710.85,-71.4 720.91,-68.05 710.96,-64.4 710.85,-71.4"/>
</a>
</g>
</g>
<!-- Node9&#45;&gt;Node7 -->
<g id="edge14_Node000009_Node000007" class="edge">
<title>Node9&#45;&gt;Node7</title>
<g id="a_edge14_Node000009_Node000007"><a xlink:title=" ">
<path fill="none" stroke="#63b8ff" d="M643.16,-76.13C669.27,-81.72 702.02,-88.72 729.76,-94.65"/>
<polygon fill="#63b8ff" stroke="#63b8ff" points="728.92,-98.05 739.43,-96.72 730.39,-91.2 728.92,-98.05"/>
</a>
</g>
</g>
</g>
</svg>
