<?xml version="1.0" encoding="UTF-8" standalone="no"?>
<!DOCTYPE svg PUBLIC "-//W3C//DTD SVG 1.1//EN"
 "http://www.w3.org/Graphics/SVG/1.1/DTD/svg11.dtd">
<!-- Generated by graphviz version 7.0.1 (20221109.1506)
 -->
<!-- Title: NukiLock::NukiLock::handleReturnMessage Pages: 1 -->
<svg width="497pt" height="310pt"
 viewBox="0.00 0.00 497.00 309.50" xmlns="http://www.w3.org/2000/svg" xmlns:xlink="http://www.w3.org/1999/xlink">
<g id="graph0" class="graph" transform="scale(1 1) rotate(0) translate(4 305.5)">
<title>NukiLock::NukiLock::handleReturnMessage</title>
<!-- Node1 -->
<g id="node1" class="node">
<title>Node1</title>
<g id="a_node1"><a xlink:title=" ">
<polygon fill="#999999" stroke="#666666" points="118,-153.5 0,-153.5 0,-123.5 118,-123.5 118,-153.5"/>
<text text-anchor="start" x="8" y="-141.5" font-family="Helvetica,sans-Serif" font-size="10.00">NukiLock::NukiLock</text>
<text text-anchor="middle" x="59" y="-130.5" font-family="Helvetica,sans-Serif" font-size="10.00">::handleReturnMessage</text>
</a>
</g>
</g>
<!-- Node2 -->
<g id="node2" class="node">
<title>Node2</title>
<g id="a_node2"><a xlink:href="class_nuki_1_1_nuki_ble.html#ac2e28f07ed0a738f73c5f77b46cdb1bb" target="_top" xlink:title=" ">
<polygon fill="white" stroke="#666666" points="295.5,-301.5 158.5,-301.5 158.5,-271.5 295.5,-271.5 295.5,-301.5"/>
<text text-anchor="start" x="166.5" y="-289.5" font-family="Helvetica,sans-Serif" font-size="10.00">Nuki::NukiBle::handleReturn</text>
<text text-anchor="middle" x="227" y="-278.5" font-family="Helvetica,sans-Serif" font-size="10.00">Message</text>
</a>
</g>
</g>
<!-- Node1&#45;&gt;Node2 -->
<g id="edge1" class="edge">
<title>Node1&#45;&gt;Node2</title>
<path fill="none" stroke="#63b8ff" d="M67.64,-153.84C81.38,-179.91 112.72,-232.91 154,-262.5 155.58,-263.63 157.22,-264.72 158.91,-265.75"/>
<polygon fill="#63b8ff" stroke="#63b8ff" points="157.18,-268.8 167.64,-270.44 160.49,-262.63 157.18,-268.8"/>
</g>
<!-- Node3 -->
<g id="node3" class="node">
<title>Node3</title>
<g id="a_node3"><a xlink:href="namespace_nuki_lock.html#a443e14fa26c3b2a4a0c2c6565be0d459" target="_top" xlink:title=" ">
<polygon fill="white" stroke="#666666" points="300,-253 154,-253 154,-234 300,-234 300,-253"/>
<text text-anchor="middle" x="227" y="-241" font-family="Helvetica,sans-Serif" font-size="10.00">NukiLock::logAdvancedConfig</text>
</a>
</g>
</g>
<!-- Node1&#45;&gt;Node3 -->
<g id="edge2" class="edge">
<title>Node1&#45;&gt;Node3</title>
<path fill="none" stroke="#63b8ff" d="M72.64,-153.98C89.29,-173.34 120.41,-206.17 154,-224.5 157.45,-226.38 161.1,-228.09 164.85,-229.63"/>
<polygon fill="#63b8ff" stroke="#63b8ff" points="163.59,-232.89 174.18,-233.03 165.99,-226.32 163.59,-232.89"/>
</g>
<!-- Node4 -->
<g id="node4" class="node">
<title>Node4</title>
<g id="a_node4"><a xlink:href="namespace_nuki_lock.html#a650ff7596ea6baa28cb6e1001a490330" target="_top" xlink:title=" ">
<polygon fill="white" stroke="#666666" points="293,-215.5 161,-215.5 161,-185.5 293,-185.5 293,-215.5"/>
<text text-anchor="start" x="169" y="-203.5" font-family="Helvetica,sans-Serif" font-size="10.00">NukiLock::logAuthorization</text>
<text text-anchor="middle" x="227" y="-192.5" font-family="Helvetica,sans-Serif" font-size="10.00">Entry</text>
</a>
</g>
</g>
<!-- Node1&#45;&gt;Node4 -->
<g id="edge3" class="edge">
<title>Node1&#45;&gt;Node4</title>
<path fill="none" stroke="#63b8ff" d="M96.4,-153.83C113.74,-160.98 134.84,-169.44 154,-176.5 158.38,-178.11 162.93,-179.74 167.51,-181.35"/>
<polygon fill="#63b8ff" stroke="#63b8ff" points="166.19,-184.59 176.79,-184.54 168.47,-177.98 166.19,-184.59"/>
</g>
<!-- Node5 -->
<g id="node5" class="node">
<title>Node5</title>
<g id="a_node5"><a xlink:href="namespace_nuki_lock.html#a7ea754b2cb764a6f6469efc00dbfdfe8" target="_top" xlink:title=" ">
<polygon fill="white" stroke="#666666" points="294.5,-167 159.5,-167 159.5,-148 294.5,-148 294.5,-167"/>
<text text-anchor="middle" x="227" y="-155" font-family="Helvetica,sans-Serif" font-size="10.00">NukiLock::logBatteryReport</text>
</a>
</g>
</g>
<!-- Node1&#45;&gt;Node5 -->
<g id="edge4" class="edge">
<title>Node1&#45;&gt;Node5</title>
<path fill="none" stroke="#63b8ff" d="M118.06,-145.15C127.7,-146.25 137.85,-147.41 147.89,-148.56"/>
<polygon fill="#63b8ff" stroke="#63b8ff" points="147.32,-152.02 157.66,-149.68 148.12,-145.06 147.32,-152.02"/>
</g>
<!-- Node6 -->
<g id="node6" class="node">
<title>Node6</title>
<g id="a_node6"><a xlink:href="namespace_nuki_lock.html#a44f8fccc739b59c4fa2c9994da10aaed" target="_top" xlink:title=" ">
<polygon fill="white" stroke="#666666" points="278.5,-130 175.5,-130 175.5,-111 278.5,-111 278.5,-130"/>
<text text-anchor="middle" x="227" y="-118" font-family="Helvetica,sans-Serif" font-size="10.00">NukiLock::logConfig</text>
</a>
</g>
</g>
<!-- Node1&#45;&gt;Node6 -->
<g id="edge5" class="edge">
<title>Node1&#45;&gt;Node6</title>
<path fill="none" stroke="#63b8ff" d="M118.06,-132.2C132.89,-130.6 148.88,-128.86 163.9,-127.23"/>
<polygon fill="#63b8ff" stroke="#63b8ff" points="164.09,-130.73 173.66,-126.18 163.34,-123.77 164.09,-130.73"/>
</g>
<!-- Node7 -->
<g id="node7" class="node">
<title>Node7</title>
<g id="a_node7"><a xlink:href="namespace_nuki_lock.html#a5b521a0ba26dfc799683a2edb9529902" target="_top" xlink:title=" ">
<polygon fill="white" stroke="#666666" points="297,-93 157,-93 157,-74 297,-74 297,-93"/>
<text text-anchor="middle" x="227" y="-81" font-family="Helvetica,sans-Serif" font-size="10.00">NukiLock::logKeyturnerState</text>
</a>
</g>
</g>
<!-- Node1&#45;&gt;Node7 -->
<g id="edge6" class="edge">
<title>Node1&#45;&gt;Node7</title>
<path fill="none" stroke="#63b8ff" d="M97.63,-123.02C114.69,-116.28 135.21,-108.56 154,-102.5 160.54,-100.39 167.47,-98.34 174.34,-96.41"/>
<polygon fill="#63b8ff" stroke="#63b8ff" points="174.85,-99.9 183.57,-93.89 173.01,-93.15 174.85,-99.9"/>
</g>
<!-- Node11 -->
<g id="node11" class="node">
<title>Node11</title>
<g id="a_node11"><a xlink:href="namespace_nuki_lock.html#aec3cb8258cc4133d676e8c5f50bcd938" target="_top" xlink:title=" ">
<polygon fill="white" stroke="#666666" points="284,-56 170,-56 170,-37 284,-37 284,-56"/>
<text text-anchor="middle" x="227" y="-44" font-family="Helvetica,sans-Serif" font-size="10.00">NukiLock::logLogEntry</text>
</a>
</g>
</g>
<!-- Node1&#45;&gt;Node11 -->
<g id="edge10" class="edge">
<title>Node1&#45;&gt;Node11</title>
<path fill="none" stroke="#63b8ff" d="M75.6,-123.11C93.22,-106.57 123.44,-80.61 154,-65.5 157.99,-63.53 162.21,-61.74 166.53,-60.12"/>
<polygon fill="#63b8ff" stroke="#63b8ff" points="167.6,-63.46 175.95,-56.94 165.36,-56.83 167.6,-63.46"/>
</g>
<!-- Node12 -->
<g id="node12" class="node">
<title>Node12</title>
<g id="a_node12"><a xlink:href="namespace_nuki.html#a280e19d4682ca4b35d3fe64001da816a" target="_top" xlink:title=" ">
<polygon fill="white" stroke="#666666" points="270,-19 184,-19 184,0 270,0 270,-19"/>
<text text-anchor="middle" x="227" y="-7" font-family="Helvetica,sans-Serif" font-size="10.00">Nuki::printBuffer</text>
</a>
</g>
</g>
<!-- Node1&#45;&gt;Node12 -->
<g id="edge14" class="edge">
<title>Node1&#45;&gt;Node12</title>
<path fill="none" stroke="#63b8ff" d="M68.84,-123.13C83.42,-99.16 114.86,-53.08 154,-28.5 159.89,-24.8 166.49,-21.82 173.23,-19.41"/>
<polygon fill="#63b8ff" stroke="#63b8ff" points="173.92,-22.86 182.43,-16.54 171.84,-16.18 173.92,-22.86"/>
</g>
<!-- Node8 -->
<g id="node8" class="node">
<title>Node8</title>
<g id="a_node8"><a xlink:href="namespace_nuki_lock.html#a564f6d63072267bb72f431e4c4e1c947" target="_top" xlink:title=" ">
<polygon fill="white" stroke="#666666" points="489,-112 336,-112 336,-93 489,-93 489,-112"/>
<text text-anchor="middle" x="412.5" y="-100" font-family="Helvetica,sans-Serif" font-size="10.00">NukiLock::logCompletionStatus</text>
</a>
</g>
</g>
<!-- Node7&#45;&gt;Node8 -->
<g id="edge7" class="edge">
<title>Node7&#45;&gt;Node8</title>
<path fill="none" stroke="#63b8ff" d="M297.37,-90.68C306.15,-91.59 315.22,-92.53 324.23,-93.46"/>
<polygon fill="#63b8ff" stroke="#63b8ff" points="323.77,-96.94 334.08,-94.48 324.49,-89.97 323.77,-96.94"/>
</g>
<!-- Node9 -->
<g id="node9" class="node">
<title>Node9</title>
<g id="a_node9"><a xlink:href="namespace_nuki_lock.html#a02e1891ccc5565890fd8ddd6577dea57" target="_top" xlink:title=" ">
<polygon fill="white" stroke="#666666" points="475,-75 350,-75 350,-56 475,-56 475,-75"/>
<text text-anchor="middle" x="412.5" y="-63" font-family="Helvetica,sans-Serif" font-size="10.00">NukiLock::logLockAction</text>
</a>
</g>
</g>
<!-- Node7&#45;&gt;Node9 -->
<g id="edge8" class="edge">
<title>Node7&#45;&gt;Node9</title>
<path fill="none" stroke="#63b8ff" d="M297.37,-76.69C310.77,-75.38 324.85,-74 338.37,-72.67"/>
<polygon fill="#63b8ff" stroke="#63b8ff" points="338.44,-76.18 348.05,-71.72 337.76,-69.22 338.44,-76.18"/>
</g>
<!-- Node10 -->
<g id="node10" class="node">
<title>Node10</title>
<g id="a_node10"><a xlink:href="namespace_nuki_lock.html#aa9c8584e761f69cad4eb3ea1c20d27e7" target="_top" xlink:title=" ">
<polygon fill="white" stroke="#666666" points="475.5,-38 349.5,-38 349.5,-19 475.5,-19 475.5,-38"/>
<text text-anchor="middle" x="412.5" y="-26" font-family="Helvetica,sans-Serif" font-size="10.00">NukiLock::logNukiTrigger</text>
</a>
</g>
</g>
<!-- Node7&#45;&gt;Node10 -->
<g id="edge9" class="edge">
<title>Node7&#45;&gt;Node10</title>
<path fill="none" stroke="#63b8ff" d="M274.16,-73.55C282.85,-71.23 291.78,-68.54 300,-65.5 316.78,-59.29 319.23,-53.72 336,-47.5 341.78,-45.36 347.9,-43.37 354.05,-41.56"/>
<polygon fill="#63b8ff" stroke="#63b8ff" points="354.95,-44.95 363.64,-38.89 353.07,-38.2 354.95,-44.95"/>
</g>
<!-- Node11&#45;&gt;Node8 -->
<g id="edge11" class="edge">
<title>Node11&#45;&gt;Node8</title>
<path fill="none" stroke="#63b8ff" d="M272.3,-56.49C281.57,-59.05 291.21,-62.07 300,-65.5 316.86,-72.07 319.07,-78.13 336,-84.5 340.74,-86.28 345.71,-87.93 350.75,-89.44"/>
<polygon fill="#63b8ff" stroke="#63b8ff" points="349.79,-92.81 360.36,-92.13 351.68,-86.07 349.79,-92.81"/>
</g>
<!-- Node11&#45;&gt;Node9 -->
<g id="edge12" class="edge">
<title>Node11&#45;&gt;Node9</title>
<path fill="none" stroke="#63b8ff" d="M284.3,-52.33C301.32,-54.09 320.26,-56.05 338.22,-57.91"/>
<polygon fill="#63b8ff" stroke="#63b8ff" points="337.74,-61.38 348.04,-58.93 338.46,-54.42 337.74,-61.38"/>
</g>
<!-- Node11&#45;&gt;Node10 -->
<g id="edge13" class="edge">
<title>Node11&#45;&gt;Node10</title>
<path fill="none" stroke="#63b8ff" d="M284.3,-40.98C301.24,-39.32 320.07,-37.47 337.95,-35.71"/>
<polygon fill="#63b8ff" stroke="#63b8ff" points="338.11,-39.22 347.72,-34.76 337.43,-32.25 338.11,-39.22"/>
</g>
</g>
</svg>
