<?xml version="1.0" encoding="UTF-8" standalone="no"?>
<!DOCTYPE svg PUBLIC "-//W3C//DTD SVG 1.1//EN"
 "http://www.w3.org/Graphics/SVG/1.1/DTD/svg11.dtd">
<!-- Generated by graphviz version 12.2.1 (20241206.2353)
 -->
<!-- Title: Nuki::NukiBle::retrieveAuthorizationEntries Pages: 1 -->
<svg width="741pt" height="205pt"
 viewBox="0.00 0.00 741.00 204.75" xmlns="http://www.w3.org/2000/svg" xmlns:xlink="http://www.w3.org/1999/xlink">
<g id="graph0" class="graph" transform="scale(1 1) rotate(0) translate(4 200.75)">
<title>Nuki::NukiBle::retrieveAuthorizationEntries</title>
<!-- Node1 -->
<g id="Node000001" class="node">
<title>Node1</title>
<g id="a_Node000001"><a xlink:title="Request the lock via BLE to send the existing authorizationentries.">
<polygon fill="#999999" stroke="#666666" points="168.25,-102.35 0,-102.35 0,-71.85 168.25,-71.85 168.25,-102.35"/>
<text text-anchor="start" x="8" y="-88.85" font-family="Helvetica,sans-Serif" font-size="10.00">Nuki::NukiBle::retrieveAuthorization</text>
<text text-anchor="middle" x="84.12" y="-77.6" font-family="Helvetica,sans-Serif" font-size="10.00">Entries</text>
</a>
</g>
</g>
<!-- Node2 -->
<g id="Node000002" class="node">
<title>Node2</title>
<g id="a_Node000002"><a xlink:href="class_nuki_1_1_nuki_ble.html#af1f1e299e8d97e053bba80e92ba285d6" target="_top" xlink:title=" ">
<polygon fill="white" stroke="#666666" points="345.5,-96.73 204.25,-96.73 204.25,-77.48 345.5,-77.48 345.5,-96.73"/>
<text text-anchor="middle" x="274.88" y="-83.23" font-family="Helvetica,sans-Serif" font-size="10.00">Nuki::NukiBle::executeAction</text>
</a>
</g>
</g>
<!-- Node1&#45;&gt;Node2 -->
<g id="edge1_Node000001_Node000002" class="edge">
<title>Node1&#45;&gt;Node2</title>
<g id="a_edge1_Node000001_Node000002"><a xlink:title=" ">
<path fill="none" stroke="#63b8ff" d="M168.74,-87.1C176.62,-87.1 184.61,-87.1 192.47,-87.1"/>
<polygon fill="#63b8ff" stroke="#63b8ff" points="192.36,-90.6 202.36,-87.1 192.36,-83.6 192.36,-90.6"/>
</a>
</g>
</g>
<!-- Node3 -->
<g id="Node000003" class="node">
<title>Node3</title>
<g id="a_Node000003"><a xlink:href="class_nuki_1_1_nuki_ble.html#ada0f3beebd95d35c122e25dd3f9eb886" target="_top" xlink:title=" ">
<polygon fill="white" stroke="#666666" points="529.5,-173.35 392,-173.35 392,-142.85 529.5,-142.85 529.5,-173.35"/>
<text text-anchor="start" x="400" y="-159.85" font-family="Helvetica,sans-Serif" font-size="10.00">Nuki::NukiBle::cmdChallAcc</text>
<text text-anchor="middle" x="460.75" y="-148.6" font-family="Helvetica,sans-Serif" font-size="10.00">StateMachine</text>
</a>
</g>
</g>
<!-- Node2&#45;&gt;Node3 -->
<g id="edge2_Node000002_Node000003" class="edge">
<title>Node2&#45;&gt;Node3</title>
<g id="a_edge2_Node000002_Node000003"><a xlink:title=" ">
<path fill="none" stroke="#63b8ff" d="M297.06,-97.09C318.2,-106.87 351.74,-121.9 381.5,-133.1 386.71,-135.06 392.14,-137 397.62,-138.89"/>
<polygon fill="#63b8ff" stroke="#63b8ff" points="396.11,-142.08 406.71,-141.95 398.35,-135.44 396.11,-142.08"/>
</a>
</g>
</g>
<!-- Node4 -->
<g id="Node000004" class="node">
<title>Node4</title>
<g id="a_Node000004"><a xlink:href="class_nuki_1_1_nuki_ble.html#a6e8fca90c04249660dce6cb993eb4495" target="_top" xlink:title=" ">
<polygon fill="white" stroke="#666666" points="733,-169.35 576,-169.35 576,-138.85 733,-138.85 733,-169.35"/>
<text text-anchor="start" x="584" y="-155.85" font-family="Helvetica,sans-Serif" font-size="10.00">Nuki::NukiBle::extendDisconnect</text>
<text text-anchor="middle" x="654.5" y="-144.6" font-family="Helvetica,sans-Serif" font-size="10.00">Timeout</text>
</a>
</g>
</g>
<!-- Node2&#45;&gt;Node4 -->
<g id="edge14_Node000002_Node000004" class="edge">
<title>Node2&#45;&gt;Node4</title>
<g id="a_edge14_Node000002_Node000004"><a xlink:title=" ">
<path fill="none" stroke="#63b8ff" d="M282.89,-97.14C298.04,-117.83 336.14,-164.7 381.5,-182.1 454.01,-209.91 544.92,-190.75 601.11,-173.28"/>
<polygon fill="#63b8ff" stroke="#63b8ff" points="601.97,-176.68 610.43,-170.29 599.83,-170.02 601.97,-176.68"/>
</a>
</g>
</g>
<!-- Node5 -->
<g id="Node000005" class="node">
<title>Node5</title>
<g id="a_Node000005"><a xlink:href="class_nuki_1_1_nuki_ble.html#ac7ce691d9c3e586474655d1663eb2e20" target="_top" xlink:title=" ">
<polygon fill="white" stroke="#666666" points="720.62,-78.73 588.38,-78.73 588.38,-59.48 720.62,-59.48 720.62,-78.73"/>
<text text-anchor="middle" x="654.5" y="-65.23" font-family="Helvetica,sans-Serif" font-size="10.00">Nuki::NukiBle::logMessage</text>
</a>
</g>
</g>
<!-- Node2&#45;&gt;Node5 -->
<g id="edge15_Node000002_Node000005" class="edge">
<title>Node2&#45;&gt;Node5</title>
<g id="a_edge15_Node000002_Node000005"><a xlink:title=" ">
<path fill="none" stroke="#63b8ff" d="M285.81,-77.03C303.28,-60.1 341.49,-26.58 381.5,-14.1 448.75,6.88 471.34,1.66 540,-14.1 572.61,-21.59 606.73,-39.73 628.94,-53.14"/>
<polygon fill="#63b8ff" stroke="#63b8ff" points="626.91,-56 637.25,-58.3 630.6,-50.06 626.91,-56"/>
</a>
</g>
</g>
<!-- Node6 -->
<g id="Node000006" class="node">
<title>Node6</title>
<g id="a_Node000006"><a xlink:href="class_nuki_1_1_nuki_ble.html#af3650133f46aeca48a5f01b95d23ab71" target="_top" xlink:title=" ">
<polygon fill="white" stroke="#666666" points="728.12,-116.73 580.88,-116.73 580.88,-97.48 728.12,-97.48 728.12,-116.73"/>
<text text-anchor="middle" x="654.5" y="-103.23" font-family="Helvetica,sans-Serif" font-size="10.00">Nuki::NukiBle::logMessageVar</text>
</a>
</g>
</g>
<!-- Node2&#45;&gt;Node6 -->
<g id="edge16_Node000002_Node000006" class="edge">
<title>Node2&#45;&gt;Node6</title>
<g id="a_edge16_Node000002_Node000006"><a xlink:title=" ">
<path fill="none" stroke="#63b8ff" d="M295.45,-77.03C340.68,-55.24 455.08,-8.66 540,-47.1 562.09,-57.1 555.27,-75.52 576,-88.1 578.93,-89.88 582.01,-91.49 585.19,-92.95"/>
<polygon fill="#63b8ff" stroke="#63b8ff" points="583.63,-96.09 594.22,-96.55 586.23,-89.59 583.63,-96.09"/>
</a>
</g>
</g>
<!-- Node7 -->
<g id="Node000007" class="node">
<title>Node7</title>
<g id="a_Node000007"><a xlink:href="class_nuki_1_1_nuki_ble.html#a59169a9f492793762e3c6ba39b611b07" target="_top" xlink:title=" ">
<polygon fill="white" stroke="#666666" points="532.5,-124.35 389,-124.35 389,-93.85 532.5,-93.85 532.5,-124.35"/>
<text text-anchor="start" x="397" y="-110.85" font-family="Helvetica,sans-Serif" font-size="10.00">Nuki::NukiBle::cmdChallState</text>
<text text-anchor="middle" x="460.75" y="-99.6" font-family="Helvetica,sans-Serif" font-size="10.00">Machine</text>
</a>
</g>
</g>
<!-- Node2&#45;&gt;Node7 -->
<g id="edge6_Node000002_Node000007" class="edge">
<title>Node2&#45;&gt;Node7</title>
<g id="a_edge6_Node000002_Node000007"><a xlink:title=" ">
<path fill="none" stroke="#63b8ff" d="M345.91,-95.48C356.2,-96.71 366.87,-97.99 377.38,-99.25"/>
<polygon fill="#63b8ff" stroke="#63b8ff" points="376.84,-102.71 387.18,-100.42 377.67,-95.76 376.84,-102.71"/>
</a>
</g>
</g>
<!-- Node8 -->
<g id="Node000008" class="node">
<title>Node8</title>
<g id="a_Node000008"><a xlink:href="class_nuki_1_1_nuki_ble.html#ad135bb1455665decfddff67772c1d411" target="_top" xlink:title=" ">
<polygon fill="white" stroke="#666666" points="540,-75.73 381.5,-75.73 381.5,-56.48 540,-56.48 540,-75.73"/>
<text text-anchor="middle" x="460.75" y="-62.23" font-family="Helvetica,sans-Serif" font-size="10.00">Nuki::NukiBle::cmdStateMachine</text>
</a>
</g>
</g>
<!-- Node2&#45;&gt;Node8 -->
<g id="edge10_Node000002_Node000008" class="edge">
<title>Node2&#45;&gt;Node8</title>
<g id="a_edge10_Node000002_Node000008"><a xlink:title=" ">
<path fill="none" stroke="#63b8ff" d="M345.91,-79.1C353.78,-78.21 361.87,-77.28 369.94,-76.36"/>
<polygon fill="#63b8ff" stroke="#63b8ff" points="370.26,-79.85 379.8,-75.23 369.47,-72.89 370.26,-79.85"/>
</a>
</g>
</g>
<!-- Node3&#45;&gt;Node4 -->
<g id="edge3_Node000003_Node000004" class="edge">
<title>Node3&#45;&gt;Node4</title>
<g id="a_edge3_Node000003_Node000004"><a xlink:title=" ">
<path fill="none" stroke="#63b8ff" d="M529.89,-156.68C541.04,-156.45 552.72,-156.2 564.28,-155.96"/>
<polygon fill="#63b8ff" stroke="#63b8ff" points="564.33,-159.46 574.26,-155.76 564.19,-152.46 564.33,-159.46"/>
</a>
</g>
</g>
<!-- Node3&#45;&gt;Node5 -->
<g id="edge4_Node000003_Node000005" class="edge">
<title>Node3&#45;&gt;Node5</title>
<g id="a_edge4_Node000003_Node000005"><a xlink:title=" ">
<path fill="none" stroke="#63b8ff" d="M523.22,-142.38C529.13,-139.73 534.83,-136.66 540,-133.1 561.1,-118.58 554.41,-101.89 576,-88.1 578.59,-86.45 581.32,-84.94 584.13,-83.56"/>
<polygon fill="#63b8ff" stroke="#63b8ff" points="585.41,-86.82 593.26,-79.7 582.69,-80.37 585.41,-86.82"/>
</a>
</g>
</g>
<!-- Node3&#45;&gt;Node6 -->
<g id="edge5_Node000003_Node000006" class="edge">
<title>Node3&#45;&gt;Node6</title>
<g id="a_edge5_Node000003_Node000006"><a xlink:title=" ">
<path fill="none" stroke="#63b8ff" d="M520.85,-142.38C547.69,-135.25 579.06,-126.9 604.55,-120.12"/>
<polygon fill="#63b8ff" stroke="#63b8ff" points="605.22,-123.56 613.99,-117.61 603.43,-116.8 605.22,-123.56"/>
</a>
</g>
</g>
<!-- Node7&#45;&gt;Node4 -->
<g id="edge7_Node000007_Node000004" class="edge">
<title>Node7&#45;&gt;Node4</title>
<g id="a_edge7_Node000007_Node000004"><a xlink:title=" ">
<path fill="none" stroke="#63b8ff" d="M528.81,-124.84C543.85,-128.37 559.93,-132.14 575.37,-135.77"/>
<polygon fill="#63b8ff" stroke="#63b8ff" points="574.46,-139.15 585,-138.03 576.06,-132.33 574.46,-139.15"/>
</a>
</g>
</g>
<!-- Node7&#45;&gt;Node5 -->
<g id="edge8_Node000007_Node000005" class="edge">
<title>Node7&#45;&gt;Node5</title>
<g id="a_edge8_Node000007_Node000005"><a xlink:title=" ">
<path fill="none" stroke="#63b8ff" d="M532.88,-94.26C553.01,-90.06 574.71,-85.54 594.08,-81.5"/>
<polygon fill="#63b8ff" stroke="#63b8ff" points="594.63,-84.96 603.7,-79.49 593.2,-78.11 594.63,-84.96"/>
</a>
</g>
</g>
<!-- Node7&#45;&gt;Node6 -->
<g id="edge9_Node000007_Node000006" class="edge">
<title>Node7&#45;&gt;Node6</title>
<g id="a_edge9_Node000007_Node000006"><a xlink:title=" ">
<path fill="none" stroke="#63b8ff" d="M532.88,-108.36C544.67,-108.24 557,-108.11 569.08,-107.98"/>
<polygon fill="#63b8ff" stroke="#63b8ff" points="569.09,-111.48 579.05,-107.88 569.01,-104.48 569.09,-111.48"/>
</a>
</g>
</g>
<!-- Node8&#45;&gt;Node4 -->
<g id="edge11_Node000008_Node000004" class="edge">
<title>Node8&#45;&gt;Node4</title>
<g id="a_edge11_Node000008_Node000004"><a xlink:title=" ">
<path fill="none" stroke="#63b8ff" d="M520.59,-76.18C527.39,-78.55 534.02,-81.48 540,-85.1 560.75,-97.66 555.96,-112.44 576,-126.1 580.1,-128.9 584.51,-131.45 589.08,-133.77"/>
<polygon fill="#63b8ff" stroke="#63b8ff" points="587.33,-136.82 597.87,-137.86 590.28,-130.47 587.33,-136.82"/>
</a>
</g>
</g>
<!-- Node8&#45;&gt;Node5 -->
<g id="edge12_Node000008_Node000005" class="edge">
<title>Node8&#45;&gt;Node5</title>
<g id="a_edge12_Node000008_Node000005"><a xlink:title=" ">
<path fill="none" stroke="#63b8ff" d="M540.3,-67.33C552.29,-67.52 564.65,-67.71 576.61,-67.9"/>
<polygon fill="#63b8ff" stroke="#63b8ff" points="576.35,-71.4 586.41,-68.05 576.46,-64.4 576.35,-71.4"/>
</a>
</g>
</g>
<!-- Node8&#45;&gt;Node6 -->
<g id="edge13_Node000008_Node000006" class="edge">
<title>Node8&#45;&gt;Node6</title>
<g id="a_edge13_Node000008_Node000006"><a xlink:title=" ">
<path fill="none" stroke="#63b8ff" d="M508.66,-76.13C534.77,-81.72 567.52,-88.72 595.26,-94.65"/>
<polygon fill="#63b8ff" stroke="#63b8ff" points="594.42,-98.05 604.93,-96.72 595.89,-91.2 594.42,-98.05"/>
</a>
</g>
</g>
</g>
</svg>
