<?xml version="1.0" encoding="UTF-8" standalone="no"?>
<!DOCTYPE svg PUBLIC "-//W3C//DTD SVG 1.1//EN"
 "http://www.w3.org/Graphics/SVG/1.1/DTD/svg11.dtd">
<!-- Generated by graphviz version 5.0.1 (20220820.1526)
 -->
<!-- Title: Graph Legend Pages: 1 -->
<svg width="577pt" height="169pt"
 viewBox="0.00 0.00 577.00 169.00" xmlns="http://www.w3.org/2000/svg" xmlns:xlink="http://www.w3.org/1999/xlink">
<g id="graph0" class="graph" transform="scale(1 1) rotate(0) translate(4 165)">
<title>Graph Legend</title>
<!-- Node9 -->
<g id="node1" class="node">
<title>Node9</title>
<g id="a_node1"><a xlink:title=" ">
<polygon fill="#999999" stroke="#666666" points="334,-21 271,-21 271,0 334,0 334,-21"/>
<text text-anchor="middle" x="302.5" y="-7.4" font-family="Helvetica,sans-Serif" font-size="12.00">Inherited</text>
</a>
</g>
</g>
<!-- Node10 -->
<g id="node2" class="node">
<title>Node10</title>
<g id="a_node2"><a xlink:href="url.html" xlink:title=" ">
<polygon fill="white" stroke="#666666" points="77,-91 0,-91 0,-70 77,-70 77,-91"/>
<text text-anchor="middle" x="38.5" y="-77.4" font-family="Helvetica,sans-Serif" font-size="12.00">PublicBase</text>
</a>
</g>
</g>
<!-- Node10&#45;&gt;Node9 -->
<g id="edge1" class="edge">
<title>Node10&#45;&gt;Node9</title>
<path fill="none" stroke="#63b8ff" d="M85.39,-67.42C138.79,-53.67 224.6,-31.57 270.72,-19.69"/>
<polygon fill="#63b8ff" stroke="#63b8ff" points="84.3,-64.09 75.49,-69.97 86.04,-70.87 84.3,-64.09"/>
</g>
<!-- Node11 -->
<g id="node3" class="node">
<title>Node11</title>
<g id="a_node3"><a xlink:href="url.html" xlink:title=" ">
<polygon fill="#fff0f0" stroke="red" points="74,-161 3,-161 3,-140 74,-140 74,-161"/>
<text text-anchor="middle" x="38.5" y="-147.4" font-family="Helvetica,sans-Serif" font-size="12.00">Truncated</text>
</a>
</g>
</g>
<!-- Node11&#45;&gt;Node10 -->
<g id="edge2" class="edge">
<title>Node11&#45;&gt;Node10</title>
<path fill="none" stroke="#63b8ff" d="M38.5,-129.7C38.5,-117.05 38.5,-101.22 38.5,-91.22"/>
<polygon fill="#63b8ff" stroke="#63b8ff" points="35,-129.76 38.5,-139.76 42,-129.76 35,-129.76"/>
</g>
<!-- Node13 -->
<g id="node4" class="node">
<title>Node13</title>
<polygon fill="white" stroke="#666666" points="190,-91 95,-91 95,-70 190,-70 190,-91"/>
<text text-anchor="middle" x="142.5" y="-77.4" font-family="Helvetica,sans-Serif" font-size="12.00">ProtectedBase</text>
</g>
<!-- Node13&#45;&gt;Node9 -->
<g id="edge3" class="edge">
<title>Node13&#45;&gt;Node9</title>
<path fill="none" stroke="darkgreen" d="M174.65,-65.84C205.9,-52.55 252.57,-32.72 280.03,-21.05"/>
<polygon fill="darkgreen" stroke="darkgreen" points="172.92,-62.77 165.08,-69.9 175.66,-69.21 172.92,-62.77"/>
</g>
<!-- Node14 -->
<g id="node5" class="node">
<title>Node14</title>
<polygon fill="white" stroke="#666666" points="289,-91 208,-91 208,-70 289,-70 289,-91"/>
<text text-anchor="middle" x="248.5" y="-77.4" font-family="Helvetica,sans-Serif" font-size="12.00">PrivateBase</text>
</g>
<!-- Node14&#45;&gt;Node9 -->
<g id="edge4" class="edge">
<title>Node14&#45;&gt;Node9</title>
<path fill="none" stroke="#8b1a1a" d="M262.73,-61.59C272.99,-48.67 286.44,-31.72 294.78,-21.22"/>
<polygon fill="#8b1a1a" stroke="#8b1a1a" points="259.71,-59.75 256.24,-69.76 265.2,-64.1 259.71,-59.75"/>
</g>
<!-- Node15 -->
<g id="node6" class="node">
<title>Node15</title>
<g id="a_node6"><a xlink:title=" ">
<polygon fill="#e0e0e0" stroke="#999999" points="405.5,-91 307.5,-91 307.5,-70 405.5,-70 405.5,-91"/>
<text text-anchor="middle" x="356.5" y="-77.4" font-family="Helvetica,sans-Serif" font-size="12.00">Undocumented</text>
</a>
</g>
</g>
<!-- Node15&#45;&gt;Node9 -->
<g id="edge5" class="edge">
<title>Node15&#45;&gt;Node9</title>
<path fill="none" stroke="#63b8ff" d="M342.27,-61.59C332.01,-48.67 318.56,-31.72 310.22,-21.22"/>
<polygon fill="#63b8ff" stroke="#63b8ff" points="339.8,-64.1 348.76,-69.76 345.29,-59.75 339.8,-64.1"/>
</g>
<!-- Node16 -->
<g id="node7" class="node">
<title>Node16</title>
<polygon fill="white" stroke="#666666" points="505.5,-91 423.5,-91 423.5,-70 505.5,-70 505.5,-91"/>
<text text-anchor="middle" x="464.5" y="-77.4" font-family="Helvetica,sans-Serif" font-size="12.00">Templ&lt; int &gt;</text>
</g>
<!-- Node16&#45;&gt;Node9 -->
<g id="edge6" class="edge">
<title>Node16&#45;&gt;Node9</title>
<path fill="none" stroke="#63b8ff" d="M432.36,-66.01C400.71,-52.73 353.18,-32.77 325.25,-21.05"/>
<polygon fill="#63b8ff" stroke="#63b8ff" points="431.06,-69.26 441.63,-69.9 433.77,-62.8 431.06,-69.26"/>
</g>
<!-- Node17 -->
<g id="node8" class="node">
<title>Node17</title>
<polygon fill="white" stroke="#666666" points="503,-161 426,-161 426,-140 503,-140 503,-161"/>
<text text-anchor="middle" x="464.5" y="-147.4" font-family="Helvetica,sans-Serif" font-size="12.00">Templ&lt; T &gt;</text>
</g>
<!-- Node17&#45;&gt;Node16 -->
<g id="edge7" class="edge">
<title>Node17&#45;&gt;Node16</title>
<path fill="none" stroke="orange" stroke-dasharray="5,2" d="M464.5,-129.7C464.5,-117.05 464.5,-101.22 464.5,-91.22"/>
<polygon fill="orange" stroke="orange" points="461,-129.76 464.5,-139.76 468,-129.76 461,-129.76"/>
<text text-anchor="middle" x="481" y="-112.4" font-family="Helvetica,sans-Serif" font-size="12.00">&lt; int &gt;</text>
</g>
<!-- Node18 -->
<g id="node9" class="node">
<title>Node18</title>
<polygon fill="white" stroke="#666666" points="569,-91 524,-91 524,-70 569,-70 569,-91"/>
<text text-anchor="middle" x="546.5" y="-77.4" font-family="Helvetica,sans-Serif" font-size="12.00">Used</text>
</g>
<!-- Node18&#45;&gt;Node9 -->
<g id="edge8" class="edge">
<title>Node18&#45;&gt;Node9</title>
<path fill="none" stroke="#9a32cd" stroke-dasharray="5,2" d="M513.92,-69.87C443.96,-49.89 373.78,-30.75 334.16,-20.03"/>
<polygon fill="#9a32cd" stroke="#9a32cd" points="513.21,-73.31 523.79,-72.7 515.14,-66.58 513.21,-73.31"/>
<text text-anchor="middle" x="487" y="-42.4" font-family="Helvetica,sans-Serif" font-size="12.00">m_usedClass</text>
</g>
</g>
</svg>
