<?xml version="1.0" encoding="UTF-8" standalone="no"?>
<!DOCTYPE svg PUBLIC "-//W3C//DTD SVG 1.1//EN"
 "http://www.w3.org/Graphics/SVG/1.1/DTD/svg11.dtd">
<!-- Generated by graphviz version 8.0.1 (20230327.1645)
 -->
<!-- Title: Graphical Class Hierarchy Pages: 1 -->
<svg width="399pt" height="64pt"
 viewBox="0.00 0.00 399.00 64.00" xmlns="http://www.w3.org/2000/svg" xmlns:xlink="http://www.w3.org/1999/xlink">
<g id="graph0" class="graph" transform="scale(1 1) rotate(0) translate(4 60)">
<title>Graphical Class Hierarchy</title>
<!-- Node0 -->
<g id="node1" class="node">
<title>Node0</title>
<g id="a_node1"><a xlink:title=" ">
<polygon fill="#e0e0e0" stroke="#999999" points="110.5,-56 7.5,-56 7.5,-37 110.5,-37 110.5,-56"/>
<text text-anchor="middle" x="59" y="-44" font-family="Helvetica,sans-Serif" font-size="10.00">BLEClientCallbacks</text>
</a>
</g>
</g>
<!-- Node1 -->
<g id="node2" class="node">
<title>Node1</title>
<g id="a_node2"><a xlink:href="class_nuki_1_1_nuki_ble.html" target="_top" xlink:title=" ">
<polygon fill="white" stroke="#666666" points="230,-37 154,-37 154,-18 230,-18 230,-37"/>
<text text-anchor="middle" x="192" y="-25" font-family="Helvetica,sans-Serif" font-size="10.00">Nuki::NukiBle</text>
</a>
</g>
</g>
<!-- Node0&#45;&gt;Node1 -->
<g id="edge1" class="edge">
<title>Node0&#45;&gt;Node1</title>
<path fill="none" stroke="#63b8ff" d="M121.25,-37.62C132.4,-36 143.71,-34.36 153.89,-32.88"/>
<polygon fill="#63b8ff" stroke="#63b8ff" points="121.04,-34.25 111.65,-39.15 122.05,-41.18 121.04,-34.25"/>
</g>
<!-- Node2 -->
<g id="node3" class="node">
<title>Node2</title>
<g id="a_node3"><a xlink:href="class_nuki_lock_1_1_nuki_lock.html" target="_top" xlink:title=" ">
<polygon fill="white" stroke="#666666" points="381,-56 276,-56 276,-37 381,-37 381,-56"/>
<text text-anchor="middle" x="328.5" y="-44" font-family="Helvetica,sans-Serif" font-size="10.00">NukiLock::NukiLock</text>
</a>
</g>
</g>
<!-- Node1&#45;&gt;Node2 -->
<g id="edge2" class="edge">
<title>Node1&#45;&gt;Node2</title>
<path fill="none" stroke="#63b8ff" d="M241.31,-34.32C252.46,-35.9 264.37,-37.58 275.66,-39.18"/>
<polygon fill="#63b8ff" stroke="#63b8ff" points="241.86,-30.73 231.47,-32.79 240.88,-37.66 241.86,-30.73"/>
</g>
<!-- Node3 -->
<g id="node4" class="node">
<title>Node3</title>
<g id="a_node4"><a xlink:href="class_nuki_opener_1_1_nuki_opener.html" target="_top" xlink:title=" ">
<polygon fill="white" stroke="#666666" points="391,-19 266,-19 266,0 391,0 391,-19"/>
<text text-anchor="middle" x="328.5" y="-7" font-family="Helvetica,sans-Serif" font-size="10.00">NukiOpener::NukiOpener</text>
</a>
</g>
</g>
<!-- Node1&#45;&gt;Node3 -->
<g id="edge3" class="edge">
<title>Node1&#45;&gt;Node3</title>
<path fill="none" stroke="#63b8ff" d="M241.35,-21.03C249.27,-19.97 257.57,-18.86 265.75,-17.76"/>
<polygon fill="#63b8ff" stroke="#63b8ff" points="240.91,-17.69 231.47,-22.49 241.84,-24.63 240.91,-17.69"/>
</g>
<!-- Node4 -->
<g id="node5" class="node">
<title>Node4</title>
<g id="a_node5"><a xlink:title=" ">
<polygon fill="#e0e0e0" stroke="#999999" points="118,-19 0,-19 0,0 118,0 118,-19"/>
<text text-anchor="middle" x="59" y="-7" font-family="Helvetica,sans-Serif" font-size="10.00">BleScanner::Subscriber</text>
</a>
</g>
</g>
<!-- Node4&#45;&gt;Node1 -->
<g id="edge4" class="edge">
<title>Node4&#45;&gt;Node1</title>
<path fill="none" stroke="#63b8ff" d="M128.98,-18.98C137.47,-20.14 145.88,-21.3 153.65,-22.37"/>
<polygon fill="#63b8ff" stroke="#63b8ff" points="129.6,-15.39 119.22,-17.5 128.65,-22.33 129.6,-15.39"/>
</g>
</g>
</svg>
