<?xml version="1.0" encoding="UTF-8" standalone="no"?>
<!DOCTYPE svg PUBLIC "-//W3C//DTD SVG 1.1//EN"
 "http://www.w3.org/Graphics/SVG/1.1/DTD/svg11.dtd">
<!-- Generated by graphviz version 5.0.1 (20220820.1526)
 -->
<!-- Title: Graphical Class Hierarchy Pages: 1 -->
<svg width="465pt" height="68pt"
 viewBox="0.00 0.00 465.00 68.00" xmlns="http://www.w3.org/2000/svg" xmlns:xlink="http://www.w3.org/1999/xlink">
<g id="graph0" class="graph" transform="scale(1 1) rotate(0) translate(4 64)">
<title>Graphical Class Hierarchy</title>
<!-- Node0 -->
<g id="node1" class="node">
<title>Node0</title>
<g id="a_node1"><a xlink:title=" ">
<polygon fill="#e0e0e0" stroke="#999999" points="131.5,-60 11.5,-60 11.5,-39 131.5,-39 131.5,-60"/>
<text text-anchor="middle" x="71.5" y="-46.4" font-family="Helvetica,sans-Serif" font-size="12.00">BLEClientCallbacks</text>
</a>
</g>
</g>
<!-- Node1 -->
<g id="node2" class="node">
<title>Node1</title>
<g id="a_node2"><a xlink:href="class_nuki_1_1_nuki_ble.html" target="_top" xlink:title=" ">
<polygon fill="white" stroke="#666666" points="268,-40 179,-40 179,-19 268,-19 268,-40"/>
<text text-anchor="middle" x="223.5" y="-26.4" font-family="Helvetica,sans-Serif" font-size="12.00">Nuki::NukiBle</text>
</a>
</g>
</g>
<!-- Node0&#45;&gt;Node1 -->
<g id="edge1" class="edge">
<title>Node0&#45;&gt;Node1</title>
<path fill="none" stroke="#63b8ff" d="M141.83,-40.26C154.46,-38.57 167.3,-36.86 178.91,-35.31"/>
<polygon fill="#63b8ff" stroke="#63b8ff" points="141.23,-36.8 131.78,-41.6 142.16,-43.74 141.23,-36.8"/>
</g>
<!-- Node2 -->
<g id="node3" class="node">
<title>Node2</title>
<g id="a_node3"><a xlink:href="class_nuki_lock_1_1_nuki_lock.html" target="_top" xlink:title=" ">
<polygon fill="white" stroke="#666666" points="442,-60 319,-60 319,-39 442,-39 442,-60"/>
<text text-anchor="middle" x="380.5" y="-46.4" font-family="Helvetica,sans-Serif" font-size="12.00">NukiLock::NukiLock</text>
</a>
</g>
</g>
<!-- Node1&#45;&gt;Node2 -->
<g id="edge2" class="edge">
<title>Node1&#45;&gt;Node2</title>
<path fill="none" stroke="#63b8ff" d="M278.34,-36.45C291.43,-38.14 305.51,-39.95 318.89,-41.68"/>
<polygon fill="#63b8ff" stroke="#63b8ff" points="278.45,-32.93 268.09,-35.12 277.56,-39.88 278.45,-32.93"/>
</g>
<!-- Node3 -->
<g id="node4" class="node">
<title>Node3</title>
<g id="a_node4"><a xlink:href="class_nuki_opener_1_1_nuki_opener.html" target="_top" xlink:title=" ">
<polygon fill="white" stroke="#666666" points="457,-21 304,-21 304,0 457,0 457,-21"/>
<text text-anchor="middle" x="380.5" y="-7.4" font-family="Helvetica,sans-Serif" font-size="12.00">NukiOpener::NukiOpener</text>
</a>
</g>
</g>
<!-- Node1&#45;&gt;Node3 -->
<g id="edge3" class="edge">
<title>Node1&#45;&gt;Node3</title>
<path fill="none" stroke="#63b8ff" d="M278.06,-22.93C286.43,-21.91 295.21,-20.83 303.95,-19.76"/>
<polygon fill="#63b8ff" stroke="#63b8ff" points="277.59,-19.47 268.09,-24.16 278.44,-26.41 277.59,-19.47"/>
</g>
<!-- Node4 -->
<g id="node5" class="node">
<title>Node4</title>
<g id="a_node5"><a xlink:title=" ">
<polygon fill="#e0e0e0" stroke="#999999" points="143,-21 0,-21 0,0 143,0 143,-21"/>
<text text-anchor="middle" x="71.5" y="-7.4" font-family="Helvetica,sans-Serif" font-size="12.00">BleScanner::Subscriber</text>
</a>
</g>
</g>
<!-- Node4&#45;&gt;Node1 -->
<g id="edge4" class="edge">
<title>Node4&#45;&gt;Node1</title>
<path fill="none" stroke="#63b8ff" d="M153.09,-20.71C161.91,-21.83 170.64,-22.93 178.76,-23.96"/>
<polygon fill="#63b8ff" stroke="#63b8ff" points="153.47,-17.23 143.11,-19.44 152.59,-24.17 153.47,-17.23"/>
</g>
</g>
</svg>
