<?xml version="1.0" encoding="UTF-8" standalone="no"?>
<!DOCTYPE svg PUBLIC "-//W3C//DTD SVG 1.1//EN"
 "http://www.w3.org/Graphics/SVG/1.1/DTD/svg11.dtd">
<!-- Generated by graphviz version 8.0.5 (20230430.1635)
 -->
<!-- Title: Graphical Class Hierarchy Pages: 1 -->
<svg width="397pt" height="64pt"
 viewBox="0.00 0.00 396.50 64.25" xmlns="http://www.w3.org/2000/svg" xmlns:xlink="http://www.w3.org/1999/xlink">
<g id="graph0" class="graph" transform="scale(1 1) rotate(0) translate(4 60.25)">
<title>Graphical Class Hierarchy</title>
<!-- Node0 -->
<g id="node1" class="node">
<title>Node0</title>
<g id="a_node1"><a xlink:title=" ">
<polygon fill="#e0e0e0" stroke="#999999" points="109.75,-56.25 7.5,-56.25 7.5,-37 109.75,-37 109.75,-56.25"/>
<text text-anchor="middle" x="58.62" y="-42.75" font-family="Helvetica,sans-Serif" font-size="10.00">BLEClientCallbacks</text>
</a>
</g>
</g>
<!-- Node1 -->
<g id="node2" class="node">
<title>Node1</title>
<g id="a_node2"><a xlink:href="class_nuki_1_1_nuki_ble.html" target="_top" xlink:title=" ">
<polygon fill="white" stroke="#666666" points="228.5,-37.25 153.25,-37.25 153.25,-18 228.5,-18 228.5,-37.25"/>
<text text-anchor="middle" x="190.88" y="-23.75" font-family="Helvetica,sans-Serif" font-size="10.00">Nuki::NukiBle</text>
</a>
</g>
</g>
<!-- Node0&#45;&gt;Node1 -->
<g id="edge1" class="edge">
<title>Node0&#45;&gt;Node1</title>
<path fill="none" stroke="#63b8ff" d="M120.86,-37.69C131.84,-36.09 142.96,-34.47 152.98,-33.01"/>
<polygon fill="#63b8ff" stroke="#63b8ff" points="120.37,-34.37 110.98,-39.28 121.38,-41.3 120.37,-34.37"/>
</g>
<!-- Node2 -->
<g id="node3" class="node">
<title>Node2</title>
<g id="a_node3"><a xlink:href="class_nuki_lock_1_1_nuki_lock.html" target="_top" xlink:title=" ">
<polygon fill="white" stroke="#666666" points="378.75,-56.25 274.25,-56.25 274.25,-37 378.75,-37 378.75,-56.25"/>
<text text-anchor="middle" x="326.5" y="-42.75" font-family="Helvetica,sans-Serif" font-size="10.00">NukiLock::NukiLock</text>
</a>
</g>
</g>
<!-- Node1&#45;&gt;Node2 -->
<g id="edge2" class="edge">
<title>Node1&#45;&gt;Node2</title>
<path fill="none" stroke="#63b8ff" d="M239.53,-34.4C250.62,-35.98 262.49,-37.67 273.75,-39.27"/>
<polygon fill="#63b8ff" stroke="#63b8ff" points="240.14,-30.81 229.74,-32.87 239.15,-37.74 240.14,-30.81"/>
</g>
<!-- Node3 -->
<g id="node4" class="node">
<title>Node3</title>
<g id="a_node4"><a xlink:href="class_nuki_opener_1_1_nuki_opener.html" target="_top" xlink:title=" ">
<polygon fill="white" stroke="#666666" points="388.5,-19.25 264.5,-19.25 264.5,0 388.5,0 388.5,-19.25"/>
<text text-anchor="middle" x="326.5" y="-5.75" font-family="Helvetica,sans-Serif" font-size="10.00">NukiOpener::NukiOpener</text>
</a>
</g>
</g>
<!-- Node1&#45;&gt;Node3 -->
<g id="edge3" class="edge">
<title>Node1&#45;&gt;Node3</title>
<path fill="none" stroke="#63b8ff" d="M239.38,-21.23C247.39,-20.15 255.82,-19.01 264.13,-17.89"/>
<polygon fill="#63b8ff" stroke="#63b8ff" points="239.19,-17.86 229.74,-22.66 240.12,-24.79 239.19,-17.86"/>
</g>
<!-- Node4 -->
<g id="node5" class="node">
<title>Node4</title>
<g id="a_node5"><a xlink:title=" ">
<polygon fill="#e0e0e0" stroke="#999999" points="117.25,-19.25 0,-19.25 0,0 117.25,0 117.25,-19.25"/>
<text text-anchor="middle" x="58.62" y="-5.75" font-family="Helvetica,sans-Serif" font-size="10.00">BleScanner::Subscriber</text>
</a>
</g>
</g>
<!-- Node4&#45;&gt;Node1 -->
<g id="edge4" class="edge">
<title>Node4&#45;&gt;Node1</title>
<path fill="none" stroke="#63b8ff" d="M128.33,-19.12C136.87,-20.3 145.32,-21.47 153.11,-22.54"/>
<polygon fill="#63b8ff" stroke="#63b8ff" points="128.9,-15.53 118.51,-17.62 127.94,-22.46 128.9,-15.53"/>
</g>
</g>
</svg>
