<?xml version="1.0" encoding="UTF-8" standalone="no"?>
<!DOCTYPE svg PUBLIC "-//W3C//DTD SVG 1.1//EN"
 "http://www.w3.org/Graphics/SVG/1.1/DTD/svg11.dtd">
<!-- Generated by graphviz version 8.0.5 (20230430.1635)
 -->
<!-- Title: NukiLock::logNukiTrigger Pages: 1 -->
<svg width="463pt" height="64pt"
 viewBox="0.00 0.00 462.50 64.25" xmlns="http://www.w3.org/2000/svg" xmlns:xlink="http://www.w3.org/1999/xlink">
<g id="graph0" class="graph" transform="scale(1 1) rotate(0) translate(4 60.25)">
<title>NukiLock::logNukiTrigger</title>
<!-- Node1 -->
<g id="node1" class="node">
<title>Node1</title>
<g id="a_node1"><a xlink:title=" ">
<polygon fill="#999999" stroke="#666666" points="454.5,-37.25 329,-37.25 329,-18 454.5,-18 454.5,-37.25"/>
<text text-anchor="middle" x="391.75" y="-23.75" font-family="Helvetica,sans-Serif" font-size="10.00">NukiLock::logNukiTrigger</text>
</a>
</g>
</g>
<!-- Node2 -->
<g id="node2" class="node">
<title>Node2</title>
<g id="a_node2"><a xlink:href="namespace_nuki_lock.html#a5b521a0ba26dfc799683a2edb9529902" target="_top" xlink:title=" ">
<polygon fill="white" stroke="#666666" points="293,-56.25 153.25,-56.25 153.25,-37 293,-37 293,-56.25"/>
<text text-anchor="middle" x="223.12" y="-42.75" font-family="Helvetica,sans-Serif" font-size="10.00">NukiLock::logKeyturnerState</text>
</a>
</g>
</g>
<!-- Node1&#45;&gt;Node2 -->
<g id="edge1" class="edge">
<title>Node1&#45;&gt;Node2</title>
<path fill="none" stroke="#63b8ff" d="M318,-35.92C309.77,-36.86 301.4,-37.81 293.22,-38.75"/>
<polygon fill="#63b8ff" stroke="#63b8ff" points="318.17,-39.31 327.71,-34.7 317.37,-32.36 318.17,-39.31"/>
</g>
<!-- Node4 -->
<g id="node4" class="node">
<title>Node4</title>
<g id="a_node4"><a xlink:href="namespace_nuki_lock.html#aec3cb8258cc4133d676e8c5f50bcd938" target="_top" xlink:title=" ">
<polygon fill="white" stroke="#666666" points="279.88,-19.25 166.38,-19.25 166.38,0 279.88,0 279.88,-19.25"/>
<text text-anchor="middle" x="223.12" y="-5.75" font-family="Helvetica,sans-Serif" font-size="10.00">NukiLock::logLogEntry</text>
</a>
</g>
</g>
<!-- Node1&#45;&gt;Node4 -->
<g id="edge3" class="edge">
<title>Node1&#45;&gt;Node4</title>
<path fill="none" stroke="#63b8ff" d="M318.13,-19.78C305.41,-18.41 292.36,-17 280.17,-15.68"/>
<polygon fill="#63b8ff" stroke="#63b8ff" points="317.39,-23.33 327.71,-20.92 318.14,-16.37 317.39,-23.33"/>
</g>
<!-- Node3 -->
<g id="node3" class="node">
<title>Node3</title>
<g id="a_node3"><a xlink:href="class_nuki_lock_1_1_nuki_lock.html#a8d9fc4e4a1bde183754ced8b783f82d5" target="_top" xlink:title=" ">
<polygon fill="white" stroke="#666666" points="117.25,-42.88 0,-42.88 0,-12.37 117.25,-12.37 117.25,-42.88"/>
<text text-anchor="start" x="8" y="-29.38" font-family="Helvetica,sans-Serif" font-size="10.00">NukiLock::NukiLock</text>
<text text-anchor="middle" x="58.62" y="-18.12" font-family="Helvetica,sans-Serif" font-size="10.00">::handleReturnMessage</text>
</a>
</g>
</g>
<!-- Node2&#45;&gt;Node3 -->
<g id="edge2" class="edge">
<title>Node2&#45;&gt;Node3</title>
<path fill="none" stroke="#63b8ff" d="M142.31,-37.29C133.98,-36.32 125.64,-35.34 117.62,-34.41"/>
<polygon fill="#63b8ff" stroke="#63b8ff" points="141.87,-40.88 152.21,-38.57 142.68,-33.93 141.87,-40.88"/>
</g>
<!-- Node4&#45;&gt;Node3 -->
<g id="edge4" class="edge">
<title>Node4&#45;&gt;Node3</title>
<path fill="none" stroke="#63b8ff" d="M155.35,-17.02C142.82,-18.41 129.82,-19.85 117.59,-21.2"/>
<polygon fill="#63b8ff" stroke="#63b8ff" points="155.65,-20.4 165.2,-15.82 154.88,-13.44 155.65,-20.4"/>
</g>
</g>
</svg>
