<?xml version="1.0" encoding="UTF-8" standalone="no"?>
<!DOCTYPE svg PUBLIC "-//W3C//DTD SVG 1.1//EN"
 "http://www.w3.org/Graphics/SVG/1.1/DTD/svg11.dtd">
<!-- Generated by graphviz version 12.2.1 (20241206.2353)
 -->
<!-- Title: NukiLock::logNukiTrigger Pages: 1 -->
<svg width="463pt" height="64pt"
 viewBox="0.00 0.00 462.50 64.25" xmlns="http://www.w3.org/2000/svg" xmlns:xlink="http://www.w3.org/1999/xlink">
<g id="graph0" class="graph" transform="scale(1 1) rotate(0) translate(4 60.25)">
<title>NukiLock::logNukiTrigger</title>
<!-- Node1 -->
<g id="Node000001" class="node">
<title>Node1</title>
<g id="a_Node000001"><a xlink:title=" ">
<polygon fill="#999999" stroke="#666666" points="454.5,-37.25 329,-37.25 329,-18 454.5,-18 454.5,-37.25"/>
<text text-anchor="middle" x="391.75" y="-23.75" font-family="Helvetica,sans-Serif" font-size="10.00">NukiLock::logNukiTrigger</text>
</a>
</g>
</g>
<!-- Node2 -->
<g id="Node000002" class="node">
<title>Node2</title>
<g id="a_Node000002"><a xlink:href="namespace_nuki_lock.html#ab1986f14b91343876f9fb360da901791" target="_top" xlink:title=" ">
<polygon fill="white" stroke="#666666" points="293,-56.25 153.25,-56.25 153.25,-37 293,-37 293,-56.25"/>
<text text-anchor="middle" x="223.12" y="-42.75" font-family="Helvetica,sans-Serif" font-size="10.00">NukiLock::logKeyturnerState</text>
</a>
</g>
</g>
<!-- Node1&#45;&gt;Node2 -->
<g id="edge1_Node000001_Node000002" class="edge">
<title>Node1&#45;&gt;Node2</title>
<g id="a_edge1_Node000001_Node000002"><a xlink:title=" ">
<path fill="none" stroke="#63b8ff" d="M317.44,-35.98C309.39,-36.9 301.22,-37.83 293.22,-38.75"/>
<polygon fill="#63b8ff" stroke="#63b8ff" points="317.66,-39.48 327.2,-34.87 316.87,-32.53 317.66,-39.48"/>
</a>
</g>
</g>
<!-- Node4 -->
<g id="Node000004" class="node">
<title>Node4</title>
<g id="a_Node000004"><a xlink:href="namespace_nuki_lock.html#a6dc562c3f2e49e34b447de8ba53e64bf" target="_top" xlink:title=" ">
<polygon fill="white" stroke="#666666" points="279.88,-19.25 166.38,-19.25 166.38,0 279.88,0 279.88,-19.25"/>
<text text-anchor="middle" x="223.12" y="-5.75" font-family="Helvetica,sans-Serif" font-size="10.00">NukiLock::logLogEntry</text>
</a>
</g>
</g>
<!-- Node1&#45;&gt;Node4 -->
<g id="edge3_Node000001_Node000004" class="edge">
<title>Node1&#45;&gt;Node4</title>
<g id="a_edge3_Node000001_Node000004"><a xlink:title=" ">
<path fill="none" stroke="#63b8ff" d="M317.36,-19.7C304.89,-18.35 292.11,-16.97 280.17,-15.68"/>
<polygon fill="#63b8ff" stroke="#63b8ff" points="316.88,-23.17 327.2,-20.76 317.63,-16.21 316.88,-23.17"/>
</a>
</g>
</g>
<!-- Node3 -->
<g id="Node000003" class="node">
<title>Node3</title>
<g id="a_Node000003"><a xlink:href="class_nuki_lock_1_1_nuki_lock.html#a8d9fc4e4a1bde183754ced8b783f82d5" target="_top" xlink:title=" ">
<polygon fill="white" stroke="#666666" points="117.25,-42.88 0,-42.88 0,-12.37 117.25,-12.37 117.25,-42.88"/>
<text text-anchor="start" x="8" y="-29.38" font-family="Helvetica,sans-Serif" font-size="10.00">NukiLock::NukiLock</text>
<text text-anchor="middle" x="58.62" y="-18.12" font-family="Helvetica,sans-Serif" font-size="10.00">::handleReturnMessage</text>
</a>
</g>
</g>
<!-- Node2&#45;&gt;Node3 -->
<g id="edge2_Node000002_Node000003" class="edge">
<title>Node2&#45;&gt;Node3</title>
<g id="a_edge2_Node000002_Node000003"><a xlink:title=" ">
<path fill="none" stroke="#63b8ff" d="M142.03,-37.26C133.8,-36.3 125.55,-35.33 117.62,-34.41"/>
<polygon fill="#63b8ff" stroke="#63b8ff" points="141.37,-40.71 151.71,-38.39 142.18,-33.75 141.37,-40.71"/>
</a>
</g>
</g>
<!-- Node4&#45;&gt;Node3 -->
<g id="edge4_Node000004_Node000003" class="edge">
<title>Node4&#45;&gt;Node3</title>
<g id="a_edge4_Node000004_Node000003"><a xlink:title=" ">
<path fill="none" stroke="#63b8ff" d="M154.97,-17.06C142.56,-18.44 129.7,-19.86 117.59,-21.2"/>
<polygon fill="#63b8ff" stroke="#63b8ff" points="155.14,-20.57 164.7,-15.99 154.37,-13.61 155.14,-20.57"/>
</a>
</g>
</g>
</g>
</svg>
