<?xml version="1.0" encoding="UTF-8" standalone="no"?>
<!DOCTYPE svg PUBLIC "-//W3C//DTD SVG 1.1//EN"
 "http://www.w3.org/Graphics/SVG/1.1/DTD/svg11.dtd">
<!-- Generated by graphviz version 12.2.1 (20241206.2353)
 -->
<!-- Title: NukiLock::logLockAction Pages: 1 -->
<svg width="462pt" height="64pt"
 viewBox="0.00 0.00 461.75 64.25" xmlns="http://www.w3.org/2000/svg" xmlns:xlink="http://www.w3.org/1999/xlink">

<svg id="main" version="1.1" xmlns="http://www.w3.org/2000/svg" xmlns:xlink="http://www.w3.org/1999/xlink" xml:space="preserve">

<style type="text/css"><![CDATA[
.node, .edge {opacity: 0.7;}
.node.selected, .edge.selected {opacity: 1;}
.edge:hover path { stroke: red; }
.edge:hover polygon { stroke: red; fill: red; }
]]></style>
<script type="application/ecmascript" xlink:href="svg.min.js"/>
<svg id="graph" class="graph">
<g id="graph0" class="graph" transform="scale(1 1) rotate(0) translate(4 60.25)">
<title>NukiLock::logLockAction</title>
<!-- Node1 -->
<g id="Node000001" class="node">
<title>Node1</title>
<g id="a_Node000001"><a xlink:title=" ">
<polygon fill="#999999" stroke="#666666" points="453.75,-37.25 329,-37.25 329,-18 453.75,-18 453.75,-37.25"/>
<text text-anchor="middle" x="391.38" y="-23.75" font-family="Helvetica,sans-Serif" font-size="10.00">NukiLock::logLockAction</text>
</a>
</g>
</g>
<!-- Node2 -->
<g id="Node000002" class="node">
<title>Node2</title>
<g id="a_Node000002"><a xlink:href="namespace_nuki_lock.html#ab1986f14b91343876f9fb360da901791" target="_top" xlink:title=" ">
<polygon fill="white" stroke="#666666" points="293,-56.25 153.25,-56.25 153.25,-37 293,-37 293,-56.25"/>
<text text-anchor="middle" x="223.12" y="-42.75" font-family="Helvetica,sans-Serif" font-size="10.00">NukiLock::logKeyturnerState</text>
</a>
</g>
</g>
<!-- Node1&#45;&gt;Node2 -->
<g id="edge1_Node000001_Node000002" class="edge">
<title>Node1&#45;&gt;Node2</title>
<g id="a_edge1_Node000001_Node000002"><a xlink:title=" ">
<path fill="none" stroke="#63b8ff" d="M317.68,-35.93C309.63,-36.85 301.44,-37.79 293.43,-38.7"/>
<polygon fill="#63b8ff" stroke="#63b8ff" points="317.9,-39.43 327.44,-34.82 317.11,-32.48 317.9,-39.43"/>
</a>
</g>
</g>
<!-- Node4 -->
<g id="Node000004" class="node">
<title>Node4</title>
<g id="a_Node000004"><a xlink:href="namespace_nuki_lock.html#a6dc562c3f2e49e34b447de8ba53e64bf" target="_top" xlink:title=" ">
<polygon fill="white" stroke="#666666" points="279.88,-19.25 166.38,-19.25 166.38,0 279.88,0 279.88,-19.25"/>
<text text-anchor="middle" x="223.12" y="-5.75" font-family="Helvetica,sans-Serif" font-size="10.00">NukiLock::logLogEntry</text>
</a>
</g>
</g>
<!-- Node1&#45;&gt;Node4 -->
<g id="edge3_Node000001_Node000004" class="edge">
<title>Node1&#45;&gt;Node4</title>
<g id="a_edge3_Node000001_Node000004"><a xlink:title=" ">
<path fill="none" stroke="#63b8ff" d="M317.6,-19.75C305.12,-18.39 292.32,-17.01 280.36,-15.71"/>
<polygon fill="#63b8ff" stroke="#63b8ff" points="317.12,-23.21 327.44,-20.81 317.87,-16.25 317.12,-23.21"/>
</a>
</g>
</g>
<!-- Node3 -->
<g id="Node000003" class="node">
<title>Node3</title>
<g id="a_Node000003"><a xlink:href="class_nuki_lock_1_1_nuki_lock.html#a8d9fc4e4a1bde183754ced8b783f82d5" target="_top" xlink:title=" ">
<polygon fill="white" stroke="#666666" points="117.25,-42.88 0,-42.88 0,-12.37 117.25,-12.37 117.25,-42.88"/>
<text text-anchor="start" x="8" y="-29.38" font-family="Helvetica,sans-Serif" font-size="10.00">NukiLock::NukiLock</text>
<text text-anchor="middle" x="58.62" y="-18.12" font-family="Helvetica,sans-Serif" font-size="10.00">::handleReturnMessage</text>
</a>
</g>
</g>
<!-- Node2&#45;&gt;Node3 -->
<g id="edge2_Node000002_Node000003" class="edge">
<title>Node2&#45;&gt;Node3</title>
<g id="a_edge2_Node000002_Node000003"><a xlink:title=" ">
<path fill="none" stroke="#63b8ff" d="M142.03,-37.26C133.8,-36.3 125.55,-35.33 117.62,-34.41"/>
<polygon fill="#63b8ff" stroke="#63b8ff" points="141.37,-40.71 151.71,-38.39 142.18,-33.75 141.37,-40.71"/>
</a>
</g>
</g>
<!-- Node4&#45;&gt;Node3 -->
<g id="edge4_Node000004_Node000003" class="edge">
<title>Node4&#45;&gt;Node3</title>
<g id="a_edge4_Node000004_Node000003"><a xlink:title=" ">
<path fill="none" stroke="#63b8ff" d="M154.97,-17.06C142.56,-18.44 129.7,-19.86 117.59,-21.2"/>
<polygon fill="#63b8ff" stroke="#63b8ff" points="155.14,-20.57 164.7,-15.99 154.37,-13.61 155.14,-20.57"/>
</a>
</g>
</g>
</g>
</svg>
</svg>

<style type='text/css'>
<![CDATA[
[data-mouse-over-selected='false'] { opacity: 0.7; }
[data-mouse-over-selected='true']  { opacity: 1.0; }
]]>
</style>
<script type="application/ecmascript"><![CDATA[
document.addEventListener('DOMContentLoaded', (event) => {
  highlightEdges();
  highlightAdjacentNodes();
});
]]></script>
</svg>
