<?xml version="1.0" encoding="UTF-8" standalone="no"?>
<!DOCTYPE svg PUBLIC "-//W3C//DTD SVG 1.1//EN"
 "http://www.w3.org/Graphics/SVG/1.1/DTD/svg11.dtd">
<!-- Generated by graphviz version 12.2.1 (20241206.2353)
 -->
<!-- Title: NukiOpener::logMessage Pages: 1 -->
<svg width="650pt" height="223pt"
 viewBox="0.00 0.00 650.25 222.85" xmlns="http://www.w3.org/2000/svg" xmlns:xlink="http://www.w3.org/1999/xlink">
<g id="graph0" class="graph" transform="scale(1 1) rotate(0) translate(4 218.85)">
<title>NukiOpener::logMessage</title>
<!-- Node1 -->
<g id="Node000001" class="node">
<title>Node1</title>
<g id="a_Node000001"><a xlink:title=" ">
<polygon fill="#999999" stroke="#666666" points="642.25,-125.88 517.5,-125.88 517.5,-106.62 642.25,-106.62 642.25,-125.88"/>
<text text-anchor="middle" x="579.88" y="-112.38" font-family="Helvetica,sans-Serif" font-size="10.00">NukiOpener::logMessage</text>
</a>
</g>
</g>
<!-- Node2 -->
<g id="Node000002" class="node">
<title>Node2</title>
<g id="a_Node000002"><a xlink:href="namespace_nuki_opener.html#a6bf8f7b28ff29642c9206fe6fc3e0070" target="_top" xlink:title=" ">
<polygon fill="white" stroke="#666666" points="468.75,-153.5 335,-153.5 335,-123 468.75,-123 468.75,-153.5"/>
<text text-anchor="start" x="343" y="-140" font-family="Helvetica,sans-Serif" font-size="10.00">NukiOpener::logCompletion</text>
<text text-anchor="middle" x="401.88" y="-128.75" font-family="Helvetica,sans-Serif" font-size="10.00">Status</text>
</a>
</g>
</g>
<!-- Node1&#45;&gt;Node2 -->
<g id="edge1_Node000001_Node000002" class="edge">
<title>Node1&#45;&gt;Node2</title>
<g id="a_edge1_Node000001_Node000002"><a xlink:title=" ">
<path fill="none" stroke="#63b8ff" d="M506.2,-125.33C493.94,-126.87 481.28,-128.45 469.19,-129.96"/>
<polygon fill="#63b8ff" stroke="#63b8ff" points="506.33,-128.85 515.82,-124.13 505.46,-121.9 506.33,-128.85"/>
</a>
</g>
</g>
<!-- Node5 -->
<g id="Node000005" class="node">
<title>Node5</title>
<g id="a_Node000005"><a xlink:href="namespace_nuki_opener.html#ad5810b4aac856a27473aedd0fe8f433e" target="_top" xlink:title=" ">
<polygon fill="white" stroke="#666666" points="284.75,-190.88 161.5,-190.88 161.5,-171.62 284.75,-171.62 284.75,-190.88"/>
<text text-anchor="middle" x="223.12" y="-177.38" font-family="Helvetica,sans-Serif" font-size="10.00">NukiOpener::logLogEntry</text>
</a>
</g>
</g>
<!-- Node1&#45;&gt;Node5 -->
<g id="edge9_Node000001_Node000005" class="edge">
<title>Node1&#45;&gt;Node5</title>
<g id="a_edge9_Node000001_Node000005"><a xlink:title=" ">
<path fill="none" stroke="#63b8ff" d="M564.3,-135.08C547.1,-155.62 516.37,-187.29 481.5,-200.25 403.6,-229.21 303.45,-206.22 254.21,-191.37"/>
<polygon fill="#63b8ff" stroke="#63b8ff" points="566.9,-137.43 570.47,-127.46 561.46,-133.03 566.9,-137.43"/>
</a>
</g>
</g>
<!-- Node6 -->
<g id="Node000006" class="node">
<title>Node6</title>
<g id="a_Node000006"><a xlink:href="namespace_nuki_opener.html#a3e96f2a12b591da08c015e0ea11fb890" target="_top" xlink:title=" ">
<polygon fill="white" stroke="#666666" points="469.12,-190.88 334.62,-190.88 334.62,-171.62 469.12,-171.62 469.12,-190.88"/>
<text text-anchor="middle" x="401.88" y="-177.38" font-family="Helvetica,sans-Serif" font-size="10.00">NukiOpener::logLockAction</text>
</a>
</g>
</g>
<!-- Node1&#45;&gt;Node6 -->
<g id="edge6_Node000001_Node000006" class="edge">
<title>Node1&#45;&gt;Node6</title>
<g id="a_edge6_Node000001_Node000006"><a xlink:title=" ">
<path fill="none" stroke="#63b8ff" d="M550.58,-131.51C531.48,-141.33 505.49,-153.79 481.5,-162.25 471.97,-165.61 461.57,-168.59 451.56,-171.13"/>
<polygon fill="#63b8ff" stroke="#63b8ff" points="552.1,-134.66 559.34,-126.93 548.86,-128.46 552.1,-134.66"/>
</a>
</g>
</g>
<!-- Node7 -->
<g id="Node000007" class="node">
<title>Node7</title>
<g id="a_Node000007"><a xlink:href="namespace_nuki_opener.html#a447a699b1fa6e98b086dd250d8db7825" target="_top" xlink:title=" ">
<polygon fill="white" stroke="#666666" points="469.5,-104.88 334.25,-104.88 334.25,-85.62 469.5,-85.62 469.5,-104.88"/>
<text text-anchor="middle" x="401.88" y="-91.38" font-family="Helvetica,sans-Serif" font-size="10.00">NukiOpener::logNukiTrigger</text>
</a>
</g>
</g>
<!-- Node1&#45;&gt;Node7 -->
<g id="edge10_Node000001_Node000007" class="edge">
<title>Node1&#45;&gt;Node7</title>
<g id="a_edge10_Node000001_Node000007"><a xlink:title=" ">
<path fill="none" stroke="#63b8ff" d="M505.98,-107.55C493.99,-106.12 481.62,-104.65 469.79,-103.23"/>
<polygon fill="#63b8ff" stroke="#63b8ff" points="505.47,-111.02 515.82,-108.73 506.3,-104.07 505.47,-111.02"/>
</a>
</g>
</g>
<!-- Node8 -->
<g id="Node000008" class="node">
<title>Node8</title>
<g id="a_Node000008"><a xlink:href="namespace_nuki_opener.html#a6083f441acdf873afa151b034ab6531f" target="_top" xlink:title=" ">
<polygon fill="white" stroke="#666666" points="481.5,-67.88 322.25,-67.88 322.25,-48.62 481.5,-48.62 481.5,-67.88"/>
<text text-anchor="middle" x="401.88" y="-54.38" font-family="Helvetica,sans-Serif" font-size="10.00">NukiOpener::logOpenerErrorCode</text>
</a>
</g>
</g>
<!-- Node1&#45;&gt;Node8 -->
<g id="edge12_Node000001_Node000008" class="edge">
<title>Node1&#45;&gt;Node8</title>
<g id="a_edge12_Node000001_Node000008"><a xlink:title=" ">
<path fill="none" stroke="#63b8ff" d="M546.87,-101.54C528.1,-93.31 503.78,-83.32 481.5,-76.25 472.29,-73.33 462.33,-70.67 452.7,-68.35"/>
<polygon fill="#63b8ff" stroke="#63b8ff" points="545.27,-104.66 555.83,-105.53 548.12,-98.27 545.27,-104.66"/>
</a>
</g>
</g>
<!-- Node10 -->
<g id="Node000010" class="node">
<title>Node10</title>
<g id="a_Node000010"><a xlink:href="class_nuki_opener_1_1_nuki_opener.html#ae43af00023df78b352c61c98730c1aa9" target="_top" xlink:title="Gets the current config from the opener, updates the name parameter and sends the new config to the o...">
<polygon fill="white" stroke="#666666" points="463.88,-30.5 339.88,-30.5 339.88,0 463.88,0 463.88,-30.5"/>
<text text-anchor="start" x="347.88" y="-17" font-family="Helvetica,sans-Serif" font-size="10.00">NukiOpener::NukiOpener</text>
<text text-anchor="middle" x="401.88" y="-5.75" font-family="Helvetica,sans-Serif" font-size="10.00">::setName</text>
</a>
</g>
</g>
<!-- Node1&#45;&gt;Node10 -->
<g id="edge14_Node000001_Node000010" class="edge">
<title>Node1&#45;&gt;Node10</title>
<g id="a_edge14_Node000001_Node000010"><a xlink:title=" ">
<path fill="none" stroke="#63b8ff" d="M560.9,-98.59C542.39,-81.28 512.01,-55.24 481.5,-39.25 475.56,-36.14 469.15,-33.36 462.64,-30.89"/>
<polygon fill="#63b8ff" stroke="#63b8ff" points="558.23,-100.88 567.88,-105.26 563.07,-95.82 558.23,-100.88"/>
</a>
</g>
</g>
<!-- Node3 -->
<g id="Node000003" class="node">
<title>Node3</title>
<g id="a_Node000003"><a xlink:href="namespace_nuki_opener.html#a510454c0171d807a1eebd77045481ba0" target="_top" xlink:title=" ">
<polygon fill="white" stroke="#666666" points="286.25,-153.5 160,-153.5 160,-123 286.25,-123 286.25,-153.5"/>
<text text-anchor="start" x="168" y="-140" font-family="Helvetica,sans-Serif" font-size="10.00">NukiOpener::logKeyturner</text>
<text text-anchor="middle" x="223.12" y="-128.75" font-family="Helvetica,sans-Serif" font-size="10.00">State</text>
</a>
</g>
</g>
<!-- Node2&#45;&gt;Node3 -->
<g id="edge2_Node000002_Node000003" class="edge">
<title>Node2&#45;&gt;Node3</title>
<g id="a_edge2_Node000002_Node000003"><a xlink:title=" ">
<path fill="none" stroke="#63b8ff" d="M323.4,-138.25C311.14,-138.25 298.59,-138.25 286.72,-138.25"/>
<polygon fill="#63b8ff" stroke="#63b8ff" points="323.04,-141.75 333.04,-138.25 323.04,-134.75 323.04,-141.75"/>
</a>
</g>
</g>
<!-- Node2&#45;&gt;Node5 -->
<g id="edge4_Node000002_Node000005" class="edge">
<title>Node2&#45;&gt;Node5</title>
<g id="a_edge4_Node000002_Node000005"><a xlink:title=" ">
<path fill="none" stroke="#63b8ff" d="M325.4,-156.61C304.94,-161.59 283.53,-166.8 265.7,-171.14"/>
<polygon fill="#63b8ff" stroke="#63b8ff" points="325.95,-160.08 334.84,-154.31 324.3,-153.28 325.95,-160.08"/>
</a>
</g>
</g>
<!-- Node4 -->
<g id="Node000004" class="node">
<title>Node4</title>
<g id="a_Node000004"><a xlink:href="class_nuki_opener_1_1_nuki_opener.html#a19ad4317e201ebe5e43ad55b6ea906da" target="_top" xlink:title=" ">
<polygon fill="white" stroke="#666666" points="124,-174.5 0,-174.5 0,-144 124,-144 124,-174.5"/>
<text text-anchor="start" x="8" y="-161" font-family="Helvetica,sans-Serif" font-size="10.00">NukiOpener::NukiOpener</text>
<text text-anchor="middle" x="62" y="-149.75" font-family="Helvetica,sans-Serif" font-size="10.00">::handleReturnMessage</text>
</a>
</g>
</g>
<!-- Node3&#45;&gt;Node4 -->
<g id="edge3_Node000003_Node000004" class="edge">
<title>Node3&#45;&gt;Node4</title>
<g id="a_edge3_Node000003_Node000004"><a xlink:title=" ">
<path fill="none" stroke="#63b8ff" d="M148.44,-147.97C140.42,-149.03 132.32,-150.1 124.47,-151.14"/>
<polygon fill="#63b8ff" stroke="#63b8ff" points="148.73,-151.47 158.19,-146.69 147.82,-144.53 148.73,-151.47"/>
</a>
</g>
</g>
<!-- Node5&#45;&gt;Node4 -->
<g id="edge5_Node000005_Node000004" class="edge">
<title>Node5&#45;&gt;Node4</title>
<g id="a_edge5_Node000005_Node000004"><a xlink:title=" ">
<path fill="none" stroke="#63b8ff" d="M149.66,-171.23C141.23,-170.07 132.69,-168.89 124.43,-167.74"/>
<polygon fill="#63b8ff" stroke="#63b8ff" points="149.17,-174.7 159.56,-172.6 150.13,-167.76 149.17,-174.7"/>
</a>
</g>
</g>
<!-- Node6&#45;&gt;Node3 -->
<g id="edge7_Node000006_Node000003" class="edge">
<title>Node6&#45;&gt;Node3</title>
<g id="a_edge7_Node000006_Node000003"><a xlink:title=" ">
<path fill="none" stroke="#63b8ff" d="M348.08,-168.51C339.45,-166.42 330.6,-164.28 322.25,-162.25 310.75,-159.45 298.49,-156.46 286.67,-153.58"/>
<polygon fill="#63b8ff" stroke="#63b8ff" points="347.24,-171.91 357.78,-170.86 348.88,-165.11 347.24,-171.91"/>
</a>
</g>
</g>
<!-- Node6&#45;&gt;Node5 -->
<g id="edge8_Node000006_Node000005" class="edge">
<title>Node6&#45;&gt;Node5</title>
<g id="a_edge8_Node000006_Node000005"><a xlink:title=" ">
<path fill="none" stroke="#63b8ff" d="M322.81,-181.25C310.18,-181.25 297.26,-181.25 285.1,-181.25"/>
<polygon fill="#63b8ff" stroke="#63b8ff" points="322.79,-184.75 332.79,-181.25 322.79,-177.75 322.79,-184.75"/>
</a>
</g>
</g>
<!-- Node7&#45;&gt;Node3 -->
<g id="edge11_Node000007_Node000003" class="edge">
<title>Node7&#45;&gt;Node3</title>
<g id="a_edge11_Node000007_Node000003"><a xlink:title=" ">
<path fill="none" stroke="#63b8ff" d="M348.08,-107.99C339.45,-110.08 330.6,-112.22 322.25,-114.25 310.75,-117.05 298.49,-120.04 286.67,-122.92"/>
<polygon fill="#63b8ff" stroke="#63b8ff" points="348.88,-111.39 357.78,-105.64 347.24,-104.59 348.88,-111.39"/>
</a>
</g>
</g>
<!-- Node9 -->
<g id="Node000009" class="node">
<title>Node9</title>
<g id="a_Node000009"><a xlink:href="class_nuki_opener_1_1_nuki_opener.html#a7dc6d5feb760fba6bff83fe8d3ca9a5d" target="_top" xlink:title=" ">
<polygon fill="white" stroke="#666666" points="285.12,-73.5 161.12,-73.5 161.12,-43 285.12,-43 285.12,-73.5"/>
<text text-anchor="start" x="169.12" y="-60" font-family="Helvetica,sans-Serif" font-size="10.00">NukiOpener::NukiOpener</text>
<text text-anchor="middle" x="223.12" y="-48.75" font-family="Helvetica,sans-Serif" font-size="10.00">::logErrorCode</text>
</a>
</g>
</g>
<!-- Node8&#45;&gt;Node9 -->
<g id="edge13_Node000008_Node000009" class="edge">
<title>Node8&#45;&gt;Node9</title>
<g id="a_edge13_Node000008_Node000009"><a xlink:title=" ">
<path fill="none" stroke="#63b8ff" d="M310.3,-58.25C301.86,-58.25 293.44,-58.25 285.36,-58.25"/>
<polygon fill="#63b8ff" stroke="#63b8ff" points="310.29,-61.75 320.29,-58.25 310.29,-54.75 310.29,-61.75"/>
</a>
</g>
</g>
</g>
</svg>
