<?xml version="1.0" encoding="UTF-8" standalone="no"?>
<!DOCTYPE svg PUBLIC "-//W3C//DTD SVG 1.1//EN"
 "http://www.w3.org/Graphics/SVG/1.1/DTD/svg11.dtd">
<!-- Generated by graphviz version 8.0.5 (20230430.1635)
 -->
<!-- Title: NukiLock::logLogEntry Pages: 1 -->
<svg width="310pt" height="101pt"
 viewBox="0.00 0.00 310.00 101.25" xmlns="http://www.w3.org/2000/svg" xmlns:xlink="http://www.w3.org/1999/xlink">
<g id="graph0" class="graph" transform="scale(1 1) rotate(0) translate(4 97.25)">
<title>NukiLock::logLogEntry</title>
<!-- Node1 -->
<g id="node1" class="node">
<title>Node1</title>
<g id="a_node1"><a xlink:title=" ">
<polygon fill="#999999" stroke="#666666" points="113.5,-56.25 0,-56.25 0,-37 113.5,-37 113.5,-56.25"/>
<text text-anchor="middle" x="56.75" y="-42.75" font-family="Helvetica,sans-Serif" font-size="10.00">NukiLock::logLogEntry</text>
</a>
</g>
</g>
<!-- Node2 -->
<g id="node2" class="node">
<title>Node2</title>
<g id="a_node2"><a xlink:href="namespace_nuki_lock.html#a564f6d63072267bb72f431e4c4e1c947" target="_top" xlink:title=" ">
<polygon fill="white" stroke="#666666" points="302,-93.25 149.5,-93.25 149.5,-74 302,-74 302,-93.25"/>
<text text-anchor="middle" x="225.75" y="-79.75" font-family="Helvetica,sans-Serif" font-size="10.00">NukiLock::logCompletionStatus</text>
</a>
</g>
</g>
<!-- Node1&#45;&gt;Node2 -->
<g id="edge1" class="edge">
<title>Node1&#45;&gt;Node2</title>
<path fill="none" stroke="#63b8ff" d="M103.38,-56.74C123.54,-61.2 147.44,-66.5 168.67,-71.2"/>
<polygon fill="#63b8ff" stroke="#63b8ff" points="167.65,-74.78 178.17,-73.53 169.17,-67.95 167.65,-74.78"/>
</g>
<!-- Node3 -->
<g id="node3" class="node">
<title>Node3</title>
<g id="a_node3"><a xlink:href="namespace_nuki_lock.html#a02e1891ccc5565890fd8ddd6577dea57" target="_top" xlink:title=" ">
<polygon fill="white" stroke="#666666" points="288.12,-56.25 163.38,-56.25 163.38,-37 288.12,-37 288.12,-56.25"/>
<text text-anchor="middle" x="225.75" y="-42.75" font-family="Helvetica,sans-Serif" font-size="10.00">NukiLock::logLockAction</text>
</a>
</g>
</g>
<!-- Node1&#45;&gt;Node3 -->
<g id="edge2" class="edge">
<title>Node1&#45;&gt;Node3</title>
<path fill="none" stroke="#63b8ff" d="M113.82,-46.62C126.19,-46.62 139.45,-46.62 152.36,-46.62"/>
<polygon fill="#63b8ff" stroke="#63b8ff" points="152.08,-50.13 162.08,-46.62 152.08,-43.13 152.08,-50.13"/>
</g>
<!-- Node4 -->
<g id="node4" class="node">
<title>Node4</title>
<g id="a_node4"><a xlink:href="namespace_nuki_lock.html#aa9c8584e761f69cad4eb3ea1c20d27e7" target="_top" xlink:title=" ">
<polygon fill="white" stroke="#666666" points="288.5,-19.25 163,-19.25 163,0 288.5,0 288.5,-19.25"/>
<text text-anchor="middle" x="225.75" y="-5.75" font-family="Helvetica,sans-Serif" font-size="10.00">NukiLock::logNukiTrigger</text>
</a>
</g>
</g>
<!-- Node1&#45;&gt;Node4 -->
<g id="edge3" class="edge">
<title>Node1&#45;&gt;Node4</title>
<path fill="none" stroke="#63b8ff" d="M103.38,-36.51C123.54,-32.05 147.44,-26.75 168.67,-22.05"/>
<polygon fill="#63b8ff" stroke="#63b8ff" points="169.17,-25.3 178.17,-19.72 167.65,-18.47 169.17,-25.3"/>
</g>
</g>
</svg>
