<?xml version="1.0" encoding="UTF-8" standalone="no"?>
<!DOCTYPE svg PUBLIC "-//W3C//DTD SVG 1.1//EN"
 "http://www.w3.org/Graphics/SVG/1.1/DTD/svg11.dtd">
<!-- Generated by graphviz version 7.0.0 (20221023.0053)
 -->
<!-- Title: NukiLock::logLogEntry Pages: 1 -->
<svg width="311pt" height="101pt"
 viewBox="0.00 0.00 311.00 101.00" xmlns="http://www.w3.org/2000/svg" xmlns:xlink="http://www.w3.org/1999/xlink">
<g id="graph0" class="graph" transform="scale(1 1) rotate(0) translate(4 97)">
<title>NukiLock::logLogEntry</title>
<!-- Node1 -->
<g id="node1" class="node">
<title>Node1</title>
<g id="a_node1"><a xlink:title=" ">
<polygon fill="#999999" stroke="#666666" points="114,-56 0,-56 0,-37 114,-37 114,-56"/>
<text text-anchor="middle" x="57" y="-44" font-family="Helvetica,sans-Serif" font-size="10.00">NukiLock::logLogEntry</text>
</a>
</g>
</g>
<!-- Node2 -->
<g id="node2" class="node">
<title>Node2</title>
<g id="a_node2"><a xlink:href="namespace_nuki_lock.html#a564f6d63072267bb72f431e4c4e1c947" target="_top" xlink:title=" ">
<polygon fill="white" stroke="#666666" points="303,-93 150,-93 150,-74 303,-74 303,-93"/>
<text text-anchor="middle" x="226.5" y="-81" font-family="Helvetica,sans-Serif" font-size="10.00">NukiLock::logCompletionStatus</text>
</a>
</g>
</g>
<!-- Node1&#45;&gt;Node2 -->
<g id="edge1" class="edge">
<title>Node1&#45;&gt;Node2</title>
<path fill="none" stroke="#63b8ff" d="M102.89,-56.42C123.35,-60.94 147.8,-66.34 169.45,-71.12"/>
<polygon fill="#63b8ff" stroke="#63b8ff" points="168.49,-74.49 179.01,-73.23 170,-67.66 168.49,-74.49"/>
</g>
<!-- Node3 -->
<g id="node3" class="node">
<title>Node3</title>
<g id="a_node3"><a xlink:href="namespace_nuki_lock.html#a02e1891ccc5565890fd8ddd6577dea57" target="_top" xlink:title=" ">
<polygon fill="white" stroke="#666666" points="289,-56 164,-56 164,-37 289,-37 289,-56"/>
<text text-anchor="middle" x="226.5" y="-44" font-family="Helvetica,sans-Serif" font-size="10.00">NukiLock::logLockAction</text>
</a>
</g>
</g>
<!-- Node1&#45;&gt;Node3 -->
<g id="edge2" class="edge">
<title>Node1&#45;&gt;Node3</title>
<path fill="none" stroke="#63b8ff" d="M114.24,-46.5C126.52,-46.5 139.68,-46.5 152.5,-46.5"/>
<polygon fill="#63b8ff" stroke="#63b8ff" points="152.14,-50 162.14,-46.5 152.14,-43 152.14,-50"/>
</g>
<!-- Node4 -->
<g id="node4" class="node">
<title>Node4</title>
<g id="a_node4"><a xlink:href="namespace_nuki_lock.html#aa9c8584e761f69cad4eb3ea1c20d27e7" target="_top" xlink:title=" ">
<polygon fill="white" stroke="#666666" points="289.5,-19 163.5,-19 163.5,0 289.5,0 289.5,-19"/>
<text text-anchor="middle" x="226.5" y="-7" font-family="Helvetica,sans-Serif" font-size="10.00">NukiLock::logNukiTrigger</text>
</a>
</g>
</g>
<!-- Node1&#45;&gt;Node4 -->
<g id="edge3" class="edge">
<title>Node1&#45;&gt;Node4</title>
<path fill="none" stroke="#63b8ff" d="M102.89,-36.58C123.35,-32.06 147.8,-26.66 169.45,-21.88"/>
<polygon fill="#63b8ff" stroke="#63b8ff" points="170,-25.34 179.01,-19.77 168.49,-18.51 170,-25.34"/>
</g>
</g>
</svg>
