<?xml version="1.0" encoding="UTF-8" standalone="no"?>
<!DOCTYPE svg PUBLIC "-//W3C//DTD SVG 1.1//EN"
 "http://www.w3.org/Graphics/SVG/1.1/DTD/svg11.dtd">
<!-- Generated by graphviz version 9.0.0 (20230911.1827)
 -->
<!-- Title: NukiLock::logLogEntry Pages: 1 -->
<svg width="310pt" height="101pt"
 viewBox="0.00 0.00 310.00 101.25" xmlns="http://www.w3.org/2000/svg" xmlns:xlink="http://www.w3.org/1999/xlink">
<g id="graph0" class="graph" transform="scale(1 1) rotate(0) translate(4 97.25)">
<title>NukiLock::logLogEntry</title>
<!-- Node1 -->
<g id="Node000001" class="node">
<title>Node1</title>
<g id="a_Node000001"><a xlink:title=" ">
<polygon fill="#999999" stroke="#666666" points="113.5,-56.25 0,-56.25 0,-37 113.5,-37 113.5,-56.25"/>
<text text-anchor="middle" x="56.75" y="-42.75" font-family="Helvetica,sans-Serif" font-size="10.00">NukiLock::logLogEntry</text>
</a>
</g>
</g>
<!-- Node2 -->
<g id="Node000002" class="node">
<title>Node2</title>
<g id="a_Node000002"><a xlink:href="namespace_nuki_lock.html#a564f6d63072267bb72f431e4c4e1c947" target="_top" xlink:title=" ">
<polygon fill="white" stroke="#666666" points="302,-93.25 149.5,-93.25 149.5,-74 302,-74 302,-93.25"/>
<text text-anchor="middle" x="225.75" y="-79.75" font-family="Helvetica,sans-Serif" font-size="10.00">NukiLock::logCompletionStatus</text>
</a>
</g>
</g>
<!-- Node1&#45;&gt;Node2 -->
<g id="edge1_Node000001_Node000002" class="edge">
<title>Node1&#45;&gt;Node2</title>
<g id="a_edge1_Node000001_Node000002"><a xlink:title=" ">
<path fill="none" stroke="#63b8ff" d="M103.38,-56.74C123.36,-61.16 147,-66.4 168.09,-71.07"/>
<polygon fill="#63b8ff" stroke="#63b8ff" points="167.17,-74.45 177.69,-73.2 168.69,-67.62 167.17,-74.45"/>
</a>
</g>
</g>
<!-- Node3 -->
<g id="Node000003" class="node">
<title>Node3</title>
<g id="a_Node000003"><a xlink:href="namespace_nuki_lock.html#a02e1891ccc5565890fd8ddd6577dea57" target="_top" xlink:title=" ">
<polygon fill="white" stroke="#666666" points="288.12,-56.25 163.38,-56.25 163.38,-37 288.12,-37 288.12,-56.25"/>
<text text-anchor="middle" x="225.75" y="-42.75" font-family="Helvetica,sans-Serif" font-size="10.00">NukiLock::logLockAction</text>
</a>
</g>
</g>
<!-- Node1&#45;&gt;Node3 -->
<g id="edge2_Node000001_Node000003" class="edge">
<title>Node1&#45;&gt;Node3</title>
<g id="a_edge2_Node000001_Node000003"><a xlink:title=" ">
<path fill="none" stroke="#63b8ff" d="M113.82,-46.62C125.94,-46.62 138.92,-46.62 151.58,-46.62"/>
<polygon fill="#63b8ff" stroke="#63b8ff" points="151.57,-50.13 161.57,-46.63 151.57,-43.13 151.57,-50.13"/>
</a>
</g>
</g>
<!-- Node4 -->
<g id="Node000004" class="node">
<title>Node4</title>
<g id="a_Node000004"><a xlink:href="namespace_nuki_lock.html#aa9c8584e761f69cad4eb3ea1c20d27e7" target="_top" xlink:title=" ">
<polygon fill="white" stroke="#666666" points="288.5,-19.25 163,-19.25 163,0 288.5,0 288.5,-19.25"/>
<text text-anchor="middle" x="225.75" y="-5.75" font-family="Helvetica,sans-Serif" font-size="10.00">NukiLock::logNukiTrigger</text>
</a>
</g>
</g>
<!-- Node1&#45;&gt;Node4 -->
<g id="edge3_Node000001_Node000004" class="edge">
<title>Node1&#45;&gt;Node4</title>
<g id="a_edge3_Node000001_Node000004"><a xlink:title=" ">
<path fill="none" stroke="#63b8ff" d="M103.38,-36.51C123.36,-32.09 147,-26.85 168.09,-22.18"/>
<polygon fill="#63b8ff" stroke="#63b8ff" points="168.69,-25.63 177.69,-20.05 167.17,-18.8 168.69,-25.63"/>
</a>
</g>
</g>
</g>
</svg>
