<?xml version="1.0" encoding="UTF-8" standalone="no"?>
<!DOCTYPE svg PUBLIC "-//W3C//DTD SVG 1.1//EN"
 "http://www.w3.org/Graphics/SVG/1.1/DTD/svg11.dtd">
<!-- Generated by graphviz version 8.0.1 (20230327.1645)
 -->
<!-- Title: Nuki::printBuffer Pages: 1 -->
<svg width="296pt" height="508pt"
 viewBox="0.00 0.00 296.00 508.00" xmlns="http://www.w3.org/2000/svg" xmlns:xlink="http://www.w3.org/1999/xlink">
<g id="graph0" class="graph" transform="scale(1 1) rotate(0) translate(4 504)">
<title>Nuki::printBuffer</title>
<!-- Node1 -->
<g id="node1" class="node">
<title>Node1</title>
<g id="a_node1"><a xlink:title=" ">
<polygon fill="#999999" stroke="#666666" points="288,-264.5 202,-264.5 202,-245.5 288,-245.5 288,-264.5"/>
<text text-anchor="middle" x="245" y="-252.5" font-family="Helvetica,sans-Serif" font-size="10.00">Nuki::printBuffer</text>
</a>
</g>
</g>
<!-- Node2 -->
<g id="node2" class="node">
<title>Node2</title>
<g id="a_node2"><a xlink:href="class_nuki_1_1_nuki_ble.html#a8c69d960c9034d3ae5877285b666f09c" target="_top" xlink:title="Sends a new authorization entry to the lock via BLE.">
<polygon fill="white" stroke="#666666" points="159,-500 7,-500 7,-470 159,-470 159,-500"/>
<text text-anchor="start" x="15" y="-488" font-family="Helvetica,sans-Serif" font-size="10.00">Nuki::NukiBle::addAuthorization</text>
<text text-anchor="middle" x="83" y="-477" font-family="Helvetica,sans-Serif" font-size="10.00">Entry</text>
</a>
</g>
</g>
<!-- Node1&#45;&gt;Node2 -->
<g id="edge1" class="edge">
<title>Node1&#45;&gt;Node2</title>
<path fill="none" stroke="#63b8ff" d="M242.17,-275.72C237.38,-317.08 220.8,-410.28 166,-461 162.41,-464.33 158.38,-467.19 154.09,-469.66"/>
<polygon fill="#63b8ff" stroke="#63b8ff" points="245.74,-276.17 243.28,-265.86 238.78,-275.45 245.74,-276.17"/>
</g>
<!-- Node3 -->
<g id="node3" class="node">
<title>Node3</title>
<g id="a_node3"><a xlink:href="class_nuki_1_1_nuki_ble.html#ad96ef33212df343aa1433229f58f2ff7" target="_top" xlink:title="Send a new keypad entry to the lock via BLE.">
<polygon fill="white" stroke="#666666" points="147,-452 19,-452 19,-422 147,-422 147,-452"/>
<text text-anchor="start" x="27" y="-440" font-family="Helvetica,sans-Serif" font-size="10.00">Nuki::NukiBle::addKeypad</text>
<text text-anchor="middle" x="83" y="-429" font-family="Helvetica,sans-Serif" font-size="10.00">Entry</text>
</a>
</g>
</g>
<!-- Node1&#45;&gt;Node3 -->
<g id="edge2" class="edge">
<title>Node1&#45;&gt;Node3</title>
<path fill="none" stroke="#63b8ff" d="M239.6,-275.25C231.23,-308.89 209.8,-376.22 166,-413 160.43,-417.67 153.99,-421.44 147.22,-424.47"/>
<polygon fill="#63b8ff" stroke="#63b8ff" points="243.16,-276.4 242.03,-265.86 236.34,-274.8 243.16,-276.4"/>
</g>
<!-- Node4 -->
<g id="node4" class="node">
<title>Node4</title>
<g id="a_node4"><a xlink:href="class_nuki_lock_1_1_nuki_lock.html#ae580874f09b745718bb40c263de51c6e" target="_top" xlink:title="Sends a new time(d) control entry via BLE to the lock. This entry is independant of keypad or authori...">
<polygon fill="white" stroke="#666666" points="138.5,-404 27.5,-404 27.5,-374 138.5,-374 138.5,-404"/>
<text text-anchor="start" x="35.5" y="-392" font-family="Helvetica,sans-Serif" font-size="10.00">NukiLock::NukiLock</text>
<text text-anchor="middle" x="83" y="-381" font-family="Helvetica,sans-Serif" font-size="10.00">::addTimeControlEntry</text>
</a>
</g>
</g>
<!-- Node1&#45;&gt;Node4 -->
<g id="edge3" class="edge">
<title>Node1&#45;&gt;Node4</title>
<path fill="none" stroke="#63b8ff" d="M235.19,-274.63C223.1,-299.35 199.04,-341.44 166,-365 157.91,-370.77 148.43,-375.16 138.86,-378.51"/>
<polygon fill="#63b8ff" stroke="#63b8ff" points="238.67,-276.45 239.76,-265.91 232.34,-273.47 238.67,-276.45"/>
</g>
<!-- Node5 -->
<g id="node5" class="node">
<title>Node5</title>
<g id="a_node5"><a xlink:href="class_nuki_opener_1_1_nuki_opener.html#a6dee2bf0f439e7017fd9c2b3ae15a40c" target="_top" xlink:title="Sends a new time(d) control entry via BLE to the lock. This entry is independant of keypad or authori...">
<polygon fill="white" stroke="#666666" points="145.5,-356 20.5,-356 20.5,-326 145.5,-326 145.5,-356"/>
<text text-anchor="start" x="28.5" y="-344" font-family="Helvetica,sans-Serif" font-size="10.00">NukiOpener::NukiOpener</text>
<text text-anchor="middle" x="83" y="-333" font-family="Helvetica,sans-Serif" font-size="10.00">::addTimeControlEntry</text>
</a>
</g>
</g>
<!-- Node1&#45;&gt;Node5 -->
<g id="edge4" class="edge">
<title>Node1&#45;&gt;Node5</title>
<path fill="none" stroke="#63b8ff" d="M226.44,-272.28C211.49,-286.13 188.85,-305.16 166,-317 159.68,-320.28 152.84,-323.17 145.91,-325.7"/>
<polygon fill="#63b8ff" stroke="#63b8ff" points="228.46,-275.24 233.3,-265.81 223.64,-270.16 228.46,-275.24"/>
</g>
<!-- Node6 -->
<g id="node6" class="node">
<title>Node6</title>
<g id="a_node6"><a xlink:href="namespace_nuki.html#acef61520e1f6e537552b14ca4b519f44" target="_top" xlink:title=" ">
<polygon fill="white" stroke="#666666" points="136.5,-307.5 29.5,-307.5 29.5,-288.5 136.5,-288.5 136.5,-307.5"/>
<text text-anchor="middle" x="83" y="-295.5" font-family="Helvetica,sans-Serif" font-size="10.00">Nuki::generateNonce</text>
</a>
</g>
</g>
<!-- Node1&#45;&gt;Node6 -->
<g id="edge5" class="edge">
<title>Node1&#45;&gt;Node6</title>
<path fill="none" stroke="#63b8ff" d="M203.25,-268.13C191.3,-271.83 178.17,-275.72 166,-279 154.29,-282.15 141.55,-285.26 129.68,-288.02"/>
<polygon fill="#63b8ff" stroke="#63b8ff" points="203.9,-271.29 212.4,-264.97 201.81,-264.61 203.9,-271.29"/>
</g>
<!-- Node7 -->
<g id="node7" class="node">
<title>Node7</title>
<g id="a_node7"><a xlink:href="class_nuki_lock_1_1_nuki_lock.html#a8d9fc4e4a1bde183754ced8b783f82d5" target="_top" xlink:title=" ">
<polygon fill="white" stroke="#666666" points="142,-270 24,-270 24,-240 142,-240 142,-270"/>
<text text-anchor="start" x="32" y="-258" font-family="Helvetica,sans-Serif" font-size="10.00">NukiLock::NukiLock</text>
<text text-anchor="middle" x="83" y="-247" font-family="Helvetica,sans-Serif" font-size="10.00">::handleReturnMessage</text>
</a>
</g>
</g>
<!-- Node1&#45;&gt;Node7 -->
<g id="edge6" class="edge">
<title>Node1&#45;&gt;Node7</title>
<path fill="none" stroke="#63b8ff" d="M190.57,-255C175.08,-255 158.09,-255 142.32,-255"/>
<polygon fill="#63b8ff" stroke="#63b8ff" points="190.54,-258.5 200.54,-255 190.54,-251.5 190.54,-258.5"/>
</g>
<!-- Node8 -->
<g id="node8" class="node">
<title>Node8</title>
<g id="a_node8"><a xlink:href="class_nuki_opener_1_1_nuki_opener.html#a19ad4317e201ebe5e43ad55b6ea906da" target="_top" xlink:title=" ">
<polygon fill="white" stroke="#666666" points="145.5,-222 20.5,-222 20.5,-192 145.5,-192 145.5,-222"/>
<text text-anchor="start" x="28.5" y="-210" font-family="Helvetica,sans-Serif" font-size="10.00">NukiOpener::NukiOpener</text>
<text text-anchor="middle" x="83" y="-199" font-family="Helvetica,sans-Serif" font-size="10.00">::handleReturnMessage</text>
</a>
</g>
</g>
<!-- Node1&#45;&gt;Node8 -->
<g id="edge7" class="edge">
<title>Node1&#45;&gt;Node8</title>
<path fill="none" stroke="#63b8ff" d="M201.83,-241.91C190.23,-238.34 177.64,-234.49 166,-231 156.62,-228.19 146.63,-225.23 136.96,-222.39"/>
<polygon fill="#63b8ff" stroke="#63b8ff" points="200.56,-245.49 211.15,-245.09 202.63,-238.8 200.56,-245.49"/>
</g>
<!-- Node9 -->
<g id="node9" class="node">
<title>Node9</title>
<g id="a_node9"><a xlink:href="class_nuki_1_1_nuki_ble.html#af47efb4e020a327687327ad82963b347" target="_top" xlink:title="Sends an updated authorization entry to the lock via BLE.">
<polygon fill="white" stroke="#666666" points="166,-174 0,-174 0,-144 166,-144 166,-174"/>
<text text-anchor="start" x="8" y="-162" font-family="Helvetica,sans-Serif" font-size="10.00">Nuki::NukiBle::updateAuthorization</text>
<text text-anchor="middle" x="83" y="-151" font-family="Helvetica,sans-Serif" font-size="10.00">Entry</text>
</a>
</g>
</g>
<!-- Node1&#45;&gt;Node9 -->
<g id="edge8" class="edge">
<title>Node1&#45;&gt;Node9</title>
<path fill="none" stroke="#63b8ff" d="M228.84,-236.87C214.28,-220.57 190.9,-197.09 166,-183 160.19,-179.71 153.89,-176.84 147.45,-174.33"/>
<polygon fill="#63b8ff" stroke="#63b8ff" points="226.76,-238.82 235.96,-244.08 232.05,-234.24 226.76,-238.82"/>
</g>
<!-- Node10 -->
<g id="node10" class="node">
<title>Node10</title>
<g id="a_node10"><a xlink:href="class_nuki_1_1_nuki_ble.html#a0f1be2034e079e676a7771dfb775df81" target="_top" xlink:title="Send an updated keypad entry to the lock via BLE.">
<polygon fill="white" stroke="#666666" points="154,-126 12,-126 12,-96 154,-96 154,-126"/>
<text text-anchor="start" x="20" y="-114" font-family="Helvetica,sans-Serif" font-size="10.00">Nuki::NukiBle::updateKeypad</text>
<text text-anchor="middle" x="83" y="-103" font-family="Helvetica,sans-Serif" font-size="10.00">Entry</text>
</a>
</g>
</g>
<!-- Node1&#45;&gt;Node10 -->
<g id="edge9" class="edge">
<title>Node1&#45;&gt;Node10</title>
<path fill="none" stroke="#63b8ff" d="M236.33,-235.16C225,-208.43 201.24,-161.21 166,-135 161.6,-131.72 156.75,-128.89 151.69,-126.45"/>
<polygon fill="#63b8ff" stroke="#63b8ff" points="233.42,-236.29 240.43,-244.23 239.91,-233.65 233.42,-236.29"/>
</g>
<!-- Node11 -->
<g id="node11" class="node">
<title>Node11</title>
<g id="a_node11"><a xlink:href="class_nuki_lock_1_1_nuki_lock.html#a8d1a06e5fa6f5fb06923c74fb8c6f6d7" target="_top" xlink:title="Sends an updated time(d) control entry via BLE to the lock. (see addTimeControlEntry())">
<polygon fill="white" stroke="#666666" points="145.5,-78 20.5,-78 20.5,-48 145.5,-48 145.5,-78"/>
<text text-anchor="start" x="28.5" y="-66" font-family="Helvetica,sans-Serif" font-size="10.00">NukiLock::NukiLock</text>
<text text-anchor="middle" x="83" y="-55" font-family="Helvetica,sans-Serif" font-size="10.00">::updateTimeControlEntry</text>
</a>
</g>
</g>
<!-- Node1&#45;&gt;Node11 -->
<g id="edge10" class="edge">
<title>Node1&#45;&gt;Node11</title>
<path fill="none" stroke="#63b8ff" d="M240.3,-234.96C232.76,-199.76 212.21,-126.76 166,-87 160.04,-81.87 153.03,-77.84 145.67,-74.67"/>
<polygon fill="#63b8ff" stroke="#63b8ff" points="236.99,-235.24 242.38,-244.35 243.85,-233.86 236.99,-235.24"/>
</g>
<!-- Node12 -->
<g id="node12" class="node">
<title>Node12</title>
<g id="a_node12"><a xlink:href="class_nuki_opener_1_1_nuki_opener.html#ad896a195b57a3961a10497c432bc55ed" target="_top" xlink:title="Sends an updated time(d) control entry via BLE to the lock. (see addTimeControlEntry())">
<polygon fill="white" stroke="#666666" points="145.5,-30 20.5,-30 20.5,0 145.5,0 145.5,-30"/>
<text text-anchor="start" x="28.5" y="-18" font-family="Helvetica,sans-Serif" font-size="10.00">NukiOpener::NukiOpener</text>
<text text-anchor="middle" x="83" y="-7" font-family="Helvetica,sans-Serif" font-size="10.00">::updateTimeControlEntry</text>
</a>
</g>
</g>
<!-- Node1&#45;&gt;Node12 -->
<g id="edge11" class="edge">
<title>Node1&#45;&gt;Node12</title>
<path fill="none" stroke="#63b8ff" d="M242.6,-234.45C238.57,-191.72 223.23,-92.8 166,-39 160.16,-33.51 153.14,-29.27 145.69,-26"/>
<polygon fill="#63b8ff" stroke="#63b8ff" points="239.17,-234.47 243.48,-244.15 246.15,-233.9 239.17,-234.47"/>
</g>
</g>
</svg>
