<?xml version="1.0" encoding="UTF-8" standalone="no"?>
<!DOCTYPE svg PUBLIC "-//W3C//DTD SVG 1.1//EN"
 "http://www.w3.org/Graphics/SVG/1.1/DTD/svg11.dtd">
<!-- Generated by graphviz version 12.2.1 (20241206.2353)
 -->
<!-- Title: NukiOpener::logLogEntry Pages: 1 -->
<svg width="468pt" height="151pt"
 viewBox="0.00 0.00 467.75 150.88" xmlns="http://www.w3.org/2000/svg" xmlns:xlink="http://www.w3.org/1999/xlink">
<g id="graph0" class="graph" transform="scale(1 1) rotate(0) translate(4 146.88)">
<title>NukiOpener::logLogEntry</title>
<!-- Node1 -->
<g id="Node000001" class="node">
<title>Node1</title>
<g id="a_Node000001"><a xlink:title=" ">
<polygon fill="#999999" stroke="#666666" points="123.25,-75.25 0,-75.25 0,-56 123.25,-56 123.25,-75.25"/>
<text text-anchor="middle" x="61.62" y="-61.75" font-family="Helvetica,sans-Serif" font-size="10.00">NukiOpener::logLogEntry</text>
</a>
</g>
</g>
<!-- Node2 -->
<g id="Node000002" class="node">
<title>Node2</title>
<g id="a_Node000002"><a xlink:href="namespace_nuki_opener.html#a6bf8f7b28ff29642c9206fe6fc3e0070" target="_top" xlink:title=" ">
<polygon fill="white" stroke="#666666" points="296,-142.88 162.25,-142.88 162.25,-112.38 296,-112.38 296,-142.88"/>
<text text-anchor="start" x="170.25" y="-129.38" font-family="Helvetica,sans-Serif" font-size="10.00">NukiOpener::logCompletion</text>
<text text-anchor="middle" x="229.12" y="-118.12" font-family="Helvetica,sans-Serif" font-size="10.00">Status</text>
</a>
</g>
</g>
<!-- Node1&#45;&gt;Node2 -->
<g id="edge1_Node000001_Node000002" class="edge">
<title>Node1&#45;&gt;Node2</title>
<g id="a_edge1_Node000001_Node000002"><a xlink:title=" ">
<path fill="none" stroke="#63b8ff" d="M89.58,-75.72C112.81,-84.43 147.02,-97.24 175.63,-107.96"/>
<polygon fill="#63b8ff" stroke="#63b8ff" points="174.28,-111.19 184.87,-111.42 176.73,-104.63 174.28,-111.19"/>
</a>
</g>
</g>
<!-- Node3 -->
<g id="Node000003" class="node">
<title>Node3</title>
<g id="a_Node000003"><a xlink:href="namespace_nuki_opener.html#abe42ec4ff1fe8d7a2324598ccb90732d" target="_top" xlink:title=" ">
<polygon fill="white" stroke="#666666" points="459.75,-94.25 335,-94.25 335,-75 459.75,-75 459.75,-94.25"/>
<text text-anchor="middle" x="397.38" y="-80.75" font-family="Helvetica,sans-Serif" font-size="10.00">NukiOpener::logMessage</text>
</a>
</g>
</g>
<!-- Node1&#45;&gt;Node3 -->
<g id="edge5_Node000001_Node000003" class="edge">
<title>Node1&#45;&gt;Node3</title>
<g id="a_edge5_Node000001_Node000003"><a xlink:title=" ">
<path fill="none" stroke="#63b8ff" d="M123.45,-69.09C179.71,-72.29 263.42,-77.06 323.29,-80.46"/>
<polygon fill="#63b8ff" stroke="#63b8ff" points="322.86,-83.95 333.04,-81.02 323.26,-76.96 322.86,-83.95"/>
</a>
</g>
</g>
<!-- Node4 -->
<g id="Node000004" class="node">
<title>Node4</title>
<g id="a_Node000004"><a xlink:href="namespace_nuki_opener.html#a3e96f2a12b591da08c015e0ea11fb890" target="_top" xlink:title=" ">
<polygon fill="white" stroke="#666666" points="296.38,-56.25 161.88,-56.25 161.88,-37 296.38,-37 296.38,-56.25"/>
<text text-anchor="middle" x="229.12" y="-42.75" font-family="Helvetica,sans-Serif" font-size="10.00">NukiOpener::logLockAction</text>
</a>
</g>
</g>
<!-- Node1&#45;&gt;Node4 -->
<g id="edge3_Node000001_Node000004" class="edge">
<title>Node1&#45;&gt;Node4</title>
<g id="a_edge3_Node000001_Node000004"><a xlink:title=" ">
<path fill="none" stroke="#63b8ff" d="M123.31,-58.66C132.07,-57.65 141.18,-56.61 150.22,-55.57"/>
<polygon fill="#63b8ff" stroke="#63b8ff" points="150.55,-59.05 160.08,-54.44 149.75,-52.1 150.55,-59.05"/>
</a>
</g>
</g>
<!-- Node5 -->
<g id="Node000005" class="node">
<title>Node5</title>
<g id="a_Node000005"><a xlink:href="namespace_nuki_opener.html#ac87f753e40affc2a7be0d69862685555" target="_top" xlink:title=" ">
<polygon fill="white" stroke="#666666" points="299,-19.25 159.25,-19.25 159.25,0 299,0 299,-19.25"/>
<text text-anchor="middle" x="229.12" y="-5.75" font-family="Helvetica,sans-Serif" font-size="10.00">NukiOpener::logMessageVar</text>
</a>
</g>
</g>
<!-- Node1&#45;&gt;Node5 -->
<g id="edge6_Node000001_Node000005" class="edge">
<title>Node1&#45;&gt;Node5</title>
<g id="a_edge6_Node000001_Node000005"><a xlink:title=" ">
<path fill="none" stroke="#63b8ff" d="M85.77,-55.62C105.17,-47.46 133.71,-35.95 159.25,-27.62 164.55,-25.9 170.12,-24.22 175.7,-22.63"/>
<polygon fill="#63b8ff" stroke="#63b8ff" points="176.2,-26.12 184.91,-20.09 174.34,-19.37 176.2,-26.12"/>
</a>
</g>
</g>
<!-- Node2&#45;&gt;Node3 -->
<g id="edge2_Node000002_Node000003" class="edge">
<title>Node2&#45;&gt;Node3</title>
<g id="a_edge2_Node000002_Node000003"><a xlink:title=" ">
<path fill="none" stroke="#63b8ff" d="M290.62,-111.98C308.89,-107.25 328.75,-102.12 346.27,-97.58"/>
<polygon fill="#63b8ff" stroke="#63b8ff" points="347.14,-100.97 355.94,-95.08 345.39,-94.2 347.14,-100.97"/>
</a>
</g>
</g>
<!-- Node4&#45;&gt;Node3 -->
<g id="edge4_Node000004_Node000003" class="edge">
<title>Node4&#45;&gt;Node3</title>
<g id="a_edge4_Node000004_Node000003"><a xlink:title=" ">
<path fill="none" stroke="#63b8ff" d="M274.24,-56.71C294.8,-61.41 319.48,-67.05 341.26,-72.03"/>
<polygon fill="#63b8ff" stroke="#63b8ff" points="340.34,-75.41 350.87,-74.22 341.9,-68.58 340.34,-75.41"/>
</a>
</g>
</g>
</g>
</svg>
