<?xml version="1.0" encoding="UTF-8" standalone="no"?>
<!DOCTYPE svg PUBLIC "-//W3C//DTD SVG 1.1//EN"
 "http://www.w3.org/Graphics/SVG/1.1/DTD/svg11.dtd">
<!-- Generated by graphviz version 5.0.1 (20220820.1526)
 -->
<!-- Title: NukiLock::logNukiTrigger Pages: 1 -->
<svg width="543pt" height="68pt"
 viewBox="0.00 0.00 543.00 68.00" xmlns="http://www.w3.org/2000/svg" xmlns:xlink="http://www.w3.org/1999/xlink">
<g id="graph0" class="graph" transform="scale(1 1) rotate(0) translate(4 64)">
<title>NukiLock::logNukiTrigger</title>
<!-- Node1 -->
<g id="node1" class="node">
<title>Node1</title>
<g id="a_node1"><a xlink:title=" ">
<polygon fill="#999999" stroke="#666666" points="535,-40 383,-40 383,-19 535,-19 535,-40"/>
<text text-anchor="middle" x="459" y="-26.4" font-family="Helvetica,sans-Serif" font-size="12.00">NukiLock::logNukiTrigger</text>
</a>
</g>
</g>
<!-- Node2 -->
<g id="node2" class="node">
<title>Node2</title>
<g id="a_node2"><a xlink:href="namespace_nuki_lock.html#a5b521a0ba26dfc799683a2edb9529902" target="_top" xlink:title=" ">
<polygon fill="white" stroke="#666666" points="347,-60 179,-60 179,-39 347,-39 347,-60"/>
<text text-anchor="middle" x="263" y="-46.4" font-family="Helvetica,sans-Serif" font-size="12.00">NukiLock::logKeyturnerState</text>
</a>
</g>
</g>
<!-- Node1&#45;&gt;Node2 -->
<g id="edge1" class="edge">
<title>Node1&#45;&gt;Node2</title>
<path fill="none" stroke="#63b8ff" d="M373.01,-38.26C364.44,-39.15 355.74,-40.04 347.19,-40.92"/>
<polygon fill="#63b8ff" stroke="#63b8ff" points="373.41,-41.74 382.99,-37.23 372.69,-34.78 373.41,-41.74"/>
</g>
<!-- Node4 -->
<g id="node4" class="node">
<title>Node4</title>
<g id="a_node4"><a xlink:href="namespace_nuki_lock.html#aec3cb8258cc4133d676e8c5f50bcd938" target="_top" xlink:title=" ">
<polygon fill="white" stroke="#666666" points="331,-21 195,-21 195,0 331,0 331,-21"/>
<text text-anchor="middle" x="263" y="-7.4" font-family="Helvetica,sans-Serif" font-size="12.00">NukiLock::logLogEntry</text>
</a>
</g>
</g>
<!-- Node1&#45;&gt;Node4 -->
<g id="edge3" class="edge">
<title>Node1&#45;&gt;Node4</title>
<path fill="none" stroke="#63b8ff" d="M372.91,-21.17C358.95,-19.8 344.65,-18.4 331.21,-17.08"/>
<polygon fill="#63b8ff" stroke="#63b8ff" points="372.7,-24.66 382.99,-22.15 373.38,-17.7 372.7,-24.66"/>
</g>
<!-- Node3 -->
<g id="node3" class="node">
<title>Node3</title>
<g id="a_node3"><a xlink:href="class_nuki_lock_1_1_nuki_lock.html#a8d9fc4e4a1bde183754ced8b783f82d5" target="_top" xlink:title=" ">
<polygon fill="white" stroke="#666666" points="143,-46.5 0,-46.5 0,-12.5 143,-12.5 143,-46.5"/>
<text text-anchor="start" x="8" y="-32.9" font-family="Helvetica,sans-Serif" font-size="12.00">NukiLock::NukiLock</text>
<text text-anchor="middle" x="71.5" y="-19.9" font-family="Helvetica,sans-Serif" font-size="12.00">::handleReturnMessage</text>
</a>
</g>
</g>
<!-- Node2&#45;&gt;Node3 -->
<g id="edge2" class="edge">
<title>Node2&#45;&gt;Node3</title>
<path fill="none" stroke="#63b8ff" d="M168.77,-39.66C160.14,-38.75 151.49,-37.84 143.1,-36.95"/>
<polygon fill="#63b8ff" stroke="#63b8ff" points="168.57,-43.16 178.88,-40.73 169.31,-36.2 168.57,-43.16"/>
</g>
<!-- Node4&#45;&gt;Node3 -->
<g id="edge4" class="edge">
<title>Node4&#45;&gt;Node3</title>
<path fill="none" stroke="#63b8ff" d="M184.94,-18.23C171.07,-19.62 156.68,-21.06 143.02,-22.43"/>
<polygon fill="#63b8ff" stroke="#63b8ff" points="185.32,-21.71 194.92,-17.23 184.62,-14.74 185.32,-21.71"/>
</g>
</g>
</svg>
