<?xml version="1.0" encoding="UTF-8" standalone="no"?>
<!DOCTYPE svg PUBLIC "-//W3C//DTD SVG 1.1//EN"
 "http://www.w3.org/Graphics/SVG/1.1/DTD/svg11.dtd">
<!-- Generated by graphviz version 12.2.1 (20241206.2353)
 -->
<!-- Title: NukiOpener::logCompletionStatus Pages: 1 -->
<svg width="464pt" height="76pt"
 viewBox="0.00 0.00 464.00 75.88" xmlns="http://www.w3.org/2000/svg" xmlns:xlink="http://www.w3.org/1999/xlink">

<svg id="main" version="1.1" xmlns="http://www.w3.org/2000/svg" xmlns:xlink="http://www.w3.org/1999/xlink" xml:space="preserve">

<style type="text/css"><![CDATA[
.node, .edge {opacity: 0.7;}
.node.selected, .edge.selected {opacity: 1;}
.edge:hover path { stroke: red; }
.edge:hover polygon { stroke: red; fill: red; }
]]></style>
<script type="application/ecmascript" xlink:href="svg.min.js"/>
<svg id="graph" class="graph">
<g id="graph0" class="graph" transform="scale(1 1) rotate(0) translate(4 71.88)">
<title>NukiOpener::logCompletionStatus</title>
<!-- Node1 -->
<g id="Node000001" class="node">
<title>Node1</title>
<g id="a_Node000001"><a xlink:title=" ">
<polygon fill="#999999" stroke="#666666" points="456,-45.88 322.25,-45.88 322.25,-15.37 456,-15.37 456,-45.88"/>
<text text-anchor="start" x="330.25" y="-32.38" font-family="Helvetica,sans-Serif" font-size="10.00">NukiOpener::logCompletion</text>
<text text-anchor="middle" x="389.12" y="-21.12" font-family="Helvetica,sans-Serif" font-size="10.00">Status</text>
</a>
</g>
</g>
<!-- Node2 -->
<g id="Node000002" class="node">
<title>Node2</title>
<g id="a_Node000002"><a xlink:href="namespace_nuki_opener.html#a510454c0171d807a1eebd77045481ba0" target="_top" xlink:title=" ">
<polygon fill="white" stroke="#666666" points="286.25,-67.88 160,-67.88 160,-37.38 286.25,-37.38 286.25,-67.88"/>
<text text-anchor="start" x="168" y="-54.38" font-family="Helvetica,sans-Serif" font-size="10.00">NukiOpener::logKeyturner</text>
<text text-anchor="middle" x="223.12" y="-43.12" font-family="Helvetica,sans-Serif" font-size="10.00">State</text>
</a>
</g>
</g>
<!-- Node1&#45;&gt;Node2 -->
<g id="edge1_Node000001_Node000002" class="edge">
<title>Node1&#45;&gt;Node2</title>
<g id="a_edge1_Node000001_Node000002"><a xlink:title=" ">
<path fill="none" stroke="#63b8ff" d="M310.6,-41.02C302.56,-42.1 294.46,-43.19 286.62,-44.24"/>
<polygon fill="#63b8ff" stroke="#63b8ff" points="310.95,-44.51 320.39,-39.71 310.02,-37.57 310.95,-44.51"/>
</a>
</g>
</g>
<!-- Node4 -->
<g id="Node000004" class="node">
<title>Node4</title>
<g id="a_Node000004"><a xlink:href="namespace_nuki_opener.html#ad5810b4aac856a27473aedd0fe8f433e" target="_top" xlink:title=" ">
<polygon fill="white" stroke="#666666" points="284.75,-19.25 161.5,-19.25 161.5,0 284.75,0 284.75,-19.25"/>
<text text-anchor="middle" x="223.12" y="-5.75" font-family="Helvetica,sans-Serif" font-size="10.00">NukiOpener::logLogEntry</text>
</a>
</g>
</g>
<!-- Node1&#45;&gt;Node4 -->
<g id="edge3_Node000001_Node000004" class="edge">
<title>Node1&#45;&gt;Node4</title>
<g id="a_edge3_Node000001_Node000004"><a xlink:title=" ">
<path fill="none" stroke="#63b8ff" d="M310.66,-20.71C302.06,-19.6 293.39,-18.49 285.04,-17.42"/>
<polygon fill="#63b8ff" stroke="#63b8ff" points="310.03,-24.15 320.39,-21.95 310.92,-17.21 310.03,-24.15"/>
</a>
</g>
</g>
<!-- Node3 -->
<g id="Node000003" class="node">
<title>Node3</title>
<g id="a_Node000003"><a xlink:href="class_nuki_opener_1_1_nuki_opener.html#a19ad4317e201ebe5e43ad55b6ea906da" target="_top" xlink:title=" ">
<polygon fill="white" stroke="#666666" points="124,-45.88 0,-45.88 0,-15.37 124,-15.37 124,-45.88"/>
<text text-anchor="start" x="8" y="-32.38" font-family="Helvetica,sans-Serif" font-size="10.00">NukiOpener::NukiOpener</text>
<text text-anchor="middle" x="62" y="-21.12" font-family="Helvetica,sans-Serif" font-size="10.00">::handleReturnMessage</text>
</a>
</g>
</g>
<!-- Node2&#45;&gt;Node3 -->
<g id="edge2_Node000002_Node000003" class="edge">
<title>Node2&#45;&gt;Node3</title>
<g id="a_edge2_Node000002_Node000003"><a xlink:title=" ">
<path fill="none" stroke="#63b8ff" d="M148.44,-42.44C140.42,-41.33 132.32,-40.21 124.47,-39.12"/>
<polygon fill="#63b8ff" stroke="#63b8ff" points="147.81,-45.88 158.19,-43.79 148.77,-38.95 147.81,-45.88"/>
</a>
</g>
</g>
<!-- Node4&#45;&gt;Node3 -->
<g id="edge4_Node000004_Node000003" class="edge">
<title>Node4&#45;&gt;Node3</title>
<g id="a_edge4_Node000004_Node000003"><a xlink:title=" ">
<path fill="none" stroke="#63b8ff" d="M149.66,-19.19C141.23,-20.3 132.69,-21.43 124.43,-22.52"/>
<polygon fill="#63b8ff" stroke="#63b8ff" points="150.1,-22.66 159.56,-17.88 149.19,-15.72 150.1,-22.66"/>
</a>
</g>
</g>
</g>
</svg>
</svg>

<style type='text/css'>
<![CDATA[
[data-mouse-over-selected='false'] { opacity: 0.7; }
[data-mouse-over-selected='true']  { opacity: 1.0; }
]]>
</style>
<script type="application/ecmascript"><![CDATA[
document.addEventListener('DOMContentLoaded', (event) => {
  highlightEdges();
  highlightAdjacentNodes();
});
]]></script>
</svg>
