<?xml version="1.0" encoding="UTF-8" standalone="no"?>
<!DOCTYPE svg PUBLIC "-//W3C//DTD SVG 1.1//EN"
 "http://www.w3.org/Graphics/SVG/1.1/DTD/svg11.dtd">
<!-- Generated by graphviz version 12.2.1 (20241206.2353)
 -->
<!-- Title: NukiLock::logMessageVar Pages: 1 -->
<svg width="544pt" height="705pt"
 viewBox="0.00 0.00 543.50 704.88" xmlns="http://www.w3.org/2000/svg" xmlns:xlink="http://www.w3.org/1999/xlink">
<g id="graph0" class="graph" transform="scale(1 1) rotate(0) translate(4 700.88)">
<title>NukiLock::logMessageVar</title>
<!-- Node1 -->
<g id="Node000001" class="node">
<title>Node1</title>
<g id="a_Node000001"><a xlink:title=" ">
<polygon fill="#999999" stroke="#666666" points="535.5,-370.88 405.5,-370.88 405.5,-351.62 535.5,-351.62 535.5,-370.88"/>
<text text-anchor="middle" x="470.5" y="-357.38" font-family="Helvetica,sans-Serif" font-size="10.00">NukiLock::logMessageVar</text>
</a>
</g>
</g>
<!-- Node2 -->
<g id="Node000002" class="node">
<title>Node2</title>
<g id="a_Node000002"><a xlink:href="class_nuki_lock_1_1_nuki_lock.html#ae580874f09b745718bb40c263de51c6e" target="_top" xlink:title="Sends a new time(d) control entry via BLE to the lock. This entry is independant of keypad or authori...">
<polygon fill="white" stroke="#666666" points="137.88,-379.5 27.38,-379.5 27.38,-349 137.88,-349 137.88,-379.5"/>
<text text-anchor="start" x="35.38" y="-366" font-family="Helvetica,sans-Serif" font-size="10.00">NukiLock::NukiLock</text>
<text text-anchor="middle" x="82.62" y="-354.75" font-family="Helvetica,sans-Serif" font-size="10.00">::addTimeControlEntry</text>
</a>
</g>
</g>
<!-- Node1&#45;&gt;Node2 -->
<g id="edge1_Node000001_Node000002" class="edge">
<title>Node1&#45;&gt;Node2</title>
<g id="a_edge1_Node000001_Node000002"><a xlink:title=" ">
<path fill="none" stroke="#63b8ff" d="M425.19,-348.24C407.97,-343.82 387.97,-339.44 369.5,-337.25 295.24,-328.46 275.55,-328.83 201.25,-337.25 180.43,-339.61 157.93,-344.24 138.24,-349.02"/>
<polygon fill="#63b8ff" stroke="#63b8ff" points="424.04,-351.56 434.6,-350.75 425.84,-344.8 424.04,-351.56"/>
</a>
</g>
</g>
<!-- Node3 -->
<g id="Node000003" class="node">
<title>Node3</title>
<g id="a_Node000003"><a xlink:href="namespace_nuki_lock.html#a03e673a769ecefb4c006f70b6f00b190" target="_top" xlink:title=" ">
<polygon fill="white" stroke="#666666" points="358.25,-573.88 212.5,-573.88 212.5,-554.62 358.25,-554.62 358.25,-573.88"/>
<text text-anchor="middle" x="285.38" y="-560.38" font-family="Helvetica,sans-Serif" font-size="10.00">NukiLock::logAdvancedConfig</text>
</a>
</g>
</g>
<!-- Node1&#45;&gt;Node3 -->
<g id="edge2_Node000001_Node000003" class="edge">
<title>Node1&#45;&gt;Node3</title>
<g id="a_edge2_Node000001_Node000003"><a xlink:title=" ">
<path fill="none" stroke="#63b8ff" d="M464.42,-382.14C453.83,-420.96 425.61,-504.11 369.5,-546.25 365.25,-549.44 360.55,-552.09 355.61,-554.29"/>
<polygon fill="#63b8ff" stroke="#63b8ff" points="467.75,-383.23 466.87,-372.67 460.97,-381.47 467.75,-383.23"/>
</a>
</g>
</g>
<!-- Node5 -->
<g id="Node000005" class="node">
<title>Node5</title>
<g id="a_Node000005"><a xlink:href="namespace_nuki_lock.html#a0f24c85ea0802349b4173a6224e148fd" target="_top" xlink:title=" ">
<polygon fill="white" stroke="#666666" points="351.12,-622.5 219.62,-622.5 219.62,-592 351.12,-592 351.12,-622.5"/>
<text text-anchor="start" x="227.62" y="-609" font-family="Helvetica,sans-Serif" font-size="10.00">NukiLock::logAuthorization</text>
<text text-anchor="middle" x="285.38" y="-597.75" font-family="Helvetica,sans-Serif" font-size="10.00">Entry</text>
</a>
</g>
</g>
<!-- Node1&#45;&gt;Node5 -->
<g id="edge4_Node000001_Node000005" class="edge">
<title>Node1&#45;&gt;Node5</title>
<g id="a_edge4_Node000001_Node000005"><a xlink:title=" ">
<path fill="none" stroke="#63b8ff" d="M466.1,-382.16C457.85,-426.12 432.58,-528.56 369.5,-583.25 364.17,-587.87 357.99,-591.61 351.46,-594.63"/>
<polygon fill="#63b8ff" stroke="#63b8ff" points="469.53,-382.9 467.81,-372.44 462.63,-381.69 469.53,-382.9"/>
</a>
</g>
</g>
<!-- Node6 -->
<g id="Node000006" class="node">
<title>Node6</title>
<g id="a_Node000006"><a xlink:href="namespace_nuki_lock.html#add2fab4b3c435a5bdbac6100ab0bbc42" target="_top" xlink:title=" ">
<polygon fill="white" stroke="#666666" points="352.62,-536.88 218.12,-536.88 218.12,-517.62 352.62,-517.62 352.62,-536.88"/>
<text text-anchor="middle" x="285.38" y="-523.38" font-family="Helvetica,sans-Serif" font-size="10.00">NukiLock::logBatteryReport</text>
</a>
</g>
</g>
<!-- Node1&#45;&gt;Node6 -->
<g id="edge5_Node000001_Node000006" class="edge">
<title>Node1&#45;&gt;Node6</title>
<g id="a_edge5_Node000001_Node000006"><a xlink:title=" ">
<path fill="none" stroke="#63b8ff" d="M461.71,-381.54C448.16,-413.96 417.08,-477.06 369.5,-509.25 364.36,-512.73 358.68,-515.55 352.75,-517.83"/>
<polygon fill="#63b8ff" stroke="#63b8ff" points="464.86,-383.08 465.34,-372.5 458.36,-380.47 464.86,-383.08"/>
</a>
</g>
</g>
<!-- Node7 -->
<g id="Node000007" class="node">
<title>Node7</title>
<g id="a_Node000007"><a xlink:href="namespace_nuki_lock.html#ab086ceeda3d1303bb71b60d978ef3467" target="_top" xlink:title=" ">
<polygon fill="white" stroke="#666666" points="336.5,-462.88 234.25,-462.88 234.25,-443.62 336.5,-443.62 336.5,-462.88"/>
<text text-anchor="middle" x="285.38" y="-449.38" font-family="Helvetica,sans-Serif" font-size="10.00">NukiLock::logConfig</text>
</a>
</g>
</g>
<!-- Node1&#45;&gt;Node7 -->
<g id="edge7_Node000001_Node000007" class="edge">
<title>Node1&#45;&gt;Node7</title>
<g id="a_edge7_Node000001_Node000007"><a xlink:title=" ">
<path fill="none" stroke="#63b8ff" d="M450.7,-378.65C431.64,-395.35 400.6,-420.08 369.5,-434.25 359.26,-438.92 347.78,-442.49 336.69,-445.2"/>
<polygon fill="#63b8ff" stroke="#63b8ff" points="452.8,-381.46 457.91,-372.19 448.13,-376.25 452.8,-381.46"/>
</a>
</g>
</g>
<!-- Node8 -->
<g id="Node000008" class="node">
<title>Node8</title>
<g id="a_Node000008"><a xlink:href="namespace_nuki_lock.html#abd7c5e26ea58dc4c04bd5cb9a81d37e7" target="_top" xlink:title=" ">
<polygon fill="white" stroke="#666666" points="350,-499.88 220.75,-499.88 220.75,-480.62 350,-480.62 350,-499.88"/>
<text text-anchor="middle" x="285.38" y="-486.38" font-family="Helvetica,sans-Serif" font-size="10.00">NukiLock::logKeypadEntry</text>
</a>
</g>
</g>
<!-- Node1&#45;&gt;Node8 -->
<g id="edge9_Node000001_Node000008" class="edge">
<title>Node1&#45;&gt;Node8</title>
<g id="a_edge9_Node000001_Node000008"><a xlink:title=" ">
<path fill="none" stroke="#63b8ff" d="M457.6,-380.72C441.08,-405.97 408.77,-449.48 369.5,-472.25 363.5,-475.73 356.89,-478.54 350.12,-480.81"/>
<polygon fill="#63b8ff" stroke="#63b8ff" points="460.47,-382.72 462.87,-372.4 454.56,-378.97 460.47,-382.72"/>
</a>
</g>
</g>
<!-- Node9 -->
<g id="Node000009" class="node">
<title>Node9</title>
<g id="a_Node000009"><a xlink:href="namespace_nuki_lock.html#ab1986f14b91343876f9fb360da901791" target="_top" xlink:title=" ">
<polygon fill="white" stroke="#666666" points="355.25,-696.88 215.5,-696.88 215.5,-677.62 355.25,-677.62 355.25,-696.88"/>
<text text-anchor="middle" x="285.38" y="-683.38" font-family="Helvetica,sans-Serif" font-size="10.00">NukiLock::logKeyturnerState</text>
</a>
</g>
</g>
<!-- Node1&#45;&gt;Node9 -->
<g id="edge10_Node000001_Node000009" class="edge">
<title>Node1&#45;&gt;Node9</title>
<g id="a_edge10_Node000001_Node000009"><a xlink:title=" ">
<path fill="none" stroke="#63b8ff" d="M469.4,-382.3C467.92,-438.17 455.78,-591.25 369.5,-669.25 365.34,-673.01 360.58,-676.06 355.49,-678.51"/>
<polygon fill="#63b8ff" stroke="#63b8ff" points="472.89,-382.66 469.55,-372.61 465.89,-382.55 472.89,-382.66"/>
</a>
</g>
</g>
<!-- Node10 -->
<g id="Node000010" class="node">
<title>Node10</title>
<g id="a_Node000010"><a xlink:href="namespace_nuki_lock.html#a6dc562c3f2e49e34b447de8ba53e64bf" target="_top" xlink:title=" ">
<polygon fill="white" stroke="#666666" points="342.12,-659.88 228.62,-659.88 228.62,-640.62 342.12,-640.62 342.12,-659.88"/>
<text text-anchor="middle" x="285.38" y="-646.38" font-family="Helvetica,sans-Serif" font-size="10.00">NukiLock::logLogEntry</text>
</a>
</g>
</g>
<!-- Node1&#45;&gt;Node10 -->
<g id="edge12_Node000001_Node000010" class="edge">
<title>Node1&#45;&gt;Node10</title>
<g id="a_edge12_Node000001_Node000010"><a xlink:title=" ">
<path fill="none" stroke="#63b8ff" d="M468.24,-382.36C464.01,-433.4 445.86,-564.22 369.5,-631.25 361.82,-637.99 352.25,-642.47 342.35,-645.43"/>
<polygon fill="#63b8ff" stroke="#63b8ff" points="471.71,-382.93 468.93,-372.7 464.73,-382.42 471.71,-382.93"/>
</a>
</g>
</g>
<!-- Node11 -->
<g id="Node000011" class="node">
<title>Node11</title>
<g id="a_Node000011"><a xlink:href="namespace_nuki_lock.html#aae8c01cd0dfed352b308749595936440" target="_top" xlink:title=" ">
<polygon fill="white" stroke="#666666" points="354.88,-376.5 215.88,-376.5 215.88,-346 354.88,-346 354.88,-376.5"/>
<text text-anchor="start" x="223.88" y="-363" font-family="Helvetica,sans-Serif" font-size="10.00">NukiLock::logNewAdvanced</text>
<text text-anchor="middle" x="285.38" y="-351.75" font-family="Helvetica,sans-Serif" font-size="10.00">Config</text>
</a>
</g>
</g>
<!-- Node1&#45;&gt;Node11 -->
<g id="edge14_Node000001_Node000011" class="edge">
<title>Node1&#45;&gt;Node11</title>
<g id="a_edge14_Node000001_Node000011"><a xlink:title=" ">
<path fill="none" stroke="#63b8ff" d="M394.03,-361.25C381.17,-361.25 367.87,-361.25 355.19,-361.25"/>
<polygon fill="#63b8ff" stroke="#63b8ff" points="393.68,-364.75 403.68,-361.25 393.68,-357.75 393.68,-364.75"/>
</a>
</g>
</g>
<!-- Node12 -->
<g id="Node000012" class="node">
<title>Node12</title>
<g id="a_Node000012"><a xlink:href="namespace_nuki_lock.html#a630414184015ed567084332b87f2b0ad" target="_top" xlink:title=" ">
<polygon fill="white" stroke="#666666" points="361.25,-252.5 209.5,-252.5 209.5,-222 361.25,-222 361.25,-252.5"/>
<text text-anchor="start" x="217.5" y="-239" font-family="Helvetica,sans-Serif" font-size="10.00">NukiLock::logNewAuthorization</text>
<text text-anchor="middle" x="285.38" y="-227.75" font-family="Helvetica,sans-Serif" font-size="10.00">Entry</text>
</a>
</g>
</g>
<!-- Node1&#45;&gt;Node12 -->
<g id="edge15_Node000001_Node000012" class="edge">
<title>Node1&#45;&gt;Node12</title>
<g id="a_edge15_Node000001_Node000012"><a xlink:title=" ">
<path fill="none" stroke="#63b8ff" d="M455.62,-342.45C438.03,-319.92 405.6,-282.56 369.5,-261.25 364.2,-258.12 358.46,-255.38 352.56,-252.98"/>
<polygon fill="#63b8ff" stroke="#63b8ff" points="452.66,-344.34 461.51,-350.17 458.23,-340.1 452.66,-344.34"/>
</a>
</g>
</g>
<!-- Node14 -->
<g id="Node000014" class="node">
<title>Node14</title>
<g id="a_Node000014"><a xlink:href="namespace_nuki_lock.html#a2598cc6498f2457f7bf30fce59685e0b" target="_top" xlink:title=" ">
<polygon fill="white" stroke="#666666" points="346.62,-289.88 224.12,-289.88 224.12,-270.62 346.62,-270.62 346.62,-289.88"/>
<text text-anchor="middle" x="285.38" y="-276.38" font-family="Helvetica,sans-Serif" font-size="10.00">NukiLock::logNewConfig</text>
</a>
</g>
</g>
<!-- Node1&#45;&gt;Node14 -->
<g id="edge17_Node000001_Node000014" class="edge">
<title>Node1&#45;&gt;Node14</title>
<g id="a_edge17_Node000001_Node000014"><a xlink:title=" ">
<path fill="none" stroke="#63b8ff" d="M445.05,-345.13C425.31,-332.65 396.46,-315.64 369.5,-304.25 356.49,-298.76 341.83,-294.06 328.48,-290.32"/>
<polygon fill="#63b8ff" stroke="#63b8ff" points="442.91,-347.91 453.22,-350.37 446.69,-342.02 442.91,-347.91"/>
</a>
</g>
</g>
<!-- Node15 -->
<g id="Node000015" class="node">
<title>Node15</title>
<g id="a_Node000015"><a xlink:href="namespace_nuki_lock.html#a27d784854d32c047bd88453667f7d942" target="_top" xlink:title=" ">
<polygon fill="white" stroke="#666666" points="360.12,-203.88 210.62,-203.88 210.62,-184.62 360.12,-184.62 360.12,-203.88"/>
<text text-anchor="middle" x="285.38" y="-190.38" font-family="Helvetica,sans-Serif" font-size="10.00">NukiLock::logNewKeypadEntry</text>
</a>
</g>
</g>
<!-- Node1&#45;&gt;Node15 -->
<g id="edge18_Node000001_Node000015" class="edge">
<title>Node1&#45;&gt;Node15</title>
<g id="a_edge18_Node000001_Node000015"><a xlink:title=" ">
<path fill="none" stroke="#63b8ff" d="M461.67,-341.03C448.06,-308.7 416.89,-245.72 369.5,-213.25 364.25,-209.65 358.42,-206.73 352.35,-204.35"/>
<polygon fill="#63b8ff" stroke="#63b8ff" points="458.32,-342.08 465.32,-350.03 464.81,-339.45 458.32,-342.08"/>
</a>
</g>
</g>
<!-- Node17 -->
<g id="Node000017" class="node">
<title>Node17</title>
<g id="a_Node000017"><a xlink:href="namespace_nuki_lock.html#a765365aab0b5b13b9bab3076326b877e" target="_top" xlink:title=" ">
<polygon fill="white" stroke="#666666" points="359.38,-425.5 211.38,-425.5 211.38,-395 359.38,-395 359.38,-425.5"/>
<text text-anchor="start" x="219.38" y="-412" font-family="Helvetica,sans-Serif" font-size="10.00">NukiLock::logNewTimeControl</text>
<text text-anchor="middle" x="285.38" y="-400.75" font-family="Helvetica,sans-Serif" font-size="10.00">Entry</text>
</a>
</g>
</g>
<!-- Node1&#45;&gt;Node17 -->
<g id="edge20_Node000001_Node000017" class="edge">
<title>Node1&#45;&gt;Node17</title>
<g id="a_edge20_Node000001_Node000017"><a xlink:title=" ">
<path fill="none" stroke="#63b8ff" d="M420.99,-374.23C397.7,-380.46 369.59,-387.98 345.1,-394.54"/>
<polygon fill="#63b8ff" stroke="#63b8ff" points="421.78,-377.64 430.54,-371.68 419.97,-370.88 421.78,-377.64"/>
</a>
</g>
</g>
<!-- Node18 -->
<g id="Node000018" class="node">
<title>Node18</title>
<g id="a_Node000018"><a xlink:href="namespace_nuki_lock.html#ab7a8e7266f3ff581a0c32d1adb638ff7" target="_top" xlink:title=" ">
<polygon fill="white" stroke="#666666" points="349.25,-128.5 221.5,-128.5 221.5,-98 349.25,-98 349.25,-128.5"/>
<text text-anchor="start" x="229.5" y="-115" font-family="Helvetica,sans-Serif" font-size="10.00">NukiLock::logTimeControl</text>
<text text-anchor="middle" x="285.38" y="-103.75" font-family="Helvetica,sans-Serif" font-size="10.00">Entry</text>
</a>
</g>
</g>
<!-- Node1&#45;&gt;Node18 -->
<g id="edge22_Node000001_Node000018" class="edge">
<title>Node1&#45;&gt;Node18</title>
<g id="a_edge22_Node000001_Node000018"><a xlink:title=" ">
<path fill="none" stroke="#63b8ff" d="M465.66,-340.29C456.66,-297.09 430.23,-197.6 369.5,-142.25 363.63,-136.9 356.71,-132.52 349.41,-128.95"/>
<polygon fill="#63b8ff" stroke="#63b8ff" points="462.17,-340.71 467.53,-349.85 469.04,-339.36 462.17,-340.71"/>
</a>
</g>
</g>
<!-- Node19 -->
<g id="Node000019" class="node">
<title>Node19</title>
<g id="a_Node000019"><a xlink:href="class_nuki_lock_1_1_nuki_lock.html#a8d1a06e5fa6f5fb06923c74fb8c6f6d7" target="_top" xlink:title="Sends an updated time(d) control entry via BLE to the lock. (see addTimeControlEntry())">
<polygon fill="white" stroke="#666666" points="144.62,-144.5 20.62,-144.5 20.62,-114 144.62,-114 144.62,-144.5"/>
<text text-anchor="start" x="28.62" y="-131" font-family="Helvetica,sans-Serif" font-size="10.00">NukiLock::NukiLock</text>
<text text-anchor="middle" x="82.62" y="-119.75" font-family="Helvetica,sans-Serif" font-size="10.00">::updateTimeControlEntry</text>
</a>
</g>
</g>
<!-- Node1&#45;&gt;Node19 -->
<g id="edge28_Node000001_Node000019" class="edge">
<title>Node1&#45;&gt;Node19</title>
<g id="a_edge28_Node000001_Node000019"><a xlink:title=" ">
<path fill="none" stroke="#63b8ff" d="M464.8,-340.52C454.74,-301.25 427.18,-216.3 369.5,-175.25 334.38,-150.26 218.02,-138.11 145.02,-132.81"/>
<polygon fill="#63b8ff" stroke="#63b8ff" points="461.36,-341.18 467.11,-350.08 468.17,-339.53 461.36,-341.18"/>
</a>
</g>
</g>
<!-- Node20 -->
<g id="Node000020" class="node">
<title>Node20</title>
<g id="a_Node000020"><a xlink:href="namespace_nuki_lock.html#a2ebb97ddf9c98aa499df020dc8c96e27" target="_top" xlink:title=" ">
<polygon fill="white" stroke="#666666" points="369.5,-79.5 201.25,-79.5 201.25,-49 369.5,-49 369.5,-79.5"/>
<text text-anchor="start" x="209.25" y="-66" font-family="Helvetica,sans-Serif" font-size="10.00">NukiLock::logUpdatedAuthorization</text>
<text text-anchor="middle" x="285.38" y="-54.75" font-family="Helvetica,sans-Serif" font-size="10.00">Entry</text>
</a>
</g>
</g>
<!-- Node1&#45;&gt;Node20 -->
<g id="edge24_Node000001_Node000020" class="edge">
<title>Node1&#45;&gt;Node20</title>
<g id="a_edge24_Node000001_Node000020"><a xlink:title=" ">
<path fill="none" stroke="#63b8ff" d="M467.96,-339.96C463.13,-289.03 443.79,-159.2 369.5,-89.25 365.66,-85.63 361.32,-82.54 356.68,-79.89"/>
<polygon fill="#63b8ff" stroke="#63b8ff" points="464.45,-339.95 468.78,-349.62 471.43,-339.36 464.45,-339.95"/>
</a>
</g>
</g>
<!-- Node22 -->
<g id="Node000022" class="node">
<title>Node22</title>
<g id="a_Node000022"><a xlink:href="namespace_nuki_lock.html#a2afef62c8ad3997e1154ffaabbd645de" target="_top" xlink:title=" ">
<polygon fill="white" stroke="#666666" points="357.5,-30.5 213.25,-30.5 213.25,0 357.5,0 357.5,-30.5"/>
<text text-anchor="start" x="221.25" y="-17" font-family="Helvetica,sans-Serif" font-size="10.00">NukiLock::logUpdatedKeypad</text>
<text text-anchor="middle" x="285.38" y="-5.75" font-family="Helvetica,sans-Serif" font-size="10.00">Entry</text>
</a>
</g>
</g>
<!-- Node1&#45;&gt;Node22 -->
<g id="edge26_Node000001_Node000022" class="edge">
<title>Node1&#45;&gt;Node22</title>
<g id="a_edge26_Node000001_Node000022"><a xlink:title=" ">
<path fill="none" stroke="#63b8ff" d="M469.35,-339.72C467.74,-282.5 455.31,-125.22 369.5,-40.25 365.86,-36.64 361.72,-33.56 357.28,-30.91"/>
<polygon fill="#63b8ff" stroke="#63b8ff" points="465.85,-339.74 469.53,-349.68 472.84,-339.61 465.85,-339.74"/>
</a>
</g>
</g>
<!-- Node4 -->
<g id="Node000004" class="node">
<title>Node4</title>
<g id="a_Node000004"><a xlink:href="class_nuki_lock_1_1_nuki_lock.html#a8d9fc4e4a1bde183754ced8b783f82d5" target="_top" xlink:title=" ">
<polygon fill="white" stroke="#666666" points="141.25,-579.5 24,-579.5 24,-549 141.25,-549 141.25,-579.5"/>
<text text-anchor="start" x="32" y="-566" font-family="Helvetica,sans-Serif" font-size="10.00">NukiLock::NukiLock</text>
<text text-anchor="middle" x="82.62" y="-554.75" font-family="Helvetica,sans-Serif" font-size="10.00">::handleReturnMessage</text>
</a>
</g>
</g>
<!-- Node3&#45;&gt;Node4 -->
<g id="edge3_Node000003_Node000004" class="edge">
<title>Node3&#45;&gt;Node4</title>
<g id="a_edge3_Node000003_Node000004"><a xlink:title=" ">
<path fill="none" stroke="#63b8ff" d="M200.91,-564.25C181,-564.25 160.17,-564.25 141.68,-564.25"/>
<polygon fill="#63b8ff" stroke="#63b8ff" points="200.67,-567.75 210.67,-564.25 200.67,-560.75 200.67,-567.75"/>
</a>
</g>
</g>
<!-- Node6&#45;&gt;Node4 -->
<g id="edge6_Node000006_Node000004" class="edge">
<title>Node6&#45;&gt;Node4</title>
<g id="a_edge6_Node000006_Node000004"><a xlink:title=" ">
<path fill="none" stroke="#63b8ff" d="M218.37,-539.41C193.57,-543.99 165.59,-549.14 141.57,-553.57"/>
<polygon fill="#63b8ff" stroke="#63b8ff" points="218.83,-542.89 228.03,-537.63 217.56,-536.01 218.83,-542.89"/>
</a>
</g>
</g>
<!-- Node7&#45;&gt;Node4 -->
<g id="edge8_Node000007_Node000004" class="edge">
<title>Node7&#45;&gt;Node4</title>
<g id="a_edge8_Node000007_Node000004"><a xlink:title=" ">
<path fill="none" stroke="#63b8ff" d="M222.96,-463.2C215.47,-465.38 208.07,-468.03 201.25,-471.25 159.58,-490.92 119.3,-527.85 98.41,-548.77"/>
<polygon fill="#63b8ff" stroke="#63b8ff" points="223.68,-466.63 232.47,-460.71 221.9,-459.86 223.68,-466.63"/>
</a>
</g>
</g>
<!-- Node9&#45;&gt;Node4 -->
<g id="edge11_Node000009_Node000004" class="edge">
<title>Node9&#45;&gt;Node4</title>
<g id="a_edge11_Node000009_Node000004"><a xlink:title=" ">
<path fill="none" stroke="#63b8ff" d="M210.26,-673.33C207.16,-672.08 204.15,-670.73 201.25,-669.25 156.85,-646.64 116.13,-603.11 96.3,-579.83"/>
<polygon fill="#63b8ff" stroke="#63b8ff" points="208.97,-676.58 219.57,-676.64 211.32,-669.99 208.97,-676.58"/>
</a>
</g>
</g>
<!-- Node10&#45;&gt;Node4 -->
<g id="edge13_Node000010_Node000004" class="edge">
<title>Node10&#45;&gt;Node4</title>
<g id="a_edge13_Node000010_Node000004"><a xlink:title=" ">
<path fill="none" stroke="#63b8ff" d="M218.77,-637.17C212.77,-635.4 206.85,-633.43 201.25,-631.25 166.43,-617.69 129.49,-595.13 106.49,-579.98"/>
<polygon fill="#63b8ff" stroke="#63b8ff" points="217.55,-640.46 228.12,-639.73 219.4,-633.71 217.55,-640.46"/>
</a>
</g>
</g>
<!-- Node13 -->
<g id="Node000013" class="node">
<title>Node13</title>
<g id="a_Node000013"><a xlink:href="class_nuki_1_1_nuki_ble.html#a8c69d960c9034d3ae5877285b666f09c" target="_top" xlink:title="Sends a new authorization entry to the lock via BLE.">
<polygon fill="white" stroke="#666666" points="158.5,-255.5 6.75,-255.5 6.75,-225 158.5,-225 158.5,-255.5"/>
<text text-anchor="start" x="14.75" y="-242" font-family="Helvetica,sans-Serif" font-size="10.00">Nuki::NukiBle::addAuthorization</text>
<text text-anchor="middle" x="82.62" y="-230.75" font-family="Helvetica,sans-Serif" font-size="10.00">Entry</text>
</a>
</g>
</g>
<!-- Node12&#45;&gt;Node13 -->
<g id="edge16_Node000012_Node000013" class="edge">
<title>Node12&#45;&gt;Node13</title>
<g id="a_edge16_Node000012_Node000013"><a xlink:title=" ">
<path fill="none" stroke="#63b8ff" d="M197.73,-238.54C184.74,-238.74 171.43,-238.94 158.7,-239.13"/>
<polygon fill="#63b8ff" stroke="#63b8ff" points="197.59,-242.05 207.54,-238.4 197.49,-235.05 197.59,-242.05"/>
</a>
</g>
</g>
<!-- Node16 -->
<g id="Node000016" class="node">
<title>Node16</title>
<g id="a_Node000016"><a xlink:href="class_nuki_1_1_nuki_ble.html#ad96ef33212df343aa1433229f58f2ff7" target="_top" xlink:title="Send a new keypad entry to the lock via BLE.">
<polygon fill="white" stroke="#666666" points="146.5,-206.5 18.75,-206.5 18.75,-176 146.5,-176 146.5,-206.5"/>
<text text-anchor="start" x="26.75" y="-193" font-family="Helvetica,sans-Serif" font-size="10.00">Nuki::NukiBle::addKeypad</text>
<text text-anchor="middle" x="82.62" y="-181.75" font-family="Helvetica,sans-Serif" font-size="10.00">Entry</text>
</a>
</g>
</g>
<!-- Node15&#45;&gt;Node16 -->
<g id="edge19_Node000015_Node000016" class="edge">
<title>Node15&#45;&gt;Node16</title>
<g id="a_edge19_Node000015_Node000016"><a xlink:title=" ">
<path fill="none" stroke="#63b8ff" d="M198.86,-192.97C181.45,-192.71 163.43,-192.44 146.95,-192.2"/>
<polygon fill="#63b8ff" stroke="#63b8ff" points="198.63,-196.47 208.68,-193.12 198.73,-189.47 198.63,-196.47"/>
</a>
</g>
</g>
<!-- Node17&#45;&gt;Node2 -->
<g id="edge21_Node000017_Node000002" class="edge">
<title>Node17&#45;&gt;Node2</title>
<g id="a_edge21_Node000017_Node000002"><a xlink:title=" ">
<path fill="none" stroke="#63b8ff" d="M204.7,-391.99C182.42,-386.89 158.71,-381.46 138.24,-376.76"/>
<polygon fill="#63b8ff" stroke="#63b8ff" points="203.85,-395.39 214.37,-394.21 205.41,-388.56 203.85,-395.39"/>
</a>
</g>
</g>
<!-- Node18&#45;&gt;Node19 -->
<g id="edge23_Node000018_Node000019" class="edge">
<title>Node18&#45;&gt;Node19</title>
<g id="a_edge23_Node000018_Node000019"><a xlink:title=" ">
<path fill="none" stroke="#63b8ff" d="M209.78,-119.19C188.39,-120.9 165.32,-122.74 144.83,-124.37"/>
<polygon fill="#63b8ff" stroke="#63b8ff" points="209.93,-122.69 219.62,-118.41 209.38,-115.72 209.93,-122.69"/>
</a>
</g>
</g>
<!-- Node21 -->
<g id="Node000021" class="node">
<title>Node21</title>
<g id="a_Node000021"><a xlink:href="class_nuki_1_1_nuki_ble.html#af47efb4e020a327687327ad82963b347" target="_top" xlink:title="Sends an updated authorization entry to the lock via BLE.">
<polygon fill="white" stroke="#666666" points="165.25,-79.5 0,-79.5 0,-49 165.25,-49 165.25,-79.5"/>
<text text-anchor="start" x="8" y="-66" font-family="Helvetica,sans-Serif" font-size="10.00">Nuki::NukiBle::updateAuthorization</text>
<text text-anchor="middle" x="82.62" y="-54.75" font-family="Helvetica,sans-Serif" font-size="10.00">Entry</text>
</a>
</g>
</g>
<!-- Node20&#45;&gt;Node21 -->
<g id="edge25_Node000020_Node000021" class="edge">
<title>Node20&#45;&gt;Node21</title>
<g id="a_edge25_Node000020_Node000021"><a xlink:title=" ">
<path fill="none" stroke="#63b8ff" d="M189.62,-64.25C181.55,-64.25 173.43,-64.25 165.47,-64.25"/>
<polygon fill="#63b8ff" stroke="#63b8ff" points="189.47,-67.75 199.47,-64.25 189.47,-60.75 189.47,-67.75"/>
</a>
</g>
</g>
<!-- Node23 -->
<g id="Node000023" class="node">
<title>Node23</title>
<g id="a_Node000023"><a xlink:href="class_nuki_1_1_nuki_ble.html#a0f1be2034e079e676a7771dfb775df81" target="_top" xlink:title="Send an updated keypad entry to the lock via BLE.">
<polygon fill="white" stroke="#666666" points="153.25,-30.5 12,-30.5 12,0 153.25,0 153.25,-30.5"/>
<text text-anchor="start" x="20" y="-17" font-family="Helvetica,sans-Serif" font-size="10.00">Nuki::NukiBle::updateKeypad</text>
<text text-anchor="middle" x="82.62" y="-5.75" font-family="Helvetica,sans-Serif" font-size="10.00">Entry</text>
</a>
</g>
</g>
<!-- Node22&#45;&gt;Node23 -->
<g id="edge27_Node000022_Node000023" class="edge">
<title>Node22&#45;&gt;Node23</title>
<g id="a_edge27_Node000022_Node000023"><a xlink:title=" ">
<path fill="none" stroke="#63b8ff" d="M201.59,-15.25C185.69,-15.25 169.18,-15.25 153.73,-15.25"/>
<polygon fill="#63b8ff" stroke="#63b8ff" points="201.52,-18.75 211.52,-15.25 201.52,-11.75 201.52,-18.75"/>
</a>
</g>
</g>
</g>
</svg>
