<?xml version="1.0" encoding="UTF-8" standalone="no"?>
<!DOCTYPE svg PUBLIC "-//W3C//DTD SVG 1.1//EN"
 "http://www.w3.org/Graphics/SVG/1.1/DTD/svg11.dtd">
<!-- Generated by graphviz version 5.0.1 (20220820.1526)
 -->
<!-- Title: NukiOpener::logCompletionStatus Pages: 1 -->
<svg width="552pt" height="82pt"
 viewBox="0.00 0.00 552.00 81.50" xmlns="http://www.w3.org/2000/svg" xmlns:xlink="http://www.w3.org/1999/xlink">
<g id="graph0" class="graph" transform="scale(1 1) rotate(0) translate(4 77.5)">
<title>NukiOpener::logCompletionStatus</title>
<!-- Node1 -->
<g id="node1" class="node">
<title>Node1</title>
<g id="a_node1"><a xlink:title=" ">
<polygon fill="#999999" stroke="#666666" points="544,-50.5 380,-50.5 380,-16.5 544,-16.5 544,-50.5"/>
<text text-anchor="start" x="388" y="-36.9" font-family="Helvetica,sans-Serif" font-size="12.00">NukiOpener::logCompletion</text>
<text text-anchor="middle" x="462" y="-23.9" font-family="Helvetica,sans-Serif" font-size="12.00">Status</text>
</a>
</g>
</g>
<!-- Node2 -->
<g id="node2" class="node">
<title>Node2</title>
<g id="a_node2"><a xlink:href="namespace_nuki_opener.html#ad694b05ff6125ebf77e067be3002d075" target="_top" xlink:title=" ">
<polygon fill="white" stroke="#666666" points="344,-73.5 189,-73.5 189,-39.5 344,-39.5 344,-73.5"/>
<text text-anchor="start" x="197" y="-59.9" font-family="Helvetica,sans-Serif" font-size="12.00">NukiOpener::logKeyturner</text>
<text text-anchor="middle" x="266.5" y="-46.9" font-family="Helvetica,sans-Serif" font-size="12.00">State</text>
</a>
</g>
</g>
<!-- Node1&#45;&gt;Node2 -->
<g id="edge1" class="edge">
<title>Node1&#45;&gt;Node2</title>
<path fill="none" stroke="#63b8ff" d="M369.77,-44.34C361.21,-45.36 352.59,-46.39 344.19,-47.38"/>
<polygon fill="#63b8ff" stroke="#63b8ff" points="370.26,-47.81 379.78,-43.15 369.44,-40.86 370.26,-47.81"/>
</g>
<!-- Node4 -->
<g id="node4" class="node">
<title>Node4</title>
<g id="a_node4"><a xlink:href="namespace_nuki_opener.html#a1c24f78474980cc2d90ee83e371621c4" target="_top" xlink:title=" ">
<polygon fill="white" stroke="#666666" points="342,-21 191,-21 191,0 342,0 342,-21"/>
<text text-anchor="middle" x="266.5" y="-7.4" font-family="Helvetica,sans-Serif" font-size="12.00">NukiOpener::logLogEntry</text>
</a>
</g>
</g>
<!-- Node1&#45;&gt;Node4 -->
<g id="edge3" class="edge">
<title>Node1&#45;&gt;Node4</title>
<path fill="none" stroke="#63b8ff" d="M369.75,-22.65C360.46,-21.55 351.11,-20.44 342.04,-19.36"/>
<polygon fill="#63b8ff" stroke="#63b8ff" points="369.44,-26.14 379.78,-23.85 370.26,-19.19 369.44,-26.14"/>
</g>
<!-- Node3 -->
<g id="node3" class="node">
<title>Node3</title>
<g id="a_node3"><a xlink:href="class_nuki_opener_1_1_nuki_opener.html#a19ad4317e201ebe5e43ad55b6ea906da" target="_top" xlink:title=" ">
<polygon fill="white" stroke="#666666" points="153,-50.5 0,-50.5 0,-16.5 153,-16.5 153,-50.5"/>
<text text-anchor="start" x="8" y="-36.9" font-family="Helvetica,sans-Serif" font-size="12.00">NukiOpener::NukiOpener</text>
<text text-anchor="middle" x="76.5" y="-23.9" font-family="Helvetica,sans-Serif" font-size="12.00">::handleReturnMessage</text>
</a>
</g>
</g>
<!-- Node2&#45;&gt;Node3 -->
<g id="edge2" class="edge">
<title>Node2&#45;&gt;Node3</title>
<path fill="none" stroke="#63b8ff" d="M178.75,-45.89C170.18,-44.84 161.53,-43.78 153.08,-42.75"/>
<polygon fill="#63b8ff" stroke="#63b8ff" points="178.41,-49.37 188.76,-47.11 179.26,-42.42 178.41,-49.37"/>
</g>
<!-- Node4&#45;&gt;Node3 -->
<g id="edge4" class="edge">
<title>Node4&#45;&gt;Node3</title>
<path fill="none" stroke="#63b8ff" d="M180.96,-20.84C171.71,-21.97 162.34,-23.12 153.21,-24.24"/>
<polygon fill="#63b8ff" stroke="#63b8ff" points="181.43,-24.31 190.93,-19.62 180.58,-17.36 181.43,-24.31"/>
</g>
</g>
</svg>
