<?xml version="1.0" encoding="UTF-8" standalone="no"?>
<!DOCTYPE svg PUBLIC "-//W3C//DTD SVG 1.1//EN"
 "http://www.w3.org/Graphics/SVG/1.1/DTD/svg11.dtd">
<!-- Generated by graphviz version 12.2.1 (20241206.2353)
 -->
<!-- Title: NukiOpener::logMessage Pages: 1 -->
<svg width="650pt" height="268pt"
 viewBox="0.00 0.00 650.25 267.60" xmlns="http://www.w3.org/2000/svg" xmlns:xlink="http://www.w3.org/1999/xlink">
<g id="graph0" class="graph" transform="scale(1 1) rotate(0) translate(4 263.6)">
<title>NukiOpener::logMessage</title>
<!-- Node1 -->
<g id="Node000001" class="node">
<title>Node1</title>
<g id="a_Node000001"><a xlink:title=" ">
<polygon fill="#999999" stroke="#666666" points="642.25,-143.88 517.5,-143.88 517.5,-124.62 642.25,-124.62 642.25,-143.88"/>
<text text-anchor="middle" x="579.88" y="-130.38" font-family="Helvetica,sans-Serif" font-size="10.00">NukiOpener::logMessage</text>
</a>
</g>
</g>
<!-- Node2 -->
<g id="Node000002" class="node">
<title>Node2</title>
<g id="a_Node000002"><a xlink:href="namespace_nuki_opener.html#a6bf8f7b28ff29642c9206fe6fc3e0070" target="_top" xlink:title=" ">
<polygon fill="white" stroke="#666666" points="468.75,-192.5 335,-192.5 335,-162 468.75,-162 468.75,-192.5"/>
<text text-anchor="start" x="343" y="-179" font-family="Helvetica,sans-Serif" font-size="10.00">NukiOpener::logCompletion</text>
<text text-anchor="middle" x="401.88" y="-167.75" font-family="Helvetica,sans-Serif" font-size="10.00">Status</text>
</a>
</g>
</g>
<!-- Node1&#45;&gt;Node2 -->
<g id="edge1_Node000001_Node000002" class="edge">
<title>Node1&#45;&gt;Node2</title>
<g id="a_edge1_Node000001_Node000002"><a xlink:title=" ">
<path fill="none" stroke="#63b8ff" d="M526.68,-147C508.05,-151.55 486.84,-156.74 467.3,-161.51"/>
<polygon fill="#63b8ff" stroke="#63b8ff" points="527.26,-150.46 536.14,-144.69 525.6,-143.66 527.26,-150.46"/>
</a>
</g>
</g>
<!-- Node5 -->
<g id="Node000005" class="node">
<title>Node5</title>
<g id="a_Node000005"><a xlink:href="namespace_nuki_opener.html#ad5810b4aac856a27473aedd0fe8f433e" target="_top" xlink:title=" ">
<polygon fill="white" stroke="#666666" points="284.75,-143.88 161.5,-143.88 161.5,-124.62 284.75,-124.62 284.75,-143.88"/>
<text text-anchor="middle" x="223.12" y="-130.38" font-family="Helvetica,sans-Serif" font-size="10.00">NukiOpener::logLogEntry</text>
</a>
</g>
</g>
<!-- Node1&#45;&gt;Node5 -->
<g id="edge11_Node000001_Node000005" class="edge">
<title>Node1&#45;&gt;Node5</title>
<g id="a_edge11_Node000001_Node000005"><a xlink:title=" ">
<path fill="none" stroke="#63b8ff" d="M525.39,-121.89C511.2,-119.14 495.84,-116.64 481.5,-115.25 411.05,-108.44 392.7,-108.49 322.25,-115.25 303.94,-117.01 283.97,-120.57 266.85,-124.13"/>
<polygon fill="#63b8ff" stroke="#63b8ff" points="524.5,-125.28 534.99,-123.83 525.88,-118.42 524.5,-125.28"/>
</a>
</g>
</g>
<!-- Node6 -->
<g id="Node000006" class="node">
<title>Node6</title>
<g id="a_Node000006"><a xlink:href="namespace_nuki_opener.html#a2e6270c8700b5a83a853b534ce59a08f" target="_top" xlink:title=" ">
<polygon fill="white" stroke="#666666" points="279.12,-248.88 167.12,-248.88 167.12,-229.62 279.12,-229.62 279.12,-248.88"/>
<text text-anchor="middle" x="223.12" y="-235.38" font-family="Helvetica,sans-Serif" font-size="10.00">NukiOpener::logConfig</text>
</a>
</g>
</g>
<!-- Node1&#45;&gt;Node6 -->
<g id="edge6_Node000001_Node000006" class="edge">
<title>Node1&#45;&gt;Node6</title>
<g id="a_edge6_Node000001_Node000006"><a xlink:title=" ">
<path fill="none" stroke="#63b8ff" d="M567.77,-153.91C552.24,-179.17 521.38,-221.85 481.5,-239.25 411.47,-269.81 320.16,-259.55 267.24,-249.36"/>
<polygon fill="#63b8ff" stroke="#63b8ff" points="570.63,-155.96 572.71,-145.57 564.6,-152.4 570.63,-155.96"/>
</a>
</g>
</g>
<!-- Node7 -->
<g id="Node000007" class="node">
<title>Node7</title>
<g id="a_Node000007"><a xlink:href="namespace_nuki_opener.html#a3e96f2a12b591da08c015e0ea11fb890" target="_top" xlink:title=" ">
<polygon fill="white" stroke="#666666" points="469.12,-143.88 334.62,-143.88 334.62,-124.62 469.12,-124.62 469.12,-143.88"/>
<text text-anchor="middle" x="401.88" y="-130.38" font-family="Helvetica,sans-Serif" font-size="10.00">NukiOpener::logLockAction</text>
</a>
</g>
</g>
<!-- Node1&#45;&gt;Node7 -->
<g id="edge8_Node000001_Node000007" class="edge">
<title>Node1&#45;&gt;Node7</title>
<g id="a_edge8_Node000001_Node000007"><a xlink:title=" ">
<path fill="none" stroke="#63b8ff" d="M505.9,-134.25C493.84,-134.25 481.39,-134.25 469.49,-134.25"/>
<polygon fill="#63b8ff" stroke="#63b8ff" points="505.81,-137.75 515.81,-134.25 505.81,-130.75 505.81,-137.75"/>
</a>
</g>
</g>
<!-- Node8 -->
<g id="Node000008" class="node">
<title>Node8</title>
<g id="a_Node000008"><a xlink:href="namespace_nuki_opener.html#a447a699b1fa6e98b086dd250d8db7825" target="_top" xlink:title=" ">
<polygon fill="white" stroke="#666666" points="469.5,-229.88 334.25,-229.88 334.25,-210.62 469.5,-210.62 469.5,-229.88"/>
<text text-anchor="middle" x="401.88" y="-216.38" font-family="Helvetica,sans-Serif" font-size="10.00">NukiOpener::logNukiTrigger</text>
</a>
</g>
</g>
<!-- Node1&#45;&gt;Node8 -->
<g id="edge12_Node000001_Node000008" class="edge">
<title>Node1&#45;&gt;Node8</title>
<g id="a_edge12_Node000001_Node000008"><a xlink:title=" ">
<path fill="none" stroke="#63b8ff" d="M558.61,-151.51C539.78,-166.7 510.38,-188.36 481.5,-201.25 473.55,-204.8 464.84,-207.74 456.2,-210.17"/>
<polygon fill="#63b8ff" stroke="#63b8ff" points="560.78,-154.26 566.26,-145.2 556.32,-148.86 560.78,-154.26"/>
</a>
</g>
</g>
<!-- Node9 -->
<g id="Node000009" class="node">
<title>Node9</title>
<g id="a_Node000009"><a xlink:href="namespace_nuki_opener.html#a6083f441acdf873afa151b034ab6531f" target="_top" xlink:title=" ">
<polygon fill="white" stroke="#666666" points="481.5,-67.88 322.25,-67.88 322.25,-48.62 481.5,-48.62 481.5,-67.88"/>
<text text-anchor="middle" x="401.88" y="-54.38" font-family="Helvetica,sans-Serif" font-size="10.00">NukiOpener::logOpenerErrorCode</text>
</a>
</g>
</g>
<!-- Node1&#45;&gt;Node9 -->
<g id="edge14_Node000001_Node000009" class="edge">
<title>Node1&#45;&gt;Node9</title>
<g id="a_edge14_Node000001_Node000009"><a xlink:title=" ">
<path fill="none" stroke="#63b8ff" d="M552.65,-118.45C533.43,-107.31 506.44,-92.6 481.5,-82.25 468.58,-76.89 454.03,-72.12 440.99,-68.26"/>
<polygon fill="#63b8ff" stroke="#63b8ff" points="550.77,-121.4 561.16,-123.45 554.31,-115.36 550.77,-121.4"/>
</a>
</g>
</g>
<!-- Node11 -->
<g id="Node000011" class="node">
<title>Node11</title>
<g id="a_Node000011"><a xlink:href="class_nuki_opener_1_1_nuki_opener.html#ae43af00023df78b352c61c98730c1aa9" target="_top" xlink:title="Gets the current config from the opener, updates the name parameter and sends the new config to the o...">
<polygon fill="white" stroke="#666666" points="463.88,-30.5 339.88,-30.5 339.88,0 463.88,0 463.88,-30.5"/>
<text text-anchor="start" x="347.88" y="-17" font-family="Helvetica,sans-Serif" font-size="10.00">NukiOpener::NukiOpener</text>
<text text-anchor="middle" x="401.88" y="-5.75" font-family="Helvetica,sans-Serif" font-size="10.00">::setName</text>
</a>
</g>
</g>
<!-- Node1&#45;&gt;Node11 -->
<g id="edge16_Node000001_Node000011" class="edge">
<title>Node1&#45;&gt;Node11</title>
<g id="a_edge16_Node000001_Node000011"><a xlink:title=" ">
<path fill="none" stroke="#63b8ff" d="M564.44,-115.55C547,-94.16 515.69,-59.5 481.5,-39.25 476.1,-36.05 470.23,-33.24 464.21,-30.78"/>
<polygon fill="#63b8ff" stroke="#63b8ff" points="561.53,-117.51 570.5,-123.16 567.01,-113.15 561.53,-117.51"/>
</a>
</g>
</g>
<!-- Node3 -->
<g id="Node000003" class="node">
<title>Node3</title>
<g id="a_Node000003"><a xlink:href="namespace_nuki_opener.html#a510454c0171d807a1eebd77045481ba0" target="_top" xlink:title=" ">
<polygon fill="white" stroke="#666666" points="286.25,-192.5 160,-192.5 160,-162 286.25,-162 286.25,-192.5"/>
<text text-anchor="start" x="168" y="-179" font-family="Helvetica,sans-Serif" font-size="10.00">NukiOpener::logKeyturner</text>
<text text-anchor="middle" x="223.12" y="-167.75" font-family="Helvetica,sans-Serif" font-size="10.00">State</text>
</a>
</g>
</g>
<!-- Node2&#45;&gt;Node3 -->
<g id="edge2_Node000002_Node000003" class="edge">
<title>Node2&#45;&gt;Node3</title>
<g id="a_edge2_Node000002_Node000003"><a xlink:title=" ">
<path fill="none" stroke="#63b8ff" d="M323.4,-177.25C311.14,-177.25 298.59,-177.25 286.72,-177.25"/>
<polygon fill="#63b8ff" stroke="#63b8ff" points="323.04,-180.75 333.04,-177.25 323.04,-173.75 323.04,-180.75"/>
</a>
</g>
</g>
<!-- Node2&#45;&gt;Node5 -->
<g id="edge4_Node000002_Node000005" class="edge">
<title>Node2&#45;&gt;Node5</title>
<g id="a_edge4_Node000002_Node000005"><a xlink:title=" ">
<path fill="none" stroke="#63b8ff" d="M325.4,-158.89C304.94,-153.91 283.53,-148.7 265.7,-144.36"/>
<polygon fill="#63b8ff" stroke="#63b8ff" points="324.3,-162.22 334.84,-161.19 325.95,-155.42 324.3,-162.22"/>
</a>
</g>
</g>
<!-- Node4 -->
<g id="Node000004" class="node">
<title>Node4</title>
<g id="a_Node000004"><a xlink:href="class_nuki_opener_1_1_nuki_opener.html#a19ad4317e201ebe5e43ad55b6ea906da" target="_top" xlink:title=" ">
<polygon fill="white" stroke="#666666" points="124,-192.5 0,-192.5 0,-162 124,-162 124,-192.5"/>
<text text-anchor="start" x="8" y="-179" font-family="Helvetica,sans-Serif" font-size="10.00">NukiOpener::NukiOpener</text>
<text text-anchor="middle" x="62" y="-167.75" font-family="Helvetica,sans-Serif" font-size="10.00">::handleReturnMessage</text>
</a>
</g>
</g>
<!-- Node3&#45;&gt;Node4 -->
<g id="edge3_Node000003_Node000004" class="edge">
<title>Node3&#45;&gt;Node4</title>
<g id="a_edge3_Node000003_Node000004"><a xlink:title=" ">
<path fill="none" stroke="#63b8ff" d="M148.44,-177.25C140.42,-177.25 132.32,-177.25 124.47,-177.25"/>
<polygon fill="#63b8ff" stroke="#63b8ff" points="148.18,-180.75 158.18,-177.25 148.18,-173.75 148.18,-180.75"/>
</a>
</g>
</g>
<!-- Node5&#45;&gt;Node4 -->
<g id="edge5_Node000005_Node000004" class="edge">
<title>Node5&#45;&gt;Node4</title>
<g id="a_edge5_Node000005_Node000004"><a xlink:title=" ">
<path fill="none" stroke="#63b8ff" d="M173.74,-147.32C157.19,-151.8 138.5,-156.85 121.25,-161.51"/>
<polygon fill="#63b8ff" stroke="#63b8ff" points="174.62,-150.71 183.36,-144.73 172.79,-143.96 174.62,-150.71"/>
</a>
</g>
</g>
<!-- Node6&#45;&gt;Node4 -->
<g id="edge7_Node000006_Node000004" class="edge">
<title>Node6&#45;&gt;Node4</title>
<g id="a_edge7_Node000006_Node000004"><a xlink:title=" ">
<path fill="none" stroke="#63b8ff" d="M185.51,-224.98C160.93,-215.41 128.53,-202.78 103.23,-192.92"/>
<polygon fill="#63b8ff" stroke="#63b8ff" points="184.21,-228.23 194.79,-228.6 186.75,-221.71 184.21,-228.23"/>
</a>
</g>
</g>
<!-- Node7&#45;&gt;Node3 -->
<g id="edge9_Node000007_Node000003" class="edge">
<title>Node7&#45;&gt;Node3</title>
<g id="a_edge9_Node000007_Node000003"><a xlink:title=" ">
<path fill="none" stroke="#63b8ff" d="M348.08,-146.99C339.45,-149.08 330.6,-151.22 322.25,-153.25 310.75,-156.05 298.49,-159.04 286.67,-161.92"/>
<polygon fill="#63b8ff" stroke="#63b8ff" points="348.88,-150.39 357.78,-144.64 347.24,-143.59 348.88,-150.39"/>
</a>
</g>
</g>
<!-- Node7&#45;&gt;Node5 -->
<g id="edge10_Node000007_Node000005" class="edge">
<title>Node7&#45;&gt;Node5</title>
<g id="a_edge10_Node000007_Node000005"><a xlink:title=" ">
<path fill="none" stroke="#63b8ff" d="M322.81,-134.25C310.18,-134.25 297.26,-134.25 285.1,-134.25"/>
<polygon fill="#63b8ff" stroke="#63b8ff" points="322.79,-137.75 332.79,-134.25 322.79,-130.75 322.79,-137.75"/>
</a>
</g>
</g>
<!-- Node8&#45;&gt;Node3 -->
<g id="edge13_Node000008_Node000003" class="edge">
<title>Node8&#45;&gt;Node3</title>
<g id="a_edge13_Node000008_Node000003"><a xlink:title=" ">
<path fill="none" stroke="#63b8ff" d="M348.08,-207.51C339.45,-205.42 330.6,-203.28 322.25,-201.25 310.75,-198.45 298.49,-195.46 286.67,-192.58"/>
<polygon fill="#63b8ff" stroke="#63b8ff" points="347.24,-210.91 357.78,-209.86 348.88,-204.11 347.24,-210.91"/>
</a>
</g>
</g>
<!-- Node10 -->
<g id="Node000010" class="node">
<title>Node10</title>
<g id="a_Node000010"><a xlink:href="class_nuki_opener_1_1_nuki_opener.html#a7dc6d5feb760fba6bff83fe8d3ca9a5d" target="_top" xlink:title=" ">
<polygon fill="white" stroke="#666666" points="285.12,-73.5 161.12,-73.5 161.12,-43 285.12,-43 285.12,-73.5"/>
<text text-anchor="start" x="169.12" y="-60" font-family="Helvetica,sans-Serif" font-size="10.00">NukiOpener::NukiOpener</text>
<text text-anchor="middle" x="223.12" y="-48.75" font-family="Helvetica,sans-Serif" font-size="10.00">::logErrorCode</text>
</a>
</g>
</g>
<!-- Node9&#45;&gt;Node10 -->
<g id="edge15_Node000009_Node000010" class="edge">
<title>Node9&#45;&gt;Node10</title>
<g id="a_edge15_Node000009_Node000010"><a xlink:title=" ">
<path fill="none" stroke="#63b8ff" d="M310.3,-58.25C301.86,-58.25 293.44,-58.25 285.36,-58.25"/>
<polygon fill="#63b8ff" stroke="#63b8ff" points="310.29,-61.75 320.29,-58.25 310.29,-54.75 310.29,-61.75"/>
</a>
</g>
</g>
</g>
</svg>
