<?xml version="1.0" encoding="UTF-8" standalone="no"?>
<!DOCTYPE svg PUBLIC "-//W3C//DTD SVG 1.1//EN"
 "http://www.w3.org/Graphics/SVG/1.1/DTD/svg11.dtd">
<!-- Generated by graphviz version 5.0.1 (20220820.1526)
 -->
<!-- Title: NukiLock::logLockAction Pages: 1 -->
<svg width="539pt" height="68pt"
 viewBox="0.00 0.00 539.00 68.00" xmlns="http://www.w3.org/2000/svg" xmlns:xlink="http://www.w3.org/1999/xlink">
<g id="graph0" class="graph" transform="scale(1 1) rotate(0) translate(4 64)">
<title>NukiLock::logLockAction</title>
<!-- Node1 -->
<g id="node1" class="node">
<title>Node1</title>
<g id="a_node1"><a xlink:title=" ">
<polygon fill="#999999" stroke="#666666" points="531,-40 383,-40 383,-19 531,-19 531,-40"/>
<text text-anchor="middle" x="457" y="-26.4" font-family="Helvetica,sans-Serif" font-size="12.00">NukiLock::logLockAction</text>
</a>
</g>
</g>
<!-- Node2 -->
<g id="node2" class="node">
<title>Node2</title>
<g id="a_node2"><a xlink:href="namespace_nuki_lock.html#a5b521a0ba26dfc799683a2edb9529902" target="_top" xlink:title=" ">
<polygon fill="white" stroke="#666666" points="347,-60 179,-60 179,-39 347,-39 347,-60"/>
<text text-anchor="middle" x="263" y="-46.4" font-family="Helvetica,sans-Serif" font-size="12.00">NukiLock::logKeyturnerState</text>
</a>
</g>
</g>
<!-- Node1&#45;&gt;Node2 -->
<g id="edge1" class="edge">
<title>Node1&#45;&gt;Node2</title>
<path fill="none" stroke="#63b8ff" d="M372.65,-38.18C364.21,-39.06 355.64,-39.95 347.2,-40.83"/>
<polygon fill="#63b8ff" stroke="#63b8ff" points="373.28,-41.64 382.87,-37.12 372.56,-34.67 373.28,-41.64"/>
</g>
<!-- Node4 -->
<g id="node4" class="node">
<title>Node4</title>
<g id="a_node4"><a xlink:href="namespace_nuki_lock.html#aec3cb8258cc4133d676e8c5f50bcd938" target="_top" xlink:title=" ">
<polygon fill="white" stroke="#666666" points="331,-21 195,-21 195,0 331,0 331,-21"/>
<text text-anchor="middle" x="263" y="-7.4" font-family="Helvetica,sans-Serif" font-size="12.00">NukiLock::logLogEntry</text>
</a>
</g>
</g>
<!-- Node1&#45;&gt;Node4 -->
<g id="edge3" class="edge">
<title>Node1&#45;&gt;Node4</title>
<path fill="none" stroke="#63b8ff" d="M372.83,-21.27C358.94,-19.9 344.68,-18.48 331.25,-17.16"/>
<polygon fill="#63b8ff" stroke="#63b8ff" points="372.57,-24.76 382.87,-22.26 373.26,-17.79 372.57,-24.76"/>
</g>
<!-- Node3 -->
<g id="node3" class="node">
<title>Node3</title>
<g id="a_node3"><a xlink:href="class_nuki_lock_1_1_nuki_lock.html#a8d9fc4e4a1bde183754ced8b783f82d5" target="_top" xlink:title=" ">
<polygon fill="white" stroke="#666666" points="143,-46.5 0,-46.5 0,-12.5 143,-12.5 143,-46.5"/>
<text text-anchor="start" x="8" y="-32.9" font-family="Helvetica,sans-Serif" font-size="12.00">NukiLock::NukiLock</text>
<text text-anchor="middle" x="71.5" y="-19.9" font-family="Helvetica,sans-Serif" font-size="12.00">::handleReturnMessage</text>
</a>
</g>
</g>
<!-- Node2&#45;&gt;Node3 -->
<g id="edge2" class="edge">
<title>Node2&#45;&gt;Node3</title>
<path fill="none" stroke="#63b8ff" d="M168.77,-39.66C160.14,-38.75 151.49,-37.84 143.1,-36.95"/>
<polygon fill="#63b8ff" stroke="#63b8ff" points="168.57,-43.16 178.88,-40.73 169.31,-36.2 168.57,-43.16"/>
</g>
<!-- Node4&#45;&gt;Node3 -->
<g id="edge4" class="edge">
<title>Node4&#45;&gt;Node3</title>
<path fill="none" stroke="#63b8ff" d="M184.94,-18.23C171.07,-19.62 156.68,-21.06 143.02,-22.43"/>
<polygon fill="#63b8ff" stroke="#63b8ff" points="185.32,-21.71 194.92,-17.23 184.62,-14.74 185.32,-21.71"/>
</g>
</g>
</svg>
