<?xml version="1.0" encoding="UTF-8" standalone="no"?>
<!DOCTYPE svg PUBLIC "-//W3C//DTD SVG 1.1//EN"
 "http://www.w3.org/Graphics/SVG/1.1/DTD/svg11.dtd">
<!-- Generated by graphviz version 7.0.6 (20230106.0513)
 -->
<!-- Title: NukiOpener::logLogEntry Pages: 1 -->
<svg width="303pt" height="76pt"
 viewBox="0.00 0.00 303.00 75.50" xmlns="http://www.w3.org/2000/svg" xmlns:xlink="http://www.w3.org/1999/xlink">
<g id="graph0" class="graph" transform="scale(1 1) rotate(0) translate(4 71.5)">
<title>NukiOpener::logLogEntry</title>
<!-- Node1 -->
<g id="node1" class="node">
<title>Node1</title>
<g id="a_node1"><a xlink:title=" ">
<polygon fill="#999999" stroke="#666666" points="124,-40 0,-40 0,-21 124,-21 124,-40"/>
<text text-anchor="middle" x="62" y="-28" font-family="Helvetica,sans-Serif" font-size="10.00">NukiOpener::logLogEntry</text>
</a>
</g>
</g>
<!-- Node2 -->
<g id="node2" class="node">
<title>Node2</title>
<g id="a_node2"><a xlink:href="namespace_nuki_opener.html#a84631e75b3f180ead51e1a292fcee637" target="_top" xlink:title=" ">
<polygon fill="white" stroke="#666666" points="294.5,-67.5 160.5,-67.5 160.5,-37.5 294.5,-37.5 294.5,-67.5"/>
<text text-anchor="start" x="168.5" y="-55.5" font-family="Helvetica,sans-Serif" font-size="10.00">NukiOpener::logCompletion</text>
<text text-anchor="middle" x="227.5" y="-44.5" font-family="Helvetica,sans-Serif" font-size="10.00">Status</text>
</a>
</g>
</g>
<!-- Node1&#45;&gt;Node2 -->
<g id="edge1" class="edge">
<title>Node1&#45;&gt;Node2</title>
<path fill="none" stroke="#63b8ff" d="M124.35,-38.75C132.38,-39.84 140.7,-40.96 148.96,-42.07"/>
<polygon fill="#63b8ff" stroke="#63b8ff" points="148.28,-45.51 158.66,-43.37 149.21,-38.57 148.28,-45.51"/>
</g>
<!-- Node3 -->
<g id="node3" class="node">
<title>Node3</title>
<g id="a_node3"><a xlink:href="namespace_nuki_opener.html#ab25308954cb451d83358353032200422" target="_top" xlink:title=" ">
<polygon fill="white" stroke="#666666" points="295,-19 160,-19 160,0 295,0 295,-19"/>
<text text-anchor="middle" x="227.5" y="-7" font-family="Helvetica,sans-Serif" font-size="10.00">NukiOpener::logLockAction</text>
</a>
</g>
</g>
<!-- Node1&#45;&gt;Node3 -->
<g id="edge2" class="edge">
<title>Node1&#45;&gt;Node3</title>
<path fill="none" stroke="#63b8ff" d="M124.35,-22.62C132.17,-21.62 140.26,-20.58 148.3,-19.54"/>
<polygon fill="#63b8ff" stroke="#63b8ff" points="148.63,-23.03 158.1,-18.28 147.74,-16.09 148.63,-23.03"/>
</g>
</g>
</svg>
