<?xml version="1.0" encoding="UTF-8" standalone="no"?>
<!DOCTYPE svg PUBLIC "-//W3C//DTD SVG 1.1//EN"
 "http://www.w3.org/Graphics/SVG/1.1/DTD/svg11.dtd">
<!-- Generated by graphviz version 7.0.3 (20221126.0506)
 -->
<!-- Title: NukiOpener::logCompletionStatus Pages: 1 -->
<svg width="466pt" height="76pt"
 viewBox="0.00 0.00 466.00 75.50" xmlns="http://www.w3.org/2000/svg" xmlns:xlink="http://www.w3.org/1999/xlink">
<g id="graph0" class="graph" transform="scale(1 1) rotate(0) translate(4 71.5)">
<title>NukiOpener::logCompletionStatus</title>
<!-- Node1 -->
<g id="node1" class="node">
<title>Node1</title>
<g id="a_node1"><a xlink:title=" ">
<polygon fill="#999999" stroke="#666666" points="458,-45.5 324,-45.5 324,-15.5 458,-15.5 458,-45.5"/>
<text text-anchor="start" x="332" y="-33.5" font-family="Helvetica,sans-Serif" font-size="10.00">NukiOpener::logCompletion</text>
<text text-anchor="middle" x="391" y="-22.5" font-family="Helvetica,sans-Serif" font-size="10.00">Status</text>
</a>
</g>
</g>
<!-- Node2 -->
<g id="node2" class="node">
<title>Node2</title>
<g id="a_node2"><a xlink:href="namespace_nuki_opener.html#ad694b05ff6125ebf77e067be3002d075" target="_top" xlink:title=" ">
<polygon fill="white" stroke="#666666" points="288,-67.5 161,-67.5 161,-37.5 288,-37.5 288,-67.5"/>
<text text-anchor="start" x="169" y="-55.5" font-family="Helvetica,sans-Serif" font-size="10.00">NukiOpener::logKeyturner</text>
<text text-anchor="middle" x="224.5" y="-44.5" font-family="Helvetica,sans-Serif" font-size="10.00">State</text>
</a>
</g>
</g>
<!-- Node1&#45;&gt;Node2 -->
<g id="edge1" class="edge">
<title>Node1&#45;&gt;Node2</title>
<path fill="none" stroke="#63b8ff" d="M312.32,-40.89C304.32,-41.96 296.26,-43.04 288.45,-44.08"/>
<polygon fill="#63b8ff" stroke="#63b8ff" points="312.62,-44.38 322.07,-39.59 311.69,-37.44 312.62,-44.38"/>
</g>
<!-- Node4 -->
<g id="node4" class="node">
<title>Node4</title>
<g id="a_node4"><a xlink:href="namespace_nuki_opener.html#a1c24f78474980cc2d90ee83e371621c4" target="_top" xlink:title=" ">
<polygon fill="white" stroke="#666666" points="286.5,-19 162.5,-19 162.5,0 286.5,0 286.5,-19"/>
<text text-anchor="middle" x="224.5" y="-7" font-family="Helvetica,sans-Serif" font-size="10.00">NukiOpener::logLogEntry</text>
</a>
</g>
</g>
<!-- Node1&#45;&gt;Node4 -->
<g id="edge3" class="edge">
<title>Node1&#45;&gt;Node4</title>
<path fill="none" stroke="#63b8ff" d="M312.38,-20.59C303.82,-19.5 295.19,-18.4 286.86,-17.33"/>
<polygon fill="#63b8ff" stroke="#63b8ff" points="311.7,-24.03 322.06,-21.83 312.59,-17.09 311.7,-24.03"/>
</g>
<!-- Node3 -->
<g id="node3" class="node">
<title>Node3</title>
<g id="a_node3"><a xlink:href="class_nuki_opener_1_1_nuki_opener.html#a19ad4317e201ebe5e43ad55b6ea906da" target="_top" xlink:title=" ">
<polygon fill="white" stroke="#666666" points="125,-45.5 0,-45.5 0,-15.5 125,-15.5 125,-45.5"/>
<text text-anchor="start" x="8" y="-33.5" font-family="Helvetica,sans-Serif" font-size="10.00">NukiOpener::NukiOpener</text>
<text text-anchor="middle" x="62.5" y="-22.5" font-family="Helvetica,sans-Serif" font-size="10.00">::handleReturnMessage</text>
</a>
</g>
</g>
<!-- Node2&#45;&gt;Node3 -->
<g id="edge2" class="edge">
<title>Node2&#45;&gt;Node3</title>
<path fill="none" stroke="#63b8ff" d="M149.41,-42.31C141.35,-41.2 133.2,-40.08 125.31,-39"/>
<polygon fill="#63b8ff" stroke="#63b8ff" points="148.84,-45.77 159.22,-43.66 149.79,-38.83 148.84,-45.77"/>
</g>
<!-- Node4&#45;&gt;Node3 -->
<g id="edge4" class="edge">
<title>Node4&#45;&gt;Node3</title>
<path fill="none" stroke="#63b8ff" d="M150.93,-19.03C142.36,-20.15 133.67,-21.29 125.27,-22.39"/>
<polygon fill="#63b8ff" stroke="#63b8ff" points="151.14,-22.53 160.6,-17.76 150.23,-15.59 151.14,-22.53"/>
</g>
</g>
</svg>
