<?xml version="1.0" encoding="UTF-8" standalone="no"?>
<!DOCTYPE svg PUBLIC "-//W3C//DTD SVG 1.1//EN"
 "http://www.w3.org/Graphics/SVG/1.1/DTD/svg11.dtd">
<!-- Generated by graphviz version 8.0.5 (20230430.1635)
 -->
<!-- Title: NukiOpener::logKeyturnerState Pages: 1 -->
<svg width="306pt" height="113pt"
 viewBox="0.00 0.00 305.50 112.88" xmlns="http://www.w3.org/2000/svg" xmlns:xlink="http://www.w3.org/1999/xlink">
<g id="graph0" class="graph" transform="scale(1 1) rotate(0) translate(4 108.88)">
<title>NukiOpener::logKeyturnerState</title>
<!-- Node1 -->
<g id="node1" class="node">
<title>Node1</title>
<g id="a_node1"><a xlink:title=" ">
<polygon fill="#999999" stroke="#666666" points="126.25,-61.88 0,-61.88 0,-31.38 126.25,-31.38 126.25,-61.88"/>
<text text-anchor="start" x="8" y="-48.38" font-family="Helvetica,sans-Serif" font-size="10.00">NukiOpener::logKeyturner</text>
<text text-anchor="middle" x="63.12" y="-37.12" font-family="Helvetica,sans-Serif" font-size="10.00">State</text>
</a>
</g>
</g>
<!-- Node2 -->
<g id="node2" class="node">
<title>Node2</title>
<g id="a_node2"><a xlink:href="namespace_nuki_opener.html#a84631e75b3f180ead51e1a292fcee637" target="_top" xlink:title=" ">
<polygon fill="white" stroke="#666666" points="296.75,-104.88 163,-104.88 163,-74.38 296.75,-74.38 296.75,-104.88"/>
<text text-anchor="start" x="171" y="-91.38" font-family="Helvetica,sans-Serif" font-size="10.00">NukiOpener::logCompletion</text>
<text text-anchor="middle" x="229.88" y="-80.12" font-family="Helvetica,sans-Serif" font-size="10.00">Status</text>
</a>
</g>
</g>
<!-- Node1&#45;&gt;Node2 -->
<g id="edge1" class="edge">
<title>Node1&#45;&gt;Node2</title>
<path fill="none" stroke="#63b8ff" d="M124.07,-62.27C135.2,-65.18 146.92,-68.23 158.33,-71.21"/>
<polygon fill="#63b8ff" stroke="#63b8ff" points="157.14,-74.78 167.7,-73.92 158.91,-68.01 157.14,-74.78"/>
</g>
<!-- Node3 -->
<g id="node3" class="node">
<title>Node3</title>
<g id="a_node3"><a xlink:href="namespace_nuki_opener.html#ab25308954cb451d83358353032200422" target="_top" xlink:title=" ">
<polygon fill="white" stroke="#666666" points="297.12,-56.25 162.62,-56.25 162.62,-37 297.12,-37 297.12,-56.25"/>
<text text-anchor="middle" x="229.88" y="-42.75" font-family="Helvetica,sans-Serif" font-size="10.00">NukiOpener::logLockAction</text>
</a>
</g>
</g>
<!-- Node1&#45;&gt;Node3 -->
<g id="edge2" class="edge">
<title>Node1&#45;&gt;Node3</title>
<path fill="none" stroke="#63b8ff" d="M126.41,-46.62C134.58,-46.62 143.04,-46.62 151.42,-46.62"/>
<polygon fill="#63b8ff" stroke="#63b8ff" points="151.38,-50.13 161.38,-46.62 151.38,-43.13 151.38,-50.13"/>
</g>
<!-- Node4 -->
<g id="node4" class="node">
<title>Node4</title>
<g id="a_node4"><a xlink:href="namespace_nuki_opener.html#a9915ff097023a69e5792e791336bfcd6" target="_top" xlink:title=" ">
<polygon fill="white" stroke="#666666" points="297.5,-19.25 162.25,-19.25 162.25,0 297.5,0 297.5,-19.25"/>
<text text-anchor="middle" x="229.88" y="-5.75" font-family="Helvetica,sans-Serif" font-size="10.00">NukiOpener::logNukiTrigger</text>
</a>
</g>
</g>
<!-- Node1&#45;&gt;Node4 -->
<g id="edge3" class="edge">
<title>Node1&#45;&gt;Node4</title>
<path fill="none" stroke="#63b8ff" d="M126.41,-32.64C141.81,-29.18 158.2,-25.5 173.26,-22.11"/>
<polygon fill="#63b8ff" stroke="#63b8ff" points="173.96,-25.32 182.95,-19.71 172.43,-18.49 173.96,-25.32"/>
</g>
</g>
</svg>
