<?xml version="1.0" encoding="UTF-8" standalone="no"?>
<!DOCTYPE svg PUBLIC "-//W3C//DTD SVG 1.1//EN"
 "http://www.w3.org/Graphics/SVG/1.1/DTD/svg11.dtd">
<!-- Generated by graphviz version 8.0.5 (20230430.1635)
 -->
<!-- Title: NukiOpener::logLogEntry Pages: 1 -->
<svg width="302pt" height="76pt"
 viewBox="0.00 0.00 301.75 75.88" xmlns="http://www.w3.org/2000/svg" xmlns:xlink="http://www.w3.org/1999/xlink">
<g id="graph0" class="graph" transform="scale(1 1) rotate(0) translate(4 71.88)">
<title>NukiOpener::logLogEntry</title>
<!-- Node1 -->
<g id="node1" class="node">
<title>Node1</title>
<g id="a_node1"><a xlink:title=" ">
<polygon fill="#999999" stroke="#666666" points="123.25,-40.25 0,-40.25 0,-21 123.25,-21 123.25,-40.25"/>
<text text-anchor="middle" x="61.62" y="-26.75" font-family="Helvetica,sans-Serif" font-size="10.00">NukiOpener::logLogEntry</text>
</a>
</g>
</g>
<!-- Node2 -->
<g id="node2" class="node">
<title>Node2</title>
<g id="a_node2"><a xlink:href="namespace_nuki_opener.html#a84631e75b3f180ead51e1a292fcee637" target="_top" xlink:title=" ">
<polygon fill="white" stroke="#666666" points="293.38,-67.88 159.62,-67.88 159.62,-37.38 293.38,-37.38 293.38,-67.88"/>
<text text-anchor="start" x="167.62" y="-54.38" font-family="Helvetica,sans-Serif" font-size="10.00">NukiOpener::logCompletion</text>
<text text-anchor="middle" x="226.5" y="-43.12" font-family="Helvetica,sans-Serif" font-size="10.00">Status</text>
</a>
</g>
</g>
<!-- Node1&#45;&gt;Node2 -->
<g id="edge1" class="edge">
<title>Node1&#45;&gt;Node2</title>
<path fill="none" stroke="#63b8ff" d="M123.74,-38.88C131.77,-39.96 140.09,-41.09 148.34,-42.2"/>
<polygon fill="#63b8ff" stroke="#63b8ff" points="147.76,-45.79 158.14,-43.66 148.69,-38.85 147.76,-45.79"/>
</g>
<!-- Node3 -->
<g id="node3" class="node">
<title>Node3</title>
<g id="a_node3"><a xlink:href="namespace_nuki_opener.html#ab25308954cb451d83358353032200422" target="_top" xlink:title=" ">
<polygon fill="white" stroke="#666666" points="293.75,-19.25 159.25,-19.25 159.25,0 293.75,0 293.75,-19.25"/>
<text text-anchor="middle" x="226.5" y="-5.75" font-family="Helvetica,sans-Serif" font-size="10.00">NukiOpener::logLockAction</text>
</a>
</g>
</g>
<!-- Node1&#45;&gt;Node3 -->
<g id="edge2" class="edge">
<title>Node1&#45;&gt;Node3</title>
<path fill="none" stroke="#63b8ff" d="M123.74,-22.75C131.71,-21.72 139.96,-20.65 148.15,-19.6"/>
<polygon fill="#63b8ff" stroke="#63b8ff" points="148.39,-22.97 157.86,-18.22 147.5,-16.02 148.39,-22.97"/>
</g>
</g>
</svg>
