<?xml version="1.0" encoding="UTF-8" standalone="no"?>
<!DOCTYPE svg PUBLIC "-//W3C//DTD SVG 1.1//EN"
 "http://www.w3.org/Graphics/SVG/1.1/DTD/svg11.dtd">
<!-- Generated by graphviz version 12.2.1 (20241206.2353)
 -->
<!-- Title: NukiOpener::logMessageVar Pages: 1 -->
<!--zoomable 728 -->

<svg id="main" version="1.1" xmlns="http://www.w3.org/2000/svg" xmlns:xlink="http://www.w3.org/1999/xlink" xml:space="preserve" onload="init(evt)">

<style type="text/css"><![CDATA[
.node, .edge {opacity: 0.7;}
.node.selected, .edge.selected {opacity: 1;}
.edge:hover path { stroke: red; }
.edge:hover polygon { stroke: red; fill: red; }
]]></style>

<defs>
  <circle id="rim" cx="0" cy="0" r="7"/>
  <circle id="rim2" cx="0" cy="0" r="3.5"/>
  <g id="zoomPlus">
    <use xlink:href="#rim" fill="#404040"><set attributeName="fill" to="#808080" begin="zoomplus.mouseover" end="zoomplus.mouseout"/></use>
    <path d="M-4,0h8M0,-4v8" fill="none" stroke="white" stroke-width="1.5" pointer-events="none"/>
  </g>
  <g id="zoomMin">
    <use xlink:href="#rim" fill="#404040"><set attributeName="fill" to="#808080" begin="zoomminus.mouseover" end="zoomminus.mouseout"/></use>
    <path d="M-4,0h8" fill="none" stroke="white" stroke-width="1.5" pointer-events="none"/>
  </g>
  <g id="arrowUp" transform="translate(30 24)">
    <use xlink:href="#rim"/>
    <path pointer-events="none" fill="none" stroke="white" stroke-width="1.5" d="M0,-3.0v7 M-2.5,-0.5L0,-3.0L2.5,-0.5"/>
  </g>
  <g id="arrowRight" transform="rotate(90) translate(36 -43)">
    <use xlink:href="#rim"/>
    <path pointer-events="none" fill="none" stroke="white" stroke-width="1.5" d="M0,-3.0v7 M-2.5,-0.5L0,-3.0L2.5,-0.5"/>
  </g>
  <g id="arrowDown" transform="rotate(180) translate(-30 -48)">
    <use xlink:href="#rim"/>
    <path pointer-events="none" fill="none" stroke="white" stroke-width="1.5" d="M0,-3.0v7 M-2.5,-0.5L0,-3.0L2.5,-0.5"/>
  </g>
  <g id="arrowLeft" transform="rotate(270) translate(-36 17)">
    <use xlink:href="#rim"/>
    <path pointer-events="none" fill="none" stroke="white" stroke-width="1.5" d="M0,-3.0v7 M-2.5,-0.5L0,-3.0L2.5,-0.5"/>
  </g>
  <g id="resetDef">
    <use xlink:href="#rim2" fill="#404040"><set attributeName="fill" to="#808080" begin="reset.mouseover" end="reset.mouseout"/></use>
  </g>
</defs>
<script type="application/ecmascript">
var viewWidth = 522;
var viewHeight = 728;
var sectionId = 'dynsection-17';
</script>
<script type="application/ecmascript" xlink:href="svg.min.js"/>
<svg id="graph" class="graph">
<g id="viewport">
<title>NukiOpener::logMessageVar</title>
<!-- Node1 -->
<g id="Node000001" class="node">
<title>Node1</title>
<g id="a_Node000001"><a xlink:title=" ">
<polygon fill="#999999" stroke="#666666" points="513.75,-381.88 374,-381.88 374,-362.62 513.75,-362.62 513.75,-381.88"/>
<text text-anchor="middle" x="443.88" y="-368.38" font-family="Helvetica,sans-Serif" font-size="10.00">NukiOpener::logMessageVar</text>
</a>
</g>
</g>
<!-- Node2 -->
<g id="Node000002" class="node">
<title>Node2</title>
<g id="a_Node000002"><a xlink:href="class_nuki_opener_1_1_nuki_opener.html#a6dee2bf0f439e7017fd9c2b3ae15a40c" target="_top" xlink:title="Sends a new time(d) control entry via BLE to the opener. This entry is independant of keypad or autho...">
<polygon fill="white" stroke="#666666" points="124,-222.5 0,-222.5 0,-192 124,-192 124,-222.5"/>
<text text-anchor="start" x="8" y="-209" font-family="Helvetica,sans-Serif" font-size="10.00">NukiOpener::NukiOpener</text>
<text text-anchor="middle" x="62" y="-197.75" font-family="Helvetica,sans-Serif" font-size="10.00">::addTimeControlEntry</text>
</a>
</g>
</g>
<!-- Node1&#45;&gt;Node2 -->
<g id="edge1_Node000001_Node000002" class="edge">
<title>Node1&#45;&gt;Node2</title>
<g id="a_edge1_Node000001_Node000002"><a xlink:title=" ">
<path fill="none" stroke="#63b8ff" d="M436.44,-351.81C423.98,-316.17 392.87,-243.57 338,-213.25 272.06,-176.82 182.97,-183.01 124.29,-193.12"/>
<polygon fill="#63b8ff" stroke="#63b8ff" points="432.99,-352.55 439.48,-360.93 439.64,-350.34 432.99,-352.55"/>
</a>
</g>
</g>
<!-- Node3 -->
<g id="Node000003" class="node">
<title>Node3</title>
<g id="a_Node000003"><a xlink:href="namespace_nuki_opener.html#a0a734c84a0fcb8e58a4fe1162747db98" target="_top" xlink:title=" ">
<polygon fill="white" stroke="#666666" points="326.75,-584.88 171.25,-584.88 171.25,-565.62 326.75,-565.62 326.75,-584.88"/>
<text text-anchor="middle" x="249" y="-571.38" font-family="Helvetica,sans-Serif" font-size="10.00">NukiOpener::logAdvancedConfig</text>
</a>
</g>
</g>
<!-- Node1&#45;&gt;Node3 -->
<g id="edge2_Node000001_Node000003" class="edge">
<title>Node1&#45;&gt;Node3</title>
<g id="a_edge2_Node000001_Node000003"><a xlink:title=" ">
<path fill="none" stroke="#63b8ff" d="M437.28,-393.22C425.73,-432.18 395.4,-515.54 338,-557.25 333.71,-560.37 329.01,-562.97 324.08,-565.15"/>
<polygon fill="#63b8ff" stroke="#63b8ff" points="440.62,-394.27 439.97,-383.7 433.88,-392.37 440.62,-394.27"/>
</a>
</g>
</g>
<!-- Node5 -->
<g id="Node000005" class="node">
<title>Node5</title>
<g id="a_Node000005"><a xlink:href="namespace_nuki_opener.html#a420f275435aaee52f737212d442202c2" target="_top" xlink:title=" ">
<polygon fill="white" stroke="#666666" points="319.62,-633.5 178.38,-633.5 178.38,-603 319.62,-603 319.62,-633.5"/>
<text text-anchor="start" x="186.38" y="-620" font-family="Helvetica,sans-Serif" font-size="10.00">NukiOpener::logAuthorization</text>
<text text-anchor="middle" x="249" y="-608.75" font-family="Helvetica,sans-Serif" font-size="10.00">Entry</text>
</a>
</g>
</g>
<!-- Node1&#45;&gt;Node5 -->
<g id="edge4_Node000001_Node000005" class="edge">
<title>Node1&#45;&gt;Node5</title>
<g id="a_edge4_Node000001_Node000005"><a xlink:title=" ">
<path fill="none" stroke="#63b8ff" d="M439.05,-393.25C429.9,-437.39 402.51,-540.15 338,-594.25 332.66,-598.73 326.56,-602.37 320.11,-605.34"/>
<polygon fill="#63b8ff" stroke="#63b8ff" points="442.48,-393.97 440.96,-383.48 435.61,-392.63 442.48,-393.97"/>
</a>
</g>
</g>
<!-- Node6 -->
<g id="Node000006" class="node">
<title>Node6</title>
<g id="a_Node000006"><a xlink:href="namespace_nuki_opener.html#addd007828c6aae2767c95081958d60dd" target="_top" xlink:title=" ">
<polygon fill="white" stroke="#666666" points="321.12,-547.88 176.88,-547.88 176.88,-528.62 321.12,-528.62 321.12,-547.88"/>
<text text-anchor="middle" x="249" y="-534.38" font-family="Helvetica,sans-Serif" font-size="10.00">NukiOpener::logBatteryReport</text>
</a>
</g>
</g>
<!-- Node1&#45;&gt;Node6 -->
<g id="edge5_Node000001_Node000006" class="edge">
<title>Node1&#45;&gt;Node6</title>
<g id="a_edge5_Node000001_Node000006"><a xlink:title=" ">
<path fill="none" stroke="#63b8ff" d="M434.47,-392.61C419.92,-425.13 386.86,-488.38 338,-520.25 332.91,-523.57 327.32,-526.3 321.52,-528.54"/>
<polygon fill="#63b8ff" stroke="#63b8ff" points="437.64,-394.09 438.38,-383.52 431.21,-391.32 437.64,-394.09"/>
</a>
</g>
</g>
<!-- Node7 -->
<g id="Node000007" class="node">
<title>Node7</title>
<g id="a_Node000007"><a xlink:href="namespace_nuki_opener.html#a2e6270c8700b5a83a853b534ce59a08f" target="_top" xlink:title=" ">
<polygon fill="white" stroke="#666666" points="305,-473.88 193,-473.88 193,-454.62 305,-454.62 305,-473.88"/>
<text text-anchor="middle" x="249" y="-460.38" font-family="Helvetica,sans-Serif" font-size="10.00">NukiOpener::logConfig</text>
</a>
</g>
</g>
<!-- Node1&#45;&gt;Node7 -->
<g id="edge7_Node000001_Node000007" class="edge">
<title>Node1&#45;&gt;Node7</title>
<g id="a_edge7_Node000001_Node000007"><a xlink:title=" ">
<path fill="none" stroke="#63b8ff" d="M423.31,-389.47C403.26,-406.21 370.49,-431.12 338,-445.25 327.68,-449.74 316.21,-453.21 305.04,-455.87"/>
<polygon fill="#63b8ff" stroke="#63b8ff" points="425.34,-392.34 430.68,-383.18 420.8,-387.01 425.34,-392.34"/>
</a>
</g>
</g>
<!-- Node8 -->
<g id="Node000008" class="node">
<title>Node8</title>
<g id="a_Node000008"><a xlink:href="namespace_nuki_opener.html#a56e66095cbca2f4f3e52fabb01ccff95" target="_top" xlink:title=" ">
<polygon fill="white" stroke="#666666" points="318.5,-510.88 179.5,-510.88 179.5,-491.62 318.5,-491.62 318.5,-510.88"/>
<text text-anchor="middle" x="249" y="-497.38" font-family="Helvetica,sans-Serif" font-size="10.00">NukiOpener::logKeypadEntry</text>
</a>
</g>
</g>
<!-- Node1&#45;&gt;Node8 -->
<g id="edge9_Node000001_Node000008" class="edge">
<title>Node1&#45;&gt;Node8</title>
<g id="a_edge9_Node000001_Node000008"><a xlink:title=" ">
<path fill="none" stroke="#63b8ff" d="M430.43,-391.44C412.97,-416.71 378.72,-460.59 338,-483.25 332,-486.59 325.47,-489.31 318.76,-491.53"/>
<polygon fill="#63b8ff" stroke="#63b8ff" points="433.15,-393.67 435.82,-383.42 427.34,-389.77 433.15,-393.67"/>
</a>
</g>
</g>
<!-- Node9 -->
<g id="Node000009" class="node">
<title>Node9</title>
<g id="a_Node000009"><a xlink:href="namespace_nuki_opener.html#a510454c0171d807a1eebd77045481ba0" target="_top" xlink:title=" ">
<polygon fill="white" stroke="#666666" points="312.12,-719.5 185.88,-719.5 185.88,-689 312.12,-689 312.12,-719.5"/>
<text text-anchor="start" x="193.88" y="-706" font-family="Helvetica,sans-Serif" font-size="10.00">NukiOpener::logKeyturner</text>
<text text-anchor="middle" x="249" y="-694.75" font-family="Helvetica,sans-Serif" font-size="10.00">State</text>
</a>
</g>
</g>
<!-- Node1&#45;&gt;Node9 -->
<g id="edge10_Node000001_Node000009" class="edge">
<title>Node1&#45;&gt;Node9</title>
<g id="a_edge10_Node000001_Node000009"><a xlink:title=" ">
<path fill="none" stroke="#63b8ff" d="M442.16,-393.45C439.1,-449.07 422.96,-600.39 338,-680.25 330.73,-687.08 321.71,-692.01 312.24,-695.55"/>
<polygon fill="#63b8ff" stroke="#63b8ff" points="445.64,-393.93 442.59,-383.78 438.65,-393.61 445.64,-393.93"/>
</a>
</g>
</g>
<!-- Node10 -->
<g id="Node000010" class="node">
<title>Node10</title>
<g id="a_Node000010"><a xlink:href="namespace_nuki_opener.html#ad5810b4aac856a27473aedd0fe8f433e" target="_top" xlink:title=" ">
<polygon fill="white" stroke="#666666" points="310.62,-670.88 187.38,-670.88 187.38,-651.62 310.62,-651.62 310.62,-670.88"/>
<text text-anchor="middle" x="249" y="-657.38" font-family="Helvetica,sans-Serif" font-size="10.00">NukiOpener::logLogEntry</text>
</a>
</g>
</g>
<!-- Node1&#45;&gt;Node10 -->
<g id="edge12_Node000001_Node000010" class="edge">
<title>Node1&#45;&gt;Node10</title>
<g id="a_edge12_Node000001_Node000010"><a xlink:title=" ">
<path fill="none" stroke="#63b8ff" d="M441.26,-393.45C436.15,-444.68 415.75,-575.89 338,-642.25 330.27,-648.85 320.8,-653.32 310.96,-656.32"/>
<polygon fill="#63b8ff" stroke="#63b8ff" points="444.72,-394.01 442.12,-383.74 437.75,-393.39 444.72,-394.01"/>
</a>
</g>
</g>
<!-- Node11 -->
<g id="Node000011" class="node">
<title>Node11</title>
<g id="a_Node000011"><a xlink:href="namespace_nuki_opener.html#ad0aff5afaff28c580056ac1637e3dbe6" target="_top" xlink:title=" ">
<polygon fill="white" stroke="#666666" points="323.38,-387.5 174.62,-387.5 174.62,-357 323.38,-357 323.38,-387.5"/>
<text text-anchor="start" x="182.62" y="-374" font-family="Helvetica,sans-Serif" font-size="10.00">NukiOpener::logNewAdvanced</text>
<text text-anchor="middle" x="249" y="-362.75" font-family="Helvetica,sans-Serif" font-size="10.00">Config</text>
</a>
</g>
</g>
<!-- Node1&#45;&gt;Node11 -->
<g id="edge14_Node000001_Node000011" class="edge">
<title>Node1&#45;&gt;Node11</title>
<g id="a_edge14_Node000001_Node000011"><a xlink:title=" ">
<path fill="none" stroke="#63b8ff" d="M362.36,-372.25C349.52,-372.25 336.3,-372.25 323.63,-372.25"/>
<polygon fill="#63b8ff" stroke="#63b8ff" points="362,-375.75 372,-372.25 362,-368.75 362,-375.75"/>
</a>
</g>
</g>
<!-- Node12 -->
<g id="Node000012" class="node">
<title>Node12</title>
<g id="a_Node000012"><a xlink:href="namespace_nuki_opener.html#a4a6da707f8707f66049b9b566bc77e6e" target="_top" xlink:title=" ">
<polygon fill="white" stroke="#666666" points="329.75,-338.5 168.25,-338.5 168.25,-308 329.75,-308 329.75,-338.5"/>
<text text-anchor="start" x="176.25" y="-325" font-family="Helvetica,sans-Serif" font-size="10.00">NukiOpener::logNewAuthorization</text>
<text text-anchor="middle" x="249" y="-313.75" font-family="Helvetica,sans-Serif" font-size="10.00">Entry</text>
</a>
</g>
</g>
<!-- Node1&#45;&gt;Node12 -->
<g id="edge15_Node000001_Node000012" class="edge">
<title>Node1&#45;&gt;Node12</title>
<g id="a_edge15_Node000001_Node000012"><a xlink:title=" ">
<path fill="none" stroke="#63b8ff" d="M392.45,-359.44C367.79,-353.17 337.88,-345.58 311.85,-338.96"/>
<polygon fill="#63b8ff" stroke="#63b8ff" points="391.36,-362.77 401.91,-361.84 393.08,-355.99 391.36,-362.77"/>
</a>
</g>
</g>
<!-- Node13 -->
<g id="Node000013" class="node">
<title>Node13</title>
<g id="a_Node000013"><a xlink:href="namespace_nuki_opener.html#aac5c6a662593b3723d84ec094d89d525" target="_top" xlink:title=" ">
<polygon fill="white" stroke="#666666" points="315.12,-289.88 182.88,-289.88 182.88,-270.62 315.12,-270.62 315.12,-289.88"/>
<text text-anchor="middle" x="249" y="-276.38" font-family="Helvetica,sans-Serif" font-size="10.00">NukiOpener::logNewConfig</text>
</a>
</g>
</g>
<!-- Node1&#45;&gt;Node13 -->
<g id="edge16_Node000001_Node000013" class="edge">
<title>Node1&#45;&gt;Node13</title>
<g id="a_edge16_Node000001_Node000013"><a xlink:title=" ">
<path fill="none" stroke="#63b8ff" d="M423.31,-355.03C403.26,-338.29 370.49,-313.38 338,-299.25 329.69,-295.63 320.62,-292.68 311.58,-290.28"/>
<polygon fill="#63b8ff" stroke="#63b8ff" points="420.8,-357.49 430.68,-361.32 425.34,-352.16 420.8,-357.49"/>
</a>
</g>
</g>
<!-- Node14 -->
<g id="Node000014" class="node">
<title>Node14</title>
<g id="a_Node000014"><a xlink:href="namespace_nuki_opener.html#a364e90a5f12944cadb2b3c7a7abd2633" target="_top" xlink:title=" ">
<polygon fill="white" stroke="#666666" points="317.75,-252.5 180.25,-252.5 180.25,-222 317.75,-222 317.75,-252.5"/>
<text text-anchor="start" x="188.25" y="-239" font-family="Helvetica,sans-Serif" font-size="10.00">NukiOpener::logNewKeypad</text>
<text text-anchor="middle" x="249" y="-227.75" font-family="Helvetica,sans-Serif" font-size="10.00">Entry</text>
</a>
</g>
</g>
<!-- Node1&#45;&gt;Node14 -->
<g id="edge17_Node000001_Node000014" class="edge">
<title>Node1&#45;&gt;Node14</title>
<g id="a_edge17_Node000001_Node000014"><a xlink:title=" ">
<path fill="none" stroke="#63b8ff" d="M429.94,-353.07C412.15,-328.17 377.77,-285.09 338,-261.25 331.75,-257.5 324.91,-254.33 317.88,-251.64"/>
<polygon fill="#63b8ff" stroke="#63b8ff" points="426.87,-354.78 435.46,-360.98 432.61,-350.78 426.87,-354.78"/>
</a>
</g>
</g>
<!-- Node15 -->
<g id="Node000015" class="node">
<title>Node15</title>
<g id="a_Node000015"><a xlink:href="namespace_nuki_opener.html#a2dddaad56246fc87dd8f3f2939ebef93" target="_top" xlink:title=" ">
<polygon fill="white" stroke="#666666" points="327.88,-436.5 170.12,-436.5 170.12,-406 327.88,-406 327.88,-436.5"/>
<text text-anchor="start" x="178.12" y="-423" font-family="Helvetica,sans-Serif" font-size="10.00">NukiOpener::logNewTimeControl</text>
<text text-anchor="middle" x="249" y="-411.75" font-family="Helvetica,sans-Serif" font-size="10.00">Entry</text>
</a>
</g>
</g>
<!-- Node1&#45;&gt;Node15 -->
<g id="edge18_Node000001_Node000015" class="edge">
<title>Node1&#45;&gt;Node15</title>
<g id="a_edge18_Node000001_Node000015"><a xlink:title=" ">
<path fill="none" stroke="#63b8ff" d="M392.45,-385.06C367.79,-391.33 337.88,-398.92 311.85,-405.54"/>
<polygon fill="#63b8ff" stroke="#63b8ff" points="393.08,-388.51 401.91,-382.66 391.36,-381.73 393.08,-388.51"/>
</a>
</g>
</g>
<!-- Node16 -->
<g id="Node000016" class="node">
<title>Node16</title>
<g id="a_Node000016"><a xlink:href="namespace_nuki_opener.html#af823ab673287af9ea23f8c4a30c7d053" target="_top" xlink:title=" ">
<polygon fill="white" stroke="#666666" points="317.75,-128.5 180.25,-128.5 180.25,-98 317.75,-98 317.75,-128.5"/>
<text text-anchor="start" x="188.25" y="-115" font-family="Helvetica,sans-Serif" font-size="10.00">NukiOpener::logTimeControl</text>
<text text-anchor="middle" x="249" y="-103.75" font-family="Helvetica,sans-Serif" font-size="10.00">Entry</text>
</a>
</g>
</g>
<!-- Node1&#45;&gt;Node16 -->
<g id="edge20_Node000001_Node000016" class="edge">
<title>Node1&#45;&gt;Node16</title>
<g id="a_edge20_Node000001_Node000016"><a xlink:title=" ">
<path fill="none" stroke="#63b8ff" d="M439.12,-351.06C430.04,-306.04 402.69,-200.22 338,-142.25 332.01,-136.88 325,-132.51 317.6,-128.94"/>
<polygon fill="#63b8ff" stroke="#63b8ff" points="435.66,-351.63 440.97,-360.8 442.54,-350.32 435.66,-351.63"/>
</a>
</g>
</g>
<!-- Node17 -->
<g id="Node000017" class="node">
<title>Node17</title>
<g id="a_Node000017"><a xlink:href="class_nuki_opener_1_1_nuki_opener.html#ad896a195b57a3961a10497c432bc55ed" target="_top" xlink:title="Sends an updated time(d) control entry via BLE to the opener. (see addTimeControlEntry())">
<polygon fill="white" stroke="#666666" points="124,-157.5 0,-157.5 0,-127 124,-127 124,-157.5"/>
<text text-anchor="start" x="8" y="-144" font-family="Helvetica,sans-Serif" font-size="10.00">NukiOpener::NukiOpener</text>
<text text-anchor="middle" x="62" y="-132.75" font-family="Helvetica,sans-Serif" font-size="10.00">::updateTimeControlEntry</text>
</a>
</g>
</g>
<!-- Node1&#45;&gt;Node17 -->
<g id="edge24_Node000001_Node000017" class="edge">
<title>Node1&#45;&gt;Node17</title>
<g id="a_edge24_Node000001_Node000017"><a xlink:title=" ">
<path fill="none" stroke="#63b8ff" d="M437.95,-351.11C427.33,-310.71 398.22,-222.87 338,-181.25 304.38,-158.01 194.72,-148.45 124.46,-144.64"/>
<polygon fill="#63b8ff" stroke="#63b8ff" points="434.54,-351.9 440.35,-360.76 441.33,-350.21 434.54,-351.9"/>
</a>
</g>
</g>
<!-- Node18 -->
<g id="Node000018" class="node">
<title>Node18</title>
<g id="a_Node000018"><a xlink:href="namespace_nuki_opener.html#adc9a3af005e643dd463762f63c0cb74f" target="_top" xlink:title=" ">
<polygon fill="white" stroke="#666666" points="338,-79.5 160,-79.5 160,-49 338,-49 338,-79.5"/>
<text text-anchor="start" x="168" y="-66" font-family="Helvetica,sans-Serif" font-size="10.00">NukiOpener::logUpdatedAuthorization</text>
<text text-anchor="middle" x="249" y="-54.75" font-family="Helvetica,sans-Serif" font-size="10.00">Entry</text>
</a>
</g>
</g>
<!-- Node1&#45;&gt;Node18 -->
<g id="edge22_Node000001_Node000018" class="edge">
<title>Node1&#45;&gt;Node18</title>
<g id="a_edge22_Node000001_Node000018"><a xlink:title=" ">
<path fill="none" stroke="#63b8ff" d="M441.38,-351.08C436.51,-298.66 416.54,-161.88 338,-89.25 334.04,-85.58 329.57,-82.45 324.81,-79.77"/>
<polygon fill="#63b8ff" stroke="#63b8ff" points="437.86,-351.05 442.17,-360.73 444.84,-350.47 437.86,-351.05"/>
</a>
</g>
</g>
<!-- Node19 -->
<g id="Node000019" class="node">
<title>Node19</title>
<g id="a_Node000019"><a xlink:href="namespace_nuki_opener.html#a28fad2b4ae066a4600c9dda3029db8cb" target="_top" xlink:title=" ">
<polygon fill="white" stroke="#666666" points="326,-30.5 172,-30.5 172,0 326,0 326,-30.5"/>
<text text-anchor="start" x="180" y="-17" font-family="Helvetica,sans-Serif" font-size="10.00">NukiOpener::logUpdatedKeypad</text>
<text text-anchor="middle" x="249" y="-5.75" font-family="Helvetica,sans-Serif" font-size="10.00">Entry</text>
</a>
</g>
</g>
<!-- Node1&#45;&gt;Node19 -->
<g id="edge23_Node000001_Node000019" class="edge">
<title>Node1&#45;&gt;Node19</title>
<g id="a_edge23_Node000001_Node000019"><a xlink:title=" ">
<path fill="none" stroke="#63b8ff" d="M442.71,-351.06C441.09,-292.67 428.3,-127.95 338,-40.25 334.24,-36.6 329.99,-33.47 325.43,-30.8"/>
<polygon fill="#63b8ff" stroke="#63b8ff" points="439.21,-350.96 442.89,-360.89 446.21,-350.83 439.21,-350.96"/>
</a>
</g>
</g>
<!-- Node4 -->
<g id="Node000004" class="node">
<title>Node4</title>
<g id="a_Node000004"><a xlink:href="class_nuki_opener_1_1_nuki_opener.html#a19ad4317e201ebe5e43ad55b6ea906da" target="_top" xlink:title=" ">
<polygon fill="white" stroke="#666666" points="124,-590.5 0,-590.5 0,-560 124,-560 124,-590.5"/>
<text text-anchor="start" x="8" y="-577" font-family="Helvetica,sans-Serif" font-size="10.00">NukiOpener::NukiOpener</text>
<text text-anchor="middle" x="62" y="-565.75" font-family="Helvetica,sans-Serif" font-size="10.00">::handleReturnMessage</text>
</a>
</g>
</g>
<!-- Node3&#45;&gt;Node4 -->
<g id="edge3_Node000003_Node000004" class="edge">
<title>Node3&#45;&gt;Node4</title>
<g id="a_edge3_Node000003_Node000004"><a xlink:title=" ">
<path fill="none" stroke="#63b8ff" d="M159.49,-575.25C147.56,-575.25 135.54,-575.25 124.22,-575.25"/>
<polygon fill="#63b8ff" stroke="#63b8ff" points="159.37,-578.75 169.37,-575.25 159.37,-571.75 159.37,-578.75"/>
</a>
</g>
</g>
<!-- Node6&#45;&gt;Node4 -->
<g id="edge6_Node000006_Node000004" class="edge">
<title>Node6&#45;&gt;Node4</title>
<g id="a_edge6_Node000006_Node000004"><a xlink:title=" ">
<path fill="none" stroke="#63b8ff" d="M186.31,-550.59C166.37,-554.58 144.28,-558.99 124.36,-562.98"/>
<polygon fill="#63b8ff" stroke="#63b8ff" points="186.84,-554.05 195.96,-548.66 185.47,-547.19 186.84,-554.05"/>
</a>
</g>
</g>
<!-- Node7&#45;&gt;Node4 -->
<g id="edge8_Node000007_Node000004" class="edge">
<title>Node7&#45;&gt;Node4</title>
<g id="a_edge8_Node000007_Node000004"><a xlink:title=" ">
<path fill="none" stroke="#63b8ff" d="M181.73,-473.56C174.18,-475.85 166.77,-478.7 160,-482.25 123.43,-501.43 91.06,-538.55 74.56,-559.63"/>
<polygon fill="#63b8ff" stroke="#63b8ff" points="182.62,-476.94 191.38,-470.98 180.81,-470.18 182.62,-476.94"/>
</a>
</g>
</g>
<!-- Node9&#45;&gt;Node4 -->
<g id="edge11_Node000009_Node000004" class="edge">
<title>Node9&#45;&gt;Node4</title>
<g id="a_edge11_Node000009_Node000004"><a xlink:title=" ">
<path fill="none" stroke="#63b8ff" d="M175.23,-687.97C169.92,-685.71 164.78,-683.15 160,-680.25 121.39,-656.81 88.65,-613.63 72.95,-590.62"/>
<polygon fill="#63b8ff" stroke="#63b8ff" points="173.59,-691.09 184.18,-691.4 176.1,-684.55 173.59,-691.09"/>
</a>
</g>
</g>
<!-- Node10&#45;&gt;Node4 -->
<g id="edge13_Node000010_Node000004" class="edge">
<title>Node10&#45;&gt;Node4</title>
<g id="a_edge13_Node000010_Node000004"><a xlink:title=" ">
<path fill="none" stroke="#63b8ff" d="M176.15,-648.22C170.6,-646.46 165.16,-644.48 160,-642.25 129.95,-629.24 99.57,-606.32 81.01,-590.96"/>
<polygon fill="#63b8ff" stroke="#63b8ff" points="174.87,-651.49 185.45,-650.9 176.81,-644.77 174.87,-651.49"/>
</a>
</g>
</g>
<!-- Node15&#45;&gt;Node2 -->
<g id="edge19_Node000015_Node000002" class="edge">
<title>Node15&#45;&gt;Node2</title>
<g id="a_edge19_Node000015_Node000002"><a xlink:title=" ">
<path fill="none" stroke="#63b8ff" d="M164.73,-399.81C163.1,-398.68 161.52,-397.5 160,-396.25 102.53,-349.13 75.43,-259.1 66.5,-222.89"/>
<polygon fill="#63b8ff" stroke="#63b8ff" points="162.84,-402.76 173.23,-404.85 166.42,-396.74 162.84,-402.76"/>
</a>
</g>
</g>
<!-- Node16&#45;&gt;Node17 -->
<g id="edge21_Node000016_Node000017" class="edge">
<title>Node16&#45;&gt;Node17</title>
<g id="a_edge21_Node000016_Node000017"><a xlink:title=" ">
<path fill="none" stroke="#63b8ff" d="M168.65,-125.69C153.78,-128.02 138.44,-130.42 124.23,-132.65"/>
<polygon fill="#63b8ff" stroke="#63b8ff" points="169.07,-129.17 178.41,-124.16 167.98,-122.25 169.07,-129.17"/>
</a>
</g>
</g>
</g>
</svg>

<g id="navigator" transform="translate(0 0)" fill="#404254">
  <rect fill="#f2f5e9" fill-opacity="0.5" stroke="#606060" stroke-width=".5" x="0" y="0" width="60" height="60"/>
  <use id="zoomplus" xlink:href="#zoomPlus" x="17" y="9" onmousedown="handleZoom(evt,'in')"/>
  <use id="zoomminus" xlink:href="#zoomMin" x="42" y="9" onmousedown="handleZoom(evt,'out')"/>
  <use id="reset" xlink:href="#resetDef" x="30" y="36" onmousedown="handleReset()"/>
   <use id="arrowup" xlink:href="#arrowUp" x="0" y="0" onmousedown="handlePan(0,-1)"/>
  <use id="arrowright" xlink:href="#arrowRight" x="0" y="0" onmousedown="handlePan(1,0)"/>
  <use id="arrowdown" xlink:href="#arrowDown" x="0" y="0" onmousedown="handlePan(0,1)"/>
  <use id="arrowleft" xlink:href="#arrowLeft" x="0" y="0" onmousedown="handlePan(-1,0)"/>
</g>
<svg viewBox="0 0 15 15" width="100%" height="30px" preserveAspectRatio="xMaxYMin meet">
 <g id="arrow_out" transform="scale(0.3 0.3)">
  <a xlink:href="namespace_nuki_opener_ac87f753e40affc2a7be0d69862685555_icgraph_org.svg" target="_base">
   <rect id="button" ry="5" rx="5" y="6" x="6" height="38" width="38"
        fill="#f2f5e9" fill-opacity="0.5" stroke="#606060" stroke-width="1.0"/>
   <path id="arrow"
     d="M 11.500037,31.436501 C 11.940474,20.09759 22.043105,11.32322 32.158766,21.979434 L 37.068811,17.246167 C 37.068811,17.246167 37.088388,32 37.088388,32 L 22.160133,31.978069 C 22.160133,31.978069 26.997745,27.140456 26.997745,27.140456 C 18.528582,18.264221 13.291696,25.230495 11.500037,31.436501 z"
     style="fill:#404040;"/>
  </a>
 </g>
</svg>

<style type='text/css'>
<![CDATA[
[data-mouse-over-selected='false'] { opacity: 0.7; }
[data-mouse-over-selected='true']  { opacity: 1.0; }
]]>
</style>
<script type="application/ecmascript"><![CDATA[
document.addEventListener('DOMContentLoaded', (event) => {
  highlightEdges();
  highlightAdjacentNodes();
});
]]></script>
</svg>
