<?xml version="1.0" encoding="UTF-8" standalone="no"?>
<!DOCTYPE svg PUBLIC "-//W3C//DTD SVG 1.1//EN"
 "http://www.w3.org/Graphics/SVG/1.1/DTD/svg11.dtd">
<!-- Generated by graphviz version 7.0.1 (20221109.1506)
 -->
<!-- Title: NukiLock::logCompletionStatus Pages: 1 -->
<svg width="491pt" height="64pt"
 viewBox="0.00 0.00 491.00 64.00" xmlns="http://www.w3.org/2000/svg" xmlns:xlink="http://www.w3.org/1999/xlink">
<g id="graph0" class="graph" transform="scale(1 1) rotate(0) translate(4 60)">
<title>NukiLock::logCompletionStatus</title>
<!-- Node1 -->
<g id="node1" class="node">
<title>Node1</title>
<g id="a_node1"><a xlink:title=" ">
<polygon fill="#999999" stroke="#666666" points="483,-37 330,-37 330,-18 483,-18 483,-37"/>
<text text-anchor="middle" x="406.5" y="-25" font-family="Helvetica,sans-Serif" font-size="10.00">NukiLock::logCompletionStatus</text>
</a>
</g>
</g>
<!-- Node2 -->
<g id="node2" class="node">
<title>Node2</title>
<g id="a_node2"><a xlink:href="namespace_nuki_lock.html#a5b521a0ba26dfc799683a2edb9529902" target="_top" xlink:title=" ">
<polygon fill="white" stroke="#666666" points="294,-56 154,-56 154,-37 294,-37 294,-56"/>
<text text-anchor="middle" x="224" y="-44" font-family="Helvetica,sans-Serif" font-size="10.00">NukiLock::logKeyturnerState</text>
</a>
</g>
</g>
<!-- Node1&#45;&gt;Node2 -->
<g id="edge1" class="edge">
<title>Node1&#45;&gt;Node2</title>
<path fill="none" stroke="#63b8ff" d="M318.35,-36.67C310.26,-37.53 302.14,-38.38 294.24,-39.21"/>
<polygon fill="#63b8ff" stroke="#63b8ff" points="318.65,-40.16 328.23,-35.63 317.92,-33.2 318.65,-40.16"/>
</g>
<!-- Node4 -->
<g id="node4" class="node">
<title>Node4</title>
<g id="a_node4"><a xlink:href="namespace_nuki_lock.html#aec3cb8258cc4133d676e8c5f50bcd938" target="_top" xlink:title=" ">
<polygon fill="white" stroke="#666666" points="281,-19 167,-19 167,0 281,0 281,-19"/>
<text text-anchor="middle" x="224" y="-7" font-family="Helvetica,sans-Serif" font-size="10.00">NukiLock::logLogEntry</text>
</a>
</g>
</g>
<!-- Node1&#45;&gt;Node4 -->
<g id="edge3" class="edge">
<title>Node1&#45;&gt;Node4</title>
<path fill="none" stroke="#63b8ff" d="M318.65,-18.84C305.97,-17.57 293.21,-16.3 281.36,-15.12"/>
<polygon fill="#63b8ff" stroke="#63b8ff" points="317.93,-22.28 328.23,-19.79 318.63,-15.32 317.93,-22.28"/>
</g>
<!-- Node3 -->
<g id="node3" class="node">
<title>Node3</title>
<g id="a_node3"><a xlink:href="class_nuki_lock_1_1_nuki_lock.html#a8d9fc4e4a1bde183754ced8b783f82d5" target="_top" xlink:title=" ">
<polygon fill="white" stroke="#666666" points="118,-42.5 0,-42.5 0,-12.5 118,-12.5 118,-42.5"/>
<text text-anchor="start" x="8" y="-30.5" font-family="Helvetica,sans-Serif" font-size="10.00">NukiLock::NukiLock</text>
<text text-anchor="middle" x="59" y="-19.5" font-family="Helvetica,sans-Serif" font-size="10.00">::handleReturnMessage</text>
</a>
</g>
</g>
<!-- Node2&#45;&gt;Node3 -->
<g id="edge2" class="edge">
<title>Node2&#45;&gt;Node3</title>
<path fill="none" stroke="#63b8ff" d="M142.46,-37.11C134.35,-36.17 126.24,-35.22 118.43,-34.31"/>
<polygon fill="#63b8ff" stroke="#63b8ff" points="142.03,-40.59 152.37,-38.27 142.84,-33.63 142.03,-40.59"/>
</g>
<!-- Node4&#45;&gt;Node3 -->
<g id="edge4" class="edge">
<title>Node4&#45;&gt;Node3</title>
<path fill="none" stroke="#63b8ff" d="M155.7,-16.93C143.33,-18.3 130.5,-19.71 118.42,-21.05"/>
<polygon fill="#63b8ff" stroke="#63b8ff" points="155.84,-20.44 165.4,-15.86 155.08,-13.48 155.84,-20.44"/>
</g>
</g>
</svg>
