<?xml version="1.0" encoding="UTF-8" standalone="no"?>
<!DOCTYPE svg PUBLIC "-//W3C//DTD SVG 1.1//EN"
 "http://www.w3.org/Graphics/SVG/1.1/DTD/svg11.dtd">
<!-- Generated by graphviz version 12.2.1 (20241206.2353)
 -->
<!-- Title: NukiLock::logLogEntry Pages: 1 -->
<svg width="461pt" height="177pt"
 viewBox="0.00 0.00 461.00 177.25" xmlns="http://www.w3.org/2000/svg" xmlns:xlink="http://www.w3.org/1999/xlink">
<g id="graph0" class="graph" transform="scale(1 1) rotate(0) translate(4 173.25)">
<title>NukiLock::logLogEntry</title>
<!-- Node1 -->
<g id="Node000001" class="node">
<title>Node1</title>
<g id="a_Node000001"><a xlink:title=" ">
<polygon fill="#999999" stroke="#666666" points="113.5,-93.25 0,-93.25 0,-74 113.5,-74 113.5,-93.25"/>
<text text-anchor="middle" x="56.75" y="-79.75" font-family="Helvetica,sans-Serif" font-size="10.00">NukiLock::logLogEntry</text>
</a>
</g>
</g>
<!-- Node2 -->
<g id="Node000002" class="node">
<title>Node2</title>
<g id="a_Node000002"><a xlink:href="namespace_nuki_lock.html#ac4d82a0f8f0d3ae3fe2a00c9d442cab0" target="_top" xlink:title=" ">
<polygon fill="white" stroke="#666666" points="302,-169.25 149.5,-169.25 149.5,-150 302,-150 302,-169.25"/>
<text text-anchor="middle" x="225.75" y="-155.75" font-family="Helvetica,sans-Serif" font-size="10.00">NukiLock::logCompletionStatus</text>
</a>
</g>
</g>
<!-- Node1&#45;&gt;Node2 -->
<g id="edge1_Node000001_Node000002" class="edge">
<title>Node1&#45;&gt;Node2</title>
<g id="a_edge1_Node000001_Node000002"><a xlink:title=" ">
<path fill="none" stroke="#63b8ff" d="M73.15,-93.67C90.98,-104.98 121.48,-123.38 149.5,-135.62 158.26,-139.45 167.83,-142.98 177.12,-146.08"/>
<polygon fill="#63b8ff" stroke="#63b8ff" points="175.8,-149.33 186.39,-149.05 177.94,-142.67 175.8,-149.33"/>
</a>
</g>
</g>
<!-- Node3 -->
<g id="Node000003" class="node">
<title>Node3</title>
<g id="a_Node000003"><a xlink:href="namespace_nuki_lock.html#a1c4b22e22d81b2258bb6f2ce1e1f7d6f" target="_top" xlink:title=" ">
<polygon fill="white" stroke="#666666" points="453,-112.25 338,-112.25 338,-93 453,-93 453,-112.25"/>
<text text-anchor="middle" x="395.5" y="-98.75" font-family="Helvetica,sans-Serif" font-size="10.00">NukiLock::logMessage</text>
</a>
</g>
</g>
<!-- Node1&#45;&gt;Node3 -->
<g id="edge5_Node000001_Node000003" class="edge">
<title>Node1&#45;&gt;Node3</title>
<g id="a_edge5_Node000001_Node000003"><a xlink:title=" ">
<path fill="none" stroke="#63b8ff" d="M97.67,-93.74C113.67,-97.31 132.35,-100.87 149.5,-102.62 209.04,-108.73 277.15,-108.12 326.42,-106.34"/>
<polygon fill="#63b8ff" stroke="#63b8ff" points="326.53,-109.83 336.38,-105.95 326.25,-102.84 326.53,-109.83"/>
</a>
</g>
</g>
<!-- Node4 -->
<g id="Node000004" class="node">
<title>Node4</title>
<g id="a_Node000004"><a xlink:href="namespace_nuki_lock.html#a031da7ab93a6a69e0e16dd7f5426ffaf" target="_top" xlink:title=" ">
<polygon fill="white" stroke="#666666" points="288.12,-93.25 163.38,-93.25 163.38,-74 288.12,-74 288.12,-93.25"/>
<text text-anchor="middle" x="225.75" y="-79.75" font-family="Helvetica,sans-Serif" font-size="10.00">NukiLock::logLockAction</text>
</a>
</g>
</g>
<!-- Node1&#45;&gt;Node4 -->
<g id="edge3_Node000001_Node000004" class="edge">
<title>Node1&#45;&gt;Node4</title>
<g id="a_edge3_Node000001_Node000004"><a xlink:title=" ">
<path fill="none" stroke="#63b8ff" d="M113.82,-83.62C125.94,-83.62 138.92,-83.62 151.58,-83.62"/>
<polygon fill="#63b8ff" stroke="#63b8ff" points="151.57,-87.13 161.57,-83.63 151.57,-80.13 151.57,-87.13"/>
</a>
</g>
</g>
<!-- Node5 -->
<g id="Node000005" class="node">
<title>Node5</title>
<g id="a_Node000005"><a xlink:href="namespace_nuki_lock.html#af6ebff0f8c6c0cb27a927a440812c02a" target="_top" xlink:title=" ">
<polygon fill="white" stroke="#666666" points="290.75,-56.25 160.75,-56.25 160.75,-37 290.75,-37 290.75,-56.25"/>
<text text-anchor="middle" x="225.75" y="-42.75" font-family="Helvetica,sans-Serif" font-size="10.00">NukiLock::logMessageVar</text>
</a>
</g>
</g>
<!-- Node1&#45;&gt;Node5 -->
<g id="edge6_Node000001_Node000005" class="edge">
<title>Node1&#45;&gt;Node5</title>
<g id="a_edge6_Node000001_Node000005"><a xlink:title=" ">
<path fill="none" stroke="#63b8ff" d="M103.38,-73.51C123.36,-69.09 147,-63.85 168.09,-59.18"/>
<polygon fill="#63b8ff" stroke="#63b8ff" points="168.69,-62.63 177.69,-57.05 167.17,-55.8 168.69,-62.63"/>
</a>
</g>
</g>
<!-- Node6 -->
<g id="Node000006" class="node">
<title>Node6</title>
<g id="a_Node000006"><a xlink:href="namespace_nuki_lock.html#a7d68c58293514d39207ee29f239b897c" target="_top" xlink:title=" ">
<polygon fill="white" stroke="#666666" points="288.5,-19.25 163,-19.25 163,0 288.5,0 288.5,-19.25"/>
<text text-anchor="middle" x="225.75" y="-5.75" font-family="Helvetica,sans-Serif" font-size="10.00">NukiLock::logNukiTrigger</text>
</a>
</g>
</g>
<!-- Node1&#45;&gt;Node6 -->
<g id="edge7_Node000001_Node000006" class="edge">
<title>Node1&#45;&gt;Node6</title>
<g id="a_edge7_Node000001_Node000006"><a xlink:title=" ">
<path fill="none" stroke="#63b8ff" d="M71.02,-73.67C88.25,-61.19 119.66,-39.94 149.5,-27.62 153.57,-25.94 157.84,-24.4 162.18,-22.98"/>
<polygon fill="#63b8ff" stroke="#63b8ff" points="163.04,-26.38 171.61,-20.15 161.03,-19.67 163.04,-26.38"/>
</a>
</g>
</g>
<!-- Node2&#45;&gt;Node3 -->
<g id="edge2_Node000002_Node000003" class="edge">
<title>Node2&#45;&gt;Node3</title>
<g id="a_edge2_Node000002_Node000003"><a xlink:title=" ">
<path fill="none" stroke="#63b8ff" d="M259.05,-149.59C272.38,-145.38 287.97,-140.36 302,-135.62 320.02,-129.54 339.9,-122.49 356.6,-116.47"/>
<polygon fill="#63b8ff" stroke="#63b8ff" points="357.43,-119.9 365.64,-113.2 355.04,-113.31 357.43,-119.9"/>
</a>
</g>
</g>
<!-- Node4&#45;&gt;Node3 -->
<g id="edge4_Node000004_Node000003" class="edge">
<title>Node4&#45;&gt;Node3</title>
<g id="a_edge4_Node000004_Node000003"><a xlink:title=" ">
<path fill="none" stroke="#63b8ff" d="M288.26,-90.59C300.65,-91.99 313.73,-93.48 326.33,-94.9"/>
<polygon fill="#63b8ff" stroke="#63b8ff" points="325.89,-98.38 336.22,-96.02 326.68,-91.42 325.89,-98.38"/>
</a>
</g>
</g>
<!-- Node6&#45;&gt;Node3 -->
<g id="edge8_Node000006_Node000003" class="edge">
<title>Node6&#45;&gt;Node3</title>
<g id="a_edge8_Node000006_Node000003"><a xlink:title=" ">
<path fill="none" stroke="#63b8ff" d="M281.61,-19.69C288.65,-21.86 295.61,-24.48 302,-27.62 331.37,-42.11 359.81,-67.38 377.22,-84.54"/>
<polygon fill="#63b8ff" stroke="#63b8ff" points="374.69,-86.96 384.21,-91.61 379.66,-82.04 374.69,-86.96"/>
</a>
</g>
</g>
</g>
</svg>
