<?xml version="1.0" encoding="UTF-8" standalone="no"?>
<!DOCTYPE svg PUBLIC "-//W3C//DTD SVG 1.1//EN"
 "http://www.w3.org/Graphics/SVG/1.1/DTD/svg11.dtd">
<!-- Generated by graphviz version 5.0.1 (20220820.1526)
 -->
<!-- Title: NukiOpener::logLogEntry Pages: 1 -->
<svg width="359pt" height="82pt"
 viewBox="0.00 0.00 359.00 81.50" xmlns="http://www.w3.org/2000/svg" xmlns:xlink="http://www.w3.org/1999/xlink">
<g id="graph0" class="graph" transform="scale(1 1) rotate(0) translate(4 77.5)">
<title>NukiOpener::logLogEntry</title>
<!-- Node1 -->
<g id="node1" class="node">
<title>Node1</title>
<g id="a_node1"><a xlink:title=" ">
<polygon fill="#999999" stroke="#666666" points="151,-44 0,-44 0,-23 151,-23 151,-44"/>
<text text-anchor="middle" x="75.5" y="-30.4" font-family="Helvetica,sans-Serif" font-size="12.00">NukiOpener::logLogEntry</text>
</a>
</g>
</g>
<!-- Node2 -->
<g id="node2" class="node">
<title>Node2</title>
<g id="a_node2"><a xlink:href="namespace_nuki_opener.html#a84631e75b3f180ead51e1a292fcee637" target="_top" xlink:title=" ">
<polygon fill="white" stroke="#666666" points="351,-73.5 187,-73.5 187,-39.5 351,-39.5 351,-73.5"/>
<text text-anchor="start" x="195" y="-59.9" font-family="Helvetica,sans-Serif" font-size="12.00">NukiOpener::logCompletion</text>
<text text-anchor="middle" x="269" y="-46.9" font-family="Helvetica,sans-Serif" font-size="12.00">Status</text>
</a>
</g>
</g>
<!-- Node1&#45;&gt;Node2 -->
<g id="edge1" class="edge">
<title>Node1&#45;&gt;Node2</title>
<path fill="none" stroke="#63b8ff" d="M151.09,-42.46C159.54,-43.47 168.23,-44.52 176.86,-45.55"/>
<polygon fill="#63b8ff" stroke="#63b8ff" points="176.61,-49.05 186.96,-46.77 177.45,-42.1 176.61,-49.05"/>
</g>
<!-- Node3 -->
<g id="node3" class="node">
<title>Node3</title>
<g id="a_node3"><a xlink:href="namespace_nuki_opener.html#ab25308954cb451d83358353032200422" target="_top" xlink:title=" ">
<polygon fill="white" stroke="#666666" points="350.5,-21 187.5,-21 187.5,0 350.5,0 350.5,-21"/>
<text text-anchor="middle" x="269" y="-7.4" font-family="Helvetica,sans-Serif" font-size="12.00">NukiOpener::logLockAction</text>
</a>
</g>
</g>
<!-- Node1&#45;&gt;Node3 -->
<g id="edge2" class="edge">
<title>Node1&#45;&gt;Node3</title>
<path fill="none" stroke="#63b8ff" d="M151.09,-24.54C159.62,-23.52 168.38,-22.46 177.09,-21.42"/>
<polygon fill="#63b8ff" stroke="#63b8ff" points="177.77,-24.86 187.28,-20.19 176.93,-17.91 177.77,-24.86"/>
</g>
</g>
</svg>
