<?xml version="1.0" encoding="UTF-8" standalone="no"?>
<!DOCTYPE svg PUBLIC "-//W3C//DTD SVG 1.1//EN"
 "http://www.w3.org/Graphics/SVG/1.1/DTD/svg11.dtd">
<!-- Generated by graphviz version 12.2.1 (20241206.2353)
 -->
<!-- Title: Nuki::printBuffer Pages: 1 -->
<svg width="294pt" height="517pt"
 viewBox="0.00 0.00 294.25 516.50" xmlns="http://www.w3.org/2000/svg" xmlns:xlink="http://www.w3.org/1999/xlink">
<g id="graph0" class="graph" transform="scale(1 1) rotate(0) translate(4 512.5)">
<title>Nuki::printBuffer</title>
<!-- Node1 -->
<g id="Node000001" class="node">
<title>Node1</title>
<g id="a_Node000001"><a xlink:title=" ">
<polygon fill="#999999" stroke="#666666" points="286.25,-269.88 201.25,-269.88 201.25,-250.62 286.25,-250.62 286.25,-269.88"/>
<text text-anchor="middle" x="243.75" y="-256.38" font-family="Helvetica,sans-Serif" font-size="10.00">Nuki::printBuffer</text>
</a>
</g>
</g>
<!-- Node2 -->
<g id="Node000002" class="node">
<title>Node2</title>
<g id="a_Node000002"><a xlink:href="class_nuki_1_1_nuki_ble.html#a8c69d960c9034d3ae5877285b666f09c" target="_top" xlink:title="Sends a new authorization entry to the lock via BLE.">
<polygon fill="white" stroke="#666666" points="158.5,-508.5 6.75,-508.5 6.75,-478 158.5,-478 158.5,-508.5"/>
<text text-anchor="start" x="14.75" y="-495" font-family="Helvetica,sans-Serif" font-size="10.00">Nuki::NukiBle::addAuthorization</text>
<text text-anchor="middle" x="82.62" y="-483.75" font-family="Helvetica,sans-Serif" font-size="10.00">Entry</text>
</a>
</g>
</g>
<!-- Node1&#45;&gt;Node2 -->
<g id="edge1_Node000001_Node000002" class="edge">
<title>Node1&#45;&gt;Node2</title>
<g id="a_edge1_Node000001_Node000002"><a xlink:title=" ">
<path fill="none" stroke="#63b8ff" d="M240.95,-281.37C236.25,-323.16 219.9,-416.76 165.25,-468.25 161.37,-471.91 156.96,-475.03 152.26,-477.7"/>
<polygon fill="#63b8ff" stroke="#63b8ff" points="244.41,-281.98 241.91,-271.68 237.44,-281.29 244.41,-281.98"/>
</a>
</g>
</g>
<!-- Node3 -->
<g id="Node000003" class="node">
<title>Node3</title>
<g id="a_Node000003"><a xlink:href="class_nuki_1_1_nuki_ble.html#ad96ef33212df343aa1433229f58f2ff7" target="_top" xlink:title="Send a new keypad entry to the lock via BLE.">
<polygon fill="white" stroke="#666666" points="146.5,-459.5 18.75,-459.5 18.75,-429 146.5,-429 146.5,-459.5"/>
<text text-anchor="start" x="26.75" y="-446" font-family="Helvetica,sans-Serif" font-size="10.00">Nuki::NukiBle::addKeypad</text>
<text text-anchor="middle" x="82.62" y="-434.75" font-family="Helvetica,sans-Serif" font-size="10.00">Entry</text>
</a>
</g>
</g>
<!-- Node1&#45;&gt;Node3 -->
<g id="edge2_Node000001_Node000003" class="edge">
<title>Node1&#45;&gt;Node3</title>
<g id="a_edge2_Node000001_Node000003"><a xlink:title=" ">
<path fill="none" stroke="#63b8ff" d="M238.29,-281.01C229.94,-314.92 208.7,-382.11 165.25,-419.25 159.73,-423.97 153.33,-427.8 146.6,-430.9"/>
<polygon fill="#63b8ff" stroke="#63b8ff" points="241.62,-282.15 240.46,-271.62 234.8,-280.57 241.62,-282.15"/>
</a>
</g>
</g>
<!-- Node4 -->
<g id="Node000004" class="node">
<title>Node4</title>
<g id="a_Node000004"><a xlink:href="class_nuki_lock_1_1_nuki_lock.html#ae580874f09b745718bb40c263de51c6e" target="_top" xlink:title="Sends a new time(d) control entry via BLE to the lock. This entry is independant of keypad or authori...">
<polygon fill="white" stroke="#666666" points="137.88,-410.5 27.38,-410.5 27.38,-380 137.88,-380 137.88,-410.5"/>
<text text-anchor="start" x="35.38" y="-397" font-family="Helvetica,sans-Serif" font-size="10.00">NukiLock::NukiLock</text>
<text text-anchor="middle" x="82.62" y="-385.75" font-family="Helvetica,sans-Serif" font-size="10.00">::addTimeControlEntry</text>
</a>
</g>
</g>
<!-- Node1&#45;&gt;Node4 -->
<g id="edge3_Node000001_Node000004" class="edge">
<title>Node1&#45;&gt;Node4</title>
<g id="a_edge3_Node000001_Node000004"><a xlink:title=" ">
<path fill="none" stroke="#63b8ff" d="M233.66,-280.48C221.53,-305.22 197.75,-346.7 165.25,-370.25 157.21,-376.08 147.79,-380.57 138.26,-384.02"/>
<polygon fill="#63b8ff" stroke="#63b8ff" points="236.8,-282.03 237.89,-271.49 230.46,-279.05 236.8,-282.03"/>
</a>
</g>
</g>
<!-- Node5 -->
<g id="Node000005" class="node">
<title>Node5</title>
<g id="a_Node000005"><a xlink:href="class_nuki_opener_1_1_nuki_opener.html#a6dee2bf0f439e7017fd9c2b3ae15a40c" target="_top" xlink:title="Sends a new time(d) control entry via BLE to the opener. This entry is independant of keypad or autho...">
<polygon fill="white" stroke="#666666" points="144.62,-361.5 20.62,-361.5 20.62,-331 144.62,-331 144.62,-361.5"/>
<text text-anchor="start" x="28.62" y="-348" font-family="Helvetica,sans-Serif" font-size="10.00">NukiOpener::NukiOpener</text>
<text text-anchor="middle" x="82.62" y="-336.75" font-family="Helvetica,sans-Serif" font-size="10.00">::addTimeControlEntry</text>
</a>
</g>
</g>
<!-- Node1&#45;&gt;Node5 -->
<g id="edge4_Node000001_Node000005" class="edge">
<title>Node1&#45;&gt;Node5</title>
<g id="a_edge4_Node000001_Node000005"><a xlink:title=" ">
<path fill="none" stroke="#63b8ff" d="M224.9,-277.92C210.05,-291.74 187.77,-310.51 165.25,-322.25 158.83,-325.59 151.88,-328.54 144.83,-331.11"/>
<polygon fill="#63b8ff" stroke="#63b8ff" points="227.22,-280.55 232.03,-271.11 222.38,-275.49 227.22,-280.55"/>
</a>
</g>
</g>
<!-- Node6 -->
<g id="Node000006" class="node">
<title>Node6</title>
<g id="a_Node000006"><a xlink:href="namespace_nuki.html#a547c975779e6d3b980a202106f805f48" target="_top" xlink:title=" ">
<polygon fill="white" stroke="#666666" points="136,-312.88 29.25,-312.88 29.25,-293.62 136,-293.62 136,-312.88"/>
<text text-anchor="middle" x="82.62" y="-299.38" font-family="Helvetica,sans-Serif" font-size="10.00">Nuki::generateNonce</text>
</a>
</g>
</g>
<!-- Node1&#45;&gt;Node6 -->
<g id="edge5_Node000001_Node000006" class="edge">
<title>Node1&#45;&gt;Node6</title>
<g id="a_edge5_Node000001_Node000006"><a xlink:title=" ">
<path fill="none" stroke="#63b8ff" d="M201.24,-273.71C189.64,-277.3 177,-281.07 165.25,-284.25 153.73,-287.37 141.22,-290.44 129.53,-293.17"/>
<polygon fill="#63b8ff" stroke="#63b8ff" points="202.04,-277.12 210.53,-270.79 199.94,-270.44 202.04,-277.12"/>
</a>
</g>
</g>
<!-- Node7 -->
<g id="Node000007" class="node">
<title>Node7</title>
<g id="a_Node000007"><a xlink:href="class_nuki_lock_1_1_nuki_lock.html#a8d9fc4e4a1bde183754ced8b783f82d5" target="_top" xlink:title=" ">
<polygon fill="white" stroke="#666666" points="141.25,-275.5 24,-275.5 24,-245 141.25,-245 141.25,-275.5"/>
<text text-anchor="start" x="32" y="-262" font-family="Helvetica,sans-Serif" font-size="10.00">NukiLock::NukiLock</text>
<text text-anchor="middle" x="82.62" y="-250.75" font-family="Helvetica,sans-Serif" font-size="10.00">::handleReturnMessage</text>
</a>
</g>
</g>
<!-- Node1&#45;&gt;Node7 -->
<g id="edge6_Node000001_Node000007" class="edge">
<title>Node1&#45;&gt;Node7</title>
<g id="a_edge6_Node000001_Node000007"><a xlink:title=" ">
<path fill="none" stroke="#63b8ff" d="M189.51,-260.25C174.13,-260.25 157.26,-260.25 141.6,-260.25"/>
<polygon fill="#63b8ff" stroke="#63b8ff" points="189.43,-263.75 199.43,-260.25 189.43,-256.75 189.43,-263.75"/>
</a>
</g>
</g>
<!-- Node8 -->
<g id="Node000008" class="node">
<title>Node8</title>
<g id="a_Node000008"><a xlink:href="class_nuki_opener_1_1_nuki_opener.html#a19ad4317e201ebe5e43ad55b6ea906da" target="_top" xlink:title=" ">
<polygon fill="white" stroke="#666666" points="144.62,-226.5 20.62,-226.5 20.62,-196 144.62,-196 144.62,-226.5"/>
<text text-anchor="start" x="28.62" y="-213" font-family="Helvetica,sans-Serif" font-size="10.00">NukiOpener::NukiOpener</text>
<text text-anchor="middle" x="82.62" y="-201.75" font-family="Helvetica,sans-Serif" font-size="10.00">::handleReturnMessage</text>
</a>
</g>
</g>
<!-- Node1&#45;&gt;Node8 -->
<g id="edge7_Node000001_Node000008" class="edge">
<title>Node1&#45;&gt;Node8</title>
<g id="a_edge7_Node000001_Node000008"><a xlink:title=" ">
<path fill="none" stroke="#63b8ff" d="M199.51,-246.83C188.35,-243.38 176.36,-239.67 165.25,-236.25 155.48,-233.24 145.04,-230.04 135.01,-226.96"/>
<polygon fill="#63b8ff" stroke="#63b8ff" points="198.3,-250.12 208.88,-249.74 200.37,-243.43 198.3,-250.12"/>
</a>
</g>
</g>
<!-- Node9 -->
<g id="Node000009" class="node">
<title>Node9</title>
<g id="a_Node000009"><a xlink:href="class_nuki_1_1_nuki_ble.html#af47efb4e020a327687327ad82963b347" target="_top" xlink:title="Sends an updated authorization entry to the lock via BLE.">
<polygon fill="white" stroke="#666666" points="165.25,-177.5 0,-177.5 0,-147 165.25,-147 165.25,-177.5"/>
<text text-anchor="start" x="8" y="-164" font-family="Helvetica,sans-Serif" font-size="10.00">Nuki::NukiBle::updateAuthorization</text>
<text text-anchor="middle" x="82.62" y="-152.75" font-family="Helvetica,sans-Serif" font-size="10.00">Entry</text>
</a>
</g>
</g>
<!-- Node1&#45;&gt;Node9 -->
<g id="edge8_Node000001_Node000009" class="edge">
<title>Node1&#45;&gt;Node9</title>
<g id="a_edge8_Node000001_Node000009"><a xlink:title=" ">
<path fill="none" stroke="#63b8ff" d="M227.72,-241.93C213.28,-225.45 190.06,-201.67 165.25,-187.25 159.1,-183.68 152.38,-180.56 145.54,-177.86"/>
<polygon fill="#63b8ff" stroke="#63b8ff" points="224.66,-243.73 233.8,-249.08 229.99,-239.19 224.66,-243.73"/>
</a>
</g>
</g>
<!-- Node10 -->
<g id="Node000010" class="node">
<title>Node10</title>
<g id="a_Node000010"><a xlink:href="class_nuki_1_1_nuki_ble.html#a0f1be2034e079e676a7771dfb775df81" target="_top" xlink:title="Send an updated keypad entry to the lock via BLE.">
<polygon fill="white" stroke="#666666" points="153.25,-128.5 12,-128.5 12,-98 153.25,-98 153.25,-128.5"/>
<text text-anchor="start" x="20" y="-115" font-family="Helvetica,sans-Serif" font-size="10.00">Nuki::NukiBle::updateKeypad</text>
<text text-anchor="middle" x="82.62" y="-103.75" font-family="Helvetica,sans-Serif" font-size="10.00">Entry</text>
</a>
</g>
</g>
<!-- Node1&#45;&gt;Node10 -->
<g id="edge9_Node000001_Node000010" class="edge">
<title>Node1&#45;&gt;Node10</title>
<g id="a_edge9_Node000001_Node000010"><a xlink:title=" ">
<path fill="none" stroke="#63b8ff" d="M235.06,-239.78C223.83,-212.62 200.37,-165.01 165.25,-138.25 160.53,-134.66 155.3,-131.58 149.82,-128.94"/>
<polygon fill="#63b8ff" stroke="#63b8ff" points="231.75,-240.93 238.69,-248.95 238.26,-238.36 231.75,-240.93"/>
</a>
</g>
</g>
<!-- Node11 -->
<g id="Node000011" class="node">
<title>Node11</title>
<g id="a_Node000011"><a xlink:href="class_nuki_lock_1_1_nuki_lock.html#a8d1a06e5fa6f5fb06923c74fb8c6f6d7" target="_top" xlink:title="Sends an updated time(d) control entry via BLE to the lock. (see addTimeControlEntry())">
<polygon fill="white" stroke="#666666" points="144.62,-79.5 20.62,-79.5 20.62,-49 144.62,-49 144.62,-79.5"/>
<text text-anchor="start" x="28.62" y="-66" font-family="Helvetica,sans-Serif" font-size="10.00">NukiLock::NukiLock</text>
<text text-anchor="middle" x="82.62" y="-54.75" font-family="Helvetica,sans-Serif" font-size="10.00">::updateTimeControlEntry</text>
</a>
</g>
</g>
<!-- Node1&#45;&gt;Node11 -->
<g id="edge10_Node000001_Node000011" class="edge">
<title>Node1&#45;&gt;Node11</title>
<g id="a_edge10_Node000001_Node000011"><a xlink:title=" ">
<path fill="none" stroke="#63b8ff" d="M239.08,-239.46C231.65,-203.55 211.45,-129.87 165.25,-89.25 159.35,-84.06 152.4,-79.95 145.07,-76.69"/>
<polygon fill="#63b8ff" stroke="#63b8ff" points="235.59,-239.82 240.91,-248.98 242.46,-238.5 235.59,-239.82"/>
</a>
</g>
</g>
<!-- Node12 -->
<g id="Node000012" class="node">
<title>Node12</title>
<g id="a_Node000012"><a xlink:href="class_nuki_opener_1_1_nuki_opener.html#ad896a195b57a3961a10497c432bc55ed" target="_top" xlink:title="Sends an updated time(d) control entry via BLE to the opener. (see addTimeControlEntry())">
<polygon fill="white" stroke="#666666" points="144.62,-30.5 20.62,-30.5 20.62,0 144.62,0 144.62,-30.5"/>
<text text-anchor="start" x="28.62" y="-17" font-family="Helvetica,sans-Serif" font-size="10.00">NukiOpener::NukiOpener</text>
<text text-anchor="middle" x="82.62" y="-5.75" font-family="Helvetica,sans-Serif" font-size="10.00">::updateTimeControlEntry</text>
</a>
</g>
</g>
<!-- Node1&#45;&gt;Node12 -->
<g id="edge11_Node000001_Node000012" class="edge">
<title>Node1&#45;&gt;Node12</title>
<g id="a_edge11_Node000001_Node000012"><a xlink:title=" ">
<path fill="none" stroke="#63b8ff" d="M241.42,-238.83C237.55,-195.14 222.58,-95.25 165.25,-40.25 159.47,-34.71 152.5,-30.39 145.1,-27.03"/>
<polygon fill="#63b8ff" stroke="#63b8ff" points="237.93,-239.03 242.17,-248.74 244.91,-238.51 237.93,-239.03"/>
</a>
</g>
</g>
</g>
</svg>
