<?xml version="1.0" encoding="UTF-8" standalone="no"?>
<!DOCTYPE svg PUBLIC "-//W3C//DTD SVG 1.1//EN"
 "http://www.w3.org/Graphics/SVG/1.1/DTD/svg11.dtd">
<!-- Generated by graphviz version 5.0.1 (20220820.1526)
 -->
<!-- Title: NukiLock::logKeyturnerState Pages: 1 -->
<svg width="394pt" height="107pt"
 viewBox="0.00 0.00 394.00 107.00" xmlns="http://www.w3.org/2000/svg" xmlns:xlink="http://www.w3.org/1999/xlink">
<g id="graph0" class="graph" transform="scale(1 1) rotate(0) translate(4 103)">
<title>NukiLock::logKeyturnerState</title>
<!-- Node1 -->
<g id="node1" class="node">
<title>Node1</title>
<g id="a_node1"><a xlink:title=" ">
<polygon fill="#999999" stroke="#666666" points="168,-60 0,-60 0,-39 168,-39 168,-60"/>
<text text-anchor="middle" x="84" y="-46.4" font-family="Helvetica,sans-Serif" font-size="12.00">NukiLock::logKeyturnerState</text>
</a>
</g>
</g>
<!-- Node2 -->
<g id="node2" class="node">
<title>Node2</title>
<g id="a_node2"><a xlink:href="namespace_nuki_lock.html#a564f6d63072267bb72f431e4c4e1c947" target="_top" xlink:title=" ">
<polygon fill="white" stroke="#666666" points="386,-99 204,-99 204,-78 386,-78 386,-99"/>
<text text-anchor="middle" x="295" y="-85.4" font-family="Helvetica,sans-Serif" font-size="12.00">NukiLock::logCompletionStatus</text>
</a>
</g>
</g>
<!-- Node1&#45;&gt;Node2 -->
<g id="edge1" class="edge">
<title>Node1&#45;&gt;Node2</title>
<path fill="none" stroke="#63b8ff" d="M141.28,-60C167.88,-64.97 199.81,-70.92 227.59,-76.11"/>
<polygon fill="#63b8ff" stroke="#63b8ff" points="227.14,-79.58 237.62,-77.98 228.43,-72.7 227.14,-79.58"/>
</g>
<!-- Node3 -->
<g id="node3" class="node">
<title>Node3</title>
<g id="a_node3"><a xlink:href="namespace_nuki_lock.html#a02e1891ccc5565890fd8ddd6577dea57" target="_top" xlink:title=" ">
<polygon fill="white" stroke="#666666" points="369,-60 221,-60 221,-39 369,-39 369,-60"/>
<text text-anchor="middle" x="295" y="-46.4" font-family="Helvetica,sans-Serif" font-size="12.00">NukiLock::logLockAction</text>
</a>
</g>
</g>
<!-- Node1&#45;&gt;Node3 -->
<g id="edge2" class="edge">
<title>Node1&#45;&gt;Node3</title>
<path fill="none" stroke="#63b8ff" d="M168.2,-49.5C182.22,-49.5 196.77,-49.5 210.78,-49.5"/>
<polygon fill="#63b8ff" stroke="#63b8ff" points="210.88,-53 220.88,-49.5 210.88,-46 210.88,-53"/>
</g>
<!-- Node4 -->
<g id="node4" class="node">
<title>Node4</title>
<g id="a_node4"><a xlink:href="namespace_nuki_lock.html#aa9c8584e761f69cad4eb3ea1c20d27e7" target="_top" xlink:title=" ">
<polygon fill="white" stroke="#666666" points="371,-21 219,-21 219,0 371,0 371,-21"/>
<text text-anchor="middle" x="295" y="-7.4" font-family="Helvetica,sans-Serif" font-size="12.00">NukiLock::logNukiTrigger</text>
</a>
</g>
</g>
<!-- Node1&#45;&gt;Node4 -->
<g id="edge3" class="edge">
<title>Node1&#45;&gt;Node4</title>
<path fill="none" stroke="#63b8ff" d="M141.28,-39C167.88,-34.03 199.81,-28.08 227.59,-22.89"/>
<polygon fill="#63b8ff" stroke="#63b8ff" points="228.43,-26.3 237.62,-21.02 227.14,-19.42 228.43,-26.3"/>
</g>
</g>
</svg>
