<?xml version="1.0" encoding="UTF-8" standalone="no"?>
<!DOCTYPE svg PUBLIC "-//W3C//DTD SVG 1.1//EN"
 "http://www.w3.org/Graphics/SVG/1.1/DTD/svg11.dtd">
<!-- Generated by graphviz version 12.2.1 (20241206.2353)
 -->
<!-- Title: NukiLock::logKeyturnerState Pages: 1 -->
<svg width="487pt" height="138pt"
 viewBox="0.00 0.00 487.25 138.25" xmlns="http://www.w3.org/2000/svg" xmlns:xlink="http://www.w3.org/1999/xlink">
<g id="graph0" class="graph" transform="scale(1 1) rotate(0) translate(4 134.25)">
<title>NukiLock::logKeyturnerState</title>
<!-- Node1 -->
<g id="Node000001" class="node">
<title>Node1</title>
<g id="a_Node000001"><a xlink:title=" ">
<polygon fill="#999999" stroke="#666666" points="139.75,-74.25 0,-74.25 0,-55 139.75,-55 139.75,-74.25"/>
<text text-anchor="middle" x="69.88" y="-60.75" font-family="Helvetica,sans-Serif" font-size="10.00">NukiLock::logKeyturnerState</text>
</a>
</g>
</g>
<!-- Node2 -->
<g id="Node000002" class="node">
<title>Node2</title>
<g id="a_Node000002"><a xlink:href="namespace_nuki_lock.html#ac4d82a0f8f0d3ae3fe2a00c9d442cab0" target="_top" xlink:title=" ">
<polygon fill="white" stroke="#666666" points="328.25,-130.25 175.75,-130.25 175.75,-111 328.25,-111 328.25,-130.25"/>
<text text-anchor="middle" x="252" y="-116.75" font-family="Helvetica,sans-Serif" font-size="10.00">NukiLock::logCompletionStatus</text>
</a>
</g>
</g>
<!-- Node1&#45;&gt;Node2 -->
<g id="edge1_Node000001_Node000002" class="edge">
<title>Node1&#45;&gt;Node2</title>
<g id="a_edge1_Node000001_Node000002"><a xlink:title=" ">
<path fill="none" stroke="#63b8ff" d="M96.04,-74.65C117.12,-82.83 148.11,-94.34 175.75,-102.62 181.85,-104.45 188.27,-106.22 194.69,-107.89"/>
<polygon fill="#63b8ff" stroke="#63b8ff" points="193.4,-111.17 203.95,-110.22 195.11,-104.39 193.4,-111.17"/>
</a>
</g>
</g>
<!-- Node4 -->
<g id="Node000004" class="node">
<title>Node4</title>
<g id="a_Node000004"><a xlink:href="namespace_nuki_lock.html#a031da7ab93a6a69e0e16dd7f5426ffaf" target="_top" xlink:title=" ">
<polygon fill="white" stroke="#666666" points="314.38,-93.25 189.62,-93.25 189.62,-74 314.38,-74 314.38,-93.25"/>
<text text-anchor="middle" x="252" y="-79.75" font-family="Helvetica,sans-Serif" font-size="10.00">NukiLock::logLockAction</text>
</a>
</g>
</g>
<!-- Node1&#45;&gt;Node4 -->
<g id="edge3_Node000001_Node000004" class="edge">
<title>Node1&#45;&gt;Node4</title>
<g id="a_edge3_Node000001_Node000004"><a xlink:title=" ">
<path fill="none" stroke="#63b8ff" d="M140,-71.92C152.38,-73.22 165.32,-74.59 177.81,-75.91"/>
<polygon fill="#63b8ff" stroke="#63b8ff" points="177.31,-79.37 187.62,-76.94 178.05,-72.41 177.31,-79.37"/>
</a>
</g>
</g>
<!-- Node5 -->
<g id="Node000005" class="node">
<title>Node5</title>
<g id="a_Node000005"><a xlink:href="namespace_nuki_lock.html#af6ebff0f8c6c0cb27a927a440812c02a" target="_top" xlink:title=" ">
<polygon fill="white" stroke="#666666" points="317,-56.25 187,-56.25 187,-37 317,-37 317,-56.25"/>
<text text-anchor="middle" x="252" y="-42.75" font-family="Helvetica,sans-Serif" font-size="10.00">NukiLock::logMessageVar</text>
</a>
</g>
</g>
<!-- Node1&#45;&gt;Node5 -->
<g id="edge5_Node000001_Node000005" class="edge">
<title>Node1&#45;&gt;Node5</title>
<g id="a_edge5_Node000001_Node000005"><a xlink:title=" ">
<path fill="none" stroke="#63b8ff" d="M140,-57.72C151.65,-56.55 163.8,-55.34 175.61,-54.16"/>
<polygon fill="#63b8ff" stroke="#63b8ff" points="175.68,-57.67 185.28,-53.19 174.98,-50.7 175.68,-57.67"/>
</a>
</g>
</g>
<!-- Node6 -->
<g id="Node000006" class="node">
<title>Node6</title>
<g id="a_Node000006"><a xlink:href="namespace_nuki_lock.html#a7d68c58293514d39207ee29f239b897c" target="_top" xlink:title=" ">
<polygon fill="white" stroke="#666666" points="314.75,-19.25 189.25,-19.25 189.25,0 314.75,0 314.75,-19.25"/>
<text text-anchor="middle" x="252" y="-5.75" font-family="Helvetica,sans-Serif" font-size="10.00">NukiLock::logNukiTrigger</text>
</a>
</g>
</g>
<!-- Node1&#45;&gt;Node6 -->
<g id="edge6_Node000001_Node000006" class="edge">
<title>Node1&#45;&gt;Node6</title>
<g id="a_edge6_Node000001_Node000006"><a xlink:title=" ">
<path fill="none" stroke="#63b8ff" d="M96.92,-54.58C117.99,-46.67 148.53,-35.66 175.75,-27.62 181.86,-25.82 188.28,-24.07 194.7,-22.41"/>
<polygon fill="#63b8ff" stroke="#63b8ff" points="195.12,-25.92 203.97,-20.08 193.41,-19.13 195.12,-25.92"/>
</a>
</g>
</g>
<!-- Node3 -->
<g id="Node000003" class="node">
<title>Node3</title>
<g id="a_Node000003"><a xlink:href="namespace_nuki_lock.html#a1c4b22e22d81b2258bb6f2ce1e1f7d6f" target="_top" xlink:title=" ">
<polygon fill="white" stroke="#666666" points="479.25,-93.25 364.25,-93.25 364.25,-74 479.25,-74 479.25,-93.25"/>
<text text-anchor="middle" x="421.75" y="-79.75" font-family="Helvetica,sans-Serif" font-size="10.00">NukiLock::logMessage</text>
</a>
</g>
</g>
<!-- Node2&#45;&gt;Node3 -->
<g id="edge2_Node000002_Node000003" class="edge">
<title>Node2&#45;&gt;Node3</title>
<g id="a_edge2_Node000002_Node000003"><a xlink:title=" ">
<path fill="none" stroke="#63b8ff" d="M298.84,-110.51C318.9,-106.09 342.65,-100.85 363.83,-96.18"/>
<polygon fill="#63b8ff" stroke="#63b8ff" points="364.48,-99.62 373.49,-94.05 362.97,-92.79 364.48,-99.62"/>
</a>
</g>
</g>
<!-- Node4&#45;&gt;Node3 -->
<g id="edge4_Node000004_Node000003" class="edge">
<title>Node4&#45;&gt;Node3</title>
<g id="a_edge4_Node000004_Node000003"><a xlink:title=" ">
<path fill="none" stroke="#63b8ff" d="M314.51,-83.62C326.9,-83.62 339.98,-83.62 352.58,-83.62"/>
<polygon fill="#63b8ff" stroke="#63b8ff" points="352.46,-87.13 362.46,-83.63 352.46,-80.13 352.46,-87.13"/>
</a>
</g>
</g>
<!-- Node6&#45;&gt;Node3 -->
<g id="edge7_Node000006_Node000003" class="edge">
<title>Node6&#45;&gt;Node3</title>
<g id="a_edge7_Node000006_Node000003"><a xlink:title=" ">
<path fill="none" stroke="#63b8ff" d="M304.68,-19.74C312.7,-21.95 320.79,-24.56 328.25,-27.62 353.48,-37.98 379.87,-54.62 397.97,-67.08"/>
<polygon fill="#63b8ff" stroke="#63b8ff" points="395.93,-69.92 406.12,-72.8 399.95,-64.19 395.93,-69.92"/>
</a>
</g>
</g>
</g>
</svg>
